<?xml version="1.0" encoding="UTF-8" standalone="no"?>
<!DOCTYPE svg PUBLIC "-//W3C//DTD SVG 1.1//EN"
 "http://www.w3.org/Graphics/SVG/1.1/DTD/svg11.dtd">
<!-- Generated by graphviz version 2.40.1 (0)
 -->
<!-- Title: snakemake_dag Pages: 1 -->
<svg width="1944pt" height="669pt"
 viewBox="0.00 0.00 1943.50 669.00" xmlns="http://www.w3.org/2000/svg" xmlns:xlink="http://www.w3.org/1999/xlink">
<g id="graph0" class="graph" transform="scale(1 1) rotate(0) translate(4 665)">
<title>snakemake_dag</title>
<polygon fill="#ffffff" stroke="transparent" points="-4,4 -4,-665 1939.5,-665 1939.5,4 -4,4"/>
<!-- 0 -->
<g id="node1" class="node">
<title>0</title>
<path fill="none" stroke="#9fd856" stroke-width="2" d="M1049.5,-36C1049.5,-36 1019.5,-36 1019.5,-36 1013.5,-36 1007.5,-30 1007.5,-24 1007.5,-24 1007.5,-12 1007.5,-12 1007.5,-6 1013.5,0 1019.5,0 1019.5,0 1049.5,0 1049.5,0 1055.5,0 1061.5,-6 1061.5,-12 1061.5,-12 1061.5,-24 1061.5,-24 1061.5,-30 1055.5,-36 1049.5,-36"/>
<text text-anchor="middle" x="1034.5" y="-15.5" font-family="sans" font-size="10.00" fill="#000000">all</text>
</g>
<!-- 1 -->
<g id="node2" class="node">
<title>1</title>
<path fill="none" stroke="#5673d8" stroke-width="2" d="M1022.5,-108C1022.5,-108 992.5,-108 992.5,-108 986.5,-108 980.5,-102 980.5,-96 980.5,-96 980.5,-84 980.5,-84 980.5,-78 986.5,-72 992.5,-72 992.5,-72 1022.5,-72 1022.5,-72 1028.5,-72 1034.5,-78 1034.5,-84 1034.5,-84 1034.5,-96 1034.5,-96 1034.5,-102 1028.5,-108 1022.5,-108"/>
<text text-anchor="middle" x="1007.5" y="-87.5" font-family="sans" font-size="10.00" fill="#000000">multiqc</text>
</g>
<!-- 1&#45;&gt;0 -->
<g id="edge1" class="edge">
<title>1&#45;&gt;0</title>
<path fill="none" stroke="#c0c0c0" stroke-width="2" d="M1014.3132,-71.8314C1017.2644,-63.9617 1020.7858,-54.5712 1024.055,-45.8533"/>
<polygon fill="#c0c0c0" stroke="#c0c0c0" stroke-width="2" points="1027.3609,-47.0055 1027.595,-36.4133 1020.8066,-44.5476 1027.3609,-47.0055"/>
</g>
<!-- 2 -->
<g id="node3" class="node">
<title>2</title>
<path fill="none" stroke="#88d856" stroke-width="2" d="M119,-661C119,-661 12,-661 12,-661 6,-661 0,-655 0,-649 0,-649 0,-588 0,-588 0,-582 6,-576 12,-576 12,-576 119,-576 119,-576 125,-576 131,-582 131,-588 131,-588 131,-649 131,-649 131,-655 125,-661 119,-661"/>
<text text-anchor="middle" x="65.5" y="-649" font-family="sans" font-size="10.00" fill="#000000">bowtie2</text>
<text text-anchor="middle" x="65.5" y="-638" font-family="sans" font-size="10.00" fill="#000000">library: lib2</text>
<text text-anchor="middle" x="65.5" y="-627" font-family="sans" font-size="10.00" fill="#000000">n_chunk: 1</text>
<text text-anchor="middle" x="65.5" y="-616" font-family="sans" font-size="10.00" fill="#000000">read_type_map: collapsed</text>
<text text-anchor="middle" x="65.5" y="-605" font-family="sans" font-size="10.00" fill="#000000">ref: refseq_invertebrate</text>
<text text-anchor="middle" x="65.5" y="-594" font-family="sans" font-size="10.00" fill="#000000">sample: HD827sonic_2</text>
<text text-anchor="middle" x="65.5" y="-583" font-family="sans" font-size="10.00" fill="#000000">tot_chunks: 3</text>
</g>
<!-- 2&#45;&gt;1 -->
<g id="edge11" class="edge">
<title>2&#45;&gt;1</title>
<path fill="none" stroke="#c0c0c0" stroke-width="2" d="M131.0162,-593.066C148.2475,-586.9394 166.9326,-580.7885 184.5,-576 266.5792,-553.6272 312.6256,-600.4366 372.5,-540 498.3987,-412.9192 311.4727,-263.5982 444.5,-144 484.9317,-107.6499 878.7788,-116.3716 932.5,-108 945.0073,-106.0509 958.5043,-103.0869 970.5546,-100.1233"/>
<polygon fill="#c0c0c0" stroke="#c0c0c0" stroke-width="2" points="971.4503,-103.507 980.2831,-97.6562 969.7296,-96.7218 971.4503,-103.507"/>
</g>
<!-- 46 -->
<g id="node47" class="node">
<title>46</title>
<path fill="none" stroke="#56d882" stroke-width="2" d="M103.5,-540C103.5,-540 21.5,-540 21.5,-540 15.5,-540 9.5,-534 9.5,-528 9.5,-528 9.5,-516 9.5,-516 9.5,-510 15.5,-504 21.5,-504 21.5,-504 103.5,-504 103.5,-504 109.5,-504 115.5,-510 115.5,-516 115.5,-516 115.5,-528 115.5,-528 115.5,-534 109.5,-540 103.5,-540"/>
<text text-anchor="middle" x="62.5" y="-519.5" font-family="sans" font-size="10.00" fill="#000000">chunk_clean_header</text>
</g>
<!-- 2&#45;&gt;46 -->
<g id="edge73" class="edge">
<title>2&#45;&gt;46</title>
<path fill="none" stroke="#c0c0c0" stroke-width="2" d="M64.1754,-575.8928C63.9078,-567.2842 63.6326,-558.4327 63.3846,-550.4546"/>
<polygon fill="#c0c0c0" stroke="#c0c0c0" stroke-width="2" points="66.8756,-550.1082 63.0665,-540.2218 59.879,-550.3257 66.8756,-550.1082"/>
</g>
<!-- 3 -->
<g id="node4" class="node">
<title>3</title>
<path fill="none" stroke="#88d856" stroke-width="2" d="M1861,-661C1861,-661 1754,-661 1754,-661 1748,-661 1742,-655 1742,-649 1742,-649 1742,-588 1742,-588 1742,-582 1748,-576 1754,-576 1754,-576 1861,-576 1861,-576 1867,-576 1873,-582 1873,-588 1873,-588 1873,-649 1873,-649 1873,-655 1867,-661 1861,-661"/>
<text text-anchor="middle" x="1807.5" y="-649" font-family="sans" font-size="10.00" fill="#000000">bowtie2</text>
<text text-anchor="middle" x="1807.5" y="-638" font-family="sans" font-size="10.00" fill="#000000">library: lib1</text>
<text text-anchor="middle" x="1807.5" y="-627" font-family="sans" font-size="10.00" fill="#000000">n_chunk: 1</text>
<text text-anchor="middle" x="1807.5" y="-616" font-family="sans" font-size="10.00" fill="#000000">read_type_map: collapsed</text>
<text text-anchor="middle" x="1807.5" y="-605" font-family="sans" font-size="10.00" fill="#000000">ref: refseq_mitochondrion</text>
<text text-anchor="middle" x="1807.5" y="-594" font-family="sans" font-size="10.00" fill="#000000">sample: HD827sonic_2</text>
<text text-anchor="middle" x="1807.5" y="-583" font-family="sans" font-size="10.00" fill="#000000">tot_chunks: 1</text>
</g>
<!-- 3&#45;&gt;1 -->
<g id="edge12" class="edge">
<title>3&#45;&gt;1</title>
<path fill="none" stroke="#c0c0c0" stroke-width="2" d="M1811.8871,-575.7514C1813.7354,-534.3606 1809.8551,-472.1377 1776.5,-432 1746.5766,-395.9918 1717.8663,-419.7183 1677.5,-396 1603.7455,-352.6636 1464.3415,-179.4751 1386.5,-144 1325.892,-116.3788 1127.8728,-98.9079 1044.7571,-92.6244"/>
<polygon fill="#c0c0c0" stroke="#c0c0c0" stroke-width="2" points="1044.975,-89.131 1034.7429,-91.8796 1044.4558,-96.1117 1044.975,-89.131"/>
</g>
<!-- 33 -->
<g id="node34" class="node">
<title>33</title>
<path fill="none" stroke="#56d882" stroke-width="2" d="M1923.5,-540C1923.5,-540 1841.5,-540 1841.5,-540 1835.5,-540 1829.5,-534 1829.5,-528 1829.5,-528 1829.5,-516 1829.5,-516 1829.5,-510 1835.5,-504 1841.5,-504 1841.5,-504 1923.5,-504 1923.5,-504 1929.5,-504 1935.5,-510 1935.5,-516 1935.5,-516 1935.5,-528 1935.5,-528 1935.5,-534 1929.5,-540 1923.5,-540"/>
<text text-anchor="middle" x="1882.5" y="-519.5" font-family="sans" font-size="10.00" fill="#000000">chunk_clean_header</text>
</g>
<!-- 3&#45;&gt;33 -->
<g id="edge57" class="edge">
<title>3&#45;&gt;33</title>
<path fill="none" stroke="#c0c0c0" stroke-width="2" d="M1840.6144,-575.8928C1847.9133,-566.5016 1855.4368,-556.8213 1862.0586,-548.3013"/>
<polygon fill="#c0c0c0" stroke="#c0c0c0" stroke-width="2" points="1864.9649,-550.2653 1868.338,-540.2218 1859.4379,-545.9697 1864.9649,-550.2653"/>
</g>
<!-- 4 -->
<g id="node5" class="node">
<title>4</title>
<path fill="none" stroke="#88d856" stroke-width="2" d="M313,-661C313,-661 206,-661 206,-661 200,-661 194,-655 194,-649 194,-649 194,-588 194,-588 194,-582 200,-576 206,-576 206,-576 313,-576 313,-576 319,-576 325,-582 325,-588 325,-588 325,-649 325,-649 325,-655 319,-661 313,-661"/>
<text text-anchor="middle" x="259.5" y="-649" font-family="sans" font-size="10.00" fill="#000000">bowtie2</text>
<text text-anchor="middle" x="259.5" y="-638" font-family="sans" font-size="10.00" fill="#000000">library: lib2</text>
<text text-anchor="middle" x="259.5" y="-627" font-family="sans" font-size="10.00" fill="#000000">n_chunk: 3</text>
<text text-anchor="middle" x="259.5" y="-616" font-family="sans" font-size="10.00" fill="#000000">read_type_map: collapsed</text>
<text text-anchor="middle" x="259.5" y="-605" font-family="sans" font-size="10.00" fill="#000000">ref: refseq_invertebrate</text>
<text text-anchor="middle" x="259.5" y="-594" font-family="sans" font-size="10.00" fill="#000000">sample: HD827sonic_2</text>
<text text-anchor="middle" x="259.5" y="-583" font-family="sans" font-size="10.00" fill="#000000">tot_chunks: 3</text>
</g>
<!-- 4&#45;&gt;1 -->
<g id="edge13" class="edge">
<title>4&#45;&gt;1</title>
<path fill="none" stroke="#c0c0c0" stroke-width="2" d="M325.2939,-590.1392C358.9027,-574.3344 394.9173,-554.8985 405.5,-540 457.1012,-467.3549 403.0126,-204.4268 468.5,-144 506.5037,-108.933 881.4214,-116.0591 932.5,-108 945.0036,-106.0272 958.4996,-103.057 970.5502,-100.095"/>
<polygon fill="#c0c0c0" stroke="#c0c0c0" stroke-width="2" points="971.4446,-103.479 980.2791,-97.6309 969.7259,-96.6933 971.4446,-103.479"/>
</g>
<!-- 40 -->
<g id="node41" class="node">
<title>40</title>
<path fill="none" stroke="#56d882" stroke-width="2" d="M227.5,-540C227.5,-540 145.5,-540 145.5,-540 139.5,-540 133.5,-534 133.5,-528 133.5,-528 133.5,-516 133.5,-516 133.5,-510 139.5,-504 145.5,-504 145.5,-504 227.5,-504 227.5,-504 233.5,-504 239.5,-510 239.5,-516 239.5,-516 239.5,-528 239.5,-528 239.5,-534 233.5,-540 227.5,-540"/>
<text text-anchor="middle" x="186.5" y="-519.5" font-family="sans" font-size="10.00" fill="#000000">chunk_clean_header</text>
</g>
<!-- 4&#45;&gt;40 -->
<g id="edge67" class="edge">
<title>4&#45;&gt;40</title>
<path fill="none" stroke="#c0c0c0" stroke-width="2" d="M227.2686,-575.8928C220.1644,-566.5016 212.8415,-556.8213 206.3963,-548.3013"/>
<polygon fill="#c0c0c0" stroke="#c0c0c0" stroke-width="2" points="209.1087,-546.0854 200.2844,-540.2218 203.5261,-550.3085 209.1087,-546.0854"/>
</g>
<!-- 5 -->
<g id="node6" class="node">
<title>5</title>
<path fill="none" stroke="#88d856" stroke-width="2" d="M1413,-661C1413,-661 1306,-661 1306,-661 1300,-661 1294,-655 1294,-649 1294,-649 1294,-588 1294,-588 1294,-582 1300,-576 1306,-576 1306,-576 1413,-576 1413,-576 1419,-576 1425,-582 1425,-588 1425,-588 1425,-649 1425,-649 1425,-655 1419,-661 1413,-661"/>
<text text-anchor="middle" x="1359.5" y="-649" font-family="sans" font-size="10.00" fill="#000000">bowtie2</text>
<text text-anchor="middle" x="1359.5" y="-638" font-family="sans" font-size="10.00" fill="#000000">library: lib1</text>
<text text-anchor="middle" x="1359.5" y="-627" font-family="sans" font-size="10.00" fill="#000000">n_chunk: 1</text>
<text text-anchor="middle" x="1359.5" y="-616" font-family="sans" font-size="10.00" fill="#000000">read_type_map: collapsed</text>
<text text-anchor="middle" x="1359.5" y="-605" font-family="sans" font-size="10.00" fill="#000000">ref: refseq_invertebrate</text>
<text text-anchor="middle" x="1359.5" y="-594" font-family="sans" font-size="10.00" fill="#000000">sample: HD827sonic_2</text>
<text text-anchor="middle" x="1359.5" y="-583" font-family="sans" font-size="10.00" fill="#000000">tot_chunks: 3</text>
</g>
<!-- 5&#45;&gt;1 -->
<g id="edge14" class="edge">
<title>5&#45;&gt;1</title>
<path fill="none" stroke="#c0c0c0" stroke-width="2" d="M1325.2941,-575.6069C1317.0178,-564.3402 1308.5378,-551.9806 1301.5,-540 1274.8023,-494.5522 1283.5481,-474.5945 1252.5,-432 1210.4288,-374.283 1177.5092,-380.2532 1133.5,-324 1080.526,-256.2879 1037.9163,-163.1803 1018.647,-117.5162"/>
<polygon fill="#c0c0c0" stroke="#c0c0c0" stroke-width="2" points="1021.8663,-116.1423 1014.7874,-108.2594 1015.4053,-118.8362 1021.8663,-116.1423"/>
</g>
<!-- 35 -->
<g id="node36" class="node">
<title>35</title>
<path fill="none" stroke="#56d882" stroke-width="2" d="M1513.5,-540C1513.5,-540 1431.5,-540 1431.5,-540 1425.5,-540 1419.5,-534 1419.5,-528 1419.5,-528 1419.5,-516 1419.5,-516 1419.5,-510 1425.5,-504 1431.5,-504 1431.5,-504 1513.5,-504 1513.5,-504 1519.5,-504 1525.5,-510 1525.5,-516 1525.5,-516 1525.5,-528 1525.5,-528 1525.5,-534 1519.5,-540 1513.5,-540"/>
<text text-anchor="middle" x="1472.5" y="-519.5" font-family="sans" font-size="10.00" fill="#000000">chunk_clean_header</text>
</g>
<!-- 5&#45;&gt;35 -->
<g id="edge59" class="edge">
<title>5&#45;&gt;35</title>
<path fill="none" stroke="#c0c0c0" stroke-width="2" d="M1409.3924,-575.8928C1421.0766,-565.9147 1433.1431,-555.6101 1443.5559,-546.7178"/>
<polygon fill="#c0c0c0" stroke="#c0c0c0" stroke-width="2" points="1445.831,-549.3774 1451.1626,-540.2218 1441.2852,-544.0543 1445.831,-549.3774"/>
</g>
<!-- 6 -->
<g id="node7" class="node">
<title>6</title>
<path fill="none" stroke="#88d856" stroke-width="2" d="M1263,-661C1263,-661 1156,-661 1156,-661 1150,-661 1144,-655 1144,-649 1144,-649 1144,-588 1144,-588 1144,-582 1150,-576 1156,-576 1156,-576 1263,-576 1263,-576 1269,-576 1275,-582 1275,-588 1275,-588 1275,-649 1275,-649 1275,-655 1269,-661 1263,-661"/>
<text text-anchor="middle" x="1209.5" y="-649" font-family="sans" font-size="10.00" fill="#000000">bowtie2</text>
<text text-anchor="middle" x="1209.5" y="-638" font-family="sans" font-size="10.00" fill="#000000">library: lib1</text>
<text text-anchor="middle" x="1209.5" y="-627" font-family="sans" font-size="10.00" fill="#000000">n_chunk: 1</text>
<text text-anchor="middle" x="1209.5" y="-616" font-family="sans" font-size="10.00" fill="#000000">read_type_map: collapsed</text>
<text text-anchor="middle" x="1209.5" y="-605" font-family="sans" font-size="10.00" fill="#000000">ref: refseq_mitochondrion</text>
<text text-anchor="middle" x="1209.5" y="-594" font-family="sans" font-size="10.00" fill="#000000">sample: HD827sonic_1</text>
<text text-anchor="middle" x="1209.5" y="-583" font-family="sans" font-size="10.00" fill="#000000">tot_chunks: 1</text>
</g>
<!-- 6&#45;&gt;1 -->
<g id="edge15" class="edge">
<title>6&#45;&gt;1</title>
<path fill="none" stroke="#c0c0c0" stroke-width="2" d="M1267.129,-575.691C1318.458,-532.2002 1385.5,-459.7487 1385.5,-378 1385.5,-378 1385.5,-378 1385.5,-234 1385.5,-192.6022 1392.3269,-171.6311 1361.5,-144 1315.3118,-102.6001 1126.0532,-92.9312 1044.8204,-90.6801"/>
<polygon fill="#c0c0c0" stroke="#c0c0c0" stroke-width="2" points="1044.6405,-87.1745 1034.5549,-90.4195 1044.4628,-94.1722 1044.6405,-87.1745"/>
</g>
<!-- 22 -->
<g id="node23" class="node">
<title>22</title>
<path fill="none" stroke="#56d882" stroke-width="2" d="M1237.5,-540C1237.5,-540 1155.5,-540 1155.5,-540 1149.5,-540 1143.5,-534 1143.5,-528 1143.5,-528 1143.5,-516 1143.5,-516 1143.5,-510 1149.5,-504 1155.5,-504 1155.5,-504 1237.5,-504 1237.5,-504 1243.5,-504 1249.5,-510 1249.5,-516 1249.5,-516 1249.5,-528 1249.5,-528 1249.5,-534 1243.5,-540 1237.5,-540"/>
<text text-anchor="middle" x="1196.5" y="-519.5" font-family="sans" font-size="10.00" fill="#000000">chunk_clean_header</text>
</g>
<!-- 6&#45;&gt;22 -->
<g id="edge43" class="edge">
<title>6&#45;&gt;22</title>
<path fill="none" stroke="#c0c0c0" stroke-width="2" d="M1203.7602,-575.8928C1202.5873,-567.1864 1201.3809,-558.2315 1200.2967,-550.183"/>
<polygon fill="#c0c0c0" stroke="#c0c0c0" stroke-width="2" points="1203.7586,-549.665 1198.9547,-540.2218 1196.8213,-550.5996 1203.7586,-549.665"/>
</g>
<!-- 7 -->
<g id="node8" class="node">
<title>7</title>
<path fill="none" stroke="#88d856" stroke-width="2" d="M1563,-661C1563,-661 1456,-661 1456,-661 1450,-661 1444,-655 1444,-649 1444,-649 1444,-588 1444,-588 1444,-582 1450,-576 1456,-576 1456,-576 1563,-576 1563,-576 1569,-576 1575,-582 1575,-588 1575,-588 1575,-649 1575,-649 1575,-655 1569,-661 1563,-661"/>
<text text-anchor="middle" x="1509.5" y="-649" font-family="sans" font-size="10.00" fill="#000000">bowtie2</text>
<text text-anchor="middle" x="1509.5" y="-638" font-family="sans" font-size="10.00" fill="#000000">library: lib1</text>
<text text-anchor="middle" x="1509.5" y="-627" font-family="sans" font-size="10.00" fill="#000000">n_chunk: 3</text>
<text text-anchor="middle" x="1509.5" y="-616" font-family="sans" font-size="10.00" fill="#000000">read_type_map: collapsed</text>
<text text-anchor="middle" x="1509.5" y="-605" font-family="sans" font-size="10.00" fill="#000000">ref: refseq_invertebrate</text>
<text text-anchor="middle" x="1509.5" y="-594" font-family="sans" font-size="10.00" fill="#000000">sample: HD827sonic_2</text>
<text text-anchor="middle" x="1509.5" y="-583" font-family="sans" font-size="10.00" fill="#000000">tot_chunks: 3</text>
</g>
<!-- 7&#45;&gt;1 -->
<g id="edge16" class="edge">
<title>7&#45;&gt;1</title>
<path fill="none" stroke="#c0c0c0" stroke-width="2" d="M1443.6912,-580.4809C1413.8498,-563.0347 1383.7965,-545.0936 1377.5,-540 1326.6412,-498.8577 1322.3549,-479.6167 1277.5,-432 1247.1092,-399.7379 1240.6979,-390.4588 1208.5,-360 1190.6398,-343.1045 1182.5514,-342.6225 1166.5,-324 1104.8303,-252.452 1109.3842,-220.1527 1053.5,-144 1046.5827,-134.5739 1038.4696,-124.7125 1030.999,-116.0351"/>
<polygon fill="#c0c0c0" stroke="#c0c0c0" stroke-width="2" points="1033.5853,-113.6757 1024.3715,-108.4453 1028.3126,-118.2799 1033.5853,-113.6757"/>
</g>
<!-- 29 -->
<g id="node30" class="node">
<title>29</title>
<path fill="none" stroke="#56d882" stroke-width="2" d="M1637.5,-540C1637.5,-540 1555.5,-540 1555.5,-540 1549.5,-540 1543.5,-534 1543.5,-528 1543.5,-528 1543.5,-516 1543.5,-516 1543.5,-510 1549.5,-504 1555.5,-504 1555.5,-504 1637.5,-504 1637.5,-504 1643.5,-504 1649.5,-510 1649.5,-516 1649.5,-516 1649.5,-528 1649.5,-528 1649.5,-534 1643.5,-540 1637.5,-540"/>
<text text-anchor="middle" x="1596.5" y="-519.5" font-family="sans" font-size="10.00" fill="#000000">chunk_clean_header</text>
</g>
<!-- 7&#45;&gt;29 -->
<g id="edge53" class="edge">
<title>7&#45;&gt;29</title>
<path fill="none" stroke="#c0c0c0" stroke-width="2" d="M1547.9127,-575.8928C1556.5558,-566.306 1565.4705,-556.4178 1573.2666,-547.7703"/>
<polygon fill="#c0c0c0" stroke="#c0c0c0" stroke-width="2" points="1575.9755,-549.9926 1580.0721,-540.2218 1570.7765,-545.3054 1575.9755,-549.9926"/>
</g>
<!-- 8 -->
<g id="node9" class="node">
<title>8</title>
<path fill="none" stroke="#88d856" stroke-width="2" d="M799,-661C799,-661 692,-661 692,-661 686,-661 680,-655 680,-649 680,-649 680,-588 680,-588 680,-582 686,-576 692,-576 692,-576 799,-576 799,-576 805,-576 811,-582 811,-588 811,-588 811,-649 811,-649 811,-655 805,-661 799,-661"/>
<text text-anchor="middle" x="745.5" y="-649" font-family="sans" font-size="10.00" fill="#000000">bowtie2</text>
<text text-anchor="middle" x="745.5" y="-638" font-family="sans" font-size="10.00" fill="#000000">library: lib1</text>
<text text-anchor="middle" x="745.5" y="-627" font-family="sans" font-size="10.00" fill="#000000">n_chunk: 3</text>
<text text-anchor="middle" x="745.5" y="-616" font-family="sans" font-size="10.00" fill="#000000">read_type_map: collapsed</text>
<text text-anchor="middle" x="745.5" y="-605" font-family="sans" font-size="10.00" fill="#000000">ref: refseq_invertebrate</text>
<text text-anchor="middle" x="745.5" y="-594" font-family="sans" font-size="10.00" fill="#000000">sample: HD827sonic_1</text>
<text text-anchor="middle" x="745.5" y="-583" font-family="sans" font-size="10.00" fill="#000000">tot_chunks: 3</text>
</g>
<!-- 8&#45;&gt;1 -->
<g id="edge17" class="edge">
<title>8&#45;&gt;1</title>
<path fill="none" stroke="#c0c0c0" stroke-width="2" d="M708.1809,-575.8156C700.0162,-564.7412 692.1396,-552.4183 686.5,-540 669.5957,-502.777 667.5,-490.8816 667.5,-450 667.5,-450 667.5,-450 667.5,-234 667.5,-217.6822 685.0765,-223.6311 699.5,-216 763.0991,-182.3512 777.9618,-171.3817 844.5,-144 886.8471,-126.5733 937.0618,-110.6176 970.4555,-100.6419"/>
<polygon fill="#c0c0c0" stroke="#c0c0c0" stroke-width="2" points="971.6559,-103.9368 980.2517,-97.743 969.6696,-97.2245 971.6559,-103.9368"/>
</g>
<!-- 18 -->
<g id="node19" class="node">
<title>18</title>
<path fill="none" stroke="#56d882" stroke-width="2" d="M789.5,-540C789.5,-540 707.5,-540 707.5,-540 701.5,-540 695.5,-534 695.5,-528 695.5,-528 695.5,-516 695.5,-516 695.5,-510 701.5,-504 707.5,-504 707.5,-504 789.5,-504 789.5,-504 795.5,-504 801.5,-510 801.5,-516 801.5,-516 801.5,-528 801.5,-528 801.5,-534 795.5,-540 789.5,-540"/>
<text text-anchor="middle" x="748.5" y="-519.5" font-family="sans" font-size="10.00" fill="#000000">chunk_clean_header</text>
</g>
<!-- 8&#45;&gt;18 -->
<g id="edge39" class="edge">
<title>8&#45;&gt;18</title>
<path fill="none" stroke="#c0c0c0" stroke-width="2" d="M746.8246,-575.8928C747.0922,-567.2842 747.3674,-558.4327 747.6154,-550.4546"/>
<polygon fill="#c0c0c0" stroke="#c0c0c0" stroke-width="2" points="751.121,-550.3257 747.9335,-540.2218 744.1244,-550.1082 751.121,-550.3257"/>
</g>
<!-- 9 -->
<g id="node10" class="node">
<title>9</title>
<path fill="none" stroke="#88d856" stroke-width="2" d="M644,-661C644,-661 537,-661 537,-661 531,-661 525,-655 525,-649 525,-649 525,-588 525,-588 525,-582 531,-576 537,-576 537,-576 644,-576 644,-576 650,-576 656,-582 656,-588 656,-588 656,-649 656,-649 656,-655 650,-661 644,-661"/>
<text text-anchor="middle" x="590.5" y="-649" font-family="sans" font-size="10.00" fill="#000000">bowtie2</text>
<text text-anchor="middle" x="590.5" y="-638" font-family="sans" font-size="10.00" fill="#000000">library: lib2</text>
<text text-anchor="middle" x="590.5" y="-627" font-family="sans" font-size="10.00" fill="#000000">n_chunk: 1</text>
<text text-anchor="middle" x="590.5" y="-616" font-family="sans" font-size="10.00" fill="#000000">read_type_map: collapsed</text>
<text text-anchor="middle" x="590.5" y="-605" font-family="sans" font-size="10.00" fill="#000000">ref: refseq_mitochondrion</text>
<text text-anchor="middle" x="590.5" y="-594" font-family="sans" font-size="10.00" fill="#000000">sample: HD827sonic_2</text>
<text text-anchor="middle" x="590.5" y="-583" font-family="sans" font-size="10.00" fill="#000000">tot_chunks: 1</text>
</g>
<!-- 9&#45;&gt;1 -->
<g id="edge18" class="edge">
<title>9&#45;&gt;1</title>
<path fill="none" stroke="#c0c0c0" stroke-width="2" d="M606.0259,-575.8398C616.9017,-542.1469 629.5,-493.689 629.5,-450 629.5,-450 629.5,-450 629.5,-234 629.5,-88.1538 790.2953,-140.3874 932.5,-108 944.9442,-105.1658 958.5185,-101.9469 970.6563,-99.0226"/>
<polygon fill="#c0c0c0" stroke="#c0c0c0" stroke-width="2" points="971.5618,-102.4046 980.4579,-96.6505 969.9152,-95.601 971.5618,-102.4046"/>
</g>
<!-- 44 -->
<g id="node45" class="node">
<title>44</title>
<path fill="none" stroke="#56d882" stroke-width="2" d="M589.5,-540C589.5,-540 507.5,-540 507.5,-540 501.5,-540 495.5,-534 495.5,-528 495.5,-528 495.5,-516 495.5,-516 495.5,-510 501.5,-504 507.5,-504 507.5,-504 589.5,-504 589.5,-504 595.5,-504 601.5,-510 601.5,-516 601.5,-516 601.5,-528 601.5,-528 601.5,-534 595.5,-540 589.5,-540"/>
<text text-anchor="middle" x="548.5" y="-519.5" font-family="sans" font-size="10.00" fill="#000000">chunk_clean_header</text>
</g>
<!-- 9&#45;&gt;44 -->
<g id="edge71" class="edge">
<title>9&#45;&gt;44</title>
<path fill="none" stroke="#c0c0c0" stroke-width="2" d="M571.9559,-575.8928C568.0815,-566.9907 564.0939,-557.8289 560.5306,-549.6418"/>
<polygon fill="#c0c0c0" stroke="#c0c0c0" stroke-width="2" points="563.6307,-547.9942 556.4307,-540.2218 557.2123,-550.7878 563.6307,-547.9942"/>
</g>
<!-- 10 -->
<g id="node11" class="node">
<title>10</title>
<path fill="none" stroke="#88d856" stroke-width="2" d="M1712,-661C1712,-661 1605,-661 1605,-661 1599,-661 1593,-655 1593,-649 1593,-649 1593,-588 1593,-588 1593,-582 1599,-576 1605,-576 1605,-576 1712,-576 1712,-576 1718,-576 1724,-582 1724,-588 1724,-588 1724,-649 1724,-649 1724,-655 1718,-661 1712,-661"/>
<text text-anchor="middle" x="1658.5" y="-649" font-family="sans" font-size="10.00" fill="#000000">bowtie2</text>
<text text-anchor="middle" x="1658.5" y="-638" font-family="sans" font-size="10.00" fill="#000000">library: lib1</text>
<text text-anchor="middle" x="1658.5" y="-627" font-family="sans" font-size="10.00" fill="#000000">n_chunk: 2</text>
<text text-anchor="middle" x="1658.5" y="-616" font-family="sans" font-size="10.00" fill="#000000">read_type_map: collapsed</text>
<text text-anchor="middle" x="1658.5" y="-605" font-family="sans" font-size="10.00" fill="#000000">ref: refseq_invertebrate</text>
<text text-anchor="middle" x="1658.5" y="-594" font-family="sans" font-size="10.00" fill="#000000">sample: HD827sonic_2</text>
<text text-anchor="middle" x="1658.5" y="-583" font-family="sans" font-size="10.00" fill="#000000">tot_chunks: 3</text>
</g>
<!-- 10&#45;&gt;1 -->
<g id="edge19" class="edge">
<title>10&#45;&gt;1</title>
<path fill="none" stroke="#c0c0c0" stroke-width="2" d="M1592.8475,-579.4178C1590.0594,-578.1976 1587.2703,-577.0512 1584.5,-576 1510.6657,-547.9831 1470.8006,-590.993 1410.5,-540 1351.5115,-490.1166 1347.5,-455.2528 1347.5,-378 1347.5,-378 1347.5,-378 1347.5,-234 1347.5,-193.0242 1357.2105,-172.2187 1327.5,-144 1287.3131,-105.831 1119.8877,-94.4355 1044.5359,-91.2052"/>
<polygon fill="#c0c0c0" stroke="#c0c0c0" stroke-width="2" points="1044.6704,-87.7078 1034.5374,-90.8016 1044.3881,-94.7021 1044.6704,-87.7078"/>
</g>
<!-- 31 -->
<g id="node32" class="node">
<title>31</title>
<path fill="none" stroke="#56d882" stroke-width="2" d="M1761.5,-540C1761.5,-540 1679.5,-540 1679.5,-540 1673.5,-540 1667.5,-534 1667.5,-528 1667.5,-528 1667.5,-516 1667.5,-516 1667.5,-510 1673.5,-504 1679.5,-504 1679.5,-504 1761.5,-504 1761.5,-504 1767.5,-504 1773.5,-510 1773.5,-516 1773.5,-516 1773.5,-528 1773.5,-528 1773.5,-534 1767.5,-540 1761.5,-540"/>
<text text-anchor="middle" x="1720.5" y="-519.5" font-family="sans" font-size="10.00" fill="#000000">chunk_clean_header</text>
</g>
<!-- 10&#45;&gt;31 -->
<g id="edge55" class="edge">
<title>10&#45;&gt;31</title>
<path fill="none" stroke="#c0c0c0" stroke-width="2" d="M1685.8746,-575.8928C1691.7826,-566.6973 1697.8687,-557.2245 1703.2587,-548.8353"/>
<polygon fill="#c0c0c0" stroke="#c0c0c0" stroke-width="2" points="1706.3319,-550.5269 1708.7927,-540.2218 1700.4427,-546.7431 1706.3319,-550.5269"/>
</g>
<!-- 11 -->
<g id="node12" class="node">
<title>11</title>
<path fill="none" stroke="#88d856" stroke-width="2" d="M1112,-661C1112,-661 1005,-661 1005,-661 999,-661 993,-655 993,-649 993,-649 993,-588 993,-588 993,-582 999,-576 1005,-576 1005,-576 1112,-576 1112,-576 1118,-576 1124,-582 1124,-588 1124,-588 1124,-649 1124,-649 1124,-655 1118,-661 1112,-661"/>
<text text-anchor="middle" x="1058.5" y="-649" font-family="sans" font-size="10.00" fill="#000000">bowtie2</text>
<text text-anchor="middle" x="1058.5" y="-638" font-family="sans" font-size="10.00" fill="#000000">library: lib1</text>
<text text-anchor="middle" x="1058.5" y="-627" font-family="sans" font-size="10.00" fill="#000000">n_chunk: 1</text>
<text text-anchor="middle" x="1058.5" y="-616" font-family="sans" font-size="10.00" fill="#000000">read_type_map: collapsed</text>
<text text-anchor="middle" x="1058.5" y="-605" font-family="sans" font-size="10.00" fill="#000000">ref: refseq_invertebrate</text>
<text text-anchor="middle" x="1058.5" y="-594" font-family="sans" font-size="10.00" fill="#000000">sample: HD827sonic_1</text>
<text text-anchor="middle" x="1058.5" y="-583" font-family="sans" font-size="10.00" fill="#000000">tot_chunks: 3</text>
</g>
<!-- 11&#45;&gt;1 -->
<g id="edge20" class="edge">
<title>11&#45;&gt;1</title>
<path fill="none" stroke="#c0c0c0" stroke-width="2" d="M1031.8682,-575.8598C1016.2976,-552.9542 995.2601,-525.1594 972.5,-504 950.8299,-483.854 930.6783,-493.9699 916.5,-468 892.1686,-423.4331 957.2884,-350.3811 965.5,-324 987.9949,-251.7315 999.8136,-162.9275 1004.7088,-118.3605"/>
<polygon fill="#c0c0c0" stroke="#c0c0c0" stroke-width="2" points="1008.2043,-118.5867 1005.7805,-108.2728 1001.2435,-117.8471 1008.2043,-118.5867"/>
</g>
<!-- 24 -->
<g id="node25" class="node">
<title>24</title>
<path fill="none" stroke="#56d882" stroke-width="2" d="M1113.5,-540C1113.5,-540 1031.5,-540 1031.5,-540 1025.5,-540 1019.5,-534 1019.5,-528 1019.5,-528 1019.5,-516 1019.5,-516 1019.5,-510 1025.5,-504 1031.5,-504 1031.5,-504 1113.5,-504 1113.5,-504 1119.5,-504 1125.5,-510 1125.5,-516 1125.5,-516 1125.5,-528 1125.5,-528 1125.5,-534 1119.5,-540 1113.5,-540"/>
<text text-anchor="middle" x="1072.5" y="-519.5" font-family="sans" font-size="10.00" fill="#000000">chunk_clean_header</text>
</g>
<!-- 11&#45;&gt;24 -->
<g id="edge45" class="edge">
<title>11&#45;&gt;24</title>
<path fill="none" stroke="#c0c0c0" stroke-width="2" d="M1064.6814,-575.8928C1065.9445,-567.1864 1067.2436,-558.2315 1068.4113,-550.183"/>
<polygon fill="#c0c0c0" stroke="#c0c0c0" stroke-width="2" points="1071.8843,-550.6207 1069.8564,-540.2218 1064.9569,-549.6156 1071.8843,-550.6207"/>
</g>
<!-- 12 -->
<g id="node13" class="node">
<title>12</title>
<path fill="none" stroke="#88d856" stroke-width="2" d="M958,-661C958,-661 851,-661 851,-661 845,-661 839,-655 839,-649 839,-649 839,-588 839,-588 839,-582 845,-576 851,-576 851,-576 958,-576 958,-576 964,-576 970,-582 970,-588 970,-588 970,-649 970,-649 970,-655 964,-661 958,-661"/>
<text text-anchor="middle" x="904.5" y="-649" font-family="sans" font-size="10.00" fill="#000000">bowtie2</text>
<text text-anchor="middle" x="904.5" y="-638" font-family="sans" font-size="10.00" fill="#000000">library: lib1</text>
<text text-anchor="middle" x="904.5" y="-627" font-family="sans" font-size="10.00" fill="#000000">n_chunk: 2</text>
<text text-anchor="middle" x="904.5" y="-616" font-family="sans" font-size="10.00" fill="#000000">read_type_map: collapsed</text>
<text text-anchor="middle" x="904.5" y="-605" font-family="sans" font-size="10.00" fill="#000000">ref: refseq_invertebrate</text>
<text text-anchor="middle" x="904.5" y="-594" font-family="sans" font-size="10.00" fill="#000000">sample: HD827sonic_1</text>
<text text-anchor="middle" x="904.5" y="-583" font-family="sans" font-size="10.00" fill="#000000">tot_chunks: 3</text>
</g>
<!-- 12&#45;&gt;1 -->
<g id="edge21" class="edge">
<title>12&#45;&gt;1</title>
<path fill="none" stroke="#c0c0c0" stroke-width="2" d="M869.1251,-575.594C861.3741,-564.5264 853.8857,-552.2621 848.5,-540 832.0599,-502.5696 829.5,-490.8816 829.5,-450 829.5,-450 829.5,-450 829.5,-234 829.5,-161.9293 918.7904,-119.7132 970.8897,-101.215"/>
<polygon fill="#c0c0c0" stroke="#c0c0c0" stroke-width="2" points="972.141,-104.4861 980.4656,-97.9323 969.871,-97.8643 972.141,-104.4861"/>
</g>
<!-- 20 -->
<g id="node21" class="node">
<title>20</title>
<path fill="none" stroke="#56d882" stroke-width="2" d="M951.5,-540C951.5,-540 869.5,-540 869.5,-540 863.5,-540 857.5,-534 857.5,-528 857.5,-528 857.5,-516 857.5,-516 857.5,-510 863.5,-504 869.5,-504 869.5,-504 951.5,-504 951.5,-504 957.5,-504 963.5,-510 963.5,-516 963.5,-516 963.5,-528 963.5,-528 963.5,-534 957.5,-540 951.5,-540"/>
<text text-anchor="middle" x="910.5" y="-519.5" font-family="sans" font-size="10.00" fill="#000000">chunk_clean_header</text>
</g>
<!-- 12&#45;&gt;20 -->
<g id="edge41" class="edge">
<title>12&#45;&gt;20</title>
<path fill="none" stroke="#c0c0c0" stroke-width="2" d="M907.1492,-575.8928C907.6844,-567.2842 908.2348,-558.4327 908.7308,-550.4546"/>
<polygon fill="#c0c0c0" stroke="#c0c0c0" stroke-width="2" points="912.2396,-550.4197 909.367,-540.2218 905.2531,-549.9853 912.2396,-550.4197"/>
</g>
<!-- 13 -->
<g id="node14" class="node">
<title>13</title>
<path fill="none" stroke="#88d856" stroke-width="2" d="M484,-661C484,-661 377,-661 377,-661 371,-661 365,-655 365,-649 365,-649 365,-588 365,-588 365,-582 371,-576 377,-576 377,-576 484,-576 484,-576 490,-576 496,-582 496,-588 496,-588 496,-649 496,-649 496,-655 490,-661 484,-661"/>
<text text-anchor="middle" x="430.5" y="-649" font-family="sans" font-size="10.00" fill="#000000">bowtie2</text>
<text text-anchor="middle" x="430.5" y="-638" font-family="sans" font-size="10.00" fill="#000000">library: lib2</text>
<text text-anchor="middle" x="430.5" y="-627" font-family="sans" font-size="10.00" fill="#000000">n_chunk: 2</text>
<text text-anchor="middle" x="430.5" y="-616" font-family="sans" font-size="10.00" fill="#000000">read_type_map: collapsed</text>
<text text-anchor="middle" x="430.5" y="-605" font-family="sans" font-size="10.00" fill="#000000">ref: refseq_invertebrate</text>
<text text-anchor="middle" x="430.5" y="-594" font-family="sans" font-size="10.00" fill="#000000">sample: HD827sonic_2</text>
<text text-anchor="middle" x="430.5" y="-583" font-family="sans" font-size="10.00" fill="#000000">tot_chunks: 3</text>
</g>
<!-- 13&#45;&gt;1 -->
<g id="edge22" class="edge">
<title>13&#45;&gt;1</title>
<path fill="none" stroke="#c0c0c0" stroke-width="2" d="M442.8922,-575.8046C474.7077,-469.3464 562.0719,-196.8891 637.5,-144 691.5735,-106.0845 867.5073,-119.7253 932.5,-108 944.9572,-105.7526 958.441,-102.7106 970.4948,-99.7672"/>
<polygon fill="#c0c0c0" stroke="#c0c0c0" stroke-width="2" points="971.3747,-103.155 980.2296,-97.3376 969.6796,-96.3634 971.3747,-103.155"/>
</g>
<!-- 42 -->
<g id="node43" class="node">
<title>42</title>
<path fill="none" stroke="#56d882" stroke-width="2" d="M351.5,-540C351.5,-540 269.5,-540 269.5,-540 263.5,-540 257.5,-534 257.5,-528 257.5,-528 257.5,-516 257.5,-516 257.5,-510 263.5,-504 269.5,-504 269.5,-504 351.5,-504 351.5,-504 357.5,-504 363.5,-510 363.5,-516 363.5,-516 363.5,-528 363.5,-528 363.5,-534 357.5,-540 351.5,-540"/>
<text text-anchor="middle" x="310.5" y="-519.5" font-family="sans" font-size="10.00" fill="#000000">chunk_clean_header</text>
</g>
<!-- 13&#45;&gt;42 -->
<g id="edge69" class="edge">
<title>13&#45;&gt;42</title>
<path fill="none" stroke="#c0c0c0" stroke-width="2" d="M377.5169,-575.8928C365.1089,-565.9147 352.295,-555.6101 341.2371,-546.7178"/>
<polygon fill="#c0c0c0" stroke="#c0c0c0" stroke-width="2" points="343.1454,-543.7611 333.1592,-540.2218 338.7587,-549.216 343.1454,-543.7611"/>
</g>
<!-- 14 -->
<g id="node15" class="node">
<title>14</title>
<path fill="none" stroke="#d8d356" stroke-width="2" d="M955,-252C955,-252 870,-252 870,-252 864,-252 858,-246 858,-240 858,-240 858,-228 858,-228 858,-222 864,-216 870,-216 870,-216 955,-216 955,-216 961,-216 967,-222 967,-228 967,-228 967,-240 967,-240 967,-246 961,-252 955,-252"/>
<text text-anchor="middle" x="912.5" y="-231.5" font-family="sans" font-size="10.00" fill="#000000">align_samtools_stats</text>
</g>
<!-- 14&#45;&gt;1 -->
<g id="edge23" class="edge">
<title>14&#45;&gt;1</title>
<path fill="none" stroke="#c0c0c0" stroke-width="2" d="M924.5318,-215.7623C941.0923,-190.66 971.0162,-145.3017 990.0391,-116.4671"/>
<polygon fill="#c0c0c0" stroke="#c0c0c0" stroke-width="2" points="992.9805,-118.3642 995.5659,-108.0896 987.1375,-114.5094 992.9805,-118.3642"/>
</g>
<!-- 15 -->
<g id="node16" class="node">
<title>15</title>
<path fill="none" stroke="#bed856" stroke-width="2" d="M944.5,-324C944.5,-324 880.5,-324 880.5,-324 874.5,-324 868.5,-318 868.5,-312 868.5,-312 868.5,-300 868.5,-300 868.5,-294 874.5,-288 880.5,-288 880.5,-288 944.5,-288 944.5,-288 950.5,-288 956.5,-294 956.5,-300 956.5,-300 956.5,-312 956.5,-312 956.5,-318 950.5,-324 944.5,-324"/>
<text text-anchor="middle" x="912.5" y="-303.5" font-family="sans" font-size="10.00" fill="#000000">align_sort_coord</text>
</g>
<!-- 15&#45;&gt;14 -->
<g id="edge32" class="edge">
<title>15&#45;&gt;14</title>
<path fill="none" stroke="#c0c0c0" stroke-width="2" d="M912.5,-287.8314C912.5,-280.131 912.5,-270.9743 912.5,-262.4166"/>
<polygon fill="#c0c0c0" stroke="#c0c0c0" stroke-width="2" points="916.0001,-262.4132 912.5,-252.4133 909.0001,-262.4133 916.0001,-262.4132"/>
</g>
<!-- 61 -->
<g id="node62" class="node">
<title>61</title>
<path fill="none" stroke="#d8b456" stroke-width="2" d="M776,-252C776,-252 721,-252 721,-252 715,-252 709,-246 709,-240 709,-240 709,-228 709,-228 709,-222 715,-216 721,-216 721,-216 776,-216 776,-216 782,-216 788,-222 788,-228 788,-228 788,-240 788,-240 788,-246 782,-252 776,-252"/>
<text text-anchor="middle" x="748.5" y="-231.5" font-family="sans" font-size="10.00" fill="#000000">align_reassign</text>
</g>
<!-- 15&#45;&gt;61 -->
<g id="edge91" class="edge">
<title>15&#45;&gt;61</title>
<path fill="none" stroke="#c0c0c0" stroke-width="2" d="M871.1159,-287.8314C848.7648,-278.0187 821.0277,-265.8414 797.5907,-255.552"/>
<polygon fill="#c0c0c0" stroke="#c0c0c0" stroke-width="2" points="798.7371,-252.2329 788.1737,-251.4177 795.9231,-258.6424 798.7371,-252.2329"/>
</g>
<!-- 16 -->
<g id="node17" class="node">
<title>16</title>
<path fill="none" stroke="#d89556" stroke-width="2" d="M1107,-396C1107,-396 1062,-396 1062,-396 1056,-396 1050,-390 1050,-384 1050,-384 1050,-372 1050,-372 1050,-366 1056,-360 1062,-360 1062,-360 1107,-360 1107,-360 1113,-360 1119,-366 1119,-372 1119,-372 1119,-384 1119,-384 1119,-390 1113,-396 1107,-396"/>
<text text-anchor="middle" x="1084.5" y="-375.5" font-family="sans" font-size="10.00" fill="#000000">align_merge</text>
</g>
<!-- 16&#45;&gt;15 -->
<g id="edge33" class="edge">
<title>16&#45;&gt;15</title>
<path fill="none" stroke="#c0c0c0" stroke-width="2" d="M1049.6932,-363.4297C1025.458,-353.2847 992.6948,-339.5699 965.2634,-328.087"/>
<polygon fill="#c0c0c0" stroke="#c0c0c0" stroke-width="2" points="966.3816,-324.7609 955.8057,-324.128 963.6786,-331.218 966.3816,-324.7609"/>
</g>
<!-- 48 -->
<g id="node49" class="node">
<title>48</title>
<path fill="none" stroke="#5692d8" stroke-width="2" d="M1239,-324C1239,-324 1188,-324 1188,-324 1182,-324 1176,-318 1176,-312 1176,-312 1176,-300 1176,-300 1176,-294 1182,-288 1188,-288 1188,-288 1239,-288 1239,-288 1245,-288 1251,-294 1251,-300 1251,-300 1251,-312 1251,-312 1251,-318 1245,-324 1239,-324"/>
<text text-anchor="middle" x="1213.5" y="-303.5" font-family="sans" font-size="10.00" fill="#000000">metadmg_lca</text>
</g>
<!-- 16&#45;&gt;48 -->
<g id="edge75" class="edge">
<title>16&#45;&gt;48</title>
<path fill="none" stroke="#c0c0c0" stroke-width="2" d="M1117.0521,-359.8314C1133.7048,-350.5368 1154.1585,-339.1208 1171.9385,-329.1971"/>
<polygon fill="#c0c0c0" stroke="#c0c0c0" stroke-width="2" points="1173.9321,-332.0927 1180.9583,-324.1628 1170.5205,-325.9803 1173.9321,-332.0927"/>
</g>
<!-- 56 -->
<g id="node57" class="node">
<title>56</title>
<path fill="none" stroke="#56d0d8" stroke-width="2" d="M1601,-108C1601,-108 1528,-108 1528,-108 1522,-108 1516,-102 1516,-96 1516,-96 1516,-84 1516,-84 1516,-78 1522,-72 1528,-72 1528,-72 1601,-72 1601,-72 1607,-72 1613,-78 1613,-84 1613,-84 1613,-96 1613,-96 1613,-102 1607,-108 1601,-108"/>
<text text-anchor="middle" x="1564.5" y="-87.5" font-family="sans" font-size="10.00" fill="#000000">metadmg_damage</text>
</g>
<!-- 16&#45;&gt;56 -->
<g id="edge86" class="edge">
<title>16&#45;&gt;56</title>
<path fill="none" stroke="#c0c0c0" stroke-width="2" d="M1119.3656,-377.567C1245.7386,-375.6587 1674.5999,-366.1057 1717.5,-324 1746.1463,-295.8842 1756.1442,-176.4355 1732.5,-144 1719.2734,-125.8555 1666.1139,-110.7854 1623.088,-101.2178"/>
<polygon fill="#c0c0c0" stroke="#c0c0c0" stroke-width="2" points="1623.7562,-97.7814 1613.2416,-99.0833 1622.2731,-104.6225 1623.7562,-97.7814"/>
</g>
<!-- 17 -->
<g id="node18" class="node">
<title>17</title>
<path fill="none" stroke="#56d8a2" stroke-width="2" d="M786.5,-468C786.5,-468 716.5,-468 716.5,-468 710.5,-468 704.5,-462 704.5,-456 704.5,-456 704.5,-444 704.5,-444 704.5,-438 710.5,-432 716.5,-432 716.5,-432 786.5,-432 786.5,-432 792.5,-432 798.5,-438 798.5,-444 798.5,-444 798.5,-456 798.5,-456 798.5,-462 792.5,-468 786.5,-468"/>
<text text-anchor="middle" x="751.5" y="-447.5" font-family="sans" font-size="10.00" fill="#000000">chunk_sort_query</text>
</g>
<!-- 17&#45;&gt;16 -->
<g id="edge34" class="edge">
<title>17&#45;&gt;16</title>
<path fill="none" stroke="#c0c0c0" stroke-width="2" d="M798.5045,-439.8369C862.6988,-425.957 976.9818,-401.2472 1039.8979,-387.6437"/>
<polygon fill="#c0c0c0" stroke="#c0c0c0" stroke-width="2" points="1040.876,-391.0132 1049.9104,-385.4788 1039.3966,-384.1713 1040.876,-391.0132"/>
</g>
<!-- 18&#45;&gt;17 -->
<g id="edge38" class="edge">
<title>18&#45;&gt;17</title>
<path fill="none" stroke="#c0c0c0" stroke-width="2" d="M749.257,-503.8314C749.5779,-496.131 749.9594,-486.9743 750.316,-478.4166"/>
<polygon fill="#c0c0c0" stroke="#c0c0c0" stroke-width="2" points="753.8133,-478.5503 750.7328,-468.4133 746.8194,-478.2589 753.8133,-478.5503"/>
</g>
<!-- 19 -->
<g id="node20" class="node">
<title>19</title>
<path fill="none" stroke="#56d8a2" stroke-width="2" d="M1007.5,-468C1007.5,-468 937.5,-468 937.5,-468 931.5,-468 925.5,-462 925.5,-456 925.5,-456 925.5,-444 925.5,-444 925.5,-438 931.5,-432 937.5,-432 937.5,-432 1007.5,-432 1007.5,-432 1013.5,-432 1019.5,-438 1019.5,-444 1019.5,-444 1019.5,-456 1019.5,-456 1019.5,-462 1013.5,-468 1007.5,-468"/>
<text text-anchor="middle" x="972.5" y="-447.5" font-family="sans" font-size="10.00" fill="#000000">chunk_sort_query</text>
</g>
<!-- 19&#45;&gt;16 -->
<g id="edge35" class="edge">
<title>19&#45;&gt;16</title>
<path fill="none" stroke="#c0c0c0" stroke-width="2" d="M1000.7623,-431.8314C1014.9552,-422.7074 1032.3282,-411.539 1047.5636,-401.7449"/>
<polygon fill="#c0c0c0" stroke="#c0c0c0" stroke-width="2" points="1049.7276,-404.5146 1056.2467,-396.1628 1045.9422,-398.6263 1049.7276,-404.5146"/>
</g>
<!-- 20&#45;&gt;19 -->
<g id="edge40" class="edge">
<title>20&#45;&gt;19</title>
<path fill="none" stroke="#c0c0c0" stroke-width="2" d="M926.1452,-503.8314C933.3591,-495.454 942.057,-485.3531 949.9605,-476.1749"/>
<polygon fill="#c0c0c0" stroke="#c0c0c0" stroke-width="2" points="952.7711,-478.2748 956.6441,-468.4133 947.4667,-473.7071 952.7711,-478.2748"/>
</g>
<!-- 21 -->
<g id="node22" class="node">
<title>21</title>
<path fill="none" stroke="#56d8a2" stroke-width="2" d="M1231.5,-468C1231.5,-468 1161.5,-468 1161.5,-468 1155.5,-468 1149.5,-462 1149.5,-456 1149.5,-456 1149.5,-444 1149.5,-444 1149.5,-438 1155.5,-432 1161.5,-432 1161.5,-432 1231.5,-432 1231.5,-432 1237.5,-432 1243.5,-438 1243.5,-444 1243.5,-444 1243.5,-456 1243.5,-456 1243.5,-462 1237.5,-468 1231.5,-468"/>
<text text-anchor="middle" x="1196.5" y="-447.5" font-family="sans" font-size="10.00" fill="#000000">chunk_sort_query</text>
</g>
<!-- 21&#45;&gt;16 -->
<g id="edge36" class="edge">
<title>21&#45;&gt;16</title>
<path fill="none" stroke="#c0c0c0" stroke-width="2" d="M1168.2377,-431.8314C1154.0448,-422.7074 1136.6718,-411.539 1121.4364,-401.7449"/>
<polygon fill="#c0c0c0" stroke="#c0c0c0" stroke-width="2" points="1123.0578,-398.6263 1112.7533,-396.1628 1119.2724,-404.5146 1123.0578,-398.6263"/>
</g>
<!-- 22&#45;&gt;21 -->
<g id="edge42" class="edge">
<title>22&#45;&gt;21</title>
<path fill="none" stroke="#c0c0c0" stroke-width="2" d="M1196.5,-503.8314C1196.5,-496.131 1196.5,-486.9743 1196.5,-478.4166"/>
<polygon fill="#c0c0c0" stroke="#c0c0c0" stroke-width="2" points="1200.0001,-478.4132 1196.5,-468.4133 1193.0001,-478.4133 1200.0001,-478.4132"/>
</g>
<!-- 23 -->
<g id="node24" class="node">
<title>23</title>
<path fill="none" stroke="#56d8a2" stroke-width="2" d="M1119.5,-468C1119.5,-468 1049.5,-468 1049.5,-468 1043.5,-468 1037.5,-462 1037.5,-456 1037.5,-456 1037.5,-444 1037.5,-444 1037.5,-438 1043.5,-432 1049.5,-432 1049.5,-432 1119.5,-432 1119.5,-432 1125.5,-432 1131.5,-438 1131.5,-444 1131.5,-444 1131.5,-456 1131.5,-456 1131.5,-462 1125.5,-468 1119.5,-468"/>
<text text-anchor="middle" x="1084.5" y="-447.5" font-family="sans" font-size="10.00" fill="#000000">chunk_sort_query</text>
</g>
<!-- 23&#45;&gt;16 -->
<g id="edge37" class="edge">
<title>23&#45;&gt;16</title>
<path fill="none" stroke="#c0c0c0" stroke-width="2" d="M1084.5,-431.8314C1084.5,-424.131 1084.5,-414.9743 1084.5,-406.4166"/>
<polygon fill="#c0c0c0" stroke="#c0c0c0" stroke-width="2" points="1088.0001,-406.4132 1084.5,-396.4133 1081.0001,-406.4133 1088.0001,-406.4132"/>
</g>
<!-- 24&#45;&gt;23 -->
<g id="edge44" class="edge">
<title>24&#45;&gt;23</title>
<path fill="none" stroke="#c0c0c0" stroke-width="2" d="M1075.5281,-503.8314C1076.8115,-496.131 1078.3376,-486.9743 1079.7639,-478.4166"/>
<polygon fill="#c0c0c0" stroke="#c0c0c0" stroke-width="2" points="1083.2394,-478.8526 1081.4311,-468.4133 1076.3347,-477.7018 1083.2394,-478.8526"/>
</g>
<!-- 25 -->
<g id="node26" class="node">
<title>25</title>
<path fill="none" stroke="#d8d356" stroke-width="2" d="M1549,-180C1549,-180 1464,-180 1464,-180 1458,-180 1452,-174 1452,-168 1452,-168 1452,-156 1452,-156 1452,-150 1458,-144 1464,-144 1464,-144 1549,-144 1549,-144 1555,-144 1561,-150 1561,-156 1561,-156 1561,-168 1561,-168 1561,-174 1555,-180 1549,-180"/>
<text text-anchor="middle" x="1506.5" y="-159.5" font-family="sans" font-size="10.00" fill="#000000">align_samtools_stats</text>
</g>
<!-- 25&#45;&gt;1 -->
<g id="edge24" class="edge">
<title>25&#45;&gt;1</title>
<path fill="none" stroke="#c0c0c0" stroke-width="2" d="M1451.6597,-147.0055C1446.8883,-145.9102 1442.1197,-144.8887 1437.5,-144 1293.8411,-116.3634 1120.3509,-99.5568 1045.2173,-93.0718"/>
<polygon fill="#c0c0c0" stroke="#c0c0c0" stroke-width="2" points="1045.122,-89.5511 1034.861,-92.1899 1044.5279,-96.5259 1045.122,-89.5511"/>
</g>
<!-- 26 -->
<g id="node27" class="node">
<title>26</title>
<path fill="none" stroke="#bed856" stroke-width="2" d="M1841.5,-324C1841.5,-324 1777.5,-324 1777.5,-324 1771.5,-324 1765.5,-318 1765.5,-312 1765.5,-312 1765.5,-300 1765.5,-300 1765.5,-294 1771.5,-288 1777.5,-288 1777.5,-288 1841.5,-288 1841.5,-288 1847.5,-288 1853.5,-294 1853.5,-300 1853.5,-300 1853.5,-312 1853.5,-312 1853.5,-318 1847.5,-324 1841.5,-324"/>
<text text-anchor="middle" x="1809.5" y="-303.5" font-family="sans" font-size="10.00" fill="#000000">align_sort_coord</text>
</g>
<!-- 26&#45;&gt;25 -->
<g id="edge46" class="edge">
<title>26&#45;&gt;25</title>
<path fill="none" stroke="#c0c0c0" stroke-width="2" d="M1765.3662,-297.0202C1694.2358,-282.4816 1561.7157,-255.0942 1557.5,-252 1536.6924,-236.7276 1523.1739,-210.2377 1515.3182,-189.9387"/>
<polygon fill="#c0c0c0" stroke="#c0c0c0" stroke-width="2" points="1518.5104,-188.4743 1511.8136,-180.2643 1511.9289,-190.8585 1518.5104,-188.4743"/>
</g>
<!-- 64 -->
<g id="node65" class="node">
<title>64</title>
<path fill="none" stroke="#d8b456" stroke-width="2" d="M1838,-252C1838,-252 1783,-252 1783,-252 1777,-252 1771,-246 1771,-240 1771,-240 1771,-228 1771,-228 1771,-222 1777,-216 1783,-216 1783,-216 1838,-216 1838,-216 1844,-216 1850,-222 1850,-228 1850,-228 1850,-240 1850,-240 1850,-246 1844,-252 1838,-252"/>
<text text-anchor="middle" x="1810.5" y="-231.5" font-family="sans" font-size="10.00" fill="#000000">align_reassign</text>
</g>
<!-- 26&#45;&gt;64 -->
<g id="edge94" class="edge">
<title>26&#45;&gt;64</title>
<path fill="none" stroke="#c0c0c0" stroke-width="2" d="M1809.7523,-287.8314C1809.8593,-280.131 1809.9865,-270.9743 1810.1053,-262.4166"/>
<polygon fill="#c0c0c0" stroke="#c0c0c0" stroke-width="2" points="1813.6049,-262.4609 1810.2443,-252.4133 1806.6056,-262.3637 1813.6049,-262.4609"/>
</g>
<!-- 27 -->
<g id="node28" class="node">
<title>27</title>
<path fill="none" stroke="#d89556" stroke-width="2" d="M1743,-396C1743,-396 1698,-396 1698,-396 1692,-396 1686,-390 1686,-384 1686,-384 1686,-372 1686,-372 1686,-366 1692,-360 1698,-360 1698,-360 1743,-360 1743,-360 1749,-360 1755,-366 1755,-372 1755,-372 1755,-384 1755,-384 1755,-390 1749,-396 1743,-396"/>
<text text-anchor="middle" x="1720.5" y="-375.5" font-family="sans" font-size="10.00" fill="#000000">align_merge</text>
</g>
<!-- 27&#45;&gt;26 -->
<g id="edge47" class="edge">
<title>27&#45;&gt;26</title>
<path fill="none" stroke="#c0c0c0" stroke-width="2" d="M1742.9585,-359.8314C1753.9205,-350.9632 1767.2699,-340.1637 1779.1265,-330.5718"/>
<polygon fill="#c0c0c0" stroke="#c0c0c0" stroke-width="2" points="1781.4755,-333.1734 1787.0487,-324.1628 1777.0729,-327.7313 1781.4755,-333.1734"/>
</g>
<!-- 50 -->
<g id="node51" class="node">
<title>50</title>
<path fill="none" stroke="#5692d8" stroke-width="2" d="M1696,-324C1696,-324 1645,-324 1645,-324 1639,-324 1633,-318 1633,-312 1633,-312 1633,-300 1633,-300 1633,-294 1639,-288 1645,-288 1645,-288 1696,-288 1696,-288 1702,-288 1708,-294 1708,-300 1708,-300 1708,-312 1708,-312 1708,-318 1702,-324 1696,-324"/>
<text text-anchor="middle" x="1670.5" y="-303.5" font-family="sans" font-size="10.00" fill="#000000">metadmg_lca</text>
</g>
<!-- 27&#45;&gt;50 -->
<g id="edge77" class="edge">
<title>27&#45;&gt;50</title>
<path fill="none" stroke="#c0c0c0" stroke-width="2" d="M1707.8829,-359.8314C1702.1828,-351.6232 1695.3337,-341.7606 1689.0641,-332.7323"/>
<polygon fill="#c0c0c0" stroke="#c0c0c0" stroke-width="2" points="1691.8658,-330.6306 1683.287,-324.4133 1686.1162,-334.6234 1691.8658,-330.6306"/>
</g>
<!-- 57 -->
<g id="node58" class="node">
<title>57</title>
<path fill="none" stroke="#56d0d8" stroke-width="2" d="M1906,-108C1906,-108 1833,-108 1833,-108 1827,-108 1821,-102 1821,-96 1821,-96 1821,-84 1821,-84 1821,-78 1827,-72 1833,-72 1833,-72 1906,-72 1906,-72 1912,-72 1918,-78 1918,-84 1918,-84 1918,-96 1918,-96 1918,-102 1912,-108 1906,-108"/>
<text text-anchor="middle" x="1869.5" y="-87.5" font-family="sans" font-size="10.00" fill="#000000">metadmg_damage</text>
</g>
<!-- 27&#45;&gt;57 -->
<g id="edge87" class="edge">
<title>27&#45;&gt;57</title>
<path fill="none" stroke="#c0c0c0" stroke-width="2" d="M1755.0851,-369.5532C1792.852,-359.5596 1849.6896,-341.9952 1862.5,-324 1906.6552,-261.9737 1889.9363,-165.4223 1877.7901,-118.0882"/>
<polygon fill="#c0c0c0" stroke="#c0c0c0" stroke-width="2" points="1881.1162,-116.9786 1875.141,-108.2294 1874.356,-118.7951 1881.1162,-116.9786"/>
</g>
<!-- 28 -->
<g id="node29" class="node">
<title>28</title>
<path fill="none" stroke="#56d8a2" stroke-width="2" d="M1637.5,-468C1637.5,-468 1567.5,-468 1567.5,-468 1561.5,-468 1555.5,-462 1555.5,-456 1555.5,-456 1555.5,-444 1555.5,-444 1555.5,-438 1561.5,-432 1567.5,-432 1567.5,-432 1637.5,-432 1637.5,-432 1643.5,-432 1649.5,-438 1649.5,-444 1649.5,-444 1649.5,-456 1649.5,-456 1649.5,-462 1643.5,-468 1637.5,-468"/>
<text text-anchor="middle" x="1602.5" y="-447.5" font-family="sans" font-size="10.00" fill="#000000">chunk_sort_query</text>
</g>
<!-- 28&#45;&gt;27 -->
<g id="edge48" class="edge">
<title>28&#45;&gt;27</title>
<path fill="none" stroke="#c0c0c0" stroke-width="2" d="M1632.2764,-431.8314C1647.3693,-422.6221 1665.8757,-411.3301 1682.0343,-401.4706"/>
<polygon fill="#c0c0c0" stroke="#c0c0c0" stroke-width="2" points="1684.0198,-404.3593 1690.7331,-396.1628 1680.3737,-398.3838 1684.0198,-404.3593"/>
</g>
<!-- 29&#45;&gt;28 -->
<g id="edge52" class="edge">
<title>29&#45;&gt;28</title>
<path fill="none" stroke="#c0c0c0" stroke-width="2" d="M1598.0141,-503.8314C1598.6558,-496.131 1599.4188,-486.9743 1600.1319,-478.4166"/>
<polygon fill="#c0c0c0" stroke="#c0c0c0" stroke-width="2" points="1603.6229,-478.6694 1600.9656,-468.4133 1596.6471,-478.088 1603.6229,-478.6694"/>
</g>
<!-- 30 -->
<g id="node31" class="node">
<title>30</title>
<path fill="none" stroke="#56d8a2" stroke-width="2" d="M1755.5,-468C1755.5,-468 1685.5,-468 1685.5,-468 1679.5,-468 1673.5,-462 1673.5,-456 1673.5,-456 1673.5,-444 1673.5,-444 1673.5,-438 1679.5,-432 1685.5,-432 1685.5,-432 1755.5,-432 1755.5,-432 1761.5,-432 1767.5,-438 1767.5,-444 1767.5,-444 1767.5,-456 1767.5,-456 1767.5,-462 1761.5,-468 1755.5,-468"/>
<text text-anchor="middle" x="1720.5" y="-447.5" font-family="sans" font-size="10.00" fill="#000000">chunk_sort_query</text>
</g>
<!-- 30&#45;&gt;27 -->
<g id="edge49" class="edge">
<title>30&#45;&gt;27</title>
<path fill="none" stroke="#c0c0c0" stroke-width="2" d="M1720.5,-431.8314C1720.5,-424.131 1720.5,-414.9743 1720.5,-406.4166"/>
<polygon fill="#c0c0c0" stroke="#c0c0c0" stroke-width="2" points="1724.0001,-406.4132 1720.5,-396.4133 1717.0001,-406.4133 1724.0001,-406.4132"/>
</g>
<!-- 31&#45;&gt;30 -->
<g id="edge54" class="edge">
<title>31&#45;&gt;30</title>
<path fill="none" stroke="#c0c0c0" stroke-width="2" d="M1720.5,-503.8314C1720.5,-496.131 1720.5,-486.9743 1720.5,-478.4166"/>
<polygon fill="#c0c0c0" stroke="#c0c0c0" stroke-width="2" points="1724.0001,-478.4132 1720.5,-468.4133 1717.0001,-478.4133 1724.0001,-478.4132"/>
</g>
<!-- 32 -->
<g id="node33" class="node">
<title>32</title>
<path fill="none" stroke="#56d8a2" stroke-width="2" d="M1912.5,-468C1912.5,-468 1842.5,-468 1842.5,-468 1836.5,-468 1830.5,-462 1830.5,-456 1830.5,-456 1830.5,-444 1830.5,-444 1830.5,-438 1836.5,-432 1842.5,-432 1842.5,-432 1912.5,-432 1912.5,-432 1918.5,-432 1924.5,-438 1924.5,-444 1924.5,-444 1924.5,-456 1924.5,-456 1924.5,-462 1918.5,-468 1912.5,-468"/>
<text text-anchor="middle" x="1877.5" y="-447.5" font-family="sans" font-size="10.00" fill="#000000">chunk_sort_query</text>
</g>
<!-- 32&#45;&gt;27 -->
<g id="edge50" class="edge">
<title>32&#45;&gt;27</title>
<path fill="none" stroke="#c0c0c0" stroke-width="2" d="M1837.8823,-431.8314C1815.4473,-421.5427 1787.3438,-408.6545 1764.2605,-398.0685"/>
<polygon fill="#c0c0c0" stroke="#c0c0c0" stroke-width="2" points="1765.582,-394.8241 1755.0332,-393.8369 1762.664,-401.1869 1765.582,-394.8241"/>
</g>
<!-- 33&#45;&gt;32 -->
<g id="edge56" class="edge">
<title>33&#45;&gt;32</title>
<path fill="none" stroke="#c0c0c0" stroke-width="2" d="M1881.2383,-503.8314C1880.7035,-496.131 1880.0677,-486.9743 1879.4734,-478.4166"/>
<polygon fill="#c0c0c0" stroke="#c0c0c0" stroke-width="2" points="1882.9632,-478.1467 1878.7787,-468.4133 1875.98,-478.6317 1882.9632,-478.1467"/>
</g>
<!-- 34 -->
<g id="node35" class="node">
<title>34</title>
<path fill="none" stroke="#56d8a2" stroke-width="2" d="M1516.5,-468C1516.5,-468 1446.5,-468 1446.5,-468 1440.5,-468 1434.5,-462 1434.5,-456 1434.5,-456 1434.5,-444 1434.5,-444 1434.5,-438 1440.5,-432 1446.5,-432 1446.5,-432 1516.5,-432 1516.5,-432 1522.5,-432 1528.5,-438 1528.5,-444 1528.5,-444 1528.5,-456 1528.5,-456 1528.5,-462 1522.5,-468 1516.5,-468"/>
<text text-anchor="middle" x="1481.5" y="-447.5" font-family="sans" font-size="10.00" fill="#000000">chunk_sort_query</text>
</g>
<!-- 34&#45;&gt;27 -->
<g id="edge51" class="edge">
<title>34&#45;&gt;27</title>
<path fill="none" stroke="#c0c0c0" stroke-width="2" d="M1528.7187,-435.7751C1571.5391,-422.8753 1634.1933,-404.0003 1676.1107,-391.3725"/>
<polygon fill="#c0c0c0" stroke="#c0c0c0" stroke-width="2" points="1677.206,-394.698 1685.7713,-388.4622 1675.1868,-387.9955 1677.206,-394.698"/>
</g>
<!-- 35&#45;&gt;34 -->
<g id="edge58" class="edge">
<title>35&#45;&gt;34</title>
<path fill="none" stroke="#c0c0c0" stroke-width="2" d="M1474.7711,-503.8314C1475.7336,-496.131 1476.8782,-486.9743 1477.9479,-478.4166"/>
<polygon fill="#c0c0c0" stroke="#c0c0c0" stroke-width="2" points="1481.4309,-478.7702 1479.1983,-468.4133 1474.4849,-477.9019 1481.4309,-478.7702"/>
</g>
<!-- 36 -->
<g id="node37" class="node">
<title>36</title>
<path fill="none" stroke="#d8d356" stroke-width="2" d="M371,-180C371,-180 286,-180 286,-180 280,-180 274,-174 274,-168 274,-168 274,-156 274,-156 274,-150 280,-144 286,-144 286,-144 371,-144 371,-144 377,-144 383,-150 383,-156 383,-156 383,-168 383,-168 383,-174 377,-180 371,-180"/>
<text text-anchor="middle" x="328.5" y="-159.5" font-family="sans" font-size="10.00" fill="#000000">align_samtools_stats</text>
</g>
<!-- 36&#45;&gt;1 -->
<g id="edge25" class="edge">
<title>36&#45;&gt;1</title>
<path fill="none" stroke="#c0c0c0" stroke-width="2" d="M383.2887,-146.7146C388.0713,-145.6825 392.8566,-144.755 397.5,-144 632.7264,-105.7531 696.9094,-143.9354 932.5,-108 945.0136,-106.0913 958.5121,-103.1378 970.562,-100.1714"/>
<polygon fill="#c0c0c0" stroke="#c0c0c0" stroke-width="2" points="971.4599,-103.5546 980.2898,-97.6993 969.7357,-96.7702 971.4599,-103.5546"/>
</g>
<!-- 37 -->
<g id="node38" class="node">
<title>37</title>
<path fill="none" stroke="#bed856" stroke-width="2" d="M297.5,-324C297.5,-324 233.5,-324 233.5,-324 227.5,-324 221.5,-318 221.5,-312 221.5,-312 221.5,-300 221.5,-300 221.5,-294 227.5,-288 233.5,-288 233.5,-288 297.5,-288 297.5,-288 303.5,-288 309.5,-294 309.5,-300 309.5,-300 309.5,-312 309.5,-312 309.5,-318 303.5,-324 297.5,-324"/>
<text text-anchor="middle" x="265.5" y="-303.5" font-family="sans" font-size="10.00" fill="#000000">align_sort_coord</text>
</g>
<!-- 37&#45;&gt;36 -->
<g id="edge60" class="edge">
<title>37&#45;&gt;36</title>
<path fill="none" stroke="#c0c0c0" stroke-width="2" d="M273.479,-287.7623C284.3192,-262.9846 303.7938,-218.4714 316.4277,-189.5939"/>
<polygon fill="#c0c0c0" stroke="#c0c0c0" stroke-width="2" points="319.7841,-190.6541 320.5858,-180.0896 313.371,-187.8483 319.7841,-190.6541"/>
</g>
<!-- 67 -->
<g id="node68" class="node">
<title>67</title>
<path fill="none" stroke="#d8b456" stroke-width="2" d="M112,-252C112,-252 57,-252 57,-252 51,-252 45,-246 45,-240 45,-240 45,-228 45,-228 45,-222 51,-216 57,-216 57,-216 112,-216 112,-216 118,-216 124,-222 124,-228 124,-228 124,-240 124,-240 124,-246 118,-252 112,-252"/>
<text text-anchor="middle" x="84.5" y="-231.5" font-family="sans" font-size="10.00" fill="#000000">align_reassign</text>
</g>
<!-- 37&#45;&gt;67 -->
<g id="edge97" class="edge">
<title>37&#45;&gt;67</title>
<path fill="none" stroke="#c0c0c0" stroke-width="2" d="M221.2224,-288.3868C194.6344,-277.8104 160.7705,-264.3397 133.3971,-253.4508"/>
<polygon fill="#c0c0c0" stroke="#c0c0c0" stroke-width="2" points="134.5936,-250.16 124.008,-249.7159 132.0062,-256.6643 134.5936,-250.16"/>
</g>
<!-- 38 -->
<g id="node39" class="node">
<title>38</title>
<path fill="none" stroke="#d89556" stroke-width="2" d="M209,-396C209,-396 164,-396 164,-396 158,-396 152,-390 152,-384 152,-384 152,-372 152,-372 152,-366 158,-360 164,-360 164,-360 209,-360 209,-360 215,-360 221,-366 221,-372 221,-372 221,-384 221,-384 221,-390 215,-396 209,-396"/>
<text text-anchor="middle" x="186.5" y="-375.5" font-family="sans" font-size="10.00" fill="#000000">align_merge</text>
</g>
<!-- 38&#45;&gt;37 -->
<g id="edge61" class="edge">
<title>38&#45;&gt;37</title>
<path fill="none" stroke="#c0c0c0" stroke-width="2" d="M206.435,-359.8314C215.9783,-351.1337 227.5599,-340.5783 237.9306,-331.1265"/>
<polygon fill="#c0c0c0" stroke="#c0c0c0" stroke-width="2" points="240.538,-333.4857 245.5713,-324.1628 235.8228,-328.3121 240.538,-333.4857"/>
</g>
<!-- 52 -->
<g id="node53" class="node">
<title>52</title>
<path fill="none" stroke="#5692d8" stroke-width="2" d="M191,-324C191,-324 140,-324 140,-324 134,-324 128,-318 128,-312 128,-312 128,-300 128,-300 128,-294 134,-288 140,-288 140,-288 191,-288 191,-288 197,-288 203,-294 203,-300 203,-300 203,-312 203,-312 203,-318 197,-324 191,-324"/>
<text text-anchor="middle" x="165.5" y="-303.5" font-family="sans" font-size="10.00" fill="#000000">metadmg_lca</text>
</g>
<!-- 38&#45;&gt;52 -->
<g id="edge79" class="edge">
<title>38&#45;&gt;52</title>
<path fill="none" stroke="#c0c0c0" stroke-width="2" d="M181.2008,-359.8314C178.9302,-352.0463 176.2254,-342.7729 173.706,-334.1347"/>
<polygon fill="#c0c0c0" stroke="#c0c0c0" stroke-width="2" points="177.0306,-333.0332 170.8705,-324.4133 170.3106,-334.9933 177.0306,-333.0332"/>
</g>
<!-- 58 -->
<g id="node59" class="node">
<title>58</title>
<path fill="none" stroke="#56d0d8" stroke-width="2" d="M93,-108C93,-108 20,-108 20,-108 14,-108 8,-102 8,-96 8,-96 8,-84 8,-84 8,-78 14,-72 20,-72 20,-72 93,-72 93,-72 99,-72 105,-78 105,-84 105,-84 105,-96 105,-96 105,-102 99,-108 93,-108"/>
<text text-anchor="middle" x="56.5" y="-87.5" font-family="sans" font-size="10.00" fill="#000000">metadmg_damage</text>
</g>
<!-- 38&#45;&gt;58 -->
<g id="edge88" class="edge">
<title>38&#45;&gt;58</title>
<path fill="none" stroke="#c0c0c0" stroke-width="2" d="M152.94,-359.9958C117.4735,-339.0529 62.9529,-300.999 35.5,-252 11.8939,-209.8669 10.4193,-190.4902 23.5,-144 26.1661,-134.5243 31.0081,-125.067 36.1762,-116.7759"/>
<polygon fill="#c0c0c0" stroke="#c0c0c0" stroke-width="2" points="39.1966,-118.5549 41.8248,-108.2912 33.3697,-114.6757 39.1966,-118.5549"/>
</g>
<!-- 39 -->
<g id="node40" class="node">
<title>39</title>
<path fill="none" stroke="#56d8a2" stroke-width="2" d="M221.5,-468C221.5,-468 151.5,-468 151.5,-468 145.5,-468 139.5,-462 139.5,-456 139.5,-456 139.5,-444 139.5,-444 139.5,-438 145.5,-432 151.5,-432 151.5,-432 221.5,-432 221.5,-432 227.5,-432 233.5,-438 233.5,-444 233.5,-444 233.5,-456 233.5,-456 233.5,-462 227.5,-468 221.5,-468"/>
<text text-anchor="middle" x="186.5" y="-447.5" font-family="sans" font-size="10.00" fill="#000000">chunk_sort_query</text>
</g>
<!-- 39&#45;&gt;38 -->
<g id="edge62" class="edge">
<title>39&#45;&gt;38</title>
<path fill="none" stroke="#c0c0c0" stroke-width="2" d="M186.5,-431.8314C186.5,-424.131 186.5,-414.9743 186.5,-406.4166"/>
<polygon fill="#c0c0c0" stroke="#c0c0c0" stroke-width="2" points="190.0001,-406.4132 186.5,-396.4133 183.0001,-406.4133 190.0001,-406.4132"/>
</g>
<!-- 40&#45;&gt;39 -->
<g id="edge66" class="edge">
<title>40&#45;&gt;39</title>
<path fill="none" stroke="#c0c0c0" stroke-width="2" d="M186.5,-503.8314C186.5,-496.131 186.5,-486.9743 186.5,-478.4166"/>
<polygon fill="#c0c0c0" stroke="#c0c0c0" stroke-width="2" points="190.0001,-478.4132 186.5,-468.4133 183.0001,-478.4133 190.0001,-478.4132"/>
</g>
<!-- 41 -->
<g id="node42" class="node">
<title>41</title>
<path fill="none" stroke="#56d8a2" stroke-width="2" d="M339.5,-468C339.5,-468 269.5,-468 269.5,-468 263.5,-468 257.5,-462 257.5,-456 257.5,-456 257.5,-444 257.5,-444 257.5,-438 263.5,-432 269.5,-432 269.5,-432 339.5,-432 339.5,-432 345.5,-432 351.5,-438 351.5,-444 351.5,-444 351.5,-456 351.5,-456 351.5,-462 345.5,-468 339.5,-468"/>
<text text-anchor="middle" x="304.5" y="-447.5" font-family="sans" font-size="10.00" fill="#000000">chunk_sort_query</text>
</g>
<!-- 41&#45;&gt;38 -->
<g id="edge63" class="edge">
<title>41&#45;&gt;38</title>
<path fill="none" stroke="#c0c0c0" stroke-width="2" d="M274.7236,-431.8314C259.6307,-422.6221 241.1243,-411.3301 224.9657,-401.4706"/>
<polygon fill="#c0c0c0" stroke="#c0c0c0" stroke-width="2" points="226.6263,-398.3838 216.2669,-396.1628 222.9802,-404.3593 226.6263,-398.3838"/>
</g>
<!-- 42&#45;&gt;41 -->
<g id="edge68" class="edge">
<title>42&#45;&gt;41</title>
<path fill="none" stroke="#c0c0c0" stroke-width="2" d="M308.9859,-503.8314C308.3442,-496.131 307.5812,-486.9743 306.8681,-478.4166"/>
<polygon fill="#c0c0c0" stroke="#c0c0c0" stroke-width="2" points="310.3529,-478.088 306.0344,-468.4133 303.3771,-478.6694 310.3529,-478.088"/>
</g>
<!-- 43 -->
<g id="node44" class="node">
<title>43</title>
<path fill="none" stroke="#56d8a2" stroke-width="2" d="M582.5,-468C582.5,-468 512.5,-468 512.5,-468 506.5,-468 500.5,-462 500.5,-456 500.5,-456 500.5,-444 500.5,-444 500.5,-438 506.5,-432 512.5,-432 512.5,-432 582.5,-432 582.5,-432 588.5,-432 594.5,-438 594.5,-444 594.5,-444 594.5,-456 594.5,-456 594.5,-462 588.5,-468 582.5,-468"/>
<text text-anchor="middle" x="547.5" y="-447.5" font-family="sans" font-size="10.00" fill="#000000">chunk_sort_query</text>
</g>
<!-- 43&#45;&gt;38 -->
<g id="edge64" class="edge">
<title>43&#45;&gt;38</title>
<path fill="none" stroke="#c0c0c0" stroke-width="2" d="M500.3056,-440.5873C430.2264,-426.6102 299.5751,-400.5524 231.0541,-386.8861"/>
<polygon fill="#c0c0c0" stroke="#c0c0c0" stroke-width="2" points="231.5009,-383.4064 221.0094,-384.8828 230.1316,-390.2712 231.5009,-383.4064"/>
</g>
<!-- 44&#45;&gt;43 -->
<g id="edge70" class="edge">
<title>44&#45;&gt;43</title>
<path fill="none" stroke="#c0c0c0" stroke-width="2" d="M548.2477,-503.8314C548.1407,-496.131 548.0135,-486.9743 547.8947,-478.4166"/>
<polygon fill="#c0c0c0" stroke="#c0c0c0" stroke-width="2" points="551.3944,-478.3637 547.7557,-468.4133 544.3951,-478.4609 551.3944,-478.3637"/>
</g>
<!-- 45 -->
<g id="node46" class="node">
<title>45</title>
<path fill="none" stroke="#56d8a2" stroke-width="2" d="M103.5,-468C103.5,-468 33.5,-468 33.5,-468 27.5,-468 21.5,-462 21.5,-456 21.5,-456 21.5,-444 21.5,-444 21.5,-438 27.5,-432 33.5,-432 33.5,-432 103.5,-432 103.5,-432 109.5,-432 115.5,-438 115.5,-444 115.5,-444 115.5,-456 115.5,-456 115.5,-462 109.5,-468 103.5,-468"/>
<text text-anchor="middle" x="68.5" y="-447.5" font-family="sans" font-size="10.00" fill="#000000">chunk_sort_query</text>
</g>
<!-- 45&#45;&gt;38 -->
<g id="edge65" class="edge">
<title>45&#45;&gt;38</title>
<path fill="none" stroke="#c0c0c0" stroke-width="2" d="M98.2764,-431.8314C113.3693,-422.6221 131.8757,-411.3301 148.0343,-401.4706"/>
<polygon fill="#c0c0c0" stroke="#c0c0c0" stroke-width="2" points="150.0198,-404.3593 156.7331,-396.1628 146.3737,-398.3838 150.0198,-404.3593"/>
</g>
<!-- 46&#45;&gt;45 -->
<g id="edge72" class="edge">
<title>46&#45;&gt;45</title>
<path fill="none" stroke="#c0c0c0" stroke-width="2" d="M64.0141,-503.8314C64.6558,-496.131 65.4188,-486.9743 66.1319,-478.4166"/>
<polygon fill="#c0c0c0" stroke="#c0c0c0" stroke-width="2" points="69.6229,-478.6694 66.9656,-468.4133 62.6471,-478.088 69.6229,-478.6694"/>
</g>
<!-- 47 -->
<g id="node48" class="node">
<title>47</title>
<path fill="none" stroke="#56b1d8" stroke-width="2" d="M1239.5,-252C1239.5,-252 1187.5,-252 1187.5,-252 1181.5,-252 1175.5,-246 1175.5,-240 1175.5,-240 1175.5,-228 1175.5,-228 1175.5,-222 1181.5,-216 1187.5,-216 1187.5,-216 1239.5,-216 1239.5,-216 1245.5,-216 1251.5,-222 1251.5,-228 1251.5,-228 1251.5,-240 1251.5,-240 1251.5,-246 1245.5,-252 1239.5,-252"/>
<text text-anchor="middle" x="1213.5" y="-231.5" font-family="sans" font-size="10.00" fill="#000000">metadmg_dfit</text>
</g>
<!-- 47&#45;&gt;1 -->
<g id="edge26" class="edge">
<title>47&#45;&gt;1</title>
<path fill="none" stroke="#c0c0c0" stroke-width="2" d="M1207.4283,-215.9029C1199.7618,-195.671 1184.7026,-163.2307 1161.5,-144 1127.5966,-115.9004 1078.0969,-102.0164 1044.4349,-95.4442"/>
<polygon fill="#c0c0c0" stroke="#c0c0c0" stroke-width="2" points="1044.9981,-91.9892 1034.5313,-93.6316 1043.7378,-98.8748 1044.9981,-91.9892"/>
</g>
<!-- 53 -->
<g id="node54" class="node">
<title>53</title>
<path fill="none" stroke="#56d8c1" stroke-width="2" d="M1307,-180C1307,-180 1226,-180 1226,-180 1220,-180 1214,-174 1214,-168 1214,-168 1214,-156 1214,-156 1214,-150 1220,-144 1226,-144 1226,-144 1307,-144 1307,-144 1313,-144 1319,-150 1319,-156 1319,-156 1319,-168 1319,-168 1319,-174 1313,-180 1307,-180"/>
<text text-anchor="middle" x="1266.5" y="-159.5" font-family="sans" font-size="10.00" fill="#000000">metadmg_aggregate</text>
</g>
<!-- 47&#45;&gt;53 -->
<g id="edge81" class="edge">
<title>47&#45;&gt;53</title>
<path fill="none" stroke="#c0c0c0" stroke-width="2" d="M1226.8741,-215.8314C1232.9162,-207.6232 1240.1763,-197.7606 1246.8221,-188.7323"/>
<polygon fill="#c0c0c0" stroke="#c0c0c0" stroke-width="2" points="1249.8363,-190.5415 1252.9458,-180.4133 1244.1989,-186.3918 1249.8363,-190.5415"/>
</g>
<!-- 48&#45;&gt;47 -->
<g id="edge74" class="edge">
<title>48&#45;&gt;47</title>
<path fill="none" stroke="#c0c0c0" stroke-width="2" d="M1213.5,-287.8314C1213.5,-280.131 1213.5,-270.9743 1213.5,-262.4166"/>
<polygon fill="#c0c0c0" stroke="#c0c0c0" stroke-width="2" points="1217.0001,-262.4132 1213.5,-252.4133 1210.0001,-262.4133 1217.0001,-262.4132"/>
</g>
<!-- 48&#45;&gt;53 -->
<g id="edge80" class="edge">
<title>48&#45;&gt;53</title>
<path fill="none" stroke="#c0c0c0" stroke-width="2" d="M1234.8712,-287.6607C1244.4826,-278.089 1254.9054,-265.5568 1260.5,-252 1268.5897,-232.397 1269.7996,-208.3487 1269.1447,-190.0438"/>
<polygon fill="#c0c0c0" stroke="#c0c0c0" stroke-width="2" points="1272.6363,-189.795 1268.5815,-180.0068 1265.6473,-190.1872 1272.6363,-189.795"/>
</g>
<!-- 49 -->
<g id="node50" class="node">
<title>49</title>
<path fill="none" stroke="#56b1d8" stroke-width="2" d="M1630.5,-252C1630.5,-252 1578.5,-252 1578.5,-252 1572.5,-252 1566.5,-246 1566.5,-240 1566.5,-240 1566.5,-228 1566.5,-228 1566.5,-222 1572.5,-216 1578.5,-216 1578.5,-216 1630.5,-216 1630.5,-216 1636.5,-216 1642.5,-222 1642.5,-228 1642.5,-228 1642.5,-240 1642.5,-240 1642.5,-246 1636.5,-252 1630.5,-252"/>
<text text-anchor="middle" x="1604.5" y="-231.5" font-family="sans" font-size="10.00" fill="#000000">metadmg_dfit</text>
</g>
<!-- 49&#45;&gt;1 -->
<g id="edge27" class="edge">
<title>49&#45;&gt;1</title>
<path fill="none" stroke="#c0c0c0" stroke-width="2" d="M1603.1592,-215.8209C1600.5608,-194.8735 1592.927,-161.1416 1570.5,-144 1528.8023,-112.1293 1164.077,-95.8287 1044.9574,-91.3204"/>
<polygon fill="#c0c0c0" stroke="#c0c0c0" stroke-width="2" points="1044.982,-87.8189 1034.8587,-90.9443 1044.7215,-94.8141 1044.982,-87.8189"/>
</g>
<!-- 54 -->
<g id="node55" class="node">
<title>54</title>
<path fill="none" stroke="#56d8c1" stroke-width="2" d="M1711,-180C1711,-180 1630,-180 1630,-180 1624,-180 1618,-174 1618,-168 1618,-168 1618,-156 1618,-156 1618,-150 1624,-144 1630,-144 1630,-144 1711,-144 1711,-144 1717,-144 1723,-150 1723,-156 1723,-156 1723,-168 1723,-168 1723,-174 1717,-180 1711,-180"/>
<text text-anchor="middle" x="1670.5" y="-159.5" font-family="sans" font-size="10.00" fill="#000000">metadmg_aggregate</text>
</g>
<!-- 49&#45;&gt;54 -->
<g id="edge83" class="edge">
<title>49&#45;&gt;54</title>
<path fill="none" stroke="#c0c0c0" stroke-width="2" d="M1621.1546,-215.8314C1628.9114,-207.3694 1638.2802,-197.1489 1646.761,-187.8971"/>
<polygon fill="#c0c0c0" stroke="#c0c0c0" stroke-width="2" points="1649.4439,-190.1499 1653.6212,-180.4133 1644.2838,-185.4198 1649.4439,-190.1499"/>
</g>
<!-- 50&#45;&gt;49 -->
<g id="edge76" class="edge">
<title>50&#45;&gt;49</title>
<path fill="none" stroke="#c0c0c0" stroke-width="2" d="M1653.8454,-287.8314C1646.0886,-279.3694 1636.7198,-269.1489 1628.239,-259.8971"/>
<polygon fill="#c0c0c0" stroke="#c0c0c0" stroke-width="2" points="1630.7162,-257.4198 1621.3788,-252.4133 1625.5561,-262.1499 1630.7162,-257.4198"/>
</g>
<!-- 50&#45;&gt;54 -->
<g id="edge82" class="edge">
<title>50&#45;&gt;54</title>
<path fill="none" stroke="#c0c0c0" stroke-width="2" d="M1670.5,-287.7623C1670.5,-263.201 1670.5,-219.2474 1670.5,-190.3541"/>
<polygon fill="#c0c0c0" stroke="#c0c0c0" stroke-width="2" points="1674.0001,-190.0896 1670.5,-180.0896 1667.0001,-190.0897 1674.0001,-190.0896"/>
</g>
<!-- 51 -->
<g id="node52" class="node">
<title>51</title>
<path fill="none" stroke="#56b1d8" stroke-width="2" d="M256.5,-252C256.5,-252 204.5,-252 204.5,-252 198.5,-252 192.5,-246 192.5,-240 192.5,-240 192.5,-228 192.5,-228 192.5,-222 198.5,-216 204.5,-216 204.5,-216 256.5,-216 256.5,-216 262.5,-216 268.5,-222 268.5,-228 268.5,-228 268.5,-240 268.5,-240 268.5,-246 262.5,-252 256.5,-252"/>
<text text-anchor="middle" x="230.5" y="-231.5" font-family="sans" font-size="10.00" fill="#000000">metadmg_dfit</text>
</g>
<!-- 51&#45;&gt;1 -->
<g id="edge28" class="edge">
<title>51&#45;&gt;1</title>
<path fill="none" stroke="#c0c0c0" stroke-width="2" d="M231.7185,-215.6573C234.1992,-194.5525 241.7198,-160.6693 264.5,-144 324.4854,-100.1059 858.9468,-118.7175 932.5,-108 945.026,-106.1748 958.5279,-103.2432 970.5769,-100.2711"/>
<polygon fill="#c0c0c0" stroke="#c0c0c0" stroke-width="2" points="971.4794,-103.6531 980.3031,-97.7885 969.7481,-96.8705 971.4794,-103.6531"/>
</g>
<!-- 55 -->
<g id="node56" class="node">
<title>55</title>
<path fill="none" stroke="#56d8c1" stroke-width="2" d="M205,-180C205,-180 124,-180 124,-180 118,-180 112,-174 112,-168 112,-168 112,-156 112,-156 112,-150 118,-144 124,-144 124,-144 205,-144 205,-144 211,-144 217,-150 217,-156 217,-156 217,-168 217,-168 217,-174 211,-180 205,-180"/>
<text text-anchor="middle" x="164.5" y="-159.5" font-family="sans" font-size="10.00" fill="#000000">metadmg_aggregate</text>
</g>
<!-- 51&#45;&gt;55 -->
<g id="edge85" class="edge">
<title>51&#45;&gt;55</title>
<path fill="none" stroke="#c0c0c0" stroke-width="2" d="M213.8454,-215.8314C206.0886,-207.3694 196.7198,-197.1489 188.239,-187.8971"/>
<polygon fill="#c0c0c0" stroke="#c0c0c0" stroke-width="2" points="190.7162,-185.4198 181.3788,-180.4133 185.5561,-190.1499 190.7162,-185.4198"/>
</g>
<!-- 52&#45;&gt;51 -->
<g id="edge78" class="edge">
<title>52&#45;&gt;51</title>
<path fill="none" stroke="#c0c0c0" stroke-width="2" d="M181.9022,-287.8314C189.5415,-279.3694 198.7683,-269.1489 207.1207,-259.8971"/>
<polygon fill="#c0c0c0" stroke="#c0c0c0" stroke-width="2" points="209.7738,-262.1813 213.8769,-252.4133 204.5779,-257.4906 209.7738,-262.1813"/>
</g>
<!-- 52&#45;&gt;55 -->
<g id="edge84" class="edge">
<title>52&#45;&gt;55</title>
<path fill="none" stroke="#c0c0c0" stroke-width="2" d="M165.3733,-287.7623C165.2028,-263.201 164.8976,-219.2474 164.6969,-190.3541"/>
<polygon fill="#c0c0c0" stroke="#c0c0c0" stroke-width="2" points="168.1951,-190.065 164.6256,-180.0896 161.1952,-190.1137 168.1951,-190.065"/>
</g>
<!-- 53&#45;&gt;0 -->
<g id="edge2" class="edge">
<title>53&#45;&gt;0</title>
<path fill="none" stroke="#c0c0c0" stroke-width="2" d="M1237.117,-143.7623C1194.7084,-117.4397 1116.4148,-68.8436 1070.5616,-40.3831"/>
<polygon fill="#c0c0c0" stroke="#c0c0c0" stroke-width="2" points="1072.186,-37.2719 1061.8438,-34.972 1068.4944,-43.2194 1072.186,-37.2719"/>
</g>
<!-- 53&#45;&gt;1 -->
<g id="edge29" class="edge">
<title>53&#45;&gt;1</title>
<path fill="none" stroke="#c0c0c0" stroke-width="2" d="M1213.7753,-147.3429C1163.4166,-133.3436 1088.8154,-112.605 1044.4837,-100.2812"/>
<polygon fill="#c0c0c0" stroke="#c0c0c0" stroke-width="2" points="1045.273,-96.8679 1034.7009,-97.5616 1043.3981,-103.6122 1045.273,-96.8679"/>
</g>
<!-- 54&#45;&gt;0 -->
<g id="edge3" class="edge">
<title>54&#45;&gt;0</title>
<path fill="none" stroke="#c0c0c0" stroke-width="2" d="M1617.9749,-149.0997C1610.7644,-147.365 1603.4525,-145.6248 1596.5,-144 1399.1124,-97.8703 1161.9197,-45.7868 1071.7435,-26.1063"/>
<polygon fill="#c0c0c0" stroke="#c0c0c0" stroke-width="2" points="1072.2515,-22.6349 1061.7353,-23.9234 1070.7597,-29.4741 1072.2515,-22.6349"/>
</g>
<!-- 54&#45;&gt;1 -->
<g id="edge30" class="edge">
<title>54&#45;&gt;1</title>
<path fill="none" stroke="#c0c0c0" stroke-width="2" d="M1617.6594,-146.9029C1612.8948,-145.8153 1608.1244,-144.8244 1603.5,-144 1394.4593,-106.7361 1139.3342,-94.5541 1044.9356,-91.1562"/>
<polygon fill="#c0c0c0" stroke="#c0c0c0" stroke-width="2" points="1044.8652,-87.6517 1034.7494,-90.8015 1044.6215,-94.6474 1044.8652,-87.6517"/>
</g>
<!-- 55&#45;&gt;0 -->
<g id="edge4" class="edge">
<title>55&#45;&gt;0</title>
<path fill="none" stroke="#c0c0c0" stroke-width="2" d="M217.0234,-148.0474C223.5551,-146.5554 230.1632,-145.1612 236.5,-144 370.761,-119.3974 406.5164,-128.2666 541.5,-108 712.7112,-82.2941 915.6265,-42.1729 997.5131,-25.5779"/>
<polygon fill="#c0c0c0" stroke="#c0c0c0" stroke-width="2" points="998.2409,-29.0016 1007.3438,-23.5807 996.8472,-22.1417 998.2409,-29.0016"/>
</g>
<!-- 55&#45;&gt;1 -->
<g id="edge31" class="edge">
<title>55&#45;&gt;1</title>
<path fill="none" stroke="#c0c0c0" stroke-width="2" d="M217.3078,-146.708C222.0794,-145.662 226.8604,-144.7339 231.5,-144 539.6348,-95.2578 623.7372,-152.5913 932.5,-108 945.0283,-106.1907 958.5308,-103.2632 970.5796,-100.29"/>
<polygon fill="#c0c0c0" stroke="#c0c0c0" stroke-width="2" points="971.483,-103.6718 980.3055,-97.8054 969.7503,-96.8896 971.483,-103.6718"/>
</g>
<!-- 56&#45;&gt;0 -->
<g id="edge5" class="edge">
<title>56&#45;&gt;0</title>
<path fill="none" stroke="#c0c0c0" stroke-width="2" d="M1515.5889,-83.3555C1410.5958,-69.0923 1165.5745,-35.8064 1071.862,-23.0756"/>
<polygon fill="#c0c0c0" stroke="#c0c0c0" stroke-width="2" points="1072.0981,-19.5756 1061.7179,-21.6975 1071.1558,-26.5119 1072.0981,-19.5756"/>
</g>
<!-- 57&#45;&gt;0 -->
<g id="edge6" class="edge">
<title>57&#45;&gt;0</title>
<path fill="none" stroke="#c0c0c0" stroke-width="2" d="M1820.6405,-77.7873C1810.405,-75.5726 1799.6404,-73.4948 1789.5,-72 1516.1634,-31.7069 1182.5475,-21.1745 1072.0328,-18.6969"/>
<polygon fill="#c0c0c0" stroke="#c0c0c0" stroke-width="2" points="1071.8182,-15.1916 1061.7451,-18.4754 1071.6674,-22.1899 1071.8182,-15.1916"/>
</g>
<!-- 58&#45;&gt;0 -->
<g id="edge7" class="edge">
<title>58&#45;&gt;0</title>
<path fill="none" stroke="#c0c0c0" stroke-width="2" d="M105.3338,-86.4049C276.2661,-73.8209 845.4828,-31.9154 997.1166,-20.7522"/>
<polygon fill="#c0c0c0" stroke="#c0c0c0" stroke-width="2" points="997.5854,-24.2272 1007.3014,-20.0024 997.0713,-17.2461 997.5854,-24.2272"/>
</g>
<!-- 59 -->
<g id="node60" class="node">
<title>59</title>
<path fill="none" stroke="#d85656" stroke-width="2" d="M912,-108C912,-108 833,-108 833,-108 827,-108 821,-102 821,-96 821,-96 821,-84 821,-84 821,-78 827,-72 833,-72 833,-72 912,-72 912,-72 918,-72 924,-78 924,-84 924,-84 924,-96 924,-96 924,-102 918,-108 912,-108"/>
<text text-anchor="middle" x="872.5" y="-87.5" font-family="sans" font-size="10.00" fill="#000000">align_bam_filter_lca</text>
</g>
<!-- 59&#45;&gt;0 -->
<g id="edge8" class="edge">
<title>59&#45;&gt;0</title>
<path fill="none" stroke="#c0c0c0" stroke-width="2" d="M913.3794,-71.8314C939.4774,-60.2323 973.0095,-45.3291 998.1723,-34.1457"/>
<polygon fill="#c0c0c0" stroke="#c0c0c0" stroke-width="2" points="999.6568,-37.316 1007.3734,-30.0563 996.8138,-30.9194 999.6568,-37.316"/>
</g>
<!-- 60 -->
<g id="node61" class="node">
<title>60</title>
<path fill="none" stroke="#d87556" stroke-width="2" d="M527,-180C527,-180 490,-180 490,-180 484,-180 478,-174 478,-168 478,-168 478,-156 478,-156 478,-150 484,-144 490,-144 490,-144 527,-144 527,-144 533,-144 539,-150 539,-156 539,-156 539,-168 539,-168 539,-174 533,-180 527,-180"/>
<text text-anchor="middle" x="508.5" y="-159.5" font-family="sans" font-size="10.00" fill="#000000">align_filter</text>
</g>
<!-- 60&#45;&gt;59 -->
<g id="edge89" class="edge">
<title>60&#45;&gt;59</title>
<path fill="none" stroke="#c0c0c0" stroke-width="2" d="M539.1857,-148.7239C543.9227,-146.9674 548.8019,-145.321 553.5,-144 600.7215,-130.7225 731.9955,-110.4266 810.6505,-98.8694"/>
<polygon fill="#c0c0c0" stroke="#c0c0c0" stroke-width="2" points="811.5266,-102.2786 820.9142,-97.367 810.5127,-95.3524 811.5266,-102.2786"/>
</g>
<!-- 61&#45;&gt;60 -->
<g id="edge90" class="edge">
<title>61&#45;&gt;60</title>
<path fill="none" stroke="#c0c0c0" stroke-width="2" d="M708.8689,-222.1107C664.5568,-208.817 593.1851,-187.4055 548.6593,-174.0478"/>
<polygon fill="#c0c0c0" stroke="#c0c0c0" stroke-width="2" points="549.6248,-170.6834 539.0408,-171.1622 547.6133,-177.3882 549.6248,-170.6834"/>
</g>
<!-- 62 -->
<g id="node63" class="node">
<title>62</title>
<path fill="none" stroke="#d85656" stroke-width="2" d="M1768,-108C1768,-108 1689,-108 1689,-108 1683,-108 1677,-102 1677,-96 1677,-96 1677,-84 1677,-84 1677,-78 1683,-72 1689,-72 1689,-72 1768,-72 1768,-72 1774,-72 1780,-78 1780,-84 1780,-84 1780,-96 1780,-96 1780,-102 1774,-108 1768,-108"/>
<text text-anchor="middle" x="1728.5" y="-87.5" font-family="sans" font-size="10.00" fill="#000000">align_bam_filter_lca</text>
</g>
<!-- 62&#45;&gt;0 -->
<g id="edge9" class="edge">
<title>62&#45;&gt;0</title>
<path fill="none" stroke="#c0c0c0" stroke-width="2" d="M1676.8617,-80.4153C1659.617,-77.4326 1640.2686,-74.3211 1622.5,-72 1415.0004,-44.8946 1164.5465,-26.6814 1071.5772,-20.4138"/>
<polygon fill="#c0c0c0" stroke="#c0c0c0" stroke-width="2" points="1071.7527,-16.9178 1061.5414,-19.7425 1071.2855,-23.9022 1071.7527,-16.9178"/>
</g>
<!-- 63 -->
<g id="node64" class="node">
<title>63</title>
<path fill="none" stroke="#d87556" stroke-width="2" d="M1829,-180C1829,-180 1792,-180 1792,-180 1786,-180 1780,-174 1780,-168 1780,-168 1780,-156 1780,-156 1780,-150 1786,-144 1792,-144 1792,-144 1829,-144 1829,-144 1835,-144 1841,-150 1841,-156 1841,-156 1841,-168 1841,-168 1841,-174 1835,-180 1829,-180"/>
<text text-anchor="middle" x="1810.5" y="-159.5" font-family="sans" font-size="10.00" fill="#000000">align_filter</text>
</g>
<!-- 63&#45;&gt;62 -->
<g id="edge92" class="edge">
<title>63&#45;&gt;62</title>
<path fill="none" stroke="#c0c0c0" stroke-width="2" d="M1789.8079,-143.8314C1779.8052,-135.0485 1767.645,-124.3712 1756.8001,-114.8489"/>
<polygon fill="#c0c0c0" stroke="#c0c0c0" stroke-width="2" points="1759.0092,-112.1308 1749.1854,-108.1628 1754.3906,-117.3909 1759.0092,-112.1308"/>
</g>
<!-- 64&#45;&gt;63 -->
<g id="edge93" class="edge">
<title>64&#45;&gt;63</title>
<path fill="none" stroke="#c0c0c0" stroke-width="2" d="M1810.5,-215.8314C1810.5,-208.131 1810.5,-198.9743 1810.5,-190.4166"/>
<polygon fill="#c0c0c0" stroke="#c0c0c0" stroke-width="2" points="1814.0001,-190.4132 1810.5,-180.4133 1807.0001,-190.4133 1814.0001,-190.4132"/>
</g>
<!-- 65 -->
<g id="node66" class="node">
<title>65</title>
<path fill="none" stroke="#d85656" stroke-width="2" d="M521,-108C521,-108 442,-108 442,-108 436,-108 430,-102 430,-96 430,-96 430,-84 430,-84 430,-78 436,-72 442,-72 442,-72 521,-72 521,-72 527,-72 533,-78 533,-84 533,-84 533,-96 533,-96 533,-102 527,-108 521,-108"/>
<text text-anchor="middle" x="481.5" y="-87.5" font-family="sans" font-size="10.00" fill="#000000">align_bam_filter_lca</text>
</g>
<!-- 65&#45;&gt;0 -->
<g id="edge10" class="edge">
<title>65&#45;&gt;0</title>
<path fill="none" stroke="#c0c0c0" stroke-width="2" d="M533.0283,-83.2911C643.5119,-68.9062 900.9608,-35.3867 997.2632,-22.8482"/>
<polygon fill="#c0c0c0" stroke="#c0c0c0" stroke-width="2" points="997.9335,-26.2905 1007.3979,-21.5287 997.0297,-19.3491 997.9335,-26.2905"/>
</g>
<!-- 66 -->
<g id="node67" class="node">
<title>66</title>
<path fill="none" stroke="#d87556" stroke-width="2" d="M82,-180C82,-180 45,-180 45,-180 39,-180 33,-174 33,-168 33,-168 33,-156 33,-156 33,-150 39,-144 45,-144 45,-144 82,-144 82,-144 88,-144 94,-150 94,-156 94,-156 94,-168 94,-168 94,-174 88,-180 82,-180"/>
<text text-anchor="middle" x="63.5" y="-159.5" font-family="sans" font-size="10.00" fill="#000000">align_filter</text>
</g>
<!-- 66&#45;&gt;65 -->
<g id="edge95" class="edge">
<title>66&#45;&gt;65</title>
<path fill="none" stroke="#c0c0c0" stroke-width="2" d="M94.2645,-146.817C97.0118,-145.7626 99.7821,-144.8021 102.5,-144 211.326,-111.884 343.5553,-98.5877 419.5762,-93.293"/>
<polygon fill="#c0c0c0" stroke="#c0c0c0" stroke-width="2" points="420.179,-96.7605 429.9218,-92.5979 419.7096,-89.7763 420.179,-96.7605"/>
</g>
<!-- 67&#45;&gt;66 -->
<g id="edge96" class="edge">
<title>67&#45;&gt;66</title>
<path fill="none" stroke="#c0c0c0" stroke-width="2" d="M79.2008,-215.8314C76.9302,-208.0463 74.2254,-198.7729 71.706,-190.1347"/>
<polygon fill="#c0c0c0" stroke="#c0c0c0" stroke-width="2" points="75.0306,-189.0332 68.8705,-180.4133 68.3106,-190.9933 75.0306,-189.0332"/>
</g>
</g>
</svg>
