<?xml version="1.0" encoding="UTF-8" standalone="no"?>
<!DOCTYPE svg PUBLIC "-//W3C//DTD SVG 1.1//EN"
 "http://www.w3.org/Graphics/SVG/1.1/DTD/svg11.dtd">
<!-- Generated by graphviz version 2.40.1 (0)
 -->
<!-- Title: snakemake_dag Pages: 1 -->
<svg width="1816pt" height="741pt"
 viewBox="0.00 0.00 1816.00 741.00" xmlns="http://www.w3.org/2000/svg" xmlns:xlink="http://www.w3.org/1999/xlink">
<g id="graph0" class="graph" transform="scale(1 1) rotate(0) translate(4 737)">
<title>snakemake_dag</title>
<polygon fill="#ffffff" stroke="transparent" points="-4,4 -4,-737 1812,-737 1812,4 -4,4"/>
<!-- 0 -->
<g id="node1" class="node">
<title>0</title>
<path fill="none" stroke="#97d856" stroke-width="2" d="M371.5,-36C371.5,-36 341.5,-36 341.5,-36 335.5,-36 329.5,-30 329.5,-24 329.5,-24 329.5,-12 329.5,-12 329.5,-6 335.5,0 341.5,0 341.5,0 371.5,0 371.5,0 377.5,0 383.5,-6 383.5,-12 383.5,-12 383.5,-24 383.5,-24 383.5,-30 377.5,-36 371.5,-36"/>
<text text-anchor="middle" x="356.5" y="-15.5" font-family="sans" font-size="10.00" fill="#000000">all</text>
</g>
<!-- 1 -->
<g id="node2" class="node">
<title>1</title>
<path fill="none" stroke="#568ad8" stroke-width="2" d="M743.5,-108C743.5,-108 713.5,-108 713.5,-108 707.5,-108 701.5,-102 701.5,-96 701.5,-96 701.5,-84 701.5,-84 701.5,-78 707.5,-72 713.5,-72 713.5,-72 743.5,-72 743.5,-72 749.5,-72 755.5,-78 755.5,-84 755.5,-84 755.5,-96 755.5,-96 755.5,-102 749.5,-108 743.5,-108"/>
<text text-anchor="middle" x="728.5" y="-87.5" font-family="sans" font-size="10.00" fill="#000000">multiqc</text>
</g>
<!-- 1&#45;&gt;0 -->
<g id="edge1" class="edge">
<title>1&#45;&gt;0</title>
<path fill="none" stroke="#c0c0c0" stroke-width="2" d="M701.447,-84.7639C635.8968,-72.0768 468.4725,-39.6721 393.6286,-25.1862"/>
<polygon fill="#c0c0c0" stroke="#c0c0c0" stroke-width="2" points="394.1854,-21.7291 383.7025,-23.265 392.8551,-28.6015 394.1854,-21.7291"/>
</g>
<!-- 2 -->
<g id="node3" class="node">
<title>2</title>
<path fill="none" stroke="#56d892" stroke-width="2" d="M1051,-733C1051,-733 944,-733 944,-733 938,-733 932,-727 932,-721 932,-721 932,-660 932,-660 932,-654 938,-648 944,-648 944,-648 1051,-648 1051,-648 1057,-648 1063,-654 1063,-660 1063,-660 1063,-721 1063,-721 1063,-727 1057,-733 1051,-733"/>
<text text-anchor="middle" x="997.5" y="-721" font-family="sans" font-size="10.00" fill="#000000">bowtie2</text>
<text text-anchor="middle" x="997.5" y="-710" font-family="sans" font-size="10.00" fill="#000000">library: lib1</text>
<text text-anchor="middle" x="997.5" y="-699" font-family="sans" font-size="10.00" fill="#000000">n_chunk: 3</text>
<text text-anchor="middle" x="997.5" y="-688" font-family="sans" font-size="10.00" fill="#000000">read_type_map: collapsed</text>
<text text-anchor="middle" x="997.5" y="-677" font-family="sans" font-size="10.00" fill="#000000">ref: refseq_invertebrate</text>
<text text-anchor="middle" x="997.5" y="-666" font-family="sans" font-size="10.00" fill="#000000">sample: HD827sonic_2</text>
<text text-anchor="middle" x="997.5" y="-655" font-family="sans" font-size="10.00" fill="#000000">tot_chunks: 3</text>
</g>
<!-- 2&#45;&gt;1 -->
<g id="edge8" class="edge">
<title>2&#45;&gt;1</title>
<path fill="none" stroke="#c0c0c0" stroke-width="2" d="M1063.2714,-650.4942C1077.6495,-639.4169 1091.7601,-626.4209 1102.5,-612 1127.9475,-577.8308 1135.5,-564.6041 1135.5,-522 1135.5,-522 1135.5,-522 1135.5,-234 1135.5,-169.0974 1079.67,-170.6693 1020.5,-144 975.4401,-123.6904 834.0701,-103.5108 765.9393,-94.66"/>
<polygon fill="#c0c0c0" stroke="#c0c0c0" stroke-width="2" points="766.0242,-91.1422 755.6596,-93.3385 765.1316,-98.085 766.0242,-91.1422"/>
</g>
<!-- 33 -->
<g id="node34" class="node">
<title>33</title>
<path fill="none" stroke="#d8bc56" stroke-width="2" d="M965.5,-612C965.5,-612 915.5,-612 915.5,-612 909.5,-612 903.5,-606 903.5,-600 903.5,-600 903.5,-588 903.5,-588 903.5,-582 909.5,-576 915.5,-576 915.5,-576 965.5,-576 965.5,-576 971.5,-576 977.5,-582 977.5,-588 977.5,-588 977.5,-600 977.5,-600 977.5,-606 971.5,-612 965.5,-612"/>
<text text-anchor="middle" x="940.5" y="-591.5" font-family="sans" font-size="10.00" fill="#000000">clean_header</text>
</g>
<!-- 2&#45;&gt;33 -->
<g id="edge54" class="edge">
<title>2&#45;&gt;33</title>
<path fill="none" stroke="#c0c0c0" stroke-width="2" d="M972.333,-647.8928C966.9015,-638.6973 961.3062,-629.2245 956.3509,-620.8353"/>
<polygon fill="#c0c0c0" stroke="#c0c0c0" stroke-width="2" points="959.3625,-619.0519 951.2631,-612.2218 953.3354,-622.612 959.3625,-619.0519"/>
</g>
<!-- 3 -->
<g id="node4" class="node">
<title>3</title>
<path fill="none" stroke="#56d892" stroke-width="2" d="M306,-733C306,-733 199,-733 199,-733 193,-733 187,-727 187,-721 187,-721 187,-660 187,-660 187,-654 193,-648 199,-648 199,-648 306,-648 306,-648 312,-648 318,-654 318,-660 318,-660 318,-721 318,-721 318,-727 312,-733 306,-733"/>
<text text-anchor="middle" x="252.5" y="-721" font-family="sans" font-size="10.00" fill="#000000">bowtie2</text>
<text text-anchor="middle" x="252.5" y="-710" font-family="sans" font-size="10.00" fill="#000000">library: lib1</text>
<text text-anchor="middle" x="252.5" y="-699" font-family="sans" font-size="10.00" fill="#000000">n_chunk: 1</text>
<text text-anchor="middle" x="252.5" y="-688" font-family="sans" font-size="10.00" fill="#000000">read_type_map: collapsed</text>
<text text-anchor="middle" x="252.5" y="-677" font-family="sans" font-size="10.00" fill="#000000">ref: refseq_invertebrate</text>
<text text-anchor="middle" x="252.5" y="-666" font-family="sans" font-size="10.00" fill="#000000">sample: HD827sonic_1</text>
<text text-anchor="middle" x="252.5" y="-655" font-family="sans" font-size="10.00" fill="#000000">tot_chunks: 3</text>
</g>
<!-- 3&#45;&gt;1 -->
<g id="edge9" class="edge">
<title>3&#45;&gt;1</title>
<path fill="none" stroke="#c0c0c0" stroke-width="2" d="M318.3139,-651.3244C336.9677,-639.3817 356.9606,-625.7553 374.5,-612 392.8063,-597.6433 392.3415,-587.6133 412.5,-576 461.4861,-547.7793 496.2181,-581.5998 534.5,-540 656.9906,-406.8931 509.6025,-280.326 628.5,-144 645.3695,-124.6577 670.914,-111.0298 691.9622,-102.303"/>
<polygon fill="#c0c0c0" stroke="#c0c0c0" stroke-width="2" points="693.2488,-105.558 701.2693,-98.6354 690.6824,-99.0454 693.2488,-105.558"/>
</g>
<!-- 41 -->
<g id="node42" class="node">
<title>41</title>
<path fill="none" stroke="#d8bc56" stroke-width="2" d="M353.5,-612C353.5,-612 303.5,-612 303.5,-612 297.5,-612 291.5,-606 291.5,-600 291.5,-600 291.5,-588 291.5,-588 291.5,-582 297.5,-576 303.5,-576 303.5,-576 353.5,-576 353.5,-576 359.5,-576 365.5,-582 365.5,-588 365.5,-588 365.5,-600 365.5,-600 365.5,-606 359.5,-612 353.5,-612"/>
<text text-anchor="middle" x="328.5" y="-591.5" font-family="sans" font-size="10.00" fill="#000000">clean_header</text>
</g>
<!-- 3&#45;&gt;41 -->
<g id="edge65" class="edge">
<title>3&#45;&gt;41</title>
<path fill="none" stroke="#c0c0c0" stroke-width="2" d="M286.0559,-647.8928C293.4521,-638.5016 301.076,-628.8213 307.786,-620.3013"/>
<polygon fill="#c0c0c0" stroke="#c0c0c0" stroke-width="2" points="310.7116,-622.2435 314.1492,-612.2218 305.2123,-617.9124 310.7116,-622.2435"/>
</g>
<!-- 4 -->
<g id="node5" class="node">
<title>4</title>
<path fill="none" stroke="#56d892" stroke-width="2" d="M1498,-733C1498,-733 1391,-733 1391,-733 1385,-733 1379,-727 1379,-721 1379,-721 1379,-660 1379,-660 1379,-654 1385,-648 1391,-648 1391,-648 1498,-648 1498,-648 1504,-648 1510,-654 1510,-660 1510,-660 1510,-721 1510,-721 1510,-727 1504,-733 1498,-733"/>
<text text-anchor="middle" x="1444.5" y="-721" font-family="sans" font-size="10.00" fill="#000000">bowtie2</text>
<text text-anchor="middle" x="1444.5" y="-710" font-family="sans" font-size="10.00" fill="#000000">library: lib2</text>
<text text-anchor="middle" x="1444.5" y="-699" font-family="sans" font-size="10.00" fill="#000000">n_chunk: 1</text>
<text text-anchor="middle" x="1444.5" y="-688" font-family="sans" font-size="10.00" fill="#000000">read_type_map: collapsed</text>
<text text-anchor="middle" x="1444.5" y="-677" font-family="sans" font-size="10.00" fill="#000000">ref: refseq_mitochondrion</text>
<text text-anchor="middle" x="1444.5" y="-666" font-family="sans" font-size="10.00" fill="#000000">sample: HD827sonic_2</text>
<text text-anchor="middle" x="1444.5" y="-655" font-family="sans" font-size="10.00" fill="#000000">tot_chunks: 1</text>
</g>
<!-- 4&#45;&gt;1 -->
<g id="edge10" class="edge">
<title>4&#45;&gt;1</title>
<path fill="none" stroke="#c0c0c0" stroke-width="2" d="M1388.936,-647.8187C1378.1111,-637.1748 1367.8556,-625.0384 1360.5,-612 1340.4126,-576.3937 1341.5,-562.8816 1341.5,-522 1341.5,-522 1341.5,-522 1341.5,-234 1341.5,-149.294 1254.2639,-169.5403 1173.5,-144 1097.4969,-119.9652 858.1785,-99.8178 765.5875,-92.7269"/>
<polygon fill="#c0c0c0" stroke="#c0c0c0" stroke-width="2" points="765.7899,-89.2323 755.5538,-91.9657 765.2604,-96.2122 765.7899,-89.2323"/>
</g>
<!-- 17 -->
<g id="node18" class="node">
<title>17</title>
<path fill="none" stroke="#d8bc56" stroke-width="2" d="M1431.5,-612C1431.5,-612 1381.5,-612 1381.5,-612 1375.5,-612 1369.5,-606 1369.5,-600 1369.5,-600 1369.5,-588 1369.5,-588 1369.5,-582 1375.5,-576 1381.5,-576 1381.5,-576 1431.5,-576 1431.5,-576 1437.5,-576 1443.5,-582 1443.5,-588 1443.5,-588 1443.5,-600 1443.5,-600 1443.5,-606 1437.5,-612 1431.5,-612"/>
<text text-anchor="middle" x="1406.5" y="-591.5" font-family="sans" font-size="10.00" fill="#000000">clean_header</text>
</g>
<!-- 4&#45;&gt;17 -->
<g id="edge35" class="edge">
<title>4&#45;&gt;17</title>
<path fill="none" stroke="#c0c0c0" stroke-width="2" d="M1427.722,-647.8928C1424.2166,-638.9907 1420.6088,-629.8289 1417.3849,-621.6418"/>
<polygon fill="#c0c0c0" stroke="#c0c0c0" stroke-width="2" points="1420.5961,-620.244 1413.6754,-612.2218 1414.0829,-622.8088 1420.5961,-620.244"/>
</g>
<!-- 5 -->
<g id="node6" class="node">
<title>5</title>
<path fill="none" stroke="#56d892" stroke-width="2" d="M753,-733C753,-733 646,-733 646,-733 640,-733 634,-727 634,-721 634,-721 634,-660 634,-660 634,-654 640,-648 646,-648 646,-648 753,-648 753,-648 759,-648 765,-654 765,-660 765,-660 765,-721 765,-721 765,-727 759,-733 753,-733"/>
<text text-anchor="middle" x="699.5" y="-721" font-family="sans" font-size="10.00" fill="#000000">bowtie2</text>
<text text-anchor="middle" x="699.5" y="-710" font-family="sans" font-size="10.00" fill="#000000">library: lib1</text>
<text text-anchor="middle" x="699.5" y="-699" font-family="sans" font-size="10.00" fill="#000000">n_chunk: 1</text>
<text text-anchor="middle" x="699.5" y="-688" font-family="sans" font-size="10.00" fill="#000000">read_type_map: collapsed</text>
<text text-anchor="middle" x="699.5" y="-677" font-family="sans" font-size="10.00" fill="#000000">ref: refseq_invertebrate</text>
<text text-anchor="middle" x="699.5" y="-666" font-family="sans" font-size="10.00" fill="#000000">sample: HD827sonic_2</text>
<text text-anchor="middle" x="699.5" y="-655" font-family="sans" font-size="10.00" fill="#000000">tot_chunks: 3</text>
</g>
<!-- 5&#45;&gt;1 -->
<g id="edge11" class="edge">
<title>5&#45;&gt;1</title>
<path fill="none" stroke="#c0c0c0" stroke-width="2" d="M696.3611,-647.937C694.1199,-613.8853 691.5,-564.9046 691.5,-522 691.5,-522 691.5,-522 691.5,-234 691.5,-192.4385 706.1372,-146.1923 716.999,-117.5961"/>
<polygon fill="#c0c0c0" stroke="#c0c0c0" stroke-width="2" points="720.2698,-118.8419 720.6533,-108.254 713.7508,-116.2919 720.2698,-118.8419"/>
</g>
<!-- 31 -->
<g id="node32" class="node">
<title>31</title>
<path fill="none" stroke="#d8bc56" stroke-width="2" d="M781.5,-612C781.5,-612 731.5,-612 731.5,-612 725.5,-612 719.5,-606 719.5,-600 719.5,-600 719.5,-588 719.5,-588 719.5,-582 725.5,-576 731.5,-576 731.5,-576 781.5,-576 781.5,-576 787.5,-576 793.5,-582 793.5,-588 793.5,-588 793.5,-600 793.5,-600 793.5,-606 787.5,-612 781.5,-612"/>
<text text-anchor="middle" x="756.5" y="-591.5" font-family="sans" font-size="10.00" fill="#000000">clean_header</text>
</g>
<!-- 5&#45;&gt;31 -->
<g id="edge52" class="edge">
<title>5&#45;&gt;31</title>
<path fill="none" stroke="#c0c0c0" stroke-width="2" d="M724.667,-647.8928C730.0985,-638.6973 735.6938,-629.2245 740.6491,-620.8353"/>
<polygon fill="#c0c0c0" stroke="#c0c0c0" stroke-width="2" points="743.6646,-622.612 745.7369,-612.2218 737.6375,-619.0519 743.6646,-622.612"/>
</g>
<!-- 6 -->
<g id="node7" class="node">
<title>6</title>
<path fill="none" stroke="#56d892" stroke-width="2" d="M604,-733C604,-733 497,-733 497,-733 491,-733 485,-727 485,-721 485,-721 485,-660 485,-660 485,-654 491,-648 497,-648 497,-648 604,-648 604,-648 610,-648 616,-654 616,-660 616,-660 616,-721 616,-721 616,-727 610,-733 604,-733"/>
<text text-anchor="middle" x="550.5" y="-721" font-family="sans" font-size="10.00" fill="#000000">bowtie2</text>
<text text-anchor="middle" x="550.5" y="-710" font-family="sans" font-size="10.00" fill="#000000">library: lib1</text>
<text text-anchor="middle" x="550.5" y="-699" font-family="sans" font-size="10.00" fill="#000000">n_chunk: 2</text>
<text text-anchor="middle" x="550.5" y="-688" font-family="sans" font-size="10.00" fill="#000000">read_type_map: collapsed</text>
<text text-anchor="middle" x="550.5" y="-677" font-family="sans" font-size="10.00" fill="#000000">ref: refseq_invertebrate</text>
<text text-anchor="middle" x="550.5" y="-666" font-family="sans" font-size="10.00" fill="#000000">sample: HD827sonic_1</text>
<text text-anchor="middle" x="550.5" y="-655" font-family="sans" font-size="10.00" fill="#000000">tot_chunks: 3</text>
</g>
<!-- 6&#45;&gt;1 -->
<g id="edge12" class="edge">
<title>6&#45;&gt;1</title>
<path fill="none" stroke="#c0c0c0" stroke-width="2" d="M601.4212,-647.9335C611.9251,-637.1221 622.0433,-624.886 629.5,-612 650.2343,-576.1689 653.5,-563.3978 653.5,-522 653.5,-522 653.5,-522 653.5,-234 653.5,-188.7853 682.9458,-143.6965 704.9368,-116.3276"/>
<polygon fill="#c0c0c0" stroke="#c0c0c0" stroke-width="2" points="707.8004,-118.357 711.4813,-108.4221 702.4084,-113.8931 707.8004,-118.357"/>
</g>
<!-- 39 -->
<g id="node40" class="node">
<title>39</title>
<path fill="none" stroke="#d8bc56" stroke-width="2" d="M575.5,-612C575.5,-612 525.5,-612 525.5,-612 519.5,-612 513.5,-606 513.5,-600 513.5,-600 513.5,-588 513.5,-588 513.5,-582 519.5,-576 525.5,-576 525.5,-576 575.5,-576 575.5,-576 581.5,-576 587.5,-582 587.5,-588 587.5,-588 587.5,-600 587.5,-600 587.5,-606 581.5,-612 575.5,-612"/>
<text text-anchor="middle" x="550.5" y="-591.5" font-family="sans" font-size="10.00" fill="#000000">clean_header</text>
</g>
<!-- 6&#45;&gt;39 -->
<g id="edge63" class="edge">
<title>6&#45;&gt;39</title>
<path fill="none" stroke="#c0c0c0" stroke-width="2" d="M550.5,-647.8928C550.5,-639.2842 550.5,-630.4327 550.5,-622.4546"/>
<polygon fill="#c0c0c0" stroke="#c0c0c0" stroke-width="2" points="554.0001,-622.2218 550.5,-612.2218 547.0001,-622.2218 554.0001,-622.2218"/>
</g>
<!-- 7 -->
<g id="node8" class="node">
<title>7</title>
<path fill="none" stroke="#56d892" stroke-width="2" d="M902,-733C902,-733 795,-733 795,-733 789,-733 783,-727 783,-721 783,-721 783,-660 783,-660 783,-654 789,-648 795,-648 795,-648 902,-648 902,-648 908,-648 914,-654 914,-660 914,-660 914,-721 914,-721 914,-727 908,-733 902,-733"/>
<text text-anchor="middle" x="848.5" y="-721" font-family="sans" font-size="10.00" fill="#000000">bowtie2</text>
<text text-anchor="middle" x="848.5" y="-710" font-family="sans" font-size="10.00" fill="#000000">library: lib1</text>
<text text-anchor="middle" x="848.5" y="-699" font-family="sans" font-size="10.00" fill="#000000">n_chunk: 2</text>
<text text-anchor="middle" x="848.5" y="-688" font-family="sans" font-size="10.00" fill="#000000">read_type_map: collapsed</text>
<text text-anchor="middle" x="848.5" y="-677" font-family="sans" font-size="10.00" fill="#000000">ref: refseq_invertebrate</text>
<text text-anchor="middle" x="848.5" y="-666" font-family="sans" font-size="10.00" fill="#000000">sample: HD827sonic_2</text>
<text text-anchor="middle" x="848.5" y="-655" font-family="sans" font-size="10.00" fill="#000000">tot_chunks: 3</text>
</g>
<!-- 7&#45;&gt;1 -->
<g id="edge13" class="edge">
<title>7&#45;&gt;1</title>
<path fill="none" stroke="#c0c0c0" stroke-width="2" d="M914.1835,-651.4981C916.963,-650.2556 919.7418,-649.0827 922.5,-648 988.7352,-621.9998 1028.6592,-662.7839 1078.5,-612 1107.1355,-582.8227 1097.5,-562.8816 1097.5,-522 1097.5,-522 1097.5,-522 1097.5,-234 1097.5,-163.2429 859.0614,-113.1928 765.522,-96.2805"/>
<polygon fill="#c0c0c0" stroke="#c0c0c0" stroke-width="2" points="766.0923,-92.8271 755.6335,-94.5189 764.8646,-99.7186 766.0923,-92.8271"/>
</g>
<!-- 29 -->
<g id="node30" class="node">
<title>29</title>
<path fill="none" stroke="#d8bc56" stroke-width="2" d="M873.5,-612C873.5,-612 823.5,-612 823.5,-612 817.5,-612 811.5,-606 811.5,-600 811.5,-600 811.5,-588 811.5,-588 811.5,-582 817.5,-576 823.5,-576 823.5,-576 873.5,-576 873.5,-576 879.5,-576 885.5,-582 885.5,-588 885.5,-588 885.5,-600 885.5,-600 885.5,-606 879.5,-612 873.5,-612"/>
<text text-anchor="middle" x="848.5" y="-591.5" font-family="sans" font-size="10.00" fill="#000000">clean_header</text>
</g>
<!-- 7&#45;&gt;29 -->
<g id="edge50" class="edge">
<title>7&#45;&gt;29</title>
<path fill="none" stroke="#c0c0c0" stroke-width="2" d="M848.5,-647.8928C848.5,-639.2842 848.5,-630.4327 848.5,-622.4546"/>
<polygon fill="#c0c0c0" stroke="#c0c0c0" stroke-width="2" points="852.0001,-622.2218 848.5,-612.2218 845.0001,-622.2218 852.0001,-622.2218"/>
</g>
<!-- 8 -->
<g id="node9" class="node">
<title>8</title>
<path fill="none" stroke="#56d892" stroke-width="2" d="M1349,-733C1349,-733 1242,-733 1242,-733 1236,-733 1230,-727 1230,-721 1230,-721 1230,-660 1230,-660 1230,-654 1236,-648 1242,-648 1242,-648 1349,-648 1349,-648 1355,-648 1361,-654 1361,-660 1361,-660 1361,-721 1361,-721 1361,-727 1355,-733 1349,-733"/>
<text text-anchor="middle" x="1295.5" y="-721" font-family="sans" font-size="10.00" fill="#000000">bowtie2</text>
<text text-anchor="middle" x="1295.5" y="-710" font-family="sans" font-size="10.00" fill="#000000">library: lib2</text>
<text text-anchor="middle" x="1295.5" y="-699" font-family="sans" font-size="10.00" fill="#000000">n_chunk: 2</text>
<text text-anchor="middle" x="1295.5" y="-688" font-family="sans" font-size="10.00" fill="#000000">read_type_map: collapsed</text>
<text text-anchor="middle" x="1295.5" y="-677" font-family="sans" font-size="10.00" fill="#000000">ref: refseq_invertebrate</text>
<text text-anchor="middle" x="1295.5" y="-666" font-family="sans" font-size="10.00" fill="#000000">sample: HD827sonic_2</text>
<text text-anchor="middle" x="1295.5" y="-655" font-family="sans" font-size="10.00" fill="#000000">tot_chunks: 3</text>
</g>
<!-- 8&#45;&gt;1 -->
<g id="edge14" class="edge">
<title>8&#45;&gt;1</title>
<path fill="none" stroke="#c0c0c0" stroke-width="2" d="M1253.966,-647.8654C1245.0946,-636.8821 1236.5779,-624.5878 1230.5,-612 1212.7243,-575.1852 1211.5,-562.8816 1211.5,-522 1211.5,-522 1211.5,-522 1211.5,-234 1211.5,-179.5869 1176.7638,-169.1275 1128.5,-144 1096.6306,-127.4079 859.0861,-102.7416 765.8771,-93.5881"/>
<polygon fill="#c0c0c0" stroke="#c0c0c0" stroke-width="2" points="766.0565,-90.0891 755.7636,-92.6003 765.376,-97.0559 766.0565,-90.0891"/>
</g>
<!-- 19 -->
<g id="node20" class="node">
<title>19</title>
<path fill="none" stroke="#d8bc56" stroke-width="2" d="M1301.5,-612C1301.5,-612 1251.5,-612 1251.5,-612 1245.5,-612 1239.5,-606 1239.5,-600 1239.5,-600 1239.5,-588 1239.5,-588 1239.5,-582 1245.5,-576 1251.5,-576 1251.5,-576 1301.5,-576 1301.5,-576 1307.5,-576 1313.5,-582 1313.5,-588 1313.5,-588 1313.5,-600 1313.5,-600 1313.5,-606 1307.5,-612 1301.5,-612"/>
<text text-anchor="middle" x="1276.5" y="-591.5" font-family="sans" font-size="10.00" fill="#000000">clean_header</text>
</g>
<!-- 8&#45;&gt;19 -->
<g id="edge37" class="edge">
<title>8&#45;&gt;19</title>
<path fill="none" stroke="#c0c0c0" stroke-width="2" d="M1287.111,-647.8928C1285.3968,-639.1864 1283.6337,-630.2315 1282.049,-622.183"/>
<polygon fill="#c0c0c0" stroke="#c0c0c0" stroke-width="2" points="1285.4537,-621.3573 1280.0877,-612.2218 1278.5855,-622.7096 1285.4537,-621.3573"/>
</g>
<!-- 9 -->
<g id="node10" class="node">
<title>9</title>
<path fill="none" stroke="#56d892" stroke-width="2" d="M157,-733C157,-733 50,-733 50,-733 44,-733 38,-727 38,-721 38,-721 38,-660 38,-660 38,-654 44,-648 50,-648 50,-648 157,-648 157,-648 163,-648 169,-654 169,-660 169,-660 169,-721 169,-721 169,-727 163,-733 157,-733"/>
<text text-anchor="middle" x="103.5" y="-721" font-family="sans" font-size="10.00" fill="#000000">bowtie2</text>
<text text-anchor="middle" x="103.5" y="-710" font-family="sans" font-size="10.00" fill="#000000">library: lib1</text>
<text text-anchor="middle" x="103.5" y="-699" font-family="sans" font-size="10.00" fill="#000000">n_chunk: 1</text>
<text text-anchor="middle" x="103.5" y="-688" font-family="sans" font-size="10.00" fill="#000000">read_type_map: collapsed</text>
<text text-anchor="middle" x="103.5" y="-677" font-family="sans" font-size="10.00" fill="#000000">ref: refseq_mitochondrion</text>
<text text-anchor="middle" x="103.5" y="-666" font-family="sans" font-size="10.00" fill="#000000">sample: HD827sonic_1</text>
<text text-anchor="middle" x="103.5" y="-655" font-family="sans" font-size="10.00" fill="#000000">tot_chunks: 1</text>
</g>
<!-- 9&#45;&gt;1 -->
<g id="edge15" class="edge">
<title>9&#45;&gt;1</title>
<path fill="none" stroke="#c0c0c0" stroke-width="2" d="M117.0755,-647.7688C157.2195,-521.9661 273.8496,-160.6712 294.5,-144 325.1742,-119.2366 591.713,-99.1126 691.2333,-92.3983"/>
<polygon fill="#c0c0c0" stroke="#c0c0c0" stroke-width="2" points="691.6825,-95.8762 701.4273,-91.7182 691.2164,-88.8918 691.6825,-95.8762"/>
</g>
<!-- 37 -->
<g id="node38" class="node">
<title>37</title>
<path fill="none" stroke="#d8bc56" stroke-width="2" d="M261.5,-612C261.5,-612 211.5,-612 211.5,-612 205.5,-612 199.5,-606 199.5,-600 199.5,-600 199.5,-588 199.5,-588 199.5,-582 205.5,-576 211.5,-576 211.5,-576 261.5,-576 261.5,-576 267.5,-576 273.5,-582 273.5,-588 273.5,-588 273.5,-600 273.5,-600 273.5,-606 267.5,-612 261.5,-612"/>
<text text-anchor="middle" x="236.5" y="-591.5" font-family="sans" font-size="10.00" fill="#000000">clean_header</text>
</g>
<!-- 9&#45;&gt;37 -->
<g id="edge61" class="edge">
<title>9&#45;&gt;37</title>
<path fill="none" stroke="#c0c0c0" stroke-width="2" d="M162.2229,-647.8928C176.2448,-637.719 190.7344,-627.2059 203.1517,-618.1963"/>
<polygon fill="#c0c0c0" stroke="#c0c0c0" stroke-width="2" points="205.3475,-620.9274 211.386,-612.2218 201.2366,-615.2616 205.3475,-620.9274"/>
</g>
<!-- 10 -->
<g id="node11" class="node">
<title>10</title>
<path fill="none" stroke="#56d892" stroke-width="2" d="M1647,-733C1647,-733 1540,-733 1540,-733 1534,-733 1528,-727 1528,-721 1528,-721 1528,-660 1528,-660 1528,-654 1534,-648 1540,-648 1540,-648 1647,-648 1647,-648 1653,-648 1659,-654 1659,-660 1659,-660 1659,-721 1659,-721 1659,-727 1653,-733 1647,-733"/>
<text text-anchor="middle" x="1593.5" y="-721" font-family="sans" font-size="10.00" fill="#000000">bowtie2</text>
<text text-anchor="middle" x="1593.5" y="-710" font-family="sans" font-size="10.00" fill="#000000">library: lib2</text>
<text text-anchor="middle" x="1593.5" y="-699" font-family="sans" font-size="10.00" fill="#000000">n_chunk: 3</text>
<text text-anchor="middle" x="1593.5" y="-688" font-family="sans" font-size="10.00" fill="#000000">read_type_map: collapsed</text>
<text text-anchor="middle" x="1593.5" y="-677" font-family="sans" font-size="10.00" fill="#000000">ref: refseq_invertebrate</text>
<text text-anchor="middle" x="1593.5" y="-666" font-family="sans" font-size="10.00" fill="#000000">sample: HD827sonic_2</text>
<text text-anchor="middle" x="1593.5" y="-655" font-family="sans" font-size="10.00" fill="#000000">tot_chunks: 3</text>
</g>
<!-- 10&#45;&gt;1 -->
<g id="edge16" class="edge">
<title>10&#45;&gt;1</title>
<path fill="none" stroke="#c0c0c0" stroke-width="2" d="M1581.6505,-647.8439C1570.7361,-609.7571 1553.5429,-552.6408 1535.5,-504 1527.9193,-483.5637 1397.2119,-156.7044 1379.5,-144 1340.091,-115.7327 992.8322,-112.0138 944.5,-108 881.7937,-102.7925 808.85,-96.7083 765.7954,-93.1145"/>
<polygon fill="#c0c0c0" stroke="#c0c0c0" stroke-width="2" points="766.0342,-89.6223 755.7777,-92.2782 765.4518,-96.598 766.0342,-89.6223"/>
</g>
<!-- 23 -->
<g id="node24" class="node">
<title>23</title>
<path fill="none" stroke="#d8bc56" stroke-width="2" d="M1523.5,-612C1523.5,-612 1473.5,-612 1473.5,-612 1467.5,-612 1461.5,-606 1461.5,-600 1461.5,-600 1461.5,-588 1461.5,-588 1461.5,-582 1467.5,-576 1473.5,-576 1473.5,-576 1523.5,-576 1523.5,-576 1529.5,-576 1535.5,-582 1535.5,-588 1535.5,-588 1535.5,-600 1535.5,-600 1535.5,-606 1529.5,-612 1523.5,-612"/>
<text text-anchor="middle" x="1498.5" y="-591.5" font-family="sans" font-size="10.00" fill="#000000">clean_header</text>
</g>
<!-- 10&#45;&gt;23 -->
<g id="edge41" class="edge">
<title>10&#45;&gt;23</title>
<path fill="none" stroke="#c0c0c0" stroke-width="2" d="M1551.5551,-647.8928C1542.021,-638.2081 1532.1841,-628.216 1523.6095,-619.506"/>
<polygon fill="#c0c0c0" stroke="#c0c0c0" stroke-width="2" points="1525.9482,-616.8926 1516.4385,-612.2218 1520.9599,-621.8035 1525.9482,-616.8926"/>
</g>
<!-- 11 -->
<g id="node12" class="node">
<title>11</title>
<path fill="none" stroke="#56d892" stroke-width="2" d="M1796,-733C1796,-733 1689,-733 1689,-733 1683,-733 1677,-727 1677,-721 1677,-721 1677,-660 1677,-660 1677,-654 1683,-648 1689,-648 1689,-648 1796,-648 1796,-648 1802,-648 1808,-654 1808,-660 1808,-660 1808,-721 1808,-721 1808,-727 1802,-733 1796,-733"/>
<text text-anchor="middle" x="1742.5" y="-721" font-family="sans" font-size="10.00" fill="#000000">bowtie2</text>
<text text-anchor="middle" x="1742.5" y="-710" font-family="sans" font-size="10.00" fill="#000000">library: lib2</text>
<text text-anchor="middle" x="1742.5" y="-699" font-family="sans" font-size="10.00" fill="#000000">n_chunk: 1</text>
<text text-anchor="middle" x="1742.5" y="-688" font-family="sans" font-size="10.00" fill="#000000">read_type_map: collapsed</text>
<text text-anchor="middle" x="1742.5" y="-677" font-family="sans" font-size="10.00" fill="#000000">ref: refseq_invertebrate</text>
<text text-anchor="middle" x="1742.5" y="-666" font-family="sans" font-size="10.00" fill="#000000">sample: HD827sonic_2</text>
<text text-anchor="middle" x="1742.5" y="-655" font-family="sans" font-size="10.00" fill="#000000">tot_chunks: 3</text>
</g>
<!-- 11&#45;&gt;1 -->
<g id="edge17" class="edge">
<title>11&#45;&gt;1</title>
<path fill="none" stroke="#c0c0c0" stroke-width="2" d="M1737.3994,-647.9804C1733.7573,-613.9529 1729.5,-564.9837 1729.5,-522 1729.5,-522 1729.5,-522 1729.5,-234 1729.5,-163.3613 1665.2818,-167.022 1598.5,-144 1519.0442,-116.6088 922.3734,-96.0933 765.9516,-91.1463"/>
<polygon fill="#c0c0c0" stroke="#c0c0c0" stroke-width="2" points="765.9831,-87.6456 755.8782,-90.83 765.7634,-94.6422 765.9831,-87.6456"/>
</g>
<!-- 21 -->
<g id="node22" class="node">
<title>21</title>
<path fill="none" stroke="#d8bc56" stroke-width="2" d="M1677.5,-612C1677.5,-612 1627.5,-612 1627.5,-612 1621.5,-612 1615.5,-606 1615.5,-600 1615.5,-600 1615.5,-588 1615.5,-588 1615.5,-582 1621.5,-576 1627.5,-576 1627.5,-576 1677.5,-576 1677.5,-576 1683.5,-576 1689.5,-582 1689.5,-588 1689.5,-588 1689.5,-600 1689.5,-600 1689.5,-606 1683.5,-612 1677.5,-612"/>
<text text-anchor="middle" x="1652.5" y="-591.5" font-family="sans" font-size="10.00" fill="#000000">clean_header</text>
</g>
<!-- 11&#45;&gt;21 -->
<g id="edge39" class="edge">
<title>11&#45;&gt;21</title>
<path fill="none" stroke="#c0c0c0" stroke-width="2" d="M1702.7627,-647.8928C1693.8216,-638.306 1684.5995,-628.4178 1676.5345,-619.7703"/>
<polygon fill="#c0c0c0" stroke="#c0c0c0" stroke-width="2" points="1678.8745,-617.1477 1669.4944,-612.2218 1673.7553,-621.9221 1678.8745,-617.1477"/>
</g>
<!-- 12 -->
<g id="node13" class="node">
<title>12</title>
<path fill="none" stroke="#56d892" stroke-width="2" d="M1200,-733C1200,-733 1093,-733 1093,-733 1087,-733 1081,-727 1081,-721 1081,-721 1081,-660 1081,-660 1081,-654 1087,-648 1093,-648 1093,-648 1200,-648 1200,-648 1206,-648 1212,-654 1212,-660 1212,-660 1212,-721 1212,-721 1212,-727 1206,-733 1200,-733"/>
<text text-anchor="middle" x="1146.5" y="-721" font-family="sans" font-size="10.00" fill="#000000">bowtie2</text>
<text text-anchor="middle" x="1146.5" y="-710" font-family="sans" font-size="10.00" fill="#000000">library: lib1</text>
<text text-anchor="middle" x="1146.5" y="-699" font-family="sans" font-size="10.00" fill="#000000">n_chunk: 1</text>
<text text-anchor="middle" x="1146.5" y="-688" font-family="sans" font-size="10.00" fill="#000000">read_type_map: collapsed</text>
<text text-anchor="middle" x="1146.5" y="-677" font-family="sans" font-size="10.00" fill="#000000">ref: refseq_mitochondrion</text>
<text text-anchor="middle" x="1146.5" y="-666" font-family="sans" font-size="10.00" fill="#000000">sample: HD827sonic_2</text>
<text text-anchor="middle" x="1146.5" y="-655" font-family="sans" font-size="10.00" fill="#000000">tot_chunks: 1</text>
</g>
<!-- 12&#45;&gt;1 -->
<g id="edge18" class="edge">
<title>12&#45;&gt;1</title>
<path fill="none" stroke="#c0c0c0" stroke-width="2" d="M1157.1711,-647.863C1164.7181,-613.9779 1173.5,-565.2549 1173.5,-522 1173.5,-522 1173.5,-522 1173.5,-234 1173.5,-175.8389 1130.7252,-169.5977 1078.5,-144 1023.8607,-117.2191 844.471,-99.5688 765.9113,-92.9403"/>
<polygon fill="#c0c0c0" stroke="#c0c0c0" stroke-width="2" points="765.774,-89.417 755.5189,-92.0783 765.1953,-96.393 765.774,-89.417"/>
</g>
<!-- 27 -->
<g id="node28" class="node">
<title>27</title>
<path fill="none" stroke="#d8bc56" stroke-width="2" d="M1057.5,-612C1057.5,-612 1007.5,-612 1007.5,-612 1001.5,-612 995.5,-606 995.5,-600 995.5,-600 995.5,-588 995.5,-588 995.5,-582 1001.5,-576 1007.5,-576 1007.5,-576 1057.5,-576 1057.5,-576 1063.5,-576 1069.5,-582 1069.5,-588 1069.5,-588 1069.5,-600 1069.5,-600 1069.5,-606 1063.5,-612 1057.5,-612"/>
<text text-anchor="middle" x="1032.5" y="-591.5" font-family="sans" font-size="10.00" fill="#000000">clean_header</text>
</g>
<!-- 12&#45;&gt;27 -->
<g id="edge48" class="edge">
<title>12&#45;&gt;27</title>
<path fill="none" stroke="#c0c0c0" stroke-width="2" d="M1096.1661,-647.8928C1084.3785,-637.9147 1072.2052,-627.6101 1061.7003,-618.7178"/>
<polygon fill="#c0c0c0" stroke="#c0c0c0" stroke-width="2" points="1063.9202,-616.0113 1054.0263,-612.2218 1059.3975,-621.3542 1063.9202,-616.0113"/>
</g>
<!-- 13 -->
<g id="node14" class="node">
<title>13</title>
<path fill="none" stroke="#56d892" stroke-width="2" d="M455,-733C455,-733 348,-733 348,-733 342,-733 336,-727 336,-721 336,-721 336,-660 336,-660 336,-654 342,-648 348,-648 348,-648 455,-648 455,-648 461,-648 467,-654 467,-660 467,-660 467,-721 467,-721 467,-727 461,-733 455,-733"/>
<text text-anchor="middle" x="401.5" y="-721" font-family="sans" font-size="10.00" fill="#000000">bowtie2</text>
<text text-anchor="middle" x="401.5" y="-710" font-family="sans" font-size="10.00" fill="#000000">library: lib1</text>
<text text-anchor="middle" x="401.5" y="-699" font-family="sans" font-size="10.00" fill="#000000">n_chunk: 3</text>
<text text-anchor="middle" x="401.5" y="-688" font-family="sans" font-size="10.00" fill="#000000">read_type_map: collapsed</text>
<text text-anchor="middle" x="401.5" y="-677" font-family="sans" font-size="10.00" fill="#000000">ref: refseq_invertebrate</text>
<text text-anchor="middle" x="401.5" y="-666" font-family="sans" font-size="10.00" fill="#000000">sample: HD827sonic_1</text>
<text text-anchor="middle" x="401.5" y="-655" font-family="sans" font-size="10.00" fill="#000000">tot_chunks: 3</text>
</g>
<!-- 13&#45;&gt;1 -->
<g id="edge19" class="edge">
<title>13&#45;&gt;1</title>
<path fill="none" stroke="#c0c0c0" stroke-width="2" d="M467.273,-651.716C470.0277,-650.4133 472.7769,-649.1682 475.5,-648 527.0629,-625.8795 558.4675,-653.2502 596.5,-612 624.2117,-581.9439 615.5,-562.8816 615.5,-522 615.5,-522 615.5,-522 615.5,-234 615.5,-182.8789 660.1204,-139.1442 693.2834,-113.699"/>
<polygon fill="#c0c0c0" stroke="#c0c0c0" stroke-width="2" points="695.503,-116.41 701.4337,-107.6306 691.3226,-110.7953 695.503,-116.41"/>
</g>
<!-- 43 -->
<g id="node44" class="node">
<title>43</title>
<path fill="none" stroke="#d8bc56" stroke-width="2" d="M483.5,-612C483.5,-612 433.5,-612 433.5,-612 427.5,-612 421.5,-606 421.5,-600 421.5,-600 421.5,-588 421.5,-588 421.5,-582 427.5,-576 433.5,-576 433.5,-576 483.5,-576 483.5,-576 489.5,-576 495.5,-582 495.5,-588 495.5,-588 495.5,-600 495.5,-600 495.5,-606 489.5,-612 483.5,-612"/>
<text text-anchor="middle" x="458.5" y="-591.5" font-family="sans" font-size="10.00" fill="#000000">clean_header</text>
</g>
<!-- 13&#45;&gt;43 -->
<g id="edge67" class="edge">
<title>13&#45;&gt;43</title>
<path fill="none" stroke="#c0c0c0" stroke-width="2" d="M426.667,-647.8928C432.0985,-638.6973 437.6938,-629.2245 442.6491,-620.8353"/>
<polygon fill="#c0c0c0" stroke="#c0c0c0" stroke-width="2" points="445.6646,-622.612 447.7369,-612.2218 439.6375,-619.0519 445.6646,-622.612"/>
</g>
<!-- 14 -->
<g id="node15" class="node">
<title>14</title>
<path fill="none" stroke="#d86e56" stroke-width="2" d="M1441,-396C1441,-396 1382,-396 1382,-396 1376,-396 1370,-390 1370,-384 1370,-384 1370,-372 1370,-372 1370,-366 1376,-360 1382,-360 1382,-360 1441,-360 1441,-360 1447,-360 1453,-366 1453,-372 1453,-372 1453,-384 1453,-384 1453,-390 1447,-396 1441,-396"/>
<text text-anchor="middle" x="1411.5" y="-375.5" font-family="sans" font-size="10.00" fill="#000000">samtools_stats</text>
</g>
<!-- 14&#45;&gt;1 -->
<g id="edge20" class="edge">
<title>14&#45;&gt;1</title>
<path fill="none" stroke="#c0c0c0" stroke-width="2" d="M1409.8398,-359.7562C1404.8924,-309.765 1388.499,-172.4156 1355.5,-144 1354.0909,-142.7866 901.0296,-104.5335 766.0286,-93.1594"/>
<polygon fill="#c0c0c0" stroke="#c0c0c0" stroke-width="2" points="766.0342,-89.6475 755.7757,-92.2957 765.4466,-96.6228 766.0342,-89.6475"/>
</g>
<!-- 15 -->
<g id="node16" class="node">
<title>15</title>
<path fill="none" stroke="#56d87b" stroke-width="2" d="M1474,-468C1474,-468 1431,-468 1431,-468 1425,-468 1419,-462 1419,-456 1419,-456 1419,-444 1419,-444 1419,-438 1425,-432 1431,-432 1431,-432 1474,-432 1474,-432 1480,-432 1486,-438 1486,-444 1486,-444 1486,-456 1486,-456 1486,-462 1480,-468 1474,-468"/>
<text text-anchor="middle" x="1452.5" y="-447.5" font-family="sans" font-size="10.00" fill="#000000">merge_alns</text>
</g>
<!-- 15&#45;&gt;14 -->
<g id="edge29" class="edge">
<title>15&#45;&gt;14</title>
<path fill="none" stroke="#c0c0c0" stroke-width="2" d="M1442.154,-431.8314C1437.5763,-423.7925 1432.0948,-414.1666 1427.0412,-405.2918"/>
<polygon fill="#c0c0c0" stroke="#c0c0c0" stroke-width="2" points="1429.9752,-403.3712 1421.9853,-396.4133 1423.8923,-406.8351 1429.9752,-403.3712"/>
</g>
<!-- 49 -->
<g id="node50" class="node">
<title>49</title>
<path fill="none" stroke="#d88556" stroke-width="2" d="M1597.5,-396C1597.5,-396 1521.5,-396 1521.5,-396 1515.5,-396 1509.5,-390 1509.5,-384 1509.5,-384 1509.5,-372 1509.5,-372 1509.5,-366 1515.5,-360 1521.5,-360 1521.5,-360 1597.5,-360 1597.5,-360 1603.5,-360 1609.5,-366 1609.5,-372 1609.5,-372 1609.5,-384 1609.5,-384 1609.5,-390 1603.5,-396 1597.5,-396"/>
<text text-anchor="middle" x="1559.5" y="-375.5" font-family="sans" font-size="10.00" fill="#000000">sort_merged_name</text>
</g>
<!-- 15&#45;&gt;49 -->
<g id="edge73" class="edge">
<title>15&#45;&gt;49</title>
<path fill="none" stroke="#c0c0c0" stroke-width="2" d="M1479.5006,-431.8314C1492.9331,-422.7927 1509.3473,-411.7476 1523.8039,-402.0198"/>
<polygon fill="#c0c0c0" stroke="#c0c0c0" stroke-width="2" points="1526.1654,-404.6494 1532.508,-396.1628 1522.2575,-398.8418 1526.1654,-404.6494"/>
</g>
<!-- 16 -->
<g id="node17" class="node">
<title>16</title>
<path fill="none" stroke="#78d856" stroke-width="2" d="M1428.5,-540C1428.5,-540 1390.5,-540 1390.5,-540 1384.5,-540 1378.5,-534 1378.5,-528 1378.5,-528 1378.5,-516 1378.5,-516 1378.5,-510 1384.5,-504 1390.5,-504 1390.5,-504 1428.5,-504 1428.5,-504 1434.5,-504 1440.5,-510 1440.5,-516 1440.5,-516 1440.5,-528 1440.5,-528 1440.5,-534 1434.5,-540 1428.5,-540"/>
<text text-anchor="middle" x="1409.5" y="-519.5" font-family="sans" font-size="10.00" fill="#000000">sort_coord</text>
</g>
<!-- 16&#45;&gt;15 -->
<g id="edge30" class="edge">
<title>16&#45;&gt;15</title>
<path fill="none" stroke="#c0c0c0" stroke-width="2" d="M1420.3507,-503.8314C1425.2023,-495.7079 1431.0217,-485.9637 1436.368,-477.0118"/>
<polygon fill="#c0c0c0" stroke="#c0c0c0" stroke-width="2" points="1439.3806,-478.7933 1441.5032,-468.4133 1433.3708,-475.2041 1439.3806,-478.7933"/>
</g>
<!-- 17&#45;&gt;16 -->
<g id="edge34" class="edge">
<title>17&#45;&gt;16</title>
<path fill="none" stroke="#c0c0c0" stroke-width="2" d="M1407.257,-575.8314C1407.5779,-568.131 1407.9594,-558.9743 1408.316,-550.4166"/>
<polygon fill="#c0c0c0" stroke="#c0c0c0" stroke-width="2" points="1411.8133,-550.5503 1408.7328,-540.4133 1404.8194,-550.2589 1411.8133,-550.5503"/>
</g>
<!-- 18 -->
<g id="node19" class="node">
<title>18</title>
<path fill="none" stroke="#78d856" stroke-width="2" d="M1298.5,-540C1298.5,-540 1260.5,-540 1260.5,-540 1254.5,-540 1248.5,-534 1248.5,-528 1248.5,-528 1248.5,-516 1248.5,-516 1248.5,-510 1254.5,-504 1260.5,-504 1260.5,-504 1298.5,-504 1298.5,-504 1304.5,-504 1310.5,-510 1310.5,-516 1310.5,-516 1310.5,-528 1310.5,-528 1310.5,-534 1304.5,-540 1298.5,-540"/>
<text text-anchor="middle" x="1279.5" y="-519.5" font-family="sans" font-size="10.00" fill="#000000">sort_coord</text>
</g>
<!-- 18&#45;&gt;15 -->
<g id="edge31" class="edge">
<title>18&#45;&gt;15</title>
<path fill="none" stroke="#c0c0c0" stroke-width="2" d="M1310.829,-508.9613C1338.3298,-497.5159 1378.5997,-480.7562 1409.1829,-468.0279"/>
<polygon fill="#c0c0c0" stroke="#c0c0c0" stroke-width="2" points="1410.8561,-471.1226 1418.7436,-464.0489 1408.1664,-464.66 1410.8561,-471.1226"/>
</g>
<!-- 19&#45;&gt;18 -->
<g id="edge36" class="edge">
<title>19&#45;&gt;18</title>
<path fill="none" stroke="#c0c0c0" stroke-width="2" d="M1277.257,-575.8314C1277.5779,-568.131 1277.9594,-558.9743 1278.316,-550.4166"/>
<polygon fill="#c0c0c0" stroke="#c0c0c0" stroke-width="2" points="1281.8133,-550.5503 1278.7328,-540.4133 1274.8194,-550.2589 1281.8133,-550.5503"/>
</g>
<!-- 20 -->
<g id="node21" class="node">
<title>20</title>
<path fill="none" stroke="#78d856" stroke-width="2" d="M1656.5,-540C1656.5,-540 1618.5,-540 1618.5,-540 1612.5,-540 1606.5,-534 1606.5,-528 1606.5,-528 1606.5,-516 1606.5,-516 1606.5,-510 1612.5,-504 1618.5,-504 1618.5,-504 1656.5,-504 1656.5,-504 1662.5,-504 1668.5,-510 1668.5,-516 1668.5,-516 1668.5,-528 1668.5,-528 1668.5,-534 1662.5,-540 1656.5,-540"/>
<text text-anchor="middle" x="1637.5" y="-519.5" font-family="sans" font-size="10.00" fill="#000000">sort_coord</text>
</g>
<!-- 20&#45;&gt;15 -->
<g id="edge32" class="edge">
<title>20&#45;&gt;15</title>
<path fill="none" stroke="#c0c0c0" stroke-width="2" d="M1606.1173,-509.7862C1575.8113,-497.9914 1529.6624,-480.0308 1495.8555,-466.8735"/>
<polygon fill="#c0c0c0" stroke="#c0c0c0" stroke-width="2" points="1496.8204,-463.4933 1486.2318,-463.1281 1494.2815,-470.0167 1496.8204,-463.4933"/>
</g>
<!-- 21&#45;&gt;20 -->
<g id="edge38" class="edge">
<title>21&#45;&gt;20</title>
<path fill="none" stroke="#c0c0c0" stroke-width="2" d="M1648.7149,-575.8314C1647.1106,-568.131 1645.203,-558.9743 1643.4201,-550.4166"/>
<polygon fill="#c0c0c0" stroke="#c0c0c0" stroke-width="2" points="1646.8021,-549.4892 1641.3361,-540.4133 1639.9493,-550.9169 1646.8021,-549.4892"/>
</g>
<!-- 22 -->
<g id="node23" class="node">
<title>22</title>
<path fill="none" stroke="#78d856" stroke-width="2" d="M1514.5,-540C1514.5,-540 1476.5,-540 1476.5,-540 1470.5,-540 1464.5,-534 1464.5,-528 1464.5,-528 1464.5,-516 1464.5,-516 1464.5,-510 1470.5,-504 1476.5,-504 1476.5,-504 1514.5,-504 1514.5,-504 1520.5,-504 1526.5,-510 1526.5,-516 1526.5,-516 1526.5,-528 1526.5,-528 1526.5,-534 1520.5,-540 1514.5,-540"/>
<text text-anchor="middle" x="1495.5" y="-519.5" font-family="sans" font-size="10.00" fill="#000000">sort_coord</text>
</g>
<!-- 22&#45;&gt;15 -->
<g id="edge33" class="edge">
<title>22&#45;&gt;15</title>
<path fill="none" stroke="#c0c0c0" stroke-width="2" d="M1484.6493,-503.8314C1479.7977,-495.7079 1473.9783,-485.9637 1468.632,-477.0118"/>
<polygon fill="#c0c0c0" stroke="#c0c0c0" stroke-width="2" points="1471.6292,-475.2041 1463.4968,-468.4133 1465.6194,-478.7933 1471.6292,-475.2041"/>
</g>
<!-- 23&#45;&gt;22 -->
<g id="edge40" class="edge">
<title>23&#45;&gt;22</title>
<path fill="none" stroke="#c0c0c0" stroke-width="2" d="M1497.743,-575.8314C1497.4221,-568.131 1497.0406,-558.9743 1496.684,-550.4166"/>
<polygon fill="#c0c0c0" stroke="#c0c0c0" stroke-width="2" points="1500.1806,-550.2589 1496.2672,-540.4133 1493.1867,-550.5503 1500.1806,-550.2589"/>
</g>
<!-- 24 -->
<g id="node25" class="node">
<title>24</title>
<path fill="none" stroke="#d86e56" stroke-width="2" d="M834,-252C834,-252 775,-252 775,-252 769,-252 763,-246 763,-240 763,-240 763,-228 763,-228 763,-222 769,-216 775,-216 775,-216 834,-216 834,-216 840,-216 846,-222 846,-228 846,-228 846,-240 846,-240 846,-246 840,-252 834,-252"/>
<text text-anchor="middle" x="804.5" y="-231.5" font-family="sans" font-size="10.00" fill="#000000">samtools_stats</text>
</g>
<!-- 24&#45;&gt;1 -->
<g id="edge21" class="edge">
<title>24&#45;&gt;1</title>
<path fill="none" stroke="#c0c0c0" stroke-width="2" d="M794.8745,-215.7623C781.7403,-190.8764 758.099,-146.0822 742.8642,-117.2165"/>
<polygon fill="#c0c0c0" stroke="#c0c0c0" stroke-width="2" points="745.8103,-115.2998 738.0473,-108.0896 739.6196,-118.5671 745.8103,-115.2998"/>
</g>
<!-- 25 -->
<g id="node26" class="node">
<title>25</title>
<path fill="none" stroke="#56d87b" stroke-width="2" d="M854,-468C854,-468 811,-468 811,-468 805,-468 799,-462 799,-456 799,-456 799,-444 799,-444 799,-438 805,-432 811,-432 811,-432 854,-432 854,-432 860,-432 866,-438 866,-444 866,-444 866,-456 866,-456 866,-462 860,-468 854,-468"/>
<text text-anchor="middle" x="832.5" y="-447.5" font-family="sans" font-size="10.00" fill="#000000">merge_alns</text>
</g>
<!-- 25&#45;&gt;24 -->
<g id="edge42" class="edge">
<title>25&#45;&gt;24</title>
<path fill="none" stroke="#c0c0c0" stroke-width="2" d="M830.1609,-431.9555C825.2815,-394.3144 813.9872,-307.1867 808.1458,-262.1246"/>
<polygon fill="#c0c0c0" stroke="#c0c0c0" stroke-width="2" points="811.6087,-261.6121 806.8521,-252.1451 804.6668,-262.5121 811.6087,-261.6121"/>
</g>
<!-- 52 -->
<g id="node53" class="node">
<title>52</title>
<path fill="none" stroke="#d88556" stroke-width="2" d="M421.5,-396C421.5,-396 345.5,-396 345.5,-396 339.5,-396 333.5,-390 333.5,-384 333.5,-384 333.5,-372 333.5,-372 333.5,-366 339.5,-360 345.5,-360 345.5,-360 421.5,-360 421.5,-360 427.5,-360 433.5,-366 433.5,-372 433.5,-372 433.5,-384 433.5,-384 433.5,-390 427.5,-396 421.5,-396"/>
<text text-anchor="middle" x="383.5" y="-375.5" font-family="sans" font-size="10.00" fill="#000000">sort_merged_name</text>
</g>
<!-- 25&#45;&gt;52 -->
<g id="edge76" class="edge">
<title>25&#45;&gt;52</title>
<path fill="none" stroke="#c0c0c0" stroke-width="2" d="M798.752,-444.5883C723.1902,-432.4715 539.542,-403.0223 443.8046,-387.6702"/>
<polygon fill="#c0c0c0" stroke="#c0c0c0" stroke-width="2" points="444.1271,-384.1773 433.6991,-386.0497 443.0187,-391.089 444.1271,-384.1773"/>
</g>
<!-- 26 -->
<g id="node27" class="node">
<title>26</title>
<path fill="none" stroke="#78d856" stroke-width="2" d="M1041.5,-540C1041.5,-540 1003.5,-540 1003.5,-540 997.5,-540 991.5,-534 991.5,-528 991.5,-528 991.5,-516 991.5,-516 991.5,-510 997.5,-504 1003.5,-504 1003.5,-504 1041.5,-504 1041.5,-504 1047.5,-504 1053.5,-510 1053.5,-516 1053.5,-516 1053.5,-528 1053.5,-528 1053.5,-534 1047.5,-540 1041.5,-540"/>
<text text-anchor="middle" x="1022.5" y="-519.5" font-family="sans" font-size="10.00" fill="#000000">sort_coord</text>
</g>
<!-- 26&#45;&gt;25 -->
<g id="edge43" class="edge">
<title>26&#45;&gt;25</title>
<path fill="none" stroke="#c0c0c0" stroke-width="2" d="M991.1254,-510.1107C959.6212,-498.1722 910.8399,-479.6867 875.6906,-466.367"/>
<polygon fill="#c0c0c0" stroke="#c0c0c0" stroke-width="2" points="876.7553,-463.0276 866.1639,-462.7568 874.2747,-469.5734 876.7553,-463.0276"/>
</g>
<!-- 27&#45;&gt;26 -->
<g id="edge47" class="edge">
<title>27&#45;&gt;26</title>
<path fill="none" stroke="#c0c0c0" stroke-width="2" d="M1029.9766,-575.8314C1028.9071,-568.131 1027.6353,-558.9743 1026.4468,-550.4166"/>
<polygon fill="#c0c0c0" stroke="#c0c0c0" stroke-width="2" points="1029.8999,-549.8367 1025.0574,-540.4133 1022.9664,-550.7997 1029.8999,-549.8367"/>
</g>
<!-- 28 -->
<g id="node29" class="node">
<title>28</title>
<path fill="none" stroke="#78d856" stroke-width="2" d="M861.5,-540C861.5,-540 823.5,-540 823.5,-540 817.5,-540 811.5,-534 811.5,-528 811.5,-528 811.5,-516 811.5,-516 811.5,-510 817.5,-504 823.5,-504 823.5,-504 861.5,-504 861.5,-504 867.5,-504 873.5,-510 873.5,-516 873.5,-516 873.5,-528 873.5,-528 873.5,-534 867.5,-540 861.5,-540"/>
<text text-anchor="middle" x="842.5" y="-519.5" font-family="sans" font-size="10.00" fill="#000000">sort_coord</text>
</g>
<!-- 28&#45;&gt;25 -->
<g id="edge44" class="edge">
<title>28&#45;&gt;25</title>
<path fill="none" stroke="#c0c0c0" stroke-width="2" d="M839.9766,-503.8314C838.9071,-496.131 837.6353,-486.9743 836.4468,-478.4166"/>
<polygon fill="#c0c0c0" stroke="#c0c0c0" stroke-width="2" points="839.8999,-477.8367 835.0574,-468.4133 832.9664,-478.7997 839.8999,-477.8367"/>
</g>
<!-- 29&#45;&gt;28 -->
<g id="edge49" class="edge">
<title>29&#45;&gt;28</title>
<path fill="none" stroke="#c0c0c0" stroke-width="2" d="M846.9859,-575.8314C846.3442,-568.131 845.5812,-558.9743 844.8681,-550.4166"/>
<polygon fill="#c0c0c0" stroke="#c0c0c0" stroke-width="2" points="848.3529,-550.088 844.0344,-540.4133 841.3771,-550.6694 848.3529,-550.088"/>
</g>
<!-- 30 -->
<g id="node31" class="node">
<title>30</title>
<path fill="none" stroke="#78d856" stroke-width="2" d="M778.5,-540C778.5,-540 740.5,-540 740.5,-540 734.5,-540 728.5,-534 728.5,-528 728.5,-528 728.5,-516 728.5,-516 728.5,-510 734.5,-504 740.5,-504 740.5,-504 778.5,-504 778.5,-504 784.5,-504 790.5,-510 790.5,-516 790.5,-516 790.5,-528 790.5,-528 790.5,-534 784.5,-540 778.5,-540"/>
<text text-anchor="middle" x="759.5" y="-519.5" font-family="sans" font-size="10.00" fill="#000000">sort_coord</text>
</g>
<!-- 30&#45;&gt;25 -->
<g id="edge45" class="edge">
<title>30&#45;&gt;25</title>
<path fill="none" stroke="#c0c0c0" stroke-width="2" d="M777.921,-503.8314C786.6529,-495.219 797.2317,-484.7851 806.7423,-475.4048"/>
<polygon fill="#c0c0c0" stroke="#c0c0c0" stroke-width="2" points="809.423,-477.6769 814.0849,-468.1628 804.5075,-472.6931 809.423,-477.6769"/>
</g>
<!-- 31&#45;&gt;30 -->
<g id="edge51" class="edge">
<title>31&#45;&gt;30</title>
<path fill="none" stroke="#c0c0c0" stroke-width="2" d="M757.257,-575.8314C757.5779,-568.131 757.9594,-558.9743 758.316,-550.4166"/>
<polygon fill="#c0c0c0" stroke="#c0c0c0" stroke-width="2" points="761.8133,-550.5503 758.7328,-540.4133 754.8194,-550.2589 761.8133,-550.5503"/>
</g>
<!-- 32 -->
<g id="node33" class="node">
<title>32</title>
<path fill="none" stroke="#78d856" stroke-width="2" d="M950.5,-540C950.5,-540 912.5,-540 912.5,-540 906.5,-540 900.5,-534 900.5,-528 900.5,-528 900.5,-516 900.5,-516 900.5,-510 906.5,-504 912.5,-504 912.5,-504 950.5,-504 950.5,-504 956.5,-504 962.5,-510 962.5,-516 962.5,-516 962.5,-528 962.5,-528 962.5,-534 956.5,-540 950.5,-540"/>
<text text-anchor="middle" x="931.5" y="-519.5" font-family="sans" font-size="10.00" fill="#000000">sort_coord</text>
</g>
<!-- 32&#45;&gt;25 -->
<g id="edge46" class="edge">
<title>32&#45;&gt;25</title>
<path fill="none" stroke="#c0c0c0" stroke-width="2" d="M906.5181,-503.8314C894.2072,-494.8779 879.1893,-483.9558 865.9063,-474.2955"/>
<polygon fill="#c0c0c0" stroke="#c0c0c0" stroke-width="2" points="867.6199,-471.214 857.4739,-468.1628 863.5027,-476.8752 867.6199,-471.214"/>
</g>
<!-- 33&#45;&gt;32 -->
<g id="edge53" class="edge">
<title>33&#45;&gt;32</title>
<path fill="none" stroke="#c0c0c0" stroke-width="2" d="M938.2289,-575.8314C937.2664,-568.131 936.1218,-558.9743 935.0521,-550.4166"/>
<polygon fill="#c0c0c0" stroke="#c0c0c0" stroke-width="2" points="938.5151,-549.9019 933.8017,-540.4133 931.5691,-550.7702 938.5151,-549.9019"/>
</g>
<!-- 34 -->
<g id="node35" class="node">
<title>34</title>
<path fill="none" stroke="#d86e56" stroke-width="2" d="M537,-180C537,-180 478,-180 478,-180 472,-180 466,-174 466,-168 466,-168 466,-156 466,-156 466,-150 472,-144 478,-144 478,-144 537,-144 537,-144 543,-144 549,-150 549,-156 549,-156 549,-168 549,-168 549,-174 543,-180 537,-180"/>
<text text-anchor="middle" x="507.5" y="-159.5" font-family="sans" font-size="10.00" fill="#000000">samtools_stats</text>
</g>
<!-- 34&#45;&gt;1 -->
<g id="edge22" class="edge">
<title>34&#45;&gt;1</title>
<path fill="none" stroke="#c0c0c0" stroke-width="2" d="M549.0684,-148.4574C590.1317,-135.0793 652.3405,-114.8122 691.6733,-101.9978"/>
<polygon fill="#c0c0c0" stroke="#c0c0c0" stroke-width="2" points="692.972,-105.2559 701.3959,-98.8303 690.8035,-98.6002 692.972,-105.2559"/>
</g>
<!-- 35 -->
<g id="node36" class="node">
<title>35</title>
<path fill="none" stroke="#56d87b" stroke-width="2" d="M370,-468C370,-468 327,-468 327,-468 321,-468 315,-462 315,-456 315,-456 315,-444 315,-444 315,-438 321,-432 327,-432 327,-432 370,-432 370,-432 376,-432 382,-438 382,-444 382,-444 382,-456 382,-456 382,-462 376,-468 370,-468"/>
<text text-anchor="middle" x="348.5" y="-447.5" font-family="sans" font-size="10.00" fill="#000000">merge_alns</text>
</g>
<!-- 35&#45;&gt;34 -->
<g id="edge55" class="edge">
<title>35&#45;&gt;34</title>
<path fill="none" stroke="#c0c0c0" stroke-width="2" d="M382.1167,-438.2745C402.3776,-429.5752 427.1498,-415.7722 442.5,-396 490.835,-333.7409 503.239,-237.6319 506.4138,-190.3079"/>
<polygon fill="#c0c0c0" stroke="#c0c0c0" stroke-width="2" points="509.9165,-190.3617 507.0004,-180.1761 502.9282,-189.9571 509.9165,-190.3617"/>
</g>
<!-- 46 -->
<g id="node47" class="node">
<title>46</title>
<path fill="none" stroke="#d88556" stroke-width="2" d="M176.5,-396C176.5,-396 100.5,-396 100.5,-396 94.5,-396 88.5,-390 88.5,-384 88.5,-384 88.5,-372 88.5,-372 88.5,-366 94.5,-360 100.5,-360 100.5,-360 176.5,-360 176.5,-360 182.5,-360 188.5,-366 188.5,-372 188.5,-372 188.5,-384 188.5,-384 188.5,-390 182.5,-396 176.5,-396"/>
<text text-anchor="middle" x="138.5" y="-375.5" font-family="sans" font-size="10.00" fill="#000000">sort_merged_name</text>
</g>
<!-- 35&#45;&gt;46 -->
<g id="edge70" class="edge">
<title>35&#45;&gt;46</title>
<path fill="none" stroke="#c0c0c0" stroke-width="2" d="M314.7599,-438.432C283.4692,-427.7037 236.1923,-411.4945 198.4764,-398.5633"/>
<polygon fill="#c0c0c0" stroke="#c0c0c0" stroke-width="2" points="199.2072,-395.114 188.6126,-395.1815 196.9369,-401.7356 199.2072,-395.114"/>
</g>
<!-- 36 -->
<g id="node37" class="node">
<title>36</title>
<path fill="none" stroke="#78d856" stroke-width="2" d="M261.5,-540C261.5,-540 223.5,-540 223.5,-540 217.5,-540 211.5,-534 211.5,-528 211.5,-528 211.5,-516 211.5,-516 211.5,-510 217.5,-504 223.5,-504 223.5,-504 261.5,-504 261.5,-504 267.5,-504 273.5,-510 273.5,-516 273.5,-516 273.5,-528 273.5,-528 273.5,-534 267.5,-540 261.5,-540"/>
<text text-anchor="middle" x="242.5" y="-519.5" font-family="sans" font-size="10.00" fill="#000000">sort_coord</text>
</g>
<!-- 36&#45;&gt;35 -->
<g id="edge56" class="edge">
<title>36&#45;&gt;35</title>
<path fill="none" stroke="#c0c0c0" stroke-width="2" d="M269.2483,-503.8314C282.5553,-494.7927 298.816,-483.7476 313.1375,-474.0198"/>
<polygon fill="#c0c0c0" stroke="#c0c0c0" stroke-width="2" points="315.4547,-476.677 321.7603,-468.1628 311.5215,-470.8864 315.4547,-476.677"/>
</g>
<!-- 37&#45;&gt;36 -->
<g id="edge60" class="edge">
<title>37&#45;&gt;36</title>
<path fill="none" stroke="#c0c0c0" stroke-width="2" d="M238.0141,-575.8314C238.6558,-568.131 239.4188,-558.9743 240.1319,-550.4166"/>
<polygon fill="#c0c0c0" stroke="#c0c0c0" stroke-width="2" points="243.6229,-550.6694 240.9656,-540.4133 236.6471,-550.088 243.6229,-550.6694"/>
</g>
<!-- 38 -->
<g id="node39" class="node">
<title>38</title>
<path fill="none" stroke="#78d856" stroke-width="2" d="M513.5,-540C513.5,-540 475.5,-540 475.5,-540 469.5,-540 463.5,-534 463.5,-528 463.5,-528 463.5,-516 463.5,-516 463.5,-510 469.5,-504 475.5,-504 475.5,-504 513.5,-504 513.5,-504 519.5,-504 525.5,-510 525.5,-516 525.5,-516 525.5,-528 525.5,-528 525.5,-534 519.5,-540 513.5,-540"/>
<text text-anchor="middle" x="494.5" y="-519.5" font-family="sans" font-size="10.00" fill="#000000">sort_coord</text>
</g>
<!-- 38&#45;&gt;35 -->
<g id="edge57" class="edge">
<title>38&#45;&gt;35</title>
<path fill="none" stroke="#c0c0c0" stroke-width="2" d="M463.1793,-506.5542C442.1914,-496.204 414.2909,-482.4448 391.2651,-471.0896"/>
<polygon fill="#c0c0c0" stroke="#c0c0c0" stroke-width="2" points="392.5729,-467.8322 382.0562,-466.5483 389.4769,-474.1103 392.5729,-467.8322"/>
</g>
<!-- 39&#45;&gt;38 -->
<g id="edge62" class="edge">
<title>39&#45;&gt;38</title>
<path fill="none" stroke="#c0c0c0" stroke-width="2" d="M536.3688,-575.8314C529.9189,-567.5386 522.1555,-557.557 515.0748,-548.4533"/>
<polygon fill="#c0c0c0" stroke="#c0c0c0" stroke-width="2" points="517.7236,-546.158 508.8214,-540.4133 512.1981,-550.4556 517.7236,-546.158"/>
</g>
<!-- 40 -->
<g id="node41" class="node">
<title>40</title>
<path fill="none" stroke="#78d856" stroke-width="2" d="M347.5,-540C347.5,-540 309.5,-540 309.5,-540 303.5,-540 297.5,-534 297.5,-528 297.5,-528 297.5,-516 297.5,-516 297.5,-510 303.5,-504 309.5,-504 309.5,-504 347.5,-504 347.5,-504 353.5,-504 359.5,-510 359.5,-516 359.5,-516 359.5,-528 359.5,-528 359.5,-534 353.5,-540 347.5,-540"/>
<text text-anchor="middle" x="328.5" y="-519.5" font-family="sans" font-size="10.00" fill="#000000">sort_coord</text>
</g>
<!-- 40&#45;&gt;35 -->
<g id="edge58" class="edge">
<title>40&#45;&gt;35</title>
<path fill="none" stroke="#c0c0c0" stroke-width="2" d="M333.5468,-503.8314C335.7094,-496.0463 338.2853,-486.7729 340.6848,-478.1347"/>
<polygon fill="#c0c0c0" stroke="#c0c0c0" stroke-width="2" points="344.081,-478.9852 343.3852,-468.4133 337.3364,-477.1117 344.081,-478.9852"/>
</g>
<!-- 41&#45;&gt;40 -->
<g id="edge64" class="edge">
<title>41&#45;&gt;40</title>
<path fill="none" stroke="#c0c0c0" stroke-width="2" d="M328.5,-575.8314C328.5,-568.131 328.5,-558.9743 328.5,-550.4166"/>
<polygon fill="#c0c0c0" stroke="#c0c0c0" stroke-width="2" points="332.0001,-550.4132 328.5,-540.4133 325.0001,-550.4133 332.0001,-550.4132"/>
</g>
<!-- 42 -->
<g id="node43" class="node">
<title>42</title>
<path fill="none" stroke="#78d856" stroke-width="2" d="M431.5,-540C431.5,-540 393.5,-540 393.5,-540 387.5,-540 381.5,-534 381.5,-528 381.5,-528 381.5,-516 381.5,-516 381.5,-510 387.5,-504 393.5,-504 393.5,-504 431.5,-504 431.5,-504 437.5,-504 443.5,-510 443.5,-516 443.5,-516 443.5,-528 443.5,-528 443.5,-534 437.5,-540 431.5,-540"/>
<text text-anchor="middle" x="412.5" y="-519.5" font-family="sans" font-size="10.00" fill="#000000">sort_coord</text>
</g>
<!-- 42&#45;&gt;35 -->
<g id="edge59" class="edge">
<title>42&#45;&gt;35</title>
<path fill="none" stroke="#c0c0c0" stroke-width="2" d="M396.3501,-503.8314C388.8283,-495.3694 379.7435,-485.1489 371.5196,-475.8971"/>
<polygon fill="#c0c0c0" stroke="#c0c0c0" stroke-width="2" points="374.127,-473.5621 364.8673,-468.4133 368.8951,-478.2127 374.127,-473.5621"/>
</g>
<!-- 43&#45;&gt;42 -->
<g id="edge66" class="edge">
<title>43&#45;&gt;42</title>
<path fill="none" stroke="#c0c0c0" stroke-width="2" d="M446.8923,-575.8314C441.7022,-567.7079 435.4768,-557.9637 429.7575,-549.0118"/>
<polygon fill="#c0c0c0" stroke="#c0c0c0" stroke-width="2" points="432.5974,-546.9559 424.264,-540.4133 426.6985,-550.7246 432.5974,-546.9559"/>
</g>
<!-- 44 -->
<g id="node45" class="node">
<title>44</title>
<path fill="none" stroke="#56d0d8" stroke-width="2" d="M197.5,-252C197.5,-252 145.5,-252 145.5,-252 139.5,-252 133.5,-246 133.5,-240 133.5,-240 133.5,-228 133.5,-228 133.5,-222 139.5,-216 145.5,-216 145.5,-216 197.5,-216 197.5,-216 203.5,-216 209.5,-222 209.5,-228 209.5,-228 209.5,-240 209.5,-240 209.5,-246 203.5,-252 197.5,-252"/>
<text text-anchor="middle" x="171.5" y="-231.5" font-family="sans" font-size="10.00" fill="#000000">metadmg_dfit</text>
</g>
<!-- 44&#45;&gt;1 -->
<g id="edge23" class="edge">
<title>44&#45;&gt;1</title>
<path fill="none" stroke="#c0c0c0" stroke-width="2" d="M183.6959,-215.8885C199.0883,-194.6721 227.6789,-160.3483 261.5,-144 337.285,-107.3674 594.1239,-94.7099 691.0546,-91.1745"/>
<polygon fill="#c0c0c0" stroke="#c0c0c0" stroke-width="2" points="691.3931,-94.6649 701.2635,-90.8146 691.1464,-87.6692 691.3931,-94.6649"/>
</g>
<!-- 55 -->
<g id="node56" class="node">
<title>55</title>
<path fill="none" stroke="#56d8c9" stroke-width="2" d="M159,-180C159,-180 78,-180 78,-180 72,-180 66,-174 66,-168 66,-168 66,-156 66,-156 66,-150 72,-144 78,-144 78,-144 159,-144 159,-144 165,-144 171,-150 171,-156 171,-156 171,-168 171,-168 171,-174 165,-180 159,-180"/>
<text text-anchor="middle" x="118.5" y="-159.5" font-family="sans" font-size="10.00" fill="#000000">metadmg_aggregate</text>
</g>
<!-- 44&#45;&gt;55 -->
<g id="edge82" class="edge">
<title>44&#45;&gt;55</title>
<path fill="none" stroke="#c0c0c0" stroke-width="2" d="M158.1259,-215.8314C152.0838,-207.6232 144.8237,-197.7606 138.1779,-188.7323"/>
<polygon fill="#c0c0c0" stroke="#c0c0c0" stroke-width="2" points="140.8011,-186.3918 132.0542,-180.4133 135.1637,-190.5415 140.8011,-186.3918"/>
</g>
<!-- 45 -->
<g id="node46" class="node">
<title>45</title>
<path fill="none" stroke="#d85656" stroke-width="2" d="M164,-324C164,-324 113,-324 113,-324 107,-324 101,-318 101,-312 101,-312 101,-300 101,-300 101,-294 107,-288 113,-288 113,-288 164,-288 164,-288 170,-288 176,-294 176,-300 176,-300 176,-312 176,-312 176,-318 170,-324 164,-324"/>
<text text-anchor="middle" x="138.5" y="-303.5" font-family="sans" font-size="10.00" fill="#000000">metadmg_lca</text>
</g>
<!-- 45&#45;&gt;44 -->
<g id="edge68" class="edge">
<title>45&#45;&gt;44</title>
<path fill="none" stroke="#c0c0c0" stroke-width="2" d="M146.8273,-287.8314C150.473,-279.8771 154.8309,-270.369 158.8627,-261.5723"/>
<polygon fill="#c0c0c0" stroke="#c0c0c0" stroke-width="2" points="162.0757,-262.9622 163.0606,-252.4133 155.7123,-260.0456 162.0757,-262.9622"/>
</g>
<!-- 45&#45;&gt;55 -->
<g id="edge81" class="edge">
<title>45&#45;&gt;55</title>
<path fill="none" stroke="#c0c0c0" stroke-width="2" d="M132.8411,-287.687C129.8675,-277.3166 126.4456,-264.0469 124.5,-252 121.1762,-231.4197 119.6868,-207.9059 119.0227,-190.0749"/>
<polygon fill="#c0c0c0" stroke="#c0c0c0" stroke-width="2" points="122.52,-189.9288 118.7131,-180.0415 115.5233,-190.1447 122.52,-189.9288"/>
</g>
<!-- 46&#45;&gt;45 -->
<g id="edge69" class="edge">
<title>46&#45;&gt;45</title>
<path fill="none" stroke="#c0c0c0" stroke-width="2" d="M138.5,-359.8314C138.5,-352.131 138.5,-342.9743 138.5,-334.4166"/>
<polygon fill="#c0c0c0" stroke="#c0c0c0" stroke-width="2" points="142.0001,-334.4132 138.5,-324.4133 135.0001,-334.4133 142.0001,-334.4132"/>
</g>
<!-- 56 -->
<g id="node57" class="node">
<title>56</title>
<path fill="none" stroke="#d8a456" stroke-width="2" d="M85,-108C85,-108 12,-108 12,-108 6,-108 0,-102 0,-96 0,-96 0,-84 0,-84 0,-78 6,-72 12,-72 12,-72 85,-72 85,-72 91,-72 97,-78 97,-84 97,-84 97,-96 97,-96 97,-102 91,-108 85,-108"/>
<text text-anchor="middle" x="48.5" y="-87.5" font-family="sans" font-size="10.00" fill="#000000">metadmg_damage</text>
</g>
<!-- 46&#45;&gt;56 -->
<g id="edge83" class="edge">
<title>46&#45;&gt;56</title>
<path fill="none" stroke="#c0c0c0" stroke-width="2" d="M118.6009,-359.6884C109.107,-349.9406 98.3516,-337.2474 91.5,-324 56.3656,-256.0688 49.5604,-163.9935 48.4845,-118.2352"/>
<polygon fill="#c0c0c0" stroke="#c0c0c0" stroke-width="2" points="51.983,-118.1025 48.3246,-108.1594 44.9838,-118.2137 51.983,-118.1025"/>
</g>
<!-- 47 -->
<g id="node48" class="node">
<title>47</title>
<path fill="none" stroke="#56d0d8" stroke-width="2" d="M1510.5,-252C1510.5,-252 1458.5,-252 1458.5,-252 1452.5,-252 1446.5,-246 1446.5,-240 1446.5,-240 1446.5,-228 1446.5,-228 1446.5,-222 1452.5,-216 1458.5,-216 1458.5,-216 1510.5,-216 1510.5,-216 1516.5,-216 1522.5,-222 1522.5,-228 1522.5,-228 1522.5,-240 1522.5,-240 1522.5,-246 1516.5,-252 1510.5,-252"/>
<text text-anchor="middle" x="1484.5" y="-231.5" font-family="sans" font-size="10.00" fill="#000000">metadmg_dfit</text>
</g>
<!-- 47&#45;&gt;1 -->
<g id="edge24" class="edge">
<title>47&#45;&gt;1</title>
<path fill="none" stroke="#c0c0c0" stroke-width="2" d="M1479.4304,-215.8763C1472.4457,-194.648 1457.6564,-160.3123 1431.5,-144 1403.0297,-126.2446 907.5101,-99.2851 765.971,-91.9177"/>
<polygon fill="#c0c0c0" stroke="#c0c0c0" stroke-width="2" points="765.8119,-88.4049 755.6441,-91.3823 765.4494,-95.3955 765.8119,-88.4049"/>
</g>
<!-- 54 -->
<g id="node55" class="node">
<title>54</title>
<path fill="none" stroke="#56d8c9" stroke-width="2" d="M1577,-180C1577,-180 1496,-180 1496,-180 1490,-180 1484,-174 1484,-168 1484,-168 1484,-156 1484,-156 1484,-150 1490,-144 1496,-144 1496,-144 1577,-144 1577,-144 1583,-144 1589,-150 1589,-156 1589,-156 1589,-168 1589,-168 1589,-174 1583,-180 1577,-180"/>
<text text-anchor="middle" x="1536.5" y="-159.5" font-family="sans" font-size="10.00" fill="#000000">metadmg_aggregate</text>
</g>
<!-- 47&#45;&gt;54 -->
<g id="edge80" class="edge">
<title>47&#45;&gt;54</title>
<path fill="none" stroke="#c0c0c0" stroke-width="2" d="M1497.6218,-215.8314C1503.5499,-207.6232 1510.6729,-197.7606 1517.1933,-188.7323"/>
<polygon fill="#c0c0c0" stroke="#c0c0c0" stroke-width="2" points="1520.184,-190.5693 1523.2015,-180.4133 1514.5092,-186.4708 1520.184,-190.5693"/>
</g>
<!-- 48 -->
<g id="node49" class="node">
<title>48</title>
<path fill="none" stroke="#d85656" stroke-width="2" d="M1576,-324C1576,-324 1525,-324 1525,-324 1519,-324 1513,-318 1513,-312 1513,-312 1513,-300 1513,-300 1513,-294 1519,-288 1525,-288 1525,-288 1576,-288 1576,-288 1582,-288 1588,-294 1588,-300 1588,-300 1588,-312 1588,-312 1588,-318 1582,-324 1576,-324"/>
<text text-anchor="middle" x="1550.5" y="-303.5" font-family="sans" font-size="10.00" fill="#000000">metadmg_lca</text>
</g>
<!-- 48&#45;&gt;47 -->
<g id="edge71" class="edge">
<title>48&#45;&gt;47</title>
<path fill="none" stroke="#c0c0c0" stroke-width="2" d="M1533.8454,-287.8314C1526.0886,-279.3694 1516.7198,-269.1489 1508.239,-259.8971"/>
<polygon fill="#c0c0c0" stroke="#c0c0c0" stroke-width="2" points="1510.7162,-257.4198 1501.3788,-252.4133 1505.5561,-262.1499 1510.7162,-257.4198"/>
</g>
<!-- 48&#45;&gt;54 -->
<g id="edge79" class="edge">
<title>48&#45;&gt;54</title>
<path fill="none" stroke="#c0c0c0" stroke-width="2" d="M1548.7269,-287.7623C1546.339,-263.201 1542.0657,-219.2474 1539.2566,-190.3541"/>
<polygon fill="#c0c0c0" stroke="#c0c0c0" stroke-width="2" points="1542.71,-189.704 1538.2587,-180.0896 1535.7429,-190.3814 1542.71,-189.704"/>
</g>
<!-- 49&#45;&gt;48 -->
<g id="edge72" class="edge">
<title>49&#45;&gt;48</title>
<path fill="none" stroke="#c0c0c0" stroke-width="2" d="M1557.2289,-359.8314C1556.2664,-352.131 1555.1218,-342.9743 1554.0521,-334.4166"/>
<polygon fill="#c0c0c0" stroke="#c0c0c0" stroke-width="2" points="1557.5151,-333.9019 1552.8017,-324.4133 1550.5691,-334.7702 1557.5151,-333.9019"/>
</g>
<!-- 57 -->
<g id="node58" class="node">
<title>57</title>
<path fill="none" stroke="#d8a456" stroke-width="2" d="M1491,-108C1491,-108 1418,-108 1418,-108 1412,-108 1406,-102 1406,-96 1406,-96 1406,-84 1406,-84 1406,-78 1412,-72 1418,-72 1418,-72 1491,-72 1491,-72 1497,-72 1503,-78 1503,-84 1503,-84 1503,-96 1503,-96 1503,-102 1497,-108 1491,-108"/>
<text text-anchor="middle" x="1454.5" y="-87.5" font-family="sans" font-size="10.00" fill="#000000">metadmg_damage</text>
</g>
<!-- 49&#45;&gt;57 -->
<g id="edge84" class="edge">
<title>49&#45;&gt;57</title>
<path fill="none" stroke="#c0c0c0" stroke-width="2" d="M1576.725,-359.5638C1584.6906,-349.7843 1593.3025,-337.1003 1597.5,-324 1621.9108,-247.814 1644.0683,-209.7551 1598.5,-144 1588.1436,-129.0557 1548.0492,-114.7285 1512.7901,-104.5915"/>
<polygon fill="#c0c0c0" stroke="#c0c0c0" stroke-width="2" points="1513.5758,-101.1769 1503.0022,-101.8465 1511.6856,-107.9169 1513.5758,-101.1769"/>
</g>
<!-- 50 -->
<g id="node51" class="node">
<title>50</title>
<path fill="none" stroke="#56d0d8" stroke-width="2" d="M448.5,-252C448.5,-252 396.5,-252 396.5,-252 390.5,-252 384.5,-246 384.5,-240 384.5,-240 384.5,-228 384.5,-228 384.5,-222 390.5,-216 396.5,-216 396.5,-216 448.5,-216 448.5,-216 454.5,-216 460.5,-222 460.5,-228 460.5,-228 460.5,-240 460.5,-240 460.5,-246 454.5,-252 448.5,-252"/>
<text text-anchor="middle" x="422.5" y="-231.5" font-family="sans" font-size="10.00" fill="#000000">metadmg_dfit</text>
</g>
<!-- 50&#45;&gt;1 -->
<g id="edge25" class="edge">
<title>50&#45;&gt;1</title>
<path fill="none" stroke="#c0c0c0" stroke-width="2" d="M424.2004,-215.8365C427.137,-195.2289 435.0885,-162.1369 456.5,-144 491.5447,-114.3149 625.4352,-98.8832 691.3693,-92.9478"/>
<polygon fill="#c0c0c0" stroke="#c0c0c0" stroke-width="2" points="691.6851,-96.4337 701.3423,-92.0761 691.0754,-89.4603 691.6851,-96.4337"/>
</g>
<!-- 53 -->
<g id="node54" class="node">
<title>53</title>
<path fill="none" stroke="#56d8c9" stroke-width="2" d="M397,-180C397,-180 316,-180 316,-180 310,-180 304,-174 304,-168 304,-168 304,-156 304,-156 304,-150 310,-144 316,-144 316,-144 397,-144 397,-144 403,-144 409,-150 409,-156 409,-156 409,-168 409,-168 409,-174 403,-180 397,-180"/>
<text text-anchor="middle" x="356.5" y="-159.5" font-family="sans" font-size="10.00" fill="#000000">metadmg_aggregate</text>
</g>
<!-- 50&#45;&gt;53 -->
<g id="edge78" class="edge">
<title>50&#45;&gt;53</title>
<path fill="none" stroke="#c0c0c0" stroke-width="2" d="M405.8454,-215.8314C398.0886,-207.3694 388.7198,-197.1489 380.239,-187.8971"/>
<polygon fill="#c0c0c0" stroke="#c0c0c0" stroke-width="2" points="382.7162,-185.4198 373.3788,-180.4133 377.5561,-190.1499 382.7162,-185.4198"/>
</g>
<!-- 51 -->
<g id="node52" class="node">
<title>51</title>
<path fill="none" stroke="#d85656" stroke-width="2" d="M409,-324C409,-324 358,-324 358,-324 352,-324 346,-318 346,-312 346,-312 346,-300 346,-300 346,-294 352,-288 358,-288 358,-288 409,-288 409,-288 415,-288 421,-294 421,-300 421,-300 421,-312 421,-312 421,-318 415,-324 409,-324"/>
<text text-anchor="middle" x="383.5" y="-303.5" font-family="sans" font-size="10.00" fill="#000000">metadmg_lca</text>
</g>
<!-- 51&#45;&gt;50 -->
<g id="edge74" class="edge">
<title>51&#45;&gt;50</title>
<path fill="none" stroke="#c0c0c0" stroke-width="2" d="M393.3413,-287.8314C397.6957,-279.7925 402.9098,-270.1666 407.7169,-261.2918"/>
<polygon fill="#c0c0c0" stroke="#c0c0c0" stroke-width="2" points="410.8408,-262.8732 412.5261,-252.4133 404.6857,-259.5392 410.8408,-262.8732"/>
</g>
<!-- 51&#45;&gt;53 -->
<g id="edge77" class="edge">
<title>51&#45;&gt;53</title>
<path fill="none" stroke="#c0c0c0" stroke-width="2" d="M380.0804,-287.7623C375.4549,-263.0928 367.1612,-218.8598 361.745,-189.9731"/>
<polygon fill="#c0c0c0" stroke="#c0c0c0" stroke-width="2" points="365.1748,-189.2733 359.8918,-180.0896 358.2947,-190.5634 365.1748,-189.2733"/>
</g>
<!-- 52&#45;&gt;51 -->
<g id="edge75" class="edge">
<title>52&#45;&gt;51</title>
<path fill="none" stroke="#c0c0c0" stroke-width="2" d="M383.5,-359.8314C383.5,-352.131 383.5,-342.9743 383.5,-334.4166"/>
<polygon fill="#c0c0c0" stroke="#c0c0c0" stroke-width="2" points="387.0001,-334.4132 383.5,-324.4133 380.0001,-334.4133 387.0001,-334.4132"/>
</g>
<!-- 58 -->
<g id="node59" class="node">
<title>58</title>
<path fill="none" stroke="#d8a456" stroke-width="2" d="M305,-108C305,-108 232,-108 232,-108 226,-108 220,-102 220,-96 220,-96 220,-84 220,-84 220,-78 226,-72 232,-72 232,-72 305,-72 305,-72 311,-72 317,-78 317,-84 317,-84 317,-96 317,-96 317,-102 311,-108 305,-108"/>
<text text-anchor="middle" x="268.5" y="-87.5" font-family="sans" font-size="10.00" fill="#000000">metadmg_damage</text>
</g>
<!-- 52&#45;&gt;58 -->
<g id="edge85" class="edge">
<title>52&#45;&gt;58</title>
<path fill="none" stroke="#c0c0c0" stroke-width="2" d="M365.8212,-359.8927C356.4773,-349.8029 345.179,-336.7354 336.5,-324 295.8632,-264.3698 278.6588,-250.0906 261.5,-180 256.5156,-159.6397 258.6503,-135.9874 261.8257,-118.0407"/>
<polygon fill="#c0c0c0" stroke="#c0c0c0" stroke-width="2" points="265.265,-118.69 263.7697,-108.2013 258.3977,-117.3332 265.265,-118.69"/>
</g>
<!-- 53&#45;&gt;0 -->
<g id="edge5" class="edge">
<title>53&#45;&gt;0</title>
<path fill="none" stroke="#c0c0c0" stroke-width="2" d="M356.5,-143.7623C356.5,-119.201 356.5,-75.2474 356.5,-46.3541"/>
<polygon fill="#c0c0c0" stroke="#c0c0c0" stroke-width="2" points="360.0001,-46.0896 356.5,-36.0896 353.0001,-46.0897 360.0001,-46.0896"/>
</g>
<!-- 53&#45;&gt;1 -->
<g id="edge26" class="edge">
<title>53&#45;&gt;1</title>
<path fill="none" stroke="#c0c0c0" stroke-width="2" d="M409.0599,-147.4149C413.9282,-146.2045 418.7971,-145.046 423.5,-144 519.3682,-122.6781 633.6805,-104.2952 691.3281,-95.5098"/>
<polygon fill="#c0c0c0" stroke="#c0c0c0" stroke-width="2" points="692.0522,-98.9401 701.4155,-93.9825 691.0042,-92.019 692.0522,-98.9401"/>
</g>
<!-- 54&#45;&gt;0 -->
<g id="edge6" class="edge">
<title>54&#45;&gt;0</title>
<path fill="none" stroke="#c0c0c0" stroke-width="2" d="M1483.9269,-148.6929C1476.1042,-146.9619 1468.1134,-145.3312 1460.5,-144 1045.182,-71.3826 534.3418,-30.9204 393.7908,-20.6376"/>
<polygon fill="#c0c0c0" stroke="#c0c0c0" stroke-width="2" points="393.7953,-17.1288 383.568,-19.8953 393.2883,-24.1104 393.7953,-17.1288"/>
</g>
<!-- 54&#45;&gt;1 -->
<g id="edge27" class="edge">
<title>54&#45;&gt;1</title>
<path fill="none" stroke="#c0c0c0" stroke-width="2" d="M1483.6746,-146.8151C1478.9068,-145.7462 1474.1315,-144.7836 1469.5,-144 1331.7269,-120.6902 896.4024,-98.1574 765.859,-91.7824"/>
<polygon fill="#c0c0c0" stroke="#c0c0c0" stroke-width="2" points="765.7434,-88.2727 755.5853,-91.2834 765.4037,-95.2645 765.7434,-88.2727"/>
</g>
<!-- 55&#45;&gt;0 -->
<g id="edge7" class="edge">
<title>55&#45;&gt;0</title>
<path fill="none" stroke="#c0c0c0" stroke-width="2" d="M132.997,-143.8061C149.7808,-123.7912 179.1602,-91.8382 210.5,-72 244.6588,-50.3773 288.7486,-35.5863 319.4999,-27.0259"/>
<polygon fill="#c0c0c0" stroke="#c0c0c0" stroke-width="2" points="320.6397,-30.3437 329.3836,-24.3608 318.8172,-23.585 320.6397,-30.3437"/>
</g>
<!-- 55&#45;&gt;1 -->
<g id="edge28" class="edge">
<title>55&#45;&gt;1</title>
<path fill="none" stroke="#c0c0c0" stroke-width="2" d="M171.3485,-146.9466C176.1114,-145.8496 180.8792,-144.8446 185.5,-144 373.7821,-109.5846 603.0836,-95.8572 691.3877,-91.5991"/>
<polygon fill="#c0c0c0" stroke="#c0c0c0" stroke-width="2" points="691.6208,-95.0921 701.4453,-91.126 691.2918,-88.0998 691.6208,-95.0921"/>
</g>
<!-- 56&#45;&gt;0 -->
<g id="edge2" class="edge">
<title>56&#45;&gt;0</title>
<path fill="none" stroke="#c0c0c0" stroke-width="2" d="M97.3035,-78.5914C159.1018,-64.145 264.1921,-39.5785 319.6732,-26.6089"/>
<polygon fill="#c0c0c0" stroke="#c0c0c0" stroke-width="2" points="320.4931,-30.0116 329.4338,-24.3272 318.8996,-23.1954 320.4931,-30.0116"/>
</g>
<!-- 57&#45;&gt;0 -->
<g id="edge3" class="edge">
<title>57&#45;&gt;0</title>
<path fill="none" stroke="#c0c0c0" stroke-width="2" d="M1405.7335,-86.5898C1353.1215,-82.9246 1266.8801,-76.9572 1192.5,-72 883.9579,-51.4364 511.276,-27.7827 393.8128,-20.3555"/>
<polygon fill="#c0c0c0" stroke="#c0c0c0" stroke-width="2" points="393.7685,-16.8458 383.5676,-19.708 393.3269,-23.8319 393.7685,-16.8458"/>
</g>
<!-- 58&#45;&gt;0 -->
<g id="edge4" class="edge">
<title>58&#45;&gt;0</title>
<path fill="none" stroke="#c0c0c0" stroke-width="2" d="M290.7061,-71.8314C301.545,-62.9632 314.7444,-52.1637 326.4678,-42.5718"/>
<polygon fill="#c0c0c0" stroke="#c0c0c0" stroke-width="2" points="328.7777,-45.2041 334.301,-36.1628 324.345,-39.7864 328.7777,-45.2041"/>
</g>
</g>
</svg>
