<?xml version="1.0" encoding="UTF-8" standalone="no"?>
<!DOCTYPE svg PUBLIC "-//W3C//DTD SVG 1.1//EN"
 "http://www.w3.org/Graphics/SVG/1.1/DTD/svg11.dtd">
<!-- Generated by graphviz version 2.40.1 (0)
 -->
<!-- Title: snakemake_dag Pages: 1 -->
<svg width="1731pt" height="2848pt"
 viewBox="0.00 0.00 1730.50 2848.00" xmlns="http://www.w3.org/2000/svg" xmlns:xlink="http://www.w3.org/1999/xlink">
<g id="graph0" class="graph" transform="scale(1 1) rotate(0) translate(4 2844)">
<title>snakemake_dag</title>
<polygon fill="#ffffff" stroke="transparent" points="-4,4 -4,-2844 1726.5,-2844 1726.5,4 -4,4"/>
<!-- 0 -->
<g id="node1" class="node">
<title>0</title>
<text text-anchor="start" x="1053" y="-341.6" font-family="sans" font-weight="bold" font-size="18.00" fill="#000000">all</text>
<text text-anchor="start" x="880" y="-317.8" font-family="sans" font-size="10.00" fill="#000000"> </text>
<text text-anchor="start" x="884" y="-317.8" font-family="sans" font-weight="bold" font-size="14.00" fill="#000000">↪ input</text>
<text text-anchor="start" x="937" y="-317.8" font-family="sans" font-size="10.00" fill="#000000"> </text>
<text text-anchor="start" x="880" y="-298" font-family="monospace" font-size="10.00" fill="#000000">reports/multiqc.html</text>
<text text-anchor="start" x="880" y="-280" font-family="monospace" font-size="10.00" fill="#000000">results/metadmg/aggregate/HD827sonic_1_lib1_collapsed.stat.gz</text>
<text text-anchor="start" x="880" y="-262" font-family="monospace" font-size="10.00" fill="#000000">results/metadmg/aggregate/HD827sonic_1_lib1_collapsed.stat.gz</text>
<text text-anchor="start" x="880" y="-244" font-family="monospace" font-size="10.00" fill="#000000">results/metadmg/aggregate/HD827sonic_2_lib1_collapsed.stat.gz</text>
<text text-anchor="start" x="880" y="-226" font-family="monospace" font-size="10.00" fill="#000000">results/metadmg/aggregate/HD827sonic_2_lib2_collapsed.stat.gz</text>
<text text-anchor="start" x="880" y="-208" font-family="monospace" font-size="10.00" fill="#000000">results/metadmg/aggregate/HD827sonic_2_lib3_collapsed.stat.gz</text>
<text text-anchor="start" x="880" y="-190" font-family="monospace" font-size="10.00" fill="#000000">results/reads/saturated/HD827sonic_1_lib1_collapsed.fastq.gz</text>
<text text-anchor="start" x="880" y="-172" font-family="monospace" font-size="10.00" fill="#000000">results/reads/saturated/HD827sonic_1_lib1_collapsed.fastq.gz</text>
<text text-anchor="start" x="880" y="-154" font-family="monospace" font-size="10.00" fill="#000000">results/reads/saturated/HD827sonic_2_lib1_collapsed.fastq.gz</text>
<text text-anchor="start" x="880" y="-136" font-family="monospace" font-size="10.00" fill="#000000">results/reads/saturated/HD827sonic_2_lib2_collapsed.fastq.gz</text>
<text text-anchor="start" x="880" y="-118" font-family="monospace" font-size="10.00" fill="#000000">results/reads/saturated/HD827sonic_2_lib3_collapsed.fastq.gz</text>
<text text-anchor="start" x="880" y="-100" font-family="monospace" font-size="10.00" fill="#000000">stats/metadmg/damage/HD827sonic_1_lib1_collapsed.stat.gz</text>
<text text-anchor="start" x="880" y="-82" font-family="monospace" font-size="10.00" fill="#000000">stats/metadmg/damage/HD827sonic_1_lib1_collapsed.stat.gz</text>
<text text-anchor="start" x="880" y="-64" font-family="monospace" font-size="10.00" fill="#000000">stats/metadmg/damage/HD827sonic_2_lib1_collapsed.stat.gz</text>
<text text-anchor="start" x="880" y="-46" font-family="monospace" font-size="10.00" fill="#000000">stats/metadmg/damage/HD827sonic_2_lib2_collapsed.stat.gz</text>
<text text-anchor="start" x="880" y="-28" font-family="monospace" font-size="10.00" fill="#000000">stats/metadmg/damage/HD827sonic_2_lib3_collapsed.stat.gz</text>
<text text-anchor="start" x="1240" y="-10" font-family="sans" font-size="10.00" fill="#000000"> &#160;</text>
<polygon fill="#d9a957" stroke="#d9a957" points="874,-332 874,-332 1254,-332 1254,-332 874,-332"/>
<polygon fill="#d9a957" stroke="#d9a957" points="874,-22 874,-22 1254,-22 1254,-22 874,-22"/>
<polygon fill="none" stroke="#d9a957" stroke-width="2" points="873.5,-1 873.5,-361 1252.5,-361 1252.5,-1 873.5,-1"/>
</g>
<!-- 1 -->
<g id="node2" class="node">
<title>1</title>
<text text-anchor="start" x="535" y="-995.6" font-family="sans" font-weight="bold" font-size="18.00" fill="#000000">multiqc</text>
<text text-anchor="start" x="378" y="-971.8" font-family="sans" font-size="10.00" fill="#000000"> </text>
<text text-anchor="start" x="382" y="-971.8" font-family="sans" font-weight="bold" font-size="14.00" fill="#000000">↪ input</text>
<text text-anchor="start" x="435" y="-971.8" font-family="sans" font-size="10.00" fill="#000000"> </text>
<text text-anchor="start" x="378" y="-952" font-family="monospace" font-size="10.00" fill="#000000">logs/shards/bowtie2/HD827sonic_1_lib1_collapsed.test.1&#45;of&#45;2.log</text>
<text text-anchor="start" x="378" y="-934" font-family="monospace" font-size="10.00" fill="#000000">logs/shards/bowtie2/HD827sonic_1_lib1_collapsed.test.2&#45;of&#45;2.log</text>
<text text-anchor="start" x="378" y="-916" font-family="monospace" font-size="10.00" fill="#000000">logs/shards/bowtie2/HD827sonic_2_lib1_collapsed.test.1&#45;of&#45;2.log</text>
<text text-anchor="start" x="378" y="-898" font-family="monospace" font-size="10.00" fill="#000000">logs/shards/bowtie2/HD827sonic_2_lib1_collapsed.test.2&#45;of&#45;2.log</text>
<text text-anchor="start" x="378" y="-880" font-family="monospace" font-size="10.00" fill="#000000">logs/shards/bowtie2/HD827sonic_2_lib2_collapsed.test.1&#45;of&#45;2.log</text>
<text text-anchor="start" x="378" y="-862" font-family="monospace" font-size="10.00" fill="#000000">logs/shards/bowtie2/HD827sonic_2_lib2_collapsed.test.2&#45;of&#45;2.log</text>
<text text-anchor="start" x="378" y="-844" font-family="monospace" font-size="10.00" fill="#000000">logs/shards/bowtie2/HD827sonic_2_lib3_collapsed.test.1&#45;of&#45;2.log</text>
<text text-anchor="start" x="378" y="-826" font-family="monospace" font-size="10.00" fill="#000000">logs/shards/bowtie2/HD827sonic_2_lib3_collapsed.test.2&#45;of&#45;2.log</text>
<text text-anchor="start" x="378" y="-808" font-family="monospace" font-size="10.00" fill="#000000">results/metadmg/aggregate/HD827sonic_1_lib1_collapsed.stat.gz</text>
<text text-anchor="start" x="378" y="-790" font-family="monospace" font-size="10.00" fill="#000000">results/metadmg/aggregate/HD827sonic_1_lib1_collapsed.stat.gz</text>
<text text-anchor="start" x="378" y="-772" font-family="monospace" font-size="10.00" fill="#000000">results/metadmg/aggregate/HD827sonic_2_lib1_collapsed.stat.gz</text>
<text text-anchor="start" x="378" y="-754" font-family="monospace" font-size="10.00" fill="#000000">results/metadmg/aggregate/HD827sonic_2_lib2_collapsed.stat.gz</text>
<text text-anchor="start" x="378" y="-736" font-family="monospace" font-size="10.00" fill="#000000">results/metadmg/aggregate/HD827sonic_2_lib3_collapsed.stat.gz</text>
<text text-anchor="start" x="378" y="-718" font-family="monospace" font-size="10.00" fill="#000000">results/metadmg/dfit/HD827sonic_1_lib1_collapsed.dfit.gz</text>
<text text-anchor="start" x="378" y="-700" font-family="monospace" font-size="10.00" fill="#000000">results/metadmg/dfit/HD827sonic_1_lib1_collapsed.dfit.gz</text>
<text text-anchor="start" x="378" y="-682" font-family="monospace" font-size="10.00" fill="#000000">results/metadmg/dfit/HD827sonic_2_lib1_collapsed.dfit.gz</text>
<text text-anchor="start" x="378" y="-664" font-family="monospace" font-size="10.00" fill="#000000">results/metadmg/dfit/HD827sonic_2_lib2_collapsed.dfit.gz</text>
<text text-anchor="start" x="378" y="-646" font-family="monospace" font-size="10.00" fill="#000000">results/metadmg/dfit/HD827sonic_2_lib3_collapsed.dfit.gz</text>
<text text-anchor="start" x="378" y="-628" font-family="monospace" font-size="10.00" fill="#000000">stats/aligns/samtools/stats/HD827sonic_1_lib1_collapsed.txt</text>
<text text-anchor="start" x="378" y="-610" font-family="monospace" font-size="10.00" fill="#000000">stats/aligns/samtools/stats/HD827sonic_1_lib1_collapsed.txt</text>
<text text-anchor="start" x="378" y="-592" font-family="monospace" font-size="10.00" fill="#000000">stats/aligns/samtools/stats/HD827sonic_2_lib1_collapsed.txt</text>
<text text-anchor="start" x="378" y="-574" font-family="monospace" font-size="10.00" fill="#000000">stats/aligns/samtools/stats/HD827sonic_2_lib2_collapsed.txt</text>
<text text-anchor="start" x="378" y="-556" font-family="monospace" font-size="10.00" fill="#000000">stats/aligns/samtools/stats/HD827sonic_2_lib3_collapsed.txt</text>
<text text-anchor="start" x="378" y="-538" font-family="monospace" font-size="10.00" fill="#000000">stats/shards/unicorn/tidstats/HD827sonic_1_lib1_collapsed.tsv</text>
<text text-anchor="start" x="378" y="-520" font-family="monospace" font-size="10.00" fill="#000000">stats/shards/unicorn/tidstats/HD827sonic_1_lib1_collapsed.tsv</text>
<text text-anchor="start" x="378" y="-502" font-family="monospace" font-size="10.00" fill="#000000">stats/shards/unicorn/tidstats/HD827sonic_2_lib1_collapsed.tsv</text>
<text text-anchor="start" x="378" y="-484" font-family="monospace" font-size="10.00" fill="#000000">stats/shards/unicorn/tidstats/HD827sonic_2_lib2_collapsed.tsv</text>
<text text-anchor="start" x="378" y="-466" font-family="monospace" font-size="10.00" fill="#000000">stats/shards/unicorn/tidstats/HD827sonic_2_lib3_collapsed.tsv</text>
<text text-anchor="start" x="688" y="-445.8" font-family="sans" font-size="10.00" fill="#000000"> </text>
<text text-anchor="start" x="692" y="-445.8" font-family="sans" font-weight="bold" font-size="14.00" fill="#000000">output →</text>
<text text-anchor="start" x="753" y="-445.8" font-family="sans" font-size="10.00" fill="#000000"> </text>
<text text-anchor="start" x="378" y="-426" font-family="monospace" font-size="10.00" fill="#000000">reports/multiqc.html</text>
<text text-anchor="start" x="378" y="-408" font-family="monospace" font-size="10.00" fill="#000000">reports/multiqc_data.zip</text>
<polygon fill="#80d957" stroke="#80d957" points="372,-986 372,-986 764,-986 764,-986 372,-986"/>
<polygon fill="#80d957" stroke="#80d957" points="372,-460 372,-460 764,-460 764,-460 372,-460"/>
<polygon fill="none" stroke="#80d957" stroke-width="2" points="371.5,-399 371.5,-1015 762.5,-1015 762.5,-399 371.5,-399"/>
</g>
<!-- 1&#45;&gt;0 -->
<g id="edge1" class="edge">
<title>1&#45;&gt;0</title>
<path fill="none" stroke="#c0c0c0" stroke-width="2" d="M763.7447,-498.3554C803.8032,-455.874 845.7273,-411.4142 885.0856,-369.6754"/>
<polygon fill="#c0c0c0" stroke="#c0c0c0" stroke-width="2" points="887.8321,-371.8643 892.1463,-362.1876 882.7393,-367.0619 887.8321,-371.8643"/>
</g>
<!-- 2 -->
<g id="node3" class="node">
<title>2</title>
<text text-anchor="start" x="469" y="-2819.6" font-family="sans" font-weight="bold" font-size="18.00" fill="#000000">shard_bowtie2</text>
<text text-anchor="start" x="184" y="-2795.8" font-family="sans" font-size="10.00" fill="#000000"> </text>
<text text-anchor="start" x="188" y="-2795.8" font-family="sans" font-weight="bold" font-size="14.00" fill="#000000">↪ input</text>
<text text-anchor="start" x="241" y="-2795.8" font-family="sans" font-size="10.00" fill="#000000"> </text>
<text text-anchor="start" x="184" y="-2776" font-family="monospace" font-size="10.00" fill="#000000">&lt;input function&gt;</text>
<text text-anchor="start" x="184" y="-2758" font-family="monospace" font-size="10.00" fill="#000000">&lt;input function&gt;</text>
<text text-anchor="start" x="812" y="-2737.8" font-family="sans" font-size="10.00" fill="#000000"> </text>
<text text-anchor="start" x="816" y="-2737.8" font-family="sans" font-weight="bold" font-size="14.00" fill="#000000">output →</text>
<text text-anchor="start" x="877" y="-2737.8" font-family="sans" font-size="10.00" fill="#000000"> </text>
<text text-anchor="start" x="184" y="-2718" font-family="monospace" font-size="10.00" fill="#000000">temp/shards/bowtie2/{sample}_{library}_{read_type_map,pe|se|singleton|collapsed}.{ref}.{n_shard}&#45;of&#45;{tot_shards}.bam</text>
<polygon fill="#64d957" stroke="#64d957" points="178,-2810 178,-2810 888,-2810 888,-2810 178,-2810"/>
<polygon fill="#64d957" stroke="#64d957" points="178,-2752 178,-2752 888,-2752 888,-2752 178,-2752"/>
<polygon fill="none" stroke="#64d957" stroke-width="2" points="177.5,-2709 177.5,-2839 886.5,-2839 886.5,-2709 177.5,-2709"/>
</g>
<!-- 2&#45;&gt;1 -->
<g id="edge9" class="edge">
<title>2&#45;&gt;1</title>
<path fill="none" stroke="#c0c0c0" stroke-width="2" d="M237.2162,-2707.9807C114.4719,-2661.4383 0,-2583.7793 0,-2456 0,-2456 0,-2456 0,-1349 0,-1123.2907 199.3224,-939.5428 361.608,-827.3435"/>
<polygon fill="#c0c0c0" stroke="#c0c0c0" stroke-width="2" points="364.0181,-829.9344 370.2822,-821.3897 360.0568,-824.1631 364.0181,-829.9344"/>
</g>
<!-- 7 -->
<g id="node8" class="node">
<title>7</title>
<text text-anchor="start" x="595.5" y="-2333.6" font-family="sans" font-weight="bold" font-size="18.00" fill="#000000">shard_saturated_reads_remove</text>
<text text-anchor="start" x="336" y="-2309.8" font-family="sans" font-size="10.00" fill="#000000"> </text>
<text text-anchor="start" x="340" y="-2309.8" font-family="sans" font-weight="bold" font-size="14.00" fill="#000000">↪ input</text>
<text text-anchor="start" x="393" y="-2309.8" font-family="sans" font-size="10.00" fill="#000000"> </text>
<text text-anchor="start" x="336" y="-2290" font-family="monospace" font-size="10.00" fill="#000000">&lt;input function&gt;</text>
<text text-anchor="start" x="336" y="-2272" font-family="monospace" font-size="10.00" fill="#000000">temp/shards/saturated_reads/filter/{sample}_{library}_{read_type_map}.tsv</text>
<text text-anchor="start" x="1054" y="-2251.8" font-family="sans" font-size="10.00" fill="#000000"> </text>
<text text-anchor="start" x="1058" y="-2251.8" font-family="sans" font-weight="bold" font-size="14.00" fill="#000000">output →</text>
<text text-anchor="start" x="1119" y="-2251.8" font-family="sans" font-size="10.00" fill="#000000"> </text>
<text text-anchor="start" x="336" y="-2232" font-family="monospace" font-size="10.00" fill="#000000">temp/shards/saturated_reads/remove/{sample}_{library}_{read_type_map,pe|se|singleton|collapsed}.{ref}.{n_shard}&#45;of&#45;{tot_shards}.bam</text>
<polygon fill="#57a9d9" stroke="#57a9d9" points="330,-2324 330,-2324 1130,-2324 1130,-2324 330,-2324"/>
<polygon fill="#57a9d9" stroke="#57a9d9" points="330,-2266 330,-2266 1130,-2266 1130,-2266 330,-2266"/>
<polygon fill="none" stroke="#57a9d9" stroke-width="2" points="329.5,-2223 329.5,-2353 1128.5,-2353 1128.5,-2223 329.5,-2223"/>
</g>
<!-- 2&#45;&gt;7 -->
<g id="edge15" class="edge">
<title>2&#45;&gt;7</title>
<path fill="none" stroke="#c0c0c0" stroke-width="2" d="M530.8004,-2707.9467C532.4581,-2626.3313 545.8601,-2486.4613 612,-2390 618.854,-2380.0039 626.911,-2370.3718 635.5368,-2361.2843"/>
<polygon fill="#c0c0c0" stroke="#c0c0c0" stroke-width="2" points="638.0627,-2363.7075 642.5644,-2354.1166 633.0643,-2358.8068 638.0627,-2363.7075"/>
</g>
<!-- 9 -->
<g id="node10" class="node">
<title>9</title>
<text text-anchor="start" x="848.5" y="-2651.6" font-family="sans" font-weight="bold" font-size="18.00" fill="#000000">shard_count_alns</text>
<text text-anchor="start" x="568" y="-2627.8" font-family="sans" font-size="10.00" fill="#000000"> </text>
<text text-anchor="start" x="572" y="-2627.8" font-family="sans" font-weight="bold" font-size="14.00" fill="#000000">↪ input</text>
<text text-anchor="start" x="625" y="-2627.8" font-family="sans" font-size="10.00" fill="#000000"> </text>
<text text-anchor="start" x="568" y="-2608" font-family="monospace" font-size="10.00" fill="#000000">&lt;input function&gt;</text>
<text text-anchor="start" x="1214" y="-2587.8" font-family="sans" font-size="10.00" fill="#000000"> </text>
<text text-anchor="start" x="1218" y="-2587.8" font-family="sans" font-weight="bold" font-size="14.00" fill="#000000">output →</text>
<text text-anchor="start" x="1279" y="-2587.8" font-family="sans" font-size="10.00" fill="#000000"> </text>
<text text-anchor="start" x="568" y="-2568" font-family="monospace" font-size="10.00" fill="#000000">temp/shards/count_alns/{sample}_{library}_{read_type_map,pe|se|singleton|collapsed}.{ref}.{n_shard}&#45;of&#45;{tot_shards}.tsv</text>
<polygon fill="#57d99b" stroke="#57d99b" points="562,-2642 562,-2642 1290,-2642 1290,-2642 562,-2642"/>
<polygon fill="#57d99b" stroke="#57d99b" points="562,-2602 562,-2602 1290,-2602 1290,-2602 562,-2602"/>
<polygon fill="none" stroke="#57d99b" stroke-width="2" points="561.5,-2559 561.5,-2671 1288.5,-2671 1288.5,-2559 561.5,-2559"/>
</g>
<!-- 2&#45;&gt;9 -->
<g id="edge17" class="edge">
<title>2&#45;&gt;9</title>
<path fill="none" stroke="#c0c0c0" stroke-width="2" d="M695.2532,-2707.951C721.4548,-2697.3504 748.4686,-2686.4211 774.3576,-2675.9469"/>
<polygon fill="#c0c0c0" stroke="#c0c0c0" stroke-width="2" points="775.8838,-2679.1051 783.8412,-2672.11 773.2585,-2672.6161 775.8838,-2679.1051"/>
</g>
<!-- 3 -->
<g id="node4" class="node">
<title>3</title>
<text text-anchor="start" x="221" y="-1385.6" font-family="sans" font-weight="bold" font-size="18.00" fill="#000000">align_samtools_stats</text>
<text text-anchor="start" x="36" y="-1361.8" font-family="sans" font-size="10.00" fill="#000000"> </text>
<text text-anchor="start" x="40" y="-1361.8" font-family="sans" font-weight="bold" font-size="14.00" fill="#000000">↪ input</text>
<text text-anchor="start" x="93" y="-1361.8" font-family="sans" font-size="10.00" fill="#000000"> </text>
<text text-anchor="start" x="36" y="-1342" font-family="monospace" font-size="10.00" fill="#000000">results/aligns/merge/{sample}_{library}_{read_type_map}.bam</text>
<text text-anchor="start" x="520" y="-1321.8" font-family="sans" font-size="10.00" fill="#000000"> </text>
<text text-anchor="start" x="524" y="-1321.8" font-family="sans" font-weight="bold" font-size="14.00" fill="#000000">output →</text>
<text text-anchor="start" x="585" y="-1321.8" font-family="sans" font-size="10.00" fill="#000000"> </text>
<text text-anchor="start" x="36" y="-1302" font-family="monospace" font-size="10.00" fill="#000000">stats/aligns/samtools/stats/{sample}_{library}_{read_type_map,pe|se|singleton|collapsed}.txt</text>
<polygon fill="#d97257" stroke="#d97257" points="30,-1376 30,-1376 596,-1376 596,-1376 30,-1376"/>
<polygon fill="#d97257" stroke="#d97257" points="30,-1336 30,-1336 596,-1336 596,-1336 30,-1336"/>
<polygon fill="none" stroke="#d97257" stroke-width="2" points="29.5,-1293 29.5,-1405 594.5,-1405 594.5,-1293 29.5,-1293"/>
</g>
<!-- 3&#45;&gt;1 -->
<g id="edge7" class="edge">
<title>3&#45;&gt;1</title>
<path fill="none" stroke="#c0c0c0" stroke-width="2" d="M202.2911,-1291.7391C183.635,-1276.853 166.8181,-1258.9746 156,-1238 118.1063,-1164.53 121.0705,-1126.9247 156,-1052 199.5748,-958.5309 282.3147,-881.3876 362.2008,-823.9282"/>
<polygon fill="#c0c0c0" stroke="#c0c0c0" stroke-width="2" points="364.3025,-826.7284 370.4197,-818.0779 360.2432,-821.0256 364.3025,-826.7284"/>
</g>
<!-- 4 -->
<g id="node5" class="node">
<title>4</title>
<text text-anchor="start" x="676.5" y="-1847.6" font-family="sans" font-weight="bold" font-size="18.00" fill="#000000">align_merge</text>
<text text-anchor="start" x="474" y="-1823.8" font-family="sans" font-size="10.00" fill="#000000"> </text>
<text text-anchor="start" x="478" y="-1823.8" font-family="sans" font-weight="bold" font-size="14.00" fill="#000000">↪ input</text>
<text text-anchor="start" x="531" y="-1823.8" font-family="sans" font-size="10.00" fill="#000000"> </text>
<text text-anchor="start" x="474" y="-1804" font-family="monospace" font-size="10.00" fill="#000000">&lt;input function&gt;</text>
<text text-anchor="start" x="916" y="-1783.8" font-family="sans" font-size="10.00" fill="#000000"> </text>
<text text-anchor="start" x="920" y="-1783.8" font-family="sans" font-weight="bold" font-size="14.00" fill="#000000">output →</text>
<text text-anchor="start" x="981" y="-1783.8" font-family="sans" font-size="10.00" fill="#000000"> </text>
<text text-anchor="start" x="474" y="-1764" font-family="monospace" font-size="10.00" fill="#000000">results/aligns/merge/{sample}_{library}_{read_type_map,pe|se|singleton|collapsed}.bam</text>
<polygon fill="#d95757" stroke="#d95757" points="468,-1838 468,-1838 992,-1838 992,-1838 468,-1838"/>
<polygon fill="#d95757" stroke="#d95757" points="468,-1798 468,-1798 992,-1798 992,-1798 468,-1798"/>
<polygon fill="none" stroke="#d95757" stroke-width="2" points="467.5,-1755 467.5,-1867 990.5,-1867 990.5,-1755 467.5,-1755"/>
</g>
<!-- 4&#45;&gt;3 -->
<g id="edge10" class="edge">
<title>4&#45;&gt;3</title>
<path fill="none" stroke="#c0c0c0" stroke-width="2" d="M650.661,-1753.9258C636.6393,-1742.5652 622.5211,-1730.3226 610,-1718 510.9035,-1620.475 412.8911,-1491.0747 357.6419,-1414.2719"/>
<polygon fill="#c0c0c0" stroke="#c0c0c0" stroke-width="2" points="360.4466,-1412.177 351.7748,-1406.09 354.758,-1416.2562 360.4466,-1412.177"/>
</g>
<!-- 10 -->
<g id="node11" class="node">
<title>10</title>
<text text-anchor="start" x="359" y="-1208.6" font-family="sans" font-weight="bold" font-size="18.00" fill="#000000">align_unicorn_tidstats</text>
<text text-anchor="start" x="173" y="-1184.8" font-family="sans" font-size="10.00" fill="#000000"> </text>
<text text-anchor="start" x="177" y="-1184.8" font-family="sans" font-weight="bold" font-size="14.00" fill="#000000">↪ input</text>
<text text-anchor="start" x="230" y="-1184.8" font-family="sans" font-size="10.00" fill="#000000"> </text>
<text text-anchor="start" x="173" y="-1165" font-family="monospace" font-size="10.00" fill="#000000">data/taxdump/names.dmp</text>
<text text-anchor="start" x="173" y="-1147" font-family="monospace" font-size="10.00" fill="#000000">data/taxdump/nodes.dmp</text>
<text text-anchor="start" x="173" y="-1129" font-family="monospace" font-size="10.00" fill="#000000">data/test.acc2taxid.gz</text>
<text text-anchor="start" x="173" y="-1111" font-family="monospace" font-size="10.00" fill="#000000">results/aligns/merge/{sample}_{library}_{read_type_map}.bam</text>
<text text-anchor="start" x="669" y="-1090.8" font-family="sans" font-size="10.00" fill="#000000"> </text>
<text text-anchor="start" x="673" y="-1090.8" font-family="sans" font-weight="bold" font-size="14.00" fill="#000000">output →</text>
<text text-anchor="start" x="734" y="-1090.8" font-family="sans" font-size="10.00" fill="#000000"> </text>
<text text-anchor="start" x="173" y="-1071" font-family="monospace" font-size="10.00" fill="#000000">stats/shards/unicorn/tidstats/{sample}_{library}_{read_type_map,pe|se|singleton|collapsed}.tsv</text>
<polygon fill="#d98d57" stroke="#d98d57" points="167,-1199 167,-1199 745,-1199 745,-1199 167,-1199"/>
<polygon fill="#d98d57" stroke="#d98d57" points="167,-1105 167,-1105 745,-1105 745,-1105 167,-1105"/>
<polygon fill="none" stroke="#d98d57" stroke-width="2" points="166.5,-1062 166.5,-1228 743.5,-1228 743.5,-1062 166.5,-1062"/>
</g>
<!-- 4&#45;&gt;10 -->
<g id="edge18" class="edge">
<title>4&#45;&gt;10</title>
<path fill="none" stroke="#c0c0c0" stroke-width="2" d="M666.5741,-1753.8977C657.6338,-1742.8458 649.5881,-1730.7161 644,-1718 564.3033,-1536.6459 695.4316,-1450.247 605,-1274 598.1829,-1260.7138 589.355,-1248.2197 579.3958,-1236.6319"/>
<polygon fill="#c0c0c0" stroke="#c0c0c0" stroke-width="2" points="581.975,-1234.2655 572.6976,-1229.1488 576.7592,-1238.9342 581.975,-1234.2655"/>
</g>
<!-- 12 -->
<g id="node13" class="node">
<title>12</title>
<text text-anchor="start" x="876" y="-1697.6" font-family="sans" font-weight="bold" font-size="18.00" fill="#000000">metadmg_lca</text>
<text text-anchor="start" x="660" y="-1673.8" font-family="sans" font-size="10.00" fill="#000000"> </text>
<text text-anchor="start" x="664" y="-1673.8" font-family="sans" font-weight="bold" font-size="14.00" fill="#000000">↪ input</text>
<text text-anchor="start" x="717" y="-1673.8" font-family="sans" font-size="10.00" fill="#000000"> </text>
<text text-anchor="start" x="660" y="-1654" font-family="monospace" font-size="10.00" fill="#000000">&lt;function &lt;lambda&gt; at 0x7f230f18a200&gt;</text>
<text text-anchor="start" x="660" y="-1636" font-family="monospace" font-size="10.00" fill="#000000">data/taxdump/names.dmp</text>
<text text-anchor="start" x="660" y="-1618" font-family="monospace" font-size="10.00" fill="#000000">data/taxdump/nodes.dmp</text>
<text text-anchor="start" x="660" y="-1600" font-family="monospace" font-size="10.00" fill="#000000">data/test.acc2taxid.gz</text>
<text text-anchor="start" x="1138" y="-1579.8" font-family="sans" font-size="10.00" fill="#000000"> </text>
<text text-anchor="start" x="1142" y="-1579.8" font-family="sans" font-weight="bold" font-size="14.00" fill="#000000">output →</text>
<text text-anchor="start" x="1203" y="-1579.8" font-family="sans" font-size="10.00" fill="#000000"> </text>
<text text-anchor="start" x="660" y="-1560" font-family="monospace" font-size="10.00" fill="#000000">results/metadmg/lca/{sample}_{library}_{read_type_map,pe|se|singleton|collapsed}.bdamage.gz</text>
<text text-anchor="start" x="660" y="-1542" font-family="monospace" font-size="10.00" fill="#000000">results/metadmg/lca/{sample}_{library}_{read_type_map,pe|se|singleton|collapsed}.family.bam</text>
<text text-anchor="start" x="660" y="-1524" font-family="monospace" font-size="10.00" fill="#000000">results/metadmg/lca/{sample}_{library}_{read_type_map,pe|se|singleton|collapsed}.lca.gz</text>
<text text-anchor="start" x="660" y="-1506" font-family="monospace" font-size="10.00" fill="#000000">results/metadmg/lca/{sample}_{library}_{read_type_map,pe|se|singleton|collapsed}.used.bam</text>
<text text-anchor="start" x="660" y="-1488" font-family="monospace" font-size="10.00" fill="#000000">stats/metadmg/lca/{sample}_{library}_{read_type_map,pe|se|singleton|collapsed}.rlens.gz</text>
<text text-anchor="start" x="660" y="-1470" font-family="monospace" font-size="10.00" fill="#000000">stats/metadmg/lca/{sample}_{library}_{read_type_map,pe|se|singleton|collapsed}.stat.gz</text>
<polygon fill="#9bd957" stroke="#9bd957" points="654,-1688 654,-1688 1214,-1688 1214,-1688 654,-1688"/>
<polygon fill="#9bd957" stroke="#9bd957" points="654,-1594 654,-1594 1214,-1594 1214,-1594 654,-1594"/>
<polygon fill="none" stroke="#9bd957" stroke-width="2" points="653.5,-1461 653.5,-1717 1212.5,-1717 1212.5,-1461 653.5,-1461"/>
</g>
<!-- 4&#45;&gt;12 -->
<g id="edge20" class="edge">
<title>4&#45;&gt;12</title>
<path fill="none" stroke="#c0c0c0" stroke-width="2" d="M781.5351,-1753.8295C789.7195,-1744.9228 798.4647,-1735.4061 807.4685,-1725.6078"/>
<polygon fill="#c0c0c0" stroke="#c0c0c0" stroke-width="2" points="810.2101,-1727.797 814.3993,-1718.0655 805.0558,-1723.0606 810.2101,-1727.797"/>
</g>
<!-- 15 -->
<g id="node16" class="node">
<title>15</title>
<text text-anchor="start" x="1144" y="-761.6" font-family="sans" font-weight="bold" font-size="18.00" fill="#000000">metadmg_damage</text>
<text text-anchor="start" x="940" y="-737.8" font-family="sans" font-size="10.00" fill="#000000"> </text>
<text text-anchor="start" x="944" y="-737.8" font-family="sans" font-weight="bold" font-size="14.00" fill="#000000">↪ input</text>
<text text-anchor="start" x="997" y="-737.8" font-family="sans" font-size="10.00" fill="#000000"> </text>
<text text-anchor="start" x="940" y="-718" font-family="monospace" font-size="10.00" fill="#000000">&lt;function &lt;lambda&gt; at 0x7f230f18a020&gt;</text>
<text text-anchor="start" x="1436" y="-697.8" font-family="sans" font-size="10.00" fill="#000000"> </text>
<text text-anchor="start" x="1440" y="-697.8" font-family="sans" font-weight="bold" font-size="14.00" fill="#000000">output →</text>
<text text-anchor="start" x="1501" y="-697.8" font-family="sans" font-size="10.00" fill="#000000"> </text>
<text text-anchor="start" x="940" y="-678" font-family="monospace" font-size="10.00" fill="#000000">results/metadmg/damage/{sample}_{library}_{read_type_map,pe|se|singleton|collapsed}.bdamage.gz</text>
<text text-anchor="start" x="940" y="-660" font-family="monospace" font-size="10.00" fill="#000000">stats/metadmg/damage/{sample}_{library}_{read_type_map,pe|se|singleton|collapsed}.rlens.gz</text>
<text text-anchor="start" x="940" y="-642" font-family="monospace" font-size="10.00" fill="#000000">stats/metadmg/damage/{sample}_{library}_{read_type_map,pe|se|singleton|collapsed}.stat.gz</text>
<polygon fill="#d2d957" stroke="#d2d957" points="934,-752 934,-752 1512,-752 1512,-752 934,-752"/>
<polygon fill="#d2d957" stroke="#d2d957" points="934,-712 934,-712 1512,-712 1512,-712 934,-712"/>
<polygon fill="none" stroke="#d2d957" stroke-width="2" points="933.5,-633 933.5,-781 1510.5,-781 1510.5,-633 933.5,-633"/>
</g>
<!-- 4&#45;&gt;15 -->
<g id="edge24" class="edge">
<title>4&#45;&gt;15</title>
<path fill="none" stroke="#c0c0c0" stroke-width="2" d="M991.6027,-1785.4199C1089.8715,-1770.9985 1186.5492,-1749.3959 1223,-1718 1454.2196,-1518.8457 1458.5537,-1349.364 1390,-1052 1368.1577,-957.2553 1316.6167,-858.4073 1276.339,-790.9288"/>
<polygon fill="#c0c0c0" stroke="#c0c0c0" stroke-width="2" points="1279.1407,-788.7964 1270.9857,-782.0327 1273.1429,-792.4056 1279.1407,-788.7964"/>
</g>
<!-- 5 -->
<g id="node6" class="node">
<title>5</title>
<text text-anchor="start" x="653" y="-1997.6" font-family="sans" font-weight="bold" font-size="18.00" fill="#000000">shard_sort_query</text>
<text text-anchor="start" x="372" y="-1973.8" font-family="sans" font-size="10.00" fill="#000000"> </text>
<text text-anchor="start" x="376" y="-1973.8" font-family="sans" font-weight="bold" font-size="14.00" fill="#000000">↪ input</text>
<text text-anchor="start" x="429" y="-1973.8" font-family="sans" font-size="10.00" fill="#000000"> </text>
<text text-anchor="start" x="372" y="-1954" font-family="monospace" font-size="10.00" fill="#000000">temp/shards/unicorn/refstats/{sample}_{library}_{read_type_map}.{ref}.{n_shard}&#45;of&#45;{tot_shards}.bam</text>
<text text-anchor="start" x="1018" y="-1933.8" font-family="sans" font-size="10.00" fill="#000000"> </text>
<text text-anchor="start" x="1022" y="-1933.8" font-family="sans" font-weight="bold" font-size="14.00" fill="#000000">output →</text>
<text text-anchor="start" x="1083" y="-1933.8" font-family="sans" font-size="10.00" fill="#000000"> </text>
<text text-anchor="start" x="372" y="-1914" font-family="monospace" font-size="10.00" fill="#000000">temp/shards/sort_query/{sample}_{library}_{read_type_map,pe|se|singleton|collapsed}.{ref}.{n_shard}&#45;of&#45;{tot_shards}.bam</text>
<polygon fill="#578dd9" stroke="#578dd9" points="366,-1988 366,-1988 1094,-1988 1094,-1988 366,-1988"/>
<polygon fill="#578dd9" stroke="#578dd9" points="366,-1948 366,-1948 1094,-1948 1094,-1948 366,-1948"/>
<polygon fill="none" stroke="#578dd9" stroke-width="2" points="365.5,-1905 365.5,-2017 1092.5,-2017 1092.5,-1905 365.5,-1905"/>
</g>
<!-- 5&#45;&gt;4 -->
<g id="edge11" class="edge">
<title>5&#45;&gt;4</title>
<path fill="none" stroke="#c0c0c0" stroke-width="2" d="M729,-1903.8635C729,-1895.6231 729,-1887.0771 729,-1878.6558"/>
<polygon fill="#c0c0c0" stroke="#c0c0c0" stroke-width="2" points="732.5001,-1878.4745 729,-1868.4745 725.5001,-1878.4745 732.5001,-1878.4745"/>
</g>
<!-- 6 -->
<g id="node7" class="node">
<title>6</title>
<text text-anchor="start" x="630" y="-2165.6" font-family="sans" font-weight="bold" font-size="18.00" fill="#000000">shard_unicorn_refstats</text>
<text text-anchor="start" x="351" y="-2141.8" font-family="sans" font-size="10.00" fill="#000000"> </text>
<text text-anchor="start" x="355" y="-2141.8" font-family="sans" font-weight="bold" font-size="14.00" fill="#000000">↪ input</text>
<text text-anchor="start" x="408" y="-2141.8" font-family="sans" font-size="10.00" fill="#000000"> </text>
<text text-anchor="start" x="351" y="-2122" font-family="monospace" font-size="10.00" fill="#000000">temp/shards/saturated_reads/remove/{sample}_{library}_{read_type_map}.{ref}.{n_shard}&#45;of&#45;{tot_shards}.bam</text>
<text text-anchor="start" x="1039" y="-2101.8" font-family="sans" font-size="10.00" fill="#000000"> </text>
<text text-anchor="start" x="1043" y="-2101.8" font-family="sans" font-weight="bold" font-size="14.00" fill="#000000">output →</text>
<text text-anchor="start" x="1104" y="-2101.8" font-family="sans" font-size="10.00" fill="#000000"> </text>
<text text-anchor="start" x="351" y="-2082" font-family="monospace" font-size="10.00" fill="#000000">stats/shards/unicorn/refstats/{sample}_{library}_{read_type_map,pe|se|singleton|collapsed}.{ref}.{n_shard}&#45;of&#45;{tot_shards}.tsv</text>
<text text-anchor="start" x="351" y="-2064" font-family="monospace" font-size="10.00" fill="#000000">temp/shards/unicorn/refstats/{sample}_{library}_{read_type_map,pe|se|singleton|collapsed}.{ref}.{n_shard}&#45;of&#45;{tot_shards}.bam</text>
<polygon fill="#5772d9" stroke="#5772d9" points="345,-2156 345,-2156 1115,-2156 1115,-2156 345,-2156"/>
<polygon fill="#5772d9" stroke="#5772d9" points="345,-2116 345,-2116 1115,-2116 1115,-2116 345,-2116"/>
<polygon fill="none" stroke="#5772d9" stroke-width="2" points="344.5,-2055 344.5,-2185 1113.5,-2185 1113.5,-2055 344.5,-2055"/>
</g>
<!-- 6&#45;&gt;5 -->
<g id="edge12" class="edge">
<title>6&#45;&gt;5</title>
<path fill="none" stroke="#c0c0c0" stroke-width="2" d="M729,-2053.951C729,-2045.5194 729,-2036.8799 729,-2028.4269"/>
<polygon fill="#c0c0c0" stroke="#c0c0c0" stroke-width="2" points="732.5001,-2028.235 729,-2018.235 725.5001,-2028.2351 732.5001,-2028.235"/>
</g>
<!-- 7&#45;&gt;6 -->
<g id="edge13" class="edge">
<title>7&#45;&gt;6</title>
<path fill="none" stroke="#c0c0c0" stroke-width="2" d="M729,-2221.602C729,-2213.3209 729,-2204.801 729,-2196.3839"/>
<polygon fill="#c0c0c0" stroke="#c0c0c0" stroke-width="2" points="732.5001,-2196.1908 729,-2186.1908 725.5001,-2196.1908 732.5001,-2196.1908"/>
</g>
<!-- 8 -->
<g id="node9" class="node">
<title>8</title>
<text text-anchor="start" x="803" y="-2501.6" font-family="sans" font-weight="bold" font-size="18.00" fill="#000000">shard_saturated_reads_filter</text>
<text text-anchor="start" x="628" y="-2477.8" font-family="sans" font-size="10.00" fill="#000000"> </text>
<text text-anchor="start" x="632" y="-2477.8" font-family="sans" font-weight="bold" font-size="14.00" fill="#000000">↪ input</text>
<text text-anchor="start" x="685" y="-2477.8" font-family="sans" font-size="10.00" fill="#000000"> </text>
<text text-anchor="start" x="628" y="-2458" font-family="monospace" font-size="10.00" fill="#000000">temp/shards/count_alns/{sample}_{library}_collapsed.test.1&#45;of&#45;2.tsv</text>
<text text-anchor="start" x="628" y="-2440" font-family="monospace" font-size="10.00" fill="#000000">temp/shards/count_alns/{sample}_{library}_collapsed.test.2&#45;of&#45;2.tsv</text>
<text text-anchor="start" x="1154" y="-2419.8" font-family="sans" font-size="10.00" fill="#000000"> </text>
<text text-anchor="start" x="1158" y="-2419.8" font-family="sans" font-weight="bold" font-size="14.00" fill="#000000">output →</text>
<text text-anchor="start" x="1219" y="-2419.8" font-family="sans" font-size="10.00" fill="#000000"> </text>
<text text-anchor="start" x="628" y="-2400" font-family="monospace" font-size="10.00" fill="#000000">temp/shards/saturated_reads/filter/{sample}_{library}_{read_type_map,pe|se|singleton|collapsed}.tsv</text>
<polygon fill="#57c4d9" stroke="#57c4d9" points="622,-2492 622,-2492 1230,-2492 1230,-2492 622,-2492"/>
<polygon fill="#57c4d9" stroke="#57c4d9" points="622,-2434 622,-2434 1230,-2434 1230,-2434 622,-2434"/>
<polygon fill="none" stroke="#57c4d9" stroke-width="2" points="621.5,-2391 621.5,-2521 1228.5,-2521 1228.5,-2391 621.5,-2391"/>
</g>
<!-- 8&#45;&gt;7 -->
<g id="edge14" class="edge">
<title>8&#45;&gt;7</title>
<path fill="none" stroke="#c0c0c0" stroke-width="2" d="M847.817,-2389.8431C836.6759,-2380.2936 825.1586,-2370.4216 813.8775,-2360.7521"/>
<polygon fill="#c0c0c0" stroke="#c0c0c0" stroke-width="2" points="815.9831,-2357.9472 806.1127,-2354.0966 811.4275,-2363.262 815.9831,-2357.9472"/>
</g>
<!-- 14 -->
<g id="node15" class="node">
<title>14</title>
<text text-anchor="start" x="1305" y="-2165.6" font-family="sans" font-weight="bold" font-size="18.00" fill="#000000">shard_saturated_reads_extract</text>
<text text-anchor="start" x="1157" y="-2141.8" font-family="sans" font-size="10.00" fill="#000000"> </text>
<text text-anchor="start" x="1161" y="-2141.8" font-family="sans" font-weight="bold" font-size="14.00" fill="#000000">↪ input</text>
<text text-anchor="start" x="1214" y="-2141.8" font-family="sans" font-size="10.00" fill="#000000"> </text>
<text text-anchor="start" x="1157" y="-2122" font-family="monospace" font-size="10.00" fill="#000000">&lt;input function&gt;</text>
<text text-anchor="start" x="1157" y="-2104" font-family="monospace" font-size="10.00" fill="#000000">temp/shards/saturated_reads/filter/{sample}_{library}_{read_type_map}.tsv</text>
<text text-anchor="start" x="1647" y="-2083.8" font-family="sans" font-size="10.00" fill="#000000"> </text>
<text text-anchor="start" x="1651" y="-2083.8" font-family="sans" font-weight="bold" font-size="14.00" fill="#000000">output →</text>
<text text-anchor="start" x="1712" y="-2083.8" font-family="sans" font-size="10.00" fill="#000000"> </text>
<text text-anchor="start" x="1157" y="-2064" font-family="monospace" font-size="10.00" fill="#000000">results/reads/saturated/{sample}_{library}_{read_type_map,pe|se|singleton|collapsed}.fastq.gz</text>
<polygon fill="#57d9d2" stroke="#57d9d2" points="1151,-2156 1151,-2156 1723,-2156 1723,-2156 1151,-2156"/>
<polygon fill="#57d9d2" stroke="#57d9d2" points="1151,-2098 1151,-2098 1723,-2098 1723,-2098 1151,-2098"/>
<polygon fill="none" stroke="#57d9d2" stroke-width="2" points="1150.5,-2055 1150.5,-2185 1721.5,-2185 1721.5,-2055 1150.5,-2055"/>
</g>
<!-- 8&#45;&gt;14 -->
<g id="edge23" class="edge">
<title>8&#45;&gt;14</title>
<path fill="none" stroke="#c0c0c0" stroke-width="2" d="M1074.6374,-2389.9468C1096.6524,-2378.7262 1118.725,-2366.5999 1139,-2354 1216.1033,-2306.084 1296.5734,-2241.6516 1354.273,-2192.5297"/>
<polygon fill="#c0c0c0" stroke="#c0c0c0" stroke-width="2" points="1356.5756,-2195.1659 1361.9047,-2186.0088 1352.0283,-2189.844 1356.5756,-2195.1659"/>
</g>
<!-- 9&#45;&gt;8 -->
<g id="edge16" class="edge">
<title>9&#45;&gt;8</title>
<path fill="none" stroke="#c0c0c0" stroke-width="2" d="M925,-2557.5974C925,-2549.4394 925,-2540.9443 925,-2532.4945"/>
<polygon fill="#c0c0c0" stroke="#c0c0c0" stroke-width="2" points="928.5001,-2532.2358 925,-2522.2358 921.5001,-2532.2359 928.5001,-2532.2358"/>
</g>
<!-- 10&#45;&gt;1 -->
<g id="edge5" class="edge">
<title>10&#45;&gt;1</title>
<path fill="none" stroke="#c0c0c0" stroke-width="2" d="M476.5284,-1060.8085C479.3111,-1049.9261 482.2797,-1038.317 485.3819,-1026.1849"/>
<polygon fill="#c0c0c0" stroke="#c0c0c0" stroke-width="2" points="488.811,-1026.9024 487.8976,-1016.347 482.0292,-1025.1682 488.811,-1026.9024"/>
</g>
<!-- 11 -->
<g id="node12" class="node">
<title>11</title>
<text text-anchor="start" x="868.5" y="-1403.6" font-family="sans" font-weight="bold" font-size="18.00" fill="#000000">metadmg_dfit</text>
<text text-anchor="start" x="660" y="-1379.8" font-family="sans" font-size="10.00" fill="#000000"> </text>
<text text-anchor="start" x="664" y="-1379.8" font-family="sans" font-weight="bold" font-size="14.00" fill="#000000">↪ input</text>
<text text-anchor="start" x="717" y="-1379.8" font-family="sans" font-size="10.00" fill="#000000"> </text>
<text text-anchor="start" x="660" y="-1360" font-family="monospace" font-size="10.00" fill="#000000">data/taxdump/names.dmp</text>
<text text-anchor="start" x="660" y="-1342" font-family="monospace" font-size="10.00" fill="#000000">data/taxdump/nodes.dmp</text>
<text text-anchor="start" x="660" y="-1324" font-family="monospace" font-size="10.00" fill="#000000">results/metadmg/lca/{sample}_{library}_{read_type_map}.bdamage.gz</text>
<text text-anchor="start" x="1126" y="-1303.8" font-family="sans" font-size="10.00" fill="#000000"> </text>
<text text-anchor="start" x="1130" y="-1303.8" font-family="sans" font-weight="bold" font-size="14.00" fill="#000000">output →</text>
<text text-anchor="start" x="1191" y="-1303.8" font-family="sans" font-size="10.00" fill="#000000"> </text>
<text text-anchor="start" x="660" y="-1284" font-family="monospace" font-size="10.00" fill="#000000">results/metadmg/dfit/{sample}_{library}_{read_type_map,pe|se|singleton|collapsed}.dfit.gz</text>
<polygon fill="#b7d957" stroke="#b7d957" points="654,-1394 654,-1394 1202,-1394 1202,-1394 654,-1394"/>
<polygon fill="#b7d957" stroke="#b7d957" points="654,-1318 654,-1318 1202,-1318 1202,-1318 654,-1318"/>
<polygon fill="none" stroke="#b7d957" stroke-width="2" points="653.5,-1275 653.5,-1423 1200.5,-1423 1200.5,-1275 653.5,-1275"/>
</g>
<!-- 11&#45;&gt;1 -->
<g id="edge6" class="edge">
<title>11&#45;&gt;1</title>
<path fill="none" stroke="#c0c0c0" stroke-width="2" d="M821.1707,-1273.8382C810.4717,-1262.8061 800.7245,-1250.8037 793,-1238 749.3681,-1165.6779 783.0969,-1131.2943 754,-1052 750.8115,-1043.3106 747.4347,-1034.5719 743.8986,-1025.8135"/>
<polygon fill="#c0c0c0" stroke="#c0c0c0" stroke-width="2" points="747.0317,-1024.2288 740.0004,-1016.3034 740.5547,-1026.8837 747.0317,-1024.2288"/>
</g>
<!-- 13 -->
<g id="node14" class="node">
<title>13</title>
<text text-anchor="start" x="1004" y="-1217.6" font-family="sans" font-weight="bold" font-size="18.00" fill="#000000">metadmg_aggregate</text>
<text text-anchor="start" x="809" y="-1193.8" font-family="sans" font-size="10.00" fill="#000000"> </text>
<text text-anchor="start" x="813" y="-1193.8" font-family="sans" font-weight="bold" font-size="14.00" fill="#000000">↪ input</text>
<text text-anchor="start" x="866" y="-1193.8" font-family="sans" font-size="10.00" fill="#000000"> </text>
<text text-anchor="start" x="809" y="-1174" font-family="monospace" font-size="10.00" fill="#000000">data/taxdump/names.dmp</text>
<text text-anchor="start" x="809" y="-1156" font-family="monospace" font-size="10.00" fill="#000000">data/taxdump/nodes.dmp</text>
<text text-anchor="start" x="809" y="-1138" font-family="monospace" font-size="10.00" fill="#000000">results/metadmg/dfit/{sample}_{library}_{read_type_map}.dfit.gz</text>
<text text-anchor="start" x="809" y="-1120" font-family="monospace" font-size="10.00" fill="#000000">results/metadmg/lca/{sample}_{library}_{read_type_map}.bdamage.gz</text>
<text text-anchor="start" x="809" y="-1102" font-family="monospace" font-size="10.00" fill="#000000">stats/metadmg/lca/{sample}_{library}_{read_type_map}.stat.gz</text>
<text text-anchor="start" x="1305" y="-1081.8" font-family="sans" font-size="10.00" fill="#000000"> </text>
<text text-anchor="start" x="1309" y="-1081.8" font-family="sans" font-weight="bold" font-size="14.00" fill="#000000">output →</text>
<text text-anchor="start" x="1370" y="-1081.8" font-family="sans" font-size="10.00" fill="#000000"> </text>
<text text-anchor="start" x="809" y="-1062" font-family="monospace" font-size="10.00" fill="#000000">results/metadmg/aggregate/{sample}_{library}_{read_type_map,pe|se|singleton|collapsed}.stat.gz</text>
<polygon fill="#d9c457" stroke="#d9c457" points="803,-1208 803,-1208 1381,-1208 1381,-1208 803,-1208"/>
<polygon fill="#d9c457" stroke="#d9c457" points="803,-1096 803,-1096 1381,-1096 1381,-1096 803,-1096"/>
<polygon fill="none" stroke="#d9c457" stroke-width="2" points="802.5,-1053 802.5,-1237 1379.5,-1237 1379.5,-1053 802.5,-1053"/>
</g>
<!-- 11&#45;&gt;13 -->
<g id="edge22" class="edge">
<title>11&#45;&gt;13</title>
<path fill="none" stroke="#c0c0c0" stroke-width="2" d="M987.3689,-1273.907C994.6468,-1264.8539 1002.1697,-1255.4963 1009.6848,-1246.1481"/>
<polygon fill="#c0c0c0" stroke="#c0c0c0" stroke-width="2" points="1012.4524,-1248.2916 1015.9902,-1238.3049 1006.9968,-1243.9057 1012.4524,-1248.2916"/>
</g>
<!-- 12&#45;&gt;11 -->
<g id="edge19" class="edge">
<title>12&#45;&gt;11</title>
<path fill="none" stroke="#c0c0c0" stroke-width="2" d="M929.7717,-1459.8672C929.5548,-1451.1906 929.3395,-1442.578 929.1303,-1434.2124"/>
<polygon fill="#c0c0c0" stroke="#c0c0c0" stroke-width="2" points="932.6275,-1434.0522 928.8786,-1424.1429 925.6297,-1434.2272 932.6275,-1434.0522"/>
</g>
<!-- 12&#45;&gt;13 -->
<g id="edge21" class="edge">
<title>12&#45;&gt;13</title>
<path fill="none" stroke="#c0c0c0" stroke-width="2" d="M1185.2171,-1459.7849C1194.9931,-1448.7154 1203.7106,-1436.8031 1211,-1424 1243.985,-1366.0653 1235.3955,-1336.0428 1211,-1274 1207.2678,-1264.5083 1202.4721,-1255.3008 1196.9532,-1246.4643"/>
<polygon fill="#c0c0c0" stroke="#c0c0c0" stroke-width="2" points="1199.8741,-1244.536 1191.4514,-1238.1088 1194.0277,-1248.3857 1199.8741,-1244.536"/>
</g>
<!-- 13&#45;&gt;0 -->
<g id="edge4" class="edge">
<title>13&#45;&gt;0</title>
<path fill="none" stroke="#c0c0c0" stroke-width="2" d="M948.0239,-1051.7137C938.5542,-1040.7356 930.2987,-1028.8246 924,-1016 802.9148,-769.4637 846.8142,-661.5984 924,-398 926.5852,-389.1711 929.652,-380.3605 933.1061,-371.6222"/>
<polygon fill="#c0c0c0" stroke="#c0c0c0" stroke-width="2" points="936.4267,-372.7504 937.0019,-362.1712 929.955,-370.0827 936.4267,-372.7504"/>
</g>
<!-- 13&#45;&gt;1 -->
<g id="edge8" class="edge">
<title>13&#45;&gt;1</title>
<path fill="none" stroke="#c0c0c0" stroke-width="2" d="M938.9881,-1051.9196C922.128,-1040.2861 905.4755,-1028.183 890,-1016 850.1272,-984.6103 809.5497,-949.0955 771.229,-913.6112"/>
<polygon fill="#c0c0c0" stroke="#c0c0c0" stroke-width="2" points="773.3032,-910.7607 763.5958,-906.5159 768.5374,-915.8878 773.3032,-910.7607"/>
</g>
<!-- 14&#45;&gt;0 -->
<g id="edge3" class="edge">
<title>14&#45;&gt;0</title>
<path fill="none" stroke="#c0c0c0" stroke-width="2" d="M1472.2282,-2053.7389C1502.2425,-1992.588 1540,-1898.3098 1540,-1811 1540,-1811 1540,-1811 1540,-1145 1540,-812.8926 1702.1349,-676.3621 1521,-398 1463.1212,-309.0538 1358.1217,-255.7522 1263.2477,-224.2513"/>
<polygon fill="#c0c0c0" stroke="#c0c0c0" stroke-width="2" points="1264.1032,-220.8491 1253.5109,-221.0824 1261.9367,-227.5054 1264.1032,-220.8491"/>
</g>
<!-- 15&#45;&gt;0 -->
<g id="edge2" class="edge">
<title>15&#45;&gt;0</title>
<path fill="none" stroke="#c0c0c0" stroke-width="2" d="M1199.3037,-631.9165C1178.8761,-564.3386 1147.9747,-462.1114 1120.7568,-372.0695"/>
<polygon fill="#c0c0c0" stroke="#c0c0c0" stroke-width="2" points="1124.0407,-370.8372 1117.7969,-362.2777 1117.3402,-372.8627 1124.0407,-370.8372"/>
</g>
</g>
</svg>
