<?xml version="1.0" encoding="UTF-8" standalone="no"?>
<!DOCTYPE svg PUBLIC "-//W3C//DTD SVG 1.1//EN"
 "http://www.w3.org/Graphics/SVG/1.1/DTD/svg11.dtd">
<!-- Generated by graphviz version 2.40.1 (0)
 -->
<!-- Title: snakemake_dag Pages: 1 -->
<svg width="2068pt" height="2206pt"
 viewBox="0.00 0.00 2068.00 2206.00" xmlns="http://www.w3.org/2000/svg" xmlns:xlink="http://www.w3.org/1999/xlink">
<g id="graph0" class="graph" transform="scale(1 1) rotate(0) translate(4 2202)">
<title>snakemake_dag</title>
<polygon fill="#ffffff" stroke="transparent" points="-4,4 -4,-2202 2064,-2202 2064,4 -4,4"/>
<!-- 0 -->
<g id="node1" class="node">
<title>0</title>
<text text-anchor="start" x="1079.5" y="-179.6" font-family="sans" font-weight="bold" font-size="18.00" fill="#000000">all</text>
<text text-anchor="start" x="912.5" y="-155.8" font-family="sans" font-size="10.00" fill="#000000"> </text>
<text text-anchor="start" x="916.5" y="-155.8" font-family="sans" font-weight="bold" font-size="14.00" fill="#000000">↪ input</text>
<text text-anchor="start" x="969.5" y="-155.8" font-family="sans" font-size="10.00" fill="#000000"> </text>
<text text-anchor="start" x="912.5" y="-136" font-family="monospace" font-size="10.00" fill="#000000">reports/multiqc.html</text>
<text text-anchor="start" x="912.5" y="-118" font-family="monospace" font-size="10.00" fill="#000000">stats/metadmg/aggregate/HD827sonic_1_lib1_collapsed.stat.gz</text>
<text text-anchor="start" x="912.5" y="-100" font-family="monospace" font-size="10.00" fill="#000000">stats/metadmg/aggregate/HD827sonic_2_lib1_collapsed.stat.gz</text>
<text text-anchor="start" x="912.5" y="-82" font-family="monospace" font-size="10.00" fill="#000000">stats/metadmg/aggregate/HD827sonic_2_lib2_collapsed.stat.gz</text>
<text text-anchor="start" x="912.5" y="-64" font-family="monospace" font-size="10.00" fill="#000000">stats/metadmg/damage/HD827sonic_1_lib1_collapsed.stat.gz</text>
<text text-anchor="start" x="912.5" y="-46" font-family="monospace" font-size="10.00" fill="#000000">stats/metadmg/damage/HD827sonic_2_lib1_collapsed.stat.gz</text>
<text text-anchor="start" x="912.5" y="-28" font-family="monospace" font-size="10.00" fill="#000000">stats/metadmg/damage/HD827sonic_2_lib2_collapsed.stat.gz</text>
<text text-anchor="start" x="1260.5" y="-10" font-family="sans" font-size="10.00" fill="#000000"> &#160;</text>
<polygon fill="#576fd9" stroke="#576fd9" points="906.5,-170 906.5,-170 1274.5,-170 1274.5,-170 906.5,-170"/>
<polygon fill="#576fd9" stroke="#576fd9" points="906.5,-22 906.5,-22 1274.5,-22 1274.5,-22 906.5,-22"/>
<polygon fill="none" stroke="#576fd9" stroke-width="2" points="906,-1 906,-199 1273,-199 1273,-1 906,-1"/>
</g>
<!-- 1 -->
<g id="node2" class="node">
<title>1</title>
<text text-anchor="start" x="715.5" y="-707.6" font-family="sans" font-weight="bold" font-size="18.00" fill="#000000">multiqc</text>
<text text-anchor="start" x="513.5" y="-683.8" font-family="sans" font-size="10.00" fill="#000000"> </text>
<text text-anchor="start" x="517.5" y="-683.8" font-family="sans" font-weight="bold" font-size="14.00" fill="#000000">↪ input</text>
<text text-anchor="start" x="570.5" y="-683.8" font-family="sans" font-size="10.00" fill="#000000"> </text>
<text text-anchor="start" x="513.5" y="-664" font-family="monospace" font-size="10.00" fill="#000000">logs/align/bowtie2/HD827sonic_1_lib1_collapsed.refseq_invertebrate.1&#45;of&#45;3.log</text>
<text text-anchor="start" x="513.5" y="-646" font-family="monospace" font-size="10.00" fill="#000000">logs/align/bowtie2/HD827sonic_1_lib1_collapsed.refseq_invertebrate.2&#45;of&#45;3.log</text>
<text text-anchor="start" x="513.5" y="-628" font-family="monospace" font-size="10.00" fill="#000000">logs/align/bowtie2/HD827sonic_1_lib1_collapsed.refseq_invertebrate.3&#45;of&#45;3.log</text>
<text text-anchor="start" x="513.5" y="-610" font-family="monospace" font-size="10.00" fill="#000000">logs/align/bowtie2/HD827sonic_1_lib1_collapsed.refseq_mitochondrion.1&#45;of&#45;1.log</text>
<text text-anchor="start" x="513.5" y="-592" font-family="monospace" font-size="10.00" fill="#000000">logs/align/bowtie2/HD827sonic_2_lib1_collapsed.refseq_invertebrate.1&#45;of&#45;3.log</text>
<text text-anchor="start" x="513.5" y="-574" font-family="monospace" font-size="10.00" fill="#000000">logs/align/bowtie2/HD827sonic_2_lib1_collapsed.refseq_invertebrate.2&#45;of&#45;3.log</text>
<text text-anchor="start" x="513.5" y="-556" font-family="monospace" font-size="10.00" fill="#000000">logs/align/bowtie2/HD827sonic_2_lib1_collapsed.refseq_invertebrate.3&#45;of&#45;3.log</text>
<text text-anchor="start" x="513.5" y="-538" font-family="monospace" font-size="10.00" fill="#000000">logs/align/bowtie2/HD827sonic_2_lib1_collapsed.refseq_mitochondrion.1&#45;of&#45;1.log</text>
<text text-anchor="start" x="513.5" y="-520" font-family="monospace" font-size="10.00" fill="#000000">logs/align/bowtie2/HD827sonic_2_lib2_collapsed.refseq_invertebrate.1&#45;of&#45;3.log</text>
<text text-anchor="start" x="513.5" y="-502" font-family="monospace" font-size="10.00" fill="#000000">logs/align/bowtie2/HD827sonic_2_lib2_collapsed.refseq_invertebrate.2&#45;of&#45;3.log</text>
<text text-anchor="start" x="513.5" y="-484" font-family="monospace" font-size="10.00" fill="#000000">logs/align/bowtie2/HD827sonic_2_lib2_collapsed.refseq_invertebrate.3&#45;of&#45;3.log</text>
<text text-anchor="start" x="513.5" y="-466" font-family="monospace" font-size="10.00" fill="#000000">logs/align/bowtie2/HD827sonic_2_lib2_collapsed.refseq_mitochondrion.1&#45;of&#45;1.log</text>
<text text-anchor="start" x="513.5" y="-448" font-family="monospace" font-size="10.00" fill="#000000">results/metadmg/dfit/HD827sonic_1_lib1_collapsed.dfit.gz</text>
<text text-anchor="start" x="513.5" y="-430" font-family="monospace" font-size="10.00" fill="#000000">results/metadmg/dfit/HD827sonic_2_lib1_collapsed.dfit.gz</text>
<text text-anchor="start" x="513.5" y="-412" font-family="monospace" font-size="10.00" fill="#000000">results/metadmg/dfit/HD827sonic_2_lib2_collapsed.dfit.gz</text>
<text text-anchor="start" x="513.5" y="-394" font-family="monospace" font-size="10.00" fill="#000000">stats/align/samtools_stats/HD827sonic_1_lib1_collapsed.txt</text>
<text text-anchor="start" x="513.5" y="-376" font-family="monospace" font-size="10.00" fill="#000000">stats/align/samtools_stats/HD827sonic_2_lib1_collapsed.txt</text>
<text text-anchor="start" x="513.5" y="-358" font-family="monospace" font-size="10.00" fill="#000000">stats/align/samtools_stats/HD827sonic_2_lib2_collapsed.txt</text>
<text text-anchor="start" x="513.5" y="-340" font-family="monospace" font-size="10.00" fill="#000000">stats/metadmg/aggregate/HD827sonic_1_lib1_collapsed.stat.gz</text>
<text text-anchor="start" x="513.5" y="-322" font-family="monospace" font-size="10.00" fill="#000000">stats/metadmg/aggregate/HD827sonic_2_lib1_collapsed.stat.gz</text>
<text text-anchor="start" x="513.5" y="-304" font-family="monospace" font-size="10.00" fill="#000000">stats/metadmg/aggregate/HD827sonic_2_lib2_collapsed.stat.gz</text>
<text text-anchor="start" x="913.5" y="-283.8" font-family="sans" font-size="10.00" fill="#000000"> </text>
<text text-anchor="start" x="917.5" y="-283.8" font-family="sans" font-weight="bold" font-size="14.00" fill="#000000">output →</text>
<text text-anchor="start" x="978.5" y="-283.8" font-family="sans" font-size="10.00" fill="#000000"> </text>
<text text-anchor="start" x="513.5" y="-264" font-family="monospace" font-size="10.00" fill="#000000">reports/multiqc.html</text>
<text text-anchor="start" x="513.5" y="-246" font-family="monospace" font-size="10.00" fill="#000000">reports/multiqc_data.zip</text>
<polygon fill="#57d9ad" stroke="#57d9ad" points="507.5,-698 507.5,-698 989.5,-698 989.5,-698 507.5,-698"/>
<polygon fill="#57d9ad" stroke="#57d9ad" points="507.5,-298 507.5,-298 989.5,-298 989.5,-298 507.5,-298"/>
<polygon fill="none" stroke="#57d9ad" stroke-width="2" points="507,-237 507,-727 988,-727 988,-237 507,-237"/>
</g>
<!-- 1&#45;&gt;0 -->
<g id="edge3" class="edge">
<title>1&#45;&gt;0</title>
<path fill="none" stroke="#c0c0c0" stroke-width="2" d="M967.9606,-235.7545C976.5437,-226.1676 984.9448,-216.7839 993.0669,-207.7119"/>
<polygon fill="#c0c0c0" stroke="#c0c0c0" stroke-width="2" points="995.759,-209.9521 999.8216,-200.1671 990.5437,-205.2829 995.759,-209.9521"/>
</g>
<!-- 2 -->
<g id="node3" class="node">
<title>2</title>
<text text-anchor="start" x="348.5" y="-2177.6" font-family="sans" font-weight="bold" font-size="18.00" fill="#000000">bowtie2</text>
<text text-anchor="start" x="7.5" y="-2153.8" font-family="sans" font-size="10.00" fill="#000000"> </text>
<text text-anchor="start" x="11.5" y="-2153.8" font-family="sans" font-weight="bold" font-size="14.00" fill="#000000">↪ input</text>
<text text-anchor="start" x="64.5" y="-2153.8" font-family="sans" font-size="10.00" fill="#000000"> </text>
<text text-anchor="start" x="7.5" y="-2134" font-family="monospace" font-size="10.00" fill="#000000">&lt;input function&gt;</text>
<text text-anchor="start" x="7.5" y="-2116" font-family="monospace" font-size="10.00" fill="#000000">&lt;input function&gt;</text>
<text text-anchor="start" x="689.5" y="-2095.8" font-family="sans" font-size="10.00" fill="#000000"> </text>
<text text-anchor="start" x="693.5" y="-2095.8" font-family="sans" font-weight="bold" font-size="14.00" fill="#000000">output →</text>
<text text-anchor="start" x="754.5" y="-2095.8" font-family="sans" font-size="10.00" fill="#000000"> </text>
<text text-anchor="start" x="7.5" y="-2076" font-family="monospace" font-size="10.00" fill="#000000">temp/align/bowtie2/{sample,HD827sonic_1|HD827sonic_2}_{library,lib1|lib2}_{read_type_map}.{ref}.{n_chunk}&#45;of&#45;{tot_chunks}.bam</text>
<polygon fill="#63d957" stroke="#63d957" points="1.5,-2168 1.5,-2168 765.5,-2168 765.5,-2168 1.5,-2168"/>
<polygon fill="#63d957" stroke="#63d957" points="1.5,-2110 1.5,-2110 765.5,-2110 765.5,-2110 1.5,-2110"/>
<polygon fill="none" stroke="#63d957" stroke-width="2" points="1,-2067 1,-2197 764,-2197 764,-2067 1,-2067"/>
</g>
<!-- 2&#45;&gt;1 -->
<g id="edge5" class="edge">
<title>2&#45;&gt;1</title>
<path fill="none" stroke="#c0c0c0" stroke-width="2" d="M225.0017,-2065.905C212.139,-2055.4896 200.6101,-2043.5798 191.5,-2030 137.741,-1949.8653 169.5,-1910.4967 169.5,-1814 169.5,-1814 169.5,-1814 169.5,-1070 169.5,-870.5052 340.7998,-713.9551 496.8897,-612.7154"/>
<polygon fill="#c0c0c0" stroke="#c0c0c0" stroke-width="2" points="499.2077,-615.3861 505.725,-607.0329 495.4211,-609.4986 499.2077,-615.3861"/>
</g>
<!-- 6 -->
<g id="node7" class="node">
<title>6</title>
<text text-anchor="start" x="541.5" y="-2009.6" font-family="sans" font-weight="bold" font-size="18.00" fill="#000000">clean_header</text>
<text text-anchor="start" x="208.5" y="-1985.8" font-family="sans" font-size="10.00" fill="#000000"> </text>
<text text-anchor="start" x="212.5" y="-1985.8" font-family="sans" font-weight="bold" font-size="14.00" fill="#000000">↪ input</text>
<text text-anchor="start" x="265.5" y="-1985.8" font-family="sans" font-size="10.00" fill="#000000"> </text>
<text text-anchor="start" x="208.5" y="-1966" font-family="monospace" font-size="10.00" fill="#000000">temp/align/bowtie2/{sample}_{library}_{read_type_map}.{ref}.{n_chunk}&#45;of&#45;{tot_chunks}.bam</text>
<text text-anchor="start" x="920.5" y="-1945.8" font-family="sans" font-size="10.00" fill="#000000"> </text>
<text text-anchor="start" x="924.5" y="-1945.8" font-family="sans" font-weight="bold" font-size="14.00" fill="#000000">output →</text>
<text text-anchor="start" x="985.5" y="-1945.8" font-family="sans" font-size="10.00" fill="#000000"> </text>
<text text-anchor="start" x="208.5" y="-1926" font-family="monospace" font-size="10.00" fill="#000000">temp/align/clean_header/{sample,HD827sonic_1|HD827sonic_2}_{library,lib1|lib2}_{read_type_map}.{ref}.{n_chunk}&#45;of&#45;{tot_chunks}.bam</text>
<polygon fill="#57d963" stroke="#57d963" points="202.5,-2000 202.5,-2000 996.5,-2000 996.5,-2000 202.5,-2000"/>
<polygon fill="#57d963" stroke="#57d963" points="202.5,-1960 202.5,-1960 996.5,-1960 996.5,-1960 202.5,-1960"/>
<polygon fill="none" stroke="#57d963" stroke-width="2" points="202,-1917 202,-2029 995,-2029 995,-1917 202,-1917"/>
</g>
<!-- 2&#45;&gt;6 -->
<g id="edge11" class="edge">
<title>2&#45;&gt;6</title>
<path fill="none" stroke="#c0c0c0" stroke-width="2" d="M472.2269,-2065.951C485.5692,-2056.1296 499.2947,-2046.0261 512.5567,-2036.2638"/>
<polygon fill="#c0c0c0" stroke="#c0c0c0" stroke-width="2" points="514.7682,-2038.9819 520.7467,-2030.235 510.6185,-2033.3446 514.7682,-2038.9819"/>
</g>
<!-- 3 -->
<g id="node4" class="node">
<title>3</title>
<text text-anchor="start" x="444" y="-1106.6" font-family="sans" font-weight="bold" font-size="18.00" fill="#000000">samtools_stats</text>
<text text-anchor="start" x="205.5" y="-1082.8" font-family="sans" font-size="10.00" fill="#000000"> </text>
<text text-anchor="start" x="209.5" y="-1082.8" font-family="sans" font-weight="bold" font-size="14.00" fill="#000000">↪ input</text>
<text text-anchor="start" x="262.5" y="-1082.8" font-family="sans" font-size="10.00" fill="#000000"> </text>
<text text-anchor="start" x="205.5" y="-1063" font-family="monospace" font-size="10.00" fill="#000000">temp/align/merge_alns/{sample}_{library}_{read_type_map}.bam</text>
<text text-anchor="start" x="743.5" y="-1042.8" font-family="sans" font-size="10.00" fill="#000000"> </text>
<text text-anchor="start" x="747.5" y="-1042.8" font-family="sans" font-weight="bold" font-size="14.00" fill="#000000">output →</text>
<text text-anchor="start" x="808.5" y="-1042.8" font-family="sans" font-size="10.00" fill="#000000"> </text>
<text text-anchor="start" x="205.5" y="-1023" font-family="monospace" font-size="10.00" fill="#000000">stats/align/samtools_stats/{sample,HD827sonic_1|HD827sonic_2}_{library,lib1|lib2}_{read_type_map}.txt</text>
<polygon fill="#95d957" stroke="#95d957" points="199.5,-1097 199.5,-1097 819.5,-1097 819.5,-1097 199.5,-1097"/>
<polygon fill="#95d957" stroke="#95d957" points="199.5,-1057 199.5,-1057 819.5,-1057 819.5,-1057 199.5,-1057"/>
<polygon fill="none" stroke="#95d957" stroke-width="2" points="199,-1014 199,-1126 818,-1126 818,-1014 199,-1014"/>
</g>
<!-- 3&#45;&gt;1 -->
<g id="edge7" class="edge">
<title>3&#45;&gt;1</title>
<path fill="none" stroke="#c0c0c0" stroke-width="2" d="M531.7424,-1012.8179C557.8201,-948.6602 601.9285,-840.1425 643.4933,-737.8825"/>
<polygon fill="#c0c0c0" stroke="#c0c0c0" stroke-width="2" points="646.8549,-738.907 647.3781,-728.3251 640.3701,-736.2712 646.8549,-738.907"/>
</g>
<!-- 4 -->
<g id="node5" class="node">
<title>4</title>
<text text-anchor="start" x="552" y="-1691.6" font-family="sans" font-weight="bold" font-size="18.00" fill="#000000">merge_alns</text>
<text text-anchor="start" x="313.5" y="-1667.8" font-family="sans" font-size="10.00" fill="#000000"> </text>
<text text-anchor="start" x="317.5" y="-1667.8" font-family="sans" font-weight="bold" font-size="14.00" fill="#000000">↪ input</text>
<text text-anchor="start" x="370.5" y="-1667.8" font-family="sans" font-size="10.00" fill="#000000"> </text>
<text text-anchor="start" x="313.5" y="-1648" font-family="monospace" font-size="10.00" fill="#000000">&lt;input function&gt;</text>
<text text-anchor="start" x="821.5" y="-1627.8" font-family="sans" font-size="10.00" fill="#000000"> </text>
<text text-anchor="start" x="825.5" y="-1627.8" font-family="sans" font-weight="bold" font-size="14.00" fill="#000000">output →</text>
<text text-anchor="start" x="886.5" y="-1627.8" font-family="sans" font-size="10.00" fill="#000000"> </text>
<text text-anchor="start" x="313.5" y="-1608" font-family="monospace" font-size="10.00" fill="#000000">temp/align/merge_alns/{sample,HD827sonic_1|HD827sonic_2}_{library,lib1|lib2}_{read_type_map}.bam</text>
<polygon fill="#c6d957" stroke="#c6d957" points="307.5,-1682 307.5,-1682 897.5,-1682 897.5,-1682 307.5,-1682"/>
<polygon fill="#c6d957" stroke="#c6d957" points="307.5,-1642 307.5,-1642 897.5,-1642 897.5,-1642 307.5,-1642"/>
<polygon fill="none" stroke="#c6d957" stroke-width="2" points="307,-1599 307,-1711 896,-1711 896,-1599 307,-1599"/>
</g>
<!-- 4&#45;&gt;3 -->
<g id="edge8" class="edge">
<title>4&#45;&gt;3</title>
<path fill="none" stroke="#c0c0c0" stroke-width="2" d="M592.4134,-1597.8426C575.1549,-1489.2807 537.711,-1253.7469 519.2427,-1137.575"/>
<polygon fill="#c0c0c0" stroke="#c0c0c0" stroke-width="2" points="522.6501,-1136.7159 517.6234,-1127.3894 515.737,-1137.8149 522.6501,-1136.7159"/>
</g>
<!-- 9 -->
<g id="node10" class="node">
<title>9</title>
<text text-anchor="start" x="1163" y="-1541.6" font-family="sans" font-weight="bold" font-size="18.00" fill="#000000">sort_merged_name</text>
<text text-anchor="start" x="930.5" y="-1517.8" font-family="sans" font-size="10.00" fill="#000000"> </text>
<text text-anchor="start" x="934.5" y="-1517.8" font-family="sans" font-weight="bold" font-size="14.00" fill="#000000">↪ input</text>
<text text-anchor="start" x="987.5" y="-1517.8" font-family="sans" font-size="10.00" fill="#000000"> </text>
<text text-anchor="start" x="930.5" y="-1498" font-family="monospace" font-size="10.00" fill="#000000">&lt;function &lt;lambda&gt; at 0x7f1572b1c2c0&gt;</text>
<text text-anchor="start" x="1492.5" y="-1477.8" font-family="sans" font-size="10.00" fill="#000000"> </text>
<text text-anchor="start" x="1496.5" y="-1477.8" font-family="sans" font-weight="bold" font-size="14.00" fill="#000000">output →</text>
<text text-anchor="start" x="1557.5" y="-1477.8" font-family="sans" font-size="10.00" fill="#000000"> </text>
<text text-anchor="start" x="930.5" y="-1458" font-family="monospace" font-size="10.00" fill="#000000">results/align/sort_merged_name/{sample,HD827sonic_1|HD827sonic_2}_{library,lib1|lib2}_{read_type_map}.bam</text>
<polygon fill="#57d97c" stroke="#57d97c" points="924.5,-1532 924.5,-1532 1568.5,-1532 1568.5,-1532 924.5,-1532"/>
<polygon fill="#57d97c" stroke="#57d97c" points="924.5,-1492 924.5,-1492 1568.5,-1492 1568.5,-1492 924.5,-1492"/>
<polygon fill="none" stroke="#57d97c" stroke-width="2" points="924,-1449 924,-1561 1567,-1561 1567,-1449 924,-1449"/>
</g>
<!-- 4&#45;&gt;9 -->
<g id="edge14" class="edge">
<title>4&#45;&gt;9</title>
<path fill="none" stroke="#c0c0c0" stroke-width="2" d="M846.3464,-1597.9706C893.5926,-1586.966 943.1935,-1575.413 990.7464,-1564.337"/>
<polygon fill="#c0c0c0" stroke="#c0c0c0" stroke-width="2" points="991.5988,-1567.7322 1000.5441,-1562.0549 990.0108,-1560.9147 991.5988,-1567.7322"/>
</g>
<!-- 5 -->
<g id="node6" class="node">
<title>5</title>
<text text-anchor="start" x="554.5" y="-1859.6" font-family="sans" font-weight="bold" font-size="18.00" fill="#000000">sort_coord</text>
<text text-anchor="start" x="205.5" y="-1835.8" font-family="sans" font-size="10.00" fill="#000000"> </text>
<text text-anchor="start" x="209.5" y="-1835.8" font-family="sans" font-weight="bold" font-size="14.00" fill="#000000">↪ input</text>
<text text-anchor="start" x="262.5" y="-1835.8" font-family="sans" font-size="10.00" fill="#000000"> </text>
<text text-anchor="start" x="205.5" y="-1816" font-family="monospace" font-size="10.00" fill="#000000">temp/align/clean_header/{sample}_{library}_{read_type_map}.{ref}.{n_chunk}&#45;of&#45;{tot_chunks}.bam</text>
<text text-anchor="start" x="929.5" y="-1795.8" font-family="sans" font-size="10.00" fill="#000000"> </text>
<text text-anchor="start" x="933.5" y="-1795.8" font-family="sans" font-weight="bold" font-size="14.00" fill="#000000">output →</text>
<text text-anchor="start" x="994.5" y="-1795.8" font-family="sans" font-size="10.00" fill="#000000"> </text>
<text text-anchor="start" x="205.5" y="-1776" font-family="monospace" font-size="10.00" fill="#000000">temp/align/sort_coord/{sample,HD827sonic_1|HD827sonic_2}_{library,lib1|lib2}_{read_type_map}.{ref}.{n_chunk}&#45;of&#45;{tot_chunks}.bam</text>
<text text-anchor="start" x="205.5" y="-1758" font-family="monospace" font-size="10.00" fill="#000000">temp/align/sort_coord/{sample,HD827sonic_1|HD827sonic_2}_{library,lib1|lib2}_{read_type_map}.{ref}.{n_chunk}&#45;of&#45;{tot_chunks}.bam.csi</text>
<polygon fill="#57d995" stroke="#57d995" points="199.5,-1850 199.5,-1850 1005.5,-1850 1005.5,-1850 199.5,-1850"/>
<polygon fill="#57d995" stroke="#57d995" points="199.5,-1810 199.5,-1810 1005.5,-1810 1005.5,-1810 199.5,-1810"/>
<polygon fill="none" stroke="#57d995" stroke-width="2" points="199,-1749 199,-1879 1004,-1879 1004,-1749 199,-1749"/>
</g>
<!-- 5&#45;&gt;4 -->
<g id="edge9" class="edge">
<title>5&#45;&gt;4</title>
<path fill="none" stroke="#c0c0c0" stroke-width="2" d="M601.5,-1747.951C601.5,-1739.5194 601.5,-1730.8799 601.5,-1722.4269"/>
<polygon fill="#c0c0c0" stroke="#c0c0c0" stroke-width="2" points="605.0001,-1722.235 601.5,-1712.235 598.0001,-1722.2351 605.0001,-1722.235"/>
</g>
<!-- 6&#45;&gt;5 -->
<g id="edge10" class="edge">
<title>6&#45;&gt;5</title>
<path fill="none" stroke="#c0c0c0" stroke-width="2" d="M599.5831,-1915.5974C599.737,-1907.4394 599.8973,-1898.9443 600.0567,-1890.4945"/>
<polygon fill="#c0c0c0" stroke="#c0c0c0" stroke-width="2" points="603.5609,-1890.3001 600.2503,-1880.2358 596.5621,-1890.168 603.5609,-1890.3001"/>
</g>
<!-- 7 -->
<g id="node8" class="node">
<title>7</title>
<text text-anchor="start" x="1098" y="-1133.6" font-family="sans" font-weight="bold" font-size="18.00" fill="#000000">metadmg_dfit</text>
<text text-anchor="start" x="844.5" y="-1109.8" font-family="sans" font-size="10.00" fill="#000000"> </text>
<text text-anchor="start" x="848.5" y="-1109.8" font-family="sans" font-weight="bold" font-size="14.00" fill="#000000">↪ input</text>
<text text-anchor="start" x="901.5" y="-1109.8" font-family="sans" font-size="10.00" fill="#000000"> </text>
<text text-anchor="start" x="844.5" y="-1090" font-family="monospace" font-size="10.00" fill="#000000">/projects/caeg/data/db/aeDNA&#45;refs/resources/20230825/ncbi/taxonomy/names.dmp</text>
<text text-anchor="start" x="844.5" y="-1072" font-family="monospace" font-size="10.00" fill="#000000">/projects/caeg/data/db/aeDNA&#45;refs/resources/20230825/ncbi/taxonomy/nodes.dmp</text>
<text text-anchor="start" x="844.5" y="-1054" font-family="monospace" font-size="10.00" fill="#000000">results/metadmg/lca/{sample}_{library}_{read_type_map}.bdamage.gz</text>
<text text-anchor="start" x="1400.5" y="-1033.8" font-family="sans" font-size="10.00" fill="#000000"> </text>
<text text-anchor="start" x="1404.5" y="-1033.8" font-family="sans" font-weight="bold" font-size="14.00" fill="#000000">output →</text>
<text text-anchor="start" x="1465.5" y="-1033.8" font-family="sans" font-size="10.00" fill="#000000"> </text>
<text text-anchor="start" x="844.5" y="-1014" font-family="monospace" font-size="10.00" fill="#000000">results/metadmg/dfit/{sample,HD827sonic_1|HD827sonic_2}_{library,lib1|lib2}_{read_type_map}.boot.stat.gz</text>
<text text-anchor="start" x="844.5" y="-996" font-family="monospace" font-size="10.00" fill="#000000">results/metadmg/dfit/{sample,HD827sonic_1|HD827sonic_2}_{library,lib1|lib2}_{read_type_map}.dfit.gz</text>
<polygon fill="#d9d357" stroke="#d9d357" points="838.5,-1124 838.5,-1124 1476.5,-1124 1476.5,-1124 838.5,-1124"/>
<polygon fill="#d9d357" stroke="#d9d357" points="838.5,-1048 838.5,-1048 1476.5,-1048 1476.5,-1048 838.5,-1048"/>
<polygon fill="none" stroke="#d9d357" stroke-width="2" points="838,-987 838,-1153 1475,-1153 1475,-987 838,-987"/>
</g>
<!-- 7&#45;&gt;1 -->
<g id="edge4" class="edge">
<title>7&#45;&gt;1</title>
<path fill="none" stroke="#c0c0c0" stroke-width="2" d="M844.9545,-985.8793C804.132,-972.1938 773.7687,-959.4349 766.5,-950 720.6672,-890.5086 705.4306,-813.0332 704.6795,-738.2919"/>
<polygon fill="#c0c0c0" stroke="#c0c0c0" stroke-width="2" points="708.1795,-738.2379 704.6645,-728.2432 701.1795,-738.2484 708.1795,-738.2379"/>
</g>
<!-- 10 -->
<g id="node11" class="node">
<title>10</title>
<text text-anchor="start" x="1002.5" y="-929.6" font-family="sans" font-weight="bold" font-size="18.00" fill="#000000">metadmg_aggregate</text>
<text text-anchor="start" x="783.5" y="-905.8" font-family="sans" font-size="10.00" fill="#000000"> </text>
<text text-anchor="start" x="787.5" y="-905.8" font-family="sans" font-weight="bold" font-size="14.00" fill="#000000">↪ input</text>
<text text-anchor="start" x="840.5" y="-905.8" font-family="sans" font-size="10.00" fill="#000000"> </text>
<text text-anchor="start" x="783.5" y="-886" font-family="monospace" font-size="10.00" fill="#000000">/projects/caeg/data/db/aeDNA&#45;refs/resources/20230825/ncbi/taxonomy/names.dmp</text>
<text text-anchor="start" x="783.5" y="-868" font-family="monospace" font-size="10.00" fill="#000000">/projects/caeg/data/db/aeDNA&#45;refs/resources/20230825/ncbi/taxonomy/nodes.dmp</text>
<text text-anchor="start" x="783.5" y="-850" font-family="monospace" font-size="10.00" fill="#000000">results/metadmg/dfit/{sample}_{library}_{read_type_map}.dfit.gz</text>
<text text-anchor="start" x="783.5" y="-832" font-family="monospace" font-size="10.00" fill="#000000">results/metadmg/lca/{sample}_{library}_{read_type_map}.bdamage.gz</text>
<text text-anchor="start" x="783.5" y="-814" font-family="monospace" font-size="10.00" fill="#000000">stats/metadmg/lca/{sample}_{library}_{read_type_map}.stat.gz</text>
<text text-anchor="start" x="1327.5" y="-793.8" font-family="sans" font-size="10.00" fill="#000000"> </text>
<text text-anchor="start" x="1331.5" y="-793.8" font-family="sans" font-weight="bold" font-size="14.00" fill="#000000">output →</text>
<text text-anchor="start" x="1392.5" y="-793.8" font-family="sans" font-size="10.00" fill="#000000"> </text>
<text text-anchor="start" x="783.5" y="-774" font-family="monospace" font-size="10.00" fill="#000000">stats/metadmg/aggregate/{sample,HD827sonic_1|HD827sonic_2}_{library,lib1|lib2}_{read_type_map}.stat.gz</text>
<polygon fill="#add957" stroke="#add957" points="777.5,-920 777.5,-920 1403.5,-920 1403.5,-920 777.5,-920"/>
<polygon fill="#add957" stroke="#add957" points="777.5,-808 777.5,-808 1403.5,-808 1403.5,-808 777.5,-808"/>
<polygon fill="none" stroke="#add957" stroke-width="2" points="777,-765 777,-949 1402,-949 1402,-765 777,-765"/>
</g>
<!-- 7&#45;&gt;10 -->
<g id="edge15" class="edge">
<title>7&#45;&gt;10</title>
<path fill="none" stroke="#c0c0c0" stroke-width="2" d="M1130.0198,-985.8168C1127.3357,-977.2835 1124.5886,-968.5502 1121.8517,-959.8494"/>
<polygon fill="#c0c0c0" stroke="#c0c0c0" stroke-width="2" points="1125.1093,-958.5411 1118.7699,-950.0521 1118.4319,-960.6416 1125.1093,-958.5411"/>
</g>
<!-- 8 -->
<g id="node9" class="node">
<title>8</title>
<text text-anchor="start" x="1188.5" y="-1391.6" font-family="sans" font-weight="bold" font-size="18.00" fill="#000000">metadmg_lca</text>
<text text-anchor="start" x="942.5" y="-1367.8" font-family="sans" font-size="10.00" fill="#000000"> </text>
<text text-anchor="start" x="946.5" y="-1367.8" font-family="sans" font-weight="bold" font-size="14.00" fill="#000000">↪ input</text>
<text text-anchor="start" x="999.5" y="-1367.8" font-family="sans" font-size="10.00" fill="#000000"> </text>
<text text-anchor="start" x="942.5" y="-1348" font-family="monospace" font-size="10.00" fill="#000000">/projects/caeg/data/db/aeDNA&#45;refs/resources/20230825/ncbi/taxonomy/names.dmp</text>
<text text-anchor="start" x="942.5" y="-1330" font-family="monospace" font-size="10.00" fill="#000000">/projects/caeg/data/db/aeDNA&#45;refs/resources/20230825/ncbi/taxonomy/nodes.dmp</text>
<text text-anchor="start" x="942.5" y="-1312" font-family="monospace" font-size="10.00" fill="#000000">/projects/caeg/data/db/mikkels/combined_accession2taxid_20221112.gz</text>
<text text-anchor="start" x="942.5" y="-1294" font-family="monospace" font-size="10.00" fill="#000000">results/align/sort_merged_name/{sample}_{library}_{read_type_map}.bam</text>
<text text-anchor="start" x="1480.5" y="-1273.8" font-family="sans" font-size="10.00" fill="#000000"> </text>
<text text-anchor="start" x="1484.5" y="-1273.8" font-family="sans" font-weight="bold" font-size="14.00" fill="#000000">output →</text>
<text text-anchor="start" x="1545.5" y="-1273.8" font-family="sans" font-size="10.00" fill="#000000"> </text>
<text text-anchor="start" x="942.5" y="-1254" font-family="monospace" font-size="10.00" fill="#000000">results/metadmg/lca/{sample,HD827sonic_1|HD827sonic_2}_{library,lib1|lib2}_{read_type_map}.bdamage.gz</text>
<text text-anchor="start" x="942.5" y="-1236" font-family="monospace" font-size="10.00" fill="#000000">results/metadmg/lca/{sample,HD827sonic_1|HD827sonic_2}_{library,lib1|lib2}_{read_type_map}.lca.gz</text>
<text text-anchor="start" x="942.5" y="-1218" font-family="monospace" font-size="10.00" fill="#000000">stats/metadmg/lca/{sample,HD827sonic_1|HD827sonic_2}_{library,lib1|lib2}_{read_type_map}.rlens.gz</text>
<text text-anchor="start" x="942.5" y="-1200" font-family="monospace" font-size="10.00" fill="#000000">stats/metadmg/lca/{sample,HD827sonic_1|HD827sonic_2}_{library,lib1|lib2}_{read_type_map}.stat.gz</text>
<polygon fill="#d9a157" stroke="#d9a157" points="936.5,-1382 936.5,-1382 1556.5,-1382 1556.5,-1382 936.5,-1382"/>
<polygon fill="#d9a157" stroke="#d9a157" points="936.5,-1288 936.5,-1288 1556.5,-1288 1556.5,-1288 936.5,-1288"/>
<polygon fill="none" stroke="#d9a157" stroke-width="2" points="936,-1191 936,-1411 1555,-1411 1555,-1191 936,-1191"/>
</g>
<!-- 8&#45;&gt;7 -->
<g id="edge12" class="edge">
<title>8&#45;&gt;7</title>
<path fill="none" stroke="#c0c0c0" stroke-width="2" d="M1202.6945,-1189.898C1199.2934,-1181.0704 1195.879,-1172.2085 1192.5311,-1163.5189"/>
<polygon fill="#c0c0c0" stroke="#c0c0c0" stroke-width="2" points="1195.7893,-1162.2403 1188.9281,-1154.1673 1189.2574,-1164.757 1195.7893,-1162.2403"/>
</g>
<!-- 8&#45;&gt;10 -->
<g id="edge16" class="edge">
<title>8&#45;&gt;10</title>
<path fill="none" stroke="#c0c0c0" stroke-width="2" d="M1459.3871,-1189.7557C1469.4091,-1178.7954 1478.2765,-1166.8952 1485.5,-1154 1521.9908,-1088.8576 1529.3651,-1046.4232 1485.5,-986 1478.7695,-976.7288 1451.0996,-964.1415 1413.2709,-950.4482"/>
<polygon fill="#c0c0c0" stroke="#c0c0c0" stroke-width="2" points="1414.0358,-947.0052 1403.4412,-946.9444 1411.6855,-953.5988 1414.0358,-947.0052"/>
</g>
<!-- 9&#45;&gt;8 -->
<g id="edge13" class="edge">
<title>9&#45;&gt;8</title>
<path fill="none" stroke="#c0c0c0" stroke-width="2" d="M1245.5,-1447.9034C1245.5,-1439.7674 1245.5,-1431.1553 1245.5,-1422.3432"/>
<polygon fill="#c0c0c0" stroke="#c0c0c0" stroke-width="2" points="1249.0001,-1422.3238 1245.5,-1412.3239 1242.0001,-1422.3239 1249.0001,-1422.3238"/>
</g>
<!-- 11 -->
<g id="node12" class="node">
<title>11</title>
<text text-anchor="start" x="1662.5" y="-920.6" font-family="sans" font-weight="bold" font-size="18.00" fill="#000000">metadmg_damage</text>
<text text-anchor="start" x="1428.5" y="-896.8" font-family="sans" font-size="10.00" fill="#000000"> </text>
<text text-anchor="start" x="1432.5" y="-896.8" font-family="sans" font-weight="bold" font-size="14.00" fill="#000000">↪ input</text>
<text text-anchor="start" x="1485.5" y="-896.8" font-family="sans" font-size="10.00" fill="#000000"> </text>
<text text-anchor="start" x="1428.5" y="-877" font-family="monospace" font-size="10.00" fill="#000000">results/align/sort_merged_name/{sample}_{library}_{read_type_map}.bam</text>
<text text-anchor="start" x="1984.5" y="-856.8" font-family="sans" font-size="10.00" fill="#000000"> </text>
<text text-anchor="start" x="1988.5" y="-856.8" font-family="sans" font-weight="bold" font-size="14.00" fill="#000000">output →</text>
<text text-anchor="start" x="2049.5" y="-856.8" font-family="sans" font-size="10.00" fill="#000000"> </text>
<text text-anchor="start" x="1428.5" y="-837" font-family="monospace" font-size="10.00" fill="#000000">results/metadmg/damage/{sample,HD827sonic_1|HD827sonic_2}_{library,lib1|lib2}_{read_type_map}.bdamage.gz</text>
<text text-anchor="start" x="1428.5" y="-819" font-family="monospace" font-size="10.00" fill="#000000">results/metadmg/damage/{sample,HD827sonic_1|HD827sonic_2}_{library,lib1|lib2}_{read_type_map}.res.gz</text>
<text text-anchor="start" x="1428.5" y="-801" font-family="monospace" font-size="10.00" fill="#000000">stats/metadmg/damage/{sample,HD827sonic_1|HD827sonic_2}_{library,lib1|lib2}_{read_type_map}.rlens.gz</text>
<text text-anchor="start" x="1428.5" y="-783" font-family="monospace" font-size="10.00" fill="#000000">stats/metadmg/damage/{sample,HD827sonic_1|HD827sonic_2}_{library,lib1|lib2}_{read_type_map}.stat.gz</text>
<polygon fill="#d9ba57" stroke="#d9ba57" points="1422.5,-911 1422.5,-911 2060.5,-911 2060.5,-911 1422.5,-911"/>
<polygon fill="#d9ba57" stroke="#d9ba57" points="1422.5,-871 1422.5,-871 2060.5,-871 2060.5,-871 1422.5,-871"/>
<polygon fill="none" stroke="#d9ba57" stroke-width="2" points="1422,-774 1422,-940 2059,-940 2059,-774 1422,-774"/>
</g>
<!-- 9&#45;&gt;11 -->
<g id="edge17" class="edge">
<title>9&#45;&gt;11</title>
<path fill="none" stroke="#c0c0c0" stroke-width="2" d="M1494.3003,-1447.9787C1526.2649,-1436.9376 1552.417,-1424.7904 1565.5,-1412 1691.981,-1288.3473 1727.3122,-1074.2432 1737.0106,-951.2414"/>
<polygon fill="#c0c0c0" stroke="#c0c0c0" stroke-width="2" points="1740.5144,-951.3208 1737.7693,-941.0878 1733.5338,-950.7992 1740.5144,-951.3208"/>
</g>
<!-- 10&#45;&gt;0 -->
<g id="edge2" class="edge">
<title>10&#45;&gt;0</title>
<path fill="none" stroke="#c0c0c0" stroke-width="2" d="M1089.5,-763.7976C1089.5,-623.7578 1089.5,-359.5971 1089.5,-210.2053"/>
<polygon fill="#c0c0c0" stroke="#c0c0c0" stroke-width="2" points="1093.0001,-210.0922 1089.5,-200.0923 1086.0001,-210.0923 1093.0001,-210.0922"/>
</g>
<!-- 10&#45;&gt;1 -->
<g id="edge6" class="edge">
<title>10&#45;&gt;1</title>
<path fill="none" stroke="#c0c0c0" stroke-width="2" d="M1004.5213,-763.8215C996.245,-754.7467 987.6051,-745.2732 978.7165,-735.5268"/>
<polygon fill="#c0c0c0" stroke="#c0c0c0" stroke-width="2" points="981.1972,-733.0529 971.8726,-728.0226 976.0251,-737.7698 981.1972,-733.0529"/>
</g>
<!-- 11&#45;&gt;0 -->
<g id="edge1" class="edge">
<title>11&#45;&gt;0</title>
<path fill="none" stroke="#c0c0c0" stroke-width="2" d="M1668.0309,-772.731C1549.1528,-634.4964 1312.8945,-359.769 1182.0694,-207.6421"/>
<polygon fill="#c0c0c0" stroke="#c0c0c0" stroke-width="2" points="1184.7089,-205.3435 1175.5349,-200.0437 1179.4015,-209.9078 1184.7089,-205.3435"/>
</g>
</g>
</svg>
