<?xml version="1.0" encoding="UTF-8" standalone="no"?>
<!DOCTYPE svg PUBLIC "-//W3C//DTD SVG 1.1//EN"
 "http://www.w3.org/Graphics/SVG/1.1/DTD/svg11.dtd">
<!-- Generated by graphviz version 2.40.1 (0)
 -->
<!-- Title: snakemake_dag Pages: 1 -->
<svg width="3135pt" height="2308pt"
 viewBox="0.00 0.00 3135.00 2308.00" xmlns="http://www.w3.org/2000/svg" xmlns:xlink="http://www.w3.org/1999/xlink">
<g id="graph0" class="graph" transform="scale(1 1) rotate(0) translate(4 2304)">
<title>snakemake_dag</title>
<polygon fill="#ffffff" stroke="transparent" points="-4,4 -4,-2304 3131,-2304 3131,4 -4,4"/>
<!-- 0 -->
<g id="node1" class="node">
<title>0</title>
<text text-anchor="start" x="1495.5" y="-287.6" font-family="sans" font-weight="bold" font-size="18.00" fill="#000000">all</text>
<text text-anchor="start" x="1322.5" y="-263.8" font-family="sans" font-size="10.00" fill="#000000"> </text>
<text text-anchor="start" x="1326.5" y="-263.8" font-family="sans" font-weight="bold" font-size="14.00" fill="#000000">↪ input</text>
<text text-anchor="start" x="1379.5" y="-263.8" font-family="sans" font-size="10.00" fill="#000000"> </text>
<text text-anchor="start" x="1322.5" y="-244" font-family="monospace" font-size="10.00" fill="#000000">reports/multiqc.html</text>
<text text-anchor="start" x="1322.5" y="-226" font-family="monospace" font-size="10.00" fill="#000000">stats/metadmg/aggregate/HD827sonic_1_lib1_collapsed.stat.gz</text>
<text text-anchor="start" x="1322.5" y="-208" font-family="monospace" font-size="10.00" fill="#000000">stats/metadmg/aggregate/HD827sonic_1_lib1_collapsed.stat.gz</text>
<text text-anchor="start" x="1322.5" y="-190" font-family="monospace" font-size="10.00" fill="#000000">stats/metadmg/aggregate/HD827sonic_2_lib1_collapsed.stat.gz</text>
<text text-anchor="start" x="1322.5" y="-172" font-family="monospace" font-size="10.00" fill="#000000">stats/metadmg/aggregate/HD827sonic_2_lib2_collapsed.stat.gz</text>
<text text-anchor="start" x="1322.5" y="-154" font-family="monospace" font-size="10.00" fill="#000000">stats/metadmg/damage/HD827sonic_1_lib1_collapsed.stat.gz</text>
<text text-anchor="start" x="1322.5" y="-136" font-family="monospace" font-size="10.00" fill="#000000">stats/metadmg/damage/HD827sonic_1_lib1_collapsed.stat.gz</text>
<text text-anchor="start" x="1322.5" y="-118" font-family="monospace" font-size="10.00" fill="#000000">stats/metadmg/damage/HD827sonic_2_lib1_collapsed.stat.gz</text>
<text text-anchor="start" x="1322.5" y="-100" font-family="monospace" font-size="10.00" fill="#000000">stats/metadmg/damage/HD827sonic_2_lib2_collapsed.stat.gz</text>
<text text-anchor="start" x="1322.5" y="-82" font-family="monospace" font-size="10.00" fill="#000000">temp/align/bam_filter_lca/HD827sonic_1_lib1_collapsed.summary</text>
<text text-anchor="start" x="1322.5" y="-64" font-family="monospace" font-size="10.00" fill="#000000">temp/align/bam_filter_lca/HD827sonic_1_lib1_collapsed.summary</text>
<text text-anchor="start" x="1322.5" y="-46" font-family="monospace" font-size="10.00" fill="#000000">temp/align/bam_filter_lca/HD827sonic_2_lib1_collapsed.summary</text>
<text text-anchor="start" x="1322.5" y="-28" font-family="monospace" font-size="10.00" fill="#000000">temp/align/bam_filter_lca/HD827sonic_2_lib2_collapsed.summary</text>
<text text-anchor="start" x="1682.5" y="-10" font-family="sans" font-size="10.00" fill="#000000"> &#160;</text>
<polygon fill="#a3d957" stroke="#a3d957" points="1316.5,-278 1316.5,-278 1696.5,-278 1696.5,-278 1316.5,-278"/>
<polygon fill="#a3d957" stroke="#a3d957" points="1316.5,-22 1316.5,-22 1696.5,-22 1696.5,-22 1316.5,-22"/>
<polygon fill="none" stroke="#a3d957" stroke-width="2" points="1316,-1 1316,-307 1695,-307 1695,-1 1316,-1"/>
</g>
<!-- 1 -->
<g id="node2" class="node">
<title>1</title>
<text text-anchor="start" x="2431.5" y="-941.6" font-family="sans" font-weight="bold" font-size="18.00" fill="#000000">multiqc</text>
<text text-anchor="start" x="2229.5" y="-917.8" font-family="sans" font-size="10.00" fill="#000000"> </text>
<text text-anchor="start" x="2233.5" y="-917.8" font-family="sans" font-weight="bold" font-size="14.00" fill="#000000">↪ input</text>
<text text-anchor="start" x="2286.5" y="-917.8" font-family="sans" font-size="10.00" fill="#000000"> </text>
<text text-anchor="start" x="2229.5" y="-898" font-family="monospace" font-size="10.00" fill="#000000">logs/chunk/bowtie2/HD827sonic_1_lib1_collapsed.refseq_invertebrate.1&#45;of&#45;3.log</text>
<text text-anchor="start" x="2229.5" y="-880" font-family="monospace" font-size="10.00" fill="#000000">logs/chunk/bowtie2/HD827sonic_1_lib1_collapsed.refseq_invertebrate.2&#45;of&#45;3.log</text>
<text text-anchor="start" x="2229.5" y="-862" font-family="monospace" font-size="10.00" fill="#000000">logs/chunk/bowtie2/HD827sonic_1_lib1_collapsed.refseq_invertebrate.3&#45;of&#45;3.log</text>
<text text-anchor="start" x="2229.5" y="-844" font-family="monospace" font-size="10.00" fill="#000000">logs/chunk/bowtie2/HD827sonic_1_lib1_collapsed.refseq_mitochondrion.1&#45;of&#45;1.log</text>
<text text-anchor="start" x="2229.5" y="-826" font-family="monospace" font-size="10.00" fill="#000000">logs/chunk/bowtie2/HD827sonic_2_lib1_collapsed.refseq_invertebrate.1&#45;of&#45;3.log</text>
<text text-anchor="start" x="2229.5" y="-808" font-family="monospace" font-size="10.00" fill="#000000">logs/chunk/bowtie2/HD827sonic_2_lib1_collapsed.refseq_invertebrate.2&#45;of&#45;3.log</text>
<text text-anchor="start" x="2229.5" y="-790" font-family="monospace" font-size="10.00" fill="#000000">logs/chunk/bowtie2/HD827sonic_2_lib1_collapsed.refseq_invertebrate.3&#45;of&#45;3.log</text>
<text text-anchor="start" x="2229.5" y="-772" font-family="monospace" font-size="10.00" fill="#000000">logs/chunk/bowtie2/HD827sonic_2_lib1_collapsed.refseq_mitochondrion.1&#45;of&#45;1.log</text>
<text text-anchor="start" x="2229.5" y="-754" font-family="monospace" font-size="10.00" fill="#000000">logs/chunk/bowtie2/HD827sonic_2_lib2_collapsed.refseq_invertebrate.1&#45;of&#45;3.log</text>
<text text-anchor="start" x="2229.5" y="-736" font-family="monospace" font-size="10.00" fill="#000000">logs/chunk/bowtie2/HD827sonic_2_lib2_collapsed.refseq_invertebrate.2&#45;of&#45;3.log</text>
<text text-anchor="start" x="2229.5" y="-718" font-family="monospace" font-size="10.00" fill="#000000">logs/chunk/bowtie2/HD827sonic_2_lib2_collapsed.refseq_invertebrate.3&#45;of&#45;3.log</text>
<text text-anchor="start" x="2229.5" y="-700" font-family="monospace" font-size="10.00" fill="#000000">logs/chunk/bowtie2/HD827sonic_2_lib2_collapsed.refseq_mitochondrion.1&#45;of&#45;1.log</text>
<text text-anchor="start" x="2229.5" y="-682" font-family="monospace" font-size="10.00" fill="#000000">results/metadmg/dfit/HD827sonic_1_lib1_collapsed.dfit.gz</text>
<text text-anchor="start" x="2229.5" y="-664" font-family="monospace" font-size="10.00" fill="#000000">results/metadmg/dfit/HD827sonic_1_lib1_collapsed.dfit.gz</text>
<text text-anchor="start" x="2229.5" y="-646" font-family="monospace" font-size="10.00" fill="#000000">results/metadmg/dfit/HD827sonic_2_lib1_collapsed.dfit.gz</text>
<text text-anchor="start" x="2229.5" y="-628" font-family="monospace" font-size="10.00" fill="#000000">results/metadmg/dfit/HD827sonic_2_lib2_collapsed.dfit.gz</text>
<text text-anchor="start" x="2229.5" y="-610" font-family="monospace" font-size="10.00" fill="#000000">stats/align/samtools_stats/HD827sonic_1_lib1_collapsed.txt</text>
<text text-anchor="start" x="2229.5" y="-592" font-family="monospace" font-size="10.00" fill="#000000">stats/align/samtools_stats/HD827sonic_1_lib1_collapsed.txt</text>
<text text-anchor="start" x="2229.5" y="-574" font-family="monospace" font-size="10.00" fill="#000000">stats/align/samtools_stats/HD827sonic_1_lib1_collapsed.txt</text>
<text text-anchor="start" x="2229.5" y="-556" font-family="monospace" font-size="10.00" fill="#000000">stats/align/samtools_stats/HD827sonic_1_lib1_collapsed.txt</text>
<text text-anchor="start" x="2229.5" y="-538" font-family="monospace" font-size="10.00" fill="#000000">stats/align/samtools_stats/HD827sonic_2_lib1_collapsed.txt</text>
<text text-anchor="start" x="2229.5" y="-520" font-family="monospace" font-size="10.00" fill="#000000">stats/align/samtools_stats/HD827sonic_2_lib1_collapsed.txt</text>
<text text-anchor="start" x="2229.5" y="-502" font-family="monospace" font-size="10.00" fill="#000000">stats/align/samtools_stats/HD827sonic_2_lib2_collapsed.txt</text>
<text text-anchor="start" x="2229.5" y="-484" font-family="monospace" font-size="10.00" fill="#000000">stats/align/samtools_stats/HD827sonic_2_lib2_collapsed.txt</text>
<text text-anchor="start" x="2229.5" y="-466" font-family="monospace" font-size="10.00" fill="#000000">stats/metadmg/aggregate/HD827sonic_1_lib1_collapsed.stat.gz</text>
<text text-anchor="start" x="2229.5" y="-448" font-family="monospace" font-size="10.00" fill="#000000">stats/metadmg/aggregate/HD827sonic_1_lib1_collapsed.stat.gz</text>
<text text-anchor="start" x="2229.5" y="-430" font-family="monospace" font-size="10.00" fill="#000000">stats/metadmg/aggregate/HD827sonic_2_lib1_collapsed.stat.gz</text>
<text text-anchor="start" x="2229.5" y="-412" font-family="monospace" font-size="10.00" fill="#000000">stats/metadmg/aggregate/HD827sonic_2_lib2_collapsed.stat.gz</text>
<text text-anchor="start" x="2629.5" y="-391.8" font-family="sans" font-size="10.00" fill="#000000"> </text>
<text text-anchor="start" x="2633.5" y="-391.8" font-family="sans" font-weight="bold" font-size="14.00" fill="#000000">output →</text>
<text text-anchor="start" x="2694.5" y="-391.8" font-family="sans" font-size="10.00" fill="#000000"> </text>
<text text-anchor="start" x="2229.5" y="-372" font-family="monospace" font-size="10.00" fill="#000000">reports/multiqc.html</text>
<text text-anchor="start" x="2229.5" y="-354" font-family="monospace" font-size="10.00" fill="#000000">reports/multiqc_data.zip</text>
<polygon fill="#5775d9" stroke="#5775d9" points="2223.5,-932 2223.5,-932 2705.5,-932 2705.5,-932 2223.5,-932"/>
<polygon fill="#5775d9" stroke="#5775d9" points="2223.5,-406 2223.5,-406 2705.5,-406 2705.5,-406 2223.5,-406"/>
<polygon fill="none" stroke="#5775d9" stroke-width="2" points="2223,-345 2223,-961 2704,-961 2704,-345 2223,-345"/>
</g>
<!-- 1&#45;&gt;0 -->
<g id="edge2" class="edge">
<title>1&#45;&gt;0</title>
<path fill="none" stroke="#c0c0c0" stroke-width="2" d="M2221.7561,-527.0812C2062.1118,-443.9262 1855.4274,-336.2691 1705.1422,-257.989"/>
<polygon fill="#c0c0c0" stroke="#c0c0c0" stroke-width="2" points="1706.7149,-254.8619 1696.229,-253.3463 1703.4811,-261.0702 1706.7149,-254.8619"/>
</g>
<!-- 2 -->
<g id="node3" class="node">
<title>2</title>
<text text-anchor="start" x="2632.5" y="-2279.6" font-family="sans" font-weight="bold" font-size="18.00" fill="#000000">bowtie2</text>
<text text-anchor="start" x="2213.5" y="-2255.8" font-family="sans" font-size="10.00" fill="#000000"> </text>
<text text-anchor="start" x="2217.5" y="-2255.8" font-family="sans" font-weight="bold" font-size="14.00" fill="#000000">↪ input</text>
<text text-anchor="start" x="2270.5" y="-2255.8" font-family="sans" font-size="10.00" fill="#000000"> </text>
<text text-anchor="start" x="2213.5" y="-2236" font-family="monospace" font-size="10.00" fill="#000000">&lt;input function&gt;</text>
<text text-anchor="start" x="2213.5" y="-2218" font-family="monospace" font-size="10.00" fill="#000000">&lt;input function&gt;</text>
<text text-anchor="start" x="3051.5" y="-2197.8" font-family="sans" font-size="10.00" fill="#000000"> </text>
<text text-anchor="start" x="3055.5" y="-2197.8" font-family="sans" font-weight="bold" font-size="14.00" fill="#000000">output →</text>
<text text-anchor="start" x="3116.5" y="-2197.8" font-family="sans" font-size="10.00" fill="#000000"> </text>
<text text-anchor="start" x="2213.5" y="-2178" font-family="monospace" font-size="10.00" fill="#000000">temp/chunk/bowtie2/{sample,HD827sonic_1|HD827sonic_2}_{library,lib1|lib2}_{read_type_map,pe|se|singleton|collapsed}.{ref}.{n_chunk}&#45;of&#45;{tot_chunks}.bam</text>
<polygon fill="#85d957" stroke="#85d957" points="2207.5,-2270 2207.5,-2270 3127.5,-2270 3127.5,-2270 2207.5,-2270"/>
<polygon fill="#85d957" stroke="#85d957" points="2207.5,-2212 2207.5,-2212 3127.5,-2212 3127.5,-2212 2207.5,-2212"/>
<polygon fill="none" stroke="#85d957" stroke-width="2" points="2207,-2169 2207,-2299 3126,-2299 3126,-2169 2207,-2169"/>
</g>
<!-- 2&#45;&gt;1 -->
<g id="edge7" class="edge">
<title>2&#45;&gt;1</title>
<path fill="none" stroke="#c0c0c0" stroke-width="2" d="M2863.5911,-2167.9783C2877.2149,-2157.6521 2889.4864,-2145.7387 2899.5,-2132 2956.3373,-2054.0185 2921.5,-2012.4967 2921.5,-1916 2921.5,-1916 2921.5,-1916 2921.5,-1322 2921.5,-1177.5371 2963.2953,-1125.5669 2895.5,-998 2853.2665,-918.5315 2784.0197,-850.9951 2713.2124,-797.3106"/>
<polygon fill="#c0c0c0" stroke="#c0c0c0" stroke-width="2" points="2715.12,-794.3664 2705.0202,-791.1656 2710.9195,-799.9661 2715.12,-794.3664"/>
</g>
<!-- 7 -->
<g id="node8" class="node">
<title>7</title>
<text text-anchor="start" x="2326" y="-2111.6" font-family="sans" font-weight="bold" font-size="18.00" fill="#000000">chunk_clean_header</text>
<text text-anchor="start" x="1946.5" y="-2087.8" font-family="sans" font-size="10.00" fill="#000000"> </text>
<text text-anchor="start" x="1950.5" y="-2087.8" font-family="sans" font-weight="bold" font-size="14.00" fill="#000000">↪ input</text>
<text text-anchor="start" x="2003.5" y="-2087.8" font-family="sans" font-size="10.00" fill="#000000"> </text>
<text text-anchor="start" x="1946.5" y="-2068" font-family="monospace" font-size="10.00" fill="#000000">temp/chunk/bowtie2/{sample}_{library}_{read_type_map}.{ref}.{n_chunk}&#45;of&#45;{tot_chunks}.bam</text>
<text text-anchor="start" x="2814.5" y="-2047.8" font-family="sans" font-size="10.00" fill="#000000"> </text>
<text text-anchor="start" x="2818.5" y="-2047.8" font-family="sans" font-weight="bold" font-size="14.00" fill="#000000">output →</text>
<text text-anchor="start" x="2879.5" y="-2047.8" font-family="sans" font-size="10.00" fill="#000000"> </text>
<text text-anchor="start" x="1946.5" y="-2028" font-family="monospace" font-size="10.00" fill="#000000">temp/chunk/clean_header/{sample,HD827sonic_1|HD827sonic_2}_{library,lib1|lib2}_{read_type_map,pe|se|singleton|collapsed}.{ref}.{n_chunk}&#45;of&#45;{tot_chunks}.bam</text>
<polygon fill="#57d985" stroke="#57d985" points="1940.5,-2102 1940.5,-2102 2890.5,-2102 2890.5,-2102 1940.5,-2102"/>
<polygon fill="#57d985" stroke="#57d985" points="1940.5,-2062 1940.5,-2062 2890.5,-2062 2890.5,-2062 1940.5,-2062"/>
<polygon fill="none" stroke="#57d985" stroke-width="2" points="1940,-2019 1940,-2131 2889,-2131 2889,-2019 1940,-2019"/>
</g>
<!-- 2&#45;&gt;7 -->
<g id="edge13" class="edge">
<title>2&#45;&gt;7</title>
<path fill="none" stroke="#c0c0c0" stroke-width="2" d="M2561.8186,-2167.951C2545.9589,-2157.9443 2529.6351,-2147.6447 2513.8919,-2137.7116"/>
<polygon fill="#c0c0c0" stroke="#c0c0c0" stroke-width="2" points="2515.5371,-2134.6112 2505.2121,-2132.235 2511.8018,-2140.5313 2515.5371,-2134.6112"/>
</g>
<!-- 3 -->
<g id="node4" class="node">
<title>3</title>
<text text-anchor="start" x="1574.5" y="-1136.6" font-family="sans" font-weight="bold" font-size="18.00" fill="#000000">align_samtools_stats</text>
<text text-anchor="start" x="1284.5" y="-1112.8" font-family="sans" font-size="10.00" fill="#000000"> </text>
<text text-anchor="start" x="1288.5" y="-1112.8" font-family="sans" font-weight="bold" font-size="14.00" fill="#000000">↪ input</text>
<text text-anchor="start" x="1341.5" y="-1112.8" font-family="sans" font-size="10.00" fill="#000000"> </text>
<text text-anchor="start" x="1284.5" y="-1093" font-family="monospace" font-size="10.00" fill="#000000">temp/align/sort_coord/{sample}_{library}_{read_type_map}.bam</text>
<text text-anchor="start" x="1978.5" y="-1072.8" font-family="sans" font-size="10.00" fill="#000000"> </text>
<text text-anchor="start" x="1982.5" y="-1072.8" font-family="sans" font-weight="bold" font-size="14.00" fill="#000000">output →</text>
<text text-anchor="start" x="2043.5" y="-1072.8" font-family="sans" font-size="10.00" fill="#000000"> </text>
<text text-anchor="start" x="1284.5" y="-1053" font-family="monospace" font-size="10.00" fill="#000000">stats/align/samtools_stats/{sample,HD827sonic_1|HD827sonic_2}_{library,lib1|lib2}_{read_type_map,pe|se|singleton|collapsed}.txt</text>
<polygon fill="#d9d157" stroke="#d9d157" points="1278.5,-1127 1278.5,-1127 2054.5,-1127 2054.5,-1127 1278.5,-1127"/>
<polygon fill="#d9d157" stroke="#d9d157" points="1278.5,-1087 1278.5,-1087 2054.5,-1087 2054.5,-1087 1278.5,-1087"/>
<polygon fill="none" stroke="#d9d157" stroke-width="2" points="1278,-1044 1278,-1156 2053,-1156 2053,-1044 1278,-1044"/>
</g>
<!-- 3&#45;&gt;1 -->
<g id="edge8" class="edge">
<title>3&#45;&gt;1</title>
<path fill="none" stroke="#c0c0c0" stroke-width="2" d="M1767.3778,-1042.9331C1879.0219,-980.3956 2062.2672,-877.7507 2212.7296,-793.4691"/>
<polygon fill="#c0c0c0" stroke="#c0c0c0" stroke-width="2" points="2214.6675,-796.3954 2221.6815,-788.4547 2211.2465,-790.2882 2214.6675,-796.3954"/>
</g>
<!-- 4 -->
<g id="node5" class="node">
<title>4</title>
<text text-anchor="start" x="1346" y="-1598.6" font-family="sans" font-weight="bold" font-size="18.00" fill="#000000">align_sort_coord</text>
<text text-anchor="start" x="1041.5" y="-1574.8" font-family="sans" font-size="10.00" fill="#000000"> </text>
<text text-anchor="start" x="1045.5" y="-1574.8" font-family="sans" font-weight="bold" font-size="14.00" fill="#000000">↪ input</text>
<text text-anchor="start" x="1098.5" y="-1574.8" font-family="sans" font-size="10.00" fill="#000000"> </text>
<text text-anchor="start" x="1041.5" y="-1555" font-family="monospace" font-size="10.00" fill="#000000">results/align/merge/{sample}_{library}_{read_type_map}.bam</text>
<text text-anchor="start" x="1729.5" y="-1534.8" font-family="sans" font-size="10.00" fill="#000000"> </text>
<text text-anchor="start" x="1733.5" y="-1534.8" font-family="sans" font-weight="bold" font-size="14.00" fill="#000000">output →</text>
<text text-anchor="start" x="1794.5" y="-1534.8" font-family="sans" font-size="10.00" fill="#000000"> </text>
<text text-anchor="start" x="1041.5" y="-1515" font-family="monospace" font-size="10.00" fill="#000000">temp/align/sort_coord/{sample,HD827sonic_1|HD827sonic_2}_{library,lib1|lib2}_{read_type_map,pe|se|singleton|collapsed}.bam</text>
<text text-anchor="start" x="1041.5" y="-1497" font-family="monospace" font-size="10.00" fill="#000000">temp/align/sort_coord/{sample,HD827sonic_1|HD827sonic_2}_{library,lib1|lib2}_{read_type_map,pe|se|singleton|collapsed}.bam.csi</text>
<polygon fill="#c2d957" stroke="#c2d957" points="1035.5,-1589 1035.5,-1589 1805.5,-1589 1805.5,-1589 1035.5,-1589"/>
<polygon fill="#c2d957" stroke="#c2d957" points="1035.5,-1549 1035.5,-1549 1805.5,-1549 1805.5,-1549 1035.5,-1549"/>
<polygon fill="none" stroke="#c2d957" stroke-width="2" points="1035,-1488 1035,-1618 1804,-1618 1804,-1488 1035,-1488"/>
</g>
<!-- 4&#45;&gt;3 -->
<g id="edge9" class="edge">
<title>4&#45;&gt;3</title>
<path fill="none" stroke="#c0c0c0" stroke-width="2" d="M1539.4986,-1486.8746C1569.3514,-1464.9034 1598.2814,-1437.7813 1617.5,-1406 1661.6759,-1332.9474 1669.5207,-1232.8201 1669.1064,-1167.2929"/>
<polygon fill="#c0c0c0" stroke="#c0c0c0" stroke-width="2" points="1672.6034,-1167.0362 1668.9733,-1157.0827 1665.604,-1167.1275 1672.6034,-1167.0362"/>
</g>
<!-- 14 -->
<g id="node15" class="node">
<title>14</title>
<text text-anchor="start" x="1166.5" y="-1367.6" font-family="sans" font-weight="bold" font-size="18.00" fill="#000000">align_reassign</text>
<text text-anchor="start" x="857.5" y="-1343.8" font-family="sans" font-size="10.00" fill="#000000"> </text>
<text text-anchor="start" x="861.5" y="-1343.8" font-family="sans" font-weight="bold" font-size="14.00" fill="#000000">↪ input</text>
<text text-anchor="start" x="914.5" y="-1343.8" font-family="sans" font-size="10.00" fill="#000000"> </text>
<text text-anchor="start" x="857.5" y="-1324" font-family="monospace" font-size="10.00" fill="#000000">&lt;function &lt;lambda&gt; at 0x7f6eb87007c0&gt;</text>
<text text-anchor="start" x="1533.5" y="-1303.8" font-family="sans" font-size="10.00" fill="#000000"> </text>
<text text-anchor="start" x="1537.5" y="-1303.8" font-family="sans" font-weight="bold" font-size="14.00" fill="#000000">output →</text>
<text text-anchor="start" x="1598.5" y="-1303.8" font-family="sans" font-size="10.00" fill="#000000"> </text>
<text text-anchor="start" x="857.5" y="-1284" font-family="monospace" font-size="10.00" fill="#000000">temp/align/reassign/{sample,HD827sonic_1|HD827sonic_2}_{library,lib1|lib2}_{read_type_map,pe|se|singleton|collapsed}.bam</text>
<text text-anchor="start" x="857.5" y="-1266" font-family="monospace" font-size="10.00" fill="#000000">temp/align/reassign/{sample,HD827sonic_1|HD827sonic_2}_{library,lib1|lib2}_{read_type_map,pe|se|singleton|collapsed}.bam.csi</text>
<polygon fill="#d9b257" stroke="#d9b257" points="851.5,-1358 851.5,-1358 1609.5,-1358 1609.5,-1358 851.5,-1358"/>
<polygon fill="#d9b257" stroke="#d9b257" points="851.5,-1318 851.5,-1318 1609.5,-1318 1609.5,-1318 851.5,-1318"/>
<polygon fill="none" stroke="#d9b257" stroke-width="2" points="851,-1257 851,-1387 1608,-1387 1608,-1257 851,-1257"/>
</g>
<!-- 4&#45;&gt;14 -->
<g id="edge21" class="edge">
<title>4&#45;&gt;14</title>
<path fill="none" stroke="#c0c0c0" stroke-width="2" d="M1365.0536,-1486.8047C1341.7994,-1458.5324 1314.5542,-1425.408 1290.6132,-1396.3008"/>
<polygon fill="#c0c0c0" stroke="#c0c0c0" stroke-width="2" points="1293.0099,-1393.7048 1283.9543,-1388.205 1287.6036,-1398.1515 1293.0099,-1393.7048"/>
</g>
<!-- 5 -->
<g id="node6" class="node">
<title>5</title>
<text text-anchor="start" x="1650" y="-1793.6" font-family="sans" font-weight="bold" font-size="18.00" fill="#000000">align_merge</text>
<text text-anchor="start" x="1342.5" y="-1769.8" font-family="sans" font-size="10.00" fill="#000000"> </text>
<text text-anchor="start" x="1346.5" y="-1769.8" font-family="sans" font-weight="bold" font-size="14.00" fill="#000000">↪ input</text>
<text text-anchor="start" x="1399.5" y="-1769.8" font-family="sans" font-size="10.00" fill="#000000"> </text>
<text text-anchor="start" x="1342.5" y="-1750" font-family="monospace" font-size="10.00" fill="#000000">&lt;input function&gt;</text>
<text text-anchor="start" x="1994.5" y="-1729.8" font-family="sans" font-size="10.00" fill="#000000"> </text>
<text text-anchor="start" x="1998.5" y="-1729.8" font-family="sans" font-weight="bold" font-size="14.00" fill="#000000">output →</text>
<text text-anchor="start" x="2059.5" y="-1729.8" font-family="sans" font-size="10.00" fill="#000000"> </text>
<text text-anchor="start" x="1342.5" y="-1710" font-family="monospace" font-size="10.00" fill="#000000">results/align/merge/{sample,HD827sonic_1|HD827sonic_2}_{library,lib1|lib2}_{read_type_map,pe|se|singleton|collapsed}.bam</text>
<polygon fill="#d99457" stroke="#d99457" points="1336.5,-1784 1336.5,-1784 2070.5,-1784 2070.5,-1784 1336.5,-1784"/>
<polygon fill="#d99457" stroke="#d99457" points="1336.5,-1744 1336.5,-1744 2070.5,-1744 2070.5,-1744 1336.5,-1744"/>
<polygon fill="none" stroke="#d99457" stroke-width="2" points="1336,-1701 1336,-1813 2069,-1813 2069,-1701 1336,-1701"/>
</g>
<!-- 5&#45;&gt;4 -->
<g id="edge10" class="edge">
<title>5&#45;&gt;4</title>
<path fill="none" stroke="#c0c0c0" stroke-width="2" d="M1623.2924,-1699.9034C1591.048,-1676.66 1553.4118,-1649.53 1519.3198,-1624.9549"/>
<polygon fill="#c0c0c0" stroke="#c0c0c0" stroke-width="2" points="1521.3522,-1622.1054 1511.1934,-1619.097 1517.2588,-1627.7839 1521.3522,-1622.1054"/>
</g>
<!-- 9 -->
<g id="node10" class="node">
<title>9</title>
<text text-anchor="start" x="2154.5" y="-1643.6" font-family="sans" font-weight="bold" font-size="18.00" fill="#000000">metadmg_lca</text>
<text text-anchor="start" x="1830.5" y="-1619.8" font-family="sans" font-size="10.00" fill="#000000"> </text>
<text text-anchor="start" x="1834.5" y="-1619.8" font-family="sans" font-weight="bold" font-size="14.00" fill="#000000">↪ input</text>
<text text-anchor="start" x="1887.5" y="-1619.8" font-family="sans" font-size="10.00" fill="#000000"> </text>
<text text-anchor="start" x="1830.5" y="-1600" font-family="monospace" font-size="10.00" fill="#000000">/projects/caeg/data/db/aeDNA&#45;refs/resources/20230825/ncbi/taxonomy/names.dmp</text>
<text text-anchor="start" x="1830.5" y="-1582" font-family="monospace" font-size="10.00" fill="#000000">/projects/caeg/data/db/aeDNA&#45;refs/resources/20230825/ncbi/taxonomy/nodes.dmp</text>
<text text-anchor="start" x="1830.5" y="-1564" font-family="monospace" font-size="10.00" fill="#000000">/projects/caeg/data/db/mikkels/combined_accession2taxid_20221112.gz</text>
<text text-anchor="start" x="1830.5" y="-1546" font-family="monospace" font-size="10.00" fill="#000000">results/align/merge/{sample}_{library}_{read_type_map}.bam</text>
<text text-anchor="start" x="2524.5" y="-1525.8" font-family="sans" font-size="10.00" fill="#000000"> </text>
<text text-anchor="start" x="2528.5" y="-1525.8" font-family="sans" font-weight="bold" font-size="14.00" fill="#000000">output →</text>
<text text-anchor="start" x="2589.5" y="-1525.8" font-family="sans" font-size="10.00" fill="#000000"> </text>
<text text-anchor="start" x="1830.5" y="-1506" font-family="monospace" font-size="10.00" fill="#000000">results/metadmg/lca/{sample,HD827sonic_1|HD827sonic_2}_{library,lib1|lib2}_{read_type_map,pe|se|singleton|collapsed}.bdamage.gz</text>
<text text-anchor="start" x="1830.5" y="-1488" font-family="monospace" font-size="10.00" fill="#000000">results/metadmg/lca/{sample,HD827sonic_1|HD827sonic_2}_{library,lib1|lib2}_{read_type_map,pe|se|singleton|collapsed}.lca.gz</text>
<text text-anchor="start" x="1830.5" y="-1470" font-family="monospace" font-size="10.00" fill="#000000">stats/metadmg/lca/{sample,HD827sonic_1|HD827sonic_2}_{library,lib1|lib2}_{read_type_map,pe|se|singleton|collapsed}.rlens.gz</text>
<text text-anchor="start" x="1830.5" y="-1452" font-family="monospace" font-size="10.00" fill="#000000">stats/metadmg/lca/{sample,HD827sonic_1|HD827sonic_2}_{library,lib1|lib2}_{read_type_map,pe|se|singleton|collapsed}.stat.gz</text>
<polygon fill="#5794d9" stroke="#5794d9" points="1824.5,-1634 1824.5,-1634 2600.5,-1634 2600.5,-1634 1824.5,-1634"/>
<polygon fill="#5794d9" stroke="#5794d9" points="1824.5,-1540 1824.5,-1540 2600.5,-1540 2600.5,-1540 1824.5,-1540"/>
<polygon fill="none" stroke="#5794d9" stroke-width="2" points="1824,-1443 1824,-1663 2599,-1663 2599,-1443 1824,-1443"/>
</g>
<!-- 5&#45;&gt;9 -->
<g id="edge15" class="edge">
<title>5&#45;&gt;9</title>
<path fill="none" stroke="#c0c0c0" stroke-width="2" d="M1844.9617,-1699.9034C1870.1959,-1689.7899 1897.2661,-1678.9405 1924.8482,-1667.886"/>
<polygon fill="#c0c0c0" stroke="#c0c0c0" stroke-width="2" points="1926.2397,-1671.099 1934.2199,-1664.1299 1923.6356,-1664.6014 1926.2397,-1671.099"/>
</g>
<!-- 11 -->
<g id="node12" class="node">
<title>11</title>
<text text-anchor="start" x="319.5" y="-1385.6" font-family="sans" font-weight="bold" font-size="18.00" fill="#000000">metadmg_damage</text>
<text text-anchor="start" x="7.5" y="-1361.8" font-family="sans" font-size="10.00" fill="#000000"> </text>
<text text-anchor="start" x="11.5" y="-1361.8" font-family="sans" font-weight="bold" font-size="14.00" fill="#000000">↪ input</text>
<text text-anchor="start" x="64.5" y="-1361.8" font-family="sans" font-size="10.00" fill="#000000"> </text>
<text text-anchor="start" x="7.5" y="-1342" font-family="monospace" font-size="10.00" fill="#000000">results/align/merge/{sample}_{library}_{read_type_map}.bam</text>
<text text-anchor="start" x="719.5" y="-1321.8" font-family="sans" font-size="10.00" fill="#000000"> </text>
<text text-anchor="start" x="723.5" y="-1321.8" font-family="sans" font-weight="bold" font-size="14.00" fill="#000000">output →</text>
<text text-anchor="start" x="784.5" y="-1321.8" font-family="sans" font-size="10.00" fill="#000000"> </text>
<text text-anchor="start" x="7.5" y="-1302" font-family="monospace" font-size="10.00" fill="#000000">results/metadmg/damage/{sample,HD827sonic_1|HD827sonic_2}_{library,lib1|lib2}_{read_type_map,pe|se|singleton|collapsed}.bdamage.gz</text>
<text text-anchor="start" x="7.5" y="-1284" font-family="monospace" font-size="10.00" fill="#000000">results/metadmg/damage/{sample,HD827sonic_1|HD827sonic_2}_{library,lib1|lib2}_{read_type_map,pe|se|singleton|collapsed}.res.gz</text>
<text text-anchor="start" x="7.5" y="-1266" font-family="monospace" font-size="10.00" fill="#000000">stats/metadmg/damage/{sample,HD827sonic_1|HD827sonic_2}_{library,lib1|lib2}_{read_type_map,pe|se|singleton|collapsed}.rlens.gz</text>
<text text-anchor="start" x="7.5" y="-1248" font-family="monospace" font-size="10.00" fill="#000000">stats/metadmg/damage/{sample,HD827sonic_1|HD827sonic_2}_{library,lib1|lib2}_{read_type_map,pe|se|singleton|collapsed}.stat.gz</text>
<polygon fill="#57d1d9" stroke="#57d1d9" points="1.5,-1376 1.5,-1376 795.5,-1376 795.5,-1376 1.5,-1376"/>
<polygon fill="#57d1d9" stroke="#57d1d9" points="1.5,-1336 1.5,-1336 795.5,-1336 795.5,-1336 1.5,-1336"/>
<polygon fill="none" stroke="#57d1d9" stroke-width="2" points="1,-1239 1,-1405 794,-1405 794,-1239 1,-1239"/>
</g>
<!-- 5&#45;&gt;11 -->
<g id="edge18" class="edge">
<title>5&#45;&gt;11</title>
<path fill="none" stroke="#c0c0c0" stroke-width="2" d="M1334.9558,-1718.4473C1208.4569,-1702.6407 1083.7515,-1683.4928 1024.5,-1664 842.0438,-1603.9746 650.82,-1491.3681 528.2463,-1411.7934"/>
<polygon fill="#c0c0c0" stroke="#c0c0c0" stroke-width="2" points="529.8301,-1408.648 519.5407,-1406.1223 526.0093,-1414.5133 529.8301,-1408.648"/>
</g>
<!-- 6 -->
<g id="node7" class="node">
<title>6</title>
<text text-anchor="start" x="1766.5" y="-1961.6" font-family="sans" font-weight="bold" font-size="18.00" fill="#000000">chunk_sort_query</text>
<text text-anchor="start" x="1370.5" y="-1937.8" font-family="sans" font-size="10.00" fill="#000000"> </text>
<text text-anchor="start" x="1374.5" y="-1937.8" font-family="sans" font-weight="bold" font-size="14.00" fill="#000000">↪ input</text>
<text text-anchor="start" x="1427.5" y="-1937.8" font-family="sans" font-size="10.00" fill="#000000"> </text>
<text text-anchor="start" x="1370.5" y="-1918" font-family="monospace" font-size="10.00" fill="#000000">temp/chunk/clean_header/{sample}_{library}_{read_type_map}.{ref}.{n_chunk}&#45;of&#45;{tot_chunks}.bam</text>
<text text-anchor="start" x="2250.5" y="-1897.8" font-family="sans" font-size="10.00" fill="#000000"> </text>
<text text-anchor="start" x="2254.5" y="-1897.8" font-family="sans" font-weight="bold" font-size="14.00" fill="#000000">output →</text>
<text text-anchor="start" x="2315.5" y="-1897.8" font-family="sans" font-size="10.00" fill="#000000"> </text>
<text text-anchor="start" x="1370.5" y="-1878" font-family="monospace" font-size="10.00" fill="#000000">temp/chunk/sort_query/{sample,HD827sonic_1|HD827sonic_2}_{library,lib1|lib2}_{read_type_map,pe|se|singleton|collapsed}.{ref}.{n_chunk}&#45;of&#45;{tot_chunks}.bam</text>
<text text-anchor="start" x="1370.5" y="-1860" font-family="monospace" font-size="10.00" fill="#000000">temp/chunk/sort_query/{sample,HD827sonic_1|HD827sonic_2}_{library,lib1|lib2}_{read_type_map,pe|se|singleton|collapsed}.{ref}.{n_chunk}&#45;of&#45;{tot_chunks}.bam.csi</text>
<polygon fill="#57d9a3" stroke="#57d9a3" points="1364.5,-1952 1364.5,-1952 2326.5,-1952 2326.5,-1952 1364.5,-1952"/>
<polygon fill="#57d9a3" stroke="#57d9a3" points="1364.5,-1912 1364.5,-1912 2326.5,-1912 2326.5,-1912 1364.5,-1912"/>
<polygon fill="none" stroke="#57d9a3" stroke-width="2" points="1364,-1851 1364,-1981 2325,-1981 2325,-1851 1364,-1851"/>
</g>
<!-- 6&#45;&gt;5 -->
<g id="edge11" class="edge">
<title>6&#45;&gt;5</title>
<path fill="none" stroke="#c0c0c0" stroke-width="2" d="M1785.5128,-1849.951C1777.238,-1840.6855 1768.739,-1831.169 1760.4831,-1821.9247"/>
<polygon fill="#c0c0c0" stroke="#c0c0c0" stroke-width="2" points="1762.8872,-1819.3622 1753.6156,-1814.235 1757.6662,-1824.025 1762.8872,-1819.3622"/>
</g>
<!-- 7&#45;&gt;6 -->
<g id="edge12" class="edge">
<title>7&#45;&gt;6</title>
<path fill="none" stroke="#c0c0c0" stroke-width="2" d="M2209.9246,-2017.9342C2171.4293,-2007.1961 2130.8017,-1995.8631 2091.1805,-1984.8109"/>
<polygon fill="#c0c0c0" stroke="#c0c0c0" stroke-width="2" points="2091.9749,-1981.3989 2081.4022,-1982.0832 2090.094,-1988.1415 2091.9749,-1981.3989"/>
</g>
<!-- 8 -->
<g id="node9" class="node">
<title>8</title>
<text text-anchor="start" x="2437" y="-1385.6" font-family="sans" font-weight="bold" font-size="18.00" fill="#000000">metadmg_dfit</text>
<text text-anchor="start" x="2105.5" y="-1361.8" font-family="sans" font-size="10.00" fill="#000000"> </text>
<text text-anchor="start" x="2109.5" y="-1361.8" font-family="sans" font-weight="bold" font-size="14.00" fill="#000000">↪ input</text>
<text text-anchor="start" x="2162.5" y="-1361.8" font-family="sans" font-size="10.00" fill="#000000"> </text>
<text text-anchor="start" x="2105.5" y="-1342" font-family="monospace" font-size="10.00" fill="#000000">/projects/caeg/data/db/aeDNA&#45;refs/resources/20230825/ncbi/taxonomy/names.dmp</text>
<text text-anchor="start" x="2105.5" y="-1324" font-family="monospace" font-size="10.00" fill="#000000">/projects/caeg/data/db/aeDNA&#45;refs/resources/20230825/ncbi/taxonomy/nodes.dmp</text>
<text text-anchor="start" x="2105.5" y="-1306" font-family="monospace" font-size="10.00" fill="#000000">results/metadmg/lca/{sample}_{library}_{read_type_map}.bdamage.gz</text>
<text text-anchor="start" x="2817.5" y="-1285.8" font-family="sans" font-size="10.00" fill="#000000"> </text>
<text text-anchor="start" x="2821.5" y="-1285.8" font-family="sans" font-weight="bold" font-size="14.00" fill="#000000">output →</text>
<text text-anchor="start" x="2882.5" y="-1285.8" font-family="sans" font-size="10.00" fill="#000000"> </text>
<text text-anchor="start" x="2105.5" y="-1266" font-family="monospace" font-size="10.00" fill="#000000">results/metadmg/dfit/{sample,HD827sonic_1|HD827sonic_2}_{library,lib1|lib2}_{read_type_map,pe|se|singleton|collapsed}.boot.stat.gz</text>
<text text-anchor="start" x="2105.5" y="-1248" font-family="monospace" font-size="10.00" fill="#000000">results/metadmg/dfit/{sample,HD827sonic_1|HD827sonic_2}_{library,lib1|lib2}_{read_type_map,pe|se|singleton|collapsed}.dfit.gz</text>
<polygon fill="#57b2d9" stroke="#57b2d9" points="2099.5,-1376 2099.5,-1376 2893.5,-1376 2893.5,-1376 2099.5,-1376"/>
<polygon fill="#57b2d9" stroke="#57b2d9" points="2099.5,-1300 2099.5,-1300 2893.5,-1300 2893.5,-1300 2099.5,-1300"/>
<polygon fill="none" stroke="#57b2d9" stroke-width="2" points="2099,-1239 2099,-1405 2892,-1405 2892,-1239 2099,-1239"/>
</g>
<!-- 8&#45;&gt;1 -->
<g id="edge6" class="edge">
<title>8&#45;&gt;1</title>
<path fill="none" stroke="#c0c0c0" stroke-width="2" d="M2813.9061,-1237.8996C2837.2603,-1226.7002 2855.2955,-1214.6723 2864.5,-1202 2917.7831,-1128.6423 2902.3097,-1080.4068 2864.5,-998 2831.0782,-925.1567 2773.8443,-861.8855 2712.9167,-810.1252"/>
<polygon fill="#c0c0c0" stroke="#c0c0c0" stroke-width="2" points="2714.9899,-807.2958 2705.0804,-803.5472 2710.4894,-812.6573 2714.9899,-807.2958"/>
</g>
<!-- 10 -->
<g id="node11" class="node">
<title>10</title>
<text text-anchor="start" x="2376.5" y="-1172.6" font-family="sans" font-weight="bold" font-size="18.00" fill="#000000">metadmg_aggregate</text>
<text text-anchor="start" x="2079.5" y="-1148.8" font-family="sans" font-size="10.00" fill="#000000"> </text>
<text text-anchor="start" x="2083.5" y="-1148.8" font-family="sans" font-weight="bold" font-size="14.00" fill="#000000">↪ input</text>
<text text-anchor="start" x="2136.5" y="-1148.8" font-family="sans" font-size="10.00" fill="#000000"> </text>
<text text-anchor="start" x="2079.5" y="-1129" font-family="monospace" font-size="10.00" fill="#000000">/projects/caeg/data/db/aeDNA&#45;refs/resources/20230825/ncbi/taxonomy/names.dmp</text>
<text text-anchor="start" x="2079.5" y="-1111" font-family="monospace" font-size="10.00" fill="#000000">/projects/caeg/data/db/aeDNA&#45;refs/resources/20230825/ncbi/taxonomy/nodes.dmp</text>
<text text-anchor="start" x="2079.5" y="-1093" font-family="monospace" font-size="10.00" fill="#000000">results/metadmg/dfit/{sample}_{library}_{read_type_map}.dfit.gz</text>
<text text-anchor="start" x="2079.5" y="-1075" font-family="monospace" font-size="10.00" fill="#000000">results/metadmg/lca/{sample}_{library}_{read_type_map}.bdamage.gz</text>
<text text-anchor="start" x="2079.5" y="-1057" font-family="monospace" font-size="10.00" fill="#000000">stats/metadmg/lca/{sample}_{library}_{read_type_map}.stat.gz</text>
<text text-anchor="start" x="2779.5" y="-1036.8" font-family="sans" font-size="10.00" fill="#000000"> </text>
<text text-anchor="start" x="2783.5" y="-1036.8" font-family="sans" font-weight="bold" font-size="14.00" fill="#000000">output →</text>
<text text-anchor="start" x="2844.5" y="-1036.8" font-family="sans" font-size="10.00" fill="#000000"> </text>
<text text-anchor="start" x="2079.5" y="-1017" font-family="monospace" font-size="10.00" fill="#000000">stats/metadmg/aggregate/{sample,HD827sonic_1|HD827sonic_2}_{library,lib1|lib2}_{read_type_map,pe|se|singleton|collapsed}.stat.gz</text>
<polygon fill="#57d9c2" stroke="#57d9c2" points="2073.5,-1163 2073.5,-1163 2855.5,-1163 2855.5,-1163 2073.5,-1163"/>
<polygon fill="#57d9c2" stroke="#57d9c2" points="2073.5,-1051 2073.5,-1051 2855.5,-1051 2855.5,-1051 2073.5,-1051"/>
<polygon fill="none" stroke="#57d9c2" stroke-width="2" points="2073,-1008 2073,-1192 2854,-1192 2854,-1008 2073,-1008"/>
</g>
<!-- 8&#45;&gt;10 -->
<g id="edge17" class="edge">
<title>8&#45;&gt;10</title>
<path fill="none" stroke="#c0c0c0" stroke-width="2" d="M2483.3565,-1237.7548C2481.7292,-1226.4652 2480.0453,-1214.783 2478.3777,-1203.2142"/>
<polygon fill="#c0c0c0" stroke="#c0c0c0" stroke-width="2" points="2481.8093,-1202.4878 2476.9183,-1193.0895 2474.8809,-1203.4866 2481.8093,-1202.4878"/>
</g>
<!-- 9&#45;&gt;8 -->
<g id="edge14" class="edge">
<title>9&#45;&gt;8</title>
<path fill="none" stroke="#c0c0c0" stroke-width="2" d="M2348.093,-1441.898C2360.1005,-1432.1313 2372.1597,-1422.3226 2383.9264,-1412.7518"/>
<polygon fill="#c0c0c0" stroke="#c0c0c0" stroke-width="2" points="2386.4723,-1415.1926 2392.0216,-1406.1673 2382.0553,-1409.7621 2386.4723,-1415.1926"/>
</g>
<!-- 9&#45;&gt;10 -->
<g id="edge16" class="edge">
<title>9&#45;&gt;10</title>
<path fill="none" stroke="#c0c0c0" stroke-width="2" d="M2106.8595,-1441.8583C2099.9267,-1430.3417 2093.9473,-1418.3223 2089.5,-1406 2064.1522,-1335.7675 2046.8082,-1299.2579 2089.5,-1238 2099.146,-1224.1591 2118.6817,-1210.5851 2143.9905,-1197.6783"/>
<polygon fill="#c0c0c0" stroke="#c0c0c0" stroke-width="2" points="2145.7603,-1200.7079 2153.1766,-1193.1415 2142.6606,-1194.4316 2145.7603,-1200.7079"/>
</g>
<!-- 10&#45;&gt;0 -->
<g id="edge4" class="edge">
<title>10&#45;&gt;0</title>
<path fill="none" stroke="#c0c0c0" stroke-width="2" d="M2277.5274,-1006.9547C2255.1777,-993.0177 2233.2912,-977.9332 2213.5,-962 1974.6716,-769.7277 1750.6217,-491.206 1620.8529,-316.4901"/>
<polygon fill="#c0c0c0" stroke="#c0c0c0" stroke-width="2" points="1623.5115,-314.1992 1614.745,-308.2495 1617.8879,-318.3675 1623.5115,-314.1992"/>
</g>
<!-- 10&#45;&gt;1 -->
<g id="edge5" class="edge">
<title>10&#45;&gt;1</title>
<path fill="none" stroke="#c0c0c0" stroke-width="2" d="M2463.5,-1006.8383C2463.5,-995.944 2463.5,-984.4147 2463.5,-972.4312"/>
<polygon fill="#c0c0c0" stroke="#c0c0c0" stroke-width="2" points="2467.0001,-972.2623 2463.5,-962.2623 2460.0001,-972.2623 2467.0001,-972.2623"/>
</g>
<!-- 11&#45;&gt;0 -->
<g id="edge1" class="edge">
<title>11&#45;&gt;0</title>
<path fill="none" stroke="#c0c0c0" stroke-width="2" d="M390.9706,-1237.9807C381.178,-1046.238 387.0141,-575.168 653.5,-344 749.3345,-260.8666 1084.2415,-205.2048 1304.5176,-176.6398"/>
<polygon fill="#c0c0c0" stroke="#c0c0c0" stroke-width="2" points="1305.1209,-180.0911 1314.5916,-175.3419 1304.2263,-173.1484 1305.1209,-180.0911"/>
</g>
<!-- 12 -->
<g id="node13" class="node">
<title>12</title>
<text text-anchor="start" x="974.5" y="-725.6" font-family="sans" font-weight="bold" font-size="18.00" fill="#000000">align_bam_filter_lca</text>
<text text-anchor="start" x="670.5" y="-701.8" font-family="sans" font-size="10.00" fill="#000000"> </text>
<text text-anchor="start" x="674.5" y="-701.8" font-family="sans" font-weight="bold" font-size="14.00" fill="#000000">↪ input</text>
<text text-anchor="start" x="727.5" y="-701.8" font-family="sans" font-size="10.00" fill="#000000"> </text>
<text text-anchor="start" x="670.5" y="-682" font-family="monospace" font-size="10.00" fill="#000000">/projects/caeg/data/db/aeDNA&#45;refs/resources/20230825/ncbi/taxonomy/names.dmp</text>
<text text-anchor="start" x="670.5" y="-664" font-family="monospace" font-size="10.00" fill="#000000">/projects/caeg/data/db/aeDNA&#45;refs/resources/20230825/ncbi/taxonomy/nodes.dmp</text>
<text text-anchor="start" x="670.5" y="-646" font-family="monospace" font-size="10.00" fill="#000000">/projects/caeg/data/db/mikkels/combined_accession2taxid_20221112.gz</text>
<text text-anchor="start" x="670.5" y="-628" font-family="monospace" font-size="10.00" fill="#000000">&lt;function &lt;lambda&gt; at 0x7f6eb8700ae0&gt;</text>
<text text-anchor="start" x="670.5" y="-610" font-family="monospace" font-size="10.00" fill="#000000">stats/align/filter/{sample}_{library}_{read_type_map}.stats&#45;filtered.tsv.gz</text>
<text text-anchor="start" x="1382.5" y="-589.8" font-family="sans" font-size="10.00" fill="#000000"> </text>
<text text-anchor="start" x="1386.5" y="-589.8" font-family="sans" font-weight="bold" font-size="14.00" fill="#000000">output →</text>
<text text-anchor="start" x="1447.5" y="-589.8" font-family="sans" font-size="10.00" fill="#000000"> </text>
<text text-anchor="start" x="670.5" y="-570" font-family="monospace" font-size="10.00" fill="#000000">temp/align/bam_filter_lca/{sample,HD827sonic_1|HD827sonic_2}_{library,lib1|lib2}_{read_type_map,pe|se|singleton|collapsed}.summary</text>
<polygon fill="#d95757" stroke="#d95757" points="664.5,-716 664.5,-716 1458.5,-716 1458.5,-716 664.5,-716"/>
<polygon fill="#d95757" stroke="#d95757" points="664.5,-604 664.5,-604 1458.5,-604 1458.5,-604 664.5,-604"/>
<polygon fill="none" stroke="#d95757" stroke-width="2" points="664,-561 664,-745 1457,-745 1457,-561 664,-561"/>
</g>
<!-- 12&#45;&gt;0 -->
<g id="edge3" class="edge">
<title>12&#45;&gt;0</title>
<path fill="none" stroke="#c0c0c0" stroke-width="2" d="M1143.6791,-559.7273C1204.7258,-491.2726 1289.1858,-396.5636 1361.1508,-315.8658"/>
<polygon fill="#c0c0c0" stroke="#c0c0c0" stroke-width="2" points="1364.0314,-317.8943 1368.0749,-308.1014 1358.807,-313.2353 1364.0314,-317.8943"/>
</g>
<!-- 13 -->
<g id="node14" class="node">
<title>13</title>
<text text-anchor="start" x="792" y="-1181.6" font-family="sans" font-weight="bold" font-size="18.00" fill="#000000">align_filter</text>
<text text-anchor="start" x="423.5" y="-1157.8" font-family="sans" font-size="10.00" fill="#000000"> </text>
<text text-anchor="start" x="427.5" y="-1157.8" font-family="sans" font-weight="bold" font-size="14.00" fill="#000000">↪ input</text>
<text text-anchor="start" x="480.5" y="-1157.8" font-family="sans" font-size="10.00" fill="#000000"> </text>
<text text-anchor="start" x="423.5" y="-1138" font-family="monospace" font-size="10.00" fill="#000000">&lt;function &lt;lambda&gt; at 0x7f6eb8700900&gt;</text>
<text text-anchor="start" x="1183.5" y="-1117.8" font-family="sans" font-size="10.00" fill="#000000"> </text>
<text text-anchor="start" x="1187.5" y="-1117.8" font-family="sans" font-weight="bold" font-size="14.00" fill="#000000">output →</text>
<text text-anchor="start" x="1248.5" y="-1117.8" font-family="sans" font-size="10.00" fill="#000000"> </text>
<text text-anchor="start" x="423.5" y="-1098" font-family="monospace" font-size="10.00" fill="#000000">stats/align/filter/{sample,HD827sonic_1|HD827sonic_2}_{library,lib1|lib2}_{read_type_map,pe|se|singleton|collapsed}.read&#45;hits&#45;count.tsv.gz</text>
<text text-anchor="start" x="423.5" y="-1080" font-family="monospace" font-size="10.00" fill="#000000">stats/align/filter/{sample,HD827sonic_1|HD827sonic_2}_{library,lib1|lib2}_{read_type_map,pe|se|singleton|collapsed}.read&#45;length&#45;freqs.json</text>
<text text-anchor="start" x="423.5" y="-1062" font-family="monospace" font-size="10.00" fill="#000000">stats/align/filter/{sample,HD827sonic_1|HD827sonic_2}_{library,lib1|lib2}_{read_type_map,pe|se|singleton|collapsed}.stats&#45;filtered.tsv.gz</text>
<text text-anchor="start" x="423.5" y="-1044" font-family="monospace" font-size="10.00" fill="#000000">stats/align/filter/{sample,HD827sonic_1|HD827sonic_2}_{library,lib1|lib2}_{read_type_map,pe|se|singleton|collapsed}.stats.tsv.gz</text>
<text text-anchor="start" x="423.5" y="-1026" font-family="monospace" font-size="10.00" fill="#000000">temp/align/filter/{sample,HD827sonic_1|HD827sonic_2}_{library,lib1|lib2}_{read_type_map,pe|se|singleton|collapsed}.bam</text>
<text text-anchor="start" x="423.5" y="-1008" font-family="monospace" font-size="10.00" fill="#000000">temp/align/filter/{sample,HD827sonic_1|HD827sonic_2}_{library,lib1|lib2}_{read_type_map,pe|se|singleton|collapsed}.bam.csi</text>
<polygon fill="#d97557" stroke="#d97557" points="417.5,-1172 417.5,-1172 1259.5,-1172 1259.5,-1172 417.5,-1172"/>
<polygon fill="#d97557" stroke="#d97557" points="417.5,-1132 417.5,-1132 1259.5,-1132 1259.5,-1132 417.5,-1132"/>
<polygon fill="none" stroke="#d97557" stroke-width="2" points="417,-999 417,-1201 1258,-1201 1258,-999 417,-999"/>
</g>
<!-- 13&#45;&gt;12 -->
<g id="edge19" class="edge">
<title>13&#45;&gt;12</title>
<path fill="none" stroke="#c0c0c0" stroke-width="2" d="M888.5209,-997.7294C924.7695,-925.0696 973.2462,-827.8988 1009.492,-755.2447"/>
<polygon fill="#c0c0c0" stroke="#c0c0c0" stroke-width="2" points="1012.7414,-756.5716 1014.0736,-746.0609 1006.4776,-753.4467 1012.7414,-756.5716"/>
</g>
<!-- 14&#45;&gt;13 -->
<g id="edge20" class="edge">
<title>14&#45;&gt;13</title>
<path fill="none" stroke="#c0c0c0" stroke-width="2" d="M1112.9484,-1255.9937C1085.7317,-1240.5802 1056.0548,-1223.7734 1026.5864,-1207.0847"/>
<polygon fill="#c0c0c0" stroke="#c0c0c0" stroke-width="2" points="1028.2947,-1204.0298 1017.8684,-1202.1474 1024.8452,-1210.1209 1028.2947,-1204.0298"/>
</g>
</g>
</svg>
