<?xml version="1.0" encoding="UTF-8" standalone="no"?>
<!DOCTYPE svg PUBLIC "-//W3C//DTD SVG 1.1//EN"
 "http://www.w3.org/Graphics/SVG/1.1/DTD/svg11.dtd">
<!-- Generated by graphviz version 2.40.1 (0)
 -->
<!-- Title: snakemake_dag Pages: 1 -->
<svg width="401pt" height="1052pt"
 viewBox="0.00 0.00 400.50 1052.00" xmlns="http://www.w3.org/2000/svg" xmlns:xlink="http://www.w3.org/1999/xlink">
<g id="graph0" class="graph" transform="scale(1 1) rotate(0) translate(4 1048)">
<title>snakemake_dag</title>
<polygon fill="#ffffff" stroke="transparent" points="-4,4 -4,-1048 396.5,-1048 396.5,4 -4,4"/>
<!-- 0 -->
<g id="node1" class="node">
<title>0</title>
<path fill="none" stroke="#d88556" stroke-width="2" d="M275,-36C275,-36 245,-36 245,-36 239,-36 233,-30 233,-24 233,-24 233,-12 233,-12 233,-6 239,0 245,0 245,0 275,0 275,0 281,0 287,-6 287,-12 287,-12 287,-24 287,-24 287,-30 281,-36 275,-36"/>
<text text-anchor="middle" x="260" y="-15.5" font-family="sans" font-size="10.00" fill="#000000">all</text>
</g>
<!-- 1 -->
<g id="node2" class="node">
<title>1</title>
<path fill="none" stroke="#56d0d8" stroke-width="2" d="M111,-108C111,-108 81,-108 81,-108 75,-108 69,-102 69,-96 69,-96 69,-84 69,-84 69,-78 75,-72 81,-72 81,-72 111,-72 111,-72 117,-72 123,-78 123,-84 123,-84 123,-96 123,-96 123,-102 117,-108 111,-108"/>
<text text-anchor="middle" x="96" y="-87.5" font-family="sans" font-size="10.00" fill="#000000">multiqc</text>
</g>
<!-- 1&#45;&gt;0 -->
<g id="edge2" class="edge">
<title>1&#45;&gt;0</title>
<path fill="none" stroke="#c0c0c0" stroke-width="2" d="M123.0813,-78.1107C150.5004,-66.073 193.0813,-47.3789 223.4738,-34.0359"/>
<polygon fill="#c0c0c0" stroke="#c0c0c0" stroke-width="2" points="225.129,-37.1317 232.8785,-29.907 222.3151,-30.7222 225.129,-37.1317"/>
</g>
<!-- 2 -->
<g id="node3" class="node">
<title>2</title>
<path fill="none" stroke="#56d87b" stroke-width="2" d="M47,-1044C47,-1044 17,-1044 17,-1044 11,-1044 5,-1038 5,-1032 5,-1032 5,-1020 5,-1020 5,-1014 11,-1008 17,-1008 17,-1008 47,-1008 47,-1008 53,-1008 59,-1014 59,-1020 59,-1020 59,-1032 59,-1032 59,-1038 53,-1044 47,-1044"/>
<text text-anchor="middle" x="32" y="-1023.5" font-family="sans" font-size="10.00" fill="#000000">bowtie2</text>
</g>
<!-- 2&#45;&gt;1 -->
<g id="edge5" class="edge">
<title>2&#45;&gt;1</title>
<path fill="none" stroke="#c0c0c0" stroke-width="2" d="M25.2136,-1007.6497C15.8203,-980.5619 0,-928.0977 0,-882 0,-882 0,-882 0,-234 0,-185.9377 37.4817,-141.7161 65.6044,-115.3006"/>
<polygon fill="#c0c0c0" stroke="#c0c0c0" stroke-width="2" points="68.2155,-117.6565 73.2493,-108.3339 63.5005,-112.4826 68.2155,-117.6565"/>
</g>
<!-- 5 -->
<g id="node6" class="node">
<title>5</title>
<path fill="none" stroke="#56a2d8" stroke-width="2" d="M90,-972C90,-972 40,-972 40,-972 34,-972 28,-966 28,-960 28,-960 28,-948 28,-948 28,-942 34,-936 40,-936 40,-936 90,-936 90,-936 96,-936 102,-942 102,-948 102,-948 102,-960 102,-960 102,-966 96,-972 90,-972"/>
<text text-anchor="middle" x="65" y="-951.5" font-family="sans" font-size="10.00" fill="#000000">clean_header</text>
</g>
<!-- 2&#45;&gt;5 -->
<g id="edge12" class="edge">
<title>2&#45;&gt;5</title>
<path fill="none" stroke="#c0c0c0" stroke-width="2" d="M40.3273,-1007.8314C43.973,-999.8771 48.3309,-990.369 52.3627,-981.5723"/>
<polygon fill="#c0c0c0" stroke="#c0c0c0" stroke-width="2" points="55.5757,-982.9622 56.5606,-972.4133 49.2123,-980.0456 55.5757,-982.9622"/>
</g>
<!-- 3 -->
<g id="node4" class="node">
<title>3</title>
<path fill="none" stroke="#d8a456" stroke-width="2" d="M80,-828C80,-828 50,-828 50,-828 44,-828 38,-822 38,-816 38,-816 38,-804 38,-804 38,-798 44,-792 50,-792 50,-792 80,-792 80,-792 86,-792 92,-798 92,-804 92,-804 92,-816 92,-816 92,-822 86,-828 80,-828"/>
<text text-anchor="middle" x="65" y="-807.5" font-family="sans" font-size="10.00" fill="#000000">markdup</text>
</g>
<!-- 3&#45;&gt;1 -->
<g id="edge7" class="edge">
<title>3&#45;&gt;1</title>
<path fill="none" stroke="#c0c0c0" stroke-width="2" d="M59.274,-791.5668C51.3484,-764.3758 38,-711.7842 38,-666 38,-666 38,-666 38,-234 38,-190.6562 60.8892,-144.9417 77.9093,-116.9402"/>
<polygon fill="#c0c0c0" stroke="#c0c0c0" stroke-width="2" points="81.0719,-118.4847 83.4149,-108.1522 75.1398,-114.7684 81.0719,-118.4847"/>
</g>
<!-- 8 -->
<g id="node9" class="node">
<title>8</title>
<path fill="none" stroke="#c6d856" stroke-width="2" d="M115,-756C115,-756 85,-756 85,-756 79,-756 73,-750 73,-744 73,-744 73,-732 73,-732 73,-726 79,-720 85,-720 85,-720 115,-720 115,-720 121,-720 127,-726 127,-732 127,-732 127,-744 127,-744 127,-750 121,-756 115,-756"/>
<text text-anchor="middle" x="100" y="-735.5" font-family="sans" font-size="10.00" fill="#000000">calmd</text>
</g>
<!-- 3&#45;&gt;8 -->
<g id="edge15" class="edge">
<title>3&#45;&gt;8</title>
<path fill="none" stroke="#c0c0c0" stroke-width="2" d="M73.832,-791.8314C77.6986,-783.8771 82.3206,-774.369 86.5968,-765.5723"/>
<polygon fill="#c0c0c0" stroke="#c0c0c0" stroke-width="2" points="89.8249,-766.9371 91.0491,-756.4133 83.5293,-763.8768 89.8249,-766.9371"/>
</g>
<!-- 4 -->
<g id="node5" class="node">
<title>4</title>
<path fill="none" stroke="#61d856" stroke-width="2" d="M84,-900C84,-900 46,-900 46,-900 40,-900 34,-894 34,-888 34,-888 34,-876 34,-876 34,-870 40,-864 46,-864 46,-864 84,-864 84,-864 90,-864 96,-870 96,-876 96,-876 96,-888 96,-888 96,-894 90,-900 84,-900"/>
<text text-anchor="middle" x="65" y="-879.5" font-family="sans" font-size="10.00" fill="#000000">sort_coord</text>
</g>
<!-- 4&#45;&gt;3 -->
<g id="edge10" class="edge">
<title>4&#45;&gt;3</title>
<path fill="none" stroke="#c0c0c0" stroke-width="2" d="M65,-863.8314C65,-856.131 65,-846.9743 65,-838.4166"/>
<polygon fill="#c0c0c0" stroke="#c0c0c0" stroke-width="2" points="68.5001,-838.4132 65,-828.4133 61.5001,-838.4133 68.5001,-838.4132"/>
</g>
<!-- 5&#45;&gt;4 -->
<g id="edge11" class="edge">
<title>5&#45;&gt;4</title>
<path fill="none" stroke="#c0c0c0" stroke-width="2" d="M65,-935.8314C65,-928.131 65,-918.9743 65,-910.4166"/>
<polygon fill="#c0c0c0" stroke="#c0c0c0" stroke-width="2" points="68.5001,-910.4132 65,-900.4133 61.5001,-910.4133 68.5001,-910.4132"/>
</g>
<!-- 6 -->
<g id="node7" class="node">
<title>6</title>
<path fill="none" stroke="#d8d356" stroke-width="2" d="M137.5,-540C137.5,-540 78.5,-540 78.5,-540 72.5,-540 66.5,-534 66.5,-528 66.5,-528 66.5,-516 66.5,-516 66.5,-510 72.5,-504 78.5,-504 78.5,-504 137.5,-504 137.5,-504 143.5,-504 149.5,-510 149.5,-516 149.5,-516 149.5,-528 149.5,-528 149.5,-534 143.5,-540 137.5,-540"/>
<text text-anchor="middle" x="108" y="-519.5" font-family="sans" font-size="10.00" fill="#000000">samtools_stats</text>
</g>
<!-- 6&#45;&gt;1 -->
<g id="edge8" class="edge">
<title>6&#45;&gt;1</title>
<path fill="none" stroke="#c0c0c0" stroke-width="2" d="M101.2136,-503.6497C91.8203,-476.5619 76,-424.0977 76,-378 76,-378 76,-378 76,-234 76,-193.3124 83.9304,-146.7676 89.8037,-117.8757"/>
<polygon fill="#c0c0c0" stroke="#c0c0c0" stroke-width="2" points="93.2324,-118.5786 91.856,-108.0735 86.3809,-117.144 93.2324,-118.5786"/>
</g>
<!-- 7 -->
<g id="node8" class="node">
<title>7</title>
<path fill="none" stroke="#56d863" stroke-width="2" d="M129.5,-684C129.5,-684 86.5,-684 86.5,-684 80.5,-684 74.5,-678 74.5,-672 74.5,-672 74.5,-660 74.5,-660 74.5,-654 80.5,-648 86.5,-648 86.5,-648 129.5,-648 129.5,-648 135.5,-648 141.5,-654 141.5,-660 141.5,-660 141.5,-672 141.5,-672 141.5,-678 135.5,-684 129.5,-684"/>
<text text-anchor="middle" x="108" y="-663.5" font-family="sans" font-size="10.00" fill="#000000">merge_alns</text>
</g>
<!-- 7&#45;&gt;6 -->
<g id="edge13" class="edge">
<title>7&#45;&gt;6</title>
<path fill="none" stroke="#c0c0c0" stroke-width="2" d="M108,-647.7623C108,-623.201 108,-579.2474 108,-550.3541"/>
<polygon fill="#c0c0c0" stroke="#c0c0c0" stroke-width="2" points="111.5001,-550.0896 108,-540.0896 104.5001,-550.0897 111.5001,-550.0896"/>
</g>
<!-- 14 -->
<g id="node15" class="node">
<title>14</title>
<path fill="none" stroke="#568ad8" stroke-width="2" d="M262,-612C262,-612 186,-612 186,-612 180,-612 174,-606 174,-600 174,-600 174,-588 174,-588 174,-582 180,-576 186,-576 186,-576 262,-576 262,-576 268,-576 274,-582 274,-588 274,-588 274,-600 274,-600 274,-606 268,-612 262,-612"/>
<text text-anchor="middle" x="224" y="-591.5" font-family="sans" font-size="10.00" fill="#000000">sort_merged_coord</text>
</g>
<!-- 7&#45;&gt;14 -->
<g id="edge21" class="edge">
<title>7&#45;&gt;14</title>
<path fill="none" stroke="#c0c0c0" stroke-width="2" d="M137.2717,-647.8314C152.1088,-638.6221 170.3015,-627.3301 186.1862,-617.4706"/>
<polygon fill="#c0c0c0" stroke="#c0c0c0" stroke-width="2" points="188.087,-620.4102 194.7377,-612.1628 184.3955,-614.4628 188.087,-620.4102"/>
</g>
<!-- 8&#45;&gt;7 -->
<g id="edge14" class="edge">
<title>8&#45;&gt;7</title>
<path fill="none" stroke="#c0c0c0" stroke-width="2" d="M102.0187,-719.8314C102.8743,-712.131 103.8917,-702.9743 104.8426,-694.4166"/>
<polygon fill="#c0c0c0" stroke="#c0c0c0" stroke-width="2" points="108.3283,-694.7386 105.9541,-684.4133 101.3711,-693.9656 108.3283,-694.7386"/>
</g>
<!-- 9 -->
<g id="node10" class="node">
<title>9</title>
<path fill="none" stroke="#78d856" stroke-width="2" d="M168,-252C168,-252 116,-252 116,-252 110,-252 104,-246 104,-240 104,-240 104,-228 104,-228 104,-222 110,-216 116,-216 116,-216 168,-216 168,-216 174,-216 180,-222 180,-228 180,-228 180,-240 180,-240 180,-246 174,-252 168,-252"/>
<text text-anchor="middle" x="142" y="-231.5" font-family="sans" font-size="10.00" fill="#000000">metadmg_dfit</text>
</g>
<!-- 9&#45;&gt;1 -->
<g id="edge6" class="edge">
<title>9&#45;&gt;1</title>
<path fill="none" stroke="#c0c0c0" stroke-width="2" d="M136.1741,-215.7623C128.2935,-191.0928 114.1635,-146.8598 104.9358,-117.9731"/>
<polygon fill="#c0c0c0" stroke="#c0c0c0" stroke-width="2" points="108.1557,-116.5503 101.7786,-108.0896 101.4876,-118.6805 108.1557,-116.5503"/>
</g>
<!-- 15 -->
<g id="node16" class="node">
<title>15</title>
<path fill="none" stroke="#56d8c9" stroke-width="2" d="M239.5,-180C239.5,-180 158.5,-180 158.5,-180 152.5,-180 146.5,-174 146.5,-168 146.5,-168 146.5,-156 146.5,-156 146.5,-150 152.5,-144 158.5,-144 158.5,-144 239.5,-144 239.5,-144 245.5,-144 251.5,-150 251.5,-156 251.5,-156 251.5,-168 251.5,-168 251.5,-174 245.5,-180 239.5,-180"/>
<text text-anchor="middle" x="199" y="-159.5" font-family="sans" font-size="10.00" fill="#000000">metadmg_aggregate</text>
</g>
<!-- 9&#45;&gt;15 -->
<g id="edge22" class="edge">
<title>9&#45;&gt;15</title>
<path fill="none" stroke="#c0c0c0" stroke-width="2" d="M156.3835,-215.8314C162.9486,-207.5386 170.8507,-197.557 178.0578,-188.4533"/>
<polygon fill="#c0c0c0" stroke="#c0c0c0" stroke-width="2" points="180.9599,-190.4262 184.4228,-180.4133 175.4716,-186.0813 180.9599,-190.4262"/>
</g>
<!-- 10 -->
<g id="node11" class="node">
<title>10</title>
<path fill="none" stroke="#5673d8" stroke-width="2" d="M233.5,-324C233.5,-324 182.5,-324 182.5,-324 176.5,-324 170.5,-318 170.5,-312 170.5,-312 170.5,-300 170.5,-300 170.5,-294 176.5,-288 182.5,-288 182.5,-288 233.5,-288 233.5,-288 239.5,-288 245.5,-294 245.5,-300 245.5,-300 245.5,-312 245.5,-312 245.5,-318 239.5,-324 233.5,-324"/>
<text text-anchor="middle" x="208" y="-303.5" font-family="sans" font-size="10.00" fill="#000000">metadmg_lca</text>
</g>
<!-- 10&#45;&gt;9 -->
<g id="edge16" class="edge">
<title>10&#45;&gt;9</title>
<path fill="none" stroke="#c0c0c0" stroke-width="2" d="M191.3454,-287.8314C183.5886,-279.3694 174.2198,-269.1489 165.739,-259.8971"/>
<polygon fill="#c0c0c0" stroke="#c0c0c0" stroke-width="2" points="168.2162,-257.4198 158.8788,-252.4133 163.0561,-262.1499 168.2162,-257.4198"/>
</g>
<!-- 10&#45;&gt;15 -->
<g id="edge23" class="edge">
<title>10&#45;&gt;15</title>
<path fill="none" stroke="#c0c0c0" stroke-width="2" d="M206.8601,-287.7623C205.3251,-263.201 202.578,-219.2474 200.7721,-190.3541"/>
<polygon fill="#c0c0c0" stroke="#c0c0c0" stroke-width="2" points="204.2477,-189.8518 200.1306,-180.0896 197.2613,-190.2885 204.2477,-189.8518"/>
</g>
<!-- 11 -->
<g id="node12" class="node">
<title>11</title>
<path fill="none" stroke="#56d8a9" stroke-width="2" d="M285,-396C285,-396 209,-396 209,-396 203,-396 197,-390 197,-384 197,-384 197,-372 197,-372 197,-366 203,-360 209,-360 209,-360 285,-360 285,-360 291,-360 297,-366 297,-372 297,-372 297,-384 297,-384 297,-390 291,-396 285,-396"/>
<text text-anchor="middle" x="247" y="-375.5" font-family="sans" font-size="10.00" fill="#000000">sort_merged_name</text>
</g>
<!-- 11&#45;&gt;10 -->
<g id="edge17" class="edge">
<title>11&#45;&gt;10</title>
<path fill="none" stroke="#c0c0c0" stroke-width="2" d="M237.1587,-359.8314C232.8043,-351.7925 227.5902,-342.1666 222.7831,-333.2918"/>
<polygon fill="#c0c0c0" stroke="#c0c0c0" stroke-width="2" points="225.8143,-331.5392 217.9739,-324.4133 219.6592,-334.8732 225.8143,-331.5392"/>
</g>
<!-- 16 -->
<g id="node17" class="node">
<title>16</title>
<path fill="none" stroke="#97d856" stroke-width="2" d="M321.5,-252C321.5,-252 248.5,-252 248.5,-252 242.5,-252 236.5,-246 236.5,-240 236.5,-240 236.5,-228 236.5,-228 236.5,-222 242.5,-216 248.5,-216 248.5,-216 321.5,-216 321.5,-216 327.5,-216 333.5,-222 333.5,-228 333.5,-228 333.5,-240 333.5,-240 333.5,-246 327.5,-252 321.5,-252"/>
<text text-anchor="middle" x="285" y="-231.5" font-family="sans" font-size="10.00" fill="#000000">metadmg_damage</text>
</g>
<!-- 11&#45;&gt;16 -->
<g id="edge24" class="edge">
<title>11&#45;&gt;16</title>
<path fill="none" stroke="#c0c0c0" stroke-width="2" d="M251.8127,-359.7623C258.3227,-335.0928 269.9953,-290.8598 277.6182,-261.9731"/>
<polygon fill="#c0c0c0" stroke="#c0c0c0" stroke-width="2" points="281.0589,-262.6517 280.2264,-252.0896 274.2906,-260.8656 281.0589,-262.6517"/>
</g>
<!-- 12 -->
<g id="node13" class="node">
<title>12</title>
<path fill="none" stroke="#afd856" stroke-width="2" d="M276.5,-468C276.5,-468 217.5,-468 217.5,-468 211.5,-468 205.5,-462 205.5,-456 205.5,-456 205.5,-444 205.5,-444 205.5,-438 211.5,-432 217.5,-432 217.5,-432 276.5,-432 276.5,-432 282.5,-432 288.5,-438 288.5,-444 288.5,-444 288.5,-456 288.5,-456 288.5,-462 282.5,-468 276.5,-468"/>
<text text-anchor="middle" x="247" y="-447.5" font-family="sans" font-size="10.00" fill="#000000">bam_filter_filter</text>
</g>
<!-- 12&#45;&gt;11 -->
<g id="edge18" class="edge">
<title>12&#45;&gt;11</title>
<path fill="none" stroke="#c0c0c0" stroke-width="2" d="M247,-431.8314C247,-424.131 247,-414.9743 247,-406.4166"/>
<polygon fill="#c0c0c0" stroke="#c0c0c0" stroke-width="2" points="250.5001,-406.4132 247,-396.4133 243.5001,-406.4133 250.5001,-406.4132"/>
</g>
<!-- 17 -->
<g id="node18" class="node">
<title>17</title>
<path fill="none" stroke="#d85656" stroke-width="2" d="M380.5,-324C380.5,-324 327.5,-324 327.5,-324 321.5,-324 315.5,-318 315.5,-312 315.5,-312 315.5,-300 315.5,-300 315.5,-294 321.5,-288 327.5,-288 327.5,-288 380.5,-288 380.5,-288 386.5,-288 392.5,-294 392.5,-300 392.5,-300 392.5,-312 392.5,-312 392.5,-318 386.5,-324 380.5,-324"/>
<text text-anchor="middle" x="354" y="-303.5" font-family="sans" font-size="10.00" fill="#000000">bam_filter_lca</text>
</g>
<!-- 12&#45;&gt;17 -->
<g id="edge25" class="edge">
<title>12&#45;&gt;17</title>
<path fill="none" stroke="#c0c0c0" stroke-width="2" d="M270.3257,-431.8626C281.9574,-422.0651 295.7015,-409.2753 306,-396 320.9738,-376.6979 333.7483,-352.0637 342.3454,-333.4491"/>
<polygon fill="#c0c0c0" stroke="#c0c0c0" stroke-width="2" points="345.5398,-334.8795 346.45,-324.3238 339.1558,-332.008 345.5398,-334.8795"/>
</g>
<!-- 13 -->
<g id="node14" class="node">
<title>13</title>
<path fill="none" stroke="#d86e56" stroke-width="2" d="M274.5,-540C274.5,-540 197.5,-540 197.5,-540 191.5,-540 185.5,-534 185.5,-528 185.5,-528 185.5,-516 185.5,-516 185.5,-510 191.5,-504 197.5,-504 197.5,-504 274.5,-504 274.5,-504 280.5,-504 286.5,-510 286.5,-516 286.5,-516 286.5,-528 286.5,-528 286.5,-534 280.5,-540 274.5,-540"/>
<text text-anchor="middle" x="236" y="-519.5" font-family="sans" font-size="10.00" fill="#000000">bam_filter_reassign</text>
</g>
<!-- 13&#45;&gt;12 -->
<g id="edge19" class="edge">
<title>13&#45;&gt;12</title>
<path fill="none" stroke="#c0c0c0" stroke-width="2" d="M238.7758,-503.8314C239.9522,-496.131 241.3511,-486.9743 242.6586,-478.4166"/>
<polygon fill="#c0c0c0" stroke="#c0c0c0" stroke-width="2" points="246.1364,-478.8272 244.1869,-468.4133 239.2167,-477.7699 246.1364,-478.8272"/>
</g>
<!-- 14&#45;&gt;13 -->
<g id="edge20" class="edge">
<title>14&#45;&gt;13</title>
<path fill="none" stroke="#c0c0c0" stroke-width="2" d="M227.0281,-575.8314C228.3115,-568.131 229.8376,-558.9743 231.2639,-550.4166"/>
<polygon fill="#c0c0c0" stroke="#c0c0c0" stroke-width="2" points="234.7394,-550.8526 232.9311,-540.4133 227.8347,-549.7018 234.7394,-550.8526"/>
</g>
<!-- 15&#45;&gt;0 -->
<g id="edge1" class="edge">
<title>15&#45;&gt;0</title>
<path fill="none" stroke="#c0c0c0" stroke-width="2" d="M206.7257,-143.7623C217.2218,-118.9846 236.0781,-74.4714 248.3109,-45.5939"/>
<polygon fill="#c0c0c0" stroke="#c0c0c0" stroke-width="2" points="251.6592,-46.6628 252.337,-36.0896 245.2136,-43.9323 251.6592,-46.6628"/>
</g>
<!-- 15&#45;&gt;1 -->
<g id="edge9" class="edge">
<title>15&#45;&gt;1</title>
<path fill="none" stroke="#c0c0c0" stroke-width="2" d="M173.0088,-143.8314C160.0784,-134.7927 144.2778,-123.7476 130.3617,-114.0198"/>
<polygon fill="#c0c0c0" stroke="#c0c0c0" stroke-width="2" points="132.1843,-111.0235 121.9829,-108.1628 128.1737,-116.7608 132.1843,-111.0235"/>
</g>
<!-- 16&#45;&gt;0 -->
<g id="edge3" class="edge">
<title>16&#45;&gt;0</title>
<path fill="none" stroke="#c0c0c0" stroke-width="2" d="M282.9115,-215.9555C278.5549,-178.3144 268.4707,-91.1867 263.2552,-46.1246"/>
<polygon fill="#c0c0c0" stroke="#c0c0c0" stroke-width="2" points="266.7267,-45.6763 262.1001,-36.1451 259.7732,-46.4812 266.7267,-45.6763"/>
</g>
<!-- 17&#45;&gt;0 -->
<g id="edge4" class="edge">
<title>17&#45;&gt;0</title>
<path fill="none" stroke="#c0c0c0" stroke-width="2" d="M352.9458,-287.8041C351.5633,-269.433 348.5011,-240.369 342,-216 325.141,-152.8048 292.7698,-83.036 274.1399,-45.5203"/>
<polygon fill="#c0c0c0" stroke="#c0c0c0" stroke-width="2" points="277.1083,-43.6319 269.4956,-36.2633 270.8516,-46.771 277.1083,-43.6319"/>
</g>
</g>
</svg>
