<?xml version="1.0" encoding="UTF-8" standalone="no"?>
<!DOCTYPE svg PUBLIC "-//W3C//DTD SVG 1.1//EN"
 "http://www.w3.org/Graphics/SVG/1.1/DTD/svg11.dtd">
<!-- Generated by graphviz version 2.40.1 (0)
 -->
<!-- Title: snakemake_dag Pages: 1 -->
<svg width="463pt" height="620pt"
 viewBox="0.00 0.00 462.50 620.00" xmlns="http://www.w3.org/2000/svg" xmlns:xlink="http://www.w3.org/1999/xlink">
<g id="graph0" class="graph" transform="scale(1 1) rotate(0) translate(4 616)">
<title>snakemake_dag</title>
<polygon fill="#ffffff" stroke="transparent" points="-4,4 -4,-616 458.5,-616 458.5,4 -4,4"/>
<!-- 0 -->
<g id="node1" class="node">
<title>0</title>
<path fill="none" stroke="#9fd856" stroke-width="2" d="M219.5,-36C219.5,-36 189.5,-36 189.5,-36 183.5,-36 177.5,-30 177.5,-24 177.5,-24 177.5,-12 177.5,-12 177.5,-6 183.5,0 189.5,0 189.5,0 219.5,0 219.5,0 225.5,0 231.5,-6 231.5,-12 231.5,-12 231.5,-24 231.5,-24 231.5,-30 225.5,-36 219.5,-36"/>
<text text-anchor="middle" x="204.5" y="-15.5" font-family="sans" font-size="10.00" fill="#000000">all</text>
</g>
<!-- 1 -->
<g id="node2" class="node">
<title>1</title>
<path fill="none" stroke="#5673d8" stroke-width="2" d="M350.5,-108C350.5,-108 320.5,-108 320.5,-108 314.5,-108 308.5,-102 308.5,-96 308.5,-96 308.5,-84 308.5,-84 308.5,-78 314.5,-72 320.5,-72 320.5,-72 350.5,-72 350.5,-72 356.5,-72 362.5,-78 362.5,-84 362.5,-84 362.5,-96 362.5,-96 362.5,-102 356.5,-108 350.5,-108"/>
<text text-anchor="middle" x="335.5" y="-87.5" font-family="sans" font-size="10.00" fill="#000000">multiqc</text>
</g>
<!-- 1&#45;&gt;0 -->
<g id="edge1" class="edge">
<title>1&#45;&gt;0</title>
<path fill="none" stroke="#c0c0c0" stroke-width="2" d="M308.3567,-75.0816C288.6842,-64.2692 261.8843,-49.5395 240.4364,-37.7513"/>
<polygon fill="#c0c0c0" stroke="#c0c0c0" stroke-width="2" points="242.0579,-34.6488 231.6085,-32.8993 238.6863,-40.7833 242.0579,-34.6488"/>
</g>
<!-- 2 -->
<g id="node3" class="node">
<title>2</title>
<path fill="none" stroke="#88d856" stroke-width="2" d="M390.5,-612C390.5,-612 360.5,-612 360.5,-612 354.5,-612 348.5,-606 348.5,-600 348.5,-600 348.5,-588 348.5,-588 348.5,-582 354.5,-576 360.5,-576 360.5,-576 390.5,-576 390.5,-576 396.5,-576 402.5,-582 402.5,-588 402.5,-588 402.5,-600 402.5,-600 402.5,-606 396.5,-612 390.5,-612"/>
<text text-anchor="middle" x="375.5" y="-591.5" font-family="sans" font-size="10.00" fill="#000000">bowtie2</text>
</g>
<!-- 2&#45;&gt;1 -->
<g id="edge5" class="edge">
<title>2&#45;&gt;1</title>
<path fill="none" stroke="#c0c0c0" stroke-width="2" d="M393.4263,-575.7434C416.7346,-549.9886 454.5,-500.4717 454.5,-450 454.5,-450 454.5,-450 454.5,-234 454.5,-190.0449 441.694,-177.7216 413.5,-144 401.9517,-130.1876 386.044,-118.3252 371.6053,-109.2659"/>
<polygon fill="#c0c0c0" stroke="#c0c0c0" stroke-width="2" points="373.2289,-106.158 362.8571,-103.9951 369.6163,-112.1538 373.2289,-106.158"/>
</g>
<!-- 7 -->
<g id="node8" class="node">
<title>7</title>
<path fill="none" stroke="#56d882" stroke-width="2" d="M376.5,-540C376.5,-540 294.5,-540 294.5,-540 288.5,-540 282.5,-534 282.5,-528 282.5,-528 282.5,-516 282.5,-516 282.5,-510 288.5,-504 294.5,-504 294.5,-504 376.5,-504 376.5,-504 382.5,-504 388.5,-510 388.5,-516 388.5,-516 388.5,-528 388.5,-528 388.5,-534 382.5,-540 376.5,-540"/>
<text text-anchor="middle" x="335.5" y="-519.5" font-family="sans" font-size="10.00" fill="#000000">chunk_clean_header</text>
</g>
<!-- 2&#45;&gt;7 -->
<g id="edge13" class="edge">
<title>2&#45;&gt;7</title>
<path fill="none" stroke="#c0c0c0" stroke-width="2" d="M365.4063,-575.8314C360.9403,-567.7925 355.5925,-558.1666 350.6621,-549.2918"/>
<polygon fill="#c0c0c0" stroke="#c0c0c0" stroke-width="2" points="353.6456,-547.4551 345.7296,-540.4133 347.5265,-550.8546 353.6456,-547.4551"/>
</g>
<!-- 3 -->
<g id="node4" class="node">
<title>3</title>
<path fill="none" stroke="#d8d356" stroke-width="2" d="M253,-180C253,-180 168,-180 168,-180 162,-180 156,-174 156,-168 156,-168 156,-156 156,-156 156,-150 162,-144 168,-144 168,-144 253,-144 253,-144 259,-144 265,-150 265,-156 265,-156 265,-168 265,-168 265,-174 259,-180 253,-180"/>
<text text-anchor="middle" x="210.5" y="-159.5" font-family="sans" font-size="10.00" fill="#000000">align_samtools_stats</text>
</g>
<!-- 3&#45;&gt;1 -->
<g id="edge7" class="edge">
<title>3&#45;&gt;1</title>
<path fill="none" stroke="#c0c0c0" stroke-width="2" d="M242.0428,-143.8314C259.4109,-133.8273 281.0459,-121.3655 299.1246,-110.9522"/>
<polygon fill="#c0c0c0" stroke="#c0c0c0" stroke-width="2" points="301.2947,-113.7414 308.213,-105.7173 297.8008,-107.6757 301.2947,-113.7414"/>
</g>
<!-- 4 -->
<g id="node5" class="node">
<title>4</title>
<path fill="none" stroke="#bed856" stroke-width="2" d="M254.5,-324C254.5,-324 190.5,-324 190.5,-324 184.5,-324 178.5,-318 178.5,-312 178.5,-312 178.5,-300 178.5,-300 178.5,-294 184.5,-288 190.5,-288 190.5,-288 254.5,-288 254.5,-288 260.5,-288 266.5,-294 266.5,-300 266.5,-300 266.5,-312 266.5,-312 266.5,-318 260.5,-324 254.5,-324"/>
<text text-anchor="middle" x="222.5" y="-303.5" font-family="sans" font-size="10.00" fill="#000000">align_sort_coord</text>
</g>
<!-- 4&#45;&gt;3 -->
<g id="edge9" class="edge">
<title>4&#45;&gt;3</title>
<path fill="none" stroke="#c0c0c0" stroke-width="2" d="M220.9802,-287.7623C218.9334,-263.201 215.2706,-219.2474 212.8628,-190.3541"/>
<polygon fill="#c0c0c0" stroke="#c0c0c0" stroke-width="2" points="216.3259,-189.7644 212.0075,-180.0896 209.3501,-190.3458 216.3259,-189.7644"/>
</g>
<!-- 14 -->
<g id="node15" class="node">
<title>14</title>
<path fill="none" stroke="#d8b456" stroke-width="2" d="M182,-252C182,-252 127,-252 127,-252 121,-252 115,-246 115,-240 115,-240 115,-228 115,-228 115,-222 121,-216 127,-216 127,-216 182,-216 182,-216 188,-216 194,-222 194,-228 194,-228 194,-240 194,-240 194,-246 188,-252 182,-252"/>
<text text-anchor="middle" x="154.5" y="-231.5" font-family="sans" font-size="10.00" fill="#000000">align_reassign</text>
</g>
<!-- 4&#45;&gt;14 -->
<g id="edge21" class="edge">
<title>4&#45;&gt;14</title>
<path fill="none" stroke="#c0c0c0" stroke-width="2" d="M205.3407,-287.8314C197.3489,-279.3694 187.6962,-269.1489 178.9584,-259.8971"/>
<polygon fill="#c0c0c0" stroke="#c0c0c0" stroke-width="2" points="181.3011,-257.2802 171.8903,-252.4133 176.212,-262.0866 181.3011,-257.2802"/>
</g>
<!-- 5 -->
<g id="node6" class="node">
<title>5</title>
<path fill="none" stroke="#d89556" stroke-width="2" d="M264,-396C264,-396 219,-396 219,-396 213,-396 207,-390 207,-384 207,-384 207,-372 207,-372 207,-366 213,-360 219,-360 219,-360 264,-360 264,-360 270,-360 276,-366 276,-372 276,-372 276,-384 276,-384 276,-390 270,-396 264,-396"/>
<text text-anchor="middle" x="241.5" y="-375.5" font-family="sans" font-size="10.00" fill="#000000">align_merge</text>
</g>
<!-- 5&#45;&gt;4 -->
<g id="edge10" class="edge">
<title>5&#45;&gt;4</title>
<path fill="none" stroke="#c0c0c0" stroke-width="2" d="M236.7055,-359.8314C234.6511,-352.0463 232.204,-342.7729 229.9244,-334.1347"/>
<polygon fill="#c0c0c0" stroke="#c0c0c0" stroke-width="2" points="233.2948,-333.1892 227.3591,-324.4133 226.5265,-334.9753 233.2948,-333.1892"/>
</g>
<!-- 9 -->
<g id="node10" class="node">
<title>9</title>
<path fill="none" stroke="#5692d8" stroke-width="2" d="M348,-324C348,-324 297,-324 297,-324 291,-324 285,-318 285,-312 285,-312 285,-300 285,-300 285,-294 291,-288 297,-288 297,-288 348,-288 348,-288 354,-288 360,-294 360,-300 360,-300 360,-312 360,-312 360,-318 354,-324 348,-324"/>
<text text-anchor="middle" x="322.5" y="-303.5" font-family="sans" font-size="10.00" fill="#000000">metadmg_lca</text>
</g>
<!-- 5&#45;&gt;9 -->
<g id="edge15" class="edge">
<title>5&#45;&gt;9</title>
<path fill="none" stroke="#c0c0c0" stroke-width="2" d="M261.9397,-359.8314C271.8205,-351.0485 283.8324,-340.3712 294.545,-330.8489"/>
<polygon fill="#c0c0c0" stroke="#c0c0c0" stroke-width="2" points="296.918,-333.4224 302.0668,-324.1628 292.2674,-328.1906 296.918,-333.4224"/>
</g>
<!-- 11 -->
<g id="node12" class="node">
<title>11</title>
<path fill="none" stroke="#56d0d8" stroke-width="2" d="M85,-252C85,-252 12,-252 12,-252 6,-252 0,-246 0,-240 0,-240 0,-228 0,-228 0,-222 6,-216 12,-216 12,-216 85,-216 85,-216 91,-216 97,-222 97,-228 97,-228 97,-240 97,-240 97,-246 91,-252 85,-252"/>
<text text-anchor="middle" x="48.5" y="-231.5" font-family="sans" font-size="10.00" fill="#000000">metadmg_damage</text>
</g>
<!-- 5&#45;&gt;11 -->
<g id="edge18" class="edge">
<title>5&#45;&gt;11</title>
<path fill="none" stroke="#c0c0c0" stroke-width="2" d="M217.0564,-359.7623C182.5423,-334.0108 119.457,-286.942 81.0201,-258.2637"/>
<polygon fill="#c0c0c0" stroke="#c0c0c0" stroke-width="2" points="82.8531,-255.2645 72.7451,-252.0896 78.667,-260.8749 82.8531,-255.2645"/>
</g>
<!-- 6 -->
<g id="node7" class="node">
<title>6</title>
<path fill="none" stroke="#56d8a2" stroke-width="2" d="M295.5,-468C295.5,-468 225.5,-468 225.5,-468 219.5,-468 213.5,-462 213.5,-456 213.5,-456 213.5,-444 213.5,-444 213.5,-438 219.5,-432 225.5,-432 225.5,-432 295.5,-432 295.5,-432 301.5,-432 307.5,-438 307.5,-444 307.5,-444 307.5,-456 307.5,-456 307.5,-462 301.5,-468 295.5,-468"/>
<text text-anchor="middle" x="260.5" y="-447.5" font-family="sans" font-size="10.00" fill="#000000">chunk_sort_query</text>
</g>
<!-- 6&#45;&gt;5 -->
<g id="edge11" class="edge">
<title>6&#45;&gt;5</title>
<path fill="none" stroke="#c0c0c0" stroke-width="2" d="M255.7055,-431.8314C253.6511,-424.0463 251.204,-414.7729 248.9244,-406.1347"/>
<polygon fill="#c0c0c0" stroke="#c0c0c0" stroke-width="2" points="252.2948,-405.1892 246.3591,-396.4133 245.5265,-406.9753 252.2948,-405.1892"/>
</g>
<!-- 7&#45;&gt;6 -->
<g id="edge12" class="edge">
<title>7&#45;&gt;6</title>
<path fill="none" stroke="#c0c0c0" stroke-width="2" d="M316.5743,-503.8314C307.5143,-495.1337 296.5191,-484.5783 286.6735,-475.1265"/>
<polygon fill="#c0c0c0" stroke="#c0c0c0" stroke-width="2" points="289.0574,-472.5633 279.4196,-468.1628 284.2096,-477.613 289.0574,-472.5633"/>
</g>
<!-- 8 -->
<g id="node9" class="node">
<title>8</title>
<path fill="none" stroke="#56b1d8" stroke-width="2" d="M414.5,-252C414.5,-252 362.5,-252 362.5,-252 356.5,-252 350.5,-246 350.5,-240 350.5,-240 350.5,-228 350.5,-228 350.5,-222 356.5,-216 362.5,-216 362.5,-216 414.5,-216 414.5,-216 420.5,-216 426.5,-222 426.5,-228 426.5,-228 426.5,-240 426.5,-240 426.5,-246 420.5,-252 414.5,-252"/>
<text text-anchor="middle" x="388.5" y="-231.5" font-family="sans" font-size="10.00" fill="#000000">metadmg_dfit</text>
</g>
<!-- 8&#45;&gt;1 -->
<g id="edge8" class="edge">
<title>8&#45;&gt;1</title>
<path fill="none" stroke="#c0c0c0" stroke-width="2" d="M395.5117,-215.8731C401.6349,-197.0439 408.0382,-167.1533 397.5,-144 391.7513,-131.3696 381.4273,-120.5444 370.8321,-111.975"/>
<polygon fill="#c0c0c0" stroke="#c0c0c0" stroke-width="2" points="372.8375,-109.1034 362.7484,-105.869 368.6184,-114.6891 372.8375,-109.1034"/>
</g>
<!-- 10 -->
<g id="node11" class="node">
<title>10</title>
<path fill="none" stroke="#56d8c1" stroke-width="2" d="M376,-180C376,-180 295,-180 295,-180 289,-180 283,-174 283,-168 283,-168 283,-156 283,-156 283,-150 289,-144 295,-144 295,-144 376,-144 376,-144 382,-144 388,-150 388,-156 388,-156 388,-168 388,-168 388,-174 382,-180 376,-180"/>
<text text-anchor="middle" x="335.5" y="-159.5" font-family="sans" font-size="10.00" fill="#000000">metadmg_aggregate</text>
</g>
<!-- 8&#45;&gt;10 -->
<g id="edge17" class="edge">
<title>8&#45;&gt;10</title>
<path fill="none" stroke="#c0c0c0" stroke-width="2" d="M375.1259,-215.8314C369.0838,-207.6232 361.8237,-197.7606 355.1779,-188.7323"/>
<polygon fill="#c0c0c0" stroke="#c0c0c0" stroke-width="2" points="357.8011,-186.3918 349.0542,-180.4133 352.1637,-190.5415 357.8011,-186.3918"/>
</g>
<!-- 9&#45;&gt;8 -->
<g id="edge14" class="edge">
<title>9&#45;&gt;8</title>
<path fill="none" stroke="#c0c0c0" stroke-width="2" d="M339.1546,-287.8314C346.9114,-279.3694 356.2802,-269.1489 364.761,-259.8971"/>
<polygon fill="#c0c0c0" stroke="#c0c0c0" stroke-width="2" points="367.4439,-262.1499 371.6212,-252.4133 362.2838,-257.4198 367.4439,-262.1499"/>
</g>
<!-- 9&#45;&gt;10 -->
<g id="edge16" class="edge">
<title>9&#45;&gt;10</title>
<path fill="none" stroke="#c0c0c0" stroke-width="2" d="M324.1465,-287.7623C326.3638,-263.201 330.3318,-219.2474 332.9403,-190.3541"/>
<polygon fill="#c0c0c0" stroke="#c0c0c0" stroke-width="2" points="336.4535,-190.3638 333.8669,-180.0896 329.4819,-189.7344 336.4535,-190.3638"/>
</g>
<!-- 10&#45;&gt;0 -->
<g id="edge4" class="edge">
<title>10&#45;&gt;0</title>
<path fill="none" stroke="#c0c0c0" stroke-width="2" d="M318.9088,-143.7623C295.8758,-118.4436 254.0964,-72.5182 227.9027,-43.7251"/>
<polygon fill="#c0c0c0" stroke="#c0c0c0" stroke-width="2" points="230.2748,-41.1315 220.9565,-36.0896 225.0969,-45.842 230.2748,-41.1315"/>
</g>
<!-- 10&#45;&gt;1 -->
<g id="edge6" class="edge">
<title>10&#45;&gt;1</title>
<path fill="none" stroke="#c0c0c0" stroke-width="2" d="M335.5,-143.8314C335.5,-136.131 335.5,-126.9743 335.5,-118.4166"/>
<polygon fill="#c0c0c0" stroke="#c0c0c0" stroke-width="2" points="339.0001,-118.4132 335.5,-108.4133 332.0001,-118.4133 339.0001,-118.4132"/>
</g>
<!-- 11&#45;&gt;0 -->
<g id="edge2" class="edge">
<title>11&#45;&gt;0</title>
<path fill="none" stroke="#c0c0c0" stroke-width="2" d="M47.6161,-215.9019C47.0043,-183.3086 50.3105,-114.2144 85.5,-72 106.303,-47.0441 141.0696,-33.1108 167.6678,-25.6774"/>
<polygon fill="#c0c0c0" stroke="#c0c0c0" stroke-width="2" points="168.6214,-29.0458 177.4157,-23.1373 166.8562,-22.272 168.6214,-29.0458"/>
</g>
<!-- 12 -->
<g id="node13" class="node">
<title>12</title>
<path fill="none" stroke="#d85656" stroke-width="2" d="M186,-108C186,-108 107,-108 107,-108 101,-108 95,-102 95,-96 95,-96 95,-84 95,-84 95,-78 101,-72 107,-72 107,-72 186,-72 186,-72 192,-72 198,-78 198,-84 198,-84 198,-96 198,-96 198,-102 192,-108 186,-108"/>
<text text-anchor="middle" x="146.5" y="-87.5" font-family="sans" font-size="10.00" fill="#000000">align_bam_filter_lca</text>
</g>
<!-- 12&#45;&gt;0 -->
<g id="edge3" class="edge">
<title>12&#45;&gt;0</title>
<path fill="none" stroke="#c0c0c0" stroke-width="2" d="M161.1358,-71.8314C167.8161,-63.5386 175.8568,-53.557 183.1904,-44.4533"/>
<polygon fill="#c0c0c0" stroke="#c0c0c0" stroke-width="2" points="186.1194,-46.3965 189.6671,-36.4133 180.6681,-42.0052 186.1194,-46.3965"/>
</g>
<!-- 13 -->
<g id="node14" class="node">
<title>13</title>
<path fill="none" stroke="#d87556" stroke-width="2" d="M126,-180C126,-180 89,-180 89,-180 83,-180 77,-174 77,-168 77,-168 77,-156 77,-156 77,-150 83,-144 89,-144 89,-144 126,-144 126,-144 132,-144 138,-150 138,-156 138,-156 138,-168 138,-168 138,-174 132,-180 126,-180"/>
<text text-anchor="middle" x="107.5" y="-159.5" font-family="sans" font-size="10.00" fill="#000000">align_filter</text>
</g>
<!-- 13&#45;&gt;12 -->
<g id="edge19" class="edge">
<title>13&#45;&gt;12</title>
<path fill="none" stroke="#c0c0c0" stroke-width="2" d="M117.3413,-143.8314C121.6957,-135.7925 126.9098,-126.1666 131.7169,-117.2918"/>
<polygon fill="#c0c0c0" stroke="#c0c0c0" stroke-width="2" points="134.8408,-118.8732 136.5261,-108.4133 128.6857,-115.5392 134.8408,-118.8732"/>
</g>
<!-- 14&#45;&gt;13 -->
<g id="edge20" class="edge">
<title>14&#45;&gt;13</title>
<path fill="none" stroke="#c0c0c0" stroke-width="2" d="M142.6399,-215.8314C137.3371,-207.7079 130.9763,-197.9637 125.1327,-189.0118"/>
<polygon fill="#c0c0c0" stroke="#c0c0c0" stroke-width="2" points="127.9169,-186.8739 119.5198,-180.4133 122.0552,-190.7003 127.9169,-186.8739"/>
</g>
</g>
</svg>
