<?xml version="1.0" encoding="UTF-8" standalone="no"?>
<!DOCTYPE svg PUBLIC "-//W3C//DTD SVG 1.1//EN"
 "http://www.w3.org/Graphics/SVG/1.1/DTD/svg11.dtd">
<!-- Generated by graphviz version 2.40.1 (0)
 -->
<!-- Title: snakemake_dag Pages: 1 -->
<svg width="354pt" height="692pt"
 viewBox="0.00 0.00 353.50 692.00" xmlns="http://www.w3.org/2000/svg" xmlns:xlink="http://www.w3.org/1999/xlink">
<g id="graph0" class="graph" transform="scale(1 1) rotate(0) translate(4 688)">
<title>snakemake_dag</title>
<polygon fill="#ffffff" stroke="transparent" points="-4,4 -4,-688 349.5,-688 349.5,4 -4,4"/>
<!-- 0 -->
<g id="node1" class="node">
<title>0</title>
<path fill="none" stroke="#c6d856" stroke-width="2" d="M193,-36C193,-36 163,-36 163,-36 157,-36 151,-30 151,-24 151,-24 151,-12 151,-12 151,-6 157,0 163,0 163,0 193,0 193,0 199,0 205,-6 205,-12 205,-12 205,-24 205,-24 205,-30 199,-36 193,-36"/>
<text text-anchor="middle" x="178" y="-15.5" font-family="sans" font-size="10.00" fill="#000000">all</text>
</g>
<!-- 1 -->
<g id="node2" class="node">
<title>1</title>
<path fill="none" stroke="#d85656" stroke-width="2" d="M112,-108C112,-108 82,-108 82,-108 76,-108 70,-102 70,-96 70,-96 70,-84 70,-84 70,-78 76,-72 82,-72 82,-72 112,-72 112,-72 118,-72 124,-78 124,-84 124,-84 124,-96 124,-96 124,-102 118,-108 112,-108"/>
<text text-anchor="middle" x="97" y="-87.5" font-family="sans" font-size="10.00" fill="#000000">multiqc</text>
</g>
<!-- 1&#45;&gt;0 -->
<g id="edge3" class="edge">
<title>1&#45;&gt;0</title>
<path fill="none" stroke="#c0c0c0" stroke-width="2" d="M117.4397,-71.8314C127.3205,-63.0485 139.3324,-52.3712 150.045,-42.8489"/>
<polygon fill="#c0c0c0" stroke="#c0c0c0" stroke-width="2" points="152.418,-45.4224 157.5668,-36.1628 147.7674,-40.1906 152.418,-45.4224"/>
</g>
<!-- 2 -->
<g id="node3" class="node">
<title>2</title>
<path fill="none" stroke="#56d8a9" stroke-width="2" d="M47,-684C47,-684 17,-684 17,-684 11,-684 5,-678 5,-672 5,-672 5,-660 5,-660 5,-654 11,-648 17,-648 17,-648 47,-648 47,-648 53,-648 59,-654 59,-660 59,-660 59,-672 59,-672 59,-678 53,-684 47,-684"/>
<text text-anchor="middle" x="32" y="-663.5" font-family="sans" font-size="10.00" fill="#000000">bowtie2</text>
</g>
<!-- 2&#45;&gt;1 -->
<g id="edge6" class="edge">
<title>2&#45;&gt;1</title>
<path fill="none" stroke="#c0c0c0" stroke-width="2" d="M25.2136,-647.6497C15.8203,-620.5619 0,-568.0977 0,-522 0,-522 0,-522 0,-234 0,-185.7831 37.8721,-141.6001 66.2878,-115.2353"/>
<polygon fill="#c0c0c0" stroke="#c0c0c0" stroke-width="2" points="68.9209,-117.5744 74.0124,-108.2831 64.238,-112.3713 68.9209,-117.5744"/>
</g>
<!-- 6 -->
<g id="node7" class="node">
<title>6</title>
<path fill="none" stroke="#56b9d8" stroke-width="2" d="M92,-612C92,-612 42,-612 42,-612 36,-612 30,-606 30,-600 30,-600 30,-588 30,-588 30,-582 36,-576 42,-576 42,-576 92,-576 92,-576 98,-576 104,-582 104,-588 104,-588 104,-600 104,-600 104,-606 98,-612 92,-612"/>
<text text-anchor="middle" x="67" y="-591.5" font-family="sans" font-size="10.00" fill="#000000">clean_header</text>
</g>
<!-- 2&#45;&gt;6 -->
<g id="edge11" class="edge">
<title>2&#45;&gt;6</title>
<path fill="none" stroke="#c0c0c0" stroke-width="2" d="M40.832,-647.8314C44.6986,-639.8771 49.3206,-630.369 53.5968,-621.5723"/>
<polygon fill="#c0c0c0" stroke="#c0c0c0" stroke-width="2" points="56.8249,-622.9371 58.0491,-612.4133 50.5293,-619.8768 56.8249,-622.9371"/>
</g>
<!-- 3 -->
<g id="node4" class="node">
<title>3</title>
<path fill="none" stroke="#568ad8" stroke-width="2" d="M99.5,-252C99.5,-252 40.5,-252 40.5,-252 34.5,-252 28.5,-246 28.5,-240 28.5,-240 28.5,-228 28.5,-228 28.5,-222 34.5,-216 40.5,-216 40.5,-216 99.5,-216 99.5,-216 105.5,-216 111.5,-222 111.5,-228 111.5,-228 111.5,-240 111.5,-240 111.5,-246 105.5,-252 99.5,-252"/>
<text text-anchor="middle" x="70" y="-231.5" font-family="sans" font-size="10.00" fill="#000000">samtools_stats</text>
</g>
<!-- 3&#45;&gt;1 -->
<g id="edge7" class="edge">
<title>3&#45;&gt;1</title>
<path fill="none" stroke="#c0c0c0" stroke-width="2" d="M72.0112,-215.9704C74.1848,-197.7286 78.0173,-168.7631 83,-144 84.6926,-135.5883 86.8903,-126.5315 89.0409,-118.2833"/>
<polygon fill="#c0c0c0" stroke="#c0c0c0" stroke-width="2" points="92.4876,-118.9431 91.6982,-108.3777 85.7267,-117.1294 92.4876,-118.9431"/>
</g>
<!-- 4 -->
<g id="node5" class="node">
<title>4</title>
<path fill="none" stroke="#afd856" stroke-width="2" d="M91.5,-468C91.5,-468 48.5,-468 48.5,-468 42.5,-468 36.5,-462 36.5,-456 36.5,-456 36.5,-444 36.5,-444 36.5,-438 42.5,-432 48.5,-432 48.5,-432 91.5,-432 91.5,-432 97.5,-432 103.5,-438 103.5,-444 103.5,-444 103.5,-456 103.5,-456 103.5,-462 97.5,-468 91.5,-468"/>
<text text-anchor="middle" x="70" y="-447.5" font-family="sans" font-size="10.00" fill="#000000">merge_alns</text>
</g>
<!-- 4&#45;&gt;3 -->
<g id="edge8" class="edge">
<title>4&#45;&gt;3</title>
<path fill="none" stroke="#c0c0c0" stroke-width="2" d="M70,-431.9555C70,-394.3938 70,-307.5541 70,-262.4103"/>
<polygon fill="#c0c0c0" stroke="#c0c0c0" stroke-width="2" points="73.5001,-262.145 70,-252.1451 66.5001,-262.1451 73.5001,-262.145"/>
</g>
<!-- 9 -->
<g id="node10" class="node">
<title>9</title>
<path fill="none" stroke="#d8bc56" stroke-width="2" d="M228,-396C228,-396 152,-396 152,-396 146,-396 140,-390 140,-384 140,-384 140,-372 140,-372 140,-366 146,-360 152,-360 152,-360 228,-360 228,-360 234,-360 240,-366 240,-372 240,-372 240,-384 240,-384 240,-390 234,-396 228,-396"/>
<text text-anchor="middle" x="190" y="-375.5" font-family="sans" font-size="10.00" fill="#000000">sort_merged_name</text>
</g>
<!-- 4&#45;&gt;9 -->
<g id="edge14" class="edge">
<title>4&#45;&gt;9</title>
<path fill="none" stroke="#c0c0c0" stroke-width="2" d="M100.2811,-431.8314C115.6298,-422.6221 134.4498,-411.3301 150.8823,-401.4706"/>
<polygon fill="#c0c0c0" stroke="#c0c0c0" stroke-width="2" points="152.9544,-404.3091 159.7286,-396.1628 149.3529,-398.3066 152.9544,-404.3091"/>
</g>
<!-- 5 -->
<g id="node6" class="node">
<title>5</title>
<path fill="none" stroke="#78d856" stroke-width="2" d="M87,-540C87,-540 49,-540 49,-540 43,-540 37,-534 37,-528 37,-528 37,-516 37,-516 37,-510 43,-504 49,-504 49,-504 87,-504 87,-504 93,-504 99,-510 99,-516 99,-516 99,-528 99,-528 99,-534 93,-540 87,-540"/>
<text text-anchor="middle" x="68" y="-519.5" font-family="sans" font-size="10.00" fill="#000000">sort_coord</text>
</g>
<!-- 5&#45;&gt;4 -->
<g id="edge9" class="edge">
<title>5&#45;&gt;4</title>
<path fill="none" stroke="#c0c0c0" stroke-width="2" d="M68.5047,-503.8314C68.7186,-496.131 68.9729,-486.9743 69.2106,-478.4166"/>
<polygon fill="#c0c0c0" stroke="#c0c0c0" stroke-width="2" points="72.7094,-478.5066 69.4885,-468.4133 65.7121,-478.3122 72.7094,-478.5066"/>
</g>
<!-- 6&#45;&gt;5 -->
<g id="edge10" class="edge">
<title>6&#45;&gt;5</title>
<path fill="none" stroke="#c0c0c0" stroke-width="2" d="M67.2523,-575.8314C67.3593,-568.131 67.4865,-558.9743 67.6053,-550.4166"/>
<polygon fill="#c0c0c0" stroke="#c0c0c0" stroke-width="2" points="71.1049,-550.4609 67.7443,-540.4133 64.1056,-550.3637 71.1049,-550.4609"/>
</g>
<!-- 7 -->
<g id="node8" class="node">
<title>7</title>
<path fill="none" stroke="#d88556" stroke-width="2" d="M194,-252C194,-252 142,-252 142,-252 136,-252 130,-246 130,-240 130,-240 130,-228 130,-228 130,-222 136,-216 142,-216 142,-216 194,-216 194,-216 200,-216 206,-222 206,-228 206,-228 206,-240 206,-240 206,-246 200,-252 194,-252"/>
<text text-anchor="middle" x="168" y="-231.5" font-family="sans" font-size="10.00" fill="#000000">metadmg_dfit</text>
</g>
<!-- 7&#45;&gt;1 -->
<g id="edge5" class="edge">
<title>7&#45;&gt;1</title>
<path fill="none" stroke="#c0c0c0" stroke-width="2" d="M145.4931,-215.915C134.9981,-206.3157 123.252,-193.6852 116,-180 105.8739,-160.8912 101.1442,-136.8143 98.9353,-118.3727"/>
<polygon fill="#c0c0c0" stroke="#c0c0c0" stroke-width="2" points="102.3992,-117.8399 97.9042,-108.2459 95.4352,-118.549 102.3992,-117.8399"/>
</g>
<!-- 10 -->
<g id="node11" class="node">
<title>10</title>
<path fill="none" stroke="#56d892" stroke-width="2" d="M218.5,-180C218.5,-180 137.5,-180 137.5,-180 131.5,-180 125.5,-174 125.5,-168 125.5,-168 125.5,-156 125.5,-156 125.5,-150 131.5,-144 137.5,-144 137.5,-144 218.5,-144 218.5,-144 224.5,-144 230.5,-150 230.5,-156 230.5,-156 230.5,-168 230.5,-168 230.5,-174 224.5,-180 218.5,-180"/>
<text text-anchor="middle" x="178" y="-159.5" font-family="sans" font-size="10.00" fill="#000000">metadmg_aggregate</text>
</g>
<!-- 7&#45;&gt;10 -->
<g id="edge15" class="edge">
<title>7&#45;&gt;10</title>
<path fill="none" stroke="#c0c0c0" stroke-width="2" d="M170.5234,-215.8314C171.5929,-208.131 172.8647,-198.9743 174.0532,-190.4166"/>
<polygon fill="#c0c0c0" stroke="#c0c0c0" stroke-width="2" points="177.5336,-190.7997 175.4426,-180.4133 170.6001,-189.8367 177.5336,-190.7997"/>
</g>
<!-- 8 -->
<g id="node9" class="node">
<title>8</title>
<path fill="none" stroke="#56d8c9" stroke-width="2" d="M215.5,-324C215.5,-324 164.5,-324 164.5,-324 158.5,-324 152.5,-318 152.5,-312 152.5,-312 152.5,-300 152.5,-300 152.5,-294 158.5,-288 164.5,-288 164.5,-288 215.5,-288 215.5,-288 221.5,-288 227.5,-294 227.5,-300 227.5,-300 227.5,-312 227.5,-312 227.5,-318 221.5,-324 215.5,-324"/>
<text text-anchor="middle" x="190" y="-303.5" font-family="sans" font-size="10.00" fill="#000000">metadmg_lca</text>
</g>
<!-- 8&#45;&gt;7 -->
<g id="edge12" class="edge">
<title>8&#45;&gt;7</title>
<path fill="none" stroke="#c0c0c0" stroke-width="2" d="M184.4485,-287.8314C182.0697,-280.0463 179.2362,-270.7729 176.5967,-262.1347"/>
<polygon fill="#c0c0c0" stroke="#c0c0c0" stroke-width="2" points="179.8958,-260.954 173.6263,-252.4133 173.2013,-262.9996 179.8958,-260.954"/>
</g>
<!-- 8&#45;&gt;10 -->
<g id="edge16" class="edge">
<title>8&#45;&gt;10</title>
<path fill="none" stroke="#c0c0c0" stroke-width="2" d="M201.1487,-287.9796C210.9918,-269.745 222.6766,-240.785 215,-216 211.9555,-206.1704 206.4359,-196.5387 200.5729,-188.1946"/>
<polygon fill="#c0c0c0" stroke="#c0c0c0" stroke-width="2" points="203.2314,-185.9061 194.4281,-180.011 197.6337,-190.1092 203.2314,-185.9061"/>
</g>
<!-- 9&#45;&gt;8 -->
<g id="edge13" class="edge">
<title>9&#45;&gt;8</title>
<path fill="none" stroke="#c0c0c0" stroke-width="2" d="M190,-359.8314C190,-352.131 190,-342.9743 190,-334.4166"/>
<polygon fill="#c0c0c0" stroke="#c0c0c0" stroke-width="2" points="193.5001,-334.4132 190,-324.4133 186.5001,-334.4133 193.5001,-334.4132"/>
</g>
<!-- 11 -->
<g id="node12" class="node">
<title>11</title>
<path fill="none" stroke="#56a2d8" stroke-width="2" d="M333.5,-180C333.5,-180 260.5,-180 260.5,-180 254.5,-180 248.5,-174 248.5,-168 248.5,-168 248.5,-156 248.5,-156 248.5,-150 254.5,-144 260.5,-144 260.5,-144 333.5,-144 333.5,-144 339.5,-144 345.5,-150 345.5,-156 345.5,-156 345.5,-168 345.5,-168 345.5,-174 339.5,-180 333.5,-180"/>
<text text-anchor="middle" x="297" y="-159.5" font-family="sans" font-size="10.00" fill="#000000">metadmg_damage</text>
</g>
<!-- 9&#45;&gt;11 -->
<g id="edge17" class="edge">
<title>9&#45;&gt;11</title>
<path fill="none" stroke="#c0c0c0" stroke-width="2" d="M208.3425,-359.7406C217.5627,-349.8125 228.3676,-336.9418 236,-324 261.8291,-280.2029 280.1613,-223.5375 289.6242,-190.1429"/>
<polygon fill="#c0c0c0" stroke="#c0c0c0" stroke-width="2" points="293.0918,-190.7351 292.3832,-180.164 286.3449,-188.8696 293.0918,-190.7351"/>
</g>
<!-- 10&#45;&gt;0 -->
<g id="edge1" class="edge">
<title>10&#45;&gt;0</title>
<path fill="none" stroke="#c0c0c0" stroke-width="2" d="M178,-143.7623C178,-119.201 178,-75.2474 178,-46.3541"/>
<polygon fill="#c0c0c0" stroke="#c0c0c0" stroke-width="2" points="181.5001,-46.0896 178,-36.0896 174.5001,-46.0897 181.5001,-46.0896"/>
</g>
<!-- 10&#45;&gt;1 -->
<g id="edge4" class="edge">
<title>10&#45;&gt;1</title>
<path fill="none" stroke="#c0c0c0" stroke-width="2" d="M157.5603,-143.8314C147.6795,-135.0485 135.6676,-124.3712 124.955,-114.8489"/>
<polygon fill="#c0c0c0" stroke="#c0c0c0" stroke-width="2" points="127.2326,-112.1906 117.4332,-108.1628 122.582,-117.4224 127.2326,-112.1906"/>
</g>
<!-- 11&#45;&gt;0 -->
<g id="edge2" class="edge">
<title>11&#45;&gt;0</title>
<path fill="none" stroke="#c0c0c0" stroke-width="2" d="M281.9286,-143.7623C261.0949,-118.5518 223.3773,-72.9103 199.5647,-44.0952"/>
<polygon fill="#c0c0c0" stroke="#c0c0c0" stroke-width="2" points="202.0173,-41.5685 192.9491,-36.0896 196.6213,-46.0277 202.0173,-41.5685"/>
</g>
</g>
</svg>
