<?xml version="1.0" encoding="UTF-8" standalone="no"?>
<!DOCTYPE svg PUBLIC "-//W3C//DTD SVG 1.1//EN"
 "http://www.w3.org/Graphics/SVG/1.1/DTD/svg11.dtd">
<!-- Generated by graphviz version 2.40.1 (0)
 -->
<!-- Title: snakemake_dag Pages: 1 -->
<svg width="420pt" height="1052pt"
 viewBox="0.00 0.00 419.50 1052.00" xmlns="http://www.w3.org/2000/svg" xmlns:xlink="http://www.w3.org/1999/xlink">
<g id="graph0" class="graph" transform="scale(1 1) rotate(0) translate(4 1048)">
<title>snakemake_dag</title>
<polygon fill="#ffffff" stroke="transparent" points="-4,4 -4,-1048 415.5,-1048 415.5,4 -4,4"/>
<!-- 0 -->
<g id="node1" class="node">
<title>0</title>
<path fill="none" stroke="#56d88a" stroke-width="2" d="M275,-36C275,-36 245,-36 245,-36 239,-36 233,-30 233,-24 233,-24 233,-12 233,-12 233,-6 239,0 245,0 245,0 275,0 275,0 281,0 287,-6 287,-12 287,-12 287,-24 287,-24 287,-30 281,-36 275,-36"/>
<text text-anchor="middle" x="260" y="-15.5" font-family="sans" font-size="10.00" fill="#000000">all</text>
</g>
<!-- 1 -->
<g id="node2" class="node">
<title>1</title>
<path fill="none" stroke="#d8bc56" stroke-width="2" d="M111,-108C111,-108 81,-108 81,-108 75,-108 69,-102 69,-96 69,-96 69,-84 69,-84 69,-78 75,-72 81,-72 81,-72 111,-72 111,-72 117,-72 123,-78 123,-84 123,-84 123,-96 123,-96 123,-102 117,-108 111,-108"/>
<text text-anchor="middle" x="96" y="-87.5" font-family="sans" font-size="10.00" fill="#000000">multiqc</text>
</g>
<!-- 1&#45;&gt;0 -->
<g id="edge1" class="edge">
<title>1&#45;&gt;0</title>
<path fill="none" stroke="#c0c0c0" stroke-width="2" d="M123.0813,-78.1107C150.5004,-66.073 193.0813,-47.3789 223.4738,-34.0359"/>
<polygon fill="#c0c0c0" stroke="#c0c0c0" stroke-width="2" points="225.129,-37.1317 232.8785,-29.907 222.3151,-30.7222 225.129,-37.1317"/>
</g>
<!-- 2 -->
<g id="node3" class="node">
<title>2</title>
<path fill="none" stroke="#56d873" stroke-width="2" d="M55,-1044C55,-1044 25,-1044 25,-1044 19,-1044 13,-1038 13,-1032 13,-1032 13,-1020 13,-1020 13,-1014 19,-1008 25,-1008 25,-1008 55,-1008 55,-1008 61,-1008 67,-1014 67,-1020 67,-1020 67,-1032 67,-1032 67,-1038 61,-1044 55,-1044"/>
<text text-anchor="middle" x="40" y="-1023.5" font-family="sans" font-size="10.00" fill="#000000">bowtie2</text>
</g>
<!-- 2&#45;&gt;1 -->
<g id="edge7" class="edge">
<title>2&#45;&gt;1</title>
<path fill="none" stroke="#c0c0c0" stroke-width="2" d="M31.517,-1007.81C19.7754,-980.9218 0,-928.7039 0,-882 0,-882 0,-882 0,-234 0,-185.9377 37.4817,-141.7161 65.6044,-115.3006"/>
<polygon fill="#c0c0c0" stroke="#c0c0c0" stroke-width="2" points="68.2155,-117.6565 73.2493,-108.3339 63.5005,-112.4826 68.2155,-117.6565"/>
</g>
<!-- 5 -->
<g id="node6" class="node">
<title>5</title>
<path fill="none" stroke="#d6d856" stroke-width="2" d="M120,-972C120,-972 40,-972 40,-972 34,-972 28,-966 28,-960 28,-960 28,-948 28,-948 28,-942 34,-936 40,-936 40,-936 120,-936 120,-936 126,-936 132,-942 132,-948 132,-948 132,-960 132,-960 132,-966 126,-972 120,-972"/>
<text text-anchor="middle" x="80" y="-951.5" font-family="sans" font-size="10.00" fill="#000000">shard_clean_header</text>
</g>
<!-- 2&#45;&gt;5 -->
<g id="edge12" class="edge">
<title>2&#45;&gt;5</title>
<path fill="none" stroke="#c0c0c0" stroke-width="2" d="M50.0937,-1007.8314C54.5597,-999.7925 59.9075,-990.1666 64.8379,-981.2918"/>
<polygon fill="#c0c0c0" stroke="#c0c0c0" stroke-width="2" points="67.9735,-982.8546 69.7704,-972.4133 61.8544,-979.4551 67.9735,-982.8546"/>
</g>
<!-- 3 -->
<g id="node4" class="node">
<title>3</title>
<path fill="none" stroke="#5673d8" stroke-width="2" d="M109.5,-828C109.5,-828 50.5,-828 50.5,-828 44.5,-828 38.5,-822 38.5,-816 38.5,-816 38.5,-804 38.5,-804 38.5,-798 44.5,-792 50.5,-792 50.5,-792 109.5,-792 109.5,-792 115.5,-792 121.5,-798 121.5,-804 121.5,-804 121.5,-816 121.5,-816 121.5,-822 115.5,-828 109.5,-828"/>
<text text-anchor="middle" x="80" y="-807.5" font-family="sans" font-size="10.00" fill="#000000">shard_markdup</text>
</g>
<!-- 3&#45;&gt;1 -->
<g id="edge9" class="edge">
<title>3&#45;&gt;1</title>
<path fill="none" stroke="#c0c0c0" stroke-width="2" d="M71.0929,-791.8553C58.7642,-765.0234 38,-712.875 38,-666 38,-666 38,-666 38,-234 38,-190.6562 60.8892,-144.9417 77.9093,-116.9402"/>
<polygon fill="#c0c0c0" stroke="#c0c0c0" stroke-width="2" points="81.0719,-118.4847 83.4149,-108.1522 75.1398,-114.7684 81.0719,-118.4847"/>
</g>
<!-- 9 -->
<g id="node10" class="node">
<title>9</title>
<path fill="none" stroke="#568ad8" stroke-width="2" d="M135,-756C135,-756 87,-756 87,-756 81,-756 75,-750 75,-744 75,-744 75,-732 75,-732 75,-726 81,-720 87,-720 87,-720 135,-720 135,-720 141,-720 147,-726 147,-732 147,-732 147,-744 147,-744 147,-750 141,-756 135,-756"/>
<text text-anchor="middle" x="111" y="-735.5" font-family="sans" font-size="10.00" fill="#000000">shard_calmd</text>
</g>
<!-- 3&#45;&gt;9 -->
<g id="edge16" class="edge">
<title>3&#45;&gt;9</title>
<path fill="none" stroke="#c0c0c0" stroke-width="2" d="M87.8226,-791.8314C91.2109,-783.9617 95.2541,-774.5712 99.0076,-765.8533"/>
<polygon fill="#c0c0c0" stroke="#c0c0c0" stroke-width="2" points="102.3321,-766.9822 103.0721,-756.4133 95.9027,-764.214 102.3321,-766.9822"/>
</g>
<!-- 4 -->
<g id="node5" class="node">
<title>4</title>
<path fill="none" stroke="#70d856" stroke-width="2" d="M114,-900C114,-900 46,-900 46,-900 40,-900 34,-894 34,-888 34,-888 34,-876 34,-876 34,-870 40,-864 46,-864 46,-864 114,-864 114,-864 120,-864 126,-870 126,-876 126,-876 126,-888 126,-888 126,-894 120,-900 114,-900"/>
<text text-anchor="middle" x="80" y="-879.5" font-family="sans" font-size="10.00" fill="#000000">shard_sort_coord</text>
</g>
<!-- 4&#45;&gt;3 -->
<g id="edge10" class="edge">
<title>4&#45;&gt;3</title>
<path fill="none" stroke="#c0c0c0" stroke-width="2" d="M80,-863.8314C80,-856.131 80,-846.9743 80,-838.4166"/>
<polygon fill="#c0c0c0" stroke="#c0c0c0" stroke-width="2" points="83.5001,-838.4132 80,-828.4133 76.5001,-838.4133 83.5001,-838.4132"/>
</g>
<!-- 5&#45;&gt;4 -->
<g id="edge11" class="edge">
<title>5&#45;&gt;4</title>
<path fill="none" stroke="#c0c0c0" stroke-width="2" d="M80,-935.8314C80,-928.131 80,-918.9743 80,-910.4166"/>
<polygon fill="#c0c0c0" stroke="#c0c0c0" stroke-width="2" points="83.5001,-910.4132 80,-900.4133 76.5001,-910.4133 83.5001,-910.4132"/>
</g>
<!-- 6 -->
<g id="node7" class="node">
<title>6</title>
<path fill="none" stroke="#56d8a2" stroke-width="2" d="M163.5,-468C163.5,-468 78.5,-468 78.5,-468 72.5,-468 66.5,-462 66.5,-456 66.5,-456 66.5,-444 66.5,-444 66.5,-438 72.5,-432 78.5,-432 78.5,-432 163.5,-432 163.5,-432 169.5,-432 175.5,-438 175.5,-444 175.5,-444 175.5,-456 175.5,-456 175.5,-462 169.5,-468 163.5,-468"/>
<text text-anchor="middle" x="121" y="-447.5" font-family="sans" font-size="10.00" fill="#000000">align_samtools_stats</text>
</g>
<!-- 6&#45;&gt;1 -->
<g id="edge8" class="edge">
<title>6&#45;&gt;1</title>
<path fill="none" stroke="#c0c0c0" stroke-width="2" d="M111.4567,-431.9269C98.2473,-405.1844 76,-353.1461 76,-306 76,-306 76,-306 76,-234 76,-193.3124 83.9304,-146.7676 89.8037,-117.8757"/>
<polygon fill="#c0c0c0" stroke="#c0c0c0" stroke-width="2" points="93.2324,-118.5786 91.856,-108.0735 86.3809,-117.144 93.2324,-118.5786"/>
</g>
<!-- 7 -->
<g id="node8" class="node">
<title>7</title>
<path fill="none" stroke="#d86e56" stroke-width="2" d="M153,-612C153,-612 89,-612 89,-612 83,-612 77,-606 77,-600 77,-600 77,-588 77,-588 77,-582 83,-576 89,-576 89,-576 153,-576 153,-576 159,-576 165,-582 165,-588 165,-588 165,-600 165,-600 165,-606 159,-612 153,-612"/>
<text text-anchor="middle" x="121" y="-591.5" font-family="sans" font-size="10.00" fill="#000000">align_sort_coord</text>
</g>
<!-- 7&#45;&gt;6 -->
<g id="edge13" class="edge">
<title>7&#45;&gt;6</title>
<path fill="none" stroke="#c0c0c0" stroke-width="2" d="M121,-575.7623C121,-551.201 121,-507.2474 121,-478.3541"/>
<polygon fill="#c0c0c0" stroke="#c0c0c0" stroke-width="2" points="124.5001,-478.0896 121,-468.0896 117.5001,-478.0897 124.5001,-478.0896"/>
</g>
<!-- 14 -->
<g id="node15" class="node">
<title>14</title>
<path fill="none" stroke="#a7d856" stroke-width="2" d="M233.5,-540C233.5,-540 178.5,-540 178.5,-540 172.5,-540 166.5,-534 166.5,-528 166.5,-528 166.5,-516 166.5,-516 166.5,-510 172.5,-504 178.5,-504 178.5,-504 233.5,-504 233.5,-504 239.5,-504 245.5,-510 245.5,-516 245.5,-516 245.5,-528 245.5,-528 245.5,-534 239.5,-540 233.5,-540"/>
<text text-anchor="middle" x="206" y="-519.5" font-family="sans" font-size="10.00" fill="#000000">align_reassign</text>
</g>
<!-- 7&#45;&gt;14 -->
<g id="edge21" class="edge">
<title>7&#45;&gt;14</title>
<path fill="none" stroke="#c0c0c0" stroke-width="2" d="M142.4491,-575.8314C152.8178,-567.0485 165.4229,-556.3712 176.6646,-546.8489"/>
<polygon fill="#c0c0c0" stroke="#c0c0c0" stroke-width="2" points="179.1895,-549.297 184.5578,-540.1628 174.6651,-543.9556 179.1895,-549.297"/>
</g>
<!-- 8 -->
<g id="node9" class="node">
<title>8</title>
<path fill="none" stroke="#bed856" stroke-width="2" d="M138.5,-684C138.5,-684 93.5,-684 93.5,-684 87.5,-684 81.5,-678 81.5,-672 81.5,-672 81.5,-660 81.5,-660 81.5,-654 87.5,-648 93.5,-648 93.5,-648 138.5,-648 138.5,-648 144.5,-648 150.5,-654 150.5,-660 150.5,-660 150.5,-672 150.5,-672 150.5,-678 144.5,-684 138.5,-684"/>
<text text-anchor="middle" x="116" y="-663.5" font-family="sans" font-size="10.00" fill="#000000">align_merge</text>
</g>
<!-- 8&#45;&gt;7 -->
<g id="edge14" class="edge">
<title>8&#45;&gt;7</title>
<path fill="none" stroke="#c0c0c0" stroke-width="2" d="M117.2617,-647.8314C117.7965,-640.131 118.4323,-630.9743 119.0266,-622.4166"/>
<polygon fill="#c0c0c0" stroke="#c0c0c0" stroke-width="2" points="122.52,-622.6317 119.7213,-612.4133 115.5368,-622.1467 122.52,-622.6317"/>
</g>
<!-- 9&#45;&gt;8 -->
<g id="edge15" class="edge">
<title>9&#45;&gt;8</title>
<path fill="none" stroke="#c0c0c0" stroke-width="2" d="M112.2617,-719.8314C112.7965,-712.131 113.4323,-702.9743 114.0266,-694.4166"/>
<polygon fill="#c0c0c0" stroke="#c0c0c0" stroke-width="2" points="117.52,-694.6317 114.7213,-684.4133 110.5368,-694.1467 117.52,-694.6317"/>
</g>
<!-- 10 -->
<g id="node11" class="node">
<title>10</title>
<path fill="none" stroke="#59d856" stroke-width="2" d="M168,-252C168,-252 116,-252 116,-252 110,-252 104,-246 104,-240 104,-240 104,-228 104,-228 104,-222 110,-216 116,-216 116,-216 168,-216 168,-216 174,-216 180,-222 180,-228 180,-228 180,-240 180,-240 180,-246 174,-252 168,-252"/>
<text text-anchor="middle" x="142" y="-231.5" font-family="sans" font-size="10.00" fill="#000000">metadmg_dfit</text>
</g>
<!-- 10&#45;&gt;1 -->
<g id="edge6" class="edge">
<title>10&#45;&gt;1</title>
<path fill="none" stroke="#c0c0c0" stroke-width="2" d="M136.1741,-215.7623C128.2935,-191.0928 114.1635,-146.8598 104.9358,-117.9731"/>
<polygon fill="#c0c0c0" stroke="#c0c0c0" stroke-width="2" points="108.1557,-116.5503 101.7786,-108.0896 101.4876,-118.6805 108.1557,-116.5503"/>
</g>
<!-- 15 -->
<g id="node16" class="node">
<title>15</title>
<path fill="none" stroke="#56d8d8" stroke-width="2" d="M239.5,-180C239.5,-180 158.5,-180 158.5,-180 152.5,-180 146.5,-174 146.5,-168 146.5,-168 146.5,-156 146.5,-156 146.5,-150 152.5,-144 158.5,-144 158.5,-144 239.5,-144 239.5,-144 245.5,-144 251.5,-150 251.5,-156 251.5,-156 251.5,-168 251.5,-168 251.5,-174 245.5,-180 239.5,-180"/>
<text text-anchor="middle" x="199" y="-159.5" font-family="sans" font-size="10.00" fill="#000000">metadmg_aggregate</text>
</g>
<!-- 10&#45;&gt;15 -->
<g id="edge23" class="edge">
<title>10&#45;&gt;15</title>
<path fill="none" stroke="#c0c0c0" stroke-width="2" d="M156.3835,-215.8314C162.9486,-207.5386 170.8507,-197.557 178.0578,-188.4533"/>
<polygon fill="#c0c0c0" stroke="#c0c0c0" stroke-width="2" points="180.9599,-190.4262 184.4228,-180.4133 175.4716,-186.0813 180.9599,-190.4262"/>
</g>
<!-- 11 -->
<g id="node12" class="node">
<title>11</title>
<path fill="none" stroke="#d85656" stroke-width="2" d="M233.5,-324C233.5,-324 182.5,-324 182.5,-324 176.5,-324 170.5,-318 170.5,-312 170.5,-312 170.5,-300 170.5,-300 170.5,-294 176.5,-288 182.5,-288 182.5,-288 233.5,-288 233.5,-288 239.5,-288 245.5,-294 245.5,-300 245.5,-300 245.5,-312 245.5,-312 245.5,-318 239.5,-324 233.5,-324"/>
<text text-anchor="middle" x="208" y="-303.5" font-family="sans" font-size="10.00" fill="#000000">metadmg_lca</text>
</g>
<!-- 11&#45;&gt;10 -->
<g id="edge17" class="edge">
<title>11&#45;&gt;10</title>
<path fill="none" stroke="#c0c0c0" stroke-width="2" d="M191.3454,-287.8314C183.5886,-279.3694 174.2198,-269.1489 165.739,-259.8971"/>
<polygon fill="#c0c0c0" stroke="#c0c0c0" stroke-width="2" points="168.2162,-257.4198 158.8788,-252.4133 163.0561,-262.1499 168.2162,-257.4198"/>
</g>
<!-- 11&#45;&gt;15 -->
<g id="edge22" class="edge">
<title>11&#45;&gt;15</title>
<path fill="none" stroke="#c0c0c0" stroke-width="2" d="M206.8601,-287.7623C205.3251,-263.201 202.578,-219.2474 200.7721,-190.3541"/>
<polygon fill="#c0c0c0" stroke="#c0c0c0" stroke-width="2" points="204.2477,-189.8518 200.1306,-180.0896 197.2613,-190.2885 204.2477,-189.8518"/>
</g>
<!-- 12 -->
<g id="node13" class="node">
<title>12</title>
<path fill="none" stroke="#56d8c1" stroke-width="2" d="M281,-396C281,-396 217,-396 217,-396 211,-396 205,-390 205,-384 205,-384 205,-372 205,-372 205,-366 211,-360 217,-360 217,-360 281,-360 281,-360 287,-360 293,-366 293,-372 293,-372 293,-384 293,-384 293,-390 287,-396 281,-396"/>
<text text-anchor="middle" x="249" y="-375.5" font-family="sans" font-size="10.00" fill="#000000">align_sort_query</text>
</g>
<!-- 12&#45;&gt;11 -->
<g id="edge18" class="edge">
<title>12&#45;&gt;11</title>
<path fill="none" stroke="#c0c0c0" stroke-width="2" d="M238.654,-359.8314C234.0763,-351.7925 228.5948,-342.1666 223.5412,-333.2918"/>
<polygon fill="#c0c0c0" stroke="#c0c0c0" stroke-width="2" points="226.4752,-331.3712 218.4853,-324.4133 220.3923,-334.8351 226.4752,-331.3712"/>
</g>
<!-- 16 -->
<g id="node17" class="node">
<title>16</title>
<path fill="none" stroke="#d8a456" stroke-width="2" d="M321.5,-252C321.5,-252 248.5,-252 248.5,-252 242.5,-252 236.5,-246 236.5,-240 236.5,-240 236.5,-228 236.5,-228 236.5,-222 242.5,-216 248.5,-216 248.5,-216 321.5,-216 321.5,-216 327.5,-216 333.5,-222 333.5,-228 333.5,-228 333.5,-240 333.5,-240 333.5,-246 327.5,-252 321.5,-252"/>
<text text-anchor="middle" x="285" y="-231.5" font-family="sans" font-size="10.00" fill="#000000">metadmg_damage</text>
</g>
<!-- 12&#45;&gt;16 -->
<g id="edge24" class="edge">
<title>12&#45;&gt;16</title>
<path fill="none" stroke="#c0c0c0" stroke-width="2" d="M253.5594,-359.7623C259.7268,-335.0928 270.7851,-290.8598 278.0067,-261.9731"/>
<polygon fill="#c0c0c0" stroke="#c0c0c0" stroke-width="2" points="281.4477,-262.6399 280.4776,-252.0896 274.6567,-260.9421 281.4477,-262.6399"/>
</g>
<!-- 13 -->
<g id="node14" class="node">
<title>13</title>
<path fill="none" stroke="#88d856" stroke-width="2" d="M267.5,-468C267.5,-468 230.5,-468 230.5,-468 224.5,-468 218.5,-462 218.5,-456 218.5,-456 218.5,-444 218.5,-444 218.5,-438 224.5,-432 230.5,-432 230.5,-432 267.5,-432 267.5,-432 273.5,-432 279.5,-438 279.5,-444 279.5,-444 279.5,-456 279.5,-456 279.5,-462 273.5,-468 267.5,-468"/>
<text text-anchor="middle" x="249" y="-447.5" font-family="sans" font-size="10.00" fill="#000000">align_filter</text>
</g>
<!-- 13&#45;&gt;12 -->
<g id="edge19" class="edge">
<title>13&#45;&gt;12</title>
<path fill="none" stroke="#c0c0c0" stroke-width="2" d="M249,-431.8314C249,-424.131 249,-414.9743 249,-406.4166"/>
<polygon fill="#c0c0c0" stroke="#c0c0c0" stroke-width="2" points="252.5001,-406.4132 249,-396.4133 245.5001,-406.4133 252.5001,-406.4132"/>
</g>
<!-- 17 -->
<g id="node18" class="node">
<title>17</title>
<path fill="none" stroke="#d88d56" stroke-width="2" d="M399.5,-324C399.5,-324 320.5,-324 320.5,-324 314.5,-324 308.5,-318 308.5,-312 308.5,-312 308.5,-300 308.5,-300 308.5,-294 314.5,-288 320.5,-288 320.5,-288 399.5,-288 399.5,-288 405.5,-288 411.5,-294 411.5,-300 411.5,-300 411.5,-312 411.5,-312 411.5,-318 405.5,-324 399.5,-324"/>
<text text-anchor="middle" x="360" y="-303.5" font-family="sans" font-size="10.00" fill="#000000">align_bam_filter_lca</text>
</g>
<!-- 13&#45;&gt;17 -->
<g id="edge25" class="edge">
<title>13&#45;&gt;17</title>
<path fill="none" stroke="#c0c0c0" stroke-width="2" d="M268.6307,-431.8838C279.0781,-421.7914 291.8307,-408.7243 302,-396 317.9838,-376.0004 333.5571,-351.4698 344.535,-333.0727"/>
<polygon fill="#c0c0c0" stroke="#c0c0c0" stroke-width="2" points="347.6279,-334.7179 349.6854,-324.3248 341.5957,-331.1664 347.6279,-334.7179"/>
</g>
<!-- 14&#45;&gt;13 -->
<g id="edge20" class="edge">
<title>14&#45;&gt;13</title>
<path fill="none" stroke="#c0c0c0" stroke-width="2" d="M216.8507,-503.8314C221.7023,-495.7079 227.5217,-485.9637 232.868,-477.0118"/>
<polygon fill="#c0c0c0" stroke="#c0c0c0" stroke-width="2" points="235.8806,-478.7933 238.0032,-468.4133 229.8708,-475.2041 235.8806,-478.7933"/>
</g>
<!-- 15&#45;&gt;0 -->
<g id="edge3" class="edge">
<title>15&#45;&gt;0</title>
<path fill="none" stroke="#c0c0c0" stroke-width="2" d="M206.7257,-143.7623C217.2218,-118.9846 236.0781,-74.4714 248.3109,-45.5939"/>
<polygon fill="#c0c0c0" stroke="#c0c0c0" stroke-width="2" points="251.6592,-46.6628 252.337,-36.0896 245.2136,-43.9323 251.6592,-46.6628"/>
</g>
<!-- 15&#45;&gt;1 -->
<g id="edge5" class="edge">
<title>15&#45;&gt;1</title>
<path fill="none" stroke="#c0c0c0" stroke-width="2" d="M173.0088,-143.8314C160.0784,-134.7927 144.2778,-123.7476 130.3617,-114.0198"/>
<polygon fill="#c0c0c0" stroke="#c0c0c0" stroke-width="2" points="132.1843,-111.0235 121.9829,-108.1628 128.1737,-116.7608 132.1843,-111.0235"/>
</g>
<!-- 16&#45;&gt;0 -->
<g id="edge4" class="edge">
<title>16&#45;&gt;0</title>
<path fill="none" stroke="#c0c0c0" stroke-width="2" d="M282.9115,-215.9555C278.5549,-178.3144 268.4707,-91.1867 263.2552,-46.1246"/>
<polygon fill="#c0c0c0" stroke="#c0c0c0" stroke-width="2" points="266.7267,-45.6763 262.1001,-36.1451 259.7732,-46.4812 266.7267,-45.6763"/>
</g>
<!-- 17&#45;&gt;0 -->
<g id="edge2" class="edge">
<title>17&#45;&gt;0</title>
<path fill="none" stroke="#c0c0c0" stroke-width="2" d="M357.4125,-287.8204C354.5563,-269.462 349.3668,-240.4076 342,-216 322.0153,-149.7866 309.663,-135.8176 283,-72 279.4424,-63.485 275.5236,-54.2367 271.9442,-45.8394"/>
<polygon fill="#c0c0c0" stroke="#c0c0c0" stroke-width="2" points="275.0878,-44.2886 267.9404,-36.4677 268.6506,-47.0387 275.0878,-44.2886"/>
</g>
</g>
</svg>
