<?xml version="1.0" encoding="UTF-8" standalone="no"?>
<!DOCTYPE svg PUBLIC "-//W3C//DTD SVG 1.1//EN"
 "http://www.w3.org/Graphics/SVG/1.1/DTD/svg11.dtd">
<!-- Generated by graphviz version 2.40.1 (0)
 -->
<!-- Title: snakemake_dag Pages: 1 -->
<svg width="1465pt" height="885pt"
 viewBox="0.00 0.00 1465.00 885.00" xmlns="http://www.w3.org/2000/svg" xmlns:xlink="http://www.w3.org/1999/xlink">
<g id="graph0" class="graph" transform="scale(1 1) rotate(0) translate(4 881)">
<title>snakemake_dag</title>
<polygon fill="#ffffff" stroke="transparent" points="-4,4 -4,-881 1461,-881 1461,4 -4,4"/>
<!-- 0 -->
<g id="node1" class="node">
<title>0</title>
<path fill="none" stroke="#8fd856" stroke-width="2" d="M370.5,-36C370.5,-36 340.5,-36 340.5,-36 334.5,-36 328.5,-30 328.5,-24 328.5,-24 328.5,-12 328.5,-12 328.5,-6 334.5,0 340.5,0 340.5,0 370.5,0 370.5,0 376.5,0 382.5,-6 382.5,-12 382.5,-12 382.5,-24 382.5,-24 382.5,-30 376.5,-36 370.5,-36"/>
<text text-anchor="middle" x="355.5" y="-15.5" font-family="sans" font-size="10.00" fill="#000000">all</text>
</g>
<!-- 1 -->
<g id="node2" class="node">
<title>1</title>
<path fill="none" stroke="#56a9d8" stroke-width="2" d="M637.5,-108C637.5,-108 607.5,-108 607.5,-108 601.5,-108 595.5,-102 595.5,-96 595.5,-96 595.5,-84 595.5,-84 595.5,-78 601.5,-72 607.5,-72 607.5,-72 637.5,-72 637.5,-72 643.5,-72 649.5,-78 649.5,-84 649.5,-84 649.5,-96 649.5,-96 649.5,-102 643.5,-108 637.5,-108"/>
<text text-anchor="middle" x="622.5" y="-87.5" font-family="sans" font-size="10.00" fill="#000000">multiqc</text>
</g>
<!-- 1&#45;&gt;0 -->
<g id="edge1" class="edge">
<title>1&#45;&gt;0</title>
<path fill="none" stroke="#c0c0c0" stroke-width="2" d="M595.4293,-82.7C547.3532,-69.7357 447.0217,-42.68 392.5721,-27.997"/>
<polygon fill="#c0c0c0" stroke="#c0c0c0" stroke-width="2" points="393.2088,-24.5437 382.6424,-25.3193 391.3862,-31.3023 393.2088,-24.5437"/>
</g>
<!-- 2 -->
<g id="node3" class="node">
<title>2</title>
<path fill="none" stroke="#70d856" stroke-width="2" d="M633,-877C633,-877 526,-877 526,-877 520,-877 514,-871 514,-865 514,-865 514,-804 514,-804 514,-798 520,-792 526,-792 526,-792 633,-792 633,-792 639,-792 645,-798 645,-804 645,-804 645,-865 645,-865 645,-871 639,-877 633,-877"/>
<text text-anchor="middle" x="579.5" y="-865" font-family="sans" font-size="10.00" fill="#000000">bowtie2</text>
<text text-anchor="middle" x="579.5" y="-854" font-family="sans" font-size="10.00" fill="#000000">library: lib1</text>
<text text-anchor="middle" x="579.5" y="-843" font-family="sans" font-size="10.00" fill="#000000">n_shard: 1</text>
<text text-anchor="middle" x="579.5" y="-832" font-family="sans" font-size="10.00" fill="#000000">read_type_map: collapsed</text>
<text text-anchor="middle" x="579.5" y="-821" font-family="sans" font-size="10.00" fill="#000000">ref: wgs_eukaryota</text>
<text text-anchor="middle" x="579.5" y="-810" font-family="sans" font-size="10.00" fill="#000000">sample: HD827sonic_2</text>
<text text-anchor="middle" x="579.5" y="-799" font-family="sans" font-size="10.00" fill="#000000">tot_shards: 2</text>
</g>
<!-- 2&#45;&gt;1 -->
<g id="edge8" class="edge">
<title>2&#45;&gt;1</title>
<path fill="none" stroke="#c0c0c0" stroke-width="2" d="M557.3688,-791.7058C543.4384,-762.2858 526.7657,-721.8447 519.5,-684 504.4164,-605.4348 513.294,-583.7589 519.5,-504 526.4097,-415.1964 550.5,-395.072 550.5,-306 550.5,-306 550.5,-306 550.5,-234 550.5,-188.9118 579.0883,-143.4695 600.2364,-116.0221"/>
<polygon fill="#c0c0c0" stroke="#c0c0c0" stroke-width="2" points="603.0468,-118.1111 606.5209,-108.102 597.5633,-113.7601 603.0468,-118.1111"/>
</g>
<!-- 26 -->
<g id="node27" class="node">
<title>26</title>
<path fill="none" stroke="#5692d8" stroke-width="2" d="M652.5,-756C652.5,-756 572.5,-756 572.5,-756 566.5,-756 560.5,-750 560.5,-744 560.5,-744 560.5,-732 560.5,-732 560.5,-726 566.5,-720 572.5,-720 572.5,-720 652.5,-720 652.5,-720 658.5,-720 664.5,-726 664.5,-732 664.5,-732 664.5,-744 664.5,-744 664.5,-750 658.5,-756 652.5,-756"/>
<text text-anchor="middle" x="612.5" y="-735.5" font-family="sans" font-size="10.00" fill="#000000">shard_clean_header</text>
</g>
<!-- 2&#45;&gt;26 -->
<g id="edge45" class="edge">
<title>2&#45;&gt;26</title>
<path fill="none" stroke="#c0c0c0" stroke-width="2" d="M594.0703,-791.8928C597.0811,-783.0886 600.1788,-774.0302 602.9549,-765.9121"/>
<polygon fill="#c0c0c0" stroke="#c0c0c0" stroke-width="2" points="606.3446,-766.8164 606.2687,-756.2218 599.7212,-764.5513 606.3446,-766.8164"/>
</g>
<!-- 3 -->
<g id="node4" class="node">
<title>3</title>
<path fill="none" stroke="#70d856" stroke-width="2" d="M142,-877C142,-877 35,-877 35,-877 29,-877 23,-871 23,-865 23,-865 23,-804 23,-804 23,-798 29,-792 35,-792 35,-792 142,-792 142,-792 148,-792 154,-798 154,-804 154,-804 154,-865 154,-865 154,-871 148,-877 142,-877"/>
<text text-anchor="middle" x="88.5" y="-865" font-family="sans" font-size="10.00" fill="#000000">bowtie2</text>
<text text-anchor="middle" x="88.5" y="-854" font-family="sans" font-size="10.00" fill="#000000">library: lib2</text>
<text text-anchor="middle" x="88.5" y="-843" font-family="sans" font-size="10.00" fill="#000000">n_shard: 1</text>
<text text-anchor="middle" x="88.5" y="-832" font-family="sans" font-size="10.00" fill="#000000">read_type_map: collapsed</text>
<text text-anchor="middle" x="88.5" y="-821" font-family="sans" font-size="10.00" fill="#000000">ref: refseq_mitochondrion</text>
<text text-anchor="middle" x="88.5" y="-810" font-family="sans" font-size="10.00" fill="#000000">sample: HD827sonic_2</text>
<text text-anchor="middle" x="88.5" y="-799" font-family="sans" font-size="10.00" fill="#000000">tot_shards: 1</text>
</g>
<!-- 3&#45;&gt;1 -->
<g id="edge9" class="edge">
<title>3&#45;&gt;1</title>
<path fill="none" stroke="#c0c0c0" stroke-width="2" d="M77.5665,-791.991C75.0595,-780.3988 72.7615,-767.7854 71.5,-756 66.3598,-707.9789 71.1828,-694.6983 83.5,-648 109.57,-549.161 101.5402,-514.053 162.5,-432 178.403,-410.5943 194.9464,-417.661 210.5,-396 219.0971,-384.027 282.2994,-153.5816 293.5,-144 336.8736,-106.8958 508.686,-94.9118 585.2942,-91.3648"/>
<polygon fill="#c0c0c0" stroke="#c0c0c0" stroke-width="2" points="585.6122,-94.8543 595.4488,-90.9186 585.3048,-87.8611 585.6122,-94.8543"/>
</g>
<!-- 32 -->
<g id="node33" class="node">
<title>32</title>
<path fill="none" stroke="#5692d8" stroke-width="2" d="M172.5,-756C172.5,-756 92.5,-756 92.5,-756 86.5,-756 80.5,-750 80.5,-744 80.5,-744 80.5,-732 80.5,-732 80.5,-726 86.5,-720 92.5,-720 92.5,-720 172.5,-720 172.5,-720 178.5,-720 184.5,-726 184.5,-732 184.5,-732 184.5,-744 184.5,-744 184.5,-750 178.5,-756 172.5,-756"/>
<text text-anchor="middle" x="132.5" y="-735.5" font-family="sans" font-size="10.00" fill="#000000">shard_clean_header</text>
</g>
<!-- 3&#45;&gt;32 -->
<g id="edge53" class="edge">
<title>3&#45;&gt;32</title>
<path fill="none" stroke="#c0c0c0" stroke-width="2" d="M107.9271,-791.8928C112.0307,-782.8929 116.2553,-773.6275 120.0194,-765.3722"/>
<polygon fill="#c0c0c0" stroke="#c0c0c0" stroke-width="2" points="123.2275,-766.7727 124.1916,-756.2218 116.8583,-763.8686 123.2275,-766.7727"/>
</g>
<!-- 4 -->
<g id="node5" class="node">
<title>4</title>
<path fill="none" stroke="#70d856" stroke-width="2" d="M1288,-877C1288,-877 1181,-877 1181,-877 1175,-877 1169,-871 1169,-865 1169,-865 1169,-804 1169,-804 1169,-798 1175,-792 1181,-792 1181,-792 1288,-792 1288,-792 1294,-792 1300,-798 1300,-804 1300,-804 1300,-865 1300,-865 1300,-871 1294,-877 1288,-877"/>
<text text-anchor="middle" x="1234.5" y="-865" font-family="sans" font-size="10.00" fill="#000000">bowtie2</text>
<text text-anchor="middle" x="1234.5" y="-854" font-family="sans" font-size="10.00" fill="#000000">library: lib1</text>
<text text-anchor="middle" x="1234.5" y="-843" font-family="sans" font-size="10.00" fill="#000000">n_shard: 1</text>
<text text-anchor="middle" x="1234.5" y="-832" font-family="sans" font-size="10.00" fill="#000000">read_type_map: collapsed</text>
<text text-anchor="middle" x="1234.5" y="-821" font-family="sans" font-size="10.00" fill="#000000">ref: wgs_eukaryota</text>
<text text-anchor="middle" x="1234.5" y="-810" font-family="sans" font-size="10.00" fill="#000000">sample: HD827sonic_1</text>
<text text-anchor="middle" x="1234.5" y="-799" font-family="sans" font-size="10.00" fill="#000000">tot_shards: 2</text>
</g>
<!-- 4&#45;&gt;1 -->
<g id="edge10" class="edge">
<title>4&#45;&gt;1</title>
<path fill="none" stroke="#c0c0c0" stroke-width="2" d="M1211.0019,-791.9081C1196.6229,-768.602 1176.5744,-740.4049 1153.5,-720 1128.177,-697.6066 1105.6605,-711.8495 1086.5,-684 967.6388,-511.2368 1116.2324,-405.5342 1026.5,-216 965.8617,-87.9189 866.3396,-130.9493 726.5,-108 704.3268,-104.3611 679.5335,-100.0783 659.7176,-96.6034"/>
<polygon fill="#c0c0c0" stroke="#c0c0c0" stroke-width="2" points="660.3043,-93.1529 649.8491,-94.8675 659.0916,-100.0471 660.3043,-93.1529"/>
</g>
<!-- 18 -->
<g id="node19" class="node">
<title>18</title>
<path fill="none" stroke="#5692d8" stroke-width="2" d="M1292.5,-756C1292.5,-756 1212.5,-756 1212.5,-756 1206.5,-756 1200.5,-750 1200.5,-744 1200.5,-744 1200.5,-732 1200.5,-732 1200.5,-726 1206.5,-720 1212.5,-720 1212.5,-720 1292.5,-720 1292.5,-720 1298.5,-720 1304.5,-726 1304.5,-732 1304.5,-732 1304.5,-744 1304.5,-744 1304.5,-750 1298.5,-756 1292.5,-756"/>
<text text-anchor="middle" x="1252.5" y="-735.5" font-family="sans" font-size="10.00" fill="#000000">shard_clean_header</text>
</g>
<!-- 4&#45;&gt;18 -->
<g id="edge35" class="edge">
<title>4&#45;&gt;18</title>
<path fill="none" stroke="#c0c0c0" stroke-width="2" d="M1242.4475,-791.8928C1244.0715,-783.1864 1245.7418,-774.2315 1247.2431,-766.183"/>
<polygon fill="#c0c0c0" stroke="#c0c0c0" stroke-width="2" points="1250.708,-766.694 1249.1011,-756.2218 1243.8267,-765.4104 1250.708,-766.694"/>
</g>
<!-- 5 -->
<g id="node6" class="node">
<title>5</title>
<path fill="none" stroke="#70d856" stroke-width="2" d="M1123,-877C1123,-877 1016,-877 1016,-877 1010,-877 1004,-871 1004,-865 1004,-865 1004,-804 1004,-804 1004,-798 1010,-792 1016,-792 1016,-792 1123,-792 1123,-792 1129,-792 1135,-798 1135,-804 1135,-804 1135,-865 1135,-865 1135,-871 1129,-877 1123,-877"/>
<text text-anchor="middle" x="1069.5" y="-865" font-family="sans" font-size="10.00" fill="#000000">bowtie2</text>
<text text-anchor="middle" x="1069.5" y="-854" font-family="sans" font-size="10.00" fill="#000000">library: lib1</text>
<text text-anchor="middle" x="1069.5" y="-843" font-family="sans" font-size="10.00" fill="#000000">n_shard: 2</text>
<text text-anchor="middle" x="1069.5" y="-832" font-family="sans" font-size="10.00" fill="#000000">read_type_map: collapsed</text>
<text text-anchor="middle" x="1069.5" y="-821" font-family="sans" font-size="10.00" fill="#000000">ref: wgs_eukaryota</text>
<text text-anchor="middle" x="1069.5" y="-810" font-family="sans" font-size="10.00" fill="#000000">sample: HD827sonic_1</text>
<text text-anchor="middle" x="1069.5" y="-799" font-family="sans" font-size="10.00" fill="#000000">tot_shards: 2</text>
</g>
<!-- 5&#45;&gt;1 -->
<g id="edge11" class="edge">
<title>5&#45;&gt;1</title>
<path fill="none" stroke="#c0c0c0" stroke-width="2" d="M1046.4802,-791.8462C1030.6606,-758.5574 1012.5,-710.6244 1012.5,-666 1012.5,-666 1012.5,-666 1012.5,-234 1012.5,-170.488 959.0639,-170.8361 901.5,-144 890.5787,-138.9085 733.7993,-110.1318 660.1748,-96.7912"/>
<polygon fill="#c0c0c0" stroke="#c0c0c0" stroke-width="2" points="660.4062,-93.2763 649.9428,-94.9395 659.1597,-100.1644 660.4062,-93.2763"/>
</g>
<!-- 14 -->
<g id="node15" class="node">
<title>14</title>
<path fill="none" stroke="#5692d8" stroke-width="2" d="M1132.5,-756C1132.5,-756 1052.5,-756 1052.5,-756 1046.5,-756 1040.5,-750 1040.5,-744 1040.5,-744 1040.5,-732 1040.5,-732 1040.5,-726 1046.5,-720 1052.5,-720 1052.5,-720 1132.5,-720 1132.5,-720 1138.5,-720 1144.5,-726 1144.5,-732 1144.5,-732 1144.5,-744 1144.5,-744 1144.5,-750 1138.5,-756 1132.5,-756"/>
<text text-anchor="middle" x="1092.5" y="-735.5" font-family="sans" font-size="10.00" fill="#000000">shard_clean_header</text>
</g>
<!-- 5&#45;&gt;14 -->
<g id="edge31" class="edge">
<title>5&#45;&gt;14</title>
<path fill="none" stroke="#c0c0c0" stroke-width="2" d="M1079.6551,-791.8928C1081.7302,-783.1864 1083.8645,-774.2315 1085.7828,-766.183"/>
<polygon fill="#c0c0c0" stroke="#c0c0c0" stroke-width="2" points="1089.2431,-766.7608 1088.157,-756.2218 1082.4338,-765.1378 1089.2431,-766.7608"/>
</g>
<!-- 6 -->
<g id="node7" class="node">
<title>6</title>
<path fill="none" stroke="#70d856" stroke-width="2" d="M952,-877C952,-877 845,-877 845,-877 839,-877 833,-871 833,-865 833,-865 833,-804 833,-804 833,-798 839,-792 845,-792 845,-792 952,-792 952,-792 958,-792 964,-798 964,-804 964,-804 964,-865 964,-865 964,-871 958,-877 952,-877"/>
<text text-anchor="middle" x="898.5" y="-865" font-family="sans" font-size="10.00" fill="#000000">bowtie2</text>
<text text-anchor="middle" x="898.5" y="-854" font-family="sans" font-size="10.00" fill="#000000">library: lib1</text>
<text text-anchor="middle" x="898.5" y="-843" font-family="sans" font-size="10.00" fill="#000000">n_shard: 1</text>
<text text-anchor="middle" x="898.5" y="-832" font-family="sans" font-size="10.00" fill="#000000">read_type_map: collapsed</text>
<text text-anchor="middle" x="898.5" y="-821" font-family="sans" font-size="10.00" fill="#000000">ref: refseq_mitochondrion</text>
<text text-anchor="middle" x="898.5" y="-810" font-family="sans" font-size="10.00" fill="#000000">sample: HD827sonic_2</text>
<text text-anchor="middle" x="898.5" y="-799" font-family="sans" font-size="10.00" fill="#000000">tot_shards: 1</text>
</g>
<!-- 6&#45;&gt;1 -->
<g id="edge12" class="edge">
<title>6&#45;&gt;1</title>
<path fill="none" stroke="#c0c0c0" stroke-width="2" d="M934.5234,-791.667C942.4123,-780.5971 950.0299,-768.3135 955.5,-756 972.097,-718.6389 974.5,-706.8816 974.5,-666 974.5,-666 974.5,-666 974.5,-234 974.5,-166.4496 749.6284,-114.8889 659.3535,-96.9115"/>
<polygon fill="#c0c0c0" stroke="#c0c0c0" stroke-width="2" points="660.0234,-93.4763 649.5364,-94.9836 658.6745,-100.3451 660.0234,-93.4763"/>
</g>
<!-- 24 -->
<g id="node25" class="node">
<title>24</title>
<path fill="none" stroke="#5692d8" stroke-width="2" d="M934.5,-756C934.5,-756 854.5,-756 854.5,-756 848.5,-756 842.5,-750 842.5,-744 842.5,-744 842.5,-732 842.5,-732 842.5,-726 848.5,-720 854.5,-720 854.5,-720 934.5,-720 934.5,-720 940.5,-720 946.5,-726 946.5,-732 946.5,-732 946.5,-744 946.5,-744 946.5,-750 940.5,-756 934.5,-756"/>
<text text-anchor="middle" x="894.5" y="-735.5" font-family="sans" font-size="10.00" fill="#000000">shard_clean_header</text>
</g>
<!-- 6&#45;&gt;24 -->
<g id="edge43" class="edge">
<title>6&#45;&gt;24</title>
<path fill="none" stroke="#c0c0c0" stroke-width="2" d="M896.7339,-791.8928C896.3771,-783.2842 896.0102,-774.4327 895.6795,-766.4546"/>
<polygon fill="#c0c0c0" stroke="#c0c0c0" stroke-width="2" points="899.1666,-766.0682 895.2553,-756.2218 892.1726,-766.3582 899.1666,-766.0682"/>
</g>
<!-- 7 -->
<g id="node8" class="node">
<title>7</title>
<path fill="none" stroke="#70d856" stroke-width="2" d="M317,-877C317,-877 210,-877 210,-877 204,-877 198,-871 198,-865 198,-865 198,-804 198,-804 198,-798 204,-792 210,-792 210,-792 317,-792 317,-792 323,-792 329,-798 329,-804 329,-804 329,-865 329,-865 329,-871 323,-877 317,-877"/>
<text text-anchor="middle" x="263.5" y="-865" font-family="sans" font-size="10.00" fill="#000000">bowtie2</text>
<text text-anchor="middle" x="263.5" y="-854" font-family="sans" font-size="10.00" fill="#000000">library: lib2</text>
<text text-anchor="middle" x="263.5" y="-843" font-family="sans" font-size="10.00" fill="#000000">n_shard: 1</text>
<text text-anchor="middle" x="263.5" y="-832" font-family="sans" font-size="10.00" fill="#000000">read_type_map: collapsed</text>
<text text-anchor="middle" x="263.5" y="-821" font-family="sans" font-size="10.00" fill="#000000">ref: wgs_eukaryota</text>
<text text-anchor="middle" x="263.5" y="-810" font-family="sans" font-size="10.00" fill="#000000">sample: HD827sonic_2</text>
<text text-anchor="middle" x="263.5" y="-799" font-family="sans" font-size="10.00" fill="#000000">tot_shards: 2</text>
</g>
<!-- 7&#45;&gt;1 -->
<g id="edge13" class="edge">
<title>7&#45;&gt;1</title>
<path fill="none" stroke="#c0c0c0" stroke-width="2" d="M294.0293,-791.8759C301.5333,-780.501 309.2106,-768.0226 315.5,-756 339.4485,-710.2211 337.5987,-695.248 358.5,-648 408.9196,-534.0249 435.8155,-511.9542 481.5,-396 512.1635,-318.1714 511.5499,-295.8438 536.5,-216 546.5196,-183.936 540.9308,-171.9942 559.5,-144 566.8514,-132.9173 577.0938,-122.8052 587.1861,-114.4051"/>
<polygon fill="#c0c0c0" stroke="#c0c0c0" stroke-width="2" points="589.5349,-117.0092 595.1895,-108.0495 585.1818,-111.5274 589.5349,-117.0092"/>
</g>
<!-- 34 -->
<g id="node35" class="node">
<title>34</title>
<path fill="none" stroke="#5692d8" stroke-width="2" d="M294.5,-756C294.5,-756 214.5,-756 214.5,-756 208.5,-756 202.5,-750 202.5,-744 202.5,-744 202.5,-732 202.5,-732 202.5,-726 208.5,-720 214.5,-720 214.5,-720 294.5,-720 294.5,-720 300.5,-720 306.5,-726 306.5,-732 306.5,-732 306.5,-744 306.5,-744 306.5,-750 300.5,-756 294.5,-756"/>
<text text-anchor="middle" x="254.5" y="-735.5" font-family="sans" font-size="10.00" fill="#000000">shard_clean_header</text>
</g>
<!-- 7&#45;&gt;34 -->
<g id="edge55" class="edge">
<title>7&#45;&gt;34</title>
<path fill="none" stroke="#c0c0c0" stroke-width="2" d="M259.5263,-791.8928C258.7143,-783.1864 257.8791,-774.2315 257.1285,-766.183"/>
<polygon fill="#c0c0c0" stroke="#c0c0c0" stroke-width="2" points="260.613,-765.8535 256.1994,-756.2218 253.6433,-766.5036 260.613,-765.8535"/>
</g>
<!-- 8 -->
<g id="node9" class="node">
<title>8</title>
<path fill="none" stroke="#70d856" stroke-width="2" d="M1445,-877C1445,-877 1338,-877 1338,-877 1332,-877 1326,-871 1326,-865 1326,-865 1326,-804 1326,-804 1326,-798 1332,-792 1338,-792 1338,-792 1445,-792 1445,-792 1451,-792 1457,-798 1457,-804 1457,-804 1457,-865 1457,-865 1457,-871 1451,-877 1445,-877"/>
<text text-anchor="middle" x="1391.5" y="-865" font-family="sans" font-size="10.00" fill="#000000">bowtie2</text>
<text text-anchor="middle" x="1391.5" y="-854" font-family="sans" font-size="10.00" fill="#000000">library: lib1</text>
<text text-anchor="middle" x="1391.5" y="-843" font-family="sans" font-size="10.00" fill="#000000">n_shard: 1</text>
<text text-anchor="middle" x="1391.5" y="-832" font-family="sans" font-size="10.00" fill="#000000">read_type_map: collapsed</text>
<text text-anchor="middle" x="1391.5" y="-821" font-family="sans" font-size="10.00" fill="#000000">ref: refseq_mitochondrion</text>
<text text-anchor="middle" x="1391.5" y="-810" font-family="sans" font-size="10.00" fill="#000000">sample: HD827sonic_1</text>
<text text-anchor="middle" x="1391.5" y="-799" font-family="sans" font-size="10.00" fill="#000000">tot_shards: 1</text>
</g>
<!-- 8&#45;&gt;1 -->
<g id="edge14" class="edge">
<title>8&#45;&gt;1</title>
<path fill="none" stroke="#c0c0c0" stroke-width="2" d="M1418.603,-791.6231C1424.8594,-780.3561 1430.9934,-767.9923 1435.5,-756 1449.8811,-717.7313 1454.5,-706.8816 1454.5,-666 1454.5,-666 1454.5,-666 1454.5,-234 1454.5,-183.3255 1429.2058,-167.8599 1384.5,-144 1320.1503,-109.6559 803.6701,-94.4609 659.6613,-90.866"/>
<polygon fill="#c0c0c0" stroke="#c0c0c0" stroke-width="2" points="659.6455,-87.3646 649.5625,-90.6178 659.4734,-94.3625 659.6455,-87.3646"/>
</g>
<!-- 16 -->
<g id="node17" class="node">
<title>16</title>
<path fill="none" stroke="#5692d8" stroke-width="2" d="M1414.5,-756C1414.5,-756 1334.5,-756 1334.5,-756 1328.5,-756 1322.5,-750 1322.5,-744 1322.5,-744 1322.5,-732 1322.5,-732 1322.5,-726 1328.5,-720 1334.5,-720 1334.5,-720 1414.5,-720 1414.5,-720 1420.5,-720 1426.5,-726 1426.5,-732 1426.5,-732 1426.5,-744 1426.5,-744 1426.5,-750 1420.5,-756 1414.5,-756"/>
<text text-anchor="middle" x="1374.5" y="-735.5" font-family="sans" font-size="10.00" fill="#000000">shard_clean_header</text>
</g>
<!-- 8&#45;&gt;16 -->
<g id="edge33" class="edge">
<title>8&#45;&gt;16</title>
<path fill="none" stroke="#c0c0c0" stroke-width="2" d="M1383.9941,-791.8928C1382.4603,-783.1864 1380.8827,-774.2315 1379.4649,-766.183"/>
<polygon fill="#c0c0c0" stroke="#c0c0c0" stroke-width="2" points="1382.892,-765.4629 1377.7101,-756.2218 1375.9982,-766.6774 1382.892,-765.4629"/>
</g>
<!-- 9 -->
<g id="node10" class="node">
<title>9</title>
<path fill="none" stroke="#70d856" stroke-width="2" d="M476,-877C476,-877 369,-877 369,-877 363,-877 357,-871 357,-865 357,-865 357,-804 357,-804 357,-798 363,-792 369,-792 369,-792 476,-792 476,-792 482,-792 488,-798 488,-804 488,-804 488,-865 488,-865 488,-871 482,-877 476,-877"/>
<text text-anchor="middle" x="422.5" y="-865" font-family="sans" font-size="10.00" fill="#000000">bowtie2</text>
<text text-anchor="middle" x="422.5" y="-854" font-family="sans" font-size="10.00" fill="#000000">library: lib2</text>
<text text-anchor="middle" x="422.5" y="-843" font-family="sans" font-size="10.00" fill="#000000">n_shard: 2</text>
<text text-anchor="middle" x="422.5" y="-832" font-family="sans" font-size="10.00" fill="#000000">read_type_map: collapsed</text>
<text text-anchor="middle" x="422.5" y="-821" font-family="sans" font-size="10.00" fill="#000000">ref: wgs_eukaryota</text>
<text text-anchor="middle" x="422.5" y="-810" font-family="sans" font-size="10.00" fill="#000000">sample: HD827sonic_2</text>
<text text-anchor="middle" x="422.5" y="-799" font-family="sans" font-size="10.00" fill="#000000">tot_shards: 2</text>
</g>
<!-- 9&#45;&gt;1 -->
<g id="edge15" class="edge">
<title>9&#45;&gt;1</title>
<path fill="none" stroke="#c0c0c0" stroke-width="2" d="M464.0822,-791.8845C488.1785,-768.7113 519.922,-740.6512 551.5,-720 583.4543,-699.1027 602.5378,-711.0336 629.5,-684 682.9962,-630.3621 682.5,-597.7553 682.5,-522 682.5,-522 682.5,-522 682.5,-234 682.5,-190.2551 658.6152,-144.3872 640.9852,-116.4891"/>
<polygon fill="#c0c0c0" stroke="#c0c0c0" stroke-width="2" points="643.9066,-114.5614 635.5191,-108.0882 638.0392,-118.379 643.9066,-114.5614"/>
</g>
<!-- 30 -->
<g id="node31" class="node">
<title>30</title>
<path fill="none" stroke="#5692d8" stroke-width="2" d="M454.5,-756C454.5,-756 374.5,-756 374.5,-756 368.5,-756 362.5,-750 362.5,-744 362.5,-744 362.5,-732 362.5,-732 362.5,-726 368.5,-720 374.5,-720 374.5,-720 454.5,-720 454.5,-720 460.5,-720 466.5,-726 466.5,-732 466.5,-732 466.5,-744 466.5,-744 466.5,-750 460.5,-756 454.5,-756"/>
<text text-anchor="middle" x="414.5" y="-735.5" font-family="sans" font-size="10.00" fill="#000000">shard_clean_header</text>
</g>
<!-- 9&#45;&gt;30 -->
<g id="edge51" class="edge">
<title>9&#45;&gt;30</title>
<path fill="none" stroke="#c0c0c0" stroke-width="2" d="M418.9678,-791.8928C418.2541,-783.2842 417.5203,-774.4327 416.8589,-766.4546"/>
<polygon fill="#c0c0c0" stroke="#c0c0c0" stroke-width="2" points="420.3249,-765.8984 416.0106,-756.2218 413.3489,-766.4768 420.3249,-765.8984"/>
</g>
<!-- 10 -->
<g id="node11" class="node">
<title>10</title>
<path fill="none" stroke="#70d856" stroke-width="2" d="M793,-877C793,-877 686,-877 686,-877 680,-877 674,-871 674,-865 674,-865 674,-804 674,-804 674,-798 680,-792 686,-792 686,-792 793,-792 793,-792 799,-792 805,-798 805,-804 805,-804 805,-865 805,-865 805,-871 799,-877 793,-877"/>
<text text-anchor="middle" x="739.5" y="-865" font-family="sans" font-size="10.00" fill="#000000">bowtie2</text>
<text text-anchor="middle" x="739.5" y="-854" font-family="sans" font-size="10.00" fill="#000000">library: lib1</text>
<text text-anchor="middle" x="739.5" y="-843" font-family="sans" font-size="10.00" fill="#000000">n_shard: 2</text>
<text text-anchor="middle" x="739.5" y="-832" font-family="sans" font-size="10.00" fill="#000000">read_type_map: collapsed</text>
<text text-anchor="middle" x="739.5" y="-821" font-family="sans" font-size="10.00" fill="#000000">ref: wgs_eukaryota</text>
<text text-anchor="middle" x="739.5" y="-810" font-family="sans" font-size="10.00" fill="#000000">sample: HD827sonic_2</text>
<text text-anchor="middle" x="739.5" y="-799" font-family="sans" font-size="10.00" fill="#000000">tot_shards: 2</text>
</g>
<!-- 10&#45;&gt;1 -->
<g id="edge16" class="edge">
<title>10&#45;&gt;1</title>
<path fill="none" stroke="#c0c0c0" stroke-width="2" d="M769.6363,-791.9128C786.8799,-769.1578 809.7614,-741.4892 833.5,-720 854.8841,-700.6423 871.3223,-707.8806 887.5,-684 910.4289,-650.1537 906.5,-634.8816 906.5,-594 906.5,-594 906.5,-594 906.5,-234 906.5,-179.2422 736.4286,-122.9996 659.5051,-100.3615"/>
<polygon fill="#c0c0c0" stroke="#c0c0c0" stroke-width="2" points="660.3107,-96.9509 649.7311,-97.5187 658.3557,-103.6724 660.3107,-96.9509"/>
</g>
<!-- 22 -->
<g id="node23" class="node">
<title>22</title>
<path fill="none" stroke="#5692d8" stroke-width="2" d="M774.5,-756C774.5,-756 694.5,-756 694.5,-756 688.5,-756 682.5,-750 682.5,-744 682.5,-744 682.5,-732 682.5,-732 682.5,-726 688.5,-720 694.5,-720 694.5,-720 774.5,-720 774.5,-720 780.5,-720 786.5,-726 786.5,-732 786.5,-732 786.5,-744 786.5,-744 786.5,-750 780.5,-756 774.5,-756"/>
<text text-anchor="middle" x="734.5" y="-735.5" font-family="sans" font-size="10.00" fill="#000000">shard_clean_header</text>
</g>
<!-- 10&#45;&gt;22 -->
<g id="edge41" class="edge">
<title>10&#45;&gt;22</title>
<path fill="none" stroke="#c0c0c0" stroke-width="2" d="M737.2924,-791.8928C736.8463,-783.2842 736.3877,-774.4327 735.9743,-766.4546"/>
<polygon fill="#c0c0c0" stroke="#c0c0c0" stroke-width="2" points="739.457,-766.0273 735.4441,-756.2218 732.4664,-766.3895 739.457,-766.0273"/>
</g>
<!-- 11 -->
<g id="node12" class="node">
<title>11</title>
<path fill="none" stroke="#afd856" stroke-width="2" d="M1130.5,-252C1130.5,-252 1090.5,-252 1090.5,-252 1084.5,-252 1078.5,-246 1078.5,-240 1078.5,-240 1078.5,-228 1078.5,-228 1078.5,-222 1084.5,-216 1090.5,-216 1090.5,-216 1130.5,-216 1130.5,-216 1136.5,-216 1142.5,-222 1142.5,-228 1142.5,-228 1142.5,-240 1142.5,-240 1142.5,-246 1136.5,-252 1130.5,-252"/>
<text text-anchor="middle" x="1110.5" y="-231.5" font-family="sans" font-size="10.00" fill="#000000">align_stats</text>
</g>
<!-- 11&#45;&gt;1 -->
<g id="edge17" class="edge">
<title>11&#45;&gt;1</title>
<path fill="none" stroke="#c0c0c0" stroke-width="2" d="M1106.5952,-215.7673C1101.069,-194.7685 1088.8082,-160.9871 1064.5,-144 1031.5278,-120.9583 760.0041,-99.6891 659.6202,-92.5409"/>
<polygon fill="#c0c0c0" stroke="#c0c0c0" stroke-width="2" points="659.8454,-89.0482 649.6239,-91.8356 659.3527,-96.0309 659.8454,-89.0482"/>
</g>
<!-- 12 -->
<g id="node13" class="node">
<title>12</title>
<path fill="none" stroke="#d88d56" stroke-width="2" d="M1275,-612C1275,-612 1230,-612 1230,-612 1224,-612 1218,-606 1218,-600 1218,-600 1218,-588 1218,-588 1218,-582 1224,-576 1230,-576 1230,-576 1275,-576 1275,-576 1281,-576 1287,-582 1287,-588 1287,-588 1287,-600 1287,-600 1287,-606 1281,-612 1275,-612"/>
<text text-anchor="middle" x="1252.5" y="-591.5" font-family="sans" font-size="10.00" fill="#000000">align_merge</text>
</g>
<!-- 12&#45;&gt;11 -->
<g id="edge26" class="edge">
<title>12&#45;&gt;11</title>
<path fill="none" stroke="#c0c0c0" stroke-width="2" d="M1228.5644,-575.9237C1198.6973,-551.1078 1151.5,-503.4385 1151.5,-450 1151.5,-450 1151.5,-450 1151.5,-378 1151.5,-336.1463 1135.2804,-289.9754 1123.2444,-261.4754"/>
<polygon fill="#c0c0c0" stroke="#c0c0c0" stroke-width="2" points="1126.3939,-259.9412 1119.195,-252.1676 1119.975,-262.7337 1126.3939,-259.9412"/>
</g>
<!-- 39 -->
<g id="node40" class="node">
<title>39</title>
<path fill="none" stroke="#d8cb56" stroke-width="2" d="M1286.5,-540C1286.5,-540 1222.5,-540 1222.5,-540 1216.5,-540 1210.5,-534 1210.5,-528 1210.5,-528 1210.5,-516 1210.5,-516 1210.5,-510 1216.5,-504 1222.5,-504 1222.5,-504 1286.5,-504 1286.5,-504 1292.5,-504 1298.5,-510 1298.5,-516 1298.5,-516 1298.5,-528 1298.5,-528 1298.5,-534 1292.5,-540 1286.5,-540"/>
<text text-anchor="middle" x="1254.5" y="-519.5" font-family="sans" font-size="10.00" fill="#000000">align_sort_coord</text>
</g>
<!-- 12&#45;&gt;39 -->
<g id="edge60" class="edge">
<title>12&#45;&gt;39</title>
<path fill="none" stroke="#c0c0c0" stroke-width="2" d="M1253.0047,-575.8314C1253.2186,-568.131 1253.4729,-558.9743 1253.7106,-550.4166"/>
<polygon fill="#c0c0c0" stroke="#c0c0c0" stroke-width="2" points="1257.2094,-550.5066 1253.9885,-540.4133 1250.2121,-550.3122 1257.2094,-550.5066"/>
</g>
<!-- 13 -->
<g id="node14" class="node">
<title>13</title>
<path fill="none" stroke="#5673d8" stroke-width="2" d="M1175.5,-684C1175.5,-684 1107.5,-684 1107.5,-684 1101.5,-684 1095.5,-678 1095.5,-672 1095.5,-672 1095.5,-660 1095.5,-660 1095.5,-654 1101.5,-648 1107.5,-648 1107.5,-648 1175.5,-648 1175.5,-648 1181.5,-648 1187.5,-654 1187.5,-660 1187.5,-660 1187.5,-672 1187.5,-672 1187.5,-678 1181.5,-684 1175.5,-684"/>
<text text-anchor="middle" x="1141.5" y="-663.5" font-family="sans" font-size="10.00" fill="#000000">shard_sort_query</text>
</g>
<!-- 13&#45;&gt;12 -->
<g id="edge27" class="edge">
<title>13&#45;&gt;12</title>
<path fill="none" stroke="#c0c0c0" stroke-width="2" d="M1169.51,-647.8314C1183.5761,-638.7074 1200.794,-627.539 1215.8933,-617.7449"/>
<polygon fill="#c0c0c0" stroke="#c0c0c0" stroke-width="2" points="1218.014,-620.5412 1224.499,-612.1628 1214.2047,-614.6684 1218.014,-620.5412"/>
</g>
<!-- 14&#45;&gt;13 -->
<g id="edge30" class="edge">
<title>14&#45;&gt;13</title>
<path fill="none" stroke="#c0c0c0" stroke-width="2" d="M1104.8648,-719.8314C1110.4509,-711.6232 1117.163,-701.7606 1123.3072,-692.7323"/>
<polygon fill="#c0c0c0" stroke="#c0c0c0" stroke-width="2" points="1126.236,-694.6496 1128.9687,-684.4133 1120.449,-690.7112 1126.236,-694.6496"/>
</g>
<!-- 15 -->
<g id="node16" class="node">
<title>15</title>
<path fill="none" stroke="#5673d8" stroke-width="2" d="M1402.5,-684C1402.5,-684 1334.5,-684 1334.5,-684 1328.5,-684 1322.5,-678 1322.5,-672 1322.5,-672 1322.5,-660 1322.5,-660 1322.5,-654 1328.5,-648 1334.5,-648 1334.5,-648 1402.5,-648 1402.5,-648 1408.5,-648 1414.5,-654 1414.5,-660 1414.5,-660 1414.5,-672 1414.5,-672 1414.5,-678 1408.5,-684 1402.5,-684"/>
<text text-anchor="middle" x="1368.5" y="-663.5" font-family="sans" font-size="10.00" fill="#000000">shard_sort_query</text>
</g>
<!-- 15&#45;&gt;12 -->
<g id="edge28" class="edge">
<title>15&#45;&gt;12</title>
<path fill="none" stroke="#c0c0c0" stroke-width="2" d="M1339.2283,-647.8314C1324.3912,-638.6221 1306.1985,-627.3301 1290.3138,-617.4706"/>
<polygon fill="#c0c0c0" stroke="#c0c0c0" stroke-width="2" points="1292.1045,-614.4628 1281.7623,-612.1628 1288.413,-620.4102 1292.1045,-614.4628"/>
</g>
<!-- 16&#45;&gt;15 -->
<g id="edge32" class="edge">
<title>16&#45;&gt;15</title>
<path fill="none" stroke="#c0c0c0" stroke-width="2" d="M1372.9859,-719.8314C1372.3442,-712.131 1371.5812,-702.9743 1370.8681,-694.4166"/>
<polygon fill="#c0c0c0" stroke="#c0c0c0" stroke-width="2" points="1374.3529,-694.088 1370.0344,-684.4133 1367.3771,-694.6694 1374.3529,-694.088"/>
</g>
<!-- 17 -->
<g id="node18" class="node">
<title>17</title>
<path fill="none" stroke="#5673d8" stroke-width="2" d="M1286.5,-684C1286.5,-684 1218.5,-684 1218.5,-684 1212.5,-684 1206.5,-678 1206.5,-672 1206.5,-672 1206.5,-660 1206.5,-660 1206.5,-654 1212.5,-648 1218.5,-648 1218.5,-648 1286.5,-648 1286.5,-648 1292.5,-648 1298.5,-654 1298.5,-660 1298.5,-660 1298.5,-672 1298.5,-672 1298.5,-678 1292.5,-684 1286.5,-684"/>
<text text-anchor="middle" x="1252.5" y="-663.5" font-family="sans" font-size="10.00" fill="#000000">shard_sort_query</text>
</g>
<!-- 17&#45;&gt;12 -->
<g id="edge29" class="edge">
<title>17&#45;&gt;12</title>
<path fill="none" stroke="#c0c0c0" stroke-width="2" d="M1252.5,-647.8314C1252.5,-640.131 1252.5,-630.9743 1252.5,-622.4166"/>
<polygon fill="#c0c0c0" stroke="#c0c0c0" stroke-width="2" points="1256.0001,-622.4132 1252.5,-612.4133 1249.0001,-622.4133 1256.0001,-622.4132"/>
</g>
<!-- 18&#45;&gt;17 -->
<g id="edge34" class="edge">
<title>18&#45;&gt;17</title>
<path fill="none" stroke="#c0c0c0" stroke-width="2" d="M1252.5,-719.8314C1252.5,-712.131 1252.5,-702.9743 1252.5,-694.4166"/>
<polygon fill="#c0c0c0" stroke="#c0c0c0" stroke-width="2" points="1256.0001,-694.4132 1252.5,-684.4133 1249.0001,-694.4133 1256.0001,-694.4132"/>
</g>
<!-- 19 -->
<g id="node20" class="node">
<title>19</title>
<path fill="none" stroke="#afd856" stroke-width="2" d="M642.5,-468C642.5,-468 602.5,-468 602.5,-468 596.5,-468 590.5,-462 590.5,-456 590.5,-456 590.5,-444 590.5,-444 590.5,-438 596.5,-432 602.5,-432 602.5,-432 642.5,-432 642.5,-432 648.5,-432 654.5,-438 654.5,-444 654.5,-444 654.5,-456 654.5,-456 654.5,-462 648.5,-468 642.5,-468"/>
<text text-anchor="middle" x="622.5" y="-447.5" font-family="sans" font-size="10.00" fill="#000000">align_stats</text>
</g>
<!-- 19&#45;&gt;1 -->
<g id="edge18" class="edge">
<title>19&#45;&gt;1</title>
<path fill="none" stroke="#c0c0c0" stroke-width="2" d="M622.5,-431.8146C622.5,-404.4983 622.5,-351.25 622.5,-306 622.5,-306 622.5,-306 622.5,-234 622.5,-193.876 622.5,-147.4631 622.5,-118.4177"/>
<polygon fill="#c0c0c0" stroke="#c0c0c0" stroke-width="2" points="626.0001,-118.1853 622.5,-108.1854 619.0001,-118.1854 626.0001,-118.1853"/>
</g>
<!-- 20 -->
<g id="node21" class="node">
<title>20</title>
<path fill="none" stroke="#d88d56" stroke-width="2" d="M642,-612C642,-612 597,-612 597,-612 591,-612 585,-606 585,-600 585,-600 585,-588 585,-588 585,-582 591,-576 597,-576 597,-576 642,-576 642,-576 648,-576 654,-582 654,-588 654,-588 654,-600 654,-600 654,-606 648,-612 642,-612"/>
<text text-anchor="middle" x="619.5" y="-591.5" font-family="sans" font-size="10.00" fill="#000000">align_merge</text>
</g>
<!-- 20&#45;&gt;19 -->
<g id="edge36" class="edge">
<title>20&#45;&gt;19</title>
<path fill="none" stroke="#c0c0c0" stroke-width="2" d="M622.0618,-575.5478C623.379,-565.1338 624.8427,-551.867 625.5,-540 626.6384,-519.4463 625.8121,-496.2265 624.741,-478.5207"/>
<polygon fill="#c0c0c0" stroke="#c0c0c0" stroke-width="2" points="628.2159,-478.0267 624.0578,-468.282 621.2314,-478.4928 628.2159,-478.0267"/>
</g>
<!-- 44 -->
<g id="node45" class="node">
<title>44</title>
<path fill="none" stroke="#d8cb56" stroke-width="2" d="M604.5,-540C604.5,-540 540.5,-540 540.5,-540 534.5,-540 528.5,-534 528.5,-528 528.5,-528 528.5,-516 528.5,-516 528.5,-510 534.5,-504 540.5,-504 540.5,-504 604.5,-504 604.5,-504 610.5,-504 616.5,-510 616.5,-516 616.5,-516 616.5,-528 616.5,-528 616.5,-534 610.5,-540 604.5,-540"/>
<text text-anchor="middle" x="572.5" y="-519.5" font-family="sans" font-size="10.00" fill="#000000">align_sort_coord</text>
</g>
<!-- 20&#45;&gt;44 -->
<g id="edge65" class="edge">
<title>20&#45;&gt;44</title>
<path fill="none" stroke="#c0c0c0" stroke-width="2" d="M607.6399,-575.8314C602.3371,-567.7079 595.9763,-557.9637 590.1327,-549.0118"/>
<polygon fill="#c0c0c0" stroke="#c0c0c0" stroke-width="2" points="592.9169,-546.8739 584.5198,-540.4133 587.0552,-550.7003 592.9169,-546.8739"/>
</g>
<!-- 21 -->
<g id="node22" class="node">
<title>21</title>
<path fill="none" stroke="#5673d8" stroke-width="2" d="M756.5,-684C756.5,-684 688.5,-684 688.5,-684 682.5,-684 676.5,-678 676.5,-672 676.5,-672 676.5,-660 676.5,-660 676.5,-654 682.5,-648 688.5,-648 688.5,-648 756.5,-648 756.5,-648 762.5,-648 768.5,-654 768.5,-660 768.5,-660 768.5,-672 768.5,-672 768.5,-678 762.5,-684 756.5,-684"/>
<text text-anchor="middle" x="722.5" y="-663.5" font-family="sans" font-size="10.00" fill="#000000">shard_sort_query</text>
</g>
<!-- 21&#45;&gt;20 -->
<g id="edge37" class="edge">
<title>21&#45;&gt;20</title>
<path fill="none" stroke="#c0c0c0" stroke-width="2" d="M696.5088,-647.8314C683.5784,-638.7927 667.7778,-627.7476 653.8617,-618.0198"/>
<polygon fill="#c0c0c0" stroke="#c0c0c0" stroke-width="2" points="655.6843,-615.0235 645.4829,-612.1628 651.6737,-620.7608 655.6843,-615.0235"/>
</g>
<!-- 22&#45;&gt;21 -->
<g id="edge40" class="edge">
<title>22&#45;&gt;21</title>
<path fill="none" stroke="#c0c0c0" stroke-width="2" d="M731.4719,-719.8314C730.1885,-712.131 728.6624,-702.9743 727.2361,-694.4166"/>
<polygon fill="#c0c0c0" stroke="#c0c0c0" stroke-width="2" points="730.6653,-693.7018 725.5689,-684.4133 723.7606,-694.8526 730.6653,-693.7018"/>
</g>
<!-- 23 -->
<g id="node24" class="node">
<title>23</title>
<path fill="none" stroke="#5673d8" stroke-width="2" d="M866.5,-684C866.5,-684 798.5,-684 798.5,-684 792.5,-684 786.5,-678 786.5,-672 786.5,-672 786.5,-660 786.5,-660 786.5,-654 792.5,-648 798.5,-648 798.5,-648 866.5,-648 866.5,-648 872.5,-648 878.5,-654 878.5,-660 878.5,-660 878.5,-672 878.5,-672 878.5,-678 872.5,-684 866.5,-684"/>
<text text-anchor="middle" x="832.5" y="-663.5" font-family="sans" font-size="10.00" fill="#000000">shard_sort_query</text>
</g>
<!-- 23&#45;&gt;20 -->
<g id="edge38" class="edge">
<title>23&#45;&gt;20</title>
<path fill="none" stroke="#c0c0c0" stroke-width="2" d="M786.2822,-650.3771C749.9346,-638.0906 699.6186,-621.0824 663.7801,-608.9679"/>
<polygon fill="#c0c0c0" stroke="#c0c0c0" stroke-width="2" points="664.6735,-605.5754 654.0793,-605.6888 662.4319,-612.2068 664.6735,-605.5754"/>
</g>
<!-- 24&#45;&gt;23 -->
<g id="edge42" class="edge">
<title>24&#45;&gt;23</title>
<path fill="none" stroke="#c0c0c0" stroke-width="2" d="M878.8548,-719.8314C871.6409,-711.454 862.943,-701.3531 855.0395,-692.1749"/>
<polygon fill="#c0c0c0" stroke="#c0c0c0" stroke-width="2" points="857.5333,-689.7071 848.3559,-684.4133 852.2289,-694.2748 857.5333,-689.7071"/>
</g>
<!-- 25 -->
<g id="node26" class="node">
<title>25</title>
<path fill="none" stroke="#5673d8" stroke-width="2" d="M608.5,-684C608.5,-684 540.5,-684 540.5,-684 534.5,-684 528.5,-678 528.5,-672 528.5,-672 528.5,-660 528.5,-660 528.5,-654 534.5,-648 540.5,-648 540.5,-648 608.5,-648 608.5,-648 614.5,-648 620.5,-654 620.5,-660 620.5,-660 620.5,-672 620.5,-672 620.5,-678 614.5,-684 608.5,-684"/>
<text text-anchor="middle" x="574.5" y="-663.5" font-family="sans" font-size="10.00" fill="#000000">shard_sort_query</text>
</g>
<!-- 25&#45;&gt;20 -->
<g id="edge39" class="edge">
<title>25&#45;&gt;20</title>
<path fill="none" stroke="#c0c0c0" stroke-width="2" d="M585.8554,-647.8314C590.9326,-639.7079 597.0227,-629.9637 602.6176,-621.0118"/>
<polygon fill="#c0c0c0" stroke="#c0c0c0" stroke-width="2" points="605.6597,-622.7483 607.9917,-612.4133 599.7237,-619.0383 605.6597,-622.7483"/>
</g>
<!-- 26&#45;&gt;25 -->
<g id="edge44" class="edge">
<title>26&#45;&gt;25</title>
<path fill="none" stroke="#c0c0c0" stroke-width="2" d="M602.911,-719.8314C598.6683,-711.7925 593.5879,-702.1666 588.904,-693.2918"/>
<polygon fill="#c0c0c0" stroke="#c0c0c0" stroke-width="2" points="591.9811,-691.6235 584.2181,-684.4133 585.7904,-694.8908 591.9811,-691.6235"/>
</g>
<!-- 27 -->
<g id="node28" class="node">
<title>27</title>
<path fill="none" stroke="#afd856" stroke-width="2" d="M460.5,-396C460.5,-396 420.5,-396 420.5,-396 414.5,-396 408.5,-390 408.5,-384 408.5,-384 408.5,-372 408.5,-372 408.5,-366 414.5,-360 420.5,-360 420.5,-360 460.5,-360 460.5,-360 466.5,-360 472.5,-366 472.5,-372 472.5,-372 472.5,-384 472.5,-384 472.5,-390 466.5,-396 460.5,-396"/>
<text text-anchor="middle" x="440.5" y="-375.5" font-family="sans" font-size="10.00" fill="#000000">align_stats</text>
</g>
<!-- 27&#45;&gt;1 -->
<g id="edge19" class="edge">
<title>27&#45;&gt;1</title>
<path fill="none" stroke="#c0c0c0" stroke-width="2" d="M442.8897,-359.9121C449.6763,-310.9452 470.4075,-177.2497 498.5,-144 520.5667,-117.8823 557.6501,-104.0051 585.527,-96.8937"/>
<polygon fill="#c0c0c0" stroke="#c0c0c0" stroke-width="2" points="586.4123,-100.2809 595.336,-94.5697 584.7985,-93.4695 586.4123,-100.2809"/>
</g>
<!-- 28 -->
<g id="node29" class="node">
<title>28</title>
<path fill="none" stroke="#d88d56" stroke-width="2" d="M277,-612C277,-612 232,-612 232,-612 226,-612 220,-606 220,-600 220,-600 220,-588 220,-588 220,-582 226,-576 232,-576 232,-576 277,-576 277,-576 283,-576 289,-582 289,-588 289,-588 289,-600 289,-600 289,-606 283,-612 277,-612"/>
<text text-anchor="middle" x="254.5" y="-591.5" font-family="sans" font-size="10.00" fill="#000000">align_merge</text>
</g>
<!-- 28&#45;&gt;27 -->
<g id="edge46" class="edge">
<title>28&#45;&gt;27</title>
<path fill="none" stroke="#c0c0c0" stroke-width="2" d="M277.7879,-575.9907C306.4379,-553.0502 355.4554,-511.1747 389.5,-468 404.8406,-448.5453 418.4577,-423.9229 427.754,-405.3518"/>
<polygon fill="#c0c0c0" stroke="#c0c0c0" stroke-width="2" points="430.9557,-406.7719 432.2078,-396.2513 424.6682,-403.6948 430.9557,-406.7719"/>
</g>
<!-- 49 -->
<g id="node50" class="node">
<title>49</title>
<path fill="none" stroke="#d8cb56" stroke-width="2" d="M271.5,-540C271.5,-540 207.5,-540 207.5,-540 201.5,-540 195.5,-534 195.5,-528 195.5,-528 195.5,-516 195.5,-516 195.5,-510 201.5,-504 207.5,-504 207.5,-504 271.5,-504 271.5,-504 277.5,-504 283.5,-510 283.5,-516 283.5,-516 283.5,-528 283.5,-528 283.5,-534 277.5,-540 271.5,-540"/>
<text text-anchor="middle" x="239.5" y="-519.5" font-family="sans" font-size="10.00" fill="#000000">align_sort_coord</text>
</g>
<!-- 28&#45;&gt;49 -->
<g id="edge70" class="edge">
<title>28&#45;&gt;49</title>
<path fill="none" stroke="#c0c0c0" stroke-width="2" d="M250.7149,-575.8314C249.1106,-568.131 247.203,-558.9743 245.4201,-550.4166"/>
<polygon fill="#c0c0c0" stroke="#c0c0c0" stroke-width="2" points="248.8021,-549.4892 243.3361,-540.4133 241.9493,-550.9169 248.8021,-549.4892"/>
</g>
<!-- 29 -->
<g id="node30" class="node">
<title>29</title>
<path fill="none" stroke="#5673d8" stroke-width="2" d="M447.5,-684C447.5,-684 379.5,-684 379.5,-684 373.5,-684 367.5,-678 367.5,-672 367.5,-672 367.5,-660 367.5,-660 367.5,-654 373.5,-648 379.5,-648 379.5,-648 447.5,-648 447.5,-648 453.5,-648 459.5,-654 459.5,-660 459.5,-660 459.5,-672 459.5,-672 459.5,-678 453.5,-684 447.5,-684"/>
<text text-anchor="middle" x="413.5" y="-663.5" font-family="sans" font-size="10.00" fill="#000000">shard_sort_query</text>
</g>
<!-- 29&#45;&gt;28 -->
<g id="edge47" class="edge">
<title>29&#45;&gt;28</title>
<path fill="none" stroke="#c0c0c0" stroke-width="2" d="M373.3776,-647.8314C350.576,-637.5061 321.9926,-624.5627 298.5686,-613.9556"/>
<polygon fill="#c0c0c0" stroke="#c0c0c0" stroke-width="2" points="299.7624,-610.6541 289.209,-609.7173 296.8748,-617.0308 299.7624,-610.6541"/>
</g>
<!-- 30&#45;&gt;29 -->
<g id="edge50" class="edge">
<title>30&#45;&gt;29</title>
<path fill="none" stroke="#c0c0c0" stroke-width="2" d="M414.2477,-719.8314C414.1407,-712.131 414.0135,-702.9743 413.8947,-694.4166"/>
<polygon fill="#c0c0c0" stroke="#c0c0c0" stroke-width="2" points="417.3944,-694.3637 413.7557,-684.4133 410.3951,-694.4609 417.3944,-694.3637"/>
</g>
<!-- 31 -->
<g id="node32" class="node">
<title>31</title>
<path fill="none" stroke="#5673d8" stroke-width="2" d="M172.5,-684C172.5,-684 104.5,-684 104.5,-684 98.5,-684 92.5,-678 92.5,-672 92.5,-672 92.5,-660 92.5,-660 92.5,-654 98.5,-648 104.5,-648 104.5,-648 172.5,-648 172.5,-648 178.5,-648 184.5,-654 184.5,-660 184.5,-660 184.5,-672 184.5,-672 184.5,-678 178.5,-684 172.5,-684"/>
<text text-anchor="middle" x="138.5" y="-663.5" font-family="sans" font-size="10.00" fill="#000000">shard_sort_query</text>
</g>
<!-- 31&#45;&gt;28 -->
<g id="edge48" class="edge">
<title>31&#45;&gt;28</title>
<path fill="none" stroke="#c0c0c0" stroke-width="2" d="M167.7717,-647.8314C182.6088,-638.6221 200.8015,-627.3301 216.6862,-617.4706"/>
<polygon fill="#c0c0c0" stroke="#c0c0c0" stroke-width="2" points="218.587,-620.4102 225.2377,-612.1628 214.8955,-614.4628 218.587,-620.4102"/>
</g>
<!-- 32&#45;&gt;31 -->
<g id="edge52" class="edge">
<title>32&#45;&gt;31</title>
<path fill="none" stroke="#c0c0c0" stroke-width="2" d="M134.0141,-719.8314C134.6558,-712.131 135.4188,-702.9743 136.1319,-694.4166"/>
<polygon fill="#c0c0c0" stroke="#c0c0c0" stroke-width="2" points="139.6229,-694.6694 136.9656,-684.4133 132.6471,-694.088 139.6229,-694.6694"/>
</g>
<!-- 33 -->
<g id="node34" class="node">
<title>33</title>
<path fill="none" stroke="#5673d8" stroke-width="2" d="M288.5,-684C288.5,-684 220.5,-684 220.5,-684 214.5,-684 208.5,-678 208.5,-672 208.5,-672 208.5,-660 208.5,-660 208.5,-654 214.5,-648 220.5,-648 220.5,-648 288.5,-648 288.5,-648 294.5,-648 300.5,-654 300.5,-660 300.5,-660 300.5,-672 300.5,-672 300.5,-678 294.5,-684 288.5,-684"/>
<text text-anchor="middle" x="254.5" y="-663.5" font-family="sans" font-size="10.00" fill="#000000">shard_sort_query</text>
</g>
<!-- 33&#45;&gt;28 -->
<g id="edge49" class="edge">
<title>33&#45;&gt;28</title>
<path fill="none" stroke="#c0c0c0" stroke-width="2" d="M254.5,-647.8314C254.5,-640.131 254.5,-630.9743 254.5,-622.4166"/>
<polygon fill="#c0c0c0" stroke="#c0c0c0" stroke-width="2" points="258.0001,-622.4132 254.5,-612.4133 251.0001,-622.4133 258.0001,-622.4132"/>
</g>
<!-- 34&#45;&gt;33 -->
<g id="edge54" class="edge">
<title>34&#45;&gt;33</title>
<path fill="none" stroke="#c0c0c0" stroke-width="2" d="M254.5,-719.8314C254.5,-712.131 254.5,-702.9743 254.5,-694.4166"/>
<polygon fill="#c0c0c0" stroke="#c0c0c0" stroke-width="2" points="258.0001,-694.4132 254.5,-684.4133 251.0001,-694.4133 258.0001,-694.4132"/>
</g>
<!-- 35 -->
<g id="node36" class="node">
<title>35</title>
<path fill="none" stroke="#56d8c9" stroke-width="2" d="M1224.5,-252C1224.5,-252 1172.5,-252 1172.5,-252 1166.5,-252 1160.5,-246 1160.5,-240 1160.5,-240 1160.5,-228 1160.5,-228 1160.5,-222 1166.5,-216 1172.5,-216 1172.5,-216 1224.5,-216 1224.5,-216 1230.5,-216 1236.5,-222 1236.5,-228 1236.5,-228 1236.5,-240 1236.5,-240 1236.5,-246 1230.5,-252 1224.5,-252"/>
<text text-anchor="middle" x="1198.5" y="-231.5" font-family="sans" font-size="10.00" fill="#000000">metadmg_dfit</text>
</g>
<!-- 35&#45;&gt;1 -->
<g id="edge20" class="edge">
<title>35&#45;&gt;1</title>
<path fill="none" stroke="#c0c0c0" stroke-width="2" d="M1179.8204,-215.6012C1155.2322,-191.8195 1112.8653,-152.4488 1093.5,-144 1015.6056,-110.016 756.8915,-95.721 659.7704,-91.4639"/>
<polygon fill="#c0c0c0" stroke="#c0c0c0" stroke-width="2" points="659.6877,-87.9573 649.5473,-91.027 659.3887,-94.9509 659.6877,-87.9573"/>
</g>
<!-- 50 -->
<g id="node51" class="node">
<title>50</title>
<path fill="none" stroke="#56d892" stroke-width="2" d="M1248,-180C1248,-180 1167,-180 1167,-180 1161,-180 1155,-174 1155,-168 1155,-168 1155,-156 1155,-156 1155,-150 1161,-144 1167,-144 1167,-144 1248,-144 1248,-144 1254,-144 1260,-150 1260,-156 1260,-156 1260,-168 1260,-168 1260,-174 1254,-180 1248,-180"/>
<text text-anchor="middle" x="1207.5" y="-159.5" font-family="sans" font-size="10.00" fill="#000000">metadmg_aggregate</text>
</g>
<!-- 35&#45;&gt;50 -->
<g id="edge72" class="edge">
<title>35&#45;&gt;50</title>
<path fill="none" stroke="#c0c0c0" stroke-width="2" d="M1200.7711,-215.8314C1201.7336,-208.131 1202.8782,-198.9743 1203.9479,-190.4166"/>
<polygon fill="#c0c0c0" stroke="#c0c0c0" stroke-width="2" points="1207.4309,-190.7702 1205.1983,-180.4133 1200.4849,-189.9019 1207.4309,-190.7702"/>
</g>
<!-- 36 -->
<g id="node37" class="node">
<title>36</title>
<path fill="none" stroke="#56c9d8" stroke-width="2" d="M1284,-324C1284,-324 1233,-324 1233,-324 1227,-324 1221,-318 1221,-312 1221,-312 1221,-300 1221,-300 1221,-294 1227,-288 1233,-288 1233,-288 1284,-288 1284,-288 1290,-288 1296,-294 1296,-300 1296,-300 1296,-312 1296,-312 1296,-318 1290,-324 1284,-324"/>
<text text-anchor="middle" x="1258.5" y="-303.5" font-family="sans" font-size="10.00" fill="#000000">metadmg_lca</text>
</g>
<!-- 36&#45;&gt;35 -->
<g id="edge56" class="edge">
<title>36&#45;&gt;35</title>
<path fill="none" stroke="#c0c0c0" stroke-width="2" d="M1243.3595,-287.8314C1236.3783,-279.454 1227.9609,-269.3531 1220.3124,-260.1749"/>
<polygon fill="#c0c0c0" stroke="#c0c0c0" stroke-width="2" points="1222.9351,-257.8548 1213.8444,-252.4133 1217.5575,-262.3362 1222.9351,-257.8548"/>
</g>
<!-- 36&#45;&gt;50 -->
<g id="edge71" class="edge">
<title>36&#45;&gt;50</title>
<path fill="none" stroke="#c0c0c0" stroke-width="2" d="M1258.3366,-287.7749C1257.6097,-269.1275 1254.8884,-239.6199 1245.5,-216 1241.666,-206.3541 1235.7902,-196.7762 1229.7967,-188.4248"/>
<polygon fill="#c0c0c0" stroke="#c0c0c0" stroke-width="2" points="1232.4118,-186.0801 1223.5888,-180.2144 1226.8281,-190.3019 1232.4118,-186.0801"/>
</g>
<!-- 37 -->
<g id="node38" class="node">
<title>37</title>
<path fill="none" stroke="#c6d856" stroke-width="2" d="M1290.5,-396C1290.5,-396 1226.5,-396 1226.5,-396 1220.5,-396 1214.5,-390 1214.5,-384 1214.5,-384 1214.5,-372 1214.5,-372 1214.5,-366 1220.5,-360 1226.5,-360 1226.5,-360 1290.5,-360 1290.5,-360 1296.5,-360 1302.5,-366 1302.5,-372 1302.5,-372 1302.5,-384 1302.5,-384 1302.5,-390 1296.5,-396 1290.5,-396"/>
<text text-anchor="middle" x="1258.5" y="-375.5" font-family="sans" font-size="10.00" fill="#000000">align_sort_query</text>
</g>
<!-- 37&#45;&gt;36 -->
<g id="edge57" class="edge">
<title>37&#45;&gt;36</title>
<path fill="none" stroke="#c0c0c0" stroke-width="2" d="M1258.5,-359.8314C1258.5,-352.131 1258.5,-342.9743 1258.5,-334.4166"/>
<polygon fill="#c0c0c0" stroke="#c0c0c0" stroke-width="2" points="1262.0001,-334.4132 1258.5,-324.4133 1255.0001,-334.4133 1262.0001,-334.4132"/>
</g>
<!-- 53 -->
<g id="node54" class="node">
<title>53</title>
<path fill="none" stroke="#56d8a9" stroke-width="2" d="M1363,-180C1363,-180 1290,-180 1290,-180 1284,-180 1278,-174 1278,-168 1278,-168 1278,-156 1278,-156 1278,-150 1284,-144 1290,-144 1290,-144 1363,-144 1363,-144 1369,-144 1375,-150 1375,-156 1375,-156 1375,-168 1375,-168 1375,-174 1369,-180 1363,-180"/>
<text text-anchor="middle" x="1326.5" y="-159.5" font-family="sans" font-size="10.00" fill="#000000">metadmg_damage</text>
</g>
<!-- 37&#45;&gt;53 -->
<g id="edge77" class="edge">
<title>37&#45;&gt;53</title>
<path fill="none" stroke="#c0c0c0" stroke-width="2" d="M1278.5482,-359.8958C1287.986,-350.2009 1298.4703,-337.4924 1304.5,-324 1324.0083,-280.3474 1327.3685,-223.997 1327.3854,-190.5621"/>
<polygon fill="#c0c0c0" stroke="#c0c0c0" stroke-width="2" points="1330.8812,-190.1177 1327.2814,-180.1532 1323.8816,-190.1877 1330.8812,-190.1177"/>
</g>
<!-- 38 -->
<g id="node39" class="node">
<title>38</title>
<path fill="none" stroke="#d85656" stroke-width="2" d="M1273,-468C1273,-468 1236,-468 1236,-468 1230,-468 1224,-462 1224,-456 1224,-456 1224,-444 1224,-444 1224,-438 1230,-432 1236,-432 1236,-432 1273,-432 1273,-432 1279,-432 1285,-438 1285,-444 1285,-444 1285,-456 1285,-456 1285,-462 1279,-468 1273,-468"/>
<text text-anchor="middle" x="1254.5" y="-447.5" font-family="sans" font-size="10.00" fill="#000000">align_filter</text>
</g>
<!-- 38&#45;&gt;37 -->
<g id="edge58" class="edge">
<title>38&#45;&gt;37</title>
<path fill="none" stroke="#c0c0c0" stroke-width="2" d="M1255.5094,-431.8314C1255.9372,-424.131 1256.4459,-414.9743 1256.9213,-406.4166"/>
<polygon fill="#c0c0c0" stroke="#c0c0c0" stroke-width="2" points="1260.4169,-406.592 1257.477,-396.4133 1253.4276,-406.2037 1260.4169,-406.592"/>
</g>
<!-- 39&#45;&gt;38 -->
<g id="edge59" class="edge">
<title>39&#45;&gt;38</title>
<path fill="none" stroke="#c0c0c0" stroke-width="2" d="M1254.5,-503.8314C1254.5,-496.131 1254.5,-486.9743 1254.5,-478.4166"/>
<polygon fill="#c0c0c0" stroke="#c0c0c0" stroke-width="2" points="1258.0001,-478.4132 1254.5,-468.4133 1251.0001,-478.4133 1258.0001,-478.4132"/>
</g>
<!-- 40 -->
<g id="node41" class="node">
<title>40</title>
<path fill="none" stroke="#56d8c9" stroke-width="2" d="M434.5,-252C434.5,-252 382.5,-252 382.5,-252 376.5,-252 370.5,-246 370.5,-240 370.5,-240 370.5,-228 370.5,-228 370.5,-222 376.5,-216 382.5,-216 382.5,-216 434.5,-216 434.5,-216 440.5,-216 446.5,-222 446.5,-228 446.5,-228 446.5,-240 446.5,-240 446.5,-246 440.5,-252 434.5,-252"/>
<text text-anchor="middle" x="408.5" y="-231.5" font-family="sans" font-size="10.00" fill="#000000">metadmg_dfit</text>
</g>
<!-- 40&#45;&gt;1 -->
<g id="edge21" class="edge">
<title>40&#45;&gt;1</title>
<path fill="none" stroke="#c0c0c0" stroke-width="2" d="M414.5179,-215.8375C422.135,-195.5456 437.149,-163.0502 460.5,-144 496.7749,-114.4062 549.9383,-100.7751 585.3527,-94.674"/>
<polygon fill="#c0c0c0" stroke="#c0c0c0" stroke-width="2" points="585.9691,-98.12 595.288,-93.0793 584.8597,-91.2085 585.9691,-98.12"/>
</g>
<!-- 51 -->
<g id="node52" class="node">
<title>51</title>
<path fill="none" stroke="#56d892" stroke-width="2" d="M396,-180C396,-180 315,-180 315,-180 309,-180 303,-174 303,-168 303,-168 303,-156 303,-156 303,-150 309,-144 315,-144 315,-144 396,-144 396,-144 402,-144 408,-150 408,-156 408,-156 408,-168 408,-168 408,-174 402,-180 396,-180"/>
<text text-anchor="middle" x="355.5" y="-159.5" font-family="sans" font-size="10.00" fill="#000000">metadmg_aggregate</text>
</g>
<!-- 40&#45;&gt;51 -->
<g id="edge74" class="edge">
<title>40&#45;&gt;51</title>
<path fill="none" stroke="#c0c0c0" stroke-width="2" d="M395.1259,-215.8314C389.0838,-207.6232 381.8237,-197.7606 375.1779,-188.7323"/>
<polygon fill="#c0c0c0" stroke="#c0c0c0" stroke-width="2" points="377.8011,-186.3918 369.0542,-180.4133 372.1637,-190.5415 377.8011,-186.3918"/>
</g>
<!-- 41 -->
<g id="node42" class="node">
<title>41</title>
<path fill="none" stroke="#56c9d8" stroke-width="2" d="M370,-324C370,-324 319,-324 319,-324 313,-324 307,-318 307,-312 307,-312 307,-300 307,-300 307,-294 313,-288 319,-288 319,-288 370,-288 370,-288 376,-288 382,-294 382,-300 382,-300 382,-312 382,-312 382,-318 376,-324 370,-324"/>
<text text-anchor="middle" x="344.5" y="-303.5" font-family="sans" font-size="10.00" fill="#000000">metadmg_lca</text>
</g>
<!-- 41&#45;&gt;40 -->
<g id="edge61" class="edge">
<title>41&#45;&gt;40</title>
<path fill="none" stroke="#c0c0c0" stroke-width="2" d="M360.6499,-287.8314C368.1717,-279.3694 377.2565,-269.1489 385.4804,-259.8971"/>
<polygon fill="#c0c0c0" stroke="#c0c0c0" stroke-width="2" points="388.1049,-262.2127 392.1327,-252.4133 382.873,-257.5621 388.1049,-262.2127"/>
</g>
<!-- 41&#45;&gt;51 -->
<g id="edge73" class="edge">
<title>41&#45;&gt;51</title>
<path fill="none" stroke="#c0c0c0" stroke-width="2" d="M345.8932,-287.7623C347.7694,-263.201 351.1269,-219.2474 353.3341,-190.3541"/>
<polygon fill="#c0c0c0" stroke="#c0c0c0" stroke-width="2" points="356.8462,-190.3272 354.1182,-180.0896 349.8666,-189.794 356.8462,-190.3272"/>
</g>
<!-- 42 -->
<g id="node43" class="node">
<title>42</title>
<path fill="none" stroke="#c6d856" stroke-width="2" d="M376.5,-396C376.5,-396 312.5,-396 312.5,-396 306.5,-396 300.5,-390 300.5,-384 300.5,-384 300.5,-372 300.5,-372 300.5,-366 306.5,-360 312.5,-360 312.5,-360 376.5,-360 376.5,-360 382.5,-360 388.5,-366 388.5,-372 388.5,-372 388.5,-384 388.5,-384 388.5,-390 382.5,-396 376.5,-396"/>
<text text-anchor="middle" x="344.5" y="-375.5" font-family="sans" font-size="10.00" fill="#000000">align_sort_query</text>
</g>
<!-- 42&#45;&gt;41 -->
<g id="edge62" class="edge">
<title>42&#45;&gt;41</title>
<path fill="none" stroke="#c0c0c0" stroke-width="2" d="M344.5,-359.8314C344.5,-352.131 344.5,-342.9743 344.5,-334.4166"/>
<polygon fill="#c0c0c0" stroke="#c0c0c0" stroke-width="2" points="348.0001,-334.4132 344.5,-324.4133 341.0001,-334.4133 348.0001,-334.4132"/>
</g>
<!-- 54 -->
<g id="node55" class="node">
<title>54</title>
<path fill="none" stroke="#56d8a9" stroke-width="2" d="M244,-108C244,-108 171,-108 171,-108 165,-108 159,-102 159,-96 159,-96 159,-84 159,-84 159,-78 165,-72 171,-72 171,-72 244,-72 244,-72 250,-72 256,-78 256,-84 256,-84 256,-96 256,-96 256,-102 250,-108 244,-108"/>
<text text-anchor="middle" x="207.5" y="-87.5" font-family="sans" font-size="10.00" fill="#000000">metadmg_damage</text>
</g>
<!-- 42&#45;&gt;54 -->
<g id="edge78" class="edge">
<title>42&#45;&gt;54</title>
<path fill="none" stroke="#c0c0c0" stroke-width="2" d="M300.3204,-370.6134C236.0909,-359.4602 123.1613,-338.1265 110.5,-324 56.8679,-264.1612 50.5297,-211.9017 93.5,-144 105.9913,-124.2612 127.8642,-111.5965 149.1323,-103.5376"/>
<polygon fill="#c0c0c0" stroke="#c0c0c0" stroke-width="2" points="150.5402,-106.7532 158.8256,-100.1501 148.2308,-100.1451 150.5402,-106.7532"/>
</g>
<!-- 43 -->
<g id="node44" class="node">
<title>43</title>
<path fill="none" stroke="#d85656" stroke-width="2" d="M369,-468C369,-468 332,-468 332,-468 326,-468 320,-462 320,-456 320,-456 320,-444 320,-444 320,-438 326,-432 332,-432 332,-432 369,-432 369,-432 375,-432 381,-438 381,-444 381,-444 381,-456 381,-456 381,-462 375,-468 369,-468"/>
<text text-anchor="middle" x="350.5" y="-447.5" font-family="sans" font-size="10.00" fill="#000000">align_filter</text>
</g>
<!-- 43&#45;&gt;42 -->
<g id="edge63" class="edge">
<title>43&#45;&gt;42</title>
<path fill="none" stroke="#c0c0c0" stroke-width="2" d="M348.9859,-431.8314C348.3442,-424.131 347.5812,-414.9743 346.8681,-406.4166"/>
<polygon fill="#c0c0c0" stroke="#c0c0c0" stroke-width="2" points="350.3529,-406.088 346.0344,-396.4133 343.3771,-406.6694 350.3529,-406.088"/>
</g>
<!-- 44&#45;&gt;43 -->
<g id="edge64" class="edge">
<title>44&#45;&gt;43</title>
<path fill="none" stroke="#c0c0c0" stroke-width="2" d="M528.3745,-507.689C488.3282,-494.701 429.7672,-475.7083 390.9182,-463.1086"/>
<polygon fill="#c0c0c0" stroke="#c0c0c0" stroke-width="2" points="391.5949,-459.6487 381.0029,-459.8928 389.4353,-466.3072 391.5949,-459.6487"/>
</g>
<!-- 45 -->
<g id="node46" class="node">
<title>45</title>
<path fill="none" stroke="#56d8c9" stroke-width="2" d="M234.5,-252C234.5,-252 182.5,-252 182.5,-252 176.5,-252 170.5,-246 170.5,-240 170.5,-240 170.5,-228 170.5,-228 170.5,-222 176.5,-216 182.5,-216 182.5,-216 234.5,-216 234.5,-216 240.5,-216 246.5,-222 246.5,-228 246.5,-228 246.5,-240 246.5,-240 246.5,-246 240.5,-252 234.5,-252"/>
<text text-anchor="middle" x="208.5" y="-231.5" font-family="sans" font-size="10.00" fill="#000000">metadmg_dfit</text>
</g>
<!-- 45&#45;&gt;1 -->
<g id="edge22" class="edge">
<title>45&#45;&gt;1</title>
<path fill="none" stroke="#c0c0c0" stroke-width="2" d="M213.699,-215.826C220.7007,-194.8835 235.2864,-161.1563 260.5,-144 312.9137,-108.3355 503.5533,-95.461 585.0923,-91.517"/>
<polygon fill="#c0c0c0" stroke="#c0c0c0" stroke-width="2" points="585.5662,-94.9988 595.3929,-91.0385 585.2413,-88.0064 585.5662,-94.9988"/>
</g>
<!-- 52 -->
<g id="node53" class="node">
<title>52</title>
<path fill="none" stroke="#56d892" stroke-width="2" d="M196,-180C196,-180 115,-180 115,-180 109,-180 103,-174 103,-168 103,-168 103,-156 103,-156 103,-150 109,-144 115,-144 115,-144 196,-144 196,-144 202,-144 208,-150 208,-156 208,-156 208,-168 208,-168 208,-174 202,-180 196,-180"/>
<text text-anchor="middle" x="155.5" y="-159.5" font-family="sans" font-size="10.00" fill="#000000">metadmg_aggregate</text>
</g>
<!-- 45&#45;&gt;52 -->
<g id="edge76" class="edge">
<title>45&#45;&gt;52</title>
<path fill="none" stroke="#c0c0c0" stroke-width="2" d="M195.1259,-215.8314C189.0838,-207.6232 181.8237,-197.7606 175.1779,-188.7323"/>
<polygon fill="#c0c0c0" stroke="#c0c0c0" stroke-width="2" points="177.8011,-186.3918 169.0542,-180.4133 172.1637,-190.5415 177.8011,-186.3918"/>
</g>
<!-- 46 -->
<g id="node47" class="node">
<title>46</title>
<path fill="none" stroke="#56c9d8" stroke-width="2" d="M183,-324C183,-324 132,-324 132,-324 126,-324 120,-318 120,-312 120,-312 120,-300 120,-300 120,-294 126,-288 132,-288 132,-288 183,-288 183,-288 189,-288 195,-294 195,-300 195,-300 195,-312 195,-312 195,-318 189,-324 183,-324"/>
<text text-anchor="middle" x="157.5" y="-303.5" font-family="sans" font-size="10.00" fill="#000000">metadmg_lca</text>
</g>
<!-- 46&#45;&gt;45 -->
<g id="edge66" class="edge">
<title>46&#45;&gt;45</title>
<path fill="none" stroke="#c0c0c0" stroke-width="2" d="M170.3695,-287.8314C176.1835,-279.6232 183.1696,-269.7606 189.5646,-260.7323"/>
<polygon fill="#c0c0c0" stroke="#c0c0c0" stroke-width="2" points="192.5331,-262.5966 195.4573,-252.4133 186.821,-258.5505 192.5331,-262.5966"/>
</g>
<!-- 46&#45;&gt;52 -->
<g id="edge75" class="edge">
<title>46&#45;&gt;52</title>
<path fill="none" stroke="#c0c0c0" stroke-width="2" d="M157.2467,-287.7623C156.9056,-263.201 156.2951,-219.2474 155.8938,-190.3541"/>
<polygon fill="#c0c0c0" stroke="#c0c0c0" stroke-width="2" points="159.3899,-190.04 155.7512,-180.0896 152.3906,-190.1373 159.3899,-190.04"/>
</g>
<!-- 47 -->
<g id="node48" class="node">
<title>47</title>
<path fill="none" stroke="#c6d856" stroke-width="2" d="M189.5,-396C189.5,-396 125.5,-396 125.5,-396 119.5,-396 113.5,-390 113.5,-384 113.5,-384 113.5,-372 113.5,-372 113.5,-366 119.5,-360 125.5,-360 125.5,-360 189.5,-360 189.5,-360 195.5,-360 201.5,-366 201.5,-372 201.5,-372 201.5,-384 201.5,-384 201.5,-390 195.5,-396 189.5,-396"/>
<text text-anchor="middle" x="157.5" y="-375.5" font-family="sans" font-size="10.00" fill="#000000">align_sort_query</text>
</g>
<!-- 47&#45;&gt;46 -->
<g id="edge67" class="edge">
<title>47&#45;&gt;46</title>
<path fill="none" stroke="#c0c0c0" stroke-width="2" d="M157.5,-359.8314C157.5,-352.131 157.5,-342.9743 157.5,-334.4166"/>
<polygon fill="#c0c0c0" stroke="#c0c0c0" stroke-width="2" points="161.0001,-334.4132 157.5,-324.4133 154.0001,-334.4133 161.0001,-334.4132"/>
</g>
<!-- 55 -->
<g id="node56" class="node">
<title>55</title>
<path fill="none" stroke="#56d8a9" stroke-width="2" d="M85,-108C85,-108 12,-108 12,-108 6,-108 0,-102 0,-96 0,-96 0,-84 0,-84 0,-78 6,-72 12,-72 12,-72 85,-72 85,-72 91,-72 97,-78 97,-84 97,-84 97,-96 97,-96 97,-102 91,-108 85,-108"/>
<text text-anchor="middle" x="48.5" y="-87.5" font-family="sans" font-size="10.00" fill="#000000">metadmg_damage</text>
</g>
<!-- 47&#45;&gt;55 -->
<g id="edge79" class="edge">
<title>47&#45;&gt;55</title>
<path fill="none" stroke="#c0c0c0" stroke-width="2" d="M113.3076,-364.4577C93.7074,-356.0659 72.4217,-343.1415 60.5,-324 20.398,-259.6122 32.3508,-164.8685 41.801,-118.1559"/>
<polygon fill="#c0c0c0" stroke="#c0c0c0" stroke-width="2" points="45.2719,-118.6618 43.9381,-108.1513 38.4263,-117.1995 45.2719,-118.6618"/>
</g>
<!-- 48 -->
<g id="node49" class="node">
<title>48</title>
<path fill="none" stroke="#d85656" stroke-width="2" d="M221,-468C221,-468 184,-468 184,-468 178,-468 172,-462 172,-456 172,-456 172,-444 172,-444 172,-438 178,-432 184,-432 184,-432 221,-432 221,-432 227,-432 233,-438 233,-444 233,-444 233,-456 233,-456 233,-462 227,-468 221,-468"/>
<text text-anchor="middle" x="202.5" y="-447.5" font-family="sans" font-size="10.00" fill="#000000">align_filter</text>
</g>
<!-- 48&#45;&gt;47 -->
<g id="edge68" class="edge">
<title>48&#45;&gt;47</title>
<path fill="none" stroke="#c0c0c0" stroke-width="2" d="M191.1446,-431.8314C186.0674,-423.7079 179.9773,-413.9637 174.3824,-405.0118"/>
<polygon fill="#c0c0c0" stroke="#c0c0c0" stroke-width="2" points="177.2763,-403.0383 169.0083,-396.4133 171.3403,-406.7483 177.2763,-403.0383"/>
</g>
<!-- 49&#45;&gt;48 -->
<g id="edge69" class="edge">
<title>49&#45;&gt;48</title>
<path fill="none" stroke="#c0c0c0" stroke-width="2" d="M230.1633,-503.8314C226.0757,-495.8771 221.1896,-486.369 216.6691,-477.5723"/>
<polygon fill="#c0c0c0" stroke="#c0c0c0" stroke-width="2" points="219.6461,-475.7078 211.9624,-468.4133 213.4201,-478.9074 219.6461,-475.7078"/>
</g>
<!-- 50&#45;&gt;0 -->
<g id="edge2" class="edge">
<title>50&#45;&gt;0</title>
<path fill="none" stroke="#c0c0c0" stroke-width="2" d="M1154.866,-149.0188C1147.0519,-147.2414 1139.0798,-145.511 1131.5,-144 849.1432,-87.7148 505.2214,-38.6361 392.9102,-23.1043"/>
<polygon fill="#c0c0c0" stroke="#c0c0c0" stroke-width="2" points="393.1586,-19.6056 382.7742,-21.7069 392.2025,-26.54 393.1586,-19.6056"/>
</g>
<!-- 50&#45;&gt;1 -->
<g id="edge23" class="edge">
<title>50&#45;&gt;1</title>
<path fill="none" stroke="#c0c0c0" stroke-width="2" d="M1154.6471,-146.9702C1149.8852,-145.8682 1145.1187,-144.8556 1140.5,-144 962.1275,-110.9579 745.1796,-96.5396 659.6797,-91.8484"/>
<polygon fill="#c0c0c0" stroke="#c0c0c0" stroke-width="2" points="659.853,-88.3528 649.6797,-91.3116 659.4777,-95.3427 659.853,-88.3528"/>
</g>
<!-- 51&#45;&gt;0 -->
<g id="edge3" class="edge">
<title>51&#45;&gt;0</title>
<path fill="none" stroke="#c0c0c0" stroke-width="2" d="M355.5,-143.7623C355.5,-119.201 355.5,-75.2474 355.5,-46.3541"/>
<polygon fill="#c0c0c0" stroke="#c0c0c0" stroke-width="2" points="359.0001,-46.0896 355.5,-36.0896 352.0001,-46.0897 359.0001,-46.0896"/>
</g>
<!-- 51&#45;&gt;1 -->
<g id="edge24" class="edge">
<title>51&#45;&gt;1</title>
<path fill="none" stroke="#c0c0c0" stroke-width="2" d="M408.2506,-147.7751C460.5281,-133.6778 539.2678,-112.4446 585.3159,-100.0272"/>
<polygon fill="#c0c0c0" stroke="#c0c0c0" stroke-width="2" points="586.4334,-103.3509 595.1772,-97.3679 584.6108,-96.5924 586.4334,-103.3509"/>
</g>
<!-- 52&#45;&gt;0 -->
<g id="edge4" class="edge">
<title>52&#45;&gt;0</title>
<path fill="none" stroke="#c0c0c0" stroke-width="2" d="M199.7519,-143.9838C220.3115,-134.6541 244.5609,-122.2324 264.5,-108 290.5686,-89.3924 316.1306,-63.2066 333.4921,-43.8755"/>
<polygon fill="#c0c0c0" stroke="#c0c0c0" stroke-width="2" points="336.1772,-46.1225 340.1811,-36.3134 330.9341,-41.4847 336.1772,-46.1225"/>
</g>
<!-- 52&#45;&gt;1 -->
<g id="edge25" class="edge">
<title>52&#45;&gt;1</title>
<path fill="none" stroke="#c0c0c0" stroke-width="2" d="M208.0161,-147.2083C212.8936,-146.0413 217.7767,-144.9492 222.5,-144 354.4995,-117.4726 513.6793,-100.3464 584.8844,-93.4524"/>
<polygon fill="#c0c0c0" stroke="#c0c0c0" stroke-width="2" points="585.5179,-96.9079 595.1392,-92.4717 584.8514,-89.9397 585.5179,-96.9079"/>
</g>
<!-- 53&#45;&gt;0 -->
<g id="edge5" class="edge">
<title>53&#45;&gt;0</title>
<path fill="none" stroke="#c0c0c0" stroke-width="2" d="M1277.8972,-146.3955C1274.7294,-145.5399 1271.5771,-144.7322 1268.5,-144 934.2268,-64.4612 518.3285,-29.7032 392.9529,-20.5655"/>
<polygon fill="#c0c0c0" stroke="#c0c0c0" stroke-width="2" points="392.9652,-17.0575 382.74,-19.8314 392.4632,-24.0395 392.9652,-17.0575"/>
</g>
<!-- 54&#45;&gt;0 -->
<g id="edge6" class="edge">
<title>54&#45;&gt;0</title>
<path fill="none" stroke="#c0c0c0" stroke-width="2" d="M244.8466,-71.8314C267.6249,-60.7501 296.6018,-46.6532 319.1885,-35.665"/>
<polygon fill="#c0c0c0" stroke="#c0c0c0" stroke-width="2" points="320.9794,-38.6861 328.4406,-31.164 317.9171,-32.3914 320.9794,-38.6861"/>
</g>
<!-- 55&#45;&gt;0 -->
<g id="edge7" class="edge">
<title>55&#45;&gt;0</title>
<path fill="none" stroke="#c0c0c0" stroke-width="2" d="M97.1451,-78.5914C158.5835,-64.1824 262.9507,-39.7054 318.3631,-26.7096"/>
<polygon fill="#c0c0c0" stroke="#c0c0c0" stroke-width="2" points="319.1821,-30.1126 328.1187,-24.4217 317.5837,-23.2975 319.1821,-30.1126"/>
</g>
</g>
</svg>
