<?xml version="1.0" encoding="UTF-8" standalone="no"?>
<!DOCTYPE svg PUBLIC "-//W3C//DTD SVG 1.1//EN"
 "http://www.w3.org/Graphics/SVG/1.1/DTD/svg11.dtd">
<!-- Generated by graphviz version 2.40.1 (0)
 -->
<!-- Title: snakemake_dag Pages: 1 -->
<svg width="1913pt" height="1101pt"
 viewBox="0.00 0.00 1913.00 1101.00" xmlns="http://www.w3.org/2000/svg" xmlns:xlink="http://www.w3.org/1999/xlink">
<g id="graph0" class="graph" transform="scale(1 1) rotate(0) translate(4 1097)">
<title>snakemake_dag</title>
<polygon fill="#ffffff" stroke="transparent" points="-4,4 -4,-1097 1909,-1097 1909,4 -4,4"/>
<!-- 0 -->
<g id="node1" class="node">
<title>0</title>
<path fill="none" stroke="#afd856" stroke-width="2" d="M619.5,-36C619.5,-36 589.5,-36 589.5,-36 583.5,-36 577.5,-30 577.5,-24 577.5,-24 577.5,-12 577.5,-12 577.5,-6 583.5,0 589.5,0 589.5,0 619.5,0 619.5,0 625.5,0 631.5,-6 631.5,-12 631.5,-12 631.5,-24 631.5,-24 631.5,-30 625.5,-36 619.5,-36"/>
<text text-anchor="middle" x="604.5" y="-15.5" font-family="sans" font-size="10.00" fill="#000000">all</text>
</g>
<!-- 1 -->
<g id="node2" class="node">
<title>1</title>
<path fill="none" stroke="#56d8c9" stroke-width="2" d="M852.5,-108C852.5,-108 822.5,-108 822.5,-108 816.5,-108 810.5,-102 810.5,-96 810.5,-96 810.5,-84 810.5,-84 810.5,-78 816.5,-72 822.5,-72 822.5,-72 852.5,-72 852.5,-72 858.5,-72 864.5,-78 864.5,-84 864.5,-84 864.5,-96 864.5,-96 864.5,-102 858.5,-108 852.5,-108"/>
<text text-anchor="middle" x="837.5" y="-87.5" font-family="sans" font-size="10.00" fill="#000000">multiqc</text>
</g>
<!-- 1&#45;&gt;0 -->
<g id="edge1" class="edge">
<title>1&#45;&gt;0</title>
<path fill="none" stroke="#c0c0c0" stroke-width="2" d="M810.3159,-81.5998C768.4884,-68.6745 688.2721,-43.8866 641.2882,-29.368"/>
<polygon fill="#c0c0c0" stroke="#c0c0c0" stroke-width="2" points="642.0985,-25.9552 631.5109,-26.3467 640.0318,-32.6432 642.0985,-25.9552"/>
</g>
<!-- 2 -->
<g id="node3" class="node">
<title>2</title>
<path fill="none" stroke="#97d856" stroke-width="2" d="M1205,-1093C1205,-1093 1098,-1093 1098,-1093 1092,-1093 1086,-1087 1086,-1081 1086,-1081 1086,-1020 1086,-1020 1086,-1014 1092,-1008 1098,-1008 1098,-1008 1205,-1008 1205,-1008 1211,-1008 1217,-1014 1217,-1020 1217,-1020 1217,-1081 1217,-1081 1217,-1087 1211,-1093 1205,-1093"/>
<text text-anchor="middle" x="1151.5" y="-1081" font-family="sans" font-size="10.00" fill="#000000">bowtie2</text>
<text text-anchor="middle" x="1151.5" y="-1070" font-family="sans" font-size="10.00" fill="#000000">library: lib1</text>
<text text-anchor="middle" x="1151.5" y="-1059" font-family="sans" font-size="10.00" fill="#000000">n_shard: 1</text>
<text text-anchor="middle" x="1151.5" y="-1048" font-family="sans" font-size="10.00" fill="#000000">read_type_map: collapsed</text>
<text text-anchor="middle" x="1151.5" y="-1037" font-family="sans" font-size="10.00" fill="#000000">ref: wgs_eukaryota</text>
<text text-anchor="middle" x="1151.5" y="-1026" font-family="sans" font-size="10.00" fill="#000000">sample: HD827sonic_2</text>
<text text-anchor="middle" x="1151.5" y="-1015" font-family="sans" font-size="10.00" fill="#000000">tot_shards: 2</text>
</g>
<!-- 2&#45;&gt;1 -->
<g id="edge8" class="edge">
<title>2&#45;&gt;1</title>
<path fill="none" stroke="#c0c0c0" stroke-width="2" d="M1182.8509,-1007.8158C1203.7859,-975.0895 1227.5,-927.8907 1227.5,-882 1227.5,-882 1227.5,-882 1227.5,-234 1227.5,-176.7995 1186.3199,-170.2534 1135.5,-144 1112.5511,-132.1447 949.2461,-106.6719 874.5835,-95.4728"/>
<polygon fill="#c0c0c0" stroke="#c0c0c0" stroke-width="2" points="875.0678,-92.0064 864.6604,-93.9902 874.0334,-98.9295 875.0678,-92.0064"/>
</g>
<!-- 32 -->
<g id="node33" class="node">
<title>32</title>
<path fill="none" stroke="#56b9d8" stroke-width="2" d="M1111,-972C1111,-972 1042,-972 1042,-972 1036,-972 1030,-966 1030,-960 1030,-960 1030,-948 1030,-948 1030,-942 1036,-936 1042,-936 1042,-936 1111,-936 1111,-936 1117,-936 1123,-942 1123,-948 1123,-948 1123,-960 1123,-960 1123,-966 1117,-972 1111,-972"/>
<text text-anchor="middle" x="1076.5" y="-951.5" font-family="sans" font-size="10.00" fill="#000000">shard_count_alns</text>
</g>
<!-- 2&#45;&gt;32 -->
<g id="edge59" class="edge">
<title>2&#45;&gt;32</title>
<path fill="none" stroke="#c0c0c0" stroke-width="2" d="M1118.3856,-1007.8928C1111.0867,-998.5016 1103.5632,-988.8213 1096.9414,-980.3013"/>
<polygon fill="#c0c0c0" stroke="#c0c0c0" stroke-width="2" points="1099.5621,-977.9697 1090.662,-972.2218 1094.0351,-982.2653 1099.5621,-977.9697"/>
</g>
<!-- 37 -->
<g id="node38" class="node">
<title>37</title>
<path fill="none" stroke="#568ad8" stroke-width="2" d="M1111,-828C1111,-828 982,-828 982,-828 976,-828 970,-822 970,-816 970,-816 970,-804 970,-804 970,-798 976,-792 982,-792 982,-792 1111,-792 1111,-792 1117,-792 1123,-798 1123,-804 1123,-804 1123,-816 1123,-816 1123,-822 1117,-828 1111,-828"/>
<text text-anchor="middle" x="1046.5" y="-807.5" font-family="sans" font-size="10.00" fill="#000000">shard_saturated_reads_remove</text>
</g>
<!-- 2&#45;&gt;37 -->
<g id="edge64" class="edge">
<title>2&#45;&gt;37</title>
<path fill="none" stroke="#c0c0c0" stroke-width="2" d="M1148.3634,-1007.9957C1145.6785,-985.908 1140.7048,-958.8334 1131.5,-936 1116.3203,-898.3454 1088.6836,-860.4393 1069.0466,-836.1855"/>
<polygon fill="#c0c0c0" stroke="#c0c0c0" stroke-width="2" points="1071.5274,-833.6922 1062.468,-828.1988 1066.1243,-838.1427 1071.5274,-833.6922"/>
</g>
<!-- 3 -->
<g id="node4" class="node">
<title>3</title>
<path fill="none" stroke="#97d856" stroke-width="2" d="M577,-1093C577,-1093 470,-1093 470,-1093 464,-1093 458,-1087 458,-1081 458,-1081 458,-1020 458,-1020 458,-1014 464,-1008 470,-1008 470,-1008 577,-1008 577,-1008 583,-1008 589,-1014 589,-1020 589,-1020 589,-1081 589,-1081 589,-1087 583,-1093 577,-1093"/>
<text text-anchor="middle" x="523.5" y="-1081" font-family="sans" font-size="10.00" fill="#000000">bowtie2</text>
<text text-anchor="middle" x="523.5" y="-1070" font-family="sans" font-size="10.00" fill="#000000">library: lib1</text>
<text text-anchor="middle" x="523.5" y="-1059" font-family="sans" font-size="10.00" fill="#000000">n_shard: 1</text>
<text text-anchor="middle" x="523.5" y="-1048" font-family="sans" font-size="10.00" fill="#000000">read_type_map: collapsed</text>
<text text-anchor="middle" x="523.5" y="-1037" font-family="sans" font-size="10.00" fill="#000000">ref: refseq_mitochondrion</text>
<text text-anchor="middle" x="523.5" y="-1026" font-family="sans" font-size="10.00" fill="#000000">sample: HD827sonic_1</text>
<text text-anchor="middle" x="523.5" y="-1015" font-family="sans" font-size="10.00" fill="#000000">tot_shards: 1</text>
</g>
<!-- 3&#45;&gt;1 -->
<g id="edge9" class="edge">
<title>3&#45;&gt;1</title>
<path fill="none" stroke="#c0c0c0" stroke-width="2" d="M555.7811,-1007.6296C563.0817,-996.4635 570.2246,-984.1451 575.5,-972 608.2691,-896.5585 591.4909,-869.69 618.5,-792 694.1882,-574.2878 799.5,-536.4936 799.5,-306 799.5,-306 799.5,-306 799.5,-234 799.5,-192.3681 814.5328,-146.14 825.6881,-117.567"/>
<polygon fill="#c0c0c0" stroke="#c0c0c0" stroke-width="2" points="828.9578,-118.817 829.4412,-108.2332 822.4632,-116.2055 828.9578,-118.817"/>
</g>
<!-- 19 -->
<g id="node20" class="node">
<title>19</title>
<path fill="none" stroke="#56b9d8" stroke-width="2" d="M483,-972C483,-972 414,-972 414,-972 408,-972 402,-966 402,-960 402,-960 402,-948 402,-948 402,-942 408,-936 414,-936 414,-936 483,-936 483,-936 489,-936 495,-942 495,-948 495,-948 495,-960 495,-960 495,-966 489,-972 483,-972"/>
<text text-anchor="middle" x="448.5" y="-951.5" font-family="sans" font-size="10.00" fill="#000000">shard_count_alns</text>
</g>
<!-- 3&#45;&gt;19 -->
<g id="edge39" class="edge">
<title>3&#45;&gt;19</title>
<path fill="none" stroke="#c0c0c0" stroke-width="2" d="M490.3856,-1007.8928C483.0867,-998.5016 475.5632,-988.8213 468.9414,-980.3013"/>
<polygon fill="#c0c0c0" stroke="#c0c0c0" stroke-width="2" points="471.5621,-977.9697 462.662,-972.2218 466.0351,-982.2653 471.5621,-977.9697"/>
</g>
<!-- 25 -->
<g id="node26" class="node">
<title>25</title>
<path fill="none" stroke="#568ad8" stroke-width="2" d="M483,-828C483,-828 354,-828 354,-828 348,-828 342,-822 342,-816 342,-816 342,-804 342,-804 342,-798 348,-792 354,-792 354,-792 483,-792 483,-792 489,-792 495,-798 495,-804 495,-804 495,-816 495,-816 495,-822 489,-828 483,-828"/>
<text text-anchor="middle" x="418.5" y="-807.5" font-family="sans" font-size="10.00" fill="#000000">shard_saturated_reads_remove</text>
</g>
<!-- 3&#45;&gt;25 -->
<g id="edge46" class="edge">
<title>3&#45;&gt;25</title>
<path fill="none" stroke="#c0c0c0" stroke-width="2" d="M520.3634,-1007.9957C517.6785,-985.908 512.7048,-958.8334 503.5,-936 488.3203,-898.3454 460.6836,-860.4393 441.0466,-836.1855"/>
<polygon fill="#c0c0c0" stroke="#c0c0c0" stroke-width="2" points="443.5274,-833.6922 434.468,-828.1988 438.1243,-838.1427 443.5274,-833.6922"/>
</g>
<!-- 4 -->
<g id="node5" class="node">
<title>4</title>
<path fill="none" stroke="#97d856" stroke-width="2" d="M1582,-1093C1582,-1093 1475,-1093 1475,-1093 1469,-1093 1463,-1087 1463,-1081 1463,-1081 1463,-1020 1463,-1020 1463,-1014 1469,-1008 1475,-1008 1475,-1008 1582,-1008 1582,-1008 1588,-1008 1594,-1014 1594,-1020 1594,-1020 1594,-1081 1594,-1081 1594,-1087 1588,-1093 1582,-1093"/>
<text text-anchor="middle" x="1528.5" y="-1081" font-family="sans" font-size="10.00" fill="#000000">bowtie2</text>
<text text-anchor="middle" x="1528.5" y="-1070" font-family="sans" font-size="10.00" fill="#000000">library: lib2</text>
<text text-anchor="middle" x="1528.5" y="-1059" font-family="sans" font-size="10.00" fill="#000000">n_shard: 2</text>
<text text-anchor="middle" x="1528.5" y="-1048" font-family="sans" font-size="10.00" fill="#000000">read_type_map: collapsed</text>
<text text-anchor="middle" x="1528.5" y="-1037" font-family="sans" font-size="10.00" fill="#000000">ref: wgs_eukaryota</text>
<text text-anchor="middle" x="1528.5" y="-1026" font-family="sans" font-size="10.00" fill="#000000">sample: HD827sonic_2</text>
<text text-anchor="middle" x="1528.5" y="-1015" font-family="sans" font-size="10.00" fill="#000000">tot_shards: 2</text>
</g>
<!-- 4&#45;&gt;1 -->
<g id="edge10" class="edge">
<title>4&#45;&gt;1</title>
<path fill="none" stroke="#c0c0c0" stroke-width="2" d="M1495.0205,-1007.9819C1477.2769,-986.0136 1454.7963,-959.0514 1433.5,-936 1386.7916,-885.4421 1355.7154,-888.2869 1322.5,-828 1302.7721,-792.1933 1303.5,-778.8816 1303.5,-738 1303.5,-738 1303.5,-738 1303.5,-234 1303.5,-181.9317 1274.0273,-169.2661 1228.5,-144 1220.7666,-139.7082 971.0772,-107.2015 874.8233,-94.7932"/>
<polygon fill="#c0c0c0" stroke="#c0c0c0" stroke-width="2" points="875.0313,-91.2911 864.6661,-93.485 874.1371,-98.2338 875.0313,-91.2911"/>
</g>
<!-- 45 -->
<g id="node46" class="node">
<title>45</title>
<path fill="none" stroke="#568ad8" stroke-width="2" d="M1644,-828C1644,-828 1515,-828 1515,-828 1509,-828 1503,-822 1503,-816 1503,-816 1503,-804 1503,-804 1503,-798 1509,-792 1515,-792 1515,-792 1644,-792 1644,-792 1650,-792 1656,-798 1656,-804 1656,-804 1656,-816 1656,-816 1656,-822 1650,-828 1644,-828"/>
<text text-anchor="middle" x="1579.5" y="-807.5" font-family="sans" font-size="10.00" fill="#000000">shard_saturated_reads_remove</text>
</g>
<!-- 4&#45;&gt;45 -->
<g id="edge76" class="edge">
<title>4&#45;&gt;45</title>
<path fill="none" stroke="#c0c0c0" stroke-width="2" d="M1566.01,-1007.8766C1573.5912,-996.8929 1580.4677,-984.5956 1584.5,-972 1598.9763,-926.7804 1592.1967,-870.7902 1585.8928,-837.874"/>
<polygon fill="#c0c0c0" stroke="#c0c0c0" stroke-width="2" points="1589.3154,-837.141 1583.8903,-828.0406 1582.4562,-838.5379 1589.3154,-837.141"/>
</g>
<!-- 48 -->
<g id="node49" class="node">
<title>48</title>
<path fill="none" stroke="#56b9d8" stroke-width="2" d="M1563,-972C1563,-972 1494,-972 1494,-972 1488,-972 1482,-966 1482,-960 1482,-960 1482,-948 1482,-948 1482,-942 1488,-936 1494,-936 1494,-936 1563,-936 1563,-936 1569,-936 1575,-942 1575,-948 1575,-948 1575,-960 1575,-960 1575,-966 1569,-972 1563,-972"/>
<text text-anchor="middle" x="1528.5" y="-951.5" font-family="sans" font-size="10.00" fill="#000000">shard_count_alns</text>
</g>
<!-- 4&#45;&gt;48 -->
<g id="edge82" class="edge">
<title>4&#45;&gt;48</title>
<path fill="none" stroke="#c0c0c0" stroke-width="2" d="M1528.5,-1007.8928C1528.5,-999.2842 1528.5,-990.4327 1528.5,-982.4546"/>
<polygon fill="#c0c0c0" stroke="#c0c0c0" stroke-width="2" points="1532.0001,-982.2218 1528.5,-972.2218 1525.0001,-982.2218 1532.0001,-982.2218"/>
</g>
<!-- 5 -->
<g id="node6" class="node">
<title>5</title>
<path fill="none" stroke="#97d856" stroke-width="2" d="M391,-1093C391,-1093 284,-1093 284,-1093 278,-1093 272,-1087 272,-1081 272,-1081 272,-1020 272,-1020 272,-1014 278,-1008 284,-1008 284,-1008 391,-1008 391,-1008 397,-1008 403,-1014 403,-1020 403,-1020 403,-1081 403,-1081 403,-1087 397,-1093 391,-1093"/>
<text text-anchor="middle" x="337.5" y="-1081" font-family="sans" font-size="10.00" fill="#000000">bowtie2</text>
<text text-anchor="middle" x="337.5" y="-1070" font-family="sans" font-size="10.00" fill="#000000">library: lib1</text>
<text text-anchor="middle" x="337.5" y="-1059" font-family="sans" font-size="10.00" fill="#000000">n_shard: 1</text>
<text text-anchor="middle" x="337.5" y="-1048" font-family="sans" font-size="10.00" fill="#000000">read_type_map: collapsed</text>
<text text-anchor="middle" x="337.5" y="-1037" font-family="sans" font-size="10.00" fill="#000000">ref: wgs_eukaryota</text>
<text text-anchor="middle" x="337.5" y="-1026" font-family="sans" font-size="10.00" fill="#000000">sample: HD827sonic_1</text>
<text text-anchor="middle" x="337.5" y="-1015" font-family="sans" font-size="10.00" fill="#000000">tot_shards: 2</text>
</g>
<!-- 5&#45;&gt;1 -->
<g id="edge11" class="edge">
<title>5&#45;&gt;1</title>
<path fill="none" stroke="#c0c0c0" stroke-width="2" d="M403.0649,-1024.8498C442.6207,-1008.3735 488.2319,-987.2765 503.5,-972 528.5166,-946.9697 523.2504,-932.3928 537.5,-900 634.2769,-680.0033 662.5964,-625.6454 733.5,-396 767.7923,-284.9327 756.4804,-250.3064 803.5,-144 807.6242,-134.6757 813.1772,-125.0766 818.5987,-116.6054"/>
<polygon fill="#c0c0c0" stroke="#c0c0c0" stroke-width="2" points="821.5322,-118.5147 824.1355,-108.2446 815.6959,-114.6497 821.5322,-118.5147"/>
</g>
<!-- 17 -->
<g id="node18" class="node">
<title>17</title>
<path fill="none" stroke="#56b9d8" stroke-width="2" d="M372,-972C372,-972 303,-972 303,-972 297,-972 291,-966 291,-960 291,-960 291,-948 291,-948 291,-942 297,-936 303,-936 303,-936 372,-936 372,-936 378,-936 384,-942 384,-948 384,-948 384,-960 384,-960 384,-966 378,-972 372,-972"/>
<text text-anchor="middle" x="337.5" y="-951.5" font-family="sans" font-size="10.00" fill="#000000">shard_count_alns</text>
</g>
<!-- 5&#45;&gt;17 -->
<g id="edge37" class="edge">
<title>5&#45;&gt;17</title>
<path fill="none" stroke="#c0c0c0" stroke-width="2" d="M337.5,-1007.8928C337.5,-999.2842 337.5,-990.4327 337.5,-982.4546"/>
<polygon fill="#c0c0c0" stroke="#c0c0c0" stroke-width="2" points="341.0001,-982.2218 337.5,-972.2218 334.0001,-982.2218 341.0001,-982.2218"/>
</g>
<!-- 22 -->
<g id="node23" class="node">
<title>22</title>
<path fill="none" stroke="#568ad8" stroke-width="2" d="M312,-828C312,-828 183,-828 183,-828 177,-828 171,-822 171,-816 171,-816 171,-804 171,-804 171,-798 177,-792 183,-792 183,-792 312,-792 312,-792 318,-792 324,-798 324,-804 324,-804 324,-816 324,-816 324,-822 318,-828 312,-828"/>
<text text-anchor="middle" x="247.5" y="-807.5" font-family="sans" font-size="10.00" fill="#000000">shard_saturated_reads_remove</text>
</g>
<!-- 5&#45;&gt;22 -->
<g id="edge42" class="edge">
<title>5&#45;&gt;22</title>
<path fill="none" stroke="#c0c0c0" stroke-width="2" d="M304.1985,-1007.6873C296.2129,-996.4191 288.0966,-984.0386 281.5,-972 264.9222,-941.7461 260.0015,-933.6727 252.5,-900 247.9699,-879.6656 246.7992,-856.142 246.719,-838.2448"/>
<polygon fill="#c0c0c0" stroke="#c0c0c0" stroke-width="2" points="250.2194,-838.1889 246.7851,-828.1662 243.2195,-838.143 250.2194,-838.1889"/>
</g>
<!-- 6 -->
<g id="node7" class="node">
<title>6</title>
<path fill="none" stroke="#97d856" stroke-width="2" d="M1357,-1093C1357,-1093 1250,-1093 1250,-1093 1244,-1093 1238,-1087 1238,-1081 1238,-1081 1238,-1020 1238,-1020 1238,-1014 1244,-1008 1250,-1008 1250,-1008 1357,-1008 1357,-1008 1363,-1008 1369,-1014 1369,-1020 1369,-1020 1369,-1081 1369,-1081 1369,-1087 1363,-1093 1357,-1093"/>
<text text-anchor="middle" x="1303.5" y="-1081" font-family="sans" font-size="10.00" fill="#000000">bowtie2</text>
<text text-anchor="middle" x="1303.5" y="-1070" font-family="sans" font-size="10.00" fill="#000000">library: lib2</text>
<text text-anchor="middle" x="1303.5" y="-1059" font-family="sans" font-size="10.00" fill="#000000">n_shard: 1</text>
<text text-anchor="middle" x="1303.5" y="-1048" font-family="sans" font-size="10.00" fill="#000000">read_type_map: collapsed</text>
<text text-anchor="middle" x="1303.5" y="-1037" font-family="sans" font-size="10.00" fill="#000000">ref: wgs_eukaryota</text>
<text text-anchor="middle" x="1303.5" y="-1026" font-family="sans" font-size="10.00" fill="#000000">sample: HD827sonic_2</text>
<text text-anchor="middle" x="1303.5" y="-1015" font-family="sans" font-size="10.00" fill="#000000">tot_shards: 2</text>
</g>
<!-- 6&#45;&gt;1 -->
<g id="edge12" class="edge">
<title>6&#45;&gt;1</title>
<path fill="none" stroke="#c0c0c0" stroke-width="2" d="M1288.3722,-1007.8083C1277.7752,-974.0983 1265.5,-925.6328 1265.5,-882 1265.5,-882 1265.5,-882 1265.5,-234 1265.5,-179.8872 1231.16,-169.6266 1183.5,-144 1169.9287,-136.7028 960.8092,-107.0905 874.412,-95.0888"/>
<polygon fill="#c0c0c0" stroke="#c0c0c0" stroke-width="2" points="874.8914,-91.6218 864.5055,-93.7151 873.93,-98.5555 874.8914,-91.6218"/>
</g>
<!-- 47 -->
<g id="node48" class="node">
<title>47</title>
<path fill="none" stroke="#56b9d8" stroke-width="2" d="M1413,-972C1413,-972 1344,-972 1344,-972 1338,-972 1332,-966 1332,-960 1332,-960 1332,-948 1332,-948 1332,-942 1338,-936 1344,-936 1344,-936 1413,-936 1413,-936 1419,-936 1425,-942 1425,-948 1425,-948 1425,-960 1425,-960 1425,-966 1419,-972 1413,-972"/>
<text text-anchor="middle" x="1378.5" y="-951.5" font-family="sans" font-size="10.00" fill="#000000">shard_count_alns</text>
</g>
<!-- 6&#45;&gt;47 -->
<g id="edge81" class="edge">
<title>6&#45;&gt;47</title>
<path fill="none" stroke="#c0c0c0" stroke-width="2" d="M1336.6144,-1007.8928C1343.9133,-998.5016 1351.4368,-988.8213 1358.0586,-980.3013"/>
<polygon fill="#c0c0c0" stroke="#c0c0c0" stroke-width="2" points="1360.9649,-982.2653 1364.338,-972.2218 1355.4379,-977.9697 1360.9649,-982.2653"/>
</g>
<!-- 52 -->
<g id="node53" class="node">
<title>52</title>
<path fill="none" stroke="#568ad8" stroke-width="2" d="M1473,-828C1473,-828 1344,-828 1344,-828 1338,-828 1332,-822 1332,-816 1332,-816 1332,-804 1332,-804 1332,-798 1338,-792 1344,-792 1344,-792 1473,-792 1473,-792 1479,-792 1485,-798 1485,-804 1485,-804 1485,-816 1485,-816 1485,-822 1479,-828 1473,-828"/>
<text text-anchor="middle" x="1408.5" y="-807.5" font-family="sans" font-size="10.00" fill="#000000">shard_saturated_reads_remove</text>
</g>
<!-- 6&#45;&gt;52 -->
<g id="edge86" class="edge">
<title>6&#45;&gt;52</title>
<path fill="none" stroke="#c0c0c0" stroke-width="2" d="M1306.141,-1007.9801C1308.5989,-985.8881 1313.3433,-958.8144 1322.5,-936 1337.6781,-898.1831 1365.6764,-860.3098 1385.602,-836.108"/>
<polygon fill="#c0c0c0" stroke="#c0c0c0" stroke-width="2" points="1388.5387,-838.0528 1392.2791,-828.1402 1383.1735,-833.5567 1388.5387,-838.0528"/>
</g>
<!-- 7 -->
<g id="node8" class="node">
<title>7</title>
<path fill="none" stroke="#97d856" stroke-width="2" d="M831,-1093C831,-1093 724,-1093 724,-1093 718,-1093 712,-1087 712,-1081 712,-1081 712,-1020 712,-1020 712,-1014 718,-1008 724,-1008 724,-1008 831,-1008 831,-1008 837,-1008 843,-1014 843,-1020 843,-1020 843,-1081 843,-1081 843,-1087 837,-1093 831,-1093"/>
<text text-anchor="middle" x="777.5" y="-1081" font-family="sans" font-size="10.00" fill="#000000">bowtie2</text>
<text text-anchor="middle" x="777.5" y="-1070" font-family="sans" font-size="10.00" fill="#000000">library: lib1</text>
<text text-anchor="middle" x="777.5" y="-1059" font-family="sans" font-size="10.00" fill="#000000">n_shard: 2</text>
<text text-anchor="middle" x="777.5" y="-1048" font-family="sans" font-size="10.00" fill="#000000">read_type_map: collapsed</text>
<text text-anchor="middle" x="777.5" y="-1037" font-family="sans" font-size="10.00" fill="#000000">ref: wgs_eukaryota</text>
<text text-anchor="middle" x="777.5" y="-1026" font-family="sans" font-size="10.00" fill="#000000">sample: HD827sonic_2</text>
<text text-anchor="middle" x="777.5" y="-1015" font-family="sans" font-size="10.00" fill="#000000">tot_shards: 2</text>
</g>
<!-- 7&#45;&gt;1 -->
<g id="edge13" class="edge">
<title>7&#45;&gt;1</title>
<path fill="none" stroke="#c0c0c0" stroke-width="2" d="M817.3644,-1007.764C841.8999,-983.6768 875.1492,-954.7493 909.5,-936 1015.9381,-877.9042 1151.5,-931.2609 1151.5,-810 1151.5,-810 1151.5,-810 1151.5,-234 1151.5,-173.6216 957.2501,-119.1394 874.3173,-98.6302"/>
<polygon fill="#c0c0c0" stroke="#c0c0c0" stroke-width="2" points="875.0881,-95.2156 864.5432,-96.2432 873.4274,-102.0158 875.0881,-95.2156"/>
</g>
<!-- 30 -->
<g id="node31" class="node">
<title>30</title>
<path fill="none" stroke="#568ad8" stroke-width="2" d="M769,-828C769,-828 640,-828 640,-828 634,-828 628,-822 628,-816 628,-816 628,-804 628,-804 628,-798 634,-792 640,-792 640,-792 769,-792 769,-792 775,-792 781,-798 781,-804 781,-804 781,-816 781,-816 781,-822 775,-828 769,-828"/>
<text text-anchor="middle" x="704.5" y="-807.5" font-family="sans" font-size="10.00" fill="#000000">shard_saturated_reads_remove</text>
</g>
<!-- 7&#45;&gt;30 -->
<g id="edge54" class="edge">
<title>7&#45;&gt;30</title>
<path fill="none" stroke="#c0c0c0" stroke-width="2" d="M741.2154,-1007.9658C733.4921,-996.8869 726.2442,-984.5242 721.5,-972 704.6695,-927.5693 702.6081,-871.6825 703.1794,-838.513"/>
<polygon fill="#c0c0c0" stroke="#c0c0c0" stroke-width="2" points="706.687,-838.2747 703.4565,-828.1844 699.6895,-838.0869 706.687,-838.2747"/>
</g>
<!-- 33 -->
<g id="node34" class="node">
<title>33</title>
<path fill="none" stroke="#56b9d8" stroke-width="2" d="M812,-972C812,-972 743,-972 743,-972 737,-972 731,-966 731,-960 731,-960 731,-948 731,-948 731,-942 737,-936 743,-936 743,-936 812,-936 812,-936 818,-936 824,-942 824,-948 824,-948 824,-960 824,-960 824,-966 818,-972 812,-972"/>
<text text-anchor="middle" x="777.5" y="-951.5" font-family="sans" font-size="10.00" fill="#000000">shard_count_alns</text>
</g>
<!-- 7&#45;&gt;33 -->
<g id="edge60" class="edge">
<title>7&#45;&gt;33</title>
<path fill="none" stroke="#c0c0c0" stroke-width="2" d="M777.5,-1007.8928C777.5,-999.2842 777.5,-990.4327 777.5,-982.4546"/>
<polygon fill="#c0c0c0" stroke="#c0c0c0" stroke-width="2" points="781.0001,-982.2218 777.5,-972.2218 774.0001,-982.2218 781.0001,-982.2218"/>
</g>
<!-- 8 -->
<g id="node9" class="node">
<title>8</title>
<path fill="none" stroke="#97d856" stroke-width="2" d="M1807,-1093C1807,-1093 1700,-1093 1700,-1093 1694,-1093 1688,-1087 1688,-1081 1688,-1081 1688,-1020 1688,-1020 1688,-1014 1694,-1008 1700,-1008 1700,-1008 1807,-1008 1807,-1008 1813,-1008 1819,-1014 1819,-1020 1819,-1020 1819,-1081 1819,-1081 1819,-1087 1813,-1093 1807,-1093"/>
<text text-anchor="middle" x="1753.5" y="-1081" font-family="sans" font-size="10.00" fill="#000000">bowtie2</text>
<text text-anchor="middle" x="1753.5" y="-1070" font-family="sans" font-size="10.00" fill="#000000">library: lib2</text>
<text text-anchor="middle" x="1753.5" y="-1059" font-family="sans" font-size="10.00" fill="#000000">n_shard: 1</text>
<text text-anchor="middle" x="1753.5" y="-1048" font-family="sans" font-size="10.00" fill="#000000">read_type_map: collapsed</text>
<text text-anchor="middle" x="1753.5" y="-1037" font-family="sans" font-size="10.00" fill="#000000">ref: refseq_mitochondrion</text>
<text text-anchor="middle" x="1753.5" y="-1026" font-family="sans" font-size="10.00" fill="#000000">sample: HD827sonic_2</text>
<text text-anchor="middle" x="1753.5" y="-1015" font-family="sans" font-size="10.00" fill="#000000">tot_shards: 1</text>
</g>
<!-- 8&#45;&gt;1 -->
<g id="edge14" class="edge">
<title>8&#45;&gt;1</title>
<path fill="none" stroke="#c0c0c0" stroke-width="2" d="M1797.053,-1007.8917C1824.7763,-976.1074 1855.5,-930.0451 1855.5,-882 1855.5,-882 1855.5,-882 1855.5,-378 1855.5,-197.1133 1692.6911,-205.278 1522.5,-144 1401.7157,-100.5111 999.8483,-91.9784 874.9019,-90.3636"/>
<polygon fill="#c0c0c0" stroke="#c0c0c0" stroke-width="2" points="874.7384,-86.8614 864.6965,-90.2393 874.6531,-93.8609 874.7384,-86.8614"/>
</g>
<!-- 49 -->
<g id="node50" class="node">
<title>49</title>
<path fill="none" stroke="#56b9d8" stroke-width="2" d="M1713,-972C1713,-972 1644,-972 1644,-972 1638,-972 1632,-966 1632,-960 1632,-960 1632,-948 1632,-948 1632,-942 1638,-936 1644,-936 1644,-936 1713,-936 1713,-936 1719,-936 1725,-942 1725,-948 1725,-948 1725,-960 1725,-960 1725,-966 1719,-972 1713,-972"/>
<text text-anchor="middle" x="1678.5" y="-951.5" font-family="sans" font-size="10.00" fill="#000000">shard_count_alns</text>
</g>
<!-- 8&#45;&gt;49 -->
<g id="edge83" class="edge">
<title>8&#45;&gt;49</title>
<path fill="none" stroke="#c0c0c0" stroke-width="2" d="M1720.3856,-1007.8928C1713.0867,-998.5016 1705.5632,-988.8213 1698.9414,-980.3013"/>
<polygon fill="#c0c0c0" stroke="#c0c0c0" stroke-width="2" points="1701.5621,-977.9697 1692.662,-972.2218 1696.0351,-982.2653 1701.5621,-977.9697"/>
</g>
<!-- 55 -->
<g id="node56" class="node">
<title>55</title>
<path fill="none" stroke="#568ad8" stroke-width="2" d="M1815,-828C1815,-828 1686,-828 1686,-828 1680,-828 1674,-822 1674,-816 1674,-816 1674,-804 1674,-804 1674,-798 1680,-792 1686,-792 1686,-792 1815,-792 1815,-792 1821,-792 1827,-798 1827,-804 1827,-804 1827,-816 1827,-816 1827,-822 1821,-828 1815,-828"/>
<text text-anchor="middle" x="1750.5" y="-807.5" font-family="sans" font-size="10.00" fill="#000000">shard_saturated_reads_remove</text>
</g>
<!-- 8&#45;&gt;55 -->
<g id="edge90" class="edge">
<title>8&#45;&gt;55</title>
<path fill="none" stroke="#c0c0c0" stroke-width="2" d="M1752.9671,-1007.7805C1752.3568,-958.8569 1751.3742,-880.0855 1750.8523,-838.2427"/>
<polygon fill="#c0c0c0" stroke="#c0c0c0" stroke-width="2" points="1754.3516,-838.1546 1750.727,-828.1991 1747.3521,-838.242 1754.3516,-838.1546"/>
</g>
<!-- 9 -->
<g id="node10" class="node">
<title>9</title>
<path fill="none" stroke="#97d856" stroke-width="2" d="M1019,-1093C1019,-1093 912,-1093 912,-1093 906,-1093 900,-1087 900,-1081 900,-1081 900,-1020 900,-1020 900,-1014 906,-1008 912,-1008 912,-1008 1019,-1008 1019,-1008 1025,-1008 1031,-1014 1031,-1020 1031,-1020 1031,-1081 1031,-1081 1031,-1087 1025,-1093 1019,-1093"/>
<text text-anchor="middle" x="965.5" y="-1081" font-family="sans" font-size="10.00" fill="#000000">bowtie2</text>
<text text-anchor="middle" x="965.5" y="-1070" font-family="sans" font-size="10.00" fill="#000000">library: lib1</text>
<text text-anchor="middle" x="965.5" y="-1059" font-family="sans" font-size="10.00" fill="#000000">n_shard: 1</text>
<text text-anchor="middle" x="965.5" y="-1048" font-family="sans" font-size="10.00" fill="#000000">read_type_map: collapsed</text>
<text text-anchor="middle" x="965.5" y="-1037" font-family="sans" font-size="10.00" fill="#000000">ref: refseq_mitochondrion</text>
<text text-anchor="middle" x="965.5" y="-1026" font-family="sans" font-size="10.00" fill="#000000">sample: HD827sonic_2</text>
<text text-anchor="middle" x="965.5" y="-1015" font-family="sans" font-size="10.00" fill="#000000">tot_shards: 1</text>
</g>
<!-- 9&#45;&gt;1 -->
<g id="edge15" class="edge">
<title>9&#45;&gt;1</title>
<path fill="none" stroke="#c0c0c0" stroke-width="2" d="M1031.2916,-1023.7904C1070.3792,-1007.0879 1115.3826,-986.137 1131.5,-972 1167.275,-940.6209 1189.5,-929.5867 1189.5,-882 1189.5,-882 1189.5,-882 1189.5,-234 1189.5,-170.8326 1136.3063,-171.6255 1079.5,-144 1011.8765,-111.114 923.8625,-97.965 874.771,-92.9297"/>
<polygon fill="#c0c0c0" stroke="#c0c0c0" stroke-width="2" points="874.9073,-89.4267 864.6168,-91.9478 874.2334,-96.3942 874.9073,-89.4267"/>
</g>
<!-- 34 -->
<g id="node35" class="node">
<title>34</title>
<path fill="none" stroke="#56b9d8" stroke-width="2" d="M1000,-972C1000,-972 931,-972 931,-972 925,-972 919,-966 919,-960 919,-960 919,-948 919,-948 919,-942 925,-936 931,-936 931,-936 1000,-936 1000,-936 1006,-936 1012,-942 1012,-948 1012,-948 1012,-960 1012,-960 1012,-966 1006,-972 1000,-972"/>
<text text-anchor="middle" x="965.5" y="-951.5" font-family="sans" font-size="10.00" fill="#000000">shard_count_alns</text>
</g>
<!-- 9&#45;&gt;34 -->
<g id="edge61" class="edge">
<title>9&#45;&gt;34</title>
<path fill="none" stroke="#c0c0c0" stroke-width="2" d="M965.5,-1007.8928C965.5,-999.2842 965.5,-990.4327 965.5,-982.4546"/>
<polygon fill="#c0c0c0" stroke="#c0c0c0" stroke-width="2" points="969.0001,-982.2218 965.5,-972.2218 962.0001,-982.2218 969.0001,-982.2218"/>
</g>
<!-- 40 -->
<g id="node41" class="node">
<title>40</title>
<path fill="none" stroke="#568ad8" stroke-width="2" d="M940,-828C940,-828 811,-828 811,-828 805,-828 799,-822 799,-816 799,-816 799,-804 799,-804 799,-798 805,-792 811,-792 811,-792 940,-792 940,-792 946,-792 952,-798 952,-804 952,-804 952,-816 952,-816 952,-822 946,-828 940,-828"/>
<text text-anchor="middle" x="875.5" y="-807.5" font-family="sans" font-size="10.00" fill="#000000">shard_saturated_reads_remove</text>
</g>
<!-- 9&#45;&gt;40 -->
<g id="edge68" class="edge">
<title>9&#45;&gt;40</title>
<path fill="none" stroke="#c0c0c0" stroke-width="2" d="M932.1985,-1007.6873C924.2129,-996.4191 916.0966,-984.0386 909.5,-972 892.9222,-941.7461 888.0015,-933.6727 880.5,-900 875.9699,-879.6656 874.7992,-856.142 874.719,-838.2448"/>
<polygon fill="#c0c0c0" stroke="#c0c0c0" stroke-width="2" points="878.2194,-838.1889 874.7851,-828.1662 871.2195,-838.143 878.2194,-838.1889"/>
</g>
<!-- 10 -->
<g id="node11" class="node">
<title>10</title>
<path fill="none" stroke="#97d856" stroke-width="2" d="M203,-1093C203,-1093 96,-1093 96,-1093 90,-1093 84,-1087 84,-1081 84,-1081 84,-1020 84,-1020 84,-1014 90,-1008 96,-1008 96,-1008 203,-1008 203,-1008 209,-1008 215,-1014 215,-1020 215,-1020 215,-1081 215,-1081 215,-1087 209,-1093 203,-1093"/>
<text text-anchor="middle" x="149.5" y="-1081" font-family="sans" font-size="10.00" fill="#000000">bowtie2</text>
<text text-anchor="middle" x="149.5" y="-1070" font-family="sans" font-size="10.00" fill="#000000">library: lib1</text>
<text text-anchor="middle" x="149.5" y="-1059" font-family="sans" font-size="10.00" fill="#000000">n_shard: 2</text>
<text text-anchor="middle" x="149.5" y="-1048" font-family="sans" font-size="10.00" fill="#000000">read_type_map: collapsed</text>
<text text-anchor="middle" x="149.5" y="-1037" font-family="sans" font-size="10.00" fill="#000000">ref: wgs_eukaryota</text>
<text text-anchor="middle" x="149.5" y="-1026" font-family="sans" font-size="10.00" fill="#000000">sample: HD827sonic_1</text>
<text text-anchor="middle" x="149.5" y="-1015" font-family="sans" font-size="10.00" fill="#000000">tot_shards: 2</text>
</g>
<!-- 10&#45;&gt;1 -->
<g id="edge16" class="edge">
<title>10&#45;&gt;1</title>
<path fill="none" stroke="#c0c0c0" stroke-width="2" d="M189.3644,-1007.764C213.8999,-983.6768 247.1492,-954.7493 281.5,-936 387.9381,-877.9042 523.5,-931.2609 523.5,-810 523.5,-810 523.5,-810 523.5,-234 523.5,-193.1184 513.2046,-172.5147 542.5,-144 578.6095,-108.8529 728.7647,-95.984 799.8603,-91.7975"/>
<polygon fill="#c0c0c0" stroke="#c0c0c0" stroke-width="2" points="800.37,-95.2745 810.1581,-91.2195 799.9777,-88.2855 800.37,-95.2745"/>
</g>
<!-- 15 -->
<g id="node16" class="node">
<title>15</title>
<path fill="none" stroke="#568ad8" stroke-width="2" d="M141,-828C141,-828 12,-828 12,-828 6,-828 0,-822 0,-816 0,-816 0,-804 0,-804 0,-798 6,-792 12,-792 12,-792 141,-792 141,-792 147,-792 153,-798 153,-804 153,-804 153,-816 153,-816 153,-822 147,-828 141,-828"/>
<text text-anchor="middle" x="76.5" y="-807.5" font-family="sans" font-size="10.00" fill="#000000">shard_saturated_reads_remove</text>
</g>
<!-- 10&#45;&gt;15 -->
<g id="edge32" class="edge">
<title>10&#45;&gt;15</title>
<path fill="none" stroke="#c0c0c0" stroke-width="2" d="M113.2154,-1007.9658C105.4921,-996.8869 98.2442,-984.5242 93.5,-972 76.6695,-927.5693 74.6081,-871.6825 75.1794,-838.513"/>
<polygon fill="#c0c0c0" stroke="#c0c0c0" stroke-width="2" points="78.687,-838.2747 75.4565,-828.1844 71.6895,-838.0869 78.687,-838.2747"/>
</g>
<!-- 18 -->
<g id="node19" class="node">
<title>18</title>
<path fill="none" stroke="#56b9d8" stroke-width="2" d="M184,-972C184,-972 115,-972 115,-972 109,-972 103,-966 103,-960 103,-960 103,-948 103,-948 103,-942 109,-936 115,-936 115,-936 184,-936 184,-936 190,-936 196,-942 196,-948 196,-948 196,-960 196,-960 196,-966 190,-972 184,-972"/>
<text text-anchor="middle" x="149.5" y="-951.5" font-family="sans" font-size="10.00" fill="#000000">shard_count_alns</text>
</g>
<!-- 10&#45;&gt;18 -->
<g id="edge38" class="edge">
<title>10&#45;&gt;18</title>
<path fill="none" stroke="#c0c0c0" stroke-width="2" d="M149.5,-1007.8928C149.5,-999.2842 149.5,-990.4327 149.5,-982.4546"/>
<polygon fill="#c0c0c0" stroke="#c0c0c0" stroke-width="2" points="153.0001,-982.2218 149.5,-972.2218 146.0001,-982.2218 153.0001,-982.2218"/>
</g>
<!-- 11 -->
<g id="node12" class="node">
<title>11</title>
<path fill="none" stroke="#c6d856" stroke-width="2" d="M712.5,-396C712.5,-396 672.5,-396 672.5,-396 666.5,-396 660.5,-390 660.5,-384 660.5,-384 660.5,-372 660.5,-372 660.5,-366 666.5,-360 672.5,-360 672.5,-360 712.5,-360 712.5,-360 718.5,-360 724.5,-366 724.5,-372 724.5,-372 724.5,-384 724.5,-384 724.5,-390 718.5,-396 712.5,-396"/>
<text text-anchor="middle" x="692.5" y="-375.5" font-family="sans" font-size="10.00" fill="#000000">align_stats</text>
</g>
<!-- 11&#45;&gt;1 -->
<g id="edge17" class="edge">
<title>11&#45;&gt;1</title>
<path fill="none" stroke="#c0c0c0" stroke-width="2" d="M694.9253,-359.7513C701.6924,-310.9849 721.9703,-178.9695 747.5,-144 760.8275,-125.7445 782.3699,-112.502 801.0372,-103.7004"/>
<polygon fill="#c0c0c0" stroke="#c0c0c0" stroke-width="2" points="802.49,-106.8848 810.199,-99.6169 799.6403,-100.4912 802.49,-106.8848"/>
</g>
<!-- 12 -->
<g id="node13" class="node">
<title>12</title>
<path fill="none" stroke="#d88556" stroke-width="2" d="M361,-612C361,-612 316,-612 316,-612 310,-612 304,-606 304,-600 304,-600 304,-588 304,-588 304,-582 310,-576 316,-576 316,-576 361,-576 361,-576 367,-576 373,-582 373,-588 373,-588 373,-600 373,-600 373,-606 367,-612 361,-612"/>
<text text-anchor="middle" x="338.5" y="-591.5" font-family="sans" font-size="10.00" fill="#000000">align_merge</text>
</g>
<!-- 12&#45;&gt;11 -->
<g id="edge26" class="edge">
<title>12&#45;&gt;11</title>
<path fill="none" stroke="#c0c0c0" stroke-width="2" d="M373.1474,-584.5282C429.5288,-567.8853 542.74,-529.2364 621.5,-468 644.1173,-450.4149 663.7486,-424.1486 676.6005,-404.5246"/>
<polygon fill="#c0c0c0" stroke="#c0c0c0" stroke-width="2" points="679.591,-406.3446 682.0148,-396.0307 673.6882,-402.582 679.591,-406.3446"/>
</g>
<!-- 60 -->
<g id="node61" class="node">
<title>60</title>
<path fill="none" stroke="#d8bc56" stroke-width="2" d="M370.5,-540C370.5,-540 306.5,-540 306.5,-540 300.5,-540 294.5,-534 294.5,-528 294.5,-528 294.5,-516 294.5,-516 294.5,-510 300.5,-504 306.5,-504 306.5,-504 370.5,-504 370.5,-504 376.5,-504 382.5,-510 382.5,-516 382.5,-516 382.5,-528 382.5,-528 382.5,-534 376.5,-540 370.5,-540"/>
<text text-anchor="middle" x="338.5" y="-519.5" font-family="sans" font-size="10.00" fill="#000000">align_sort_coord</text>
</g>
<!-- 12&#45;&gt;60 -->
<g id="edge96" class="edge">
<title>12&#45;&gt;60</title>
<path fill="none" stroke="#c0c0c0" stroke-width="2" d="M338.5,-575.8314C338.5,-568.131 338.5,-558.9743 338.5,-550.4166"/>
<polygon fill="#c0c0c0" stroke="#c0c0c0" stroke-width="2" points="342.0001,-550.4132 338.5,-540.4133 335.0001,-550.4133 342.0001,-550.4132"/>
</g>
<!-- 13 -->
<g id="node14" class="node">
<title>13</title>
<path fill="none" stroke="#5673d8" stroke-width="2" d="M146.5,-684C146.5,-684 78.5,-684 78.5,-684 72.5,-684 66.5,-678 66.5,-672 66.5,-672 66.5,-660 66.5,-660 66.5,-654 72.5,-648 78.5,-648 78.5,-648 146.5,-648 146.5,-648 152.5,-648 158.5,-654 158.5,-660 158.5,-660 158.5,-672 158.5,-672 158.5,-678 152.5,-684 146.5,-684"/>
<text text-anchor="middle" x="112.5" y="-663.5" font-family="sans" font-size="10.00" fill="#000000">shard_sort_query</text>
</g>
<!-- 13&#45;&gt;12 -->
<g id="edge27" class="edge">
<title>13&#45;&gt;12</title>
<path fill="none" stroke="#c0c0c0" stroke-width="2" d="M158.5069,-651.3429C198.2455,-638.6829 255.2839,-620.5113 294.4429,-608.0359"/>
<polygon fill="#c0c0c0" stroke="#c0c0c0" stroke-width="2" points="295.5263,-611.3641 303.992,-604.9937 293.4014,-604.6944 295.5263,-611.3641"/>
</g>
<!-- 14 -->
<g id="node15" class="node">
<title>14</title>
<path fill="none" stroke="#56d0d8" stroke-width="2" d="M129.5,-756C129.5,-756 49.5,-756 49.5,-756 43.5,-756 37.5,-750 37.5,-744 37.5,-744 37.5,-732 37.5,-732 37.5,-726 43.5,-720 49.5,-720 49.5,-720 129.5,-720 129.5,-720 135.5,-720 141.5,-726 141.5,-732 141.5,-732 141.5,-744 141.5,-744 141.5,-750 135.5,-756 129.5,-756"/>
<text text-anchor="middle" x="89.5" y="-735.5" font-family="sans" font-size="10.00" fill="#000000">shard_clean_header</text>
</g>
<!-- 14&#45;&gt;13 -->
<g id="edge30" class="edge">
<title>14&#45;&gt;13</title>
<path fill="none" stroke="#c0c0c0" stroke-width="2" d="M95.3039,-719.8314C97.7908,-712.0463 100.7531,-702.7729 103.5125,-694.1347"/>
<polygon fill="#c0c0c0" stroke="#c0c0c0" stroke-width="2" points="106.909,-695.0041 106.618,-684.4133 100.2409,-692.874 106.909,-695.0041"/>
</g>
<!-- 15&#45;&gt;14 -->
<g id="edge31" class="edge">
<title>15&#45;&gt;14</title>
<path fill="none" stroke="#c0c0c0" stroke-width="2" d="M79.7804,-791.8314C81.1708,-784.131 82.8241,-774.9743 84.3692,-766.4166"/>
<polygon fill="#c0c0c0" stroke="#c0c0c0" stroke-width="2" points="87.8428,-766.8761 86.1754,-756.4133 80.9542,-765.6322 87.8428,-766.8761"/>
</g>
<!-- 16 -->
<g id="node17" class="node">
<title>16</title>
<path fill="none" stroke="#56a2d8" stroke-width="2" d="M383.5,-900C383.5,-900 273.5,-900 273.5,-900 267.5,-900 261.5,-894 261.5,-888 261.5,-888 261.5,-876 261.5,-876 261.5,-870 267.5,-864 273.5,-864 273.5,-864 383.5,-864 383.5,-864 389.5,-864 395.5,-870 395.5,-876 395.5,-876 395.5,-888 395.5,-888 395.5,-894 389.5,-900 383.5,-900"/>
<text text-anchor="middle" x="328.5" y="-879.5" font-family="sans" font-size="10.00" fill="#000000">shard_saturated_reads_get</text>
</g>
<!-- 16&#45;&gt;15 -->
<g id="edge33" class="edge">
<title>16&#45;&gt;15</title>
<path fill="none" stroke="#c0c0c0" stroke-width="2" d="M265.235,-863.9243C230.0363,-853.8675 186.0681,-841.3052 149.4269,-830.8363"/>
<polygon fill="#c0c0c0" stroke="#c0c0c0" stroke-width="2" points="150.3678,-827.4651 139.791,-828.0831 148.4447,-834.1958 150.3678,-827.4651"/>
</g>
<!-- 16&#45;&gt;22 -->
<g id="edge43" class="edge">
<title>16&#45;&gt;22</title>
<path fill="none" stroke="#c0c0c0" stroke-width="2" d="M308.0603,-863.8314C298.1795,-855.0485 286.1676,-844.3712 275.455,-834.8489"/>
<polygon fill="#c0c0c0" stroke="#c0c0c0" stroke-width="2" points="277.7326,-832.1906 267.9332,-828.1628 273.082,-837.4224 277.7326,-832.1906"/>
</g>
<!-- 16&#45;&gt;25 -->
<g id="edge47" class="edge">
<title>16&#45;&gt;25</title>
<path fill="none" stroke="#c0c0c0" stroke-width="2" d="M351.2108,-863.8314C362.296,-854.9632 375.7954,-844.1637 387.7852,-834.5718"/>
<polygon fill="#c0c0c0" stroke="#c0c0c0" stroke-width="2" points="390.1742,-837.1429 395.7965,-828.1628 385.8013,-831.6768 390.1742,-837.1429"/>
</g>
<!-- 17&#45;&gt;16 -->
<g id="edge34" class="edge">
<title>17&#45;&gt;16</title>
<path fill="none" stroke="#c0c0c0" stroke-width="2" d="M335.2289,-935.8314C334.2664,-928.131 333.1218,-918.9743 332.0521,-910.4166"/>
<polygon fill="#c0c0c0" stroke="#c0c0c0" stroke-width="2" points="335.5151,-909.9019 330.8017,-900.4133 328.5691,-910.7702 335.5151,-909.9019"/>
</g>
<!-- 18&#45;&gt;16 -->
<g id="edge35" class="edge">
<title>18&#45;&gt;16</title>
<path fill="none" stroke="#c0c0c0" stroke-width="2" d="M194.6693,-935.8314C218.8223,-926.1162 248.7378,-914.0831 274.1556,-903.8592"/>
<polygon fill="#c0c0c0" stroke="#c0c0c0" stroke-width="2" points="275.6841,-907.017 283.6556,-900.038 273.0718,-900.5227 275.6841,-907.017"/>
</g>
<!-- 19&#45;&gt;16 -->
<g id="edge36" class="edge">
<title>19&#45;&gt;16</title>
<path fill="none" stroke="#c0c0c0" stroke-width="2" d="M418.2189,-935.8314C402.8702,-926.6221 384.0502,-915.3301 367.6177,-905.4706"/>
<polygon fill="#c0c0c0" stroke="#c0c0c0" stroke-width="2" points="369.1471,-902.3066 358.7714,-900.1628 365.5456,-908.3091 369.1471,-902.3066"/>
</g>
<!-- 20 -->
<g id="node21" class="node">
<title>20</title>
<path fill="none" stroke="#5673d8" stroke-width="2" d="M304.5,-684C304.5,-684 236.5,-684 236.5,-684 230.5,-684 224.5,-678 224.5,-672 224.5,-672 224.5,-660 224.5,-660 224.5,-654 230.5,-648 236.5,-648 236.5,-648 304.5,-648 304.5,-648 310.5,-648 316.5,-654 316.5,-660 316.5,-660 316.5,-672 316.5,-672 316.5,-678 310.5,-684 304.5,-684"/>
<text text-anchor="middle" x="270.5" y="-663.5" font-family="sans" font-size="10.00" fill="#000000">shard_sort_query</text>
</g>
<!-- 20&#45;&gt;12 -->
<g id="edge28" class="edge">
<title>20&#45;&gt;12</title>
<path fill="none" stroke="#c0c0c0" stroke-width="2" d="M287.6593,-647.8314C295.6511,-639.3694 305.3038,-629.1489 314.0416,-619.8971"/>
<polygon fill="#c0c0c0" stroke="#c0c0c0" stroke-width="2" points="316.788,-622.0866 321.1097,-612.4133 311.6989,-617.2802 316.788,-622.0866"/>
</g>
<!-- 21 -->
<g id="node22" class="node">
<title>21</title>
<path fill="none" stroke="#56d0d8" stroke-width="2" d="M300.5,-756C300.5,-756 220.5,-756 220.5,-756 214.5,-756 208.5,-750 208.5,-744 208.5,-744 208.5,-732 208.5,-732 208.5,-726 214.5,-720 220.5,-720 220.5,-720 300.5,-720 300.5,-720 306.5,-720 312.5,-726 312.5,-732 312.5,-732 312.5,-744 312.5,-744 312.5,-750 306.5,-756 300.5,-756"/>
<text text-anchor="middle" x="260.5" y="-735.5" font-family="sans" font-size="10.00" fill="#000000">shard_clean_header</text>
</g>
<!-- 21&#45;&gt;20 -->
<g id="edge40" class="edge">
<title>21&#45;&gt;20</title>
<path fill="none" stroke="#c0c0c0" stroke-width="2" d="M263.0234,-719.8314C264.0929,-712.131 265.3647,-702.9743 266.5532,-694.4166"/>
<polygon fill="#c0c0c0" stroke="#c0c0c0" stroke-width="2" points="270.0336,-694.7997 267.9426,-684.4133 263.1001,-693.8367 270.0336,-694.7997"/>
</g>
<!-- 22&#45;&gt;21 -->
<g id="edge41" class="edge">
<title>22&#45;&gt;21</title>
<path fill="none" stroke="#c0c0c0" stroke-width="2" d="M250.7804,-791.8314C252.1708,-784.131 253.8241,-774.9743 255.3692,-766.4166"/>
<polygon fill="#c0c0c0" stroke="#c0c0c0" stroke-width="2" points="258.8428,-766.8761 257.1754,-756.4133 251.9542,-765.6322 258.8428,-766.8761"/>
</g>
<!-- 23 -->
<g id="node24" class="node">
<title>23</title>
<path fill="none" stroke="#5673d8" stroke-width="2" d="M432.5,-684C432.5,-684 364.5,-684 364.5,-684 358.5,-684 352.5,-678 352.5,-672 352.5,-672 352.5,-660 352.5,-660 352.5,-654 358.5,-648 364.5,-648 364.5,-648 432.5,-648 432.5,-648 438.5,-648 444.5,-654 444.5,-660 444.5,-660 444.5,-672 444.5,-672 444.5,-678 438.5,-684 432.5,-684"/>
<text text-anchor="middle" x="398.5" y="-663.5" font-family="sans" font-size="10.00" fill="#000000">shard_sort_query</text>
</g>
<!-- 23&#45;&gt;12 -->
<g id="edge29" class="edge">
<title>23&#45;&gt;12</title>
<path fill="none" stroke="#c0c0c0" stroke-width="2" d="M383.3595,-647.8314C376.3783,-639.454 367.9609,-629.3531 360.3124,-620.1749"/>
<polygon fill="#c0c0c0" stroke="#c0c0c0" stroke-width="2" points="362.9351,-617.8548 353.8444,-612.4133 357.5575,-622.3362 362.9351,-617.8548"/>
</g>
<!-- 24 -->
<g id="node25" class="node">
<title>24</title>
<path fill="none" stroke="#56d0d8" stroke-width="2" d="M446.5,-756C446.5,-756 366.5,-756 366.5,-756 360.5,-756 354.5,-750 354.5,-744 354.5,-744 354.5,-732 354.5,-732 354.5,-726 360.5,-720 366.5,-720 366.5,-720 446.5,-720 446.5,-720 452.5,-720 458.5,-726 458.5,-732 458.5,-732 458.5,-744 458.5,-744 458.5,-750 452.5,-756 446.5,-756"/>
<text text-anchor="middle" x="406.5" y="-735.5" font-family="sans" font-size="10.00" fill="#000000">shard_clean_header</text>
</g>
<!-- 24&#45;&gt;23 -->
<g id="edge44" class="edge">
<title>24&#45;&gt;23</title>
<path fill="none" stroke="#c0c0c0" stroke-width="2" d="M404.4813,-719.8314C403.6257,-712.131 402.6083,-702.9743 401.6574,-694.4166"/>
<polygon fill="#c0c0c0" stroke="#c0c0c0" stroke-width="2" points="405.1289,-693.9656 400.5459,-684.4133 398.1717,-694.7386 405.1289,-693.9656"/>
</g>
<!-- 25&#45;&gt;24 -->
<g id="edge45" class="edge">
<title>25&#45;&gt;24</title>
<path fill="none" stroke="#c0c0c0" stroke-width="2" d="M415.4719,-791.8314C414.1885,-784.131 412.6624,-774.9743 411.2361,-766.4166"/>
<polygon fill="#c0c0c0" stroke="#c0c0c0" stroke-width="2" points="414.6653,-765.7018 409.5689,-756.4133 407.7606,-766.8526 414.6653,-765.7018"/>
</g>
<!-- 26 -->
<g id="node27" class="node">
<title>26</title>
<path fill="none" stroke="#c6d856" stroke-width="2" d="M857.5,-468C857.5,-468 817.5,-468 817.5,-468 811.5,-468 805.5,-462 805.5,-456 805.5,-456 805.5,-444 805.5,-444 805.5,-438 811.5,-432 817.5,-432 817.5,-432 857.5,-432 857.5,-432 863.5,-432 869.5,-438 869.5,-444 869.5,-444 869.5,-456 869.5,-456 869.5,-462 863.5,-468 857.5,-468"/>
<text text-anchor="middle" x="837.5" y="-447.5" font-family="sans" font-size="10.00" fill="#000000">align_stats</text>
</g>
<!-- 26&#45;&gt;1 -->
<g id="edge18" class="edge">
<title>26&#45;&gt;1</title>
<path fill="none" stroke="#c0c0c0" stroke-width="2" d="M837.5,-431.8146C837.5,-404.4983 837.5,-351.25 837.5,-306 837.5,-306 837.5,-306 837.5,-234 837.5,-193.876 837.5,-147.4631 837.5,-118.4177"/>
<polygon fill="#c0c0c0" stroke="#c0c0c0" stroke-width="2" points="841.0001,-118.1853 837.5,-108.1854 834.0001,-118.1854 841.0001,-118.1853"/>
</g>
<!-- 27 -->
<g id="node28" class="node">
<title>27</title>
<path fill="none" stroke="#d88556" stroke-width="2" d="M860,-612C860,-612 815,-612 815,-612 809,-612 803,-606 803,-600 803,-600 803,-588 803,-588 803,-582 809,-576 815,-576 815,-576 860,-576 860,-576 866,-576 872,-582 872,-588 872,-588 872,-600 872,-600 872,-606 866,-612 860,-612"/>
<text text-anchor="middle" x="837.5" y="-591.5" font-family="sans" font-size="10.00" fill="#000000">align_merge</text>
</g>
<!-- 27&#45;&gt;26 -->
<g id="edge48" class="edge">
<title>27&#45;&gt;26</title>
<path fill="none" stroke="#c0c0c0" stroke-width="2" d="M837.5,-575.7623C837.5,-551.201 837.5,-507.2474 837.5,-478.3541"/>
<polygon fill="#c0c0c0" stroke="#c0c0c0" stroke-width="2" points="841.0001,-478.0896 837.5,-468.0896 834.0001,-478.0897 841.0001,-478.0896"/>
</g>
<!-- 65 -->
<g id="node66" class="node">
<title>65</title>
<path fill="none" stroke="#d8bc56" stroke-width="2" d="M663.5,-540C663.5,-540 599.5,-540 599.5,-540 593.5,-540 587.5,-534 587.5,-528 587.5,-528 587.5,-516 587.5,-516 587.5,-510 593.5,-504 599.5,-504 599.5,-504 663.5,-504 663.5,-504 669.5,-504 675.5,-510 675.5,-516 675.5,-516 675.5,-528 675.5,-528 675.5,-534 669.5,-540 663.5,-540"/>
<text text-anchor="middle" x="631.5" y="-519.5" font-family="sans" font-size="10.00" fill="#000000">align_sort_coord</text>
</g>
<!-- 27&#45;&gt;65 -->
<g id="edge101" class="edge">
<title>27&#45;&gt;65</title>
<path fill="none" stroke="#c0c0c0" stroke-width="2" d="M802.5549,-581.7862C770.4158,-570.5531 722.2758,-553.7275 685.2452,-540.7847"/>
<polygon fill="#c0c0c0" stroke="#c0c0c0" stroke-width="2" points="686.1981,-537.4102 675.6033,-537.4147 683.8885,-544.0182 686.1981,-537.4102"/>
</g>
<!-- 28 -->
<g id="node29" class="node">
<title>28</title>
<path fill="none" stroke="#5673d8" stroke-width="2" d="M779.5,-684C779.5,-684 711.5,-684 711.5,-684 705.5,-684 699.5,-678 699.5,-672 699.5,-672 699.5,-660 699.5,-660 699.5,-654 705.5,-648 711.5,-648 711.5,-648 779.5,-648 779.5,-648 785.5,-648 791.5,-654 791.5,-660 791.5,-660 791.5,-672 791.5,-672 791.5,-678 785.5,-684 779.5,-684"/>
<text text-anchor="middle" x="745.5" y="-663.5" font-family="sans" font-size="10.00" fill="#000000">shard_sort_query</text>
</g>
<!-- 28&#45;&gt;27 -->
<g id="edge49" class="edge">
<title>28&#45;&gt;27</title>
<path fill="none" stroke="#c0c0c0" stroke-width="2" d="M768.7155,-647.8314C780.047,-638.9632 793.8464,-628.1637 806.1027,-618.5718"/>
<polygon fill="#c0c0c0" stroke="#c0c0c0" stroke-width="2" points="808.574,-621.0822 814.2919,-612.1628 804.2598,-615.5697 808.574,-621.0822"/>
</g>
<!-- 29 -->
<g id="node30" class="node">
<title>29</title>
<path fill="none" stroke="#56d0d8" stroke-width="2" d="M779.5,-756C779.5,-756 699.5,-756 699.5,-756 693.5,-756 687.5,-750 687.5,-744 687.5,-744 687.5,-732 687.5,-732 687.5,-726 693.5,-720 699.5,-720 699.5,-720 779.5,-720 779.5,-720 785.5,-720 791.5,-726 791.5,-732 791.5,-732 791.5,-744 791.5,-744 791.5,-750 785.5,-756 779.5,-756"/>
<text text-anchor="middle" x="739.5" y="-735.5" font-family="sans" font-size="10.00" fill="#000000">shard_clean_header</text>
</g>
<!-- 29&#45;&gt;28 -->
<g id="edge52" class="edge">
<title>29&#45;&gt;28</title>
<path fill="none" stroke="#c0c0c0" stroke-width="2" d="M741.0141,-719.8314C741.6558,-712.131 742.4188,-702.9743 743.1319,-694.4166"/>
<polygon fill="#c0c0c0" stroke="#c0c0c0" stroke-width="2" points="746.6229,-694.6694 743.9656,-684.4133 739.6471,-694.088 746.6229,-694.6694"/>
</g>
<!-- 30&#45;&gt;29 -->
<g id="edge53" class="edge">
<title>30&#45;&gt;29</title>
<path fill="none" stroke="#c0c0c0" stroke-width="2" d="M713.332,-791.8314C717.1986,-783.8771 721.8206,-774.369 726.0968,-765.5723"/>
<polygon fill="#c0c0c0" stroke="#c0c0c0" stroke-width="2" points="729.3249,-766.9371 730.5491,-756.4133 723.0293,-763.8768 729.3249,-766.9371"/>
</g>
<!-- 31 -->
<g id="node32" class="node">
<title>31</title>
<path fill="none" stroke="#56a2d8" stroke-width="2" d="M1011.5,-900C1011.5,-900 901.5,-900 901.5,-900 895.5,-900 889.5,-894 889.5,-888 889.5,-888 889.5,-876 889.5,-876 889.5,-870 895.5,-864 901.5,-864 901.5,-864 1011.5,-864 1011.5,-864 1017.5,-864 1023.5,-870 1023.5,-876 1023.5,-876 1023.5,-888 1023.5,-888 1023.5,-894 1017.5,-900 1011.5,-900"/>
<text text-anchor="middle" x="956.5" y="-879.5" font-family="sans" font-size="10.00" fill="#000000">shard_saturated_reads_get</text>
</g>
<!-- 31&#45;&gt;30 -->
<g id="edge55" class="edge">
<title>31&#45;&gt;30</title>
<path fill="none" stroke="#c0c0c0" stroke-width="2" d="M893.235,-863.9243C858.0363,-853.8675 814.0681,-841.3052 777.4269,-830.8363"/>
<polygon fill="#c0c0c0" stroke="#c0c0c0" stroke-width="2" points="778.3678,-827.4651 767.791,-828.0831 776.4447,-834.1958 778.3678,-827.4651"/>
</g>
<!-- 31&#45;&gt;37 -->
<g id="edge65" class="edge">
<title>31&#45;&gt;37</title>
<path fill="none" stroke="#c0c0c0" stroke-width="2" d="M979.2108,-863.8314C990.296,-854.9632 1003.7954,-844.1637 1015.7852,-834.5718"/>
<polygon fill="#c0c0c0" stroke="#c0c0c0" stroke-width="2" points="1018.1742,-837.1429 1023.7965,-828.1628 1013.8013,-831.6768 1018.1742,-837.1429"/>
</g>
<!-- 31&#45;&gt;40 -->
<g id="edge69" class="edge">
<title>31&#45;&gt;40</title>
<path fill="none" stroke="#c0c0c0" stroke-width="2" d="M936.0603,-863.8314C926.1795,-855.0485 914.1676,-844.3712 903.455,-834.8489"/>
<polygon fill="#c0c0c0" stroke="#c0c0c0" stroke-width="2" points="905.7326,-832.1906 895.9332,-828.1628 901.082,-837.4224 905.7326,-832.1906"/>
</g>
<!-- 32&#45;&gt;31 -->
<g id="edge56" class="edge">
<title>32&#45;&gt;31</title>
<path fill="none" stroke="#c0c0c0" stroke-width="2" d="M1046.2189,-935.8314C1030.8702,-926.6221 1012.0502,-915.3301 995.6177,-905.4706"/>
<polygon fill="#c0c0c0" stroke="#c0c0c0" stroke-width="2" points="997.1471,-902.3066 986.7714,-900.1628 993.5456,-908.3091 997.1471,-902.3066"/>
</g>
<!-- 33&#45;&gt;31 -->
<g id="edge57" class="edge">
<title>33&#45;&gt;31</title>
<path fill="none" stroke="#c0c0c0" stroke-width="2" d="M822.6693,-935.8314C846.8223,-926.1162 876.7378,-914.0831 902.1556,-903.8592"/>
<polygon fill="#c0c0c0" stroke="#c0c0c0" stroke-width="2" points="903.6841,-907.017 911.6556,-900.038 901.0718,-900.5227 903.6841,-907.017"/>
</g>
<!-- 34&#45;&gt;31 -->
<g id="edge58" class="edge">
<title>34&#45;&gt;31</title>
<path fill="none" stroke="#c0c0c0" stroke-width="2" d="M963.2289,-935.8314C962.2664,-928.131 961.1218,-918.9743 960.0521,-910.4166"/>
<polygon fill="#c0c0c0" stroke="#c0c0c0" stroke-width="2" points="963.5151,-909.9019 958.8017,-900.4133 956.5691,-910.7702 963.5151,-909.9019"/>
</g>
<!-- 35 -->
<g id="node36" class="node">
<title>35</title>
<path fill="none" stroke="#5673d8" stroke-width="2" d="M1035.5,-684C1035.5,-684 967.5,-684 967.5,-684 961.5,-684 955.5,-678 955.5,-672 955.5,-672 955.5,-660 955.5,-660 955.5,-654 961.5,-648 967.5,-648 967.5,-648 1035.5,-648 1035.5,-648 1041.5,-648 1047.5,-654 1047.5,-660 1047.5,-660 1047.5,-672 1047.5,-672 1047.5,-678 1041.5,-684 1035.5,-684"/>
<text text-anchor="middle" x="1001.5" y="-663.5" font-family="sans" font-size="10.00" fill="#000000">shard_sort_query</text>
</g>
<!-- 35&#45;&gt;27 -->
<g id="edge50" class="edge">
<title>35&#45;&gt;27</title>
<path fill="none" stroke="#c0c0c0" stroke-width="2" d="M960.1159,-647.8314C936.1576,-637.3131 906.0108,-624.0779 881.6052,-613.3632"/>
<polygon fill="#c0c0c0" stroke="#c0c0c0" stroke-width="2" points="882.781,-610.057 872.2175,-609.2418 879.967,-616.4666 882.781,-610.057"/>
</g>
<!-- 36 -->
<g id="node37" class="node">
<title>36</title>
<path fill="none" stroke="#56d0d8" stroke-width="2" d="M1062.5,-756C1062.5,-756 982.5,-756 982.5,-756 976.5,-756 970.5,-750 970.5,-744 970.5,-744 970.5,-732 970.5,-732 970.5,-726 976.5,-720 982.5,-720 982.5,-720 1062.5,-720 1062.5,-720 1068.5,-720 1074.5,-726 1074.5,-732 1074.5,-732 1074.5,-744 1074.5,-744 1074.5,-750 1068.5,-756 1062.5,-756"/>
<text text-anchor="middle" x="1022.5" y="-735.5" font-family="sans" font-size="10.00" fill="#000000">shard_clean_header</text>
</g>
<!-- 36&#45;&gt;35 -->
<g id="edge62" class="edge">
<title>36&#45;&gt;35</title>
<path fill="none" stroke="#c0c0c0" stroke-width="2" d="M1017.2008,-719.8314C1014.9302,-712.0463 1012.2254,-702.7729 1009.706,-694.1347"/>
<polygon fill="#c0c0c0" stroke="#c0c0c0" stroke-width="2" points="1013.0306,-693.0332 1006.8705,-684.4133 1006.3106,-694.9933 1013.0306,-693.0332"/>
</g>
<!-- 37&#45;&gt;36 -->
<g id="edge63" class="edge">
<title>37&#45;&gt;36</title>
<path fill="none" stroke="#c0c0c0" stroke-width="2" d="M1040.4438,-791.8314C1037.8488,-784.0463 1034.7576,-774.7729 1031.8782,-766.1347"/>
<polygon fill="#c0c0c0" stroke="#c0c0c0" stroke-width="2" points="1035.1205,-764.7933 1028.6378,-756.4133 1028.4797,-767.0069 1035.1205,-764.7933"/>
</g>
<!-- 38 -->
<g id="node39" class="node">
<title>38</title>
<path fill="none" stroke="#5673d8" stroke-width="2" d="M899.5,-684C899.5,-684 831.5,-684 831.5,-684 825.5,-684 819.5,-678 819.5,-672 819.5,-672 819.5,-660 819.5,-660 819.5,-654 825.5,-648 831.5,-648 831.5,-648 899.5,-648 899.5,-648 905.5,-648 911.5,-654 911.5,-660 911.5,-660 911.5,-672 911.5,-672 911.5,-678 905.5,-684 899.5,-684"/>
<text text-anchor="middle" x="865.5" y="-663.5" font-family="sans" font-size="10.00" fill="#000000">shard_sort_query</text>
</g>
<!-- 38&#45;&gt;27 -->
<g id="edge51" class="edge">
<title>38&#45;&gt;27</title>
<path fill="none" stroke="#c0c0c0" stroke-width="2" d="M858.4344,-647.8314C855.374,-639.9617 851.7221,-630.5712 848.3318,-621.8533"/>
<polygon fill="#c0c0c0" stroke="#c0c0c0" stroke-width="2" points="851.5473,-620.4647 844.6607,-612.4133 845.0232,-623.0019 851.5473,-620.4647"/>
</g>
<!-- 39 -->
<g id="node40" class="node">
<title>39</title>
<path fill="none" stroke="#56d0d8" stroke-width="2" d="M910.5,-756C910.5,-756 830.5,-756 830.5,-756 824.5,-756 818.5,-750 818.5,-744 818.5,-744 818.5,-732 818.5,-732 818.5,-726 824.5,-720 830.5,-720 830.5,-720 910.5,-720 910.5,-720 916.5,-720 922.5,-726 922.5,-732 922.5,-732 922.5,-744 922.5,-744 922.5,-750 916.5,-756 910.5,-756"/>
<text text-anchor="middle" x="870.5" y="-735.5" font-family="sans" font-size="10.00" fill="#000000">shard_clean_header</text>
</g>
<!-- 39&#45;&gt;38 -->
<g id="edge66" class="edge">
<title>39&#45;&gt;38</title>
<path fill="none" stroke="#c0c0c0" stroke-width="2" d="M869.2383,-719.8314C868.7035,-712.131 868.0677,-702.9743 867.4734,-694.4166"/>
<polygon fill="#c0c0c0" stroke="#c0c0c0" stroke-width="2" points="870.9632,-694.1467 866.7787,-684.4133 863.98,-694.6317 870.9632,-694.1467"/>
</g>
<!-- 40&#45;&gt;39 -->
<g id="edge67" class="edge">
<title>40&#45;&gt;39</title>
<path fill="none" stroke="#c0c0c0" stroke-width="2" d="M874.2383,-791.8314C873.7035,-784.131 873.0677,-774.9743 872.4734,-766.4166"/>
<polygon fill="#c0c0c0" stroke="#c0c0c0" stroke-width="2" points="875.9632,-766.1467 871.7787,-756.4133 868.98,-766.6317 875.9632,-766.1467"/>
</g>
<!-- 41 -->
<g id="node42" class="node">
<title>41</title>
<path fill="none" stroke="#c6d856" stroke-width="2" d="M1387.5,-252C1387.5,-252 1347.5,-252 1347.5,-252 1341.5,-252 1335.5,-246 1335.5,-240 1335.5,-240 1335.5,-228 1335.5,-228 1335.5,-222 1341.5,-216 1347.5,-216 1347.5,-216 1387.5,-216 1387.5,-216 1393.5,-216 1399.5,-222 1399.5,-228 1399.5,-228 1399.5,-240 1399.5,-240 1399.5,-246 1393.5,-252 1387.5,-252"/>
<text text-anchor="middle" x="1367.5" y="-231.5" font-family="sans" font-size="10.00" fill="#000000">align_stats</text>
</g>
<!-- 41&#45;&gt;1 -->
<g id="edge19" class="edge">
<title>41&#45;&gt;1</title>
<path fill="none" stroke="#c0c0c0" stroke-width="2" d="M1362.8103,-215.6861C1356.3754,-194.6092 1342.6366,-160.7527 1317.5,-144 1280.8584,-119.5796 981.2317,-98.881 874.8203,-92.2355"/>
<polygon fill="#c0c0c0" stroke="#c0c0c0" stroke-width="2" points="874.7558,-88.7249 864.5588,-91.601 874.3237,-95.7116 874.7558,-88.7249"/>
</g>
<!-- 42 -->
<g id="node43" class="node">
<title>42</title>
<path fill="none" stroke="#d88556" stroke-width="2" d="M1561,-612C1561,-612 1516,-612 1516,-612 1510,-612 1504,-606 1504,-600 1504,-600 1504,-588 1504,-588 1504,-582 1510,-576 1516,-576 1516,-576 1561,-576 1561,-576 1567,-576 1573,-582 1573,-588 1573,-588 1573,-600 1573,-600 1573,-606 1567,-612 1561,-612"/>
<text text-anchor="middle" x="1538.5" y="-591.5" font-family="sans" font-size="10.00" fill="#000000">align_merge</text>
</g>
<!-- 42&#45;&gt;41 -->
<g id="edge70" class="edge">
<title>42&#45;&gt;41</title>
<path fill="none" stroke="#c0c0c0" stroke-width="2" d="M1516.9688,-575.9612C1506.3674,-566.1897 1494.0589,-553.3935 1485.5,-540 1462.4752,-503.9694 1451.5,-492.7592 1451.5,-450 1451.5,-450 1451.5,-450 1451.5,-378 1451.5,-331.3742 1418.2357,-286.406 1393.5728,-259.4732"/>
<polygon fill="#c0c0c0" stroke="#c0c0c0" stroke-width="2" points="1395.969,-256.9127 1386.5609,-252.0404 1390.8771,-261.7162 1395.969,-256.9127"/>
</g>
<!-- 70 -->
<g id="node71" class="node">
<title>70</title>
<path fill="none" stroke="#d8bc56" stroke-width="2" d="M1570.5,-540C1570.5,-540 1506.5,-540 1506.5,-540 1500.5,-540 1494.5,-534 1494.5,-528 1494.5,-528 1494.5,-516 1494.5,-516 1494.5,-510 1500.5,-504 1506.5,-504 1506.5,-504 1570.5,-504 1570.5,-504 1576.5,-504 1582.5,-510 1582.5,-516 1582.5,-516 1582.5,-528 1582.5,-528 1582.5,-534 1576.5,-540 1570.5,-540"/>
<text text-anchor="middle" x="1538.5" y="-519.5" font-family="sans" font-size="10.00" fill="#000000">align_sort_coord</text>
</g>
<!-- 42&#45;&gt;70 -->
<g id="edge106" class="edge">
<title>42&#45;&gt;70</title>
<path fill="none" stroke="#c0c0c0" stroke-width="2" d="M1538.5,-575.8314C1538.5,-568.131 1538.5,-558.9743 1538.5,-550.4166"/>
<polygon fill="#c0c0c0" stroke="#c0c0c0" stroke-width="2" points="1542.0001,-550.4132 1538.5,-540.4133 1535.0001,-550.4133 1542.0001,-550.4132"/>
</g>
<!-- 43 -->
<g id="node44" class="node">
<title>43</title>
<path fill="none" stroke="#5673d8" stroke-width="2" d="M1582.5,-684C1582.5,-684 1514.5,-684 1514.5,-684 1508.5,-684 1502.5,-678 1502.5,-672 1502.5,-672 1502.5,-660 1502.5,-660 1502.5,-654 1508.5,-648 1514.5,-648 1514.5,-648 1582.5,-648 1582.5,-648 1588.5,-648 1594.5,-654 1594.5,-660 1594.5,-660 1594.5,-672 1594.5,-672 1594.5,-678 1588.5,-684 1582.5,-684"/>
<text text-anchor="middle" x="1548.5" y="-663.5" font-family="sans" font-size="10.00" fill="#000000">shard_sort_query</text>
</g>
<!-- 43&#45;&gt;42 -->
<g id="edge71" class="edge">
<title>43&#45;&gt;42</title>
<path fill="none" stroke="#c0c0c0" stroke-width="2" d="M1545.9766,-647.8314C1544.9071,-640.131 1543.6353,-630.9743 1542.4468,-622.4166"/>
<polygon fill="#c0c0c0" stroke="#c0c0c0" stroke-width="2" points="1545.8999,-621.8367 1541.0574,-612.4133 1538.9664,-622.7997 1545.8999,-621.8367"/>
</g>
<!-- 44 -->
<g id="node45" class="node">
<title>44</title>
<path fill="none" stroke="#56d0d8" stroke-width="2" d="M1608.5,-756C1608.5,-756 1528.5,-756 1528.5,-756 1522.5,-756 1516.5,-750 1516.5,-744 1516.5,-744 1516.5,-732 1516.5,-732 1516.5,-726 1522.5,-720 1528.5,-720 1528.5,-720 1608.5,-720 1608.5,-720 1614.5,-720 1620.5,-726 1620.5,-732 1620.5,-732 1620.5,-744 1620.5,-744 1620.5,-750 1614.5,-756 1608.5,-756"/>
<text text-anchor="middle" x="1568.5" y="-735.5" font-family="sans" font-size="10.00" fill="#000000">shard_clean_header</text>
</g>
<!-- 44&#45;&gt;43 -->
<g id="edge74" class="edge">
<title>44&#45;&gt;43</title>
<path fill="none" stroke="#c0c0c0" stroke-width="2" d="M1563.4532,-719.8314C1561.2906,-712.0463 1558.7147,-702.7729 1556.3152,-694.1347"/>
<polygon fill="#c0c0c0" stroke="#c0c0c0" stroke-width="2" points="1559.6636,-693.1117 1553.6148,-684.4133 1552.919,-694.9852 1559.6636,-693.1117"/>
</g>
<!-- 45&#45;&gt;44 -->
<g id="edge75" class="edge">
<title>45&#45;&gt;44</title>
<path fill="none" stroke="#c0c0c0" stroke-width="2" d="M1576.7242,-791.8314C1575.5478,-784.131 1574.1489,-774.9743 1572.8414,-766.4166"/>
<polygon fill="#c0c0c0" stroke="#c0c0c0" stroke-width="2" points="1576.2833,-765.7699 1571.3131,-756.4133 1569.3636,-766.8272 1576.2833,-765.7699"/>
</g>
<!-- 46 -->
<g id="node47" class="node">
<title>46</title>
<path fill="none" stroke="#56a2d8" stroke-width="2" d="M1563.5,-900C1563.5,-900 1453.5,-900 1453.5,-900 1447.5,-900 1441.5,-894 1441.5,-888 1441.5,-888 1441.5,-876 1441.5,-876 1441.5,-870 1447.5,-864 1453.5,-864 1453.5,-864 1563.5,-864 1563.5,-864 1569.5,-864 1575.5,-870 1575.5,-876 1575.5,-876 1575.5,-888 1575.5,-888 1575.5,-894 1569.5,-900 1563.5,-900"/>
<text text-anchor="middle" x="1508.5" y="-879.5" font-family="sans" font-size="10.00" fill="#000000">shard_saturated_reads_get</text>
</g>
<!-- 46&#45;&gt;45 -->
<g id="edge77" class="edge">
<title>46&#45;&gt;45</title>
<path fill="none" stroke="#c0c0c0" stroke-width="2" d="M1526.4163,-863.8314C1534.8442,-855.2848 1545.041,-844.9443 1554.236,-835.6198"/>
<polygon fill="#c0c0c0" stroke="#c0c0c0" stroke-width="2" points="1556.8131,-837.9912 1561.3425,-828.4133 1551.8289,-833.0761 1556.8131,-837.9912"/>
</g>
<!-- 46&#45;&gt;52 -->
<g id="edge87" class="edge">
<title>46&#45;&gt;52</title>
<path fill="none" stroke="#c0c0c0" stroke-width="2" d="M1483.2658,-863.8314C1470.712,-854.7927 1455.3717,-843.7476 1441.8609,-834.0198"/>
<polygon fill="#c0c0c0" stroke="#c0c0c0" stroke-width="2" points="1443.8866,-831.1655 1433.7261,-828.1628 1439.7964,-836.8463 1443.8866,-831.1655"/>
</g>
<!-- 46&#45;&gt;55 -->
<g id="edge91" class="edge">
<title>46&#45;&gt;55</title>
<path fill="none" stroke="#c0c0c0" stroke-width="2" d="M1569.2545,-863.9243C1602.9126,-853.9103 1644.9207,-841.412 1680.0174,-830.97"/>
<polygon fill="#c0c0c0" stroke="#c0c0c0" stroke-width="2" points="1681.1339,-834.2896 1689.7206,-828.0831 1679.1377,-827.5802 1681.1339,-834.2896"/>
</g>
<!-- 47&#45;&gt;46 -->
<g id="edge78" class="edge">
<title>47&#45;&gt;46</title>
<path fill="none" stroke="#c0c0c0" stroke-width="2" d="M1411.3045,-935.8314C1428.0862,-926.5368 1448.6985,-915.1208 1466.6163,-905.1971"/>
<polygon fill="#c0c0c0" stroke="#c0c0c0" stroke-width="2" points="1468.6538,-908.0696 1475.706,-900.1628 1465.2623,-901.9461 1468.6538,-908.0696"/>
</g>
<!-- 48&#45;&gt;46 -->
<g id="edge79" class="edge">
<title>48&#45;&gt;46</title>
<path fill="none" stroke="#c0c0c0" stroke-width="2" d="M1523.4532,-935.8314C1521.2906,-928.0463 1518.7147,-918.7729 1516.3152,-910.1347"/>
<polygon fill="#c0c0c0" stroke="#c0c0c0" stroke-width="2" points="1519.6636,-909.1117 1513.6148,-900.4133 1512.919,-910.9852 1519.6636,-909.1117"/>
</g>
<!-- 49&#45;&gt;46 -->
<g id="edge80" class="edge">
<title>49&#45;&gt;46</title>
<path fill="none" stroke="#c0c0c0" stroke-width="2" d="M1635.6018,-935.8314C1612.7643,-926.159 1584.502,-914.1891 1560.4313,-903.9944"/>
<polygon fill="#c0c0c0" stroke="#c0c0c0" stroke-width="2" points="1561.6629,-900.7151 1551.0897,-900.038 1558.9329,-907.1608 1561.6629,-900.7151"/>
</g>
<!-- 50 -->
<g id="node51" class="node">
<title>50</title>
<path fill="none" stroke="#5673d8" stroke-width="2" d="M1466.5,-684C1466.5,-684 1398.5,-684 1398.5,-684 1392.5,-684 1386.5,-678 1386.5,-672 1386.5,-672 1386.5,-660 1386.5,-660 1386.5,-654 1392.5,-648 1398.5,-648 1398.5,-648 1466.5,-648 1466.5,-648 1472.5,-648 1478.5,-654 1478.5,-660 1478.5,-660 1478.5,-672 1478.5,-672 1478.5,-678 1472.5,-684 1466.5,-684"/>
<text text-anchor="middle" x="1432.5" y="-663.5" font-family="sans" font-size="10.00" fill="#000000">shard_sort_query</text>
</g>
<!-- 50&#45;&gt;42 -->
<g id="edge72" class="edge">
<title>50&#45;&gt;42</title>
<path fill="none" stroke="#c0c0c0" stroke-width="2" d="M1459.2483,-647.8314C1472.5553,-638.7927 1488.816,-627.7476 1503.1375,-618.0198"/>
<polygon fill="#c0c0c0" stroke="#c0c0c0" stroke-width="2" points="1505.4547,-620.677 1511.7603,-612.1628 1501.5215,-614.8864 1505.4547,-620.677"/>
</g>
<!-- 51 -->
<g id="node52" class="node">
<title>51</title>
<path fill="none" stroke="#56d0d8" stroke-width="2" d="M1460.5,-756C1460.5,-756 1380.5,-756 1380.5,-756 1374.5,-756 1368.5,-750 1368.5,-744 1368.5,-744 1368.5,-732 1368.5,-732 1368.5,-726 1374.5,-720 1380.5,-720 1380.5,-720 1460.5,-720 1460.5,-720 1466.5,-720 1472.5,-726 1472.5,-732 1472.5,-732 1472.5,-744 1472.5,-744 1472.5,-750 1466.5,-756 1460.5,-756"/>
<text text-anchor="middle" x="1420.5" y="-735.5" font-family="sans" font-size="10.00" fill="#000000">shard_clean_header</text>
</g>
<!-- 51&#45;&gt;50 -->
<g id="edge84" class="edge">
<title>51&#45;&gt;50</title>
<path fill="none" stroke="#c0c0c0" stroke-width="2" d="M1423.5281,-719.8314C1424.8115,-712.131 1426.3376,-702.9743 1427.7639,-694.4166"/>
<polygon fill="#c0c0c0" stroke="#c0c0c0" stroke-width="2" points="1431.2394,-694.8526 1429.4311,-684.4133 1424.3347,-693.7018 1431.2394,-694.8526"/>
</g>
<!-- 52&#45;&gt;51 -->
<g id="edge85" class="edge">
<title>52&#45;&gt;51</title>
<path fill="none" stroke="#c0c0c0" stroke-width="2" d="M1411.5281,-791.8314C1412.8115,-784.131 1414.3376,-774.9743 1415.7639,-766.4166"/>
<polygon fill="#c0c0c0" stroke="#c0c0c0" stroke-width="2" points="1419.2394,-766.8526 1417.4311,-756.4133 1412.3347,-765.7018 1419.2394,-766.8526"/>
</g>
<!-- 53 -->
<g id="node54" class="node">
<title>53</title>
<path fill="none" stroke="#5673d8" stroke-width="2" d="M1706.5,-684C1706.5,-684 1638.5,-684 1638.5,-684 1632.5,-684 1626.5,-678 1626.5,-672 1626.5,-672 1626.5,-660 1626.5,-660 1626.5,-654 1632.5,-648 1638.5,-648 1638.5,-648 1706.5,-648 1706.5,-648 1712.5,-648 1718.5,-654 1718.5,-660 1718.5,-660 1718.5,-672 1718.5,-672 1718.5,-678 1712.5,-684 1706.5,-684"/>
<text text-anchor="middle" x="1672.5" y="-663.5" font-family="sans" font-size="10.00" fill="#000000">shard_sort_query</text>
</g>
<!-- 53&#45;&gt;42 -->
<g id="edge73" class="edge">
<title>53&#45;&gt;42</title>
<path fill="none" stroke="#c0c0c0" stroke-width="2" d="M1638.6861,-647.8314C1621.2293,-638.4516 1599.7513,-626.9112 1581.1648,-616.9244"/>
<polygon fill="#c0c0c0" stroke="#c0c0c0" stroke-width="2" points="1582.7686,-613.8129 1572.303,-612.1628 1579.4554,-619.9792 1582.7686,-613.8129"/>
</g>
<!-- 54 -->
<g id="node55" class="node">
<title>54</title>
<path fill="none" stroke="#56d0d8" stroke-width="2" d="M1742.5,-756C1742.5,-756 1662.5,-756 1662.5,-756 1656.5,-756 1650.5,-750 1650.5,-744 1650.5,-744 1650.5,-732 1650.5,-732 1650.5,-726 1656.5,-720 1662.5,-720 1662.5,-720 1742.5,-720 1742.5,-720 1748.5,-720 1754.5,-726 1754.5,-732 1754.5,-732 1754.5,-744 1754.5,-744 1754.5,-750 1748.5,-756 1742.5,-756"/>
<text text-anchor="middle" x="1702.5" y="-735.5" font-family="sans" font-size="10.00" fill="#000000">shard_clean_header</text>
</g>
<!-- 54&#45;&gt;53 -->
<g id="edge88" class="edge">
<title>54&#45;&gt;53</title>
<path fill="none" stroke="#c0c0c0" stroke-width="2" d="M1694.9297,-719.8314C1691.6507,-711.9617 1687.738,-702.5712 1684.1055,-693.8533"/>
<polygon fill="#c0c0c0" stroke="#c0c0c0" stroke-width="2" points="1687.2492,-692.2979 1680.1722,-684.4133 1680.7876,-694.9902 1687.2492,-692.2979"/>
</g>
<!-- 55&#45;&gt;54 -->
<g id="edge89" class="edge">
<title>55&#45;&gt;54</title>
<path fill="none" stroke="#c0c0c0" stroke-width="2" d="M1738.3876,-791.8314C1732.9719,-783.7079 1726.4758,-773.9637 1720.5079,-765.0118"/>
<polygon fill="#c0c0c0" stroke="#c0c0c0" stroke-width="2" points="1723.2347,-762.7923 1714.7755,-756.4133 1717.4104,-766.6753 1723.2347,-762.7923"/>
</g>
<!-- 56 -->
<g id="node57" class="node">
<title>56</title>
<path fill="none" stroke="#56d892" stroke-width="2" d="M482.5,-252C482.5,-252 430.5,-252 430.5,-252 424.5,-252 418.5,-246 418.5,-240 418.5,-240 418.5,-228 418.5,-228 418.5,-222 424.5,-216 430.5,-216 430.5,-216 482.5,-216 482.5,-216 488.5,-216 494.5,-222 494.5,-228 494.5,-228 494.5,-240 494.5,-240 494.5,-246 488.5,-252 482.5,-252"/>
<text text-anchor="middle" x="456.5" y="-231.5" font-family="sans" font-size="10.00" fill="#000000">metadmg_dfit</text>
</g>
<!-- 56&#45;&gt;1 -->
<g id="edge20" class="edge">
<title>56&#45;&gt;1</title>
<path fill="none" stroke="#c0c0c0" stroke-width="2" d="M461.945,-215.8846C469.2218,-194.9985 484.223,-161.3256 509.5,-144 556.3278,-111.9029 724.9117,-97.2463 800.444,-92.1811"/>
<polygon fill="#c0c0c0" stroke="#c0c0c0" stroke-width="2" points="800.7104,-95.6712 810.462,-91.5292 800.2558,-88.686 800.7104,-95.6712"/>
</g>
<!-- 71 -->
<g id="node72" class="node">
<title>71</title>
<path fill="none" stroke="#56d863" stroke-width="2" d="M445,-180C445,-180 364,-180 364,-180 358,-180 352,-174 352,-168 352,-168 352,-156 352,-156 352,-150 358,-144 364,-144 364,-144 445,-144 445,-144 451,-144 457,-150 457,-156 457,-156 457,-168 457,-168 457,-174 451,-180 445,-180"/>
<text text-anchor="middle" x="404.5" y="-159.5" font-family="sans" font-size="10.00" fill="#000000">metadmg_aggregate</text>
</g>
<!-- 56&#45;&gt;71 -->
<g id="edge108" class="edge">
<title>56&#45;&gt;71</title>
<path fill="none" stroke="#c0c0c0" stroke-width="2" d="M443.3782,-215.8314C437.4501,-207.6232 430.3271,-197.7606 423.8067,-188.7323"/>
<polygon fill="#c0c0c0" stroke="#c0c0c0" stroke-width="2" points="426.4908,-186.4708 417.7985,-180.4133 420.816,-190.5693 426.4908,-186.4708"/>
</g>
<!-- 57 -->
<g id="node58" class="node">
<title>57</title>
<path fill="none" stroke="#56d8a9" stroke-width="2" d="M416,-324C416,-324 365,-324 365,-324 359,-324 353,-318 353,-312 353,-312 353,-300 353,-300 353,-294 359,-288 365,-288 365,-288 416,-288 416,-288 422,-288 428,-294 428,-300 428,-300 428,-312 428,-312 428,-318 422,-324 416,-324"/>
<text text-anchor="middle" x="390.5" y="-303.5" font-family="sans" font-size="10.00" fill="#000000">metadmg_lca</text>
</g>
<!-- 57&#45;&gt;56 -->
<g id="edge92" class="edge">
<title>57&#45;&gt;56</title>
<path fill="none" stroke="#c0c0c0" stroke-width="2" d="M407.1546,-287.8314C414.9114,-279.3694 424.2802,-269.1489 432.761,-259.8971"/>
<polygon fill="#c0c0c0" stroke="#c0c0c0" stroke-width="2" points="435.4439,-262.1499 439.6212,-252.4133 430.2838,-257.4198 435.4439,-262.1499"/>
</g>
<!-- 57&#45;&gt;71 -->
<g id="edge107" class="edge">
<title>57&#45;&gt;71</title>
<path fill="none" stroke="#c0c0c0" stroke-width="2" d="M392.2731,-287.7623C394.661,-263.201 398.9343,-219.2474 401.7434,-190.3541"/>
<polygon fill="#c0c0c0" stroke="#c0c0c0" stroke-width="2" points="405.2571,-190.3814 402.7413,-180.0896 398.29,-189.704 405.2571,-190.3814"/>
</g>
<!-- 58 -->
<g id="node59" class="node">
<title>58</title>
<path fill="none" stroke="#d8d356" stroke-width="2" d="M370.5,-396C370.5,-396 306.5,-396 306.5,-396 300.5,-396 294.5,-390 294.5,-384 294.5,-384 294.5,-372 294.5,-372 294.5,-366 300.5,-360 306.5,-360 306.5,-360 370.5,-360 370.5,-360 376.5,-360 382.5,-366 382.5,-372 382.5,-372 382.5,-384 382.5,-384 382.5,-390 376.5,-396 370.5,-396"/>
<text text-anchor="middle" x="338.5" y="-375.5" font-family="sans" font-size="10.00" fill="#000000">align_sort_query</text>
</g>
<!-- 58&#45;&gt;57 -->
<g id="edge93" class="edge">
<title>58&#45;&gt;57</title>
<path fill="none" stroke="#c0c0c0" stroke-width="2" d="M351.6218,-359.8314C357.5499,-351.6232 364.6729,-341.7606 371.1933,-332.7323"/>
<polygon fill="#c0c0c0" stroke="#c0c0c0" stroke-width="2" points="374.184,-334.5693 377.2015,-324.4133 368.5092,-330.4708 374.184,-334.5693"/>
</g>
<!-- 74 -->
<g id="node75" class="node">
<title>74</title>
<path fill="none" stroke="#56d87b" stroke-width="2" d="M366,-108C366,-108 293,-108 293,-108 287,-108 281,-102 281,-96 281,-96 281,-84 281,-84 281,-78 287,-72 293,-72 293,-72 366,-72 366,-72 372,-72 378,-78 378,-84 378,-84 378,-96 378,-96 378,-102 372,-108 366,-108"/>
<text text-anchor="middle" x="329.5" y="-87.5" font-family="sans" font-size="10.00" fill="#000000">metadmg_damage</text>
</g>
<!-- 58&#45;&gt;74 -->
<g id="edge113" class="edge">
<title>58&#45;&gt;74</title>
<path fill="none" stroke="#c0c0c0" stroke-width="2" d="M325.8878,-359.9415C319.6233,-349.866 312.7188,-336.7967 309.5,-324 289.9854,-246.4166 295.386,-222.7451 309.5,-144 311.0973,-135.0882 314.0674,-125.7238 317.2391,-117.3422"/>
<polygon fill="#c0c0c0" stroke="#c0c0c0" stroke-width="2" points="320.496,-118.6241 320.9849,-108.0406 314.0027,-116.0093 320.496,-118.6241"/>
</g>
<!-- 59 -->
<g id="node60" class="node">
<title>59</title>
<path fill="none" stroke="#d85656" stroke-width="2" d="M357,-468C357,-468 320,-468 320,-468 314,-468 308,-462 308,-456 308,-456 308,-444 308,-444 308,-438 314,-432 320,-432 320,-432 357,-432 357,-432 363,-432 369,-438 369,-444 369,-444 369,-456 369,-456 369,-462 363,-468 357,-468"/>
<text text-anchor="middle" x="338.5" y="-447.5" font-family="sans" font-size="10.00" fill="#000000">align_filter</text>
</g>
<!-- 59&#45;&gt;58 -->
<g id="edge94" class="edge">
<title>59&#45;&gt;58</title>
<path fill="none" stroke="#c0c0c0" stroke-width="2" d="M338.5,-431.8314C338.5,-424.131 338.5,-414.9743 338.5,-406.4166"/>
<polygon fill="#c0c0c0" stroke="#c0c0c0" stroke-width="2" points="342.0001,-406.4132 338.5,-396.4133 335.0001,-406.4133 342.0001,-406.4132"/>
</g>
<!-- 60&#45;&gt;59 -->
<g id="edge95" class="edge">
<title>60&#45;&gt;59</title>
<path fill="none" stroke="#c0c0c0" stroke-width="2" d="M338.5,-503.8314C338.5,-496.131 338.5,-486.9743 338.5,-478.4166"/>
<polygon fill="#c0c0c0" stroke="#c0c0c0" stroke-width="2" points="342.0001,-478.4132 338.5,-468.4133 335.0001,-478.4133 342.0001,-478.4132"/>
</g>
<!-- 61 -->
<g id="node62" class="node">
<title>61</title>
<path fill="none" stroke="#56d892" stroke-width="2" d="M683.5,-252C683.5,-252 631.5,-252 631.5,-252 625.5,-252 619.5,-246 619.5,-240 619.5,-240 619.5,-228 619.5,-228 619.5,-222 625.5,-216 631.5,-216 631.5,-216 683.5,-216 683.5,-216 689.5,-216 695.5,-222 695.5,-228 695.5,-228 695.5,-240 695.5,-240 695.5,-246 689.5,-252 683.5,-252"/>
<text text-anchor="middle" x="657.5" y="-231.5" font-family="sans" font-size="10.00" fill="#000000">metadmg_dfit</text>
</g>
<!-- 61&#45;&gt;1 -->
<g id="edge21" class="edge">
<title>61&#45;&gt;1</title>
<path fill="none" stroke="#c0c0c0" stroke-width="2" d="M663.9339,-215.7997C671.843,-195.7789 687.0395,-163.8208 709.5,-144 735.592,-120.9745 772.9315,-106.7505 800.5524,-98.7209"/>
<polygon fill="#c0c0c0" stroke="#c0c0c0" stroke-width="2" points="801.5453,-102.0778 810.25,-96.0381 799.6788,-95.3312 801.5453,-102.0778"/>
</g>
<!-- 72 -->
<g id="node73" class="node">
<title>72</title>
<path fill="none" stroke="#56d863" stroke-width="2" d="M645,-180C645,-180 564,-180 564,-180 558,-180 552,-174 552,-168 552,-168 552,-156 552,-156 552,-150 558,-144 564,-144 564,-144 645,-144 645,-144 651,-144 657,-150 657,-156 657,-156 657,-168 657,-168 657,-174 651,-180 645,-180"/>
<text text-anchor="middle" x="604.5" y="-159.5" font-family="sans" font-size="10.00" fill="#000000">metadmg_aggregate</text>
</g>
<!-- 61&#45;&gt;72 -->
<g id="edge110" class="edge">
<title>61&#45;&gt;72</title>
<path fill="none" stroke="#c0c0c0" stroke-width="2" d="M644.1259,-215.8314C638.0838,-207.6232 630.8237,-197.7606 624.1779,-188.7323"/>
<polygon fill="#c0c0c0" stroke="#c0c0c0" stroke-width="2" points="626.8011,-186.3918 618.0542,-180.4133 621.1637,-190.5415 626.8011,-186.3918"/>
</g>
<!-- 62 -->
<g id="node63" class="node">
<title>62</title>
<path fill="none" stroke="#56d8a9" stroke-width="2" d="M621,-324C621,-324 570,-324 570,-324 564,-324 558,-318 558,-312 558,-312 558,-300 558,-300 558,-294 564,-288 570,-288 570,-288 621,-288 621,-288 627,-288 633,-294 633,-300 633,-300 633,-312 633,-312 633,-318 627,-324 621,-324"/>
<text text-anchor="middle" x="595.5" y="-303.5" font-family="sans" font-size="10.00" fill="#000000">metadmg_lca</text>
</g>
<!-- 62&#45;&gt;61 -->
<g id="edge97" class="edge">
<title>62&#45;&gt;61</title>
<path fill="none" stroke="#c0c0c0" stroke-width="2" d="M611.1452,-287.8314C618.3591,-279.454 627.057,-269.3531 634.9605,-260.1749"/>
<polygon fill="#c0c0c0" stroke="#c0c0c0" stroke-width="2" points="637.7711,-262.2748 641.6441,-252.4133 632.4667,-257.7071 637.7711,-262.2748"/>
</g>
<!-- 62&#45;&gt;72 -->
<g id="edge109" class="edge">
<title>62&#45;&gt;72</title>
<path fill="none" stroke="#c0c0c0" stroke-width="2" d="M596.6399,-287.7623C598.1749,-263.201 600.922,-219.2474 602.7279,-190.3541"/>
<polygon fill="#c0c0c0" stroke="#c0c0c0" stroke-width="2" points="606.2387,-190.2885 603.3694,-180.0896 599.2523,-189.8518 606.2387,-190.2885"/>
</g>
<!-- 63 -->
<g id="node64" class="node">
<title>63</title>
<path fill="none" stroke="#d8d356" stroke-width="2" d="M627.5,-396C627.5,-396 563.5,-396 563.5,-396 557.5,-396 551.5,-390 551.5,-384 551.5,-384 551.5,-372 551.5,-372 551.5,-366 557.5,-360 563.5,-360 563.5,-360 627.5,-360 627.5,-360 633.5,-360 639.5,-366 639.5,-372 639.5,-372 639.5,-384 639.5,-384 639.5,-390 633.5,-396 627.5,-396"/>
<text text-anchor="middle" x="595.5" y="-375.5" font-family="sans" font-size="10.00" fill="#000000">align_sort_query</text>
</g>
<!-- 63&#45;&gt;62 -->
<g id="edge98" class="edge">
<title>63&#45;&gt;62</title>
<path fill="none" stroke="#c0c0c0" stroke-width="2" d="M595.5,-359.8314C595.5,-352.131 595.5,-342.9743 595.5,-334.4166"/>
<polygon fill="#c0c0c0" stroke="#c0c0c0" stroke-width="2" points="599.0001,-334.4132 595.5,-324.4133 592.0001,-334.4133 599.0001,-334.4132"/>
</g>
<!-- 75 -->
<g id="node76" class="node">
<title>75</title>
<path fill="none" stroke="#56d87b" stroke-width="2" d="M503,-108C503,-108 430,-108 430,-108 424,-108 418,-102 418,-96 418,-96 418,-84 418,-84 418,-78 424,-72 430,-72 430,-72 503,-72 503,-72 509,-72 515,-78 515,-84 515,-84 515,-96 515,-96 515,-102 509,-108 503,-108"/>
<text text-anchor="middle" x="466.5" y="-87.5" font-family="sans" font-size="10.00" fill="#000000">metadmg_damage</text>
</g>
<!-- 63&#45;&gt;75 -->
<g id="edge114" class="edge">
<title>63&#45;&gt;75</title>
<path fill="none" stroke="#c0c0c0" stroke-width="2" d="M551.4844,-375.0318C486.3718,-369.6241 369.2778,-355.6614 343.5,-324 318.2447,-292.9804 320.5774,-177.4582 342.5,-144 357.212,-121.5466 383.5135,-108.3783 408.1193,-100.6799"/>
<polygon fill="#c0c0c0" stroke="#c0c0c0" stroke-width="2" points="409.1555,-104.0239 417.7973,-97.8944 407.2193,-97.2969 409.1555,-104.0239"/>
</g>
<!-- 64 -->
<g id="node65" class="node">
<title>64</title>
<path fill="none" stroke="#d85656" stroke-width="2" d="M601,-468C601,-468 564,-468 564,-468 558,-468 552,-462 552,-456 552,-456 552,-444 552,-444 552,-438 558,-432 564,-432 564,-432 601,-432 601,-432 607,-432 613,-438 613,-444 613,-444 613,-456 613,-456 613,-462 607,-468 601,-468"/>
<text text-anchor="middle" x="582.5" y="-447.5" font-family="sans" font-size="10.00" fill="#000000">align_filter</text>
</g>
<!-- 64&#45;&gt;63 -->
<g id="edge99" class="edge">
<title>64&#45;&gt;63</title>
<path fill="none" stroke="#c0c0c0" stroke-width="2" d="M585.7804,-431.8314C587.1708,-424.131 588.8241,-414.9743 590.3692,-406.4166"/>
<polygon fill="#c0c0c0" stroke="#c0c0c0" stroke-width="2" points="593.8428,-406.8761 592.1754,-396.4133 586.9542,-405.6322 593.8428,-406.8761"/>
</g>
<!-- 65&#45;&gt;64 -->
<g id="edge100" class="edge">
<title>65&#45;&gt;64</title>
<path fill="none" stroke="#c0c0c0" stroke-width="2" d="M619.1352,-503.8314C613.5491,-495.6232 606.837,-485.7606 600.6928,-476.7323"/>
<polygon fill="#c0c0c0" stroke="#c0c0c0" stroke-width="2" points="603.551,-474.7112 595.0313,-468.4133 597.764,-478.6496 603.551,-474.7112"/>
</g>
<!-- 66 -->
<g id="node67" class="node">
<title>66</title>
<path fill="none" stroke="#56d892" stroke-width="2" d="M1485.5,-252C1485.5,-252 1433.5,-252 1433.5,-252 1427.5,-252 1421.5,-246 1421.5,-240 1421.5,-240 1421.5,-228 1421.5,-228 1421.5,-222 1427.5,-216 1433.5,-216 1433.5,-216 1485.5,-216 1485.5,-216 1491.5,-216 1497.5,-222 1497.5,-228 1497.5,-228 1497.5,-240 1497.5,-240 1497.5,-246 1491.5,-252 1485.5,-252"/>
<text text-anchor="middle" x="1459.5" y="-231.5" font-family="sans" font-size="10.00" fill="#000000">metadmg_dfit</text>
</g>
<!-- 66&#45;&gt;1 -->
<g id="edge22" class="edge">
<title>66&#45;&gt;1</title>
<path fill="none" stroke="#c0c0c0" stroke-width="2" d="M1437.9984,-215.6265C1408.4653,-190.5621 1357.8193,-148.2563 1347.5,-144 1261.743,-108.6286 977.6957,-95.0622 874.9796,-91.2388"/>
<polygon fill="#c0c0c0" stroke="#c0c0c0" stroke-width="2" points="874.8928,-87.7334 864.7726,-90.8689 874.6393,-94.7288 874.8928,-87.7334"/>
</g>
<!-- 73 -->
<g id="node74" class="node">
<title>73</title>
<path fill="none" stroke="#56d863" stroke-width="2" d="M1501,-180C1501,-180 1420,-180 1420,-180 1414,-180 1408,-174 1408,-168 1408,-168 1408,-156 1408,-156 1408,-150 1414,-144 1420,-144 1420,-144 1501,-144 1501,-144 1507,-144 1513,-150 1513,-156 1513,-156 1513,-168 1513,-168 1513,-174 1507,-180 1501,-180"/>
<text text-anchor="middle" x="1460.5" y="-159.5" font-family="sans" font-size="10.00" fill="#000000">metadmg_aggregate</text>
</g>
<!-- 66&#45;&gt;73 -->
<g id="edge112" class="edge">
<title>66&#45;&gt;73</title>
<path fill="none" stroke="#c0c0c0" stroke-width="2" d="M1459.7523,-215.8314C1459.8593,-208.131 1459.9865,-198.9743 1460.1053,-190.4166"/>
<polygon fill="#c0c0c0" stroke="#c0c0c0" stroke-width="2" points="1463.6049,-190.4609 1460.2443,-180.4133 1456.6056,-190.3637 1463.6049,-190.4609"/>
</g>
<!-- 67 -->
<g id="node68" class="node">
<title>67</title>
<path fill="none" stroke="#56d8a9" stroke-width="2" d="M1551,-324C1551,-324 1500,-324 1500,-324 1494,-324 1488,-318 1488,-312 1488,-312 1488,-300 1488,-300 1488,-294 1494,-288 1500,-288 1500,-288 1551,-288 1551,-288 1557,-288 1563,-294 1563,-300 1563,-300 1563,-312 1563,-312 1563,-318 1557,-324 1551,-324"/>
<text text-anchor="middle" x="1525.5" y="-303.5" font-family="sans" font-size="10.00" fill="#000000">metadmg_lca</text>
</g>
<!-- 67&#45;&gt;66 -->
<g id="edge102" class="edge">
<title>67&#45;&gt;66</title>
<path fill="none" stroke="#c0c0c0" stroke-width="2" d="M1508.8454,-287.8314C1501.0886,-279.3694 1491.7198,-269.1489 1483.239,-259.8971"/>
<polygon fill="#c0c0c0" stroke="#c0c0c0" stroke-width="2" points="1485.7162,-257.4198 1476.3788,-252.4133 1480.5561,-262.1499 1485.7162,-257.4198"/>
</g>
<!-- 67&#45;&gt;73 -->
<g id="edge111" class="edge">
<title>67&#45;&gt;73</title>
<path fill="none" stroke="#c0c0c0" stroke-width="2" d="M1524.3117,-287.8991C1522.4887,-269.0912 1517.9112,-239.2177 1506.5,-216 1501.5601,-205.949 1494.3253,-196.2248 1487.0493,-187.8635"/>
<polygon fill="#c0c0c0" stroke="#c0c0c0" stroke-width="2" points="1489.4645,-185.3181 1480.1343,-180.2983 1484.2977,-190.0409 1489.4645,-185.3181"/>
</g>
<!-- 68 -->
<g id="node69" class="node">
<title>68</title>
<path fill="none" stroke="#d8d356" stroke-width="2" d="M1570.5,-396C1570.5,-396 1506.5,-396 1506.5,-396 1500.5,-396 1494.5,-390 1494.5,-384 1494.5,-384 1494.5,-372 1494.5,-372 1494.5,-366 1500.5,-360 1506.5,-360 1506.5,-360 1570.5,-360 1570.5,-360 1576.5,-360 1582.5,-366 1582.5,-372 1582.5,-372 1582.5,-384 1582.5,-384 1582.5,-390 1576.5,-396 1570.5,-396"/>
<text text-anchor="middle" x="1538.5" y="-375.5" font-family="sans" font-size="10.00" fill="#000000">align_sort_query</text>
</g>
<!-- 68&#45;&gt;67 -->
<g id="edge103" class="edge">
<title>68&#45;&gt;67</title>
<path fill="none" stroke="#c0c0c0" stroke-width="2" d="M1535.2196,-359.8314C1533.8292,-352.131 1532.1759,-342.9743 1530.6308,-334.4166"/>
<polygon fill="#c0c0c0" stroke="#c0c0c0" stroke-width="2" points="1534.0458,-333.6322 1528.8246,-324.4133 1527.1572,-334.8761 1534.0458,-333.6322"/>
</g>
<!-- 76 -->
<g id="node77" class="node">
<title>76</title>
<path fill="none" stroke="#56d87b" stroke-width="2" d="M1893,-180C1893,-180 1820,-180 1820,-180 1814,-180 1808,-174 1808,-168 1808,-168 1808,-156 1808,-156 1808,-150 1814,-144 1820,-144 1820,-144 1893,-144 1893,-144 1899,-144 1905,-150 1905,-156 1905,-156 1905,-168 1905,-168 1905,-174 1899,-180 1893,-180"/>
<text text-anchor="middle" x="1856.5" y="-159.5" font-family="sans" font-size="10.00" fill="#000000">metadmg_damage</text>
</g>
<!-- 68&#45;&gt;76 -->
<g id="edge115" class="edge">
<title>68&#45;&gt;76</title>
<path fill="none" stroke="#c0c0c0" stroke-width="2" d="M1565.0655,-359.9555C1622.2353,-321.1232 1756.9443,-229.6227 1821.2023,-185.9758"/>
<polygon fill="#c0c0c0" stroke="#c0c0c0" stroke-width="2" points="1823.4809,-188.6592 1829.7864,-180.1451 1819.5476,-182.8687 1823.4809,-188.6592"/>
</g>
<!-- 69 -->
<g id="node70" class="node">
<title>69</title>
<path fill="none" stroke="#d85656" stroke-width="2" d="M1557,-468C1557,-468 1520,-468 1520,-468 1514,-468 1508,-462 1508,-456 1508,-456 1508,-444 1508,-444 1508,-438 1514,-432 1520,-432 1520,-432 1557,-432 1557,-432 1563,-432 1569,-438 1569,-444 1569,-444 1569,-456 1569,-456 1569,-462 1563,-468 1557,-468"/>
<text text-anchor="middle" x="1538.5" y="-447.5" font-family="sans" font-size="10.00" fill="#000000">align_filter</text>
</g>
<!-- 69&#45;&gt;68 -->
<g id="edge104" class="edge">
<title>69&#45;&gt;68</title>
<path fill="none" stroke="#c0c0c0" stroke-width="2" d="M1538.5,-431.8314C1538.5,-424.131 1538.5,-414.9743 1538.5,-406.4166"/>
<polygon fill="#c0c0c0" stroke="#c0c0c0" stroke-width="2" points="1542.0001,-406.4132 1538.5,-396.4133 1535.0001,-406.4133 1542.0001,-406.4132"/>
</g>
<!-- 70&#45;&gt;69 -->
<g id="edge105" class="edge">
<title>70&#45;&gt;69</title>
<path fill="none" stroke="#c0c0c0" stroke-width="2" d="M1538.5,-503.8314C1538.5,-496.131 1538.5,-486.9743 1538.5,-478.4166"/>
<polygon fill="#c0c0c0" stroke="#c0c0c0" stroke-width="2" points="1542.0001,-478.4132 1538.5,-468.4133 1535.0001,-478.4133 1542.0001,-478.4132"/>
</g>
<!-- 71&#45;&gt;0 -->
<g id="edge2" class="edge">
<title>71&#45;&gt;0</title>
<path fill="none" stroke="#c0c0c0" stroke-width="2" d="M456.2279,-143.9709C478.11,-135.0048 503.181,-122.8768 523.5,-108 547.8783,-90.1511 570.4154,-63.9746 585.4942,-44.4478"/>
<polygon fill="#c0c0c0" stroke="#c0c0c0" stroke-width="2" points="588.442,-46.3523 591.6802,-36.2644 582.8579,-42.1312 588.442,-46.3523"/>
</g>
<!-- 71&#45;&gt;1 -->
<g id="edge23" class="edge">
<title>71&#45;&gt;1</title>
<path fill="none" stroke="#c0c0c0" stroke-width="2" d="M457.0288,-147.2703C461.9036,-146.0902 466.7826,-144.9782 471.5,-144 590.5972,-119.3028 733.7681,-101.5955 800.2282,-94.051"/>
<polygon fill="#c0c0c0" stroke="#c0c0c0" stroke-width="2" points="800.6741,-97.523 810.2206,-92.9279 799.8922,-90.5668 800.6741,-97.523"/>
</g>
<!-- 72&#45;&gt;0 -->
<g id="edge3" class="edge">
<title>72&#45;&gt;0</title>
<path fill="none" stroke="#c0c0c0" stroke-width="2" d="M604.5,-143.7623C604.5,-119.201 604.5,-75.2474 604.5,-46.3541"/>
<polygon fill="#c0c0c0" stroke="#c0c0c0" stroke-width="2" points="608.0001,-46.0896 604.5,-36.0896 601.0001,-46.0897 608.0001,-46.0896"/>
</g>
<!-- 72&#45;&gt;1 -->
<g id="edge24" class="edge">
<title>72&#45;&gt;1</title>
<path fill="none" stroke="#c0c0c0" stroke-width="2" d="M657.0803,-145.752C700.8199,-132.2359 761.9703,-113.3396 800.6489,-101.3875"/>
<polygon fill="#c0c0c0" stroke="#c0c0c0" stroke-width="2" points="801.9303,-104.6549 810.4512,-98.3584 799.8636,-97.9669 801.9303,-104.6549"/>
</g>
<!-- 73&#45;&gt;0 -->
<g id="edge4" class="edge">
<title>73&#45;&gt;0</title>
<path fill="none" stroke="#c0c0c0" stroke-width="2" d="M1407.8671,-149.0132C1400.0529,-147.2366 1392.0804,-145.5079 1384.5,-144 1100.3763,-87.4824 754.2043,-38.4647 641.7164,-23.0356"/>
<polygon fill="#c0c0c0" stroke="#c0c0c0" stroke-width="2" points="641.952,-19.5353 631.5699,-21.6482 641.0035,-26.4707 641.952,-19.5353"/>
</g>
<!-- 73&#45;&gt;1 -->
<g id="edge25" class="edge">
<title>73&#45;&gt;1</title>
<path fill="none" stroke="#c0c0c0" stroke-width="2" d="M1407.6536,-146.9351C1402.8903,-145.8406 1398.1217,-144.8393 1393.5,-144 1200.255,-108.9074 964.8034,-95.5432 874.8586,-91.4909"/>
<polygon fill="#c0c0c0" stroke="#c0c0c0" stroke-width="2" points="874.7675,-87.9836 864.6237,-91.042 874.4607,-94.9769 874.7675,-87.9836"/>
</g>
<!-- 74&#45;&gt;0 -->
<g id="edge5" class="edge">
<title>74&#45;&gt;0</title>
<path fill="none" stroke="#c0c0c0" stroke-width="2" d="M378.0315,-77.2936C432.1582,-63.1222 518.5189,-40.5114 567.4711,-27.6948"/>
<polygon fill="#c0c0c0" stroke="#c0c0c0" stroke-width="2" points="568.5367,-31.0339 577.3241,-25.1151 566.7637,-24.2621 568.5367,-31.0339"/>
</g>
<!-- 75&#45;&gt;0 -->
<g id="edge6" class="edge">
<title>75&#45;&gt;0</title>
<path fill="none" stroke="#c0c0c0" stroke-width="2" d="M501.3232,-71.8314C521.6803,-61.2103 547.3472,-47.8188 567.9881,-37.0497"/>
<polygon fill="#c0c0c0" stroke="#c0c0c0" stroke-width="2" points="569.8341,-40.0343 577.081,-32.3056 566.5961,-33.8282 569.8341,-40.0343"/>
</g>
<!-- 76&#45;&gt;0 -->
<g id="edge7" class="edge">
<title>76&#45;&gt;0</title>
<path fill="none" stroke="#c0c0c0" stroke-width="2" d="M1807.8625,-147.2051C1803.0366,-146.0082 1798.1898,-144.9114 1793.5,-144 1345.2224,-56.8859 789.3393,-26.4458 641.8414,-19.6065"/>
<polygon fill="#c0c0c0" stroke="#c0c0c0" stroke-width="2" points="641.6924,-16.0962 631.5433,-19.1369 641.3734,-23.0889 641.6924,-16.0962"/>
</g>
</g>
</svg>
