<?xml version="1.0" encoding="UTF-8" standalone="no"?>
<!DOCTYPE svg PUBLIC "-//W3C//DTD SVG 1.1//EN"
 "http://www.w3.org/Graphics/SVG/1.1/DTD/svg11.dtd">
<!-- Generated by graphviz version 2.40.1 (0)
 -->
<!-- Title: snakemake_dag Pages: 1 -->
<svg width="2329pt" height="3226pt"
 viewBox="0.00 0.00 2329.00 3226.00" xmlns="http://www.w3.org/2000/svg" xmlns:xlink="http://www.w3.org/1999/xlink">
<g id="graph0" class="graph" transform="scale(1 1) rotate(0) translate(4 3222)">
<title>snakemake_dag</title>
<polygon fill="#ffffff" stroke="transparent" points="-4,4 -4,-3222 2325,-3222 2325,4 -4,4"/>
<!-- 0 -->
<g id="node1" class="node">
<title>0</title>
<text text-anchor="start" x="1293.5" y="-215.6" font-family="sans" font-weight="bold" font-size="18.00" fill="#000000">all</text>
<text text-anchor="start" x="1120.5" y="-191.8" font-family="sans" font-size="10.00" fill="#000000"> </text>
<text text-anchor="start" x="1124.5" y="-191.8" font-family="sans" font-weight="bold" font-size="14.00" fill="#000000">↪ input</text>
<text text-anchor="start" x="1177.5" y="-191.8" font-family="sans" font-size="10.00" fill="#000000"> </text>
<text text-anchor="start" x="1120.5" y="-172" font-family="monospace" font-size="10.00" fill="#000000">reports/multiqc.html</text>
<text text-anchor="start" x="1120.5" y="-154" font-family="monospace" font-size="10.00" fill="#000000">results/metadmg/aggregate/HD827sonic_1_lib1_collapsed.stat.gz</text>
<text text-anchor="start" x="1120.5" y="-136" font-family="monospace" font-size="10.00" fill="#000000">results/metadmg/aggregate/HD827sonic_1_lib1_collapsed.stat.gz</text>
<text text-anchor="start" x="1120.5" y="-118" font-family="monospace" font-size="10.00" fill="#000000">results/metadmg/aggregate/HD827sonic_2_lib1_collapsed.stat.gz</text>
<text text-anchor="start" x="1120.5" y="-100" font-family="monospace" font-size="10.00" fill="#000000">results/metadmg/aggregate/HD827sonic_2_lib2_collapsed.stat.gz</text>
<text text-anchor="start" x="1120.5" y="-82" font-family="monospace" font-size="10.00" fill="#000000">stats/metadmg/damage/HD827sonic_1_lib1_collapsed.stat.gz</text>
<text text-anchor="start" x="1120.5" y="-64" font-family="monospace" font-size="10.00" fill="#000000">stats/metadmg/damage/HD827sonic_1_lib1_collapsed.stat.gz</text>
<text text-anchor="start" x="1120.5" y="-46" font-family="monospace" font-size="10.00" fill="#000000">stats/metadmg/damage/HD827sonic_2_lib1_collapsed.stat.gz</text>
<text text-anchor="start" x="1120.5" y="-28" font-family="monospace" font-size="10.00" fill="#000000">stats/metadmg/damage/HD827sonic_2_lib2_collapsed.stat.gz</text>
<text text-anchor="start" x="1480.5" y="-10" font-family="sans" font-size="10.00" fill="#000000"> &#160;</text>
<polygon fill="#add957" stroke="#add957" points="1114.5,-206 1114.5,-206 1494.5,-206 1494.5,-206 1114.5,-206"/>
<polygon fill="#add957" stroke="#add957" points="1114.5,-22 1114.5,-22 1494.5,-22 1494.5,-22 1114.5,-22"/>
<polygon fill="none" stroke="#add957" stroke-width="2" points="1114,-1 1114,-235 1493,-235 1493,-1 1114,-1"/>
</g>
<!-- 1 -->
<g id="node2" class="node">
<title>1</title>
<text text-anchor="start" x="845.5" y="-815.6" font-family="sans" font-weight="bold" font-size="18.00" fill="#000000">multiqc</text>
<text text-anchor="start" x="640.5" y="-791.8" font-family="sans" font-size="10.00" fill="#000000"> </text>
<text text-anchor="start" x="644.5" y="-791.8" font-family="sans" font-weight="bold" font-size="14.00" fill="#000000">↪ input</text>
<text text-anchor="start" x="697.5" y="-791.8" font-family="sans" font-size="10.00" fill="#000000"> </text>
<text text-anchor="start" x="640.5" y="-772" font-family="monospace" font-size="10.00" fill="#000000">logs/shards/bowtie2/HD827sonic_1_lib1_collapsed.refseq_mitochondrion.1&#45;of&#45;1.log</text>
<text text-anchor="start" x="640.5" y="-754" font-family="monospace" font-size="10.00" fill="#000000">logs/shards/bowtie2/HD827sonic_1_lib1_collapsed.wgs_eukaryota.1&#45;of&#45;2.log</text>
<text text-anchor="start" x="640.5" y="-736" font-family="monospace" font-size="10.00" fill="#000000">logs/shards/bowtie2/HD827sonic_1_lib1_collapsed.wgs_eukaryota.2&#45;of&#45;2.log</text>
<text text-anchor="start" x="640.5" y="-718" font-family="monospace" font-size="10.00" fill="#000000">logs/shards/bowtie2/HD827sonic_2_lib1_collapsed.refseq_mitochondrion.1&#45;of&#45;1.log</text>
<text text-anchor="start" x="640.5" y="-700" font-family="monospace" font-size="10.00" fill="#000000">logs/shards/bowtie2/HD827sonic_2_lib1_collapsed.wgs_eukaryota.1&#45;of&#45;2.log</text>
<text text-anchor="start" x="640.5" y="-682" font-family="monospace" font-size="10.00" fill="#000000">logs/shards/bowtie2/HD827sonic_2_lib1_collapsed.wgs_eukaryota.2&#45;of&#45;2.log</text>
<text text-anchor="start" x="640.5" y="-664" font-family="monospace" font-size="10.00" fill="#000000">logs/shards/bowtie2/HD827sonic_2_lib2_collapsed.refseq_mitochondrion.1&#45;of&#45;1.log</text>
<text text-anchor="start" x="640.5" y="-646" font-family="monospace" font-size="10.00" fill="#000000">logs/shards/bowtie2/HD827sonic_2_lib2_collapsed.wgs_eukaryota.1&#45;of&#45;2.log</text>
<text text-anchor="start" x="640.5" y="-628" font-family="monospace" font-size="10.00" fill="#000000">logs/shards/bowtie2/HD827sonic_2_lib2_collapsed.wgs_eukaryota.2&#45;of&#45;2.log</text>
<text text-anchor="start" x="640.5" y="-610" font-family="monospace" font-size="10.00" fill="#000000">results/metadmg/aggregate/HD827sonic_1_lib1_collapsed.stat.gz</text>
<text text-anchor="start" x="640.5" y="-592" font-family="monospace" font-size="10.00" fill="#000000">results/metadmg/aggregate/HD827sonic_1_lib1_collapsed.stat.gz</text>
<text text-anchor="start" x="640.5" y="-574" font-family="monospace" font-size="10.00" fill="#000000">results/metadmg/aggregate/HD827sonic_2_lib1_collapsed.stat.gz</text>
<text text-anchor="start" x="640.5" y="-556" font-family="monospace" font-size="10.00" fill="#000000">results/metadmg/aggregate/HD827sonic_2_lib2_collapsed.stat.gz</text>
<text text-anchor="start" x="640.5" y="-538" font-family="monospace" font-size="10.00" fill="#000000">results/metadmg/dfit/HD827sonic_1_lib1_collapsed.dfit.gz</text>
<text text-anchor="start" x="640.5" y="-520" font-family="monospace" font-size="10.00" fill="#000000">results/metadmg/dfit/HD827sonic_1_lib1_collapsed.dfit.gz</text>
<text text-anchor="start" x="640.5" y="-502" font-family="monospace" font-size="10.00" fill="#000000">results/metadmg/dfit/HD827sonic_2_lib1_collapsed.dfit.gz</text>
<text text-anchor="start" x="640.5" y="-484" font-family="monospace" font-size="10.00" fill="#000000">results/metadmg/dfit/HD827sonic_2_lib2_collapsed.dfit.gz</text>
<text text-anchor="start" x="640.5" y="-466" font-family="monospace" font-size="10.00" fill="#000000">stats/aligns/samtools_stats/HD827sonic_1_lib1_collapsed.txt</text>
<text text-anchor="start" x="640.5" y="-448" font-family="monospace" font-size="10.00" fill="#000000">stats/aligns/samtools_stats/HD827sonic_1_lib1_collapsed.txt</text>
<text text-anchor="start" x="640.5" y="-430" font-family="monospace" font-size="10.00" fill="#000000">stats/aligns/samtools_stats/HD827sonic_1_lib1_collapsed.txt</text>
<text text-anchor="start" x="640.5" y="-412" font-family="monospace" font-size="10.00" fill="#000000">stats/aligns/samtools_stats/HD827sonic_1_lib1_collapsed.txt</text>
<text text-anchor="start" x="640.5" y="-394" font-family="monospace" font-size="10.00" fill="#000000">stats/aligns/samtools_stats/HD827sonic_2_lib1_collapsed.txt</text>
<text text-anchor="start" x="640.5" y="-376" font-family="monospace" font-size="10.00" fill="#000000">stats/aligns/samtools_stats/HD827sonic_2_lib1_collapsed.txt</text>
<text text-anchor="start" x="640.5" y="-358" font-family="monospace" font-size="10.00" fill="#000000">stats/aligns/samtools_stats/HD827sonic_2_lib2_collapsed.txt</text>
<text text-anchor="start" x="640.5" y="-340" font-family="monospace" font-size="10.00" fill="#000000">stats/aligns/samtools_stats/HD827sonic_2_lib2_collapsed.txt</text>
<text text-anchor="start" x="1046.5" y="-319.8" font-family="sans" font-size="10.00" fill="#000000"> </text>
<text text-anchor="start" x="1050.5" y="-319.8" font-family="sans" font-weight="bold" font-size="14.00" fill="#000000">output →</text>
<text text-anchor="start" x="1111.5" y="-319.8" font-family="sans" font-size="10.00" fill="#000000"> </text>
<text text-anchor="start" x="640.5" y="-300" font-family="monospace" font-size="10.00" fill="#000000">reports/multiqc.html</text>
<text text-anchor="start" x="640.5" y="-282" font-family="monospace" font-size="10.00" fill="#000000">reports/multiqc_data.zip</text>
<polygon fill="#57d9c6" stroke="#57d9c6" points="634.5,-806 634.5,-806 1122.5,-806 1122.5,-806 634.5,-806"/>
<polygon fill="#57d9c6" stroke="#57d9c6" points="634.5,-334 634.5,-334 1122.5,-334 1122.5,-334 634.5,-334"/>
<polygon fill="none" stroke="#57d9c6" stroke-width="2" points="634,-273 634,-835 1121,-835 1121,-273 634,-273"/>
</g>
<!-- 1&#45;&gt;0 -->
<g id="edge3" class="edge">
<title>1&#45;&gt;0</title>
<path fill="none" stroke="#c0c0c0" stroke-width="2" d="M1122.2199,-303.5355C1142.4441,-282.8365 1162.278,-262.537 1180.9703,-243.406"/>
<polygon fill="#c0c0c0" stroke="#c0c0c0" stroke-width="2" points="1183.5916,-245.7314 1188.0768,-236.1327 1178.5847,-240.8393 1183.5916,-245.7314"/>
</g>
<!-- 2 -->
<g id="node3" class="node">
<title>2</title>
<text text-anchor="start" x="429.5" y="-3197.6" font-family="sans" font-weight="bold" font-size="18.00" fill="#000000">bowtie2</text>
<text text-anchor="start" x="7.5" y="-3173.8" font-family="sans" font-size="10.00" fill="#000000"> </text>
<text text-anchor="start" x="11.5" y="-3173.8" font-family="sans" font-weight="bold" font-size="14.00" fill="#000000">↪ input</text>
<text text-anchor="start" x="64.5" y="-3173.8" font-family="sans" font-size="10.00" fill="#000000"> </text>
<text text-anchor="start" x="7.5" y="-3154" font-family="monospace" font-size="10.00" fill="#000000">&lt;input function&gt;</text>
<text text-anchor="start" x="7.5" y="-3136" font-family="monospace" font-size="10.00" fill="#000000">&lt;input function&gt;</text>
<text text-anchor="start" x="851.5" y="-3115.8" font-family="sans" font-size="10.00" fill="#000000"> </text>
<text text-anchor="start" x="855.5" y="-3115.8" font-family="sans" font-weight="bold" font-size="14.00" fill="#000000">output →</text>
<text text-anchor="start" x="916.5" y="-3115.8" font-family="sans" font-size="10.00" fill="#000000"> </text>
<text text-anchor="start" x="7.5" y="-3096" font-family="monospace" font-size="10.00" fill="#000000">temp/shards/bowtie2/{sample,HD827sonic_1|HD827sonic_2}_{library,lib1|lib2}_{read_type_map,pe|se|singleton|collapsed}.{ref}.{n_shard}&#45;of&#45;{tot_shards}.bam</text>
<polygon fill="#95d957" stroke="#95d957" points="1.5,-3188 1.5,-3188 927.5,-3188 927.5,-3188 1.5,-3188"/>
<polygon fill="#95d957" stroke="#95d957" points="1.5,-3130 1.5,-3130 927.5,-3130 927.5,-3130 1.5,-3130"/>
<polygon fill="none" stroke="#95d957" stroke-width="2" points="1,-3087 1,-3217 926,-3217 926,-3087 1,-3087"/>
</g>
<!-- 2&#45;&gt;1 -->
<g id="edge6" class="edge">
<title>2&#45;&gt;1</title>
<path fill="none" stroke="#c0c0c0" stroke-width="2" d="M451.2674,-3085.8751C440.1588,-3020.0074 425.5,-2915.8731 425.5,-2825 425.5,-2825 425.5,-2825 425.5,-1178 425.5,-1019.7757 521.9934,-874.5512 625.8125,-764.0915"/>
<polygon fill="#c0c0c0" stroke="#c0c0c0" stroke-width="2" points="628.6388,-766.1976 632.9794,-756.5327 623.5591,-761.3813 628.6388,-766.1976"/>
</g>
<!-- 7 -->
<g id="node8" class="node">
<title>7</title>
<text text-anchor="start" x="830" y="-2693.6" font-family="sans" font-weight="bold" font-size="18.00" fill="#000000">shard_saturated_reads_remove</text>
<text text-anchor="start" x="462.5" y="-2669.8" font-family="sans" font-size="10.00" fill="#000000"> </text>
<text text-anchor="start" x="466.5" y="-2669.8" font-family="sans" font-weight="bold" font-size="14.00" fill="#000000">↪ input</text>
<text text-anchor="start" x="519.5" y="-2669.8" font-family="sans" font-size="10.00" fill="#000000"> </text>
<text text-anchor="start" x="462.5" y="-2650" font-family="monospace" font-size="10.00" fill="#000000">&lt;input function&gt;</text>
<text text-anchor="start" x="462.5" y="-2632" font-family="monospace" font-size="10.00" fill="#000000">temp/shards/saturated_reads/get/{sample}_{library}_{read_type_map}.tsv</text>
<text text-anchor="start" x="1396.5" y="-2611.8" font-family="sans" font-size="10.00" fill="#000000"> </text>
<text text-anchor="start" x="1400.5" y="-2611.8" font-family="sans" font-weight="bold" font-size="14.00" fill="#000000">output →</text>
<text text-anchor="start" x="1461.5" y="-2611.8" font-family="sans" font-size="10.00" fill="#000000"> </text>
<text text-anchor="start" x="462.5" y="-2592" font-family="monospace" font-size="10.00" fill="#000000">temp/shards/saturated_reads/remove/{sample,HD827sonic_1|HD827sonic_2}_{library,lib1|lib2}_{read_type_map,pe|se|singleton|collapsed}.{ref}.{n_shard}&#45;of&#45;{tot_shards}.bam</text>
<polygon fill="#5788d9" stroke="#5788d9" points="456.5,-2684 456.5,-2684 1472.5,-2684 1472.5,-2684 456.5,-2684"/>
<polygon fill="#5788d9" stroke="#5788d9" points="456.5,-2626 456.5,-2626 1472.5,-2626 1472.5,-2626 456.5,-2626"/>
<polygon fill="none" stroke="#5788d9" stroke-width="2" points="456,-2583 456,-2713 1471,-2713 1471,-2583 456,-2583"/>
</g>
<!-- 2&#45;&gt;7 -->
<g id="edge13" class="edge">
<title>2&#45;&gt;7</title>
<path fill="none" stroke="#c0c0c0" stroke-width="2" d="M456.4107,-3085.6588C450.8139,-2995.1679 456.1532,-2834.639 550.5,-2750 563.5889,-2738.2579 586.0975,-2727.3549 614.0687,-2717.3853"/>
<polygon fill="#c0c0c0" stroke="#c0c0c0" stroke-width="2" points="615.4479,-2720.6119 623.7583,-2714.0402 613.1635,-2713.9951 615.4479,-2720.6119"/>
</g>
<!-- 9 -->
<g id="node10" class="node">
<title>9</title>
<text text-anchor="start" x="888" y="-3029.6" font-family="sans" font-weight="bold" font-size="18.00" fill="#000000">shard_count_alns</text>
<text text-anchor="start" x="499.5" y="-3005.8" font-family="sans" font-size="10.00" fill="#000000"> </text>
<text text-anchor="start" x="503.5" y="-3005.8" font-family="sans" font-weight="bold" font-size="14.00" fill="#000000">↪ input</text>
<text text-anchor="start" x="556.5" y="-3005.8" font-family="sans" font-size="10.00" fill="#000000"> </text>
<text text-anchor="start" x="499.5" y="-2986" font-family="monospace" font-size="10.00" fill="#000000">&lt;input function&gt;</text>
<text text-anchor="start" x="1361.5" y="-2965.8" font-family="sans" font-size="10.00" fill="#000000"> </text>
<text text-anchor="start" x="1365.5" y="-2965.8" font-family="sans" font-weight="bold" font-size="14.00" fill="#000000">output →</text>
<text text-anchor="start" x="1426.5" y="-2965.8" font-family="sans" font-size="10.00" fill="#000000"> </text>
<text text-anchor="start" x="499.5" y="-2946" font-family="monospace" font-size="10.00" fill="#000000">temp/shards/count_alns/{sample,HD827sonic_1|HD827sonic_2}_{library,lib1|lib2}_{read_type_map,pe|se|singleton|collapsed}.{ref}.{n_shard}&#45;of&#45;{tot_shards}.tsv</text>
<polygon fill="#57bad9" stroke="#57bad9" points="493.5,-3020 493.5,-3020 1437.5,-3020 1437.5,-3020 493.5,-3020"/>
<polygon fill="#57bad9" stroke="#57bad9" points="493.5,-2980 493.5,-2980 1437.5,-2980 1437.5,-2980 493.5,-2980"/>
<polygon fill="none" stroke="#57bad9" stroke-width="2" points="493,-2937 493,-3049 1436,-3049 1436,-2937 493,-2937"/>
</g>
<!-- 2&#45;&gt;9 -->
<g id="edge15" class="edge">
<title>2&#45;&gt;9</title>
<path fill="none" stroke="#c0c0c0" stroke-width="2" d="M671.6166,-3085.951C705.7512,-3075.1179 740.9671,-3063.9416 774.6289,-3053.2585"/>
<polygon fill="#c0c0c0" stroke="#c0c0c0" stroke-width="2" points="776.0767,-3056.4711 784.5495,-3050.11 773.9592,-3049.799 776.0767,-3056.4711"/>
</g>
<!-- 3 -->
<g id="node4" class="node">
<title>3</title>
<text text-anchor="start" x="799" y="-1871.6" font-family="sans" font-weight="bold" font-size="18.00" fill="#000000">align_stats</text>
<text text-anchor="start" x="461.5" y="-1847.8" font-family="sans" font-size="10.00" fill="#000000"> </text>
<text text-anchor="start" x="465.5" y="-1847.8" font-family="sans" font-weight="bold" font-size="14.00" fill="#000000">↪ input</text>
<text text-anchor="start" x="518.5" y="-1847.8" font-family="sans" font-size="10.00" fill="#000000"> </text>
<text text-anchor="start" x="461.5" y="-1828" font-family="monospace" font-size="10.00" fill="#000000">results/aligns/merge/{sample}_{library}_{read_type_map}.bam</text>
<text text-anchor="start" x="1161.5" y="-1807.8" font-family="sans" font-size="10.00" fill="#000000"> </text>
<text text-anchor="start" x="1165.5" y="-1807.8" font-family="sans" font-weight="bold" font-size="14.00" fill="#000000">output →</text>
<text text-anchor="start" x="1226.5" y="-1807.8" font-family="sans" font-size="10.00" fill="#000000"> </text>
<text text-anchor="start" x="461.5" y="-1788" font-family="monospace" font-size="10.00" fill="#000000">stats/aligns/samtools_stats/{sample,HD827sonic_1|HD827sonic_2}_{library,lib1|lib2}_{read_type_map,pe|se|singleton|collapsed}.txt</text>
<polygon fill="#c6d957" stroke="#c6d957" points="455.5,-1862 455.5,-1862 1237.5,-1862 1237.5,-1862 455.5,-1862"/>
<polygon fill="#c6d957" stroke="#c6d957" points="455.5,-1822 455.5,-1822 1237.5,-1822 1237.5,-1822 455.5,-1822"/>
<polygon fill="none" stroke="#c6d957" stroke-width="2" points="455,-1779 455,-1891 1236,-1891 1236,-1779 455,-1779"/>
</g>
<!-- 3&#45;&gt;1 -->
<g id="edge7" class="edge">
<title>3&#45;&gt;1</title>
<path fill="none" stroke="#c0c0c0" stroke-width="2" d="M797.595,-1777.7195C738.4268,-1700.9626 645.5,-1558.1094 645.5,-1418 645.5,-1418 645.5,-1418 645.5,-1178 645.5,-1065.2199 679.2069,-947.756 720.9247,-845.5646"/>
<polygon fill="#c0c0c0" stroke="#c0c0c0" stroke-width="2" points="724.2762,-846.6181 724.8545,-836.039 717.8052,-843.9485 724.2762,-846.6181"/>
</g>
<!-- 4 -->
<g id="node5" class="node">
<title>4</title>
<text text-anchor="start" x="911" y="-2225.6" font-family="sans" font-weight="bold" font-size="18.00" fill="#000000">align_merge</text>
<text text-anchor="start" x="600.5" y="-2201.8" font-family="sans" font-size="10.00" fill="#000000"> </text>
<text text-anchor="start" x="604.5" y="-2201.8" font-family="sans" font-weight="bold" font-size="14.00" fill="#000000">↪ input</text>
<text text-anchor="start" x="657.5" y="-2201.8" font-family="sans" font-size="10.00" fill="#000000"> </text>
<text text-anchor="start" x="600.5" y="-2182" font-family="monospace" font-size="10.00" fill="#000000">&lt;input function&gt;</text>
<text text-anchor="start" x="1258.5" y="-2161.8" font-family="sans" font-size="10.00" fill="#000000"> </text>
<text text-anchor="start" x="1262.5" y="-2161.8" font-family="sans" font-weight="bold" font-size="14.00" fill="#000000">output →</text>
<text text-anchor="start" x="1323.5" y="-2161.8" font-family="sans" font-size="10.00" fill="#000000"> </text>
<text text-anchor="start" x="600.5" y="-2142" font-family="monospace" font-size="10.00" fill="#000000">results/aligns/merge/{sample,HD827sonic_1|HD827sonic_2}_{library,lib1|lib2}_{read_type_map,pe|se|singleton|collapsed}.bam</text>
<polygon fill="#d98857" stroke="#d98857" points="594.5,-2216 594.5,-2216 1334.5,-2216 1334.5,-2216 594.5,-2216"/>
<polygon fill="#d98857" stroke="#d98857" points="594.5,-2176 594.5,-2176 1334.5,-2176 1334.5,-2176 594.5,-2176"/>
<polygon fill="none" stroke="#d98857" stroke-width="2" points="594,-2133 594,-2245 1333,-2245 1333,-2133 594,-2133"/>
</g>
<!-- 4&#45;&gt;3 -->
<g id="edge8" class="edge">
<title>4&#45;&gt;3</title>
<path fill="none" stroke="#c0c0c0" stroke-width="2" d="M944.4101,-2131.7303C923.4588,-2068.8764 889.8672,-1968.1017 867.7409,-1901.7228"/>
<polygon fill="#c0c0c0" stroke="#c0c0c0" stroke-width="2" points="871.0452,-1900.5674 864.5625,-1892.1874 864.4044,-1902.781 871.0452,-1900.5674"/>
</g>
<!-- 14 -->
<g id="node15" class="node">
<title>14</title>
<text text-anchor="start" x="1456" y="-2075.6" font-family="sans" font-weight="bold" font-size="18.00" fill="#000000">align_sort_coord</text>
<text text-anchor="start" x="1148.5" y="-2051.8" font-family="sans" font-size="10.00" fill="#000000"> </text>
<text text-anchor="start" x="1152.5" y="-2051.8" font-family="sans" font-weight="bold" font-size="14.00" fill="#000000">↪ input</text>
<text text-anchor="start" x="1205.5" y="-2051.8" font-family="sans" font-size="10.00" fill="#000000"> </text>
<text text-anchor="start" x="1148.5" y="-2032" font-family="monospace" font-size="10.00" fill="#000000">results/aligns/merge/{sample}_{library}_{read_type_map}.bam</text>
<text text-anchor="start" x="1842.5" y="-2011.8" font-family="sans" font-size="10.00" fill="#000000"> </text>
<text text-anchor="start" x="1846.5" y="-2011.8" font-family="sans" font-weight="bold" font-size="14.00" fill="#000000">output →</text>
<text text-anchor="start" x="1907.5" y="-2011.8" font-family="sans" font-size="10.00" fill="#000000"> </text>
<text text-anchor="start" x="1148.5" y="-1992" font-family="monospace" font-size="10.00" fill="#000000">temp/aligns/sort_coord/{sample,HD827sonic_1|HD827sonic_2}_{library,lib1|lib2}_{read_type_map,pe|se|singleton|collapsed}.bam</text>
<text text-anchor="start" x="1148.5" y="-1974" font-family="monospace" font-size="10.00" fill="#000000">temp/aligns/sort_coord/{sample,HD827sonic_1|HD827sonic_2}_{library,lib1|lib2}_{read_type_map,pe|se|singleton|collapsed}.bam.csi</text>
<polygon fill="#d9ba57" stroke="#d9ba57" points="1142.5,-2066 1142.5,-2066 1918.5,-2066 1918.5,-2066 1142.5,-2066"/>
<polygon fill="#d9ba57" stroke="#d9ba57" points="1142.5,-2026 1142.5,-2026 1918.5,-2026 1918.5,-2026 1142.5,-2026"/>
<polygon fill="none" stroke="#d9ba57" stroke-width="2" points="1142,-1965 1142,-2095 1917,-2095 1917,-1965 1142,-1965"/>
</g>
<!-- 4&#45;&gt;14 -->
<g id="edge20" class="edge">
<title>4&#45;&gt;14</title>
<path fill="none" stroke="#c0c0c0" stroke-width="2" d="M1166.6397,-2131.9342C1204.7842,-2121.2188 1245.0369,-2109.911 1284.3011,-2098.881"/>
<polygon fill="#c0c0c0" stroke="#c0c0c0" stroke-width="2" points="1285.5796,-2102.1574 1294.2603,-2096.0832 1283.6864,-2095.4182 1285.5796,-2102.1574"/>
</g>
<!-- 5 -->
<g id="node6" class="node">
<title>5</title>
<text text-anchor="start" x="887.5" y="-2375.6" font-family="sans" font-weight="bold" font-size="18.00" fill="#000000">shard_sort_query</text>
<text text-anchor="start" x="498.5" y="-2351.8" font-family="sans" font-size="10.00" fill="#000000"> </text>
<text text-anchor="start" x="502.5" y="-2351.8" font-family="sans" font-weight="bold" font-size="14.00" fill="#000000">↪ input</text>
<text text-anchor="start" x="555.5" y="-2351.8" font-family="sans" font-size="10.00" fill="#000000"> </text>
<text text-anchor="start" x="498.5" y="-2332" font-family="monospace" font-size="10.00" fill="#000000">temp/shards/clean_header/{sample}_{library}_{read_type_map}.{ref}.{n_shard}&#45;of&#45;{tot_shards}.bam</text>
<text text-anchor="start" x="1360.5" y="-2311.8" font-family="sans" font-size="10.00" fill="#000000"> </text>
<text text-anchor="start" x="1364.5" y="-2311.8" font-family="sans" font-weight="bold" font-size="14.00" fill="#000000">output →</text>
<text text-anchor="start" x="1425.5" y="-2311.8" font-family="sans" font-size="10.00" fill="#000000"> </text>
<text text-anchor="start" x="498.5" y="-2292" font-family="monospace" font-size="10.00" fill="#000000">temp/shards/sort_query/{sample,HD827sonic_1|HD827sonic_2}_{library,lib1|lib2}_{read_type_map,pe|se|singleton|collapsed}.{ref}.{n_shard}&#45;of&#45;{tot_shards}.bam</text>
<polygon fill="#576fd9" stroke="#576fd9" points="492.5,-2366 492.5,-2366 1436.5,-2366 1436.5,-2366 492.5,-2366"/>
<polygon fill="#576fd9" stroke="#576fd9" points="492.5,-2326 492.5,-2326 1436.5,-2326 1436.5,-2326 492.5,-2326"/>
<polygon fill="none" stroke="#576fd9" stroke-width="2" points="492,-2283 492,-2395 1435,-2395 1435,-2283 492,-2283"/>
</g>
<!-- 5&#45;&gt;4 -->
<g id="edge9" class="edge">
<title>5&#45;&gt;4</title>
<path fill="none" stroke="#c0c0c0" stroke-width="2" d="M963.5,-2281.8635C963.5,-2273.6231 963.5,-2265.0771 963.5,-2256.6558"/>
<polygon fill="#c0c0c0" stroke="#c0c0c0" stroke-width="2" points="967.0001,-2256.4745 963.5,-2246.4745 960.0001,-2256.4745 967.0001,-2256.4745"/>
</g>
<!-- 6 -->
<g id="node7" class="node">
<title>6</title>
<text text-anchor="start" x="877.5" y="-2525.6" font-family="sans" font-weight="bold" font-size="18.00" fill="#000000">shard_clean_header</text>
<text text-anchor="start" x="492.5" y="-2501.8" font-family="sans" font-size="10.00" fill="#000000"> </text>
<text text-anchor="start" x="496.5" y="-2501.8" font-family="sans" font-weight="bold" font-size="14.00" fill="#000000">↪ input</text>
<text text-anchor="start" x="549.5" y="-2501.8" font-family="sans" font-size="10.00" fill="#000000"> </text>
<text text-anchor="start" x="492.5" y="-2482" font-family="monospace" font-size="10.00" fill="#000000">temp/shards/saturated_reads/remove/{sample}_{library}_{read_type_map}.{ref}.{n_shard}&#45;of&#45;{tot_shards}.bam</text>
<text text-anchor="start" x="1366.5" y="-2461.8" font-family="sans" font-size="10.00" fill="#000000"> </text>
<text text-anchor="start" x="1370.5" y="-2461.8" font-family="sans" font-weight="bold" font-size="14.00" fill="#000000">output →</text>
<text text-anchor="start" x="1431.5" y="-2461.8" font-family="sans" font-size="10.00" fill="#000000"> </text>
<text text-anchor="start" x="492.5" y="-2442" font-family="monospace" font-size="10.00" fill="#000000">temp/shards/clean_header/{sample,HD827sonic_1|HD827sonic_2}_{library,lib1|lib2}_{read_type_map,pe|se|singleton|collapsed}.{ref}.{n_shard}&#45;of&#45;{tot_shards}.bam</text>
<polygon fill="#57d3d9" stroke="#57d3d9" points="486.5,-2516 486.5,-2516 1442.5,-2516 1442.5,-2516 486.5,-2516"/>
<polygon fill="#57d3d9" stroke="#57d3d9" points="486.5,-2476 486.5,-2476 1442.5,-2476 1442.5,-2476 486.5,-2476"/>
<polygon fill="none" stroke="#57d3d9" stroke-width="2" points="486,-2433 486,-2545 1441,-2545 1441,-2433 486,-2433"/>
</g>
<!-- 6&#45;&gt;5 -->
<g id="edge10" class="edge">
<title>6&#45;&gt;5</title>
<path fill="none" stroke="#c0c0c0" stroke-width="2" d="M963.5,-2431.8635C963.5,-2423.6231 963.5,-2415.0771 963.5,-2406.6558"/>
<polygon fill="#c0c0c0" stroke="#c0c0c0" stroke-width="2" points="967.0001,-2406.4745 963.5,-2396.4745 960.0001,-2406.4745 967.0001,-2406.4745"/>
</g>
<!-- 7&#45;&gt;6 -->
<g id="edge11" class="edge">
<title>7&#45;&gt;6</title>
<path fill="none" stroke="#c0c0c0" stroke-width="2" d="M963.5,-2581.951C963.5,-2573.5194 963.5,-2564.8799 963.5,-2556.4269"/>
<polygon fill="#c0c0c0" stroke="#c0c0c0" stroke-width="2" points="967.0001,-2556.235 963.5,-2546.235 960.0001,-2556.2351 967.0001,-2556.235"/>
</g>
<!-- 8 -->
<g id="node9" class="node">
<title>8</title>
<text text-anchor="start" x="847.5" y="-2879.6" font-family="sans" font-weight="bold" font-size="18.00" fill="#000000">shard_saturated_reads_get</text>
<text text-anchor="start" x="567.5" y="-2855.8" font-family="sans" font-size="10.00" fill="#000000"> </text>
<text text-anchor="start" x="571.5" y="-2855.8" font-family="sans" font-weight="bold" font-size="14.00" fill="#000000">↪ input</text>
<text text-anchor="start" x="624.5" y="-2855.8" font-family="sans" font-size="10.00" fill="#000000"> </text>
<text text-anchor="start" x="567.5" y="-2836" font-family="monospace" font-size="10.00" fill="#000000">temp/shards/count_alns/{sample}_{library}_collapsed.refseq_mitochondrion.1&#45;of&#45;1.tsv</text>
<text text-anchor="start" x="567.5" y="-2818" font-family="monospace" font-size="10.00" fill="#000000">temp/shards/count_alns/{sample}_{library}_collapsed.wgs_eukaryota.1&#45;of&#45;2.tsv</text>
<text text-anchor="start" x="567.5" y="-2800" font-family="monospace" font-size="10.00" fill="#000000">temp/shards/count_alns/{sample}_{library}_collapsed.wgs_eukaryota.2&#45;of&#45;2.tsv</text>
<text text-anchor="start" x="1291.5" y="-2779.8" font-family="sans" font-size="10.00" fill="#000000"> </text>
<text text-anchor="start" x="1295.5" y="-2779.8" font-family="sans" font-weight="bold" font-size="14.00" fill="#000000">output →</text>
<text text-anchor="start" x="1356.5" y="-2779.8" font-family="sans" font-size="10.00" fill="#000000"> </text>
<text text-anchor="start" x="567.5" y="-2760" font-family="monospace" font-size="10.00" fill="#000000">temp/shards/saturated_reads/get/{sample,HD827sonic_1|HD827sonic_2}_{library,lib1|lib2}_{read_type_map,pe|se|singleton|collapsed}.tsv</text>
<polygon fill="#57a1d9" stroke="#57a1d9" points="561.5,-2870 561.5,-2870 1367.5,-2870 1367.5,-2870 561.5,-2870"/>
<polygon fill="#57a1d9" stroke="#57a1d9" points="561.5,-2794 561.5,-2794 1367.5,-2794 1367.5,-2794 561.5,-2794"/>
<polygon fill="none" stroke="#57a1d9" stroke-width="2" points="561,-2751 561,-2899 1366,-2899 1366,-2751 561,-2751"/>
</g>
<!-- 8&#45;&gt;7 -->
<g id="edge12" class="edge">
<title>8&#45;&gt;7</title>
<path fill="none" stroke="#c0c0c0" stroke-width="2" d="M963.5,-2749.9361C963.5,-2741.4959 963.5,-2732.8888 963.5,-2724.4315"/>
<polygon fill="#c0c0c0" stroke="#c0c0c0" stroke-width="2" points="967.0001,-2724.2111 963.5,-2714.2111 960.0001,-2724.2112 967.0001,-2724.2111"/>
</g>
<!-- 9&#45;&gt;8 -->
<g id="edge14" class="edge">
<title>9&#45;&gt;8</title>
<path fill="none" stroke="#c0c0c0" stroke-width="2" d="M964.1587,-2935.6538C964.1099,-2927.4553 964.0588,-2918.8789 964.0076,-2910.2845"/>
<polygon fill="#c0c0c0" stroke="#c0c0c0" stroke-width="2" points="967.5072,-2910.1877 963.9477,-2900.2088 960.5074,-2910.2295 967.5072,-2910.1877"/>
</g>
<!-- 10 -->
<g id="node11" class="node">
<title>10</title>
<text text-anchor="start" x="1013" y="-1241.6" font-family="sans" font-weight="bold" font-size="18.00" fill="#000000">metadmg_dfit</text>
<text text-anchor="start" x="681.5" y="-1217.8" font-family="sans" font-size="10.00" fill="#000000"> </text>
<text text-anchor="start" x="685.5" y="-1217.8" font-family="sans" font-weight="bold" font-size="14.00" fill="#000000">↪ input</text>
<text text-anchor="start" x="738.5" y="-1217.8" font-family="sans" font-size="10.00" fill="#000000"> </text>
<text text-anchor="start" x="681.5" y="-1198" font-family="monospace" font-size="10.00" fill="#000000">/datasets/caeg_dataset/taxonomy/20250210/names.dmp</text>
<text text-anchor="start" x="681.5" y="-1180" font-family="monospace" font-size="10.00" fill="#000000">/datasets/caeg_dataset/taxonomy/20250210/nodes.dmp</text>
<text text-anchor="start" x="681.5" y="-1162" font-family="monospace" font-size="10.00" fill="#000000">results/metadmg/lca/{sample}_{library}_{read_type_map}.bdamage.gz</text>
<text text-anchor="start" x="1393.5" y="-1141.8" font-family="sans" font-size="10.00" fill="#000000"> </text>
<text text-anchor="start" x="1397.5" y="-1141.8" font-family="sans" font-weight="bold" font-size="14.00" fill="#000000">output →</text>
<text text-anchor="start" x="1458.5" y="-1141.8" font-family="sans" font-size="10.00" fill="#000000"> </text>
<text text-anchor="start" x="681.5" y="-1122" font-family="monospace" font-size="10.00" fill="#000000">results/metadmg/dfit/{sample,HD827sonic_1|HD827sonic_2}_{library,lib1|lib2}_{read_type_map,pe|se|singleton|collapsed}.boot.stat.gz</text>
<text text-anchor="start" x="681.5" y="-1104" font-family="monospace" font-size="10.00" fill="#000000">results/metadmg/dfit/{sample,HD827sonic_1|HD827sonic_2}_{library,lib1|lib2}_{read_type_map,pe|se|singleton|collapsed}.dfit.gz</text>
<polygon fill="#57d995" stroke="#57d995" points="675.5,-1232 675.5,-1232 1469.5,-1232 1469.5,-1232 675.5,-1232"/>
<polygon fill="#57d995" stroke="#57d995" points="675.5,-1156 675.5,-1156 1469.5,-1156 1469.5,-1156 675.5,-1156"/>
<polygon fill="none" stroke="#57d995" stroke-width="2" points="675,-1095 675,-1261 1468,-1261 1468,-1095 675,-1095"/>
</g>
<!-- 10&#45;&gt;1 -->
<g id="edge5" class="edge">
<title>10&#45;&gt;1</title>
<path fill="none" stroke="#c0c0c0" stroke-width="2" d="M923.563,-1093.8379C913.004,-1083.0024 903.7013,-1071.0667 896.5,-1058 861.4328,-994.3709 847.101,-919.0434 843.7472,-846.2848"/>
<polygon fill="#c0c0c0" stroke="#c0c0c0" stroke-width="2" points="847.2346,-845.8921 843.3459,-836.0367 840.24,-846.1661 847.2346,-845.8921"/>
</g>
<!-- 15 -->
<g id="node16" class="node">
<title>15</title>
<text text-anchor="start" x="1216.5" y="-1037.6" font-family="sans" font-weight="bold" font-size="18.00" fill="#000000">metadmg_aggregate</text>
<text text-anchor="start" x="913.5" y="-1013.8" font-family="sans" font-size="10.00" fill="#000000"> </text>
<text text-anchor="start" x="917.5" y="-1013.8" font-family="sans" font-weight="bold" font-size="14.00" fill="#000000">↪ input</text>
<text text-anchor="start" x="970.5" y="-1013.8" font-family="sans" font-size="10.00" fill="#000000"> </text>
<text text-anchor="start" x="913.5" y="-994" font-family="monospace" font-size="10.00" fill="#000000">/datasets/caeg_dataset/taxonomy/20250210/names.dmp</text>
<text text-anchor="start" x="913.5" y="-976" font-family="monospace" font-size="10.00" fill="#000000">/datasets/caeg_dataset/taxonomy/20250210/nodes.dmp</text>
<text text-anchor="start" x="913.5" y="-958" font-family="monospace" font-size="10.00" fill="#000000">results/metadmg/dfit/{sample}_{library}_{read_type_map}.dfit.gz</text>
<text text-anchor="start" x="913.5" y="-940" font-family="monospace" font-size="10.00" fill="#000000">results/metadmg/lca/{sample}_{library}_{read_type_map}.bdamage.gz</text>
<text text-anchor="start" x="913.5" y="-922" font-family="monospace" font-size="10.00" fill="#000000">stats/metadmg/lca/{sample}_{library}_{read_type_map}.stat.gz</text>
<text text-anchor="start" x="1625.5" y="-901.8" font-family="sans" font-size="10.00" fill="#000000"> </text>
<text text-anchor="start" x="1629.5" y="-901.8" font-family="sans" font-weight="bold" font-size="14.00" fill="#000000">output →</text>
<text text-anchor="start" x="1690.5" y="-901.8" font-family="sans" font-size="10.00" fill="#000000"> </text>
<text text-anchor="start" x="913.5" y="-882" font-family="monospace" font-size="10.00" fill="#000000">results/metadmg/aggregate/{sample,HD827sonic_1|HD827sonic_2}_{library,lib1|lib2}_{read_type_map,pe|se|singleton|collapsed}.stat.gz</text>
<polygon fill="#57d963" stroke="#57d963" points="907.5,-1028 907.5,-1028 1701.5,-1028 1701.5,-1028 907.5,-1028"/>
<polygon fill="#57d963" stroke="#57d963" points="907.5,-916 907.5,-916 1701.5,-916 1701.5,-916 907.5,-916"/>
<polygon fill="none" stroke="#57d963" stroke-width="2" points="907,-873 907,-1057 1700,-1057 1700,-873 907,-873"/>
</g>
<!-- 10&#45;&gt;15 -->
<g id="edge21" class="edge">
<title>10&#45;&gt;15</title>
<path fill="none" stroke="#c0c0c0" stroke-width="2" d="M1163.1925,-1093.8168C1173.4863,-1084.366 1184.0475,-1074.6698 1194.5318,-1065.0441"/>
<polygon fill="#c0c0c0" stroke="#c0c0c0" stroke-width="2" points="1197.1482,-1067.3933 1202.1475,-1058.0521 1192.4141,-1062.2369 1197.1482,-1067.3933"/>
</g>
<!-- 11 -->
<g id="node12" class="node">
<title>11</title>
<text text-anchor="start" x="1440.5" y="-1517.6" font-family="sans" font-weight="bold" font-size="18.00" fill="#000000">metadmg_lca</text>
<text text-anchor="start" x="1116.5" y="-1493.8" font-family="sans" font-size="10.00" fill="#000000"> </text>
<text text-anchor="start" x="1120.5" y="-1493.8" font-family="sans" font-weight="bold" font-size="14.00" fill="#000000">↪ input</text>
<text text-anchor="start" x="1173.5" y="-1493.8" font-family="sans" font-size="10.00" fill="#000000"> </text>
<text text-anchor="start" x="1116.5" y="-1474" font-family="monospace" font-size="10.00" fill="#000000">/datasets/caeg_dataset/references/ncbi/20250205/refseq_mitochondrion.genomic.acc2taxid.gz</text>
<text text-anchor="start" x="1116.5" y="-1456" font-family="monospace" font-size="10.00" fill="#000000">/datasets/caeg_dataset/references/ncbi/20250205/wgs_eukaryota.acc2taxid.gz</text>
<text text-anchor="start" x="1116.5" y="-1438" font-family="monospace" font-size="10.00" fill="#000000">/datasets/caeg_dataset/taxonomy/20250210/names.dmp</text>
<text text-anchor="start" x="1116.5" y="-1420" font-family="monospace" font-size="10.00" fill="#000000">/datasets/caeg_dataset/taxonomy/20250210/nodes.dmp</text>
<text text-anchor="start" x="1116.5" y="-1402" font-family="monospace" font-size="10.00" fill="#000000">&lt;function &lt;lambda&gt; at 0x7f70f81151c0&gt;</text>
<text text-anchor="start" x="1810.5" y="-1381.8" font-family="sans" font-size="10.00" fill="#000000"> </text>
<text text-anchor="start" x="1814.5" y="-1381.8" font-family="sans" font-weight="bold" font-size="14.00" fill="#000000">output →</text>
<text text-anchor="start" x="1875.5" y="-1381.8" font-family="sans" font-size="10.00" fill="#000000"> </text>
<text text-anchor="start" x="1116.5" y="-1362" font-family="monospace" font-size="10.00" fill="#000000">results/metadmg/lca/{sample,HD827sonic_1|HD827sonic_2}_{library,lib1|lib2}_{read_type_map,pe|se|singleton|collapsed}.bdamage.gz</text>
<text text-anchor="start" x="1116.5" y="-1344" font-family="monospace" font-size="10.00" fill="#000000">results/metadmg/lca/{sample,HD827sonic_1|HD827sonic_2}_{library,lib1|lib2}_{read_type_map,pe|se|singleton|collapsed}.lca.gz</text>
<text text-anchor="start" x="1116.5" y="-1326" font-family="monospace" font-size="10.00" fill="#000000">stats/metadmg/lca/{sample,HD827sonic_1|HD827sonic_2}_{library,lib1|lib2}_{read_type_map,pe|se|singleton|collapsed}.rlens.gz</text>
<text text-anchor="start" x="1116.5" y="-1308" font-family="monospace" font-size="10.00" fill="#000000">stats/metadmg/lca/{sample,HD827sonic_1|HD827sonic_2}_{library,lib1|lib2}_{read_type_map,pe|se|singleton|collapsed}.stat.gz</text>
<polygon fill="#57d9ad" stroke="#57d9ad" points="1110.5,-1508 1110.5,-1508 1886.5,-1508 1886.5,-1508 1110.5,-1508"/>
<polygon fill="#57d9ad" stroke="#57d9ad" points="1110.5,-1396 1110.5,-1396 1886.5,-1396 1886.5,-1396 1110.5,-1396"/>
<polygon fill="none" stroke="#57d9ad" stroke-width="2" points="1110,-1299 1110,-1537 1885,-1537 1885,-1299 1110,-1299"/>
</g>
<!-- 11&#45;&gt;10 -->
<g id="edge16" class="edge">
<title>11&#45;&gt;10</title>
<path fill="none" stroke="#c0c0c0" stroke-width="2" d="M1284.5,-1298C1265.9987,-1287.5767 1247.4974,-1277.1534 1229.5544,-1267.0447"/>
<polygon fill="#c0c0c0" stroke="#c0c0c0" stroke-width="2" points="1231.2238,-1263.968 1220.7933,-1262.1089 1227.7878,-1270.0668 1231.2238,-1263.968"/>
</g>
<!-- 11&#45;&gt;15 -->
<g id="edge22" class="edge">
<title>11&#45;&gt;15</title>
<path fill="none" stroke="#c0c0c0" stroke-width="2" d="M1514.11,-1297.7804C1517.3389,-1233.6644 1511.885,-1155.5381 1478.5,-1094 1473.0709,-1083.9926 1466.4916,-1074.5525 1459.1084,-1065.685"/>
<polygon fill="#c0c0c0" stroke="#c0c0c0" stroke-width="2" points="1461.64,-1063.2631 1452.4221,-1058.0399 1456.3709,-1067.8714 1461.64,-1063.2631"/>
</g>
<!-- 12 -->
<g id="node13" class="node">
<title>12</title>
<text text-anchor="start" x="1606.5" y="-1685.6" font-family="sans" font-weight="bold" font-size="18.00" fill="#000000">align_sort_query</text>
<text text-anchor="start" x="1298.5" y="-1661.8" font-family="sans" font-size="10.00" fill="#000000"> </text>
<text text-anchor="start" x="1302.5" y="-1661.8" font-family="sans" font-weight="bold" font-size="14.00" fill="#000000">↪ input</text>
<text text-anchor="start" x="1355.5" y="-1661.8" font-family="sans" font-size="10.00" fill="#000000"> </text>
<text text-anchor="start" x="1298.5" y="-1642" font-family="monospace" font-size="10.00" fill="#000000">&lt;function &lt;lambda&gt; at 0x7f70f8123600&gt;</text>
<text text-anchor="start" x="1992.5" y="-1621.8" font-family="sans" font-size="10.00" fill="#000000"> </text>
<text text-anchor="start" x="1996.5" y="-1621.8" font-family="sans" font-weight="bold" font-size="14.00" fill="#000000">output →</text>
<text text-anchor="start" x="2057.5" y="-1621.8" font-family="sans" font-size="10.00" fill="#000000"> </text>
<text text-anchor="start" x="1298.5" y="-1602" font-family="monospace" font-size="10.00" fill="#000000">temp/aligns/sort_query/{sample,HD827sonic_1|HD827sonic_2}_{library,lib1|lib2}_{read_type_map,pe|se|singleton|collapsed}.bam</text>
<text text-anchor="start" x="1298.5" y="-1584" font-family="monospace" font-size="10.00" fill="#000000">temp/aligns/sort_query/{sample,HD827sonic_1|HD827sonic_2}_{library,lib1|lib2}_{read_type_map,pe|se|singleton|collapsed}.bam.csi</text>
<polygon fill="#d9d357" stroke="#d9d357" points="1292.5,-1676 1292.5,-1676 2068.5,-1676 2068.5,-1676 1292.5,-1676"/>
<polygon fill="#d9d357" stroke="#d9d357" points="1292.5,-1636 1292.5,-1636 2068.5,-1636 2068.5,-1636 1292.5,-1636"/>
<polygon fill="none" stroke="#d9d357" stroke-width="2" points="1292,-1575 1292,-1705 2067,-1705 2067,-1575 1292,-1575"/>
</g>
<!-- 12&#45;&gt;11 -->
<g id="edge17" class="edge">
<title>12&#45;&gt;11</title>
<path fill="none" stroke="#c0c0c0" stroke-width="2" d="M1625.3868,-1573.9937C1618.0282,-1565.018 1610.2824,-1555.5697 1602.3939,-1545.9474"/>
<polygon fill="#c0c0c0" stroke="#c0c0c0" stroke-width="2" points="1605.0882,-1543.7134 1596.0415,-1538.199 1599.6748,-1548.1514 1605.0882,-1543.7134"/>
</g>
<!-- 16 -->
<g id="node17" class="node">
<title>16</title>
<text text-anchor="start" x="1845.5" y="-1241.6" font-family="sans" font-weight="bold" font-size="18.00" fill="#000000">metadmg_damage</text>
<text text-anchor="start" x="1533.5" y="-1217.8" font-family="sans" font-size="10.00" fill="#000000"> </text>
<text text-anchor="start" x="1537.5" y="-1217.8" font-family="sans" font-weight="bold" font-size="14.00" fill="#000000">↪ input</text>
<text text-anchor="start" x="1590.5" y="-1217.8" font-family="sans" font-size="10.00" fill="#000000"> </text>
<text text-anchor="start" x="1533.5" y="-1198" font-family="monospace" font-size="10.00" fill="#000000">&lt;function &lt;lambda&gt; at 0x7f70f8115120&gt;</text>
<text text-anchor="start" x="2245.5" y="-1177.8" font-family="sans" font-size="10.00" fill="#000000"> </text>
<text text-anchor="start" x="2249.5" y="-1177.8" font-family="sans" font-weight="bold" font-size="14.00" fill="#000000">output →</text>
<text text-anchor="start" x="2310.5" y="-1177.8" font-family="sans" font-size="10.00" fill="#000000"> </text>
<text text-anchor="start" x="1533.5" y="-1158" font-family="monospace" font-size="10.00" fill="#000000">results/metadmg/damage/{sample,HD827sonic_1|HD827sonic_2}_{library,lib1|lib2}_{read_type_map,pe|se|singleton|collapsed}.bdamage.gz</text>
<text text-anchor="start" x="1533.5" y="-1140" font-family="monospace" font-size="10.00" fill="#000000">results/metadmg/damage/{sample,HD827sonic_1|HD827sonic_2}_{library,lib1|lib2}_{read_type_map,pe|se|singleton|collapsed}.res.gz</text>
<text text-anchor="start" x="1533.5" y="-1122" font-family="monospace" font-size="10.00" fill="#000000">stats/metadmg/damage/{sample,HD827sonic_1|HD827sonic_2}_{library,lib1|lib2}_{read_type_map,pe|se|singleton|collapsed}.rlens.gz</text>
<text text-anchor="start" x="1533.5" y="-1104" font-family="monospace" font-size="10.00" fill="#000000">stats/metadmg/damage/{sample,HD827sonic_1|HD827sonic_2}_{library,lib1|lib2}_{read_type_map,pe|se|singleton|collapsed}.stat.gz</text>
<polygon fill="#57d97c" stroke="#57d97c" points="1527.5,-1232 1527.5,-1232 2321.5,-1232 2321.5,-1232 1527.5,-1232"/>
<polygon fill="#57d97c" stroke="#57d97c" points="1527.5,-1192 1527.5,-1192 2321.5,-1192 2321.5,-1192 1527.5,-1192"/>
<polygon fill="none" stroke="#57d97c" stroke-width="2" points="1527,-1095 1527,-1261 2320,-1261 2320,-1095 1527,-1095"/>
</g>
<!-- 12&#45;&gt;16 -->
<g id="edge23" class="edge">
<title>12&#45;&gt;16</title>
<path fill="none" stroke="#c0c0c0" stroke-width="2" d="M1861.2175,-1573.8603C1874.3371,-1563.5364 1886.084,-1551.657 1895.5,-1538 1948.7957,-1460.6997 1949.3133,-1350.6237 1940.5666,-1272.5831"/>
<polygon fill="#c0c0c0" stroke="#c0c0c0" stroke-width="2" points="1943.9965,-1271.786 1939.3364,-1262.2711 1937.0458,-1272.6153 1943.9965,-1271.786"/>
</g>
<!-- 13 -->
<g id="node14" class="node">
<title>13</title>
<text text-anchor="start" x="1634" y="-1907.6" font-family="sans" font-weight="bold" font-size="18.00" fill="#000000">align_filter</text>
<text text-anchor="start" x="1262.5" y="-1883.8" font-family="sans" font-size="10.00" fill="#000000"> </text>
<text text-anchor="start" x="1266.5" y="-1883.8" font-family="sans" font-weight="bold" font-size="14.00" fill="#000000">↪ input</text>
<text text-anchor="start" x="1319.5" y="-1883.8" font-family="sans" font-size="10.00" fill="#000000"> </text>
<text text-anchor="start" x="1262.5" y="-1864" font-family="monospace" font-size="10.00" fill="#000000">&lt;function &lt;lambda&gt; at 0x7f70f81234c0&gt;</text>
<text text-anchor="start" x="2028.5" y="-1843.8" font-family="sans" font-size="10.00" fill="#000000"> </text>
<text text-anchor="start" x="2032.5" y="-1843.8" font-family="sans" font-weight="bold" font-size="14.00" fill="#000000">output →</text>
<text text-anchor="start" x="2093.5" y="-1843.8" font-family="sans" font-size="10.00" fill="#000000"> </text>
<text text-anchor="start" x="1262.5" y="-1824" font-family="monospace" font-size="10.00" fill="#000000">stats/aligns/filter/{sample,HD827sonic_1|HD827sonic_2}_{library,lib1|lib2}_{read_type_map,pe|se|singleton|collapsed}.read&#45;hits&#45;count.tsv.gz</text>
<text text-anchor="start" x="1262.5" y="-1806" font-family="monospace" font-size="10.00" fill="#000000">stats/aligns/filter/{sample,HD827sonic_1|HD827sonic_2}_{library,lib1|lib2}_{read_type_map,pe|se|singleton|collapsed}.read&#45;length&#45;freqs.json</text>
<text text-anchor="start" x="1262.5" y="-1788" font-family="monospace" font-size="10.00" fill="#000000">stats/aligns/filter/{sample,HD827sonic_1|HD827sonic_2}_{library,lib1|lib2}_{read_type_map,pe|se|singleton|collapsed}.stats&#45;filtered.tsv.gz</text>
<text text-anchor="start" x="1262.5" y="-1770" font-family="monospace" font-size="10.00" fill="#000000">stats/aligns/filter/{sample,HD827sonic_1|HD827sonic_2}_{library,lib1|lib2}_{read_type_map,pe|se|singleton|collapsed}.stats.tsv.gz</text>
<text text-anchor="start" x="1262.5" y="-1752" font-family="monospace" font-size="10.00" fill="#000000">temp/aligns/filter/{sample,HD827sonic_1|HD827sonic_2}_{library,lib1|lib2}_{read_type_map,pe|se|singleton|collapsed}.bam</text>
<polygon fill="#d95757" stroke="#d95757" points="1256.5,-1898 1256.5,-1898 2104.5,-1898 2104.5,-1898 1256.5,-1898"/>
<polygon fill="#d95757" stroke="#d95757" points="1256.5,-1858 1256.5,-1858 2104.5,-1858 2104.5,-1858 1256.5,-1858"/>
<polygon fill="none" stroke="#d95757" stroke-width="2" points="1256,-1743 1256,-1927 2103,-1927 2103,-1743 1256,-1743"/>
</g>
<!-- 13&#45;&gt;12 -->
<g id="edge18" class="edge">
<title>13&#45;&gt;12</title>
<path fill="none" stroke="#c0c0c0" stroke-width="2" d="M1679.5,-1741.7834C1679.5,-1733.2208 1679.5,-1724.614 1679.5,-1716.2279"/>
<polygon fill="#c0c0c0" stroke="#c0c0c0" stroke-width="2" points="1683.0001,-1716.1259 1679.5,-1706.126 1676.0001,-1716.126 1683.0001,-1716.1259"/>
</g>
<!-- 14&#45;&gt;13 -->
<g id="edge19" class="edge">
<title>14&#45;&gt;13</title>
<path fill="none" stroke="#c0c0c0" stroke-width="2" d="M1580.2832,-1963.9819C1587.1197,-1955.0943 1594.2571,-1945.8158 1601.4319,-1936.4885"/>
<polygon fill="#c0c0c0" stroke="#c0c0c0" stroke-width="2" points="1604.4171,-1938.3482 1607.7401,-1928.2879 1598.8687,-1934.0802 1604.4171,-1938.3482"/>
</g>
<!-- 15&#45;&gt;0 -->
<g id="edge2" class="edge">
<title>15&#45;&gt;0</title>
<path fill="none" stroke="#c0c0c0" stroke-width="2" d="M1303.5,-871.9333C1303.5,-720.0374 1303.5,-418.5526 1303.5,-246.4071"/>
<polygon fill="#c0c0c0" stroke="#c0c0c0" stroke-width="2" points="1307.0001,-246.2756 1303.5,-236.2757 1300.0001,-246.2757 1307.0001,-246.2756"/>
</g>
<!-- 15&#45;&gt;1 -->
<g id="edge4" class="edge">
<title>15&#45;&gt;1</title>
<path fill="none" stroke="#c0c0c0" stroke-width="2" d="M1207.1002,-871.9945C1183.4428,-849.1702 1157.0117,-823.6697 1129.6895,-797.3096"/>
<polygon fill="#c0c0c0" stroke="#c0c0c0" stroke-width="2" points="1131.9716,-794.648 1122.3448,-790.2235 1127.1113,-799.6856 1131.9716,-794.648"/>
</g>
<!-- 16&#45;&gt;0 -->
<g id="edge1" class="edge">
<title>16&#45;&gt;0</title>
<path fill="none" stroke="#c0c0c0" stroke-width="2" d="M1874.3314,-1093.9376C1765.9403,-908.6237 1505.915,-464.0644 1377.6345,-244.746"/>
<polygon fill="#c0c0c0" stroke="#c0c0c0" stroke-width="2" points="1380.6343,-242.9425 1372.5643,-236.0777 1374.592,-246.4767 1380.6343,-242.9425"/>
</g>
</g>
</svg>
