<?xml version="1.0" encoding="UTF-8" standalone="no"?>
<!DOCTYPE svg PUBLIC "-//W3C//DTD SVG 1.1//EN"
 "http://www.w3.org/Graphics/SVG/1.1/DTD/svg11.dtd">
<!-- Generated by graphviz version 2.40.1 (0)
 -->
<!-- Title: snakemake_dag Pages: 1 -->
<svg width="2114pt" height="2722pt"
 viewBox="0.00 0.00 2114.00 2722.00" xmlns="http://www.w3.org/2000/svg" xmlns:xlink="http://www.w3.org/1999/xlink">
<g id="graph0" class="graph" transform="scale(1 1) rotate(0) translate(4 2718)">
<title>snakemake_dag</title>
<polygon fill="#ffffff" stroke="transparent" points="-4,4 -4,-2718 2110,-2718 2110,4 -4,4"/>
<!-- 0 -->
<g id="node1" class="node">
<title>0</title>
<text text-anchor="start" x="1078.5" y="-215.6" font-family="sans" font-weight="bold" font-size="18.00" fill="#000000">all</text>
<text text-anchor="start" x="905.5" y="-191.8" font-family="sans" font-size="10.00" fill="#000000"> </text>
<text text-anchor="start" x="909.5" y="-191.8" font-family="sans" font-weight="bold" font-size="14.00" fill="#000000">↪ input</text>
<text text-anchor="start" x="962.5" y="-191.8" font-family="sans" font-size="10.00" fill="#000000"> </text>
<text text-anchor="start" x="905.5" y="-172" font-family="monospace" font-size="10.00" fill="#000000">reports/multiqc.html</text>
<text text-anchor="start" x="905.5" y="-154" font-family="monospace" font-size="10.00" fill="#000000">results/metadmg/aggregate/HD827sonic_1_lib1_collapsed.stat.gz</text>
<text text-anchor="start" x="905.5" y="-136" font-family="monospace" font-size="10.00" fill="#000000">results/metadmg/aggregate/HD827sonic_1_lib1_collapsed.stat.gz</text>
<text text-anchor="start" x="905.5" y="-118" font-family="monospace" font-size="10.00" fill="#000000">results/metadmg/aggregate/HD827sonic_2_lib1_collapsed.stat.gz</text>
<text text-anchor="start" x="905.5" y="-100" font-family="monospace" font-size="10.00" fill="#000000">results/metadmg/aggregate/HD827sonic_2_lib2_collapsed.stat.gz</text>
<text text-anchor="start" x="905.5" y="-82" font-family="monospace" font-size="10.00" fill="#000000">stats/metadmg/damage/HD827sonic_1_lib1_collapsed.stat.gz</text>
<text text-anchor="start" x="905.5" y="-64" font-family="monospace" font-size="10.00" fill="#000000">stats/metadmg/damage/HD827sonic_1_lib1_collapsed.stat.gz</text>
<text text-anchor="start" x="905.5" y="-46" font-family="monospace" font-size="10.00" fill="#000000">stats/metadmg/damage/HD827sonic_2_lib1_collapsed.stat.gz</text>
<text text-anchor="start" x="905.5" y="-28" font-family="monospace" font-size="10.00" fill="#000000">stats/metadmg/damage/HD827sonic_2_lib2_collapsed.stat.gz</text>
<text text-anchor="start" x="1265.5" y="-10" font-family="sans" font-size="10.00" fill="#000000"> &#160;</text>
<polygon fill="#91d957" stroke="#91d957" points="899.5,-206 899.5,-206 1279.5,-206 1279.5,-206 899.5,-206"/>
<polygon fill="#91d957" stroke="#91d957" points="899.5,-22 899.5,-22 1279.5,-22 1279.5,-22 899.5,-22"/>
<polygon fill="none" stroke="#91d957" stroke-width="2" points="899,-1 899,-235 1278,-235 1278,-1 899,-1"/>
</g>
<!-- 1 -->
<g id="node2" class="node">
<title>1</title>
<text text-anchor="start" x="630.5" y="-815.6" font-family="sans" font-weight="bold" font-size="18.00" fill="#000000">multiqc</text>
<text text-anchor="start" x="425.5" y="-791.8" font-family="sans" font-size="10.00" fill="#000000"> </text>
<text text-anchor="start" x="429.5" y="-791.8" font-family="sans" font-weight="bold" font-size="14.00" fill="#000000">↪ input</text>
<text text-anchor="start" x="482.5" y="-791.8" font-family="sans" font-size="10.00" fill="#000000"> </text>
<text text-anchor="start" x="425.5" y="-772" font-family="monospace" font-size="10.00" fill="#000000">logs/shards/bowtie2/HD827sonic_1_lib1_collapsed.refseq_mitochondrion.1&#45;of&#45;1.log</text>
<text text-anchor="start" x="425.5" y="-754" font-family="monospace" font-size="10.00" fill="#000000">logs/shards/bowtie2/HD827sonic_1_lib1_collapsed.wgs_eukaryota.1&#45;of&#45;2.log</text>
<text text-anchor="start" x="425.5" y="-736" font-family="monospace" font-size="10.00" fill="#000000">logs/shards/bowtie2/HD827sonic_1_lib1_collapsed.wgs_eukaryota.2&#45;of&#45;2.log</text>
<text text-anchor="start" x="425.5" y="-718" font-family="monospace" font-size="10.00" fill="#000000">logs/shards/bowtie2/HD827sonic_2_lib1_collapsed.refseq_mitochondrion.1&#45;of&#45;1.log</text>
<text text-anchor="start" x="425.5" y="-700" font-family="monospace" font-size="10.00" fill="#000000">logs/shards/bowtie2/HD827sonic_2_lib1_collapsed.wgs_eukaryota.1&#45;of&#45;2.log</text>
<text text-anchor="start" x="425.5" y="-682" font-family="monospace" font-size="10.00" fill="#000000">logs/shards/bowtie2/HD827sonic_2_lib1_collapsed.wgs_eukaryota.2&#45;of&#45;2.log</text>
<text text-anchor="start" x="425.5" y="-664" font-family="monospace" font-size="10.00" fill="#000000">logs/shards/bowtie2/HD827sonic_2_lib2_collapsed.refseq_mitochondrion.1&#45;of&#45;1.log</text>
<text text-anchor="start" x="425.5" y="-646" font-family="monospace" font-size="10.00" fill="#000000">logs/shards/bowtie2/HD827sonic_2_lib2_collapsed.wgs_eukaryota.1&#45;of&#45;2.log</text>
<text text-anchor="start" x="425.5" y="-628" font-family="monospace" font-size="10.00" fill="#000000">logs/shards/bowtie2/HD827sonic_2_lib2_collapsed.wgs_eukaryota.2&#45;of&#45;2.log</text>
<text text-anchor="start" x="425.5" y="-610" font-family="monospace" font-size="10.00" fill="#000000">results/metadmg/aggregate/HD827sonic_1_lib1_collapsed.stat.gz</text>
<text text-anchor="start" x="425.5" y="-592" font-family="monospace" font-size="10.00" fill="#000000">results/metadmg/aggregate/HD827sonic_1_lib1_collapsed.stat.gz</text>
<text text-anchor="start" x="425.5" y="-574" font-family="monospace" font-size="10.00" fill="#000000">results/metadmg/aggregate/HD827sonic_2_lib1_collapsed.stat.gz</text>
<text text-anchor="start" x="425.5" y="-556" font-family="monospace" font-size="10.00" fill="#000000">results/metadmg/aggregate/HD827sonic_2_lib2_collapsed.stat.gz</text>
<text text-anchor="start" x="425.5" y="-538" font-family="monospace" font-size="10.00" fill="#000000">results/metadmg/dfit/HD827sonic_1_lib1_collapsed.dfit.gz</text>
<text text-anchor="start" x="425.5" y="-520" font-family="monospace" font-size="10.00" fill="#000000">results/metadmg/dfit/HD827sonic_1_lib1_collapsed.dfit.gz</text>
<text text-anchor="start" x="425.5" y="-502" font-family="monospace" font-size="10.00" fill="#000000">results/metadmg/dfit/HD827sonic_2_lib1_collapsed.dfit.gz</text>
<text text-anchor="start" x="425.5" y="-484" font-family="monospace" font-size="10.00" fill="#000000">results/metadmg/dfit/HD827sonic_2_lib2_collapsed.dfit.gz</text>
<text text-anchor="start" x="425.5" y="-466" font-family="monospace" font-size="10.00" fill="#000000">stats/aligns/samtools_stats/HD827sonic_1_lib1_collapsed.txt</text>
<text text-anchor="start" x="425.5" y="-448" font-family="monospace" font-size="10.00" fill="#000000">stats/aligns/samtools_stats/HD827sonic_1_lib1_collapsed.txt</text>
<text text-anchor="start" x="425.5" y="-430" font-family="monospace" font-size="10.00" fill="#000000">stats/aligns/samtools_stats/HD827sonic_1_lib1_collapsed.txt</text>
<text text-anchor="start" x="425.5" y="-412" font-family="monospace" font-size="10.00" fill="#000000">stats/aligns/samtools_stats/HD827sonic_1_lib1_collapsed.txt</text>
<text text-anchor="start" x="425.5" y="-394" font-family="monospace" font-size="10.00" fill="#000000">stats/aligns/samtools_stats/HD827sonic_2_lib1_collapsed.txt</text>
<text text-anchor="start" x="425.5" y="-376" font-family="monospace" font-size="10.00" fill="#000000">stats/aligns/samtools_stats/HD827sonic_2_lib1_collapsed.txt</text>
<text text-anchor="start" x="425.5" y="-358" font-family="monospace" font-size="10.00" fill="#000000">stats/aligns/samtools_stats/HD827sonic_2_lib2_collapsed.txt</text>
<text text-anchor="start" x="425.5" y="-340" font-family="monospace" font-size="10.00" fill="#000000">stats/aligns/samtools_stats/HD827sonic_2_lib2_collapsed.txt</text>
<text text-anchor="start" x="831.5" y="-319.8" font-family="sans" font-size="10.00" fill="#000000"> </text>
<text text-anchor="start" x="835.5" y="-319.8" font-family="sans" font-weight="bold" font-size="14.00" fill="#000000">output →</text>
<text text-anchor="start" x="896.5" y="-319.8" font-family="sans" font-size="10.00" fill="#000000"> </text>
<text text-anchor="start" x="425.5" y="-300" font-family="monospace" font-size="10.00" fill="#000000">reports/multiqc.html</text>
<text text-anchor="start" x="425.5" y="-282" font-family="monospace" font-size="10.00" fill="#000000">reports/multiqc_data.zip</text>
<polygon fill="#57add9" stroke="#57add9" points="419.5,-806 419.5,-806 907.5,-806 907.5,-806 419.5,-806"/>
<polygon fill="#57add9" stroke="#57add9" points="419.5,-334 419.5,-334 907.5,-334 907.5,-334 419.5,-334"/>
<polygon fill="none" stroke="#57add9" stroke-width="2" points="419,-273 419,-835 906,-835 906,-273 419,-273"/>
</g>
<!-- 1&#45;&gt;0 -->
<g id="edge3" class="edge">
<title>1&#45;&gt;0</title>
<path fill="none" stroke="#c0c0c0" stroke-width="2" d="M907.2199,-303.5355C927.4441,-282.8365 947.278,-262.537 965.9703,-243.406"/>
<polygon fill="#c0c0c0" stroke="#c0c0c0" stroke-width="2" points="968.5916,-245.7314 973.0768,-236.1327 963.5847,-240.8393 968.5916,-245.7314"/>
</g>
<!-- 2 -->
<g id="node3" class="node">
<title>2</title>
<text text-anchor="start" x="429.5" y="-2693.6" font-family="sans" font-weight="bold" font-size="18.00" fill="#000000">bowtie2</text>
<text text-anchor="start" x="7.5" y="-2669.8" font-family="sans" font-size="10.00" fill="#000000"> </text>
<text text-anchor="start" x="11.5" y="-2669.8" font-family="sans" font-weight="bold" font-size="14.00" fill="#000000">↪ input</text>
<text text-anchor="start" x="64.5" y="-2669.8" font-family="sans" font-size="10.00" fill="#000000"> </text>
<text text-anchor="start" x="7.5" y="-2650" font-family="monospace" font-size="10.00" fill="#000000">&lt;input function&gt;</text>
<text text-anchor="start" x="7.5" y="-2632" font-family="monospace" font-size="10.00" fill="#000000">&lt;input function&gt;</text>
<text text-anchor="start" x="851.5" y="-2611.8" font-family="sans" font-size="10.00" fill="#000000"> </text>
<text text-anchor="start" x="855.5" y="-2611.8" font-family="sans" font-weight="bold" font-size="14.00" fill="#000000">output →</text>
<text text-anchor="start" x="916.5" y="-2611.8" font-family="sans" font-size="10.00" fill="#000000"> </text>
<text text-anchor="start" x="7.5" y="-2592" font-family="monospace" font-size="10.00" fill="#000000">temp/shards/bowtie2/{sample,HD827sonic_1|HD827sonic_2}_{library,lib1|lib2}_{read_type_map,pe|se|singleton|collapsed}.{ref}.{n_shard}&#45;of&#45;{tot_shards}.bam</text>
<polygon fill="#74d957" stroke="#74d957" points="1.5,-2684 1.5,-2684 927.5,-2684 927.5,-2684 1.5,-2684"/>
<polygon fill="#74d957" stroke="#74d957" points="1.5,-2626 1.5,-2626 927.5,-2626 927.5,-2626 1.5,-2626"/>
<polygon fill="none" stroke="#74d957" stroke-width="2" points="1,-2583 1,-2713 926,-2713 926,-2583 1,-2583"/>
</g>
<!-- 2&#45;&gt;1 -->
<g id="edge4" class="edge">
<title>2&#45;&gt;1</title>
<path fill="none" stroke="#c0c0c0" stroke-width="2" d="M265.1567,-2581.9745C251.6111,-2571.6521 239.4268,-2559.7405 229.5,-2546 175.3975,-2471.1119 210.5,-2431.3867 210.5,-2339 210.5,-2339 210.5,-2339 210.5,-1178 210.5,-1019.7757 306.9934,-874.5512 410.8125,-764.0915"/>
<polygon fill="#c0c0c0" stroke="#c0c0c0" stroke-width="2" points="413.6388,-766.1976 417.9794,-756.5327 408.5591,-761.3813 413.6388,-766.1976"/>
</g>
<!-- 6 -->
<g id="node7" class="node">
<title>6</title>
<text text-anchor="start" x="631.5" y="-2525.6" font-family="sans" font-weight="bold" font-size="18.00" fill="#000000">shard_clean_header</text>
<text text-anchor="start" x="246.5" y="-2501.8" font-family="sans" font-size="10.00" fill="#000000"> </text>
<text text-anchor="start" x="250.5" y="-2501.8" font-family="sans" font-weight="bold" font-size="14.00" fill="#000000">↪ input</text>
<text text-anchor="start" x="303.5" y="-2501.8" font-family="sans" font-size="10.00" fill="#000000"> </text>
<text text-anchor="start" x="246.5" y="-2482" font-family="monospace" font-size="10.00" fill="#000000">&lt;input function&gt;</text>
<text text-anchor="start" x="1120.5" y="-2461.8" font-family="sans" font-size="10.00" fill="#000000"> </text>
<text text-anchor="start" x="1124.5" y="-2461.8" font-family="sans" font-weight="bold" font-size="14.00" fill="#000000">output →</text>
<text text-anchor="start" x="1185.5" y="-2461.8" font-family="sans" font-size="10.00" fill="#000000"> </text>
<text text-anchor="start" x="246.5" y="-2442" font-family="monospace" font-size="10.00" fill="#000000">temp/shards/clean_header/{sample,HD827sonic_1|HD827sonic_2}_{library,lib1|lib2}_{read_type_map,pe|se|singleton|collapsed}.{ref}.{n_shard}&#45;of&#45;{tot_shards}.bam</text>
<polygon fill="#5791d9" stroke="#5791d9" points="240.5,-2516 240.5,-2516 1196.5,-2516 1196.5,-2516 240.5,-2516"/>
<polygon fill="#5791d9" stroke="#5791d9" points="240.5,-2476 240.5,-2476 1196.5,-2476 1196.5,-2476 240.5,-2476"/>
<polygon fill="none" stroke="#5791d9" stroke-width="2" points="240,-2433 240,-2545 1195,-2545 1195,-2433 240,-2433"/>
</g>
<!-- 2&#45;&gt;6 -->
<g id="edge11" class="edge">
<title>2&#45;&gt;6</title>
<path fill="none" stroke="#c0c0c0" stroke-width="2" d="M569.0122,-2581.951C584.9978,-2571.9443 601.4512,-2561.6447 617.3192,-2551.7116"/>
<polygon fill="#c0c0c0" stroke="#c0c0c0" stroke-width="2" points="619.4488,-2554.5078 626.0679,-2546.235 615.7346,-2548.5744 619.4488,-2554.5078"/>
</g>
<!-- 3 -->
<g id="node4" class="node">
<title>3</title>
<text text-anchor="start" x="584" y="-1871.6" font-family="sans" font-weight="bold" font-size="18.00" fill="#000000">align_stats</text>
<text text-anchor="start" x="246.5" y="-1847.8" font-family="sans" font-size="10.00" fill="#000000"> </text>
<text text-anchor="start" x="250.5" y="-1847.8" font-family="sans" font-weight="bold" font-size="14.00" fill="#000000">↪ input</text>
<text text-anchor="start" x="303.5" y="-1847.8" font-family="sans" font-size="10.00" fill="#000000"> </text>
<text text-anchor="start" x="246.5" y="-1828" font-family="monospace" font-size="10.00" fill="#000000">temp/aligns/merge/{sample}_{library}_{read_type_map}.bam</text>
<text text-anchor="start" x="946.5" y="-1807.8" font-family="sans" font-size="10.00" fill="#000000"> </text>
<text text-anchor="start" x="950.5" y="-1807.8" font-family="sans" font-weight="bold" font-size="14.00" fill="#000000">output →</text>
<text text-anchor="start" x="1011.5" y="-1807.8" font-family="sans" font-size="10.00" fill="#000000"> </text>
<text text-anchor="start" x="246.5" y="-1788" font-family="monospace" font-size="10.00" fill="#000000">stats/aligns/samtools_stats/{sample,HD827sonic_1|HD827sonic_2}_{library,lib1|lib2}_{read_type_map,pe|se|singleton|collapsed}.txt</text>
<polygon fill="#add957" stroke="#add957" points="240.5,-1862 240.5,-1862 1022.5,-1862 1022.5,-1862 240.5,-1862"/>
<polygon fill="#add957" stroke="#add957" points="240.5,-1822 240.5,-1822 1022.5,-1822 1022.5,-1822 240.5,-1822"/>
<polygon fill="none" stroke="#add957" stroke-width="2" points="240,-1779 240,-1891 1021,-1891 1021,-1779 240,-1779"/>
</g>
<!-- 3&#45;&gt;1 -->
<g id="edge5" class="edge">
<title>3&#45;&gt;1</title>
<path fill="none" stroke="#c0c0c0" stroke-width="2" d="M582.595,-1777.7195C523.4268,-1700.9626 430.5,-1558.1094 430.5,-1418 430.5,-1418 430.5,-1418 430.5,-1178 430.5,-1065.2199 464.2069,-947.756 505.9247,-845.5646"/>
<polygon fill="#c0c0c0" stroke="#c0c0c0" stroke-width="2" points="509.2762,-846.6181 509.8545,-836.039 502.8052,-843.9485 509.2762,-846.6181"/>
</g>
<!-- 4 -->
<g id="node5" class="node">
<title>4</title>
<text text-anchor="start" x="665" y="-2225.6" font-family="sans" font-weight="bold" font-size="18.00" fill="#000000">align_merge</text>
<text text-anchor="start" x="363.5" y="-2201.8" font-family="sans" font-size="10.00" fill="#000000"> </text>
<text text-anchor="start" x="367.5" y="-2201.8" font-family="sans" font-weight="bold" font-size="14.00" fill="#000000">↪ input</text>
<text text-anchor="start" x="420.5" y="-2201.8" font-family="sans" font-size="10.00" fill="#000000"> </text>
<text text-anchor="start" x="363.5" y="-2182" font-family="monospace" font-size="10.00" fill="#000000">&lt;input function&gt;</text>
<text text-anchor="start" x="1003.5" y="-2161.8" font-family="sans" font-size="10.00" fill="#000000"> </text>
<text text-anchor="start" x="1007.5" y="-2161.8" font-family="sans" font-weight="bold" font-size="14.00" fill="#000000">output →</text>
<text text-anchor="start" x="1068.5" y="-2161.8" font-family="sans" font-size="10.00" fill="#000000"> </text>
<text text-anchor="start" x="363.5" y="-2142" font-family="monospace" font-size="10.00" fill="#000000">temp/aligns/merge/{sample,HD827sonic_1|HD827sonic_2}_{library,lib1|lib2}_{read_type_map,pe|se|singleton|collapsed}.bam</text>
<polygon fill="#d99157" stroke="#d99157" points="357.5,-2216 357.5,-2216 1079.5,-2216 1079.5,-2216 357.5,-2216"/>
<polygon fill="#d99157" stroke="#d99157" points="357.5,-2176 357.5,-2176 1079.5,-2176 1079.5,-2176 357.5,-2176"/>
<polygon fill="none" stroke="#d99157" stroke-width="2" points="357,-2133 357,-2245 1078,-2245 1078,-2133 357,-2133"/>
</g>
<!-- 4&#45;&gt;3 -->
<g id="edge8" class="edge">
<title>4&#45;&gt;3</title>
<path fill="none" stroke="#c0c0c0" stroke-width="2" d="M703.4253,-2131.7303C688.0097,-2069.0052 663.3129,-1968.5146 646.9984,-1902.1313"/>
<polygon fill="#c0c0c0" stroke="#c0c0c0" stroke-width="2" points="650.3401,-1901.063 644.5545,-1892.1874 643.5423,-1902.7337 650.3401,-1901.063"/>
</g>
<!-- 11 -->
<g id="node12" class="node">
<title>11</title>
<text text-anchor="start" x="1225" y="-2075.6" font-family="sans" font-weight="bold" font-size="18.00" fill="#000000">align_sort_coord</text>
<text text-anchor="start" x="917.5" y="-2051.8" font-family="sans" font-size="10.00" fill="#000000"> </text>
<text text-anchor="start" x="921.5" y="-2051.8" font-family="sans" font-weight="bold" font-size="14.00" fill="#000000">↪ input</text>
<text text-anchor="start" x="974.5" y="-2051.8" font-family="sans" font-size="10.00" fill="#000000"> </text>
<text text-anchor="start" x="917.5" y="-2032" font-family="monospace" font-size="10.00" fill="#000000">temp/aligns/merge/{sample}_{library}_{read_type_map}.bam</text>
<text text-anchor="start" x="1611.5" y="-2011.8" font-family="sans" font-size="10.00" fill="#000000"> </text>
<text text-anchor="start" x="1615.5" y="-2011.8" font-family="sans" font-weight="bold" font-size="14.00" fill="#000000">output →</text>
<text text-anchor="start" x="1676.5" y="-2011.8" font-family="sans" font-size="10.00" fill="#000000"> </text>
<text text-anchor="start" x="917.5" y="-1992" font-family="monospace" font-size="10.00" fill="#000000">temp/aligns/sort_coord/{sample,HD827sonic_1|HD827sonic_2}_{library,lib1|lib2}_{read_type_map,pe|se|singleton|collapsed}.bam</text>
<text text-anchor="start" x="917.5" y="-1974" font-family="monospace" font-size="10.00" fill="#000000">temp/aligns/sort_coord/{sample,HD827sonic_1|HD827sonic_2}_{library,lib1|lib2}_{read_type_map,pe|se|singleton|collapsed}.bam.csi</text>
<polygon fill="#d9ca57" stroke="#d9ca57" points="911.5,-2066 911.5,-2066 1687.5,-2066 1687.5,-2066 911.5,-2066"/>
<polygon fill="#d9ca57" stroke="#d9ca57" points="911.5,-2026 911.5,-2026 1687.5,-2026 1687.5,-2026 911.5,-2026"/>
<polygon fill="none" stroke="#d9ca57" stroke-width="2" points="911,-1965 911,-2095 1686,-2095 1686,-1965 911,-1965"/>
</g>
<!-- 4&#45;&gt;11 -->
<g id="edge16" class="edge">
<title>4&#45;&gt;11</title>
<path fill="none" stroke="#c0c0c0" stroke-width="2" d="M926.0233,-2131.9342C965.4199,-2121.1527 1007.0073,-2109.7717 1047.5477,-2098.6771"/>
<polygon fill="#c0c0c0" stroke="#c0c0c0" stroke-width="2" points="1048.5546,-2102.0304 1057.2761,-2096.0148 1046.7068,-2095.2786 1048.5546,-2102.0304"/>
</g>
<!-- 5 -->
<g id="node6" class="node">
<title>5</title>
<text text-anchor="start" x="641.5" y="-2375.6" font-family="sans" font-weight="bold" font-size="18.00" fill="#000000">shard_sort_query</text>
<text text-anchor="start" x="252.5" y="-2351.8" font-family="sans" font-size="10.00" fill="#000000"> </text>
<text text-anchor="start" x="256.5" y="-2351.8" font-family="sans" font-weight="bold" font-size="14.00" fill="#000000">↪ input</text>
<text text-anchor="start" x="309.5" y="-2351.8" font-family="sans" font-size="10.00" fill="#000000"> </text>
<text text-anchor="start" x="252.5" y="-2332" font-family="monospace" font-size="10.00" fill="#000000">temp/shards/clean_header/{sample}_{library}_{read_type_map}.{ref}.{n_shard}&#45;of&#45;{tot_shards}.bam</text>
<text text-anchor="start" x="1114.5" y="-2311.8" font-family="sans" font-size="10.00" fill="#000000"> </text>
<text text-anchor="start" x="1118.5" y="-2311.8" font-family="sans" font-weight="bold" font-size="14.00" fill="#000000">output →</text>
<text text-anchor="start" x="1179.5" y="-2311.8" font-family="sans" font-size="10.00" fill="#000000"> </text>
<text text-anchor="start" x="252.5" y="-2292" font-family="monospace" font-size="10.00" fill="#000000">temp/shards/sort_query/{sample,HD827sonic_1|HD827sonic_2}_{library,lib1|lib2}_{read_type_map,pe|se|singleton|collapsed}.{ref}.{n_shard}&#45;of&#45;{tot_shards}.bam</text>
<polygon fill="#5774d9" stroke="#5774d9" points="246.5,-2366 246.5,-2366 1190.5,-2366 1190.5,-2366 246.5,-2366"/>
<polygon fill="#5774d9" stroke="#5774d9" points="246.5,-2326 246.5,-2326 1190.5,-2326 1190.5,-2326 246.5,-2326"/>
<polygon fill="none" stroke="#5774d9" stroke-width="2" points="246,-2283 246,-2395 1189,-2395 1189,-2283 246,-2283"/>
</g>
<!-- 5&#45;&gt;4 -->
<g id="edge9" class="edge">
<title>5&#45;&gt;4</title>
<path fill="none" stroke="#c0c0c0" stroke-width="2" d="M717.5,-2281.8635C717.5,-2273.6231 717.5,-2265.0771 717.5,-2256.6558"/>
<polygon fill="#c0c0c0" stroke="#c0c0c0" stroke-width="2" points="721.0001,-2256.4745 717.5,-2246.4745 714.0001,-2256.4745 721.0001,-2256.4745"/>
</g>
<!-- 6&#45;&gt;5 -->
<g id="edge10" class="edge">
<title>6&#45;&gt;5</title>
<path fill="none" stroke="#c0c0c0" stroke-width="2" d="M717.5,-2431.8635C717.5,-2423.6231 717.5,-2415.0771 717.5,-2406.6558"/>
<polygon fill="#c0c0c0" stroke="#c0c0c0" stroke-width="2" points="721.0001,-2406.4745 717.5,-2396.4745 714.0001,-2406.4745 721.0001,-2406.4745"/>
</g>
<!-- 7 -->
<g id="node8" class="node">
<title>7</title>
<text text-anchor="start" x="798" y="-1241.6" font-family="sans" font-weight="bold" font-size="18.00" fill="#000000">metadmg_dfit</text>
<text text-anchor="start" x="466.5" y="-1217.8" font-family="sans" font-size="10.00" fill="#000000"> </text>
<text text-anchor="start" x="470.5" y="-1217.8" font-family="sans" font-weight="bold" font-size="14.00" fill="#000000">↪ input</text>
<text text-anchor="start" x="523.5" y="-1217.8" font-family="sans" font-size="10.00" fill="#000000"> </text>
<text text-anchor="start" x="466.5" y="-1198" font-family="monospace" font-size="10.00" fill="#000000">/datasets/caeg_dataset/taxonomy/20250210/names.dmp</text>
<text text-anchor="start" x="466.5" y="-1180" font-family="monospace" font-size="10.00" fill="#000000">/datasets/caeg_dataset/taxonomy/20250210/nodes.dmp</text>
<text text-anchor="start" x="466.5" y="-1162" font-family="monospace" font-size="10.00" fill="#000000">results/metadmg/lca/{sample}_{library}_{read_type_map}.bdamage.gz</text>
<text text-anchor="start" x="1178.5" y="-1141.8" font-family="sans" font-size="10.00" fill="#000000"> </text>
<text text-anchor="start" x="1182.5" y="-1141.8" font-family="sans" font-weight="bold" font-size="14.00" fill="#000000">output →</text>
<text text-anchor="start" x="1243.5" y="-1141.8" font-family="sans" font-size="10.00" fill="#000000"> </text>
<text text-anchor="start" x="466.5" y="-1122" font-family="monospace" font-size="10.00" fill="#000000">results/metadmg/dfit/{sample,HD827sonic_1|HD827sonic_2}_{library,lib1|lib2}_{read_type_map,pe|se|singleton|collapsed}.boot.stat.gz</text>
<text text-anchor="start" x="466.5" y="-1104" font-family="monospace" font-size="10.00" fill="#000000">results/metadmg/dfit/{sample,HD827sonic_1|HD827sonic_2}_{library,lib1|lib2}_{read_type_map,pe|se|singleton|collapsed}.dfit.gz</text>
<polygon fill="#57d9ca" stroke="#57d9ca" points="460.5,-1232 460.5,-1232 1254.5,-1232 1254.5,-1232 460.5,-1232"/>
<polygon fill="#57d9ca" stroke="#57d9ca" points="460.5,-1156 460.5,-1156 1254.5,-1156 1254.5,-1156 460.5,-1156"/>
<polygon fill="none" stroke="#57d9ca" stroke-width="2" points="460,-1095 460,-1261 1253,-1261 1253,-1095 460,-1095"/>
</g>
<!-- 7&#45;&gt;1 -->
<g id="edge6" class="edge">
<title>7&#45;&gt;1</title>
<path fill="none" stroke="#c0c0c0" stroke-width="2" d="M708.563,-1093.8379C698.004,-1083.0024 688.7013,-1071.0667 681.5,-1058 646.4328,-994.3709 632.101,-919.0434 628.7472,-846.2848"/>
<polygon fill="#c0c0c0" stroke="#c0c0c0" stroke-width="2" points="632.2346,-845.8921 628.3459,-836.0367 625.24,-846.1661 632.2346,-845.8921"/>
</g>
<!-- 12 -->
<g id="node13" class="node">
<title>12</title>
<text text-anchor="start" x="1001.5" y="-1037.6" font-family="sans" font-weight="bold" font-size="18.00" fill="#000000">metadmg_aggregate</text>
<text text-anchor="start" x="698.5" y="-1013.8" font-family="sans" font-size="10.00" fill="#000000"> </text>
<text text-anchor="start" x="702.5" y="-1013.8" font-family="sans" font-weight="bold" font-size="14.00" fill="#000000">↪ input</text>
<text text-anchor="start" x="755.5" y="-1013.8" font-family="sans" font-size="10.00" fill="#000000"> </text>
<text text-anchor="start" x="698.5" y="-994" font-family="monospace" font-size="10.00" fill="#000000">/datasets/caeg_dataset/taxonomy/20250210/names.dmp</text>
<text text-anchor="start" x="698.5" y="-976" font-family="monospace" font-size="10.00" fill="#000000">/datasets/caeg_dataset/taxonomy/20250210/nodes.dmp</text>
<text text-anchor="start" x="698.5" y="-958" font-family="monospace" font-size="10.00" fill="#000000">results/metadmg/dfit/{sample}_{library}_{read_type_map}.dfit.gz</text>
<text text-anchor="start" x="698.5" y="-940" font-family="monospace" font-size="10.00" fill="#000000">results/metadmg/lca/{sample}_{library}_{read_type_map}.bdamage.gz</text>
<text text-anchor="start" x="698.5" y="-922" font-family="monospace" font-size="10.00" fill="#000000">stats/metadmg/lca/{sample}_{library}_{read_type_map}.stat.gz</text>
<text text-anchor="start" x="1410.5" y="-901.8" font-family="sans" font-size="10.00" fill="#000000"> </text>
<text text-anchor="start" x="1414.5" y="-901.8" font-family="sans" font-weight="bold" font-size="14.00" fill="#000000">output →</text>
<text text-anchor="start" x="1475.5" y="-901.8" font-family="sans" font-size="10.00" fill="#000000"> </text>
<text text-anchor="start" x="698.5" y="-882" font-family="monospace" font-size="10.00" fill="#000000">results/metadmg/aggregate/{sample,HD827sonic_1|HD827sonic_2}_{library,lib1|lib2}_{read_type_map,pe|se|singleton|collapsed}.stat.gz</text>
<polygon fill="#57d990" stroke="#57d990" points="692.5,-1028 692.5,-1028 1486.5,-1028 1486.5,-1028 692.5,-1028"/>
<polygon fill="#57d990" stroke="#57d990" points="692.5,-916 692.5,-916 1486.5,-916 1486.5,-916 692.5,-916"/>
<polygon fill="none" stroke="#57d990" stroke-width="2" points="692,-873 692,-1057 1485,-1057 1485,-873 692,-873"/>
</g>
<!-- 7&#45;&gt;12 -->
<g id="edge17" class="edge">
<title>7&#45;&gt;12</title>
<path fill="none" stroke="#c0c0c0" stroke-width="2" d="M948.1925,-1093.8168C958.4863,-1084.366 969.0475,-1074.6698 979.5318,-1065.0441"/>
<polygon fill="#c0c0c0" stroke="#c0c0c0" stroke-width="2" points="982.1482,-1067.3933 987.1475,-1058.0521 977.4141,-1062.2369 982.1482,-1067.3933"/>
</g>
<!-- 8 -->
<g id="node9" class="node">
<title>8</title>
<text text-anchor="start" x="1225.5" y="-1517.6" font-family="sans" font-weight="bold" font-size="18.00" fill="#000000">metadmg_lca</text>
<text text-anchor="start" x="901.5" y="-1493.8" font-family="sans" font-size="10.00" fill="#000000"> </text>
<text text-anchor="start" x="905.5" y="-1493.8" font-family="sans" font-weight="bold" font-size="14.00" fill="#000000">↪ input</text>
<text text-anchor="start" x="958.5" y="-1493.8" font-family="sans" font-size="10.00" fill="#000000"> </text>
<text text-anchor="start" x="901.5" y="-1474" font-family="monospace" font-size="10.00" fill="#000000">/datasets/caeg_dataset/references/ncbi/20250205/refseq_mitochondrion.genomic.acc2taxid.gz</text>
<text text-anchor="start" x="901.5" y="-1456" font-family="monospace" font-size="10.00" fill="#000000">/datasets/caeg_dataset/references/ncbi/20250205/wgs_eukaryota.acc2taxid.gz</text>
<text text-anchor="start" x="901.5" y="-1438" font-family="monospace" font-size="10.00" fill="#000000">/datasets/caeg_dataset/taxonomy/20250210/names.dmp</text>
<text text-anchor="start" x="901.5" y="-1420" font-family="monospace" font-size="10.00" fill="#000000">/datasets/caeg_dataset/taxonomy/20250210/nodes.dmp</text>
<text text-anchor="start" x="901.5" y="-1402" font-family="monospace" font-size="10.00" fill="#000000">&lt;function &lt;lambda&gt; at 0x7f34ed173060&gt;</text>
<text text-anchor="start" x="1595.5" y="-1381.8" font-family="sans" font-size="10.00" fill="#000000"> </text>
<text text-anchor="start" x="1599.5" y="-1381.8" font-family="sans" font-weight="bold" font-size="14.00" fill="#000000">output →</text>
<text text-anchor="start" x="1660.5" y="-1381.8" font-family="sans" font-size="10.00" fill="#000000"> </text>
<text text-anchor="start" x="901.5" y="-1362" font-family="monospace" font-size="10.00" fill="#000000">results/metadmg/lca/{sample,HD827sonic_1|HD827sonic_2}_{library,lib1|lib2}_{read_type_map,pe|se|singleton|collapsed}.bdamage.gz</text>
<text text-anchor="start" x="901.5" y="-1344" font-family="monospace" font-size="10.00" fill="#000000">results/metadmg/lca/{sample,HD827sonic_1|HD827sonic_2}_{library,lib1|lib2}_{read_type_map,pe|se|singleton|collapsed}.lca.gz</text>
<text text-anchor="start" x="901.5" y="-1326" font-family="monospace" font-size="10.00" fill="#000000">stats/metadmg/lca/{sample,HD827sonic_1|HD827sonic_2}_{library,lib1|lib2}_{read_type_map,pe|se|singleton|collapsed}.rlens.gz</text>
<text text-anchor="start" x="901.5" y="-1308" font-family="monospace" font-size="10.00" fill="#000000">stats/metadmg/lca/{sample,HD827sonic_1|HD827sonic_2}_{library,lib1|lib2}_{read_type_map,pe|se|singleton|collapsed}.stat.gz</text>
<polygon fill="#57cad9" stroke="#57cad9" points="895.5,-1508 895.5,-1508 1671.5,-1508 1671.5,-1508 895.5,-1508"/>
<polygon fill="#57cad9" stroke="#57cad9" points="895.5,-1396 895.5,-1396 1671.5,-1396 1671.5,-1396 895.5,-1396"/>
<polygon fill="none" stroke="#57cad9" stroke-width="2" points="895,-1299 895,-1537 1670,-1537 1670,-1299 895,-1299"/>
</g>
<!-- 8&#45;&gt;7 -->
<g id="edge12" class="edge">
<title>8&#45;&gt;7</title>
<path fill="none" stroke="#c0c0c0" stroke-width="2" d="M1069.5,-1298C1050.9987,-1287.5767 1032.4974,-1277.1534 1014.5544,-1267.0447"/>
<polygon fill="#c0c0c0" stroke="#c0c0c0" stroke-width="2" points="1016.2238,-1263.968 1005.7933,-1262.1089 1012.7878,-1270.0668 1016.2238,-1263.968"/>
</g>
<!-- 8&#45;&gt;12 -->
<g id="edge18" class="edge">
<title>8&#45;&gt;12</title>
<path fill="none" stroke="#c0c0c0" stroke-width="2" d="M1298.6012,-1297.785C1301.5914,-1233.6703 1295.9016,-1155.5439 1262.5,-1094 1257.0893,-1084.0305 1250.5379,-1074.6194 1243.1898,-1065.7736"/>
<polygon fill="#c0c0c0" stroke="#c0c0c0" stroke-width="2" points="1245.747,-1063.3807 1236.5359,-1058.1456 1240.4719,-1067.9822 1245.747,-1063.3807"/>
</g>
<!-- 9 -->
<g id="node10" class="node">
<title>9</title>
<text text-anchor="start" x="1391.5" y="-1685.6" font-family="sans" font-weight="bold" font-size="18.00" fill="#000000">align_sort_query</text>
<text text-anchor="start" x="1083.5" y="-1661.8" font-family="sans" font-size="10.00" fill="#000000"> </text>
<text text-anchor="start" x="1087.5" y="-1661.8" font-family="sans" font-weight="bold" font-size="14.00" fill="#000000">↪ input</text>
<text text-anchor="start" x="1140.5" y="-1661.8" font-family="sans" font-size="10.00" fill="#000000"> </text>
<text text-anchor="start" x="1083.5" y="-1642" font-family="monospace" font-size="10.00" fill="#000000">&lt;function &lt;lambda&gt; at 0x7f34ed17b9c0&gt;</text>
<text text-anchor="start" x="1777.5" y="-1621.8" font-family="sans" font-size="10.00" fill="#000000"> </text>
<text text-anchor="start" x="1781.5" y="-1621.8" font-family="sans" font-weight="bold" font-size="14.00" fill="#000000">output →</text>
<text text-anchor="start" x="1842.5" y="-1621.8" font-family="sans" font-size="10.00" fill="#000000"> </text>
<text text-anchor="start" x="1083.5" y="-1602" font-family="monospace" font-size="10.00" fill="#000000">temp/aligns/sort_query/{sample,HD827sonic_1|HD827sonic_2}_{library,lib1|lib2}_{read_type_map,pe|se|singleton|collapsed}.bam</text>
<text text-anchor="start" x="1083.5" y="-1584" font-family="monospace" font-size="10.00" fill="#000000">temp/aligns/sort_query/{sample,HD827sonic_1|HD827sonic_2}_{library,lib1|lib2}_{read_type_map,pe|se|singleton|collapsed}.bam.csi</text>
<polygon fill="#cad957" stroke="#cad957" points="1077.5,-1676 1077.5,-1676 1853.5,-1676 1853.5,-1676 1077.5,-1676"/>
<polygon fill="#cad957" stroke="#cad957" points="1077.5,-1636 1077.5,-1636 1853.5,-1636 1853.5,-1636 1077.5,-1636"/>
<polygon fill="none" stroke="#cad957" stroke-width="2" points="1077,-1575 1077,-1705 1852,-1705 1852,-1575 1077,-1575"/>
</g>
<!-- 9&#45;&gt;8 -->
<g id="edge13" class="edge">
<title>9&#45;&gt;8</title>
<path fill="none" stroke="#c0c0c0" stroke-width="2" d="M1410.3868,-1573.9937C1403.0282,-1565.018 1395.2824,-1555.5697 1387.3939,-1545.9474"/>
<polygon fill="#c0c0c0" stroke="#c0c0c0" stroke-width="2" points="1390.0882,-1543.7134 1381.0415,-1538.199 1384.6748,-1548.1514 1390.0882,-1543.7134"/>
</g>
<!-- 13 -->
<g id="node14" class="node">
<title>13</title>
<text text-anchor="start" x="1630.5" y="-1241.6" font-family="sans" font-weight="bold" font-size="18.00" fill="#000000">metadmg_damage</text>
<text text-anchor="start" x="1318.5" y="-1217.8" font-family="sans" font-size="10.00" fill="#000000"> </text>
<text text-anchor="start" x="1322.5" y="-1217.8" font-family="sans" font-weight="bold" font-size="14.00" fill="#000000">↪ input</text>
<text text-anchor="start" x="1375.5" y="-1217.8" font-family="sans" font-size="10.00" fill="#000000"> </text>
<text text-anchor="start" x="1318.5" y="-1198" font-family="monospace" font-size="10.00" fill="#000000">&lt;function &lt;lambda&gt; at 0x7f34ed172fc0&gt;</text>
<text text-anchor="start" x="2030.5" y="-1177.8" font-family="sans" font-size="10.00" fill="#000000"> </text>
<text text-anchor="start" x="2034.5" y="-1177.8" font-family="sans" font-weight="bold" font-size="14.00" fill="#000000">output →</text>
<text text-anchor="start" x="2095.5" y="-1177.8" font-family="sans" font-size="10.00" fill="#000000"> </text>
<text text-anchor="start" x="1318.5" y="-1158" font-family="monospace" font-size="10.00" fill="#000000">results/metadmg/damage/{sample,HD827sonic_1|HD827sonic_2}_{library,lib1|lib2}_{read_type_map,pe|se|singleton|collapsed}.bdamage.gz</text>
<text text-anchor="start" x="1318.5" y="-1140" font-family="monospace" font-size="10.00" fill="#000000">results/metadmg/damage/{sample,HD827sonic_1|HD827sonic_2}_{library,lib1|lib2}_{read_type_map,pe|se|singleton|collapsed}.res.gz</text>
<text text-anchor="start" x="1318.5" y="-1122" font-family="monospace" font-size="10.00" fill="#000000">stats/metadmg/damage/{sample,HD827sonic_1|HD827sonic_2}_{library,lib1|lib2}_{read_type_map,pe|se|singleton|collapsed}.rlens.gz</text>
<text text-anchor="start" x="1318.5" y="-1104" font-family="monospace" font-size="10.00" fill="#000000">stats/metadmg/damage/{sample,HD827sonic_1|HD827sonic_2}_{library,lib1|lib2}_{read_type_map,pe|se|singleton|collapsed}.stat.gz</text>
<polygon fill="#57d9ad" stroke="#57d9ad" points="1312.5,-1232 1312.5,-1232 2106.5,-1232 2106.5,-1232 1312.5,-1232"/>
<polygon fill="#57d9ad" stroke="#57d9ad" points="1312.5,-1192 1312.5,-1192 2106.5,-1192 2106.5,-1192 1312.5,-1192"/>
<polygon fill="none" stroke="#57d9ad" stroke-width="2" points="1312,-1095 1312,-1261 2105,-1261 2105,-1095 1312,-1095"/>
</g>
<!-- 9&#45;&gt;13 -->
<g id="edge19" class="edge">
<title>9&#45;&gt;13</title>
<path fill="none" stroke="#c0c0c0" stroke-width="2" d="M1646.2175,-1573.8603C1659.3371,-1563.5364 1671.084,-1551.657 1680.5,-1538 1733.7957,-1460.6997 1734.3133,-1350.6237 1725.5666,-1272.5831"/>
<polygon fill="#c0c0c0" stroke="#c0c0c0" stroke-width="2" points="1728.9965,-1271.786 1724.3364,-1262.2711 1722.0458,-1272.6153 1728.9965,-1271.786"/>
</g>
<!-- 10 -->
<g id="node11" class="node">
<title>10</title>
<text text-anchor="start" x="1419" y="-1907.6" font-family="sans" font-weight="bold" font-size="18.00" fill="#000000">align_filter</text>
<text text-anchor="start" x="1047.5" y="-1883.8" font-family="sans" font-size="10.00" fill="#000000"> </text>
<text text-anchor="start" x="1051.5" y="-1883.8" font-family="sans" font-weight="bold" font-size="14.00" fill="#000000">↪ input</text>
<text text-anchor="start" x="1104.5" y="-1883.8" font-family="sans" font-size="10.00" fill="#000000"> </text>
<text text-anchor="start" x="1047.5" y="-1864" font-family="monospace" font-size="10.00" fill="#000000">&lt;function &lt;lambda&gt; at 0x7f34ed17ba60&gt;</text>
<text text-anchor="start" x="1813.5" y="-1843.8" font-family="sans" font-size="10.00" fill="#000000"> </text>
<text text-anchor="start" x="1817.5" y="-1843.8" font-family="sans" font-weight="bold" font-size="14.00" fill="#000000">output →</text>
<text text-anchor="start" x="1878.5" y="-1843.8" font-family="sans" font-size="10.00" fill="#000000"> </text>
<text text-anchor="start" x="1047.5" y="-1824" font-family="monospace" font-size="10.00" fill="#000000">stats/aligns/filter/{sample,HD827sonic_1|HD827sonic_2}_{library,lib1|lib2}_{read_type_map,pe|se|singleton|collapsed}.read&#45;hits&#45;count.tsv.gz</text>
<text text-anchor="start" x="1047.5" y="-1806" font-family="monospace" font-size="10.00" fill="#000000">stats/aligns/filter/{sample,HD827sonic_1|HD827sonic_2}_{library,lib1|lib2}_{read_type_map,pe|se|singleton|collapsed}.read&#45;length&#45;freqs.json</text>
<text text-anchor="start" x="1047.5" y="-1788" font-family="monospace" font-size="10.00" fill="#000000">stats/aligns/filter/{sample,HD827sonic_1|HD827sonic_2}_{library,lib1|lib2}_{read_type_map,pe|se|singleton|collapsed}.stats&#45;filtered.tsv.gz</text>
<text text-anchor="start" x="1047.5" y="-1770" font-family="monospace" font-size="10.00" fill="#000000">stats/aligns/filter/{sample,HD827sonic_1|HD827sonic_2}_{library,lib1|lib2}_{read_type_map,pe|se|singleton|collapsed}.stats.tsv.gz</text>
<text text-anchor="start" x="1047.5" y="-1752" font-family="monospace" font-size="10.00" fill="#000000">temp/aligns/filter/{sample,HD827sonic_1|HD827sonic_2}_{library,lib1|lib2}_{read_type_map,pe|se|singleton|collapsed}.bam</text>
<polygon fill="#d95757" stroke="#d95757" points="1041.5,-1898 1041.5,-1898 1889.5,-1898 1889.5,-1898 1041.5,-1898"/>
<polygon fill="#d95757" stroke="#d95757" points="1041.5,-1858 1041.5,-1858 1889.5,-1858 1889.5,-1858 1041.5,-1858"/>
<polygon fill="none" stroke="#d95757" stroke-width="2" points="1041,-1743 1041,-1927 1888,-1927 1888,-1743 1041,-1743"/>
</g>
<!-- 10&#45;&gt;9 -->
<g id="edge14" class="edge">
<title>10&#45;&gt;9</title>
<path fill="none" stroke="#c0c0c0" stroke-width="2" d="M1464.5,-1741.7834C1464.5,-1733.2208 1464.5,-1724.614 1464.5,-1716.2279"/>
<polygon fill="#c0c0c0" stroke="#c0c0c0" stroke-width="2" points="1468.0001,-1716.1259 1464.5,-1706.126 1461.0001,-1716.126 1468.0001,-1716.1259"/>
</g>
<!-- 11&#45;&gt;10 -->
<g id="edge15" class="edge">
<title>11&#45;&gt;10</title>
<path fill="none" stroke="#c0c0c0" stroke-width="2" d="M1354.7,-1963.9819C1362.4187,-1954.9148 1370.4838,-1945.4408 1378.5859,-1935.9232"/>
<polygon fill="#c0c0c0" stroke="#c0c0c0" stroke-width="2" points="1381.2686,-1938.1713 1385.0857,-1928.2879 1375.9384,-1933.6337 1381.2686,-1938.1713"/>
</g>
<!-- 12&#45;&gt;0 -->
<g id="edge2" class="edge">
<title>12&#45;&gt;0</title>
<path fill="none" stroke="#c0c0c0" stroke-width="2" d="M1088.5,-871.9333C1088.5,-720.0374 1088.5,-418.5526 1088.5,-246.4071"/>
<polygon fill="#c0c0c0" stroke="#c0c0c0" stroke-width="2" points="1092.0001,-246.2756 1088.5,-236.2757 1085.0001,-246.2757 1092.0001,-246.2756"/>
</g>
<!-- 12&#45;&gt;1 -->
<g id="edge7" class="edge">
<title>12&#45;&gt;1</title>
<path fill="none" stroke="#c0c0c0" stroke-width="2" d="M992.1002,-871.9945C968.4428,-849.1702 942.0117,-823.6697 914.6895,-797.3096"/>
<polygon fill="#c0c0c0" stroke="#c0c0c0" stroke-width="2" points="916.9716,-794.648 907.3448,-790.2235 912.1113,-799.6856 916.9716,-794.648"/>
</g>
<!-- 13&#45;&gt;0 -->
<g id="edge1" class="edge">
<title>13&#45;&gt;0</title>
<path fill="none" stroke="#c0c0c0" stroke-width="2" d="M1659.3314,-1093.9376C1550.9403,-908.6237 1290.915,-464.0644 1162.6345,-244.746"/>
<polygon fill="#c0c0c0" stroke="#c0c0c0" stroke-width="2" points="1165.6343,-242.9425 1157.5643,-236.0777 1159.592,-246.4767 1165.6343,-242.9425"/>
</g>
</g>
</svg>
