<?xml version="1.0" encoding="UTF-8" standalone="no"?>
<!DOCTYPE svg PUBLIC "-//W3C//DTD SVG 1.1//EN"
 "http://www.w3.org/Graphics/SVG/1.1/DTD/svg11.dtd">
<!-- Generated by graphviz version 2.40.1 (0)
 -->
<!-- Title: snakemake_dag Pages: 1 -->
<svg width="344pt" height="836pt"
 viewBox="0.00 0.00 343.50 836.00" xmlns="http://www.w3.org/2000/svg" xmlns:xlink="http://www.w3.org/1999/xlink">
<g id="graph0" class="graph" transform="scale(1 1) rotate(0) translate(4 832)">
<title>snakemake_dag</title>
<polygon fill="#ffffff" stroke="transparent" points="-4,4 -4,-832 339.5,-832 339.5,4 -4,4"/>
<!-- 0 -->
<g id="node1" class="node">
<title>0</title>
<path fill="none" stroke="#8fd856" stroke-width="2" d="M183,-36C183,-36 153,-36 153,-36 147,-36 141,-30 141,-24 141,-24 141,-12 141,-12 141,-6 147,0 153,0 153,0 183,0 183,0 189,0 195,-6 195,-12 195,-12 195,-24 195,-24 195,-30 189,-36 183,-36"/>
<text text-anchor="middle" x="168" y="-15.5" font-family="sans" font-size="10.00" fill="#000000">all</text>
</g>
<!-- 1 -->
<g id="node2" class="node">
<title>1</title>
<path fill="none" stroke="#56a9d8" stroke-width="2" d="M102,-108C102,-108 72,-108 72,-108 66,-108 60,-102 60,-96 60,-96 60,-84 60,-84 60,-78 66,-72 72,-72 72,-72 102,-72 102,-72 108,-72 114,-78 114,-84 114,-84 114,-96 114,-96 114,-102 108,-108 102,-108"/>
<text text-anchor="middle" x="87" y="-87.5" font-family="sans" font-size="10.00" fill="#000000">multiqc</text>
</g>
<!-- 1&#45;&gt;0 -->
<g id="edge2" class="edge">
<title>1&#45;&gt;0</title>
<path fill="none" stroke="#c0c0c0" stroke-width="2" d="M107.4397,-71.8314C117.3205,-63.0485 129.3324,-52.3712 140.045,-42.8489"/>
<polygon fill="#c0c0c0" stroke="#c0c0c0" stroke-width="2" points="142.418,-45.4224 147.5668,-36.1628 137.7674,-40.1906 142.418,-45.4224"/>
</g>
<!-- 2 -->
<g id="node3" class="node">
<title>2</title>
<path fill="none" stroke="#70d856" stroke-width="2" d="M55,-828C55,-828 25,-828 25,-828 19,-828 13,-822 13,-816 13,-816 13,-804 13,-804 13,-798 19,-792 25,-792 25,-792 55,-792 55,-792 61,-792 67,-798 67,-804 67,-804 67,-816 67,-816 67,-822 61,-828 55,-828"/>
<text text-anchor="middle" x="40" y="-807.5" font-family="sans" font-size="10.00" fill="#000000">bowtie2</text>
</g>
<!-- 2&#45;&gt;1 -->
<g id="edge4" class="edge">
<title>2&#45;&gt;1</title>
<path fill="none" stroke="#c0c0c0" stroke-width="2" d="M31.517,-791.81C19.7754,-764.9218 0,-712.7039 0,-666 0,-666 0,-666 0,-234 0,-187.2117 34.0641,-142.5954 59.5622,-115.7524"/>
<polygon fill="#c0c0c0" stroke="#c0c0c0" stroke-width="2" points="62.3267,-117.9318 66.8218,-108.3378 57.3249,-113.0346 62.3267,-117.9318"/>
</g>
<!-- 9 -->
<g id="node10" class="node">
<title>9</title>
<path fill="none" stroke="#5692d8" stroke-width="2" d="M154,-756C154,-756 74,-756 74,-756 68,-756 62,-750 62,-744 62,-744 62,-732 62,-732 62,-726 68,-720 74,-720 74,-720 154,-720 154,-720 160,-720 166,-726 166,-732 166,-732 166,-744 166,-744 166,-750 160,-756 154,-756"/>
<text text-anchor="middle" x="114" y="-735.5" font-family="sans" font-size="10.00" fill="#000000">shard_clean_header</text>
</g>
<!-- 2&#45;&gt;9 -->
<g id="edge14" class="edge">
<title>2&#45;&gt;9</title>
<path fill="none" stroke="#c0c0c0" stroke-width="2" d="M58.6733,-791.8314C67.5249,-783.219 78.2486,-772.7851 87.8895,-763.4048"/>
<polygon fill="#c0c0c0" stroke="#c0c0c0" stroke-width="2" points="90.6061,-765.645 95.3326,-756.1628 85.7246,-760.6279 90.6061,-765.645"/>
</g>
<!-- 3 -->
<g id="node4" class="node">
<title>3</title>
<path fill="none" stroke="#afd856" stroke-width="2" d="M80,-252C80,-252 40,-252 40,-252 34,-252 28,-246 28,-240 28,-240 28,-228 28,-228 28,-222 34,-216 40,-216 40,-216 80,-216 80,-216 86,-216 92,-222 92,-228 92,-228 92,-240 92,-240 92,-246 86,-252 80,-252"/>
<text text-anchor="middle" x="60" y="-231.5" font-family="sans" font-size="10.00" fill="#000000">align_stats</text>
</g>
<!-- 3&#45;&gt;1 -->
<g id="edge7" class="edge">
<title>3&#45;&gt;1</title>
<path fill="none" stroke="#c0c0c0" stroke-width="2" d="M62.0112,-215.9704C64.1848,-197.7286 68.0173,-168.7631 73,-144 74.6926,-135.5883 76.8903,-126.5315 79.0409,-118.2833"/>
<polygon fill="#c0c0c0" stroke="#c0c0c0" stroke-width="2" points="82.4876,-118.9431 81.6982,-108.3777 75.7267,-117.1294 82.4876,-118.9431"/>
</g>
<!-- 4 -->
<g id="node5" class="node">
<title>4</title>
<path fill="none" stroke="#c6d856" stroke-width="2" d="M178,-396C178,-396 114,-396 114,-396 108,-396 102,-390 102,-384 102,-384 102,-372 102,-372 102,-366 108,-360 114,-360 114,-360 178,-360 178,-360 184,-360 190,-366 190,-372 190,-372 190,-384 190,-384 190,-390 184,-396 178,-396"/>
<text text-anchor="middle" x="146" y="-375.5" font-family="sans" font-size="10.00" fill="#000000">align_sort_query</text>
</g>
<!-- 4&#45;&gt;3 -->
<g id="edge8" class="edge">
<title>4&#45;&gt;3</title>
<path fill="none" stroke="#c0c0c0" stroke-width="2" d="M128.8682,-359.9538C119.8617,-349.8819 109.0522,-336.8121 101,-324 88.5887,-304.252 77.8045,-280.1201 70.4154,-261.8174"/>
<polygon fill="#c0c0c0" stroke="#c0c0c0" stroke-width="2" points="73.5931,-260.3346 66.6709,-252.3139 67.0804,-262.9008 73.5931,-260.3346"/>
</g>
<!-- 11 -->
<g id="node12" class="node">
<title>11</title>
<path fill="none" stroke="#56c9d8" stroke-width="2" d="M173.5,-324C173.5,-324 122.5,-324 122.5,-324 116.5,-324 110.5,-318 110.5,-312 110.5,-312 110.5,-300 110.5,-300 110.5,-294 116.5,-288 122.5,-288 122.5,-288 173.5,-288 173.5,-288 179.5,-288 185.5,-294 185.5,-300 185.5,-300 185.5,-312 185.5,-312 185.5,-318 179.5,-324 173.5,-324"/>
<text text-anchor="middle" x="148" y="-303.5" font-family="sans" font-size="10.00" fill="#000000">metadmg_lca</text>
</g>
<!-- 4&#45;&gt;11 -->
<g id="edge16" class="edge">
<title>4&#45;&gt;11</title>
<path fill="none" stroke="#c0c0c0" stroke-width="2" d="M146.5047,-359.8314C146.7186,-352.131 146.9729,-342.9743 147.2106,-334.4166"/>
<polygon fill="#c0c0c0" stroke="#c0c0c0" stroke-width="2" points="150.7094,-334.5066 147.4885,-324.4133 143.7121,-334.3122 150.7094,-334.5066"/>
</g>
<!-- 13 -->
<g id="node14" class="node">
<title>13</title>
<path fill="none" stroke="#56d8a9" stroke-width="2" d="M323.5,-180C323.5,-180 250.5,-180 250.5,-180 244.5,-180 238.5,-174 238.5,-168 238.5,-168 238.5,-156 238.5,-156 238.5,-150 244.5,-144 250.5,-144 250.5,-144 323.5,-144 323.5,-144 329.5,-144 335.5,-150 335.5,-156 335.5,-156 335.5,-168 335.5,-168 335.5,-174 329.5,-180 323.5,-180"/>
<text text-anchor="middle" x="287" y="-159.5" font-family="sans" font-size="10.00" fill="#000000">metadmg_damage</text>
</g>
<!-- 4&#45;&gt;13 -->
<g id="edge19" class="edge">
<title>4&#45;&gt;13</title>
<path fill="none" stroke="#c0c0c0" stroke-width="2" d="M163.8772,-359.8035C173.3679,-349.6875 184.9136,-336.6236 194,-324 226.2451,-279.2026 256.7217,-222.3653 273.5286,-189.2984"/>
<polygon fill="#c0c0c0" stroke="#c0c0c0" stroke-width="2" points="276.721,-190.7408 278.0947,-180.2354 270.4696,-187.5912 276.721,-190.7408"/>
</g>
<!-- 5 -->
<g id="node6" class="node">
<title>5</title>
<path fill="none" stroke="#d85656" stroke-width="2" d="M156.5,-468C156.5,-468 119.5,-468 119.5,-468 113.5,-468 107.5,-462 107.5,-456 107.5,-456 107.5,-444 107.5,-444 107.5,-438 113.5,-432 119.5,-432 119.5,-432 156.5,-432 156.5,-432 162.5,-432 168.5,-438 168.5,-444 168.5,-444 168.5,-456 168.5,-456 168.5,-462 162.5,-468 156.5,-468"/>
<text text-anchor="middle" x="138" y="-447.5" font-family="sans" font-size="10.00" fill="#000000">align_filter</text>
</g>
<!-- 5&#45;&gt;4 -->
<g id="edge9" class="edge">
<title>5&#45;&gt;4</title>
<path fill="none" stroke="#c0c0c0" stroke-width="2" d="M140.0187,-431.8314C140.8743,-424.131 141.8917,-414.9743 142.8426,-406.4166"/>
<polygon fill="#c0c0c0" stroke="#c0c0c0" stroke-width="2" points="146.3283,-406.7386 143.9541,-396.4133 139.3711,-405.9656 146.3283,-406.7386"/>
</g>
<!-- 6 -->
<g id="node7" class="node">
<title>6</title>
<path fill="none" stroke="#d8cb56" stroke-width="2" d="M169,-540C169,-540 105,-540 105,-540 99,-540 93,-534 93,-528 93,-528 93,-516 93,-516 93,-510 99,-504 105,-504 105,-504 169,-504 169,-504 175,-504 181,-510 181,-516 181,-516 181,-528 181,-528 181,-534 175,-540 169,-540"/>
<text text-anchor="middle" x="137" y="-519.5" font-family="sans" font-size="10.00" fill="#000000">align_sort_coord</text>
</g>
<!-- 6&#45;&gt;5 -->
<g id="edge10" class="edge">
<title>6&#45;&gt;5</title>
<path fill="none" stroke="#c0c0c0" stroke-width="2" d="M137.2523,-503.8314C137.3593,-496.131 137.4865,-486.9743 137.6053,-478.4166"/>
<polygon fill="#c0c0c0" stroke="#c0c0c0" stroke-width="2" points="141.1049,-478.4609 137.7443,-468.4133 134.1056,-478.3637 141.1049,-478.4609"/>
</g>
<!-- 7 -->
<g id="node8" class="node">
<title>7</title>
<path fill="none" stroke="#d88d56" stroke-width="2" d="M142.5,-612C142.5,-612 97.5,-612 97.5,-612 91.5,-612 85.5,-606 85.5,-600 85.5,-600 85.5,-588 85.5,-588 85.5,-582 91.5,-576 97.5,-576 97.5,-576 142.5,-576 142.5,-576 148.5,-576 154.5,-582 154.5,-588 154.5,-588 154.5,-600 154.5,-600 154.5,-606 148.5,-612 142.5,-612"/>
<text text-anchor="middle" x="120" y="-591.5" font-family="sans" font-size="10.00" fill="#000000">align_merge</text>
</g>
<!-- 7&#45;&gt;6 -->
<g id="edge11" class="edge">
<title>7&#45;&gt;6</title>
<path fill="none" stroke="#c0c0c0" stroke-width="2" d="M124.2898,-575.8314C126.108,-568.131 128.2699,-558.9743 130.2905,-550.4166"/>
<polygon fill="#c0c0c0" stroke="#c0c0c0" stroke-width="2" points="133.7608,-550.95 132.6524,-540.4133 126.9481,-549.3414 133.7608,-550.95"/>
</g>
<!-- 8 -->
<g id="node9" class="node">
<title>8</title>
<path fill="none" stroke="#5673d8" stroke-width="2" d="M152,-684C152,-684 84,-684 84,-684 78,-684 72,-678 72,-672 72,-672 72,-660 72,-660 72,-654 78,-648 84,-648 84,-648 152,-648 152,-648 158,-648 164,-654 164,-660 164,-660 164,-672 164,-672 164,-678 158,-684 152,-684"/>
<text text-anchor="middle" x="118" y="-663.5" font-family="sans" font-size="10.00" fill="#000000">shard_sort_coord</text>
</g>
<!-- 8&#45;&gt;7 -->
<g id="edge12" class="edge">
<title>8&#45;&gt;7</title>
<path fill="none" stroke="#c0c0c0" stroke-width="2" d="M118.5047,-647.8314C118.7186,-640.131 118.9729,-630.9743 119.2106,-622.4166"/>
<polygon fill="#c0c0c0" stroke="#c0c0c0" stroke-width="2" points="122.7094,-622.5066 119.4885,-612.4133 115.7121,-622.3122 122.7094,-622.5066"/>
</g>
<!-- 9&#45;&gt;8 -->
<g id="edge13" class="edge">
<title>9&#45;&gt;8</title>
<path fill="none" stroke="#c0c0c0" stroke-width="2" d="M115.0094,-719.8314C115.4372,-712.131 115.9459,-702.9743 116.4213,-694.4166"/>
<polygon fill="#c0c0c0" stroke="#c0c0c0" stroke-width="2" points="119.9169,-694.592 116.977,-684.4133 112.9276,-694.2037 119.9169,-694.592"/>
</g>
<!-- 10 -->
<g id="node11" class="node">
<title>10</title>
<path fill="none" stroke="#56d8c9" stroke-width="2" d="M174,-252C174,-252 122,-252 122,-252 116,-252 110,-246 110,-240 110,-240 110,-228 110,-228 110,-222 116,-216 122,-216 122,-216 174,-216 174,-216 180,-216 186,-222 186,-228 186,-228 186,-240 186,-240 186,-246 180,-252 174,-252"/>
<text text-anchor="middle" x="148" y="-231.5" font-family="sans" font-size="10.00" fill="#000000">metadmg_dfit</text>
</g>
<!-- 10&#45;&gt;1 -->
<g id="edge6" class="edge">
<title>10&#45;&gt;1</title>
<path fill="none" stroke="#c0c0c0" stroke-width="2" d="M130.5386,-215.906C121.9248,-206.0232 112.1002,-193.1431 106,-180 96.8954,-160.3839 92.1065,-136.3364 89.6151,-118.0351"/>
<polygon fill="#c0c0c0" stroke="#c0c0c0" stroke-width="2" points="93.0768,-117.5065 88.3985,-108.0005 86.1276,-118.3491 93.0768,-117.5065"/>
</g>
<!-- 12 -->
<g id="node13" class="node">
<title>12</title>
<path fill="none" stroke="#56d892" stroke-width="2" d="M208.5,-180C208.5,-180 127.5,-180 127.5,-180 121.5,-180 115.5,-174 115.5,-168 115.5,-168 115.5,-156 115.5,-156 115.5,-150 121.5,-144 127.5,-144 127.5,-144 208.5,-144 208.5,-144 214.5,-144 220.5,-150 220.5,-156 220.5,-156 220.5,-168 220.5,-168 220.5,-174 214.5,-180 208.5,-180"/>
<text text-anchor="middle" x="168" y="-159.5" font-family="sans" font-size="10.00" fill="#000000">metadmg_aggregate</text>
</g>
<!-- 10&#45;&gt;12 -->
<g id="edge17" class="edge">
<title>10&#45;&gt;12</title>
<path fill="none" stroke="#c0c0c0" stroke-width="2" d="M153.0468,-215.8314C155.2094,-208.0463 157.7853,-198.7729 160.1848,-190.1347"/>
<polygon fill="#c0c0c0" stroke="#c0c0c0" stroke-width="2" points="163.581,-190.9852 162.8852,-180.4133 156.8364,-189.1117 163.581,-190.9852"/>
</g>
<!-- 11&#45;&gt;10 -->
<g id="edge15" class="edge">
<title>11&#45;&gt;10</title>
<path fill="none" stroke="#c0c0c0" stroke-width="2" d="M148,-287.8314C148,-280.131 148,-270.9743 148,-262.4166"/>
<polygon fill="#c0c0c0" stroke="#c0c0c0" stroke-width="2" points="151.5001,-262.4132 148,-252.4133 144.5001,-262.4133 151.5001,-262.4132"/>
</g>
<!-- 11&#45;&gt;12 -->
<g id="edge18" class="edge">
<title>11&#45;&gt;12</title>
<path fill="none" stroke="#c0c0c0" stroke-width="2" d="M169.7672,-287.8165C179.4723,-278.2816 189.8597,-265.7355 195,-252 202.7903,-231.1835 194.64,-207.0313 185.3105,-188.9908"/>
<polygon fill="#c0c0c0" stroke="#c0c0c0" stroke-width="2" points="188.321,-187.2027 180.4024,-180.1638 182.2031,-190.6045 188.321,-187.2027"/>
</g>
<!-- 12&#45;&gt;0 -->
<g id="edge1" class="edge">
<title>12&#45;&gt;0</title>
<path fill="none" stroke="#c0c0c0" stroke-width="2" d="M168,-143.7623C168,-119.201 168,-75.2474 168,-46.3541"/>
<polygon fill="#c0c0c0" stroke="#c0c0c0" stroke-width="2" points="171.5001,-46.0896 168,-36.0896 164.5001,-46.0897 171.5001,-46.0896"/>
</g>
<!-- 12&#45;&gt;1 -->
<g id="edge5" class="edge">
<title>12&#45;&gt;1</title>
<path fill="none" stroke="#c0c0c0" stroke-width="2" d="M147.5603,-143.8314C137.6795,-135.0485 125.6676,-124.3712 114.955,-114.8489"/>
<polygon fill="#c0c0c0" stroke="#c0c0c0" stroke-width="2" points="117.2326,-112.1906 107.4332,-108.1628 112.582,-117.4224 117.2326,-112.1906"/>
</g>
<!-- 13&#45;&gt;0 -->
<g id="edge3" class="edge">
<title>13&#45;&gt;0</title>
<path fill="none" stroke="#c0c0c0" stroke-width="2" d="M271.9286,-143.7623C251.0949,-118.5518 213.3773,-72.9103 189.5647,-44.0952"/>
<polygon fill="#c0c0c0" stroke="#c0c0c0" stroke-width="2" points="192.0173,-41.5685 182.9491,-36.0896 186.6213,-46.0277 192.0173,-41.5685"/>
</g>
</g>
</svg>
