<?xml version="1.0" encoding="UTF-8" standalone="no"?>
<!DOCTYPE svg PUBLIC "-//W3C//DTD SVG 1.1//EN"
 "http://www.w3.org/Graphics/SVG/1.1/DTD/svg11.dtd">
<!-- Generated by graphviz version 2.40.1 (0)
 -->
<!-- Title: snakemake_dag Pages: 1 -->
<svg width="383pt" height="1052pt"
 viewBox="0.00 0.00 382.50 1052.00" xmlns="http://www.w3.org/2000/svg" xmlns:xlink="http://www.w3.org/1999/xlink">
<g id="graph0" class="graph" transform="scale(1 1) rotate(0) translate(4 1048)">
<title>snakemake_dag</title>
<polygon fill="#ffffff" stroke="transparent" points="-4,4 -4,-1048 378.5,-1048 378.5,4 -4,4"/>
<!-- 0 -->
<g id="node1" class="node">
<title>0</title>
<path fill="none" stroke="#b6d856" stroke-width="2" d="M241,-36C241,-36 211,-36 211,-36 205,-36 199,-30 199,-24 199,-24 199,-12 199,-12 199,-6 205,0 211,0 211,0 241,0 241,0 247,0 253,-6 253,-12 253,-12 253,-24 253,-24 253,-30 247,-36 241,-36"/>
<text text-anchor="middle" x="226" y="-15.5" font-family="sans" font-size="10.00" fill="#000000">all</text>
</g>
<!-- 1 -->
<g id="node2" class="node">
<title>1</title>
<path fill="none" stroke="#56d8b1" stroke-width="2" d="M100,-108C100,-108 70,-108 70,-108 64,-108 58,-102 58,-96 58,-96 58,-84 58,-84 58,-78 64,-72 70,-72 70,-72 100,-72 100,-72 106,-72 112,-78 112,-84 112,-84 112,-96 112,-96 112,-102 106,-108 100,-108"/>
<text text-anchor="middle" x="85" y="-87.5" font-family="sans" font-size="10.00" fill="#000000">multiqc</text>
</g>
<!-- 1&#45;&gt;0 -->
<g id="edge2" class="edge">
<title>1&#45;&gt;0</title>
<path fill="none" stroke="#c0c0c0" stroke-width="2" d="M112.1862,-76.1177C134.2282,-64.8622 165.4929,-48.8972 189.6783,-36.5473"/>
<polygon fill="#c0c0c0" stroke="#c0c0c0" stroke-width="2" points="191.5829,-39.5047 198.8972,-31.8397 188.3994,-33.2704 191.5829,-39.5047"/>
</g>
<!-- 2 -->
<g id="node3" class="node">
<title>2</title>
<path fill="none" stroke="#9fd856" stroke-width="2" d="M71,-1044C71,-1044 41,-1044 41,-1044 35,-1044 29,-1038 29,-1032 29,-1032 29,-1020 29,-1020 29,-1014 35,-1008 41,-1008 41,-1008 71,-1008 71,-1008 77,-1008 83,-1014 83,-1020 83,-1020 83,-1032 83,-1032 83,-1038 77,-1044 71,-1044"/>
<text text-anchor="middle" x="56" y="-1023.5" font-family="sans" font-size="10.00" fill="#000000">bowtie2</text>
</g>
<!-- 2&#45;&gt;1 -->
<g id="edge6" class="edge">
<title>2&#45;&gt;1</title>
<path fill="none" stroke="#c0c0c0" stroke-width="2" d="M43.8488,-1007.7857C27.3788,-981.2865 0,-930.0148 0,-882 0,-882 0,-882 0,-234 0,-187.4968 33.281,-142.8088 58.193,-115.8723"/>
<polygon fill="#c0c0c0" stroke="#c0c0c0" stroke-width="2" points="60.9206,-118.0835 65.2856,-108.4296 55.8531,-113.2543 60.9206,-118.0835"/>
</g>
<!-- 7 -->
<g id="node8" class="node">
<title>7</title>
<path fill="none" stroke="#5682d8" stroke-width="2" d="M192.5,-828C192.5,-828 63.5,-828 63.5,-828 57.5,-828 51.5,-822 51.5,-816 51.5,-816 51.5,-804 51.5,-804 51.5,-798 57.5,-792 63.5,-792 63.5,-792 192.5,-792 192.5,-792 198.5,-792 204.5,-798 204.5,-804 204.5,-804 204.5,-816 204.5,-816 204.5,-822 198.5,-828 192.5,-828"/>
<text text-anchor="middle" x="128" y="-807.5" font-family="sans" font-size="10.00" fill="#000000">shard_saturated_reads_remove</text>
</g>
<!-- 2&#45;&gt;7 -->
<g id="edge13" class="edge">
<title>2&#45;&gt;7</title>
<path fill="none" stroke="#c0c0c0" stroke-width="2" d="M54.4446,-1007.9462C52.543,-976.8786 52.0162,-912.0205 75,-864 80.1319,-853.2777 88.2582,-843.3884 96.6206,-835.0829"/>
<polygon fill="#c0c0c0" stroke="#c0c0c0" stroke-width="2" points="99.0529,-837.6003 103.9609,-828.2107 94.2688,-832.4902 99.0529,-837.6003"/>
</g>
<!-- 9 -->
<g id="node10" class="node">
<title>9</title>
<path fill="none" stroke="#56c9d8" stroke-width="2" d="M175.5,-972C175.5,-972 106.5,-972 106.5,-972 100.5,-972 94.5,-966 94.5,-960 94.5,-960 94.5,-948 94.5,-948 94.5,-942 100.5,-936 106.5,-936 106.5,-936 175.5,-936 175.5,-936 181.5,-936 187.5,-942 187.5,-948 187.5,-948 187.5,-960 187.5,-960 187.5,-966 181.5,-972 175.5,-972"/>
<text text-anchor="middle" x="141" y="-951.5" font-family="sans" font-size="10.00" fill="#000000">shard_count_alns</text>
</g>
<!-- 2&#45;&gt;9 -->
<g id="edge16" class="edge">
<title>2&#45;&gt;9</title>
<path fill="none" stroke="#c0c0c0" stroke-width="2" d="M77.4491,-1007.8314C87.8178,-999.0485 100.4229,-988.3712 111.6646,-978.8489"/>
<polygon fill="#c0c0c0" stroke="#c0c0c0" stroke-width="2" points="114.1895,-981.297 119.5578,-972.1628 109.6651,-975.9556 114.1895,-981.297"/>
</g>
<!-- 3 -->
<g id="node4" class="node">
<title>3</title>
<path fill="none" stroke="#ced856" stroke-width="2" d="M85,-468C85,-468 45,-468 45,-468 39,-468 33,-462 33,-456 33,-456 33,-444 33,-444 33,-438 39,-432 45,-432 45,-432 85,-432 85,-432 91,-432 97,-438 97,-444 97,-444 97,-456 97,-456 97,-462 91,-468 85,-468"/>
<text text-anchor="middle" x="65" y="-447.5" font-family="sans" font-size="10.00" fill="#000000">align_stats</text>
</g>
<!-- 3&#45;&gt;1 -->
<g id="edge8" class="edge">
<title>3&#45;&gt;1</title>
<path fill="none" stroke="#c0c0c0" stroke-width="2" d="M59.274,-431.5668C51.3484,-404.3758 38,-351.7842 38,-306 38,-306 38,-306 38,-234 38,-191.6562 56.5932,-145.6118 70.3906,-117.273"/>
<polygon fill="#c0c0c0" stroke="#c0c0c0" stroke-width="2" points="73.6755,-118.5304 75.0325,-108.0228 67.4191,-115.3907 73.6755,-118.5304"/>
</g>
<!-- 4 -->
<g id="node5" class="node">
<title>4</title>
<path fill="none" stroke="#d88556" stroke-width="2" d="M150.5,-612C150.5,-612 105.5,-612 105.5,-612 99.5,-612 93.5,-606 93.5,-600 93.5,-600 93.5,-588 93.5,-588 93.5,-582 99.5,-576 105.5,-576 105.5,-576 150.5,-576 150.5,-576 156.5,-576 162.5,-582 162.5,-588 162.5,-588 162.5,-600 162.5,-600 162.5,-606 156.5,-612 150.5,-612"/>
<text text-anchor="middle" x="128" y="-591.5" font-family="sans" font-size="10.00" fill="#000000">align_merge</text>
</g>
<!-- 4&#45;&gt;3 -->
<g id="edge9" class="edge">
<title>4&#45;&gt;3</title>
<path fill="none" stroke="#c0c0c0" stroke-width="2" d="M116.9995,-575.8727C110.9796,-565.5604 103.6242,-552.287 98,-540 88.6923,-519.666 80.0636,-495.8817 73.9656,-477.8717"/>
<polygon fill="#c0c0c0" stroke="#c0c0c0" stroke-width="2" points="77.246,-476.6444 70.7659,-468.2623 70.6045,-478.8559 77.246,-476.6444"/>
</g>
<!-- 14 -->
<g id="node15" class="node">
<title>14</title>
<path fill="none" stroke="#d8b456" stroke-width="2" d="M183,-540C183,-540 119,-540 119,-540 113,-540 107,-534 107,-528 107,-528 107,-516 107,-516 107,-510 113,-504 119,-504 119,-504 183,-504 183,-504 189,-504 195,-510 195,-516 195,-516 195,-528 195,-528 195,-534 189,-540 183,-540"/>
<text text-anchor="middle" x="151" y="-519.5" font-family="sans" font-size="10.00" fill="#000000">align_sort_coord</text>
</g>
<!-- 4&#45;&gt;14 -->
<g id="edge21" class="edge">
<title>4&#45;&gt;14</title>
<path fill="none" stroke="#c0c0c0" stroke-width="2" d="M133.8039,-575.8314C136.2908,-568.0463 139.2531,-558.7729 142.0125,-550.1347"/>
<polygon fill="#c0c0c0" stroke="#c0c0c0" stroke-width="2" points="145.409,-551.0041 145.118,-540.4133 138.7409,-548.874 145.409,-551.0041"/>
</g>
<!-- 5 -->
<g id="node6" class="node">
<title>5</title>
<path fill="none" stroke="#566bd8" stroke-width="2" d="M162,-684C162,-684 94,-684 94,-684 88,-684 82,-678 82,-672 82,-672 82,-660 82,-660 82,-654 88,-648 94,-648 94,-648 162,-648 162,-648 168,-648 174,-654 174,-660 174,-660 174,-672 174,-672 174,-678 168,-684 162,-684"/>
<text text-anchor="middle" x="128" y="-663.5" font-family="sans" font-size="10.00" fill="#000000">shard_sort_query</text>
</g>
<!-- 5&#45;&gt;4 -->
<g id="edge10" class="edge">
<title>5&#45;&gt;4</title>
<path fill="none" stroke="#c0c0c0" stroke-width="2" d="M128,-647.8314C128,-640.131 128,-630.9743 128,-622.4166"/>
<polygon fill="#c0c0c0" stroke="#c0c0c0" stroke-width="2" points="131.5001,-622.4132 128,-612.4133 124.5001,-622.4133 131.5001,-622.4132"/>
</g>
<!-- 6 -->
<g id="node7" class="node">
<title>6</title>
<path fill="none" stroke="#56d8c9" stroke-width="2" d="M168,-756C168,-756 88,-756 88,-756 82,-756 76,-750 76,-744 76,-744 76,-732 76,-732 76,-726 82,-720 88,-720 88,-720 168,-720 168,-720 174,-720 180,-726 180,-732 180,-732 180,-744 180,-744 180,-750 174,-756 168,-756"/>
<text text-anchor="middle" x="128" y="-735.5" font-family="sans" font-size="10.00" fill="#000000">shard_clean_header</text>
</g>
<!-- 6&#45;&gt;5 -->
<g id="edge11" class="edge">
<title>6&#45;&gt;5</title>
<path fill="none" stroke="#c0c0c0" stroke-width="2" d="M128,-719.8314C128,-712.131 128,-702.9743 128,-694.4166"/>
<polygon fill="#c0c0c0" stroke="#c0c0c0" stroke-width="2" points="131.5001,-694.4132 128,-684.4133 124.5001,-694.4133 131.5001,-694.4132"/>
</g>
<!-- 7&#45;&gt;6 -->
<g id="edge12" class="edge">
<title>7&#45;&gt;6</title>
<path fill="none" stroke="#c0c0c0" stroke-width="2" d="M128,-791.8314C128,-784.131 128,-774.9743 128,-766.4166"/>
<polygon fill="#c0c0c0" stroke="#c0c0c0" stroke-width="2" points="131.5001,-766.4132 128,-756.4133 124.5001,-766.4133 131.5001,-766.4132"/>
</g>
<!-- 8 -->
<g id="node9" class="node">
<title>8</title>
<path fill="none" stroke="#569ad8" stroke-width="2" d="M206,-900C206,-900 96,-900 96,-900 90,-900 84,-894 84,-888 84,-888 84,-876 84,-876 84,-870 90,-864 96,-864 96,-864 206,-864 206,-864 212,-864 218,-870 218,-876 218,-876 218,-888 218,-888 218,-894 212,-900 206,-900"/>
<text text-anchor="middle" x="151" y="-879.5" font-family="sans" font-size="10.00" fill="#000000">shard_saturated_reads_get</text>
</g>
<!-- 8&#45;&gt;7 -->
<g id="edge14" class="edge">
<title>8&#45;&gt;7</title>
<path fill="none" stroke="#c0c0c0" stroke-width="2" d="M145.1961,-863.8314C142.7092,-856.0463 139.7469,-846.7729 136.9875,-838.1347"/>
<polygon fill="#c0c0c0" stroke="#c0c0c0" stroke-width="2" points="140.2591,-836.874 133.882,-828.4133 133.591,-839.0041 140.2591,-836.874"/>
</g>
<!-- 16 -->
<g id="node17" class="node">
<title>16</title>
<path fill="none" stroke="#56b1d8" stroke-width="2" d="M362.5,-756C362.5,-756 235.5,-756 235.5,-756 229.5,-756 223.5,-750 223.5,-744 223.5,-744 223.5,-732 223.5,-732 223.5,-726 229.5,-720 235.5,-720 235.5,-720 362.5,-720 362.5,-720 368.5,-720 374.5,-726 374.5,-732 374.5,-732 374.5,-744 374.5,-744 374.5,-750 368.5,-756 362.5,-756"/>
<text text-anchor="middle" x="299" y="-735.5" font-family="sans" font-size="10.00" fill="#000000">shard_saturated_reads_extract</text>
</g>
<!-- 8&#45;&gt;16 -->
<g id="edge24" class="edge">
<title>8&#45;&gt;16</title>
<path fill="none" stroke="#c0c0c0" stroke-width="2" d="M173.3665,-863.8095C185.6381,-853.588 200.964,-840.4222 214,-828 235.9188,-807.1132 259.454,-781.9601 276.1891,-763.5611"/>
<polygon fill="#c0c0c0" stroke="#c0c0c0" stroke-width="2" points="278.8064,-765.885 282.9204,-756.1215 273.6157,-761.1885 278.8064,-765.885"/>
</g>
<!-- 9&#45;&gt;8 -->
<g id="edge15" class="edge">
<title>9&#45;&gt;8</title>
<path fill="none" stroke="#c0c0c0" stroke-width="2" d="M143.5234,-935.8314C144.5929,-928.131 145.8647,-918.9743 147.0532,-910.4166"/>
<polygon fill="#c0c0c0" stroke="#c0c0c0" stroke-width="2" points="150.5336,-910.7997 148.4426,-900.4133 143.6001,-909.8367 150.5336,-910.7997"/>
</g>
<!-- 10 -->
<g id="node11" class="node">
<title>10</title>
<path fill="none" stroke="#56d882" stroke-width="2" d="M130,-252C130,-252 78,-252 78,-252 72,-252 66,-246 66,-240 66,-240 66,-228 66,-228 66,-222 72,-216 78,-216 78,-216 130,-216 130,-216 136,-216 142,-222 142,-228 142,-228 142,-240 142,-240 142,-246 136,-252 130,-252"/>
<text text-anchor="middle" x="104" y="-231.5" font-family="sans" font-size="10.00" fill="#000000">metadmg_dfit</text>
</g>
<!-- 10&#45;&gt;1 -->
<g id="edge5" class="edge">
<title>10&#45;&gt;1</title>
<path fill="none" stroke="#c0c0c0" stroke-width="2" d="M101.5936,-215.7623C98.3529,-191.201 92.5535,-147.2474 88.7412,-118.3541"/>
<polygon fill="#c0c0c0" stroke="#c0c0c0" stroke-width="2" points="92.1649,-117.5458 87.3868,-108.0896 85.2251,-118.4616 92.1649,-117.5458"/>
</g>
<!-- 15 -->
<g id="node16" class="node">
<title>15</title>
<path fill="none" stroke="#59d856" stroke-width="2" d="M206.5,-180C206.5,-180 125.5,-180 125.5,-180 119.5,-180 113.5,-174 113.5,-168 113.5,-168 113.5,-156 113.5,-156 113.5,-150 119.5,-144 125.5,-144 125.5,-144 206.5,-144 206.5,-144 212.5,-144 218.5,-150 218.5,-156 218.5,-156 218.5,-168 218.5,-168 218.5,-174 212.5,-180 206.5,-180"/>
<text text-anchor="middle" x="166" y="-159.5" font-family="sans" font-size="10.00" fill="#000000">metadmg_aggregate</text>
</g>
<!-- 10&#45;&gt;15 -->
<g id="edge22" class="edge">
<title>10&#45;&gt;15</title>
<path fill="none" stroke="#c0c0c0" stroke-width="2" d="M119.6452,-215.8314C126.8591,-207.454 135.557,-197.3531 143.4605,-188.1749"/>
<polygon fill="#c0c0c0" stroke="#c0c0c0" stroke-width="2" points="146.2711,-190.2748 150.1441,-180.4133 140.9667,-185.7071 146.2711,-190.2748"/>
</g>
<!-- 11 -->
<g id="node12" class="node">
<title>11</title>
<path fill="none" stroke="#56d89a" stroke-width="2" d="M186.5,-324C186.5,-324 135.5,-324 135.5,-324 129.5,-324 123.5,-318 123.5,-312 123.5,-312 123.5,-300 123.5,-300 123.5,-294 129.5,-288 135.5,-288 135.5,-288 186.5,-288 186.5,-288 192.5,-288 198.5,-294 198.5,-300 198.5,-300 198.5,-312 198.5,-312 198.5,-318 192.5,-324 186.5,-324"/>
<text text-anchor="middle" x="161" y="-303.5" font-family="sans" font-size="10.00" fill="#000000">metadmg_lca</text>
</g>
<!-- 11&#45;&gt;10 -->
<g id="edge17" class="edge">
<title>11&#45;&gt;10</title>
<path fill="none" stroke="#c0c0c0" stroke-width="2" d="M146.6165,-287.8314C140.0514,-279.5386 132.1493,-269.557 124.9422,-260.4533"/>
<polygon fill="#c0c0c0" stroke="#c0c0c0" stroke-width="2" points="127.5284,-258.0813 118.5772,-252.4133 122.0401,-262.4262 127.5284,-258.0813"/>
</g>
<!-- 11&#45;&gt;15 -->
<g id="edge23" class="edge">
<title>11&#45;&gt;15</title>
<path fill="none" stroke="#c0c0c0" stroke-width="2" d="M161.6333,-287.7623C162.4861,-263.201 164.0122,-219.2474 165.0155,-190.3541"/>
<polygon fill="#c0c0c0" stroke="#c0c0c0" stroke-width="2" points="168.5227,-190.2051 165.3719,-180.0896 161.5269,-189.9621 168.5227,-190.2051"/>
</g>
<!-- 12 -->
<g id="node13" class="node">
<title>12</title>
<path fill="none" stroke="#d8cb56" stroke-width="2" d="M193,-396C193,-396 129,-396 129,-396 123,-396 117,-390 117,-384 117,-384 117,-372 117,-372 117,-366 123,-360 129,-360 129,-360 193,-360 193,-360 199,-360 205,-366 205,-372 205,-372 205,-384 205,-384 205,-390 199,-396 193,-396"/>
<text text-anchor="middle" x="161" y="-375.5" font-family="sans" font-size="10.00" fill="#000000">align_sort_query</text>
</g>
<!-- 12&#45;&gt;11 -->
<g id="edge18" class="edge">
<title>12&#45;&gt;11</title>
<path fill="none" stroke="#c0c0c0" stroke-width="2" d="M161,-359.8314C161,-352.131 161,-342.9743 161,-334.4166"/>
<polygon fill="#c0c0c0" stroke="#c0c0c0" stroke-width="2" points="164.5001,-334.4132 161,-324.4133 157.5001,-334.4133 164.5001,-334.4132"/>
</g>
<!-- 17 -->
<g id="node18" class="node">
<title>17</title>
<path fill="none" stroke="#56d86b" stroke-width="2" d="M283.5,-252C283.5,-252 210.5,-252 210.5,-252 204.5,-252 198.5,-246 198.5,-240 198.5,-240 198.5,-228 198.5,-228 198.5,-222 204.5,-216 210.5,-216 210.5,-216 283.5,-216 283.5,-216 289.5,-216 295.5,-222 295.5,-228 295.5,-228 295.5,-240 295.5,-240 295.5,-246 289.5,-252 283.5,-252"/>
<text text-anchor="middle" x="247" y="-231.5" font-family="sans" font-size="10.00" fill="#000000">metadmg_damage</text>
</g>
<!-- 12&#45;&gt;17 -->
<g id="edge25" class="edge">
<title>12&#45;&gt;17</title>
<path fill="none" stroke="#c0c0c0" stroke-width="2" d="M179.5038,-359.6457C188.8595,-349.6916 199.9128,-336.8263 208,-324 220.4145,-304.3106 230.6903,-279.9891 237.572,-261.5952"/>
<polygon fill="#c0c0c0" stroke="#c0c0c0" stroke-width="2" points="240.9136,-262.6473 241.0381,-252.0532 234.3342,-260.2574 240.9136,-262.6473"/>
</g>
<!-- 13 -->
<g id="node14" class="node">
<title>13</title>
<path fill="none" stroke="#d85656" stroke-width="2" d="M174.5,-468C174.5,-468 137.5,-468 137.5,-468 131.5,-468 125.5,-462 125.5,-456 125.5,-456 125.5,-444 125.5,-444 125.5,-438 131.5,-432 137.5,-432 137.5,-432 174.5,-432 174.5,-432 180.5,-432 186.5,-438 186.5,-444 186.5,-444 186.5,-456 186.5,-456 186.5,-462 180.5,-468 174.5,-468"/>
<text text-anchor="middle" x="156" y="-447.5" font-family="sans" font-size="10.00" fill="#000000">align_filter</text>
</g>
<!-- 13&#45;&gt;12 -->
<g id="edge19" class="edge">
<title>13&#45;&gt;12</title>
<path fill="none" stroke="#c0c0c0" stroke-width="2" d="M157.2617,-431.8314C157.7965,-424.131 158.4323,-414.9743 159.0266,-406.4166"/>
<polygon fill="#c0c0c0" stroke="#c0c0c0" stroke-width="2" points="162.52,-406.6317 159.7213,-396.4133 155.5368,-406.1467 162.52,-406.6317"/>
</g>
<!-- 14&#45;&gt;13 -->
<g id="edge20" class="edge">
<title>14&#45;&gt;13</title>
<path fill="none" stroke="#c0c0c0" stroke-width="2" d="M152.2617,-503.8314C152.7965,-496.131 153.4323,-486.9743 154.0266,-478.4166"/>
<polygon fill="#c0c0c0" stroke="#c0c0c0" stroke-width="2" points="157.52,-478.6317 154.7213,-468.4133 150.5368,-478.1467 157.52,-478.6317"/>
</g>
<!-- 15&#45;&gt;0 -->
<g id="edge3" class="edge">
<title>15&#45;&gt;0</title>
<path fill="none" stroke="#c0c0c0" stroke-width="2" d="M173.599,-143.7623C183.9231,-118.9846 202.4703,-74.4714 214.5025,-45.5939"/>
<polygon fill="#c0c0c0" stroke="#c0c0c0" stroke-width="2" points="217.8472,-46.6666 218.4627,-36.0896 211.3857,-43.9742 217.8472,-46.6666"/>
</g>
<!-- 15&#45;&gt;1 -->
<g id="edge7" class="edge">
<title>15&#45;&gt;1</title>
<path fill="none" stroke="#c0c0c0" stroke-width="2" d="M145.5603,-143.8314C135.6795,-135.0485 123.6676,-124.3712 112.955,-114.8489"/>
<polygon fill="#c0c0c0" stroke="#c0c0c0" stroke-width="2" points="115.2326,-112.1906 105.4332,-108.1628 110.582,-117.4224 115.2326,-112.1906"/>
</g>
<!-- 16&#45;&gt;0 -->
<g id="edge1" class="edge">
<title>16&#45;&gt;0</title>
<path fill="none" stroke="#c0c0c0" stroke-width="2" d="M304.18,-719.9889C311.5027,-692.8949 324,-639.9269 324,-594 324,-594 324,-594 324,-162 324,-113.6274 285.7374,-69.4833 257.0288,-43.1696"/>
<polygon fill="#c0c0c0" stroke="#c0c0c0" stroke-width="2" points="259.0239,-40.2601 249.2246,-36.2319 254.3731,-45.4918 259.0239,-40.2601"/>
</g>
<!-- 17&#45;&gt;0 -->
<g id="edge4" class="edge">
<title>17&#45;&gt;0</title>
<path fill="none" stroke="#c0c0c0" stroke-width="2" d="M245.2457,-215.9555C241.5861,-178.3144 233.1154,-91.1867 228.7343,-46.1246"/>
<polygon fill="#c0c0c0" stroke="#c0c0c0" stroke-width="2" points="232.2154,-45.7594 227.7641,-36.1451 225.2483,-46.4369 232.2154,-45.7594"/>
</g>
</g>
</svg>
