<?xml version="1.0" encoding="UTF-8" standalone="no"?>
<!DOCTYPE svg PUBLIC "-//W3C//DTD SVG 1.1//EN"
 "http://www.w3.org/Graphics/SVG/1.1/DTD/svg11.dtd">
<!-- Generated by graphviz version 2.40.1 (0)
 -->
<!-- Title: snakemake_dag Pages: 1 -->
<svg width="304pt" height="1052pt"
 viewBox="0.00 0.00 303.50 1052.00" xmlns="http://www.w3.org/2000/svg" xmlns:xlink="http://www.w3.org/1999/xlink">
<g id="graph0" class="graph" transform="scale(1 1) rotate(0) translate(4 1048)">
<title>snakemake_dag</title>
<polygon fill="#ffffff" stroke="transparent" points="-4,4 -4,-1048 299.5,-1048 299.5,4 -4,4"/>
<!-- 0 -->
<g id="node1" class="node">
<title>0</title>
<path fill="none" stroke="#afd856" stroke-width="2" d="M176,-36C176,-36 146,-36 146,-36 140,-36 134,-30 134,-24 134,-24 134,-12 134,-12 134,-6 140,0 146,0 146,0 176,0 176,0 182,0 188,-6 188,-12 188,-12 188,-24 188,-24 188,-30 182,-36 176,-36"/>
<text text-anchor="middle" x="161" y="-15.5" font-family="sans" font-size="10.00" fill="#000000">all</text>
</g>
<!-- 1 -->
<g id="node2" class="node">
<title>1</title>
<path fill="none" stroke="#56d8c9" stroke-width="2" d="M95,-108C95,-108 65,-108 65,-108 59,-108 53,-102 53,-96 53,-96 53,-84 53,-84 53,-78 59,-72 65,-72 65,-72 95,-72 95,-72 101,-72 107,-78 107,-84 107,-84 107,-96 107,-96 107,-102 101,-108 95,-108"/>
<text text-anchor="middle" x="80" y="-87.5" font-family="sans" font-size="10.00" fill="#000000">multiqc</text>
</g>
<!-- 1&#45;&gt;0 -->
<g id="edge1" class="edge">
<title>1&#45;&gt;0</title>
<path fill="none" stroke="#c0c0c0" stroke-width="2" d="M100.4397,-71.8314C110.3205,-63.0485 122.3324,-52.3712 133.045,-42.8489"/>
<polygon fill="#c0c0c0" stroke="#c0c0c0" stroke-width="2" points="135.418,-45.4224 140.5668,-36.1628 130.7674,-40.1906 135.418,-45.4224"/>
</g>
<!-- 2 -->
<g id="node3" class="node">
<title>2</title>
<path fill="none" stroke="#97d856" stroke-width="2" d="M53,-1044C53,-1044 23,-1044 23,-1044 17,-1044 11,-1038 11,-1032 11,-1032 11,-1020 11,-1020 11,-1014 17,-1008 23,-1008 23,-1008 53,-1008 53,-1008 59,-1008 65,-1014 65,-1020 65,-1020 65,-1032 65,-1032 65,-1038 59,-1044 53,-1044"/>
<text text-anchor="middle" x="38" y="-1023.5" font-family="sans" font-size="10.00" fill="#000000">bowtie2</text>
</g>
<!-- 2&#45;&gt;1 -->
<g id="edge7" class="edge">
<title>2&#45;&gt;1</title>
<path fill="none" stroke="#c0c0c0" stroke-width="2" d="M29.9412,-1007.7668C18.7866,-980.8248 0,-928.5405 0,-882 0,-882 0,-882 0,-234 0,-187.9277 31.6802,-142.8164 55.1688,-115.7014"/>
<polygon fill="#c0c0c0" stroke="#c0c0c0" stroke-width="2" points="57.8025,-118.0067 61.8468,-108.2141 52.5785,-113.3474 57.8025,-118.0067"/>
</g>
<!-- 7 -->
<g id="node8" class="node">
<title>7</title>
<path fill="none" stroke="#568ad8" stroke-width="2" d="M182.5,-828C182.5,-828 53.5,-828 53.5,-828 47.5,-828 41.5,-822 41.5,-816 41.5,-816 41.5,-804 41.5,-804 41.5,-798 47.5,-792 53.5,-792 53.5,-792 182.5,-792 182.5,-792 188.5,-792 194.5,-798 194.5,-804 194.5,-804 194.5,-816 194.5,-816 194.5,-822 188.5,-828 182.5,-828"/>
<text text-anchor="middle" x="118" y="-807.5" font-family="sans" font-size="10.00" fill="#000000">shard_saturated_reads_remove</text>
</g>
<!-- 2&#45;&gt;7 -->
<g id="edge13" class="edge">
<title>2&#45;&gt;7</title>
<path fill="none" stroke="#c0c0c0" stroke-width="2" d="M36.0912,-1007.7694C33.6561,-976.4348 32.3466,-911.1851 57,-864 62.8334,-852.8353 71.991,-842.9032 81.4538,-834.6973"/>
<polygon fill="#c0c0c0" stroke="#c0c0c0" stroke-width="2" points="83.863,-837.2491 89.4081,-828.2211 79.4434,-831.8207 83.863,-837.2491"/>
</g>
<!-- 9 -->
<g id="node10" class="node">
<title>9</title>
<path fill="none" stroke="#56b9d8" stroke-width="2" d="M157.5,-972C157.5,-972 88.5,-972 88.5,-972 82.5,-972 76.5,-966 76.5,-960 76.5,-960 76.5,-948 76.5,-948 76.5,-942 82.5,-936 88.5,-936 88.5,-936 157.5,-936 157.5,-936 163.5,-936 169.5,-942 169.5,-948 169.5,-948 169.5,-960 169.5,-960 169.5,-966 163.5,-972 157.5,-972"/>
<text text-anchor="middle" x="123" y="-951.5" font-family="sans" font-size="10.00" fill="#000000">shard_count_alns</text>
</g>
<!-- 2&#45;&gt;9 -->
<g id="edge15" class="edge">
<title>2&#45;&gt;9</title>
<path fill="none" stroke="#c0c0c0" stroke-width="2" d="M59.4491,-1007.8314C69.8178,-999.0485 82.4229,-988.3712 93.6646,-978.8489"/>
<polygon fill="#c0c0c0" stroke="#c0c0c0" stroke-width="2" points="96.1895,-981.297 101.5578,-972.1628 91.6651,-975.9556 96.1895,-981.297"/>
</g>
<!-- 3 -->
<g id="node4" class="node">
<title>3</title>
<path fill="none" stroke="#c6d856" stroke-width="2" d="M94,-468C94,-468 54,-468 54,-468 48,-468 42,-462 42,-456 42,-456 42,-444 42,-444 42,-438 48,-432 54,-432 54,-432 94,-432 94,-432 100,-432 106,-438 106,-444 106,-444 106,-456 106,-456 106,-462 100,-468 94,-468"/>
<text text-anchor="middle" x="74" y="-447.5" font-family="sans" font-size="10.00" fill="#000000">align_stats</text>
</g>
<!-- 3&#45;&gt;1 -->
<g id="edge6" class="edge">
<title>3&#45;&gt;1</title>
<path fill="none" stroke="#c0c0c0" stroke-width="2" d="M66.3653,-431.7257C55.7979,-404.7325 38,-352.3849 38,-306 38,-306 38,-306 38,-234 38,-192.0688 54.6152,-145.918 66.9448,-117.4435"/>
<polygon fill="#c0c0c0" stroke="#c0c0c0" stroke-width="2" points="70.2152,-118.7032 71.0929,-108.1447 63.8225,-115.8513 70.2152,-118.7032"/>
</g>
<!-- 4 -->
<g id="node5" class="node">
<title>4</title>
<path fill="none" stroke="#d88556" stroke-width="2" d="M140.5,-612C140.5,-612 95.5,-612 95.5,-612 89.5,-612 83.5,-606 83.5,-600 83.5,-600 83.5,-588 83.5,-588 83.5,-582 89.5,-576 95.5,-576 95.5,-576 140.5,-576 140.5,-576 146.5,-576 152.5,-582 152.5,-588 152.5,-588 152.5,-600 152.5,-600 152.5,-606 146.5,-612 140.5,-612"/>
<text text-anchor="middle" x="118" y="-591.5" font-family="sans" font-size="10.00" fill="#000000">align_merge</text>
</g>
<!-- 4&#45;&gt;3 -->
<g id="edge8" class="edge">
<title>4&#45;&gt;3</title>
<path fill="none" stroke="#c0c0c0" stroke-width="2" d="M112.4274,-575.7623C104.8895,-551.0928 91.3738,-506.8598 82.5473,-477.9731"/>
<polygon fill="#c0c0c0" stroke="#c0c0c0" stroke-width="2" points="85.7969,-476.6303 79.5274,-468.0896 79.1024,-478.6759 85.7969,-476.6303"/>
</g>
<!-- 14 -->
<g id="node15" class="node">
<title>14</title>
<path fill="none" stroke="#d8bc56" stroke-width="2" d="M188,-540C188,-540 124,-540 124,-540 118,-540 112,-534 112,-528 112,-528 112,-516 112,-516 112,-510 118,-504 124,-504 124,-504 188,-504 188,-504 194,-504 200,-510 200,-516 200,-516 200,-528 200,-528 200,-534 194,-540 188,-540"/>
<text text-anchor="middle" x="156" y="-519.5" font-family="sans" font-size="10.00" fill="#000000">align_sort_coord</text>
</g>
<!-- 4&#45;&gt;14 -->
<g id="edge20" class="edge">
<title>4&#45;&gt;14</title>
<path fill="none" stroke="#c0c0c0" stroke-width="2" d="M127.589,-575.8314C131.8317,-567.7925 136.9121,-558.1666 141.596,-549.2918"/>
<polygon fill="#c0c0c0" stroke="#c0c0c0" stroke-width="2" points="144.7096,-550.8908 146.2819,-540.4133 138.5189,-547.6235 144.7096,-550.8908"/>
</g>
<!-- 5 -->
<g id="node6" class="node">
<title>5</title>
<path fill="none" stroke="#5673d8" stroke-width="2" d="M152,-684C152,-684 84,-684 84,-684 78,-684 72,-678 72,-672 72,-672 72,-660 72,-660 72,-654 78,-648 84,-648 84,-648 152,-648 152,-648 158,-648 164,-654 164,-660 164,-660 164,-672 164,-672 164,-678 158,-684 152,-684"/>
<text text-anchor="middle" x="118" y="-663.5" font-family="sans" font-size="10.00" fill="#000000">shard_sort_query</text>
</g>
<!-- 5&#45;&gt;4 -->
<g id="edge9" class="edge">
<title>5&#45;&gt;4</title>
<path fill="none" stroke="#c0c0c0" stroke-width="2" d="M118,-647.8314C118,-640.131 118,-630.9743 118,-622.4166"/>
<polygon fill="#c0c0c0" stroke="#c0c0c0" stroke-width="2" points="121.5001,-622.4132 118,-612.4133 114.5001,-622.4133 121.5001,-622.4132"/>
</g>
<!-- 6 -->
<g id="node7" class="node">
<title>6</title>
<path fill="none" stroke="#56d0d8" stroke-width="2" d="M158,-756C158,-756 78,-756 78,-756 72,-756 66,-750 66,-744 66,-744 66,-732 66,-732 66,-726 72,-720 78,-720 78,-720 158,-720 158,-720 164,-720 170,-726 170,-732 170,-732 170,-744 170,-744 170,-750 164,-756 158,-756"/>
<text text-anchor="middle" x="118" y="-735.5" font-family="sans" font-size="10.00" fill="#000000">shard_clean_header</text>
</g>
<!-- 6&#45;&gt;5 -->
<g id="edge10" class="edge">
<title>6&#45;&gt;5</title>
<path fill="none" stroke="#c0c0c0" stroke-width="2" d="M118,-719.8314C118,-712.131 118,-702.9743 118,-694.4166"/>
<polygon fill="#c0c0c0" stroke="#c0c0c0" stroke-width="2" points="121.5001,-694.4132 118,-684.4133 114.5001,-694.4133 121.5001,-694.4132"/>
</g>
<!-- 7&#45;&gt;6 -->
<g id="edge11" class="edge">
<title>7&#45;&gt;6</title>
<path fill="none" stroke="#c0c0c0" stroke-width="2" d="M118,-791.8314C118,-784.131 118,-774.9743 118,-766.4166"/>
<polygon fill="#c0c0c0" stroke="#c0c0c0" stroke-width="2" points="121.5001,-766.4132 118,-756.4133 114.5001,-766.4133 121.5001,-766.4132"/>
</g>
<!-- 8 -->
<g id="node9" class="node">
<title>8</title>
<path fill="none" stroke="#56a2d8" stroke-width="2" d="M188,-900C188,-900 78,-900 78,-900 72,-900 66,-894 66,-888 66,-888 66,-876 66,-876 66,-870 72,-864 78,-864 78,-864 188,-864 188,-864 194,-864 200,-870 200,-876 200,-876 200,-888 200,-888 200,-894 194,-900 188,-900"/>
<text text-anchor="middle" x="133" y="-879.5" font-family="sans" font-size="10.00" fill="#000000">shard_saturated_reads_get</text>
</g>
<!-- 8&#45;&gt;7 -->
<g id="edge12" class="edge">
<title>8&#45;&gt;7</title>
<path fill="none" stroke="#c0c0c0" stroke-width="2" d="M129.2149,-863.8314C127.6106,-856.131 125.703,-846.9743 123.9201,-838.4166"/>
<polygon fill="#c0c0c0" stroke="#c0c0c0" stroke-width="2" points="127.3021,-837.4892 121.8361,-828.4133 120.4493,-838.9169 127.3021,-837.4892"/>
</g>
<!-- 9&#45;&gt;8 -->
<g id="edge14" class="edge">
<title>9&#45;&gt;8</title>
<path fill="none" stroke="#c0c0c0" stroke-width="2" d="M125.5234,-935.8314C126.5929,-928.131 127.8647,-918.9743 129.0532,-910.4166"/>
<polygon fill="#c0c0c0" stroke="#c0c0c0" stroke-width="2" points="132.5336,-910.7997 130.4426,-900.4133 125.6001,-909.8367 132.5336,-910.7997"/>
</g>
<!-- 10 -->
<g id="node11" class="node">
<title>10</title>
<path fill="none" stroke="#56d892" stroke-width="2" d="M130,-252C130,-252 78,-252 78,-252 72,-252 66,-246 66,-240 66,-240 66,-228 66,-228 66,-222 72,-216 78,-216 78,-216 130,-216 130,-216 136,-216 142,-222 142,-228 142,-228 142,-240 142,-240 142,-246 136,-252 130,-252"/>
<text text-anchor="middle" x="104" y="-231.5" font-family="sans" font-size="10.00" fill="#000000">metadmg_dfit</text>
</g>
<!-- 10&#45;&gt;1 -->
<g id="edge4" class="edge">
<title>10&#45;&gt;1</title>
<path fill="none" stroke="#c0c0c0" stroke-width="2" d="M100.9604,-215.7623C96.8488,-191.0928 89.4766,-146.8598 84.6622,-117.9731"/>
<polygon fill="#c0c0c0" stroke="#c0c0c0" stroke-width="2" points="88.1114,-117.3781 83.0149,-108.0896 81.2066,-118.529 88.1114,-117.3781"/>
</g>
<!-- 15 -->
<g id="node16" class="node">
<title>15</title>
<path fill="none" stroke="#56d863" stroke-width="2" d="M201.5,-180C201.5,-180 120.5,-180 120.5,-180 114.5,-180 108.5,-174 108.5,-168 108.5,-168 108.5,-156 108.5,-156 108.5,-150 114.5,-144 120.5,-144 120.5,-144 201.5,-144 201.5,-144 207.5,-144 213.5,-150 213.5,-156 213.5,-156 213.5,-168 213.5,-168 213.5,-174 207.5,-180 201.5,-180"/>
<text text-anchor="middle" x="161" y="-159.5" font-family="sans" font-size="10.00" fill="#000000">metadmg_aggregate</text>
</g>
<!-- 10&#45;&gt;15 -->
<g id="edge22" class="edge">
<title>10&#45;&gt;15</title>
<path fill="none" stroke="#c0c0c0" stroke-width="2" d="M118.3835,-215.8314C124.9486,-207.5386 132.8507,-197.557 140.0578,-188.4533"/>
<polygon fill="#c0c0c0" stroke="#c0c0c0" stroke-width="2" points="142.9599,-190.4262 146.4228,-180.4133 137.4716,-186.0813 142.9599,-190.4262"/>
</g>
<!-- 11 -->
<g id="node12" class="node">
<title>11</title>
<path fill="none" stroke="#56d8a9" stroke-width="2" d="M191.5,-324C191.5,-324 140.5,-324 140.5,-324 134.5,-324 128.5,-318 128.5,-312 128.5,-312 128.5,-300 128.5,-300 128.5,-294 134.5,-288 140.5,-288 140.5,-288 191.5,-288 191.5,-288 197.5,-288 203.5,-294 203.5,-300 203.5,-300 203.5,-312 203.5,-312 203.5,-318 197.5,-324 191.5,-324"/>
<text text-anchor="middle" x="166" y="-303.5" font-family="sans" font-size="10.00" fill="#000000">metadmg_lca</text>
</g>
<!-- 11&#45;&gt;10 -->
<g id="edge16" class="edge">
<title>11&#45;&gt;10</title>
<path fill="none" stroke="#c0c0c0" stroke-width="2" d="M150.3548,-287.8314C143.1409,-279.454 134.443,-269.3531 126.5395,-260.1749"/>
<polygon fill="#c0c0c0" stroke="#c0c0c0" stroke-width="2" points="129.0333,-257.7071 119.8559,-252.4133 123.7289,-262.2748 129.0333,-257.7071"/>
</g>
<!-- 11&#45;&gt;15 -->
<g id="edge21" class="edge">
<title>11&#45;&gt;15</title>
<path fill="none" stroke="#c0c0c0" stroke-width="2" d="M165.3667,-287.7623C164.5139,-263.201 162.9878,-219.2474 161.9845,-190.3541"/>
<polygon fill="#c0c0c0" stroke="#c0c0c0" stroke-width="2" points="165.4731,-189.9621 161.6281,-180.0896 158.4773,-190.2051 165.4731,-189.9621"/>
</g>
<!-- 12 -->
<g id="node13" class="node">
<title>12</title>
<path fill="none" stroke="#d8d356" stroke-width="2" d="M198,-396C198,-396 134,-396 134,-396 128,-396 122,-390 122,-384 122,-384 122,-372 122,-372 122,-366 128,-360 134,-360 134,-360 198,-360 198,-360 204,-360 210,-366 210,-372 210,-372 210,-384 210,-384 210,-390 204,-396 198,-396"/>
<text text-anchor="middle" x="166" y="-375.5" font-family="sans" font-size="10.00" fill="#000000">align_sort_query</text>
</g>
<!-- 12&#45;&gt;11 -->
<g id="edge17" class="edge">
<title>12&#45;&gt;11</title>
<path fill="none" stroke="#c0c0c0" stroke-width="2" d="M166,-359.8314C166,-352.131 166,-342.9743 166,-334.4166"/>
<polygon fill="#c0c0c0" stroke="#c0c0c0" stroke-width="2" points="169.5001,-334.4132 166,-324.4133 162.5001,-334.4133 169.5001,-334.4132"/>
</g>
<!-- 16 -->
<g id="node17" class="node">
<title>16</title>
<path fill="none" stroke="#56d87b" stroke-width="2" d="M283.5,-252C283.5,-252 210.5,-252 210.5,-252 204.5,-252 198.5,-246 198.5,-240 198.5,-240 198.5,-228 198.5,-228 198.5,-222 204.5,-216 210.5,-216 210.5,-216 283.5,-216 283.5,-216 289.5,-216 295.5,-222 295.5,-228 295.5,-228 295.5,-240 295.5,-240 295.5,-246 289.5,-252 283.5,-252"/>
<text text-anchor="middle" x="247" y="-231.5" font-family="sans" font-size="10.00" fill="#000000">metadmg_damage</text>
</g>
<!-- 12&#45;&gt;16 -->
<g id="edge23" class="edge">
<title>12&#45;&gt;16</title>
<path fill="none" stroke="#c0c0c0" stroke-width="2" d="M184.7571,-359.8012C194.1822,-349.8897 205.221,-337.0155 213,-324 224.6584,-304.4935 233.5282,-280.3002 239.2805,-261.9114"/>
<polygon fill="#c0c0c0" stroke="#c0c0c0" stroke-width="2" points="242.7036,-262.6816 242.229,-252.0974 235.9996,-260.6674 242.7036,-262.6816"/>
</g>
<!-- 13 -->
<g id="node14" class="node">
<title>13</title>
<path fill="none" stroke="#d85656" stroke-width="2" d="M180.5,-468C180.5,-468 143.5,-468 143.5,-468 137.5,-468 131.5,-462 131.5,-456 131.5,-456 131.5,-444 131.5,-444 131.5,-438 137.5,-432 143.5,-432 143.5,-432 180.5,-432 180.5,-432 186.5,-432 192.5,-438 192.5,-444 192.5,-444 192.5,-456 192.5,-456 192.5,-462 186.5,-468 180.5,-468"/>
<text text-anchor="middle" x="162" y="-447.5" font-family="sans" font-size="10.00" fill="#000000">align_filter</text>
</g>
<!-- 13&#45;&gt;12 -->
<g id="edge18" class="edge">
<title>13&#45;&gt;12</title>
<path fill="none" stroke="#c0c0c0" stroke-width="2" d="M163.0094,-431.8314C163.4372,-424.131 163.9459,-414.9743 164.4213,-406.4166"/>
<polygon fill="#c0c0c0" stroke="#c0c0c0" stroke-width="2" points="167.9169,-406.592 164.977,-396.4133 160.9276,-406.2037 167.9169,-406.592"/>
</g>
<!-- 14&#45;&gt;13 -->
<g id="edge19" class="edge">
<title>14&#45;&gt;13</title>
<path fill="none" stroke="#c0c0c0" stroke-width="2" d="M157.5141,-503.8314C158.1558,-496.131 158.9188,-486.9743 159.6319,-478.4166"/>
<polygon fill="#c0c0c0" stroke="#c0c0c0" stroke-width="2" points="163.1229,-478.6694 160.4656,-468.4133 156.1471,-478.088 163.1229,-478.6694"/>
</g>
<!-- 15&#45;&gt;0 -->
<g id="edge2" class="edge">
<title>15&#45;&gt;0</title>
<path fill="none" stroke="#c0c0c0" stroke-width="2" d="M161,-143.7623C161,-119.201 161,-75.2474 161,-46.3541"/>
<polygon fill="#c0c0c0" stroke="#c0c0c0" stroke-width="2" points="164.5001,-46.0896 161,-36.0896 157.5001,-46.0897 164.5001,-46.0896"/>
</g>
<!-- 15&#45;&gt;1 -->
<g id="edge5" class="edge">
<title>15&#45;&gt;1</title>
<path fill="none" stroke="#c0c0c0" stroke-width="2" d="M140.5603,-143.8314C130.6795,-135.0485 118.6676,-124.3712 107.955,-114.8489"/>
<polygon fill="#c0c0c0" stroke="#c0c0c0" stroke-width="2" points="110.2326,-112.1906 100.4332,-108.1628 105.582,-117.4224 110.2326,-112.1906"/>
</g>
<!-- 16&#45;&gt;0 -->
<g id="edge3" class="edge">
<title>16&#45;&gt;0</title>
<path fill="none" stroke="#c0c0c0" stroke-width="2" d="M243.2406,-215.7432C239.1917,-197.3248 232.0889,-168.2247 223,-144 209.7864,-108.7818 189.9795,-70.2471 176.3265,-45.1862"/>
<polygon fill="#c0c0c0" stroke="#c0c0c0" stroke-width="2" points="179.3103,-43.3486 171.4217,-36.276 173.178,-46.7243 179.3103,-43.3486"/>
</g>
</g>
</svg>
