<?xml version="1.0" encoding="UTF-8" standalone="no"?>
<!DOCTYPE svg PUBLIC "-//W3C//DTD SVG 1.1//EN"
 "http://www.w3.org/Graphics/SVG/1.1/DTD/svg11.dtd">
<!-- Generated by graphviz version 2.40.1 (0)
 -->
<!-- Title: snakemake_dag Pages: 1 -->
<svg width="304pt" height="836pt"
 viewBox="0.00 0.00 303.50 836.00" xmlns="http://www.w3.org/2000/svg" xmlns:xlink="http://www.w3.org/1999/xlink">
<g id="graph0" class="graph" transform="scale(1 1) rotate(0) translate(4 832)">
<title>snakemake_dag</title>
<polygon fill="#ffffff" stroke="transparent" points="-4,4 -4,-832 299.5,-832 299.5,4 -4,4"/>
<!-- 0 -->
<g id="node1" class="node">
<title>0</title>
<path fill="none" stroke="#8fd856" stroke-width="2" d="M176,-36C176,-36 146,-36 146,-36 140,-36 134,-30 134,-24 134,-24 134,-12 134,-12 134,-6 140,0 146,0 146,0 176,0 176,0 182,0 188,-6 188,-12 188,-12 188,-24 188,-24 188,-30 182,-36 176,-36"/>
<text text-anchor="middle" x="161" y="-15.5" font-family="sans" font-size="10.00" fill="#000000">all</text>
</g>
<!-- 1 -->
<g id="node2" class="node">
<title>1</title>
<path fill="none" stroke="#56a9d8" stroke-width="2" d="M95,-108C95,-108 65,-108 65,-108 59,-108 53,-102 53,-96 53,-96 53,-84 53,-84 53,-78 59,-72 65,-72 65,-72 95,-72 95,-72 101,-72 107,-78 107,-84 107,-84 107,-96 107,-96 107,-102 101,-108 95,-108"/>
<text text-anchor="middle" x="80" y="-87.5" font-family="sans" font-size="10.00" fill="#000000">multiqc</text>
</g>
<!-- 1&#45;&gt;0 -->
<g id="edge1" class="edge">
<title>1&#45;&gt;0</title>
<path fill="none" stroke="#c0c0c0" stroke-width="2" d="M100.4397,-71.8314C110.3205,-63.0485 122.3324,-52.3712 133.045,-42.8489"/>
<polygon fill="#c0c0c0" stroke="#c0c0c0" stroke-width="2" points="135.418,-45.4224 140.5668,-36.1628 130.7674,-40.1906 135.418,-45.4224"/>
</g>
<!-- 2 -->
<g id="node3" class="node">
<title>2</title>
<path fill="none" stroke="#70d856" stroke-width="2" d="M55,-828C55,-828 25,-828 25,-828 19,-828 13,-822 13,-816 13,-816 13,-804 13,-804 13,-798 19,-792 25,-792 25,-792 55,-792 55,-792 61,-792 67,-798 67,-804 67,-804 67,-816 67,-816 67,-822 61,-828 55,-828"/>
<text text-anchor="middle" x="40" y="-807.5" font-family="sans" font-size="10.00" fill="#000000">bowtie2</text>
</g>
<!-- 2&#45;&gt;1 -->
<g id="edge5" class="edge">
<title>2&#45;&gt;1</title>
<path fill="none" stroke="#c0c0c0" stroke-width="2" d="M31.517,-791.81C19.7754,-764.9218 0,-712.7039 0,-666 0,-666 0,-666 0,-234 0,-187.9277 31.6802,-142.8164 55.1688,-115.7014"/>
<polygon fill="#c0c0c0" stroke="#c0c0c0" stroke-width="2" points="57.8025,-118.0067 61.8468,-108.2141 52.5785,-113.3474 57.8025,-118.0067"/>
</g>
<!-- 6 -->
<g id="node7" class="node">
<title>6</title>
<path fill="none" stroke="#5692d8" stroke-width="2" d="M120,-756C120,-756 40,-756 40,-756 34,-756 28,-750 28,-744 28,-744 28,-732 28,-732 28,-726 34,-720 40,-720 40,-720 120,-720 120,-720 126,-720 132,-726 132,-732 132,-732 132,-744 132,-744 132,-750 126,-756 120,-756"/>
<text text-anchor="middle" x="80" y="-735.5" font-family="sans" font-size="10.00" fill="#000000">shard_clean_header</text>
</g>
<!-- 2&#45;&gt;6 -->
<g id="edge11" class="edge">
<title>2&#45;&gt;6</title>
<path fill="none" stroke="#c0c0c0" stroke-width="2" d="M50.0937,-791.8314C54.5597,-783.7925 59.9075,-774.1666 64.8379,-765.2918"/>
<polygon fill="#c0c0c0" stroke="#c0c0c0" stroke-width="2" points="67.9735,-766.8546 69.7704,-756.4133 61.8544,-763.4551 67.9735,-766.8546"/>
</g>
<!-- 3 -->
<g id="node4" class="node">
<title>3</title>
<path fill="none" stroke="#afd856" stroke-width="2" d="M90,-468C90,-468 50,-468 50,-468 44,-468 38,-462 38,-456 38,-456 38,-444 38,-444 38,-438 44,-432 50,-432 50,-432 90,-432 90,-432 96,-432 102,-438 102,-444 102,-444 102,-456 102,-456 102,-462 96,-468 90,-468"/>
<text text-anchor="middle" x="70" y="-447.5" font-family="sans" font-size="10.00" fill="#000000">align_stats</text>
</g>
<!-- 3&#45;&gt;1 -->
<g id="edge6" class="edge">
<title>3&#45;&gt;1</title>
<path fill="none" stroke="#c0c0c0" stroke-width="2" d="M63.2136,-431.6497C53.8203,-404.5619 38,-352.0977 38,-306 38,-306 38,-306 38,-234 38,-192.0688 54.6152,-145.918 66.9448,-117.4435"/>
<polygon fill="#c0c0c0" stroke="#c0c0c0" stroke-width="2" points="70.2152,-118.7032 71.0929,-108.1447 63.8225,-115.8513 70.2152,-118.7032"/>
</g>
<!-- 4 -->
<g id="node5" class="node">
<title>4</title>
<path fill="none" stroke="#d88d56" stroke-width="2" d="M102.5,-612C102.5,-612 57.5,-612 57.5,-612 51.5,-612 45.5,-606 45.5,-600 45.5,-600 45.5,-588 45.5,-588 45.5,-582 51.5,-576 57.5,-576 57.5,-576 102.5,-576 102.5,-576 108.5,-576 114.5,-582 114.5,-588 114.5,-588 114.5,-600 114.5,-600 114.5,-606 108.5,-612 102.5,-612"/>
<text text-anchor="middle" x="80" y="-591.5" font-family="sans" font-size="10.00" fill="#000000">align_merge</text>
</g>
<!-- 4&#45;&gt;3 -->
<g id="edge8" class="edge">
<title>4&#45;&gt;3</title>
<path fill="none" stroke="#c0c0c0" stroke-width="2" d="M78.7335,-575.7623C77.0279,-551.201 73.9755,-507.2474 71.969,-478.3541"/>
<polygon fill="#c0c0c0" stroke="#c0c0c0" stroke-width="2" points="75.4407,-477.8231 71.2562,-468.0896 68.4575,-478.3081 75.4407,-477.8231"/>
</g>
<!-- 11 -->
<g id="node12" class="node">
<title>11</title>
<path fill="none" stroke="#d8cb56" stroke-width="2" d="M183,-540C183,-540 119,-540 119,-540 113,-540 107,-534 107,-528 107,-528 107,-516 107,-516 107,-510 113,-504 119,-504 119,-504 183,-504 183,-504 189,-504 195,-510 195,-516 195,-516 195,-528 195,-528 195,-534 189,-540 183,-540"/>
<text text-anchor="middle" x="151" y="-519.5" font-family="sans" font-size="10.00" fill="#000000">align_sort_coord</text>
</g>
<!-- 4&#45;&gt;11 -->
<g id="edge16" class="edge">
<title>4&#45;&gt;11</title>
<path fill="none" stroke="#c0c0c0" stroke-width="2" d="M97.9163,-575.8314C106.3442,-567.2848 116.541,-556.9443 125.736,-547.6198"/>
<polygon fill="#c0c0c0" stroke="#c0c0c0" stroke-width="2" points="128.3131,-549.9912 132.8425,-540.4133 123.3289,-545.0761 128.3131,-549.9912"/>
</g>
<!-- 5 -->
<g id="node6" class="node">
<title>5</title>
<path fill="none" stroke="#5673d8" stroke-width="2" d="M114,-684C114,-684 46,-684 46,-684 40,-684 34,-678 34,-672 34,-672 34,-660 34,-660 34,-654 40,-648 46,-648 46,-648 114,-648 114,-648 120,-648 126,-654 126,-660 126,-660 126,-672 126,-672 126,-678 120,-684 114,-684"/>
<text text-anchor="middle" x="80" y="-663.5" font-family="sans" font-size="10.00" fill="#000000">shard_sort_query</text>
</g>
<!-- 5&#45;&gt;4 -->
<g id="edge9" class="edge">
<title>5&#45;&gt;4</title>
<path fill="none" stroke="#c0c0c0" stroke-width="2" d="M80,-647.8314C80,-640.131 80,-630.9743 80,-622.4166"/>
<polygon fill="#c0c0c0" stroke="#c0c0c0" stroke-width="2" points="83.5001,-622.4132 80,-612.4133 76.5001,-622.4133 83.5001,-622.4132"/>
</g>
<!-- 6&#45;&gt;5 -->
<g id="edge10" class="edge">
<title>6&#45;&gt;5</title>
<path fill="none" stroke="#c0c0c0" stroke-width="2" d="M80,-719.8314C80,-712.131 80,-702.9743 80,-694.4166"/>
<polygon fill="#c0c0c0" stroke="#c0c0c0" stroke-width="2" points="83.5001,-694.4132 80,-684.4133 76.5001,-694.4133 83.5001,-694.4132"/>
</g>
<!-- 7 -->
<g id="node8" class="node">
<title>7</title>
<path fill="none" stroke="#56d8c9" stroke-width="2" d="M130,-252C130,-252 78,-252 78,-252 72,-252 66,-246 66,-240 66,-240 66,-228 66,-228 66,-222 72,-216 78,-216 78,-216 130,-216 130,-216 136,-216 142,-222 142,-228 142,-228 142,-240 142,-240 142,-246 136,-252 130,-252"/>
<text text-anchor="middle" x="104" y="-231.5" font-family="sans" font-size="10.00" fill="#000000">metadmg_dfit</text>
</g>
<!-- 7&#45;&gt;1 -->
<g id="edge4" class="edge">
<title>7&#45;&gt;1</title>
<path fill="none" stroke="#c0c0c0" stroke-width="2" d="M100.9604,-215.7623C96.8488,-191.0928 89.4766,-146.8598 84.6622,-117.9731"/>
<polygon fill="#c0c0c0" stroke="#c0c0c0" stroke-width="2" points="88.1114,-117.3781 83.0149,-108.0896 81.2066,-118.529 88.1114,-117.3781"/>
</g>
<!-- 12 -->
<g id="node13" class="node">
<title>12</title>
<path fill="none" stroke="#56d892" stroke-width="2" d="M201.5,-180C201.5,-180 120.5,-180 120.5,-180 114.5,-180 108.5,-174 108.5,-168 108.5,-168 108.5,-156 108.5,-156 108.5,-150 114.5,-144 120.5,-144 120.5,-144 201.5,-144 201.5,-144 207.5,-144 213.5,-150 213.5,-156 213.5,-156 213.5,-168 213.5,-168 213.5,-174 207.5,-180 201.5,-180"/>
<text text-anchor="middle" x="161" y="-159.5" font-family="sans" font-size="10.00" fill="#000000">metadmg_aggregate</text>
</g>
<!-- 7&#45;&gt;12 -->
<g id="edge17" class="edge">
<title>7&#45;&gt;12</title>
<path fill="none" stroke="#c0c0c0" stroke-width="2" d="M118.3835,-215.8314C124.9486,-207.5386 132.8507,-197.557 140.0578,-188.4533"/>
<polygon fill="#c0c0c0" stroke="#c0c0c0" stroke-width="2" points="142.9599,-190.4262 146.4228,-180.4133 137.4716,-186.0813 142.9599,-190.4262"/>
</g>
<!-- 8 -->
<g id="node9" class="node">
<title>8</title>
<path fill="none" stroke="#56c9d8" stroke-width="2" d="M190.5,-324C190.5,-324 139.5,-324 139.5,-324 133.5,-324 127.5,-318 127.5,-312 127.5,-312 127.5,-300 127.5,-300 127.5,-294 133.5,-288 139.5,-288 139.5,-288 190.5,-288 190.5,-288 196.5,-288 202.5,-294 202.5,-300 202.5,-300 202.5,-312 202.5,-312 202.5,-318 196.5,-324 190.5,-324"/>
<text text-anchor="middle" x="165" y="-303.5" font-family="sans" font-size="10.00" fill="#000000">metadmg_lca</text>
</g>
<!-- 8&#45;&gt;7 -->
<g id="edge12" class="edge">
<title>8&#45;&gt;7</title>
<path fill="none" stroke="#c0c0c0" stroke-width="2" d="M149.6071,-287.8314C142.5096,-279.454 133.952,-269.3531 126.176,-260.1749"/>
<polygon fill="#c0c0c0" stroke="#c0c0c0" stroke-width="2" points="128.7348,-257.7807 119.6001,-252.4133 123.3939,-262.3056 128.7348,-257.7807"/>
</g>
<!-- 8&#45;&gt;12 -->
<g id="edge18" class="edge">
<title>8&#45;&gt;12</title>
<path fill="none" stroke="#c0c0c0" stroke-width="2" d="M164.4934,-287.7623C163.8111,-263.201 162.5902,-219.2474 161.7876,-190.3541"/>
<polygon fill="#c0c0c0" stroke="#c0c0c0" stroke-width="2" points="165.2789,-189.9885 161.5025,-180.0896 158.2816,-190.183 165.2789,-189.9885"/>
</g>
<!-- 9 -->
<g id="node10" class="node">
<title>9</title>
<path fill="none" stroke="#c6d856" stroke-width="2" d="M197,-396C197,-396 133,-396 133,-396 127,-396 121,-390 121,-384 121,-384 121,-372 121,-372 121,-366 127,-360 133,-360 133,-360 197,-360 197,-360 203,-360 209,-366 209,-372 209,-372 209,-384 209,-384 209,-390 203,-396 197,-396"/>
<text text-anchor="middle" x="165" y="-375.5" font-family="sans" font-size="10.00" fill="#000000">align_sort_query</text>
</g>
<!-- 9&#45;&gt;8 -->
<g id="edge13" class="edge">
<title>9&#45;&gt;8</title>
<path fill="none" stroke="#c0c0c0" stroke-width="2" d="M165,-359.8314C165,-352.131 165,-342.9743 165,-334.4166"/>
<polygon fill="#c0c0c0" stroke="#c0c0c0" stroke-width="2" points="168.5001,-334.4132 165,-324.4133 161.5001,-334.4133 168.5001,-334.4132"/>
</g>
<!-- 13 -->
<g id="node14" class="node">
<title>13</title>
<path fill="none" stroke="#56d8a9" stroke-width="2" d="M283.5,-252C283.5,-252 210.5,-252 210.5,-252 204.5,-252 198.5,-246 198.5,-240 198.5,-240 198.5,-228 198.5,-228 198.5,-222 204.5,-216 210.5,-216 210.5,-216 283.5,-216 283.5,-216 289.5,-216 295.5,-222 295.5,-228 295.5,-228 295.5,-240 295.5,-240 295.5,-246 289.5,-252 283.5,-252"/>
<text text-anchor="middle" x="247" y="-231.5" font-family="sans" font-size="10.00" fill="#000000">metadmg_damage</text>
</g>
<!-- 9&#45;&gt;13 -->
<g id="edge19" class="edge">
<title>9&#45;&gt;13</title>
<path fill="none" stroke="#c0c0c0" stroke-width="2" d="M183.2344,-359.6761C192.425,-349.7304 203.2361,-336.8633 211,-324 222.8864,-304.3064 232.3428,-279.9852 238.5754,-261.5925"/>
<polygon fill="#c0c0c0" stroke="#c0c0c0" stroke-width="2" points="241.9139,-262.6439 241.7013,-252.0512 235.2618,-260.4645 241.9139,-262.6439"/>
</g>
<!-- 10 -->
<g id="node11" class="node">
<title>10</title>
<path fill="none" stroke="#d85656" stroke-width="2" d="M178.5,-468C178.5,-468 141.5,-468 141.5,-468 135.5,-468 129.5,-462 129.5,-456 129.5,-456 129.5,-444 129.5,-444 129.5,-438 135.5,-432 141.5,-432 141.5,-432 178.5,-432 178.5,-432 184.5,-432 190.5,-438 190.5,-444 190.5,-444 190.5,-456 190.5,-456 190.5,-462 184.5,-468 178.5,-468"/>
<text text-anchor="middle" x="160" y="-447.5" font-family="sans" font-size="10.00" fill="#000000">align_filter</text>
</g>
<!-- 10&#45;&gt;9 -->
<g id="edge14" class="edge">
<title>10&#45;&gt;9</title>
<path fill="none" stroke="#c0c0c0" stroke-width="2" d="M161.2617,-431.8314C161.7965,-424.131 162.4323,-414.9743 163.0266,-406.4166"/>
<polygon fill="#c0c0c0" stroke="#c0c0c0" stroke-width="2" points="166.52,-406.6317 163.7213,-396.4133 159.5368,-406.1467 166.52,-406.6317"/>
</g>
<!-- 11&#45;&gt;10 -->
<g id="edge15" class="edge">
<title>11&#45;&gt;10</title>
<path fill="none" stroke="#c0c0c0" stroke-width="2" d="M153.2711,-503.8314C154.2336,-496.131 155.3782,-486.9743 156.4479,-478.4166"/>
<polygon fill="#c0c0c0" stroke="#c0c0c0" stroke-width="2" points="159.9309,-478.7702 157.6983,-468.4133 152.9849,-477.9019 159.9309,-478.7702"/>
</g>
<!-- 12&#45;&gt;0 -->
<g id="edge2" class="edge">
<title>12&#45;&gt;0</title>
<path fill="none" stroke="#c0c0c0" stroke-width="2" d="M161,-143.7623C161,-119.201 161,-75.2474 161,-46.3541"/>
<polygon fill="#c0c0c0" stroke="#c0c0c0" stroke-width="2" points="164.5001,-46.0896 161,-36.0896 157.5001,-46.0897 164.5001,-46.0896"/>
</g>
<!-- 12&#45;&gt;1 -->
<g id="edge7" class="edge">
<title>12&#45;&gt;1</title>
<path fill="none" stroke="#c0c0c0" stroke-width="2" d="M140.5603,-143.8314C130.6795,-135.0485 118.6676,-124.3712 107.955,-114.8489"/>
<polygon fill="#c0c0c0" stroke="#c0c0c0" stroke-width="2" points="110.2326,-112.1906 100.4332,-108.1628 105.582,-117.4224 110.2326,-112.1906"/>
</g>
<!-- 13&#45;&gt;0 -->
<g id="edge3" class="edge">
<title>13&#45;&gt;0</title>
<path fill="none" stroke="#c0c0c0" stroke-width="2" d="M242.9552,-215.7645C238.6374,-197.3625 231.1624,-168.275 222,-144 208.7586,-108.9178 189.3207,-70.3552 175.9652,-45.2506"/>
<polygon fill="#c0c0c0" stroke="#c0c0c0" stroke-width="2" points="178.9854,-43.4766 171.17,-36.3233 172.8186,-46.789 178.9854,-43.4766"/>
</g>
</g>
</svg>
