<?xml version="1.0" encoding="UTF-8" standalone="no"?>
<!DOCTYPE svg PUBLIC "-//W3C//DTD SVG 1.1//EN"
 "http://www.w3.org/Graphics/SVG/1.1/DTD/svg11.dtd">
<!-- Generated by graphviz version 2.40.1 (0)
 -->
<!-- Title: snakemake_dag Pages: 1 -->
<svg width="1980pt" height="885pt"
 viewBox="0.00 0.00 1980.00 885.00" xmlns="http://www.w3.org/2000/svg" xmlns:xlink="http://www.w3.org/1999/xlink">
<g id="graph0" class="graph" transform="scale(1 1) rotate(0) translate(4 881)">
<title>snakemake_dag</title>
<polygon fill="#ffffff" stroke="transparent" points="-4,4 -4,-881 1976.0016,-881 1976.0016,4 -4,4"/>
<!-- 0 -->
<g id="node1" class="node">
<title>0</title>
<path fill="none" stroke="#b6d856" stroke-width="2" d="M936.5016,-36C936.5016,-36 906.5016,-36 906.5016,-36 900.5016,-36 894.5016,-30 894.5016,-24 894.5016,-24 894.5016,-12 894.5016,-12 894.5016,-6 900.5016,0 906.5016,0 906.5016,0 936.5016,0 936.5016,0 942.5016,0 948.5016,-6 948.5016,-12 948.5016,-12 948.5016,-24 948.5016,-24 948.5016,-30 942.5016,-36 936.5016,-36"/>
<text text-anchor="middle" x="921.5016" y="-15.5" font-family="sans" font-size="10.00" fill="#000000">all</text>
</g>
<!-- 1 -->
<g id="node2" class="node">
<title>1</title>
<path fill="none" stroke="#56d8b1" stroke-width="2" d="M1034.5016,-108C1034.5016,-108 1004.5016,-108 1004.5016,-108 998.5016,-108 992.5016,-102 992.5016,-96 992.5016,-96 992.5016,-84 992.5016,-84 992.5016,-78 998.5016,-72 1004.5016,-72 1004.5016,-72 1034.5016,-72 1034.5016,-72 1040.5016,-72 1046.5016,-78 1046.5016,-84 1046.5016,-84 1046.5016,-96 1046.5016,-96 1046.5016,-102 1040.5016,-108 1034.5016,-108"/>
<text text-anchor="middle" x="1019.5016" y="-87.5" font-family="sans" font-size="10.00" fill="#000000">multiqc</text>
</g>
<!-- 1&#45;&gt;0 -->
<g id="edge1" class="edge">
<title>1&#45;&gt;0</title>
<path fill="none" stroke="#c0c0c0" stroke-width="2" d="M994.7721,-71.8314C982.5855,-62.8779 967.7193,-51.9558 954.5705,-42.2955"/>
<polygon fill="#c0c0c0" stroke="#c0c0c0" stroke-width="2" points="956.3544,-39.263 946.2232,-36.1628 952.2098,-44.9042 956.3544,-39.263"/>
</g>
<!-- 2 -->
<g id="node3" class="node">
<title>2</title>
<path fill="none" stroke="#9fd856" stroke-width="2" d="M789.0016,-877C789.0016,-877 682.0016,-877 682.0016,-877 676.0016,-877 670.0016,-871 670.0016,-865 670.0016,-865 670.0016,-804 670.0016,-804 670.0016,-798 676.0016,-792 682.0016,-792 682.0016,-792 789.0016,-792 789.0016,-792 795.0016,-792 801.0016,-798 801.0016,-804 801.0016,-804 801.0016,-865 801.0016,-865 801.0016,-871 795.0016,-877 789.0016,-877"/>
<text text-anchor="middle" x="735.5016" y="-865" font-family="sans" font-size="10.00" fill="#000000">bowtie2</text>
<text text-anchor="middle" x="735.5016" y="-854" font-family="sans" font-size="10.00" fill="#000000">library: lib1</text>
<text text-anchor="middle" x="735.5016" y="-843" font-family="sans" font-size="10.00" fill="#000000">n_shard: 1</text>
<text text-anchor="middle" x="735.5016" y="-832" font-family="sans" font-size="10.00" fill="#000000">read_type_map: collapsed</text>
<text text-anchor="middle" x="735.5016" y="-821" font-family="sans" font-size="10.00" fill="#000000">ref: wgs_eukaryota</text>
<text text-anchor="middle" x="735.5016" y="-810" font-family="sans" font-size="10.00" fill="#000000">sample: HD827sonic_2</text>
<text text-anchor="middle" x="735.5016" y="-799" font-family="sans" font-size="10.00" fill="#000000">tot_shards: 2</text>
</g>
<!-- 2&#45;&gt;1 -->
<g id="edge11" class="edge">
<title>2&#45;&gt;1</title>
<path fill="none" stroke="#c0c0c0" stroke-width="2" d="M734.9756,-791.9545C734.4637,-740.719 733.9658,-652.0535 735.5016,-576 737.2797,-487.9462 743.5016,-466.0718 743.5016,-378 743.5016,-378 743.5016,-378 743.5016,-234 743.5016,-187.1222 760.6492,-171.6537 798.5016,-144 827.5642,-122.7678 927.2582,-104.3977 982.2842,-95.5759"/>
<polygon fill="#c0c0c0" stroke="#c0c0c0" stroke-width="2" points="983.0031,-99.0059 992.3359,-93.991 981.9127,-92.0913 983.0031,-99.0059"/>
</g>
<!-- 30 -->
<g id="node31" class="node">
<title>30</title>
<path fill="none" stroke="#5682d8" stroke-width="2" d="M913.0016,-612C913.0016,-612 784.0016,-612 784.0016,-612 778.0016,-612 772.0016,-606 772.0016,-600 772.0016,-600 772.0016,-588 772.0016,-588 772.0016,-582 778.0016,-576 784.0016,-576 784.0016,-576 913.0016,-576 913.0016,-576 919.0016,-576 925.0016,-582 925.0016,-588 925.0016,-588 925.0016,-600 925.0016,-600 925.0016,-606 919.0016,-612 913.0016,-612"/>
<text text-anchor="middle" x="848.5016" y="-591.5" font-family="sans" font-size="10.00" fill="#000000">shard_saturated_reads_remove</text>
</g>
<!-- 2&#45;&gt;30 -->
<g id="edge57" class="edge">
<title>2&#45;&gt;30</title>
<path fill="none" stroke="#c0c0c0" stroke-width="2" d="M751.8739,-791.9502C760.5121,-770.2146 771.5663,-743.4706 782.5016,-720 798.685,-685.2655 819.4991,-646.3445 833.3839,-621.0747"/>
<polygon fill="#c0c0c0" stroke="#c0c0c0" stroke-width="2" points="836.5721,-622.5413 838.342,-612.0954 830.4442,-619.1577 836.5721,-622.5413"/>
</g>
<!-- 34 -->
<g id="node35" class="node">
<title>34</title>
<path fill="none" stroke="#56c9d8" stroke-width="2" d="M873.0016,-756C873.0016,-756 804.0016,-756 804.0016,-756 798.0016,-756 792.0016,-750 792.0016,-744 792.0016,-744 792.0016,-732 792.0016,-732 792.0016,-726 798.0016,-720 804.0016,-720 804.0016,-720 873.0016,-720 873.0016,-720 879.0016,-720 885.0016,-726 885.0016,-732 885.0016,-732 885.0016,-744 885.0016,-744 885.0016,-750 879.0016,-756 873.0016,-756"/>
<text text-anchor="middle" x="838.5016" y="-735.5" font-family="sans" font-size="10.00" fill="#000000">shard_count_alns</text>
</g>
<!-- 2&#45;&gt;34 -->
<g id="edge64" class="edge">
<title>2&#45;&gt;34</title>
<path fill="none" stroke="#c0c0c0" stroke-width="2" d="M780.9787,-791.8928C791.4201,-782.1103 802.1964,-772.0141 811.5589,-763.2425"/>
<polygon fill="#c0c0c0" stroke="#c0c0c0" stroke-width="2" points="814.1478,-765.613 819.0524,-756.2218 809.3619,-760.5047 814.1478,-765.613"/>
</g>
<!-- 3 -->
<g id="node4" class="node">
<title>3</title>
<path fill="none" stroke="#9fd856" stroke-width="2" d="M1003.0016,-877C1003.0016,-877 896.0016,-877 896.0016,-877 890.0016,-877 884.0016,-871 884.0016,-865 884.0016,-865 884.0016,-804 884.0016,-804 884.0016,-798 890.0016,-792 896.0016,-792 896.0016,-792 1003.0016,-792 1003.0016,-792 1009.0016,-792 1015.0016,-798 1015.0016,-804 1015.0016,-804 1015.0016,-865 1015.0016,-865 1015.0016,-871 1009.0016,-877 1003.0016,-877"/>
<text text-anchor="middle" x="949.5016" y="-865" font-family="sans" font-size="10.00" fill="#000000">bowtie2</text>
<text text-anchor="middle" x="949.5016" y="-854" font-family="sans" font-size="10.00" fill="#000000">library: lib1</text>
<text text-anchor="middle" x="949.5016" y="-843" font-family="sans" font-size="10.00" fill="#000000">n_shard: 2</text>
<text text-anchor="middle" x="949.5016" y="-832" font-family="sans" font-size="10.00" fill="#000000">read_type_map: collapsed</text>
<text text-anchor="middle" x="949.5016" y="-821" font-family="sans" font-size="10.00" fill="#000000">ref: wgs_eukaryota</text>
<text text-anchor="middle" x="949.5016" y="-810" font-family="sans" font-size="10.00" fill="#000000">sample: HD827sonic_2</text>
<text text-anchor="middle" x="949.5016" y="-799" font-family="sans" font-size="10.00" fill="#000000">tot_shards: 2</text>
</g>
<!-- 3&#45;&gt;1 -->
<g id="edge12" class="edge">
<title>3&#45;&gt;1</title>
<path fill="none" stroke="#c0c0c0" stroke-width="2" d="M883.8189,-819.8819C848.2399,-808.4921 806.7208,-788.8917 782.5016,-756 682.8885,-620.7172 781.5016,-546.0006 781.5016,-378 781.5016,-378 781.5016,-378 781.5016,-234 781.5016,-141.4003 915.0173,-106.731 982.0441,-95.1608"/>
<polygon fill="#c0c0c0" stroke="#c0c0c0" stroke-width="2" points="982.8975,-98.5677 992.2,-93.4968 981.7656,-91.6598 982.8975,-98.5677"/>
</g>
<!-- 33 -->
<g id="node34" class="node">
<title>33</title>
<path fill="none" stroke="#56c9d8" stroke-width="2" d="M984.0016,-756C984.0016,-756 915.0016,-756 915.0016,-756 909.0016,-756 903.0016,-750 903.0016,-744 903.0016,-744 903.0016,-732 903.0016,-732 903.0016,-726 909.0016,-720 915.0016,-720 915.0016,-720 984.0016,-720 984.0016,-720 990.0016,-720 996.0016,-726 996.0016,-732 996.0016,-732 996.0016,-744 996.0016,-744 996.0016,-750 990.0016,-756 984.0016,-756"/>
<text text-anchor="middle" x="949.5016" y="-735.5" font-family="sans" font-size="10.00" fill="#000000">shard_count_alns</text>
</g>
<!-- 3&#45;&gt;33 -->
<g id="edge63" class="edge">
<title>3&#45;&gt;33</title>
<path fill="none" stroke="#c0c0c0" stroke-width="2" d="M949.5016,-791.8928C949.5016,-783.2842 949.5016,-774.4327 949.5016,-766.4546"/>
<polygon fill="#c0c0c0" stroke="#c0c0c0" stroke-width="2" points="953.0017,-766.2218 949.5016,-756.2218 946.0017,-766.2218 953.0017,-766.2218"/>
</g>
<!-- 40 -->
<g id="node41" class="node">
<title>40</title>
<path fill="none" stroke="#5682d8" stroke-width="2" d="M1084.0016,-612C1084.0016,-612 955.0016,-612 955.0016,-612 949.0016,-612 943.0016,-606 943.0016,-600 943.0016,-600 943.0016,-588 943.0016,-588 943.0016,-582 949.0016,-576 955.0016,-576 955.0016,-576 1084.0016,-576 1084.0016,-576 1090.0016,-576 1096.0016,-582 1096.0016,-588 1096.0016,-588 1096.0016,-600 1096.0016,-600 1096.0016,-606 1090.0016,-612 1084.0016,-612"/>
<text text-anchor="middle" x="1019.5016" y="-591.5" font-family="sans" font-size="10.00" fill="#000000">shard_saturated_reads_remove</text>
</g>
<!-- 3&#45;&gt;40 -->
<g id="edge71" class="edge">
<title>3&#45;&gt;40</title>
<path fill="none" stroke="#c0c0c0" stroke-width="2" d="M985.2416,-791.9278C992.8239,-780.85 999.915,-768.4975 1004.5016,-756 1020.8512,-711.4511 1022.2015,-655.6013 1021.1982,-622.4711"/>
<polygon fill="#c0c0c0" stroke="#c0c0c0" stroke-width="2" points="1024.6826,-622.008 1020.786,-612.1558 1017.6881,-622.2876 1024.6826,-622.008"/>
</g>
<!-- 4 -->
<g id="node5" class="node">
<title>4</title>
<path fill="none" stroke="#9fd856" stroke-width="2" d="M233.0016,-877C233.0016,-877 126.0016,-877 126.0016,-877 120.0016,-877 114.0016,-871 114.0016,-865 114.0016,-865 114.0016,-804 114.0016,-804 114.0016,-798 120.0016,-792 126.0016,-792 126.0016,-792 233.0016,-792 233.0016,-792 239.0016,-792 245.0016,-798 245.0016,-804 245.0016,-804 245.0016,-865 245.0016,-865 245.0016,-871 239.0016,-877 233.0016,-877"/>
<text text-anchor="middle" x="179.5016" y="-865" font-family="sans" font-size="10.00" fill="#000000">bowtie2</text>
<text text-anchor="middle" x="179.5016" y="-854" font-family="sans" font-size="10.00" fill="#000000">library: lib1</text>
<text text-anchor="middle" x="179.5016" y="-843" font-family="sans" font-size="10.00" fill="#000000">n_shard: 1</text>
<text text-anchor="middle" x="179.5016" y="-832" font-family="sans" font-size="10.00" fill="#000000">read_type_map: collapsed</text>
<text text-anchor="middle" x="179.5016" y="-821" font-family="sans" font-size="10.00" fill="#000000">ref: wgs_eukaryota</text>
<text text-anchor="middle" x="179.5016" y="-810" font-family="sans" font-size="10.00" fill="#000000">sample: HD827sonic_1</text>
<text text-anchor="middle" x="179.5016" y="-799" font-family="sans" font-size="10.00" fill="#000000">tot_shards: 2</text>
</g>
<!-- 4&#45;&gt;1 -->
<g id="edge13" class="edge">
<title>4&#45;&gt;1</title>
<path fill="none" stroke="#c0c0c0" stroke-width="2" d="M245.1321,-806.9912C259.8813,-801.4798 275.585,-796.1243 290.5016,-792 379.6617,-767.3482 424.7743,-815.6228 495.5016,-756 524.7372,-731.3545 553.5016,-632.2377 553.5016,-594 553.5016,-594 553.5016,-594 553.5016,-450 553.5016,-300.9918 561.7618,-219.0302 690.5016,-144 739.6373,-115.3635 907.1926,-98.8722 982.4164,-92.7539"/>
<polygon fill="#c0c0c0" stroke="#c0c0c0" stroke-width="2" points="982.7055,-96.2421 992.3961,-91.9592 982.1498,-89.2641 982.7055,-96.2421"/>
</g>
<!-- 15 -->
<g id="node16" class="node">
<title>15</title>
<path fill="none" stroke="#5682d8" stroke-width="2" d="M171.0016,-612C171.0016,-612 42.0016,-612 42.0016,-612 36.0016,-612 30.0016,-606 30.0016,-600 30.0016,-600 30.0016,-588 30.0016,-588 30.0016,-582 36.0016,-576 42.0016,-576 42.0016,-576 171.0016,-576 171.0016,-576 177.0016,-576 183.0016,-582 183.0016,-588 183.0016,-588 183.0016,-600 183.0016,-600 183.0016,-606 177.0016,-612 171.0016,-612"/>
<text text-anchor="middle" x="106.5016" y="-591.5" font-family="sans" font-size="10.00" fill="#000000">shard_saturated_reads_remove</text>
</g>
<!-- 4&#45;&gt;15 -->
<g id="edge35" class="edge">
<title>4&#45;&gt;15</title>
<path fill="none" stroke="#c0c0c0" stroke-width="2" d="M143.2171,-791.9658C135.4937,-780.8869 128.2458,-768.5242 123.5016,-756 106.6711,-711.5693 104.6097,-655.6825 105.181,-622.513"/>
<polygon fill="#c0c0c0" stroke="#c0c0c0" stroke-width="2" points="108.6886,-622.2747 105.4582,-612.1844 101.6911,-622.0869 108.6886,-622.2747"/>
</g>
<!-- 19 -->
<g id="node20" class="node">
<title>19</title>
<path fill="none" stroke="#56c9d8" stroke-width="2" d="M214.0016,-756C214.0016,-756 145.0016,-756 145.0016,-756 139.0016,-756 133.0016,-750 133.0016,-744 133.0016,-744 133.0016,-732 133.0016,-732 133.0016,-726 139.0016,-720 145.0016,-720 145.0016,-720 214.0016,-720 214.0016,-720 220.0016,-720 226.0016,-726 226.0016,-732 226.0016,-732 226.0016,-744 226.0016,-744 226.0016,-750 220.0016,-756 214.0016,-756"/>
<text text-anchor="middle" x="179.5016" y="-735.5" font-family="sans" font-size="10.00" fill="#000000">shard_count_alns</text>
</g>
<!-- 4&#45;&gt;19 -->
<g id="edge42" class="edge">
<title>4&#45;&gt;19</title>
<path fill="none" stroke="#c0c0c0" stroke-width="2" d="M179.5016,-791.8928C179.5016,-783.2842 179.5016,-774.4327 179.5016,-766.4546"/>
<polygon fill="#c0c0c0" stroke="#c0c0c0" stroke-width="2" points="183.0017,-766.2218 179.5016,-756.2218 176.0017,-766.2218 183.0017,-766.2218"/>
</g>
<!-- 5 -->
<g id="node6" class="node">
<title>5</title>
<path fill="none" stroke="#9fd856" stroke-width="2" d="M1596.0016,-877C1596.0016,-877 1489.0016,-877 1489.0016,-877 1483.0016,-877 1477.0016,-871 1477.0016,-865 1477.0016,-865 1477.0016,-804 1477.0016,-804 1477.0016,-798 1483.0016,-792 1489.0016,-792 1489.0016,-792 1596.0016,-792 1596.0016,-792 1602.0016,-792 1608.0016,-798 1608.0016,-804 1608.0016,-804 1608.0016,-865 1608.0016,-865 1608.0016,-871 1602.0016,-877 1596.0016,-877"/>
<text text-anchor="middle" x="1542.5016" y="-865" font-family="sans" font-size="10.00" fill="#000000">bowtie2</text>
<text text-anchor="middle" x="1542.5016" y="-854" font-family="sans" font-size="10.00" fill="#000000">library: lib2</text>
<text text-anchor="middle" x="1542.5016" y="-843" font-family="sans" font-size="10.00" fill="#000000">n_shard: 2</text>
<text text-anchor="middle" x="1542.5016" y="-832" font-family="sans" font-size="10.00" fill="#000000">read_type_map: collapsed</text>
<text text-anchor="middle" x="1542.5016" y="-821" font-family="sans" font-size="10.00" fill="#000000">ref: wgs_eukaryota</text>
<text text-anchor="middle" x="1542.5016" y="-810" font-family="sans" font-size="10.00" fill="#000000">sample: HD827sonic_2</text>
<text text-anchor="middle" x="1542.5016" y="-799" font-family="sans" font-size="10.00" fill="#000000">tot_shards: 2</text>
</g>
<!-- 5&#45;&gt;1 -->
<g id="edge14" class="edge">
<title>5&#45;&gt;1</title>
<path fill="none" stroke="#c0c0c0" stroke-width="2" d="M1484.1314,-791.9658C1434.594,-753.6131 1371.5016,-698.4052 1371.5016,-666 1371.5016,-666 1371.5016,-666 1371.5016,-594 1371.5016,-496.6969 1203.2796,-297.7458 1150.5016,-216 1129.641,-183.6898 1129.8483,-171.042 1102.5016,-144 1088.7069,-130.359 1070.9451,-118.2509 1055.3945,-108.975"/>
<polygon fill="#c0c0c0" stroke="#c0c0c0" stroke-width="2" points="1056.949,-105.8308 1046.5408,-103.8507 1053.4424,-111.8892 1056.949,-105.8308"/>
</g>
<!-- 48 -->
<g id="node49" class="node">
<title>48</title>
<path fill="none" stroke="#56c9d8" stroke-width="2" d="M1706.0016,-756C1706.0016,-756 1637.0016,-756 1637.0016,-756 1631.0016,-756 1625.0016,-750 1625.0016,-744 1625.0016,-744 1625.0016,-732 1625.0016,-732 1625.0016,-726 1631.0016,-720 1637.0016,-720 1637.0016,-720 1706.0016,-720 1706.0016,-720 1712.0016,-720 1718.0016,-726 1718.0016,-732 1718.0016,-732 1718.0016,-744 1718.0016,-744 1718.0016,-750 1712.0016,-756 1706.0016,-756"/>
<text text-anchor="middle" x="1671.5016" y="-735.5" font-family="sans" font-size="10.00" fill="#000000">shard_count_alns</text>
</g>
<!-- 5&#45;&gt;48 -->
<g id="edge85" class="edge">
<title>5&#45;&gt;48</title>
<path fill="none" stroke="#c0c0c0" stroke-width="2" d="M1599.4584,-791.8928C1612.9278,-781.8168 1626.8422,-771.408 1638.8083,-762.4566"/>
<polygon fill="#c0c0c0" stroke="#c0c0c0" stroke-width="2" points="1641.232,-765.0145 1647.1429,-756.2218 1637.039,-759.4093 1641.232,-765.0145"/>
</g>
<!-- 55 -->
<g id="node56" class="node">
<title>55</title>
<path fill="none" stroke="#5682d8" stroke-width="2" d="M1750.0016,-612C1750.0016,-612 1621.0016,-612 1621.0016,-612 1615.0016,-612 1609.0016,-606 1609.0016,-600 1609.0016,-600 1609.0016,-588 1609.0016,-588 1609.0016,-582 1615.0016,-576 1621.0016,-576 1621.0016,-576 1750.0016,-576 1750.0016,-576 1756.0016,-576 1762.0016,-582 1762.0016,-588 1762.0016,-588 1762.0016,-600 1762.0016,-600 1762.0016,-606 1756.0016,-612 1750.0016,-612"/>
<text text-anchor="middle" x="1685.5016" y="-591.5" font-family="sans" font-size="10.00" fill="#000000">shard_saturated_reads_remove</text>
</g>
<!-- 5&#45;&gt;55 -->
<g id="edge93" class="edge">
<title>5&#45;&gt;55</title>
<path fill="none" stroke="#c0c0c0" stroke-width="2" d="M1512.443,-791.8442C1500.7475,-769.7151 1492.6718,-742.6491 1504.5016,-720 1530.4288,-670.3605 1585.816,-636.3121 1628.5348,-616.2435"/>
<polygon fill="#c0c0c0" stroke="#c0c0c0" stroke-width="2" points="1630.0741,-619.3883 1637.7171,-612.0511 1627.1667,-613.0207 1630.0741,-619.3883"/>
</g>
<!-- 6 -->
<g id="node7" class="node">
<title>6</title>
<path fill="none" stroke="#9fd856" stroke-width="2" d="M419.0016,-877C419.0016,-877 312.0016,-877 312.0016,-877 306.0016,-877 300.0016,-871 300.0016,-865 300.0016,-865 300.0016,-804 300.0016,-804 300.0016,-798 306.0016,-792 312.0016,-792 312.0016,-792 419.0016,-792 419.0016,-792 425.0016,-792 431.0016,-798 431.0016,-804 431.0016,-804 431.0016,-865 431.0016,-865 431.0016,-871 425.0016,-877 419.0016,-877"/>
<text text-anchor="middle" x="365.5016" y="-865" font-family="sans" font-size="10.00" fill="#000000">bowtie2</text>
<text text-anchor="middle" x="365.5016" y="-854" font-family="sans" font-size="10.00" fill="#000000">library: lib1</text>
<text text-anchor="middle" x="365.5016" y="-843" font-family="sans" font-size="10.00" fill="#000000">n_shard: 2</text>
<text text-anchor="middle" x="365.5016" y="-832" font-family="sans" font-size="10.00" fill="#000000">read_type_map: collapsed</text>
<text text-anchor="middle" x="365.5016" y="-821" font-family="sans" font-size="10.00" fill="#000000">ref: wgs_eukaryota</text>
<text text-anchor="middle" x="365.5016" y="-810" font-family="sans" font-size="10.00" fill="#000000">sample: HD827sonic_1</text>
<text text-anchor="middle" x="365.5016" y="-799" font-family="sans" font-size="10.00" fill="#000000">tot_shards: 2</text>
</g>
<!-- 6&#45;&gt;1 -->
<g id="edge15" class="edge">
<title>6&#45;&gt;1</title>
<path fill="none" stroke="#c0c0c0" stroke-width="2" d="M431.2524,-814.1195C463.826,-801.4583 501.9699,-782.4733 529.5016,-756 585.0722,-702.5658 591.5016,-671.0929 591.5016,-594 591.5016,-594 591.5016,-594 591.5016,-522 591.5016,-342.8475 594.5613,-259.5117 731.5016,-144 768.9502,-112.4114 913.0817,-97.7878 982.162,-92.4826"/>
<polygon fill="#c0c0c0" stroke="#c0c0c0" stroke-width="2" points="982.4695,-95.9695 992.1827,-91.7382 981.9509,-88.9887 982.4695,-95.9695"/>
</g>
<!-- 18 -->
<g id="node19" class="node">
<title>18</title>
<path fill="none" stroke="#56c9d8" stroke-width="2" d="M325.0016,-756C325.0016,-756 256.0016,-756 256.0016,-756 250.0016,-756 244.0016,-750 244.0016,-744 244.0016,-744 244.0016,-732 244.0016,-732 244.0016,-726 250.0016,-720 256.0016,-720 256.0016,-720 325.0016,-720 325.0016,-720 331.0016,-720 337.0016,-726 337.0016,-732 337.0016,-732 337.0016,-744 337.0016,-744 337.0016,-750 331.0016,-756 325.0016,-756"/>
<text text-anchor="middle" x="290.5016" y="-735.5" font-family="sans" font-size="10.00" fill="#000000">shard_count_alns</text>
</g>
<!-- 6&#45;&gt;18 -->
<g id="edge41" class="edge">
<title>6&#45;&gt;18</title>
<path fill="none" stroke="#c0c0c0" stroke-width="2" d="M332.3872,-791.8928C325.0883,-782.5016 317.5648,-772.8213 310.943,-764.3013"/>
<polygon fill="#c0c0c0" stroke="#c0c0c0" stroke-width="2" points="313.5637,-761.9697 304.6636,-756.2218 308.0367,-766.2653 313.5637,-761.9697"/>
</g>
<!-- 25 -->
<g id="node26" class="node">
<title>25</title>
<path fill="none" stroke="#5682d8" stroke-width="2" d="M342.0016,-612C342.0016,-612 213.0016,-612 213.0016,-612 207.0016,-612 201.0016,-606 201.0016,-600 201.0016,-600 201.0016,-588 201.0016,-588 201.0016,-582 207.0016,-576 213.0016,-576 213.0016,-576 342.0016,-576 342.0016,-576 348.0016,-576 354.0016,-582 354.0016,-588 354.0016,-588 354.0016,-600 354.0016,-600 354.0016,-606 348.0016,-612 342.0016,-612"/>
<text text-anchor="middle" x="277.5016" y="-591.5" font-family="sans" font-size="10.00" fill="#000000">shard_saturated_reads_remove</text>
</g>
<!-- 6&#45;&gt;25 -->
<g id="edge49" class="edge">
<title>6&#45;&gt;25</title>
<path fill="none" stroke="#c0c0c0" stroke-width="2" d="M370.296,-791.7097C372.7176,-751.9853 371.0271,-692.4554 346.5016,-648 340.0021,-636.2188 329.7565,-626.1322 319.1295,-617.9756"/>
<polygon fill="#c0c0c0" stroke="#c0c0c0" stroke-width="2" points="321.1465,-615.115 310.9843,-612.1183 317.0596,-620.7982 321.1465,-615.115"/>
</g>
<!-- 7 -->
<g id="node8" class="node">
<title>7</title>
<path fill="none" stroke="#9fd856" stroke-width="2" d="M640.0016,-877C640.0016,-877 533.0016,-877 533.0016,-877 527.0016,-877 521.0016,-871 521.0016,-865 521.0016,-865 521.0016,-804 521.0016,-804 521.0016,-798 527.0016,-792 533.0016,-792 533.0016,-792 640.0016,-792 640.0016,-792 646.0016,-792 652.0016,-798 652.0016,-804 652.0016,-804 652.0016,-865 652.0016,-865 652.0016,-871 646.0016,-877 640.0016,-877"/>
<text text-anchor="middle" x="586.5016" y="-865" font-family="sans" font-size="10.00" fill="#000000">bowtie2</text>
<text text-anchor="middle" x="586.5016" y="-854" font-family="sans" font-size="10.00" fill="#000000">library: lib1</text>
<text text-anchor="middle" x="586.5016" y="-843" font-family="sans" font-size="10.00" fill="#000000">n_shard: 1</text>
<text text-anchor="middle" x="586.5016" y="-832" font-family="sans" font-size="10.00" fill="#000000">read_type_map: collapsed</text>
<text text-anchor="middle" x="586.5016" y="-821" font-family="sans" font-size="10.00" fill="#000000">ref: refseq_mitochondrion</text>
<text text-anchor="middle" x="586.5016" y="-810" font-family="sans" font-size="10.00" fill="#000000">sample: HD827sonic_1</text>
<text text-anchor="middle" x="586.5016" y="-799" font-family="sans" font-size="10.00" fill="#000000">tot_shards: 1</text>
</g>
<!-- 7&#45;&gt;1 -->
<g id="edge16" class="edge">
<title>7&#45;&gt;1</title>
<path fill="none" stroke="#c0c0c0" stroke-width="2" d="M593.9869,-791.8888C619.6332,-648.1316 705.1499,-187.543 755.5016,-144 789.0215,-115.0128 917.515,-99.3551 982.0533,-93.1735"/>
<polygon fill="#c0c0c0" stroke="#c0c0c0" stroke-width="2" points="982.5771,-96.64 992.2098,-92.2286 981.9286,-89.6701 982.5771,-96.64"/>
</g>
<!-- 17 -->
<g id="node18" class="node">
<title>17</title>
<path fill="none" stroke="#56c9d8" stroke-width="2" d="M475.0016,-756C475.0016,-756 406.0016,-756 406.0016,-756 400.0016,-756 394.0016,-750 394.0016,-744 394.0016,-744 394.0016,-732 394.0016,-732 394.0016,-726 400.0016,-720 406.0016,-720 406.0016,-720 475.0016,-720 475.0016,-720 481.0016,-720 487.0016,-726 487.0016,-732 487.0016,-732 487.0016,-744 487.0016,-744 487.0016,-750 481.0016,-756 475.0016,-756"/>
<text text-anchor="middle" x="440.5016" y="-735.5" font-family="sans" font-size="10.00" fill="#000000">shard_count_alns</text>
</g>
<!-- 7&#45;&gt;17 -->
<g id="edge40" class="edge">
<title>7&#45;&gt;17</title>
<path fill="none" stroke="#c0c0c0" stroke-width="2" d="M522.0389,-791.8928C506.4984,-781.6212 490.4347,-771.0037 476.717,-761.9369"/>
<polygon fill="#c0c0c0" stroke="#c0c0c0" stroke-width="2" points="478.3427,-758.816 468.0703,-756.2218 474.4828,-764.6557 478.3427,-758.816"/>
</g>
<!-- 22 -->
<g id="node23" class="node">
<title>22</title>
<path fill="none" stroke="#5682d8" stroke-width="2" d="M513.0016,-612C513.0016,-612 384.0016,-612 384.0016,-612 378.0016,-612 372.0016,-606 372.0016,-600 372.0016,-600 372.0016,-588 372.0016,-588 372.0016,-582 378.0016,-576 384.0016,-576 384.0016,-576 513.0016,-576 513.0016,-576 519.0016,-576 525.0016,-582 525.0016,-588 525.0016,-588 525.0016,-600 525.0016,-600 525.0016,-606 519.0016,-612 513.0016,-612"/>
<text text-anchor="middle" x="448.5016" y="-591.5" font-family="sans" font-size="10.00" fill="#000000">shard_saturated_reads_remove</text>
</g>
<!-- 7&#45;&gt;22 -->
<g id="edge45" class="edge">
<title>7&#45;&gt;22</title>
<path fill="none" stroke="#c0c0c0" stroke-width="2" d="M561.989,-791.7805C533.6184,-742.3376 487.7554,-662.4097 463.95,-620.9227"/>
<polygon fill="#c0c0c0" stroke="#c0c0c0" stroke-width="2" points="466.957,-619.1307 458.9443,-612.1991 460.8855,-622.6146 466.957,-619.1307"/>
</g>
<!-- 8 -->
<g id="node9" class="node">
<title>8</title>
<path fill="none" stroke="#9fd856" stroke-width="2" d="M1244.0016,-877C1244.0016,-877 1137.0016,-877 1137.0016,-877 1131.0016,-877 1125.0016,-871 1125.0016,-865 1125.0016,-865 1125.0016,-804 1125.0016,-804 1125.0016,-798 1131.0016,-792 1137.0016,-792 1137.0016,-792 1244.0016,-792 1244.0016,-792 1250.0016,-792 1256.0016,-798 1256.0016,-804 1256.0016,-804 1256.0016,-865 1256.0016,-865 1256.0016,-871 1250.0016,-877 1244.0016,-877"/>
<text text-anchor="middle" x="1190.5016" y="-865" font-family="sans" font-size="10.00" fill="#000000">bowtie2</text>
<text text-anchor="middle" x="1190.5016" y="-854" font-family="sans" font-size="10.00" fill="#000000">library: lib1</text>
<text text-anchor="middle" x="1190.5016" y="-843" font-family="sans" font-size="10.00" fill="#000000">n_shard: 1</text>
<text text-anchor="middle" x="1190.5016" y="-832" font-family="sans" font-size="10.00" fill="#000000">read_type_map: collapsed</text>
<text text-anchor="middle" x="1190.5016" y="-821" font-family="sans" font-size="10.00" fill="#000000">ref: refseq_mitochondrion</text>
<text text-anchor="middle" x="1190.5016" y="-810" font-family="sans" font-size="10.00" fill="#000000">sample: HD827sonic_2</text>
<text text-anchor="middle" x="1190.5016" y="-799" font-family="sans" font-size="10.00" fill="#000000">tot_shards: 1</text>
</g>
<!-- 8&#45;&gt;1 -->
<g id="edge17" class="edge">
<title>8&#45;&gt;1</title>
<path fill="none" stroke="#c0c0c0" stroke-width="2" d="M1235.6404,-791.7869C1264.099,-760.1254 1295.5016,-714.2557 1295.5016,-666 1295.5016,-666 1295.5016,-666 1295.5016,-594 1295.5016,-566.7009 1093.6728,-217.5339 1035.1988,-116.9458"/>
<polygon fill="#c0c0c0" stroke="#c0c0c0" stroke-width="2" points="1038.2054,-115.1537 1030.152,-108.2694 1032.1546,-118.6732 1038.2054,-115.1537"/>
</g>
<!-- 32 -->
<g id="node33" class="node">
<title>32</title>
<path fill="none" stroke="#56c9d8" stroke-width="2" d="M1140.0016,-756C1140.0016,-756 1071.0016,-756 1071.0016,-756 1065.0016,-756 1059.0016,-750 1059.0016,-744 1059.0016,-744 1059.0016,-732 1059.0016,-732 1059.0016,-726 1065.0016,-720 1071.0016,-720 1071.0016,-720 1140.0016,-720 1140.0016,-720 1146.0016,-720 1152.0016,-726 1152.0016,-732 1152.0016,-732 1152.0016,-744 1152.0016,-744 1152.0016,-750 1146.0016,-756 1140.0016,-756"/>
<text text-anchor="middle" x="1105.5016" y="-735.5" font-family="sans" font-size="10.00" fill="#000000">shard_count_alns</text>
</g>
<!-- 8&#45;&gt;32 -->
<g id="edge62" class="edge">
<title>8&#45;&gt;32</title>
<path fill="none" stroke="#c0c0c0" stroke-width="2" d="M1152.9719,-791.8928C1144.5276,-782.306 1135.8178,-772.4178 1128.2009,-763.7703"/>
<polygon fill="#c0c0c0" stroke="#c0c0c0" stroke-width="2" points="1130.7881,-761.4124 1121.5519,-756.2218 1125.5353,-766.0393 1130.7881,-761.4124"/>
</g>
<!-- 37 -->
<g id="node38" class="node">
<title>37</title>
<path fill="none" stroke="#5682d8" stroke-width="2" d="M1255.0016,-612C1255.0016,-612 1126.0016,-612 1126.0016,-612 1120.0016,-612 1114.0016,-606 1114.0016,-600 1114.0016,-600 1114.0016,-588 1114.0016,-588 1114.0016,-582 1120.0016,-576 1126.0016,-576 1126.0016,-576 1255.0016,-576 1255.0016,-576 1261.0016,-576 1267.0016,-582 1267.0016,-588 1267.0016,-588 1267.0016,-600 1267.0016,-600 1267.0016,-606 1261.0016,-612 1255.0016,-612"/>
<text text-anchor="middle" x="1190.5016" y="-591.5" font-family="sans" font-size="10.00" fill="#000000">shard_saturated_reads_remove</text>
</g>
<!-- 8&#45;&gt;37 -->
<g id="edge67" class="edge">
<title>8&#45;&gt;37</title>
<path fill="none" stroke="#c0c0c0" stroke-width="2" d="M1190.5016,-791.7805C1190.5016,-742.8569 1190.5016,-664.0855 1190.5016,-622.2427"/>
<polygon fill="#c0c0c0" stroke="#c0c0c0" stroke-width="2" points="1194.0017,-622.199 1190.5016,-612.1991 1187.0017,-622.1991 1194.0017,-622.199"/>
</g>
<!-- 9 -->
<g id="node10" class="node">
<title>9</title>
<path fill="none" stroke="#9fd856" stroke-width="2" d="M1447.0016,-877C1447.0016,-877 1340.0016,-877 1340.0016,-877 1334.0016,-877 1328.0016,-871 1328.0016,-865 1328.0016,-865 1328.0016,-804 1328.0016,-804 1328.0016,-798 1334.0016,-792 1340.0016,-792 1340.0016,-792 1447.0016,-792 1447.0016,-792 1453.0016,-792 1459.0016,-798 1459.0016,-804 1459.0016,-804 1459.0016,-865 1459.0016,-865 1459.0016,-871 1453.0016,-877 1447.0016,-877"/>
<text text-anchor="middle" x="1393.5016" y="-865" font-family="sans" font-size="10.00" fill="#000000">bowtie2</text>
<text text-anchor="middle" x="1393.5016" y="-854" font-family="sans" font-size="10.00" fill="#000000">library: lib2</text>
<text text-anchor="middle" x="1393.5016" y="-843" font-family="sans" font-size="10.00" fill="#000000">n_shard: 1</text>
<text text-anchor="middle" x="1393.5016" y="-832" font-family="sans" font-size="10.00" fill="#000000">read_type_map: collapsed</text>
<text text-anchor="middle" x="1393.5016" y="-821" font-family="sans" font-size="10.00" fill="#000000">ref: wgs_eukaryota</text>
<text text-anchor="middle" x="1393.5016" y="-810" font-family="sans" font-size="10.00" fill="#000000">sample: HD827sonic_2</text>
<text text-anchor="middle" x="1393.5016" y="-799" font-family="sans" font-size="10.00" fill="#000000">tot_shards: 2</text>
</g>
<!-- 9&#45;&gt;1 -->
<g id="edge18" class="edge">
<title>9&#45;&gt;1</title>
<path fill="none" stroke="#c0c0c0" stroke-width="2" d="M1369.2703,-791.9866C1352.618,-758.7724 1333.5016,-710.8712 1333.5016,-666 1333.5016,-666 1333.5016,-666 1333.5016,-594 1333.5016,-536.3651 1110.9331,-189.4575 1075.5016,-144 1067.5879,-133.8469 1057.8043,-123.7688 1048.6403,-115.1171"/>
<polygon fill="#c0c0c0" stroke="#c0c0c0" stroke-width="2" points="1050.8705,-112.4129 1041.1428,-108.2149 1046.1294,-117.5629 1050.8705,-112.4129"/>
</g>
<!-- 45 -->
<g id="node46" class="node">
<title>45</title>
<path fill="none" stroke="#5682d8" stroke-width="2" d="M1579.0016,-612C1579.0016,-612 1450.0016,-612 1450.0016,-612 1444.0016,-612 1438.0016,-606 1438.0016,-600 1438.0016,-600 1438.0016,-588 1438.0016,-588 1438.0016,-582 1444.0016,-576 1450.0016,-576 1450.0016,-576 1579.0016,-576 1579.0016,-576 1585.0016,-576 1591.0016,-582 1591.0016,-588 1591.0016,-588 1591.0016,-600 1591.0016,-600 1591.0016,-606 1585.0016,-612 1579.0016,-612"/>
<text text-anchor="middle" x="1514.5016" y="-591.5" font-family="sans" font-size="10.00" fill="#000000">shard_saturated_reads_remove</text>
</g>
<!-- 9&#45;&gt;45 -->
<g id="edge79" class="edge">
<title>9&#45;&gt;45</title>
<path fill="none" stroke="#c0c0c0" stroke-width="2" d="M1407.5411,-791.8025C1421.1955,-752.9339 1443.8888,-694.6662 1471.5016,-648 1477.2364,-638.3082 1484.5547,-628.4556 1491.5215,-619.8662"/>
<polygon fill="#c0c0c0" stroke="#c0c0c0" stroke-width="2" points="1494.3116,-621.9853 1498.03,-612.0644 1488.9364,-617.5011 1494.3116,-621.9853"/>
</g>
<!-- 49 -->
<g id="node50" class="node">
<title>49</title>
<path fill="none" stroke="#56c9d8" stroke-width="2" d="M1595.0016,-756C1595.0016,-756 1526.0016,-756 1526.0016,-756 1520.0016,-756 1514.0016,-750 1514.0016,-744 1514.0016,-744 1514.0016,-732 1514.0016,-732 1514.0016,-726 1520.0016,-720 1526.0016,-720 1526.0016,-720 1595.0016,-720 1595.0016,-720 1601.0016,-720 1607.0016,-726 1607.0016,-732 1607.0016,-732 1607.0016,-744 1607.0016,-744 1607.0016,-750 1601.0016,-756 1595.0016,-756"/>
<text text-anchor="middle" x="1560.5016" y="-735.5" font-family="sans" font-size="10.00" fill="#000000">shard_count_alns</text>
</g>
<!-- 9&#45;&gt;49 -->
<g id="edge86" class="edge">
<title>9&#45;&gt;49</title>
<path fill="none" stroke="#c0c0c0" stroke-width="2" d="M1459.0251,-796.6376C1479.7567,-784.658 1502.0404,-771.7815 1520.4299,-761.1552"/>
<polygon fill="#c0c0c0" stroke="#c0c0c0" stroke-width="2" points="1522.2135,-764.1669 1529.1208,-756.1332 1518.7113,-758.106 1522.2135,-764.1669"/>
</g>
<!-- 10 -->
<g id="node11" class="node">
<title>10</title>
<path fill="none" stroke="#9fd856" stroke-width="2" d="M1875.0016,-877C1875.0016,-877 1768.0016,-877 1768.0016,-877 1762.0016,-877 1756.0016,-871 1756.0016,-865 1756.0016,-865 1756.0016,-804 1756.0016,-804 1756.0016,-798 1762.0016,-792 1768.0016,-792 1768.0016,-792 1875.0016,-792 1875.0016,-792 1881.0016,-792 1887.0016,-798 1887.0016,-804 1887.0016,-804 1887.0016,-865 1887.0016,-865 1887.0016,-871 1881.0016,-877 1875.0016,-877"/>
<text text-anchor="middle" x="1821.5016" y="-865" font-family="sans" font-size="10.00" fill="#000000">bowtie2</text>
<text text-anchor="middle" x="1821.5016" y="-854" font-family="sans" font-size="10.00" fill="#000000">library: lib2</text>
<text text-anchor="middle" x="1821.5016" y="-843" font-family="sans" font-size="10.00" fill="#000000">n_shard: 1</text>
<text text-anchor="middle" x="1821.5016" y="-832" font-family="sans" font-size="10.00" fill="#000000">read_type_map: collapsed</text>
<text text-anchor="middle" x="1821.5016" y="-821" font-family="sans" font-size="10.00" fill="#000000">ref: refseq_mitochondrion</text>
<text text-anchor="middle" x="1821.5016" y="-810" font-family="sans" font-size="10.00" fill="#000000">sample: HD827sonic_2</text>
<text text-anchor="middle" x="1821.5016" y="-799" font-family="sans" font-size="10.00" fill="#000000">tot_shards: 1</text>
</g>
<!-- 10&#45;&gt;1 -->
<g id="edge19" class="edge">
<title>10&#45;&gt;1</title>
<path fill="none" stroke="#c0c0c0" stroke-width="2" d="M1790.5341,-791.7459C1769.3648,-763.5561 1742.5172,-730.0486 1727.5016,-720 1601.1589,-635.4505 1409.5016,-746.0234 1409.5016,-594 1409.5016,-594 1409.5016,-594 1409.5016,-234 1409.5016,-193.0242 1419.5243,-171.8864 1389.5016,-144 1377.3343,-132.6985 1148.1733,-104.9574 1056.725,-94.2827"/>
<polygon fill="#c0c0c0" stroke="#c0c0c0" stroke-width="2" points="1056.8698,-90.776 1046.5323,-93.0971 1056.0609,-97.7291 1056.8698,-90.776"/>
</g>
<!-- 47 -->
<g id="node48" class="node">
<title>47</title>
<path fill="none" stroke="#56c9d8" stroke-width="2" d="M1856.0016,-756C1856.0016,-756 1787.0016,-756 1787.0016,-756 1781.0016,-756 1775.0016,-750 1775.0016,-744 1775.0016,-744 1775.0016,-732 1775.0016,-732 1775.0016,-726 1781.0016,-720 1787.0016,-720 1787.0016,-720 1856.0016,-720 1856.0016,-720 1862.0016,-720 1868.0016,-726 1868.0016,-732 1868.0016,-732 1868.0016,-744 1868.0016,-744 1868.0016,-750 1862.0016,-756 1856.0016,-756"/>
<text text-anchor="middle" x="1821.5016" y="-735.5" font-family="sans" font-size="10.00" fill="#000000">shard_count_alns</text>
</g>
<!-- 10&#45;&gt;47 -->
<g id="edge84" class="edge">
<title>10&#45;&gt;47</title>
<path fill="none" stroke="#c0c0c0" stroke-width="2" d="M1821.5016,-791.8928C1821.5016,-783.2842 1821.5016,-774.4327 1821.5016,-766.4546"/>
<polygon fill="#c0c0c0" stroke="#c0c0c0" stroke-width="2" points="1825.0017,-766.2218 1821.5016,-756.2218 1818.0017,-766.2218 1825.0017,-766.2218"/>
</g>
<!-- 52 -->
<g id="node53" class="node">
<title>52</title>
<path fill="none" stroke="#5682d8" stroke-width="2" d="M1960.0016,-612C1960.0016,-612 1831.0016,-612 1831.0016,-612 1825.0016,-612 1819.0016,-606 1819.0016,-600 1819.0016,-600 1819.0016,-588 1819.0016,-588 1819.0016,-582 1825.0016,-576 1831.0016,-576 1831.0016,-576 1960.0016,-576 1960.0016,-576 1966.0016,-576 1972.0016,-582 1972.0016,-588 1972.0016,-588 1972.0016,-600 1972.0016,-600 1972.0016,-606 1966.0016,-612 1960.0016,-612"/>
<text text-anchor="middle" x="1895.5016" y="-591.5" font-family="sans" font-size="10.00" fill="#000000">shard_saturated_reads_remove</text>
</g>
<!-- 10&#45;&gt;52 -->
<g id="edge89" class="edge">
<title>10&#45;&gt;52</title>
<path fill="none" stroke="#c0c0c0" stroke-width="2" d="M1857.732,-791.9452C1865.457,-780.8669 1872.7192,-768.5097 1877.5016,-756 1894.4788,-711.5915 1896.9251,-655.6978 1896.601,-622.5209"/>
<polygon fill="#c0c0c0" stroke="#c0c0c0" stroke-width="2" points="1900.094,-622.1205 1896.4019,-612.1898 1893.0953,-622.2555 1900.094,-622.1205"/>
</g>
<!-- 11 -->
<g id="node12" class="node">
<title>11</title>
<path fill="none" stroke="#ced856" stroke-width="2" d="M551.5016,-180C551.5016,-180 511.5016,-180 511.5016,-180 505.5016,-180 499.5016,-174 499.5016,-168 499.5016,-168 499.5016,-156 499.5016,-156 499.5016,-150 505.5016,-144 511.5016,-144 511.5016,-144 551.5016,-144 551.5016,-144 557.5016,-144 563.5016,-150 563.5016,-156 563.5016,-156 563.5016,-168 563.5016,-168 563.5016,-174 557.5016,-180 551.5016,-180"/>
<text text-anchor="middle" x="531.5016" y="-159.5" font-family="sans" font-size="10.00" fill="#000000">align_stats</text>
</g>
<!-- 11&#45;&gt;1 -->
<g id="edge20" class="edge">
<title>11&#45;&gt;1</title>
<path fill="none" stroke="#c0c0c0" stroke-width="2" d="M563.5864,-148.2706C568.197,-146.6437 572.9284,-145.1545 577.5016,-144 654.1083,-124.661 890.1743,-101.7776 982.2145,-93.3394"/>
<polygon fill="#c0c0c0" stroke="#c0c0c0" stroke-width="2" points="982.8101,-96.7997 992.451,-92.4061 982.1745,-89.8286 982.8101,-96.7997"/>
</g>
<!-- 12 -->
<g id="node13" class="node">
<title>12</title>
<path fill="none" stroke="#d88556" stroke-width="2" d="M370.0016,-396C370.0016,-396 325.0016,-396 325.0016,-396 319.0016,-396 313.0016,-390 313.0016,-384 313.0016,-384 313.0016,-372 313.0016,-372 313.0016,-366 319.0016,-360 325.0016,-360 325.0016,-360 370.0016,-360 370.0016,-360 376.0016,-360 382.0016,-366 382.0016,-372 382.0016,-372 382.0016,-384 382.0016,-384 382.0016,-390 376.0016,-396 370.0016,-396"/>
<text text-anchor="middle" x="347.5016" y="-375.5" font-family="sans" font-size="10.00" fill="#000000">align_merge</text>
</g>
<!-- 12&#45;&gt;11 -->
<g id="edge29" class="edge">
<title>12&#45;&gt;11</title>
<path fill="none" stroke="#c0c0c0" stroke-width="2" d="M381.344,-359.9457C417.1825,-338.9595 472.5002,-300.8683 501.5016,-252 512.9379,-232.7295 520.6918,-208.5213 525.4473,-190.0669"/>
<polygon fill="#c0c0c0" stroke="#c0c0c0" stroke-width="2" points="528.8819,-190.7551 527.8455,-180.2111 522.0803,-189.1 528.8819,-190.7551"/>
</g>
<!-- 57 -->
<g id="node58" class="node">
<title>57</title>
<path fill="none" stroke="#56d89a" stroke-width="2" d="M414.0016,-324C414.0016,-324 363.0016,-324 363.0016,-324 357.0016,-324 351.0016,-318 351.0016,-312 351.0016,-312 351.0016,-300 351.0016,-300 351.0016,-294 357.0016,-288 363.0016,-288 363.0016,-288 414.0016,-288 414.0016,-288 420.0016,-288 426.0016,-294 426.0016,-300 426.0016,-300 426.0016,-312 426.0016,-312 426.0016,-318 420.0016,-324 414.0016,-324"/>
<text text-anchor="middle" x="388.5016" y="-303.5" font-family="sans" font-size="10.00" fill="#000000">metadmg_lca</text>
</g>
<!-- 12&#45;&gt;57 -->
<g id="edge96" class="edge">
<title>12&#45;&gt;57</title>
<path fill="none" stroke="#c0c0c0" stroke-width="2" d="M357.8476,-359.8314C362.4253,-351.7925 367.9068,-342.1666 372.9605,-333.2918"/>
<polygon fill="#c0c0c0" stroke="#c0c0c0" stroke-width="2" points="376.1093,-334.8351 378.0163,-324.4133 370.0264,-331.3712 376.1093,-334.8351"/>
</g>
<!-- 68 -->
<g id="node69" class="node">
<title>68</title>
<path fill="none" stroke="#56d86b" stroke-width="2" d="M325.0016,-108C325.0016,-108 252.0016,-108 252.0016,-108 246.0016,-108 240.0016,-102 240.0016,-96 240.0016,-96 240.0016,-84 240.0016,-84 240.0016,-78 246.0016,-72 252.0016,-72 252.0016,-72 325.0016,-72 325.0016,-72 331.0016,-72 337.0016,-78 337.0016,-84 337.0016,-84 337.0016,-96 337.0016,-96 337.0016,-102 331.0016,-108 325.0016,-108"/>
<text text-anchor="middle" x="288.5016" y="-87.5" font-family="sans" font-size="10.00" fill="#000000">metadmg_damage</text>
</g>
<!-- 12&#45;&gt;68 -->
<g id="edge110" class="edge">
<title>12&#45;&gt;68</title>
<path fill="none" stroke="#c0c0c0" stroke-width="2" d="M326.5171,-359.6048C317.0941,-350.0197 306.8991,-337.4926 301.5016,-324 273.5907,-254.2282 279.1864,-163.3338 284.4691,-118.1113"/>
<polygon fill="#c0c0c0" stroke="#c0c0c0" stroke-width="2" points="287.9468,-118.5074 285.7162,-108.15 281.001,-117.6378 287.9468,-118.5074"/>
</g>
<!-- 13 -->
<g id="node14" class="node">
<title>13</title>
<path fill="none" stroke="#566bd8" stroke-width="2" d="M204.5016,-468C204.5016,-468 136.5016,-468 136.5016,-468 130.5016,-468 124.5016,-462 124.5016,-456 124.5016,-456 124.5016,-444 124.5016,-444 124.5016,-438 130.5016,-432 136.5016,-432 136.5016,-432 204.5016,-432 204.5016,-432 210.5016,-432 216.5016,-438 216.5016,-444 216.5016,-444 216.5016,-456 216.5016,-456 216.5016,-462 210.5016,-468 204.5016,-468"/>
<text text-anchor="middle" x="170.5016" y="-447.5" font-family="sans" font-size="10.00" fill="#000000">shard_sort_query</text>
</g>
<!-- 13&#45;&gt;12 -->
<g id="edge30" class="edge">
<title>13&#45;&gt;12</title>
<path fill="none" stroke="#c0c0c0" stroke-width="2" d="M215.1662,-431.8314C242.1645,-420.849 276.4443,-406.9047 303.3497,-395.9601"/>
<polygon fill="#c0c0c0" stroke="#c0c0c0" stroke-width="2" points="304.9573,-399.0847 312.9014,-392.0747 302.3196,-392.6007 304.9573,-399.0847"/>
</g>
<!-- 14 -->
<g id="node15" class="node">
<title>14</title>
<path fill="none" stroke="#56d8c9" stroke-width="2" d="M183.5016,-540C183.5016,-540 103.5016,-540 103.5016,-540 97.5016,-540 91.5016,-534 91.5016,-528 91.5016,-528 91.5016,-516 91.5016,-516 91.5016,-510 97.5016,-504 103.5016,-504 103.5016,-504 183.5016,-504 183.5016,-504 189.5016,-504 195.5016,-510 195.5016,-516 195.5016,-516 195.5016,-528 195.5016,-528 195.5016,-534 189.5016,-540 183.5016,-540"/>
<text text-anchor="middle" x="143.5016" y="-519.5" font-family="sans" font-size="10.00" fill="#000000">shard_clean_header</text>
</g>
<!-- 14&#45;&gt;13 -->
<g id="edge33" class="edge">
<title>14&#45;&gt;13</title>
<path fill="none" stroke="#c0c0c0" stroke-width="2" d="M150.3148,-503.8314C153.266,-495.9617 156.7874,-486.5712 160.0566,-477.8533"/>
<polygon fill="#c0c0c0" stroke="#c0c0c0" stroke-width="2" points="163.3625,-479.0055 163.5966,-468.4133 156.8082,-476.5476 163.3625,-479.0055"/>
</g>
<!-- 15&#45;&gt;14 -->
<g id="edge34" class="edge">
<title>15&#45;&gt;14</title>
<path fill="none" stroke="#c0c0c0" stroke-width="2" d="M115.8383,-575.8314C119.9259,-567.8771 124.812,-558.369 129.3325,-549.5723"/>
<polygon fill="#c0c0c0" stroke="#c0c0c0" stroke-width="2" points="132.5815,-550.9074 134.0392,-540.4133 126.3555,-547.7078 132.5815,-550.9074"/>
</g>
<!-- 16 -->
<g id="node17" class="node">
<title>16</title>
<path fill="none" stroke="#569ad8" stroke-width="2" d="M325.5016,-684C325.5016,-684 215.5016,-684 215.5016,-684 209.5016,-684 203.5016,-678 203.5016,-672 203.5016,-672 203.5016,-660 203.5016,-660 203.5016,-654 209.5016,-648 215.5016,-648 215.5016,-648 325.5016,-648 325.5016,-648 331.5016,-648 337.5016,-654 337.5016,-660 337.5016,-660 337.5016,-672 337.5016,-672 337.5016,-678 331.5016,-684 325.5016,-684"/>
<text text-anchor="middle" x="270.5016" y="-663.5" font-family="sans" font-size="10.00" fill="#000000">shard_saturated_reads_get</text>
</g>
<!-- 16&#45;&gt;15 -->
<g id="edge36" class="edge">
<title>16&#45;&gt;15</title>
<path fill="none" stroke="#c0c0c0" stroke-width="2" d="M229.1175,-647.8314C207.1835,-638.2018 180.0624,-626.295 156.9085,-616.1299"/>
<polygon fill="#c0c0c0" stroke="#c0c0c0" stroke-width="2" points="158.1516,-612.8532 147.5881,-612.038 155.3376,-619.2627 158.1516,-612.8532"/>
</g>
<!-- 16&#45;&gt;22 -->
<g id="edge46" class="edge">
<title>16&#45;&gt;22</title>
<path fill="none" stroke="#c0c0c0" stroke-width="2" d="M315.4185,-647.8314C339.4366,-638.1162 369.185,-626.0831 394.4608,-615.8592"/>
<polygon fill="#c0c0c0" stroke="#c0c0c0" stroke-width="2" points="395.9498,-619.0325 403.9077,-612.038 393.3249,-612.5432 395.9498,-619.0325"/>
</g>
<!-- 16&#45;&gt;25 -->
<g id="edge50" class="edge">
<title>16&#45;&gt;25</title>
<path fill="none" stroke="#c0c0c0" stroke-width="2" d="M272.268,-647.8314C273.0167,-640.131 273.9069,-630.9743 274.7389,-622.4166"/>
<polygon fill="#c0c0c0" stroke="#c0c0c0" stroke-width="2" points="278.2273,-622.7051 275.7114,-612.4133 271.2601,-622.0276 278.2273,-622.7051"/>
</g>
<!-- 65 -->
<g id="node66" class="node">
<title>65</title>
<path fill="none" stroke="#56b1d8" stroke-width="2" d="M139.0016,-396C139.0016,-396 12.0016,-396 12.0016,-396 6.0016,-396 .0016,-390 .0016,-384 .0016,-384 .0016,-372 .0016,-372 .0016,-366 6.0016,-360 12.0016,-360 12.0016,-360 139.0016,-360 139.0016,-360 145.0016,-360 151.0016,-366 151.0016,-372 151.0016,-372 151.0016,-384 151.0016,-384 151.0016,-390 145.0016,-396 139.0016,-396"/>
<text text-anchor="middle" x="75.5016" y="-375.5" font-family="sans" font-size="10.00" fill="#000000">shard_saturated_reads_extract</text>
</g>
<!-- 16&#45;&gt;65 -->
<g id="edge107" class="edge">
<title>16&#45;&gt;65</title>
<path fill="none" stroke="#c0c0c0" stroke-width="2" d="M203.2716,-660.8257C137.2031,-654.1787 43.0903,-639.9889 20.5016,-612 -29.2359,-550.3721 24.989,-451.5276 56.3754,-404.5078"/>
<polygon fill="#c0c0c0" stroke="#c0c0c0" stroke-width="2" points="59.3771,-406.3185 62.1254,-396.0863 53.5961,-402.3713 59.3771,-406.3185"/>
</g>
<!-- 17&#45;&gt;16 -->
<g id="edge37" class="edge">
<title>17&#45;&gt;16</title>
<path fill="none" stroke="#c0c0c0" stroke-width="2" d="M397.6034,-719.8314C374.7659,-710.159 346.5036,-698.1891 322.4329,-687.9944"/>
<polygon fill="#c0c0c0" stroke="#c0c0c0" stroke-width="2" points="323.6645,-684.7151 313.0913,-684.038 320.9345,-691.1608 323.6645,-684.7151"/>
</g>
<!-- 18&#45;&gt;16 -->
<g id="edge38" class="edge">
<title>18&#45;&gt;16</title>
<path fill="none" stroke="#c0c0c0" stroke-width="2" d="M285.4548,-719.8314C283.2923,-712.0463 280.7163,-702.7729 278.3168,-694.1347"/>
<polygon fill="#c0c0c0" stroke="#c0c0c0" stroke-width="2" points="281.6652,-693.1117 275.6164,-684.4133 274.9206,-694.9852 281.6652,-693.1117"/>
</g>
<!-- 19&#45;&gt;16 -->
<g id="edge39" class="edge">
<title>19&#45;&gt;16</title>
<path fill="none" stroke="#c0c0c0" stroke-width="2" d="M202.4648,-719.8314C213.6731,-710.9632 227.3225,-700.1637 239.4455,-690.5718"/>
<polygon fill="#c0c0c0" stroke="#c0c0c0" stroke-width="2" points="241.8753,-693.1125 247.5458,-684.1628 237.5319,-687.6229 241.8753,-693.1125"/>
</g>
<!-- 20 -->
<g id="node21" class="node">
<title>20</title>
<path fill="none" stroke="#566bd8" stroke-width="2" d="M460.5016,-468C460.5016,-468 392.5016,-468 392.5016,-468 386.5016,-468 380.5016,-462 380.5016,-456 380.5016,-456 380.5016,-444 380.5016,-444 380.5016,-438 386.5016,-432 392.5016,-432 392.5016,-432 460.5016,-432 460.5016,-432 466.5016,-432 472.5016,-438 472.5016,-444 472.5016,-444 472.5016,-456 472.5016,-456 472.5016,-462 466.5016,-468 460.5016,-468"/>
<text text-anchor="middle" x="426.5016" y="-447.5" font-family="sans" font-size="10.00" fill="#000000">shard_sort_query</text>
</g>
<!-- 20&#45;&gt;12 -->
<g id="edge31" class="edge">
<title>20&#45;&gt;12</title>
<path fill="none" stroke="#c0c0c0" stroke-width="2" d="M406.5666,-431.8314C397.0234,-423.1337 385.4417,-412.5783 375.071,-403.1265"/>
<polygon fill="#c0c0c0" stroke="#c0c0c0" stroke-width="2" points="377.1788,-400.3121 367.4303,-396.1628 372.4636,-405.4857 377.1788,-400.3121"/>
</g>
<!-- 21 -->
<g id="node22" class="node">
<title>21</title>
<path fill="none" stroke="#56d8c9" stroke-width="2" d="M475.5016,-540C475.5016,-540 395.5016,-540 395.5016,-540 389.5016,-540 383.5016,-534 383.5016,-528 383.5016,-528 383.5016,-516 383.5016,-516 383.5016,-510 389.5016,-504 395.5016,-504 395.5016,-504 475.5016,-504 475.5016,-504 481.5016,-504 487.5016,-510 487.5016,-516 487.5016,-516 487.5016,-528 487.5016,-528 487.5016,-534 481.5016,-540 475.5016,-540"/>
<text text-anchor="middle" x="435.5016" y="-519.5" font-family="sans" font-size="10.00" fill="#000000">shard_clean_header</text>
</g>
<!-- 21&#45;&gt;20 -->
<g id="edge43" class="edge">
<title>21&#45;&gt;20</title>
<path fill="none" stroke="#c0c0c0" stroke-width="2" d="M433.2305,-503.8314C432.268,-496.131 431.1234,-486.9743 430.0537,-478.4166"/>
<polygon fill="#c0c0c0" stroke="#c0c0c0" stroke-width="2" points="433.5167,-477.9019 428.8033,-468.4133 426.5707,-478.7702 433.5167,-477.9019"/>
</g>
<!-- 22&#45;&gt;21 -->
<g id="edge44" class="edge">
<title>22&#45;&gt;21</title>
<path fill="none" stroke="#c0c0c0" stroke-width="2" d="M445.2212,-575.8314C443.8308,-568.131 442.1775,-558.9743 440.6324,-550.4166"/>
<polygon fill="#c0c0c0" stroke="#c0c0c0" stroke-width="2" points="444.0474,-549.6322 438.8262,-540.4133 437.1588,-550.8761 444.0474,-549.6322"/>
</g>
<!-- 23 -->
<g id="node24" class="node">
<title>23</title>
<path fill="none" stroke="#566bd8" stroke-width="2" d="M341.5016,-468C341.5016,-468 273.5016,-468 273.5016,-468 267.5016,-468 261.5016,-462 261.5016,-456 261.5016,-456 261.5016,-444 261.5016,-444 261.5016,-438 267.5016,-432 273.5016,-432 273.5016,-432 341.5016,-432 341.5016,-432 347.5016,-432 353.5016,-438 353.5016,-444 353.5016,-444 353.5016,-456 353.5016,-456 353.5016,-462 347.5016,-468 341.5016,-468"/>
<text text-anchor="middle" x="307.5016" y="-447.5" font-family="sans" font-size="10.00" fill="#000000">shard_sort_query</text>
</g>
<!-- 23&#45;&gt;12 -->
<g id="edge32" class="edge">
<title>23&#45;&gt;12</title>
<path fill="none" stroke="#c0c0c0" stroke-width="2" d="M317.5953,-431.8314C322.0613,-423.7925 327.4091,-414.1666 332.3395,-405.2918"/>
<polygon fill="#c0c0c0" stroke="#c0c0c0" stroke-width="2" points="335.4751,-406.8546 337.272,-396.4133 329.356,-403.4551 335.4751,-406.8546"/>
</g>
<!-- 24 -->
<g id="node25" class="node">
<title>24</title>
<path fill="none" stroke="#56d8c9" stroke-width="2" d="M329.5016,-540C329.5016,-540 249.5016,-540 249.5016,-540 243.5016,-540 237.5016,-534 237.5016,-528 237.5016,-528 237.5016,-516 237.5016,-516 237.5016,-510 243.5016,-504 249.5016,-504 249.5016,-504 329.5016,-504 329.5016,-504 335.5016,-504 341.5016,-510 341.5016,-516 341.5016,-516 341.5016,-528 341.5016,-528 341.5016,-534 335.5016,-540 329.5016,-540"/>
<text text-anchor="middle" x="289.5016" y="-519.5" font-family="sans" font-size="10.00" fill="#000000">shard_clean_header</text>
</g>
<!-- 24&#45;&gt;23 -->
<g id="edge47" class="edge">
<title>24&#45;&gt;23</title>
<path fill="none" stroke="#c0c0c0" stroke-width="2" d="M294.0438,-503.8314C295.99,-496.0463 298.3084,-486.7729 300.4679,-478.1347"/>
<polygon fill="#c0c0c0" stroke="#c0c0c0" stroke-width="2" points="303.8684,-478.9636 302.8983,-468.4133 297.0774,-477.2658 303.8684,-478.9636"/>
</g>
<!-- 25&#45;&gt;24 -->
<g id="edge48" class="edge">
<title>25&#45;&gt;24</title>
<path fill="none" stroke="#c0c0c0" stroke-width="2" d="M280.5297,-575.8314C281.8131,-568.131 283.3392,-558.9743 284.7655,-550.4166"/>
<polygon fill="#c0c0c0" stroke="#c0c0c0" stroke-width="2" points="288.241,-550.8526 286.4327,-540.4133 281.3363,-549.7018 288.241,-550.8526"/>
</g>
<!-- 26 -->
<g id="node27" class="node">
<title>26</title>
<path fill="none" stroke="#ced856" stroke-width="2" d="M1039.5016,-252C1039.5016,-252 999.5016,-252 999.5016,-252 993.5016,-252 987.5016,-246 987.5016,-240 987.5016,-240 987.5016,-228 987.5016,-228 987.5016,-222 993.5016,-216 999.5016,-216 999.5016,-216 1039.5016,-216 1039.5016,-216 1045.5016,-216 1051.5016,-222 1051.5016,-228 1051.5016,-228 1051.5016,-240 1051.5016,-240 1051.5016,-246 1045.5016,-252 1039.5016,-252"/>
<text text-anchor="middle" x="1019.5016" y="-231.5" font-family="sans" font-size="10.00" fill="#000000">align_stats</text>
</g>
<!-- 26&#45;&gt;1 -->
<g id="edge21" class="edge">
<title>26&#45;&gt;1</title>
<path fill="none" stroke="#c0c0c0" stroke-width="2" d="M1019.5016,-215.7623C1019.5016,-191.201 1019.5016,-147.2474 1019.5016,-118.3541"/>
<polygon fill="#c0c0c0" stroke="#c0c0c0" stroke-width="2" points="1023.0017,-118.0896 1019.5016,-108.0896 1016.0017,-118.0897 1023.0017,-118.0896"/>
</g>
<!-- 27 -->
<g id="node28" class="node">
<title>27</title>
<path fill="none" stroke="#d88556" stroke-width="2" d="M1042.0016,-396C1042.0016,-396 997.0016,-396 997.0016,-396 991.0016,-396 985.0016,-390 985.0016,-384 985.0016,-384 985.0016,-372 985.0016,-372 985.0016,-366 991.0016,-360 997.0016,-360 997.0016,-360 1042.0016,-360 1042.0016,-360 1048.0016,-360 1054.0016,-366 1054.0016,-372 1054.0016,-372 1054.0016,-384 1054.0016,-384 1054.0016,-390 1048.0016,-396 1042.0016,-396"/>
<text text-anchor="middle" x="1019.5016" y="-375.5" font-family="sans" font-size="10.00" fill="#000000">align_merge</text>
</g>
<!-- 27&#45;&gt;26 -->
<g id="edge51" class="edge">
<title>27&#45;&gt;26</title>
<path fill="none" stroke="#c0c0c0" stroke-width="2" d="M1019.5016,-359.7623C1019.5016,-335.201 1019.5016,-291.2474 1019.5016,-262.3541"/>
<polygon fill="#c0c0c0" stroke="#c0c0c0" stroke-width="2" points="1023.0017,-262.0896 1019.5016,-252.0896 1016.0017,-262.0897 1023.0017,-262.0896"/>
</g>
<!-- 59 -->
<g id="node60" class="node">
<title>59</title>
<path fill="none" stroke="#56d89a" stroke-width="2" d="M1301.0016,-324C1301.0016,-324 1250.0016,-324 1250.0016,-324 1244.0016,-324 1238.0016,-318 1238.0016,-312 1238.0016,-312 1238.0016,-300 1238.0016,-300 1238.0016,-294 1244.0016,-288 1250.0016,-288 1250.0016,-288 1301.0016,-288 1301.0016,-288 1307.0016,-288 1313.0016,-294 1313.0016,-300 1313.0016,-300 1313.0016,-312 1313.0016,-312 1313.0016,-318 1307.0016,-324 1301.0016,-324"/>
<text text-anchor="middle" x="1275.5016" y="-303.5" font-family="sans" font-size="10.00" fill="#000000">metadmg_lca</text>
</g>
<!-- 27&#45;&gt;59 -->
<g id="edge98" class="edge">
<title>27&#45;&gt;59</title>
<path fill="none" stroke="#c0c0c0" stroke-width="2" d="M1054.0269,-368.2898C1098.9369,-355.6588 1177.6027,-333.5341 1228.0839,-319.3362"/>
<polygon fill="#c0c0c0" stroke="#c0c0c0" stroke-width="2" points="1229.1071,-322.6843 1237.786,-316.6075 1227.2118,-315.9458 1229.1071,-322.6843"/>
</g>
<!-- 69 -->
<g id="node70" class="node">
<title>69</title>
<path fill="none" stroke="#56d86b" stroke-width="2" d="M763.0016,-108C763.0016,-108 690.0016,-108 690.0016,-108 684.0016,-108 678.0016,-102 678.0016,-96 678.0016,-96 678.0016,-84 678.0016,-84 678.0016,-78 684.0016,-72 690.0016,-72 690.0016,-72 763.0016,-72 763.0016,-72 769.0016,-72 775.0016,-78 775.0016,-84 775.0016,-84 775.0016,-96 775.0016,-96 775.0016,-102 769.0016,-108 763.0016,-108"/>
<text text-anchor="middle" x="726.5016" y="-87.5" font-family="sans" font-size="10.00" fill="#000000">metadmg_damage</text>
</g>
<!-- 27&#45;&gt;69 -->
<g id="edge111" class="edge">
<title>27&#45;&gt;69</title>
<path fill="none" stroke="#c0c0c0" stroke-width="2" d="M984.7596,-366.2958C920.8145,-342.6639 785.8774,-282.5779 729.5016,-180 719.1937,-161.2443 719.0521,-136.812 721.1516,-118.1373"/>
<polygon fill="#c0c0c0" stroke="#c0c0c0" stroke-width="2" points="724.6281,-118.5486 722.5423,-108.1611 717.6951,-117.5821 724.6281,-118.5486"/>
</g>
<!-- 28 -->
<g id="node29" class="node">
<title>28</title>
<path fill="none" stroke="#566bd8" stroke-width="2" d="M928.5016,-468C928.5016,-468 860.5016,-468 860.5016,-468 854.5016,-468 848.5016,-462 848.5016,-456 848.5016,-456 848.5016,-444 848.5016,-444 848.5016,-438 854.5016,-432 860.5016,-432 860.5016,-432 928.5016,-432 928.5016,-432 934.5016,-432 940.5016,-438 940.5016,-444 940.5016,-444 940.5016,-456 940.5016,-456 940.5016,-462 934.5016,-468 928.5016,-468"/>
<text text-anchor="middle" x="894.5016" y="-447.5" font-family="sans" font-size="10.00" fill="#000000">shard_sort_query</text>
</g>
<!-- 28&#45;&gt;27 -->
<g id="edge52" class="edge">
<title>28&#45;&gt;27</title>
<path fill="none" stroke="#c0c0c0" stroke-width="2" d="M926.0444,-431.8314C942.1807,-422.5368 962.0002,-411.1208 979.2288,-401.1971"/>
<polygon fill="#c0c0c0" stroke="#c0c0c0" stroke-width="2" points="981.0505,-404.187 987.9689,-396.1628 977.5566,-398.1212 981.0505,-404.187"/>
</g>
<!-- 29 -->
<g id="node30" class="node">
<title>29</title>
<path fill="none" stroke="#56d8c9" stroke-width="2" d="M919.5016,-540C919.5016,-540 839.5016,-540 839.5016,-540 833.5016,-540 827.5016,-534 827.5016,-528 827.5016,-528 827.5016,-516 827.5016,-516 827.5016,-510 833.5016,-504 839.5016,-504 839.5016,-504 919.5016,-504 919.5016,-504 925.5016,-504 931.5016,-510 931.5016,-516 931.5016,-516 931.5016,-528 931.5016,-528 931.5016,-534 925.5016,-540 919.5016,-540"/>
<text text-anchor="middle" x="879.5016" y="-519.5" font-family="sans" font-size="10.00" fill="#000000">shard_clean_header</text>
</g>
<!-- 29&#45;&gt;28 -->
<g id="edge55" class="edge">
<title>29&#45;&gt;28</title>
<path fill="none" stroke="#c0c0c0" stroke-width="2" d="M883.2867,-503.8314C884.891,-496.131 886.7986,-486.9743 888.5815,-478.4166"/>
<polygon fill="#c0c0c0" stroke="#c0c0c0" stroke-width="2" points="892.0523,-478.9169 890.6655,-468.4133 885.1995,-477.4892 892.0523,-478.9169"/>
</g>
<!-- 30&#45;&gt;29 -->
<g id="edge56" class="edge">
<title>30&#45;&gt;29</title>
<path fill="none" stroke="#c0c0c0" stroke-width="2" d="M856.3242,-575.8314C859.7125,-567.9617 863.7557,-558.5712 867.5092,-549.8533"/>
<polygon fill="#c0c0c0" stroke="#c0c0c0" stroke-width="2" points="870.8337,-550.9822 871.5737,-540.4133 864.4043,-548.214 870.8337,-550.9822"/>
</g>
<!-- 31 -->
<g id="node32" class="node">
<title>31</title>
<path fill="none" stroke="#569ad8" stroke-width="2" d="M984.5016,-684C984.5016,-684 874.5016,-684 874.5016,-684 868.5016,-684 862.5016,-678 862.5016,-672 862.5016,-672 862.5016,-660 862.5016,-660 862.5016,-654 868.5016,-648 874.5016,-648 874.5016,-648 984.5016,-648 984.5016,-648 990.5016,-648 996.5016,-654 996.5016,-660 996.5016,-660 996.5016,-672 996.5016,-672 996.5016,-678 990.5016,-684 984.5016,-684"/>
<text text-anchor="middle" x="929.5016" y="-663.5" font-family="sans" font-size="10.00" fill="#000000">shard_saturated_reads_get</text>
</g>
<!-- 31&#45;&gt;30 -->
<g id="edge58" class="edge">
<title>31&#45;&gt;30</title>
<path fill="none" stroke="#c0c0c0" stroke-width="2" d="M909.0619,-647.8314C899.1811,-639.0485 887.1692,-628.3712 876.4566,-618.8489"/>
<polygon fill="#c0c0c0" stroke="#c0c0c0" stroke-width="2" points="878.7342,-616.1906 868.9348,-612.1628 874.0836,-621.4224 878.7342,-616.1906"/>
</g>
<!-- 31&#45;&gt;37 -->
<g id="edge68" class="edge">
<title>31&#45;&gt;37</title>
<path fill="none" stroke="#c0c0c0" stroke-width="2" d="M995.026,-647.9243C1031.4819,-637.8675 1077.0204,-625.3052 1114.9701,-614.8363"/>
<polygon fill="#c0c0c0" stroke="#c0c0c0" stroke-width="2" points="1116.2411,-618.1165 1124.9502,-612.0831 1114.3795,-611.3685 1116.2411,-618.1165"/>
</g>
<!-- 31&#45;&gt;40 -->
<g id="edge72" class="edge">
<title>31&#45;&gt;40</title>
<path fill="none" stroke="#c0c0c0" stroke-width="2" d="M952.2124,-647.8314C963.2976,-638.9632 976.797,-628.1637 988.7868,-618.5718"/>
<polygon fill="#c0c0c0" stroke="#c0c0c0" stroke-width="2" points="991.1758,-621.1429 996.7981,-612.1628 986.8029,-615.6768 991.1758,-621.1429"/>
</g>
<!-- 66 -->
<g id="node67" class="node">
<title>66</title>
<path fill="none" stroke="#56b1d8" stroke-width="2" d="M551.0016,-108C551.0016,-108 424.0016,-108 424.0016,-108 418.0016,-108 412.0016,-102 412.0016,-96 412.0016,-96 412.0016,-84 412.0016,-84 412.0016,-78 418.0016,-72 424.0016,-72 424.0016,-72 551.0016,-72 551.0016,-72 557.0016,-72 563.0016,-78 563.0016,-84 563.0016,-84 563.0016,-96 563.0016,-96 563.0016,-102 557.0016,-108 551.0016,-108"/>
<text text-anchor="middle" x="487.5016" y="-87.5" font-family="sans" font-size="10.00" fill="#000000">shard_saturated_reads_extract</text>
</g>
<!-- 31&#45;&gt;66 -->
<g id="edge108" class="edge">
<title>31&#45;&gt;66</title>
<path fill="none" stroke="#c0c0c0" stroke-width="2" d="M862.3572,-649.0722C831.1732,-640.0159 794.0942,-627.5093 762.5016,-612 756.1421,-608.878 345.0857,-330.111 341.5016,-324 300.9237,-254.8132 281.7869,-209.2006 328.5016,-144 338.0055,-130.7352 369.6033,-118.7452 402.1541,-109.4518"/>
<polygon fill="#c0c0c0" stroke="#c0c0c0" stroke-width="2" points="403.0982,-112.8222 411.8011,-106.7799 401.2297,-106.0762 403.0982,-112.8222"/>
</g>
<!-- 32&#45;&gt;31 -->
<g id="edge59" class="edge">
<title>32&#45;&gt;31</title>
<path fill="none" stroke="#c0c0c0" stroke-width="2" d="M1061.0894,-719.8314C1037.3412,-710.1162 1007.927,-698.0831 982.9352,-687.8592"/>
<polygon fill="#c0c0c0" stroke="#c0c0c0" stroke-width="2" points="984.1752,-684.585 973.5945,-684.038 981.5247,-691.0638 984.1752,-684.585"/>
</g>
<!-- 33&#45;&gt;31 -->
<g id="edge60" class="edge">
<title>33&#45;&gt;31</title>
<path fill="none" stroke="#c0c0c0" stroke-width="2" d="M944.4548,-719.8314C942.2923,-712.0463 939.7163,-702.7729 937.3168,-694.1347"/>
<polygon fill="#c0c0c0" stroke="#c0c0c0" stroke-width="2" points="940.6652,-693.1117 934.6164,-684.4133 933.9206,-694.9852 940.6652,-693.1117"/>
</g>
<!-- 34&#45;&gt;31 -->
<g id="edge61" class="edge">
<title>34&#45;&gt;31</title>
<path fill="none" stroke="#c0c0c0" stroke-width="2" d="M861.4648,-719.8314C872.6731,-710.9632 886.3225,-700.1637 898.4455,-690.5718"/>
<polygon fill="#c0c0c0" stroke="#c0c0c0" stroke-width="2" points="900.8753,-693.1125 906.5458,-684.1628 896.5319,-687.6229 900.8753,-693.1125"/>
</g>
<!-- 35 -->
<g id="node36" class="node">
<title>35</title>
<path fill="none" stroke="#566bd8" stroke-width="2" d="M1179.5016,-468C1179.5016,-468 1111.5016,-468 1111.5016,-468 1105.5016,-468 1099.5016,-462 1099.5016,-456 1099.5016,-456 1099.5016,-444 1099.5016,-444 1099.5016,-438 1105.5016,-432 1111.5016,-432 1111.5016,-432 1179.5016,-432 1179.5016,-432 1185.5016,-432 1191.5016,-438 1191.5016,-444 1191.5016,-444 1191.5016,-456 1191.5016,-456 1191.5016,-462 1185.5016,-468 1179.5016,-468"/>
<text text-anchor="middle" x="1145.5016" y="-447.5" font-family="sans" font-size="10.00" fill="#000000">shard_sort_query</text>
</g>
<!-- 35&#45;&gt;27 -->
<g id="edge53" class="edge">
<title>35&#45;&gt;27</title>
<path fill="none" stroke="#c0c0c0" stroke-width="2" d="M1113.7065,-431.8314C1097.4411,-422.5368 1077.463,-411.1208 1060.0966,-401.1971"/>
<polygon fill="#c0c0c0" stroke="#c0c0c0" stroke-width="2" points="1061.7055,-398.0854 1051.2866,-396.1628 1058.2325,-404.1631 1061.7055,-398.0854"/>
</g>
<!-- 36 -->
<g id="node37" class="node">
<title>36</title>
<path fill="none" stroke="#56d8c9" stroke-width="2" d="M1215.5016,-540C1215.5016,-540 1135.5016,-540 1135.5016,-540 1129.5016,-540 1123.5016,-534 1123.5016,-528 1123.5016,-528 1123.5016,-516 1123.5016,-516 1123.5016,-510 1129.5016,-504 1135.5016,-504 1135.5016,-504 1215.5016,-504 1215.5016,-504 1221.5016,-504 1227.5016,-510 1227.5016,-516 1227.5016,-516 1227.5016,-528 1227.5016,-528 1227.5016,-534 1221.5016,-540 1215.5016,-540"/>
<text text-anchor="middle" x="1175.5016" y="-519.5" font-family="sans" font-size="10.00" fill="#000000">shard_clean_header</text>
</g>
<!-- 36&#45;&gt;35 -->
<g id="edge65" class="edge">
<title>36&#45;&gt;35</title>
<path fill="none" stroke="#c0c0c0" stroke-width="2" d="M1167.9313,-503.8314C1164.6523,-495.9617 1160.7396,-486.5712 1157.1071,-477.8533"/>
<polygon fill="#c0c0c0" stroke="#c0c0c0" stroke-width="2" points="1160.2508,-476.2979 1153.1738,-468.4133 1153.7892,-478.9902 1160.2508,-476.2979"/>
</g>
<!-- 37&#45;&gt;36 -->
<g id="edge66" class="edge">
<title>37&#45;&gt;36</title>
<path fill="none" stroke="#c0c0c0" stroke-width="2" d="M1186.7165,-575.8314C1185.1122,-568.131 1183.2046,-558.9743 1181.4217,-550.4166"/>
<polygon fill="#c0c0c0" stroke="#c0c0c0" stroke-width="2" points="1184.8038,-549.4892 1179.3377,-540.4133 1177.9509,-550.9169 1184.8038,-549.4892"/>
</g>
<!-- 38 -->
<g id="node39" class="node">
<title>38</title>
<path fill="none" stroke="#566bd8" stroke-width="2" d="M1053.5016,-468C1053.5016,-468 985.5016,-468 985.5016,-468 979.5016,-468 973.5016,-462 973.5016,-456 973.5016,-456 973.5016,-444 973.5016,-444 973.5016,-438 979.5016,-432 985.5016,-432 985.5016,-432 1053.5016,-432 1053.5016,-432 1059.5016,-432 1065.5016,-438 1065.5016,-444 1065.5016,-444 1065.5016,-456 1065.5016,-456 1065.5016,-462 1059.5016,-468 1053.5016,-468"/>
<text text-anchor="middle" x="1019.5016" y="-447.5" font-family="sans" font-size="10.00" fill="#000000">shard_sort_query</text>
</g>
<!-- 38&#45;&gt;27 -->
<g id="edge54" class="edge">
<title>38&#45;&gt;27</title>
<path fill="none" stroke="#c0c0c0" stroke-width="2" d="M1019.5016,-431.8314C1019.5016,-424.131 1019.5016,-414.9743 1019.5016,-406.4166"/>
<polygon fill="#c0c0c0" stroke="#c0c0c0" stroke-width="2" points="1023.0017,-406.4132 1019.5016,-396.4133 1016.0017,-406.4133 1023.0017,-406.4132"/>
</g>
<!-- 39 -->
<g id="node40" class="node">
<title>39</title>
<path fill="none" stroke="#56d8c9" stroke-width="2" d="M1059.5016,-540C1059.5016,-540 979.5016,-540 979.5016,-540 973.5016,-540 967.5016,-534 967.5016,-528 967.5016,-528 967.5016,-516 967.5016,-516 967.5016,-510 973.5016,-504 979.5016,-504 979.5016,-504 1059.5016,-504 1059.5016,-504 1065.5016,-504 1071.5016,-510 1071.5016,-516 1071.5016,-516 1071.5016,-528 1071.5016,-528 1071.5016,-534 1065.5016,-540 1059.5016,-540"/>
<text text-anchor="middle" x="1019.5016" y="-519.5" font-family="sans" font-size="10.00" fill="#000000">shard_clean_header</text>
</g>
<!-- 39&#45;&gt;38 -->
<g id="edge69" class="edge">
<title>39&#45;&gt;38</title>
<path fill="none" stroke="#c0c0c0" stroke-width="2" d="M1019.5016,-503.8314C1019.5016,-496.131 1019.5016,-486.9743 1019.5016,-478.4166"/>
<polygon fill="#c0c0c0" stroke="#c0c0c0" stroke-width="2" points="1023.0017,-478.4132 1019.5016,-468.4133 1016.0017,-478.4133 1023.0017,-478.4132"/>
</g>
<!-- 40&#45;&gt;39 -->
<g id="edge70" class="edge">
<title>40&#45;&gt;39</title>
<path fill="none" stroke="#c0c0c0" stroke-width="2" d="M1019.5016,-575.8314C1019.5016,-568.131 1019.5016,-558.9743 1019.5016,-550.4166"/>
<polygon fill="#c0c0c0" stroke="#c0c0c0" stroke-width="2" points="1023.0017,-550.4132 1019.5016,-540.4133 1016.0017,-550.4133 1023.0017,-550.4132"/>
</g>
<!-- 41 -->
<g id="node42" class="node">
<title>41</title>
<path fill="none" stroke="#ced856" stroke-width="2" d="M1489.5016,-252C1489.5016,-252 1449.5016,-252 1449.5016,-252 1443.5016,-252 1437.5016,-246 1437.5016,-240 1437.5016,-240 1437.5016,-228 1437.5016,-228 1437.5016,-222 1443.5016,-216 1449.5016,-216 1449.5016,-216 1489.5016,-216 1489.5016,-216 1495.5016,-216 1501.5016,-222 1501.5016,-228 1501.5016,-228 1501.5016,-240 1501.5016,-240 1501.5016,-246 1495.5016,-252 1489.5016,-252"/>
<text text-anchor="middle" x="1469.5016" y="-231.5" font-family="sans" font-size="10.00" fill="#000000">align_stats</text>
</g>
<!-- 41&#45;&gt;1 -->
<g id="edge22" class="edge">
<title>41&#45;&gt;1</title>
<path fill="none" stroke="#c0c0c0" stroke-width="2" d="M1465.5634,-215.8149C1460.0051,-194.8617 1447.7133,-161.1242 1423.5016,-144 1364.8625,-102.5264 1145.1904,-92.8722 1056.7426,-90.6524"/>
<polygon fill="#c0c0c0" stroke="#c0c0c0" stroke-width="2" points="1056.7052,-87.1506 1046.6264,-90.4169 1056.5423,-94.1487 1056.7052,-87.1506"/>
</g>
<!-- 42 -->
<g id="node43" class="node">
<title>42</title>
<path fill="none" stroke="#d88556" stroke-width="2" d="M1610.0016,-396C1610.0016,-396 1565.0016,-396 1565.0016,-396 1559.0016,-396 1553.0016,-390 1553.0016,-384 1553.0016,-384 1553.0016,-372 1553.0016,-372 1553.0016,-366 1559.0016,-360 1565.0016,-360 1565.0016,-360 1610.0016,-360 1610.0016,-360 1616.0016,-360 1622.0016,-366 1622.0016,-372 1622.0016,-372 1622.0016,-384 1622.0016,-384 1622.0016,-390 1616.0016,-396 1610.0016,-396"/>
<text text-anchor="middle" x="1587.5016" y="-375.5" font-family="sans" font-size="10.00" fill="#000000">align_merge</text>
</g>
<!-- 42&#45;&gt;41 -->
<g id="edge73" class="edge">
<title>42&#45;&gt;41</title>
<path fill="none" stroke="#c0c0c0" stroke-width="2" d="M1553.6908,-359.8023C1538.9681,-350.5903 1522.3976,-338.3161 1510.5016,-324 1495.2469,-305.6419 1484.4696,-280.6825 1477.8053,-261.7046"/>
<polygon fill="#c0c0c0" stroke="#c0c0c0" stroke-width="2" points="1481.094,-260.5028 1474.6085,-252.125 1474.454,-262.7187 1481.094,-260.5028"/>
</g>
<!-- 61 -->
<g id="node62" class="node">
<title>61</title>
<path fill="none" stroke="#56d89a" stroke-width="2" d="M1583.0016,-324C1583.0016,-324 1532.0016,-324 1532.0016,-324 1526.0016,-324 1520.0016,-318 1520.0016,-312 1520.0016,-312 1520.0016,-300 1520.0016,-300 1520.0016,-294 1526.0016,-288 1532.0016,-288 1532.0016,-288 1583.0016,-288 1583.0016,-288 1589.0016,-288 1595.0016,-294 1595.0016,-300 1595.0016,-300 1595.0016,-312 1595.0016,-312 1595.0016,-318 1589.0016,-324 1583.0016,-324"/>
<text text-anchor="middle" x="1557.5016" y="-303.5" font-family="sans" font-size="10.00" fill="#000000">metadmg_lca</text>
</g>
<!-- 42&#45;&gt;61 -->
<g id="edge100" class="edge">
<title>42&#45;&gt;61</title>
<path fill="none" stroke="#c0c0c0" stroke-width="2" d="M1579.9313,-359.8314C1576.6523,-351.9617 1572.7396,-342.5712 1569.1071,-333.8533"/>
<polygon fill="#c0c0c0" stroke="#c0c0c0" stroke-width="2" points="1572.2508,-332.2979 1565.1738,-324.4133 1565.7892,-334.9902 1572.2508,-332.2979"/>
</g>
<!-- 70 -->
<g id="node71" class="node">
<title>70</title>
<path fill="none" stroke="#56d86b" stroke-width="2" d="M1698.0016,-324C1698.0016,-324 1625.0016,-324 1625.0016,-324 1619.0016,-324 1613.0016,-318 1613.0016,-312 1613.0016,-312 1613.0016,-300 1613.0016,-300 1613.0016,-294 1619.0016,-288 1625.0016,-288 1625.0016,-288 1698.0016,-288 1698.0016,-288 1704.0016,-288 1710.0016,-294 1710.0016,-300 1710.0016,-300 1710.0016,-312 1710.0016,-312 1710.0016,-318 1704.0016,-324 1698.0016,-324"/>
<text text-anchor="middle" x="1661.5016" y="-303.5" font-family="sans" font-size="10.00" fill="#000000">metadmg_damage</text>
</g>
<!-- 42&#45;&gt;70 -->
<g id="edge112" class="edge">
<title>42&#45;&gt;70</title>
<path fill="none" stroke="#c0c0c0" stroke-width="2" d="M1606.1749,-359.8314C1615.0265,-351.219 1625.7502,-340.7851 1635.3911,-331.4048"/>
<polygon fill="#c0c0c0" stroke="#c0c0c0" stroke-width="2" points="1638.1077,-333.645 1642.8343,-324.1628 1633.2262,-328.6279 1638.1077,-333.645"/>
</g>
<!-- 43 -->
<g id="node44" class="node">
<title>43</title>
<path fill="none" stroke="#566bd8" stroke-width="2" d="M1584.5016,-468C1584.5016,-468 1516.5016,-468 1516.5016,-468 1510.5016,-468 1504.5016,-462 1504.5016,-456 1504.5016,-456 1504.5016,-444 1504.5016,-444 1504.5016,-438 1510.5016,-432 1516.5016,-432 1516.5016,-432 1584.5016,-432 1584.5016,-432 1590.5016,-432 1596.5016,-438 1596.5016,-444 1596.5016,-444 1596.5016,-456 1596.5016,-456 1596.5016,-462 1590.5016,-468 1584.5016,-468"/>
<text text-anchor="middle" x="1550.5016" y="-447.5" font-family="sans" font-size="10.00" fill="#000000">shard_sort_query</text>
</g>
<!-- 43&#45;&gt;42 -->
<g id="edge74" class="edge">
<title>43&#45;&gt;42</title>
<path fill="none" stroke="#c0c0c0" stroke-width="2" d="M1559.8383,-431.8314C1563.9259,-423.8771 1568.812,-414.369 1573.3325,-405.5723"/>
<polygon fill="#c0c0c0" stroke="#c0c0c0" stroke-width="2" points="1576.5815,-406.9074 1578.0392,-396.4133 1570.3555,-403.7078 1576.5815,-406.9074"/>
</g>
<!-- 44 -->
<g id="node45" class="node">
<title>44</title>
<path fill="none" stroke="#56d8c9" stroke-width="2" d="M1567.5016,-540C1567.5016,-540 1487.5016,-540 1487.5016,-540 1481.5016,-540 1475.5016,-534 1475.5016,-528 1475.5016,-528 1475.5016,-516 1475.5016,-516 1475.5016,-510 1481.5016,-504 1487.5016,-504 1487.5016,-504 1567.5016,-504 1567.5016,-504 1573.5016,-504 1579.5016,-510 1579.5016,-516 1579.5016,-516 1579.5016,-528 1579.5016,-528 1579.5016,-534 1573.5016,-540 1567.5016,-540"/>
<text text-anchor="middle" x="1527.5016" y="-519.5" font-family="sans" font-size="10.00" fill="#000000">shard_clean_header</text>
</g>
<!-- 44&#45;&gt;43 -->
<g id="edge77" class="edge">
<title>44&#45;&gt;43</title>
<path fill="none" stroke="#c0c0c0" stroke-width="2" d="M1533.3055,-503.8314C1535.7924,-496.0463 1538.7547,-486.7729 1541.5141,-478.1347"/>
<polygon fill="#c0c0c0" stroke="#c0c0c0" stroke-width="2" points="1544.9106,-479.0041 1544.6196,-468.4133 1538.2425,-476.874 1544.9106,-479.0041"/>
</g>
<!-- 45&#45;&gt;44 -->
<g id="edge78" class="edge">
<title>45&#45;&gt;44</title>
<path fill="none" stroke="#c0c0c0" stroke-width="2" d="M1517.7821,-575.8314C1519.1724,-568.131 1520.8257,-558.9743 1522.3708,-550.4166"/>
<polygon fill="#c0c0c0" stroke="#c0c0c0" stroke-width="2" points="1525.8444,-550.8761 1524.177,-540.4133 1518.9558,-549.6322 1525.8444,-550.8761"/>
</g>
<!-- 46 -->
<g id="node47" class="node">
<title>46</title>
<path fill="none" stroke="#569ad8" stroke-width="2" d="M1740.5016,-684C1740.5016,-684 1630.5016,-684 1630.5016,-684 1624.5016,-684 1618.5016,-678 1618.5016,-672 1618.5016,-672 1618.5016,-660 1618.5016,-660 1618.5016,-654 1624.5016,-648 1630.5016,-648 1630.5016,-648 1740.5016,-648 1740.5016,-648 1746.5016,-648 1752.5016,-654 1752.5016,-660 1752.5016,-660 1752.5016,-672 1752.5016,-672 1752.5016,-678 1746.5016,-684 1740.5016,-684"/>
<text text-anchor="middle" x="1685.5016" y="-663.5" font-family="sans" font-size="10.00" fill="#000000">shard_saturated_reads_get</text>
</g>
<!-- 46&#45;&gt;45 -->
<g id="edge80" class="edge">
<title>46&#45;&gt;45</title>
<path fill="none" stroke="#c0c0c0" stroke-width="2" d="M1642.3511,-647.8314C1619.3792,-638.159 1590.9507,-626.1891 1566.7384,-615.9944"/>
<polygon fill="#c0c0c0" stroke="#c0c0c0" stroke-width="2" points="1567.9164,-612.6929 1557.3418,-612.038 1565.2,-619.1443 1567.9164,-612.6929"/>
</g>
<!-- 46&#45;&gt;52 -->
<g id="edge90" class="edge">
<title>46&#45;&gt;52</title>
<path fill="none" stroke="#c0c0c0" stroke-width="2" d="M1738.2224,-647.9243C1767.0555,-638.0387 1802.9497,-625.7321 1833.1647,-615.3726"/>
<polygon fill="#c0c0c0" stroke="#c0c0c0" stroke-width="2" points="1834.4348,-618.6373 1842.7591,-612.0831 1832.1645,-612.0156 1834.4348,-618.6373"/>
</g>
<!-- 46&#45;&gt;55 -->
<g id="edge94" class="edge">
<title>46&#45;&gt;55</title>
<path fill="none" stroke="#c0c0c0" stroke-width="2" d="M1685.5016,-647.8314C1685.5016,-640.131 1685.5016,-630.9743 1685.5016,-622.4166"/>
<polygon fill="#c0c0c0" stroke="#c0c0c0" stroke-width="2" points="1689.0017,-622.4132 1685.5016,-612.4133 1682.0017,-622.4133 1689.0017,-622.4132"/>
</g>
<!-- 67 -->
<g id="node68" class="node">
<title>67</title>
<path fill="none" stroke="#56b1d8" stroke-width="2" d="M1841.0016,-396C1841.0016,-396 1714.0016,-396 1714.0016,-396 1708.0016,-396 1702.0016,-390 1702.0016,-384 1702.0016,-384 1702.0016,-372 1702.0016,-372 1702.0016,-366 1708.0016,-360 1714.0016,-360 1714.0016,-360 1841.0016,-360 1841.0016,-360 1847.0016,-360 1853.0016,-366 1853.0016,-372 1853.0016,-372 1853.0016,-384 1853.0016,-384 1853.0016,-390 1847.0016,-396 1841.0016,-396"/>
<text text-anchor="middle" x="1777.5016" y="-375.5" font-family="sans" font-size="10.00" fill="#000000">shard_saturated_reads_extract</text>
</g>
<!-- 46&#45;&gt;67 -->
<g id="edge109" class="edge">
<title>46&#45;&gt;67</title>
<path fill="none" stroke="#c0c0c0" stroke-width="2" d="M1731.7588,-647.849C1747.1388,-639.3709 1762.5997,-627.6245 1771.5016,-612 1808.922,-546.3203 1795.1304,-452.5457 1784.7924,-406.1798"/>
<polygon fill="#c0c0c0" stroke="#c0c0c0" stroke-width="2" points="1788.1535,-405.1819 1782.4652,-396.2435 1781.3379,-406.7782 1788.1535,-405.1819"/>
</g>
<!-- 47&#45;&gt;46 -->
<g id="edge81" class="edge">
<title>47&#45;&gt;46</title>
<path fill="none" stroke="#c0c0c0" stroke-width="2" d="M1787.1831,-719.8314C1769.4657,-710.4516 1747.6671,-698.9112 1728.8032,-688.9244"/>
<polygon fill="#c0c0c0" stroke="#c0c0c0" stroke-width="2" points="1730.2847,-685.7485 1719.8092,-684.1628 1727.0094,-691.935 1730.2847,-685.7485"/>
</g>
<!-- 48&#45;&gt;46 -->
<g id="edge82" class="edge">
<title>48&#45;&gt;46</title>
<path fill="none" stroke="#c0c0c0" stroke-width="2" d="M1675.0344,-719.8314C1676.5317,-712.131 1678.3122,-702.9743 1679.9762,-694.4166"/>
<polygon fill="#c0c0c0" stroke="#c0c0c0" stroke-width="2" points="1683.4481,-694.8975 1681.9213,-684.4133 1676.5768,-693.5614 1683.4481,-694.8975"/>
</g>
<!-- 49&#45;&gt;46 -->
<g id="edge83" class="edge">
<title>49&#45;&gt;46</title>
<path fill="none" stroke="#c0c0c0" stroke-width="2" d="M1592.0444,-719.8314C1608.1807,-710.5368 1628.0002,-699.1208 1645.2288,-689.1971"/>
<polygon fill="#c0c0c0" stroke="#c0c0c0" stroke-width="2" points="1647.0505,-692.187 1653.9689,-684.1628 1643.5566,-686.1212 1647.0505,-692.187"/>
</g>
<!-- 50 -->
<g id="node51" class="node">
<title>50</title>
<path fill="none" stroke="#566bd8" stroke-width="2" d="M1907.5016,-468C1907.5016,-468 1839.5016,-468 1839.5016,-468 1833.5016,-468 1827.5016,-462 1827.5016,-456 1827.5016,-456 1827.5016,-444 1827.5016,-444 1827.5016,-438 1833.5016,-432 1839.5016,-432 1839.5016,-432 1907.5016,-432 1907.5016,-432 1913.5016,-432 1919.5016,-438 1919.5016,-444 1919.5016,-444 1919.5016,-456 1919.5016,-456 1919.5016,-462 1913.5016,-468 1907.5016,-468"/>
<text text-anchor="middle" x="1873.5016" y="-447.5" font-family="sans" font-size="10.00" fill="#000000">shard_sort_query</text>
</g>
<!-- 50&#45;&gt;42 -->
<g id="edge75" class="edge">
<title>50&#45;&gt;42</title>
<path fill="none" stroke="#c0c0c0" stroke-width="2" d="M1827.2329,-438.3519C1773.3194,-424.7793 1684.8723,-402.5129 1631.812,-389.1551"/>
<polygon fill="#c0c0c0" stroke="#c0c0c0" stroke-width="2" points="1632.5646,-385.7354 1622.0127,-386.6881 1630.8556,-392.5236 1632.5646,-385.7354"/>
</g>
<!-- 51 -->
<g id="node52" class="node">
<title>51</title>
<path fill="none" stroke="#56d8c9" stroke-width="2" d="M1922.5016,-540C1922.5016,-540 1842.5016,-540 1842.5016,-540 1836.5016,-540 1830.5016,-534 1830.5016,-528 1830.5016,-528 1830.5016,-516 1830.5016,-516 1830.5016,-510 1836.5016,-504 1842.5016,-504 1842.5016,-504 1922.5016,-504 1922.5016,-504 1928.5016,-504 1934.5016,-510 1934.5016,-516 1934.5016,-516 1934.5016,-528 1934.5016,-528 1934.5016,-534 1928.5016,-540 1922.5016,-540"/>
<text text-anchor="middle" x="1882.5016" y="-519.5" font-family="sans" font-size="10.00" fill="#000000">shard_clean_header</text>
</g>
<!-- 51&#45;&gt;50 -->
<g id="edge87" class="edge">
<title>51&#45;&gt;50</title>
<path fill="none" stroke="#c0c0c0" stroke-width="2" d="M1880.2305,-503.8314C1879.268,-496.131 1878.1234,-486.9743 1877.0537,-478.4166"/>
<polygon fill="#c0c0c0" stroke="#c0c0c0" stroke-width="2" points="1880.5167,-477.9019 1875.8033,-468.4133 1873.5707,-478.7702 1880.5167,-477.9019"/>
</g>
<!-- 52&#45;&gt;51 -->
<g id="edge88" class="edge">
<title>52&#45;&gt;51</title>
<path fill="none" stroke="#c0c0c0" stroke-width="2" d="M1892.2212,-575.8314C1890.8308,-568.131 1889.1775,-558.9743 1887.6324,-550.4166"/>
<polygon fill="#c0c0c0" stroke="#c0c0c0" stroke-width="2" points="1891.0474,-549.6322 1885.8262,-540.4133 1884.1588,-550.8761 1891.0474,-549.6322"/>
</g>
<!-- 53 -->
<g id="node54" class="node">
<title>53</title>
<path fill="none" stroke="#566bd8" stroke-width="2" d="M1703.5016,-468C1703.5016,-468 1635.5016,-468 1635.5016,-468 1629.5016,-468 1623.5016,-462 1623.5016,-456 1623.5016,-456 1623.5016,-444 1623.5016,-444 1623.5016,-438 1629.5016,-432 1635.5016,-432 1635.5016,-432 1703.5016,-432 1703.5016,-432 1709.5016,-432 1715.5016,-438 1715.5016,-444 1715.5016,-444 1715.5016,-456 1715.5016,-456 1715.5016,-462 1709.5016,-468 1703.5016,-468"/>
<text text-anchor="middle" x="1669.5016" y="-447.5" font-family="sans" font-size="10.00" fill="#000000">shard_sort_query</text>
</g>
<!-- 53&#45;&gt;42 -->
<g id="edge76" class="edge">
<title>53&#45;&gt;42</title>
<path fill="none" stroke="#c0c0c0" stroke-width="2" d="M1648.8095,-431.8314C1638.8068,-423.0485 1626.6466,-412.3712 1615.8017,-402.8489"/>
<polygon fill="#c0c0c0" stroke="#c0c0c0" stroke-width="2" points="1618.0108,-400.1308 1608.1871,-396.1628 1613.3922,-405.3909 1618.0108,-400.1308"/>
</g>
<!-- 54 -->
<g id="node55" class="node">
<title>54</title>
<path fill="none" stroke="#56d8c9" stroke-width="2" d="M1713.5016,-540C1713.5016,-540 1633.5016,-540 1633.5016,-540 1627.5016,-540 1621.5016,-534 1621.5016,-528 1621.5016,-528 1621.5016,-516 1621.5016,-516 1621.5016,-510 1627.5016,-504 1633.5016,-504 1633.5016,-504 1713.5016,-504 1713.5016,-504 1719.5016,-504 1725.5016,-510 1725.5016,-516 1725.5016,-516 1725.5016,-528 1725.5016,-528 1725.5016,-534 1719.5016,-540 1713.5016,-540"/>
<text text-anchor="middle" x="1673.5016" y="-519.5" font-family="sans" font-size="10.00" fill="#000000">shard_clean_header</text>
</g>
<!-- 54&#45;&gt;53 -->
<g id="edge91" class="edge">
<title>54&#45;&gt;53</title>
<path fill="none" stroke="#c0c0c0" stroke-width="2" d="M1672.4922,-503.8314C1672.0644,-496.131 1671.5557,-486.9743 1671.0803,-478.4166"/>
<polygon fill="#c0c0c0" stroke="#c0c0c0" stroke-width="2" points="1674.574,-478.2037 1670.5246,-468.4133 1667.5848,-478.592 1674.574,-478.2037"/>
</g>
<!-- 55&#45;&gt;54 -->
<g id="edge92" class="edge">
<title>55&#45;&gt;54</title>
<path fill="none" stroke="#c0c0c0" stroke-width="2" d="M1682.4735,-575.8314C1681.1901,-568.131 1679.664,-558.9743 1678.2377,-550.4166"/>
<polygon fill="#c0c0c0" stroke="#c0c0c0" stroke-width="2" points="1681.6669,-549.7018 1676.5705,-540.4133 1674.7622,-550.8526 1681.6669,-549.7018"/>
</g>
<!-- 56 -->
<g id="node57" class="node">
<title>56</title>
<path fill="none" stroke="#56d882" stroke-width="2" d="M480.5016,-252C480.5016,-252 428.5016,-252 428.5016,-252 422.5016,-252 416.5016,-246 416.5016,-240 416.5016,-240 416.5016,-228 416.5016,-228 416.5016,-222 422.5016,-216 428.5016,-216 428.5016,-216 480.5016,-216 480.5016,-216 486.5016,-216 492.5016,-222 492.5016,-228 492.5016,-228 492.5016,-240 492.5016,-240 492.5016,-246 486.5016,-252 480.5016,-252"/>
<text text-anchor="middle" x="454.5016" y="-231.5" font-family="sans" font-size="10.00" fill="#000000">metadmg_dfit</text>
</g>
<!-- 56&#45;&gt;1 -->
<g id="edge23" class="edge">
<title>56&#45;&gt;1</title>
<path fill="none" stroke="#c0c0c0" stroke-width="2" d="M456.2805,-215.8138C459.3772,-194.8597 467.7921,-161.1212 490.5016,-144 510.1595,-129.1794 864.4368,-101.5583 981.9653,-92.7642"/>
<polygon fill="#c0c0c0" stroke="#c0c0c0" stroke-width="2" points="982.5508,-96.2303 992.2629,-91.9966 982.0304,-89.2497 982.5508,-96.2303"/>
</g>
<!-- 62 -->
<g id="node63" class="node">
<title>62</title>
<path fill="none" stroke="#59d856" stroke-width="2" d="M431.0016,-180C431.0016,-180 350.0016,-180 350.0016,-180 344.0016,-180 338.0016,-174 338.0016,-168 338.0016,-168 338.0016,-156 338.0016,-156 338.0016,-150 344.0016,-144 350.0016,-144 350.0016,-144 431.0016,-144 431.0016,-144 437.0016,-144 443.0016,-150 443.0016,-156 443.0016,-156 443.0016,-168 443.0016,-168 443.0016,-174 437.0016,-180 431.0016,-180"/>
<text text-anchor="middle" x="390.5016" y="-159.5" font-family="sans" font-size="10.00" fill="#000000">metadmg_aggregate</text>
</g>
<!-- 56&#45;&gt;62 -->
<g id="edge102" class="edge">
<title>56&#45;&gt;62</title>
<path fill="none" stroke="#c0c0c0" stroke-width="2" d="M438.3517,-215.8314C430.8299,-207.3694 421.7451,-197.1489 413.5212,-187.8971"/>
<polygon fill="#c0c0c0" stroke="#c0c0c0" stroke-width="2" points="416.1286,-185.5621 406.869,-180.4133 410.8967,-190.2127 416.1286,-185.5621"/>
</g>
<!-- 57&#45;&gt;56 -->
<g id="edge95" class="edge">
<title>57&#45;&gt;56</title>
<path fill="none" stroke="#c0c0c0" stroke-width="2" d="M405.1562,-287.8314C412.913,-279.3694 422.2818,-269.1489 430.7626,-259.8971"/>
<polygon fill="#c0c0c0" stroke="#c0c0c0" stroke-width="2" points="433.4456,-262.1499 437.6228,-252.4133 428.2855,-257.4198 433.4456,-262.1499"/>
</g>
<!-- 57&#45;&gt;62 -->
<g id="edge101" class="edge">
<title>57&#45;&gt;62</title>
<path fill="none" stroke="#c0c0c0" stroke-width="2" d="M388.7549,-287.7623C389.096,-263.201 389.7065,-219.2474 390.1078,-190.3541"/>
<polygon fill="#c0c0c0" stroke="#c0c0c0" stroke-width="2" points="393.6111,-190.1373 390.2504,-180.0896 386.6117,-190.04 393.6111,-190.1373"/>
</g>
<!-- 58 -->
<g id="node59" class="node">
<title>58</title>
<path fill="none" stroke="#56d882" stroke-width="2" d="M1301.5016,-252C1301.5016,-252 1249.5016,-252 1249.5016,-252 1243.5016,-252 1237.5016,-246 1237.5016,-240 1237.5016,-240 1237.5016,-228 1237.5016,-228 1237.5016,-222 1243.5016,-216 1249.5016,-216 1249.5016,-216 1301.5016,-216 1301.5016,-216 1307.5016,-216 1313.5016,-222 1313.5016,-228 1313.5016,-228 1313.5016,-240 1313.5016,-240 1313.5016,-246 1307.5016,-252 1301.5016,-252"/>
<text text-anchor="middle" x="1275.5016" y="-231.5" font-family="sans" font-size="10.00" fill="#000000">metadmg_dfit</text>
</g>
<!-- 58&#45;&gt;1 -->
<g id="edge24" class="edge">
<title>58&#45;&gt;1</title>
<path fill="none" stroke="#c0c0c0" stroke-width="2" d="M1269.8295,-215.9352C1262.4529,-195.4202 1247.5842,-162.4152 1223.5016,-144 1197.4316,-124.065 1107.9386,-105.585 1056.5618,-96.2869"/>
<polygon fill="#c0c0c0" stroke="#c0c0c0" stroke-width="2" points="1056.9779,-92.806 1046.5192,-94.4985 1055.7506,-99.6976 1056.9779,-92.806"/>
</g>
<!-- 63 -->
<g id="node64" class="node">
<title>63</title>
<path fill="none" stroke="#59d856" stroke-width="2" d="M1369.0016,-180C1369.0016,-180 1288.0016,-180 1288.0016,-180 1282.0016,-180 1276.0016,-174 1276.0016,-168 1276.0016,-168 1276.0016,-156 1276.0016,-156 1276.0016,-150 1282.0016,-144 1288.0016,-144 1288.0016,-144 1369.0016,-144 1369.0016,-144 1375.0016,-144 1381.0016,-150 1381.0016,-156 1381.0016,-156 1381.0016,-168 1381.0016,-168 1381.0016,-174 1375.0016,-180 1369.0016,-180"/>
<text text-anchor="middle" x="1328.5016" y="-159.5" font-family="sans" font-size="10.00" fill="#000000">metadmg_aggregate</text>
</g>
<!-- 58&#45;&gt;63 -->
<g id="edge104" class="edge">
<title>58&#45;&gt;63</title>
<path fill="none" stroke="#c0c0c0" stroke-width="2" d="M1288.8757,-215.8314C1294.9178,-207.6232 1302.1779,-197.7606 1308.8237,-188.7323"/>
<polygon fill="#c0c0c0" stroke="#c0c0c0" stroke-width="2" points="1311.8379,-190.5415 1314.9474,-180.4133 1306.2005,-186.3918 1311.8379,-190.5415"/>
</g>
<!-- 59&#45;&gt;58 -->
<g id="edge97" class="edge">
<title>59&#45;&gt;58</title>
<path fill="none" stroke="#c0c0c0" stroke-width="2" d="M1275.5016,-287.8314C1275.5016,-280.131 1275.5016,-270.9743 1275.5016,-262.4166"/>
<polygon fill="#c0c0c0" stroke="#c0c0c0" stroke-width="2" points="1279.0017,-262.4132 1275.5016,-252.4133 1272.0017,-262.4133 1279.0017,-262.4132"/>
</g>
<!-- 59&#45;&gt;63 -->
<g id="edge103" class="edge">
<title>59&#45;&gt;63</title>
<path fill="none" stroke="#c0c0c0" stroke-width="2" d="M1296.8728,-287.6607C1306.4842,-278.089 1316.907,-265.5568 1322.5016,-252 1330.5913,-232.397 1331.8012,-208.3487 1331.1463,-190.0438"/>
<polygon fill="#c0c0c0" stroke="#c0c0c0" stroke-width="2" points="1334.6379,-189.795 1330.5831,-180.0068 1327.6489,-190.1872 1334.6379,-189.795"/>
</g>
<!-- 60 -->
<g id="node61" class="node">
<title>60</title>
<path fill="none" stroke="#56d882" stroke-width="2" d="M1583.5016,-252C1583.5016,-252 1531.5016,-252 1531.5016,-252 1525.5016,-252 1519.5016,-246 1519.5016,-240 1519.5016,-240 1519.5016,-228 1519.5016,-228 1519.5016,-222 1525.5016,-216 1531.5016,-216 1531.5016,-216 1583.5016,-216 1583.5016,-216 1589.5016,-216 1595.5016,-222 1595.5016,-228 1595.5016,-228 1595.5016,-240 1595.5016,-240 1595.5016,-246 1589.5016,-252 1583.5016,-252"/>
<text text-anchor="middle" x="1557.5016" y="-231.5" font-family="sans" font-size="10.00" fill="#000000">metadmg_dfit</text>
</g>
<!-- 60&#45;&gt;1 -->
<g id="edge25" class="edge">
<title>60&#45;&gt;1</title>
<path fill="none" stroke="#c0c0c0" stroke-width="2" d="M1538.8097,-215.6293C1514.2075,-191.8795 1471.8248,-152.5447 1452.5016,-144 1381.7741,-112.7243 1148.4528,-96.9884 1056.8687,-91.8984"/>
<polygon fill="#c0c0c0" stroke="#c0c0c0" stroke-width="2" points="1056.8511,-88.3923 1046.6757,-91.3435 1056.4706,-95.382 1056.8511,-88.3923"/>
</g>
<!-- 64 -->
<g id="node65" class="node">
<title>64</title>
<path fill="none" stroke="#59d856" stroke-width="2" d="M1607.0016,-180C1607.0016,-180 1526.0016,-180 1526.0016,-180 1520.0016,-180 1514.0016,-174 1514.0016,-168 1514.0016,-168 1514.0016,-156 1514.0016,-156 1514.0016,-150 1520.0016,-144 1526.0016,-144 1526.0016,-144 1607.0016,-144 1607.0016,-144 1613.0016,-144 1619.0016,-150 1619.0016,-156 1619.0016,-156 1619.0016,-168 1619.0016,-168 1619.0016,-174 1613.0016,-180 1607.0016,-180"/>
<text text-anchor="middle" x="1566.5016" y="-159.5" font-family="sans" font-size="10.00" fill="#000000">metadmg_aggregate</text>
</g>
<!-- 60&#45;&gt;64 -->
<g id="edge106" class="edge">
<title>60&#45;&gt;64</title>
<path fill="none" stroke="#c0c0c0" stroke-width="2" d="M1559.7727,-215.8314C1560.7352,-208.131 1561.8798,-198.9743 1562.9495,-190.4166"/>
<polygon fill="#c0c0c0" stroke="#c0c0c0" stroke-width="2" points="1566.4325,-190.7702 1564.1999,-180.4133 1559.4865,-189.9019 1566.4325,-190.7702"/>
</g>
<!-- 61&#45;&gt;60 -->
<g id="edge99" class="edge">
<title>61&#45;&gt;60</title>
<path fill="none" stroke="#c0c0c0" stroke-width="2" d="M1557.5016,-287.8314C1557.5016,-280.131 1557.5016,-270.9743 1557.5016,-262.4166"/>
<polygon fill="#c0c0c0" stroke="#c0c0c0" stroke-width="2" points="1561.0017,-262.4132 1557.5016,-252.4133 1554.0017,-262.4133 1561.0017,-262.4132"/>
</g>
<!-- 61&#45;&gt;64 -->
<g id="edge105" class="edge">
<title>61&#45;&gt;64</title>
<path fill="none" stroke="#c0c0c0" stroke-width="2" d="M1579.2688,-287.8165C1588.9739,-278.2816 1599.3613,-265.7355 1604.5016,-252 1610.1095,-237.015 1609.3308,-231.2538 1604.5016,-216 1601.4201,-206.2664 1595.8834,-196.7695 1589.9727,-188.5228"/>
<polygon fill="#c0c0c0" stroke="#c0c0c0" stroke-width="2" points="1592.6264,-186.2316 1583.7652,-180.4239 1587.0706,-190.49 1592.6264,-186.2316"/>
</g>
<!-- 62&#45;&gt;0 -->
<g id="edge5" class="edge">
<title>62&#45;&gt;0</title>
<path fill="none" stroke="#c0c0c0" stroke-width="2" d="M443.0621,-147.3037C479.34,-136.92 528.5835,-122.3492 571.5016,-108 615.1131,-93.4189 624.3442,-84.8331 668.5016,-72 743.9976,-50.0593 834.5406,-32.8757 884.2538,-24.2022"/>
<polygon fill="#c0c0c0" stroke="#c0c0c0" stroke-width="2" points="884.9631,-27.6316 894.2222,-22.4819 883.7726,-20.7335 884.9631,-27.6316"/>
</g>
<!-- 62&#45;&gt;1 -->
<g id="edge26" class="edge">
<title>62&#45;&gt;1</title>
<path fill="none" stroke="#c0c0c0" stroke-width="2" d="M443.3471,-146.93C448.1106,-145.8366 452.8794,-144.8369 457.5016,-144 559.0113,-125.62 873.5389,-100.9579 982.1584,-92.7703"/>
<polygon fill="#c0c0c0" stroke="#c0c0c0" stroke-width="2" points="982.5992,-96.2471 992.309,-92.008 982.0749,-89.2668 982.5992,-96.2471"/>
</g>
<!-- 63&#45;&gt;0 -->
<g id="edge6" class="edge">
<title>63&#45;&gt;0</title>
<path fill="none" stroke="#c0c0c0" stroke-width="2" d="M1277.3669,-143.9081C1194.1721,-114.4731 1031.4815,-56.9118 958.4898,-31.0867"/>
<polygon fill="#c0c0c0" stroke="#c0c0c0" stroke-width="2" points="959.3981,-27.6955 948.8033,-27.6596 957.0632,-34.2947 959.3981,-27.6955"/>
</g>
<!-- 63&#45;&gt;1 -->
<g id="edge27" class="edge">
<title>63&#45;&gt;1</title>
<path fill="none" stroke="#c0c0c0" stroke-width="2" d="M1275.8898,-147.6369C1271.0324,-146.3799 1266.1801,-145.1499 1261.5016,-144 1189.2578,-126.244 1104.2681,-107.852 1056.6649,-97.7746"/>
<polygon fill="#c0c0c0" stroke="#c0c0c0" stroke-width="2" points="1057.3172,-94.3353 1046.8098,-95.6942 1055.8712,-101.1843 1057.3172,-94.3353"/>
</g>
<!-- 64&#45;&gt;0 -->
<g id="edge7" class="edge">
<title>64&#45;&gt;0</title>
<path fill="none" stroke="#c0c0c0" stroke-width="2" d="M1513.784,-149.4089C1505.9819,-147.576 1498.0353,-145.7262 1490.5016,-144 1290.1313,-98.0894 1049.4157,-45.6897 958.5972,-26.0177"/>
<polygon fill="#c0c0c0" stroke="#c0c0c0" stroke-width="2" points="959.2899,-22.5866 948.7757,-23.8913 957.8086,-29.4281 959.2899,-22.5866"/>
</g>
<!-- 64&#45;&gt;1 -->
<g id="edge28" class="edge">
<title>64&#45;&gt;1</title>
<path fill="none" stroke="#c0c0c0" stroke-width="2" d="M1513.6411,-147.0108C1508.8808,-145.9002 1504.1168,-144.8744 1499.5016,-144 1336.079,-113.0374 1137.7515,-97.6378 1056.7076,-92.2718"/>
<polygon fill="#c0c0c0" stroke="#c0c0c0" stroke-width="2" points="1056.7205,-88.7653 1046.5145,-91.6092 1056.2664,-95.7506 1056.7205,-88.7653"/>
</g>
<!-- 65&#45;&gt;0 -->
<g id="edge2" class="edge">
<title>65&#45;&gt;0</title>
<path fill="none" stroke="#c0c0c0" stroke-width="2" d="M90.593,-359.7475C110.6264,-333.6068 143.5016,-283.2121 143.5016,-234 143.5016,-234 143.5016,-234 143.5016,-162 143.5016,-106.3663 180.1709,-95.705 230.5016,-72 289.7902,-44.076 748.5691,-24.5726 883.9889,-19.3798"/>
<polygon fill="#c0c0c0" stroke="#c0c0c0" stroke-width="2" points="884.4051,-22.8666 894.2651,-18.9896 884.1394,-15.8717 884.4051,-22.8666"/>
</g>
<!-- 66&#45;&gt;0 -->
<g id="edge3" class="edge">
<title>66&#45;&gt;0</title>
<path fill="none" stroke="#c0c0c0" stroke-width="2" d="M563.0986,-77.4586C656.885,-61.8995 813.0874,-35.9858 884.197,-24.1888"/>
<polygon fill="#c0c0c0" stroke="#c0c0c0" stroke-width="2" points="885.1632,-27.5764 894.4555,-22.4869 884.0175,-20.6708 885.1632,-27.5764"/>
</g>
<!-- 67&#45;&gt;0 -->
<g id="edge4" class="edge">
<title>67&#45;&gt;0</title>
<path fill="none" stroke="#c0c0c0" stroke-width="2" d="M1774.808,-359.862C1771.0002,-332.6061 1764.5016,-279.434 1764.5016,-234 1764.5016,-234 1764.5016,-234 1764.5016,-162 1764.5016,-48.9118 1636.7324,-97.2611 1526.5016,-72 1417.3563,-46.9877 1072.945,-26.3122 958.7197,-19.9913"/>
<polygon fill="#c0c0c0" stroke="#c0c0c0" stroke-width="2" points="958.8859,-16.4953 948.709,-19.4416 958.5021,-23.4847 958.8859,-16.4953"/>
</g>
<!-- 68&#45;&gt;0 -->
<g id="edge8" class="edge">
<title>68&#45;&gt;0</title>
<path fill="none" stroke="#c0c0c0" stroke-width="2" d="M337.2378,-81.7235C357.4026,-78.4506 381.0448,-74.8082 402.5016,-72 582.7182,-48.4137 799.2339,-28.6299 884.4606,-21.1754"/>
<polygon fill="#c0c0c0" stroke="#c0c0c0" stroke-width="2" points="884.7687,-24.6619 894.4274,-20.3076 884.1615,-17.6883 884.7687,-24.6619"/>
</g>
<!-- 69&#45;&gt;0 -->
<g id="edge9" class="edge">
<title>69&#45;&gt;0</title>
<path fill="none" stroke="#c0c0c0" stroke-width="2" d="M775.2053,-72.0171C809.2037,-59.4638 853.8675,-42.9726 884.8603,-31.5291"/>
<polygon fill="#c0c0c0" stroke="#c0c0c0" stroke-width="2" points="886.2431,-34.7496 894.4117,-28.0024 883.8184,-28.1829 886.2431,-34.7496"/>
</g>
<!-- 70&#45;&gt;0 -->
<g id="edge10" class="edge">
<title>70&#45;&gt;0</title>
<path fill="none" stroke="#c0c0c0" stroke-width="2" d="M1663.6725,-287.9732C1666.6033,-254.5536 1667.5799,-182.8572 1628.5016,-144 1532.524,-48.5653 1090.7915,-24.3779 958.8295,-19.2323"/>
<polygon fill="#c0c0c0" stroke="#c0c0c0" stroke-width="2" points="958.9275,-15.7336 948.803,-18.8551 958.6643,-22.7286 958.9275,-15.7336"/>
</g>
</g>
</svg>
