<?xml version="1.0" encoding="UTF-8" standalone="no"?>
<!DOCTYPE svg PUBLIC "-//W3C//DTD SVG 1.1//EN"
 "http://www.w3.org/Graphics/SVG/1.1/DTD/svg11.dtd">
<!-- Generated by graphviz version 2.40.1 (0)
 -->
<!-- Title: snakemake_dag Pages: 1 -->
<svg width="1855pt" height="885pt"
 viewBox="0.00 0.00 1855.00 885.00" xmlns="http://www.w3.org/2000/svg" xmlns:xlink="http://www.w3.org/1999/xlink">
<g id="graph0" class="graph" transform="scale(1 1) rotate(0) translate(4 881)">
<title>snakemake_dag</title>
<polygon fill="#ffffff" stroke="transparent" points="-4,4 -4,-881 1851,-881 1851,4 -4,4"/>
<!-- 0 -->
<g id="node1" class="node">
<title>0</title>
<path fill="none" stroke="#afd856" stroke-width="2" d="M828,-36C828,-36 798,-36 798,-36 792,-36 786,-30 786,-24 786,-24 786,-12 786,-12 786,-6 792,0 798,0 798,0 828,0 828,0 834,0 840,-6 840,-12 840,-12 840,-24 840,-24 840,-30 834,-36 828,-36"/>
<text text-anchor="middle" x="813" y="-15.5" font-family="sans" font-size="10.00" fill="#000000">all</text>
</g>
<!-- 1 -->
<g id="node2" class="node">
<title>1</title>
<path fill="none" stroke="#56d8c9" stroke-width="2" d="M909,-108C909,-108 879,-108 879,-108 873,-108 867,-102 867,-96 867,-96 867,-84 867,-84 867,-78 873,-72 879,-72 879,-72 909,-72 909,-72 915,-72 921,-78 921,-84 921,-84 921,-96 921,-96 921,-102 915,-108 909,-108"/>
<text text-anchor="middle" x="894" y="-87.5" font-family="sans" font-size="10.00" fill="#000000">multiqc</text>
</g>
<!-- 1&#45;&gt;0 -->
<g id="edge1" class="edge">
<title>1&#45;&gt;0</title>
<path fill="none" stroke="#c0c0c0" stroke-width="2" d="M873.5603,-71.8314C863.6795,-63.0485 851.6676,-52.3712 840.955,-42.8489"/>
<polygon fill="#c0c0c0" stroke="#c0c0c0" stroke-width="2" points="843.2326,-40.1906 833.4332,-36.1628 838.582,-45.4224 843.2326,-40.1906"/>
</g>
<!-- 2 -->
<g id="node3" class="node">
<title>2</title>
<path fill="none" stroke="#97d856" stroke-width="2" d="M764.5,-877C764.5,-877 657.5,-877 657.5,-877 651.5,-877 645.5,-871 645.5,-865 645.5,-865 645.5,-804 645.5,-804 645.5,-798 651.5,-792 657.5,-792 657.5,-792 764.5,-792 764.5,-792 770.5,-792 776.5,-798 776.5,-804 776.5,-804 776.5,-865 776.5,-865 776.5,-871 770.5,-877 764.5,-877"/>
<text text-anchor="middle" x="711" y="-865" font-family="sans" font-size="10.00" fill="#000000">bowtie2</text>
<text text-anchor="middle" x="711" y="-854" font-family="sans" font-size="10.00" fill="#000000">library: lib1</text>
<text text-anchor="middle" x="711" y="-843" font-family="sans" font-size="10.00" fill="#000000">n_shard: 2</text>
<text text-anchor="middle" x="711" y="-832" font-family="sans" font-size="10.00" fill="#000000">read_type_map: collapsed</text>
<text text-anchor="middle" x="711" y="-821" font-family="sans" font-size="10.00" fill="#000000">ref: wgs_eukaryota</text>
<text text-anchor="middle" x="711" y="-810" font-family="sans" font-size="10.00" fill="#000000">sample: HD827sonic_1</text>
<text text-anchor="middle" x="711" y="-799" font-family="sans" font-size="10.00" fill="#000000">tot_shards: 2</text>
</g>
<!-- 2&#45;&gt;1 -->
<g id="edge8" class="edge">
<title>2&#45;&gt;1</title>
<path fill="none" stroke="#c0c0c0" stroke-width="2" d="M690.7662,-791.6384C669.0811,-740.8329 638.9121,-653.3012 648,-576 671.0465,-379.9682 620.5688,-292.1463 751,-144 777.9793,-113.3564 824.1783,-100.0416 856.7517,-94.2949"/>
<polygon fill="#c0c0c0" stroke="#c0c0c0" stroke-width="2" points="857.4873,-97.7217 866.8071,-92.6826 856.3791,-90.81 857.4873,-97.7217"/>
</g>
<!-- 19 -->
<g id="node20" class="node">
<title>19</title>
<path fill="none" stroke="#56b9d8" stroke-width="2" d="M820.5,-756C820.5,-756 751.5,-756 751.5,-756 745.5,-756 739.5,-750 739.5,-744 739.5,-744 739.5,-732 739.5,-732 739.5,-726 745.5,-720 751.5,-720 751.5,-720 820.5,-720 820.5,-720 826.5,-720 832.5,-726 832.5,-732 832.5,-732 832.5,-744 832.5,-744 832.5,-750 826.5,-756 820.5,-756"/>
<text text-anchor="middle" x="786" y="-735.5" font-family="sans" font-size="10.00" fill="#000000">shard_count_alns</text>
</g>
<!-- 2&#45;&gt;19 -->
<g id="edge39" class="edge">
<title>2&#45;&gt;19</title>
<path fill="none" stroke="#c0c0c0" stroke-width="2" d="M744.1144,-791.8928C751.4133,-782.5016 758.9368,-772.8213 765.5586,-764.3013"/>
<polygon fill="#c0c0c0" stroke="#c0c0c0" stroke-width="2" points="768.4649,-766.2653 771.838,-756.2218 762.9379,-761.9697 768.4649,-766.2653"/>
</g>
<!-- 22 -->
<g id="node23" class="node">
<title>22</title>
<path fill="none" stroke="#568ad8" stroke-width="2" d="M798.5,-612C798.5,-612 669.5,-612 669.5,-612 663.5,-612 657.5,-606 657.5,-600 657.5,-600 657.5,-588 657.5,-588 657.5,-582 663.5,-576 669.5,-576 669.5,-576 798.5,-576 798.5,-576 804.5,-576 810.5,-582 810.5,-588 810.5,-588 810.5,-600 810.5,-600 810.5,-606 804.5,-612 798.5,-612"/>
<text text-anchor="middle" x="734" y="-591.5" font-family="sans" font-size="10.00" fill="#000000">shard_saturated_reads_remove</text>
</g>
<!-- 2&#45;&gt;22 -->
<g id="edge42" class="edge">
<title>2&#45;&gt;22</title>
<path fill="none" stroke="#c0c0c0" stroke-width="2" d="M715.0854,-791.7805C719.7642,-742.8569 727.2974,-664.0855 731.299,-622.2427"/>
<polygon fill="#c0c0c0" stroke="#c0c0c0" stroke-width="2" points="734.7916,-622.4869 732.2595,-612.1991 727.8234,-621.8204 734.7916,-622.4869"/>
</g>
<!-- 3 -->
<g id="node4" class="node">
<title>3</title>
<path fill="none" stroke="#97d856" stroke-width="2" d="M156.5,-877C156.5,-877 49.5,-877 49.5,-877 43.5,-877 37.5,-871 37.5,-865 37.5,-865 37.5,-804 37.5,-804 37.5,-798 43.5,-792 49.5,-792 49.5,-792 156.5,-792 156.5,-792 162.5,-792 168.5,-798 168.5,-804 168.5,-804 168.5,-865 168.5,-865 168.5,-871 162.5,-877 156.5,-877"/>
<text text-anchor="middle" x="103" y="-865" font-family="sans" font-size="10.00" fill="#000000">bowtie2</text>
<text text-anchor="middle" x="103" y="-854" font-family="sans" font-size="10.00" fill="#000000">library: lib1</text>
<text text-anchor="middle" x="103" y="-843" font-family="sans" font-size="10.00" fill="#000000">n_shard: 2</text>
<text text-anchor="middle" x="103" y="-832" font-family="sans" font-size="10.00" fill="#000000">read_type_map: collapsed</text>
<text text-anchor="middle" x="103" y="-821" font-family="sans" font-size="10.00" fill="#000000">ref: wgs_eukaryota</text>
<text text-anchor="middle" x="103" y="-810" font-family="sans" font-size="10.00" fill="#000000">sample: HD827sonic_2</text>
<text text-anchor="middle" x="103" y="-799" font-family="sans" font-size="10.00" fill="#000000">tot_shards: 2</text>
</g>
<!-- 3&#45;&gt;1 -->
<g id="edge9" class="edge">
<title>3&#45;&gt;1</title>
<path fill="none" stroke="#c0c0c0" stroke-width="2" d="M59.02,-791.9691C31.0249,-760.2218 0,-714.1718 0,-666 0,-666 0,-666 0,-234 0,-115.9918 692.3707,-115.6299 762,-108 794.069,-104.4859 830.379,-99.4575 856.7881,-95.6082"/>
<polygon fill="#c0c0c0" stroke="#c0c0c0" stroke-width="2" points="857.3639,-99.0612 866.7485,-94.1439 856.3457,-92.1356 857.3639,-99.0612"/>
</g>
<!-- 34 -->
<g id="node35" class="node">
<title>34</title>
<path fill="none" stroke="#56b9d8" stroke-width="2" d="M212.5,-756C212.5,-756 143.5,-756 143.5,-756 137.5,-756 131.5,-750 131.5,-744 131.5,-744 131.5,-732 131.5,-732 131.5,-726 137.5,-720 143.5,-720 143.5,-720 212.5,-720 212.5,-720 218.5,-720 224.5,-726 224.5,-732 224.5,-732 224.5,-744 224.5,-744 224.5,-750 218.5,-756 212.5,-756"/>
<text text-anchor="middle" x="178" y="-735.5" font-family="sans" font-size="10.00" fill="#000000">shard_count_alns</text>
</g>
<!-- 3&#45;&gt;34 -->
<g id="edge61" class="edge">
<title>3&#45;&gt;34</title>
<path fill="none" stroke="#c0c0c0" stroke-width="2" d="M136.1144,-791.8928C143.4133,-782.5016 150.9368,-772.8213 157.5586,-764.3013"/>
<polygon fill="#c0c0c0" stroke="#c0c0c0" stroke-width="2" points="160.4649,-766.2653 163.838,-756.2218 154.9379,-761.9697 160.4649,-766.2653"/>
</g>
<!-- 37 -->
<g id="node38" class="node">
<title>37</title>
<path fill="none" stroke="#568ad8" stroke-width="2" d="M169.5,-612C169.5,-612 40.5,-612 40.5,-612 34.5,-612 28.5,-606 28.5,-600 28.5,-600 28.5,-588 28.5,-588 28.5,-582 34.5,-576 40.5,-576 40.5,-576 169.5,-576 169.5,-576 175.5,-576 181.5,-582 181.5,-588 181.5,-588 181.5,-600 181.5,-600 181.5,-606 175.5,-612 169.5,-612"/>
<text text-anchor="middle" x="105" y="-591.5" font-family="sans" font-size="10.00" fill="#000000">shard_saturated_reads_remove</text>
</g>
<!-- 3&#45;&gt;37 -->
<g id="edge64" class="edge">
<title>3&#45;&gt;37</title>
<path fill="none" stroke="#c0c0c0" stroke-width="2" d="M103.3553,-791.7805C103.7621,-742.8569 104.4172,-664.0855 104.7651,-622.2427"/>
<polygon fill="#c0c0c0" stroke="#c0c0c0" stroke-width="2" points="108.2653,-622.2279 104.8487,-612.1991 101.2655,-622.1696 108.2653,-622.2279"/>
</g>
<!-- 4 -->
<g id="node5" class="node">
<title>4</title>
<path fill="none" stroke="#97d856" stroke-width="2" d="M381.5,-877C381.5,-877 274.5,-877 274.5,-877 268.5,-877 262.5,-871 262.5,-865 262.5,-865 262.5,-804 262.5,-804 262.5,-798 268.5,-792 274.5,-792 274.5,-792 381.5,-792 381.5,-792 387.5,-792 393.5,-798 393.5,-804 393.5,-804 393.5,-865 393.5,-865 393.5,-871 387.5,-877 381.5,-877"/>
<text text-anchor="middle" x="328" y="-865" font-family="sans" font-size="10.00" fill="#000000">bowtie2</text>
<text text-anchor="middle" x="328" y="-854" font-family="sans" font-size="10.00" fill="#000000">library: lib1</text>
<text text-anchor="middle" x="328" y="-843" font-family="sans" font-size="10.00" fill="#000000">n_shard: 1</text>
<text text-anchor="middle" x="328" y="-832" font-family="sans" font-size="10.00" fill="#000000">read_type_map: collapsed</text>
<text text-anchor="middle" x="328" y="-821" font-family="sans" font-size="10.00" fill="#000000">ref: wgs_eukaryota</text>
<text text-anchor="middle" x="328" y="-810" font-family="sans" font-size="10.00" fill="#000000">sample: HD827sonic_2</text>
<text text-anchor="middle" x="328" y="-799" font-family="sans" font-size="10.00" fill="#000000">tot_shards: 2</text>
</g>
<!-- 4&#45;&gt;1 -->
<g id="edge10" class="edge">
<title>4&#45;&gt;1</title>
<path fill="none" stroke="#c0c0c0" stroke-width="2" d="M361.1095,-791.9854C378.6616,-770.018 400.9066,-743.0556 422,-720 468.2476,-669.4502 498.7554,-671.9076 532,-612 551.8825,-576.1712 552,-562.9758 552,-522 552,-522 552,-522 552,-378 552,-257.7106 592.2645,-216.8303 688,-144 714.3588,-123.9477 804.7159,-105.5145 856.5854,-96.2552"/>
<polygon fill="#c0c0c0" stroke="#c0c0c0" stroke-width="2" points="857.4805,-99.6517 866.7243,-94.4746 856.2696,-92.7572 857.4805,-99.6517"/>
</g>
<!-- 30 -->
<g id="node31" class="node">
<title>30</title>
<path fill="none" stroke="#568ad8" stroke-width="2" d="M340.5,-612C340.5,-612 211.5,-612 211.5,-612 205.5,-612 199.5,-606 199.5,-600 199.5,-600 199.5,-588 199.5,-588 199.5,-582 205.5,-576 211.5,-576 211.5,-576 340.5,-576 340.5,-576 346.5,-576 352.5,-582 352.5,-588 352.5,-588 352.5,-600 352.5,-600 352.5,-606 346.5,-612 340.5,-612"/>
<text text-anchor="middle" x="276" y="-591.5" font-family="sans" font-size="10.00" fill="#000000">shard_saturated_reads_remove</text>
</g>
<!-- 4&#45;&gt;30 -->
<g id="edge54" class="edge">
<title>4&#45;&gt;30</title>
<path fill="none" stroke="#c0c0c0" stroke-width="2" d="M290.49,-791.8766C282.9088,-780.8929 276.0323,-768.5956 272,-756 257.5262,-710.7882 263.8706,-654.7955 269.8774,-621.8767"/>
<polygon fill="#c0c0c0" stroke="#c0c0c0" stroke-width="2" points="273.3166,-622.5266 271.7891,-612.0424 266.4452,-621.1908 273.3166,-622.5266"/>
</g>
<!-- 32 -->
<g id="node33" class="node">
<title>32</title>
<path fill="none" stroke="#56b9d8" stroke-width="2" d="M362.5,-756C362.5,-756 293.5,-756 293.5,-756 287.5,-756 281.5,-750 281.5,-744 281.5,-744 281.5,-732 281.5,-732 281.5,-726 287.5,-720 293.5,-720 293.5,-720 362.5,-720 362.5,-720 368.5,-720 374.5,-726 374.5,-732 374.5,-732 374.5,-744 374.5,-744 374.5,-750 368.5,-756 362.5,-756"/>
<text text-anchor="middle" x="328" y="-735.5" font-family="sans" font-size="10.00" fill="#000000">shard_count_alns</text>
</g>
<!-- 4&#45;&gt;32 -->
<g id="edge59" class="edge">
<title>4&#45;&gt;32</title>
<path fill="none" stroke="#c0c0c0" stroke-width="2" d="M328,-791.8928C328,-783.2842 328,-774.4327 328,-766.4546"/>
<polygon fill="#c0c0c0" stroke="#c0c0c0" stroke-width="2" points="331.5001,-766.2218 328,-756.2218 324.5001,-766.2218 331.5001,-766.2218"/>
</g>
<!-- 5 -->
<g id="node6" class="node">
<title>5</title>
<path fill="none" stroke="#97d856" stroke-width="2" d="M1361.5,-877C1361.5,-877 1254.5,-877 1254.5,-877 1248.5,-877 1242.5,-871 1242.5,-865 1242.5,-865 1242.5,-804 1242.5,-804 1242.5,-798 1248.5,-792 1254.5,-792 1254.5,-792 1361.5,-792 1361.5,-792 1367.5,-792 1373.5,-798 1373.5,-804 1373.5,-804 1373.5,-865 1373.5,-865 1373.5,-871 1367.5,-877 1361.5,-877"/>
<text text-anchor="middle" x="1308" y="-865" font-family="sans" font-size="10.00" fill="#000000">bowtie2</text>
<text text-anchor="middle" x="1308" y="-854" font-family="sans" font-size="10.00" fill="#000000">library: lib2</text>
<text text-anchor="middle" x="1308" y="-843" font-family="sans" font-size="10.00" fill="#000000">n_shard: 2</text>
<text text-anchor="middle" x="1308" y="-832" font-family="sans" font-size="10.00" fill="#000000">read_type_map: collapsed</text>
<text text-anchor="middle" x="1308" y="-821" font-family="sans" font-size="10.00" fill="#000000">ref: wgs_eukaryota</text>
<text text-anchor="middle" x="1308" y="-810" font-family="sans" font-size="10.00" fill="#000000">sample: HD827sonic_2</text>
<text text-anchor="middle" x="1308" y="-799" font-family="sans" font-size="10.00" fill="#000000">tot_shards: 2</text>
</g>
<!-- 5&#45;&gt;1 -->
<g id="edge11" class="edge">
<title>5&#45;&gt;1</title>
<path fill="none" stroke="#c0c0c0" stroke-width="2" d="M1287.5502,-791.9313C1273.3616,-758.4894 1257,-710.3179 1257,-666 1257,-666 1257,-666 1257,-234 1257,-184.9176 1234.437,-170.307 1193,-144 1150.0062,-116.7046 1001.7697,-99.8641 931.5078,-93.2354"/>
<polygon fill="#c0c0c0" stroke="#c0c0c0" stroke-width="2" points="931.608,-89.7299 921.3285,-92.2953 930.9642,-96.7002 931.608,-89.7299"/>
</g>
<!-- 49 -->
<g id="node50" class="node">
<title>49</title>
<path fill="none" stroke="#56b9d8" stroke-width="2" d="M1452.5,-756C1452.5,-756 1383.5,-756 1383.5,-756 1377.5,-756 1371.5,-750 1371.5,-744 1371.5,-744 1371.5,-732 1371.5,-732 1371.5,-726 1377.5,-720 1383.5,-720 1383.5,-720 1452.5,-720 1452.5,-720 1458.5,-720 1464.5,-726 1464.5,-732 1464.5,-732 1464.5,-744 1464.5,-744 1464.5,-750 1458.5,-756 1452.5,-756"/>
<text text-anchor="middle" x="1418" y="-735.5" font-family="sans" font-size="10.00" fill="#000000">shard_count_alns</text>
</g>
<!-- 5&#45;&gt;49 -->
<g id="edge83" class="edge">
<title>5&#45;&gt;49</title>
<path fill="none" stroke="#c0c0c0" stroke-width="2" d="M1356.5678,-791.8928C1367.8303,-782.0125 1379.4577,-771.8121 1389.5257,-762.9797"/>
<polygon fill="#c0c0c0" stroke="#c0c0c0" stroke-width="2" points="1392.0199,-765.4476 1397.229,-756.2218 1387.4036,-760.1855 1392.0199,-765.4476"/>
</g>
<!-- 52 -->
<g id="node53" class="node">
<title>52</title>
<path fill="none" stroke="#568ad8" stroke-width="2" d="M1464.5,-612C1464.5,-612 1335.5,-612 1335.5,-612 1329.5,-612 1323.5,-606 1323.5,-600 1323.5,-600 1323.5,-588 1323.5,-588 1323.5,-582 1329.5,-576 1335.5,-576 1335.5,-576 1464.5,-576 1464.5,-576 1470.5,-576 1476.5,-582 1476.5,-588 1476.5,-588 1476.5,-600 1476.5,-600 1476.5,-606 1470.5,-612 1464.5,-612"/>
<text text-anchor="middle" x="1400" y="-591.5" font-family="sans" font-size="10.00" fill="#000000">shard_saturated_reads_remove</text>
</g>
<!-- 5&#45;&gt;52 -->
<g id="edge86" class="edge">
<title>5&#45;&gt;52</title>
<path fill="none" stroke="#c0c0c0" stroke-width="2" d="M1324.3417,-791.7805C1343.1363,-742.6492 1373.4459,-663.416 1389.3993,-621.7116"/>
<polygon fill="#c0c0c0" stroke="#c0c0c0" stroke-width="2" points="1392.7342,-622.7896 1393.0382,-612.1991 1386.1963,-620.2885 1392.7342,-622.7896"/>
</g>
<!-- 6 -->
<g id="node7" class="node">
<title>6</title>
<path fill="none" stroke="#97d856" stroke-width="2" d="M1212.5,-877C1212.5,-877 1105.5,-877 1105.5,-877 1099.5,-877 1093.5,-871 1093.5,-865 1093.5,-865 1093.5,-804 1093.5,-804 1093.5,-798 1099.5,-792 1105.5,-792 1105.5,-792 1212.5,-792 1212.5,-792 1218.5,-792 1224.5,-798 1224.5,-804 1224.5,-804 1224.5,-865 1224.5,-865 1224.5,-871 1218.5,-877 1212.5,-877"/>
<text text-anchor="middle" x="1159" y="-865" font-family="sans" font-size="10.00" fill="#000000">bowtie2</text>
<text text-anchor="middle" x="1159" y="-854" font-family="sans" font-size="10.00" fill="#000000">library: lib1</text>
<text text-anchor="middle" x="1159" y="-843" font-family="sans" font-size="10.00" fill="#000000">n_shard: 1</text>
<text text-anchor="middle" x="1159" y="-832" font-family="sans" font-size="10.00" fill="#000000">read_type_map: collapsed</text>
<text text-anchor="middle" x="1159" y="-821" font-family="sans" font-size="10.00" fill="#000000">ref: refseq_mitochondrion</text>
<text text-anchor="middle" x="1159" y="-810" font-family="sans" font-size="10.00" fill="#000000">sample: HD827sonic_1</text>
<text text-anchor="middle" x="1159" y="-799" font-family="sans" font-size="10.00" fill="#000000">tot_shards: 1</text>
</g>
<!-- 6&#45;&gt;1 -->
<g id="edge12" class="edge">
<title>6&#45;&gt;1</title>
<path fill="none" stroke="#c0c0c0" stroke-width="2" d="M1183.2313,-791.9866C1199.8836,-758.7724 1219,-710.8712 1219,-666 1219,-666 1219,-666 1219,-234 1219,-185.4273 1197.4947,-170.8233 1157,-144 1120.2811,-119.6777 994.4546,-101.8381 931.0888,-94.1643"/>
<polygon fill="#c0c0c0" stroke="#c0c0c0" stroke-width="2" points="931.4563,-90.6834 921.1129,-92.9779 930.6296,-97.6345 931.4563,-90.6834"/>
</g>
<!-- 18 -->
<g id="node19" class="node">
<title>18</title>
<path fill="none" stroke="#56b9d8" stroke-width="2" d="M1042.5,-756C1042.5,-756 973.5,-756 973.5,-756 967.5,-756 961.5,-750 961.5,-744 961.5,-744 961.5,-732 961.5,-732 961.5,-726 967.5,-720 973.5,-720 973.5,-720 1042.5,-720 1042.5,-720 1048.5,-720 1054.5,-726 1054.5,-732 1054.5,-732 1054.5,-744 1054.5,-744 1054.5,-750 1048.5,-756 1042.5,-756"/>
<text text-anchor="middle" x="1008" y="-735.5" font-family="sans" font-size="10.00" fill="#000000">shard_count_alns</text>
</g>
<!-- 6&#45;&gt;18 -->
<g id="edge38" class="edge">
<title>6&#45;&gt;18</title>
<path fill="none" stroke="#c0c0c0" stroke-width="2" d="M1093.2085,-792.4544C1076.7546,-781.9392 1059.6752,-771.0242 1045.1664,-761.752"/>
<polygon fill="#c0c0c0" stroke="#c0c0c0" stroke-width="2" points="1046.8045,-758.6452 1036.4934,-756.2094 1043.0349,-764.5436 1046.8045,-758.6452"/>
</g>
<!-- 25 -->
<g id="node26" class="node">
<title>25</title>
<path fill="none" stroke="#568ad8" stroke-width="2" d="M1140.5,-612C1140.5,-612 1011.5,-612 1011.5,-612 1005.5,-612 999.5,-606 999.5,-600 999.5,-600 999.5,-588 999.5,-588 999.5,-582 1005.5,-576 1011.5,-576 1011.5,-576 1140.5,-576 1140.5,-576 1146.5,-576 1152.5,-582 1152.5,-588 1152.5,-588 1152.5,-600 1152.5,-600 1152.5,-606 1146.5,-612 1140.5,-612"/>
<text text-anchor="middle" x="1076" y="-591.5" font-family="sans" font-size="10.00" fill="#000000">shard_saturated_reads_remove</text>
</g>
<!-- 6&#45;&gt;25 -->
<g id="edge46" class="edge">
<title>6&#45;&gt;25</title>
<path fill="none" stroke="#c0c0c0" stroke-width="2" d="M1145.4431,-791.7004C1133.2673,-753.764 1114.6428,-696.9519 1097,-648 1093.9113,-639.43 1090.3798,-630.1655 1087.1054,-621.7705"/>
<polygon fill="#c0c0c0" stroke="#c0c0c0" stroke-width="2" points="1090.3402,-620.4324 1083.4215,-612.4085 1083.8263,-622.9956 1090.3402,-620.4324"/>
</g>
<!-- 7 -->
<g id="node8" class="node">
<title>7</title>
<path fill="none" stroke="#97d856" stroke-width="2" d="M1063.5,-877C1063.5,-877 956.5,-877 956.5,-877 950.5,-877 944.5,-871 944.5,-865 944.5,-865 944.5,-804 944.5,-804 944.5,-798 950.5,-792 956.5,-792 956.5,-792 1063.5,-792 1063.5,-792 1069.5,-792 1075.5,-798 1075.5,-804 1075.5,-804 1075.5,-865 1075.5,-865 1075.5,-871 1069.5,-877 1063.5,-877"/>
<text text-anchor="middle" x="1010" y="-865" font-family="sans" font-size="10.00" fill="#000000">bowtie2</text>
<text text-anchor="middle" x="1010" y="-854" font-family="sans" font-size="10.00" fill="#000000">library: lib1</text>
<text text-anchor="middle" x="1010" y="-843" font-family="sans" font-size="10.00" fill="#000000">n_shard: 1</text>
<text text-anchor="middle" x="1010" y="-832" font-family="sans" font-size="10.00" fill="#000000">read_type_map: collapsed</text>
<text text-anchor="middle" x="1010" y="-821" font-family="sans" font-size="10.00" fill="#000000">ref: wgs_eukaryota</text>
<text text-anchor="middle" x="1010" y="-810" font-family="sans" font-size="10.00" fill="#000000">sample: HD827sonic_1</text>
<text text-anchor="middle" x="1010" y="-799" font-family="sans" font-size="10.00" fill="#000000">tot_shards: 2</text>
</g>
<!-- 7&#45;&gt;1 -->
<g id="edge13" class="edge">
<title>7&#45;&gt;1</title>
<path fill="none" stroke="#c0c0c0" stroke-width="2" d="M1065.5188,-791.7527C1115.4497,-748.0455 1181,-675.2024 1181,-594 1181,-594 1181,-594 1181,-234 1181,-123.5224 1009.0049,-97.7969 931.3098,-91.8119"/>
<polygon fill="#c0c0c0" stroke="#c0c0c0" stroke-width="2" points="931.2199,-88.2972 921.0003,-91.0917 930.732,-95.2802 931.2199,-88.2972"/>
</g>
<!-- 15 -->
<g id="node16" class="node">
<title>15</title>
<path fill="none" stroke="#568ad8" stroke-width="2" d="M969.5,-612C969.5,-612 840.5,-612 840.5,-612 834.5,-612 828.5,-606 828.5,-600 828.5,-600 828.5,-588 828.5,-588 828.5,-582 834.5,-576 840.5,-576 840.5,-576 969.5,-576 969.5,-576 975.5,-576 981.5,-582 981.5,-588 981.5,-588 981.5,-600 981.5,-600 981.5,-606 975.5,-612 969.5,-612"/>
<text text-anchor="middle" x="905" y="-591.5" font-family="sans" font-size="10.00" fill="#000000">shard_saturated_reads_remove</text>
</g>
<!-- 7&#45;&gt;15 -->
<g id="edge32" class="edge">
<title>7&#45;&gt;15</title>
<path fill="none" stroke="#c0c0c0" stroke-width="2" d="M1049.2783,-791.7989C1064.2274,-770.2596 1075.2471,-743.734 1064,-720 1041.5192,-672.5601 991.3168,-637.6492 953.2942,-616.7594"/>
<polygon fill="#c0c0c0" stroke="#c0c0c0" stroke-width="2" points="954.8738,-613.6351 944.4049,-612.0064 951.5732,-619.8081 954.8738,-613.6351"/>
</g>
<!-- 17 -->
<g id="node18" class="node">
<title>17</title>
<path fill="none" stroke="#56b9d8" stroke-width="2" d="M931.5,-756C931.5,-756 862.5,-756 862.5,-756 856.5,-756 850.5,-750 850.5,-744 850.5,-744 850.5,-732 850.5,-732 850.5,-726 856.5,-720 862.5,-720 862.5,-720 931.5,-720 931.5,-720 937.5,-720 943.5,-726 943.5,-732 943.5,-732 943.5,-744 943.5,-744 943.5,-750 937.5,-756 931.5,-756"/>
<text text-anchor="middle" x="897" y="-735.5" font-family="sans" font-size="10.00" fill="#000000">shard_count_alns</text>
</g>
<!-- 7&#45;&gt;17 -->
<g id="edge37" class="edge">
<title>7&#45;&gt;17</title>
<path fill="none" stroke="#c0c0c0" stroke-width="2" d="M960.1076,-791.8928C948.4234,-781.9147 936.3569,-771.6101 925.9441,-762.7178"/>
<polygon fill="#c0c0c0" stroke="#c0c0c0" stroke-width="2" points="928.2148,-760.0543 918.3374,-756.2218 923.669,-765.3774 928.2148,-760.0543"/>
</g>
<!-- 8 -->
<g id="node9" class="node">
<title>8</title>
<path fill="none" stroke="#97d856" stroke-width="2" d="M606.5,-877C606.5,-877 499.5,-877 499.5,-877 493.5,-877 487.5,-871 487.5,-865 487.5,-865 487.5,-804 487.5,-804 487.5,-798 493.5,-792 499.5,-792 499.5,-792 606.5,-792 606.5,-792 612.5,-792 618.5,-798 618.5,-804 618.5,-804 618.5,-865 618.5,-865 618.5,-871 612.5,-877 606.5,-877"/>
<text text-anchor="middle" x="553" y="-865" font-family="sans" font-size="10.00" fill="#000000">bowtie2</text>
<text text-anchor="middle" x="553" y="-854" font-family="sans" font-size="10.00" fill="#000000">library: lib1</text>
<text text-anchor="middle" x="553" y="-843" font-family="sans" font-size="10.00" fill="#000000">n_shard: 1</text>
<text text-anchor="middle" x="553" y="-832" font-family="sans" font-size="10.00" fill="#000000">read_type_map: collapsed</text>
<text text-anchor="middle" x="553" y="-821" font-family="sans" font-size="10.00" fill="#000000">ref: refseq_mitochondrion</text>
<text text-anchor="middle" x="553" y="-810" font-family="sans" font-size="10.00" fill="#000000">sample: HD827sonic_2</text>
<text text-anchor="middle" x="553" y="-799" font-family="sans" font-size="10.00" fill="#000000">tot_shards: 1</text>
</g>
<!-- 8&#45;&gt;1 -->
<g id="edge14" class="edge">
<title>8&#45;&gt;1</title>
<path fill="none" stroke="#c0c0c0" stroke-width="2" d="M555.8997,-791.9687C564.0964,-689.2667 592.6736,-421.0682 678,-216 692.1465,-182.0011 690.279,-167.0468 719,-144 759.1214,-111.8051 818.427,-98.7357 856.6434,-93.4766"/>
<polygon fill="#c0c0c0" stroke="#c0c0c0" stroke-width="2" points="857.3468,-96.9157 866.8298,-92.1909 856.4702,-89.9707 857.3468,-96.9157"/>
</g>
<!-- 33 -->
<g id="node34" class="node">
<title>33</title>
<path fill="none" stroke="#56b9d8" stroke-width="2" d="M512.5,-756C512.5,-756 443.5,-756 443.5,-756 437.5,-756 431.5,-750 431.5,-744 431.5,-744 431.5,-732 431.5,-732 431.5,-726 437.5,-720 443.5,-720 443.5,-720 512.5,-720 512.5,-720 518.5,-720 524.5,-726 524.5,-732 524.5,-732 524.5,-744 524.5,-744 524.5,-750 518.5,-756 512.5,-756"/>
<text text-anchor="middle" x="478" y="-735.5" font-family="sans" font-size="10.00" fill="#000000">shard_count_alns</text>
</g>
<!-- 8&#45;&gt;33 -->
<g id="edge60" class="edge">
<title>8&#45;&gt;33</title>
<path fill="none" stroke="#c0c0c0" stroke-width="2" d="M519.8856,-791.8928C512.5867,-782.5016 505.0632,-772.8213 498.4414,-764.3013"/>
<polygon fill="#c0c0c0" stroke="#c0c0c0" stroke-width="2" points="501.0621,-761.9697 492.162,-756.2218 495.5351,-766.2653 501.0621,-761.9697"/>
</g>
<!-- 40 -->
<g id="node41" class="node">
<title>40</title>
<path fill="none" stroke="#568ad8" stroke-width="2" d="M511.5,-612C511.5,-612 382.5,-612 382.5,-612 376.5,-612 370.5,-606 370.5,-600 370.5,-600 370.5,-588 370.5,-588 370.5,-582 376.5,-576 382.5,-576 382.5,-576 511.5,-576 511.5,-576 517.5,-576 523.5,-582 523.5,-588 523.5,-588 523.5,-600 523.5,-600 523.5,-606 517.5,-612 511.5,-612"/>
<text text-anchor="middle" x="447" y="-591.5" font-family="sans" font-size="10.00" fill="#000000">shard_saturated_reads_remove</text>
</g>
<!-- 8&#45;&gt;40 -->
<g id="edge68" class="edge">
<title>8&#45;&gt;40</title>
<path fill="none" stroke="#c0c0c0" stroke-width="2" d="M549.9144,-791.9751C547.2435,-769.8817 542.2668,-742.8083 533,-720 517.6616,-682.2479 489.6957,-644.3615 469.8214,-620.1389"/>
<polygon fill="#c0c0c0" stroke="#c0c0c0" stroke-width="2" points="472.2586,-617.5969 463.163,-612.1635 466.8851,-622.0831 472.2586,-617.5969"/>
</g>
<!-- 9 -->
<g id="node10" class="node">
<title>9</title>
<path fill="none" stroke="#97d856" stroke-width="2" d="M1582.5,-877C1582.5,-877 1475.5,-877 1475.5,-877 1469.5,-877 1463.5,-871 1463.5,-865 1463.5,-865 1463.5,-804 1463.5,-804 1463.5,-798 1469.5,-792 1475.5,-792 1475.5,-792 1582.5,-792 1582.5,-792 1588.5,-792 1594.5,-798 1594.5,-804 1594.5,-804 1594.5,-865 1594.5,-865 1594.5,-871 1588.5,-877 1582.5,-877"/>
<text text-anchor="middle" x="1529" y="-865" font-family="sans" font-size="10.00" fill="#000000">bowtie2</text>
<text text-anchor="middle" x="1529" y="-854" font-family="sans" font-size="10.00" fill="#000000">library: lib2</text>
<text text-anchor="middle" x="1529" y="-843" font-family="sans" font-size="10.00" fill="#000000">n_shard: 1</text>
<text text-anchor="middle" x="1529" y="-832" font-family="sans" font-size="10.00" fill="#000000">read_type_map: collapsed</text>
<text text-anchor="middle" x="1529" y="-821" font-family="sans" font-size="10.00" fill="#000000">ref: wgs_eukaryota</text>
<text text-anchor="middle" x="1529" y="-810" font-family="sans" font-size="10.00" fill="#000000">sample: HD827sonic_2</text>
<text text-anchor="middle" x="1529" y="-799" font-family="sans" font-size="10.00" fill="#000000">tot_shards: 2</text>
</g>
<!-- 9&#45;&gt;1 -->
<g id="edge15" class="edge">
<title>9&#45;&gt;1</title>
<path fill="none" stroke="#c0c0c0" stroke-width="2" d="M1463.4973,-816.0447C1429.8061,-803.719 1390.216,-784.4494 1363,-756 1309.0217,-699.5754 1295,-672.0857 1295,-594 1295,-594 1295,-594 1295,-234 1295,-184.6587 1272.0045,-169.8881 1230,-144 1204.8236,-128.4833 1013.4923,-104.2058 931.3143,-94.3634"/>
<polygon fill="#c0c0c0" stroke="#c0c0c0" stroke-width="2" points="931.5041,-90.8614 921.1603,-93.1543 930.6763,-97.8123 931.5041,-90.8614"/>
</g>
<!-- 45 -->
<g id="node46" class="node">
<title>45</title>
<path fill="none" stroke="#568ad8" stroke-width="2" d="M1635.5,-612C1635.5,-612 1506.5,-612 1506.5,-612 1500.5,-612 1494.5,-606 1494.5,-600 1494.5,-600 1494.5,-588 1494.5,-588 1494.5,-582 1500.5,-576 1506.5,-576 1506.5,-576 1635.5,-576 1635.5,-576 1641.5,-576 1647.5,-582 1647.5,-588 1647.5,-588 1647.5,-600 1647.5,-600 1647.5,-606 1641.5,-612 1635.5,-612"/>
<text text-anchor="middle" x="1571" y="-591.5" font-family="sans" font-size="10.00" fill="#000000">shard_saturated_reads_remove</text>
</g>
<!-- 9&#45;&gt;45 -->
<g id="edge76" class="edge">
<title>9&#45;&gt;45</title>
<path fill="none" stroke="#c0c0c0" stroke-width="2" d="M1594.743,-821.596C1631.2892,-810.7014 1673.7628,-791.0242 1696,-756 1728.9826,-704.0515 1660.1013,-648.234 1612.105,-617.5672"/>
<polygon fill="#c0c0c0" stroke="#c0c0c0" stroke-width="2" points="1613.7511,-614.4688 1603.4153,-612.1403 1610.0432,-620.4061 1613.7511,-614.4688"/>
</g>
<!-- 47 -->
<g id="node48" class="node">
<title>47</title>
<path fill="none" stroke="#56b9d8" stroke-width="2" d="M1563.5,-756C1563.5,-756 1494.5,-756 1494.5,-756 1488.5,-756 1482.5,-750 1482.5,-744 1482.5,-744 1482.5,-732 1482.5,-732 1482.5,-726 1488.5,-720 1494.5,-720 1494.5,-720 1563.5,-720 1563.5,-720 1569.5,-720 1575.5,-726 1575.5,-732 1575.5,-732 1575.5,-744 1575.5,-744 1575.5,-750 1569.5,-756 1563.5,-756"/>
<text text-anchor="middle" x="1529" y="-735.5" font-family="sans" font-size="10.00" fill="#000000">shard_count_alns</text>
</g>
<!-- 9&#45;&gt;47 -->
<g id="edge81" class="edge">
<title>9&#45;&gt;47</title>
<path fill="none" stroke="#c0c0c0" stroke-width="2" d="M1529,-791.8928C1529,-783.2842 1529,-774.4327 1529,-766.4546"/>
<polygon fill="#c0c0c0" stroke="#c0c0c0" stroke-width="2" points="1532.5001,-766.2218 1529,-756.2218 1525.5001,-766.2218 1532.5001,-766.2218"/>
</g>
<!-- 10 -->
<g id="node11" class="node">
<title>10</title>
<path fill="none" stroke="#97d856" stroke-width="2" d="M1806.5,-877C1806.5,-877 1699.5,-877 1699.5,-877 1693.5,-877 1687.5,-871 1687.5,-865 1687.5,-865 1687.5,-804 1687.5,-804 1687.5,-798 1693.5,-792 1699.5,-792 1699.5,-792 1806.5,-792 1806.5,-792 1812.5,-792 1818.5,-798 1818.5,-804 1818.5,-804 1818.5,-865 1818.5,-865 1818.5,-871 1812.5,-877 1806.5,-877"/>
<text text-anchor="middle" x="1753" y="-865" font-family="sans" font-size="10.00" fill="#000000">bowtie2</text>
<text text-anchor="middle" x="1753" y="-854" font-family="sans" font-size="10.00" fill="#000000">library: lib2</text>
<text text-anchor="middle" x="1753" y="-843" font-family="sans" font-size="10.00" fill="#000000">n_shard: 1</text>
<text text-anchor="middle" x="1753" y="-832" font-family="sans" font-size="10.00" fill="#000000">read_type_map: collapsed</text>
<text text-anchor="middle" x="1753" y="-821" font-family="sans" font-size="10.00" fill="#000000">ref: refseq_mitochondrion</text>
<text text-anchor="middle" x="1753" y="-810" font-family="sans" font-size="10.00" fill="#000000">sample: HD827sonic_2</text>
<text text-anchor="middle" x="1753" y="-799" font-family="sans" font-size="10.00" fill="#000000">tot_shards: 1</text>
</g>
<!-- 10&#45;&gt;1 -->
<g id="edge16" class="edge">
<title>10&#45;&gt;1</title>
<path fill="none" stroke="#c0c0c0" stroke-width="2" d="M1792.592,-791.9753C1818.2816,-759.8793 1847,-713.3991 1847,-666 1847,-666 1847,-666 1847,-234 1847,-139.6605 1107.4366,-99.7846 931.3165,-91.626"/>
<polygon fill="#c0c0c0" stroke="#c0c0c0" stroke-width="2" points="931.3888,-88.1258 921.2395,-91.1655 931.0692,-95.1185 931.3888,-88.1258"/>
</g>
<!-- 48 -->
<g id="node49" class="node">
<title>48</title>
<path fill="none" stroke="#56b9d8" stroke-width="2" d="M1674.5,-756C1674.5,-756 1605.5,-756 1605.5,-756 1599.5,-756 1593.5,-750 1593.5,-744 1593.5,-744 1593.5,-732 1593.5,-732 1593.5,-726 1599.5,-720 1605.5,-720 1605.5,-720 1674.5,-720 1674.5,-720 1680.5,-720 1686.5,-726 1686.5,-732 1686.5,-732 1686.5,-744 1686.5,-744 1686.5,-750 1680.5,-756 1674.5,-756"/>
<text text-anchor="middle" x="1640" y="-735.5" font-family="sans" font-size="10.00" fill="#000000">shard_count_alns</text>
</g>
<!-- 10&#45;&gt;48 -->
<g id="edge82" class="edge">
<title>10&#45;&gt;48</title>
<path fill="none" stroke="#c0c0c0" stroke-width="2" d="M1703.1076,-791.8928C1691.4234,-781.9147 1679.3569,-771.6101 1668.9441,-762.7178"/>
<polygon fill="#c0c0c0" stroke="#c0c0c0" stroke-width="2" points="1671.2148,-760.0543 1661.3374,-756.2218 1666.669,-765.3774 1671.2148,-760.0543"/>
</g>
<!-- 55 -->
<g id="node56" class="node">
<title>55</title>
<path fill="none" stroke="#568ad8" stroke-width="2" d="M1806.5,-612C1806.5,-612 1677.5,-612 1677.5,-612 1671.5,-612 1665.5,-606 1665.5,-600 1665.5,-600 1665.5,-588 1665.5,-588 1665.5,-582 1671.5,-576 1677.5,-576 1677.5,-576 1806.5,-576 1806.5,-576 1812.5,-576 1818.5,-582 1818.5,-588 1818.5,-588 1818.5,-600 1818.5,-600 1818.5,-606 1812.5,-612 1806.5,-612"/>
<text text-anchor="middle" x="1742" y="-591.5" font-family="sans" font-size="10.00" fill="#000000">shard_saturated_reads_remove</text>
</g>
<!-- 10&#45;&gt;55 -->
<g id="edge90" class="edge">
<title>10&#45;&gt;55</title>
<path fill="none" stroke="#c0c0c0" stroke-width="2" d="M1751.0461,-791.7805C1748.8084,-742.8569 1745.2056,-664.0855 1743.2918,-622.2427"/>
<polygon fill="#c0c0c0" stroke="#c0c0c0" stroke-width="2" points="1746.7857,-622.0287 1742.8324,-612.1991 1739.793,-622.3486 1746.7857,-622.0287"/>
</g>
<!-- 11 -->
<g id="node12" class="node">
<title>11</title>
<path fill="none" stroke="#c6d856" stroke-width="2" d="M978,-252C978,-252 938,-252 938,-252 932,-252 926,-246 926,-240 926,-240 926,-228 926,-228 926,-222 932,-216 938,-216 938,-216 978,-216 978,-216 984,-216 990,-222 990,-228 990,-228 990,-240 990,-240 990,-246 984,-252 978,-252"/>
<text text-anchor="middle" x="958" y="-231.5" font-family="sans" font-size="10.00" fill="#000000">align_stats</text>
</g>
<!-- 11&#45;&gt;1 -->
<g id="edge17" class="edge">
<title>11&#45;&gt;1</title>
<path fill="none" stroke="#c0c0c0" stroke-width="2" d="M949.8944,-215.7623C938.8821,-190.9846 919.0984,-146.4714 906.2639,-117.5939"/>
<polygon fill="#c0c0c0" stroke="#c0c0c0" stroke-width="2" points="909.2996,-115.8062 902.0398,-108.0896 902.9029,-118.6492 909.2996,-115.8062"/>
</g>
<!-- 12 -->
<g id="node13" class="node">
<title>12</title>
<path fill="none" stroke="#d88556" stroke-width="2" d="M906.5,-396C906.5,-396 861.5,-396 861.5,-396 855.5,-396 849.5,-390 849.5,-384 849.5,-384 849.5,-372 849.5,-372 849.5,-366 855.5,-360 861.5,-360 861.5,-360 906.5,-360 906.5,-360 912.5,-360 918.5,-366 918.5,-372 918.5,-372 918.5,-384 918.5,-384 918.5,-390 912.5,-396 906.5,-396"/>
<text text-anchor="middle" x="884" y="-375.5" font-family="sans" font-size="10.00" fill="#000000">align_merge</text>
</g>
<!-- 12&#45;&gt;11 -->
<g id="edge26" class="edge">
<title>12&#45;&gt;11</title>
<path fill="none" stroke="#c0c0c0" stroke-width="2" d="M895.4153,-359.7607C901.7368,-349.4134 909.589,-336.1422 916,-324 926.8685,-303.4155 937.954,-279.513 946.0051,-261.5163"/>
<polygon fill="#c0c0c0" stroke="#c0c0c0" stroke-width="2" points="949.2892,-262.7445 950.1452,-252.1843 942.8906,-259.9058 949.2892,-262.7445"/>
</g>
<!-- 57 -->
<g id="node58" class="node">
<title>57</title>
<path fill="none" stroke="#56d8a9" stroke-width="2" d="M895.5,-324C895.5,-324 844.5,-324 844.5,-324 838.5,-324 832.5,-318 832.5,-312 832.5,-312 832.5,-300 832.5,-300 832.5,-294 838.5,-288 844.5,-288 844.5,-288 895.5,-288 895.5,-288 901.5,-288 907.5,-294 907.5,-300 907.5,-300 907.5,-312 907.5,-312 907.5,-318 901.5,-324 895.5,-324"/>
<text text-anchor="middle" x="870" y="-303.5" font-family="sans" font-size="10.00" fill="#000000">metadmg_lca</text>
</g>
<!-- 12&#45;&gt;57 -->
<g id="edge93" class="edge">
<title>12&#45;&gt;57</title>
<path fill="none" stroke="#c0c0c0" stroke-width="2" d="M880.4672,-359.8314C878.9699,-352.131 877.1895,-342.9743 875.5255,-334.4166"/>
<polygon fill="#c0c0c0" stroke="#c0c0c0" stroke-width="2" points="878.9248,-333.5614 873.5804,-324.4133 872.0535,-334.8975 878.9248,-333.5614"/>
</g>
<!-- 65 -->
<g id="node66" class="node">
<title>65</title>
<path fill="none" stroke="#56d87b" stroke-width="2" d="M741.5,-108C741.5,-108 668.5,-108 668.5,-108 662.5,-108 656.5,-102 656.5,-96 656.5,-96 656.5,-84 656.5,-84 656.5,-78 662.5,-72 668.5,-72 668.5,-72 741.5,-72 741.5,-72 747.5,-72 753.5,-78 753.5,-84 753.5,-84 753.5,-96 753.5,-96 753.5,-102 747.5,-108 741.5,-108"/>
<text text-anchor="middle" x="705" y="-87.5" font-family="sans" font-size="10.00" fill="#000000">metadmg_damage</text>
</g>
<!-- 12&#45;&gt;65 -->
<g id="edge104" class="edge">
<title>12&#45;&gt;65</title>
<path fill="none" stroke="#c0c0c0" stroke-width="2" d="M849.2412,-370.9004C774.4465,-353.5349 599.2527,-301.1611 528,-180 519.8892,-166.2081 518.479,-156.8589 528,-144 535.3554,-134.0658 597.8343,-116.5604 646.5021,-104.177"/>
<polygon fill="#c0c0c0" stroke="#c0c0c0" stroke-width="2" points="647.5016,-107.5345 656.3416,-101.6946 645.7893,-100.7472 647.5016,-107.5345"/>
</g>
<!-- 13 -->
<g id="node14" class="node">
<title>13</title>
<path fill="none" stroke="#5673d8" stroke-width="2" d="M932,-468C932,-468 864,-468 864,-468 858,-468 852,-462 852,-456 852,-456 852,-444 852,-444 852,-438 858,-432 864,-432 864,-432 932,-432 932,-432 938,-432 944,-438 944,-444 944,-444 944,-456 944,-456 944,-462 938,-468 932,-468"/>
<text text-anchor="middle" x="898" y="-447.5" font-family="sans" font-size="10.00" fill="#000000">shard_sort_query</text>
</g>
<!-- 13&#45;&gt;12 -->
<g id="edge27" class="edge">
<title>13&#45;&gt;12</title>
<path fill="none" stroke="#c0c0c0" stroke-width="2" d="M894.4672,-431.8314C892.9699,-424.131 891.1895,-414.9743 889.5255,-406.4166"/>
<polygon fill="#c0c0c0" stroke="#c0c0c0" stroke-width="2" points="892.9248,-405.5614 887.5804,-396.4133 886.0535,-406.8975 892.9248,-405.5614"/>
</g>
<!-- 14 -->
<g id="node15" class="node">
<title>14</title>
<path fill="none" stroke="#56d0d8" stroke-width="2" d="M942,-540C942,-540 862,-540 862,-540 856,-540 850,-534 850,-528 850,-528 850,-516 850,-516 850,-510 856,-504 862,-504 862,-504 942,-504 942,-504 948,-504 954,-510 954,-516 954,-516 954,-528 954,-528 954,-534 948,-540 942,-540"/>
<text text-anchor="middle" x="902" y="-519.5" font-family="sans" font-size="10.00" fill="#000000">shard_clean_header</text>
</g>
<!-- 14&#45;&gt;13 -->
<g id="edge30" class="edge">
<title>14&#45;&gt;13</title>
<path fill="none" stroke="#c0c0c0" stroke-width="2" d="M900.9906,-503.8314C900.5628,-496.131 900.0541,-486.9743 899.5787,-478.4166"/>
<polygon fill="#c0c0c0" stroke="#c0c0c0" stroke-width="2" points="903.0724,-478.2037 899.023,-468.4133 896.0831,-478.592 903.0724,-478.2037"/>
</g>
<!-- 15&#45;&gt;14 -->
<g id="edge31" class="edge">
<title>15&#45;&gt;14</title>
<path fill="none" stroke="#c0c0c0" stroke-width="2" d="M904.243,-575.8314C903.9221,-568.131 903.5406,-558.9743 903.184,-550.4166"/>
<polygon fill="#c0c0c0" stroke="#c0c0c0" stroke-width="2" points="906.6806,-550.2589 902.7672,-540.4133 899.6867,-550.5503 906.6806,-550.2589"/>
</g>
<!-- 16 -->
<g id="node17" class="node">
<title>16</title>
<path fill="none" stroke="#56a2d8" stroke-width="2" d="M955,-684C955,-684 845,-684 845,-684 839,-684 833,-678 833,-672 833,-672 833,-660 833,-660 833,-654 839,-648 845,-648 845,-648 955,-648 955,-648 961,-648 967,-654 967,-660 967,-660 967,-672 967,-672 967,-678 961,-684 955,-684"/>
<text text-anchor="middle" x="900" y="-663.5" font-family="sans" font-size="10.00" fill="#000000">shard_saturated_reads_get</text>
</g>
<!-- 16&#45;&gt;15 -->
<g id="edge33" class="edge">
<title>16&#45;&gt;15</title>
<path fill="none" stroke="#c0c0c0" stroke-width="2" d="M901.2617,-647.8314C901.7965,-640.131 902.4323,-630.9743 903.0266,-622.4166"/>
<polygon fill="#c0c0c0" stroke="#c0c0c0" stroke-width="2" points="906.52,-622.6317 903.7213,-612.4133 899.5368,-622.1467 906.52,-622.6317"/>
</g>
<!-- 16&#45;&gt;22 -->
<g id="edge43" class="edge">
<title>16&#45;&gt;22</title>
<path fill="none" stroke="#c0c0c0" stroke-width="2" d="M858.1112,-647.8314C835.9097,-638.2018 808.4578,-626.295 785.0216,-616.1299"/>
<polygon fill="#c0c0c0" stroke="#c0c0c0" stroke-width="2" points="786.1545,-612.8062 775.5876,-612.038 783.3691,-619.2282 786.1545,-612.8062"/>
</g>
<!-- 16&#45;&gt;25 -->
<g id="edge47" class="edge">
<title>16&#45;&gt;25</title>
<path fill="none" stroke="#c0c0c0" stroke-width="2" d="M944.4122,-647.8314C968.1604,-638.1162 997.5746,-626.0831 1022.5664,-615.8592"/>
<polygon fill="#c0c0c0" stroke="#c0c0c0" stroke-width="2" points="1023.9769,-619.0638 1031.9071,-612.038 1021.3264,-612.585 1023.9769,-619.0638"/>
</g>
<!-- 17&#45;&gt;16 -->
<g id="edge34" class="edge">
<title>17&#45;&gt;16</title>
<path fill="none" stroke="#c0c0c0" stroke-width="2" d="M897.757,-719.8314C898.0779,-712.131 898.4594,-702.9743 898.816,-694.4166"/>
<polygon fill="#c0c0c0" stroke="#c0c0c0" stroke-width="2" points="902.3133,-694.5503 899.2328,-684.4133 895.3194,-694.2589 902.3133,-694.5503"/>
</g>
<!-- 18&#45;&gt;16 -->
<g id="edge35" class="edge">
<title>18&#45;&gt;16</title>
<path fill="none" stroke="#c0c0c0" stroke-width="2" d="M980.747,-719.8314C967.0611,-710.7074 950.3085,-699.539 935.6173,-689.7449"/>
<polygon fill="#c0c0c0" stroke="#c0c0c0" stroke-width="2" points="937.5062,-686.7977 927.2442,-684.1628 933.6233,-692.6221 937.5062,-686.7977"/>
</g>
<!-- 19&#45;&gt;16 -->
<g id="edge36" class="edge">
<title>19&#45;&gt;16</title>
<path fill="none" stroke="#c0c0c0" stroke-width="2" d="M814.767,-719.8314C829.2133,-710.7074 846.8965,-699.539 862.404,-689.7449"/>
<polygon fill="#c0c0c0" stroke="#c0c0c0" stroke-width="2" points="864.6563,-692.462 871.2422,-684.1628 860.9183,-686.5436 864.6563,-692.462"/>
</g>
<!-- 20 -->
<g id="node21" class="node">
<title>20</title>
<path fill="none" stroke="#5673d8" stroke-width="2" d="M816,-468C816,-468 748,-468 748,-468 742,-468 736,-462 736,-456 736,-456 736,-444 736,-444 736,-438 742,-432 748,-432 748,-432 816,-432 816,-432 822,-432 828,-438 828,-444 828,-444 828,-456 828,-456 828,-462 822,-468 816,-468"/>
<text text-anchor="middle" x="782" y="-447.5" font-family="sans" font-size="10.00" fill="#000000">shard_sort_query</text>
</g>
<!-- 20&#45;&gt;12 -->
<g id="edge28" class="edge">
<title>20&#45;&gt;12</title>
<path fill="none" stroke="#c0c0c0" stroke-width="2" d="M807.7389,-431.8314C820.5437,-422.7927 836.1909,-411.7476 849.9719,-402.0198"/>
<polygon fill="#c0c0c0" stroke="#c0c0c0" stroke-width="2" points="852.118,-404.7891 858.2693,-396.1628 848.0812,-399.0703 852.118,-404.7891"/>
</g>
<!-- 21 -->
<g id="node22" class="node">
<title>21</title>
<path fill="none" stroke="#56d0d8" stroke-width="2" d="M818,-540C818,-540 738,-540 738,-540 732,-540 726,-534 726,-528 726,-528 726,-516 726,-516 726,-510 732,-504 738,-504 738,-504 818,-504 818,-504 824,-504 830,-510 830,-516 830,-516 830,-528 830,-528 830,-534 824,-540 818,-540"/>
<text text-anchor="middle" x="778" y="-519.5" font-family="sans" font-size="10.00" fill="#000000">shard_clean_header</text>
</g>
<!-- 21&#45;&gt;20 -->
<g id="edge40" class="edge">
<title>21&#45;&gt;20</title>
<path fill="none" stroke="#c0c0c0" stroke-width="2" d="M779.0094,-503.8314C779.4372,-496.131 779.9459,-486.9743 780.4213,-478.4166"/>
<polygon fill="#c0c0c0" stroke="#c0c0c0" stroke-width="2" points="783.9169,-478.592 780.977,-468.4133 776.9276,-478.2037 783.9169,-478.592"/>
</g>
<!-- 22&#45;&gt;21 -->
<g id="edge41" class="edge">
<title>22&#45;&gt;21</title>
<path fill="none" stroke="#c0c0c0" stroke-width="2" d="M745.1031,-575.8314C750.0674,-567.7079 756.0222,-557.9637 761.4928,-549.0118"/>
<polygon fill="#c0c0c0" stroke="#c0c0c0" stroke-width="2" points="764.5194,-550.7712 766.7474,-540.4133 758.5464,-547.121 764.5194,-550.7712"/>
</g>
<!-- 23 -->
<g id="node24" class="node">
<title>23</title>
<path fill="none" stroke="#5673d8" stroke-width="2" d="M1064,-468C1064,-468 996,-468 996,-468 990,-468 984,-462 984,-456 984,-456 984,-444 984,-444 984,-438 990,-432 996,-432 996,-432 1064,-432 1064,-432 1070,-432 1076,-438 1076,-444 1076,-444 1076,-456 1076,-456 1076,-462 1070,-468 1064,-468"/>
<text text-anchor="middle" x="1030" y="-447.5" font-family="sans" font-size="10.00" fill="#000000">shard_sort_query</text>
</g>
<!-- 23&#45;&gt;12 -->
<g id="edge29" class="edge">
<title>23&#45;&gt;12</title>
<path fill="none" stroke="#c0c0c0" stroke-width="2" d="M993.158,-431.8314C973.2899,-422.0334 948.641,-409.8778 927.7962,-399.5981"/>
<polygon fill="#c0c0c0" stroke="#c0c0c0" stroke-width="2" points="929.3367,-396.4554 918.8199,-395.1715 926.2406,-402.7335 929.3367,-396.4554"/>
</g>
<!-- 24 -->
<g id="node25" class="node">
<title>24</title>
<path fill="none" stroke="#56d0d8" stroke-width="2" d="M1092,-540C1092,-540 1012,-540 1012,-540 1006,-540 1000,-534 1000,-528 1000,-528 1000,-516 1000,-516 1000,-510 1006,-504 1012,-504 1012,-504 1092,-504 1092,-504 1098,-504 1104,-510 1104,-516 1104,-516 1104,-528 1104,-528 1104,-534 1098,-540 1092,-540"/>
<text text-anchor="middle" x="1052" y="-519.5" font-family="sans" font-size="10.00" fill="#000000">shard_clean_header</text>
</g>
<!-- 24&#45;&gt;23 -->
<g id="edge44" class="edge">
<title>24&#45;&gt;23</title>
<path fill="none" stroke="#c0c0c0" stroke-width="2" d="M1046.4485,-503.8314C1044.0697,-496.0463 1041.2362,-486.7729 1038.5967,-478.1347"/>
<polygon fill="#c0c0c0" stroke="#c0c0c0" stroke-width="2" points="1041.8958,-476.954 1035.6263,-468.4133 1035.2013,-478.9996 1041.8958,-476.954"/>
</g>
<!-- 25&#45;&gt;24 -->
<g id="edge45" class="edge">
<title>25&#45;&gt;24</title>
<path fill="none" stroke="#c0c0c0" stroke-width="2" d="M1069.9438,-575.8314C1067.3488,-568.0463 1064.2576,-558.7729 1061.3782,-550.1347"/>
<polygon fill="#c0c0c0" stroke="#c0c0c0" stroke-width="2" points="1064.6205,-548.7933 1058.1378,-540.4133 1057.9797,-551.0069 1064.6205,-548.7933"/>
</g>
<!-- 26 -->
<g id="node27" class="node">
<title>26</title>
<path fill="none" stroke="#c6d856" stroke-width="2" d="M589,-180C589,-180 549,-180 549,-180 543,-180 537,-174 537,-168 537,-168 537,-156 537,-156 537,-150 543,-144 549,-144 549,-144 589,-144 589,-144 595,-144 601,-150 601,-156 601,-156 601,-168 601,-168 601,-174 595,-180 589,-180"/>
<text text-anchor="middle" x="569" y="-159.5" font-family="sans" font-size="10.00" fill="#000000">align_stats</text>
</g>
<!-- 26&#45;&gt;1 -->
<g id="edge18" class="edge">
<title>26&#45;&gt;1</title>
<path fill="none" stroke="#c0c0c0" stroke-width="2" d="M601.1643,-148.5637C605.7628,-146.8926 610.4698,-145.3129 615,-144 699.8514,-119.4088 802.5023,-102.7995 856.5391,-95.0372"/>
<polygon fill="#c0c0c0" stroke="#c0c0c0" stroke-width="2" points="857.2674,-98.4691 866.6786,-93.6029 856.2869,-91.5381 857.2674,-98.4691"/>
</g>
<!-- 27 -->
<g id="node28" class="node">
<title>27</title>
<path fill="none" stroke="#d88556" stroke-width="2" d="M370.5,-396C370.5,-396 325.5,-396 325.5,-396 319.5,-396 313.5,-390 313.5,-384 313.5,-384 313.5,-372 313.5,-372 313.5,-366 319.5,-360 325.5,-360 325.5,-360 370.5,-360 370.5,-360 376.5,-360 382.5,-366 382.5,-372 382.5,-372 382.5,-384 382.5,-384 382.5,-390 376.5,-396 370.5,-396"/>
<text text-anchor="middle" x="348" y="-375.5" font-family="sans" font-size="10.00" fill="#000000">align_merge</text>
</g>
<!-- 27&#45;&gt;26 -->
<g id="edge48" class="edge">
<title>27&#45;&gt;26</title>
<path fill="none" stroke="#c0c0c0" stroke-width="2" d="M375.7105,-359.9881C390.3062,-350.0286 408.1982,-337.0528 423,-324 472.2161,-280.5995 521.7098,-221.7137 548.548,-188.2016"/>
<polygon fill="#c0c0c0" stroke="#c0c0c0" stroke-width="2" points="551.3841,-190.2584 554.8692,-180.2531 545.9054,-185.9013 551.3841,-190.2584"/>
</g>
<!-- 59 -->
<g id="node60" class="node">
<title>59</title>
<path fill="none" stroke="#56d8a9" stroke-width="2" d="M402.5,-324C402.5,-324 351.5,-324 351.5,-324 345.5,-324 339.5,-318 339.5,-312 339.5,-312 339.5,-300 339.5,-300 339.5,-294 345.5,-288 351.5,-288 351.5,-288 402.5,-288 402.5,-288 408.5,-288 414.5,-294 414.5,-300 414.5,-300 414.5,-312 414.5,-312 414.5,-318 408.5,-324 402.5,-324"/>
<text text-anchor="middle" x="377" y="-303.5" font-family="sans" font-size="10.00" fill="#000000">metadmg_lca</text>
</g>
<!-- 27&#45;&gt;59 -->
<g id="edge95" class="edge">
<title>27&#45;&gt;59</title>
<path fill="none" stroke="#c0c0c0" stroke-width="2" d="M355.3179,-359.8314C358.4876,-351.9617 362.27,-342.5712 365.7813,-333.8533"/>
<polygon fill="#c0c0c0" stroke="#c0c0c0" stroke-width="2" points="369.0939,-334.9968 369.5835,-324.4133 362.6008,-332.3815 369.0939,-334.9968"/>
</g>
<!-- 66 -->
<g id="node67" class="node">
<title>66</title>
<path fill="none" stroke="#56d87b" stroke-width="2" d="M403.5,-108C403.5,-108 330.5,-108 330.5,-108 324.5,-108 318.5,-102 318.5,-96 318.5,-96 318.5,-84 318.5,-84 318.5,-78 324.5,-72 330.5,-72 330.5,-72 403.5,-72 403.5,-72 409.5,-72 415.5,-78 415.5,-84 415.5,-84 415.5,-96 415.5,-96 415.5,-102 409.5,-108 403.5,-108"/>
<text text-anchor="middle" x="367" y="-87.5" font-family="sans" font-size="10.00" fill="#000000">metadmg_damage</text>
</g>
<!-- 27&#45;&gt;66 -->
<g id="edge105" class="edge">
<title>27&#45;&gt;66</title>
<path fill="none" stroke="#c0c0c0" stroke-width="2" d="M340.3981,-359.8646C336.4728,-349.5498 332.0798,-336.2765 330,-324 316.6366,-245.119 303.3849,-220.1242 328,-144 331.1688,-134.2001 336.8532,-124.6831 342.9191,-116.4383"/>
<polygon fill="#c0c0c0" stroke="#c0c0c0" stroke-width="2" points="345.8526,-118.3703 349.2892,-108.3483 340.3529,-114.0398 345.8526,-118.3703"/>
</g>
<!-- 28 -->
<g id="node29" class="node">
<title>28</title>
<path fill="none" stroke="#5673d8" stroke-width="2" d="M338,-468C338,-468 270,-468 270,-468 264,-468 258,-462 258,-456 258,-456 258,-444 258,-444 258,-438 264,-432 270,-432 270,-432 338,-432 338,-432 344,-432 350,-438 350,-444 350,-444 350,-456 350,-456 350,-462 344,-468 338,-468"/>
<text text-anchor="middle" x="304" y="-447.5" font-family="sans" font-size="10.00" fill="#000000">shard_sort_query</text>
</g>
<!-- 28&#45;&gt;27 -->
<g id="edge49" class="edge">
<title>28&#45;&gt;27</title>
<path fill="none" stroke="#c0c0c0" stroke-width="2" d="M315.1031,-431.8314C320.0674,-423.7079 326.0222,-413.9637 331.4928,-405.0118"/>
<polygon fill="#c0c0c0" stroke="#c0c0c0" stroke-width="2" points="334.5194,-406.7712 336.7474,-396.4133 328.5464,-403.121 334.5194,-406.7712"/>
</g>
<!-- 29 -->
<g id="node30" class="node">
<title>29</title>
<path fill="none" stroke="#56d0d8" stroke-width="2" d="M329,-540C329,-540 249,-540 249,-540 243,-540 237,-534 237,-528 237,-528 237,-516 237,-516 237,-510 243,-504 249,-504 249,-504 329,-504 329,-504 335,-504 341,-510 341,-516 341,-516 341,-528 341,-528 341,-534 335,-540 329,-540"/>
<text text-anchor="middle" x="289" y="-519.5" font-family="sans" font-size="10.00" fill="#000000">shard_clean_header</text>
</g>
<!-- 29&#45;&gt;28 -->
<g id="edge52" class="edge">
<title>29&#45;&gt;28</title>
<path fill="none" stroke="#c0c0c0" stroke-width="2" d="M292.7851,-503.8314C294.3894,-496.131 296.297,-486.9743 298.0799,-478.4166"/>
<polygon fill="#c0c0c0" stroke="#c0c0c0" stroke-width="2" points="301.5507,-478.9169 300.1639,-468.4133 294.6979,-477.4892 301.5507,-478.9169"/>
</g>
<!-- 30&#45;&gt;29 -->
<g id="edge53" class="edge">
<title>30&#45;&gt;29</title>
<path fill="none" stroke="#c0c0c0" stroke-width="2" d="M279.2804,-575.8314C280.6708,-568.131 282.3241,-558.9743 283.8692,-550.4166"/>
<polygon fill="#c0c0c0" stroke="#c0c0c0" stroke-width="2" points="287.3428,-550.8761 285.6754,-540.4133 280.4542,-549.6322 287.3428,-550.8761"/>
</g>
<!-- 31 -->
<g id="node32" class="node">
<title>31</title>
<path fill="none" stroke="#56a2d8" stroke-width="2" d="M403,-684C403,-684 293,-684 293,-684 287,-684 281,-678 281,-672 281,-672 281,-660 281,-660 281,-654 287,-648 293,-648 293,-648 403,-648 403,-648 409,-648 415,-654 415,-660 415,-660 415,-672 415,-672 415,-678 409,-684 403,-684"/>
<text text-anchor="middle" x="348" y="-663.5" font-family="sans" font-size="10.00" fill="#000000">shard_saturated_reads_get</text>
</g>
<!-- 31&#45;&gt;30 -->
<g id="edge55" class="edge">
<title>31&#45;&gt;30</title>
<path fill="none" stroke="#c0c0c0" stroke-width="2" d="M329.8314,-647.8314C321.2848,-639.2848 310.9443,-628.9443 301.6198,-619.6198"/>
<polygon fill="#c0c0c0" stroke="#c0c0c0" stroke-width="2" points="303.9592,-617.0095 294.4133,-612.4133 299.0095,-621.9592 303.9592,-617.0095"/>
</g>
<!-- 31&#45;&gt;37 -->
<g id="edge65" class="edge">
<title>31&#45;&gt;37</title>
<path fill="none" stroke="#c0c0c0" stroke-width="2" d="M286.9945,-647.9243C253.1972,-637.9103 211.0156,-625.412 175.7738,-614.97"/>
<polygon fill="#c0c0c0" stroke="#c0c0c0" stroke-width="2" points="176.6129,-611.5683 166.0306,-612.0831 174.6243,-618.2799 176.6129,-611.5683"/>
</g>
<!-- 31&#45;&gt;40 -->
<g id="edge69" class="edge">
<title>31&#45;&gt;40</title>
<path fill="none" stroke="#c0c0c0" stroke-width="2" d="M372.9819,-647.8314C385.2928,-638.8779 400.3107,-627.9558 413.5937,-618.2955"/>
<polygon fill="#c0c0c0" stroke="#c0c0c0" stroke-width="2" points="415.9973,-620.8752 422.0261,-612.1628 411.8801,-615.214 415.9973,-620.8752"/>
</g>
<!-- 32&#45;&gt;31 -->
<g id="edge56" class="edge">
<title>32&#45;&gt;31</title>
<path fill="none" stroke="#c0c0c0" stroke-width="2" d="M333.0468,-719.8314C335.2094,-712.0463 337.7853,-702.7729 340.1848,-694.1347"/>
<polygon fill="#c0c0c0" stroke="#c0c0c0" stroke-width="2" points="343.581,-694.9852 342.8852,-684.4133 336.8364,-693.1117 343.581,-694.9852"/>
</g>
<!-- 33&#45;&gt;31 -->
<g id="edge57" class="edge">
<title>33&#45;&gt;31</title>
<path fill="none" stroke="#c0c0c0" stroke-width="2" d="M445.1955,-719.8314C428.4138,-710.5368 407.8015,-699.1208 389.8837,-689.1971"/>
<polygon fill="#c0c0c0" stroke="#c0c0c0" stroke-width="2" points="391.2377,-685.9461 380.794,-684.1628 387.8462,-692.0696 391.2377,-685.9461"/>
</g>
<!-- 34&#45;&gt;31 -->
<g id="edge58" class="edge">
<title>34&#45;&gt;31</title>
<path fill="none" stroke="#c0c0c0" stroke-width="2" d="M220.8982,-719.8314C243.7357,-710.159 271.998,-698.1891 296.0687,-687.9944"/>
<polygon fill="#c0c0c0" stroke="#c0c0c0" stroke-width="2" points="297.5671,-691.1608 305.4103,-684.038 294.8371,-684.7151 297.5671,-691.1608"/>
</g>
<!-- 35 -->
<g id="node36" class="node">
<title>35</title>
<path fill="none" stroke="#5673d8" stroke-width="2" d="M203,-468C203,-468 135,-468 135,-468 129,-468 123,-462 123,-456 123,-456 123,-444 123,-444 123,-438 129,-432 135,-432 135,-432 203,-432 203,-432 209,-432 215,-438 215,-444 215,-444 215,-456 215,-456 215,-462 209,-468 203,-468"/>
<text text-anchor="middle" x="169" y="-447.5" font-family="sans" font-size="10.00" fill="#000000">shard_sort_query</text>
</g>
<!-- 35&#45;&gt;27 -->
<g id="edge50" class="edge">
<title>35&#45;&gt;27</title>
<path fill="none" stroke="#c0c0c0" stroke-width="2" d="M214.1693,-431.8314C241.685,-420.7636 276.6796,-406.6875 303.9828,-395.7052"/>
<polygon fill="#c0c0c0" stroke="#c0c0c0" stroke-width="2" points="305.3232,-398.9387 313.2947,-391.9597 302.7109,-392.4444 305.3232,-398.9387"/>
</g>
<!-- 36 -->
<g id="node37" class="node">
<title>36</title>
<path fill="none" stroke="#56d0d8" stroke-width="2" d="M170,-540C170,-540 90,-540 90,-540 84,-540 78,-534 78,-528 78,-528 78,-516 78,-516 78,-510 84,-504 90,-504 90,-504 170,-504 170,-504 176,-504 182,-510 182,-516 182,-516 182,-528 182,-528 182,-534 176,-540 170,-540"/>
<text text-anchor="middle" x="130" y="-519.5" font-family="sans" font-size="10.00" fill="#000000">shard_clean_header</text>
</g>
<!-- 36&#45;&gt;35 -->
<g id="edge62" class="edge">
<title>36&#45;&gt;35</title>
<path fill="none" stroke="#c0c0c0" stroke-width="2" d="M139.8413,-503.8314C144.1957,-495.7925 149.4098,-486.1666 154.2169,-477.2918"/>
<polygon fill="#c0c0c0" stroke="#c0c0c0" stroke-width="2" points="157.3408,-478.8732 159.0261,-468.4133 151.1857,-475.5392 157.3408,-478.8732"/>
</g>
<!-- 37&#45;&gt;36 -->
<g id="edge63" class="edge">
<title>37&#45;&gt;36</title>
<path fill="none" stroke="#c0c0c0" stroke-width="2" d="M111.3086,-575.8314C114.0117,-568.0463 117.2316,-558.7729 120.231,-550.1347"/>
<polygon fill="#c0c0c0" stroke="#c0c0c0" stroke-width="2" points="123.6327,-551.0081 123.6065,-540.4133 117.02,-548.7119 123.6327,-551.0081"/>
</g>
<!-- 38 -->
<g id="node39" class="node">
<title>38</title>
<path fill="none" stroke="#5673d8" stroke-width="2" d="M463,-468C463,-468 395,-468 395,-468 389,-468 383,-462 383,-456 383,-456 383,-444 383,-444 383,-438 389,-432 395,-432 395,-432 463,-432 463,-432 469,-432 475,-438 475,-444 475,-444 475,-456 475,-456 475,-462 469,-468 463,-468"/>
<text text-anchor="middle" x="429" y="-447.5" font-family="sans" font-size="10.00" fill="#000000">shard_sort_query</text>
</g>
<!-- 38&#45;&gt;27 -->
<g id="edge51" class="edge">
<title>38&#45;&gt;27</title>
<path fill="none" stroke="#c0c0c0" stroke-width="2" d="M408.5603,-431.8314C398.6795,-423.0485 386.6676,-412.3712 375.955,-402.8489"/>
<polygon fill="#c0c0c0" stroke="#c0c0c0" stroke-width="2" points="378.2326,-400.1906 368.4332,-396.1628 373.582,-405.4224 378.2326,-400.1906"/>
</g>
<!-- 39 -->
<g id="node40" class="node">
<title>39</title>
<path fill="none" stroke="#56d0d8" stroke-width="2" d="M475,-540C475,-540 395,-540 395,-540 389,-540 383,-534 383,-528 383,-528 383,-516 383,-516 383,-510 389,-504 395,-504 395,-504 475,-504 475,-504 481,-504 487,-510 487,-516 487,-516 487,-528 487,-528 487,-534 481,-540 475,-540"/>
<text text-anchor="middle" x="435" y="-519.5" font-family="sans" font-size="10.00" fill="#000000">shard_clean_header</text>
</g>
<!-- 39&#45;&gt;38 -->
<g id="edge66" class="edge">
<title>39&#45;&gt;38</title>
<path fill="none" stroke="#c0c0c0" stroke-width="2" d="M433.4859,-503.8314C432.8442,-496.131 432.0812,-486.9743 431.3681,-478.4166"/>
<polygon fill="#c0c0c0" stroke="#c0c0c0" stroke-width="2" points="434.8529,-478.088 430.5344,-468.4133 427.8771,-478.6694 434.8529,-478.088"/>
</g>
<!-- 40&#45;&gt;39 -->
<g id="edge67" class="edge">
<title>40&#45;&gt;39</title>
<path fill="none" stroke="#c0c0c0" stroke-width="2" d="M443.9719,-575.8314C442.6885,-568.131 441.1624,-558.9743 439.7361,-550.4166"/>
<polygon fill="#c0c0c0" stroke="#c0c0c0" stroke-width="2" points="443.1653,-549.7018 438.0689,-540.4133 436.2606,-550.8526 443.1653,-549.7018"/>
</g>
<!-- 41 -->
<g id="node42" class="node">
<title>41</title>
<path fill="none" stroke="#c6d856" stroke-width="2" d="M1375,-252C1375,-252 1335,-252 1335,-252 1329,-252 1323,-246 1323,-240 1323,-240 1323,-228 1323,-228 1323,-222 1329,-216 1335,-216 1335,-216 1375,-216 1375,-216 1381,-216 1387,-222 1387,-228 1387,-228 1387,-240 1387,-240 1387,-246 1381,-252 1375,-252"/>
<text text-anchor="middle" x="1355" y="-231.5" font-family="sans" font-size="10.00" fill="#000000">align_stats</text>
</g>
<!-- 41&#45;&gt;1 -->
<g id="edge19" class="edge">
<title>41&#45;&gt;1</title>
<path fill="none" stroke="#c0c0c0" stroke-width="2" d="M1351.0721,-215.8003C1345.5237,-194.833 1333.2415,-161.082 1309,-144 1248.5138,-101.3778 1021.5622,-92.3951 931.331,-90.5038"/>
<polygon fill="#c0c0c0" stroke="#c0c0c0" stroke-width="2" points="931.3404,-87.0034 921.275,-90.3108 931.206,-94.0021 931.3404,-87.0034"/>
</g>
<!-- 42 -->
<g id="node43" class="node">
<title>42</title>
<path fill="none" stroke="#d88556" stroke-width="2" d="M1536.5,-396C1536.5,-396 1491.5,-396 1491.5,-396 1485.5,-396 1479.5,-390 1479.5,-384 1479.5,-384 1479.5,-372 1479.5,-372 1479.5,-366 1485.5,-360 1491.5,-360 1491.5,-360 1536.5,-360 1536.5,-360 1542.5,-360 1548.5,-366 1548.5,-372 1548.5,-372 1548.5,-384 1548.5,-384 1548.5,-390 1542.5,-396 1536.5,-396"/>
<text text-anchor="middle" x="1514" y="-375.5" font-family="sans" font-size="10.00" fill="#000000">align_merge</text>
</g>
<!-- 42&#45;&gt;41 -->
<g id="edge70" class="edge">
<title>42&#45;&gt;41</title>
<path fill="none" stroke="#c0c0c0" stroke-width="2" d="M1483.8505,-359.8693C1468.562,-350.0735 1450.0879,-337.2833 1435,-324 1412.7206,-304.3854 1390.5451,-278.8425 1375.2121,-259.9814"/>
<polygon fill="#c0c0c0" stroke="#c0c0c0" stroke-width="2" points="1377.8655,-257.6957 1368.8764,-252.088 1372.4065,-262.0774 1377.8655,-257.6957"/>
</g>
<!-- 61 -->
<g id="node62" class="node">
<title>61</title>
<path fill="none" stroke="#56d8a9" stroke-width="2" d="M1506.5,-324C1506.5,-324 1455.5,-324 1455.5,-324 1449.5,-324 1443.5,-318 1443.5,-312 1443.5,-312 1443.5,-300 1443.5,-300 1443.5,-294 1449.5,-288 1455.5,-288 1455.5,-288 1506.5,-288 1506.5,-288 1512.5,-288 1518.5,-294 1518.5,-300 1518.5,-300 1518.5,-312 1518.5,-312 1518.5,-318 1512.5,-324 1506.5,-324"/>
<text text-anchor="middle" x="1481" y="-303.5" font-family="sans" font-size="10.00" fill="#000000">metadmg_lca</text>
</g>
<!-- 42&#45;&gt;61 -->
<g id="edge97" class="edge">
<title>42&#45;&gt;61</title>
<path fill="none" stroke="#c0c0c0" stroke-width="2" d="M1505.6727,-359.8314C1502.027,-351.8771 1497.6691,-342.369 1493.6373,-333.5723"/>
<polygon fill="#c0c0c0" stroke="#c0c0c0" stroke-width="2" points="1496.7877,-332.0456 1489.4394,-324.4133 1490.4243,-334.9622 1496.7877,-332.0456"/>
</g>
<!-- 67 -->
<g id="node68" class="node">
<title>67</title>
<path fill="none" stroke="#56d87b" stroke-width="2" d="M1470.5,-108C1470.5,-108 1397.5,-108 1397.5,-108 1391.5,-108 1385.5,-102 1385.5,-96 1385.5,-96 1385.5,-84 1385.5,-84 1385.5,-78 1391.5,-72 1397.5,-72 1397.5,-72 1470.5,-72 1470.5,-72 1476.5,-72 1482.5,-78 1482.5,-84 1482.5,-84 1482.5,-96 1482.5,-96 1482.5,-102 1476.5,-108 1470.5,-108"/>
<text text-anchor="middle" x="1434" y="-87.5" font-family="sans" font-size="10.00" fill="#000000">metadmg_damage</text>
</g>
<!-- 42&#45;&gt;67 -->
<g id="edge106" class="edge">
<title>42&#45;&gt;67</title>
<path fill="none" stroke="#c0c0c0" stroke-width="2" d="M1519.7842,-359.954C1531.9484,-318.4025 1555.7709,-214.1637 1514,-144 1506.6885,-131.7186 1495.3679,-121.6264 1483.5216,-113.628"/>
<polygon fill="#c0c0c0" stroke="#c0c0c0" stroke-width="2" points="1485.1802,-110.5365 1474.8525,-108.1727 1481.452,-116.4611 1485.1802,-110.5365"/>
</g>
<!-- 43 -->
<g id="node44" class="node">
<title>43</title>
<path fill="none" stroke="#5673d8" stroke-width="2" d="M1590,-468C1590,-468 1522,-468 1522,-468 1516,-468 1510,-462 1510,-456 1510,-456 1510,-444 1510,-444 1510,-438 1516,-432 1522,-432 1522,-432 1590,-432 1590,-432 1596,-432 1602,-438 1602,-444 1602,-444 1602,-456 1602,-456 1602,-462 1596,-468 1590,-468"/>
<text text-anchor="middle" x="1556" y="-447.5" font-family="sans" font-size="10.00" fill="#000000">shard_sort_query</text>
</g>
<!-- 43&#45;&gt;42 -->
<g id="edge71" class="edge">
<title>43&#45;&gt;42</title>
<path fill="none" stroke="#c0c0c0" stroke-width="2" d="M1545.4016,-431.8314C1540.7123,-423.7925 1535.0972,-414.1666 1529.9202,-405.2918"/>
<polygon fill="#c0c0c0" stroke="#c0c0c0" stroke-width="2" points="1532.8031,-403.2875 1524.7411,-396.4133 1526.7566,-406.8146 1532.8031,-403.2875"/>
</g>
<!-- 44 -->
<g id="node45" class="node">
<title>44</title>
<path fill="none" stroke="#56d0d8" stroke-width="2" d="M1602,-540C1602,-540 1522,-540 1522,-540 1516,-540 1510,-534 1510,-528 1510,-528 1510,-516 1510,-516 1510,-510 1516,-504 1522,-504 1522,-504 1602,-504 1602,-504 1608,-504 1614,-510 1614,-516 1614,-516 1614,-528 1614,-528 1614,-534 1608,-540 1602,-540"/>
<text text-anchor="middle" x="1562" y="-519.5" font-family="sans" font-size="10.00" fill="#000000">shard_clean_header</text>
</g>
<!-- 44&#45;&gt;43 -->
<g id="edge74" class="edge">
<title>44&#45;&gt;43</title>
<path fill="none" stroke="#c0c0c0" stroke-width="2" d="M1560.4859,-503.8314C1559.8442,-496.131 1559.0812,-486.9743 1558.3681,-478.4166"/>
<polygon fill="#c0c0c0" stroke="#c0c0c0" stroke-width="2" points="1561.8529,-478.088 1557.5344,-468.4133 1554.8771,-478.6694 1561.8529,-478.088"/>
</g>
<!-- 45&#45;&gt;44 -->
<g id="edge75" class="edge">
<title>45&#45;&gt;44</title>
<path fill="none" stroke="#c0c0c0" stroke-width="2" d="M1568.7289,-575.8314C1567.7664,-568.131 1566.6218,-558.9743 1565.5521,-550.4166"/>
<polygon fill="#c0c0c0" stroke="#c0c0c0" stroke-width="2" points="1569.0151,-549.9019 1564.3017,-540.4133 1562.0691,-550.7702 1569.0151,-549.9019"/>
</g>
<!-- 46 -->
<g id="node47" class="node">
<title>46</title>
<path fill="none" stroke="#56a2d8" stroke-width="2" d="M1605,-684C1605,-684 1495,-684 1495,-684 1489,-684 1483,-678 1483,-672 1483,-672 1483,-660 1483,-660 1483,-654 1489,-648 1495,-648 1495,-648 1605,-648 1605,-648 1611,-648 1617,-654 1617,-660 1617,-660 1617,-672 1617,-672 1617,-678 1611,-684 1605,-684"/>
<text text-anchor="middle" x="1550" y="-663.5" font-family="sans" font-size="10.00" fill="#000000">shard_saturated_reads_get</text>
</g>
<!-- 46&#45;&gt;45 -->
<g id="edge77" class="edge">
<title>46&#45;&gt;45</title>
<path fill="none" stroke="#c0c0c0" stroke-width="2" d="M1555.2992,-647.8314C1557.5698,-640.0463 1560.2746,-630.7729 1562.794,-622.1347"/>
<polygon fill="#c0c0c0" stroke="#c0c0c0" stroke-width="2" points="1566.1894,-622.9933 1565.6295,-612.4133 1559.4694,-621.0332 1566.1894,-622.9933"/>
</g>
<!-- 46&#45;&gt;52 -->
<g id="edge87" class="edge">
<title>46&#45;&gt;52</title>
<path fill="none" stroke="#c0c0c0" stroke-width="2" d="M1512.1487,-647.8314C1492.2654,-638.2874 1467.7218,-626.5065 1446.6695,-616.4013"/>
<polygon fill="#c0c0c0" stroke="#c0c0c0" stroke-width="2" points="1448.109,-613.21 1437.5791,-612.038 1445.0798,-619.5207 1448.109,-613.21"/>
</g>
<!-- 46&#45;&gt;55 -->
<g id="edge91" class="edge">
<title>46&#45;&gt;55</title>
<path fill="none" stroke="#c0c0c0" stroke-width="2" d="M1598.4497,-647.8314C1624.5851,-638.0306 1657.0109,-625.8709 1684.4283,-615.5894"/>
<polygon fill="#c0c0c0" stroke="#c0c0c0" stroke-width="2" points="1685.7643,-618.8264 1693.8987,-612.038 1683.3064,-612.2721 1685.7643,-618.8264"/>
</g>
<!-- 47&#45;&gt;46 -->
<g id="edge78" class="edge">
<title>47&#45;&gt;46</title>
<path fill="none" stroke="#c0c0c0" stroke-width="2" d="M1534.2992,-719.8314C1536.5698,-712.0463 1539.2746,-702.7729 1541.794,-694.1347"/>
<polygon fill="#c0c0c0" stroke="#c0c0c0" stroke-width="2" points="1545.1894,-694.9933 1544.6295,-684.4133 1538.4694,-693.0332 1545.1894,-694.9933"/>
</g>
<!-- 48&#45;&gt;46 -->
<g id="edge79" class="edge">
<title>48&#45;&gt;46</title>
<path fill="none" stroke="#c0c0c0" stroke-width="2" d="M1617.2892,-719.8314C1606.204,-710.9632 1592.7046,-700.1637 1580.7148,-690.5718"/>
<polygon fill="#c0c0c0" stroke="#c0c0c0" stroke-width="2" points="1582.6987,-687.6768 1572.7035,-684.1628 1578.3258,-693.1429 1582.6987,-687.6768"/>
</g>
<!-- 49&#45;&gt;46 -->
<g id="edge80" class="edge">
<title>49&#45;&gt;46</title>
<path fill="none" stroke="#c0c0c0" stroke-width="2" d="M1451.3092,-719.8314C1468.4273,-710.4942 1489.4706,-699.016 1507.7222,-689.0606"/>
<polygon fill="#c0c0c0" stroke="#c0c0c0" stroke-width="2" points="1509.5985,-692.024 1516.7015,-684.1628 1506.2465,-685.8788 1509.5985,-692.024"/>
</g>
<!-- 50 -->
<g id="node51" class="node">
<title>50</title>
<path fill="none" stroke="#5673d8" stroke-width="2" d="M1465,-468C1465,-468 1397,-468 1397,-468 1391,-468 1385,-462 1385,-456 1385,-456 1385,-444 1385,-444 1385,-438 1391,-432 1397,-432 1397,-432 1465,-432 1465,-432 1471,-432 1477,-438 1477,-444 1477,-444 1477,-456 1477,-456 1477,-462 1471,-468 1465,-468"/>
<text text-anchor="middle" x="1431" y="-447.5" font-family="sans" font-size="10.00" fill="#000000">shard_sort_query</text>
</g>
<!-- 50&#45;&gt;42 -->
<g id="edge72" class="edge">
<title>50&#45;&gt;42</title>
<path fill="none" stroke="#c0c0c0" stroke-width="2" d="M1451.9444,-431.8314C1462.0691,-423.0485 1474.3777,-412.3712 1485.3548,-402.8489"/>
<polygon fill="#c0c0c0" stroke="#c0c0c0" stroke-width="2" points="1487.8019,-405.3595 1493.0623,-396.1628 1483.2149,-400.0718 1487.8019,-405.3595"/>
</g>
<!-- 51 -->
<g id="node52" class="node">
<title>51</title>
<path fill="none" stroke="#56d0d8" stroke-width="2" d="M1456,-540C1456,-540 1376,-540 1376,-540 1370,-540 1364,-534 1364,-528 1364,-528 1364,-516 1364,-516 1364,-510 1370,-504 1376,-504 1376,-504 1456,-504 1456,-504 1462,-504 1468,-510 1468,-516 1468,-516 1468,-528 1468,-528 1468,-534 1462,-540 1456,-540"/>
<text text-anchor="middle" x="1416" y="-519.5" font-family="sans" font-size="10.00" fill="#000000">shard_clean_header</text>
</g>
<!-- 51&#45;&gt;50 -->
<g id="edge84" class="edge">
<title>51&#45;&gt;50</title>
<path fill="none" stroke="#c0c0c0" stroke-width="2" d="M1419.7851,-503.8314C1421.3894,-496.131 1423.297,-486.9743 1425.0799,-478.4166"/>
<polygon fill="#c0c0c0" stroke="#c0c0c0" stroke-width="2" points="1428.5507,-478.9169 1427.1639,-468.4133 1421.6979,-477.4892 1428.5507,-478.9169"/>
</g>
<!-- 52&#45;&gt;51 -->
<g id="edge85" class="edge">
<title>52&#45;&gt;51</title>
<path fill="none" stroke="#c0c0c0" stroke-width="2" d="M1404.0375,-575.8314C1405.7487,-568.131 1407.7835,-558.9743 1409.6852,-550.4166"/>
<polygon fill="#c0c0c0" stroke="#c0c0c0" stroke-width="2" points="1413.1554,-550.9344 1411.9082,-540.4133 1406.3221,-549.4159 1413.1554,-550.9344"/>
</g>
<!-- 53 -->
<g id="node54" class="node">
<title>53</title>
<path fill="none" stroke="#5673d8" stroke-width="2" d="M1726,-468C1726,-468 1658,-468 1658,-468 1652,-468 1646,-462 1646,-456 1646,-456 1646,-444 1646,-444 1646,-438 1652,-432 1658,-432 1658,-432 1726,-432 1726,-432 1732,-432 1738,-438 1738,-444 1738,-444 1738,-456 1738,-456 1738,-462 1732,-468 1726,-468"/>
<text text-anchor="middle" x="1692" y="-447.5" font-family="sans" font-size="10.00" fill="#000000">shard_sort_query</text>
</g>
<!-- 53&#45;&gt;42 -->
<g id="edge73" class="edge">
<title>53&#45;&gt;42</title>
<path fill="none" stroke="#c0c0c0" stroke-width="2" d="M1647.0831,-431.8314C1619.8405,-420.8119 1585.2257,-406.8104 1558.1274,-395.8493"/>
<polygon fill="#c0c0c0" stroke="#c0c0c0" stroke-width="2" points="1559.0942,-392.4649 1548.5114,-391.9597 1556.4693,-398.9542 1559.0942,-392.4649"/>
</g>
<!-- 54 -->
<g id="node55" class="node">
<title>54</title>
<path fill="none" stroke="#56d0d8" stroke-width="2" d="M1765,-540C1765,-540 1685,-540 1685,-540 1679,-540 1673,-534 1673,-528 1673,-528 1673,-516 1673,-516 1673,-510 1679,-504 1685,-504 1685,-504 1765,-504 1765,-504 1771,-504 1777,-510 1777,-516 1777,-516 1777,-528 1777,-528 1777,-534 1771,-540 1765,-540"/>
<text text-anchor="middle" x="1725" y="-519.5" font-family="sans" font-size="10.00" fill="#000000">shard_clean_header</text>
</g>
<!-- 54&#45;&gt;53 -->
<g id="edge88" class="edge">
<title>54&#45;&gt;53</title>
<path fill="none" stroke="#c0c0c0" stroke-width="2" d="M1716.6727,-503.8314C1713.027,-495.8771 1708.6691,-486.369 1704.6373,-477.5723"/>
<polygon fill="#c0c0c0" stroke="#c0c0c0" stroke-width="2" points="1707.7877,-476.0456 1700.4394,-468.4133 1701.4243,-478.9622 1707.7877,-476.0456"/>
</g>
<!-- 55&#45;&gt;54 -->
<g id="edge89" class="edge">
<title>55&#45;&gt;54</title>
<path fill="none" stroke="#c0c0c0" stroke-width="2" d="M1737.7102,-575.8314C1735.892,-568.131 1733.7301,-558.9743 1731.7095,-550.4166"/>
<polygon fill="#c0c0c0" stroke="#c0c0c0" stroke-width="2" points="1735.0519,-549.3414 1729.3476,-540.4133 1728.2392,-550.95 1735.0519,-549.3414"/>
</g>
<!-- 56 -->
<g id="node57" class="node">
<title>56</title>
<path fill="none" stroke="#56d892" stroke-width="2" d="M896,-252C896,-252 844,-252 844,-252 838,-252 832,-246 832,-240 832,-240 832,-228 832,-228 832,-222 838,-216 844,-216 844,-216 896,-216 896,-216 902,-216 908,-222 908,-228 908,-228 908,-240 908,-240 908,-246 902,-252 896,-252"/>
<text text-anchor="middle" x="870" y="-231.5" font-family="sans" font-size="10.00" fill="#000000">metadmg_dfit</text>
</g>
<!-- 56&#45;&gt;1 -->
<g id="edge20" class="edge">
<title>56&#45;&gt;1</title>
<path fill="none" stroke="#c0c0c0" stroke-width="2" d="M873.0396,-215.7623C877.1512,-191.0928 884.5234,-146.8598 889.3378,-117.9731"/>
<polygon fill="#c0c0c0" stroke="#c0c0c0" stroke-width="2" points="892.7934,-118.529 890.9851,-108.0896 885.8886,-117.3781 892.7934,-118.529"/>
</g>
<!-- 62 -->
<g id="node63" class="node">
<title>62</title>
<path fill="none" stroke="#56d863" stroke-width="2" d="M853.5,-180C853.5,-180 772.5,-180 772.5,-180 766.5,-180 760.5,-174 760.5,-168 760.5,-168 760.5,-156 760.5,-156 760.5,-150 766.5,-144 772.5,-144 772.5,-144 853.5,-144 853.5,-144 859.5,-144 865.5,-150 865.5,-156 865.5,-156 865.5,-168 865.5,-168 865.5,-174 859.5,-180 853.5,-180"/>
<text text-anchor="middle" x="813" y="-159.5" font-family="sans" font-size="10.00" fill="#000000">metadmg_aggregate</text>
</g>
<!-- 56&#45;&gt;62 -->
<g id="edge99" class="edge">
<title>56&#45;&gt;62</title>
<path fill="none" stroke="#c0c0c0" stroke-width="2" d="M855.6165,-215.8314C849.0514,-207.5386 841.1493,-197.557 833.9422,-188.4533"/>
<polygon fill="#c0c0c0" stroke="#c0c0c0" stroke-width="2" points="836.5284,-186.0813 827.5772,-180.4133 831.0401,-190.4262 836.5284,-186.0813"/>
</g>
<!-- 57&#45;&gt;56 -->
<g id="edge92" class="edge">
<title>57&#45;&gt;56</title>
<path fill="none" stroke="#c0c0c0" stroke-width="2" d="M870,-287.8314C870,-280.131 870,-270.9743 870,-262.4166"/>
<polygon fill="#c0c0c0" stroke="#c0c0c0" stroke-width="2" points="873.5001,-262.4132 870,-252.4133 866.5001,-262.4133 873.5001,-262.4132"/>
</g>
<!-- 57&#45;&gt;62 -->
<g id="edge98" class="edge">
<title>57&#45;&gt;62</title>
<path fill="none" stroke="#c0c0c0" stroke-width="2" d="M848.8882,-287.5504C839.3381,-277.9525 828.892,-265.4302 823,-252 814.4467,-232.5038 812.1444,-208.4494 811.873,-190.1149"/>
<polygon fill="#c0c0c0" stroke="#c0c0c0" stroke-width="2" points="815.3731,-190.0734 811.9161,-180.0585 808.3732,-190.0434 815.3731,-190.0734"/>
</g>
<!-- 58 -->
<g id="node59" class="node">
<title>58</title>
<path fill="none" stroke="#56d892" stroke-width="2" d="M469,-252C469,-252 417,-252 417,-252 411,-252 405,-246 405,-240 405,-240 405,-228 405,-228 405,-222 411,-216 417,-216 417,-216 469,-216 469,-216 475,-216 481,-222 481,-228 481,-228 481,-240 481,-240 481,-246 475,-252 469,-252"/>
<text text-anchor="middle" x="443" y="-231.5" font-family="sans" font-size="10.00" fill="#000000">metadmg_dfit</text>
</g>
<!-- 58&#45;&gt;1 -->
<g id="edge21" class="edge">
<title>58&#45;&gt;1</title>
<path fill="none" stroke="#c0c0c0" stroke-width="2" d="M454.6171,-215.6955C469.0615,-194.6275 495.7867,-160.7797 528,-144 535.2934,-140.2009 765.28,-107.9034 856.8848,-95.15"/>
<polygon fill="#c0c0c0" stroke="#c0c0c0" stroke-width="2" points="857.4163,-98.6098 866.8387,-93.7653 856.4518,-91.6766 857.4163,-98.6098"/>
</g>
<!-- 63 -->
<g id="node64" class="node">
<title>63</title>
<path fill="none" stroke="#56d863" stroke-width="2" d="M430.5,-180C430.5,-180 349.5,-180 349.5,-180 343.5,-180 337.5,-174 337.5,-168 337.5,-168 337.5,-156 337.5,-156 337.5,-150 343.5,-144 349.5,-144 349.5,-144 430.5,-144 430.5,-144 436.5,-144 442.5,-150 442.5,-156 442.5,-156 442.5,-168 442.5,-168 442.5,-174 436.5,-180 430.5,-180"/>
<text text-anchor="middle" x="390" y="-159.5" font-family="sans" font-size="10.00" fill="#000000">metadmg_aggregate</text>
</g>
<!-- 58&#45;&gt;63 -->
<g id="edge101" class="edge">
<title>58&#45;&gt;63</title>
<path fill="none" stroke="#c0c0c0" stroke-width="2" d="M429.6259,-215.8314C423.5838,-207.6232 416.3237,-197.7606 409.6779,-188.7323"/>
<polygon fill="#c0c0c0" stroke="#c0c0c0" stroke-width="2" points="412.3011,-186.3918 403.5542,-180.4133 406.6637,-190.5415 412.3011,-186.3918"/>
</g>
<!-- 59&#45;&gt;58 -->
<g id="edge94" class="edge">
<title>59&#45;&gt;58</title>
<path fill="none" stroke="#c0c0c0" stroke-width="2" d="M393.6546,-287.8314C401.4114,-279.3694 410.7802,-269.1489 419.261,-259.8971"/>
<polygon fill="#c0c0c0" stroke="#c0c0c0" stroke-width="2" points="421.9439,-262.1499 426.1212,-252.4133 416.7838,-257.4198 421.9439,-262.1499"/>
</g>
<!-- 59&#45;&gt;63 -->
<g id="edge100" class="edge">
<title>59&#45;&gt;63</title>
<path fill="none" stroke="#c0c0c0" stroke-width="2" d="M378.6465,-287.7623C380.8638,-263.201 384.8318,-219.2474 387.4403,-190.3541"/>
<polygon fill="#c0c0c0" stroke="#c0c0c0" stroke-width="2" points="390.9535,-190.3638 388.3669,-180.0896 383.9819,-189.7344 390.9535,-190.3638"/>
</g>
<!-- 60 -->
<g id="node61" class="node">
<title>60</title>
<path fill="none" stroke="#56d892" stroke-width="2" d="M1469,-252C1469,-252 1417,-252 1417,-252 1411,-252 1405,-246 1405,-240 1405,-240 1405,-228 1405,-228 1405,-222 1411,-216 1417,-216 1417,-216 1469,-216 1469,-216 1475,-216 1481,-222 1481,-228 1481,-228 1481,-240 1481,-240 1481,-246 1475,-252 1469,-252"/>
<text text-anchor="middle" x="1443" y="-231.5" font-family="sans" font-size="10.00" fill="#000000">metadmg_dfit</text>
</g>
<!-- 60&#45;&gt;1 -->
<g id="edge22" class="edge">
<title>60&#45;&gt;1</title>
<path fill="none" stroke="#c0c0c0" stroke-width="2" d="M1424.1166,-215.6219C1399.2649,-191.8636 1356.4614,-152.5193 1337,-144 1264.3007,-112.1757 1024.2792,-96.7054 931.2755,-91.7942"/>
<polygon fill="#c0c0c0" stroke="#c0c0c0" stroke-width="2" points="931.363,-88.2941 921.1956,-91.273 931.0016,-95.2848 931.363,-88.2941"/>
</g>
<!-- 64 -->
<g id="node65" class="node">
<title>64</title>
<path fill="none" stroke="#56d863" stroke-width="2" d="M1492.5,-180C1492.5,-180 1411.5,-180 1411.5,-180 1405.5,-180 1399.5,-174 1399.5,-168 1399.5,-168 1399.5,-156 1399.5,-156 1399.5,-150 1405.5,-144 1411.5,-144 1411.5,-144 1492.5,-144 1492.5,-144 1498.5,-144 1504.5,-150 1504.5,-156 1504.5,-156 1504.5,-168 1504.5,-168 1504.5,-174 1498.5,-180 1492.5,-180"/>
<text text-anchor="middle" x="1452" y="-159.5" font-family="sans" font-size="10.00" fill="#000000">metadmg_aggregate</text>
</g>
<!-- 60&#45;&gt;64 -->
<g id="edge103" class="edge">
<title>60&#45;&gt;64</title>
<path fill="none" stroke="#c0c0c0" stroke-width="2" d="M1445.2711,-215.8314C1446.2336,-208.131 1447.3782,-198.9743 1448.4479,-190.4166"/>
<polygon fill="#c0c0c0" stroke="#c0c0c0" stroke-width="2" points="1451.9309,-190.7702 1449.6983,-180.4133 1444.9849,-189.9019 1451.9309,-190.7702"/>
</g>
<!-- 61&#45;&gt;60 -->
<g id="edge96" class="edge">
<title>61&#45;&gt;60</title>
<path fill="none" stroke="#c0c0c0" stroke-width="2" d="M1471.411,-287.8314C1467.1683,-279.7925 1462.0879,-270.1666 1457.404,-261.2918"/>
<polygon fill="#c0c0c0" stroke="#c0c0c0" stroke-width="2" points="1460.4811,-259.6235 1452.7181,-252.4133 1454.2904,-262.8908 1460.4811,-259.6235"/>
</g>
<!-- 61&#45;&gt;64 -->
<g id="edge102" class="edge">
<title>61&#45;&gt;64</title>
<path fill="none" stroke="#c0c0c0" stroke-width="2" d="M1486.9508,-287.9744C1492.1036,-269.4858 1497.6306,-240.1027 1490,-216 1486.9185,-206.2664 1481.3817,-196.7695 1475.4711,-188.5228"/>
<polygon fill="#c0c0c0" stroke="#c0c0c0" stroke-width="2" points="1478.1248,-186.2316 1469.2635,-180.4239 1472.569,-190.49 1478.1248,-186.2316"/>
</g>
<!-- 62&#45;&gt;0 -->
<g id="edge2" class="edge">
<title>62&#45;&gt;0</title>
<path fill="none" stroke="#c0c0c0" stroke-width="2" d="M813,-143.7623C813,-119.201 813,-75.2474 813,-46.3541"/>
<polygon fill="#c0c0c0" stroke="#c0c0c0" stroke-width="2" points="816.5001,-46.0896 813,-36.0896 809.5001,-46.0897 816.5001,-46.0896"/>
</g>
<!-- 62&#45;&gt;1 -->
<g id="edge23" class="edge">
<title>62&#45;&gt;1</title>
<path fill="none" stroke="#c0c0c0" stroke-width="2" d="M833.4397,-143.8314C843.3205,-135.0485 855.3324,-124.3712 866.045,-114.8489"/>
<polygon fill="#c0c0c0" stroke="#c0c0c0" stroke-width="2" points="868.418,-117.4224 873.5668,-108.1628 863.7674,-112.1906 868.418,-117.4224"/>
</g>
<!-- 63&#45;&gt;0 -->
<g id="edge3" class="edge">
<title>63&#45;&gt;0</title>
<path fill="none" stroke="#c0c0c0" stroke-width="2" d="M440.5988,-143.9056C492.346,-125.4889 575.1123,-96.2765 647,-72 691.2358,-57.0615 742.3493,-40.5459 776.0414,-29.7618"/>
<polygon fill="#c0c0c0" stroke="#c0c0c0" stroke-width="2" points="777.4517,-32.9855 785.9113,-26.6071 775.3204,-26.3178 777.4517,-32.9855"/>
</g>
<!-- 63&#45;&gt;1 -->
<g id="edge24" class="edge">
<title>63&#45;&gt;1</title>
<path fill="none" stroke="#c0c0c0" stroke-width="2" d="M442.8656,-147.038C447.6249,-145.9215 452.3872,-144.887 457,-144 591.0409,-118.2249 626.5943,-125.2219 762,-108 794.1045,-103.9167 830.549,-98.9196 856.9978,-95.2275"/>
<polygon fill="#c0c0c0" stroke="#c0c0c0" stroke-width="2" points="857.5505,-98.6843 866.9685,-93.8313 856.5798,-91.7519 857.5505,-98.6843"/>
</g>
<!-- 64&#45;&gt;0 -->
<g id="edge4" class="edge">
<title>64&#45;&gt;0</title>
<path fill="none" stroke="#c0c0c0" stroke-width="2" d="M1399.1434,-149.7582C1390.7344,-147.8234 1382.1305,-145.8512 1374,-144 1176.6868,-99.0753 940.0778,-46.2883 850.1413,-26.2629"/>
<polygon fill="#c0c0c0" stroke="#c0c0c0" stroke-width="2" points="850.6815,-22.7975 840.1598,-24.0408 849.1603,-29.6302 850.6815,-22.7975"/>
</g>
<!-- 64&#45;&gt;1 -->
<g id="edge25" class="edge">
<title>64&#45;&gt;1</title>
<path fill="none" stroke="#c0c0c0" stroke-width="2" d="M1399.1419,-146.9985C1394.381,-145.8904 1389.6163,-144.8687 1385,-144 1217.265,-112.4366 1013.5685,-97.3121 931.2095,-92.1434"/>
<polygon fill="#c0c0c0" stroke="#c0c0c0" stroke-width="2" points="931.2883,-88.6417 921.0921,-91.5205 930.8581,-95.6285 931.2883,-88.6417"/>
</g>
<!-- 65&#45;&gt;0 -->
<g id="edge5" class="edge">
<title>65&#45;&gt;0</title>
<path fill="none" stroke="#c0c0c0" stroke-width="2" d="M732.253,-71.8314C745.9389,-62.7074 762.6915,-51.539 777.3827,-41.7449"/>
<polygon fill="#c0c0c0" stroke="#c0c0c0" stroke-width="2" points="779.3767,-44.6221 785.7558,-36.1628 775.4938,-38.7977 779.3767,-44.6221"/>
</g>
<!-- 66&#45;&gt;0 -->
<g id="edge6" class="edge">
<title>66&#45;&gt;0</title>
<path fill="none" stroke="#c0c0c0" stroke-width="2" d="M415.5788,-82.1577C505.3548,-67.6647 695.4018,-36.9845 775.8161,-24.0028"/>
<polygon fill="#c0c0c0" stroke="#c0c0c0" stroke-width="2" points="776.6511,-27.4134 785.9655,-22.3643 775.5355,-20.5029 776.6511,-27.4134"/>
</g>
<!-- 67&#45;&gt;0 -->
<g id="edge7" class="edge">
<title>67&#45;&gt;0</title>
<path fill="none" stroke="#c0c0c0" stroke-width="2" d="M1385.2712,-84.3503C1265.1777,-70.4264 957.0054,-34.6963 850.1489,-22.3071"/>
<polygon fill="#c0c0c0" stroke="#c0c0c0" stroke-width="2" points="850.4947,-18.8238 840.1581,-21.1488 849.6884,-25.7773 850.4947,-18.8238"/>
</g>
</g>
</svg>
