<?xml version="1.0" encoding="UTF-8" standalone="no"?>
<!DOCTYPE svg PUBLIC "-//W3C//DTD SVG 1.1//EN"
 "http://www.w3.org/Graphics/SVG/1.1/DTD/svg11.dtd">
<!-- Generated by graphviz version 2.40.1 (0)
 -->
<!-- Title: snakemake_dag Pages: 1 -->
<svg width="1989pt" height="885pt"
 viewBox="0.00 0.00 1989.00 885.00" xmlns="http://www.w3.org/2000/svg" xmlns:xlink="http://www.w3.org/1999/xlink">
<g id="graph0" class="graph" transform="scale(1 1) rotate(0) translate(4 881)">
<title>snakemake_dag</title>
<polygon fill="#ffffff" stroke="transparent" points="-4,4 -4,-881 1985,-881 1985,4 -4,4"/>
<!-- 0 -->
<g id="node1" class="node">
<title>0</title>
<path fill="none" stroke="#b6d856" stroke-width="2" d="M1194.5,-36C1194.5,-36 1164.5,-36 1164.5,-36 1158.5,-36 1152.5,-30 1152.5,-24 1152.5,-24 1152.5,-12 1152.5,-12 1152.5,-6 1158.5,0 1164.5,0 1164.5,0 1194.5,0 1194.5,0 1200.5,0 1206.5,-6 1206.5,-12 1206.5,-12 1206.5,-24 1206.5,-24 1206.5,-30 1200.5,-36 1194.5,-36"/>
<text text-anchor="middle" x="1179.5" y="-15.5" font-family="sans" font-size="10.00" fill="#000000">all</text>
</g>
<!-- 1 -->
<g id="node2" class="node">
<title>1</title>
<path fill="none" stroke="#56d8b1" stroke-width="2" d="M891.5,-108C891.5,-108 861.5,-108 861.5,-108 855.5,-108 849.5,-102 849.5,-96 849.5,-96 849.5,-84 849.5,-84 849.5,-78 855.5,-72 861.5,-72 861.5,-72 891.5,-72 891.5,-72 897.5,-72 903.5,-78 903.5,-84 903.5,-84 903.5,-96 903.5,-96 903.5,-102 897.5,-108 891.5,-108"/>
<text text-anchor="middle" x="876.5" y="-87.5" font-family="sans" font-size="10.00" fill="#000000">multiqc</text>
</g>
<!-- 1&#45;&gt;0 -->
<g id="edge1" class="edge">
<title>1&#45;&gt;0</title>
<path fill="none" stroke="#c0c0c0" stroke-width="2" d="M903.6559,-83.5471C958.032,-70.6261 1080.3518,-41.56 1142.195,-26.8645"/>
<polygon fill="#c0c0c0" stroke="#c0c0c0" stroke-width="2" points="1143.3762,-30.1814 1152.2961,-24.4643 1141.7578,-23.3711 1143.3762,-30.1814"/>
</g>
<!-- 2 -->
<g id="node3" class="node">
<title>2</title>
<path fill="none" stroke="#9fd856" stroke-width="2" d="M617,-877C617,-877 510,-877 510,-877 504,-877 498,-871 498,-865 498,-865 498,-804 498,-804 498,-798 504,-792 510,-792 510,-792 617,-792 617,-792 623,-792 629,-798 629,-804 629,-804 629,-865 629,-865 629,-871 623,-877 617,-877"/>
<text text-anchor="middle" x="563.5" y="-865" font-family="sans" font-size="10.00" fill="#000000">bowtie2</text>
<text text-anchor="middle" x="563.5" y="-854" font-family="sans" font-size="10.00" fill="#000000">library: lib1</text>
<text text-anchor="middle" x="563.5" y="-843" font-family="sans" font-size="10.00" fill="#000000">n_shard: 2</text>
<text text-anchor="middle" x="563.5" y="-832" font-family="sans" font-size="10.00" fill="#000000">read_type_map: collapsed</text>
<text text-anchor="middle" x="563.5" y="-821" font-family="sans" font-size="10.00" fill="#000000">ref: wgs_eukaryota</text>
<text text-anchor="middle" x="563.5" y="-810" font-family="sans" font-size="10.00" fill="#000000">sample: HD827sonic_2</text>
<text text-anchor="middle" x="563.5" y="-799" font-family="sans" font-size="10.00" fill="#000000">tot_shards: 2</text>
</g>
<!-- 2&#45;&gt;1 -->
<g id="edge11" class="edge">
<title>2&#45;&gt;1</title>
<path fill="none" stroke="#c0c0c0" stroke-width="2" d="M593.6214,-791.9308C600.9787,-780.5551 608.4623,-768.0626 614.5,-756 683.163,-618.819 676.424,-574.3923 733.5,-432 752.9767,-383.4098 760.1198,-372.2182 780.5,-324 811.9026,-249.7033 847.6672,-161.5493 865.3657,-117.6777"/>
<polygon fill="#c0c0c0" stroke="#c0c0c0" stroke-width="2" points="868.6698,-118.8425 869.1621,-108.2591 862.1773,-116.2255 868.6698,-118.8425"/>
</g>
<!-- 34 -->
<g id="node35" class="node">
<title>34</title>
<path fill="none" stroke="#56c9d8" stroke-width="2" d="M420,-756C420,-756 351,-756 351,-756 345,-756 339,-750 339,-744 339,-744 339,-732 339,-732 339,-726 345,-720 351,-720 351,-720 420,-720 420,-720 426,-720 432,-726 432,-732 432,-732 432,-744 432,-744 432,-750 426,-756 420,-756"/>
<text text-anchor="middle" x="385.5" y="-735.5" font-family="sans" font-size="10.00" fill="#000000">shard_count_alns</text>
</g>
<!-- 2&#45;&gt;34 -->
<g id="edge64" class="edge">
<title>2&#45;&gt;34</title>
<path fill="none" stroke="#c0c0c0" stroke-width="2" d="M497.7178,-797.0628C494.6066,-795.3427 491.5221,-793.6479 488.5,-792 469.4801,-781.6288 448.3099,-770.4653 430.1331,-760.9954"/>
<polygon fill="#c0c0c0" stroke="#c0c0c0" stroke-width="2" points="431.4151,-757.7172 420.9279,-756.2108 428.1867,-763.9284 431.4151,-757.7172"/>
</g>
<!-- 40 -->
<g id="node41" class="node">
<title>40</title>
<path fill="none" stroke="#5682d8" stroke-width="2" d="M522,-612C522,-612 393,-612 393,-612 387,-612 381,-606 381,-600 381,-600 381,-588 381,-588 381,-582 387,-576 393,-576 393,-576 522,-576 522,-576 528,-576 534,-582 534,-588 534,-588 534,-600 534,-600 534,-606 528,-612 522,-612"/>
<text text-anchor="middle" x="457.5" y="-591.5" font-family="sans" font-size="10.00" fill="#000000">shard_saturated_reads_remove</text>
</g>
<!-- 2&#45;&gt;40 -->
<g id="edge71" class="edge">
<title>2&#45;&gt;40</title>
<path fill="none" stroke="#c0c0c0" stroke-width="2" d="M553.5616,-791.6582C543.4879,-752.6912 525.7739,-694.3601 500.5,-648 495.1966,-638.2719 488.1155,-628.5274 481.2324,-620.047"/>
<polygon fill="#c0c0c0" stroke="#c0c0c0" stroke-width="2" points="483.8722,-617.748 474.7583,-612.3455 478.5139,-622.2524 483.8722,-617.748"/>
</g>
<!-- 3 -->
<g id="node4" class="node">
<title>3</title>
<path fill="none" stroke="#9fd856" stroke-width="2" d="M956,-877C956,-877 849,-877 849,-877 843,-877 837,-871 837,-865 837,-865 837,-804 837,-804 837,-798 843,-792 849,-792 849,-792 956,-792 956,-792 962,-792 968,-798 968,-804 968,-804 968,-865 968,-865 968,-871 962,-877 956,-877"/>
<text text-anchor="middle" x="902.5" y="-865" font-family="sans" font-size="10.00" fill="#000000">bowtie2</text>
<text text-anchor="middle" x="902.5" y="-854" font-family="sans" font-size="10.00" fill="#000000">library: lib1</text>
<text text-anchor="middle" x="902.5" y="-843" font-family="sans" font-size="10.00" fill="#000000">n_shard: 1</text>
<text text-anchor="middle" x="902.5" y="-832" font-family="sans" font-size="10.00" fill="#000000">read_type_map: collapsed</text>
<text text-anchor="middle" x="902.5" y="-821" font-family="sans" font-size="10.00" fill="#000000">ref: refseq_mitochondrion</text>
<text text-anchor="middle" x="902.5" y="-810" font-family="sans" font-size="10.00" fill="#000000">sample: HD827sonic_1</text>
<text text-anchor="middle" x="902.5" y="-799" font-family="sans" font-size="10.00" fill="#000000">tot_shards: 1</text>
</g>
<!-- 3&#45;&gt;1 -->
<g id="edge12" class="edge">
<title>3&#45;&gt;1</title>
<path fill="none" stroke="#c0c0c0" stroke-width="2" d="M836.9927,-808.0137C813.2685,-795.4603 788.2253,-778.2554 771.5,-756 731.734,-703.0859 742.0152,-677.6409 733.5,-612 722.9573,-530.7295 737.7621,-505.7486 773.5,-432 799.4345,-378.4818 831.1678,-379.5133 852.5,-324 879.498,-253.7426 880.0617,-163.3627 878.2599,-118.2492"/>
<polygon fill="#c0c0c0" stroke="#c0c0c0" stroke-width="2" points="881.7462,-117.8741 877.7794,-108.0499 874.7539,-118.2036 881.7462,-117.8741"/>
</g>
<!-- 15 -->
<g id="node16" class="node">
<title>15</title>
<path fill="none" stroke="#5682d8" stroke-width="2" d="M1055,-612C1055,-612 926,-612 926,-612 920,-612 914,-606 914,-600 914,-600 914,-588 914,-588 914,-582 920,-576 926,-576 926,-576 1055,-576 1055,-576 1061,-576 1067,-582 1067,-588 1067,-588 1067,-600 1067,-600 1067,-606 1061,-612 1055,-612"/>
<text text-anchor="middle" x="990.5" y="-591.5" font-family="sans" font-size="10.00" fill="#000000">shard_saturated_reads_remove</text>
</g>
<!-- 3&#45;&gt;15 -->
<g id="edge35" class="edge">
<title>3&#45;&gt;15</title>
<path fill="none" stroke="#c0c0c0" stroke-width="2" d="M897.7056,-791.7097C895.284,-751.9853 896.9745,-692.4554 921.5,-648 927.9995,-636.2188 938.2451,-626.1322 948.8722,-617.9756"/>
<polygon fill="#c0c0c0" stroke="#c0c0c0" stroke-width="2" points="950.942,-620.7982 957.0173,-612.1183 946.8551,-615.115 950.942,-620.7982"/>
</g>
<!-- 18 -->
<g id="node19" class="node">
<title>18</title>
<path fill="none" stroke="#56c9d8" stroke-width="2" d="M1012,-756C1012,-756 943,-756 943,-756 937,-756 931,-750 931,-744 931,-744 931,-732 931,-732 931,-726 937,-720 943,-720 943,-720 1012,-720 1012,-720 1018,-720 1024,-726 1024,-732 1024,-732 1024,-744 1024,-744 1024,-750 1018,-756 1012,-756"/>
<text text-anchor="middle" x="977.5" y="-735.5" font-family="sans" font-size="10.00" fill="#000000">shard_count_alns</text>
</g>
<!-- 3&#45;&gt;18 -->
<g id="edge41" class="edge">
<title>3&#45;&gt;18</title>
<path fill="none" stroke="#c0c0c0" stroke-width="2" d="M935.6144,-791.8928C942.9133,-782.5016 950.4368,-772.8213 957.0586,-764.3013"/>
<polygon fill="#c0c0c0" stroke="#c0c0c0" stroke-width="2" points="959.9649,-766.2653 963.338,-756.2218 954.4379,-761.9697 959.9649,-766.2653"/>
</g>
<!-- 4 -->
<g id="node5" class="node">
<title>4</title>
<path fill="none" stroke="#9fd856" stroke-width="2" d="M468,-877C468,-877 361,-877 361,-877 355,-877 349,-871 349,-865 349,-865 349,-804 349,-804 349,-798 355,-792 361,-792 361,-792 468,-792 468,-792 474,-792 480,-798 480,-804 480,-804 480,-865 480,-865 480,-871 474,-877 468,-877"/>
<text text-anchor="middle" x="414.5" y="-865" font-family="sans" font-size="10.00" fill="#000000">bowtie2</text>
<text text-anchor="middle" x="414.5" y="-854" font-family="sans" font-size="10.00" fill="#000000">library: lib1</text>
<text text-anchor="middle" x="414.5" y="-843" font-family="sans" font-size="10.00" fill="#000000">n_shard: 1</text>
<text text-anchor="middle" x="414.5" y="-832" font-family="sans" font-size="10.00" fill="#000000">read_type_map: collapsed</text>
<text text-anchor="middle" x="414.5" y="-821" font-family="sans" font-size="10.00" fill="#000000">ref: wgs_eukaryota</text>
<text text-anchor="middle" x="414.5" y="-810" font-family="sans" font-size="10.00" fill="#000000">sample: HD827sonic_2</text>
<text text-anchor="middle" x="414.5" y="-799" font-family="sans" font-size="10.00" fill="#000000">tot_shards: 2</text>
</g>
<!-- 4&#45;&gt;1 -->
<g id="edge13" class="edge">
<title>4&#45;&gt;1</title>
<path fill="none" stroke="#c0c0c0" stroke-width="2" d="M479.0318,-791.9135C532.753,-754.0638 600.5,-699.6594 600.5,-666 600.5,-666 600.5,-666 600.5,-234 600.5,-193.1184 590.5786,-172.8939 619.5,-144 649.9767,-113.5523 775.5074,-98.6308 839.1461,-92.9048"/>
<polygon fill="#c0c0c0" stroke="#c0c0c0" stroke-width="2" points="839.5128,-96.3863 849.1719,-92.0329 838.9062,-89.4126 839.5128,-96.3863"/>
</g>
<!-- 32 -->
<g id="node33" class="node">
<title>32</title>
<path fill="none" stroke="#56c9d8" stroke-width="2" d="M309,-756C309,-756 240,-756 240,-756 234,-756 228,-750 228,-744 228,-744 228,-732 228,-732 228,-726 234,-720 240,-720 240,-720 309,-720 309,-720 315,-720 321,-726 321,-732 321,-732 321,-744 321,-744 321,-750 315,-756 309,-756"/>
<text text-anchor="middle" x="274.5" y="-735.5" font-family="sans" font-size="10.00" fill="#000000">shard_count_alns</text>
</g>
<!-- 4&#45;&gt;32 -->
<g id="edge62" class="edge">
<title>4&#45;&gt;32</title>
<path fill="none" stroke="#c0c0c0" stroke-width="2" d="M352.6864,-791.8928C337.7846,-781.6212 322.381,-771.0037 309.227,-761.9369"/>
<polygon fill="#c0c0c0" stroke="#c0c0c0" stroke-width="2" points="311.1557,-759.0154 300.9358,-756.2218 307.183,-764.7788 311.1557,-759.0154"/>
</g>
<!-- 37 -->
<g id="node38" class="node">
<title>37</title>
<path fill="none" stroke="#5682d8" stroke-width="2" d="M351,-612C351,-612 222,-612 222,-612 216,-612 210,-606 210,-600 210,-600 210,-588 210,-588 210,-582 216,-576 222,-576 222,-576 351,-576 351,-576 357,-576 363,-582 363,-588 363,-588 363,-600 363,-600 363,-606 357,-612 351,-612"/>
<text text-anchor="middle" x="286.5" y="-591.5" font-family="sans" font-size="10.00" fill="#000000">shard_saturated_reads_remove</text>
</g>
<!-- 4&#45;&gt;37 -->
<g id="edge67" class="edge">
<title>4&#45;&gt;37</title>
<path fill="none" stroke="#c0c0c0" stroke-width="2" d="M437.0098,-791.9966C445.6334,-769.7843 451.13,-742.5955 440.5,-720 418.5383,-673.3176 369.7902,-638.2208 332.9829,-617.0794"/>
<polygon fill="#c0c0c0" stroke="#c0c0c0" stroke-width="2" points="334.3428,-613.8299 323.906,-612.0065 330.9278,-619.9404 334.3428,-613.8299"/>
</g>
<!-- 5 -->
<g id="node6" class="node">
<title>5</title>
<path fill="none" stroke="#9fd856" stroke-width="2" d="M217,-877C217,-877 110,-877 110,-877 104,-877 98,-871 98,-865 98,-865 98,-804 98,-804 98,-798 104,-792 110,-792 110,-792 217,-792 217,-792 223,-792 229,-798 229,-804 229,-804 229,-865 229,-865 229,-871 223,-877 217,-877"/>
<text text-anchor="middle" x="163.5" y="-865" font-family="sans" font-size="10.00" fill="#000000">bowtie2</text>
<text text-anchor="middle" x="163.5" y="-854" font-family="sans" font-size="10.00" fill="#000000">library: lib1</text>
<text text-anchor="middle" x="163.5" y="-843" font-family="sans" font-size="10.00" fill="#000000">n_shard: 1</text>
<text text-anchor="middle" x="163.5" y="-832" font-family="sans" font-size="10.00" fill="#000000">read_type_map: collapsed</text>
<text text-anchor="middle" x="163.5" y="-821" font-family="sans" font-size="10.00" fill="#000000">ref: refseq_mitochondrion</text>
<text text-anchor="middle" x="163.5" y="-810" font-family="sans" font-size="10.00" fill="#000000">sample: HD827sonic_2</text>
<text text-anchor="middle" x="163.5" y="-799" font-family="sans" font-size="10.00" fill="#000000">tot_shards: 1</text>
</g>
<!-- 5&#45;&gt;1 -->
<g id="edge14" class="edge">
<title>5&#45;&gt;1</title>
<path fill="none" stroke="#c0c0c0" stroke-width="2" d="M229.0634,-818.3637C305.3203,-799.216 423.051,-768.3343 440.5,-756 536.2742,-688.2995 562.5,-639.2862 562.5,-522 562.5,-522 562.5,-522 562.5,-234 562.5,-191.2408 563.7975,-171.548 596.5,-144 632.7998,-113.4216 771.8003,-98.3557 839.2935,-92.719"/>
<polygon fill="#c0c0c0" stroke="#c0c0c0" stroke-width="2" points="839.8,-96.1896 849.4851,-91.8944 839.2354,-89.2124 839.8,-96.1896"/>
</g>
<!-- 30 -->
<g id="node31" class="node">
<title>30</title>
<path fill="none" stroke="#5682d8" stroke-width="2" d="M141,-612C141,-612 12,-612 12,-612 6,-612 0,-606 0,-600 0,-600 0,-588 0,-588 0,-582 6,-576 12,-576 12,-576 141,-576 141,-576 147,-576 153,-582 153,-588 153,-588 153,-600 153,-600 153,-606 147,-612 141,-612"/>
<text text-anchor="middle" x="76.5" y="-591.5" font-family="sans" font-size="10.00" fill="#000000">shard_saturated_reads_remove</text>
</g>
<!-- 5&#45;&gt;30 -->
<g id="edge57" class="edge">
<title>5&#45;&gt;30</title>
<path fill="none" stroke="#c0c0c0" stroke-width="2" d="M127.9597,-791.6657C120.2137,-780.5959 112.7691,-768.3126 107.5,-756 88.5723,-711.7703 81.1365,-655.8207 78.2611,-622.5842"/>
<polygon fill="#c0c0c0" stroke="#c0c0c0" stroke-width="2" points="81.7206,-621.9295 77.4507,-612.2332 74.742,-622.4759 81.7206,-621.9295"/>
</g>
<!-- 33 -->
<g id="node34" class="node">
<title>33</title>
<path fill="none" stroke="#56c9d8" stroke-width="2" d="M198,-756C198,-756 129,-756 129,-756 123,-756 117,-750 117,-744 117,-744 117,-732 117,-732 117,-726 123,-720 129,-720 129,-720 198,-720 198,-720 204,-720 210,-726 210,-732 210,-732 210,-744 210,-744 210,-750 204,-756 198,-756"/>
<text text-anchor="middle" x="163.5" y="-735.5" font-family="sans" font-size="10.00" fill="#000000">shard_count_alns</text>
</g>
<!-- 5&#45;&gt;33 -->
<g id="edge63" class="edge">
<title>5&#45;&gt;33</title>
<path fill="none" stroke="#c0c0c0" stroke-width="2" d="M163.5,-791.8928C163.5,-783.2842 163.5,-774.4327 163.5,-766.4546"/>
<polygon fill="#c0c0c0" stroke="#c0c0c0" stroke-width="2" points="167.0001,-766.2218 163.5,-756.2218 160.0001,-766.2218 167.0001,-766.2218"/>
</g>
<!-- 6 -->
<g id="node7" class="node">
<title>6</title>
<path fill="none" stroke="#9fd856" stroke-width="2" d="M1434,-877C1434,-877 1327,-877 1327,-877 1321,-877 1315,-871 1315,-865 1315,-865 1315,-804 1315,-804 1315,-798 1321,-792 1327,-792 1327,-792 1434,-792 1434,-792 1440,-792 1446,-798 1446,-804 1446,-804 1446,-865 1446,-865 1446,-871 1440,-877 1434,-877"/>
<text text-anchor="middle" x="1380.5" y="-865" font-family="sans" font-size="10.00" fill="#000000">bowtie2</text>
<text text-anchor="middle" x="1380.5" y="-854" font-family="sans" font-size="10.00" fill="#000000">library: lib2</text>
<text text-anchor="middle" x="1380.5" y="-843" font-family="sans" font-size="10.00" fill="#000000">n_shard: 1</text>
<text text-anchor="middle" x="1380.5" y="-832" font-family="sans" font-size="10.00" fill="#000000">read_type_map: collapsed</text>
<text text-anchor="middle" x="1380.5" y="-821" font-family="sans" font-size="10.00" fill="#000000">ref: wgs_eukaryota</text>
<text text-anchor="middle" x="1380.5" y="-810" font-family="sans" font-size="10.00" fill="#000000">sample: HD827sonic_2</text>
<text text-anchor="middle" x="1380.5" y="-799" font-family="sans" font-size="10.00" fill="#000000">tot_shards: 2</text>
</g>
<!-- 6&#45;&gt;1 -->
<g id="edge15" class="edge">
<title>6&#45;&gt;1</title>
<path fill="none" stroke="#c0c0c0" stroke-width="2" d="M1365.3722,-791.8083C1354.7752,-758.0983 1342.5,-709.6328 1342.5,-666 1342.5,-666 1342.5,-666 1342.5,-450 1342.5,-279.8666 1260.799,-227.3834 1112.5,-144 1048.6723,-108.1119 962.4205,-96.0611 913.8257,-92.0242"/>
<polygon fill="#c0c0c0" stroke="#c0c0c0" stroke-width="2" points="913.9973,-88.5272 903.7607,-91.2587 913.4664,-95.507 913.9973,-88.5272"/>
</g>
<!-- 47 -->
<g id="node48" class="node">
<title>47</title>
<path fill="none" stroke="#56c9d8" stroke-width="2" d="M1528,-756C1528,-756 1459,-756 1459,-756 1453,-756 1447,-750 1447,-744 1447,-744 1447,-732 1447,-732 1447,-726 1453,-720 1459,-720 1459,-720 1528,-720 1528,-720 1534,-720 1540,-726 1540,-732 1540,-732 1540,-744 1540,-744 1540,-750 1534,-756 1528,-756"/>
<text text-anchor="middle" x="1493.5" y="-735.5" font-family="sans" font-size="10.00" fill="#000000">shard_count_alns</text>
</g>
<!-- 6&#45;&gt;47 -->
<g id="edge84" class="edge">
<title>6&#45;&gt;47</title>
<path fill="none" stroke="#c0c0c0" stroke-width="2" d="M1430.3924,-791.8928C1442.0766,-781.9147 1454.1431,-771.6101 1464.5559,-762.7178"/>
<polygon fill="#c0c0c0" stroke="#c0c0c0" stroke-width="2" points="1466.831,-765.3774 1472.1626,-756.2218 1462.2852,-760.0543 1466.831,-765.3774"/>
</g>
<!-- 52 -->
<g id="node53" class="node">
<title>52</title>
<path fill="none" stroke="#5682d8" stroke-width="2" d="M1588,-612C1588,-612 1459,-612 1459,-612 1453,-612 1447,-606 1447,-600 1447,-600 1447,-588 1447,-588 1447,-582 1453,-576 1459,-576 1459,-576 1588,-576 1588,-576 1594,-576 1600,-582 1600,-588 1600,-588 1600,-600 1600,-600 1600,-606 1594,-612 1588,-612"/>
<text text-anchor="middle" x="1523.5" y="-591.5" font-family="sans" font-size="10.00" fill="#000000">shard_saturated_reads_remove</text>
</g>
<!-- 6&#45;&gt;52 -->
<g id="edge89" class="edge">
<title>6&#45;&gt;52</title>
<path fill="none" stroke="#c0c0c0" stroke-width="2" d="M1399.9958,-791.8943C1410.4303,-770.0241 1423.9076,-743.1769 1437.5,-720 1458.354,-684.441 1485.6407,-645.5439 1503.829,-620.5129"/>
<polygon fill="#c0c0c0" stroke="#c0c0c0" stroke-width="2" points="1506.7819,-622.4042 1509.8575,-612.2655 1501.1306,-618.2733 1506.7819,-622.4042"/>
</g>
<!-- 7 -->
<g id="node8" class="node">
<title>7</title>
<path fill="none" stroke="#9fd856" stroke-width="2" d="M1846,-877C1846,-877 1739,-877 1739,-877 1733,-877 1727,-871 1727,-865 1727,-865 1727,-804 1727,-804 1727,-798 1733,-792 1739,-792 1739,-792 1846,-792 1846,-792 1852,-792 1858,-798 1858,-804 1858,-804 1858,-865 1858,-865 1858,-871 1852,-877 1846,-877"/>
<text text-anchor="middle" x="1792.5" y="-865" font-family="sans" font-size="10.00" fill="#000000">bowtie2</text>
<text text-anchor="middle" x="1792.5" y="-854" font-family="sans" font-size="10.00" fill="#000000">library: lib2</text>
<text text-anchor="middle" x="1792.5" y="-843" font-family="sans" font-size="10.00" fill="#000000">n_shard: 1</text>
<text text-anchor="middle" x="1792.5" y="-832" font-family="sans" font-size="10.00" fill="#000000">read_type_map: collapsed</text>
<text text-anchor="middle" x="1792.5" y="-821" font-family="sans" font-size="10.00" fill="#000000">ref: refseq_mitochondrion</text>
<text text-anchor="middle" x="1792.5" y="-810" font-family="sans" font-size="10.00" fill="#000000">sample: HD827sonic_2</text>
<text text-anchor="middle" x="1792.5" y="-799" font-family="sans" font-size="10.00" fill="#000000">tot_shards: 1</text>
</g>
<!-- 7&#45;&gt;1 -->
<g id="edge16" class="edge">
<title>7&#45;&gt;1</title>
<path fill="none" stroke="#c0c0c0" stroke-width="2" d="M1726.9878,-807.61C1695.4791,-793.7059 1657.6596,-775.5637 1625.5,-756 1506.8733,-683.8356 1418.5,-660.8524 1418.5,-522 1418.5,-522 1418.5,-522 1418.5,-450 1418.5,-285.0542 1362.3828,-203.3903 1208.5,-144 1106.7869,-104.7443 976.8506,-94.0255 913.9552,-91.099"/>
<polygon fill="#c0c0c0" stroke="#c0c0c0" stroke-width="2" points="913.8704,-87.5923 903.731,-90.6653 913.5737,-94.586 913.8704,-87.5923"/>
</g>
<!-- 45 -->
<g id="node46" class="node">
<title>45</title>
<path fill="none" stroke="#5682d8" stroke-width="2" d="M1969,-612C1969,-612 1840,-612 1840,-612 1834,-612 1828,-606 1828,-600 1828,-600 1828,-588 1828,-588 1828,-582 1834,-576 1840,-576 1840,-576 1969,-576 1969,-576 1975,-576 1981,-582 1981,-588 1981,-588 1981,-600 1981,-600 1981,-606 1975,-612 1969,-612"/>
<text text-anchor="middle" x="1904.5" y="-591.5" font-family="sans" font-size="10.00" fill="#000000">shard_saturated_reads_remove</text>
</g>
<!-- 7&#45;&gt;45 -->
<g id="edge79" class="edge">
<title>7&#45;&gt;45</title>
<path fill="none" stroke="#c0c0c0" stroke-width="2" d="M1826.2221,-791.911C1834.1996,-780.6385 1842.2068,-768.2 1848.5,-756 1871.5194,-711.3742 1888.5227,-655.195 1897.4398,-622.081"/>
<polygon fill="#c0c0c0" stroke="#c0c0c0" stroke-width="2" points="1900.884,-622.7458 1900.0482,-612.184 1894.1151,-620.9618 1900.884,-622.7458"/>
</g>
<!-- 48 -->
<g id="node49" class="node">
<title>48</title>
<path fill="none" stroke="#56c9d8" stroke-width="2" d="M1827,-756C1827,-756 1758,-756 1758,-756 1752,-756 1746,-750 1746,-744 1746,-744 1746,-732 1746,-732 1746,-726 1752,-720 1758,-720 1758,-720 1827,-720 1827,-720 1833,-720 1839,-726 1839,-732 1839,-732 1839,-744 1839,-744 1839,-750 1833,-756 1827,-756"/>
<text text-anchor="middle" x="1792.5" y="-735.5" font-family="sans" font-size="10.00" fill="#000000">shard_count_alns</text>
</g>
<!-- 7&#45;&gt;48 -->
<g id="edge85" class="edge">
<title>7&#45;&gt;48</title>
<path fill="none" stroke="#c0c0c0" stroke-width="2" d="M1792.5,-791.8928C1792.5,-783.2842 1792.5,-774.4327 1792.5,-766.4546"/>
<polygon fill="#c0c0c0" stroke="#c0c0c0" stroke-width="2" points="1796.0001,-766.2218 1792.5,-756.2218 1789.0001,-766.2218 1796.0001,-766.2218"/>
</g>
<!-- 8 -->
<g id="node9" class="node">
<title>8</title>
<path fill="none" stroke="#9fd856" stroke-width="2" d="M1622,-877C1622,-877 1515,-877 1515,-877 1509,-877 1503,-871 1503,-865 1503,-865 1503,-804 1503,-804 1503,-798 1509,-792 1515,-792 1515,-792 1622,-792 1622,-792 1628,-792 1634,-798 1634,-804 1634,-804 1634,-865 1634,-865 1634,-871 1628,-877 1622,-877"/>
<text text-anchor="middle" x="1568.5" y="-865" font-family="sans" font-size="10.00" fill="#000000">bowtie2</text>
<text text-anchor="middle" x="1568.5" y="-854" font-family="sans" font-size="10.00" fill="#000000">library: lib2</text>
<text text-anchor="middle" x="1568.5" y="-843" font-family="sans" font-size="10.00" fill="#000000">n_shard: 2</text>
<text text-anchor="middle" x="1568.5" y="-832" font-family="sans" font-size="10.00" fill="#000000">read_type_map: collapsed</text>
<text text-anchor="middle" x="1568.5" y="-821" font-family="sans" font-size="10.00" fill="#000000">ref: wgs_eukaryota</text>
<text text-anchor="middle" x="1568.5" y="-810" font-family="sans" font-size="10.00" fill="#000000">sample: HD827sonic_2</text>
<text text-anchor="middle" x="1568.5" y="-799" font-family="sans" font-size="10.00" fill="#000000">tot_shards: 2</text>
</g>
<!-- 8&#45;&gt;1 -->
<g id="edge17" class="edge">
<title>8&#45;&gt;1</title>
<path fill="none" stroke="#c0c0c0" stroke-width="2" d="M1502.8987,-806.7494C1479.5882,-794.158 1454.8538,-777.2578 1437.5,-756 1389.2319,-696.8733 1380.5,-670.3268 1380.5,-594 1380.5,-594 1380.5,-594 1380.5,-450 1380.5,-281.7175 1313.0769,-208.1471 1157.5,-144 1074.6599,-109.8435 969.0548,-97.0115 913.8904,-92.4109"/>
<polygon fill="#c0c0c0" stroke="#c0c0c0" stroke-width="2" points="914.117,-88.918 903.8727,-91.6204 913.5663,-95.8963 914.117,-88.918"/>
</g>
<!-- 49 -->
<g id="node50" class="node">
<title>49</title>
<path fill="none" stroke="#56c9d8" stroke-width="2" d="M1716,-756C1716,-756 1647,-756 1647,-756 1641,-756 1635,-750 1635,-744 1635,-744 1635,-732 1635,-732 1635,-726 1641,-720 1647,-720 1647,-720 1716,-720 1716,-720 1722,-720 1728,-726 1728,-732 1728,-732 1728,-744 1728,-744 1728,-750 1722,-756 1716,-756"/>
<text text-anchor="middle" x="1681.5" y="-735.5" font-family="sans" font-size="10.00" fill="#000000">shard_count_alns</text>
</g>
<!-- 8&#45;&gt;49 -->
<g id="edge86" class="edge">
<title>8&#45;&gt;49</title>
<path fill="none" stroke="#c0c0c0" stroke-width="2" d="M1618.3924,-791.8928C1630.0766,-781.9147 1642.1431,-771.6101 1652.5559,-762.7178"/>
<polygon fill="#c0c0c0" stroke="#c0c0c0" stroke-width="2" points="1654.831,-765.3774 1660.1626,-756.2218 1650.2852,-760.0543 1654.831,-765.3774"/>
</g>
<!-- 55 -->
<g id="node56" class="node">
<title>55</title>
<path fill="none" stroke="#5682d8" stroke-width="2" d="M1759,-612C1759,-612 1630,-612 1630,-612 1624,-612 1618,-606 1618,-600 1618,-600 1618,-588 1618,-588 1618,-582 1624,-576 1630,-576 1630,-576 1759,-576 1759,-576 1765,-576 1771,-582 1771,-588 1771,-588 1771,-600 1771,-600 1771,-606 1765,-612 1759,-612"/>
<text text-anchor="middle" x="1694.5" y="-591.5" font-family="sans" font-size="10.00" fill="#000000">shard_saturated_reads_remove</text>
</g>
<!-- 8&#45;&gt;55 -->
<g id="edge93" class="edge">
<title>8&#45;&gt;55</title>
<path fill="none" stroke="#c0c0c0" stroke-width="2" d="M1574.0466,-791.6755C1580.884,-751.6543 1595.5083,-691.681 1625.5,-648 1633.3218,-636.608 1644.2812,-626.5012 1655.1663,-618.202"/>
<polygon fill="#c0c0c0" stroke="#c0c0c0" stroke-width="2" points="1657.3806,-620.9197 1663.4226,-612.2165 1653.272,-615.2523 1657.3806,-620.9197"/>
</g>
<!-- 9 -->
<g id="node10" class="node">
<title>9</title>
<path fill="none" stroke="#9fd856" stroke-width="2" d="M1217,-877C1217,-877 1110,-877 1110,-877 1104,-877 1098,-871 1098,-865 1098,-865 1098,-804 1098,-804 1098,-798 1104,-792 1110,-792 1110,-792 1217,-792 1217,-792 1223,-792 1229,-798 1229,-804 1229,-804 1229,-865 1229,-865 1229,-871 1223,-877 1217,-877"/>
<text text-anchor="middle" x="1163.5" y="-865" font-family="sans" font-size="10.00" fill="#000000">bowtie2</text>
<text text-anchor="middle" x="1163.5" y="-854" font-family="sans" font-size="10.00" fill="#000000">library: lib1</text>
<text text-anchor="middle" x="1163.5" y="-843" font-family="sans" font-size="10.00" fill="#000000">n_shard: 2</text>
<text text-anchor="middle" x="1163.5" y="-832" font-family="sans" font-size="10.00" fill="#000000">read_type_map: collapsed</text>
<text text-anchor="middle" x="1163.5" y="-821" font-family="sans" font-size="10.00" fill="#000000">ref: wgs_eukaryota</text>
<text text-anchor="middle" x="1163.5" y="-810" font-family="sans" font-size="10.00" fill="#000000">sample: HD827sonic_1</text>
<text text-anchor="middle" x="1163.5" y="-799" font-family="sans" font-size="10.00" fill="#000000">tot_shards: 2</text>
</g>
<!-- 9&#45;&gt;1 -->
<g id="edge18" class="edge">
<title>9&#45;&gt;1</title>
<path fill="none" stroke="#c0c0c0" stroke-width="2" d="M1184.6282,-791.8973C1205.1082,-748.0439 1234.7494,-677.1203 1246.5,-612 1265.0603,-509.1411 1188.5998,-494.4502 1153.5,-396 1139.7712,-357.4925 1134.5,-346.8816 1134.5,-306 1134.5,-306 1134.5,-306 1134.5,-234 1134.5,-134.0166 984.9363,-102.8071 913.5595,-93.6058"/>
<polygon fill="#c0c0c0" stroke="#c0c0c0" stroke-width="2" points="913.9712,-90.1302 903.6229,-92.4023 913.1295,-97.0794 913.9712,-90.1302"/>
</g>
<!-- 19 -->
<g id="node20" class="node">
<title>19</title>
<path fill="none" stroke="#56c9d8" stroke-width="2" d="M1123,-756C1123,-756 1054,-756 1054,-756 1048,-756 1042,-750 1042,-744 1042,-744 1042,-732 1042,-732 1042,-726 1048,-720 1054,-720 1054,-720 1123,-720 1123,-720 1129,-720 1135,-726 1135,-732 1135,-732 1135,-744 1135,-744 1135,-750 1129,-756 1123,-756"/>
<text text-anchor="middle" x="1088.5" y="-735.5" font-family="sans" font-size="10.00" fill="#000000">shard_count_alns</text>
</g>
<!-- 9&#45;&gt;19 -->
<g id="edge42" class="edge">
<title>9&#45;&gt;19</title>
<path fill="none" stroke="#c0c0c0" stroke-width="2" d="M1130.3856,-791.8928C1123.0867,-782.5016 1115.5632,-772.8213 1108.9414,-764.3013"/>
<polygon fill="#c0c0c0" stroke="#c0c0c0" stroke-width="2" points="1111.5621,-761.9697 1102.662,-756.2218 1106.0351,-766.2653 1111.5621,-761.9697"/>
</g>
<!-- 25 -->
<g id="node26" class="node">
<title>25</title>
<path fill="none" stroke="#5682d8" stroke-width="2" d="M1226,-612C1226,-612 1097,-612 1097,-612 1091,-612 1085,-606 1085,-600 1085,-600 1085,-588 1085,-588 1085,-582 1091,-576 1097,-576 1097,-576 1226,-576 1226,-576 1232,-576 1238,-582 1238,-588 1238,-588 1238,-600 1238,-600 1238,-606 1232,-612 1226,-612"/>
<text text-anchor="middle" x="1161.5" y="-591.5" font-family="sans" font-size="10.00" fill="#000000">shard_saturated_reads_remove</text>
</g>
<!-- 9&#45;&gt;25 -->
<g id="edge49" class="edge">
<title>9&#45;&gt;25</title>
<path fill="none" stroke="#c0c0c0" stroke-width="2" d="M1163.1447,-791.7805C1162.7379,-742.8569 1162.0828,-664.0855 1161.7349,-622.2427"/>
<polygon fill="#c0c0c0" stroke="#c0c0c0" stroke-width="2" points="1165.2345,-622.1696 1161.6513,-612.1991 1158.2347,-622.2279 1165.2345,-622.1696"/>
</g>
<!-- 10 -->
<g id="node11" class="node">
<title>10</title>
<path fill="none" stroke="#9fd856" stroke-width="2" d="M768,-877C768,-877 661,-877 661,-877 655,-877 649,-871 649,-865 649,-865 649,-804 649,-804 649,-798 655,-792 661,-792 661,-792 768,-792 768,-792 774,-792 780,-798 780,-804 780,-804 780,-865 780,-865 780,-871 774,-877 768,-877"/>
<text text-anchor="middle" x="714.5" y="-865" font-family="sans" font-size="10.00" fill="#000000">bowtie2</text>
<text text-anchor="middle" x="714.5" y="-854" font-family="sans" font-size="10.00" fill="#000000">library: lib1</text>
<text text-anchor="middle" x="714.5" y="-843" font-family="sans" font-size="10.00" fill="#000000">n_shard: 1</text>
<text text-anchor="middle" x="714.5" y="-832" font-family="sans" font-size="10.00" fill="#000000">read_type_map: collapsed</text>
<text text-anchor="middle" x="714.5" y="-821" font-family="sans" font-size="10.00" fill="#000000">ref: wgs_eukaryota</text>
<text text-anchor="middle" x="714.5" y="-810" font-family="sans" font-size="10.00" fill="#000000">sample: HD827sonic_1</text>
<text text-anchor="middle" x="714.5" y="-799" font-family="sans" font-size="10.00" fill="#000000">tot_shards: 2</text>
</g>
<!-- 10&#45;&gt;1 -->
<g id="edge19" class="edge">
<title>10&#45;&gt;1</title>
<path fill="none" stroke="#c0c0c0" stroke-width="2" d="M712.5379,-791.8184C710.4707,-728.4366 709.7333,-605.9481 728.5,-504 734.6066,-470.8264 738.7014,-462.7795 752.5,-432 758.1603,-419.3739 809.2385,-336.7974 814.5,-324 843.9417,-252.39 863.1175,-162.6605 871.5554,-117.9775"/>
<polygon fill="#c0c0c0" stroke="#c0c0c0" stroke-width="2" points="874.9992,-118.602 873.3775,-108.1321 868.1161,-117.3281 874.9992,-118.602"/>
</g>
<!-- 17 -->
<g id="node18" class="node">
<title>17</title>
<path fill="none" stroke="#56c9d8" stroke-width="2" d="M862,-756C862,-756 793,-756 793,-756 787,-756 781,-750 781,-744 781,-744 781,-732 781,-732 781,-726 787,-720 793,-720 793,-720 862,-720 862,-720 868,-720 874,-726 874,-732 874,-732 874,-744 874,-744 874,-750 868,-756 862,-756"/>
<text text-anchor="middle" x="827.5" y="-735.5" font-family="sans" font-size="10.00" fill="#000000">shard_count_alns</text>
</g>
<!-- 10&#45;&gt;17 -->
<g id="edge40" class="edge">
<title>10&#45;&gt;17</title>
<path fill="none" stroke="#c0c0c0" stroke-width="2" d="M764.3924,-791.8928C776.0766,-781.9147 788.1431,-771.6101 798.5559,-762.7178"/>
<polygon fill="#c0c0c0" stroke="#c0c0c0" stroke-width="2" points="800.831,-765.3774 806.1626,-756.2218 796.2852,-760.0543 800.831,-765.3774"/>
</g>
<!-- 22 -->
<g id="node23" class="node">
<title>22</title>
<path fill="none" stroke="#5682d8" stroke-width="2" d="M884,-612C884,-612 755,-612 755,-612 749,-612 743,-606 743,-600 743,-600 743,-588 743,-588 743,-582 749,-576 755,-576 755,-576 884,-576 884,-576 890,-576 896,-582 896,-588 896,-588 896,-600 896,-600 896,-606 890,-612 884,-612"/>
<text text-anchor="middle" x="819.5" y="-591.5" font-family="sans" font-size="10.00" fill="#000000">shard_saturated_reads_remove</text>
</g>
<!-- 10&#45;&gt;22 -->
<g id="edge45" class="edge">
<title>10&#45;&gt;22</title>
<path fill="none" stroke="#c0c0c0" stroke-width="2" d="M733.1509,-791.7805C754.6465,-742.5453 789.34,-663.0809 807.5166,-621.4476"/>
<polygon fill="#c0c0c0" stroke="#c0c0c0" stroke-width="2" points="810.7608,-622.7642 811.5545,-612.1991 804.3456,-619.9633 810.7608,-622.7642"/>
</g>
<!-- 11 -->
<g id="node12" class="node">
<title>11</title>
<path fill="none" stroke="#ced856" stroke-width="2" d="M965.5,-180C965.5,-180 925.5,-180 925.5,-180 919.5,-180 913.5,-174 913.5,-168 913.5,-168 913.5,-156 913.5,-156 913.5,-150 919.5,-144 925.5,-144 925.5,-144 965.5,-144 965.5,-144 971.5,-144 977.5,-150 977.5,-156 977.5,-156 977.5,-168 977.5,-168 977.5,-174 971.5,-180 965.5,-180"/>
<text text-anchor="middle" x="945.5" y="-159.5" font-family="sans" font-size="10.00" fill="#000000">align_stats</text>
</g>
<!-- 11&#45;&gt;1 -->
<g id="edge20" class="edge">
<title>11&#45;&gt;1</title>
<path fill="none" stroke="#c0c0c0" stroke-width="2" d="M928.0884,-143.8314C919.979,-135.3694 910.1844,-125.1489 901.318,-115.8971"/>
<polygon fill="#c0c0c0" stroke="#c0c0c0" stroke-width="2" points="903.5921,-113.2115 894.146,-108.4133 898.5382,-118.0549 903.5921,-113.2115"/>
</g>
<!-- 12 -->
<g id="node13" class="node">
<title>12</title>
<path fill="none" stroke="#d88556" stroke-width="2" d="M973,-396C973,-396 928,-396 928,-396 922,-396 916,-390 916,-384 916,-384 916,-372 916,-372 916,-366 922,-360 928,-360 928,-360 973,-360 973,-360 979,-360 985,-366 985,-372 985,-372 985,-384 985,-384 985,-390 979,-396 973,-396"/>
<text text-anchor="middle" x="950.5" y="-375.5" font-family="sans" font-size="10.00" fill="#000000">align_merge</text>
</g>
<!-- 12&#45;&gt;11 -->
<g id="edge29" class="edge">
<title>12&#45;&gt;11</title>
<path fill="none" stroke="#c0c0c0" stroke-width="2" d="M950.0823,-359.9555C949.2128,-322.3938 947.2026,-235.5541 946.1576,-190.4103"/>
<polygon fill="#c0c0c0" stroke="#c0c0c0" stroke-width="2" points="949.6506,-190.0614 945.92,-180.1451 942.6525,-190.2234 949.6506,-190.0614"/>
</g>
<!-- 57 -->
<g id="node58" class="node">
<title>57</title>
<path fill="none" stroke="#56d89a" stroke-width="2" d="M760,-324C760,-324 709,-324 709,-324 703,-324 697,-318 697,-312 697,-312 697,-300 697,-300 697,-294 703,-288 709,-288 709,-288 760,-288 760,-288 766,-288 772,-294 772,-300 772,-300 772,-312 772,-312 772,-318 766,-324 760,-324"/>
<text text-anchor="middle" x="734.5" y="-303.5" font-family="sans" font-size="10.00" fill="#000000">metadmg_lca</text>
</g>
<!-- 12&#45;&gt;57 -->
<g id="edge96" class="edge">
<title>12&#45;&gt;57</title>
<path fill="none" stroke="#c0c0c0" stroke-width="2" d="M915.7959,-366.432C879.4396,-354.3132 822.1016,-335.2005 781.6584,-321.7195"/>
<polygon fill="#c0c0c0" stroke="#c0c0c0" stroke-width="2" points="782.6139,-318.3487 772.0202,-318.5067 780.4002,-324.9895 782.6139,-318.3487"/>
</g>
<!-- 68 -->
<g id="node69" class="node">
<title>68</title>
<path fill="none" stroke="#56d86b" stroke-width="2" d="M1368,-108C1368,-108 1295,-108 1295,-108 1289,-108 1283,-102 1283,-96 1283,-96 1283,-84 1283,-84 1283,-78 1289,-72 1295,-72 1295,-72 1368,-72 1368,-72 1374,-72 1380,-78 1380,-84 1380,-84 1380,-96 1380,-96 1380,-102 1374,-108 1368,-108"/>
<text text-anchor="middle" x="1331.5" y="-87.5" font-family="sans" font-size="10.00" fill="#000000">metadmg_damage</text>
</g>
<!-- 12&#45;&gt;68 -->
<g id="edge110" class="edge">
<title>12&#45;&gt;68</title>
<path fill="none" stroke="#c0c0c0" stroke-width="2" d="M974.3333,-359.9843C1040.2166,-310.1827 1224.8563,-170.6126 1299.5435,-114.1561"/>
<polygon fill="#c0c0c0" stroke="#c0c0c0" stroke-width="2" points="1301.809,-116.8311 1307.6758,-108.0089 1297.5879,-111.247 1301.809,-116.8311"/>
</g>
<!-- 13 -->
<g id="node14" class="node">
<title>13</title>
<path fill="none" stroke="#566bd8" stroke-width="2" d="M989.5,-468C989.5,-468 921.5,-468 921.5,-468 915.5,-468 909.5,-462 909.5,-456 909.5,-456 909.5,-444 909.5,-444 909.5,-438 915.5,-432 921.5,-432 921.5,-432 989.5,-432 989.5,-432 995.5,-432 1001.5,-438 1001.5,-444 1001.5,-444 1001.5,-456 1001.5,-456 1001.5,-462 995.5,-468 989.5,-468"/>
<text text-anchor="middle" x="955.5" y="-447.5" font-family="sans" font-size="10.00" fill="#000000">shard_sort_query</text>
</g>
<!-- 13&#45;&gt;12 -->
<g id="edge30" class="edge">
<title>13&#45;&gt;12</title>
<path fill="none" stroke="#c0c0c0" stroke-width="2" d="M954.2383,-431.8314C953.7035,-424.131 953.0677,-414.9743 952.4734,-406.4166"/>
<polygon fill="#c0c0c0" stroke="#c0c0c0" stroke-width="2" points="955.9632,-406.1467 951.7787,-396.4133 948.98,-406.6317 955.9632,-406.1467"/>
</g>
<!-- 14 -->
<g id="node15" class="node">
<title>14</title>
<path fill="none" stroke="#56d8c9" stroke-width="2" d="M1022.5,-540C1022.5,-540 942.5,-540 942.5,-540 936.5,-540 930.5,-534 930.5,-528 930.5,-528 930.5,-516 930.5,-516 930.5,-510 936.5,-504 942.5,-504 942.5,-504 1022.5,-504 1022.5,-504 1028.5,-504 1034.5,-510 1034.5,-516 1034.5,-516 1034.5,-528 1034.5,-528 1034.5,-534 1028.5,-540 1022.5,-540"/>
<text text-anchor="middle" x="982.5" y="-519.5" font-family="sans" font-size="10.00" fill="#000000">shard_clean_header</text>
</g>
<!-- 14&#45;&gt;13 -->
<g id="edge33" class="edge">
<title>14&#45;&gt;13</title>
<path fill="none" stroke="#c0c0c0" stroke-width="2" d="M975.6868,-503.8314C972.7356,-495.9617 969.2142,-486.5712 965.945,-477.8533"/>
<polygon fill="#c0c0c0" stroke="#c0c0c0" stroke-width="2" points="969.1934,-476.5476 962.405,-468.4133 962.6391,-479.0055 969.1934,-476.5476"/>
</g>
<!-- 15&#45;&gt;14 -->
<g id="edge34" class="edge">
<title>15&#45;&gt;14</title>
<path fill="none" stroke="#c0c0c0" stroke-width="2" d="M988.4813,-575.8314C987.6257,-568.131 986.6083,-558.9743 985.6574,-550.4166"/>
<polygon fill="#c0c0c0" stroke="#c0c0c0" stroke-width="2" points="989.1289,-549.9656 984.5459,-540.4133 982.1717,-550.7386 989.1289,-549.9656"/>
</g>
<!-- 16 -->
<g id="node17" class="node">
<title>16</title>
<path fill="none" stroke="#569ad8" stroke-width="2" d="M1058.5,-684C1058.5,-684 942.5,-684 942.5,-684 936.5,-684 930.5,-678 930.5,-672 930.5,-672 930.5,-660 930.5,-660 930.5,-654 936.5,-648 942.5,-648 942.5,-648 1058.5,-648 1058.5,-648 1064.5,-648 1070.5,-654 1070.5,-660 1070.5,-660 1070.5,-672 1070.5,-672 1070.5,-678 1064.5,-684 1058.5,-684"/>
<text text-anchor="middle" x="1000.5" y="-663.5" font-family="sans" font-size="10.00" fill="#000000">shard_saturated_reads_filter</text>
</g>
<!-- 16&#45;&gt;15 -->
<g id="edge36" class="edge">
<title>16&#45;&gt;15</title>
<path fill="none" stroke="#c0c0c0" stroke-width="2" d="M997.9766,-647.8314C996.9071,-640.131 995.6353,-630.9743 994.4468,-622.4166"/>
<polygon fill="#c0c0c0" stroke="#c0c0c0" stroke-width="2" points="997.8999,-621.8367 993.0574,-612.4133 990.9664,-622.7997 997.8999,-621.8367"/>
</g>
<!-- 16&#45;&gt;22 -->
<g id="edge46" class="edge">
<title>16&#45;&gt;22</title>
<path fill="none" stroke="#c0c0c0" stroke-width="2" d="M954.8261,-647.8314C930.4032,-638.1162 900.1534,-626.0831 874.4516,-615.8592"/>
<polygon fill="#c0c0c0" stroke="#c0c0c0" stroke-width="2" points="875.431,-612.4821 864.8455,-612.038 872.8437,-618.9864 875.431,-612.4821"/>
</g>
<!-- 16&#45;&gt;25 -->
<g id="edge50" class="edge">
<title>16&#45;&gt;25</title>
<path fill="none" stroke="#c0c0c0" stroke-width="2" d="M1041.1271,-647.8314C1062.6599,-638.2018 1089.2849,-626.295 1112.0152,-616.1299"/>
<polygon fill="#c0c0c0" stroke="#c0c0c0" stroke-width="2" points="1113.4652,-619.3155 1121.165,-612.038 1110.6074,-612.9254 1113.4652,-619.3155"/>
</g>
<!-- 65 -->
<g id="node66" class="node">
<title>65</title>
<path fill="none" stroke="#56b1d8" stroke-width="2" d="M1302,-396C1302,-396 1175,-396 1175,-396 1169,-396 1163,-390 1163,-384 1163,-384 1163,-372 1163,-372 1163,-366 1169,-360 1175,-360 1175,-360 1302,-360 1302,-360 1308,-360 1314,-366 1314,-372 1314,-372 1314,-384 1314,-384 1314,-390 1308,-396 1302,-396"/>
<text text-anchor="middle" x="1238.5" y="-375.5" font-family="sans" font-size="10.00" fill="#000000">shard_saturated_reads_extract</text>
</g>
<!-- 16&#45;&gt;65 -->
<g id="edge107" class="edge">
<title>16&#45;&gt;65</title>
<path fill="none" stroke="#c0c0c0" stroke-width="2" d="M1070.6123,-660.2509C1135.3754,-653.3131 1224.748,-639.0447 1246.5,-612 1294.5441,-552.2657 1267.4621,-453.554 1249.8671,-405.7076"/>
<polygon fill="#c0c0c0" stroke="#c0c0c0" stroke-width="2" points="1253.1155,-404.4028 1246.287,-396.3021 1246.5734,-406.893 1253.1155,-404.4028"/>
</g>
<!-- 17&#45;&gt;16 -->
<g id="edge37" class="edge">
<title>17&#45;&gt;16</title>
<path fill="none" stroke="#c0c0c0" stroke-width="2" d="M871.1552,-719.8314C894.3958,-710.159 923.1568,-698.1891 947.6523,-687.9944"/>
<polygon fill="#c0c0c0" stroke="#c0c0c0" stroke-width="2" points="949.2712,-691.1117 957.1587,-684.038 946.5815,-684.6491 949.2712,-691.1117"/>
</g>
<!-- 18&#45;&gt;16 -->
<g id="edge38" class="edge">
<title>18&#45;&gt;16</title>
<path fill="none" stroke="#c0c0c0" stroke-width="2" d="M983.3039,-719.8314C985.7908,-712.0463 988.7531,-702.7729 991.5125,-694.1347"/>
<polygon fill="#c0c0c0" stroke="#c0c0c0" stroke-width="2" points="994.909,-695.0041 994.618,-684.4133 988.2409,-692.874 994.909,-695.0041"/>
</g>
<!-- 19&#45;&gt;16 -->
<g id="edge39" class="edge">
<title>19&#45;&gt;16</title>
<path fill="none" stroke="#c0c0c0" stroke-width="2" d="M1066.2939,-719.8314C1055.455,-710.9632 1042.2556,-700.1637 1030.5322,-690.5718"/>
<polygon fill="#c0c0c0" stroke="#c0c0c0" stroke-width="2" points="1032.655,-687.7864 1022.699,-684.1628 1028.2223,-693.2041 1032.655,-687.7864"/>
</g>
<!-- 20 -->
<g id="node21" class="node">
<title>20</title>
<path fill="none" stroke="#566bd8" stroke-width="2" d="M862.5,-468C862.5,-468 794.5,-468 794.5,-468 788.5,-468 782.5,-462 782.5,-456 782.5,-456 782.5,-444 782.5,-444 782.5,-438 788.5,-432 794.5,-432 794.5,-432 862.5,-432 862.5,-432 868.5,-432 874.5,-438 874.5,-444 874.5,-444 874.5,-456 874.5,-456 874.5,-462 868.5,-468 862.5,-468"/>
<text text-anchor="middle" x="828.5" y="-447.5" font-family="sans" font-size="10.00" fill="#000000">shard_sort_query</text>
</g>
<!-- 20&#45;&gt;12 -->
<g id="edge31" class="edge">
<title>20&#45;&gt;12</title>
<path fill="none" stroke="#c0c0c0" stroke-width="2" d="M859.2858,-431.8314C874.8903,-422.6221 894.024,-411.3301 910.7303,-401.4706"/>
<polygon fill="#c0c0c0" stroke="#c0c0c0" stroke-width="2" points="912.8909,-404.2596 919.7241,-396.1628 909.3331,-398.2312 912.8909,-404.2596"/>
</g>
<!-- 21 -->
<g id="node22" class="node">
<title>21</title>
<path fill="none" stroke="#56d8c9" stroke-width="2" d="M863.5,-540C863.5,-540 783.5,-540 783.5,-540 777.5,-540 771.5,-534 771.5,-528 771.5,-528 771.5,-516 771.5,-516 771.5,-510 777.5,-504 783.5,-504 783.5,-504 863.5,-504 863.5,-504 869.5,-504 875.5,-510 875.5,-516 875.5,-516 875.5,-528 875.5,-528 875.5,-534 869.5,-540 863.5,-540"/>
<text text-anchor="middle" x="823.5" y="-519.5" font-family="sans" font-size="10.00" fill="#000000">shard_clean_header</text>
</g>
<!-- 21&#45;&gt;20 -->
<g id="edge43" class="edge">
<title>21&#45;&gt;20</title>
<path fill="none" stroke="#c0c0c0" stroke-width="2" d="M824.7617,-503.8314C825.2965,-496.131 825.9323,-486.9743 826.5266,-478.4166"/>
<polygon fill="#c0c0c0" stroke="#c0c0c0" stroke-width="2" points="830.02,-478.6317 827.2213,-468.4133 823.0368,-478.1467 830.02,-478.6317"/>
</g>
<!-- 22&#45;&gt;21 -->
<g id="edge44" class="edge">
<title>22&#45;&gt;21</title>
<path fill="none" stroke="#c0c0c0" stroke-width="2" d="M820.5094,-575.8314C820.9372,-568.131 821.4459,-558.9743 821.9213,-550.4166"/>
<polygon fill="#c0c0c0" stroke="#c0c0c0" stroke-width="2" points="825.4169,-550.592 822.477,-540.4133 818.4276,-550.2037 825.4169,-550.592"/>
</g>
<!-- 23 -->
<g id="node24" class="node">
<title>23</title>
<path fill="none" stroke="#566bd8" stroke-width="2" d="M1143.5,-468C1143.5,-468 1075.5,-468 1075.5,-468 1069.5,-468 1063.5,-462 1063.5,-456 1063.5,-456 1063.5,-444 1063.5,-444 1063.5,-438 1069.5,-432 1075.5,-432 1075.5,-432 1143.5,-432 1143.5,-432 1149.5,-432 1155.5,-438 1155.5,-444 1155.5,-444 1155.5,-456 1155.5,-456 1155.5,-462 1149.5,-468 1143.5,-468"/>
<text text-anchor="middle" x="1109.5" y="-447.5" font-family="sans" font-size="10.00" fill="#000000">shard_sort_query</text>
</g>
<!-- 23&#45;&gt;12 -->
<g id="edge32" class="edge">
<title>23&#45;&gt;12</title>
<path fill="none" stroke="#c0c0c0" stroke-width="2" d="M1069.3776,-431.8314C1046.576,-421.5061 1017.9926,-408.5627 994.5686,-397.9556"/>
<polygon fill="#c0c0c0" stroke="#c0c0c0" stroke-width="2" points="995.7624,-394.6541 985.209,-393.7173 992.8748,-401.0308 995.7624,-394.6541"/>
</g>
<!-- 24 -->
<g id="node25" class="node">
<title>24</title>
<path fill="none" stroke="#56d8c9" stroke-width="2" d="M1184.5,-540C1184.5,-540 1104.5,-540 1104.5,-540 1098.5,-540 1092.5,-534 1092.5,-528 1092.5,-528 1092.5,-516 1092.5,-516 1092.5,-510 1098.5,-504 1104.5,-504 1104.5,-504 1184.5,-504 1184.5,-504 1190.5,-504 1196.5,-510 1196.5,-516 1196.5,-516 1196.5,-528 1196.5,-528 1196.5,-534 1190.5,-540 1184.5,-540"/>
<text text-anchor="middle" x="1144.5" y="-519.5" font-family="sans" font-size="10.00" fill="#000000">shard_clean_header</text>
</g>
<!-- 24&#45;&gt;23 -->
<g id="edge47" class="edge">
<title>24&#45;&gt;23</title>
<path fill="none" stroke="#c0c0c0" stroke-width="2" d="M1135.668,-503.8314C1131.8014,-495.8771 1127.1794,-486.369 1122.9032,-477.5723"/>
<polygon fill="#c0c0c0" stroke="#c0c0c0" stroke-width="2" points="1125.9707,-475.8768 1118.4509,-468.4133 1119.6751,-478.9371 1125.9707,-475.8768"/>
</g>
<!-- 25&#45;&gt;24 -->
<g id="edge48" class="edge">
<title>25&#45;&gt;24</title>
<path fill="none" stroke="#c0c0c0" stroke-width="2" d="M1157.2102,-575.8314C1155.392,-568.131 1153.2301,-558.9743 1151.2095,-550.4166"/>
<polygon fill="#c0c0c0" stroke="#c0c0c0" stroke-width="2" points="1154.5519,-549.3414 1148.8476,-540.4133 1147.7392,-550.95 1154.5519,-549.3414"/>
</g>
<!-- 26 -->
<g id="node27" class="node">
<title>26</title>
<path fill="none" stroke="#ced856" stroke-width="2" d="M522.5,-252C522.5,-252 482.5,-252 482.5,-252 476.5,-252 470.5,-246 470.5,-240 470.5,-240 470.5,-228 470.5,-228 470.5,-222 476.5,-216 482.5,-216 482.5,-216 522.5,-216 522.5,-216 528.5,-216 534.5,-222 534.5,-228 534.5,-228 534.5,-240 534.5,-240 534.5,-246 528.5,-252 522.5,-252"/>
<text text-anchor="middle" x="502.5" y="-231.5" font-family="sans" font-size="10.00" fill="#000000">align_stats</text>
</g>
<!-- 26&#45;&gt;1 -->
<g id="edge21" class="edge">
<title>26&#45;&gt;1</title>
<path fill="none" stroke="#c0c0c0" stroke-width="2" d="M506.5291,-215.9413C512.1747,-195.1096 524.5504,-161.489 548.5,-144 571.7501,-127.0219 758.0328,-103.7033 839.0686,-94.2436"/>
<polygon fill="#c0c0c0" stroke="#c0c0c0" stroke-width="2" points="839.7923,-97.6833 849.3228,-93.0551 838.9863,-90.7298 839.7923,-97.6833"/>
</g>
<!-- 27 -->
<g id="node28" class="node">
<title>27</title>
<path fill="none" stroke="#d88556" stroke-width="2" d="M393,-396C393,-396 348,-396 348,-396 342,-396 336,-390 336,-384 336,-384 336,-372 336,-372 336,-366 342,-360 348,-360 348,-360 393,-360 393,-360 399,-360 405,-366 405,-372 405,-372 405,-384 405,-384 405,-390 399,-396 393,-396"/>
<text text-anchor="middle" x="370.5" y="-375.5" font-family="sans" font-size="10.00" fill="#000000">align_merge</text>
</g>
<!-- 27&#45;&gt;26 -->
<g id="edge51" class="edge">
<title>27&#45;&gt;26</title>
<path fill="none" stroke="#c0c0c0" stroke-width="2" d="M388.4934,-359.6793C398.5919,-349.3065 411.3628,-336.037 422.5,-324 442.1994,-302.709 464.0454,-278.0591 479.9243,-259.9456"/>
<polygon fill="#c0c0c0" stroke="#c0c0c0" stroke-width="2" points="482.8212,-261.9499 486.771,-252.1188 477.5526,-257.341 482.8212,-261.9499"/>
</g>
<!-- 59 -->
<g id="node60" class="node">
<title>59</title>
<path fill="none" stroke="#56d89a" stroke-width="2" d="M402,-324C402,-324 351,-324 351,-324 345,-324 339,-318 339,-312 339,-312 339,-300 339,-300 339,-294 345,-288 351,-288 351,-288 402,-288 402,-288 408,-288 414,-294 414,-300 414,-300 414,-312 414,-312 414,-318 408,-324 402,-324"/>
<text text-anchor="middle" x="376.5" y="-303.5" font-family="sans" font-size="10.00" fill="#000000">metadmg_lca</text>
</g>
<!-- 27&#45;&gt;59 -->
<g id="edge98" class="edge">
<title>27&#45;&gt;59</title>
<path fill="none" stroke="#c0c0c0" stroke-width="2" d="M372.0141,-359.8314C372.6558,-352.131 373.4188,-342.9743 374.1319,-334.4166"/>
<polygon fill="#c0c0c0" stroke="#c0c0c0" stroke-width="2" points="377.6229,-334.6694 374.9656,-324.4133 370.6471,-334.088 377.6229,-334.6694"/>
</g>
<!-- 69 -->
<g id="node70" class="node">
<title>69</title>
<path fill="none" stroke="#56d86b" stroke-width="2" d="M575,-108C575,-108 502,-108 502,-108 496,-108 490,-102 490,-96 490,-96 490,-84 490,-84 490,-78 496,-72 502,-72 502,-72 575,-72 575,-72 581,-72 587,-78 587,-84 587,-84 587,-96 587,-96 587,-102 581,-108 575,-108"/>
<text text-anchor="middle" x="538.5" y="-87.5" font-family="sans" font-size="10.00" fill="#000000">metadmg_damage</text>
</g>
<!-- 27&#45;&gt;69 -->
<g id="edge111" class="edge">
<title>27&#45;&gt;69</title>
<path fill="none" stroke="#c0c0c0" stroke-width="2" d="M351.896,-359.8067C343.2967,-350.0891 334.0063,-337.3872 329.5,-324 313.5058,-276.485 299.4364,-196.4439 343.5,-144 352.488,-133.3026 425.6195,-115.045 479.6959,-102.7559"/>
<polygon fill="#c0c0c0" stroke="#c0c0c0" stroke-width="2" points="480.5662,-106.1476 489.5516,-100.5339 479.0266,-99.319 480.5662,-106.1476"/>
</g>
<!-- 28 -->
<g id="node29" class="node">
<title>28</title>
<path fill="none" stroke="#566bd8" stroke-width="2" d="M289.5,-468C289.5,-468 221.5,-468 221.5,-468 215.5,-468 209.5,-462 209.5,-456 209.5,-456 209.5,-444 209.5,-444 209.5,-438 215.5,-432 221.5,-432 221.5,-432 289.5,-432 289.5,-432 295.5,-432 301.5,-438 301.5,-444 301.5,-444 301.5,-456 301.5,-456 301.5,-462 295.5,-468 289.5,-468"/>
<text text-anchor="middle" x="255.5" y="-447.5" font-family="sans" font-size="10.00" fill="#000000">shard_sort_query</text>
</g>
<!-- 28&#45;&gt;27 -->
<g id="edge52" class="edge">
<title>28&#45;&gt;27</title>
<path fill="none" stroke="#c0c0c0" stroke-width="2" d="M284.5194,-431.8314C299.2286,-422.6221 317.2644,-411.3301 333.0122,-401.4706"/>
<polygon fill="#c0c0c0" stroke="#c0c0c0" stroke-width="2" points="334.8714,-404.436 341.4899,-396.1628 331.1567,-398.5029 334.8714,-404.436"/>
</g>
<!-- 29 -->
<g id="node30" class="node">
<title>29</title>
<path fill="none" stroke="#56d8c9" stroke-width="2" d="M129.5,-540C129.5,-540 49.5,-540 49.5,-540 43.5,-540 37.5,-534 37.5,-528 37.5,-528 37.5,-516 37.5,-516 37.5,-510 43.5,-504 49.5,-504 49.5,-504 129.5,-504 129.5,-504 135.5,-504 141.5,-510 141.5,-516 141.5,-516 141.5,-528 141.5,-528 141.5,-534 135.5,-540 129.5,-540"/>
<text text-anchor="middle" x="89.5" y="-519.5" font-family="sans" font-size="10.00" fill="#000000">shard_clean_header</text>
</g>
<!-- 29&#45;&gt;28 -->
<g id="edge55" class="edge">
<title>29&#45;&gt;28</title>
<path fill="none" stroke="#c0c0c0" stroke-width="2" d="M131.3888,-503.8314C153.5903,-494.2018 181.0422,-482.295 204.4784,-472.1299"/>
<polygon fill="#c0c0c0" stroke="#c0c0c0" stroke-width="2" points="206.1309,-475.2282 213.9124,-468.038 203.3455,-468.8062 206.1309,-475.2282"/>
</g>
<!-- 30&#45;&gt;29 -->
<g id="edge56" class="edge">
<title>30&#45;&gt;29</title>
<path fill="none" stroke="#c0c0c0" stroke-width="2" d="M79.7804,-575.8314C81.1708,-568.131 82.8241,-558.9743 84.3692,-550.4166"/>
<polygon fill="#c0c0c0" stroke="#c0c0c0" stroke-width="2" points="87.8428,-550.8761 86.1754,-540.4133 80.9542,-549.6322 87.8428,-550.8761"/>
</g>
<!-- 31 -->
<g id="node32" class="node">
<title>31</title>
<path fill="none" stroke="#569ad8" stroke-width="2" d="M332.5,-684C332.5,-684 216.5,-684 216.5,-684 210.5,-684 204.5,-678 204.5,-672 204.5,-672 204.5,-660 204.5,-660 204.5,-654 210.5,-648 216.5,-648 216.5,-648 332.5,-648 332.5,-648 338.5,-648 344.5,-654 344.5,-660 344.5,-660 344.5,-672 344.5,-672 344.5,-678 338.5,-684 332.5,-684"/>
<text text-anchor="middle" x="274.5" y="-663.5" font-family="sans" font-size="10.00" fill="#000000">shard_saturated_reads_filter</text>
</g>
<!-- 31&#45;&gt;30 -->
<g id="edge58" class="edge">
<title>31&#45;&gt;30</title>
<path fill="none" stroke="#c0c0c0" stroke-width="2" d="M224.7918,-647.9243C197.7241,-638.0815 164.0561,-625.8386 135.6451,-615.5073"/>
<polygon fill="#c0c0c0" stroke="#c0c0c0" stroke-width="2" points="136.8227,-612.2114 126.2286,-612.0831 134.4305,-618.7899 136.8227,-612.2114"/>
</g>
<!-- 31&#45;&gt;37 -->
<g id="edge68" class="edge">
<title>31&#45;&gt;37</title>
<path fill="none" stroke="#c0c0c0" stroke-width="2" d="M277.5281,-647.8314C278.8115,-640.131 280.3376,-630.9743 281.7639,-622.4166"/>
<polygon fill="#c0c0c0" stroke="#c0c0c0" stroke-width="2" points="285.2394,-622.8526 283.4311,-612.4133 278.3347,-621.7018 285.2394,-622.8526"/>
</g>
<!-- 31&#45;&gt;40 -->
<g id="edge72" class="edge">
<title>31&#45;&gt;40</title>
<path fill="none" stroke="#c0c0c0" stroke-width="2" d="M320.6786,-647.8314C345.4801,-638.0734 376.225,-625.977 402.2843,-615.7242"/>
<polygon fill="#c0c0c0" stroke="#c0c0c0" stroke-width="2" points="403.6292,-618.9563 411.6534,-612.038 401.0663,-612.4423 403.6292,-618.9563"/>
</g>
<!-- 66 -->
<g id="node67" class="node">
<title>66</title>
<path fill="none" stroke="#56b1d8" stroke-width="2" d="M436,-108C436,-108 309,-108 309,-108 303,-108 297,-102 297,-96 297,-96 297,-84 297,-84 297,-78 303,-72 309,-72 309,-72 436,-72 436,-72 442,-72 448,-78 448,-84 448,-84 448,-96 448,-96 448,-102 442,-108 436,-108"/>
<text text-anchor="middle" x="372.5" y="-87.5" font-family="sans" font-size="10.00" fill="#000000">shard_saturated_reads_extract</text>
</g>
<!-- 31&#45;&gt;66 -->
<g id="edge108" class="edge">
<title>31&#45;&gt;66</title>
<path fill="none" stroke="#c0c0c0" stroke-width="2" d="M239.4013,-647.9183C225.275,-638.943 210.0892,-626.8222 200.5,-612 178.2937,-577.6752 181.5,-562.8816 181.5,-522 181.5,-522 181.5,-522 181.5,-234 181.5,-171.8085 246.8635,-133.101 301.1161,-111.6844"/>
<polygon fill="#c0c0c0" stroke="#c0c0c0" stroke-width="2" points="302.6535,-114.8442 310.7515,-108.0125 300.1607,-108.303 302.6535,-114.8442"/>
</g>
<!-- 32&#45;&gt;31 -->
<g id="edge59" class="edge">
<title>32&#45;&gt;31</title>
<path fill="none" stroke="#c0c0c0" stroke-width="2" d="M274.5,-719.8314C274.5,-712.131 274.5,-702.9743 274.5,-694.4166"/>
<polygon fill="#c0c0c0" stroke="#c0c0c0" stroke-width="2" points="278.0001,-694.4132 274.5,-684.4133 271.0001,-694.4133 278.0001,-694.4132"/>
</g>
<!-- 33&#45;&gt;31 -->
<g id="edge60" class="edge">
<title>33&#45;&gt;31</title>
<path fill="none" stroke="#c0c0c0" stroke-width="2" d="M191.51,-719.8314C205.5761,-710.7074 222.794,-699.539 237.8933,-689.7449"/>
<polygon fill="#c0c0c0" stroke="#c0c0c0" stroke-width="2" points="240.014,-692.5412 246.499,-684.1628 236.2047,-686.6684 240.014,-692.5412"/>
</g>
<!-- 34&#45;&gt;31 -->
<g id="edge61" class="edge">
<title>34&#45;&gt;31</title>
<path fill="none" stroke="#c0c0c0" stroke-width="2" d="M357.49,-719.8314C343.4239,-710.7074 326.206,-699.539 311.1067,-689.7449"/>
<polygon fill="#c0c0c0" stroke="#c0c0c0" stroke-width="2" points="312.7953,-686.6684 302.501,-684.1628 308.986,-692.5412 312.7953,-686.6684"/>
</g>
<!-- 35 -->
<g id="node36" class="node">
<title>35</title>
<path fill="none" stroke="#566bd8" stroke-width="2" d="M399.5,-468C399.5,-468 331.5,-468 331.5,-468 325.5,-468 319.5,-462 319.5,-456 319.5,-456 319.5,-444 319.5,-444 319.5,-438 325.5,-432 331.5,-432 331.5,-432 399.5,-432 399.5,-432 405.5,-432 411.5,-438 411.5,-444 411.5,-444 411.5,-456 411.5,-456 411.5,-462 405.5,-468 399.5,-468"/>
<text text-anchor="middle" x="365.5" y="-447.5" font-family="sans" font-size="10.00" fill="#000000">shard_sort_query</text>
</g>
<!-- 35&#45;&gt;27 -->
<g id="edge53" class="edge">
<title>35&#45;&gt;27</title>
<path fill="none" stroke="#c0c0c0" stroke-width="2" d="M366.7617,-431.8314C367.2965,-424.131 367.9323,-414.9743 368.5266,-406.4166"/>
<polygon fill="#c0c0c0" stroke="#c0c0c0" stroke-width="2" points="372.02,-406.6317 369.2213,-396.4133 365.0368,-406.1467 372.02,-406.6317"/>
</g>
<!-- 36 -->
<g id="node37" class="node">
<title>36</title>
<path fill="none" stroke="#56d8c9" stroke-width="2" d="M360.5,-540C360.5,-540 280.5,-540 280.5,-540 274.5,-540 268.5,-534 268.5,-528 268.5,-528 268.5,-516 268.5,-516 268.5,-510 274.5,-504 280.5,-504 280.5,-504 360.5,-504 360.5,-504 366.5,-504 372.5,-510 372.5,-516 372.5,-516 372.5,-528 372.5,-528 372.5,-534 366.5,-540 360.5,-540"/>
<text text-anchor="middle" x="320.5" y="-519.5" font-family="sans" font-size="10.00" fill="#000000">shard_clean_header</text>
</g>
<!-- 36&#45;&gt;35 -->
<g id="edge65" class="edge">
<title>36&#45;&gt;35</title>
<path fill="none" stroke="#c0c0c0" stroke-width="2" d="M331.8554,-503.8314C336.9326,-495.7079 343.0227,-485.9637 348.6176,-477.0118"/>
<polygon fill="#c0c0c0" stroke="#c0c0c0" stroke-width="2" points="351.6597,-478.7483 353.9917,-468.4133 345.7237,-475.0383 351.6597,-478.7483"/>
</g>
<!-- 37&#45;&gt;36 -->
<g id="edge66" class="edge">
<title>37&#45;&gt;36</title>
<path fill="none" stroke="#c0c0c0" stroke-width="2" d="M295.0796,-575.8314C298.8358,-567.8771 303.3257,-558.369 307.4798,-549.5723"/>
<polygon fill="#c0c0c0" stroke="#c0c0c0" stroke-width="2" points="310.6996,-550.9503 311.8048,-540.4133 304.3699,-547.9612 310.6996,-550.9503"/>
</g>
<!-- 38 -->
<g id="node39" class="node">
<title>38</title>
<path fill="none" stroke="#566bd8" stroke-width="2" d="M509.5,-468C509.5,-468 441.5,-468 441.5,-468 435.5,-468 429.5,-462 429.5,-456 429.5,-456 429.5,-444 429.5,-444 429.5,-438 435.5,-432 441.5,-432 441.5,-432 509.5,-432 509.5,-432 515.5,-432 521.5,-438 521.5,-444 521.5,-444 521.5,-456 521.5,-456 521.5,-462 515.5,-468 509.5,-468"/>
<text text-anchor="middle" x="475.5" y="-447.5" font-family="sans" font-size="10.00" fill="#000000">shard_sort_query</text>
</g>
<!-- 38&#45;&gt;27 -->
<g id="edge54" class="edge">
<title>38&#45;&gt;27</title>
<path fill="none" stroke="#c0c0c0" stroke-width="2" d="M449.0041,-431.8314C435.8226,-422.7927 419.7153,-411.7476 405.5289,-402.0198"/>
<polygon fill="#c0c0c0" stroke="#c0c0c0" stroke-width="2" points="407.2141,-398.9316 396.9875,-396.1628 403.2554,-404.7047 407.2141,-398.9316"/>
</g>
<!-- 39 -->
<g id="node40" class="node">
<title>39</title>
<path fill="none" stroke="#56d8c9" stroke-width="2" d="M506.5,-540C506.5,-540 426.5,-540 426.5,-540 420.5,-540 414.5,-534 414.5,-528 414.5,-528 414.5,-516 414.5,-516 414.5,-510 420.5,-504 426.5,-504 426.5,-504 506.5,-504 506.5,-504 512.5,-504 518.5,-510 518.5,-516 518.5,-516 518.5,-528 518.5,-528 518.5,-534 512.5,-540 506.5,-540"/>
<text text-anchor="middle" x="466.5" y="-519.5" font-family="sans" font-size="10.00" fill="#000000">shard_clean_header</text>
</g>
<!-- 39&#45;&gt;38 -->
<g id="edge69" class="edge">
<title>39&#45;&gt;38</title>
<path fill="none" stroke="#c0c0c0" stroke-width="2" d="M468.7711,-503.8314C469.7336,-496.131 470.8782,-486.9743 471.9479,-478.4166"/>
<polygon fill="#c0c0c0" stroke="#c0c0c0" stroke-width="2" points="475.4309,-478.7702 473.1983,-468.4133 468.4849,-477.9019 475.4309,-478.7702"/>
</g>
<!-- 40&#45;&gt;39 -->
<g id="edge70" class="edge">
<title>40&#45;&gt;39</title>
<path fill="none" stroke="#c0c0c0" stroke-width="2" d="M459.7711,-575.8314C460.7336,-568.131 461.8782,-558.9743 462.9479,-550.4166"/>
<polygon fill="#c0c0c0" stroke="#c0c0c0" stroke-width="2" points="466.4309,-550.7702 464.1983,-540.4133 459.4849,-549.9019 466.4309,-550.7702"/>
</g>
<!-- 41 -->
<g id="node42" class="node">
<title>41</title>
<path fill="none" stroke="#ced856" stroke-width="2" d="M1473.5,-252C1473.5,-252 1433.5,-252 1433.5,-252 1427.5,-252 1421.5,-246 1421.5,-240 1421.5,-240 1421.5,-228 1421.5,-228 1421.5,-222 1427.5,-216 1433.5,-216 1433.5,-216 1473.5,-216 1473.5,-216 1479.5,-216 1485.5,-222 1485.5,-228 1485.5,-228 1485.5,-240 1485.5,-240 1485.5,-246 1479.5,-252 1473.5,-252"/>
<text text-anchor="middle" x="1453.5" y="-231.5" font-family="sans" font-size="10.00" fill="#000000">align_stats</text>
</g>
<!-- 41&#45;&gt;1 -->
<g id="edge22" class="edge">
<title>41&#45;&gt;1</title>
<path fill="none" stroke="#c0c0c0" stroke-width="2" d="M1445.0629,-215.8948C1434.1234,-194.6846 1412.9027,-160.3669 1383.5,-144 1342.6595,-121.2663 1024.0801,-99.2866 913.8684,-92.2923"/>
<polygon fill="#c0c0c0" stroke="#c0c0c0" stroke-width="2" points="913.7696,-88.7792 903.5694,-91.6439 913.3297,-95.7654 913.7696,-88.7792"/>
</g>
<!-- 42 -->
<g id="node43" class="node">
<title>42</title>
<path fill="none" stroke="#d88556" stroke-width="2" d="M1620,-396C1620,-396 1575,-396 1575,-396 1569,-396 1563,-390 1563,-384 1563,-384 1563,-372 1563,-372 1563,-366 1569,-360 1575,-360 1575,-360 1620,-360 1620,-360 1626,-360 1632,-366 1632,-372 1632,-372 1632,-384 1632,-384 1632,-390 1626,-396 1620,-396"/>
<text text-anchor="middle" x="1597.5" y="-375.5" font-family="sans" font-size="10.00" fill="#000000">align_merge</text>
</g>
<!-- 42&#45;&gt;41 -->
<g id="edge73" class="edge">
<title>42&#45;&gt;41</title>
<path fill="none" stroke="#c0c0c0" stroke-width="2" d="M1573.8757,-359.8546C1561.1949,-349.7536 1545.5372,-336.6876 1532.5,-324 1511.6039,-303.6642 1489.8932,-278.5986 1474.5319,-260.0887"/>
<polygon fill="#c0c0c0" stroke="#c0c0c0" stroke-width="2" points="1477.2102,-257.8352 1468.1527,-252.3386 1471.8056,-262.2838 1477.2102,-257.8352"/>
</g>
<!-- 61 -->
<g id="node62" class="node">
<title>61</title>
<path fill="none" stroke="#56d89a" stroke-width="2" d="M1605,-324C1605,-324 1554,-324 1554,-324 1548,-324 1542,-318 1542,-312 1542,-312 1542,-300 1542,-300 1542,-294 1548,-288 1554,-288 1554,-288 1605,-288 1605,-288 1611,-288 1617,-294 1617,-300 1617,-300 1617,-312 1617,-312 1617,-318 1611,-324 1605,-324"/>
<text text-anchor="middle" x="1579.5" y="-303.5" font-family="sans" font-size="10.00" fill="#000000">metadmg_lca</text>
</g>
<!-- 42&#45;&gt;61 -->
<g id="edge100" class="edge">
<title>42&#45;&gt;61</title>
<path fill="none" stroke="#c0c0c0" stroke-width="2" d="M1592.9578,-359.8314C1591.0116,-352.0463 1588.6932,-342.7729 1586.5337,-334.1347"/>
<polygon fill="#c0c0c0" stroke="#c0c0c0" stroke-width="2" points="1589.9242,-333.2658 1584.1033,-324.4133 1583.1332,-334.9636 1589.9242,-333.2658"/>
</g>
<!-- 70 -->
<g id="node71" class="node">
<title>70</title>
<path fill="none" stroke="#56d86b" stroke-width="2" d="M1759,-324C1759,-324 1686,-324 1686,-324 1680,-324 1674,-318 1674,-312 1674,-312 1674,-300 1674,-300 1674,-294 1680,-288 1686,-288 1686,-288 1759,-288 1759,-288 1765,-288 1771,-294 1771,-300 1771,-300 1771,-312 1771,-312 1771,-318 1765,-324 1759,-324"/>
<text text-anchor="middle" x="1722.5" y="-303.5" font-family="sans" font-size="10.00" fill="#000000">metadmg_damage</text>
</g>
<!-- 42&#45;&gt;70 -->
<g id="edge112" class="edge">
<title>42&#45;&gt;70</title>
<path fill="none" stroke="#c0c0c0" stroke-width="2" d="M1629.0428,-359.8314C1645.1791,-350.5368 1664.9986,-339.1208 1682.2272,-329.1971"/>
<polygon fill="#c0c0c0" stroke="#c0c0c0" stroke-width="2" points="1684.0489,-332.187 1690.9673,-324.1628 1680.555,-326.1212 1684.0489,-332.187"/>
</g>
<!-- 43 -->
<g id="node44" class="node">
<title>43</title>
<path fill="none" stroke="#566bd8" stroke-width="2" d="M1759.5,-468C1759.5,-468 1691.5,-468 1691.5,-468 1685.5,-468 1679.5,-462 1679.5,-456 1679.5,-456 1679.5,-444 1679.5,-444 1679.5,-438 1685.5,-432 1691.5,-432 1691.5,-432 1759.5,-432 1759.5,-432 1765.5,-432 1771.5,-438 1771.5,-444 1771.5,-444 1771.5,-456 1771.5,-456 1771.5,-462 1765.5,-468 1759.5,-468"/>
<text text-anchor="middle" x="1725.5" y="-447.5" font-family="sans" font-size="10.00" fill="#000000">shard_sort_query</text>
</g>
<!-- 43&#45;&gt;42 -->
<g id="edge74" class="edge">
<title>43&#45;&gt;42</title>
<path fill="none" stroke="#c0c0c0" stroke-width="2" d="M1693.2002,-431.8314C1676.6766,-422.5368 1656.3814,-411.1208 1638.7393,-401.1971"/>
<polygon fill="#c0c0c0" stroke="#c0c0c0" stroke-width="2" points="1640.2212,-398.015 1629.7895,-396.1628 1636.7893,-404.116 1640.2212,-398.015"/>
</g>
<!-- 44 -->
<g id="node45" class="node">
<title>44</title>
<path fill="none" stroke="#56d8c9" stroke-width="2" d="M1931.5,-540C1931.5,-540 1851.5,-540 1851.5,-540 1845.5,-540 1839.5,-534 1839.5,-528 1839.5,-528 1839.5,-516 1839.5,-516 1839.5,-510 1845.5,-504 1851.5,-504 1851.5,-504 1931.5,-504 1931.5,-504 1937.5,-504 1943.5,-510 1943.5,-516 1943.5,-516 1943.5,-528 1943.5,-528 1943.5,-534 1937.5,-540 1931.5,-540"/>
<text text-anchor="middle" x="1891.5" y="-519.5" font-family="sans" font-size="10.00" fill="#000000">shard_clean_header</text>
</g>
<!-- 44&#45;&gt;43 -->
<g id="edge77" class="edge">
<title>44&#45;&gt;43</title>
<path fill="none" stroke="#c0c0c0" stroke-width="2" d="M1849.6112,-503.8314C1827.4097,-494.2018 1799.9578,-482.295 1776.5216,-472.1299"/>
<polygon fill="#c0c0c0" stroke="#c0c0c0" stroke-width="2" points="1777.6545,-468.8062 1767.0876,-468.038 1774.8691,-475.2282 1777.6545,-468.8062"/>
</g>
<!-- 45&#45;&gt;44 -->
<g id="edge78" class="edge">
<title>45&#45;&gt;44</title>
<path fill="none" stroke="#c0c0c0" stroke-width="2" d="M1901.2196,-575.8314C1899.8292,-568.131 1898.1759,-558.9743 1896.6308,-550.4166"/>
<polygon fill="#c0c0c0" stroke="#c0c0c0" stroke-width="2" points="1900.0458,-549.6322 1894.8246,-540.4133 1893.1572,-550.8761 1900.0458,-549.6322"/>
</g>
<!-- 46 -->
<g id="node47" class="node">
<title>46</title>
<path fill="none" stroke="#569ad8" stroke-width="2" d="M1762.5,-684C1762.5,-684 1646.5,-684 1646.5,-684 1640.5,-684 1634.5,-678 1634.5,-672 1634.5,-672 1634.5,-660 1634.5,-660 1634.5,-654 1640.5,-648 1646.5,-648 1646.5,-648 1762.5,-648 1762.5,-648 1768.5,-648 1774.5,-654 1774.5,-660 1774.5,-660 1774.5,-672 1774.5,-672 1774.5,-678 1768.5,-684 1762.5,-684"/>
<text text-anchor="middle" x="1704.5" y="-663.5" font-family="sans" font-size="10.00" fill="#000000">shard_saturated_reads_filter</text>
</g>
<!-- 46&#45;&gt;45 -->
<g id="edge80" class="edge">
<title>46&#45;&gt;45</title>
<path fill="none" stroke="#c0c0c0" stroke-width="2" d="M1754.7103,-647.9243C1782.0515,-638.0815 1816.0594,-625.8386 1844.7575,-615.5073"/>
<polygon fill="#c0c0c0" stroke="#c0c0c0" stroke-width="2" points="1846.0457,-618.7635 1854.2691,-612.0831 1843.6746,-612.1773 1846.0457,-618.7635"/>
</g>
<!-- 46&#45;&gt;52 -->
<g id="edge90" class="edge">
<title>46&#45;&gt;52</title>
<path fill="none" stroke="#c0c0c0" stroke-width="2" d="M1658.8261,-647.8314C1634.4032,-638.1162 1604.1534,-626.0831 1578.4516,-615.8592"/>
<polygon fill="#c0c0c0" stroke="#c0c0c0" stroke-width="2" points="1579.431,-612.4821 1568.8455,-612.038 1576.8437,-618.9864 1579.431,-612.4821"/>
</g>
<!-- 46&#45;&gt;55 -->
<g id="edge94" class="edge">
<title>46&#45;&gt;55</title>
<path fill="none" stroke="#c0c0c0" stroke-width="2" d="M1701.9766,-647.8314C1700.9071,-640.131 1699.6353,-630.9743 1698.4468,-622.4166"/>
<polygon fill="#c0c0c0" stroke="#c0c0c0" stroke-width="2" points="1701.8999,-621.8367 1697.0574,-612.4133 1694.9664,-622.7997 1701.8999,-621.8367"/>
</g>
<!-- 67 -->
<g id="node68" class="node">
<title>67</title>
<path fill="none" stroke="#56b1d8" stroke-width="2" d="M1863,-396C1863,-396 1736,-396 1736,-396 1730,-396 1724,-390 1724,-384 1724,-384 1724,-372 1724,-372 1724,-366 1730,-360 1736,-360 1736,-360 1863,-360 1863,-360 1869,-360 1875,-366 1875,-372 1875,-372 1875,-384 1875,-384 1875,-390 1869,-396 1863,-396"/>
<text text-anchor="middle" x="1799.5" y="-375.5" font-family="sans" font-size="10.00" fill="#000000">shard_saturated_reads_extract</text>
</g>
<!-- 46&#45;&gt;67 -->
<g id="edge109" class="edge">
<title>46&#45;&gt;67</title>
<path fill="none" stroke="#c0c0c0" stroke-width="2" d="M1742.6698,-647.9601C1756.9828,-639.1811 1771.8592,-627.1959 1780.5,-612 1817.9757,-546.0942 1811.0225,-452.4221 1804.4194,-406.1291"/>
<polygon fill="#c0c0c0" stroke="#c0c0c0" stroke-width="2" points="1807.8741,-405.5658 1802.9039,-396.2091 1800.9544,-406.623 1807.8741,-405.5658"/>
</g>
<!-- 47&#45;&gt;46 -->
<g id="edge81" class="edge">
<title>47&#45;&gt;46</title>
<path fill="none" stroke="#c0c0c0" stroke-width="2" d="M1540.0661,-722.1102C1570.1107,-711.858 1609.5443,-698.402 1642.2631,-687.2372"/>
<polygon fill="#c0c0c0" stroke="#c0c0c0" stroke-width="2" points="1643.4068,-690.5452 1651.7406,-684.0032 1641.1461,-683.9203 1643.4068,-690.5452"/>
</g>
<!-- 48&#45;&gt;46 -->
<g id="edge82" class="edge">
<title>48&#45;&gt;46</title>
<path fill="none" stroke="#c0c0c0" stroke-width="2" d="M1770.2939,-719.8314C1759.455,-710.9632 1746.2556,-700.1637 1734.5322,-690.5718"/>
<polygon fill="#c0c0c0" stroke="#c0c0c0" stroke-width="2" points="1736.655,-687.7864 1726.699,-684.1628 1732.2223,-693.2041 1736.655,-687.7864"/>
</g>
<!-- 49&#45;&gt;46 -->
<g id="edge83" class="edge">
<title>49&#45;&gt;46</title>
<path fill="none" stroke="#c0c0c0" stroke-width="2" d="M1687.3039,-719.8314C1689.7908,-712.0463 1692.7531,-702.7729 1695.5125,-694.1347"/>
<polygon fill="#c0c0c0" stroke="#c0c0c0" stroke-width="2" points="1698.909,-695.0041 1698.618,-684.4133 1692.2409,-692.874 1698.909,-695.0041"/>
</g>
<!-- 50 -->
<g id="node51" class="node">
<title>50</title>
<path fill="none" stroke="#566bd8" stroke-width="2" d="M1539.5,-468C1539.5,-468 1471.5,-468 1471.5,-468 1465.5,-468 1459.5,-462 1459.5,-456 1459.5,-456 1459.5,-444 1459.5,-444 1459.5,-438 1465.5,-432 1471.5,-432 1471.5,-432 1539.5,-432 1539.5,-432 1545.5,-432 1551.5,-438 1551.5,-444 1551.5,-444 1551.5,-456 1551.5,-456 1551.5,-462 1545.5,-468 1539.5,-468"/>
<text text-anchor="middle" x="1505.5" y="-447.5" font-family="sans" font-size="10.00" fill="#000000">shard_sort_query</text>
</g>
<!-- 50&#45;&gt;42 -->
<g id="edge75" class="edge">
<title>50&#45;&gt;42</title>
<path fill="none" stroke="#c0c0c0" stroke-width="2" d="M1528.7155,-431.8314C1540.047,-422.9632 1553.8464,-412.1637 1566.1027,-402.5718"/>
<polygon fill="#c0c0c0" stroke="#c0c0c0" stroke-width="2" points="1568.574,-405.0822 1574.2919,-396.1628 1564.2598,-399.5697 1568.574,-405.0822"/>
</g>
<!-- 51 -->
<g id="node52" class="node">
<title>51</title>
<path fill="none" stroke="#56d8c9" stroke-width="2" d="M1554.5,-540C1554.5,-540 1474.5,-540 1474.5,-540 1468.5,-540 1462.5,-534 1462.5,-528 1462.5,-528 1462.5,-516 1462.5,-516 1462.5,-510 1468.5,-504 1474.5,-504 1474.5,-504 1554.5,-504 1554.5,-504 1560.5,-504 1566.5,-510 1566.5,-516 1566.5,-516 1566.5,-528 1566.5,-528 1566.5,-534 1560.5,-540 1554.5,-540"/>
<text text-anchor="middle" x="1514.5" y="-519.5" font-family="sans" font-size="10.00" fill="#000000">shard_clean_header</text>
</g>
<!-- 51&#45;&gt;50 -->
<g id="edge87" class="edge">
<title>51&#45;&gt;50</title>
<path fill="none" stroke="#c0c0c0" stroke-width="2" d="M1512.2289,-503.8314C1511.2664,-496.131 1510.1218,-486.9743 1509.0521,-478.4166"/>
<polygon fill="#c0c0c0" stroke="#c0c0c0" stroke-width="2" points="1512.5151,-477.9019 1507.8017,-468.4133 1505.5691,-478.7702 1512.5151,-477.9019"/>
</g>
<!-- 52&#45;&gt;51 -->
<g id="edge88" class="edge">
<title>52&#45;&gt;51</title>
<path fill="none" stroke="#c0c0c0" stroke-width="2" d="M1521.2289,-575.8314C1520.2664,-568.131 1519.1218,-558.9743 1518.0521,-550.4166"/>
<polygon fill="#c0c0c0" stroke="#c0c0c0" stroke-width="2" points="1521.5151,-549.9019 1516.8017,-540.4133 1514.5691,-550.7702 1521.5151,-549.9019"/>
</g>
<!-- 53 -->
<g id="node54" class="node">
<title>53</title>
<path fill="none" stroke="#566bd8" stroke-width="2" d="M1649.5,-468C1649.5,-468 1581.5,-468 1581.5,-468 1575.5,-468 1569.5,-462 1569.5,-456 1569.5,-456 1569.5,-444 1569.5,-444 1569.5,-438 1575.5,-432 1581.5,-432 1581.5,-432 1649.5,-432 1649.5,-432 1655.5,-432 1661.5,-438 1661.5,-444 1661.5,-444 1661.5,-456 1661.5,-456 1661.5,-462 1655.5,-468 1649.5,-468"/>
<text text-anchor="middle" x="1615.5" y="-447.5" font-family="sans" font-size="10.00" fill="#000000">shard_sort_query</text>
</g>
<!-- 53&#45;&gt;42 -->
<g id="edge76" class="edge">
<title>53&#45;&gt;42</title>
<path fill="none" stroke="#c0c0c0" stroke-width="2" d="M1610.9578,-431.8314C1609.0116,-424.0463 1606.6932,-414.7729 1604.5337,-406.1347"/>
<polygon fill="#c0c0c0" stroke="#c0c0c0" stroke-width="2" points="1607.9242,-405.2658 1602.1033,-396.4133 1601.1332,-406.9636 1607.9242,-405.2658"/>
</g>
<!-- 54 -->
<g id="node55" class="node">
<title>54</title>
<path fill="none" stroke="#56d8c9" stroke-width="2" d="M1705.5,-540C1705.5,-540 1625.5,-540 1625.5,-540 1619.5,-540 1613.5,-534 1613.5,-528 1613.5,-528 1613.5,-516 1613.5,-516 1613.5,-510 1619.5,-504 1625.5,-504 1625.5,-504 1705.5,-504 1705.5,-504 1711.5,-504 1717.5,-510 1717.5,-516 1717.5,-516 1717.5,-528 1717.5,-528 1717.5,-534 1711.5,-540 1705.5,-540"/>
<text text-anchor="middle" x="1665.5" y="-519.5" font-family="sans" font-size="10.00" fill="#000000">shard_clean_header</text>
</g>
<!-- 54&#45;&gt;53 -->
<g id="edge91" class="edge">
<title>54&#45;&gt;53</title>
<path fill="none" stroke="#c0c0c0" stroke-width="2" d="M1652.8829,-503.8314C1647.1828,-495.6232 1640.3337,-485.7606 1634.0641,-476.7323"/>
<polygon fill="#c0c0c0" stroke="#c0c0c0" stroke-width="2" points="1636.8658,-474.6306 1628.287,-468.4133 1631.1162,-478.6234 1636.8658,-474.6306"/>
</g>
<!-- 55&#45;&gt;54 -->
<g id="edge92" class="edge">
<title>55&#45;&gt;54</title>
<path fill="none" stroke="#c0c0c0" stroke-width="2" d="M1687.1821,-575.8314C1684.0124,-567.9617 1680.23,-558.5712 1676.7187,-549.8533"/>
<polygon fill="#c0c0c0" stroke="#c0c0c0" stroke-width="2" points="1679.8992,-548.3815 1672.9165,-540.4133 1673.4061,-550.9968 1679.8992,-548.3815"/>
</g>
<!-- 56 -->
<g id="node57" class="node">
<title>56</title>
<path fill="none" stroke="#56d882" stroke-width="2" d="M760.5,-252C760.5,-252 708.5,-252 708.5,-252 702.5,-252 696.5,-246 696.5,-240 696.5,-240 696.5,-228 696.5,-228 696.5,-222 702.5,-216 708.5,-216 708.5,-216 760.5,-216 760.5,-216 766.5,-216 772.5,-222 772.5,-228 772.5,-228 772.5,-240 772.5,-240 772.5,-246 766.5,-252 760.5,-252"/>
<text text-anchor="middle" x="734.5" y="-231.5" font-family="sans" font-size="10.00" fill="#000000">metadmg_dfit</text>
</g>
<!-- 56&#45;&gt;1 -->
<g id="edge23" class="edge">
<title>56&#45;&gt;1</title>
<path fill="none" stroke="#c0c0c0" stroke-width="2" d="M741.7796,-215.6585C750.2428,-196.1006 765.7468,-165.0985 786.5,-144 801.8425,-128.4022 822.5916,-115.5567 840.3005,-106.3131"/>
<polygon fill="#c0c0c0" stroke="#c0c0c0" stroke-width="2" points="841.8817,-109.4356 849.2392,-101.8121 838.7335,-103.1835 841.8817,-109.4356"/>
</g>
<!-- 62 -->
<g id="node63" class="node">
<title>62</title>
<path fill="none" stroke="#59d856" stroke-width="2" d="M722,-180C722,-180 641,-180 641,-180 635,-180 629,-174 629,-168 629,-168 629,-156 629,-156 629,-150 635,-144 641,-144 641,-144 722,-144 722,-144 728,-144 734,-150 734,-156 734,-156 734,-168 734,-168 734,-174 728,-180 722,-180"/>
<text text-anchor="middle" x="681.5" y="-159.5" font-family="sans" font-size="10.00" fill="#000000">metadmg_aggregate</text>
</g>
<!-- 56&#45;&gt;62 -->
<g id="edge102" class="edge">
<title>56&#45;&gt;62</title>
<path fill="none" stroke="#c0c0c0" stroke-width="2" d="M721.1259,-215.8314C715.0838,-207.6232 707.8237,-197.7606 701.1779,-188.7323"/>
<polygon fill="#c0c0c0" stroke="#c0c0c0" stroke-width="2" points="703.8011,-186.3918 695.0542,-180.4133 698.1637,-190.5415 703.8011,-186.3918"/>
</g>
<!-- 57&#45;&gt;56 -->
<g id="edge95" class="edge">
<title>57&#45;&gt;56</title>
<path fill="none" stroke="#c0c0c0" stroke-width="2" d="M734.5,-287.8314C734.5,-280.131 734.5,-270.9743 734.5,-262.4166"/>
<polygon fill="#c0c0c0" stroke="#c0c0c0" stroke-width="2" points="738.0001,-262.4132 734.5,-252.4133 731.0001,-262.4133 738.0001,-262.4132"/>
</g>
<!-- 57&#45;&gt;62 -->
<g id="edge101" class="edge">
<title>57&#45;&gt;62</title>
<path fill="none" stroke="#c0c0c0" stroke-width="2" d="M713.1288,-287.6607C703.5174,-278.089 693.0946,-265.5568 687.5,-252 679.4103,-232.397 678.2004,-208.3487 678.8553,-190.0438"/>
<polygon fill="#c0c0c0" stroke="#c0c0c0" stroke-width="2" points="682.3527,-190.1872 679.4185,-180.0068 675.3637,-189.795 682.3527,-190.1872"/>
</g>
<!-- 58 -->
<g id="node59" class="node">
<title>58</title>
<path fill="none" stroke="#56d882" stroke-width="2" d="M440.5,-252C440.5,-252 388.5,-252 388.5,-252 382.5,-252 376.5,-246 376.5,-240 376.5,-240 376.5,-228 376.5,-228 376.5,-222 382.5,-216 388.5,-216 388.5,-216 440.5,-216 440.5,-216 446.5,-216 452.5,-222 452.5,-228 452.5,-228 452.5,-240 452.5,-240 452.5,-246 446.5,-252 440.5,-252"/>
<text text-anchor="middle" x="414.5" y="-231.5" font-family="sans" font-size="10.00" fill="#000000">metadmg_dfit</text>
</g>
<!-- 58&#45;&gt;1 -->
<g id="edge24" class="edge">
<title>58&#45;&gt;1</title>
<path fill="none" stroke="#c0c0c0" stroke-width="2" d="M432.6381,-215.6969C456.5149,-192.0237 497.6614,-152.7755 516.5,-144 545.441,-130.5186 752.9956,-104.6747 839.1571,-94.3846"/>
<polygon fill="#c0c0c0" stroke="#c0c0c0" stroke-width="2" points="839.7663,-97.8369 849.2829,-93.1802 838.9395,-90.8859 839.7663,-97.8369"/>
</g>
<!-- 63 -->
<g id="node64" class="node">
<title>63</title>
<path fill="none" stroke="#59d856" stroke-width="2" d="M446,-180C446,-180 365,-180 365,-180 359,-180 353,-174 353,-168 353,-168 353,-156 353,-156 353,-150 359,-144 365,-144 365,-144 446,-144 446,-144 452,-144 458,-150 458,-156 458,-156 458,-168 458,-168 458,-174 452,-180 446,-180"/>
<text text-anchor="middle" x="405.5" y="-159.5" font-family="sans" font-size="10.00" fill="#000000">metadmg_aggregate</text>
</g>
<!-- 58&#45;&gt;63 -->
<g id="edge104" class="edge">
<title>58&#45;&gt;63</title>
<path fill="none" stroke="#c0c0c0" stroke-width="2" d="M412.2289,-215.8314C411.2664,-208.131 410.1218,-198.9743 409.0521,-190.4166"/>
<polygon fill="#c0c0c0" stroke="#c0c0c0" stroke-width="2" points="412.5151,-189.9019 407.8017,-180.4133 405.5691,-190.7702 412.5151,-189.9019"/>
</g>
<!-- 59&#45;&gt;58 -->
<g id="edge97" class="edge">
<title>59&#45;&gt;58</title>
<path fill="none" stroke="#c0c0c0" stroke-width="2" d="M386.089,-287.8314C390.3317,-279.7925 395.4121,-270.1666 400.096,-261.2918"/>
<polygon fill="#c0c0c0" stroke="#c0c0c0" stroke-width="2" points="403.2096,-262.8908 404.7819,-252.4133 397.0189,-259.6235 403.2096,-262.8908"/>
</g>
<!-- 59&#45;&gt;63 -->
<g id="edge103" class="edge">
<title>59&#45;&gt;63</title>
<path fill="none" stroke="#c0c0c0" stroke-width="2" d="M370.5492,-287.9744C365.3964,-269.4858 359.8694,-240.1027 367.5,-216 370.5815,-206.2664 376.1183,-196.7695 382.0289,-188.5228"/>
<polygon fill="#c0c0c0" stroke="#c0c0c0" stroke-width="2" points="384.931,-190.49 388.2365,-180.4239 379.3752,-186.2316 384.931,-190.49"/>
</g>
<!-- 60 -->
<g id="node61" class="node">
<title>60</title>
<path fill="none" stroke="#56d882" stroke-width="2" d="M1567.5,-252C1567.5,-252 1515.5,-252 1515.5,-252 1509.5,-252 1503.5,-246 1503.5,-240 1503.5,-240 1503.5,-228 1503.5,-228 1503.5,-222 1509.5,-216 1515.5,-216 1515.5,-216 1567.5,-216 1567.5,-216 1573.5,-216 1579.5,-222 1579.5,-228 1579.5,-228 1579.5,-240 1579.5,-240 1579.5,-246 1573.5,-252 1567.5,-252"/>
<text text-anchor="middle" x="1541.5" y="-231.5" font-family="sans" font-size="10.00" fill="#000000">metadmg_dfit</text>
</g>
<!-- 60&#45;&gt;1 -->
<g id="edge25" class="edge">
<title>60&#45;&gt;1</title>
<path fill="none" stroke="#c0c0c0" stroke-width="2" d="M1523.2292,-215.7993C1500.5771,-194.4952 1459.7634,-160.085 1417.5,-144 1324.9623,-108.7812 1020.761,-95.0205 913.9658,-91.2005"/>
<polygon fill="#c0c0c0" stroke="#c0c0c0" stroke-width="2" points="913.7936,-87.6924 903.6777,-90.8416 913.5496,-94.6882 913.7936,-87.6924"/>
</g>
<!-- 64 -->
<g id="node65" class="node">
<title>64</title>
<path fill="none" stroke="#59d856" stroke-width="2" d="M1605,-180C1605,-180 1524,-180 1524,-180 1518,-180 1512,-174 1512,-168 1512,-168 1512,-156 1512,-156 1512,-150 1518,-144 1524,-144 1524,-144 1605,-144 1605,-144 1611,-144 1617,-150 1617,-156 1617,-156 1617,-168 1617,-168 1617,-174 1611,-180 1605,-180"/>
<text text-anchor="middle" x="1564.5" y="-159.5" font-family="sans" font-size="10.00" fill="#000000">metadmg_aggregate</text>
</g>
<!-- 60&#45;&gt;64 -->
<g id="edge106" class="edge">
<title>60&#45;&gt;64</title>
<path fill="none" stroke="#c0c0c0" stroke-width="2" d="M1547.3039,-215.8314C1549.7908,-208.0463 1552.7531,-198.7729 1555.5125,-190.1347"/>
<polygon fill="#c0c0c0" stroke="#c0c0c0" stroke-width="2" points="1558.909,-191.0041 1558.618,-180.4133 1552.2409,-188.874 1558.909,-191.0041"/>
</g>
<!-- 61&#45;&gt;60 -->
<g id="edge99" class="edge">
<title>61&#45;&gt;60</title>
<path fill="none" stroke="#c0c0c0" stroke-width="2" d="M1569.911,-287.8314C1565.6683,-279.7925 1560.5879,-270.1666 1555.904,-261.2918"/>
<polygon fill="#c0c0c0" stroke="#c0c0c0" stroke-width="2" points="1558.9811,-259.6235 1551.2181,-252.4133 1552.7904,-262.8908 1558.9811,-259.6235"/>
</g>
<!-- 61&#45;&gt;64 -->
<g id="edge105" class="edge">
<title>61&#45;&gt;64</title>
<path fill="none" stroke="#c0c0c0" stroke-width="2" d="M1584.548,-287.892C1588.8961,-269.5893 1593.7157,-240.5774 1588.5,-216 1586.6019,-207.0557 1583.1165,-197.7941 1579.3791,-189.5203"/>
<polygon fill="#c0c0c0" stroke="#c0c0c0" stroke-width="2" points="1582.4495,-187.8294 1574.9559,-180.3395 1576.1432,-190.8676 1582.4495,-187.8294"/>
</g>
<!-- 62&#45;&gt;0 -->
<g id="edge5" class="edge">
<title>62&#45;&gt;0</title>
<path fill="none" stroke="#c0c0c0" stroke-width="2" d="M706.8464,-143.8301C737.1292,-123.0552 790.0504,-89.6485 840.5,-72 945.7906,-35.1667 1078.3347,-23.3275 1141.9952,-19.6238"/>
<polygon fill="#c0c0c0" stroke="#c0c0c0" stroke-width="2" points="1142.5392,-23.0994 1152.3335,-19.0594 1142.1576,-16.1098 1142.5392,-23.0994"/>
</g>
<!-- 62&#45;&gt;1 -->
<g id="edge26" class="edge">
<title>62&#45;&gt;1</title>
<path fill="none" stroke="#c0c0c0" stroke-width="2" d="M730.455,-143.9243C764.4564,-131.3699 809.0326,-114.911 839.9529,-103.4943"/>
<polygon fill="#c0c0c0" stroke="#c0c0c0" stroke-width="2" points="841.3127,-106.7233 849.4813,-99.9761 838.888,-100.1566 841.3127,-106.7233"/>
</g>
<!-- 63&#45;&gt;0 -->
<g id="edge6" class="edge">
<title>63&#45;&gt;0</title>
<path fill="none" stroke="#c0c0c0" stroke-width="2" d="M458.2204,-146.5202C461.3563,-145.6535 464.4673,-144.8074 467.5,-144 598.7516,-109.0568 630.9598,-96.7993 764.5,-72 902.7149,-46.3326 1069.0655,-28.6175 1142.0694,-21.496"/>
<polygon fill="#c0c0c0" stroke="#c0c0c0" stroke-width="2" points="1142.5315,-24.9678 1152.1486,-20.5225 1141.8584,-18.0002 1142.5315,-24.9678"/>
</g>
<!-- 63&#45;&gt;1 -->
<g id="edge27" class="edge">
<title>63&#45;&gt;1</title>
<path fill="none" stroke="#c0c0c0" stroke-width="2" d="M458.0148,-147.2017C462.8926,-146.036 467.7761,-144.9461 472.5,-144 542.5202,-129.9761 753.2514,-104.4998 839.2955,-94.3463"/>
<polygon fill="#c0c0c0" stroke="#c0c0c0" stroke-width="2" points="839.8698,-97.803 849.392,-93.1578 839.0514,-90.851 839.8698,-97.803"/>
</g>
<!-- 64&#45;&gt;0 -->
<g id="edge7" class="edge">
<title>64&#45;&gt;0</title>
<path fill="none" stroke="#c0c0c0" stroke-width="2" d="M1534.285,-143.9464C1499.9525,-124.0571 1441.7616,-92.2164 1388.5,-72 1330.0751,-49.8237 1259.0874,-33.6261 1216.6917,-25.0275"/>
<polygon fill="#c0c0c0" stroke="#c0c0c0" stroke-width="2" points="1217.3025,-21.5804 1206.811,-23.0564 1215.9331,-28.4452 1217.3025,-21.5804"/>
</g>
<!-- 64&#45;&gt;1 -->
<g id="edge28" class="edge">
<title>64&#45;&gt;1</title>
<path fill="none" stroke="#c0c0c0" stroke-width="2" d="M1511.7437,-152.1347C1495.073,-149.2382 1476.5529,-146.248 1459.5,-144 1254.0244,-116.9131 1006.0332,-98.7189 913.5908,-92.4343"/>
<polygon fill="#c0c0c0" stroke="#c0c0c0" stroke-width="2" points="913.82,-88.9419 903.6071,-91.761 913.3489,-95.9261 913.82,-88.9419"/>
</g>
<!-- 65&#45;&gt;0 -->
<g id="edge2" class="edge">
<title>65&#45;&gt;0</title>
<path fill="none" stroke="#c0c0c0" stroke-width="2" d="M1314.1994,-372.0601C1420.3475,-363.0413 1603.0365,-344.734 1625.5,-324 1655.6101,-296.208 1645.5,-274.9758 1645.5,-234 1645.5,-234 1645.5,-234 1645.5,-162 1645.5,-72.3809 1326.9099,-32.5152 1216.5778,-21.3963"/>
<polygon fill="#c0c0c0" stroke="#c0c0c0" stroke-width="2" points="1216.8636,-17.9076 1206.5684,-20.4093 1216.1766,-24.8738 1216.8636,-17.9076"/>
</g>
<!-- 66&#45;&gt;0 -->
<g id="edge3" class="edge">
<title>66&#45;&gt;0</title>
<path fill="none" stroke="#c0c0c0" stroke-width="2" d="M448.201,-76.517C459.0197,-74.8427 470.0275,-73.2747 480.5,-72 732.5224,-41.3238 1037.9087,-24.7872 1142.3844,-19.7141"/>
<polygon fill="#c0c0c0" stroke="#c0c0c0" stroke-width="2" points="1142.6067,-23.2075 1152.4273,-19.2318 1142.2709,-16.2156 1142.6067,-23.2075"/>
</g>
<!-- 67&#45;&gt;0 -->
<g id="edge4" class="edge">
<title>67&#45;&gt;0</title>
<path fill="none" stroke="#c0c0c0" stroke-width="2" d="M1799.5,-359.8146C1799.5,-332.4983 1799.5,-279.25 1799.5,-234 1799.5,-234 1799.5,-234 1799.5,-162 1799.5,-98.488 1747.1581,-96.3518 1688.5,-72 1602.9905,-36.5009 1319.4503,-23.0147 1216.9144,-19.2255"/>
<polygon fill="#c0c0c0" stroke="#c0c0c0" stroke-width="2" points="1216.8446,-15.7208 1206.7252,-18.8591 1216.593,-22.7163 1216.8446,-15.7208"/>
</g>
<!-- 68&#45;&gt;0 -->
<g id="edge8" class="edge">
<title>68&#45;&gt;0</title>
<path fill="none" stroke="#c0c0c0" stroke-width="2" d="M1293.144,-71.8314C1269.4911,-60.6274 1239.3302,-46.3406 1216.0247,-35.3012"/>
<polygon fill="#c0c0c0" stroke="#c0c0c0" stroke-width="2" points="1217.3529,-32.0575 1206.8172,-30.9397 1214.3562,-38.3837 1217.3529,-32.0575"/>
</g>
<!-- 69&#45;&gt;0 -->
<g id="edge9" class="edge">
<title>69&#45;&gt;0</title>
<path fill="none" stroke="#c0c0c0" stroke-width="2" d="M587.2103,-84.4708C618.6781,-80.9025 660.508,-76.1661 697.5,-72 863.265,-53.3315 1061.118,-31.2187 1142.1292,-22.1718"/>
<polygon fill="#c0c0c0" stroke="#c0c0c0" stroke-width="2" points="1142.7711,-25.622 1152.3209,-21.0338 1141.9942,-18.6652 1142.7711,-25.622"/>
</g>
<!-- 70&#45;&gt;0 -->
<g id="edge10" class="edge">
<title>70&#45;&gt;0</title>
<path fill="none" stroke="#c0c0c0" stroke-width="2" d="M1723.8149,-287.882C1725.9492,-243.3174 1724.592,-127.9388 1659.5,-72 1626.0704,-43.2712 1323.7874,-25.308 1216.8097,-19.805"/>
<polygon fill="#c0c0c0" stroke="#c0c0c0" stroke-width="2" points="1216.9541,-16.3079 1206.7896,-19.2967 1216.5994,-23.2989 1216.9541,-16.3079"/>
</g>
</g>
</svg>
