<?xml version="1.0" encoding="UTF-8" standalone="no"?>
<!DOCTYPE svg PUBLIC "-//W3C//DTD SVG 1.1//EN"
 "http://www.w3.org/Graphics/SVG/1.1/DTD/svg11.dtd">
<!-- Generated by graphviz version 2.40.1 (0)
 -->
<!-- Title: snakemake_dag Pages: 1 -->
<svg width="1989pt" height="885pt"
 viewBox="0.00 0.00 1989.00 885.00" xmlns="http://www.w3.org/2000/svg" xmlns:xlink="http://www.w3.org/1999/xlink">
<g id="graph0" class="graph" transform="scale(1 1) rotate(0) translate(4 881)">
<title>snakemake_dag</title>
<polygon fill="#ffffff" stroke="transparent" points="-4,4 -4,-881 1985,-881 1985,4 -4,4"/>
<!-- 0 -->
<g id="node1" class="node">
<title>0</title>
<path fill="none" stroke="#b6d856" stroke-width="2" d="M1194.5,-36C1194.5,-36 1164.5,-36 1164.5,-36 1158.5,-36 1152.5,-30 1152.5,-24 1152.5,-24 1152.5,-12 1152.5,-12 1152.5,-6 1158.5,0 1164.5,0 1164.5,0 1194.5,0 1194.5,0 1200.5,0 1206.5,-6 1206.5,-12 1206.5,-12 1206.5,-24 1206.5,-24 1206.5,-30 1200.5,-36 1194.5,-36"/>
<text text-anchor="middle" x="1179.5" y="-15.5" font-family="sans" font-size="10.00" fill="#000000">all</text>
</g>
<!-- 1 -->
<g id="node2" class="node">
<title>1</title>
<path fill="none" stroke="#56d86b" stroke-width="2" d="M891.5,-108C891.5,-108 861.5,-108 861.5,-108 855.5,-108 849.5,-102 849.5,-96 849.5,-96 849.5,-84 849.5,-84 849.5,-78 855.5,-72 861.5,-72 861.5,-72 891.5,-72 891.5,-72 897.5,-72 903.5,-78 903.5,-84 903.5,-84 903.5,-96 903.5,-96 903.5,-102 897.5,-108 891.5,-108"/>
<text text-anchor="middle" x="876.5" y="-87.5" font-family="sans" font-size="10.00" fill="#000000">multiqc</text>
</g>
<!-- 1&#45;&gt;0 -->
<g id="edge1" class="edge">
<title>1&#45;&gt;0</title>
<path fill="none" stroke="#c0c0c0" stroke-width="2" d="M903.6559,-83.5471C958.032,-70.6261 1080.3518,-41.56 1142.195,-26.8645"/>
<polygon fill="#c0c0c0" stroke="#c0c0c0" stroke-width="2" points="1143.3762,-30.1814 1152.2961,-24.4643 1141.7578,-23.3711 1143.3762,-30.1814"/>
</g>
<!-- 2 -->
<g id="node3" class="node">
<title>2</title>
<path fill="none" stroke="#56d882" stroke-width="2" d="M617,-877C617,-877 510,-877 510,-877 504,-877 498,-871 498,-865 498,-865 498,-804 498,-804 498,-798 504,-792 510,-792 510,-792 617,-792 617,-792 623,-792 629,-798 629,-804 629,-804 629,-865 629,-865 629,-871 623,-877 617,-877"/>
<text text-anchor="middle" x="563.5" y="-865" font-family="sans" font-size="10.00" fill="#000000">shard_bowtie2</text>
<text text-anchor="middle" x="563.5" y="-854" font-family="sans" font-size="10.00" fill="#000000">library: lib2</text>
<text text-anchor="middle" x="563.5" y="-843" font-family="sans" font-size="10.00" fill="#000000">n_shard: 1</text>
<text text-anchor="middle" x="563.5" y="-832" font-family="sans" font-size="10.00" fill="#000000">read_type_map: collapsed</text>
<text text-anchor="middle" x="563.5" y="-821" font-family="sans" font-size="10.00" fill="#000000">ref: refseq_mitochondrion</text>
<text text-anchor="middle" x="563.5" y="-810" font-family="sans" font-size="10.00" fill="#000000">sample: HD827sonic_2</text>
<text text-anchor="middle" x="563.5" y="-799" font-family="sans" font-size="10.00" fill="#000000">tot_shards: 1</text>
</g>
<!-- 2&#45;&gt;1 -->
<g id="edge11" class="edge">
<title>2&#45;&gt;1</title>
<path fill="none" stroke="#c0c0c0" stroke-width="2" d="M593.4876,-791.8632C600.8468,-780.4884 608.3647,-768.0133 614.5,-756 684.7005,-618.5434 683.7513,-575.9253 739.5,-432 739.8875,-430.9995 851.08,-144.9873 851.5,-144 855.2025,-135.2972 859.4539,-125.9131 863.3882,-117.4479"/>
<polygon fill="#c0c0c0" stroke="#c0c0c0" stroke-width="2" points="866.5702,-118.906 867.6493,-108.3663 860.2331,-115.9326 866.5702,-118.906"/>
</g>
<!-- 47 -->
<g id="node48" class="node">
<title>47</title>
<path fill="none" stroke="#56d8c9" stroke-width="2" d="M426,-756C426,-756 357,-756 357,-756 351,-756 345,-750 345,-744 345,-744 345,-732 345,-732 345,-726 351,-720 357,-720 357,-720 426,-720 426,-720 432,-720 438,-726 438,-732 438,-732 438,-744 438,-744 438,-750 432,-756 426,-756"/>
<text text-anchor="middle" x="391.5" y="-735.5" font-family="sans" font-size="10.00" fill="#000000">shard_count_alns</text>
</g>
<!-- 2&#45;&gt;47 -->
<g id="edge84" class="edge">
<title>2&#45;&gt;47</title>
<path fill="none" stroke="#c0c0c0" stroke-width="2" d="M497.7669,-796.6676C494.9761,-795.0868 492.2115,-793.5255 489.5,-792 471.1902,-781.6986 450.8606,-770.4637 433.4856,-760.9225"/>
<polygon fill="#c0c0c0" stroke="#c0c0c0" stroke-width="2" points="435.1462,-757.8414 424.6952,-756.1013 431.78,-763.9789 435.1462,-757.8414"/>
</g>
<!-- 55 -->
<g id="node56" class="node">
<title>55</title>
<path fill="none" stroke="#569ad8" stroke-width="2" d="M522,-612C522,-612 393,-612 393,-612 387,-612 381,-606 381,-600 381,-600 381,-588 381,-588 381,-582 387,-576 393,-576 393,-576 522,-576 522,-576 528,-576 534,-582 534,-588 534,-588 534,-600 534,-600 534,-606 528,-612 522,-612"/>
<text text-anchor="middle" x="457.5" y="-591.5" font-family="sans" font-size="10.00" fill="#000000">shard_saturated_reads_remove</text>
</g>
<!-- 2&#45;&gt;55 -->
<g id="edge93" class="edge">
<title>2&#45;&gt;55</title>
<path fill="none" stroke="#c0c0c0" stroke-width="2" d="M553.5616,-791.6582C543.4879,-752.6912 525.7739,-694.3601 500.5,-648 495.1966,-638.2719 488.1155,-628.5274 481.2324,-620.047"/>
<polygon fill="#c0c0c0" stroke="#c0c0c0" stroke-width="2" points="483.8722,-617.748 474.7583,-612.3455 478.5139,-622.2524 483.8722,-617.748"/>
</g>
<!-- 3 -->
<g id="node4" class="node">
<title>3</title>
<path fill="none" stroke="#56d882" stroke-width="2" d="M956,-877C956,-877 849,-877 849,-877 843,-877 837,-871 837,-865 837,-865 837,-804 837,-804 837,-798 843,-792 849,-792 849,-792 956,-792 956,-792 962,-792 968,-798 968,-804 968,-804 968,-865 968,-865 968,-871 962,-877 956,-877"/>
<text text-anchor="middle" x="902.5" y="-865" font-family="sans" font-size="10.00" fill="#000000">shard_bowtie2</text>
<text text-anchor="middle" x="902.5" y="-854" font-family="sans" font-size="10.00" fill="#000000">library: lib1</text>
<text text-anchor="middle" x="902.5" y="-843" font-family="sans" font-size="10.00" fill="#000000">n_shard: 1</text>
<text text-anchor="middle" x="902.5" y="-832" font-family="sans" font-size="10.00" fill="#000000">read_type_map: collapsed</text>
<text text-anchor="middle" x="902.5" y="-821" font-family="sans" font-size="10.00" fill="#000000">ref: wgs_eukaryota</text>
<text text-anchor="middle" x="902.5" y="-810" font-family="sans" font-size="10.00" fill="#000000">sample: HD827sonic_1</text>
<text text-anchor="middle" x="902.5" y="-799" font-family="sans" font-size="10.00" fill="#000000">tot_shards: 2</text>
</g>
<!-- 3&#45;&gt;1 -->
<g id="edge12" class="edge">
<title>3&#45;&gt;1</title>
<path fill="none" stroke="#c0c0c0" stroke-width="2" d="M836.8159,-807.5524C813.4728,-795.0183 788.936,-777.9476 772.5,-756 732.8236,-703.0187 743.0152,-677.6409 734.5,-612 723.6334,-528.2329 752.7348,-504.8433 795.5,-432 805.7622,-414.52 813.3937,-413.5706 823.5,-396 840.7004,-366.0957 844.2142,-357.4883 852.5,-324 870.4869,-251.3033 875.0198,-162.6846 876.1441,-118.2571"/>
<polygon fill="#c0c0c0" stroke="#c0c0c0" stroke-width="2" points="879.6444,-118.275 876.3583,-108.2027 872.646,-118.1258 879.6444,-118.275"/>
</g>
<!-- 15 -->
<g id="node16" class="node">
<title>15</title>
<path fill="none" stroke="#569ad8" stroke-width="2" d="M1055,-612C1055,-612 926,-612 926,-612 920,-612 914,-606 914,-600 914,-600 914,-588 914,-588 914,-582 920,-576 926,-576 926,-576 1055,-576 1055,-576 1061,-576 1067,-582 1067,-588 1067,-588 1067,-600 1067,-600 1067,-606 1061,-612 1055,-612"/>
<text text-anchor="middle" x="990.5" y="-591.5" font-family="sans" font-size="10.00" fill="#000000">shard_saturated_reads_remove</text>
</g>
<!-- 3&#45;&gt;15 -->
<g id="edge35" class="edge">
<title>3&#45;&gt;15</title>
<path fill="none" stroke="#c0c0c0" stroke-width="2" d="M897.7056,-791.7097C895.284,-751.9853 896.9745,-692.4554 921.5,-648 927.9995,-636.2188 938.2451,-626.1322 948.8722,-617.9756"/>
<polygon fill="#c0c0c0" stroke="#c0c0c0" stroke-width="2" points="950.942,-620.7982 957.0173,-612.1183 946.8551,-615.115 950.942,-620.7982"/>
</g>
<!-- 18 -->
<g id="node19" class="node">
<title>18</title>
<path fill="none" stroke="#56d8c9" stroke-width="2" d="M1012,-756C1012,-756 943,-756 943,-756 937,-756 931,-750 931,-744 931,-744 931,-732 931,-732 931,-726 937,-720 943,-720 943,-720 1012,-720 1012,-720 1018,-720 1024,-726 1024,-732 1024,-732 1024,-744 1024,-744 1024,-750 1018,-756 1012,-756"/>
<text text-anchor="middle" x="977.5" y="-735.5" font-family="sans" font-size="10.00" fill="#000000">shard_count_alns</text>
</g>
<!-- 3&#45;&gt;18 -->
<g id="edge41" class="edge">
<title>3&#45;&gt;18</title>
<path fill="none" stroke="#c0c0c0" stroke-width="2" d="M935.6144,-791.8928C942.9133,-782.5016 950.4368,-772.8213 957.0586,-764.3013"/>
<polygon fill="#c0c0c0" stroke="#c0c0c0" stroke-width="2" points="959.9649,-766.2653 963.338,-756.2218 954.4379,-761.9697 959.9649,-766.2653"/>
</g>
<!-- 4 -->
<g id="node5" class="node">
<title>4</title>
<path fill="none" stroke="#56d882" stroke-width="2" d="M1434,-877C1434,-877 1327,-877 1327,-877 1321,-877 1315,-871 1315,-865 1315,-865 1315,-804 1315,-804 1315,-798 1321,-792 1327,-792 1327,-792 1434,-792 1434,-792 1440,-792 1446,-798 1446,-804 1446,-804 1446,-865 1446,-865 1446,-871 1440,-877 1434,-877"/>
<text text-anchor="middle" x="1380.5" y="-865" font-family="sans" font-size="10.00" fill="#000000">shard_bowtie2</text>
<text text-anchor="middle" x="1380.5" y="-854" font-family="sans" font-size="10.00" fill="#000000">library: lib1</text>
<text text-anchor="middle" x="1380.5" y="-843" font-family="sans" font-size="10.00" fill="#000000">n_shard: 1</text>
<text text-anchor="middle" x="1380.5" y="-832" font-family="sans" font-size="10.00" fill="#000000">read_type_map: collapsed</text>
<text text-anchor="middle" x="1380.5" y="-821" font-family="sans" font-size="10.00" fill="#000000">ref: wgs_eukaryota</text>
<text text-anchor="middle" x="1380.5" y="-810" font-family="sans" font-size="10.00" fill="#000000">sample: HD827sonic_2</text>
<text text-anchor="middle" x="1380.5" y="-799" font-family="sans" font-size="10.00" fill="#000000">tot_shards: 2</text>
</g>
<!-- 4&#45;&gt;1 -->
<g id="edge13" class="edge">
<title>4&#45;&gt;1</title>
<path fill="none" stroke="#c0c0c0" stroke-width="2" d="M1365.3722,-791.8083C1354.7752,-758.0983 1342.5,-709.6328 1342.5,-666 1342.5,-666 1342.5,-666 1342.5,-450 1342.5,-279.5992 1260.191,-227.2312 1111.5,-144 1047.8612,-108.3776 962.0043,-96.2309 913.6426,-92.1055"/>
<polygon fill="#c0c0c0" stroke="#c0c0c0" stroke-width="2" points="913.8689,-88.6126 903.6261,-91.3209 913.3222,-95.5912 913.8689,-88.6126"/>
</g>
<!-- 30 -->
<g id="node31" class="node">
<title>30</title>
<path fill="none" stroke="#569ad8" stroke-width="2" d="M1588,-612C1588,-612 1459,-612 1459,-612 1453,-612 1447,-606 1447,-600 1447,-600 1447,-588 1447,-588 1447,-582 1453,-576 1459,-576 1459,-576 1588,-576 1588,-576 1594,-576 1600,-582 1600,-588 1600,-588 1600,-600 1600,-600 1600,-606 1594,-612 1588,-612"/>
<text text-anchor="middle" x="1523.5" y="-591.5" font-family="sans" font-size="10.00" fill="#000000">shard_saturated_reads_remove</text>
</g>
<!-- 4&#45;&gt;30 -->
<g id="edge57" class="edge">
<title>4&#45;&gt;30</title>
<path fill="none" stroke="#c0c0c0" stroke-width="2" d="M1400.4821,-791.9533C1411.1377,-770.0988 1424.842,-743.2477 1438.5,-720 1459.3045,-684.5879 1486.2323,-645.6591 1504.1467,-620.5806"/>
<polygon fill="#c0c0c0" stroke="#c0c0c0" stroke-width="2" points="1507.0916,-622.48 1510.0825,-612.3161 1501.4061,-618.3965 1507.0916,-622.48"/>
</g>
<!-- 33 -->
<g id="node34" class="node">
<title>33</title>
<path fill="none" stroke="#56d8c9" stroke-width="2" d="M1528,-756C1528,-756 1459,-756 1459,-756 1453,-756 1447,-750 1447,-744 1447,-744 1447,-732 1447,-732 1447,-726 1453,-720 1459,-720 1459,-720 1528,-720 1528,-720 1534,-720 1540,-726 1540,-732 1540,-732 1540,-744 1540,-744 1540,-750 1534,-756 1528,-756"/>
<text text-anchor="middle" x="1493.5" y="-735.5" font-family="sans" font-size="10.00" fill="#000000">shard_count_alns</text>
</g>
<!-- 4&#45;&gt;33 -->
<g id="edge63" class="edge">
<title>4&#45;&gt;33</title>
<path fill="none" stroke="#c0c0c0" stroke-width="2" d="M1430.3924,-791.8928C1442.0766,-781.9147 1454.1431,-771.6101 1464.5559,-762.7178"/>
<polygon fill="#c0c0c0" stroke="#c0c0c0" stroke-width="2" points="1466.831,-765.3774 1472.1626,-756.2218 1462.2852,-760.0543 1466.831,-765.3774"/>
</g>
<!-- 5 -->
<g id="node6" class="node">
<title>5</title>
<path fill="none" stroke="#56d882" stroke-width="2" d="M1622,-877C1622,-877 1515,-877 1515,-877 1509,-877 1503,-871 1503,-865 1503,-865 1503,-804 1503,-804 1503,-798 1509,-792 1515,-792 1515,-792 1622,-792 1622,-792 1628,-792 1634,-798 1634,-804 1634,-804 1634,-865 1634,-865 1634,-871 1628,-877 1622,-877"/>
<text text-anchor="middle" x="1568.5" y="-865" font-family="sans" font-size="10.00" fill="#000000">shard_bowtie2</text>
<text text-anchor="middle" x="1568.5" y="-854" font-family="sans" font-size="10.00" fill="#000000">library: lib1</text>
<text text-anchor="middle" x="1568.5" y="-843" font-family="sans" font-size="10.00" fill="#000000">n_shard: 2</text>
<text text-anchor="middle" x="1568.5" y="-832" font-family="sans" font-size="10.00" fill="#000000">read_type_map: collapsed</text>
<text text-anchor="middle" x="1568.5" y="-821" font-family="sans" font-size="10.00" fill="#000000">ref: wgs_eukaryota</text>
<text text-anchor="middle" x="1568.5" y="-810" font-family="sans" font-size="10.00" fill="#000000">sample: HD827sonic_2</text>
<text text-anchor="middle" x="1568.5" y="-799" font-family="sans" font-size="10.00" fill="#000000">tot_shards: 2</text>
</g>
<!-- 5&#45;&gt;1 -->
<g id="edge14" class="edge">
<title>5&#45;&gt;1</title>
<path fill="none" stroke="#c0c0c0" stroke-width="2" d="M1502.7897,-806.2365C1479.8613,-793.6679 1455.6117,-776.9164 1438.5,-756 1390.0758,-696.8089 1380.5,-670.4754 1380.5,-594 1380.5,-594 1380.5,-594 1380.5,-450 1380.5,-281.1924 1311.6577,-208.1152 1155.5,-144 1073.3492,-110.2705 968.7896,-97.2764 913.9477,-92.5338"/>
<polygon fill="#c0c0c0" stroke="#c0c0c0" stroke-width="2" points="913.9159,-89.0196 903.6636,-91.6916 913.3445,-95.9962 913.9159,-89.0196"/>
</g>
<!-- 34 -->
<g id="node35" class="node">
<title>34</title>
<path fill="none" stroke="#56d8c9" stroke-width="2" d="M1716,-756C1716,-756 1647,-756 1647,-756 1641,-756 1635,-750 1635,-744 1635,-744 1635,-732 1635,-732 1635,-726 1641,-720 1647,-720 1647,-720 1716,-720 1716,-720 1722,-720 1728,-726 1728,-732 1728,-732 1728,-744 1728,-744 1728,-750 1722,-756 1716,-756"/>
<text text-anchor="middle" x="1681.5" y="-735.5" font-family="sans" font-size="10.00" fill="#000000">shard_count_alns</text>
</g>
<!-- 5&#45;&gt;34 -->
<g id="edge64" class="edge">
<title>5&#45;&gt;34</title>
<path fill="none" stroke="#c0c0c0" stroke-width="2" d="M1618.3924,-791.8928C1630.0766,-781.9147 1642.1431,-771.6101 1652.5559,-762.7178"/>
<polygon fill="#c0c0c0" stroke="#c0c0c0" stroke-width="2" points="1654.831,-765.3774 1660.1626,-756.2218 1650.2852,-760.0543 1654.831,-765.3774"/>
</g>
<!-- 37 -->
<g id="node38" class="node">
<title>37</title>
<path fill="none" stroke="#569ad8" stroke-width="2" d="M1759,-612C1759,-612 1630,-612 1630,-612 1624,-612 1618,-606 1618,-600 1618,-600 1618,-588 1618,-588 1618,-582 1624,-576 1630,-576 1630,-576 1759,-576 1759,-576 1765,-576 1771,-582 1771,-588 1771,-588 1771,-600 1771,-600 1771,-606 1765,-612 1759,-612"/>
<text text-anchor="middle" x="1694.5" y="-591.5" font-family="sans" font-size="10.00" fill="#000000">shard_saturated_reads_remove</text>
</g>
<!-- 5&#45;&gt;37 -->
<g id="edge67" class="edge">
<title>5&#45;&gt;37</title>
<path fill="none" stroke="#c0c0c0" stroke-width="2" d="M1574.0466,-791.6755C1580.884,-751.6543 1595.5083,-691.681 1625.5,-648 1633.3218,-636.608 1644.2812,-626.5012 1655.1663,-618.202"/>
<polygon fill="#c0c0c0" stroke="#c0c0c0" stroke-width="2" points="1657.3806,-620.9197 1663.4226,-612.2165 1653.272,-615.2523 1657.3806,-620.9197"/>
</g>
<!-- 6 -->
<g id="node7" class="node">
<title>6</title>
<path fill="none" stroke="#56d882" stroke-width="2" d="M1846,-877C1846,-877 1739,-877 1739,-877 1733,-877 1727,-871 1727,-865 1727,-865 1727,-804 1727,-804 1727,-798 1733,-792 1739,-792 1739,-792 1846,-792 1846,-792 1852,-792 1858,-798 1858,-804 1858,-804 1858,-865 1858,-865 1858,-871 1852,-877 1846,-877"/>
<text text-anchor="middle" x="1792.5" y="-865" font-family="sans" font-size="10.00" fill="#000000">shard_bowtie2</text>
<text text-anchor="middle" x="1792.5" y="-854" font-family="sans" font-size="10.00" fill="#000000">library: lib1</text>
<text text-anchor="middle" x="1792.5" y="-843" font-family="sans" font-size="10.00" fill="#000000">n_shard: 1</text>
<text text-anchor="middle" x="1792.5" y="-832" font-family="sans" font-size="10.00" fill="#000000">read_type_map: collapsed</text>
<text text-anchor="middle" x="1792.5" y="-821" font-family="sans" font-size="10.00" fill="#000000">ref: refseq_mitochondrion</text>
<text text-anchor="middle" x="1792.5" y="-810" font-family="sans" font-size="10.00" fill="#000000">sample: HD827sonic_2</text>
<text text-anchor="middle" x="1792.5" y="-799" font-family="sans" font-size="10.00" fill="#000000">tot_shards: 1</text>
</g>
<!-- 6&#45;&gt;1 -->
<g id="edge15" class="edge">
<title>6&#45;&gt;1</title>
<path fill="none" stroke="#c0c0c0" stroke-width="2" d="M1726.9908,-807.3805C1695.7535,-793.4878 1658.3433,-775.4219 1626.5,-756 1507.7052,-683.5447 1418.5,-661.1473 1418.5,-522 1418.5,-522 1418.5,-522 1418.5,-450 1418.5,-284.2961 1360.1687,-203.4589 1205.5,-144 1104.8862,-105.3213 976.5548,-94.3403 914.0747,-91.2278"/>
<polygon fill="#c0c0c0" stroke="#c0c0c0" stroke-width="2" points="914.0599,-87.7235 903.9103,-90.7628 913.7399,-94.7162 914.0599,-87.7235"/>
</g>
<!-- 32 -->
<g id="node33" class="node">
<title>32</title>
<path fill="none" stroke="#56d8c9" stroke-width="2" d="M1827,-756C1827,-756 1758,-756 1758,-756 1752,-756 1746,-750 1746,-744 1746,-744 1746,-732 1746,-732 1746,-726 1752,-720 1758,-720 1758,-720 1827,-720 1827,-720 1833,-720 1839,-726 1839,-732 1839,-732 1839,-744 1839,-744 1839,-750 1833,-756 1827,-756"/>
<text text-anchor="middle" x="1792.5" y="-735.5" font-family="sans" font-size="10.00" fill="#000000">shard_count_alns</text>
</g>
<!-- 6&#45;&gt;32 -->
<g id="edge62" class="edge">
<title>6&#45;&gt;32</title>
<path fill="none" stroke="#c0c0c0" stroke-width="2" d="M1792.5,-791.8928C1792.5,-783.2842 1792.5,-774.4327 1792.5,-766.4546"/>
<polygon fill="#c0c0c0" stroke="#c0c0c0" stroke-width="2" points="1796.0001,-766.2218 1792.5,-756.2218 1789.0001,-766.2218 1796.0001,-766.2218"/>
</g>
<!-- 40 -->
<g id="node41" class="node">
<title>40</title>
<path fill="none" stroke="#569ad8" stroke-width="2" d="M1969,-612C1969,-612 1840,-612 1840,-612 1834,-612 1828,-606 1828,-600 1828,-600 1828,-588 1828,-588 1828,-582 1834,-576 1840,-576 1840,-576 1969,-576 1969,-576 1975,-576 1981,-582 1981,-588 1981,-588 1981,-600 1981,-600 1981,-606 1975,-612 1969,-612"/>
<text text-anchor="middle" x="1904.5" y="-591.5" font-family="sans" font-size="10.00" fill="#000000">shard_saturated_reads_remove</text>
</g>
<!-- 6&#45;&gt;40 -->
<g id="edge71" class="edge">
<title>6&#45;&gt;40</title>
<path fill="none" stroke="#c0c0c0" stroke-width="2" d="M1826.2221,-791.911C1834.1996,-780.6385 1842.2068,-768.2 1848.5,-756 1871.5194,-711.3742 1888.5227,-655.195 1897.4398,-622.081"/>
<polygon fill="#c0c0c0" stroke="#c0c0c0" stroke-width="2" points="1900.884,-622.7458 1900.0482,-612.184 1894.1151,-620.9618 1900.884,-622.7458"/>
</g>
<!-- 7 -->
<g id="node8" class="node">
<title>7</title>
<path fill="none" stroke="#56d882" stroke-width="2" d="M468,-877C468,-877 361,-877 361,-877 355,-877 349,-871 349,-865 349,-865 349,-804 349,-804 349,-798 355,-792 361,-792 361,-792 468,-792 468,-792 474,-792 480,-798 480,-804 480,-804 480,-865 480,-865 480,-871 474,-877 468,-877"/>
<text text-anchor="middle" x="414.5" y="-865" font-family="sans" font-size="10.00" fill="#000000">shard_bowtie2</text>
<text text-anchor="middle" x="414.5" y="-854" font-family="sans" font-size="10.00" fill="#000000">library: lib2</text>
<text text-anchor="middle" x="414.5" y="-843" font-family="sans" font-size="10.00" fill="#000000">n_shard: 2</text>
<text text-anchor="middle" x="414.5" y="-832" font-family="sans" font-size="10.00" fill="#000000">read_type_map: collapsed</text>
<text text-anchor="middle" x="414.5" y="-821" font-family="sans" font-size="10.00" fill="#000000">ref: wgs_eukaryota</text>
<text text-anchor="middle" x="414.5" y="-810" font-family="sans" font-size="10.00" fill="#000000">sample: HD827sonic_2</text>
<text text-anchor="middle" x="414.5" y="-799" font-family="sans" font-size="10.00" fill="#000000">tot_shards: 2</text>
</g>
<!-- 7&#45;&gt;1 -->
<g id="edge16" class="edge">
<title>7&#45;&gt;1</title>
<path fill="none" stroke="#c0c0c0" stroke-width="2" d="M479.0318,-791.9135C532.753,-754.0638 600.5,-699.6594 600.5,-666 600.5,-666 600.5,-666 600.5,-234 600.5,-193.0242 591.37,-172.8177 620.5,-144 651.0118,-113.8153 775.9808,-98.7685 839.323,-92.9589"/>
<polygon fill="#c0c0c0" stroke="#c0c0c0" stroke-width="2" points="839.6504,-96.4437 849.3019,-92.0735 839.0317,-89.4711 839.6504,-96.4437"/>
</g>
<!-- 49 -->
<g id="node50" class="node">
<title>49</title>
<path fill="none" stroke="#56d8c9" stroke-width="2" d="M315,-756C315,-756 246,-756 246,-756 240,-756 234,-750 234,-744 234,-744 234,-732 234,-732 234,-726 240,-720 246,-720 246,-720 315,-720 315,-720 321,-720 327,-726 327,-732 327,-732 327,-744 327,-744 327,-750 321,-756 315,-756"/>
<text text-anchor="middle" x="280.5" y="-735.5" font-family="sans" font-size="10.00" fill="#000000">shard_count_alns</text>
</g>
<!-- 7&#45;&gt;49 -->
<g id="edge86" class="edge">
<title>7&#45;&gt;49</title>
<path fill="none" stroke="#c0c0c0" stroke-width="2" d="M355.3356,-791.8928C341.2083,-781.719 326.6097,-771.2059 314.099,-762.1963"/>
<polygon fill="#c0c0c0" stroke="#c0c0c0" stroke-width="2" points="315.9629,-759.2255 305.8028,-756.2218 311.8722,-764.9058 315.9629,-759.2255"/>
</g>
<!-- 52 -->
<g id="node53" class="node">
<title>52</title>
<path fill="none" stroke="#569ad8" stroke-width="2" d="M351,-612C351,-612 222,-612 222,-612 216,-612 210,-606 210,-600 210,-600 210,-588 210,-588 210,-582 216,-576 222,-576 222,-576 351,-576 351,-576 357,-576 363,-582 363,-588 363,-588 363,-600 363,-600 363,-606 357,-612 351,-612"/>
<text text-anchor="middle" x="286.5" y="-591.5" font-family="sans" font-size="10.00" fill="#000000">shard_saturated_reads_remove</text>
</g>
<!-- 7&#45;&gt;52 -->
<g id="edge89" class="edge">
<title>7&#45;&gt;52</title>
<path fill="none" stroke="#c0c0c0" stroke-width="2" d="M441.0431,-791.9745C451.32,-769.881 458.308,-742.8076 447.5,-720 424.9155,-672.3412 374.3089,-637.5587 335.818,-616.761"/>
<polygon fill="#c0c0c0" stroke="#c0c0c0" stroke-width="2" points="337.2951,-613.5834 326.8149,-612.0292 334.0385,-619.7797 337.2951,-613.5834"/>
</g>
<!-- 8 -->
<g id="node9" class="node">
<title>8</title>
<path fill="none" stroke="#56d882" stroke-width="2" d="M768,-877C768,-877 661,-877 661,-877 655,-877 649,-871 649,-865 649,-865 649,-804 649,-804 649,-798 655,-792 661,-792 661,-792 768,-792 768,-792 774,-792 780,-798 780,-804 780,-804 780,-865 780,-865 780,-871 774,-877 768,-877"/>
<text text-anchor="middle" x="714.5" y="-865" font-family="sans" font-size="10.00" fill="#000000">shard_bowtie2</text>
<text text-anchor="middle" x="714.5" y="-854" font-family="sans" font-size="10.00" fill="#000000">library: lib1</text>
<text text-anchor="middle" x="714.5" y="-843" font-family="sans" font-size="10.00" fill="#000000">n_shard: 2</text>
<text text-anchor="middle" x="714.5" y="-832" font-family="sans" font-size="10.00" fill="#000000">read_type_map: collapsed</text>
<text text-anchor="middle" x="714.5" y="-821" font-family="sans" font-size="10.00" fill="#000000">ref: wgs_eukaryota</text>
<text text-anchor="middle" x="714.5" y="-810" font-family="sans" font-size="10.00" fill="#000000">sample: HD827sonic_1</text>
<text text-anchor="middle" x="714.5" y="-799" font-family="sans" font-size="10.00" fill="#000000">tot_shards: 2</text>
</g>
<!-- 8&#45;&gt;1 -->
<g id="edge17" class="edge">
<title>8&#45;&gt;1</title>
<path fill="none" stroke="#c0c0c0" stroke-width="2" d="M716.3908,-791.9461C718.7253,-740.7025 722.9488,-652.029 727.5,-576 729.4168,-543.9803 724.6138,-535.0925 732.5,-504 754.1129,-418.788 784.9151,-406.7824 814.5,-324 840.4912,-251.2732 861.1157,-162.3796 870.6851,-118.0055"/>
<polygon fill="#c0c0c0" stroke="#c0c0c0" stroke-width="2" points="874.1087,-118.7329 872.7706,-108.2229 867.2625,-117.2734 874.1087,-118.7329"/>
</g>
<!-- 19 -->
<g id="node20" class="node">
<title>19</title>
<path fill="none" stroke="#56d8c9" stroke-width="2" d="M862,-756C862,-756 793,-756 793,-756 787,-756 781,-750 781,-744 781,-744 781,-732 781,-732 781,-726 787,-720 793,-720 793,-720 862,-720 862,-720 868,-720 874,-726 874,-732 874,-732 874,-744 874,-744 874,-750 868,-756 862,-756"/>
<text text-anchor="middle" x="827.5" y="-735.5" font-family="sans" font-size="10.00" fill="#000000">shard_count_alns</text>
</g>
<!-- 8&#45;&gt;19 -->
<g id="edge42" class="edge">
<title>8&#45;&gt;19</title>
<path fill="none" stroke="#c0c0c0" stroke-width="2" d="M764.3924,-791.8928C776.0766,-781.9147 788.1431,-771.6101 798.5559,-762.7178"/>
<polygon fill="#c0c0c0" stroke="#c0c0c0" stroke-width="2" points="800.831,-765.3774 806.1626,-756.2218 796.2852,-760.0543 800.831,-765.3774"/>
</g>
<!-- 22 -->
<g id="node23" class="node">
<title>22</title>
<path fill="none" stroke="#569ad8" stroke-width="2" d="M884,-612C884,-612 755,-612 755,-612 749,-612 743,-606 743,-600 743,-600 743,-588 743,-588 743,-582 749,-576 755,-576 755,-576 884,-576 884,-576 890,-576 896,-582 896,-588 896,-588 896,-600 896,-600 896,-606 890,-612 884,-612"/>
<text text-anchor="middle" x="819.5" y="-591.5" font-family="sans" font-size="10.00" fill="#000000">shard_saturated_reads_remove</text>
</g>
<!-- 8&#45;&gt;22 -->
<g id="edge45" class="edge">
<title>8&#45;&gt;22</title>
<path fill="none" stroke="#c0c0c0" stroke-width="2" d="M733.1509,-791.7805C754.6465,-742.5453 789.34,-663.0809 807.5166,-621.4476"/>
<polygon fill="#c0c0c0" stroke="#c0c0c0" stroke-width="2" points="810.7608,-622.7642 811.5545,-612.1991 804.3456,-619.9633 810.7608,-622.7642"/>
</g>
<!-- 9 -->
<g id="node10" class="node">
<title>9</title>
<path fill="none" stroke="#56d882" stroke-width="2" d="M1217,-877C1217,-877 1110,-877 1110,-877 1104,-877 1098,-871 1098,-865 1098,-865 1098,-804 1098,-804 1098,-798 1104,-792 1110,-792 1110,-792 1217,-792 1217,-792 1223,-792 1229,-798 1229,-804 1229,-804 1229,-865 1229,-865 1229,-871 1223,-877 1217,-877"/>
<text text-anchor="middle" x="1163.5" y="-865" font-family="sans" font-size="10.00" fill="#000000">shard_bowtie2</text>
<text text-anchor="middle" x="1163.5" y="-854" font-family="sans" font-size="10.00" fill="#000000">library: lib1</text>
<text text-anchor="middle" x="1163.5" y="-843" font-family="sans" font-size="10.00" fill="#000000">n_shard: 1</text>
<text text-anchor="middle" x="1163.5" y="-832" font-family="sans" font-size="10.00" fill="#000000">read_type_map: collapsed</text>
<text text-anchor="middle" x="1163.5" y="-821" font-family="sans" font-size="10.00" fill="#000000">ref: refseq_mitochondrion</text>
<text text-anchor="middle" x="1163.5" y="-810" font-family="sans" font-size="10.00" fill="#000000">sample: HD827sonic_1</text>
<text text-anchor="middle" x="1163.5" y="-799" font-family="sans" font-size="10.00" fill="#000000">tot_shards: 1</text>
</g>
<!-- 9&#45;&gt;1 -->
<g id="edge18" class="edge">
<title>9&#45;&gt;1</title>
<path fill="none" stroke="#c0c0c0" stroke-width="2" d="M1184.881,-791.9278C1205.6063,-748.0984 1235.6036,-677.1933 1247.5,-612 1250.3722,-596.2599 1251.0451,-591.6023 1247.5,-576 1231.7758,-506.796 1213.6037,-493.678 1178.5,-432 1168.9882,-415.2876 1162.0474,-413.6866 1154.5,-396 1138.4175,-358.3123 1134.5,-346.9758 1134.5,-306 1134.5,-306 1134.5,-306 1134.5,-234 1134.5,-134.0166 984.9363,-102.8071 913.5595,-93.6058"/>
<polygon fill="#c0c0c0" stroke="#c0c0c0" stroke-width="2" points="913.9712,-90.1302 903.6229,-92.4023 913.1295,-97.0794 913.9712,-90.1302"/>
</g>
<!-- 17 -->
<g id="node18" class="node">
<title>17</title>
<path fill="none" stroke="#56d8c9" stroke-width="2" d="M1123,-756C1123,-756 1054,-756 1054,-756 1048,-756 1042,-750 1042,-744 1042,-744 1042,-732 1042,-732 1042,-726 1048,-720 1054,-720 1054,-720 1123,-720 1123,-720 1129,-720 1135,-726 1135,-732 1135,-732 1135,-744 1135,-744 1135,-750 1129,-756 1123,-756"/>
<text text-anchor="middle" x="1088.5" y="-735.5" font-family="sans" font-size="10.00" fill="#000000">shard_count_alns</text>
</g>
<!-- 9&#45;&gt;17 -->
<g id="edge40" class="edge">
<title>9&#45;&gt;17</title>
<path fill="none" stroke="#c0c0c0" stroke-width="2" d="M1130.3856,-791.8928C1123.0867,-782.5016 1115.5632,-772.8213 1108.9414,-764.3013"/>
<polygon fill="#c0c0c0" stroke="#c0c0c0" stroke-width="2" points="1111.5621,-761.9697 1102.662,-756.2218 1106.0351,-766.2653 1111.5621,-761.9697"/>
</g>
<!-- 25 -->
<g id="node26" class="node">
<title>25</title>
<path fill="none" stroke="#569ad8" stroke-width="2" d="M1226,-612C1226,-612 1097,-612 1097,-612 1091,-612 1085,-606 1085,-600 1085,-600 1085,-588 1085,-588 1085,-582 1091,-576 1097,-576 1097,-576 1226,-576 1226,-576 1232,-576 1238,-582 1238,-588 1238,-588 1238,-600 1238,-600 1238,-606 1232,-612 1226,-612"/>
<text text-anchor="middle" x="1161.5" y="-591.5" font-family="sans" font-size="10.00" fill="#000000">shard_saturated_reads_remove</text>
</g>
<!-- 9&#45;&gt;25 -->
<g id="edge49" class="edge">
<title>9&#45;&gt;25</title>
<path fill="none" stroke="#c0c0c0" stroke-width="2" d="M1163.1447,-791.7805C1162.7379,-742.8569 1162.0828,-664.0855 1161.7349,-622.2427"/>
<polygon fill="#c0c0c0" stroke="#c0c0c0" stroke-width="2" points="1165.2345,-622.1696 1161.6513,-612.1991 1158.2347,-622.2279 1165.2345,-622.1696"/>
</g>
<!-- 10 -->
<g id="node11" class="node">
<title>10</title>
<path fill="none" stroke="#56d882" stroke-width="2" d="M223,-877C223,-877 116,-877 116,-877 110,-877 104,-871 104,-865 104,-865 104,-804 104,-804 104,-798 110,-792 116,-792 116,-792 223,-792 223,-792 229,-792 235,-798 235,-804 235,-804 235,-865 235,-865 235,-871 229,-877 223,-877"/>
<text text-anchor="middle" x="169.5" y="-865" font-family="sans" font-size="10.00" fill="#000000">shard_bowtie2</text>
<text text-anchor="middle" x="169.5" y="-854" font-family="sans" font-size="10.00" fill="#000000">library: lib2</text>
<text text-anchor="middle" x="169.5" y="-843" font-family="sans" font-size="10.00" fill="#000000">n_shard: 1</text>
<text text-anchor="middle" x="169.5" y="-832" font-family="sans" font-size="10.00" fill="#000000">read_type_map: collapsed</text>
<text text-anchor="middle" x="169.5" y="-821" font-family="sans" font-size="10.00" fill="#000000">ref: wgs_eukaryota</text>
<text text-anchor="middle" x="169.5" y="-810" font-family="sans" font-size="10.00" fill="#000000">sample: HD827sonic_2</text>
<text text-anchor="middle" x="169.5" y="-799" font-family="sans" font-size="10.00" fill="#000000">tot_shards: 2</text>
</g>
<!-- 10&#45;&gt;1 -->
<g id="edge19" class="edge">
<title>10&#45;&gt;1</title>
<path fill="none" stroke="#c0c0c0" stroke-width="2" d="M235.0225,-818.5396C311.603,-799.4917 430.1382,-768.6322 447.5,-756 541.203,-687.823 562.5,-637.8807 562.5,-522 562.5,-522 562.5,-522 562.5,-234 562.5,-191.3959 563.0413,-171.5961 595.5,-144 631.7849,-113.151 771.3538,-98.2199 839.1333,-92.6679"/>
<polygon fill="#c0c0c0" stroke="#c0c0c0" stroke-width="2" points="839.6763,-96.1359 849.3683,-91.8563 839.1229,-89.1578 839.6763,-96.1359"/>
</g>
<!-- 45 -->
<g id="node46" class="node">
<title>45</title>
<path fill="none" stroke="#569ad8" stroke-width="2" d="M141,-612C141,-612 12,-612 12,-612 6,-612 0,-606 0,-600 0,-600 0,-588 0,-588 0,-582 6,-576 12,-576 12,-576 141,-576 141,-576 147,-576 153,-582 153,-588 153,-588 153,-600 153,-600 153,-606 147,-612 141,-612"/>
<text text-anchor="middle" x="76.5" y="-591.5" font-family="sans" font-size="10.00" fill="#000000">shard_saturated_reads_remove</text>
</g>
<!-- 10&#45;&gt;45 -->
<g id="edge79" class="edge">
<title>10&#45;&gt;45</title>
<path fill="none" stroke="#c0c0c0" stroke-width="2" d="M134.5591,-791.9449C126.7013,-780.7709 119.0552,-768.37 113.5,-756 93.6436,-711.785 83.9139,-655.8308 79.5712,-622.5894"/>
<polygon fill="#c0c0c0" stroke="#c0c0c0" stroke-width="2" points="82.9925,-621.7348 78.2981,-612.2368 76.0449,-622.5892 82.9925,-621.7348"/>
</g>
<!-- 48 -->
<g id="node49" class="node">
<title>48</title>
<path fill="none" stroke="#56d8c9" stroke-width="2" d="M204,-756C204,-756 135,-756 135,-756 129,-756 123,-750 123,-744 123,-744 123,-732 123,-732 123,-726 129,-720 135,-720 135,-720 204,-720 204,-720 210,-720 216,-726 216,-732 216,-732 216,-744 216,-744 216,-750 210,-756 204,-756"/>
<text text-anchor="middle" x="169.5" y="-735.5" font-family="sans" font-size="10.00" fill="#000000">shard_count_alns</text>
</g>
<!-- 10&#45;&gt;48 -->
<g id="edge85" class="edge">
<title>10&#45;&gt;48</title>
<path fill="none" stroke="#c0c0c0" stroke-width="2" d="M169.5,-791.8928C169.5,-783.2842 169.5,-774.4327 169.5,-766.4546"/>
<polygon fill="#c0c0c0" stroke="#c0c0c0" stroke-width="2" points="173.0001,-766.2218 169.5,-756.2218 166.0001,-766.2218 173.0001,-766.2218"/>
</g>
<!-- 11 -->
<g id="node12" class="node">
<title>11</title>
<path fill="none" stroke="#ced856" stroke-width="2" d="M960.5,-180C960.5,-180 920.5,-180 920.5,-180 914.5,-180 908.5,-174 908.5,-168 908.5,-168 908.5,-156 908.5,-156 908.5,-150 914.5,-144 920.5,-144 920.5,-144 960.5,-144 960.5,-144 966.5,-144 972.5,-150 972.5,-156 972.5,-156 972.5,-168 972.5,-168 972.5,-174 966.5,-180 960.5,-180"/>
<text text-anchor="middle" x="940.5" y="-159.5" font-family="sans" font-size="10.00" fill="#000000">align_stats</text>
</g>
<!-- 11&#45;&gt;1 -->
<g id="edge20" class="edge">
<title>11&#45;&gt;1</title>
<path fill="none" stroke="#c0c0c0" stroke-width="2" d="M924.3501,-143.8314C916.8283,-135.3694 907.7435,-125.1489 899.5196,-115.8971"/>
<polygon fill="#c0c0c0" stroke="#c0c0c0" stroke-width="2" points="902.127,-113.5621 892.8673,-108.4133 896.8951,-118.2127 902.127,-113.5621"/>
</g>
<!-- 12 -->
<g id="node13" class="node">
<title>12</title>
<path fill="none" stroke="#d88556" stroke-width="2" d="M981,-396C981,-396 936,-396 936,-396 930,-396 924,-390 924,-384 924,-384 924,-372 924,-372 924,-366 930,-360 936,-360 936,-360 981,-360 981,-360 987,-360 993,-366 993,-372 993,-372 993,-384 993,-384 993,-390 987,-396 981,-396"/>
<text text-anchor="middle" x="958.5" y="-375.5" font-family="sans" font-size="10.00" fill="#000000">align_merge</text>
</g>
<!-- 12&#45;&gt;11 -->
<g id="edge29" class="edge">
<title>12&#45;&gt;11</title>
<path fill="none" stroke="#c0c0c0" stroke-width="2" d="M956.9963,-359.9555C953.8595,-322.3144 946.5989,-235.1867 942.8437,-190.1246"/>
<polygon fill="#c0c0c0" stroke="#c0c0c0" stroke-width="2" points="946.3305,-189.8198 942.0121,-180.1451 939.3547,-190.4012 946.3305,-189.8198"/>
</g>
<!-- 57 -->
<g id="node58" class="node">
<title>57</title>
<path fill="none" stroke="#59d856" stroke-width="2" d="M760,-324C760,-324 709,-324 709,-324 703,-324 697,-318 697,-312 697,-312 697,-300 697,-300 697,-294 703,-288 709,-288 709,-288 760,-288 760,-288 766,-288 772,-294 772,-300 772,-300 772,-312 772,-312 772,-318 766,-324 760,-324"/>
<text text-anchor="middle" x="734.5" y="-303.5" font-family="sans" font-size="10.00" fill="#000000">metadmg_lca</text>
</g>
<!-- 12&#45;&gt;57 -->
<g id="edge96" class="edge">
<title>12&#45;&gt;57</title>
<path fill="none" stroke="#c0c0c0" stroke-width="2" d="M923.9909,-366.9078C885.8499,-354.6482 824.1923,-334.8297 781.6214,-321.1462"/>
<polygon fill="#c0c0c0" stroke="#c0c0c0" stroke-width="2" points="782.6322,-317.7948 772.0409,-318.0667 780.4901,-324.459 782.6322,-317.7948"/>
</g>
<!-- 68 -->
<g id="node69" class="node">
<title>68</title>
<path fill="none" stroke="#88d856" stroke-width="2" d="M1368,-108C1368,-108 1295,-108 1295,-108 1289,-108 1283,-102 1283,-96 1283,-96 1283,-84 1283,-84 1283,-78 1289,-72 1295,-72 1295,-72 1368,-72 1368,-72 1374,-72 1380,-78 1380,-84 1380,-84 1380,-96 1380,-96 1380,-102 1374,-108 1368,-108"/>
<text text-anchor="middle" x="1331.5" y="-87.5" font-family="sans" font-size="10.00" fill="#000000">metadmg_damage</text>
</g>
<!-- 12&#45;&gt;68 -->
<g id="edge110" class="edge">
<title>12&#45;&gt;68</title>
<path fill="none" stroke="#c0c0c0" stroke-width="2" d="M981.8328,-359.9843C1046.3328,-310.1827 1227.0956,-170.6126 1300.2145,-114.1561"/>
<polygon fill="#c0c0c0" stroke="#c0c0c0" stroke-width="2" points="1302.3998,-116.8907 1308.176,-108.0089 1298.1218,-111.3501 1302.3998,-116.8907"/>
</g>
<!-- 13 -->
<g id="node14" class="node">
<title>13</title>
<path fill="none" stroke="#5682d8" stroke-width="2" d="M1017.5,-468C1017.5,-468 949.5,-468 949.5,-468 943.5,-468 937.5,-462 937.5,-456 937.5,-456 937.5,-444 937.5,-444 937.5,-438 943.5,-432 949.5,-432 949.5,-432 1017.5,-432 1017.5,-432 1023.5,-432 1029.5,-438 1029.5,-444 1029.5,-444 1029.5,-456 1029.5,-456 1029.5,-462 1023.5,-468 1017.5,-468"/>
<text text-anchor="middle" x="983.5" y="-447.5" font-family="sans" font-size="10.00" fill="#000000">shard_sort_query</text>
</g>
<!-- 13&#45;&gt;12 -->
<g id="edge30" class="edge">
<title>13&#45;&gt;12</title>
<path fill="none" stroke="#c0c0c0" stroke-width="2" d="M977.1914,-431.8314C974.4883,-424.0463 971.2684,-414.7729 968.269,-406.1347"/>
<polygon fill="#c0c0c0" stroke="#c0c0c0" stroke-width="2" points="971.48,-404.7119 964.8935,-396.4133 964.8673,-407.0081 971.48,-404.7119"/>
</g>
<!-- 14 -->
<g id="node15" class="node">
<title>14</title>
<path fill="none" stroke="#566bd8" stroke-width="2" d="M1011,-540C1011,-540 958,-540 958,-540 952,-540 946,-534 946,-528 946,-528 946,-516 946,-516 946,-510 952,-504 958,-504 958,-504 1011,-504 1011,-504 1017,-504 1023,-510 1023,-516 1023,-516 1023,-528 1023,-528 1023,-534 1017,-540 1011,-540"/>
<text text-anchor="middle" x="984.5" y="-519.5" font-family="sans" font-size="10.00" fill="#000000">shard_unicorn</text>
</g>
<!-- 14&#45;&gt;13 -->
<g id="edge33" class="edge">
<title>14&#45;&gt;13</title>
<path fill="none" stroke="#c0c0c0" stroke-width="2" d="M984.2477,-503.8314C984.1407,-496.131 984.0135,-486.9743 983.8947,-478.4166"/>
<polygon fill="#c0c0c0" stroke="#c0c0c0" stroke-width="2" points="987.3944,-478.3637 983.7557,-468.4133 980.3951,-478.4609 987.3944,-478.3637"/>
</g>
<!-- 15&#45;&gt;14 -->
<g id="edge34" class="edge">
<title>15&#45;&gt;14</title>
<path fill="none" stroke="#c0c0c0" stroke-width="2" d="M988.9859,-575.8314C988.3442,-568.131 987.5812,-558.9743 986.8681,-550.4166"/>
<polygon fill="#c0c0c0" stroke="#c0c0c0" stroke-width="2" points="990.3529,-550.088 986.0344,-540.4133 983.3771,-550.6694 990.3529,-550.088"/>
</g>
<!-- 16 -->
<g id="node17" class="node">
<title>16</title>
<path fill="none" stroke="#56b1d8" stroke-width="2" d="M1058.5,-684C1058.5,-684 942.5,-684 942.5,-684 936.5,-684 930.5,-678 930.5,-672 930.5,-672 930.5,-660 930.5,-660 930.5,-654 936.5,-648 942.5,-648 942.5,-648 1058.5,-648 1058.5,-648 1064.5,-648 1070.5,-654 1070.5,-660 1070.5,-660 1070.5,-672 1070.5,-672 1070.5,-678 1064.5,-684 1058.5,-684"/>
<text text-anchor="middle" x="1000.5" y="-663.5" font-family="sans" font-size="10.00" fill="#000000">shard_saturated_reads_filter</text>
</g>
<!-- 16&#45;&gt;15 -->
<g id="edge36" class="edge">
<title>16&#45;&gt;15</title>
<path fill="none" stroke="#c0c0c0" stroke-width="2" d="M997.9766,-647.8314C996.9071,-640.131 995.6353,-630.9743 994.4468,-622.4166"/>
<polygon fill="#c0c0c0" stroke="#c0c0c0" stroke-width="2" points="997.8999,-621.8367 993.0574,-612.4133 990.9664,-622.7997 997.8999,-621.8367"/>
</g>
<!-- 16&#45;&gt;22 -->
<g id="edge46" class="edge">
<title>16&#45;&gt;22</title>
<path fill="none" stroke="#c0c0c0" stroke-width="2" d="M954.8261,-647.8314C930.4032,-638.1162 900.1534,-626.0831 874.4516,-615.8592"/>
<polygon fill="#c0c0c0" stroke="#c0c0c0" stroke-width="2" points="875.431,-612.4821 864.8455,-612.038 872.8437,-618.9864 875.431,-612.4821"/>
</g>
<!-- 16&#45;&gt;25 -->
<g id="edge50" class="edge">
<title>16&#45;&gt;25</title>
<path fill="none" stroke="#c0c0c0" stroke-width="2" d="M1041.1271,-647.8314C1062.6599,-638.2018 1089.2849,-626.295 1112.0152,-616.1299"/>
<polygon fill="#c0c0c0" stroke="#c0c0c0" stroke-width="2" points="1113.4652,-619.3155 1121.165,-612.038 1110.6074,-612.9254 1113.4652,-619.3155"/>
</g>
<!-- 65 -->
<g id="node66" class="node">
<title>65</title>
<path fill="none" stroke="#56c9d8" stroke-width="2" d="M1302,-396C1302,-396 1175,-396 1175,-396 1169,-396 1163,-390 1163,-384 1163,-384 1163,-372 1163,-372 1163,-366 1169,-360 1175,-360 1175,-360 1302,-360 1302,-360 1308,-360 1314,-366 1314,-372 1314,-372 1314,-384 1314,-384 1314,-390 1308,-396 1302,-396"/>
<text text-anchor="middle" x="1238.5" y="-375.5" font-family="sans" font-size="10.00" fill="#000000">shard_saturated_reads_extract</text>
</g>
<!-- 16&#45;&gt;65 -->
<g id="edge107" class="edge">
<title>16&#45;&gt;65</title>
<path fill="none" stroke="#c0c0c0" stroke-width="2" d="M1070.587,-660.3248C1135.6352,-653.4306 1225.6177,-639.1831 1247.5,-612 1295.5769,-552.2769 1267.9367,-453.5599 1250.0454,-405.7099"/>
<polygon fill="#c0c0c0" stroke="#c0c0c0" stroke-width="2" points="1253.2788,-404.3671 1246.4064,-396.3036 1246.7504,-406.8929 1253.2788,-404.3671"/>
</g>
<!-- 17&#45;&gt;16 -->
<g id="edge37" class="edge">
<title>17&#45;&gt;16</title>
<path fill="none" stroke="#c0c0c0" stroke-width="2" d="M1066.2939,-719.8314C1055.455,-710.9632 1042.2556,-700.1637 1030.5322,-690.5718"/>
<polygon fill="#c0c0c0" stroke="#c0c0c0" stroke-width="2" points="1032.655,-687.7864 1022.699,-684.1628 1028.2223,-693.2041 1032.655,-687.7864"/>
</g>
<!-- 18&#45;&gt;16 -->
<g id="edge38" class="edge">
<title>18&#45;&gt;16</title>
<path fill="none" stroke="#c0c0c0" stroke-width="2" d="M983.3039,-719.8314C985.7908,-712.0463 988.7531,-702.7729 991.5125,-694.1347"/>
<polygon fill="#c0c0c0" stroke="#c0c0c0" stroke-width="2" points="994.909,-695.0041 994.618,-684.4133 988.2409,-692.874 994.909,-695.0041"/>
</g>
<!-- 19&#45;&gt;16 -->
<g id="edge39" class="edge">
<title>19&#45;&gt;16</title>
<path fill="none" stroke="#c0c0c0" stroke-width="2" d="M871.1552,-719.8314C894.3958,-710.159 923.1568,-698.1891 947.6523,-687.9944"/>
<polygon fill="#c0c0c0" stroke="#c0c0c0" stroke-width="2" points="949.2712,-691.1117 957.1587,-684.038 946.5815,-684.6491 949.2712,-691.1117"/>
</g>
<!-- 20 -->
<g id="node21" class="node">
<title>20</title>
<path fill="none" stroke="#5682d8" stroke-width="2" d="M884.5,-468C884.5,-468 816.5,-468 816.5,-468 810.5,-468 804.5,-462 804.5,-456 804.5,-456 804.5,-444 804.5,-444 804.5,-438 810.5,-432 816.5,-432 816.5,-432 884.5,-432 884.5,-432 890.5,-432 896.5,-438 896.5,-444 896.5,-444 896.5,-456 896.5,-456 896.5,-462 890.5,-468 884.5,-468"/>
<text text-anchor="middle" x="850.5" y="-447.5" font-family="sans" font-size="10.00" fill="#000000">shard_sort_query</text>
</g>
<!-- 20&#45;&gt;12 -->
<g id="edge31" class="edge">
<title>20&#45;&gt;12</title>
<path fill="none" stroke="#c0c0c0" stroke-width="2" d="M877.753,-431.8314C891.4389,-422.7074 908.1915,-411.539 922.8827,-401.7449"/>
<polygon fill="#c0c0c0" stroke="#c0c0c0" stroke-width="2" points="924.8767,-404.6221 931.2558,-396.1628 920.9938,-398.7977 924.8767,-404.6221"/>
</g>
<!-- 21 -->
<g id="node22" class="node">
<title>21</title>
<path fill="none" stroke="#566bd8" stroke-width="2" d="M861,-540C861,-540 808,-540 808,-540 802,-540 796,-534 796,-528 796,-528 796,-516 796,-516 796,-510 802,-504 808,-504 808,-504 861,-504 861,-504 867,-504 873,-510 873,-516 873,-516 873,-528 873,-528 873,-534 867,-540 861,-540"/>
<text text-anchor="middle" x="834.5" y="-519.5" font-family="sans" font-size="10.00" fill="#000000">shard_unicorn</text>
</g>
<!-- 21&#45;&gt;20 -->
<g id="edge43" class="edge">
<title>21&#45;&gt;20</title>
<path fill="none" stroke="#c0c0c0" stroke-width="2" d="M838.5375,-503.8314C840.2487,-496.131 842.2835,-486.9743 844.1852,-478.4166"/>
<polygon fill="#c0c0c0" stroke="#c0c0c0" stroke-width="2" points="847.6554,-478.9344 846.4082,-468.4133 840.8221,-477.4159 847.6554,-478.9344"/>
</g>
<!-- 22&#45;&gt;21 -->
<g id="edge44" class="edge">
<title>22&#45;&gt;21</title>
<path fill="none" stroke="#c0c0c0" stroke-width="2" d="M823.2851,-575.8314C824.8894,-568.131 826.797,-558.9743 828.5799,-550.4166"/>
<polygon fill="#c0c0c0" stroke="#c0c0c0" stroke-width="2" points="832.0507,-550.9169 830.6639,-540.4133 825.1979,-549.4892 832.0507,-550.9169"/>
</g>
<!-- 23 -->
<g id="node24" class="node">
<title>23</title>
<path fill="none" stroke="#5682d8" stroke-width="2" d="M1157.5,-468C1157.5,-468 1089.5,-468 1089.5,-468 1083.5,-468 1077.5,-462 1077.5,-456 1077.5,-456 1077.5,-444 1077.5,-444 1077.5,-438 1083.5,-432 1089.5,-432 1089.5,-432 1157.5,-432 1157.5,-432 1163.5,-432 1169.5,-438 1169.5,-444 1169.5,-444 1169.5,-456 1169.5,-456 1169.5,-462 1163.5,-468 1157.5,-468"/>
<text text-anchor="middle" x="1123.5" y="-447.5" font-family="sans" font-size="10.00" fill="#000000">shard_sort_query</text>
</g>
<!-- 23&#45;&gt;12 -->
<g id="edge32" class="edge">
<title>23&#45;&gt;12</title>
<path fill="none" stroke="#c0c0c0" stroke-width="2" d="M1081.8635,-431.8314C1057.6749,-421.2763 1027.2164,-407.9853 1002.6168,-397.251"/>
<polygon fill="#c0c0c0" stroke="#c0c0c0" stroke-width="2" points="1003.7238,-393.9153 993.1585,-393.1237 1000.9241,-400.3311 1003.7238,-393.9153"/>
</g>
<!-- 24 -->
<g id="node25" class="node">
<title>24</title>
<path fill="none" stroke="#566bd8" stroke-width="2" d="M1169,-540C1169,-540 1116,-540 1116,-540 1110,-540 1104,-534 1104,-528 1104,-528 1104,-516 1104,-516 1104,-510 1110,-504 1116,-504 1116,-504 1169,-504 1169,-504 1175,-504 1181,-510 1181,-516 1181,-516 1181,-528 1181,-528 1181,-534 1175,-540 1169,-540"/>
<text text-anchor="middle" x="1142.5" y="-519.5" font-family="sans" font-size="10.00" fill="#000000">shard_unicorn</text>
</g>
<!-- 24&#45;&gt;23 -->
<g id="edge47" class="edge">
<title>24&#45;&gt;23</title>
<path fill="none" stroke="#c0c0c0" stroke-width="2" d="M1137.7055,-503.8314C1135.6511,-496.0463 1133.204,-486.7729 1130.9244,-478.1347"/>
<polygon fill="#c0c0c0" stroke="#c0c0c0" stroke-width="2" points="1134.2948,-477.1892 1128.3591,-468.4133 1127.5265,-478.9753 1134.2948,-477.1892"/>
</g>
<!-- 25&#45;&gt;24 -->
<g id="edge48" class="edge">
<title>25&#45;&gt;24</title>
<path fill="none" stroke="#c0c0c0" stroke-width="2" d="M1156.7055,-575.8314C1154.6511,-568.0463 1152.204,-558.7729 1149.9244,-550.1347"/>
<polygon fill="#c0c0c0" stroke="#c0c0c0" stroke-width="2" points="1153.2948,-549.1892 1147.3591,-540.4133 1146.5265,-550.9753 1153.2948,-549.1892"/>
</g>
<!-- 26 -->
<g id="node27" class="node">
<title>26</title>
<path fill="none" stroke="#ced856" stroke-width="2" d="M1473.5,-252C1473.5,-252 1433.5,-252 1433.5,-252 1427.5,-252 1421.5,-246 1421.5,-240 1421.5,-240 1421.5,-228 1421.5,-228 1421.5,-222 1427.5,-216 1433.5,-216 1433.5,-216 1473.5,-216 1473.5,-216 1479.5,-216 1485.5,-222 1485.5,-228 1485.5,-228 1485.5,-240 1485.5,-240 1485.5,-246 1479.5,-252 1473.5,-252"/>
<text text-anchor="middle" x="1453.5" y="-231.5" font-family="sans" font-size="10.00" fill="#000000">align_stats</text>
</g>
<!-- 26&#45;&gt;1 -->
<g id="edge21" class="edge">
<title>26&#45;&gt;1</title>
<path fill="none" stroke="#c0c0c0" stroke-width="2" d="M1445.0629,-215.8948C1434.1234,-194.6846 1412.9027,-160.3669 1383.5,-144 1342.6595,-121.2663 1024.0801,-99.2866 913.8684,-92.2923"/>
<polygon fill="#c0c0c0" stroke="#c0c0c0" stroke-width="2" points="913.7696,-88.7792 903.5694,-91.6439 913.3297,-95.7654 913.7696,-88.7792"/>
</g>
<!-- 27 -->
<g id="node28" class="node">
<title>27</title>
<path fill="none" stroke="#d88556" stroke-width="2" d="M1620,-396C1620,-396 1575,-396 1575,-396 1569,-396 1563,-390 1563,-384 1563,-384 1563,-372 1563,-372 1563,-366 1569,-360 1575,-360 1575,-360 1620,-360 1620,-360 1626,-360 1632,-366 1632,-372 1632,-372 1632,-384 1632,-384 1632,-390 1626,-396 1620,-396"/>
<text text-anchor="middle" x="1597.5" y="-375.5" font-family="sans" font-size="10.00" fill="#000000">align_merge</text>
</g>
<!-- 27&#45;&gt;26 -->
<g id="edge51" class="edge">
<title>27&#45;&gt;26</title>
<path fill="none" stroke="#c0c0c0" stroke-width="2" d="M1574.2978,-359.7699C1561.8293,-349.6441 1546.4102,-336.5815 1533.5,-324 1512.5026,-303.5372 1490.5015,-278.4837 1474.8983,-260.0108"/>
<polygon fill="#c0c0c0" stroke="#c0c0c0" stroke-width="2" points="1477.5224,-257.693 1468.4156,-252.2784 1472.1581,-262.1902 1477.5224,-257.693"/>
</g>
<!-- 59 -->
<g id="node60" class="node">
<title>59</title>
<path fill="none" stroke="#59d856" stroke-width="2" d="M1605,-324C1605,-324 1554,-324 1554,-324 1548,-324 1542,-318 1542,-312 1542,-312 1542,-300 1542,-300 1542,-294 1548,-288 1554,-288 1554,-288 1605,-288 1605,-288 1611,-288 1617,-294 1617,-300 1617,-300 1617,-312 1617,-312 1617,-318 1611,-324 1605,-324"/>
<text text-anchor="middle" x="1579.5" y="-303.5" font-family="sans" font-size="10.00" fill="#000000">metadmg_lca</text>
</g>
<!-- 27&#45;&gt;59 -->
<g id="edge98" class="edge">
<title>27&#45;&gt;59</title>
<path fill="none" stroke="#c0c0c0" stroke-width="2" d="M1592.9578,-359.8314C1591.0116,-352.0463 1588.6932,-342.7729 1586.5337,-334.1347"/>
<polygon fill="#c0c0c0" stroke="#c0c0c0" stroke-width="2" points="1589.9242,-333.2658 1584.1033,-324.4133 1583.1332,-334.9636 1589.9242,-333.2658"/>
</g>
<!-- 69 -->
<g id="node70" class="node">
<title>69</title>
<path fill="none" stroke="#88d856" stroke-width="2" d="M1759,-324C1759,-324 1686,-324 1686,-324 1680,-324 1674,-318 1674,-312 1674,-312 1674,-300 1674,-300 1674,-294 1680,-288 1686,-288 1686,-288 1759,-288 1759,-288 1765,-288 1771,-294 1771,-300 1771,-300 1771,-312 1771,-312 1771,-318 1765,-324 1759,-324"/>
<text text-anchor="middle" x="1722.5" y="-303.5" font-family="sans" font-size="10.00" fill="#000000">metadmg_damage</text>
</g>
<!-- 27&#45;&gt;69 -->
<g id="edge111" class="edge">
<title>27&#45;&gt;69</title>
<path fill="none" stroke="#c0c0c0" stroke-width="2" d="M1629.0428,-359.8314C1645.1791,-350.5368 1664.9986,-339.1208 1682.2272,-329.1971"/>
<polygon fill="#c0c0c0" stroke="#c0c0c0" stroke-width="2" points="1684.0489,-332.187 1690.9673,-324.1628 1680.555,-326.1212 1684.0489,-332.187"/>
</g>
<!-- 28 -->
<g id="node29" class="node">
<title>28</title>
<path fill="none" stroke="#5682d8" stroke-width="2" d="M1539.5,-468C1539.5,-468 1471.5,-468 1471.5,-468 1465.5,-468 1459.5,-462 1459.5,-456 1459.5,-456 1459.5,-444 1459.5,-444 1459.5,-438 1465.5,-432 1471.5,-432 1471.5,-432 1539.5,-432 1539.5,-432 1545.5,-432 1551.5,-438 1551.5,-444 1551.5,-444 1551.5,-456 1551.5,-456 1551.5,-462 1545.5,-468 1539.5,-468"/>
<text text-anchor="middle" x="1505.5" y="-447.5" font-family="sans" font-size="10.00" fill="#000000">shard_sort_query</text>
</g>
<!-- 28&#45;&gt;27 -->
<g id="edge52" class="edge">
<title>28&#45;&gt;27</title>
<path fill="none" stroke="#c0c0c0" stroke-width="2" d="M1528.7155,-431.8314C1540.047,-422.9632 1553.8464,-412.1637 1566.1027,-402.5718"/>
<polygon fill="#c0c0c0" stroke="#c0c0c0" stroke-width="2" points="1568.574,-405.0822 1574.2919,-396.1628 1564.2598,-399.5697 1568.574,-405.0822"/>
</g>
<!-- 29 -->
<g id="node30" class="node">
<title>29</title>
<path fill="none" stroke="#566bd8" stroke-width="2" d="M1541,-540C1541,-540 1488,-540 1488,-540 1482,-540 1476,-534 1476,-528 1476,-528 1476,-516 1476,-516 1476,-510 1482,-504 1488,-504 1488,-504 1541,-504 1541,-504 1547,-504 1553,-510 1553,-516 1553,-516 1553,-528 1553,-528 1553,-534 1547,-540 1541,-540"/>
<text text-anchor="middle" x="1514.5" y="-519.5" font-family="sans" font-size="10.00" fill="#000000">shard_unicorn</text>
</g>
<!-- 29&#45;&gt;28 -->
<g id="edge55" class="edge">
<title>29&#45;&gt;28</title>
<path fill="none" stroke="#c0c0c0" stroke-width="2" d="M1512.2289,-503.8314C1511.2664,-496.131 1510.1218,-486.9743 1509.0521,-478.4166"/>
<polygon fill="#c0c0c0" stroke="#c0c0c0" stroke-width="2" points="1512.5151,-477.9019 1507.8017,-468.4133 1505.5691,-478.7702 1512.5151,-477.9019"/>
</g>
<!-- 30&#45;&gt;29 -->
<g id="edge56" class="edge">
<title>30&#45;&gt;29</title>
<path fill="none" stroke="#c0c0c0" stroke-width="2" d="M1521.2289,-575.8314C1520.2664,-568.131 1519.1218,-558.9743 1518.0521,-550.4166"/>
<polygon fill="#c0c0c0" stroke="#c0c0c0" stroke-width="2" points="1521.5151,-549.9019 1516.8017,-540.4133 1514.5691,-550.7702 1521.5151,-549.9019"/>
</g>
<!-- 31 -->
<g id="node32" class="node">
<title>31</title>
<path fill="none" stroke="#56b1d8" stroke-width="2" d="M1762.5,-684C1762.5,-684 1646.5,-684 1646.5,-684 1640.5,-684 1634.5,-678 1634.5,-672 1634.5,-672 1634.5,-660 1634.5,-660 1634.5,-654 1640.5,-648 1646.5,-648 1646.5,-648 1762.5,-648 1762.5,-648 1768.5,-648 1774.5,-654 1774.5,-660 1774.5,-660 1774.5,-672 1774.5,-672 1774.5,-678 1768.5,-684 1762.5,-684"/>
<text text-anchor="middle" x="1704.5" y="-663.5" font-family="sans" font-size="10.00" fill="#000000">shard_saturated_reads_filter</text>
</g>
<!-- 31&#45;&gt;30 -->
<g id="edge58" class="edge">
<title>31&#45;&gt;30</title>
<path fill="none" stroke="#c0c0c0" stroke-width="2" d="M1658.8261,-647.8314C1634.4032,-638.1162 1604.1534,-626.0831 1578.4516,-615.8592"/>
<polygon fill="#c0c0c0" stroke="#c0c0c0" stroke-width="2" points="1579.431,-612.4821 1568.8455,-612.038 1576.8437,-618.9864 1579.431,-612.4821"/>
</g>
<!-- 31&#45;&gt;37 -->
<g id="edge68" class="edge">
<title>31&#45;&gt;37</title>
<path fill="none" stroke="#c0c0c0" stroke-width="2" d="M1701.9766,-647.8314C1700.9071,-640.131 1699.6353,-630.9743 1698.4468,-622.4166"/>
<polygon fill="#c0c0c0" stroke="#c0c0c0" stroke-width="2" points="1701.8999,-621.8367 1697.0574,-612.4133 1694.9664,-622.7997 1701.8999,-621.8367"/>
</g>
<!-- 31&#45;&gt;40 -->
<g id="edge72" class="edge">
<title>31&#45;&gt;40</title>
<path fill="none" stroke="#c0c0c0" stroke-width="2" d="M1754.7103,-647.9243C1782.0515,-638.0815 1816.0594,-625.8386 1844.7575,-615.5073"/>
<polygon fill="#c0c0c0" stroke="#c0c0c0" stroke-width="2" points="1846.0457,-618.7635 1854.2691,-612.0831 1843.6746,-612.1773 1846.0457,-618.7635"/>
</g>
<!-- 66 -->
<g id="node67" class="node">
<title>66</title>
<path fill="none" stroke="#56c9d8" stroke-width="2" d="M1863,-396C1863,-396 1736,-396 1736,-396 1730,-396 1724,-390 1724,-384 1724,-384 1724,-372 1724,-372 1724,-366 1730,-360 1736,-360 1736,-360 1863,-360 1863,-360 1869,-360 1875,-366 1875,-372 1875,-372 1875,-384 1875,-384 1875,-390 1869,-396 1863,-396"/>
<text text-anchor="middle" x="1799.5" y="-375.5" font-family="sans" font-size="10.00" fill="#000000">shard_saturated_reads_extract</text>
</g>
<!-- 31&#45;&gt;66 -->
<g id="edge108" class="edge">
<title>31&#45;&gt;66</title>
<path fill="none" stroke="#c0c0c0" stroke-width="2" d="M1742.6698,-647.9601C1756.9828,-639.1811 1771.8592,-627.1959 1780.5,-612 1817.9757,-546.0942 1811.0225,-452.4221 1804.4194,-406.1291"/>
<polygon fill="#c0c0c0" stroke="#c0c0c0" stroke-width="2" points="1807.8741,-405.5658 1802.9039,-396.2091 1800.9544,-406.623 1807.8741,-405.5658"/>
</g>
<!-- 32&#45;&gt;31 -->
<g id="edge59" class="edge">
<title>32&#45;&gt;31</title>
<path fill="none" stroke="#c0c0c0" stroke-width="2" d="M1770.2939,-719.8314C1759.455,-710.9632 1746.2556,-700.1637 1734.5322,-690.5718"/>
<polygon fill="#c0c0c0" stroke="#c0c0c0" stroke-width="2" points="1736.655,-687.7864 1726.699,-684.1628 1732.2223,-693.2041 1736.655,-687.7864"/>
</g>
<!-- 33&#45;&gt;31 -->
<g id="edge60" class="edge">
<title>33&#45;&gt;31</title>
<path fill="none" stroke="#c0c0c0" stroke-width="2" d="M1540.0661,-722.1102C1570.1107,-711.858 1609.5443,-698.402 1642.2631,-687.2372"/>
<polygon fill="#c0c0c0" stroke="#c0c0c0" stroke-width="2" points="1643.4068,-690.5452 1651.7406,-684.0032 1641.1461,-683.9203 1643.4068,-690.5452"/>
</g>
<!-- 34&#45;&gt;31 -->
<g id="edge61" class="edge">
<title>34&#45;&gt;31</title>
<path fill="none" stroke="#c0c0c0" stroke-width="2" d="M1687.3039,-719.8314C1689.7908,-712.0463 1692.7531,-702.7729 1695.5125,-694.1347"/>
<polygon fill="#c0c0c0" stroke="#c0c0c0" stroke-width="2" points="1698.909,-695.0041 1698.618,-684.4133 1692.2409,-692.874 1698.909,-695.0041"/>
</g>
<!-- 35 -->
<g id="node36" class="node">
<title>35</title>
<path fill="none" stroke="#5682d8" stroke-width="2" d="M1649.5,-468C1649.5,-468 1581.5,-468 1581.5,-468 1575.5,-468 1569.5,-462 1569.5,-456 1569.5,-456 1569.5,-444 1569.5,-444 1569.5,-438 1575.5,-432 1581.5,-432 1581.5,-432 1649.5,-432 1649.5,-432 1655.5,-432 1661.5,-438 1661.5,-444 1661.5,-444 1661.5,-456 1661.5,-456 1661.5,-462 1655.5,-468 1649.5,-468"/>
<text text-anchor="middle" x="1615.5" y="-447.5" font-family="sans" font-size="10.00" fill="#000000">shard_sort_query</text>
</g>
<!-- 35&#45;&gt;27 -->
<g id="edge53" class="edge">
<title>35&#45;&gt;27</title>
<path fill="none" stroke="#c0c0c0" stroke-width="2" d="M1610.9578,-431.8314C1609.0116,-424.0463 1606.6932,-414.7729 1604.5337,-406.1347"/>
<polygon fill="#c0c0c0" stroke="#c0c0c0" stroke-width="2" points="1607.9242,-405.2658 1602.1033,-396.4133 1601.1332,-406.9636 1607.9242,-405.2658"/>
</g>
<!-- 36 -->
<g id="node37" class="node">
<title>36</title>
<path fill="none" stroke="#566bd8" stroke-width="2" d="M1682,-540C1682,-540 1629,-540 1629,-540 1623,-540 1617,-534 1617,-528 1617,-528 1617,-516 1617,-516 1617,-510 1623,-504 1629,-504 1629,-504 1682,-504 1682,-504 1688,-504 1694,-510 1694,-516 1694,-516 1694,-528 1694,-528 1694,-534 1688,-540 1682,-540"/>
<text text-anchor="middle" x="1655.5" y="-519.5" font-family="sans" font-size="10.00" fill="#000000">shard_unicorn</text>
</g>
<!-- 36&#45;&gt;35 -->
<g id="edge65" class="edge">
<title>36&#45;&gt;35</title>
<path fill="none" stroke="#c0c0c0" stroke-width="2" d="M1645.4063,-503.8314C1640.9403,-495.7925 1635.5925,-486.1666 1630.6621,-477.2918"/>
<polygon fill="#c0c0c0" stroke="#c0c0c0" stroke-width="2" points="1633.6456,-475.4551 1625.7296,-468.4133 1627.5265,-478.8546 1633.6456,-475.4551"/>
</g>
<!-- 37&#45;&gt;36 -->
<g id="edge66" class="edge">
<title>37&#45;&gt;36</title>
<path fill="none" stroke="#c0c0c0" stroke-width="2" d="M1684.6587,-575.8314C1680.3043,-567.7925 1675.0902,-558.1666 1670.2831,-549.2918"/>
<polygon fill="#c0c0c0" stroke="#c0c0c0" stroke-width="2" points="1673.3143,-547.5392 1665.4739,-540.4133 1667.1592,-550.8732 1673.3143,-547.5392"/>
</g>
<!-- 38 -->
<g id="node39" class="node">
<title>38</title>
<path fill="none" stroke="#5682d8" stroke-width="2" d="M1759.5,-468C1759.5,-468 1691.5,-468 1691.5,-468 1685.5,-468 1679.5,-462 1679.5,-456 1679.5,-456 1679.5,-444 1679.5,-444 1679.5,-438 1685.5,-432 1691.5,-432 1691.5,-432 1759.5,-432 1759.5,-432 1765.5,-432 1771.5,-438 1771.5,-444 1771.5,-444 1771.5,-456 1771.5,-456 1771.5,-462 1765.5,-468 1759.5,-468"/>
<text text-anchor="middle" x="1725.5" y="-447.5" font-family="sans" font-size="10.00" fill="#000000">shard_sort_query</text>
</g>
<!-- 38&#45;&gt;27 -->
<g id="edge54" class="edge">
<title>38&#45;&gt;27</title>
<path fill="none" stroke="#c0c0c0" stroke-width="2" d="M1693.2002,-431.8314C1676.6766,-422.5368 1656.3814,-411.1208 1638.7393,-401.1971"/>
<polygon fill="#c0c0c0" stroke="#c0c0c0" stroke-width="2" points="1640.2212,-398.015 1629.7895,-396.1628 1636.7893,-404.116 1640.2212,-398.015"/>
</g>
<!-- 39 -->
<g id="node40" class="node">
<title>39</title>
<path fill="none" stroke="#566bd8" stroke-width="2" d="M1912,-540C1912,-540 1859,-540 1859,-540 1853,-540 1847,-534 1847,-528 1847,-528 1847,-516 1847,-516 1847,-510 1853,-504 1859,-504 1859,-504 1912,-504 1912,-504 1918,-504 1924,-510 1924,-516 1924,-516 1924,-528 1924,-528 1924,-534 1918,-540 1912,-540"/>
<text text-anchor="middle" x="1885.5" y="-519.5" font-family="sans" font-size="10.00" fill="#000000">shard_unicorn</text>
</g>
<!-- 39&#45;&gt;38 -->
<g id="edge69" class="edge">
<title>39&#45;&gt;38</title>
<path fill="none" stroke="#c0c0c0" stroke-width="2" d="M1846.7685,-504.5708C1825.1464,-494.8409 1797.9858,-482.6186 1774.853,-472.2088"/>
<polygon fill="#c0c0c0" stroke="#c0c0c0" stroke-width="2" points="1776.1013,-468.9326 1765.5458,-468.0206 1773.2287,-475.316 1776.1013,-468.9326"/>
</g>
<!-- 40&#45;&gt;39 -->
<g id="edge70" class="edge">
<title>40&#45;&gt;39</title>
<path fill="none" stroke="#c0c0c0" stroke-width="2" d="M1899.7055,-575.8314C1897.6511,-568.0463 1895.204,-558.7729 1892.9244,-550.1347"/>
<polygon fill="#c0c0c0" stroke="#c0c0c0" stroke-width="2" points="1896.2948,-549.1892 1890.3591,-540.4133 1889.5265,-550.9753 1896.2948,-549.1892"/>
</g>
<!-- 41 -->
<g id="node42" class="node">
<title>41</title>
<path fill="none" stroke="#ced856" stroke-width="2" d="M522.5,-252C522.5,-252 482.5,-252 482.5,-252 476.5,-252 470.5,-246 470.5,-240 470.5,-240 470.5,-228 470.5,-228 470.5,-222 476.5,-216 482.5,-216 482.5,-216 522.5,-216 522.5,-216 528.5,-216 534.5,-222 534.5,-228 534.5,-228 534.5,-240 534.5,-240 534.5,-246 528.5,-252 522.5,-252"/>
<text text-anchor="middle" x="502.5" y="-231.5" font-family="sans" font-size="10.00" fill="#000000">align_stats</text>
</g>
<!-- 41&#45;&gt;1 -->
<g id="edge22" class="edge">
<title>41&#45;&gt;1</title>
<path fill="none" stroke="#c0c0c0" stroke-width="2" d="M506.5291,-215.9413C512.1747,-195.1096 524.5504,-161.489 548.5,-144 571.7501,-127.0219 758.0328,-103.7033 839.0686,-94.2436"/>
<polygon fill="#c0c0c0" stroke="#c0c0c0" stroke-width="2" points="839.7923,-97.6833 849.3228,-93.0551 838.9863,-90.7298 839.7923,-97.6833"/>
</g>
<!-- 42 -->
<g id="node43" class="node">
<title>42</title>
<path fill="none" stroke="#d88556" stroke-width="2" d="M393,-396C393,-396 348,-396 348,-396 342,-396 336,-390 336,-384 336,-384 336,-372 336,-372 336,-366 342,-360 348,-360 348,-360 393,-360 393,-360 399,-360 405,-366 405,-372 405,-372 405,-384 405,-384 405,-390 399,-396 393,-396"/>
<text text-anchor="middle" x="370.5" y="-375.5" font-family="sans" font-size="10.00" fill="#000000">align_merge</text>
</g>
<!-- 42&#45;&gt;41 -->
<g id="edge73" class="edge">
<title>42&#45;&gt;41</title>
<path fill="none" stroke="#c0c0c0" stroke-width="2" d="M388.9096,-359.7516C399.2243,-349.4015 412.2394,-336.1305 423.5,-324 443.1258,-302.8582 464.6842,-278.1957 480.3151,-260.0395"/>
<polygon fill="#c0c0c0" stroke="#c0c0c0" stroke-width="2" points="483.1942,-262.059 487.0516,-252.1913 477.8825,-257.4998 483.1942,-262.059"/>
</g>
<!-- 61 -->
<g id="node62" class="node">
<title>61</title>
<path fill="none" stroke="#59d856" stroke-width="2" d="M402,-324C402,-324 351,-324 351,-324 345,-324 339,-318 339,-312 339,-312 339,-300 339,-300 339,-294 345,-288 351,-288 351,-288 402,-288 402,-288 408,-288 414,-294 414,-300 414,-300 414,-312 414,-312 414,-318 408,-324 402,-324"/>
<text text-anchor="middle" x="376.5" y="-303.5" font-family="sans" font-size="10.00" fill="#000000">metadmg_lca</text>
</g>
<!-- 42&#45;&gt;61 -->
<g id="edge100" class="edge">
<title>42&#45;&gt;61</title>
<path fill="none" stroke="#c0c0c0" stroke-width="2" d="M372.0141,-359.8314C372.6558,-352.131 373.4188,-342.9743 374.1319,-334.4166"/>
<polygon fill="#c0c0c0" stroke="#c0c0c0" stroke-width="2" points="377.6229,-334.6694 374.9656,-324.4133 370.6471,-334.088 377.6229,-334.6694"/>
</g>
<!-- 70 -->
<g id="node71" class="node">
<title>70</title>
<path fill="none" stroke="#88d856" stroke-width="2" d="M575,-108C575,-108 502,-108 502,-108 496,-108 490,-102 490,-96 490,-96 490,-84 490,-84 490,-78 496,-72 502,-72 502,-72 575,-72 575,-72 581,-72 587,-78 587,-84 587,-84 587,-96 587,-96 587,-102 581,-108 575,-108"/>
<text text-anchor="middle" x="538.5" y="-87.5" font-family="sans" font-size="10.00" fill="#000000">metadmg_damage</text>
</g>
<!-- 42&#45;&gt;70 -->
<g id="edge112" class="edge">
<title>42&#45;&gt;70</title>
<path fill="none" stroke="#c0c0c0" stroke-width="2" d="M351.896,-359.8067C343.2967,-350.0891 334.0063,-337.3872 329.5,-324 313.5058,-276.485 299.4364,-196.4439 343.5,-144 348.0566,-138.5768 424.2992,-118.5465 480.0749,-104.4714"/>
<polygon fill="#c0c0c0" stroke="#c0c0c0" stroke-width="2" points="481.0361,-107.8388 489.8802,-102.005 479.3284,-101.0502 481.0361,-107.8388"/>
</g>
<!-- 43 -->
<g id="node44" class="node">
<title>43</title>
<path fill="none" stroke="#5682d8" stroke-width="2" d="M289.5,-468C289.5,-468 221.5,-468 221.5,-468 215.5,-468 209.5,-462 209.5,-456 209.5,-456 209.5,-444 209.5,-444 209.5,-438 215.5,-432 221.5,-432 221.5,-432 289.5,-432 289.5,-432 295.5,-432 301.5,-438 301.5,-444 301.5,-444 301.5,-456 301.5,-456 301.5,-462 295.5,-468 289.5,-468"/>
<text text-anchor="middle" x="255.5" y="-447.5" font-family="sans" font-size="10.00" fill="#000000">shard_sort_query</text>
</g>
<!-- 43&#45;&gt;42 -->
<g id="edge74" class="edge">
<title>43&#45;&gt;42</title>
<path fill="none" stroke="#c0c0c0" stroke-width="2" d="M284.5194,-431.8314C299.2286,-422.6221 317.2644,-411.3301 333.0122,-401.4706"/>
<polygon fill="#c0c0c0" stroke="#c0c0c0" stroke-width="2" points="334.8714,-404.436 341.4899,-396.1628 331.1567,-398.5029 334.8714,-404.436"/>
</g>
<!-- 44 -->
<g id="node45" class="node">
<title>44</title>
<path fill="none" stroke="#566bd8" stroke-width="2" d="M122,-540C122,-540 69,-540 69,-540 63,-540 57,-534 57,-528 57,-528 57,-516 57,-516 57,-510 63,-504 69,-504 69,-504 122,-504 122,-504 128,-504 134,-510 134,-516 134,-516 134,-528 134,-528 134,-534 128,-540 122,-540"/>
<text text-anchor="middle" x="95.5" y="-519.5" font-family="sans" font-size="10.00" fill="#000000">shard_unicorn</text>
</g>
<!-- 44&#45;&gt;43 -->
<g id="edge77" class="edge">
<title>44&#45;&gt;43</title>
<path fill="none" stroke="#c0c0c0" stroke-width="2" d="M134.2315,-504.5708C155.8536,-494.8409 183.0142,-482.6186 206.147,-472.2088"/>
<polygon fill="#c0c0c0" stroke="#c0c0c0" stroke-width="2" points="207.7713,-475.316 215.4542,-468.0206 204.8987,-468.9326 207.7713,-475.316"/>
</g>
<!-- 45&#45;&gt;44 -->
<g id="edge78" class="edge">
<title>45&#45;&gt;44</title>
<path fill="none" stroke="#c0c0c0" stroke-width="2" d="M81.2945,-575.8314C83.3489,-568.0463 85.796,-558.7729 88.0756,-550.1347"/>
<polygon fill="#c0c0c0" stroke="#c0c0c0" stroke-width="2" points="91.4735,-550.9753 90.6409,-540.4133 84.7052,-549.1892 91.4735,-550.9753"/>
</g>
<!-- 46 -->
<g id="node47" class="node">
<title>46</title>
<path fill="none" stroke="#56b1d8" stroke-width="2" d="M338.5,-684C338.5,-684 222.5,-684 222.5,-684 216.5,-684 210.5,-678 210.5,-672 210.5,-672 210.5,-660 210.5,-660 210.5,-654 216.5,-648 222.5,-648 222.5,-648 338.5,-648 338.5,-648 344.5,-648 350.5,-654 350.5,-660 350.5,-660 350.5,-672 350.5,-672 350.5,-678 344.5,-684 338.5,-684"/>
<text text-anchor="middle" x="280.5" y="-663.5" font-family="sans" font-size="10.00" fill="#000000">shard_saturated_reads_filter</text>
</g>
<!-- 46&#45;&gt;45 -->
<g id="edge80" class="edge">
<title>46&#45;&gt;45</title>
<path fill="none" stroke="#c0c0c0" stroke-width="2" d="M229.2855,-647.9243C201.3975,-638.0815 166.7094,-625.8386 137.4373,-615.5073"/>
<polygon fill="#c0c0c0" stroke="#c0c0c0" stroke-width="2" points="138.3304,-612.1109 127.7356,-612.0831 136.0006,-618.7119 138.3304,-612.1109"/>
</g>
<!-- 46&#45;&gt;52 -->
<g id="edge90" class="edge">
<title>46&#45;&gt;52</title>
<path fill="none" stroke="#c0c0c0" stroke-width="2" d="M282.0141,-647.8314C282.6558,-640.131 283.4188,-630.9743 284.1319,-622.4166"/>
<polygon fill="#c0c0c0" stroke="#c0c0c0" stroke-width="2" points="287.6229,-622.6694 284.9656,-612.4133 280.6471,-622.088 287.6229,-622.6694"/>
</g>
<!-- 46&#45;&gt;55 -->
<g id="edge94" class="edge">
<title>46&#45;&gt;55</title>
<path fill="none" stroke="#c0c0c0" stroke-width="2" d="M325.1646,-647.8314C349.0477,-638.1162 378.629,-626.0831 403.7628,-615.8592"/>
<polygon fill="#c0c0c0" stroke="#c0c0c0" stroke-width="2" points="405.2125,-619.0481 413.1566,-612.038 402.5748,-612.564 405.2125,-619.0481"/>
</g>
<!-- 67 -->
<g id="node68" class="node">
<title>67</title>
<path fill="none" stroke="#56c9d8" stroke-width="2" d="M436,-108C436,-108 309,-108 309,-108 303,-108 297,-102 297,-96 297,-96 297,-84 297,-84 297,-78 303,-72 309,-72 309,-72 436,-72 436,-72 442,-72 448,-78 448,-84 448,-84 448,-96 448,-96 448,-102 442,-108 436,-108"/>
<text text-anchor="middle" x="372.5" y="-87.5" font-family="sans" font-size="10.00" fill="#000000">shard_saturated_reads_extract</text>
</g>
<!-- 46&#45;&gt;67 -->
<g id="edge109" class="edge">
<title>46&#45;&gt;67</title>
<path fill="none" stroke="#c0c0c0" stroke-width="2" d="M241.3355,-647.7758C226.4245,-638.9686 210.607,-627.0121 200.5,-612 177.6685,-578.0879 181.5,-562.8816 181.5,-522 181.5,-522 181.5,-522 181.5,-234 181.5,-171.8085 246.8635,-133.101 301.1161,-111.6844"/>
<polygon fill="#c0c0c0" stroke="#c0c0c0" stroke-width="2" points="302.6535,-114.8442 310.7515,-108.0125 300.1607,-108.303 302.6535,-114.8442"/>
</g>
<!-- 47&#45;&gt;46 -->
<g id="edge81" class="edge">
<title>47&#45;&gt;46</title>
<path fill="none" stroke="#c0c0c0" stroke-width="2" d="M363.49,-719.8314C349.4239,-710.7074 332.206,-699.539 317.1067,-689.7449"/>
<polygon fill="#c0c0c0" stroke="#c0c0c0" stroke-width="2" points="318.7953,-686.6684 308.501,-684.1628 314.986,-692.5412 318.7953,-686.6684"/>
</g>
<!-- 48&#45;&gt;46 -->
<g id="edge82" class="edge">
<title>48&#45;&gt;46</title>
<path fill="none" stroke="#c0c0c0" stroke-width="2" d="M197.51,-719.8314C211.5761,-710.7074 228.794,-699.539 243.8933,-689.7449"/>
<polygon fill="#c0c0c0" stroke="#c0c0c0" stroke-width="2" points="246.014,-692.5412 252.499,-684.1628 242.2047,-686.6684 246.014,-692.5412"/>
</g>
<!-- 49&#45;&gt;46 -->
<g id="edge83" class="edge">
<title>49&#45;&gt;46</title>
<path fill="none" stroke="#c0c0c0" stroke-width="2" d="M280.5,-719.8314C280.5,-712.131 280.5,-702.9743 280.5,-694.4166"/>
<polygon fill="#c0c0c0" stroke="#c0c0c0" stroke-width="2" points="284.0001,-694.4132 280.5,-684.4133 277.0001,-694.4133 284.0001,-694.4132"/>
</g>
<!-- 50 -->
<g id="node51" class="node">
<title>50</title>
<path fill="none" stroke="#5682d8" stroke-width="2" d="M399.5,-468C399.5,-468 331.5,-468 331.5,-468 325.5,-468 319.5,-462 319.5,-456 319.5,-456 319.5,-444 319.5,-444 319.5,-438 325.5,-432 331.5,-432 331.5,-432 399.5,-432 399.5,-432 405.5,-432 411.5,-438 411.5,-444 411.5,-444 411.5,-456 411.5,-456 411.5,-462 405.5,-468 399.5,-468"/>
<text text-anchor="middle" x="365.5" y="-447.5" font-family="sans" font-size="10.00" fill="#000000">shard_sort_query</text>
</g>
<!-- 50&#45;&gt;42 -->
<g id="edge75" class="edge">
<title>50&#45;&gt;42</title>
<path fill="none" stroke="#c0c0c0" stroke-width="2" d="M366.7617,-431.8314C367.2965,-424.131 367.9323,-414.9743 368.5266,-406.4166"/>
<polygon fill="#c0c0c0" stroke="#c0c0c0" stroke-width="2" points="372.02,-406.6317 369.2213,-396.4133 365.0368,-406.1467 372.02,-406.6317"/>
</g>
<!-- 51 -->
<g id="node52" class="node">
<title>51</title>
<path fill="none" stroke="#566bd8" stroke-width="2" d="M351,-540C351,-540 298,-540 298,-540 292,-540 286,-534 286,-528 286,-528 286,-516 286,-516 286,-510 292,-504 298,-504 298,-504 351,-504 351,-504 357,-504 363,-510 363,-516 363,-516 363,-528 363,-528 363,-534 357,-540 351,-540"/>
<text text-anchor="middle" x="324.5" y="-519.5" font-family="sans" font-size="10.00" fill="#000000">shard_unicorn</text>
</g>
<!-- 51&#45;&gt;50 -->
<g id="edge87" class="edge">
<title>51&#45;&gt;50</title>
<path fill="none" stroke="#c0c0c0" stroke-width="2" d="M334.846,-503.8314C339.4237,-495.7925 344.9052,-486.1666 349.9588,-477.2918"/>
<polygon fill="#c0c0c0" stroke="#c0c0c0" stroke-width="2" points="353.1077,-478.8351 355.0147,-468.4133 347.0248,-475.3712 353.1077,-478.8351"/>
</g>
<!-- 52&#45;&gt;51 -->
<g id="edge88" class="edge">
<title>52&#45;&gt;51</title>
<path fill="none" stroke="#c0c0c0" stroke-width="2" d="M296.089,-575.8314C300.3317,-567.7925 305.4121,-558.1666 310.096,-549.2918"/>
<polygon fill="#c0c0c0" stroke="#c0c0c0" stroke-width="2" points="313.2096,-550.8908 314.7819,-540.4133 307.0189,-547.6235 313.2096,-550.8908"/>
</g>
<!-- 53 -->
<g id="node54" class="node">
<title>53</title>
<path fill="none" stroke="#5682d8" stroke-width="2" d="M509.5,-468C509.5,-468 441.5,-468 441.5,-468 435.5,-468 429.5,-462 429.5,-456 429.5,-456 429.5,-444 429.5,-444 429.5,-438 435.5,-432 441.5,-432 441.5,-432 509.5,-432 509.5,-432 515.5,-432 521.5,-438 521.5,-444 521.5,-444 521.5,-456 521.5,-456 521.5,-462 515.5,-468 509.5,-468"/>
<text text-anchor="middle" x="475.5" y="-447.5" font-family="sans" font-size="10.00" fill="#000000">shard_sort_query</text>
</g>
<!-- 53&#45;&gt;42 -->
<g id="edge76" class="edge">
<title>53&#45;&gt;42</title>
<path fill="none" stroke="#c0c0c0" stroke-width="2" d="M449.0041,-431.8314C435.8226,-422.7927 419.7153,-411.7476 405.5289,-402.0198"/>
<polygon fill="#c0c0c0" stroke="#c0c0c0" stroke-width="2" points="407.2141,-398.9316 396.9875,-396.1628 403.2554,-404.7047 407.2141,-398.9316"/>
</g>
<!-- 54 -->
<g id="node55" class="node">
<title>54</title>
<path fill="none" stroke="#566bd8" stroke-width="2" d="M493,-540C493,-540 440,-540 440,-540 434,-540 428,-534 428,-528 428,-528 428,-516 428,-516 428,-510 434,-504 440,-504 440,-504 493,-504 493,-504 499,-504 505,-510 505,-516 505,-516 505,-528 505,-528 505,-534 499,-540 493,-540"/>
<text text-anchor="middle" x="466.5" y="-519.5" font-family="sans" font-size="10.00" fill="#000000">shard_unicorn</text>
</g>
<!-- 54&#45;&gt;53 -->
<g id="edge91" class="edge">
<title>54&#45;&gt;53</title>
<path fill="none" stroke="#c0c0c0" stroke-width="2" d="M468.7711,-503.8314C469.7336,-496.131 470.8782,-486.9743 471.9479,-478.4166"/>
<polygon fill="#c0c0c0" stroke="#c0c0c0" stroke-width="2" points="475.4309,-478.7702 473.1983,-468.4133 468.4849,-477.9019 475.4309,-478.7702"/>
</g>
<!-- 55&#45;&gt;54 -->
<g id="edge92" class="edge">
<title>55&#45;&gt;54</title>
<path fill="none" stroke="#c0c0c0" stroke-width="2" d="M459.7711,-575.8314C460.7336,-568.131 461.8782,-558.9743 462.9479,-550.4166"/>
<polygon fill="#c0c0c0" stroke="#c0c0c0" stroke-width="2" points="466.4309,-550.7702 464.1983,-540.4133 459.4849,-549.9019 466.4309,-550.7702"/>
</g>
<!-- 56 -->
<g id="node57" class="node">
<title>56</title>
<path fill="none" stroke="#70d856" stroke-width="2" d="M760.5,-252C760.5,-252 708.5,-252 708.5,-252 702.5,-252 696.5,-246 696.5,-240 696.5,-240 696.5,-228 696.5,-228 696.5,-222 702.5,-216 708.5,-216 708.5,-216 760.5,-216 760.5,-216 766.5,-216 772.5,-222 772.5,-228 772.5,-228 772.5,-240 772.5,-240 772.5,-246 766.5,-252 760.5,-252"/>
<text text-anchor="middle" x="734.5" y="-231.5" font-family="sans" font-size="10.00" fill="#000000">metadmg_dfit</text>
</g>
<!-- 56&#45;&gt;1 -->
<g id="edge23" class="edge">
<title>56&#45;&gt;1</title>
<path fill="none" stroke="#c0c0c0" stroke-width="2" d="M741.7796,-215.6585C750.2428,-196.1006 765.7468,-165.0985 786.5,-144 801.8425,-128.4022 822.5916,-115.5567 840.3005,-106.3131"/>
<polygon fill="#c0c0c0" stroke="#c0c0c0" stroke-width="2" points="841.8817,-109.4356 849.2392,-101.8121 838.7335,-103.1835 841.8817,-109.4356"/>
</g>
<!-- 62 -->
<g id="node63" class="node">
<title>62</title>
<path fill="none" stroke="#9fd856" stroke-width="2" d="M722,-180C722,-180 641,-180 641,-180 635,-180 629,-174 629,-168 629,-168 629,-156 629,-156 629,-150 635,-144 641,-144 641,-144 722,-144 722,-144 728,-144 734,-150 734,-156 734,-156 734,-168 734,-168 734,-174 728,-180 722,-180"/>
<text text-anchor="middle" x="681.5" y="-159.5" font-family="sans" font-size="10.00" fill="#000000">metadmg_aggregate</text>
</g>
<!-- 56&#45;&gt;62 -->
<g id="edge102" class="edge">
<title>56&#45;&gt;62</title>
<path fill="none" stroke="#c0c0c0" stroke-width="2" d="M721.1259,-215.8314C715.0838,-207.6232 707.8237,-197.7606 701.1779,-188.7323"/>
<polygon fill="#c0c0c0" stroke="#c0c0c0" stroke-width="2" points="703.8011,-186.3918 695.0542,-180.4133 698.1637,-190.5415 703.8011,-186.3918"/>
</g>
<!-- 57&#45;&gt;56 -->
<g id="edge95" class="edge">
<title>57&#45;&gt;56</title>
<path fill="none" stroke="#c0c0c0" stroke-width="2" d="M734.5,-287.8314C734.5,-280.131 734.5,-270.9743 734.5,-262.4166"/>
<polygon fill="#c0c0c0" stroke="#c0c0c0" stroke-width="2" points="738.0001,-262.4132 734.5,-252.4133 731.0001,-262.4133 738.0001,-262.4132"/>
</g>
<!-- 57&#45;&gt;62 -->
<g id="edge101" class="edge">
<title>57&#45;&gt;62</title>
<path fill="none" stroke="#c0c0c0" stroke-width="2" d="M713.1288,-287.6607C703.5174,-278.089 693.0946,-265.5568 687.5,-252 679.4103,-232.397 678.2004,-208.3487 678.8553,-190.0438"/>
<polygon fill="#c0c0c0" stroke="#c0c0c0" stroke-width="2" points="682.3527,-190.1872 679.4185,-180.0068 675.3637,-189.795 682.3527,-190.1872"/>
</g>
<!-- 58 -->
<g id="node59" class="node">
<title>58</title>
<path fill="none" stroke="#70d856" stroke-width="2" d="M1567.5,-252C1567.5,-252 1515.5,-252 1515.5,-252 1509.5,-252 1503.5,-246 1503.5,-240 1503.5,-240 1503.5,-228 1503.5,-228 1503.5,-222 1509.5,-216 1515.5,-216 1515.5,-216 1567.5,-216 1567.5,-216 1573.5,-216 1579.5,-222 1579.5,-228 1579.5,-228 1579.5,-240 1579.5,-240 1579.5,-246 1573.5,-252 1567.5,-252"/>
<text text-anchor="middle" x="1541.5" y="-231.5" font-family="sans" font-size="10.00" fill="#000000">metadmg_dfit</text>
</g>
<!-- 58&#45;&gt;1 -->
<g id="edge24" class="edge">
<title>58&#45;&gt;1</title>
<path fill="none" stroke="#c0c0c0" stroke-width="2" d="M1523.0521,-215.802C1500.188,-194.5005 1459.0162,-160.0929 1416.5,-144 1324.068,-109.0134 1020.4707,-95.1043 913.8901,-91.2232"/>
<polygon fill="#c0c0c0" stroke="#c0c0c0" stroke-width="2" points="913.7408,-87.7157 903.6227,-90.8583 913.4921,-94.7113 913.7408,-87.7157"/>
</g>
<!-- 63 -->
<g id="node64" class="node">
<title>63</title>
<path fill="none" stroke="#9fd856" stroke-width="2" d="M1605,-180C1605,-180 1524,-180 1524,-180 1518,-180 1512,-174 1512,-168 1512,-168 1512,-156 1512,-156 1512,-150 1518,-144 1524,-144 1524,-144 1605,-144 1605,-144 1611,-144 1617,-150 1617,-156 1617,-156 1617,-168 1617,-168 1617,-174 1611,-180 1605,-180"/>
<text text-anchor="middle" x="1564.5" y="-159.5" font-family="sans" font-size="10.00" fill="#000000">metadmg_aggregate</text>
</g>
<!-- 58&#45;&gt;63 -->
<g id="edge104" class="edge">
<title>58&#45;&gt;63</title>
<path fill="none" stroke="#c0c0c0" stroke-width="2" d="M1547.3039,-215.8314C1549.7908,-208.0463 1552.7531,-198.7729 1555.5125,-190.1347"/>
<polygon fill="#c0c0c0" stroke="#c0c0c0" stroke-width="2" points="1558.909,-191.0041 1558.618,-180.4133 1552.2409,-188.874 1558.909,-191.0041"/>
</g>
<!-- 59&#45;&gt;58 -->
<g id="edge97" class="edge">
<title>59&#45;&gt;58</title>
<path fill="none" stroke="#c0c0c0" stroke-width="2" d="M1569.911,-287.8314C1565.6683,-279.7925 1560.5879,-270.1666 1555.904,-261.2918"/>
<polygon fill="#c0c0c0" stroke="#c0c0c0" stroke-width="2" points="1558.9811,-259.6235 1551.2181,-252.4133 1552.7904,-262.8908 1558.9811,-259.6235"/>
</g>
<!-- 59&#45;&gt;63 -->
<g id="edge103" class="edge">
<title>59&#45;&gt;63</title>
<path fill="none" stroke="#c0c0c0" stroke-width="2" d="M1584.548,-287.892C1588.8961,-269.5893 1593.7157,-240.5774 1588.5,-216 1586.6019,-207.0557 1583.1165,-197.7941 1579.3791,-189.5203"/>
<polygon fill="#c0c0c0" stroke="#c0c0c0" stroke-width="2" points="1582.4495,-187.8294 1574.9559,-180.3395 1576.1432,-190.8676 1582.4495,-187.8294"/>
</g>
<!-- 60 -->
<g id="node61" class="node">
<title>60</title>
<path fill="none" stroke="#70d856" stroke-width="2" d="M440.5,-252C440.5,-252 388.5,-252 388.5,-252 382.5,-252 376.5,-246 376.5,-240 376.5,-240 376.5,-228 376.5,-228 376.5,-222 382.5,-216 388.5,-216 388.5,-216 440.5,-216 440.5,-216 446.5,-216 452.5,-222 452.5,-228 452.5,-228 452.5,-240 452.5,-240 452.5,-246 446.5,-252 440.5,-252"/>
<text text-anchor="middle" x="414.5" y="-231.5" font-family="sans" font-size="10.00" fill="#000000">metadmg_dfit</text>
</g>
<!-- 60&#45;&gt;1 -->
<g id="edge25" class="edge">
<title>60&#45;&gt;1</title>
<path fill="none" stroke="#c0c0c0" stroke-width="2" d="M432.4423,-215.6951C456.0646,-192.0198 496.7846,-152.7692 515.5,-144 572.6151,-117.2384 759.1823,-99.4451 839.3465,-92.854"/>
<polygon fill="#c0c0c0" stroke="#c0c0c0" stroke-width="2" points="839.7942,-96.3293 849.4794,-92.0342 839.2297,-89.3521 839.7942,-96.3293"/>
</g>
<!-- 64 -->
<g id="node65" class="node">
<title>64</title>
<path fill="none" stroke="#9fd856" stroke-width="2" d="M446,-180C446,-180 365,-180 365,-180 359,-180 353,-174 353,-168 353,-168 353,-156 353,-156 353,-150 359,-144 365,-144 365,-144 446,-144 446,-144 452,-144 458,-150 458,-156 458,-156 458,-168 458,-168 458,-174 452,-180 446,-180"/>
<text text-anchor="middle" x="405.5" y="-159.5" font-family="sans" font-size="10.00" fill="#000000">metadmg_aggregate</text>
</g>
<!-- 60&#45;&gt;64 -->
<g id="edge106" class="edge">
<title>60&#45;&gt;64</title>
<path fill="none" stroke="#c0c0c0" stroke-width="2" d="M412.2289,-215.8314C411.2664,-208.131 410.1218,-198.9743 409.0521,-190.4166"/>
<polygon fill="#c0c0c0" stroke="#c0c0c0" stroke-width="2" points="412.5151,-189.9019 407.8017,-180.4133 405.5691,-190.7702 412.5151,-189.9019"/>
</g>
<!-- 61&#45;&gt;60 -->
<g id="edge99" class="edge">
<title>61&#45;&gt;60</title>
<path fill="none" stroke="#c0c0c0" stroke-width="2" d="M386.089,-287.8314C390.3317,-279.7925 395.4121,-270.1666 400.096,-261.2918"/>
<polygon fill="#c0c0c0" stroke="#c0c0c0" stroke-width="2" points="403.2096,-262.8908 404.7819,-252.4133 397.0189,-259.6235 403.2096,-262.8908"/>
</g>
<!-- 61&#45;&gt;64 -->
<g id="edge105" class="edge">
<title>61&#45;&gt;64</title>
<path fill="none" stroke="#c0c0c0" stroke-width="2" d="M370.5492,-287.9744C365.3964,-269.4858 359.8694,-240.1027 367.5,-216 370.5815,-206.2664 376.1183,-196.7695 382.0289,-188.5228"/>
<polygon fill="#c0c0c0" stroke="#c0c0c0" stroke-width="2" points="384.931,-190.49 388.2365,-180.4239 379.3752,-186.2316 384.931,-190.49"/>
</g>
<!-- 62&#45;&gt;0 -->
<g id="edge5" class="edge">
<title>62&#45;&gt;0</title>
<path fill="none" stroke="#c0c0c0" stroke-width="2" d="M706.8464,-143.8301C737.1292,-123.0552 790.0504,-89.6485 840.5,-72 945.7906,-35.1667 1078.3347,-23.3275 1141.9952,-19.6238"/>
<polygon fill="#c0c0c0" stroke="#c0c0c0" stroke-width="2" points="1142.5392,-23.0994 1152.3335,-19.0594 1142.1576,-16.1098 1142.5392,-23.0994"/>
</g>
<!-- 62&#45;&gt;1 -->
<g id="edge26" class="edge">
<title>62&#45;&gt;1</title>
<path fill="none" stroke="#c0c0c0" stroke-width="2" d="M730.455,-143.9243C764.4564,-131.3699 809.0326,-114.911 839.9529,-103.4943"/>
<polygon fill="#c0c0c0" stroke="#c0c0c0" stroke-width="2" points="841.3127,-106.7233 849.4813,-99.9761 838.888,-100.1566 841.3127,-106.7233"/>
</g>
<!-- 63&#45;&gt;0 -->
<g id="edge6" class="edge">
<title>63&#45;&gt;0</title>
<path fill="none" stroke="#c0c0c0" stroke-width="2" d="M1534.4757,-143.924C1500.3552,-124.0147 1442.5101,-92.1562 1389.5,-72 1330.6634,-49.6284 1259.094,-33.4435 1216.5273,-24.9079"/>
<polygon fill="#c0c0c0" stroke="#c0c0c0" stroke-width="2" points="1217.1012,-21.4537 1206.613,-22.9534 1215.7472,-28.3215 1217.1012,-21.4537"/>
</g>
<!-- 63&#45;&gt;1 -->
<g id="edge27" class="edge">
<title>63&#45;&gt;1</title>
<path fill="none" stroke="#c0c0c0" stroke-width="2" d="M1511.7437,-152.1347C1495.073,-149.2382 1476.5529,-146.248 1459.5,-144 1254.0244,-116.9131 1006.0332,-98.7189 913.5908,-92.4343"/>
<polygon fill="#c0c0c0" stroke="#c0c0c0" stroke-width="2" points="913.82,-88.9419 903.6071,-91.761 913.3489,-95.9261 913.82,-88.9419"/>
</g>
<!-- 64&#45;&gt;0 -->
<g id="edge7" class="edge">
<title>64&#45;&gt;0</title>
<path fill="none" stroke="#c0c0c0" stroke-width="2" d="M458.0262,-146.3225C460.8888,-145.5237 463.7274,-144.7447 466.5,-144 597.6747,-108.7692 629.9559,-96.7787 763.5,-72 902.0464,-46.2931 1068.7987,-28.5982 1141.9789,-21.4889"/>
<polygon fill="#c0c0c0" stroke="#c0c0c0" stroke-width="2" points="1142.4636,-24.9586 1152.0825,-20.5172 1141.7933,-17.9907 1142.4636,-24.9586"/>
</g>
<!-- 64&#45;&gt;1 -->
<g id="edge28" class="edge">
<title>64&#45;&gt;1</title>
<path fill="none" stroke="#c0c0c0" stroke-width="2" d="M458.0148,-147.2017C462.8926,-146.036 467.7761,-144.9461 472.5,-144 606.1435,-117.2335 767.3842,-100.1757 839.0396,-93.3695"/>
<polygon fill="#c0c0c0" stroke="#c0c0c0" stroke-width="2" points="839.7213,-96.821 849.3507,-92.4024 839.0675,-89.8516 839.7213,-96.821"/>
</g>
<!-- 65&#45;&gt;0 -->
<g id="edge2" class="edge">
<title>65&#45;&gt;0</title>
<path fill="none" stroke="#c0c0c0" stroke-width="2" d="M1314.4234,-372.1042C1420.8813,-363.1406 1604.0865,-344.9018 1626.5,-324 1656.3983,-296.1181 1645.5,-274.8816 1645.5,-234 1645.5,-234 1645.5,-234 1645.5,-162 1645.5,-72.3809 1326.9099,-32.5152 1216.5778,-21.3963"/>
<polygon fill="#c0c0c0" stroke="#c0c0c0" stroke-width="2" points="1216.8636,-17.9076 1206.5684,-20.4093 1216.1766,-24.8738 1216.8636,-17.9076"/>
</g>
<!-- 66&#45;&gt;0 -->
<g id="edge3" class="edge">
<title>66&#45;&gt;0</title>
<path fill="none" stroke="#c0c0c0" stroke-width="2" d="M1799.5,-359.8146C1799.5,-332.4983 1799.5,-279.25 1799.5,-234 1799.5,-234 1799.5,-234 1799.5,-162 1799.5,-98.1421 1746.5285,-96.3612 1687.5,-72 1602.0828,-36.7481 1319.1472,-23.1067 1216.833,-19.2512"/>
<polygon fill="#c0c0c0" stroke="#c0c0c0" stroke-width="2" points="1216.7876,-15.7473 1206.6659,-18.8781 1216.5308,-22.7425 1216.7876,-15.7473"/>
</g>
<!-- 67&#45;&gt;0 -->
<g id="edge4" class="edge">
<title>67&#45;&gt;0</title>
<path fill="none" stroke="#c0c0c0" stroke-width="2" d="M448.0202,-76.6608C459.2227,-74.9344 470.6466,-73.3135 481.5,-72 733.1851,-41.5408 1038.1198,-24.8676 1142.4399,-19.7364"/>
<polygon fill="#c0c0c0" stroke="#c0c0c0" stroke-width="2" points="1142.6498,-23.2304 1152.4678,-19.2485 1142.3095,-16.2387 1142.6498,-23.2304"/>
</g>
<!-- 68&#45;&gt;0 -->
<g id="edge8" class="edge">
<title>68&#45;&gt;0</title>
<path fill="none" stroke="#c0c0c0" stroke-width="2" d="M1293.144,-71.8314C1269.4911,-60.6274 1239.3302,-46.3406 1216.0247,-35.3012"/>
<polygon fill="#c0c0c0" stroke="#c0c0c0" stroke-width="2" points="1217.3529,-32.0575 1206.8172,-30.9397 1214.3562,-38.3837 1217.3529,-32.0575"/>
</g>
<!-- 69&#45;&gt;0 -->
<g id="edge9" class="edge">
<title>69&#45;&gt;0</title>
<path fill="none" stroke="#c0c0c0" stroke-width="2" d="M1723.8149,-287.882C1725.9492,-243.3174 1724.592,-127.9388 1659.5,-72 1626.0704,-43.2712 1323.7874,-25.308 1216.8097,-19.805"/>
<polygon fill="#c0c0c0" stroke="#c0c0c0" stroke-width="2" points="1216.9541,-16.3079 1206.7896,-19.2967 1216.5994,-23.2989 1216.9541,-16.3079"/>
</g>
<!-- 70&#45;&gt;0 -->
<g id="edge10" class="edge">
<title>70&#45;&gt;0</title>
<path fill="none" stroke="#c0c0c0" stroke-width="2" d="M587.0367,-81.4899C606.4269,-78.2574 628.9838,-74.7062 649.5,-72 833.9114,-47.6749 1055.6711,-28.2426 1142.2873,-21.028"/>
<polygon fill="#c0c0c0" stroke="#c0c0c0" stroke-width="2" points="1142.7306,-24.5034 1152.4075,-20.1896 1142.1526,-17.5273 1142.7306,-24.5034"/>
</g>
</g>
</svg>
