<?xml version="1.0" encoding="UTF-8" standalone="no"?>
<!DOCTYPE svg PUBLIC "-//W3C//DTD SVG 1.1//EN"
 "http://www.w3.org/Graphics/SVG/1.1/DTD/svg11.dtd">
<!-- Generated by graphviz version 2.40.1 (0)
 -->
<!-- Title: snakemake_dag Pages: 1 -->
<svg width="1949pt" height="741pt"
 viewBox="0.00 0.00 1948.50 741.00" xmlns="http://www.w3.org/2000/svg" xmlns:xlink="http://www.w3.org/1999/xlink">
<g id="graph0" class="graph" transform="scale(1 1) rotate(0) translate(4 737)">
<title>snakemake_dag</title>
<polygon fill="#ffffff" stroke="transparent" points="-4,4 -4,-737 1944.5,-737 1944.5,4 -4,4"/>
<!-- 0 -->
<g id="node1" class="node">
<title>0</title>
<path fill="none" stroke="#8fd856" stroke-width="2" d="M442.5,-36C442.5,-36 412.5,-36 412.5,-36 406.5,-36 400.5,-30 400.5,-24 400.5,-24 400.5,-12 400.5,-12 400.5,-6 406.5,0 412.5,0 412.5,0 442.5,0 442.5,0 448.5,0 454.5,-6 454.5,-12 454.5,-12 454.5,-24 454.5,-24 454.5,-30 448.5,-36 442.5,-36"/>
<text text-anchor="middle" x="427.5" y="-15.5" font-family="sans" font-size="10.00" fill="#000000">all</text>
</g>
<!-- 1 -->
<g id="node2" class="node">
<title>1</title>
<path fill="none" stroke="#56a9d8" stroke-width="2" d="M694.5,-108C694.5,-108 664.5,-108 664.5,-108 658.5,-108 652.5,-102 652.5,-96 652.5,-96 652.5,-84 652.5,-84 652.5,-78 658.5,-72 664.5,-72 664.5,-72 694.5,-72 694.5,-72 700.5,-72 706.5,-78 706.5,-84 706.5,-84 706.5,-96 706.5,-96 706.5,-102 700.5,-108 694.5,-108"/>
<text text-anchor="middle" x="679.5" y="-87.5" font-family="sans" font-size="10.00" fill="#000000">multiqc</text>
</g>
<!-- 1&#45;&gt;0 -->
<g id="edge1" class="edge">
<title>1&#45;&gt;0</title>
<path fill="none" stroke="#c0c0c0" stroke-width="2" d="M652.0519,-82.1577C606.4875,-69.1393 515.2103,-43.0601 464.1774,-28.4793"/>
<polygon fill="#c0c0c0" stroke="#c0c0c0" stroke-width="2" points="465.1097,-25.1056 454.5329,-25.7237 463.1866,-31.8363 465.1097,-25.1056"/>
</g>
<!-- 2 -->
<g id="node3" class="node">
<title>2</title>
<path fill="none" stroke="#70d856" stroke-width="2" d="M960,-733C960,-733 853,-733 853,-733 847,-733 841,-727 841,-721 841,-721 841,-660 841,-660 841,-654 847,-648 853,-648 853,-648 960,-648 960,-648 966,-648 972,-654 972,-660 972,-660 972,-721 972,-721 972,-727 966,-733 960,-733"/>
<text text-anchor="middle" x="906.5" y="-721" font-family="sans" font-size="10.00" fill="#000000">bowtie2</text>
<text text-anchor="middle" x="906.5" y="-710" font-family="sans" font-size="10.00" fill="#000000">library: lib1</text>
<text text-anchor="middle" x="906.5" y="-699" font-family="sans" font-size="10.00" fill="#000000">n_shard: 1</text>
<text text-anchor="middle" x="906.5" y="-688" font-family="sans" font-size="10.00" fill="#000000">read_type_map: collapsed</text>
<text text-anchor="middle" x="906.5" y="-677" font-family="sans" font-size="10.00" fill="#000000">ref: refseq_mitochondrion</text>
<text text-anchor="middle" x="906.5" y="-666" font-family="sans" font-size="10.00" fill="#000000">sample: HD827sonic_1</text>
<text text-anchor="middle" x="906.5" y="-655" font-family="sans" font-size="10.00" fill="#000000">tot_shards: 1</text>
</g>
<!-- 2&#45;&gt;1 -->
<g id="edge8" class="edge">
<title>2&#45;&gt;1</title>
<path fill="none" stroke="#c0c0c0" stroke-width="2" d="M943.2923,-647.7751C950.74,-636.7951 957.5064,-624.5248 961.5,-612 983.3729,-543.4014 962.5,-522.0014 962.5,-450 962.5,-450 962.5,-450 962.5,-234 962.5,-125.014 793.7184,-98.4795 716.8453,-92.0462"/>
<polygon fill="#c0c0c0" stroke="#c0c0c0" stroke-width="2" points="716.873,-88.5382 706.6352,-91.2654 716.3392,-95.5178 716.873,-88.5382"/>
</g>
<!-- 20 -->
<g id="node21" class="node">
<title>20</title>
<path fill="none" stroke="#5692d8" stroke-width="2" d="M940.5,-612C940.5,-612 860.5,-612 860.5,-612 854.5,-612 848.5,-606 848.5,-600 848.5,-600 848.5,-588 848.5,-588 848.5,-582 854.5,-576 860.5,-576 860.5,-576 940.5,-576 940.5,-576 946.5,-576 952.5,-582 952.5,-588 952.5,-588 952.5,-600 952.5,-600 952.5,-606 946.5,-612 940.5,-612"/>
<text text-anchor="middle" x="900.5" y="-591.5" font-family="sans" font-size="10.00" fill="#000000">shard_clean_header</text>
</g>
<!-- 2&#45;&gt;20 -->
<g id="edge38" class="edge">
<title>2&#45;&gt;20</title>
<path fill="none" stroke="#c0c0c0" stroke-width="2" d="M903.8508,-647.8928C903.3156,-639.2842 902.7652,-630.4327 902.2692,-622.4546"/>
<polygon fill="#c0c0c0" stroke="#c0c0c0" stroke-width="2" points="905.7469,-621.9853 901.633,-612.2218 898.7604,-622.4197 905.7469,-621.9853"/>
</g>
<!-- 3 -->
<g id="node4" class="node">
<title>3</title>
<path fill="none" stroke="#70d856" stroke-width="2" d="M319,-733C319,-733 212,-733 212,-733 206,-733 200,-727 200,-721 200,-721 200,-660 200,-660 200,-654 206,-648 212,-648 212,-648 319,-648 319,-648 325,-648 331,-654 331,-660 331,-660 331,-721 331,-721 331,-727 325,-733 319,-733"/>
<text text-anchor="middle" x="265.5" y="-721" font-family="sans" font-size="10.00" fill="#000000">bowtie2</text>
<text text-anchor="middle" x="265.5" y="-710" font-family="sans" font-size="10.00" fill="#000000">library: lib2</text>
<text text-anchor="middle" x="265.5" y="-699" font-family="sans" font-size="10.00" fill="#000000">n_shard: 2</text>
<text text-anchor="middle" x="265.5" y="-688" font-family="sans" font-size="10.00" fill="#000000">read_type_map: collapsed</text>
<text text-anchor="middle" x="265.5" y="-677" font-family="sans" font-size="10.00" fill="#000000">ref: refseq_invertebrate</text>
<text text-anchor="middle" x="265.5" y="-666" font-family="sans" font-size="10.00" fill="#000000">sample: HD827sonic_2</text>
<text text-anchor="middle" x="265.5" y="-655" font-family="sans" font-size="10.00" fill="#000000">tot_shards: 3</text>
</g>
<!-- 3&#45;&gt;1 -->
<g id="edge9" class="edge">
<title>3&#45;&gt;1</title>
<path fill="none" stroke="#c0c0c0" stroke-width="2" d="M298.9694,-647.7782C306.9518,-636.5083 315.0245,-624.1043 321.5,-612 345.719,-566.7287 332.1267,-545.3946 362.5,-504 408.3675,-441.489 450.1625,-455.8102 499.5,-396 579.6944,-298.7831 557.1382,-247.1796 629.5,-144 636.3525,-134.2292 644.8609,-124.3995 652.9046,-115.8548"/>
<polygon fill="#c0c0c0" stroke="#c0c0c0" stroke-width="2" points="655.6688,-118.0309 660.1001,-108.4073 650.6346,-113.167 655.6688,-118.0309"/>
</g>
<!-- 40 -->
<g id="node41" class="node">
<title>40</title>
<path fill="none" stroke="#5692d8" stroke-width="2" d="M300.5,-612C300.5,-612 220.5,-612 220.5,-612 214.5,-612 208.5,-606 208.5,-600 208.5,-600 208.5,-588 208.5,-588 208.5,-582 214.5,-576 220.5,-576 220.5,-576 300.5,-576 300.5,-576 306.5,-576 312.5,-582 312.5,-588 312.5,-588 312.5,-600 312.5,-600 312.5,-606 306.5,-612 300.5,-612"/>
<text text-anchor="middle" x="260.5" y="-591.5" font-family="sans" font-size="10.00" fill="#000000">shard_clean_header</text>
</g>
<!-- 3&#45;&gt;40 -->
<g id="edge64" class="edge">
<title>3&#45;&gt;40</title>
<path fill="none" stroke="#c0c0c0" stroke-width="2" d="M263.2924,-647.8928C262.8463,-639.2842 262.3877,-630.4327 261.9743,-622.4546"/>
<polygon fill="#c0c0c0" stroke="#c0c0c0" stroke-width="2" points="265.457,-622.0273 261.4441,-612.2218 258.4664,-622.3895 265.457,-622.0273"/>
</g>
<!-- 4 -->
<g id="node5" class="node">
<title>4</title>
<path fill="none" stroke="#70d856" stroke-width="2" d="M1300,-733C1300,-733 1193,-733 1193,-733 1187,-733 1181,-727 1181,-721 1181,-721 1181,-660 1181,-660 1181,-654 1187,-648 1193,-648 1193,-648 1300,-648 1300,-648 1306,-648 1312,-654 1312,-660 1312,-660 1312,-721 1312,-721 1312,-727 1306,-733 1300,-733"/>
<text text-anchor="middle" x="1246.5" y="-721" font-family="sans" font-size="10.00" fill="#000000">bowtie2</text>
<text text-anchor="middle" x="1246.5" y="-710" font-family="sans" font-size="10.00" fill="#000000">library: lib1</text>
<text text-anchor="middle" x="1246.5" y="-699" font-family="sans" font-size="10.00" fill="#000000">n_shard: 3</text>
<text text-anchor="middle" x="1246.5" y="-688" font-family="sans" font-size="10.00" fill="#000000">read_type_map: collapsed</text>
<text text-anchor="middle" x="1246.5" y="-677" font-family="sans" font-size="10.00" fill="#000000">ref: refseq_invertebrate</text>
<text text-anchor="middle" x="1246.5" y="-666" font-family="sans" font-size="10.00" fill="#000000">sample: HD827sonic_1</text>
<text text-anchor="middle" x="1246.5" y="-655" font-family="sans" font-size="10.00" fill="#000000">tot_shards: 3</text>
</g>
<!-- 4&#45;&gt;1 -->
<g id="edge10" class="edge">
<title>4&#45;&gt;1</title>
<path fill="none" stroke="#c0c0c0" stroke-width="2" d="M1268.3082,-647.7122C1283.2952,-614.3523 1300.5,-566.3889 1300.5,-522 1300.5,-522 1300.5,-522 1300.5,-234 1300.5,-113.4491 850.7945,-93.791 716.7624,-90.6091"/>
<polygon fill="#c0c0c0" stroke="#c0c0c0" stroke-width="2" points="716.6575,-87.1061 706.5829,-90.3852 716.5035,-94.1044 716.6575,-87.1061"/>
</g>
<!-- 24 -->
<g id="node25" class="node">
<title>24</title>
<path fill="none" stroke="#5692d8" stroke-width="2" d="M1260.5,-612C1260.5,-612 1180.5,-612 1180.5,-612 1174.5,-612 1168.5,-606 1168.5,-600 1168.5,-600 1168.5,-588 1168.5,-588 1168.5,-582 1174.5,-576 1180.5,-576 1180.5,-576 1260.5,-576 1260.5,-576 1266.5,-576 1272.5,-582 1272.5,-588 1272.5,-588 1272.5,-600 1272.5,-600 1272.5,-606 1266.5,-612 1260.5,-612"/>
<text text-anchor="middle" x="1220.5" y="-591.5" font-family="sans" font-size="10.00" fill="#000000">shard_clean_header</text>
</g>
<!-- 4&#45;&gt;24 -->
<g id="edge42" class="edge">
<title>4&#45;&gt;24</title>
<path fill="none" stroke="#c0c0c0" stroke-width="2" d="M1235.0203,-647.8928C1232.6482,-639.0886 1230.2076,-630.0302 1228.0203,-621.9121"/>
<polygon fill="#c0c0c0" stroke="#c0c0c0" stroke-width="2" points="1231.3906,-620.9669 1225.4095,-612.2218 1224.6316,-622.788 1231.3906,-620.9669"/>
</g>
<!-- 5 -->
<g id="node6" class="node">
<title>5</title>
<path fill="none" stroke="#70d856" stroke-width="2" d="M1463,-733C1463,-733 1356,-733 1356,-733 1350,-733 1344,-727 1344,-721 1344,-721 1344,-660 1344,-660 1344,-654 1350,-648 1356,-648 1356,-648 1463,-648 1463,-648 1469,-648 1475,-654 1475,-660 1475,-660 1475,-721 1475,-721 1475,-727 1469,-733 1463,-733"/>
<text text-anchor="middle" x="1409.5" y="-721" font-family="sans" font-size="10.00" fill="#000000">bowtie2</text>
<text text-anchor="middle" x="1409.5" y="-710" font-family="sans" font-size="10.00" fill="#000000">library: lib1</text>
<text text-anchor="middle" x="1409.5" y="-699" font-family="sans" font-size="10.00" fill="#000000">n_shard: 2</text>
<text text-anchor="middle" x="1409.5" y="-688" font-family="sans" font-size="10.00" fill="#000000">read_type_map: collapsed</text>
<text text-anchor="middle" x="1409.5" y="-677" font-family="sans" font-size="10.00" fill="#000000">ref: refseq_invertebrate</text>
<text text-anchor="middle" x="1409.5" y="-666" font-family="sans" font-size="10.00" fill="#000000">sample: HD827sonic_2</text>
<text text-anchor="middle" x="1409.5" y="-655" font-family="sans" font-size="10.00" fill="#000000">tot_shards: 3</text>
</g>
<!-- 5&#45;&gt;1 -->
<g id="edge11" class="edge">
<title>5&#45;&gt;1</title>
<path fill="none" stroke="#c0c0c0" stroke-width="2" d="M1376.9932,-647.7259C1369.6982,-636.5574 1362.6144,-624.2138 1357.5,-612 1341.7097,-574.2909 1338.5,-562.8816 1338.5,-522 1338.5,-522 1338.5,-522 1338.5,-234 1338.5,-172.8731 1290.6776,-168.095 1234.5,-144 1140.8623,-103.8382 825.994,-93.2135 717.0045,-90.7052"/>
<polygon fill="#c0c0c0" stroke="#c0c0c0" stroke-width="2" points="716.8919,-87.202 706.8172,-90.4808 716.7377,-94.2003 716.8919,-87.202"/>
</g>
<!-- 29 -->
<g id="node30" class="node">
<title>29</title>
<path fill="none" stroke="#5692d8" stroke-width="2" d="M1458.5,-612C1458.5,-612 1378.5,-612 1378.5,-612 1372.5,-612 1366.5,-606 1366.5,-600 1366.5,-600 1366.5,-588 1366.5,-588 1366.5,-582 1372.5,-576 1378.5,-576 1378.5,-576 1458.5,-576 1458.5,-576 1464.5,-576 1470.5,-582 1470.5,-588 1470.5,-588 1470.5,-600 1470.5,-600 1470.5,-606 1464.5,-612 1458.5,-612"/>
<text text-anchor="middle" x="1418.5" y="-591.5" font-family="sans" font-size="10.00" fill="#000000">shard_clean_header</text>
</g>
<!-- 5&#45;&gt;29 -->
<g id="edge50" class="edge">
<title>5&#45;&gt;29</title>
<path fill="none" stroke="#c0c0c0" stroke-width="2" d="M1413.4737,-647.8928C1414.2857,-639.1864 1415.1209,-630.2315 1415.8715,-622.183"/>
<polygon fill="#c0c0c0" stroke="#c0c0c0" stroke-width="2" points="1419.3567,-622.5036 1416.8006,-612.2218 1412.387,-621.8535 1419.3567,-622.5036"/>
</g>
<!-- 6 -->
<g id="node7" class="node">
<title>6</title>
<path fill="none" stroke="#70d856" stroke-width="2" d="M800,-733C800,-733 693,-733 693,-733 687,-733 681,-727 681,-721 681,-721 681,-660 681,-660 681,-654 687,-648 693,-648 693,-648 800,-648 800,-648 806,-648 812,-654 812,-660 812,-660 812,-721 812,-721 812,-727 806,-733 800,-733"/>
<text text-anchor="middle" x="746.5" y="-721" font-family="sans" font-size="10.00" fill="#000000">bowtie2</text>
<text text-anchor="middle" x="746.5" y="-710" font-family="sans" font-size="10.00" fill="#000000">library: lib1</text>
<text text-anchor="middle" x="746.5" y="-699" font-family="sans" font-size="10.00" fill="#000000">n_shard: 2</text>
<text text-anchor="middle" x="746.5" y="-688" font-family="sans" font-size="10.00" fill="#000000">read_type_map: collapsed</text>
<text text-anchor="middle" x="746.5" y="-677" font-family="sans" font-size="10.00" fill="#000000">ref: refseq_invertebrate</text>
<text text-anchor="middle" x="746.5" y="-666" font-family="sans" font-size="10.00" fill="#000000">sample: HD827sonic_1</text>
<text text-anchor="middle" x="746.5" y="-655" font-family="sans" font-size="10.00" fill="#000000">tot_shards: 3</text>
</g>
<!-- 6&#45;&gt;1 -->
<g id="edge12" class="edge">
<title>6&#45;&gt;1</title>
<path fill="none" stroke="#c0c0c0" stroke-width="2" d="M727.2531,-647.8112C713.8992,-614.3048 698.5,-566.105 698.5,-522 698.5,-522 698.5,-522 698.5,-234 698.5,-193.5282 691.032,-147.2037 685.46,-118.2725"/>
<polygon fill="#c0c0c0" stroke="#c0c0c0" stroke-width="2" points="688.8177,-117.2111 683.4368,-108.0844 681.9517,-118.5746 688.8177,-117.2111"/>
</g>
<!-- 18 -->
<g id="node19" class="node">
<title>18</title>
<path fill="none" stroke="#5692d8" stroke-width="2" d="M818.5,-612C818.5,-612 738.5,-612 738.5,-612 732.5,-612 726.5,-606 726.5,-600 726.5,-600 726.5,-588 726.5,-588 726.5,-582 732.5,-576 738.5,-576 738.5,-576 818.5,-576 818.5,-576 824.5,-576 830.5,-582 830.5,-588 830.5,-588 830.5,-600 830.5,-600 830.5,-606 824.5,-612 818.5,-612"/>
<text text-anchor="middle" x="778.5" y="-591.5" font-family="sans" font-size="10.00" fill="#000000">shard_clean_header</text>
</g>
<!-- 6&#45;&gt;18 -->
<g id="edge36" class="edge">
<title>6&#45;&gt;18</title>
<path fill="none" stroke="#c0c0c0" stroke-width="2" d="M760.6288,-647.8928C763.5484,-639.0886 766.5522,-630.0302 769.2442,-621.9121"/>
<polygon fill="#c0c0c0" stroke="#c0c0c0" stroke-width="2" points="772.6321,-622.8152 772.4575,-612.2218 765.9878,-620.6119 772.6321,-622.8152"/>
</g>
<!-- 7 -->
<g id="node8" class="node">
<title>7</title>
<path fill="none" stroke="#70d856" stroke-width="2" d="M1771,-733C1771,-733 1664,-733 1664,-733 1658,-733 1652,-727 1652,-721 1652,-721 1652,-660 1652,-660 1652,-654 1658,-648 1664,-648 1664,-648 1771,-648 1771,-648 1777,-648 1783,-654 1783,-660 1783,-660 1783,-721 1783,-721 1783,-727 1777,-733 1771,-733"/>
<text text-anchor="middle" x="1717.5" y="-721" font-family="sans" font-size="10.00" fill="#000000">bowtie2</text>
<text text-anchor="middle" x="1717.5" y="-710" font-family="sans" font-size="10.00" fill="#000000">library: lib1</text>
<text text-anchor="middle" x="1717.5" y="-699" font-family="sans" font-size="10.00" fill="#000000">n_shard: 1</text>
<text text-anchor="middle" x="1717.5" y="-688" font-family="sans" font-size="10.00" fill="#000000">read_type_map: collapsed</text>
<text text-anchor="middle" x="1717.5" y="-677" font-family="sans" font-size="10.00" fill="#000000">ref: refseq_invertebrate</text>
<text text-anchor="middle" x="1717.5" y="-666" font-family="sans" font-size="10.00" fill="#000000">sample: HD827sonic_2</text>
<text text-anchor="middle" x="1717.5" y="-655" font-family="sans" font-size="10.00" fill="#000000">tot_shards: 3</text>
</g>
<!-- 7&#45;&gt;1 -->
<g id="edge13" class="edge">
<title>7&#45;&gt;1</title>
<path fill="none" stroke="#c0c0c0" stroke-width="2" d="M1695.1747,-647.8711C1681.4245,-624.5532 1662.1138,-596.3566 1639.5,-576 1614.3759,-553.3837 1592.4272,-567.3061 1572.5,-540 1486.1701,-421.7027 1594.8599,-337.0949 1512.5,-216 1478.5872,-166.1375 1454.7933,-162.8101 1397.5,-144 1332.6065,-122.6947 855.1928,-98.4089 716.9232,-91.7604"/>
<polygon fill="#c0c0c0" stroke="#c0c0c0" stroke-width="2" points="716.9763,-88.259 706.8204,-91.2771 716.6417,-95.251 716.9763,-88.259"/>
</g>
<!-- 33 -->
<g id="node34" class="node">
<title>33</title>
<path fill="none" stroke="#5692d8" stroke-width="2" d="M1778.5,-612C1778.5,-612 1698.5,-612 1698.5,-612 1692.5,-612 1686.5,-606 1686.5,-600 1686.5,-600 1686.5,-588 1686.5,-588 1686.5,-582 1692.5,-576 1698.5,-576 1698.5,-576 1778.5,-576 1778.5,-576 1784.5,-576 1790.5,-582 1790.5,-588 1790.5,-588 1790.5,-600 1790.5,-600 1790.5,-606 1784.5,-612 1778.5,-612"/>
<text text-anchor="middle" x="1738.5" y="-591.5" font-family="sans" font-size="10.00" fill="#000000">shard_clean_header</text>
</g>
<!-- 7&#45;&gt;33 -->
<g id="edge54" class="edge">
<title>7&#45;&gt;33</title>
<path fill="none" stroke="#c0c0c0" stroke-width="2" d="M1726.772,-647.8928C1728.6667,-639.1864 1730.6154,-630.2315 1732.3669,-622.183"/>
<polygon fill="#c0c0c0" stroke="#c0c0c0" stroke-width="2" points="1735.8281,-622.7374 1734.5346,-612.2218 1728.9882,-621.2488 1735.8281,-622.7374"/>
</g>
<!-- 8 -->
<g id="node9" class="node">
<title>8</title>
<path fill="none" stroke="#70d856" stroke-width="2" d="M1922,-733C1922,-733 1815,-733 1815,-733 1809,-733 1803,-727 1803,-721 1803,-721 1803,-660 1803,-660 1803,-654 1809,-648 1815,-648 1815,-648 1922,-648 1922,-648 1928,-648 1934,-654 1934,-660 1934,-660 1934,-721 1934,-721 1934,-727 1928,-733 1922,-733"/>
<text text-anchor="middle" x="1868.5" y="-721" font-family="sans" font-size="10.00" fill="#000000">bowtie2</text>
<text text-anchor="middle" x="1868.5" y="-710" font-family="sans" font-size="10.00" fill="#000000">library: lib1</text>
<text text-anchor="middle" x="1868.5" y="-699" font-family="sans" font-size="10.00" fill="#000000">n_shard: 3</text>
<text text-anchor="middle" x="1868.5" y="-688" font-family="sans" font-size="10.00" fill="#000000">read_type_map: collapsed</text>
<text text-anchor="middle" x="1868.5" y="-677" font-family="sans" font-size="10.00" fill="#000000">ref: refseq_invertebrate</text>
<text text-anchor="middle" x="1868.5" y="-666" font-family="sans" font-size="10.00" fill="#000000">sample: HD827sonic_2</text>
<text text-anchor="middle" x="1868.5" y="-655" font-family="sans" font-size="10.00" fill="#000000">tot_shards: 3</text>
</g>
<!-- 8&#45;&gt;1 -->
<g id="edge14" class="edge">
<title>8&#45;&gt;1</title>
<path fill="none" stroke="#c0c0c0" stroke-width="2" d="M1901.6518,-647.7951C1909.0865,-636.6249 1916.3014,-624.2631 1921.5,-612 1937.4561,-574.3608 1940.5,-562.8816 1940.5,-522 1940.5,-522 1940.5,-522 1940.5,-306 1940.5,-197.0431 1857.4402,-185.0206 1756.5,-144 1658.6095,-104.2188 895.7667,-92.6055 716.9286,-90.4171"/>
<polygon fill="#c0c0c0" stroke="#c0c0c0" stroke-width="2" points="716.7515,-86.9149 706.7103,-90.2947 716.6676,-93.9143 716.7515,-86.9149"/>
</g>
<!-- 35 -->
<g id="node36" class="node">
<title>35</title>
<path fill="none" stroke="#5692d8" stroke-width="2" d="M1900.5,-612C1900.5,-612 1820.5,-612 1820.5,-612 1814.5,-612 1808.5,-606 1808.5,-600 1808.5,-600 1808.5,-588 1808.5,-588 1808.5,-582 1814.5,-576 1820.5,-576 1820.5,-576 1900.5,-576 1900.5,-576 1906.5,-576 1912.5,-582 1912.5,-588 1912.5,-588 1912.5,-600 1912.5,-600 1912.5,-606 1906.5,-612 1900.5,-612"/>
<text text-anchor="middle" x="1860.5" y="-591.5" font-family="sans" font-size="10.00" fill="#000000">shard_clean_header</text>
</g>
<!-- 8&#45;&gt;35 -->
<g id="edge56" class="edge">
<title>8&#45;&gt;35</title>
<path fill="none" stroke="#c0c0c0" stroke-width="2" d="M1864.9678,-647.8928C1864.2541,-639.2842 1863.5203,-630.4327 1862.8589,-622.4546"/>
<polygon fill="#c0c0c0" stroke="#c0c0c0" stroke-width="2" points="1866.3249,-621.8984 1862.0106,-612.2218 1859.3489,-622.4768 1866.3249,-621.8984"/>
</g>
<!-- 9 -->
<g id="node10" class="node">
<title>9</title>
<path fill="none" stroke="#70d856" stroke-width="2" d="M144,-733C144,-733 37,-733 37,-733 31,-733 25,-727 25,-721 25,-721 25,-660 25,-660 25,-654 31,-648 37,-648 37,-648 144,-648 144,-648 150,-648 156,-654 156,-660 156,-660 156,-721 156,-721 156,-727 150,-733 144,-733"/>
<text text-anchor="middle" x="90.5" y="-721" font-family="sans" font-size="10.00" fill="#000000">bowtie2</text>
<text text-anchor="middle" x="90.5" y="-710" font-family="sans" font-size="10.00" fill="#000000">library: lib2</text>
<text text-anchor="middle" x="90.5" y="-699" font-family="sans" font-size="10.00" fill="#000000">n_shard: 1</text>
<text text-anchor="middle" x="90.5" y="-688" font-family="sans" font-size="10.00" fill="#000000">read_type_map: collapsed</text>
<text text-anchor="middle" x="90.5" y="-677" font-family="sans" font-size="10.00" fill="#000000">ref: refseq_mitochondrion</text>
<text text-anchor="middle" x="90.5" y="-666" font-family="sans" font-size="10.00" fill="#000000">sample: HD827sonic_2</text>
<text text-anchor="middle" x="90.5" y="-655" font-family="sans" font-size="10.00" fill="#000000">tot_shards: 1</text>
</g>
<!-- 9&#45;&gt;1 -->
<g id="edge15" class="edge">
<title>9&#45;&gt;1</title>
<path fill="none" stroke="#c0c0c0" stroke-width="2" d="M77.7569,-647.7364C68.3567,-606.917 61.7696,-545.6331 91.5,-504 128.7584,-451.825 160.3823,-463.0037 216.5,-432 246.4319,-415.4633 262.537,-422.2109 284.5,-396 360.0581,-305.8281 276.6723,-221.1339 365.5,-144 406.3028,-108.5687 567.7389,-95.7656 641.8935,-91.6892"/>
<polygon fill="#c0c0c0" stroke="#c0c0c0" stroke-width="2" points="642.3735,-95.169 652.1762,-91.1495 642.0065,-88.1786 642.3735,-95.169"/>
</g>
<!-- 42 -->
<g id="node43" class="node">
<title>42</title>
<path fill="none" stroke="#5692d8" stroke-width="2" d="M178.5,-612C178.5,-612 98.5,-612 98.5,-612 92.5,-612 86.5,-606 86.5,-600 86.5,-600 86.5,-588 86.5,-588 86.5,-582 92.5,-576 98.5,-576 98.5,-576 178.5,-576 178.5,-576 184.5,-576 190.5,-582 190.5,-588 190.5,-588 190.5,-600 190.5,-600 190.5,-606 184.5,-612 178.5,-612"/>
<text text-anchor="middle" x="138.5" y="-591.5" font-family="sans" font-size="10.00" fill="#000000">shard_clean_header</text>
</g>
<!-- 9&#45;&gt;42 -->
<g id="edge66" class="edge">
<title>9&#45;&gt;42</title>
<path fill="none" stroke="#c0c0c0" stroke-width="2" d="M111.6932,-647.8928C116.1699,-638.8929 120.7786,-629.6275 124.8848,-621.3722"/>
<polygon fill="#c0c0c0" stroke="#c0c0c0" stroke-width="2" points="128.1164,-622.7341 129.4363,-612.2218 121.8489,-619.6166 128.1164,-622.7341"/>
</g>
<!-- 10 -->
<g id="node11" class="node">
<title>10</title>
<path fill="none" stroke="#70d856" stroke-width="2" d="M642,-733C642,-733 535,-733 535,-733 529,-733 523,-727 523,-721 523,-721 523,-660 523,-660 523,-654 529,-648 535,-648 535,-648 642,-648 642,-648 648,-648 654,-654 654,-660 654,-660 654,-721 654,-721 654,-727 648,-733 642,-733"/>
<text text-anchor="middle" x="588.5" y="-721" font-family="sans" font-size="10.00" fill="#000000">bowtie2</text>
<text text-anchor="middle" x="588.5" y="-710" font-family="sans" font-size="10.00" fill="#000000">library: lib2</text>
<text text-anchor="middle" x="588.5" y="-699" font-family="sans" font-size="10.00" fill="#000000">n_shard: 3</text>
<text text-anchor="middle" x="588.5" y="-688" font-family="sans" font-size="10.00" fill="#000000">read_type_map: collapsed</text>
<text text-anchor="middle" x="588.5" y="-677" font-family="sans" font-size="10.00" fill="#000000">ref: refseq_invertebrate</text>
<text text-anchor="middle" x="588.5" y="-666" font-family="sans" font-size="10.00" fill="#000000">sample: HD827sonic_2</text>
<text text-anchor="middle" x="588.5" y="-655" font-family="sans" font-size="10.00" fill="#000000">tot_shards: 3</text>
</g>
<!-- 10&#45;&gt;1 -->
<g id="edge16" class="edge">
<title>10&#45;&gt;1</title>
<path fill="none" stroke="#c0c0c0" stroke-width="2" d="M621.6518,-647.7951C629.0865,-636.6249 636.3014,-624.2631 641.5,-612 657.4561,-574.3608 660.5,-562.8816 660.5,-522 660.5,-522 660.5,-522 660.5,-234 660.5,-193.5282 667.968,-147.2037 673.54,-118.2725"/>
<polygon fill="#c0c0c0" stroke="#c0c0c0" stroke-width="2" points="677.0483,-118.5746 675.5632,-108.0844 670.1823,-117.2111 677.0483,-118.5746"/>
</g>
<!-- 46 -->
<g id="node47" class="node">
<title>46</title>
<path fill="none" stroke="#5692d8" stroke-width="2" d="M620.5,-612C620.5,-612 540.5,-612 540.5,-612 534.5,-612 528.5,-606 528.5,-600 528.5,-600 528.5,-588 528.5,-588 528.5,-582 534.5,-576 540.5,-576 540.5,-576 620.5,-576 620.5,-576 626.5,-576 632.5,-582 632.5,-588 632.5,-588 632.5,-600 632.5,-600 632.5,-606 626.5,-612 620.5,-612"/>
<text text-anchor="middle" x="580.5" y="-591.5" font-family="sans" font-size="10.00" fill="#000000">shard_clean_header</text>
</g>
<!-- 10&#45;&gt;46 -->
<g id="edge70" class="edge">
<title>10&#45;&gt;46</title>
<path fill="none" stroke="#c0c0c0" stroke-width="2" d="M584.9678,-647.8928C584.2541,-639.2842 583.5203,-630.4327 582.8589,-622.4546"/>
<polygon fill="#c0c0c0" stroke="#c0c0c0" stroke-width="2" points="586.3249,-621.8984 582.0106,-612.2218 579.3489,-622.4768 586.3249,-621.8984"/>
</g>
<!-- 11 -->
<g id="node12" class="node">
<title>11</title>
<path fill="none" stroke="#70d856" stroke-width="2" d="M1619,-733C1619,-733 1512,-733 1512,-733 1506,-733 1500,-727 1500,-721 1500,-721 1500,-660 1500,-660 1500,-654 1506,-648 1512,-648 1512,-648 1619,-648 1619,-648 1625,-648 1631,-654 1631,-660 1631,-660 1631,-721 1631,-721 1631,-727 1625,-733 1619,-733"/>
<text text-anchor="middle" x="1565.5" y="-721" font-family="sans" font-size="10.00" fill="#000000">bowtie2</text>
<text text-anchor="middle" x="1565.5" y="-710" font-family="sans" font-size="10.00" fill="#000000">library: lib1</text>
<text text-anchor="middle" x="1565.5" y="-699" font-family="sans" font-size="10.00" fill="#000000">n_shard: 1</text>
<text text-anchor="middle" x="1565.5" y="-688" font-family="sans" font-size="10.00" fill="#000000">read_type_map: collapsed</text>
<text text-anchor="middle" x="1565.5" y="-677" font-family="sans" font-size="10.00" fill="#000000">ref: refseq_mitochondrion</text>
<text text-anchor="middle" x="1565.5" y="-666" font-family="sans" font-size="10.00" fill="#000000">sample: HD827sonic_2</text>
<text text-anchor="middle" x="1565.5" y="-655" font-family="sans" font-size="10.00" fill="#000000">tot_shards: 1</text>
</g>
<!-- 11&#45;&gt;1 -->
<g id="edge17" class="edge">
<title>11&#45;&gt;1</title>
<path fill="none" stroke="#c0c0c0" stroke-width="2" d="M1535.8268,-647.8723C1529.0036,-636.6006 1522.3396,-624.1721 1517.5,-612 1502.3957,-574.0109 1498.5,-562.8816 1498.5,-522 1498.5,-522 1498.5,-522 1498.5,-234 1498.5,-132.4564 1386.9701,-168.7941 1288.5,-144 1179.0776,-116.4482 831.346,-97.4139 716.6204,-91.7533"/>
<polygon fill="#c0c0c0" stroke="#c0c0c0" stroke-width="2" points="716.7302,-88.2546 706.5713,-91.2625 716.3886,-95.2463 716.7302,-88.2546"/>
</g>
<!-- 31 -->
<g id="node32" class="node">
<title>31</title>
<path fill="none" stroke="#5692d8" stroke-width="2" d="M1618.5,-612C1618.5,-612 1538.5,-612 1538.5,-612 1532.5,-612 1526.5,-606 1526.5,-600 1526.5,-600 1526.5,-588 1526.5,-588 1526.5,-582 1532.5,-576 1538.5,-576 1538.5,-576 1618.5,-576 1618.5,-576 1624.5,-576 1630.5,-582 1630.5,-588 1630.5,-588 1630.5,-600 1630.5,-600 1630.5,-606 1624.5,-612 1618.5,-612"/>
<text text-anchor="middle" x="1578.5" y="-591.5" font-family="sans" font-size="10.00" fill="#000000">shard_clean_header</text>
</g>
<!-- 11&#45;&gt;31 -->
<g id="edge52" class="edge">
<title>11&#45;&gt;31</title>
<path fill="none" stroke="#c0c0c0" stroke-width="2" d="M1571.2398,-647.8928C1572.4127,-639.1864 1573.6191,-630.2315 1574.7033,-622.183"/>
<polygon fill="#c0c0c0" stroke="#c0c0c0" stroke-width="2" points="1578.1787,-622.5996 1576.0453,-612.2218 1571.2414,-621.665 1578.1787,-622.5996"/>
</g>
<!-- 12 -->
<g id="node13" class="node">
<title>12</title>
<path fill="none" stroke="#70d856" stroke-width="2" d="M1124,-733C1124,-733 1017,-733 1017,-733 1011,-733 1005,-727 1005,-721 1005,-721 1005,-660 1005,-660 1005,-654 1011,-648 1017,-648 1017,-648 1124,-648 1124,-648 1130,-648 1136,-654 1136,-660 1136,-660 1136,-721 1136,-721 1136,-727 1130,-733 1124,-733"/>
<text text-anchor="middle" x="1070.5" y="-721" font-family="sans" font-size="10.00" fill="#000000">bowtie2</text>
<text text-anchor="middle" x="1070.5" y="-710" font-family="sans" font-size="10.00" fill="#000000">library: lib1</text>
<text text-anchor="middle" x="1070.5" y="-699" font-family="sans" font-size="10.00" fill="#000000">n_shard: 1</text>
<text text-anchor="middle" x="1070.5" y="-688" font-family="sans" font-size="10.00" fill="#000000">read_type_map: collapsed</text>
<text text-anchor="middle" x="1070.5" y="-677" font-family="sans" font-size="10.00" fill="#000000">ref: refseq_invertebrate</text>
<text text-anchor="middle" x="1070.5" y="-666" font-family="sans" font-size="10.00" fill="#000000">sample: HD827sonic_1</text>
<text text-anchor="middle" x="1070.5" y="-655" font-family="sans" font-size="10.00" fill="#000000">tot_shards: 3</text>
</g>
<!-- 12&#45;&gt;1 -->
<g id="edge18" class="edge">
<title>12&#45;&gt;1</title>
<path fill="none" stroke="#c0c0c0" stroke-width="2" d="M1100.505,-647.7756C1116.9262,-625.5018 1138.2196,-598.3246 1159.5,-576 1176.4634,-558.2042 1188.9629,-561.1487 1201.5,-540 1222.3471,-504.8332 1220.5,-490.8816 1220.5,-450 1220.5,-450 1220.5,-450 1220.5,-234 1220.5,-129.5243 838.9687,-98.9686 716.7122,-91.8593"/>
<polygon fill="#c0c0c0" stroke="#c0c0c0" stroke-width="2" points="716.8798,-88.3633 706.699,-91.2962 716.4867,-95.3522 716.8798,-88.3633"/>
</g>
<!-- 22 -->
<g id="node23" class="node">
<title>22</title>
<path fill="none" stroke="#5692d8" stroke-width="2" d="M1100.5,-612C1100.5,-612 1020.5,-612 1020.5,-612 1014.5,-612 1008.5,-606 1008.5,-600 1008.5,-600 1008.5,-588 1008.5,-588 1008.5,-582 1014.5,-576 1020.5,-576 1020.5,-576 1100.5,-576 1100.5,-576 1106.5,-576 1112.5,-582 1112.5,-588 1112.5,-588 1112.5,-600 1112.5,-600 1112.5,-606 1106.5,-612 1100.5,-612"/>
<text text-anchor="middle" x="1060.5" y="-591.5" font-family="sans" font-size="10.00" fill="#000000">shard_clean_header</text>
</g>
<!-- 12&#45;&gt;22 -->
<g id="edge40" class="edge">
<title>12&#45;&gt;22</title>
<path fill="none" stroke="#c0c0c0" stroke-width="2" d="M1066.0847,-647.8928C1065.1825,-639.1864 1064.2546,-630.2315 1063.4205,-622.183"/>
<polygon fill="#c0c0c0" stroke="#c0c0c0" stroke-width="2" points="1066.9005,-621.8077 1062.3883,-612.2218 1059.9377,-622.5293 1066.9005,-621.8077"/>
</g>
<!-- 13 -->
<g id="node14" class="node">
<title>13</title>
<path fill="none" stroke="#70d856" stroke-width="2" d="M479,-733C479,-733 372,-733 372,-733 366,-733 360,-727 360,-721 360,-721 360,-660 360,-660 360,-654 366,-648 372,-648 372,-648 479,-648 479,-648 485,-648 491,-654 491,-660 491,-660 491,-721 491,-721 491,-727 485,-733 479,-733"/>
<text text-anchor="middle" x="425.5" y="-721" font-family="sans" font-size="10.00" fill="#000000">bowtie2</text>
<text text-anchor="middle" x="425.5" y="-710" font-family="sans" font-size="10.00" fill="#000000">library: lib2</text>
<text text-anchor="middle" x="425.5" y="-699" font-family="sans" font-size="10.00" fill="#000000">n_shard: 1</text>
<text text-anchor="middle" x="425.5" y="-688" font-family="sans" font-size="10.00" fill="#000000">read_type_map: collapsed</text>
<text text-anchor="middle" x="425.5" y="-677" font-family="sans" font-size="10.00" fill="#000000">ref: refseq_invertebrate</text>
<text text-anchor="middle" x="425.5" y="-666" font-family="sans" font-size="10.00" fill="#000000">sample: HD827sonic_2</text>
<text text-anchor="middle" x="425.5" y="-655" font-family="sans" font-size="10.00" fill="#000000">tot_shards: 3</text>
</g>
<!-- 13&#45;&gt;1 -->
<g id="edge19" class="edge">
<title>13&#45;&gt;1</title>
<path fill="none" stroke="#c0c0c0" stroke-width="2" d="M453.9389,-647.9903C470.9974,-624.7103 494.2458,-596.5119 519.5,-576 546.3492,-554.1926 567.6111,-567.5699 588.5,-540 632.9285,-481.3617 622.5,-451.5686 622.5,-378 622.5,-378 622.5,-378 622.5,-234 622.5,-190.7597 644.9945,-145.0187 661.7212,-116.9832"/>
<polygon fill="#c0c0c0" stroke="#c0c0c0" stroke-width="2" points="664.8756,-118.5353 667.1318,-108.1834 658.9126,-114.8688 664.8756,-118.5353"/>
</g>
<!-- 44 -->
<g id="node45" class="node">
<title>44</title>
<path fill="none" stroke="#5692d8" stroke-width="2" d="M460.5,-612C460.5,-612 380.5,-612 380.5,-612 374.5,-612 368.5,-606 368.5,-600 368.5,-600 368.5,-588 368.5,-588 368.5,-582 374.5,-576 380.5,-576 380.5,-576 460.5,-576 460.5,-576 466.5,-576 472.5,-582 472.5,-588 472.5,-588 472.5,-600 472.5,-600 472.5,-606 466.5,-612 460.5,-612"/>
<text text-anchor="middle" x="420.5" y="-591.5" font-family="sans" font-size="10.00" fill="#000000">shard_clean_header</text>
</g>
<!-- 13&#45;&gt;44 -->
<g id="edge68" class="edge">
<title>13&#45;&gt;44</title>
<path fill="none" stroke="#c0c0c0" stroke-width="2" d="M423.2924,-647.8928C422.8463,-639.2842 422.3877,-630.4327 421.9743,-622.4546"/>
<polygon fill="#c0c0c0" stroke="#c0c0c0" stroke-width="2" points="425.457,-622.0273 421.4441,-612.2218 418.4664,-622.3895 425.457,-622.0273"/>
</g>
<!-- 14 -->
<g id="node15" class="node">
<title>14</title>
<path fill="none" stroke="#afd856" stroke-width="2" d="M544.5,-252C544.5,-252 504.5,-252 504.5,-252 498.5,-252 492.5,-246 492.5,-240 492.5,-240 492.5,-228 492.5,-228 492.5,-222 498.5,-216 504.5,-216 504.5,-216 544.5,-216 544.5,-216 550.5,-216 556.5,-222 556.5,-228 556.5,-228 556.5,-240 556.5,-240 556.5,-246 550.5,-252 544.5,-252"/>
<text text-anchor="middle" x="524.5" y="-231.5" font-family="sans" font-size="10.00" fill="#000000">align_stats</text>
</g>
<!-- 14&#45;&gt;1 -->
<g id="edge20" class="edge">
<title>14&#45;&gt;1</title>
<path fill="none" stroke="#c0c0c0" stroke-width="2" d="M529.9958,-215.6804C536.7446,-195.8516 549.8989,-164.3446 570.5,-144 590.748,-124.0041 619.88,-110.0972 642.9336,-101.4093"/>
<polygon fill="#c0c0c0" stroke="#c0c0c0" stroke-width="2" points="644.1741,-104.6827 652.3979,-98.0029 641.8035,-98.0963 644.1741,-104.6827"/>
</g>
<!-- 15 -->
<g id="node16" class="node">
<title>15</title>
<path fill="none" stroke="#c6d856" stroke-width="2" d="M478.5,-396C478.5,-396 414.5,-396 414.5,-396 408.5,-396 402.5,-390 402.5,-384 402.5,-384 402.5,-372 402.5,-372 402.5,-366 408.5,-360 414.5,-360 414.5,-360 478.5,-360 478.5,-360 484.5,-360 490.5,-366 490.5,-372 490.5,-372 490.5,-384 490.5,-384 490.5,-390 484.5,-396 478.5,-396"/>
<text text-anchor="middle" x="446.5" y="-375.5" font-family="sans" font-size="10.00" fill="#000000">align_sort_query</text>
</g>
<!-- 15&#45;&gt;14 -->
<g id="edge29" class="edge">
<title>15&#45;&gt;14</title>
<path fill="none" stroke="#c0c0c0" stroke-width="2" d="M459.538,-359.9401C466.7111,-349.6489 475.5408,-336.3742 482.5,-324 493.9106,-303.711 504.9664,-279.7923 512.8684,-261.7143"/>
<polygon fill="#c0c0c0" stroke="#c0c0c0" stroke-width="2" points="516.1685,-262.9005 516.9162,-252.3321 509.7411,-260.1275 516.1685,-262.9005"/>
</g>
<!-- 48 -->
<g id="node49" class="node">
<title>48</title>
<path fill="none" stroke="#56c9d8" stroke-width="2" d="M462,-324C462,-324 411,-324 411,-324 405,-324 399,-318 399,-312 399,-312 399,-300 399,-300 399,-294 405,-288 411,-288 411,-288 462,-288 462,-288 468,-288 474,-294 474,-300 474,-300 474,-312 474,-312 474,-318 468,-324 462,-324"/>
<text text-anchor="middle" x="436.5" y="-303.5" font-family="sans" font-size="10.00" fill="#000000">metadmg_lca</text>
</g>
<!-- 15&#45;&gt;48 -->
<g id="edge72" class="edge">
<title>15&#45;&gt;48</title>
<path fill="none" stroke="#c0c0c0" stroke-width="2" d="M443.9766,-359.8314C442.9071,-352.131 441.6353,-342.9743 440.4468,-334.4166"/>
<polygon fill="#c0c0c0" stroke="#c0c0c0" stroke-width="2" points="443.8999,-333.8367 439.0574,-324.4133 436.9664,-334.7997 443.8999,-333.8367"/>
</g>
<!-- 56 -->
<g id="node57" class="node">
<title>56</title>
<path fill="none" stroke="#56d8a9" stroke-width="2" d="M285,-108C285,-108 212,-108 212,-108 206,-108 200,-102 200,-96 200,-96 200,-84 200,-84 200,-78 206,-72 212,-72 212,-72 285,-72 285,-72 291,-72 297,-78 297,-84 297,-84 297,-96 297,-96 297,-102 291,-108 285,-108"/>
<text text-anchor="middle" x="248.5" y="-87.5" font-family="sans" font-size="10.00" fill="#000000">metadmg_damage</text>
</g>
<!-- 15&#45;&gt;56 -->
<g id="edge83" class="edge">
<title>15&#45;&gt;56</title>
<path fill="none" stroke="#c0c0c0" stroke-width="2" d="M402.2271,-373.8373C333.5944,-366.6597 205.553,-350.1574 168.5,-324 107.7864,-281.1395 103.0807,-251.6921 83.5,-180 79.2844,-164.5653 74.1092,-156.9543 83.5,-144 96.3563,-126.2652 147.8027,-111.2615 189.8747,-101.6046"/>
<polygon fill="#c0c0c0" stroke="#c0c0c0" stroke-width="2" points="190.7934,-104.9857 199.7878,-99.3865 189.2649,-98.1546 190.7934,-104.9857"/>
</g>
<!-- 16 -->
<g id="node17" class="node">
<title>16</title>
<path fill="none" stroke="#d88d56" stroke-width="2" d="M911,-468C911,-468 866,-468 866,-468 860,-468 854,-462 854,-456 854,-456 854,-444 854,-444 854,-438 860,-432 866,-432 866,-432 911,-432 911,-432 917,-432 923,-438 923,-444 923,-444 923,-456 923,-456 923,-462 917,-468 911,-468"/>
<text text-anchor="middle" x="888.5" y="-447.5" font-family="sans" font-size="10.00" fill="#000000">align_merge</text>
</g>
<!-- 16&#45;&gt;15 -->
<g id="edge30" class="edge">
<title>16&#45;&gt;15</title>
<path fill="none" stroke="#c0c0c0" stroke-width="2" d="M853.817,-444.3503C777.1196,-431.8566 592.6439,-401.8062 500.6119,-386.8146"/>
<polygon fill="#c0c0c0" stroke="#c0c0c0" stroke-width="2" points="501.0947,-383.3472 490.6621,-385.1938 499.9692,-390.2561 501.0947,-383.3472"/>
</g>
<!-- 17 -->
<g id="node18" class="node">
<title>17</title>
<path fill="none" stroke="#5673d8" stroke-width="2" d="M812.5,-540C812.5,-540 744.5,-540 744.5,-540 738.5,-540 732.5,-534 732.5,-528 732.5,-528 732.5,-516 732.5,-516 732.5,-510 738.5,-504 744.5,-504 744.5,-504 812.5,-504 812.5,-504 818.5,-504 824.5,-510 824.5,-516 824.5,-516 824.5,-528 824.5,-528 824.5,-534 818.5,-540 812.5,-540"/>
<text text-anchor="middle" x="778.5" y="-519.5" font-family="sans" font-size="10.00" fill="#000000">shard_sort_coord</text>
</g>
<!-- 17&#45;&gt;16 -->
<g id="edge31" class="edge">
<title>17&#45;&gt;16</title>
<path fill="none" stroke="#c0c0c0" stroke-width="2" d="M806.2576,-503.8314C820.197,-494.7074 837.2598,-483.539 852.2231,-473.7449"/>
<polygon fill="#c0c0c0" stroke="#c0c0c0" stroke-width="2" points="854.301,-476.5679 860.7512,-468.1628 850.4674,-470.711 854.301,-476.5679"/>
</g>
<!-- 18&#45;&gt;17 -->
<g id="edge35" class="edge">
<title>18&#45;&gt;17</title>
<path fill="none" stroke="#c0c0c0" stroke-width="2" d="M778.5,-575.8314C778.5,-568.131 778.5,-558.9743 778.5,-550.4166"/>
<polygon fill="#c0c0c0" stroke="#c0c0c0" stroke-width="2" points="782.0001,-550.4132 778.5,-540.4133 775.0001,-550.4133 782.0001,-550.4132"/>
</g>
<!-- 19 -->
<g id="node20" class="node">
<title>19</title>
<path fill="none" stroke="#5673d8" stroke-width="2" d="M922.5,-540C922.5,-540 854.5,-540 854.5,-540 848.5,-540 842.5,-534 842.5,-528 842.5,-528 842.5,-516 842.5,-516 842.5,-510 848.5,-504 854.5,-504 854.5,-504 922.5,-504 922.5,-504 928.5,-504 934.5,-510 934.5,-516 934.5,-516 934.5,-528 934.5,-528 934.5,-534 928.5,-540 922.5,-540"/>
<text text-anchor="middle" x="888.5" y="-519.5" font-family="sans" font-size="10.00" fill="#000000">shard_sort_coord</text>
</g>
<!-- 19&#45;&gt;16 -->
<g id="edge32" class="edge">
<title>19&#45;&gt;16</title>
<path fill="none" stroke="#c0c0c0" stroke-width="2" d="M888.5,-503.8314C888.5,-496.131 888.5,-486.9743 888.5,-478.4166"/>
<polygon fill="#c0c0c0" stroke="#c0c0c0" stroke-width="2" points="892.0001,-478.4132 888.5,-468.4133 885.0001,-478.4133 892.0001,-478.4132"/>
</g>
<!-- 20&#45;&gt;19 -->
<g id="edge37" class="edge">
<title>20&#45;&gt;19</title>
<path fill="none" stroke="#c0c0c0" stroke-width="2" d="M897.4719,-575.8314C896.1885,-568.131 894.6624,-558.9743 893.2361,-550.4166"/>
<polygon fill="#c0c0c0" stroke="#c0c0c0" stroke-width="2" points="896.6653,-549.7018 891.5689,-540.4133 889.7606,-550.8526 896.6653,-549.7018"/>
</g>
<!-- 21 -->
<g id="node22" class="node">
<title>21</title>
<path fill="none" stroke="#5673d8" stroke-width="2" d="M1070.5,-540C1070.5,-540 1002.5,-540 1002.5,-540 996.5,-540 990.5,-534 990.5,-528 990.5,-528 990.5,-516 990.5,-516 990.5,-510 996.5,-504 1002.5,-504 1002.5,-504 1070.5,-504 1070.5,-504 1076.5,-504 1082.5,-510 1082.5,-516 1082.5,-516 1082.5,-528 1082.5,-528 1082.5,-534 1076.5,-540 1070.5,-540"/>
<text text-anchor="middle" x="1036.5" y="-519.5" font-family="sans" font-size="10.00" fill="#000000">shard_sort_coord</text>
</g>
<!-- 21&#45;&gt;16 -->
<g id="edge33" class="edge">
<title>21&#45;&gt;16</title>
<path fill="none" stroke="#c0c0c0" stroke-width="2" d="M999.1534,-503.8314C978.8638,-493.9608 953.6561,-481.6975 932.4272,-471.37"/>
<polygon fill="#c0c0c0" stroke="#c0c0c0" stroke-width="2" points="933.8164,-468.1537 923.2929,-466.9263 930.7541,-474.4483 933.8164,-468.1537"/>
</g>
<!-- 22&#45;&gt;21 -->
<g id="edge39" class="edge">
<title>22&#45;&gt;21</title>
<path fill="none" stroke="#c0c0c0" stroke-width="2" d="M1054.4438,-575.8314C1051.8488,-568.0463 1048.7576,-558.7729 1045.8782,-550.1347"/>
<polygon fill="#c0c0c0" stroke="#c0c0c0" stroke-width="2" points="1049.1205,-548.7933 1042.6378,-540.4133 1042.4797,-551.0069 1049.1205,-548.7933"/>
</g>
<!-- 23 -->
<g id="node24" class="node">
<title>23</title>
<path fill="none" stroke="#5673d8" stroke-width="2" d="M1180.5,-540C1180.5,-540 1112.5,-540 1112.5,-540 1106.5,-540 1100.5,-534 1100.5,-528 1100.5,-528 1100.5,-516 1100.5,-516 1100.5,-510 1106.5,-504 1112.5,-504 1112.5,-504 1180.5,-504 1180.5,-504 1186.5,-504 1192.5,-510 1192.5,-516 1192.5,-516 1192.5,-528 1192.5,-528 1192.5,-534 1186.5,-540 1180.5,-540"/>
<text text-anchor="middle" x="1146.5" y="-519.5" font-family="sans" font-size="10.00" fill="#000000">shard_sort_coord</text>
</g>
<!-- 23&#45;&gt;16 -->
<g id="edge34" class="edge">
<title>23&#45;&gt;16</title>
<path fill="none" stroke="#c0c0c0" stroke-width="2" d="M1100.3456,-506.6862C1097.3577,-505.7595 1094.3898,-504.8565 1091.5,-504 1037.2329,-487.916 974.1525,-471.4863 932.8913,-461.0419"/>
<polygon fill="#c0c0c0" stroke="#c0c0c0" stroke-width="2" points="933.6996,-457.6362 923.1472,-458.584 931.9874,-464.4236 933.6996,-457.6362"/>
</g>
<!-- 24&#45;&gt;23 -->
<g id="edge41" class="edge">
<title>24&#45;&gt;23</title>
<path fill="none" stroke="#c0c0c0" stroke-width="2" d="M1201.8267,-575.8314C1192.9751,-567.219 1182.2514,-556.7851 1172.6105,-547.4048"/>
<polygon fill="#c0c0c0" stroke="#c0c0c0" stroke-width="2" points="1174.7754,-544.6279 1165.1674,-540.1628 1169.8939,-549.645 1174.7754,-544.6279"/>
</g>
<!-- 25 -->
<g id="node26" class="node">
<title>25</title>
<path fill="none" stroke="#afd856" stroke-width="2" d="M1617.5,-252C1617.5,-252 1577.5,-252 1577.5,-252 1571.5,-252 1565.5,-246 1565.5,-240 1565.5,-240 1565.5,-228 1565.5,-228 1565.5,-222 1571.5,-216 1577.5,-216 1577.5,-216 1617.5,-216 1617.5,-216 1623.5,-216 1629.5,-222 1629.5,-228 1629.5,-228 1629.5,-240 1629.5,-240 1629.5,-246 1623.5,-252 1617.5,-252"/>
<text text-anchor="middle" x="1597.5" y="-231.5" font-family="sans" font-size="10.00" fill="#000000">align_stats</text>
</g>
<!-- 25&#45;&gt;1 -->
<g id="edge21" class="edge">
<title>25&#45;&gt;1</title>
<path fill="none" stroke="#c0c0c0" stroke-width="2" d="M1593.8616,-215.889C1588.5492,-194.6732 1576.4513,-160.3499 1551.5,-144 1516.1161,-120.8139 880.0025,-97.0239 717.2007,-91.2959"/>
<polygon fill="#c0c0c0" stroke="#c0c0c0" stroke-width="2" points="716.8576,-87.7818 706.7413,-90.9299 716.6127,-94.7775 716.8576,-87.7818"/>
</g>
<!-- 26 -->
<g id="node27" class="node">
<title>26</title>
<path fill="none" stroke="#c6d856" stroke-width="2" d="M1750.5,-396C1750.5,-396 1686.5,-396 1686.5,-396 1680.5,-396 1674.5,-390 1674.5,-384 1674.5,-384 1674.5,-372 1674.5,-372 1674.5,-366 1680.5,-360 1686.5,-360 1686.5,-360 1750.5,-360 1750.5,-360 1756.5,-360 1762.5,-366 1762.5,-372 1762.5,-372 1762.5,-384 1762.5,-384 1762.5,-390 1756.5,-396 1750.5,-396"/>
<text text-anchor="middle" x="1718.5" y="-375.5" font-family="sans" font-size="10.00" fill="#000000">align_sort_query</text>
</g>
<!-- 26&#45;&gt;25 -->
<g id="edge43" class="edge">
<title>26&#45;&gt;25</title>
<path fill="none" stroke="#c0c0c0" stroke-width="2" d="M1702.6959,-359.5477C1693.798,-349.1337 1682.4984,-335.8668 1672.5,-324 1654.4301,-302.5533 1634.0681,-278.1007 1619.1251,-260.1017"/>
<polygon fill="#c0c0c0" stroke="#c0c0c0" stroke-width="2" points="1621.7475,-257.7809 1612.6685,-252.32 1616.3604,-262.2507 1621.7475,-257.7809"/>
</g>
<!-- 50 -->
<g id="node51" class="node">
<title>50</title>
<path fill="none" stroke="#56c9d8" stroke-width="2" d="M1744,-324C1744,-324 1693,-324 1693,-324 1687,-324 1681,-318 1681,-312 1681,-312 1681,-300 1681,-300 1681,-294 1687,-288 1693,-288 1693,-288 1744,-288 1744,-288 1750,-288 1756,-294 1756,-300 1756,-300 1756,-312 1756,-312 1756,-318 1750,-324 1744,-324"/>
<text text-anchor="middle" x="1718.5" y="-303.5" font-family="sans" font-size="10.00" fill="#000000">metadmg_lca</text>
</g>
<!-- 26&#45;&gt;50 -->
<g id="edge74" class="edge">
<title>26&#45;&gt;50</title>
<path fill="none" stroke="#c0c0c0" stroke-width="2" d="M1718.5,-359.8314C1718.5,-352.131 1718.5,-342.9743 1718.5,-334.4166"/>
<polygon fill="#c0c0c0" stroke="#c0c0c0" stroke-width="2" points="1722.0001,-334.4132 1718.5,-324.4133 1715.0001,-334.4133 1722.0001,-334.4132"/>
</g>
<!-- 57 -->
<g id="node58" class="node">
<title>57</title>
<path fill="none" stroke="#56d8a9" stroke-width="2" d="M1648,-108C1648,-108 1575,-108 1575,-108 1569,-108 1563,-102 1563,-96 1563,-96 1563,-84 1563,-84 1563,-78 1569,-72 1575,-72 1575,-72 1648,-72 1648,-72 1654,-72 1660,-78 1660,-84 1660,-84 1660,-96 1660,-96 1660,-102 1654,-108 1648,-108"/>
<text text-anchor="middle" x="1611.5" y="-87.5" font-family="sans" font-size="10.00" fill="#000000">metadmg_damage</text>
</g>
<!-- 26&#45;&gt;57 -->
<g id="edge84" class="edge">
<title>26&#45;&gt;57</title>
<path fill="none" stroke="#c0c0c0" stroke-width="2" d="M1740.2672,-359.8165C1749.9723,-350.2816 1760.3597,-337.7355 1765.5,-324 1781.5715,-281.0551 1807.9135,-213.2911 1756.5,-144 1745.5997,-129.3095 1705.2572,-114.966 1669.8848,-104.7583"/>
<polygon fill="#c0c0c0" stroke="#c0c0c0" stroke-width="2" points="1670.6429,-101.3357 1660.0684,-101.992 1668.7442,-108.0733 1670.6429,-101.3357"/>
</g>
<!-- 27 -->
<g id="node28" class="node">
<title>27</title>
<path fill="none" stroke="#d88d56" stroke-width="2" d="M1741,-468C1741,-468 1696,-468 1696,-468 1690,-468 1684,-462 1684,-456 1684,-456 1684,-444 1684,-444 1684,-438 1690,-432 1696,-432 1696,-432 1741,-432 1741,-432 1747,-432 1753,-438 1753,-444 1753,-444 1753,-456 1753,-456 1753,-462 1747,-468 1741,-468"/>
<text text-anchor="middle" x="1718.5" y="-447.5" font-family="sans" font-size="10.00" fill="#000000">align_merge</text>
</g>
<!-- 27&#45;&gt;26 -->
<g id="edge44" class="edge">
<title>27&#45;&gt;26</title>
<path fill="none" stroke="#c0c0c0" stroke-width="2" d="M1718.5,-431.8314C1718.5,-424.131 1718.5,-414.9743 1718.5,-406.4166"/>
<polygon fill="#c0c0c0" stroke="#c0c0c0" stroke-width="2" points="1722.0001,-406.4132 1718.5,-396.4133 1715.0001,-406.4133 1722.0001,-406.4132"/>
</g>
<!-- 28 -->
<g id="node29" class="node">
<title>28</title>
<path fill="none" stroke="#5673d8" stroke-width="2" d="M1455.5,-540C1455.5,-540 1387.5,-540 1387.5,-540 1381.5,-540 1375.5,-534 1375.5,-528 1375.5,-528 1375.5,-516 1375.5,-516 1375.5,-510 1381.5,-504 1387.5,-504 1387.5,-504 1455.5,-504 1455.5,-504 1461.5,-504 1467.5,-510 1467.5,-516 1467.5,-516 1467.5,-528 1467.5,-528 1467.5,-534 1461.5,-540 1455.5,-540"/>
<text text-anchor="middle" x="1421.5" y="-519.5" font-family="sans" font-size="10.00" fill="#000000">shard_sort_coord</text>
</g>
<!-- 28&#45;&gt;27 -->
<g id="edge45" class="edge">
<title>28&#45;&gt;27</title>
<path fill="none" stroke="#c0c0c0" stroke-width="2" d="M1467.5804,-510.829C1523.8732,-497.1823 1618.45,-474.2545 1674.0101,-460.7854"/>
<polygon fill="#c0c0c0" stroke="#c0c0c0" stroke-width="2" points="1675.0184,-464.1425 1683.9123,-458.3849 1673.3691,-457.3395 1675.0184,-464.1425"/>
</g>
<!-- 29&#45;&gt;28 -->
<g id="edge49" class="edge">
<title>29&#45;&gt;28</title>
<path fill="none" stroke="#c0c0c0" stroke-width="2" d="M1419.257,-575.8314C1419.5779,-568.131 1419.9594,-558.9743 1420.316,-550.4166"/>
<polygon fill="#c0c0c0" stroke="#c0c0c0" stroke-width="2" points="1423.8133,-550.5503 1420.7328,-540.4133 1416.8194,-550.2589 1423.8133,-550.5503"/>
</g>
<!-- 30 -->
<g id="node31" class="node">
<title>30</title>
<path fill="none" stroke="#5673d8" stroke-width="2" d="M1661.5,-540C1661.5,-540 1593.5,-540 1593.5,-540 1587.5,-540 1581.5,-534 1581.5,-528 1581.5,-528 1581.5,-516 1581.5,-516 1581.5,-510 1587.5,-504 1593.5,-504 1593.5,-504 1661.5,-504 1661.5,-504 1667.5,-504 1673.5,-510 1673.5,-516 1673.5,-516 1673.5,-528 1673.5,-528 1673.5,-534 1667.5,-540 1661.5,-540"/>
<text text-anchor="middle" x="1627.5" y="-519.5" font-family="sans" font-size="10.00" fill="#000000">shard_sort_coord</text>
</g>
<!-- 30&#45;&gt;27 -->
<g id="edge46" class="edge">
<title>30&#45;&gt;27</title>
<path fill="none" stroke="#c0c0c0" stroke-width="2" d="M1650.4631,-503.8314C1661.6715,-494.9632 1675.3209,-484.1637 1687.4439,-474.5718"/>
<polygon fill="#c0c0c0" stroke="#c0c0c0" stroke-width="2" points="1689.8737,-477.1125 1695.5442,-468.1628 1685.5303,-471.6229 1689.8737,-477.1125"/>
</g>
<!-- 31&#45;&gt;30 -->
<g id="edge51" class="edge">
<title>31&#45;&gt;30</title>
<path fill="none" stroke="#c0c0c0" stroke-width="2" d="M1590.8648,-575.8314C1596.4509,-567.6232 1603.163,-557.7606 1609.3072,-548.7323"/>
<polygon fill="#c0c0c0" stroke="#c0c0c0" stroke-width="2" points="1612.236,-550.6496 1614.9687,-540.4133 1606.449,-546.7112 1612.236,-550.6496"/>
</g>
<!-- 32 -->
<g id="node33" class="node">
<title>32</title>
<path fill="none" stroke="#5673d8" stroke-width="2" d="M1771.5,-540C1771.5,-540 1703.5,-540 1703.5,-540 1697.5,-540 1691.5,-534 1691.5,-528 1691.5,-528 1691.5,-516 1691.5,-516 1691.5,-510 1697.5,-504 1703.5,-504 1703.5,-504 1771.5,-504 1771.5,-504 1777.5,-504 1783.5,-510 1783.5,-516 1783.5,-516 1783.5,-528 1783.5,-528 1783.5,-534 1777.5,-540 1771.5,-540"/>
<text text-anchor="middle" x="1737.5" y="-519.5" font-family="sans" font-size="10.00" fill="#000000">shard_sort_coord</text>
</g>
<!-- 32&#45;&gt;27 -->
<g id="edge47" class="edge">
<title>32&#45;&gt;27</title>
<path fill="none" stroke="#c0c0c0" stroke-width="2" d="M1732.7055,-503.8314C1730.6511,-496.0463 1728.204,-486.7729 1725.9244,-478.1347"/>
<polygon fill="#c0c0c0" stroke="#c0c0c0" stroke-width="2" points="1729.2948,-477.1892 1723.3591,-468.4133 1722.5265,-478.9753 1729.2948,-477.1892"/>
</g>
<!-- 33&#45;&gt;32 -->
<g id="edge53" class="edge">
<title>33&#45;&gt;32</title>
<path fill="none" stroke="#c0c0c0" stroke-width="2" d="M1738.2477,-575.8314C1738.1407,-568.131 1738.0135,-558.9743 1737.8947,-550.4166"/>
<polygon fill="#c0c0c0" stroke="#c0c0c0" stroke-width="2" points="1741.3944,-550.3637 1737.7557,-540.4133 1734.3951,-550.4609 1741.3944,-550.3637"/>
</g>
<!-- 34 -->
<g id="node35" class="node">
<title>34</title>
<path fill="none" stroke="#5673d8" stroke-width="2" d="M1888.5,-540C1888.5,-540 1820.5,-540 1820.5,-540 1814.5,-540 1808.5,-534 1808.5,-528 1808.5,-528 1808.5,-516 1808.5,-516 1808.5,-510 1814.5,-504 1820.5,-504 1820.5,-504 1888.5,-504 1888.5,-504 1894.5,-504 1900.5,-510 1900.5,-516 1900.5,-516 1900.5,-528 1900.5,-528 1900.5,-534 1894.5,-540 1888.5,-540"/>
<text text-anchor="middle" x="1854.5" y="-519.5" font-family="sans" font-size="10.00" fill="#000000">shard_sort_coord</text>
</g>
<!-- 34&#45;&gt;27 -->
<g id="edge48" class="edge">
<title>34&#45;&gt;27</title>
<path fill="none" stroke="#c0c0c0" stroke-width="2" d="M1820.1815,-503.8314C1802.4641,-494.4516 1780.6655,-482.9112 1761.8016,-472.9244"/>
<polygon fill="#c0c0c0" stroke="#c0c0c0" stroke-width="2" points="1763.2831,-469.7485 1752.8076,-468.1628 1760.0078,-475.935 1763.2831,-469.7485"/>
</g>
<!-- 35&#45;&gt;34 -->
<g id="edge55" class="edge">
<title>35&#45;&gt;34</title>
<path fill="none" stroke="#c0c0c0" stroke-width="2" d="M1858.9859,-575.8314C1858.3442,-568.131 1857.5812,-558.9743 1856.8681,-550.4166"/>
<polygon fill="#c0c0c0" stroke="#c0c0c0" stroke-width="2" points="1860.3529,-550.088 1856.0344,-540.4133 1853.3771,-550.6694 1860.3529,-550.088"/>
</g>
<!-- 36 -->
<g id="node37" class="node">
<title>36</title>
<path fill="none" stroke="#afd856" stroke-width="2" d="M306.5,-180C306.5,-180 266.5,-180 266.5,-180 260.5,-180 254.5,-174 254.5,-168 254.5,-168 254.5,-156 254.5,-156 254.5,-150 260.5,-144 266.5,-144 266.5,-144 306.5,-144 306.5,-144 312.5,-144 318.5,-150 318.5,-156 318.5,-156 318.5,-168 318.5,-168 318.5,-174 312.5,-180 306.5,-180"/>
<text text-anchor="middle" x="286.5" y="-159.5" font-family="sans" font-size="10.00" fill="#000000">align_stats</text>
</g>
<!-- 36&#45;&gt;1 -->
<g id="edge22" class="edge">
<title>36&#45;&gt;1</title>
<path fill="none" stroke="#c0c0c0" stroke-width="2" d="M318.621,-148.4091C323.2261,-146.7613 327.9464,-145.2293 332.5,-144 442.8986,-114.1956 577.7916,-99.0777 642.0279,-93.1244"/>
<polygon fill="#c0c0c0" stroke="#c0c0c0" stroke-width="2" points="642.4389,-96.6016 652.0827,-92.2144 641.8079,-89.6301 642.4389,-96.6016"/>
</g>
<!-- 37 -->
<g id="node38" class="node">
<title>37</title>
<path fill="none" stroke="#c6d856" stroke-width="2" d="M263.5,-396C263.5,-396 199.5,-396 199.5,-396 193.5,-396 187.5,-390 187.5,-384 187.5,-384 187.5,-372 187.5,-372 187.5,-366 193.5,-360 199.5,-360 199.5,-360 263.5,-360 263.5,-360 269.5,-360 275.5,-366 275.5,-372 275.5,-372 275.5,-384 275.5,-384 275.5,-390 269.5,-396 263.5,-396"/>
<text text-anchor="middle" x="231.5" y="-375.5" font-family="sans" font-size="10.00" fill="#000000">align_sort_query</text>
</g>
<!-- 37&#45;&gt;36 -->
<g id="edge57" class="edge">
<title>37&#45;&gt;36</title>
<path fill="none" stroke="#c0c0c0" stroke-width="2" d="M243.7647,-359.7691C250.0161,-349.6431 257.1894,-336.5805 261.5,-324 276.9149,-279.0118 282.8578,-223.7277 285.1263,-190.7595"/>
<polygon fill="#c0c0c0" stroke="#c0c0c0" stroke-width="2" points="288.6379,-190.6789 285.7631,-180.4815 281.6513,-190.2459 288.6379,-190.6789"/>
</g>
<!-- 52 -->
<g id="node53" class="node">
<title>52</title>
<path fill="none" stroke="#56c9d8" stroke-width="2" d="M241,-324C241,-324 190,-324 190,-324 184,-324 178,-318 178,-312 178,-312 178,-300 178,-300 178,-294 184,-288 190,-288 190,-288 241,-288 241,-288 247,-288 253,-294 253,-300 253,-300 253,-312 253,-312 253,-318 247,-324 241,-324"/>
<text text-anchor="middle" x="215.5" y="-303.5" font-family="sans" font-size="10.00" fill="#000000">metadmg_lca</text>
</g>
<!-- 37&#45;&gt;52 -->
<g id="edge76" class="edge">
<title>37&#45;&gt;52</title>
<path fill="none" stroke="#c0c0c0" stroke-width="2" d="M227.4625,-359.8314C225.7513,-352.131 223.7165,-342.9743 221.8148,-334.4166"/>
<polygon fill="#c0c0c0" stroke="#c0c0c0" stroke-width="2" points="225.1779,-333.4159 219.5918,-324.4133 218.3446,-334.9344 225.1779,-333.4159"/>
</g>
<!-- 58 -->
<g id="node59" class="node">
<title>58</title>
<path fill="none" stroke="#56d8a9" stroke-width="2" d="M85,-108C85,-108 12,-108 12,-108 6,-108 0,-102 0,-96 0,-96 0,-84 0,-84 0,-78 6,-72 12,-72 12,-72 85,-72 85,-72 91,-72 97,-78 97,-84 97,-84 97,-96 97,-96 97,-102 91,-108 85,-108"/>
<text text-anchor="middle" x="48.5" y="-87.5" font-family="sans" font-size="10.00" fill="#000000">metadmg_damage</text>
</g>
<!-- 37&#45;&gt;58 -->
<g id="edge85" class="edge">
<title>37&#45;&gt;58</title>
<path fill="none" stroke="#c0c0c0" stroke-width="2" d="M187.4792,-370.9715C139.3982,-362.2947 67.0045,-345.951 50.5,-324 4.5531,-262.8908 25.0786,-165.1723 39.1757,-117.6928"/>
<polygon fill="#c0c0c0" stroke="#c0c0c0" stroke-width="2" points="42.5355,-118.6748 42.1462,-108.0871 35.848,-116.6067 42.5355,-118.6748"/>
</g>
<!-- 38 -->
<g id="node39" class="node">
<title>38</title>
<path fill="none" stroke="#d88d56" stroke-width="2" d="M283,-468C283,-468 238,-468 238,-468 232,-468 226,-462 226,-456 226,-456 226,-444 226,-444 226,-438 232,-432 238,-432 238,-432 283,-432 283,-432 289,-432 295,-438 295,-444 295,-444 295,-456 295,-456 295,-462 289,-468 283,-468"/>
<text text-anchor="middle" x="260.5" y="-447.5" font-family="sans" font-size="10.00" fill="#000000">align_merge</text>
</g>
<!-- 38&#45;&gt;37 -->
<g id="edge58" class="edge">
<title>38&#45;&gt;37</title>
<path fill="none" stroke="#c0c0c0" stroke-width="2" d="M253.1821,-431.8314C250.0124,-423.9617 246.23,-414.5712 242.7187,-405.8533"/>
<polygon fill="#c0c0c0" stroke="#c0c0c0" stroke-width="2" points="245.8992,-404.3815 238.9165,-396.4133 239.4061,-406.9968 245.8992,-404.3815"/>
</g>
<!-- 39 -->
<g id="node40" class="node">
<title>39</title>
<path fill="none" stroke="#5673d8" stroke-width="2" d="M294.5,-540C294.5,-540 226.5,-540 226.5,-540 220.5,-540 214.5,-534 214.5,-528 214.5,-528 214.5,-516 214.5,-516 214.5,-510 220.5,-504 226.5,-504 226.5,-504 294.5,-504 294.5,-504 300.5,-504 306.5,-510 306.5,-516 306.5,-516 306.5,-528 306.5,-528 306.5,-534 300.5,-540 294.5,-540"/>
<text text-anchor="middle" x="260.5" y="-519.5" font-family="sans" font-size="10.00" fill="#000000">shard_sort_coord</text>
</g>
<!-- 39&#45;&gt;38 -->
<g id="edge59" class="edge">
<title>39&#45;&gt;38</title>
<path fill="none" stroke="#c0c0c0" stroke-width="2" d="M260.5,-503.8314C260.5,-496.131 260.5,-486.9743 260.5,-478.4166"/>
<polygon fill="#c0c0c0" stroke="#c0c0c0" stroke-width="2" points="264.0001,-478.4132 260.5,-468.4133 257.0001,-478.4133 264.0001,-478.4132"/>
</g>
<!-- 40&#45;&gt;39 -->
<g id="edge63" class="edge">
<title>40&#45;&gt;39</title>
<path fill="none" stroke="#c0c0c0" stroke-width="2" d="M260.5,-575.8314C260.5,-568.131 260.5,-558.9743 260.5,-550.4166"/>
<polygon fill="#c0c0c0" stroke="#c0c0c0" stroke-width="2" points="264.0001,-550.4132 260.5,-540.4133 257.0001,-550.4133 264.0001,-550.4132"/>
</g>
<!-- 41 -->
<g id="node42" class="node">
<title>41</title>
<path fill="none" stroke="#5673d8" stroke-width="2" d="M180.5,-540C180.5,-540 112.5,-540 112.5,-540 106.5,-540 100.5,-534 100.5,-528 100.5,-528 100.5,-516 100.5,-516 100.5,-510 106.5,-504 112.5,-504 112.5,-504 180.5,-504 180.5,-504 186.5,-504 192.5,-510 192.5,-516 192.5,-516 192.5,-528 192.5,-528 192.5,-534 186.5,-540 180.5,-540"/>
<text text-anchor="middle" x="146.5" y="-519.5" font-family="sans" font-size="10.00" fill="#000000">shard_sort_coord</text>
</g>
<!-- 41&#45;&gt;38 -->
<g id="edge60" class="edge">
<title>41&#45;&gt;38</title>
<path fill="none" stroke="#c0c0c0" stroke-width="2" d="M175.267,-503.8314C189.7133,-494.7074 207.3965,-483.539 222.904,-473.7449"/>
<polygon fill="#c0c0c0" stroke="#c0c0c0" stroke-width="2" points="225.1563,-476.462 231.7422,-468.1628 221.4183,-470.5436 225.1563,-476.462"/>
</g>
<!-- 42&#45;&gt;41 -->
<g id="edge65" class="edge">
<title>42&#45;&gt;41</title>
<path fill="none" stroke="#c0c0c0" stroke-width="2" d="M140.5187,-575.8314C141.3743,-568.131 142.3917,-558.9743 143.3426,-550.4166"/>
<polygon fill="#c0c0c0" stroke="#c0c0c0" stroke-width="2" points="146.8283,-550.7386 144.4541,-540.4133 139.8711,-549.9656 146.8283,-550.7386"/>
</g>
<!-- 43 -->
<g id="node44" class="node">
<title>43</title>
<path fill="none" stroke="#5673d8" stroke-width="2" d="M451.5,-540C451.5,-540 383.5,-540 383.5,-540 377.5,-540 371.5,-534 371.5,-528 371.5,-528 371.5,-516 371.5,-516 371.5,-510 377.5,-504 383.5,-504 383.5,-504 451.5,-504 451.5,-504 457.5,-504 463.5,-510 463.5,-516 463.5,-516 463.5,-528 463.5,-528 463.5,-534 457.5,-540 451.5,-540"/>
<text text-anchor="middle" x="417.5" y="-519.5" font-family="sans" font-size="10.00" fill="#000000">shard_sort_coord</text>
</g>
<!-- 43&#45;&gt;38 -->
<g id="edge61" class="edge">
<title>43&#45;&gt;38</title>
<path fill="none" stroke="#c0c0c0" stroke-width="2" d="M377.8823,-503.8314C355.4473,-493.5427 327.3438,-480.6545 304.2605,-470.0685"/>
<polygon fill="#c0c0c0" stroke="#c0c0c0" stroke-width="2" points="305.582,-466.8241 295.0332,-465.8369 302.664,-473.1869 305.582,-466.8241"/>
</g>
<!-- 44&#45;&gt;43 -->
<g id="edge67" class="edge">
<title>44&#45;&gt;43</title>
<path fill="none" stroke="#c0c0c0" stroke-width="2" d="M419.743,-575.8314C419.4221,-568.131 419.0406,-558.9743 418.684,-550.4166"/>
<polygon fill="#c0c0c0" stroke="#c0c0c0" stroke-width="2" points="422.1806,-550.2589 418.2672,-540.4133 415.1867,-550.5503 422.1806,-550.2589"/>
</g>
<!-- 45 -->
<g id="node46" class="node">
<title>45</title>
<path fill="none" stroke="#5673d8" stroke-width="2" d="M567.5,-540C567.5,-540 499.5,-540 499.5,-540 493.5,-540 487.5,-534 487.5,-528 487.5,-528 487.5,-516 487.5,-516 487.5,-510 493.5,-504 499.5,-504 499.5,-504 567.5,-504 567.5,-504 573.5,-504 579.5,-510 579.5,-516 579.5,-516 579.5,-528 579.5,-528 579.5,-534 573.5,-540 567.5,-540"/>
<text text-anchor="middle" x="533.5" y="-519.5" font-family="sans" font-size="10.00" fill="#000000">shard_sort_coord</text>
</g>
<!-- 45&#45;&gt;38 -->
<g id="edge62" class="edge">
<title>45&#45;&gt;38</title>
<path fill="none" stroke="#c0c0c0" stroke-width="2" d="M487.2563,-508.1562C482.2828,-506.7265 477.2912,-505.3166 472.5,-504 414.8614,-488.1612 347.9671,-471.3877 304.9819,-460.8151"/>
<polygon fill="#c0c0c0" stroke="#c0c0c0" stroke-width="2" points="305.6678,-457.3796 295.1218,-458.3955 303.9996,-464.1779 305.6678,-457.3796"/>
</g>
<!-- 46&#45;&gt;45 -->
<g id="edge69" class="edge">
<title>46&#45;&gt;45</title>
<path fill="none" stroke="#c0c0c0" stroke-width="2" d="M568.6399,-575.8314C563.3371,-567.7079 556.9763,-557.9637 551.1327,-549.0118"/>
<polygon fill="#c0c0c0" stroke="#c0c0c0" stroke-width="2" points="553.9169,-546.8739 545.5198,-540.4133 548.0552,-550.7003 553.9169,-546.8739"/>
</g>
<!-- 47 -->
<g id="node48" class="node">
<title>47</title>
<path fill="none" stroke="#56d8c9" stroke-width="2" d="M462.5,-252C462.5,-252 410.5,-252 410.5,-252 404.5,-252 398.5,-246 398.5,-240 398.5,-240 398.5,-228 398.5,-228 398.5,-222 404.5,-216 410.5,-216 410.5,-216 462.5,-216 462.5,-216 468.5,-216 474.5,-222 474.5,-228 474.5,-228 474.5,-240 474.5,-240 474.5,-246 468.5,-252 462.5,-252"/>
<text text-anchor="middle" x="436.5" y="-231.5" font-family="sans" font-size="10.00" fill="#000000">metadmg_dfit</text>
</g>
<!-- 47&#45;&gt;1 -->
<g id="edge23" class="edge">
<title>47&#45;&gt;1</title>
<path fill="none" stroke="#c0c0c0" stroke-width="2" d="M453.9963,-215.6995C473.7361,-195.8874 507.5381,-164.395 541.5,-144 573.6593,-124.6875 613.9527,-109.8566 642.6819,-100.6673"/>
<polygon fill="#c0c0c0" stroke="#c0c0c0" stroke-width="2" points="643.8274,-103.9763 652.3292,-97.6541 641.7404,-97.2946 643.8274,-103.9763"/>
</g>
<!-- 53 -->
<g id="node54" class="node">
<title>53</title>
<path fill="none" stroke="#56d892" stroke-width="2" d="M468,-180C468,-180 387,-180 387,-180 381,-180 375,-174 375,-168 375,-168 375,-156 375,-156 375,-150 381,-144 387,-144 387,-144 468,-144 468,-144 474,-144 480,-150 480,-156 480,-156 480,-168 480,-168 480,-174 474,-180 468,-180"/>
<text text-anchor="middle" x="427.5" y="-159.5" font-family="sans" font-size="10.00" fill="#000000">metadmg_aggregate</text>
</g>
<!-- 47&#45;&gt;53 -->
<g id="edge78" class="edge">
<title>47&#45;&gt;53</title>
<path fill="none" stroke="#c0c0c0" stroke-width="2" d="M434.2289,-215.8314C433.2664,-208.131 432.1218,-198.9743 431.0521,-190.4166"/>
<polygon fill="#c0c0c0" stroke="#c0c0c0" stroke-width="2" points="434.5151,-189.9019 429.8017,-180.4133 427.5691,-190.7702 434.5151,-189.9019"/>
</g>
<!-- 48&#45;&gt;47 -->
<g id="edge71" class="edge">
<title>48&#45;&gt;47</title>
<path fill="none" stroke="#c0c0c0" stroke-width="2" d="M436.5,-287.8314C436.5,-280.131 436.5,-270.9743 436.5,-262.4166"/>
<polygon fill="#c0c0c0" stroke="#c0c0c0" stroke-width="2" points="440.0001,-262.4132 436.5,-252.4133 433.0001,-262.4133 440.0001,-262.4132"/>
</g>
<!-- 48&#45;&gt;53 -->
<g id="edge77" class="edge">
<title>48&#45;&gt;53</title>
<path fill="none" stroke="#c0c0c0" stroke-width="2" d="M414.7328,-287.8165C405.0277,-278.2816 394.6403,-265.7355 389.5,-252 383.8921,-237.015 384.6708,-231.2538 389.5,-216 392.5815,-206.2664 398.1183,-196.7695 404.0289,-188.5228"/>
<polygon fill="#c0c0c0" stroke="#c0c0c0" stroke-width="2" points="406.931,-190.49 410.2365,-180.4239 401.3752,-186.2316 406.931,-190.49"/>
</g>
<!-- 49 -->
<g id="node50" class="node">
<title>49</title>
<path fill="none" stroke="#56d8c9" stroke-width="2" d="M1711.5,-252C1711.5,-252 1659.5,-252 1659.5,-252 1653.5,-252 1647.5,-246 1647.5,-240 1647.5,-240 1647.5,-228 1647.5,-228 1647.5,-222 1653.5,-216 1659.5,-216 1659.5,-216 1711.5,-216 1711.5,-216 1717.5,-216 1723.5,-222 1723.5,-228 1723.5,-228 1723.5,-240 1723.5,-240 1723.5,-246 1717.5,-252 1711.5,-252"/>
<text text-anchor="middle" x="1685.5" y="-231.5" font-family="sans" font-size="10.00" fill="#000000">metadmg_dfit</text>
</g>
<!-- 49&#45;&gt;1 -->
<g id="edge24" class="edge">
<title>49&#45;&gt;1</title>
<path fill="none" stroke="#c0c0c0" stroke-width="2" d="M1667.1109,-215.8526C1642.4086,-191.9386 1599.3256,-151.9632 1579.5,-144 1498.6547,-111.5276 877.739,-94.6943 717.2596,-90.858"/>
<polygon fill="#c0c0c0" stroke="#c0c0c0" stroke-width="2" points="717.0189,-87.3514 706.939,-90.6141 716.8535,-94.3494 717.0189,-87.3514"/>
</g>
<!-- 54 -->
<g id="node55" class="node">
<title>54</title>
<path fill="none" stroke="#56d892" stroke-width="2" d="M1735,-180C1735,-180 1654,-180 1654,-180 1648,-180 1642,-174 1642,-168 1642,-168 1642,-156 1642,-156 1642,-150 1648,-144 1654,-144 1654,-144 1735,-144 1735,-144 1741,-144 1747,-150 1747,-156 1747,-156 1747,-168 1747,-168 1747,-174 1741,-180 1735,-180"/>
<text text-anchor="middle" x="1694.5" y="-159.5" font-family="sans" font-size="10.00" fill="#000000">metadmg_aggregate</text>
</g>
<!-- 49&#45;&gt;54 -->
<g id="edge80" class="edge">
<title>49&#45;&gt;54</title>
<path fill="none" stroke="#c0c0c0" stroke-width="2" d="M1687.7711,-215.8314C1688.7336,-208.131 1689.8782,-198.9743 1690.9479,-190.4166"/>
<polygon fill="#c0c0c0" stroke="#c0c0c0" stroke-width="2" points="1694.4309,-190.7702 1692.1983,-180.4133 1687.4849,-189.9019 1694.4309,-190.7702"/>
</g>
<!-- 50&#45;&gt;49 -->
<g id="edge73" class="edge">
<title>50&#45;&gt;49</title>
<path fill="none" stroke="#c0c0c0" stroke-width="2" d="M1710.1727,-287.8314C1706.527,-279.8771 1702.1691,-270.369 1698.1373,-261.5723"/>
<polygon fill="#c0c0c0" stroke="#c0c0c0" stroke-width="2" points="1701.2877,-260.0456 1693.9394,-252.4133 1694.9243,-262.9622 1701.2877,-260.0456"/>
</g>
<!-- 50&#45;&gt;54 -->
<g id="edge79" class="edge">
<title>50&#45;&gt;54</title>
<path fill="none" stroke="#c0c0c0" stroke-width="2" d="M1726.1513,-287.6994C1732.7585,-269.2468 1740.1363,-240.1207 1732.5,-216 1729.4185,-206.2664 1723.8817,-196.7695 1717.9711,-188.5228"/>
<polygon fill="#c0c0c0" stroke="#c0c0c0" stroke-width="2" points="1720.6248,-186.2316 1711.7635,-180.4239 1715.069,-190.49 1720.6248,-186.2316"/>
</g>
<!-- 51 -->
<g id="node52" class="node">
<title>51</title>
<path fill="none" stroke="#56d8c9" stroke-width="2" d="M241.5,-252C241.5,-252 189.5,-252 189.5,-252 183.5,-252 177.5,-246 177.5,-240 177.5,-240 177.5,-228 177.5,-228 177.5,-222 183.5,-216 189.5,-216 189.5,-216 241.5,-216 241.5,-216 247.5,-216 253.5,-222 253.5,-228 253.5,-228 253.5,-240 253.5,-240 253.5,-246 247.5,-252 241.5,-252"/>
<text text-anchor="middle" x="215.5" y="-231.5" font-family="sans" font-size="10.00" fill="#000000">metadmg_dfit</text>
</g>
<!-- 51&#45;&gt;1 -->
<g id="edge25" class="edge">
<title>51&#45;&gt;1</title>
<path fill="none" stroke="#c0c0c0" stroke-width="2" d="M216.0795,-215.9938C217.7917,-195.2128 223.9693,-161.6407 245.5,-144 275.9941,-119.0153 542.645,-99.029 642.214,-92.3747"/>
<polygon fill="#c0c0c0" stroke="#c0c0c0" stroke-width="2" points="642.6656,-95.8526 652.4131,-91.7008 642.204,-88.8678 642.6656,-95.8526"/>
</g>
<!-- 55 -->
<g id="node56" class="node">
<title>55</title>
<path fill="none" stroke="#56d892" stroke-width="2" d="M186,-180C186,-180 105,-180 105,-180 99,-180 93,-174 93,-168 93,-168 93,-156 93,-156 93,-150 99,-144 105,-144 105,-144 186,-144 186,-144 192,-144 198,-150 198,-156 198,-156 198,-168 198,-168 198,-174 192,-180 186,-180"/>
<text text-anchor="middle" x="145.5" y="-159.5" font-family="sans" font-size="10.00" fill="#000000">metadmg_aggregate</text>
</g>
<!-- 51&#45;&gt;55 -->
<g id="edge82" class="edge">
<title>51&#45;&gt;55</title>
<path fill="none" stroke="#c0c0c0" stroke-width="2" d="M197.836,-215.8314C189.5268,-207.2848 179.4736,-196.9443 170.4082,-187.6198"/>
<polygon fill="#c0c0c0" stroke="#c0c0c0" stroke-width="2" points="172.8821,-185.1435 163.4018,-180.4133 167.8631,-190.023 172.8821,-185.1435"/>
</g>
<!-- 52&#45;&gt;51 -->
<g id="edge75" class="edge">
<title>52&#45;&gt;51</title>
<path fill="none" stroke="#c0c0c0" stroke-width="2" d="M215.5,-287.8314C215.5,-280.131 215.5,-270.9743 215.5,-262.4166"/>
<polygon fill="#c0c0c0" stroke="#c0c0c0" stroke-width="2" points="219.0001,-262.4132 215.5,-252.4133 212.0001,-262.4133 219.0001,-262.4132"/>
</g>
<!-- 52&#45;&gt;55 -->
<g id="edge81" class="edge">
<title>52&#45;&gt;55</title>
<path fill="none" stroke="#c0c0c0" stroke-width="2" d="M195.6668,-287.654C186.1897,-277.8975 175.4295,-265.2069 168.5,-252 158.3529,-232.6607 152.5051,-208.5971 149.2476,-190.2193"/>
<polygon fill="#c0c0c0" stroke="#c0c0c0" stroke-width="2" points="152.6682,-189.447 147.6159,-180.1344 145.7581,-190.5651 152.6682,-189.447"/>
</g>
<!-- 53&#45;&gt;0 -->
<g id="edge2" class="edge">
<title>53&#45;&gt;0</title>
<path fill="none" stroke="#c0c0c0" stroke-width="2" d="M427.5,-143.7623C427.5,-119.201 427.5,-75.2474 427.5,-46.3541"/>
<polygon fill="#c0c0c0" stroke="#c0c0c0" stroke-width="2" points="431.0001,-46.0896 427.5,-36.0896 424.0001,-46.0897 431.0001,-46.0896"/>
</g>
<!-- 53&#45;&gt;1 -->
<g id="edge26" class="edge">
<title>53&#45;&gt;1</title>
<path fill="none" stroke="#c0c0c0" stroke-width="2" d="M480.0207,-146.9941C528.6294,-133.1059 599.6649,-112.81 642.549,-100.5574"/>
<polygon fill="#c0c0c0" stroke="#c0c0c0" stroke-width="2" points="643.6403,-103.8858 652.294,-97.7731 641.7172,-97.1551 643.6403,-103.8858"/>
</g>
<!-- 54&#45;&gt;0 -->
<g id="edge3" class="edge">
<title>54&#45;&gt;0</title>
<path fill="none" stroke="#c0c0c0" stroke-width="2" d="M1641.8072,-148.9286C1633.3771,-147.101 1624.7237,-145.3794 1616.5,-144 1166.6274,-68.5405 612.9793,-29.7866 465.2076,-20.3246"/>
<polygon fill="#c0c0c0" stroke="#c0c0c0" stroke-width="2" points="465.0859,-16.8099 454.8842,-19.6691 464.6423,-23.7958 465.0859,-16.8099"/>
</g>
<!-- 54&#45;&gt;1 -->
<g id="edge27" class="edge">
<title>54&#45;&gt;1</title>
<path fill="none" stroke="#c0c0c0" stroke-width="2" d="M1641.6877,-146.7359C1636.9171,-145.684 1632.1376,-144.7469 1627.5,-144 1447.3036,-114.9792 869.5519,-95.7608 716.8238,-91.1003"/>
<polygon fill="#c0c0c0" stroke="#c0c0c0" stroke-width="2" points="716.6746,-87.5942 706.5732,-90.7899 716.4627,-94.591 716.6746,-87.5942"/>
</g>
<!-- 55&#45;&gt;0 -->
<g id="edge4" class="edge">
<title>55&#45;&gt;0</title>
<path fill="none" stroke="#c0c0c0" stroke-width="2" d="M198.2246,-146.1375C237.15,-134.0657 286.5223,-117.893 305.5,-108 340.1571,-89.9333 375.6562,-62.5447 399.36,-42.7272"/>
<polygon fill="#c0c0c0" stroke="#c0c0c0" stroke-width="2" points="401.8624,-45.1944 407.2316,-36.0609 397.3385,-39.8526 401.8624,-45.1944"/>
</g>
<!-- 55&#45;&gt;1 -->
<g id="edge28" class="edge">
<title>55&#45;&gt;1</title>
<path fill="none" stroke="#c0c0c0" stroke-width="2" d="M198.3634,-147.0262C203.1231,-145.9123 207.8861,-144.8815 212.5,-144 370.9305,-113.7294 563.0609,-98.0139 642.4426,-92.4209"/>
<polygon fill="#c0c0c0" stroke="#c0c0c0" stroke-width="2" points="642.7056,-95.9112 652.4398,-91.7284 642.2218,-88.9279 642.7056,-95.9112"/>
</g>
<!-- 56&#45;&gt;0 -->
<g id="edge5" class="edge">
<title>56&#45;&gt;0</title>
<path fill="none" stroke="#c0c0c0" stroke-width="2" d="M293.6693,-71.8314C323.7791,-59.7201 362.8444,-44.0067 390.9872,-32.6867"/>
<polygon fill="#c0c0c0" stroke="#c0c0c0" stroke-width="2" points="392.482,-35.858 400.4535,-28.879 389.8697,-29.3637 392.482,-35.858"/>
</g>
<!-- 57&#45;&gt;0 -->
<g id="edge6" class="edge">
<title>57&#45;&gt;0</title>
<path fill="none" stroke="#c0c0c0" stroke-width="2" d="M1562.8784,-87.0433C1367.0266,-75.1334 638.1525,-30.81 464.7114,-20.2629"/>
<polygon fill="#c0c0c0" stroke="#c0c0c0" stroke-width="2" points="464.7518,-16.7589 454.5578,-19.6454 464.3269,-23.746 464.7518,-16.7589"/>
</g>
<!-- 58&#45;&gt;0 -->
<g id="edge7" class="edge">
<title>58&#45;&gt;0</title>
<path fill="none" stroke="#c0c0c0" stroke-width="2" d="M97.2717,-80.7347C174.0978,-66.1397 321.6207,-38.1143 390.4435,-25.0398"/>
<polygon fill="#c0c0c0" stroke="#c0c0c0" stroke-width="2" points="391.2291,-28.4532 400.4001,-23.1483 389.9226,-21.5762 391.2291,-28.4532"/>
</g>
</g>
</svg>
