<?xml version="1.0" encoding="UTF-8" standalone="no"?>
<!DOCTYPE svg PUBLIC "-//W3C//DTD SVG 1.1//EN"
 "http://www.w3.org/Graphics/SVG/1.1/DTD/svg11.dtd">
<!-- Generated by graphviz version 2.40.1 (0)
 -->
<!-- Title: snakemake_dag Pages: 1 -->
<svg width="1989pt" height="885pt"
 viewBox="0.00 0.00 1989.00 885.00" xmlns="http://www.w3.org/2000/svg" xmlns:xlink="http://www.w3.org/1999/xlink">
<g id="graph0" class="graph" transform="scale(1 1) rotate(0) translate(4 881)">
<title>snakemake_dag</title>
<polygon fill="#ffffff" stroke="transparent" points="-4,4 -4,-881 1985,-881 1985,4 -4,4"/>
<!-- 0 -->
<g id="node1" class="node">
<title>0</title>
<path fill="none" stroke="#b6d856" stroke-width="2" d="M1194.5,-36C1194.5,-36 1164.5,-36 1164.5,-36 1158.5,-36 1152.5,-30 1152.5,-24 1152.5,-24 1152.5,-12 1152.5,-12 1152.5,-6 1158.5,0 1164.5,0 1164.5,0 1194.5,0 1194.5,0 1200.5,0 1206.5,-6 1206.5,-12 1206.5,-12 1206.5,-24 1206.5,-24 1206.5,-30 1200.5,-36 1194.5,-36"/>
<text text-anchor="middle" x="1179.5" y="-15.5" font-family="sans" font-size="10.00" fill="#000000">all</text>
</g>
<!-- 1 -->
<g id="node2" class="node">
<title>1</title>
<path fill="none" stroke="#56d8b1" stroke-width="2" d="M891.5,-108C891.5,-108 861.5,-108 861.5,-108 855.5,-108 849.5,-102 849.5,-96 849.5,-96 849.5,-84 849.5,-84 849.5,-78 855.5,-72 861.5,-72 861.5,-72 891.5,-72 891.5,-72 897.5,-72 903.5,-78 903.5,-84 903.5,-84 903.5,-96 903.5,-96 903.5,-102 897.5,-108 891.5,-108"/>
<text text-anchor="middle" x="876.5" y="-87.5" font-family="sans" font-size="10.00" fill="#000000">multiqc</text>
</g>
<!-- 1&#45;&gt;0 -->
<g id="edge1" class="edge">
<title>1&#45;&gt;0</title>
<path fill="none" stroke="#c0c0c0" stroke-width="2" d="M903.6559,-83.5471C958.032,-70.6261 1080.3518,-41.56 1142.195,-26.8645"/>
<polygon fill="#c0c0c0" stroke="#c0c0c0" stroke-width="2" points="1143.3762,-30.1814 1152.2961,-24.4643 1141.7578,-23.3711 1143.3762,-30.1814"/>
</g>
<!-- 2 -->
<g id="node3" class="node">
<title>2</title>
<path fill="none" stroke="#9fd856" stroke-width="2" d="M618,-877C618,-877 511,-877 511,-877 505,-877 499,-871 499,-865 499,-865 499,-804 499,-804 499,-798 505,-792 511,-792 511,-792 618,-792 618,-792 624,-792 630,-798 630,-804 630,-804 630,-865 630,-865 630,-871 624,-877 618,-877"/>
<text text-anchor="middle" x="564.5" y="-865" font-family="sans" font-size="10.00" fill="#000000">bowtie2</text>
<text text-anchor="middle" x="564.5" y="-854" font-family="sans" font-size="10.00" fill="#000000">library: lib1</text>
<text text-anchor="middle" x="564.5" y="-843" font-family="sans" font-size="10.00" fill="#000000">n_shard: 2</text>
<text text-anchor="middle" x="564.5" y="-832" font-family="sans" font-size="10.00" fill="#000000">read_type_map: collapsed</text>
<text text-anchor="middle" x="564.5" y="-821" font-family="sans" font-size="10.00" fill="#000000">ref: wgs_eukaryota</text>
<text text-anchor="middle" x="564.5" y="-810" font-family="sans" font-size="10.00" fill="#000000">sample: HD827sonic_2</text>
<text text-anchor="middle" x="564.5" y="-799" font-family="sans" font-size="10.00" fill="#000000">tot_shards: 2</text>
</g>
<!-- 2&#45;&gt;1 -->
<g id="edge11" class="edge">
<title>2&#45;&gt;1</title>
<path fill="none" stroke="#c0c0c0" stroke-width="2" d="M595.0259,-791.6977C615.41,-758.9112 638.5,-711.6888 638.5,-666 638.5,-666 638.5,-666 638.5,-522 638.5,-413.4491 729.6306,-419.3566 781.5,-324 822.5156,-248.597 817.897,-222.9857 851.5,-144 855.2025,-135.2972 859.4539,-125.9131 863.3882,-117.4479"/>
<polygon fill="#c0c0c0" stroke="#c0c0c0" stroke-width="2" points="866.5702,-118.906 867.6493,-108.3663 860.2331,-115.9326 866.5702,-118.906"/>
</g>
<!-- 33 -->
<g id="node34" class="node">
<title>33</title>
<path fill="none" stroke="#56c9d8" stroke-width="2" d="M426,-756C426,-756 357,-756 357,-756 351,-756 345,-750 345,-744 345,-744 345,-732 345,-732 345,-726 351,-720 357,-720 357,-720 426,-720 426,-720 432,-720 438,-726 438,-732 438,-732 438,-744 438,-744 438,-750 432,-756 426,-756"/>
<text text-anchor="middle" x="391.5" y="-735.5" font-family="sans" font-size="10.00" fill="#000000">shard_count_alns</text>
</g>
<!-- 2&#45;&gt;33 -->
<g id="edge63" class="edge">
<title>2&#45;&gt;33</title>
<path fill="none" stroke="#c0c0c0" stroke-width="2" d="M498.7751,-796.6529C495.9821,-795.0761 493.2148,-793.5197 490.5,-792 472.0245,-781.6574 451.4908,-770.4161 433.9352,-760.8812"/>
<polygon fill="#c0c0c0" stroke="#c0c0c0" stroke-width="2" points="435.512,-757.7548 425.0529,-756.0645 432.175,-763.9083 435.512,-757.7548"/>
</g>
<!-- 37 -->
<g id="node38" class="node">
<title>37</title>
<path fill="none" stroke="#5682d8" stroke-width="2" d="M522,-612C522,-612 393,-612 393,-612 387,-612 381,-606 381,-600 381,-600 381,-588 381,-588 381,-582 387,-576 393,-576 393,-576 522,-576 522,-576 528,-576 534,-582 534,-588 534,-588 534,-600 534,-600 534,-606 528,-612 522,-612"/>
<text text-anchor="middle" x="457.5" y="-591.5" font-family="sans" font-size="10.00" fill="#000000">shard_saturated_reads_remove</text>
</g>
<!-- 2&#45;&gt;37 -->
<g id="edge67" class="edge">
<title>2&#45;&gt;37</title>
<path fill="none" stroke="#c0c0c0" stroke-width="2" d="M554.2868,-791.6652C543.9734,-752.7031 525.9267,-694.3751 500.5,-648 495.1733,-638.2847 488.0857,-628.5437 481.2038,-620.0626"/>
<polygon fill="#c0c0c0" stroke="#c0c0c0" stroke-width="2" points="483.8449,-617.7652 474.733,-612.3594 478.485,-622.2676 483.8449,-617.7652"/>
</g>
<!-- 3 -->
<g id="node4" class="node">
<title>3</title>
<path fill="none" stroke="#9fd856" stroke-width="2" d="M956,-877C956,-877 849,-877 849,-877 843,-877 837,-871 837,-865 837,-865 837,-804 837,-804 837,-798 843,-792 849,-792 849,-792 956,-792 956,-792 962,-792 968,-798 968,-804 968,-804 968,-865 968,-865 968,-871 962,-877 956,-877"/>
<text text-anchor="middle" x="902.5" y="-865" font-family="sans" font-size="10.00" fill="#000000">bowtie2</text>
<text text-anchor="middle" x="902.5" y="-854" font-family="sans" font-size="10.00" fill="#000000">library: lib1</text>
<text text-anchor="middle" x="902.5" y="-843" font-family="sans" font-size="10.00" fill="#000000">n_shard: 1</text>
<text text-anchor="middle" x="902.5" y="-832" font-family="sans" font-size="10.00" fill="#000000">read_type_map: collapsed</text>
<text text-anchor="middle" x="902.5" y="-821" font-family="sans" font-size="10.00" fill="#000000">ref: refseq_mitochondrion</text>
<text text-anchor="middle" x="902.5" y="-810" font-family="sans" font-size="10.00" fill="#000000">sample: HD827sonic_1</text>
<text text-anchor="middle" x="902.5" y="-799" font-family="sans" font-size="10.00" fill="#000000">tot_shards: 1</text>
</g>
<!-- 3&#45;&gt;1 -->
<g id="edge12" class="edge">
<title>3&#45;&gt;1</title>
<path fill="none" stroke="#c0c0c0" stroke-width="2" d="M836.8159,-807.5524C813.4728,-795.0183 788.936,-777.9476 772.5,-756 732.8236,-703.0187 743.0152,-677.6409 734.5,-612 716.7047,-474.8222 815.5947,-457.3132 852.5,-324 872.4801,-251.8256 876.1506,-162.9809 876.6253,-118.3832"/>
<polygon fill="#c0c0c0" stroke="#c0c0c0" stroke-width="2" points="880.1257,-118.3088 876.6848,-108.2882 873.1258,-118.2674 880.1257,-118.3088"/>
</g>
<!-- 17 -->
<g id="node18" class="node">
<title>17</title>
<path fill="none" stroke="#56c9d8" stroke-width="2" d="M1012,-756C1012,-756 943,-756 943,-756 937,-756 931,-750 931,-744 931,-744 931,-732 931,-732 931,-726 937,-720 943,-720 943,-720 1012,-720 1012,-720 1018,-720 1024,-726 1024,-732 1024,-732 1024,-744 1024,-744 1024,-750 1018,-756 1012,-756"/>
<text text-anchor="middle" x="977.5" y="-735.5" font-family="sans" font-size="10.00" fill="#000000">shard_count_alns</text>
</g>
<!-- 3&#45;&gt;17 -->
<g id="edge40" class="edge">
<title>3&#45;&gt;17</title>
<path fill="none" stroke="#c0c0c0" stroke-width="2" d="M935.6144,-791.8928C942.9133,-782.5016 950.4368,-772.8213 957.0586,-764.3013"/>
<polygon fill="#c0c0c0" stroke="#c0c0c0" stroke-width="2" points="959.9649,-766.2653 963.338,-756.2218 954.4379,-761.9697 959.9649,-766.2653"/>
</g>
<!-- 25 -->
<g id="node26" class="node">
<title>25</title>
<path fill="none" stroke="#5682d8" stroke-width="2" d="M1055,-612C1055,-612 926,-612 926,-612 920,-612 914,-606 914,-600 914,-600 914,-588 914,-588 914,-582 920,-576 926,-576 926,-576 1055,-576 1055,-576 1061,-576 1067,-582 1067,-588 1067,-588 1067,-600 1067,-600 1067,-606 1061,-612 1055,-612"/>
<text text-anchor="middle" x="990.5" y="-591.5" font-family="sans" font-size="10.00" fill="#000000">shard_saturated_reads_remove</text>
</g>
<!-- 3&#45;&gt;25 -->
<g id="edge49" class="edge">
<title>3&#45;&gt;25</title>
<path fill="none" stroke="#c0c0c0" stroke-width="2" d="M897.7056,-791.7097C895.284,-751.9853 896.9745,-692.4554 921.5,-648 927.9995,-636.2188 938.2451,-626.1322 948.8722,-617.9756"/>
<polygon fill="#c0c0c0" stroke="#c0c0c0" stroke-width="2" points="950.942,-620.7982 957.0173,-612.1183 946.8551,-615.115 950.942,-620.7982"/>
</g>
<!-- 4 -->
<g id="node5" class="node">
<title>4</title>
<path fill="none" stroke="#9fd856" stroke-width="2" d="M1434,-877C1434,-877 1327,-877 1327,-877 1321,-877 1315,-871 1315,-865 1315,-865 1315,-804 1315,-804 1315,-798 1321,-792 1327,-792 1327,-792 1434,-792 1434,-792 1440,-792 1446,-798 1446,-804 1446,-804 1446,-865 1446,-865 1446,-871 1440,-877 1434,-877"/>
<text text-anchor="middle" x="1380.5" y="-865" font-family="sans" font-size="10.00" fill="#000000">bowtie2</text>
<text text-anchor="middle" x="1380.5" y="-854" font-family="sans" font-size="10.00" fill="#000000">library: lib2</text>
<text text-anchor="middle" x="1380.5" y="-843" font-family="sans" font-size="10.00" fill="#000000">n_shard: 1</text>
<text text-anchor="middle" x="1380.5" y="-832" font-family="sans" font-size="10.00" fill="#000000">read_type_map: collapsed</text>
<text text-anchor="middle" x="1380.5" y="-821" font-family="sans" font-size="10.00" fill="#000000">ref: wgs_eukaryota</text>
<text text-anchor="middle" x="1380.5" y="-810" font-family="sans" font-size="10.00" fill="#000000">sample: HD827sonic_2</text>
<text text-anchor="middle" x="1380.5" y="-799" font-family="sans" font-size="10.00" fill="#000000">tot_shards: 2</text>
</g>
<!-- 4&#45;&gt;1 -->
<g id="edge13" class="edge">
<title>4&#45;&gt;1</title>
<path fill="none" stroke="#c0c0c0" stroke-width="2" d="M1365.3722,-791.8083C1354.7752,-758.0983 1342.5,-709.6328 1342.5,-666 1342.5,-666 1342.5,-666 1342.5,-450 1342.5,-279.5992 1260.191,-227.2312 1111.5,-144 1047.8612,-108.3776 962.0043,-96.2309 913.6426,-92.1055"/>
<polygon fill="#c0c0c0" stroke="#c0c0c0" stroke-width="2" points="913.8689,-88.6126 903.6261,-91.3209 913.3222,-95.5912 913.8689,-88.6126"/>
</g>
<!-- 45 -->
<g id="node46" class="node">
<title>45</title>
<path fill="none" stroke="#5682d8" stroke-width="2" d="M1588,-612C1588,-612 1459,-612 1459,-612 1453,-612 1447,-606 1447,-600 1447,-600 1447,-588 1447,-588 1447,-582 1453,-576 1459,-576 1459,-576 1588,-576 1588,-576 1594,-576 1600,-582 1600,-588 1600,-588 1600,-600 1600,-600 1600,-606 1594,-612 1588,-612"/>
<text text-anchor="middle" x="1523.5" y="-591.5" font-family="sans" font-size="10.00" fill="#000000">shard_saturated_reads_remove</text>
</g>
<!-- 4&#45;&gt;45 -->
<g id="edge79" class="edge">
<title>4&#45;&gt;45</title>
<path fill="none" stroke="#c0c0c0" stroke-width="2" d="M1400.4821,-791.9533C1411.1377,-770.0988 1424.842,-743.2477 1438.5,-720 1459.3045,-684.5879 1486.2323,-645.6591 1504.1467,-620.5806"/>
<polygon fill="#c0c0c0" stroke="#c0c0c0" stroke-width="2" points="1507.0916,-622.48 1510.0825,-612.3161 1501.4061,-618.3965 1507.0916,-622.48"/>
</g>
<!-- 49 -->
<g id="node50" class="node">
<title>49</title>
<path fill="none" stroke="#56c9d8" stroke-width="2" d="M1528,-756C1528,-756 1459,-756 1459,-756 1453,-756 1447,-750 1447,-744 1447,-744 1447,-732 1447,-732 1447,-726 1453,-720 1459,-720 1459,-720 1528,-720 1528,-720 1534,-720 1540,-726 1540,-732 1540,-732 1540,-744 1540,-744 1540,-750 1534,-756 1528,-756"/>
<text text-anchor="middle" x="1493.5" y="-735.5" font-family="sans" font-size="10.00" fill="#000000">shard_count_alns</text>
</g>
<!-- 4&#45;&gt;49 -->
<g id="edge86" class="edge">
<title>4&#45;&gt;49</title>
<path fill="none" stroke="#c0c0c0" stroke-width="2" d="M1430.3924,-791.8928C1442.0766,-781.9147 1454.1431,-771.6101 1464.5559,-762.7178"/>
<polygon fill="#c0c0c0" stroke="#c0c0c0" stroke-width="2" points="1466.831,-765.3774 1472.1626,-756.2218 1462.2852,-760.0543 1466.831,-765.3774"/>
</g>
<!-- 5 -->
<g id="node6" class="node">
<title>5</title>
<path fill="none" stroke="#9fd856" stroke-width="2" d="M1217,-877C1217,-877 1110,-877 1110,-877 1104,-877 1098,-871 1098,-865 1098,-865 1098,-804 1098,-804 1098,-798 1104,-792 1110,-792 1110,-792 1217,-792 1217,-792 1223,-792 1229,-798 1229,-804 1229,-804 1229,-865 1229,-865 1229,-871 1223,-877 1217,-877"/>
<text text-anchor="middle" x="1163.5" y="-865" font-family="sans" font-size="10.00" fill="#000000">bowtie2</text>
<text text-anchor="middle" x="1163.5" y="-854" font-family="sans" font-size="10.00" fill="#000000">library: lib1</text>
<text text-anchor="middle" x="1163.5" y="-843" font-family="sans" font-size="10.00" fill="#000000">n_shard: 1</text>
<text text-anchor="middle" x="1163.5" y="-832" font-family="sans" font-size="10.00" fill="#000000">read_type_map: collapsed</text>
<text text-anchor="middle" x="1163.5" y="-821" font-family="sans" font-size="10.00" fill="#000000">ref: wgs_eukaryota</text>
<text text-anchor="middle" x="1163.5" y="-810" font-family="sans" font-size="10.00" fill="#000000">sample: HD827sonic_1</text>
<text text-anchor="middle" x="1163.5" y="-799" font-family="sans" font-size="10.00" fill="#000000">tot_shards: 2</text>
</g>
<!-- 5&#45;&gt;1 -->
<g id="edge14" class="edge">
<title>5&#45;&gt;1</title>
<path fill="none" stroke="#c0c0c0" stroke-width="2" d="M1184.881,-791.9278C1205.6063,-748.0984 1235.6036,-677.1933 1247.5,-612 1266.2628,-509.1778 1190.1217,-494.2626 1154.5,-396 1140.535,-357.4774 1134.5,-346.9758 1134.5,-306 1134.5,-306 1134.5,-306 1134.5,-234 1134.5,-134.0166 984.9363,-102.8071 913.5595,-93.6058"/>
<polygon fill="#c0c0c0" stroke="#c0c0c0" stroke-width="2" points="913.9712,-90.1302 903.6229,-92.4023 913.1295,-97.0794 913.9712,-90.1302"/>
</g>
<!-- 15 -->
<g id="node16" class="node">
<title>15</title>
<path fill="none" stroke="#5682d8" stroke-width="2" d="M1226,-612C1226,-612 1097,-612 1097,-612 1091,-612 1085,-606 1085,-600 1085,-600 1085,-588 1085,-588 1085,-582 1091,-576 1097,-576 1097,-576 1226,-576 1226,-576 1232,-576 1238,-582 1238,-588 1238,-588 1238,-600 1238,-600 1238,-606 1232,-612 1226,-612"/>
<text text-anchor="middle" x="1161.5" y="-591.5" font-family="sans" font-size="10.00" fill="#000000">shard_saturated_reads_remove</text>
</g>
<!-- 5&#45;&gt;15 -->
<g id="edge35" class="edge">
<title>5&#45;&gt;15</title>
<path fill="none" stroke="#c0c0c0" stroke-width="2" d="M1163.1447,-791.7805C1162.7379,-742.8569 1162.0828,-664.0855 1161.7349,-622.2427"/>
<polygon fill="#c0c0c0" stroke="#c0c0c0" stroke-width="2" points="1165.2345,-622.1696 1161.6513,-612.1991 1158.2347,-622.2279 1165.2345,-622.1696"/>
</g>
<!-- 19 -->
<g id="node20" class="node">
<title>19</title>
<path fill="none" stroke="#56c9d8" stroke-width="2" d="M1123,-756C1123,-756 1054,-756 1054,-756 1048,-756 1042,-750 1042,-744 1042,-744 1042,-732 1042,-732 1042,-726 1048,-720 1054,-720 1054,-720 1123,-720 1123,-720 1129,-720 1135,-726 1135,-732 1135,-732 1135,-744 1135,-744 1135,-750 1129,-756 1123,-756"/>
<text text-anchor="middle" x="1088.5" y="-735.5" font-family="sans" font-size="10.00" fill="#000000">shard_count_alns</text>
</g>
<!-- 5&#45;&gt;19 -->
<g id="edge42" class="edge">
<title>5&#45;&gt;19</title>
<path fill="none" stroke="#c0c0c0" stroke-width="2" d="M1130.3856,-791.8928C1123.0867,-782.5016 1115.5632,-772.8213 1108.9414,-764.3013"/>
<polygon fill="#c0c0c0" stroke="#c0c0c0" stroke-width="2" points="1111.5621,-761.9697 1102.662,-756.2218 1106.0351,-766.2653 1111.5621,-761.9697"/>
</g>
<!-- 6 -->
<g id="node7" class="node">
<title>6</title>
<path fill="none" stroke="#9fd856" stroke-width="2" d="M469,-877C469,-877 362,-877 362,-877 356,-877 350,-871 350,-865 350,-865 350,-804 350,-804 350,-798 356,-792 362,-792 362,-792 469,-792 469,-792 475,-792 481,-798 481,-804 481,-804 481,-865 481,-865 481,-871 475,-877 469,-877"/>
<text text-anchor="middle" x="415.5" y="-865" font-family="sans" font-size="10.00" fill="#000000">bowtie2</text>
<text text-anchor="middle" x="415.5" y="-854" font-family="sans" font-size="10.00" fill="#000000">library: lib1</text>
<text text-anchor="middle" x="415.5" y="-843" font-family="sans" font-size="10.00" fill="#000000">n_shard: 1</text>
<text text-anchor="middle" x="415.5" y="-832" font-family="sans" font-size="10.00" fill="#000000">read_type_map: collapsed</text>
<text text-anchor="middle" x="415.5" y="-821" font-family="sans" font-size="10.00" fill="#000000">ref: refseq_mitochondrion</text>
<text text-anchor="middle" x="415.5" y="-810" font-family="sans" font-size="10.00" fill="#000000">sample: HD827sonic_2</text>
<text text-anchor="middle" x="415.5" y="-799" font-family="sans" font-size="10.00" fill="#000000">tot_shards: 1</text>
</g>
<!-- 6&#45;&gt;1 -->
<g id="edge15" class="edge">
<title>6&#45;&gt;1</title>
<path fill="none" stroke="#c0c0c0" stroke-width="2" d="M479.6848,-791.8667C533.1172,-753.985 600.5,-699.5601 600.5,-666 600.5,-666 600.5,-666 600.5,-234 600.5,-193.0242 591.37,-172.8177 620.5,-144 651.0118,-113.8153 775.9808,-98.7685 839.323,-92.9589"/>
<polygon fill="#c0c0c0" stroke="#c0c0c0" stroke-width="2" points="839.6504,-96.4437 849.3019,-92.0735 839.0317,-89.4711 839.6504,-96.4437"/>
</g>
<!-- 32 -->
<g id="node33" class="node">
<title>32</title>
<path fill="none" stroke="#56c9d8" stroke-width="2" d="M315,-756C315,-756 246,-756 246,-756 240,-756 234,-750 234,-744 234,-744 234,-732 234,-732 234,-726 240,-720 246,-720 246,-720 315,-720 315,-720 321,-720 327,-726 327,-732 327,-732 327,-744 327,-744 327,-750 321,-756 315,-756"/>
<text text-anchor="middle" x="280.5" y="-735.5" font-family="sans" font-size="10.00" fill="#000000">shard_count_alns</text>
</g>
<!-- 6&#45;&gt;32 -->
<g id="edge62" class="edge">
<title>6&#45;&gt;32</title>
<path fill="none" stroke="#c0c0c0" stroke-width="2" d="M355.8941,-791.8928C341.6613,-781.719 326.9538,-771.2059 314.3498,-762.1963"/>
<polygon fill="#c0c0c0" stroke="#c0c0c0" stroke-width="2" points="316.1623,-759.1897 305.9916,-756.2218 312.0916,-764.8844 316.1623,-759.1897"/>
</g>
<!-- 40 -->
<g id="node41" class="node">
<title>40</title>
<path fill="none" stroke="#5682d8" stroke-width="2" d="M351,-612C351,-612 222,-612 222,-612 216,-612 210,-606 210,-600 210,-600 210,-588 210,-588 210,-582 216,-576 222,-576 222,-576 351,-576 351,-576 357,-576 363,-582 363,-588 363,-588 363,-600 363,-600 363,-606 357,-612 351,-612"/>
<text text-anchor="middle" x="286.5" y="-591.5" font-family="sans" font-size="10.00" fill="#000000">shard_saturated_reads_remove</text>
</g>
<!-- 6&#45;&gt;40 -->
<g id="edge71" class="edge">
<title>6&#45;&gt;40</title>
<path fill="none" stroke="#c0c0c0" stroke-width="2" d="M441.0351,-791.841C450.8535,-769.7109 457.3838,-742.6451 446.5,-720 423.7419,-672.6489 373.5001,-637.8169 335.3459,-616.9235"/>
<polygon fill="#c0c0c0" stroke="#c0c0c0" stroke-width="2" points="336.8941,-613.7826 326.423,-612.1679 333.6017,-619.96 336.8941,-613.7826"/>
</g>
<!-- 7 -->
<g id="node8" class="node">
<title>7</title>
<path fill="none" stroke="#9fd856" stroke-width="2" d="M1622,-877C1622,-877 1515,-877 1515,-877 1509,-877 1503,-871 1503,-865 1503,-865 1503,-804 1503,-804 1503,-798 1509,-792 1515,-792 1515,-792 1622,-792 1622,-792 1628,-792 1634,-798 1634,-804 1634,-804 1634,-865 1634,-865 1634,-871 1628,-877 1622,-877"/>
<text text-anchor="middle" x="1568.5" y="-865" font-family="sans" font-size="10.00" fill="#000000">bowtie2</text>
<text text-anchor="middle" x="1568.5" y="-854" font-family="sans" font-size="10.00" fill="#000000">library: lib2</text>
<text text-anchor="middle" x="1568.5" y="-843" font-family="sans" font-size="10.00" fill="#000000">n_shard: 2</text>
<text text-anchor="middle" x="1568.5" y="-832" font-family="sans" font-size="10.00" fill="#000000">read_type_map: collapsed</text>
<text text-anchor="middle" x="1568.5" y="-821" font-family="sans" font-size="10.00" fill="#000000">ref: wgs_eukaryota</text>
<text text-anchor="middle" x="1568.5" y="-810" font-family="sans" font-size="10.00" fill="#000000">sample: HD827sonic_2</text>
<text text-anchor="middle" x="1568.5" y="-799" font-family="sans" font-size="10.00" fill="#000000">tot_shards: 2</text>
</g>
<!-- 7&#45;&gt;1 -->
<g id="edge16" class="edge">
<title>7&#45;&gt;1</title>
<path fill="none" stroke="#c0c0c0" stroke-width="2" d="M1502.7897,-806.2365C1479.8613,-793.6679 1455.6117,-776.9164 1438.5,-756 1390.0758,-696.8089 1380.5,-670.4754 1380.5,-594 1380.5,-594 1380.5,-594 1380.5,-378 1380.5,-233.7225 1288.9659,-198.7984 1155.5,-144 1073.3492,-110.2705 968.7896,-97.2764 913.9477,-92.5338"/>
<polygon fill="#c0c0c0" stroke="#c0c0c0" stroke-width="2" points="913.9159,-89.0196 903.6636,-91.6916 913.3445,-95.9962 913.9159,-89.0196"/>
</g>
<!-- 48 -->
<g id="node49" class="node">
<title>48</title>
<path fill="none" stroke="#56c9d8" stroke-width="2" d="M1716,-756C1716,-756 1647,-756 1647,-756 1641,-756 1635,-750 1635,-744 1635,-744 1635,-732 1635,-732 1635,-726 1641,-720 1647,-720 1647,-720 1716,-720 1716,-720 1722,-720 1728,-726 1728,-732 1728,-732 1728,-744 1728,-744 1728,-750 1722,-756 1716,-756"/>
<text text-anchor="middle" x="1681.5" y="-735.5" font-family="sans" font-size="10.00" fill="#000000">shard_count_alns</text>
</g>
<!-- 7&#45;&gt;48 -->
<g id="edge85" class="edge">
<title>7&#45;&gt;48</title>
<path fill="none" stroke="#c0c0c0" stroke-width="2" d="M1618.3924,-791.8928C1630.0766,-781.9147 1642.1431,-771.6101 1652.5559,-762.7178"/>
<polygon fill="#c0c0c0" stroke="#c0c0c0" stroke-width="2" points="1654.831,-765.3774 1660.1626,-756.2218 1650.2852,-760.0543 1654.831,-765.3774"/>
</g>
<!-- 52 -->
<g id="node53" class="node">
<title>52</title>
<path fill="none" stroke="#5682d8" stroke-width="2" d="M1759,-612C1759,-612 1630,-612 1630,-612 1624,-612 1618,-606 1618,-600 1618,-600 1618,-588 1618,-588 1618,-582 1624,-576 1630,-576 1630,-576 1759,-576 1759,-576 1765,-576 1771,-582 1771,-588 1771,-588 1771,-600 1771,-600 1771,-606 1765,-612 1759,-612"/>
<text text-anchor="middle" x="1694.5" y="-591.5" font-family="sans" font-size="10.00" fill="#000000">shard_saturated_reads_remove</text>
</g>
<!-- 7&#45;&gt;52 -->
<g id="edge89" class="edge">
<title>7&#45;&gt;52</title>
<path fill="none" stroke="#c0c0c0" stroke-width="2" d="M1574.0466,-791.6755C1580.884,-751.6543 1595.5083,-691.681 1625.5,-648 1633.3218,-636.608 1644.2812,-626.5012 1655.1663,-618.202"/>
<polygon fill="#c0c0c0" stroke="#c0c0c0" stroke-width="2" points="1657.3806,-620.9197 1663.4226,-612.2165 1653.272,-615.2523 1657.3806,-620.9197"/>
</g>
<!-- 8 -->
<g id="node9" class="node">
<title>8</title>
<path fill="none" stroke="#9fd856" stroke-width="2" d="M768,-877C768,-877 661,-877 661,-877 655,-877 649,-871 649,-865 649,-865 649,-804 649,-804 649,-798 655,-792 661,-792 661,-792 768,-792 768,-792 774,-792 780,-798 780,-804 780,-804 780,-865 780,-865 780,-871 774,-877 768,-877"/>
<text text-anchor="middle" x="714.5" y="-865" font-family="sans" font-size="10.00" fill="#000000">bowtie2</text>
<text text-anchor="middle" x="714.5" y="-854" font-family="sans" font-size="10.00" fill="#000000">library: lib1</text>
<text text-anchor="middle" x="714.5" y="-843" font-family="sans" font-size="10.00" fill="#000000">n_shard: 2</text>
<text text-anchor="middle" x="714.5" y="-832" font-family="sans" font-size="10.00" fill="#000000">read_type_map: collapsed</text>
<text text-anchor="middle" x="714.5" y="-821" font-family="sans" font-size="10.00" fill="#000000">ref: wgs_eukaryota</text>
<text text-anchor="middle" x="714.5" y="-810" font-family="sans" font-size="10.00" fill="#000000">sample: HD827sonic_1</text>
<text text-anchor="middle" x="714.5" y="-799" font-family="sans" font-size="10.00" fill="#000000">tot_shards: 2</text>
</g>
<!-- 8&#45;&gt;1 -->
<g id="edge17" class="edge">
<title>8&#45;&gt;1</title>
<path fill="none" stroke="#c0c0c0" stroke-width="2" d="M716.3908,-791.9461C718.7253,-740.7025 722.9488,-652.029 727.5,-576 729.4168,-543.9803 724.6138,-535.0925 732.5,-504 754.1129,-418.788 784.9151,-406.7824 814.5,-324 840.4912,-251.2732 861.1157,-162.3796 870.6851,-118.0055"/>
<polygon fill="#c0c0c0" stroke="#c0c0c0" stroke-width="2" points="874.1087,-118.7329 872.7706,-108.2229 867.2625,-117.2734 874.1087,-118.7329"/>
</g>
<!-- 18 -->
<g id="node19" class="node">
<title>18</title>
<path fill="none" stroke="#56c9d8" stroke-width="2" d="M862,-756C862,-756 793,-756 793,-756 787,-756 781,-750 781,-744 781,-744 781,-732 781,-732 781,-726 787,-720 793,-720 793,-720 862,-720 862,-720 868,-720 874,-726 874,-732 874,-732 874,-744 874,-744 874,-750 868,-756 862,-756"/>
<text text-anchor="middle" x="827.5" y="-735.5" font-family="sans" font-size="10.00" fill="#000000">shard_count_alns</text>
</g>
<!-- 8&#45;&gt;18 -->
<g id="edge41" class="edge">
<title>8&#45;&gt;18</title>
<path fill="none" stroke="#c0c0c0" stroke-width="2" d="M764.3924,-791.8928C776.0766,-781.9147 788.1431,-771.6101 798.5559,-762.7178"/>
<polygon fill="#c0c0c0" stroke="#c0c0c0" stroke-width="2" points="800.831,-765.3774 806.1626,-756.2218 796.2852,-760.0543 800.831,-765.3774"/>
</g>
<!-- 22 -->
<g id="node23" class="node">
<title>22</title>
<path fill="none" stroke="#5682d8" stroke-width="2" d="M884,-612C884,-612 755,-612 755,-612 749,-612 743,-606 743,-600 743,-600 743,-588 743,-588 743,-582 749,-576 755,-576 755,-576 884,-576 884,-576 890,-576 896,-582 896,-588 896,-588 896,-600 896,-600 896,-606 890,-612 884,-612"/>
<text text-anchor="middle" x="819.5" y="-591.5" font-family="sans" font-size="10.00" fill="#000000">shard_saturated_reads_remove</text>
</g>
<!-- 8&#45;&gt;22 -->
<g id="edge45" class="edge">
<title>8&#45;&gt;22</title>
<path fill="none" stroke="#c0c0c0" stroke-width="2" d="M733.1509,-791.7805C754.6465,-742.5453 789.34,-663.0809 807.5166,-621.4476"/>
<polygon fill="#c0c0c0" stroke="#c0c0c0" stroke-width="2" points="810.7608,-622.7642 811.5545,-612.1991 804.3456,-619.9633 810.7608,-622.7642"/>
</g>
<!-- 9 -->
<g id="node10" class="node">
<title>9</title>
<path fill="none" stroke="#9fd856" stroke-width="2" d="M223,-877C223,-877 116,-877 116,-877 110,-877 104,-871 104,-865 104,-865 104,-804 104,-804 104,-798 110,-792 116,-792 116,-792 223,-792 223,-792 229,-792 235,-798 235,-804 235,-804 235,-865 235,-865 235,-871 229,-877 223,-877"/>
<text text-anchor="middle" x="169.5" y="-865" font-family="sans" font-size="10.00" fill="#000000">bowtie2</text>
<text text-anchor="middle" x="169.5" y="-854" font-family="sans" font-size="10.00" fill="#000000">library: lib1</text>
<text text-anchor="middle" x="169.5" y="-843" font-family="sans" font-size="10.00" fill="#000000">n_shard: 1</text>
<text text-anchor="middle" x="169.5" y="-832" font-family="sans" font-size="10.00" fill="#000000">read_type_map: collapsed</text>
<text text-anchor="middle" x="169.5" y="-821" font-family="sans" font-size="10.00" fill="#000000">ref: wgs_eukaryota</text>
<text text-anchor="middle" x="169.5" y="-810" font-family="sans" font-size="10.00" fill="#000000">sample: HD827sonic_2</text>
<text text-anchor="middle" x="169.5" y="-799" font-family="sans" font-size="10.00" fill="#000000">tot_shards: 2</text>
</g>
<!-- 9&#45;&gt;1 -->
<g id="edge18" class="edge">
<title>9&#45;&gt;1</title>
<path fill="none" stroke="#c0c0c0" stroke-width="2" d="M235.1117,-818.4312C311.4174,-799.3516 429.1972,-768.5384 446.5,-756 540.4933,-687.888 562.5,-638.0775 562.5,-522 562.5,-522 562.5,-522 562.5,-234 562.5,-191.3959 563.0413,-171.5961 595.5,-144 631.7849,-113.151 771.3538,-98.2199 839.1333,-92.6679"/>
<polygon fill="#c0c0c0" stroke="#c0c0c0" stroke-width="2" points="839.6763,-96.1359 849.3683,-91.8563 839.1229,-89.1578 839.6763,-96.1359"/>
</g>
<!-- 30 -->
<g id="node31" class="node">
<title>30</title>
<path fill="none" stroke="#5682d8" stroke-width="2" d="M141,-612C141,-612 12,-612 12,-612 6,-612 0,-606 0,-600 0,-600 0,-588 0,-588 0,-582 6,-576 12,-576 12,-576 141,-576 141,-576 147,-576 153,-582 153,-588 153,-588 153,-600 153,-600 153,-606 147,-612 141,-612"/>
<text text-anchor="middle" x="76.5" y="-591.5" font-family="sans" font-size="10.00" fill="#000000">shard_saturated_reads_remove</text>
</g>
<!-- 9&#45;&gt;30 -->
<g id="edge57" class="edge">
<title>9&#45;&gt;30</title>
<path fill="none" stroke="#c0c0c0" stroke-width="2" d="M134.5591,-791.9449C126.7013,-780.7709 119.0552,-768.37 113.5,-756 93.6436,-711.785 83.9139,-655.8308 79.5712,-622.5894"/>
<polygon fill="#c0c0c0" stroke="#c0c0c0" stroke-width="2" points="82.9925,-621.7348 78.2981,-612.2368 76.0449,-622.5892 82.9925,-621.7348"/>
</g>
<!-- 34 -->
<g id="node35" class="node">
<title>34</title>
<path fill="none" stroke="#56c9d8" stroke-width="2" d="M204,-756C204,-756 135,-756 135,-756 129,-756 123,-750 123,-744 123,-744 123,-732 123,-732 123,-726 129,-720 135,-720 135,-720 204,-720 204,-720 210,-720 216,-726 216,-732 216,-732 216,-744 216,-744 216,-750 210,-756 204,-756"/>
<text text-anchor="middle" x="169.5" y="-735.5" font-family="sans" font-size="10.00" fill="#000000">shard_count_alns</text>
</g>
<!-- 9&#45;&gt;34 -->
<g id="edge64" class="edge">
<title>9&#45;&gt;34</title>
<path fill="none" stroke="#c0c0c0" stroke-width="2" d="M169.5,-791.8928C169.5,-783.2842 169.5,-774.4327 169.5,-766.4546"/>
<polygon fill="#c0c0c0" stroke="#c0c0c0" stroke-width="2" points="173.0001,-766.2218 169.5,-756.2218 166.0001,-766.2218 173.0001,-766.2218"/>
</g>
<!-- 10 -->
<g id="node11" class="node">
<title>10</title>
<path fill="none" stroke="#9fd856" stroke-width="2" d="M1846,-877C1846,-877 1739,-877 1739,-877 1733,-877 1727,-871 1727,-865 1727,-865 1727,-804 1727,-804 1727,-798 1733,-792 1739,-792 1739,-792 1846,-792 1846,-792 1852,-792 1858,-798 1858,-804 1858,-804 1858,-865 1858,-865 1858,-871 1852,-877 1846,-877"/>
<text text-anchor="middle" x="1792.5" y="-865" font-family="sans" font-size="10.00" fill="#000000">bowtie2</text>
<text text-anchor="middle" x="1792.5" y="-854" font-family="sans" font-size="10.00" fill="#000000">library: lib2</text>
<text text-anchor="middle" x="1792.5" y="-843" font-family="sans" font-size="10.00" fill="#000000">n_shard: 1</text>
<text text-anchor="middle" x="1792.5" y="-832" font-family="sans" font-size="10.00" fill="#000000">read_type_map: collapsed</text>
<text text-anchor="middle" x="1792.5" y="-821" font-family="sans" font-size="10.00" fill="#000000">ref: refseq_mitochondrion</text>
<text text-anchor="middle" x="1792.5" y="-810" font-family="sans" font-size="10.00" fill="#000000">sample: HD827sonic_2</text>
<text text-anchor="middle" x="1792.5" y="-799" font-family="sans" font-size="10.00" fill="#000000">tot_shards: 1</text>
</g>
<!-- 10&#45;&gt;1 -->
<g id="edge19" class="edge">
<title>10&#45;&gt;1</title>
<path fill="none" stroke="#c0c0c0" stroke-width="2" d="M1726.9908,-807.3805C1695.7535,-793.4878 1658.3433,-775.4219 1626.5,-756 1507.7052,-683.5447 1418.5,-661.1473 1418.5,-522 1418.5,-522 1418.5,-522 1418.5,-378 1418.5,-238.8527 1341.6949,-190.3668 1210.5,-144 1107.1021,-107.4572 976.8747,-95.4943 913.9452,-91.6954"/>
<polygon fill="#c0c0c0" stroke="#c0c0c0" stroke-width="2" points="913.8997,-88.1873 903.7174,-91.1149 913.503,-95.176 913.8997,-88.1873"/>
</g>
<!-- 47 -->
<g id="node48" class="node">
<title>47</title>
<path fill="none" stroke="#56c9d8" stroke-width="2" d="M1827,-756C1827,-756 1758,-756 1758,-756 1752,-756 1746,-750 1746,-744 1746,-744 1746,-732 1746,-732 1746,-726 1752,-720 1758,-720 1758,-720 1827,-720 1827,-720 1833,-720 1839,-726 1839,-732 1839,-732 1839,-744 1839,-744 1839,-750 1833,-756 1827,-756"/>
<text text-anchor="middle" x="1792.5" y="-735.5" font-family="sans" font-size="10.00" fill="#000000">shard_count_alns</text>
</g>
<!-- 10&#45;&gt;47 -->
<g id="edge84" class="edge">
<title>10&#45;&gt;47</title>
<path fill="none" stroke="#c0c0c0" stroke-width="2" d="M1792.5,-791.8928C1792.5,-783.2842 1792.5,-774.4327 1792.5,-766.4546"/>
<polygon fill="#c0c0c0" stroke="#c0c0c0" stroke-width="2" points="1796.0001,-766.2218 1792.5,-756.2218 1789.0001,-766.2218 1796.0001,-766.2218"/>
</g>
<!-- 55 -->
<g id="node56" class="node">
<title>55</title>
<path fill="none" stroke="#5682d8" stroke-width="2" d="M1969,-612C1969,-612 1840,-612 1840,-612 1834,-612 1828,-606 1828,-600 1828,-600 1828,-588 1828,-588 1828,-582 1834,-576 1840,-576 1840,-576 1969,-576 1969,-576 1975,-576 1981,-582 1981,-588 1981,-588 1981,-600 1981,-600 1981,-606 1975,-612 1969,-612"/>
<text text-anchor="middle" x="1904.5" y="-591.5" font-family="sans" font-size="10.00" fill="#000000">shard_saturated_reads_remove</text>
</g>
<!-- 10&#45;&gt;55 -->
<g id="edge93" class="edge">
<title>10&#45;&gt;55</title>
<path fill="none" stroke="#c0c0c0" stroke-width="2" d="M1826.2221,-791.911C1834.1996,-780.6385 1842.2068,-768.2 1848.5,-756 1871.5194,-711.3742 1888.5227,-655.195 1897.4398,-622.081"/>
<polygon fill="#c0c0c0" stroke="#c0c0c0" stroke-width="2" points="1900.884,-622.7458 1900.0482,-612.184 1894.1151,-620.9618 1900.884,-622.7458"/>
</g>
<!-- 11 -->
<g id="node12" class="node">
<title>11</title>
<path fill="none" stroke="#ced856" stroke-width="2" d="M961.5,-180C961.5,-180 921.5,-180 921.5,-180 915.5,-180 909.5,-174 909.5,-168 909.5,-168 909.5,-156 909.5,-156 909.5,-150 915.5,-144 921.5,-144 921.5,-144 961.5,-144 961.5,-144 967.5,-144 973.5,-150 973.5,-156 973.5,-156 973.5,-168 973.5,-168 973.5,-174 967.5,-180 961.5,-180"/>
<text text-anchor="middle" x="941.5" y="-159.5" font-family="sans" font-size="10.00" fill="#000000">align_stats</text>
</g>
<!-- 11&#45;&gt;1 -->
<g id="edge20" class="edge">
<title>11&#45;&gt;1</title>
<path fill="none" stroke="#c0c0c0" stroke-width="2" d="M925.0978,-143.8314C917.4585,-135.3694 908.2317,-125.1489 899.8793,-115.8971"/>
<polygon fill="#c0c0c0" stroke="#c0c0c0" stroke-width="2" points="902.4221,-113.4906 893.1231,-108.4133 897.2262,-118.1813 902.4221,-113.4906"/>
</g>
<!-- 12 -->
<g id="node13" class="node">
<title>12</title>
<path fill="none" stroke="#d88556" stroke-width="2" d="M978,-396C978,-396 933,-396 933,-396 927,-396 921,-390 921,-384 921,-384 921,-372 921,-372 921,-366 927,-360 933,-360 933,-360 978,-360 978,-360 984,-360 990,-366 990,-372 990,-372 990,-384 990,-384 990,-390 984,-396 978,-396"/>
<text text-anchor="middle" x="955.5" y="-375.5" font-family="sans" font-size="10.00" fill="#000000">align_merge</text>
</g>
<!-- 12&#45;&gt;11 -->
<g id="edge29" class="edge">
<title>12&#45;&gt;11</title>
<path fill="none" stroke="#c0c0c0" stroke-width="2" d="M954.3304,-359.9555C951.8907,-322.3144 946.2436,-235.1867 943.3229,-190.1246"/>
<polygon fill="#c0c0c0" stroke="#c0c0c0" stroke-width="2" points="946.8156,-189.8977 942.6761,-180.1451 939.8303,-190.3505 946.8156,-189.8977"/>
</g>
<!-- 57 -->
<g id="node58" class="node">
<title>57</title>
<path fill="none" stroke="#56d89a" stroke-width="2" d="M760,-324C760,-324 709,-324 709,-324 703,-324 697,-318 697,-312 697,-312 697,-300 697,-300 697,-294 703,-288 709,-288 709,-288 760,-288 760,-288 766,-288 772,-294 772,-300 772,-300 772,-312 772,-312 772,-318 766,-324 760,-324"/>
<text text-anchor="middle" x="734.5" y="-303.5" font-family="sans" font-size="10.00" fill="#000000">metadmg_lca</text>
</g>
<!-- 12&#45;&gt;57 -->
<g id="edge96" class="edge">
<title>12&#45;&gt;57</title>
<path fill="none" stroke="#c0c0c0" stroke-width="2" d="M920.9688,-366.75C883.5433,-354.5571 823.5832,-335.0226 781.794,-321.408"/>
<polygon fill="#c0c0c0" stroke="#c0c0c0" stroke-width="2" points="782.7072,-318.0245 772.1148,-318.2546 780.5387,-324.6802 782.7072,-318.0245"/>
</g>
<!-- 68 -->
<g id="node69" class="node">
<title>68</title>
<path fill="none" stroke="#56d86b" stroke-width="2" d="M1368,-108C1368,-108 1295,-108 1295,-108 1289,-108 1283,-102 1283,-96 1283,-96 1283,-84 1283,-84 1283,-78 1289,-72 1295,-72 1295,-72 1368,-72 1368,-72 1374,-72 1380,-78 1380,-84 1380,-84 1380,-96 1380,-96 1380,-102 1374,-108 1368,-108"/>
<text text-anchor="middle" x="1331.5" y="-87.5" font-family="sans" font-size="10.00" fill="#000000">metadmg_damage</text>
</g>
<!-- 12&#45;&gt;68 -->
<g id="edge110" class="edge">
<title>12&#45;&gt;68</title>
<path fill="none" stroke="#c0c0c0" stroke-width="2" d="M979.0205,-359.9843C1044.0392,-310.1827 1226.2558,-170.6126 1299.9629,-114.1561"/>
<polygon fill="#c0c0c0" stroke="#c0c0c0" stroke-width="2" points="1302.1779,-116.8683 1307.9884,-108.0089 1297.9213,-111.3111 1302.1779,-116.8683"/>
</g>
<!-- 13 -->
<g id="node14" class="node">
<title>13</title>
<path fill="none" stroke="#566bd8" stroke-width="2" d="M1144.5,-468C1144.5,-468 1076.5,-468 1076.5,-468 1070.5,-468 1064.5,-462 1064.5,-456 1064.5,-456 1064.5,-444 1064.5,-444 1064.5,-438 1070.5,-432 1076.5,-432 1076.5,-432 1144.5,-432 1144.5,-432 1150.5,-432 1156.5,-438 1156.5,-444 1156.5,-444 1156.5,-456 1156.5,-456 1156.5,-462 1150.5,-468 1144.5,-468"/>
<text text-anchor="middle" x="1110.5" y="-447.5" font-family="sans" font-size="10.00" fill="#000000">shard_sort_query</text>
</g>
<!-- 13&#45;&gt;12 -->
<g id="edge30" class="edge">
<title>13&#45;&gt;12</title>
<path fill="none" stroke="#c0c0c0" stroke-width="2" d="M1071.387,-431.8314C1049.3955,-421.616 1021.8869,-408.8378 999.1904,-398.2949"/>
<polygon fill="#c0c0c0" stroke="#c0c0c0" stroke-width="2" points="1000.654,-395.1156 990.1102,-394.077 997.705,-401.4641 1000.654,-395.1156"/>
</g>
<!-- 14 -->
<g id="node15" class="node">
<title>14</title>
<path fill="none" stroke="#56d8c9" stroke-width="2" d="M1171.5,-540C1171.5,-540 1091.5,-540 1091.5,-540 1085.5,-540 1079.5,-534 1079.5,-528 1079.5,-528 1079.5,-516 1079.5,-516 1079.5,-510 1085.5,-504 1091.5,-504 1091.5,-504 1171.5,-504 1171.5,-504 1177.5,-504 1183.5,-510 1183.5,-516 1183.5,-516 1183.5,-528 1183.5,-528 1183.5,-534 1177.5,-540 1171.5,-540"/>
<text text-anchor="middle" x="1131.5" y="-519.5" font-family="sans" font-size="10.00" fill="#000000">shard_clean_header</text>
</g>
<!-- 14&#45;&gt;13 -->
<g id="edge33" class="edge">
<title>14&#45;&gt;13</title>
<path fill="none" stroke="#c0c0c0" stroke-width="2" d="M1126.2008,-503.8314C1123.9302,-496.0463 1121.2254,-486.7729 1118.706,-478.1347"/>
<polygon fill="#c0c0c0" stroke="#c0c0c0" stroke-width="2" points="1122.0306,-477.0332 1115.8705,-468.4133 1115.3106,-478.9933 1122.0306,-477.0332"/>
</g>
<!-- 15&#45;&gt;14 -->
<g id="edge34" class="edge">
<title>15&#45;&gt;14</title>
<path fill="none" stroke="#c0c0c0" stroke-width="2" d="M1153.9297,-575.8314C1150.6507,-567.9617 1146.738,-558.5712 1143.1055,-549.8533"/>
<polygon fill="#c0c0c0" stroke="#c0c0c0" stroke-width="2" points="1146.2492,-548.2979 1139.1722,-540.4133 1139.7876,-550.9902 1146.2492,-548.2979"/>
</g>
<!-- 16 -->
<g id="node17" class="node">
<title>16</title>
<path fill="none" stroke="#569ad8" stroke-width="2" d="M1052.5,-684C1052.5,-684 942.5,-684 942.5,-684 936.5,-684 930.5,-678 930.5,-672 930.5,-672 930.5,-660 930.5,-660 930.5,-654 936.5,-648 942.5,-648 942.5,-648 1052.5,-648 1052.5,-648 1058.5,-648 1064.5,-654 1064.5,-660 1064.5,-660 1064.5,-672 1064.5,-672 1064.5,-678 1058.5,-684 1052.5,-684"/>
<text text-anchor="middle" x="997.5" y="-663.5" font-family="sans" font-size="10.00" fill="#000000">shard_saturated_reads_get</text>
</g>
<!-- 16&#45;&gt;15 -->
<g id="edge36" class="edge">
<title>16&#45;&gt;15</title>
<path fill="none" stroke="#c0c0c0" stroke-width="2" d="M1038.8841,-647.8314C1060.8182,-638.2018 1087.9392,-626.295 1111.0931,-616.1299"/>
<polygon fill="#c0c0c0" stroke="#c0c0c0" stroke-width="2" points="1112.664,-619.2627 1120.4135,-612.038 1109.85,-612.8532 1112.664,-619.2627"/>
</g>
<!-- 16&#45;&gt;22 -->
<g id="edge46" class="edge">
<title>16&#45;&gt;22</title>
<path fill="none" stroke="#c0c0c0" stroke-width="2" d="M952.5831,-647.8314C928.565,-638.1162 898.8166,-626.0831 873.5408,-615.8592"/>
<polygon fill="#c0c0c0" stroke="#c0c0c0" stroke-width="2" points="874.6767,-612.5432 864.0939,-612.038 872.0518,-619.0325 874.6767,-612.5432"/>
</g>
<!-- 16&#45;&gt;25 -->
<g id="edge50" class="edge">
<title>16&#45;&gt;25</title>
<path fill="none" stroke="#c0c0c0" stroke-width="2" d="M995.7336,-647.8314C994.985,-640.131 994.0947,-630.9743 993.2627,-622.4166"/>
<polygon fill="#c0c0c0" stroke="#c0c0c0" stroke-width="2" points="996.7415,-622.0276 992.2902,-612.4133 989.7744,-622.7051 996.7415,-622.0276"/>
</g>
<!-- 65 -->
<g id="node66" class="node">
<title>65</title>
<path fill="none" stroke="#56b1d8" stroke-width="2" d="M1302,-396C1302,-396 1175,-396 1175,-396 1169,-396 1163,-390 1163,-384 1163,-384 1163,-372 1163,-372 1163,-366 1169,-360 1175,-360 1175,-360 1302,-360 1302,-360 1308,-360 1314,-366 1314,-372 1314,-372 1314,-384 1314,-384 1314,-390 1308,-396 1302,-396"/>
<text text-anchor="middle" x="1238.5" y="-375.5" font-family="sans" font-size="10.00" fill="#000000">shard_saturated_reads_extract</text>
</g>
<!-- 16&#45;&gt;65 -->
<g id="edge107" class="edge">
<title>16&#45;&gt;65</title>
<path fill="none" stroke="#c0c0c0" stroke-width="2" d="M1064.73,-660.8257C1130.7985,-654.1787 1224.9113,-639.9889 1247.5,-612 1295.6516,-552.3371 1267.9761,-453.5916 1250.061,-405.7224"/>
<polygon fill="#c0c0c0" stroke="#c0c0c0" stroke-width="2" points="1253.292,-404.3736 1246.4171,-396.3123 1246.7643,-406.9014 1253.292,-404.3736"/>
</g>
<!-- 17&#45;&gt;16 -->
<g id="edge37" class="edge">
<title>17&#45;&gt;16</title>
<path fill="none" stroke="#c0c0c0" stroke-width="2" d="M982.5468,-719.8314C984.7094,-712.0463 987.2853,-702.7729 989.6848,-694.1347"/>
<polygon fill="#c0c0c0" stroke="#c0c0c0" stroke-width="2" points="993.081,-694.9852 992.3852,-684.4133 986.3364,-693.1117 993.081,-694.9852"/>
</g>
<!-- 18&#45;&gt;16 -->
<g id="edge38" class="edge">
<title>18&#45;&gt;16</title>
<path fill="none" stroke="#c0c0c0" stroke-width="2" d="M870.3982,-719.8314C893.2357,-710.159 921.498,-698.1891 945.5687,-687.9944"/>
<polygon fill="#c0c0c0" stroke="#c0c0c0" stroke-width="2" points="947.0671,-691.1608 954.9103,-684.038 944.3371,-684.7151 947.0671,-691.1608"/>
</g>
<!-- 19&#45;&gt;16 -->
<g id="edge39" class="edge">
<title>19&#45;&gt;16</title>
<path fill="none" stroke="#c0c0c0" stroke-width="2" d="M1065.5369,-719.8314C1054.3285,-710.9632 1040.6791,-700.1637 1028.5561,-690.5718"/>
<polygon fill="#c0c0c0" stroke="#c0c0c0" stroke-width="2" points="1030.4697,-687.6229 1020.4558,-684.1628 1026.1263,-693.1125 1030.4697,-687.6229"/>
</g>
<!-- 20 -->
<g id="node21" class="node">
<title>20</title>
<path fill="none" stroke="#566bd8" stroke-width="2" d="M900.5,-468C900.5,-468 832.5,-468 832.5,-468 826.5,-468 820.5,-462 820.5,-456 820.5,-456 820.5,-444 820.5,-444 820.5,-438 826.5,-432 832.5,-432 832.5,-432 900.5,-432 900.5,-432 906.5,-432 912.5,-438 912.5,-444 912.5,-444 912.5,-456 912.5,-456 912.5,-462 906.5,-468 900.5,-468"/>
<text text-anchor="middle" x="866.5" y="-447.5" font-family="sans" font-size="10.00" fill="#000000">shard_sort_query</text>
</g>
<!-- 20&#45;&gt;12 -->
<g id="edge31" class="edge">
<title>20&#45;&gt;12</title>
<path fill="none" stroke="#c0c0c0" stroke-width="2" d="M888.9585,-431.8314C899.9205,-422.9632 913.2699,-412.1637 925.1265,-402.5718"/>
<polygon fill="#c0c0c0" stroke="#c0c0c0" stroke-width="2" points="927.4755,-405.1734 933.0487,-396.1628 923.0729,-399.7313 927.4755,-405.1734"/>
</g>
<!-- 21 -->
<g id="node22" class="node">
<title>21</title>
<path fill="none" stroke="#56d8c9" stroke-width="2" d="M890.5,-540C890.5,-540 810.5,-540 810.5,-540 804.5,-540 798.5,-534 798.5,-528 798.5,-528 798.5,-516 798.5,-516 798.5,-510 804.5,-504 810.5,-504 810.5,-504 890.5,-504 890.5,-504 896.5,-504 902.5,-510 902.5,-516 902.5,-516 902.5,-528 902.5,-528 902.5,-534 896.5,-540 890.5,-540"/>
<text text-anchor="middle" x="850.5" y="-519.5" font-family="sans" font-size="10.00" fill="#000000">shard_clean_header</text>
</g>
<!-- 21&#45;&gt;20 -->
<g id="edge43" class="edge">
<title>21&#45;&gt;20</title>
<path fill="none" stroke="#c0c0c0" stroke-width="2" d="M854.5375,-503.8314C856.2487,-496.131 858.2835,-486.9743 860.1852,-478.4166"/>
<polygon fill="#c0c0c0" stroke="#c0c0c0" stroke-width="2" points="863.6554,-478.9344 862.4082,-468.4133 856.8221,-477.4159 863.6554,-478.9344"/>
</g>
<!-- 22&#45;&gt;21 -->
<g id="edge44" class="edge">
<title>22&#45;&gt;21</title>
<path fill="none" stroke="#c0c0c0" stroke-width="2" d="M827.3226,-575.8314C830.7109,-567.9617 834.7541,-558.5712 838.5076,-549.8533"/>
<polygon fill="#c0c0c0" stroke="#c0c0c0" stroke-width="2" points="841.8321,-550.9822 842.5721,-540.4133 835.4027,-548.214 841.8321,-550.9822"/>
</g>
<!-- 23 -->
<g id="node24" class="node">
<title>23</title>
<path fill="none" stroke="#566bd8" stroke-width="2" d="M1013.5,-468C1013.5,-468 945.5,-468 945.5,-468 939.5,-468 933.5,-462 933.5,-456 933.5,-456 933.5,-444 933.5,-444 933.5,-438 939.5,-432 945.5,-432 945.5,-432 1013.5,-432 1013.5,-432 1019.5,-432 1025.5,-438 1025.5,-444 1025.5,-444 1025.5,-456 1025.5,-456 1025.5,-462 1019.5,-468 1013.5,-468"/>
<text text-anchor="middle" x="979.5" y="-447.5" font-family="sans" font-size="10.00" fill="#000000">shard_sort_query</text>
</g>
<!-- 23&#45;&gt;12 -->
<g id="edge32" class="edge">
<title>23&#45;&gt;12</title>
<path fill="none" stroke="#c0c0c0" stroke-width="2" d="M973.4438,-431.8314C970.8488,-424.0463 967.7576,-414.7729 964.8782,-406.1347"/>
<polygon fill="#c0c0c0" stroke="#c0c0c0" stroke-width="2" points="968.1205,-404.7933 961.6378,-396.4133 961.4797,-407.0069 968.1205,-404.7933"/>
</g>
<!-- 24 -->
<g id="node25" class="node">
<title>24</title>
<path fill="none" stroke="#56d8c9" stroke-width="2" d="M1025.5,-540C1025.5,-540 945.5,-540 945.5,-540 939.5,-540 933.5,-534 933.5,-528 933.5,-528 933.5,-516 933.5,-516 933.5,-510 939.5,-504 945.5,-504 945.5,-504 1025.5,-504 1025.5,-504 1031.5,-504 1037.5,-510 1037.5,-516 1037.5,-516 1037.5,-528 1037.5,-528 1037.5,-534 1031.5,-540 1025.5,-540"/>
<text text-anchor="middle" x="985.5" y="-519.5" font-family="sans" font-size="10.00" fill="#000000">shard_clean_header</text>
</g>
<!-- 24&#45;&gt;23 -->
<g id="edge47" class="edge">
<title>24&#45;&gt;23</title>
<path fill="none" stroke="#c0c0c0" stroke-width="2" d="M983.9859,-503.8314C983.3442,-496.131 982.5812,-486.9743 981.8681,-478.4166"/>
<polygon fill="#c0c0c0" stroke="#c0c0c0" stroke-width="2" points="985.3529,-478.088 981.0344,-468.4133 978.3771,-478.6694 985.3529,-478.088"/>
</g>
<!-- 25&#45;&gt;24 -->
<g id="edge48" class="edge">
<title>25&#45;&gt;24</title>
<path fill="none" stroke="#c0c0c0" stroke-width="2" d="M989.2383,-575.8314C988.7035,-568.131 988.0677,-558.9743 987.4734,-550.4166"/>
<polygon fill="#c0c0c0" stroke="#c0c0c0" stroke-width="2" points="990.9632,-550.1467 986.7787,-540.4133 983.98,-550.6317 990.9632,-550.1467"/>
</g>
<!-- 26 -->
<g id="node27" class="node">
<title>26</title>
<path fill="none" stroke="#ced856" stroke-width="2" d="M522.5,-252C522.5,-252 482.5,-252 482.5,-252 476.5,-252 470.5,-246 470.5,-240 470.5,-240 470.5,-228 470.5,-228 470.5,-222 476.5,-216 482.5,-216 482.5,-216 522.5,-216 522.5,-216 528.5,-216 534.5,-222 534.5,-228 534.5,-228 534.5,-240 534.5,-240 534.5,-246 528.5,-252 522.5,-252"/>
<text text-anchor="middle" x="502.5" y="-231.5" font-family="sans" font-size="10.00" fill="#000000">align_stats</text>
</g>
<!-- 26&#45;&gt;1 -->
<g id="edge21" class="edge">
<title>26&#45;&gt;1</title>
<path fill="none" stroke="#c0c0c0" stroke-width="2" d="M506.5291,-215.9413C512.1747,-195.1096 524.5504,-161.489 548.5,-144 571.7501,-127.0219 758.0328,-103.7033 839.0686,-94.2436"/>
<polygon fill="#c0c0c0" stroke="#c0c0c0" stroke-width="2" points="839.7923,-97.6833 849.3228,-93.0551 838.9863,-90.7298 839.7923,-97.6833"/>
</g>
<!-- 27 -->
<g id="node28" class="node">
<title>27</title>
<path fill="none" stroke="#d88556" stroke-width="2" d="M393,-396C393,-396 348,-396 348,-396 342,-396 336,-390 336,-384 336,-384 336,-372 336,-372 336,-366 342,-360 348,-360 348,-360 393,-360 393,-360 399,-360 405,-366 405,-372 405,-372 405,-384 405,-384 405,-390 399,-396 393,-396"/>
<text text-anchor="middle" x="370.5" y="-375.5" font-family="sans" font-size="10.00" fill="#000000">align_merge</text>
</g>
<!-- 27&#45;&gt;26 -->
<g id="edge51" class="edge">
<title>27&#45;&gt;26</title>
<path fill="none" stroke="#c0c0c0" stroke-width="2" d="M388.4934,-359.6793C398.5919,-349.3065 411.3628,-336.037 422.5,-324 442.1994,-302.709 464.0454,-278.0591 479.9243,-259.9456"/>
<polygon fill="#c0c0c0" stroke="#c0c0c0" stroke-width="2" points="482.8212,-261.9499 486.771,-252.1188 477.5526,-257.341 482.8212,-261.9499"/>
</g>
<!-- 59 -->
<g id="node60" class="node">
<title>59</title>
<path fill="none" stroke="#56d89a" stroke-width="2" d="M402,-324C402,-324 351,-324 351,-324 345,-324 339,-318 339,-312 339,-312 339,-300 339,-300 339,-294 345,-288 351,-288 351,-288 402,-288 402,-288 408,-288 414,-294 414,-300 414,-300 414,-312 414,-312 414,-318 408,-324 402,-324"/>
<text text-anchor="middle" x="376.5" y="-303.5" font-family="sans" font-size="10.00" fill="#000000">metadmg_lca</text>
</g>
<!-- 27&#45;&gt;59 -->
<g id="edge98" class="edge">
<title>27&#45;&gt;59</title>
<path fill="none" stroke="#c0c0c0" stroke-width="2" d="M372.0141,-359.8314C372.6558,-352.131 373.4188,-342.9743 374.1319,-334.4166"/>
<polygon fill="#c0c0c0" stroke="#c0c0c0" stroke-width="2" points="377.6229,-334.6694 374.9656,-324.4133 370.6471,-334.088 377.6229,-334.6694"/>
</g>
<!-- 69 -->
<g id="node70" class="node">
<title>69</title>
<path fill="none" stroke="#56d86b" stroke-width="2" d="M575,-108C575,-108 502,-108 502,-108 496,-108 490,-102 490,-96 490,-96 490,-84 490,-84 490,-78 496,-72 502,-72 502,-72 575,-72 575,-72 581,-72 587,-78 587,-84 587,-84 587,-96 587,-96 587,-102 581,-108 575,-108"/>
<text text-anchor="middle" x="538.5" y="-87.5" font-family="sans" font-size="10.00" fill="#000000">metadmg_damage</text>
</g>
<!-- 27&#45;&gt;69 -->
<g id="edge111" class="edge">
<title>27&#45;&gt;69</title>
<path fill="none" stroke="#c0c0c0" stroke-width="2" d="M351.896,-359.8067C343.2967,-350.0891 334.0063,-337.3872 329.5,-324 313.5058,-276.485 299.4364,-196.4439 343.5,-144 361.0307,-123.1352 428.9411,-107.7259 479.7235,-98.8235"/>
<polygon fill="#c0c0c0" stroke="#c0c0c0" stroke-width="2" points="480.3642,-102.2649 489.6316,-97.1301 479.1849,-95.3649 480.3642,-102.2649"/>
</g>
<!-- 28 -->
<g id="node29" class="node">
<title>28</title>
<path fill="none" stroke="#566bd8" stroke-width="2" d="M289.5,-468C289.5,-468 221.5,-468 221.5,-468 215.5,-468 209.5,-462 209.5,-456 209.5,-456 209.5,-444 209.5,-444 209.5,-438 215.5,-432 221.5,-432 221.5,-432 289.5,-432 289.5,-432 295.5,-432 301.5,-438 301.5,-444 301.5,-444 301.5,-456 301.5,-456 301.5,-462 295.5,-468 289.5,-468"/>
<text text-anchor="middle" x="255.5" y="-447.5" font-family="sans" font-size="10.00" fill="#000000">shard_sort_query</text>
</g>
<!-- 28&#45;&gt;27 -->
<g id="edge52" class="edge">
<title>28&#45;&gt;27</title>
<path fill="none" stroke="#c0c0c0" stroke-width="2" d="M284.5194,-431.8314C299.2286,-422.6221 317.2644,-411.3301 333.0122,-401.4706"/>
<polygon fill="#c0c0c0" stroke="#c0c0c0" stroke-width="2" points="334.8714,-404.436 341.4899,-396.1628 331.1567,-398.5029 334.8714,-404.436"/>
</g>
<!-- 29 -->
<g id="node30" class="node">
<title>29</title>
<path fill="none" stroke="#56d8c9" stroke-width="2" d="M129.5,-540C129.5,-540 49.5,-540 49.5,-540 43.5,-540 37.5,-534 37.5,-528 37.5,-528 37.5,-516 37.5,-516 37.5,-510 43.5,-504 49.5,-504 49.5,-504 129.5,-504 129.5,-504 135.5,-504 141.5,-510 141.5,-516 141.5,-516 141.5,-528 141.5,-528 141.5,-534 135.5,-540 129.5,-540"/>
<text text-anchor="middle" x="89.5" y="-519.5" font-family="sans" font-size="10.00" fill="#000000">shard_clean_header</text>
</g>
<!-- 29&#45;&gt;28 -->
<g id="edge55" class="edge">
<title>29&#45;&gt;28</title>
<path fill="none" stroke="#c0c0c0" stroke-width="2" d="M131.3888,-503.8314C153.5903,-494.2018 181.0422,-482.295 204.4784,-472.1299"/>
<polygon fill="#c0c0c0" stroke="#c0c0c0" stroke-width="2" points="206.1309,-475.2282 213.9124,-468.038 203.3455,-468.8062 206.1309,-475.2282"/>
</g>
<!-- 30&#45;&gt;29 -->
<g id="edge56" class="edge">
<title>30&#45;&gt;29</title>
<path fill="none" stroke="#c0c0c0" stroke-width="2" d="M79.7804,-575.8314C81.1708,-568.131 82.8241,-558.9743 84.3692,-550.4166"/>
<polygon fill="#c0c0c0" stroke="#c0c0c0" stroke-width="2" points="87.8428,-550.8761 86.1754,-540.4133 80.9542,-549.6322 87.8428,-550.8761"/>
</g>
<!-- 31 -->
<g id="node32" class="node">
<title>31</title>
<path fill="none" stroke="#569ad8" stroke-width="2" d="M335.5,-684C335.5,-684 225.5,-684 225.5,-684 219.5,-684 213.5,-678 213.5,-672 213.5,-672 213.5,-660 213.5,-660 213.5,-654 219.5,-648 225.5,-648 225.5,-648 335.5,-648 335.5,-648 341.5,-648 347.5,-654 347.5,-660 347.5,-660 347.5,-672 347.5,-672 347.5,-678 341.5,-684 335.5,-684"/>
<text text-anchor="middle" x="280.5" y="-663.5" font-family="sans" font-size="10.00" fill="#000000">shard_saturated_reads_get</text>
</g>
<!-- 31&#45;&gt;30 -->
<g id="edge58" class="edge">
<title>31&#45;&gt;30</title>
<path fill="none" stroke="#c0c0c0" stroke-width="2" d="M229.2855,-647.9243C201.3975,-638.0815 166.7094,-625.8386 137.4373,-615.5073"/>
<polygon fill="#c0c0c0" stroke="#c0c0c0" stroke-width="2" points="138.3304,-612.1109 127.7356,-612.0831 136.0006,-618.7119 138.3304,-612.1109"/>
</g>
<!-- 31&#45;&gt;37 -->
<g id="edge68" class="edge">
<title>31&#45;&gt;37</title>
<path fill="none" stroke="#c0c0c0" stroke-width="2" d="M325.1646,-647.8314C349.0477,-638.1162 378.629,-626.0831 403.7628,-615.8592"/>
<polygon fill="#c0c0c0" stroke="#c0c0c0" stroke-width="2" points="405.2125,-619.0481 413.1566,-612.038 402.5748,-612.564 405.2125,-619.0481"/>
</g>
<!-- 31&#45;&gt;40 -->
<g id="edge72" class="edge">
<title>31&#45;&gt;40</title>
<path fill="none" stroke="#c0c0c0" stroke-width="2" d="M282.0141,-647.8314C282.6558,-640.131 283.4188,-630.9743 284.1319,-622.4166"/>
<polygon fill="#c0c0c0" stroke="#c0c0c0" stroke-width="2" points="287.6229,-622.6694 284.9656,-612.4133 280.6471,-622.088 287.6229,-622.6694"/>
</g>
<!-- 66 -->
<g id="node67" class="node">
<title>66</title>
<path fill="none" stroke="#56b1d8" stroke-width="2" d="M269,-108C269,-108 142,-108 142,-108 136,-108 130,-102 130,-96 130,-96 130,-84 130,-84 130,-78 136,-72 142,-72 142,-72 269,-72 269,-72 275,-72 281,-78 281,-84 281,-84 281,-96 281,-96 281,-102 275,-108 269,-108"/>
<text text-anchor="middle" x="205.5" y="-87.5" font-family="sans" font-size="10.00" fill="#000000">shard_saturated_reads_extract</text>
</g>
<!-- 31&#45;&gt;66 -->
<g id="edge108" class="edge">
<title>31&#45;&gt;66</title>
<path fill="none" stroke="#c0c0c0" stroke-width="2" d="M241.3355,-647.7758C226.4245,-638.9686 210.607,-627.0121 200.5,-612 177.6685,-578.0879 181.5,-562.8816 181.5,-522 181.5,-522 181.5,-522 181.5,-234 181.5,-193.1433 191.0165,-146.6424 198.0645,-117.8061"/>
<polygon fill="#c0c0c0" stroke="#c0c0c0" stroke-width="2" points="201.4796,-118.5766 200.5272,-108.0247 194.6915,-116.8675 201.4796,-118.5766"/>
</g>
<!-- 32&#45;&gt;31 -->
<g id="edge59" class="edge">
<title>32&#45;&gt;31</title>
<path fill="none" stroke="#c0c0c0" stroke-width="2" d="M280.5,-719.8314C280.5,-712.131 280.5,-702.9743 280.5,-694.4166"/>
<polygon fill="#c0c0c0" stroke="#c0c0c0" stroke-width="2" points="284.0001,-694.4132 280.5,-684.4133 277.0001,-694.4133 284.0001,-694.4132"/>
</g>
<!-- 33&#45;&gt;31 -->
<g id="edge60" class="edge">
<title>33&#45;&gt;31</title>
<path fill="none" stroke="#c0c0c0" stroke-width="2" d="M363.49,-719.8314C349.4239,-710.7074 332.206,-699.539 317.1067,-689.7449"/>
<polygon fill="#c0c0c0" stroke="#c0c0c0" stroke-width="2" points="318.7953,-686.6684 308.501,-684.1628 314.986,-692.5412 318.7953,-686.6684"/>
</g>
<!-- 34&#45;&gt;31 -->
<g id="edge61" class="edge">
<title>34&#45;&gt;31</title>
<path fill="none" stroke="#c0c0c0" stroke-width="2" d="M197.51,-719.8314C211.5761,-710.7074 228.794,-699.539 243.8933,-689.7449"/>
<polygon fill="#c0c0c0" stroke="#c0c0c0" stroke-width="2" points="246.014,-692.5412 252.499,-684.1628 242.2047,-686.6684 246.014,-692.5412"/>
</g>
<!-- 35 -->
<g id="node36" class="node">
<title>35</title>
<path fill="none" stroke="#566bd8" stroke-width="2" d="M509.5,-468C509.5,-468 441.5,-468 441.5,-468 435.5,-468 429.5,-462 429.5,-456 429.5,-456 429.5,-444 429.5,-444 429.5,-438 435.5,-432 441.5,-432 441.5,-432 509.5,-432 509.5,-432 515.5,-432 521.5,-438 521.5,-444 521.5,-444 521.5,-456 521.5,-456 521.5,-462 515.5,-468 509.5,-468"/>
<text text-anchor="middle" x="475.5" y="-447.5" font-family="sans" font-size="10.00" fill="#000000">shard_sort_query</text>
</g>
<!-- 35&#45;&gt;27 -->
<g id="edge53" class="edge">
<title>35&#45;&gt;27</title>
<path fill="none" stroke="#c0c0c0" stroke-width="2" d="M449.0041,-431.8314C435.8226,-422.7927 419.7153,-411.7476 405.5289,-402.0198"/>
<polygon fill="#c0c0c0" stroke="#c0c0c0" stroke-width="2" points="407.2141,-398.9316 396.9875,-396.1628 403.2554,-404.7047 407.2141,-398.9316"/>
</g>
<!-- 36 -->
<g id="node37" class="node">
<title>36</title>
<path fill="none" stroke="#56d8c9" stroke-width="2" d="M506.5,-540C506.5,-540 426.5,-540 426.5,-540 420.5,-540 414.5,-534 414.5,-528 414.5,-528 414.5,-516 414.5,-516 414.5,-510 420.5,-504 426.5,-504 426.5,-504 506.5,-504 506.5,-504 512.5,-504 518.5,-510 518.5,-516 518.5,-516 518.5,-528 518.5,-528 518.5,-534 512.5,-540 506.5,-540"/>
<text text-anchor="middle" x="466.5" y="-519.5" font-family="sans" font-size="10.00" fill="#000000">shard_clean_header</text>
</g>
<!-- 36&#45;&gt;35 -->
<g id="edge65" class="edge">
<title>36&#45;&gt;35</title>
<path fill="none" stroke="#c0c0c0" stroke-width="2" d="M468.7711,-503.8314C469.7336,-496.131 470.8782,-486.9743 471.9479,-478.4166"/>
<polygon fill="#c0c0c0" stroke="#c0c0c0" stroke-width="2" points="475.4309,-478.7702 473.1983,-468.4133 468.4849,-477.9019 475.4309,-478.7702"/>
</g>
<!-- 37&#45;&gt;36 -->
<g id="edge66" class="edge">
<title>37&#45;&gt;36</title>
<path fill="none" stroke="#c0c0c0" stroke-width="2" d="M459.7711,-575.8314C460.7336,-568.131 461.8782,-558.9743 462.9479,-550.4166"/>
<polygon fill="#c0c0c0" stroke="#c0c0c0" stroke-width="2" points="466.4309,-550.7702 464.1983,-540.4133 459.4849,-549.9019 466.4309,-550.7702"/>
</g>
<!-- 38 -->
<g id="node39" class="node">
<title>38</title>
<path fill="none" stroke="#566bd8" stroke-width="2" d="M399.5,-468C399.5,-468 331.5,-468 331.5,-468 325.5,-468 319.5,-462 319.5,-456 319.5,-456 319.5,-444 319.5,-444 319.5,-438 325.5,-432 331.5,-432 331.5,-432 399.5,-432 399.5,-432 405.5,-432 411.5,-438 411.5,-444 411.5,-444 411.5,-456 411.5,-456 411.5,-462 405.5,-468 399.5,-468"/>
<text text-anchor="middle" x="365.5" y="-447.5" font-family="sans" font-size="10.00" fill="#000000">shard_sort_query</text>
</g>
<!-- 38&#45;&gt;27 -->
<g id="edge54" class="edge">
<title>38&#45;&gt;27</title>
<path fill="none" stroke="#c0c0c0" stroke-width="2" d="M366.7617,-431.8314C367.2965,-424.131 367.9323,-414.9743 368.5266,-406.4166"/>
<polygon fill="#c0c0c0" stroke="#c0c0c0" stroke-width="2" points="372.02,-406.6317 369.2213,-396.4133 365.0368,-406.1467 372.02,-406.6317"/>
</g>
<!-- 39 -->
<g id="node40" class="node">
<title>39</title>
<path fill="none" stroke="#56d8c9" stroke-width="2" d="M355.5,-540C355.5,-540 275.5,-540 275.5,-540 269.5,-540 263.5,-534 263.5,-528 263.5,-528 263.5,-516 263.5,-516 263.5,-510 269.5,-504 275.5,-504 275.5,-504 355.5,-504 355.5,-504 361.5,-504 367.5,-510 367.5,-516 367.5,-516 367.5,-528 367.5,-528 367.5,-534 361.5,-540 355.5,-540"/>
<text text-anchor="middle" x="315.5" y="-519.5" font-family="sans" font-size="10.00" fill="#000000">shard_clean_header</text>
</g>
<!-- 39&#45;&gt;38 -->
<g id="edge69" class="edge">
<title>39&#45;&gt;38</title>
<path fill="none" stroke="#c0c0c0" stroke-width="2" d="M328.1171,-503.8314C333.8172,-495.6232 340.6663,-485.7606 346.9359,-476.7323"/>
<polygon fill="#c0c0c0" stroke="#c0c0c0" stroke-width="2" points="349.8838,-478.6234 352.713,-468.4133 344.1342,-474.6306 349.8838,-478.6234"/>
</g>
<!-- 40&#45;&gt;39 -->
<g id="edge70" class="edge">
<title>40&#45;&gt;39</title>
<path fill="none" stroke="#c0c0c0" stroke-width="2" d="M293.8179,-575.8314C296.9876,-567.9617 300.77,-558.5712 304.2813,-549.8533"/>
<polygon fill="#c0c0c0" stroke="#c0c0c0" stroke-width="2" points="307.5939,-550.9968 308.0835,-540.4133 301.1008,-548.3815 307.5939,-550.9968"/>
</g>
<!-- 41 -->
<g id="node42" class="node">
<title>41</title>
<path fill="none" stroke="#ced856" stroke-width="2" d="M1473.5,-252C1473.5,-252 1433.5,-252 1433.5,-252 1427.5,-252 1421.5,-246 1421.5,-240 1421.5,-240 1421.5,-228 1421.5,-228 1421.5,-222 1427.5,-216 1433.5,-216 1433.5,-216 1473.5,-216 1473.5,-216 1479.5,-216 1485.5,-222 1485.5,-228 1485.5,-228 1485.5,-240 1485.5,-240 1485.5,-246 1479.5,-252 1473.5,-252"/>
<text text-anchor="middle" x="1453.5" y="-231.5" font-family="sans" font-size="10.00" fill="#000000">align_stats</text>
</g>
<!-- 41&#45;&gt;1 -->
<g id="edge22" class="edge">
<title>41&#45;&gt;1</title>
<path fill="none" stroke="#c0c0c0" stroke-width="2" d="M1445.0629,-215.8948C1434.1234,-194.6846 1412.9027,-160.3669 1383.5,-144 1342.6595,-121.2663 1024.0801,-99.2866 913.8684,-92.2923"/>
<polygon fill="#c0c0c0" stroke="#c0c0c0" stroke-width="2" points="913.7696,-88.7792 903.5694,-91.6439 913.3297,-95.7654 913.7696,-88.7792"/>
</g>
<!-- 42 -->
<g id="node43" class="node">
<title>42</title>
<path fill="none" stroke="#d88556" stroke-width="2" d="M1620,-396C1620,-396 1575,-396 1575,-396 1569,-396 1563,-390 1563,-384 1563,-384 1563,-372 1563,-372 1563,-366 1569,-360 1575,-360 1575,-360 1620,-360 1620,-360 1626,-360 1632,-366 1632,-372 1632,-372 1632,-384 1632,-384 1632,-390 1626,-396 1620,-396"/>
<text text-anchor="middle" x="1597.5" y="-375.5" font-family="sans" font-size="10.00" fill="#000000">align_merge</text>
</g>
<!-- 42&#45;&gt;41 -->
<g id="edge73" class="edge">
<title>42&#45;&gt;41</title>
<path fill="none" stroke="#c0c0c0" stroke-width="2" d="M1574.2978,-359.7699C1561.8293,-349.6441 1546.4102,-336.5815 1533.5,-324 1512.5026,-303.5372 1490.5015,-278.4837 1474.8983,-260.0108"/>
<polygon fill="#c0c0c0" stroke="#c0c0c0" stroke-width="2" points="1477.5224,-257.693 1468.4156,-252.2784 1472.1581,-262.1902 1477.5224,-257.693"/>
</g>
<!-- 61 -->
<g id="node62" class="node">
<title>61</title>
<path fill="none" stroke="#56d89a" stroke-width="2" d="M1605,-324C1605,-324 1554,-324 1554,-324 1548,-324 1542,-318 1542,-312 1542,-312 1542,-300 1542,-300 1542,-294 1548,-288 1554,-288 1554,-288 1605,-288 1605,-288 1611,-288 1617,-294 1617,-300 1617,-300 1617,-312 1617,-312 1617,-318 1611,-324 1605,-324"/>
<text text-anchor="middle" x="1579.5" y="-303.5" font-family="sans" font-size="10.00" fill="#000000">metadmg_lca</text>
</g>
<!-- 42&#45;&gt;61 -->
<g id="edge100" class="edge">
<title>42&#45;&gt;61</title>
<path fill="none" stroke="#c0c0c0" stroke-width="2" d="M1592.9578,-359.8314C1591.0116,-352.0463 1588.6932,-342.7729 1586.5337,-334.1347"/>
<polygon fill="#c0c0c0" stroke="#c0c0c0" stroke-width="2" points="1589.9242,-333.2658 1584.1033,-324.4133 1583.1332,-334.9636 1589.9242,-333.2658"/>
</g>
<!-- 70 -->
<g id="node71" class="node">
<title>70</title>
<path fill="none" stroke="#56d86b" stroke-width="2" d="M1759,-324C1759,-324 1686,-324 1686,-324 1680,-324 1674,-318 1674,-312 1674,-312 1674,-300 1674,-300 1674,-294 1680,-288 1686,-288 1686,-288 1759,-288 1759,-288 1765,-288 1771,-294 1771,-300 1771,-300 1771,-312 1771,-312 1771,-318 1765,-324 1759,-324"/>
<text text-anchor="middle" x="1722.5" y="-303.5" font-family="sans" font-size="10.00" fill="#000000">metadmg_damage</text>
</g>
<!-- 42&#45;&gt;70 -->
<g id="edge112" class="edge">
<title>42&#45;&gt;70</title>
<path fill="none" stroke="#c0c0c0" stroke-width="2" d="M1629.0428,-359.8314C1645.1791,-350.5368 1664.9986,-339.1208 1682.2272,-329.1971"/>
<polygon fill="#c0c0c0" stroke="#c0c0c0" stroke-width="2" points="1684.0489,-332.187 1690.9673,-324.1628 1680.555,-326.1212 1684.0489,-332.187"/>
</g>
<!-- 43 -->
<g id="node44" class="node">
<title>43</title>
<path fill="none" stroke="#566bd8" stroke-width="2" d="M1539.5,-468C1539.5,-468 1471.5,-468 1471.5,-468 1465.5,-468 1459.5,-462 1459.5,-456 1459.5,-456 1459.5,-444 1459.5,-444 1459.5,-438 1465.5,-432 1471.5,-432 1471.5,-432 1539.5,-432 1539.5,-432 1545.5,-432 1551.5,-438 1551.5,-444 1551.5,-444 1551.5,-456 1551.5,-456 1551.5,-462 1545.5,-468 1539.5,-468"/>
<text text-anchor="middle" x="1505.5" y="-447.5" font-family="sans" font-size="10.00" fill="#000000">shard_sort_query</text>
</g>
<!-- 43&#45;&gt;42 -->
<g id="edge74" class="edge">
<title>43&#45;&gt;42</title>
<path fill="none" stroke="#c0c0c0" stroke-width="2" d="M1528.7155,-431.8314C1540.047,-422.9632 1553.8464,-412.1637 1566.1027,-402.5718"/>
<polygon fill="#c0c0c0" stroke="#c0c0c0" stroke-width="2" points="1568.574,-405.0822 1574.2919,-396.1628 1564.2598,-399.5697 1568.574,-405.0822"/>
</g>
<!-- 44 -->
<g id="node45" class="node">
<title>44</title>
<path fill="none" stroke="#56d8c9" stroke-width="2" d="M1554.5,-540C1554.5,-540 1474.5,-540 1474.5,-540 1468.5,-540 1462.5,-534 1462.5,-528 1462.5,-528 1462.5,-516 1462.5,-516 1462.5,-510 1468.5,-504 1474.5,-504 1474.5,-504 1554.5,-504 1554.5,-504 1560.5,-504 1566.5,-510 1566.5,-516 1566.5,-516 1566.5,-528 1566.5,-528 1566.5,-534 1560.5,-540 1554.5,-540"/>
<text text-anchor="middle" x="1514.5" y="-519.5" font-family="sans" font-size="10.00" fill="#000000">shard_clean_header</text>
</g>
<!-- 44&#45;&gt;43 -->
<g id="edge77" class="edge">
<title>44&#45;&gt;43</title>
<path fill="none" stroke="#c0c0c0" stroke-width="2" d="M1512.2289,-503.8314C1511.2664,-496.131 1510.1218,-486.9743 1509.0521,-478.4166"/>
<polygon fill="#c0c0c0" stroke="#c0c0c0" stroke-width="2" points="1512.5151,-477.9019 1507.8017,-468.4133 1505.5691,-478.7702 1512.5151,-477.9019"/>
</g>
<!-- 45&#45;&gt;44 -->
<g id="edge78" class="edge">
<title>45&#45;&gt;44</title>
<path fill="none" stroke="#c0c0c0" stroke-width="2" d="M1521.2289,-575.8314C1520.2664,-568.131 1519.1218,-558.9743 1518.0521,-550.4166"/>
<polygon fill="#c0c0c0" stroke="#c0c0c0" stroke-width="2" points="1521.5151,-549.9019 1516.8017,-540.4133 1514.5691,-550.7702 1521.5151,-549.9019"/>
</g>
<!-- 46 -->
<g id="node47" class="node">
<title>46</title>
<path fill="none" stroke="#569ad8" stroke-width="2" d="M1756.5,-684C1756.5,-684 1646.5,-684 1646.5,-684 1640.5,-684 1634.5,-678 1634.5,-672 1634.5,-672 1634.5,-660 1634.5,-660 1634.5,-654 1640.5,-648 1646.5,-648 1646.5,-648 1756.5,-648 1756.5,-648 1762.5,-648 1768.5,-654 1768.5,-660 1768.5,-660 1768.5,-672 1768.5,-672 1768.5,-678 1762.5,-684 1756.5,-684"/>
<text text-anchor="middle" x="1701.5" y="-663.5" font-family="sans" font-size="10.00" fill="#000000">shard_saturated_reads_get</text>
</g>
<!-- 46&#45;&gt;45 -->
<g id="edge80" class="edge">
<title>46&#45;&gt;45</title>
<path fill="none" stroke="#c0c0c0" stroke-width="2" d="M1656.5831,-647.8314C1632.565,-638.1162 1602.8166,-626.0831 1577.5408,-615.8592"/>
<polygon fill="#c0c0c0" stroke="#c0c0c0" stroke-width="2" points="1578.6767,-612.5432 1568.0939,-612.038 1576.0518,-619.0325 1578.6767,-612.5432"/>
</g>
<!-- 46&#45;&gt;52 -->
<g id="edge90" class="edge">
<title>46&#45;&gt;52</title>
<path fill="none" stroke="#c0c0c0" stroke-width="2" d="M1699.7336,-647.8314C1698.985,-640.131 1698.0947,-630.9743 1697.2627,-622.4166"/>
<polygon fill="#c0c0c0" stroke="#c0c0c0" stroke-width="2" points="1700.7415,-622.0276 1696.2902,-612.4133 1693.7744,-622.7051 1700.7415,-622.0276"/>
</g>
<!-- 46&#45;&gt;55 -->
<g id="edge94" class="edge">
<title>46&#45;&gt;55</title>
<path fill="none" stroke="#c0c0c0" stroke-width="2" d="M1752.4634,-647.9243C1780.2147,-638.0815 1814.7328,-625.8386 1843.8614,-615.5073"/>
<polygon fill="#c0c0c0" stroke="#c0c0c0" stroke-width="2" points="1845.2608,-618.7246 1853.5156,-612.0831 1842.9208,-612.1273 1845.2608,-618.7246"/>
</g>
<!-- 67 -->
<g id="node68" class="node">
<title>67</title>
<path fill="none" stroke="#56b1d8" stroke-width="2" d="M1863,-396C1863,-396 1736,-396 1736,-396 1730,-396 1724,-390 1724,-384 1724,-384 1724,-372 1724,-372 1724,-366 1730,-360 1736,-360 1736,-360 1863,-360 1863,-360 1869,-360 1875,-366 1875,-372 1875,-372 1875,-384 1875,-384 1875,-390 1869,-396 1863,-396"/>
<text text-anchor="middle" x="1799.5" y="-375.5" font-family="sans" font-size="10.00" fill="#000000">shard_saturated_reads_extract</text>
</g>
<!-- 46&#45;&gt;67 -->
<g id="edge109" class="edge">
<title>46&#45;&gt;67</title>
<path fill="none" stroke="#c0c0c0" stroke-width="2" d="M1741.975,-647.7926C1756.5924,-639.1042 1771.6567,-627.2286 1780.5,-612 1818.5725,-546.4372 1811.3488,-452.6096 1804.5533,-406.206"/>
<polygon fill="#c0c0c0" stroke="#c0c0c0" stroke-width="2" points="1808.0009,-405.5987 1802.9946,-396.2612 1801.0853,-406.6826 1808.0009,-405.5987"/>
</g>
<!-- 47&#45;&gt;46 -->
<g id="edge81" class="edge">
<title>47&#45;&gt;46</title>
<path fill="none" stroke="#c0c0c0" stroke-width="2" d="M1769.5369,-719.8314C1758.3285,-710.9632 1744.6791,-700.1637 1732.5561,-690.5718"/>
<polygon fill="#c0c0c0" stroke="#c0c0c0" stroke-width="2" points="1734.4697,-687.6229 1724.4558,-684.1628 1730.1263,-693.1125 1734.4697,-687.6229"/>
</g>
<!-- 48&#45;&gt;46 -->
<g id="edge82" class="edge">
<title>48&#45;&gt;46</title>
<path fill="none" stroke="#c0c0c0" stroke-width="2" d="M1686.5468,-719.8314C1688.7094,-712.0463 1691.2853,-702.7729 1693.6848,-694.1347"/>
<polygon fill="#c0c0c0" stroke="#c0c0c0" stroke-width="2" points="1697.081,-694.9852 1696.3852,-684.4133 1690.3364,-693.1117 1697.081,-694.9852"/>
</g>
<!-- 49&#45;&gt;46 -->
<g id="edge83" class="edge">
<title>49&#45;&gt;46</title>
<path fill="none" stroke="#c0c0c0" stroke-width="2" d="M1540.1793,-721.8418C1569.5955,-711.6593 1607.9093,-698.3968 1639.8164,-687.352"/>
<polygon fill="#c0c0c0" stroke="#c0c0c0" stroke-width="2" points="1641.191,-690.58 1649.496,-684.0014 1638.9012,-683.9651 1641.191,-690.58"/>
</g>
<!-- 50 -->
<g id="node51" class="node">
<title>50</title>
<path fill="none" stroke="#566bd8" stroke-width="2" d="M1649.5,-468C1649.5,-468 1581.5,-468 1581.5,-468 1575.5,-468 1569.5,-462 1569.5,-456 1569.5,-456 1569.5,-444 1569.5,-444 1569.5,-438 1575.5,-432 1581.5,-432 1581.5,-432 1649.5,-432 1649.5,-432 1655.5,-432 1661.5,-438 1661.5,-444 1661.5,-444 1661.5,-456 1661.5,-456 1661.5,-462 1655.5,-468 1649.5,-468"/>
<text text-anchor="middle" x="1615.5" y="-447.5" font-family="sans" font-size="10.00" fill="#000000">shard_sort_query</text>
</g>
<!-- 50&#45;&gt;42 -->
<g id="edge75" class="edge">
<title>50&#45;&gt;42</title>
<path fill="none" stroke="#c0c0c0" stroke-width="2" d="M1610.9578,-431.8314C1609.0116,-424.0463 1606.6932,-414.7729 1604.5337,-406.1347"/>
<polygon fill="#c0c0c0" stroke="#c0c0c0" stroke-width="2" points="1607.9242,-405.2658 1602.1033,-396.4133 1601.1332,-406.9636 1607.9242,-405.2658"/>
</g>
<!-- 51 -->
<g id="node52" class="node">
<title>51</title>
<path fill="none" stroke="#56d8c9" stroke-width="2" d="M1710.5,-540C1710.5,-540 1630.5,-540 1630.5,-540 1624.5,-540 1618.5,-534 1618.5,-528 1618.5,-528 1618.5,-516 1618.5,-516 1618.5,-510 1624.5,-504 1630.5,-504 1630.5,-504 1710.5,-504 1710.5,-504 1716.5,-504 1722.5,-510 1722.5,-516 1722.5,-516 1722.5,-528 1722.5,-528 1722.5,-534 1716.5,-540 1710.5,-540"/>
<text text-anchor="middle" x="1670.5" y="-519.5" font-family="sans" font-size="10.00" fill="#000000">shard_clean_header</text>
</g>
<!-- 51&#45;&gt;50 -->
<g id="edge87" class="edge">
<title>51&#45;&gt;50</title>
<path fill="none" stroke="#c0c0c0" stroke-width="2" d="M1656.6212,-503.8314C1650.2864,-495.5386 1642.6616,-485.557 1635.7074,-476.4533"/>
<polygon fill="#c0c0c0" stroke="#c0c0c0" stroke-width="2" points="1638.4175,-474.2353 1629.5657,-468.4133 1632.8548,-478.4847 1638.4175,-474.2353"/>
</g>
<!-- 52&#45;&gt;51 -->
<g id="edge88" class="edge">
<title>52&#45;&gt;51</title>
<path fill="none" stroke="#c0c0c0" stroke-width="2" d="M1688.4438,-575.8314C1685.8488,-568.0463 1682.7576,-558.7729 1679.8782,-550.1347"/>
<polygon fill="#c0c0c0" stroke="#c0c0c0" stroke-width="2" points="1683.1205,-548.7933 1676.6378,-540.4133 1676.4797,-551.0069 1683.1205,-548.7933"/>
</g>
<!-- 53 -->
<g id="node54" class="node">
<title>53</title>
<path fill="none" stroke="#566bd8" stroke-width="2" d="M1759.5,-468C1759.5,-468 1691.5,-468 1691.5,-468 1685.5,-468 1679.5,-462 1679.5,-456 1679.5,-456 1679.5,-444 1679.5,-444 1679.5,-438 1685.5,-432 1691.5,-432 1691.5,-432 1759.5,-432 1759.5,-432 1765.5,-432 1771.5,-438 1771.5,-444 1771.5,-444 1771.5,-456 1771.5,-456 1771.5,-462 1765.5,-468 1759.5,-468"/>
<text text-anchor="middle" x="1725.5" y="-447.5" font-family="sans" font-size="10.00" fill="#000000">shard_sort_query</text>
</g>
<!-- 53&#45;&gt;42 -->
<g id="edge76" class="edge">
<title>53&#45;&gt;42</title>
<path fill="none" stroke="#c0c0c0" stroke-width="2" d="M1693.2002,-431.8314C1676.6766,-422.5368 1656.3814,-411.1208 1638.7393,-401.1971"/>
<polygon fill="#c0c0c0" stroke="#c0c0c0" stroke-width="2" points="1640.2212,-398.015 1629.7895,-396.1628 1636.7893,-404.116 1640.2212,-398.015"/>
</g>
<!-- 54 -->
<g id="node55" class="node">
<title>54</title>
<path fill="none" stroke="#56d8c9" stroke-width="2" d="M1931.5,-540C1931.5,-540 1851.5,-540 1851.5,-540 1845.5,-540 1839.5,-534 1839.5,-528 1839.5,-528 1839.5,-516 1839.5,-516 1839.5,-510 1845.5,-504 1851.5,-504 1851.5,-504 1931.5,-504 1931.5,-504 1937.5,-504 1943.5,-510 1943.5,-516 1943.5,-516 1943.5,-528 1943.5,-528 1943.5,-534 1937.5,-540 1931.5,-540"/>
<text text-anchor="middle" x="1891.5" y="-519.5" font-family="sans" font-size="10.00" fill="#000000">shard_clean_header</text>
</g>
<!-- 54&#45;&gt;53 -->
<g id="edge91" class="edge">
<title>54&#45;&gt;53</title>
<path fill="none" stroke="#c0c0c0" stroke-width="2" d="M1849.6112,-503.8314C1827.4097,-494.2018 1799.9578,-482.295 1776.5216,-472.1299"/>
<polygon fill="#c0c0c0" stroke="#c0c0c0" stroke-width="2" points="1777.6545,-468.8062 1767.0876,-468.038 1774.8691,-475.2282 1777.6545,-468.8062"/>
</g>
<!-- 55&#45;&gt;54 -->
<g id="edge92" class="edge">
<title>55&#45;&gt;54</title>
<path fill="none" stroke="#c0c0c0" stroke-width="2" d="M1901.2196,-575.8314C1899.8292,-568.131 1898.1759,-558.9743 1896.6308,-550.4166"/>
<polygon fill="#c0c0c0" stroke="#c0c0c0" stroke-width="2" points="1900.0458,-549.6322 1894.8246,-540.4133 1893.1572,-550.8761 1900.0458,-549.6322"/>
</g>
<!-- 56 -->
<g id="node57" class="node">
<title>56</title>
<path fill="none" stroke="#56d882" stroke-width="2" d="M760.5,-252C760.5,-252 708.5,-252 708.5,-252 702.5,-252 696.5,-246 696.5,-240 696.5,-240 696.5,-228 696.5,-228 696.5,-222 702.5,-216 708.5,-216 708.5,-216 760.5,-216 760.5,-216 766.5,-216 772.5,-222 772.5,-228 772.5,-228 772.5,-240 772.5,-240 772.5,-246 766.5,-252 760.5,-252"/>
<text text-anchor="middle" x="734.5" y="-231.5" font-family="sans" font-size="10.00" fill="#000000">metadmg_dfit</text>
</g>
<!-- 56&#45;&gt;1 -->
<g id="edge23" class="edge">
<title>56&#45;&gt;1</title>
<path fill="none" stroke="#c0c0c0" stroke-width="2" d="M741.7796,-215.6585C750.2428,-196.1006 765.7468,-165.0985 786.5,-144 801.8425,-128.4022 822.5916,-115.5567 840.3005,-106.3131"/>
<polygon fill="#c0c0c0" stroke="#c0c0c0" stroke-width="2" points="841.8817,-109.4356 849.2392,-101.8121 838.7335,-103.1835 841.8817,-109.4356"/>
</g>
<!-- 62 -->
<g id="node63" class="node">
<title>62</title>
<path fill="none" stroke="#59d856" stroke-width="2" d="M722,-180C722,-180 641,-180 641,-180 635,-180 629,-174 629,-168 629,-168 629,-156 629,-156 629,-150 635,-144 641,-144 641,-144 722,-144 722,-144 728,-144 734,-150 734,-156 734,-156 734,-168 734,-168 734,-174 728,-180 722,-180"/>
<text text-anchor="middle" x="681.5" y="-159.5" font-family="sans" font-size="10.00" fill="#000000">metadmg_aggregate</text>
</g>
<!-- 56&#45;&gt;62 -->
<g id="edge102" class="edge">
<title>56&#45;&gt;62</title>
<path fill="none" stroke="#c0c0c0" stroke-width="2" d="M721.1259,-215.8314C715.0838,-207.6232 707.8237,-197.7606 701.1779,-188.7323"/>
<polygon fill="#c0c0c0" stroke="#c0c0c0" stroke-width="2" points="703.8011,-186.3918 695.0542,-180.4133 698.1637,-190.5415 703.8011,-186.3918"/>
</g>
<!-- 57&#45;&gt;56 -->
<g id="edge95" class="edge">
<title>57&#45;&gt;56</title>
<path fill="none" stroke="#c0c0c0" stroke-width="2" d="M734.5,-287.8314C734.5,-280.131 734.5,-270.9743 734.5,-262.4166"/>
<polygon fill="#c0c0c0" stroke="#c0c0c0" stroke-width="2" points="738.0001,-262.4132 734.5,-252.4133 731.0001,-262.4133 738.0001,-262.4132"/>
</g>
<!-- 57&#45;&gt;62 -->
<g id="edge101" class="edge">
<title>57&#45;&gt;62</title>
<path fill="none" stroke="#c0c0c0" stroke-width="2" d="M713.1288,-287.6607C703.5174,-278.089 693.0946,-265.5568 687.5,-252 679.4103,-232.397 678.2004,-208.3487 678.8553,-190.0438"/>
<polygon fill="#c0c0c0" stroke="#c0c0c0" stroke-width="2" points="682.3527,-190.1872 679.4185,-180.0068 675.3637,-189.795 682.3527,-190.1872"/>
</g>
<!-- 58 -->
<g id="node59" class="node">
<title>58</title>
<path fill="none" stroke="#56d882" stroke-width="2" d="M440.5,-252C440.5,-252 388.5,-252 388.5,-252 382.5,-252 376.5,-246 376.5,-240 376.5,-240 376.5,-228 376.5,-228 376.5,-222 382.5,-216 388.5,-216 388.5,-216 440.5,-216 440.5,-216 446.5,-216 452.5,-222 452.5,-228 452.5,-228 452.5,-240 452.5,-240 452.5,-246 446.5,-252 440.5,-252"/>
<text text-anchor="middle" x="414.5" y="-231.5" font-family="sans" font-size="10.00" fill="#000000">metadmg_dfit</text>
</g>
<!-- 58&#45;&gt;1 -->
<g id="edge24" class="edge">
<title>58&#45;&gt;1</title>
<path fill="none" stroke="#c0c0c0" stroke-width="2" d="M432.4423,-215.6951C456.0646,-192.0198 496.7846,-152.7692 515.5,-144 544.5237,-130.4008 753.1337,-104.5706 839.3564,-94.3346"/>
<polygon fill="#c0c0c0" stroke="#c0c0c0" stroke-width="2" points="839.9647,-97.7871 849.4846,-93.1372 839.1428,-90.8355 839.9647,-97.7871"/>
</g>
<!-- 63 -->
<g id="node64" class="node">
<title>63</title>
<path fill="none" stroke="#59d856" stroke-width="2" d="M446,-180C446,-180 365,-180 365,-180 359,-180 353,-174 353,-168 353,-168 353,-156 353,-156 353,-150 359,-144 365,-144 365,-144 446,-144 446,-144 452,-144 458,-150 458,-156 458,-156 458,-168 458,-168 458,-174 452,-180 446,-180"/>
<text text-anchor="middle" x="405.5" y="-159.5" font-family="sans" font-size="10.00" fill="#000000">metadmg_aggregate</text>
</g>
<!-- 58&#45;&gt;63 -->
<g id="edge104" class="edge">
<title>58&#45;&gt;63</title>
<path fill="none" stroke="#c0c0c0" stroke-width="2" d="M412.2289,-215.8314C411.2664,-208.131 410.1218,-198.9743 409.0521,-190.4166"/>
<polygon fill="#c0c0c0" stroke="#c0c0c0" stroke-width="2" points="412.5151,-189.9019 407.8017,-180.4133 405.5691,-190.7702 412.5151,-189.9019"/>
</g>
<!-- 59&#45;&gt;58 -->
<g id="edge97" class="edge">
<title>59&#45;&gt;58</title>
<path fill="none" stroke="#c0c0c0" stroke-width="2" d="M386.089,-287.8314C390.3317,-279.7925 395.4121,-270.1666 400.096,-261.2918"/>
<polygon fill="#c0c0c0" stroke="#c0c0c0" stroke-width="2" points="403.2096,-262.8908 404.7819,-252.4133 397.0189,-259.6235 403.2096,-262.8908"/>
</g>
<!-- 59&#45;&gt;63 -->
<g id="edge103" class="edge">
<title>59&#45;&gt;63</title>
<path fill="none" stroke="#c0c0c0" stroke-width="2" d="M370.5492,-287.9744C365.3964,-269.4858 359.8694,-240.1027 367.5,-216 370.5815,-206.2664 376.1183,-196.7695 382.0289,-188.5228"/>
<polygon fill="#c0c0c0" stroke="#c0c0c0" stroke-width="2" points="384.931,-190.49 388.2365,-180.4239 379.3752,-186.2316 384.931,-190.49"/>
</g>
<!-- 60 -->
<g id="node61" class="node">
<title>60</title>
<path fill="none" stroke="#56d882" stroke-width="2" d="M1567.5,-252C1567.5,-252 1515.5,-252 1515.5,-252 1509.5,-252 1503.5,-246 1503.5,-240 1503.5,-240 1503.5,-228 1503.5,-228 1503.5,-222 1509.5,-216 1515.5,-216 1515.5,-216 1567.5,-216 1567.5,-216 1573.5,-216 1579.5,-222 1579.5,-228 1579.5,-228 1579.5,-240 1579.5,-240 1579.5,-246 1573.5,-252 1567.5,-252"/>
<text text-anchor="middle" x="1541.5" y="-231.5" font-family="sans" font-size="10.00" fill="#000000">metadmg_dfit</text>
</g>
<!-- 60&#45;&gt;1 -->
<g id="edge25" class="edge">
<title>60&#45;&gt;1</title>
<path fill="none" stroke="#c0c0c0" stroke-width="2" d="M1523.0521,-215.802C1500.188,-194.5005 1459.0162,-160.0929 1416.5,-144 1324.068,-109.0134 1020.4707,-95.1043 913.8901,-91.2232"/>
<polygon fill="#c0c0c0" stroke="#c0c0c0" stroke-width="2" points="913.7408,-87.7157 903.6227,-90.8583 913.4921,-94.7113 913.7408,-87.7157"/>
</g>
<!-- 64 -->
<g id="node65" class="node">
<title>64</title>
<path fill="none" stroke="#59d856" stroke-width="2" d="M1605,-180C1605,-180 1524,-180 1524,-180 1518,-180 1512,-174 1512,-168 1512,-168 1512,-156 1512,-156 1512,-150 1518,-144 1524,-144 1524,-144 1605,-144 1605,-144 1611,-144 1617,-150 1617,-156 1617,-156 1617,-168 1617,-168 1617,-174 1611,-180 1605,-180"/>
<text text-anchor="middle" x="1564.5" y="-159.5" font-family="sans" font-size="10.00" fill="#000000">metadmg_aggregate</text>
</g>
<!-- 60&#45;&gt;64 -->
<g id="edge106" class="edge">
<title>60&#45;&gt;64</title>
<path fill="none" stroke="#c0c0c0" stroke-width="2" d="M1547.3039,-215.8314C1549.7908,-208.0463 1552.7531,-198.7729 1555.5125,-190.1347"/>
<polygon fill="#c0c0c0" stroke="#c0c0c0" stroke-width="2" points="1558.909,-191.0041 1558.618,-180.4133 1552.2409,-188.874 1558.909,-191.0041"/>
</g>
<!-- 61&#45;&gt;60 -->
<g id="edge99" class="edge">
<title>61&#45;&gt;60</title>
<path fill="none" stroke="#c0c0c0" stroke-width="2" d="M1569.911,-287.8314C1565.6683,-279.7925 1560.5879,-270.1666 1555.904,-261.2918"/>
<polygon fill="#c0c0c0" stroke="#c0c0c0" stroke-width="2" points="1558.9811,-259.6235 1551.2181,-252.4133 1552.7904,-262.8908 1558.9811,-259.6235"/>
</g>
<!-- 61&#45;&gt;64 -->
<g id="edge105" class="edge">
<title>61&#45;&gt;64</title>
<path fill="none" stroke="#c0c0c0" stroke-width="2" d="M1584.548,-287.892C1588.8961,-269.5893 1593.7157,-240.5774 1588.5,-216 1586.6019,-207.0557 1583.1165,-197.7941 1579.3791,-189.5203"/>
<polygon fill="#c0c0c0" stroke="#c0c0c0" stroke-width="2" points="1582.4495,-187.8294 1574.9559,-180.3395 1576.1432,-190.8676 1582.4495,-187.8294"/>
</g>
<!-- 62&#45;&gt;0 -->
<g id="edge5" class="edge">
<title>62&#45;&gt;0</title>
<path fill="none" stroke="#c0c0c0" stroke-width="2" d="M706.8464,-143.8301C737.1292,-123.0552 790.0504,-89.6485 840.5,-72 945.7906,-35.1667 1078.3347,-23.3275 1141.9952,-19.6238"/>
<polygon fill="#c0c0c0" stroke="#c0c0c0" stroke-width="2" points="1142.5392,-23.0994 1152.3335,-19.0594 1142.1576,-16.1098 1142.5392,-23.0994"/>
</g>
<!-- 62&#45;&gt;1 -->
<g id="edge26" class="edge">
<title>62&#45;&gt;1</title>
<path fill="none" stroke="#c0c0c0" stroke-width="2" d="M730.455,-143.9243C764.4564,-131.3699 809.0326,-114.911 839.9529,-103.4943"/>
<polygon fill="#c0c0c0" stroke="#c0c0c0" stroke-width="2" points="841.3127,-106.7233 849.4813,-99.9761 838.888,-100.1566 841.3127,-106.7233"/>
</g>
<!-- 63&#45;&gt;0 -->
<g id="edge6" class="edge">
<title>63&#45;&gt;0</title>
<path fill="none" stroke="#c0c0c0" stroke-width="2" d="M458.2212,-146.523C461.3569,-145.6556 464.4676,-144.8086 467.5,-144 598.3207,-109.1173 630.3902,-96.7514 763.5,-72 902.0364,-46.2395 1068.7938,-28.572 1141.9771,-21.4794"/>
<polygon fill="#c0c0c0" stroke="#c0c0c0" stroke-width="2" points="1142.4612,-24.9491 1152.0812,-20.5099 1141.7926,-17.9811 1142.4612,-24.9491"/>
</g>
<!-- 63&#45;&gt;1 -->
<g id="edge27" class="edge">
<title>63&#45;&gt;1</title>
<path fill="none" stroke="#c0c0c0" stroke-width="2" d="M458.0148,-147.2017C462.8926,-146.036 467.7761,-144.9461 472.5,-144 542.5202,-129.9761 753.2514,-104.4998 839.2955,-94.3463"/>
<polygon fill="#c0c0c0" stroke="#c0c0c0" stroke-width="2" points="839.8698,-97.803 849.392,-93.1578 839.0514,-90.851 839.8698,-97.803"/>
</g>
<!-- 64&#45;&gt;0 -->
<g id="edge7" class="edge">
<title>64&#45;&gt;0</title>
<path fill="none" stroke="#c0c0c0" stroke-width="2" d="M1534.4757,-143.924C1500.3552,-124.0147 1442.5101,-92.1562 1389.5,-72 1330.6634,-49.6284 1259.094,-33.4435 1216.5273,-24.9079"/>
<polygon fill="#c0c0c0" stroke="#c0c0c0" stroke-width="2" points="1217.1012,-21.4537 1206.613,-22.9534 1215.7472,-28.3215 1217.1012,-21.4537"/>
</g>
<!-- 64&#45;&gt;1 -->
<g id="edge28" class="edge">
<title>64&#45;&gt;1</title>
<path fill="none" stroke="#c0c0c0" stroke-width="2" d="M1511.7437,-152.1347C1495.073,-149.2382 1476.5529,-146.248 1459.5,-144 1254.0244,-116.9131 1006.0332,-98.7189 913.5908,-92.4343"/>
<polygon fill="#c0c0c0" stroke="#c0c0c0" stroke-width="2" points="913.82,-88.9419 903.6071,-91.761 913.3489,-95.9261 913.82,-88.9419"/>
</g>
<!-- 65&#45;&gt;0 -->
<g id="edge2" class="edge">
<title>65&#45;&gt;0</title>
<path fill="none" stroke="#c0c0c0" stroke-width="2" d="M1314.4234,-372.1042C1420.8813,-363.1406 1604.0865,-344.9018 1626.5,-324 1656.3983,-296.1181 1645.5,-274.8816 1645.5,-234 1645.5,-234 1645.5,-234 1645.5,-162 1645.5,-72.3809 1326.9099,-32.5152 1216.5778,-21.3963"/>
<polygon fill="#c0c0c0" stroke="#c0c0c0" stroke-width="2" points="1216.8636,-17.9076 1206.5684,-20.4093 1216.1766,-24.8738 1216.8636,-17.9076"/>
</g>
<!-- 66&#45;&gt;0 -->
<g id="edge3" class="edge">
<title>66&#45;&gt;0</title>
<path fill="none" stroke="#c0c0c0" stroke-width="2" d="M281.1177,-84.4102C477.559,-69.8889 998.7249,-31.3633 1142.379,-20.7441"/>
<polygon fill="#c0c0c0" stroke="#c0c0c0" stroke-width="2" points="1142.7289,-24.2278 1152.4436,-20.0001 1142.2127,-17.2469 1142.7289,-24.2278"/>
</g>
<!-- 67&#45;&gt;0 -->
<g id="edge4" class="edge">
<title>67&#45;&gt;0</title>
<path fill="none" stroke="#c0c0c0" stroke-width="2" d="M1799.5,-359.8146C1799.5,-332.4983 1799.5,-279.25 1799.5,-234 1799.5,-234 1799.5,-234 1799.5,-162 1799.5,-98.1421 1746.5285,-96.3612 1687.5,-72 1602.0828,-36.7481 1319.1472,-23.1067 1216.833,-19.2512"/>
<polygon fill="#c0c0c0" stroke="#c0c0c0" stroke-width="2" points="1216.7876,-15.7473 1206.6659,-18.8781 1216.5308,-22.7425 1216.7876,-15.7473"/>
</g>
<!-- 68&#45;&gt;0 -->
<g id="edge8" class="edge">
<title>68&#45;&gt;0</title>
<path fill="none" stroke="#c0c0c0" stroke-width="2" d="M1293.144,-71.8314C1269.4911,-60.6274 1239.3302,-46.3406 1216.0247,-35.3012"/>
<polygon fill="#c0c0c0" stroke="#c0c0c0" stroke-width="2" points="1217.3529,-32.0575 1206.8172,-30.9397 1214.3562,-38.3837 1217.3529,-32.0575"/>
</g>
<!-- 69&#45;&gt;0 -->
<g id="edge9" class="edge">
<title>69&#45;&gt;0</title>
<path fill="none" stroke="#c0c0c0" stroke-width="2" d="M587.2103,-84.4708C618.6781,-80.9025 660.508,-76.1661 697.5,-72 863.265,-53.3315 1061.118,-31.2187 1142.1292,-22.1718"/>
<polygon fill="#c0c0c0" stroke="#c0c0c0" stroke-width="2" points="1142.7711,-25.622 1152.3209,-21.0338 1141.9942,-18.6652 1142.7711,-25.622"/>
</g>
<!-- 70&#45;&gt;0 -->
<g id="edge10" class="edge">
<title>70&#45;&gt;0</title>
<path fill="none" stroke="#c0c0c0" stroke-width="2" d="M1723.8149,-287.882C1725.9492,-243.3174 1724.592,-127.9388 1659.5,-72 1626.0704,-43.2712 1323.7874,-25.308 1216.8097,-19.805"/>
<polygon fill="#c0c0c0" stroke="#c0c0c0" stroke-width="2" points="1216.9541,-16.3079 1206.7896,-19.2967 1216.5994,-23.2989 1216.9541,-16.3079"/>
</g>
</g>
</svg>
