<?xml version="1.0" encoding="UTF-8" standalone="no"?>
<!DOCTYPE svg PUBLIC "-//W3C//DTD SVG 1.1//EN"
 "http://www.w3.org/Graphics/SVG/1.1/DTD/svg11.dtd">
<!-- Generated by graphviz version 2.40.1 (0)
 -->
<!-- Title: snakemake_dag Pages: 1 -->
<svg width="1873pt" height="885pt"
 viewBox="0.00 0.00 1873.00 885.00" xmlns="http://www.w3.org/2000/svg" xmlns:xlink="http://www.w3.org/1999/xlink">
<g id="graph0" class="graph" transform="scale(1 1) rotate(0) translate(4 881)">
<title>snakemake_dag</title>
<polygon fill="#ffffff" stroke="transparent" points="-4,4 -4,-881 1869,-881 1869,4 -4,4"/>
<!-- 0 -->
<g id="node1" class="node">
<title>0</title>
<path fill="none" stroke="#b6d856" stroke-width="2" d="M925.5,-36C925.5,-36 895.5,-36 895.5,-36 889.5,-36 883.5,-30 883.5,-24 883.5,-24 883.5,-12 883.5,-12 883.5,-6 889.5,0 895.5,0 895.5,0 925.5,0 925.5,0 931.5,0 937.5,-6 937.5,-12 937.5,-12 937.5,-24 937.5,-24 937.5,-30 931.5,-36 925.5,-36"/>
<text text-anchor="middle" x="910.5" y="-15.5" font-family="sans" font-size="10.00" fill="#000000">all</text>
</g>
<!-- 1 -->
<g id="node2" class="node">
<title>1</title>
<path fill="none" stroke="#56d86b" stroke-width="2" d="M925.5,-108C925.5,-108 895.5,-108 895.5,-108 889.5,-108 883.5,-102 883.5,-96 883.5,-96 883.5,-84 883.5,-84 883.5,-78 889.5,-72 895.5,-72 895.5,-72 925.5,-72 925.5,-72 931.5,-72 937.5,-78 937.5,-84 937.5,-84 937.5,-96 937.5,-96 937.5,-102 931.5,-108 925.5,-108"/>
<text text-anchor="middle" x="910.5" y="-87.5" font-family="sans" font-size="10.00" fill="#000000">multiqc</text>
</g>
<!-- 1&#45;&gt;0 -->
<g id="edge1" class="edge">
<title>1&#45;&gt;0</title>
<path fill="none" stroke="#c0c0c0" stroke-width="2" d="M910.5,-71.8314C910.5,-64.131 910.5,-54.9743 910.5,-46.4166"/>
<polygon fill="#c0c0c0" stroke="#c0c0c0" stroke-width="2" points="914.0001,-46.4132 910.5,-36.4133 907.0001,-46.4133 914.0001,-46.4132"/>
</g>
<!-- 2 -->
<g id="node3" class="node">
<title>2</title>
<path fill="none" stroke="#56d882" stroke-width="2" d="M682,-877C682,-877 575,-877 575,-877 569,-877 563,-871 563,-865 563,-865 563,-804 563,-804 563,-798 569,-792 575,-792 575,-792 682,-792 682,-792 688,-792 694,-798 694,-804 694,-804 694,-865 694,-865 694,-871 688,-877 682,-877"/>
<text text-anchor="middle" x="628.5" y="-865" font-family="sans" font-size="10.00" fill="#000000">shard_bowtie2</text>
<text text-anchor="middle" x="628.5" y="-854" font-family="sans" font-size="10.00" fill="#000000">library: lib1</text>
<text text-anchor="middle" x="628.5" y="-843" font-family="sans" font-size="10.00" fill="#000000">n_shard: 2</text>
<text text-anchor="middle" x="628.5" y="-832" font-family="sans" font-size="10.00" fill="#000000">read_type_map: collapsed</text>
<text text-anchor="middle" x="628.5" y="-821" font-family="sans" font-size="10.00" fill="#000000">ref: test</text>
<text text-anchor="middle" x="628.5" y="-810" font-family="sans" font-size="10.00" fill="#000000">sample: HD827sonic_2</text>
<text text-anchor="middle" x="628.5" y="-799" font-family="sans" font-size="10.00" fill="#000000">tot_shards: 2</text>
</g>
<!-- 2&#45;&gt;1 -->
<g id="edge14" class="edge">
<title>2&#45;&gt;1</title>
<path fill="none" stroke="#c0c0c0" stroke-width="2" d="M661.9795,-791.9819C679.7231,-770.0136 702.2037,-743.0514 723.5,-720 770.2084,-669.4421 801.2846,-672.2869 834.5,-612 854.2279,-576.1933 853.5,-562.8816 853.5,-522 853.5,-522 853.5,-522 853.5,-234 853.5,-190.7597 875.9945,-145.0187 892.7212,-116.9832"/>
<polygon fill="#c0c0c0" stroke="#c0c0c0" stroke-width="2" points="895.8756,-118.5353 898.1318,-108.1834 889.9126,-114.8688 895.8756,-118.5353"/>
</g>
<!-- 28 -->
<g id="node29" class="node">
<title>28</title>
<path fill="none" stroke="#56d8c9" stroke-width="2" d="M663,-756C663,-756 594,-756 594,-756 588,-756 582,-750 582,-744 582,-744 582,-732 582,-732 582,-726 588,-720 594,-720 594,-720 663,-720 663,-720 669,-720 675,-726 675,-732 675,-732 675,-744 675,-744 675,-750 669,-756 663,-756"/>
<text text-anchor="middle" x="628.5" y="-735.5" font-family="sans" font-size="10.00" fill="#000000">shard_count_alns</text>
</g>
<!-- 2&#45;&gt;28 -->
<g id="edge59" class="edge">
<title>2&#45;&gt;28</title>
<path fill="none" stroke="#c0c0c0" stroke-width="2" d="M628.5,-791.8928C628.5,-783.2842 628.5,-774.4327 628.5,-766.4546"/>
<polygon fill="#c0c0c0" stroke="#c0c0c0" stroke-width="2" points="632.0001,-766.2218 628.5,-756.2218 625.0001,-766.2218 632.0001,-766.2218"/>
</g>
<!-- 31 -->
<g id="node32" class="node">
<title>31</title>
<path fill="none" stroke="#569ad8" stroke-width="2" d="M603,-612C603,-612 474,-612 474,-612 468,-612 462,-606 462,-600 462,-600 462,-588 462,-588 462,-582 468,-576 474,-576 474,-576 603,-576 603,-576 609,-576 615,-582 615,-588 615,-588 615,-600 615,-600 615,-606 609,-612 603,-612"/>
<text text-anchor="middle" x="538.5" y="-591.5" font-family="sans" font-size="10.00" fill="#000000">shard_saturated_reads_remove</text>
</g>
<!-- 2&#45;&gt;31 -->
<g id="edge62" class="edge">
<title>2&#45;&gt;31</title>
<path fill="none" stroke="#c0c0c0" stroke-width="2" d="M594.1005,-791.9186C586.3851,-780.7453 578.8971,-768.3512 573.5,-756 554.1431,-711.7021 545.1187,-655.7739 541.2018,-622.5601"/>
<polygon fill="#c0c0c0" stroke="#c0c0c0" stroke-width="2" points="544.6363,-621.773 540.0617,-612.2167 537.6785,-622.5399 544.6363,-621.773"/>
</g>
<!-- 3 -->
<g id="node4" class="node">
<title>3</title>
<path fill="none" stroke="#56d882" stroke-width="2" d="M1066,-877C1066,-877 959,-877 959,-877 953,-877 947,-871 947,-865 947,-865 947,-804 947,-804 947,-798 953,-792 959,-792 959,-792 1066,-792 1066,-792 1072,-792 1078,-798 1078,-804 1078,-804 1078,-865 1078,-865 1078,-871 1072,-877 1066,-877"/>
<text text-anchor="middle" x="1012.5" y="-865" font-family="sans" font-size="10.00" fill="#000000">shard_bowtie2</text>
<text text-anchor="middle" x="1012.5" y="-854" font-family="sans" font-size="10.00" fill="#000000">library: lib2</text>
<text text-anchor="middle" x="1012.5" y="-843" font-family="sans" font-size="10.00" fill="#000000">n_shard: 2</text>
<text text-anchor="middle" x="1012.5" y="-832" font-family="sans" font-size="10.00" fill="#000000">read_type_map: collapsed</text>
<text text-anchor="middle" x="1012.5" y="-821" font-family="sans" font-size="10.00" fill="#000000">ref: test</text>
<text text-anchor="middle" x="1012.5" y="-810" font-family="sans" font-size="10.00" fill="#000000">sample: HD827sonic_2</text>
<text text-anchor="middle" x="1012.5" y="-799" font-family="sans" font-size="10.00" fill="#000000">tot_shards: 2</text>
</g>
<!-- 3&#45;&gt;1 -->
<g id="edge15" class="edge">
<title>3&#45;&gt;1</title>
<path fill="none" stroke="#c0c0c0" stroke-width="2" d="M975.6407,-791.5994C967.4621,-780.5316 959.4639,-768.2659 953.5,-756 935.398,-718.7697 929.5,-707.3978 929.5,-666 929.5,-666 929.5,-666 929.5,-234 929.5,-193.5282 922.032,-147.2037 916.46,-118.2725"/>
<polygon fill="#c0c0c0" stroke="#c0c0c0" stroke-width="2" points="919.8177,-117.2111 914.4368,-108.0844 912.9517,-118.5746 919.8177,-117.2111"/>
</g>
<!-- 39 -->
<g id="node40" class="node">
<title>39</title>
<path fill="none" stroke="#56d8c9" stroke-width="2" d="M1122,-756C1122,-756 1053,-756 1053,-756 1047,-756 1041,-750 1041,-744 1041,-744 1041,-732 1041,-732 1041,-726 1047,-720 1053,-720 1053,-720 1122,-720 1122,-720 1128,-720 1134,-726 1134,-732 1134,-732 1134,-744 1134,-744 1134,-750 1128,-756 1122,-756"/>
<text text-anchor="middle" x="1087.5" y="-735.5" font-family="sans" font-size="10.00" fill="#000000">shard_count_alns</text>
</g>
<!-- 3&#45;&gt;39 -->
<g id="edge74" class="edge">
<title>3&#45;&gt;39</title>
<path fill="none" stroke="#c0c0c0" stroke-width="2" d="M1045.6144,-791.8928C1052.9133,-782.5016 1060.4368,-772.8213 1067.0586,-764.3013"/>
<polygon fill="#c0c0c0" stroke="#c0c0c0" stroke-width="2" points="1069.9649,-766.2653 1073.338,-756.2218 1064.4379,-761.9697 1069.9649,-766.2653"/>
</g>
<!-- 42 -->
<g id="node43" class="node">
<title>42</title>
<path fill="none" stroke="#569ad8" stroke-width="2" d="M1137,-612C1137,-612 1008,-612 1008,-612 1002,-612 996,-606 996,-600 996,-600 996,-588 996,-588 996,-582 1002,-576 1008,-576 1008,-576 1137,-576 1137,-576 1143,-576 1149,-582 1149,-588 1149,-588 1149,-600 1149,-600 1149,-606 1143,-612 1137,-612"/>
<text text-anchor="middle" x="1072.5" y="-591.5" font-family="sans" font-size="10.00" fill="#000000">shard_saturated_reads_remove</text>
</g>
<!-- 3&#45;&gt;42 -->
<g id="edge77" class="edge">
<title>3&#45;&gt;42</title>
<path fill="none" stroke="#c0c0c0" stroke-width="2" d="M1018.5595,-791.804C1021.9856,-770.149 1026.7401,-743.5203 1032.5,-720 1040.8966,-685.7128 1053.6427,-647.1428 1062.4809,-621.8133"/>
<polygon fill="#c0c0c0" stroke="#c0c0c0" stroke-width="2" points="1065.8658,-622.7385 1065.8898,-612.1437 1059.264,-620.411 1065.8658,-622.7385"/>
</g>
<!-- 4 -->
<g id="node5" class="node">
<title>4</title>
<path fill="none" stroke="#56d882" stroke-width="2" d="M1564,-877C1564,-877 1457,-877 1457,-877 1451,-877 1445,-871 1445,-865 1445,-865 1445,-804 1445,-804 1445,-798 1451,-792 1457,-792 1457,-792 1564,-792 1564,-792 1570,-792 1576,-798 1576,-804 1576,-804 1576,-865 1576,-865 1576,-871 1570,-877 1564,-877"/>
<text text-anchor="middle" x="1510.5" y="-865" font-family="sans" font-size="10.00" fill="#000000">shard_bowtie2</text>
<text text-anchor="middle" x="1510.5" y="-854" font-family="sans" font-size="10.00" fill="#000000">library: lib3</text>
<text text-anchor="middle" x="1510.5" y="-843" font-family="sans" font-size="10.00" fill="#000000">n_shard: 1</text>
<text text-anchor="middle" x="1510.5" y="-832" font-family="sans" font-size="10.00" fill="#000000">read_type_map: collapsed</text>
<text text-anchor="middle" x="1510.5" y="-821" font-family="sans" font-size="10.00" fill="#000000">ref: test</text>
<text text-anchor="middle" x="1510.5" y="-810" font-family="sans" font-size="10.00" fill="#000000">sample: HD827sonic_2</text>
<text text-anchor="middle" x="1510.5" y="-799" font-family="sans" font-size="10.00" fill="#000000">tot_shards: 2</text>
</g>
<!-- 4&#45;&gt;1 -->
<g id="edge16" class="edge">
<title>4&#45;&gt;1</title>
<path fill="none" stroke="#c0c0c0" stroke-width="2" d="M1444.7771,-792.2511C1432.2675,-781.6923 1420.342,-769.4813 1411.5,-756 1388.796,-721.3835 1387.5,-707.3978 1387.5,-666 1387.5,-666 1387.5,-666 1387.5,-378 1387.5,-310.1993 1339.2351,-308.3294 1301.5,-252 1269.5293,-204.2755 1278.6058,-175.394 1230.5,-144 1184.4049,-113.9181 1022.2599,-98.2986 948.0663,-92.5888"/>
<polygon fill="#c0c0c0" stroke="#c0c0c0" stroke-width="2" points="948.0159,-89.0753 937.7821,-91.8177 947.4924,-96.0557 948.0159,-89.0753"/>
</g>
<!-- 47 -->
<g id="node48" class="node">
<title>47</title>
<path fill="none" stroke="#569ad8" stroke-width="2" d="M1595,-612C1595,-612 1466,-612 1466,-612 1460,-612 1454,-606 1454,-600 1454,-600 1454,-588 1454,-588 1454,-582 1460,-576 1466,-576 1466,-576 1595,-576 1595,-576 1601,-576 1607,-582 1607,-588 1607,-588 1607,-600 1607,-600 1607,-606 1601,-612 1595,-612"/>
<text text-anchor="middle" x="1530.5" y="-591.5" font-family="sans" font-size="10.00" fill="#000000">shard_saturated_reads_remove</text>
</g>
<!-- 4&#45;&gt;47 -->
<g id="edge84" class="edge">
<title>4&#45;&gt;47</title>
<path fill="none" stroke="#c0c0c0" stroke-width="2" d="M1514.0526,-791.7805C1518.121,-742.8569 1524.6717,-664.0855 1528.1513,-622.2427"/>
<polygon fill="#c0c0c0" stroke="#c0c0c0" stroke-width="2" points="1531.6457,-622.4548 1528.9866,-612.1991 1524.6698,-621.8746 1531.6457,-622.4548"/>
</g>
<!-- 49 -->
<g id="node50" class="node">
<title>49</title>
<path fill="none" stroke="#56d8c9" stroke-width="2" d="M1620,-756C1620,-756 1551,-756 1551,-756 1545,-756 1539,-750 1539,-744 1539,-744 1539,-732 1539,-732 1539,-726 1545,-720 1551,-720 1551,-720 1620,-720 1620,-720 1626,-720 1632,-726 1632,-732 1632,-732 1632,-744 1632,-744 1632,-750 1626,-756 1620,-756"/>
<text text-anchor="middle" x="1585.5" y="-735.5" font-family="sans" font-size="10.00" fill="#000000">shard_count_alns</text>
</g>
<!-- 4&#45;&gt;49 -->
<g id="edge88" class="edge">
<title>4&#45;&gt;49</title>
<path fill="none" stroke="#c0c0c0" stroke-width="2" d="M1543.6144,-791.8928C1550.9133,-782.5016 1558.4368,-772.8213 1565.0586,-764.3013"/>
<polygon fill="#c0c0c0" stroke="#c0c0c0" stroke-width="2" points="1567.9649,-766.2653 1571.338,-756.2218 1562.4379,-761.9697 1567.9649,-766.2653"/>
</g>
<!-- 5 -->
<g id="node6" class="node">
<title>5</title>
<path fill="none" stroke="#56d882" stroke-width="2" d="M449,-877C449,-877 342,-877 342,-877 336,-877 330,-871 330,-865 330,-865 330,-804 330,-804 330,-798 336,-792 342,-792 342,-792 449,-792 449,-792 455,-792 461,-798 461,-804 461,-804 461,-865 461,-865 461,-871 455,-877 449,-877"/>
<text text-anchor="middle" x="395.5" y="-865" font-family="sans" font-size="10.00" fill="#000000">shard_bowtie2</text>
<text text-anchor="middle" x="395.5" y="-854" font-family="sans" font-size="10.00" fill="#000000">library: lib1</text>
<text text-anchor="middle" x="395.5" y="-843" font-family="sans" font-size="10.00" fill="#000000">n_shard: 1</text>
<text text-anchor="middle" x="395.5" y="-832" font-family="sans" font-size="10.00" fill="#000000">read_type_map: collapsed</text>
<text text-anchor="middle" x="395.5" y="-821" font-family="sans" font-size="10.00" fill="#000000">ref: test</text>
<text text-anchor="middle" x="395.5" y="-810" font-family="sans" font-size="10.00" fill="#000000">sample: HD827sonic_1</text>
<text text-anchor="middle" x="395.5" y="-799" font-family="sans" font-size="10.00" fill="#000000">tot_shards: 2</text>
</g>
<!-- 5&#45;&gt;1 -->
<g id="edge17" class="edge">
<title>5&#45;&gt;1</title>
<path fill="none" stroke="#c0c0c0" stroke-width="2" d="M402.6702,-791.7948C411.9111,-740.0275 429.668,-650.4698 453.5,-576 517.002,-377.5699 473.8891,-275.4874 635.5,-144 653.8082,-129.1044 802.353,-105.7659 873.1865,-95.341"/>
<polygon fill="#c0c0c0" stroke="#c0c0c0" stroke-width="2" points="874.064,-98.75 883.4527,-93.8405 873.0516,-91.8236 874.064,-98.75"/>
</g>
<!-- 14 -->
<g id="node15" class="node">
<title>14</title>
<path fill="none" stroke="#569ad8" stroke-width="2" d="M355,-612C355,-612 226,-612 226,-612 220,-612 214,-606 214,-600 214,-600 214,-588 214,-588 214,-582 220,-576 226,-576 226,-576 355,-576 355,-576 361,-576 367,-582 367,-588 367,-588 367,-600 367,-600 367,-606 361,-612 355,-612"/>
<text text-anchor="middle" x="290.5" y="-591.5" font-family="sans" font-size="10.00" fill="#000000">shard_saturated_reads_remove</text>
</g>
<!-- 5&#45;&gt;14 -->
<g id="edge39" class="edge">
<title>5&#45;&gt;14</title>
<path fill="none" stroke="#c0c0c0" stroke-width="2" d="M392.859,-791.9801C390.4011,-769.8881 385.6567,-742.8144 376.5,-720 361.3219,-682.1831 333.3236,-644.3098 313.398,-620.108"/>
<polygon fill="#c0c0c0" stroke="#c0c0c0" stroke-width="2" points="315.8265,-617.5567 306.7209,-612.1402 310.4613,-622.0528 315.8265,-617.5567"/>
</g>
<!-- 16 -->
<g id="node17" class="node">
<title>16</title>
<path fill="none" stroke="#56d8c9" stroke-width="2" d="M355,-756C355,-756 286,-756 286,-756 280,-756 274,-750 274,-744 274,-744 274,-732 274,-732 274,-726 280,-720 286,-720 286,-720 355,-720 355,-720 361,-720 367,-726 367,-732 367,-732 367,-744 367,-744 367,-750 361,-756 355,-756"/>
<text text-anchor="middle" x="320.5" y="-735.5" font-family="sans" font-size="10.00" fill="#000000">shard_count_alns</text>
</g>
<!-- 5&#45;&gt;16 -->
<g id="edge43" class="edge">
<title>5&#45;&gt;16</title>
<path fill="none" stroke="#c0c0c0" stroke-width="2" d="M362.3856,-791.8928C355.0867,-782.5016 347.5632,-772.8213 340.9414,-764.3013"/>
<polygon fill="#c0c0c0" stroke="#c0c0c0" stroke-width="2" points="343.5621,-761.9697 334.662,-756.2218 338.0351,-766.2653 343.5621,-761.9697"/>
</g>
<!-- 6 -->
<g id="node7" class="node">
<title>6</title>
<path fill="none" stroke="#56d882" stroke-width="2" d="M1750,-877C1750,-877 1643,-877 1643,-877 1637,-877 1631,-871 1631,-865 1631,-865 1631,-804 1631,-804 1631,-798 1637,-792 1643,-792 1643,-792 1750,-792 1750,-792 1756,-792 1762,-798 1762,-804 1762,-804 1762,-865 1762,-865 1762,-871 1756,-877 1750,-877"/>
<text text-anchor="middle" x="1696.5" y="-865" font-family="sans" font-size="10.00" fill="#000000">shard_bowtie2</text>
<text text-anchor="middle" x="1696.5" y="-854" font-family="sans" font-size="10.00" fill="#000000">library: lib3</text>
<text text-anchor="middle" x="1696.5" y="-843" font-family="sans" font-size="10.00" fill="#000000">n_shard: 2</text>
<text text-anchor="middle" x="1696.5" y="-832" font-family="sans" font-size="10.00" fill="#000000">read_type_map: collapsed</text>
<text text-anchor="middle" x="1696.5" y="-821" font-family="sans" font-size="10.00" fill="#000000">ref: test</text>
<text text-anchor="middle" x="1696.5" y="-810" font-family="sans" font-size="10.00" fill="#000000">sample: HD827sonic_2</text>
<text text-anchor="middle" x="1696.5" y="-799" font-family="sans" font-size="10.00" fill="#000000">tot_shards: 2</text>
</g>
<!-- 6&#45;&gt;1 -->
<g id="edge18" class="edge">
<title>6&#45;&gt;1</title>
<path fill="none" stroke="#c0c0c0" stroke-width="2" d="M1630.8985,-808.5466C1550.6953,-774.7205 1425.5,-714.1994 1425.5,-666 1425.5,-666 1425.5,-666 1425.5,-378 1425.5,-329.926 1394.5729,-326.2868 1365.5,-288 1352.7309,-271.184 1347.3227,-268.7751 1334.5,-252 1299.3156,-205.9707 1310.4471,-174.9971 1261.5,-144 1209.7806,-111.2473 1027.0901,-96.8144 947.7435,-91.9879"/>
<polygon fill="#c0c0c0" stroke="#c0c0c0" stroke-width="2" points="947.8911,-88.4906 937.7022,-91.3951 947.4785,-95.4785 947.8911,-88.4906"/>
</g>
<!-- 50 -->
<g id="node51" class="node">
<title>50</title>
<path fill="none" stroke="#56d8c9" stroke-width="2" d="M1731,-756C1731,-756 1662,-756 1662,-756 1656,-756 1650,-750 1650,-744 1650,-744 1650,-732 1650,-732 1650,-726 1656,-720 1662,-720 1662,-720 1731,-720 1731,-720 1737,-720 1743,-726 1743,-732 1743,-732 1743,-744 1743,-744 1743,-750 1737,-756 1731,-756"/>
<text text-anchor="middle" x="1696.5" y="-735.5" font-family="sans" font-size="10.00" fill="#000000">shard_count_alns</text>
</g>
<!-- 6&#45;&gt;50 -->
<g id="edge89" class="edge">
<title>6&#45;&gt;50</title>
<path fill="none" stroke="#c0c0c0" stroke-width="2" d="M1696.5,-791.8928C1696.5,-783.2842 1696.5,-774.4327 1696.5,-766.4546"/>
<polygon fill="#c0c0c0" stroke="#c0c0c0" stroke-width="2" points="1700.0001,-766.2218 1696.5,-756.2218 1693.0001,-766.2218 1700.0001,-766.2218"/>
</g>
<!-- 53 -->
<g id="node54" class="node">
<title>53</title>
<path fill="none" stroke="#569ad8" stroke-width="2" d="M1853,-612C1853,-612 1724,-612 1724,-612 1718,-612 1712,-606 1712,-600 1712,-600 1712,-588 1712,-588 1712,-582 1718,-576 1724,-576 1724,-576 1853,-576 1853,-576 1859,-576 1865,-582 1865,-588 1865,-588 1865,-600 1865,-600 1865,-606 1859,-612 1853,-612"/>
<text text-anchor="middle" x="1788.5" y="-591.5" font-family="sans" font-size="10.00" fill="#000000">shard_saturated_reads_remove</text>
</g>
<!-- 6&#45;&gt;53 -->
<g id="edge92" class="edge">
<title>6&#45;&gt;53</title>
<path fill="none" stroke="#c0c0c0" stroke-width="2" d="M1731.4919,-791.9677C1739.3484,-780.7932 1746.9812,-768.3862 1752.5,-756 1772.2004,-711.7855 1781.5481,-655.8311 1785.6467,-622.5896"/>
<polygon fill="#c0c0c0" stroke="#c0c0c0" stroke-width="2" points="1789.1719,-622.5725 1786.8428,-612.2369 1782.2181,-621.7691 1789.1719,-622.5725"/>
</g>
<!-- 7 -->
<g id="node8" class="node">
<title>7</title>
<path fill="none" stroke="#56d882" stroke-width="2" d="M907,-877C907,-877 800,-877 800,-877 794,-877 788,-871 788,-865 788,-865 788,-804 788,-804 788,-798 794,-792 800,-792 800,-792 907,-792 907,-792 913,-792 919,-798 919,-804 919,-804 919,-865 919,-865 919,-871 913,-877 907,-877"/>
<text text-anchor="middle" x="853.5" y="-865" font-family="sans" font-size="10.00" fill="#000000">shard_bowtie2</text>
<text text-anchor="middle" x="853.5" y="-854" font-family="sans" font-size="10.00" fill="#000000">library: lib1</text>
<text text-anchor="middle" x="853.5" y="-843" font-family="sans" font-size="10.00" fill="#000000">n_shard: 1</text>
<text text-anchor="middle" x="853.5" y="-832" font-family="sans" font-size="10.00" fill="#000000">read_type_map: collapsed</text>
<text text-anchor="middle" x="853.5" y="-821" font-family="sans" font-size="10.00" fill="#000000">ref: test</text>
<text text-anchor="middle" x="853.5" y="-810" font-family="sans" font-size="10.00" fill="#000000">sample: HD827sonic_2</text>
<text text-anchor="middle" x="853.5" y="-799" font-family="sans" font-size="10.00" fill="#000000">tot_shards: 2</text>
</g>
<!-- 7&#45;&gt;1 -->
<g id="edge19" class="edge">
<title>7&#45;&gt;1</title>
<path fill="none" stroke="#c0c0c0" stroke-width="2" d="M868.6278,-791.8083C879.2248,-758.0983 891.5,-709.6328 891.5,-666 891.5,-666 891.5,-666 891.5,-234 891.5,-193.5282 898.968,-147.2037 904.54,-118.2725"/>
<polygon fill="#c0c0c0" stroke="#c0c0c0" stroke-width="2" points="908.0483,-118.5746 906.5632,-108.0844 901.1823,-117.2111 908.0483,-118.5746"/>
</g>
<!-- 25 -->
<g id="node26" class="node">
<title>25</title>
<path fill="none" stroke="#569ad8" stroke-width="2" d="M813,-612C813,-612 684,-612 684,-612 678,-612 672,-606 672,-600 672,-600 672,-588 672,-588 672,-582 678,-576 684,-576 684,-576 813,-576 813,-576 819,-576 825,-582 825,-588 825,-588 825,-600 825,-600 825,-606 819,-612 813,-612"/>
<text text-anchor="middle" x="748.5" y="-591.5" font-family="sans" font-size="10.00" fill="#000000">shard_saturated_reads_remove</text>
</g>
<!-- 7&#45;&gt;25 -->
<g id="edge54" class="edge">
<title>7&#45;&gt;25</title>
<path fill="none" stroke="#c0c0c0" stroke-width="2" d="M850.859,-791.9801C848.4011,-769.8881 843.6567,-742.8144 834.5,-720 819.3219,-682.1831 791.3236,-644.3098 771.398,-620.108"/>
<polygon fill="#c0c0c0" stroke="#c0c0c0" stroke-width="2" points="773.8265,-617.5567 764.7209,-612.1402 768.4613,-622.0528 773.8265,-617.5567"/>
</g>
<!-- 27 -->
<g id="node28" class="node">
<title>27</title>
<path fill="none" stroke="#56d8c9" stroke-width="2" d="M813,-756C813,-756 744,-756 744,-756 738,-756 732,-750 732,-744 732,-744 732,-732 732,-732 732,-726 738,-720 744,-720 744,-720 813,-720 813,-720 819,-720 825,-726 825,-732 825,-732 825,-744 825,-744 825,-750 819,-756 813,-756"/>
<text text-anchor="middle" x="778.5" y="-735.5" font-family="sans" font-size="10.00" fill="#000000">shard_count_alns</text>
</g>
<!-- 7&#45;&gt;27 -->
<g id="edge58" class="edge">
<title>7&#45;&gt;27</title>
<path fill="none" stroke="#c0c0c0" stroke-width="2" d="M820.3856,-791.8928C813.0867,-782.5016 805.5632,-772.8213 798.9414,-764.3013"/>
<polygon fill="#c0c0c0" stroke="#c0c0c0" stroke-width="2" points="801.5621,-761.9697 792.662,-756.2218 796.0351,-766.2653 801.5621,-761.9697"/>
</g>
<!-- 8 -->
<g id="node9" class="node">
<title>8</title>
<path fill="none" stroke="#56d882" stroke-width="2" d="M224,-877C224,-877 117,-877 117,-877 111,-877 105,-871 105,-865 105,-865 105,-804 105,-804 105,-798 111,-792 117,-792 117,-792 224,-792 224,-792 230,-792 236,-798 236,-804 236,-804 236,-865 236,-865 236,-871 230,-877 224,-877"/>
<text text-anchor="middle" x="170.5" y="-865" font-family="sans" font-size="10.00" fill="#000000">shard_bowtie2</text>
<text text-anchor="middle" x="170.5" y="-854" font-family="sans" font-size="10.00" fill="#000000">library: lib1</text>
<text text-anchor="middle" x="170.5" y="-843" font-family="sans" font-size="10.00" fill="#000000">n_shard: 2</text>
<text text-anchor="middle" x="170.5" y="-832" font-family="sans" font-size="10.00" fill="#000000">read_type_map: collapsed</text>
<text text-anchor="middle" x="170.5" y="-821" font-family="sans" font-size="10.00" fill="#000000">ref: test</text>
<text text-anchor="middle" x="170.5" y="-810" font-family="sans" font-size="10.00" fill="#000000">sample: HD827sonic_1</text>
<text text-anchor="middle" x="170.5" y="-799" font-family="sans" font-size="10.00" fill="#000000">tot_shards: 2</text>
</g>
<!-- 8&#45;&gt;1 -->
<g id="edge20" class="edge">
<title>8&#45;&gt;1</title>
<path fill="none" stroke="#c0c0c0" stroke-width="2" d="M203.9795,-791.9819C221.7231,-770.0136 244.2037,-743.0514 265.5,-720 312.2084,-669.4421 338.1858,-669.1821 376.5,-612 503.914,-421.8407 395.5342,-262.289 591.5,-144 615.4027,-129.5719 794.5949,-104.9828 873.4465,-94.7187"/>
<polygon fill="#c0c0c0" stroke="#c0c0c0" stroke-width="2" points="873.9697,-98.1803 883.4374,-93.4251 873.0707,-91.2382 873.9697,-98.1803"/>
</g>
<!-- 17 -->
<g id="node18" class="node">
<title>17</title>
<path fill="none" stroke="#56d8c9" stroke-width="2" d="M205,-756C205,-756 136,-756 136,-756 130,-756 124,-750 124,-744 124,-744 124,-732 124,-732 124,-726 130,-720 136,-720 136,-720 205,-720 205,-720 211,-720 217,-726 217,-732 217,-732 217,-744 217,-744 217,-750 211,-756 205,-756"/>
<text text-anchor="middle" x="170.5" y="-735.5" font-family="sans" font-size="10.00" fill="#000000">shard_count_alns</text>
</g>
<!-- 8&#45;&gt;17 -->
<g id="edge44" class="edge">
<title>8&#45;&gt;17</title>
<path fill="none" stroke="#c0c0c0" stroke-width="2" d="M170.5,-791.8928C170.5,-783.2842 170.5,-774.4327 170.5,-766.4546"/>
<polygon fill="#c0c0c0" stroke="#c0c0c0" stroke-width="2" points="174.0001,-766.2218 170.5,-756.2218 167.0001,-766.2218 174.0001,-766.2218"/>
</g>
<!-- 20 -->
<g id="node21" class="node">
<title>20</title>
<path fill="none" stroke="#569ad8" stroke-width="2" d="M141,-612C141,-612 12,-612 12,-612 6,-612 0,-606 0,-600 0,-600 0,-588 0,-588 0,-582 6,-576 12,-576 12,-576 141,-576 141,-576 147,-576 153,-582 153,-588 153,-588 153,-600 153,-600 153,-606 147,-612 141,-612"/>
<text text-anchor="middle" x="76.5" y="-591.5" font-family="sans" font-size="10.00" fill="#000000">shard_saturated_reads_remove</text>
</g>
<!-- 8&#45;&gt;20 -->
<g id="edge47" class="edge">
<title>8&#45;&gt;20</title>
<path fill="none" stroke="#c0c0c0" stroke-width="2" d="M135.6098,-791.922C127.7508,-780.7486 120.0914,-768.3536 114.5,-756 94.4,-711.5912 84.2878,-655.343 79.7294,-622.1566"/>
<polygon fill="#c0c0c0" stroke="#c0c0c0" stroke-width="2" points="83.1998,-621.7013 78.4389,-612.2364 76.2582,-622.6044 83.1998,-621.7013"/>
</g>
<!-- 9 -->
<g id="node10" class="node">
<title>9</title>
<path fill="none" stroke="#56d882" stroke-width="2" d="M1252,-877C1252,-877 1145,-877 1145,-877 1139,-877 1133,-871 1133,-865 1133,-865 1133,-804 1133,-804 1133,-798 1139,-792 1145,-792 1145,-792 1252,-792 1252,-792 1258,-792 1264,-798 1264,-804 1264,-804 1264,-865 1264,-865 1264,-871 1258,-877 1252,-877"/>
<text text-anchor="middle" x="1198.5" y="-865" font-family="sans" font-size="10.00" fill="#000000">shard_bowtie2</text>
<text text-anchor="middle" x="1198.5" y="-854" font-family="sans" font-size="10.00" fill="#000000">library: lib2</text>
<text text-anchor="middle" x="1198.5" y="-843" font-family="sans" font-size="10.00" fill="#000000">n_shard: 1</text>
<text text-anchor="middle" x="1198.5" y="-832" font-family="sans" font-size="10.00" fill="#000000">read_type_map: collapsed</text>
<text text-anchor="middle" x="1198.5" y="-821" font-family="sans" font-size="10.00" fill="#000000">ref: test</text>
<text text-anchor="middle" x="1198.5" y="-810" font-family="sans" font-size="10.00" fill="#000000">sample: HD827sonic_2</text>
<text text-anchor="middle" x="1198.5" y="-799" font-family="sans" font-size="10.00" fill="#000000">tot_shards: 2</text>
</g>
<!-- 9&#45;&gt;1 -->
<g id="edge21" class="edge">
<title>9&#45;&gt;1</title>
<path fill="none" stroke="#c0c0c0" stroke-width="2" d="M1132.6368,-812.2803C1100.2316,-799.2315 1061.9184,-780.4546 1032.5,-756 994.5564,-724.4587 967.5,-715.3413 967.5,-666 967.5,-666 967.5,-666 967.5,-234 967.5,-190.7597 945.0055,-145.0187 928.2788,-116.9832"/>
<polygon fill="#c0c0c0" stroke="#c0c0c0" stroke-width="2" points="931.0874,-114.8688 922.8682,-108.1834 925.1244,-118.5353 931.0874,-114.8688"/>
</g>
<!-- 36 -->
<g id="node37" class="node">
<title>36</title>
<path fill="none" stroke="#569ad8" stroke-width="2" d="M1347,-612C1347,-612 1218,-612 1218,-612 1212,-612 1206,-606 1206,-600 1206,-600 1206,-588 1206,-588 1206,-582 1212,-576 1218,-576 1218,-576 1347,-576 1347,-576 1353,-576 1359,-582 1359,-588 1359,-588 1359,-600 1359,-600 1359,-606 1353,-612 1347,-612"/>
<text text-anchor="middle" x="1282.5" y="-591.5" font-family="sans" font-size="10.00" fill="#000000">shard_saturated_reads_remove</text>
</g>
<!-- 9&#45;&gt;36 -->
<g id="edge69" class="edge">
<title>9&#45;&gt;36</title>
<path fill="none" stroke="#c0c0c0" stroke-width="2" d="M1234.1971,-791.732C1241.9383,-780.6601 1249.3415,-768.3594 1254.5,-756 1272.9702,-711.7471 1279.2569,-655.8047 1281.3964,-622.576"/>
<polygon fill="#c0c0c0" stroke="#c0c0c0" stroke-width="2" points="1284.9112,-622.4073 1281.9746,-612.2276 1277.9221,-622.0167 1284.9112,-622.4073"/>
</g>
<!-- 38 -->
<g id="node39" class="node">
<title>38</title>
<path fill="none" stroke="#56d8c9" stroke-width="2" d="M1233,-756C1233,-756 1164,-756 1164,-756 1158,-756 1152,-750 1152,-744 1152,-744 1152,-732 1152,-732 1152,-726 1158,-720 1164,-720 1164,-720 1233,-720 1233,-720 1239,-720 1245,-726 1245,-732 1245,-732 1245,-744 1245,-744 1245,-750 1239,-756 1233,-756"/>
<text text-anchor="middle" x="1198.5" y="-735.5" font-family="sans" font-size="10.00" fill="#000000">shard_count_alns</text>
</g>
<!-- 9&#45;&gt;38 -->
<g id="edge73" class="edge">
<title>9&#45;&gt;38</title>
<path fill="none" stroke="#c0c0c0" stroke-width="2" d="M1198.5,-791.8928C1198.5,-783.2842 1198.5,-774.4327 1198.5,-766.4546"/>
<polygon fill="#c0c0c0" stroke="#c0c0c0" stroke-width="2" points="1202.0001,-766.2218 1198.5,-756.2218 1195.0001,-766.2218 1202.0001,-766.2218"/>
</g>
<!-- 10 -->
<g id="node11" class="node">
<title>10</title>
<path fill="none" stroke="#ced856" stroke-width="2" d="M461.5,-180C461.5,-180 421.5,-180 421.5,-180 415.5,-180 409.5,-174 409.5,-168 409.5,-168 409.5,-156 409.5,-156 409.5,-150 415.5,-144 421.5,-144 421.5,-144 461.5,-144 461.5,-144 467.5,-144 473.5,-150 473.5,-156 473.5,-156 473.5,-168 473.5,-168 473.5,-174 467.5,-180 461.5,-180"/>
<text text-anchor="middle" x="441.5" y="-159.5" font-family="sans" font-size="10.00" fill="#000000">align_stats</text>
</g>
<!-- 10&#45;&gt;1 -->
<g id="edge22" class="edge">
<title>10&#45;&gt;1</title>
<path fill="none" stroke="#c0c0c0" stroke-width="2" d="M473.7363,-157.0511C557.9437,-144.1238 784.1525,-109.3966 873.482,-95.6829"/>
<polygon fill="#c0c0c0" stroke="#c0c0c0" stroke-width="2" points="874.0785,-99.1324 883.4316,-94.1555 873.0163,-92.2135 874.0785,-99.1324"/>
</g>
<!-- 11 -->
<g id="node12" class="node">
<title>11</title>
<path fill="none" stroke="#d88556" stroke-width="2" d="M384,-396C384,-396 339,-396 339,-396 333,-396 327,-390 327,-384 327,-384 327,-372 327,-372 327,-366 333,-360 339,-360 339,-360 384,-360 384,-360 390,-360 396,-366 396,-372 396,-372 396,-384 396,-384 396,-390 390,-396 384,-396"/>
<text text-anchor="middle" x="361.5" y="-375.5" font-family="sans" font-size="10.00" fill="#000000">align_merge</text>
</g>
<!-- 11&#45;&gt;10 -->
<g id="edge34" class="edge">
<title>11&#45;&gt;10</title>
<path fill="none" stroke="#c0c0c0" stroke-width="2" d="M381.6103,-359.7951C391.158,-350.0746 401.8978,-337.3735 408.5,-324 429.997,-280.4555 437.4933,-223.7088 440.1054,-190.23"/>
<polygon fill="#c0c0c0" stroke="#c0c0c0" stroke-width="2" points="443.5991,-190.4407 440.7934,-180.2241 436.6155,-189.9604 443.5991,-190.4407"/>
</g>
<!-- 55 -->
<g id="node56" class="node">
<title>55</title>
<path fill="none" stroke="#59d856" stroke-width="2" d="M387,-324C387,-324 336,-324 336,-324 330,-324 324,-318 324,-312 324,-312 324,-300 324,-300 324,-294 330,-288 336,-288 336,-288 387,-288 387,-288 393,-288 399,-294 399,-300 399,-300 399,-312 399,-312 399,-318 393,-324 387,-324"/>
<text text-anchor="middle" x="361.5" y="-303.5" font-family="sans" font-size="10.00" fill="#000000">metadmg_lca</text>
</g>
<!-- 11&#45;&gt;55 -->
<g id="edge95" class="edge">
<title>11&#45;&gt;55</title>
<path fill="none" stroke="#c0c0c0" stroke-width="2" d="M361.5,-359.8314C361.5,-352.131 361.5,-342.9743 361.5,-334.4166"/>
<polygon fill="#c0c0c0" stroke="#c0c0c0" stroke-width="2" points="365.0001,-334.4132 361.5,-324.4133 358.0001,-334.4133 365.0001,-334.4132"/>
</g>
<!-- 70 -->
<g id="node71" class="node">
<title>70</title>
<path fill="none" stroke="#88d856" stroke-width="2" d="M294,-324C294,-324 221,-324 221,-324 215,-324 209,-318 209,-312 209,-312 209,-300 209,-300 209,-294 215,-288 221,-288 221,-288 294,-288 294,-288 300,-288 306,-294 306,-300 306,-300 306,-312 306,-312 306,-318 300,-324 294,-324"/>
<text text-anchor="middle" x="257.5" y="-303.5" font-family="sans" font-size="10.00" fill="#000000">metadmg_damage</text>
</g>
<!-- 11&#45;&gt;70 -->
<g id="edge114" class="edge">
<title>11&#45;&gt;70</title>
<path fill="none" stroke="#c0c0c0" stroke-width="2" d="M335.2564,-359.8314C322.2005,-350.7927 306.2465,-339.7476 292.1953,-330.0198"/>
<polygon fill="#c0c0c0" stroke="#c0c0c0" stroke-width="2" points="293.9494,-326.9773 283.7352,-324.1628 289.9649,-332.7326 293.9494,-326.9773"/>
</g>
<!-- 12 -->
<g id="node13" class="node">
<title>12</title>
<path fill="none" stroke="#5682d8" stroke-width="2" d="M399.5,-468C399.5,-468 331.5,-468 331.5,-468 325.5,-468 319.5,-462 319.5,-456 319.5,-456 319.5,-444 319.5,-444 319.5,-438 325.5,-432 331.5,-432 331.5,-432 399.5,-432 399.5,-432 405.5,-432 411.5,-438 411.5,-444 411.5,-444 411.5,-456 411.5,-456 411.5,-462 405.5,-468 399.5,-468"/>
<text text-anchor="middle" x="365.5" y="-447.5" font-family="sans" font-size="10.00" fill="#000000">shard_sort_query</text>
</g>
<!-- 12&#45;&gt;11 -->
<g id="edge35" class="edge">
<title>12&#45;&gt;11</title>
<path fill="none" stroke="#c0c0c0" stroke-width="2" d="M364.4906,-431.8314C364.0628,-424.131 363.5541,-414.9743 363.0787,-406.4166"/>
<polygon fill="#c0c0c0" stroke="#c0c0c0" stroke-width="2" points="366.5724,-406.2037 362.523,-396.4133 359.5831,-406.592 366.5724,-406.2037"/>
</g>
<!-- 13 -->
<g id="node14" class="node">
<title>13</title>
<path fill="none" stroke="#566bd8" stroke-width="2" d="M382,-540C382,-540 329,-540 329,-540 323,-540 317,-534 317,-528 317,-528 317,-516 317,-516 317,-510 323,-504 329,-504 329,-504 382,-504 382,-504 388,-504 394,-510 394,-516 394,-516 394,-528 394,-528 394,-534 388,-540 382,-540"/>
<text text-anchor="middle" x="355.5" y="-519.5" font-family="sans" font-size="10.00" fill="#000000">shard_unicorn</text>
</g>
<!-- 13&#45;&gt;12 -->
<g id="edge37" class="edge">
<title>13&#45;&gt;12</title>
<path fill="none" stroke="#c0c0c0" stroke-width="2" d="M358.0234,-503.8314C359.0929,-496.131 360.3647,-486.9743 361.5532,-478.4166"/>
<polygon fill="#c0c0c0" stroke="#c0c0c0" stroke-width="2" points="365.0336,-478.7997 362.9426,-468.4133 358.1001,-477.8367 365.0336,-478.7997"/>
</g>
<!-- 14&#45;&gt;13 -->
<g id="edge38" class="edge">
<title>14&#45;&gt;13</title>
<path fill="none" stroke="#c0c0c0" stroke-width="2" d="M306.9022,-575.8314C314.5415,-567.3694 323.7683,-557.1489 332.1207,-547.8971"/>
<polygon fill="#c0c0c0" stroke="#c0c0c0" stroke-width="2" points="334.7738,-550.1813 338.8769,-540.4133 329.5779,-545.4906 334.7738,-550.1813"/>
</g>
<!-- 15 -->
<g id="node16" class="node">
<title>15</title>
<path fill="none" stroke="#56b1d8" stroke-width="2" d="M239.5,-684C239.5,-684 123.5,-684 123.5,-684 117.5,-684 111.5,-678 111.5,-672 111.5,-672 111.5,-660 111.5,-660 111.5,-654 117.5,-648 123.5,-648 123.5,-648 239.5,-648 239.5,-648 245.5,-648 251.5,-654 251.5,-660 251.5,-660 251.5,-672 251.5,-672 251.5,-678 245.5,-684 239.5,-684"/>
<text text-anchor="middle" x="181.5" y="-663.5" font-family="sans" font-size="10.00" fill="#000000">shard_saturated_reads_filter</text>
</g>
<!-- 15&#45;&gt;14 -->
<g id="edge40" class="edge">
<title>15&#45;&gt;14</title>
<path fill="none" stroke="#c0c0c0" stroke-width="2" d="M209.0053,-647.8314C222.818,-638.7074 239.7256,-627.539 254.5529,-617.7449"/>
<polygon fill="#c0c0c0" stroke="#c0c0c0" stroke-width="2" points="256.5886,-620.5949 263.0035,-612.1628 252.7304,-614.7541 256.5886,-620.5949"/>
</g>
<!-- 15&#45;&gt;20 -->
<g id="edge48" class="edge">
<title>15&#45;&gt;20</title>
<path fill="none" stroke="#c0c0c0" stroke-width="2" d="M155.0041,-647.8314C141.8226,-638.7927 125.7153,-627.7476 111.5289,-618.0198"/>
<polygon fill="#c0c0c0" stroke="#c0c0c0" stroke-width="2" points="113.2141,-614.9316 102.9875,-612.1628 109.2554,-620.7047 113.2141,-614.9316"/>
</g>
<!-- 66 -->
<g id="node67" class="node">
<title>66</title>
<path fill="none" stroke="#56c9d8" stroke-width="2" d="M179,-324C179,-324 52,-324 52,-324 46,-324 40,-318 40,-312 40,-312 40,-300 40,-300 40,-294 46,-288 52,-288 52,-288 179,-288 179,-288 185,-288 191,-294 191,-300 191,-300 191,-312 191,-312 191,-318 185,-324 179,-324"/>
<text text-anchor="middle" x="115.5" y="-303.5" font-family="sans" font-size="10.00" fill="#000000">shard_saturated_reads_extract</text>
</g>
<!-- 15&#45;&gt;66 -->
<g id="edge110" class="edge">
<title>15&#45;&gt;66</title>
<path fill="none" stroke="#c0c0c0" stroke-width="2" d="M181.5,-647.8146C181.5,-620.4983 181.5,-567.25 181.5,-522 181.5,-522 181.5,-522 181.5,-450 181.5,-405.829 155.5195,-360.3999 136.1593,-332.6791"/>
<polygon fill="#c0c0c0" stroke="#c0c0c0" stroke-width="2" points="138.8295,-330.3975 130.1475,-324.3251 133.1478,-334.4863 138.8295,-330.3975"/>
</g>
<!-- 16&#45;&gt;15 -->
<g id="edge41" class="edge">
<title>16&#45;&gt;15</title>
<path fill="none" stroke="#c0c0c0" stroke-width="2" d="M285.4244,-719.8314C267.2339,-710.4089 244.8342,-698.8062 225.494,-688.7883"/>
<polygon fill="#c0c0c0" stroke="#c0c0c0" stroke-width="2" points="227.0537,-685.6545 216.5643,-684.1628 223.834,-691.8701 227.0537,-685.6545"/>
</g>
<!-- 17&#45;&gt;15 -->
<g id="edge42" class="edge">
<title>17&#45;&gt;15</title>
<path fill="none" stroke="#c0c0c0" stroke-width="2" d="M173.2758,-719.8314C174.4522,-712.131 175.8511,-702.9743 177.1586,-694.4166"/>
<polygon fill="#c0c0c0" stroke="#c0c0c0" stroke-width="2" points="180.6364,-694.8272 178.6869,-684.4133 173.7167,-693.7699 180.6364,-694.8272"/>
</g>
<!-- 18 -->
<g id="node19" class="node">
<title>18</title>
<path fill="none" stroke="#5682d8" stroke-width="2" d="M289.5,-468C289.5,-468 221.5,-468 221.5,-468 215.5,-468 209.5,-462 209.5,-456 209.5,-456 209.5,-444 209.5,-444 209.5,-438 215.5,-432 221.5,-432 221.5,-432 289.5,-432 289.5,-432 295.5,-432 301.5,-438 301.5,-444 301.5,-444 301.5,-456 301.5,-456 301.5,-462 295.5,-468 289.5,-468"/>
<text text-anchor="middle" x="255.5" y="-447.5" font-family="sans" font-size="10.00" fill="#000000">shard_sort_query</text>
</g>
<!-- 18&#45;&gt;11 -->
<g id="edge36" class="edge">
<title>18&#45;&gt;11</title>
<path fill="none" stroke="#c0c0c0" stroke-width="2" d="M282.2483,-431.8314C295.5553,-422.7927 311.816,-411.7476 326.1375,-402.0198"/>
<polygon fill="#c0c0c0" stroke="#c0c0c0" stroke-width="2" points="328.4547,-404.677 334.7603,-396.1628 324.5215,-398.8864 328.4547,-404.677"/>
</g>
<!-- 19 -->
<g id="node20" class="node">
<title>19</title>
<path fill="none" stroke="#566bd8" stroke-width="2" d="M278,-540C278,-540 225,-540 225,-540 219,-540 213,-534 213,-528 213,-528 213,-516 213,-516 213,-510 219,-504 225,-504 225,-504 278,-504 278,-504 284,-504 290,-510 290,-516 290,-516 290,-528 290,-528 290,-534 284,-540 278,-540"/>
<text text-anchor="middle" x="251.5" y="-519.5" font-family="sans" font-size="10.00" fill="#000000">shard_unicorn</text>
</g>
<!-- 19&#45;&gt;18 -->
<g id="edge45" class="edge">
<title>19&#45;&gt;18</title>
<path fill="none" stroke="#c0c0c0" stroke-width="2" d="M252.5094,-503.8314C252.9372,-496.131 253.4459,-486.9743 253.9213,-478.4166"/>
<polygon fill="#c0c0c0" stroke="#c0c0c0" stroke-width="2" points="257.4169,-478.592 254.477,-468.4133 250.4276,-478.2037 257.4169,-478.592"/>
</g>
<!-- 20&#45;&gt;19 -->
<g id="edge46" class="edge">
<title>20&#45;&gt;19</title>
<path fill="none" stroke="#c0c0c0" stroke-width="2" d="M120.6599,-575.8314C145.7995,-565.4882 177.3247,-552.5178 203.1309,-541.9004"/>
<polygon fill="#c0c0c0" stroke="#c0c0c0" stroke-width="2" points="204.8,-544.9985 212.7161,-537.9568 202.1365,-538.5249 204.8,-544.9985"/>
</g>
<!-- 21 -->
<g id="node22" class="node">
<title>21</title>
<path fill="none" stroke="#ced856" stroke-width="2" d="M813.5,-252C813.5,-252 773.5,-252 773.5,-252 767.5,-252 761.5,-246 761.5,-240 761.5,-240 761.5,-228 761.5,-228 761.5,-222 767.5,-216 773.5,-216 773.5,-216 813.5,-216 813.5,-216 819.5,-216 825.5,-222 825.5,-228 825.5,-228 825.5,-240 825.5,-240 825.5,-246 819.5,-252 813.5,-252"/>
<text text-anchor="middle" x="793.5" y="-231.5" font-family="sans" font-size="10.00" fill="#000000">align_stats</text>
</g>
<!-- 21&#45;&gt;1 -->
<g id="edge23" class="edge">
<title>21&#45;&gt;1</title>
<path fill="none" stroke="#c0c0c0" stroke-width="2" d="M800.0363,-215.6836C807.5184,-196.4279 821.1497,-165.9402 839.5,-144 849.51,-132.0317 862.6379,-121.1199 874.8792,-112.2868"/>
<polygon fill="#c0c0c0" stroke="#c0c0c0" stroke-width="2" points="876.9582,-115.1041 883.163,-106.5163 872.9571,-109.3603 876.9582,-115.1041"/>
</g>
<!-- 22 -->
<g id="node23" class="node">
<title>22</title>
<path fill="none" stroke="#d88556" stroke-width="2" d="M688,-396C688,-396 643,-396 643,-396 637,-396 631,-390 631,-384 631,-384 631,-372 631,-372 631,-366 637,-360 643,-360 643,-360 688,-360 688,-360 694,-360 700,-366 700,-372 700,-372 700,-384 700,-384 700,-390 694,-396 688,-396"/>
<text text-anchor="middle" x="665.5" y="-375.5" font-family="sans" font-size="10.00" fill="#000000">align_merge</text>
</g>
<!-- 22&#45;&gt;21 -->
<g id="edge49" class="edge">
<title>22&#45;&gt;21</title>
<path fill="none" stroke="#c0c0c0" stroke-width="2" d="M681.7113,-359.7623C704.2168,-334.4436 745.0394,-288.5182 770.6333,-259.7251"/>
<polygon fill="#c0c0c0" stroke="#c0c0c0" stroke-width="2" points="773.3926,-261.889 777.4203,-252.0896 768.1607,-257.2385 773.3926,-261.889"/>
</g>
<!-- 57 -->
<g id="node58" class="node">
<title>57</title>
<path fill="none" stroke="#59d856" stroke-width="2" d="M691,-324C691,-324 640,-324 640,-324 634,-324 628,-318 628,-312 628,-312 628,-300 628,-300 628,-294 634,-288 640,-288 640,-288 691,-288 691,-288 697,-288 703,-294 703,-300 703,-300 703,-312 703,-312 703,-318 697,-324 691,-324"/>
<text text-anchor="middle" x="665.5" y="-303.5" font-family="sans" font-size="10.00" fill="#000000">metadmg_lca</text>
</g>
<!-- 22&#45;&gt;57 -->
<g id="edge97" class="edge">
<title>22&#45;&gt;57</title>
<path fill="none" stroke="#c0c0c0" stroke-width="2" d="M665.5,-359.8314C665.5,-352.131 665.5,-342.9743 665.5,-334.4166"/>
<polygon fill="#c0c0c0" stroke="#c0c0c0" stroke-width="2" points="669.0001,-334.4132 665.5,-324.4133 662.0001,-334.4133 669.0001,-334.4132"/>
</g>
<!-- 71 -->
<g id="node72" class="node">
<title>71</title>
<path fill="none" stroke="#88d856" stroke-width="2" d="M733,-108C733,-108 660,-108 660,-108 654,-108 648,-102 648,-96 648,-96 648,-84 648,-84 648,-78 654,-72 660,-72 660,-72 733,-72 733,-72 739,-72 745,-78 745,-84 745,-84 745,-96 745,-96 745,-102 739,-108 733,-108"/>
<text text-anchor="middle" x="696.5" y="-87.5" font-family="sans" font-size="10.00" fill="#000000">metadmg_damage</text>
</g>
<!-- 22&#45;&gt;71 -->
<g id="edge115" class="edge">
<title>22&#45;&gt;71</title>
<path fill="none" stroke="#c0c0c0" stroke-width="2" d="M644.1873,-359.7308C634.6866,-350.1756 624.521,-337.6372 619.5,-324 604.0392,-282.0082 596.3764,-219.4392 635.5,-144 641.2993,-132.8176 650.4466,-122.8801 659.9104,-114.6746"/>
<polygon fill="#c0c0c0" stroke="#c0c0c0" stroke-width="2" points="662.3199,-117.2263 667.8678,-108.2002 657.902,-111.7965 662.3199,-117.2263"/>
</g>
<!-- 23 -->
<g id="node24" class="node">
<title>23</title>
<path fill="none" stroke="#5682d8" stroke-width="2" d="M778.5,-468C778.5,-468 710.5,-468 710.5,-468 704.5,-468 698.5,-462 698.5,-456 698.5,-456 698.5,-444 698.5,-444 698.5,-438 704.5,-432 710.5,-432 710.5,-432 778.5,-432 778.5,-432 784.5,-432 790.5,-438 790.5,-444 790.5,-444 790.5,-456 790.5,-456 790.5,-462 784.5,-468 778.5,-468"/>
<text text-anchor="middle" x="744.5" y="-447.5" font-family="sans" font-size="10.00" fill="#000000">shard_sort_query</text>
</g>
<!-- 23&#45;&gt;22 -->
<g id="edge50" class="edge">
<title>23&#45;&gt;22</title>
<path fill="none" stroke="#c0c0c0" stroke-width="2" d="M724.565,-431.8314C715.0217,-423.1337 703.4401,-412.5783 693.0694,-403.1265"/>
<polygon fill="#c0c0c0" stroke="#c0c0c0" stroke-width="2" points="695.1772,-400.3121 685.4287,-396.1628 690.462,-405.4857 695.1772,-400.3121"/>
</g>
<!-- 24 -->
<g id="node25" class="node">
<title>24</title>
<path fill="none" stroke="#566bd8" stroke-width="2" d="M774,-540C774,-540 721,-540 721,-540 715,-540 709,-534 709,-528 709,-528 709,-516 709,-516 709,-510 715,-504 721,-504 721,-504 774,-504 774,-504 780,-504 786,-510 786,-516 786,-516 786,-528 786,-528 786,-534 780,-540 774,-540"/>
<text text-anchor="middle" x="747.5" y="-519.5" font-family="sans" font-size="10.00" fill="#000000">shard_unicorn</text>
</g>
<!-- 24&#45;&gt;23 -->
<g id="edge52" class="edge">
<title>24&#45;&gt;23</title>
<path fill="none" stroke="#c0c0c0" stroke-width="2" d="M746.743,-503.8314C746.4221,-496.131 746.0406,-486.9743 745.684,-478.4166"/>
<polygon fill="#c0c0c0" stroke="#c0c0c0" stroke-width="2" points="749.1806,-478.2589 745.2672,-468.4133 742.1867,-478.5503 749.1806,-478.2589"/>
</g>
<!-- 25&#45;&gt;24 -->
<g id="edge53" class="edge">
<title>25&#45;&gt;24</title>
<path fill="none" stroke="#c0c0c0" stroke-width="2" d="M748.2477,-575.8314C748.1407,-568.131 748.0135,-558.9743 747.8947,-550.4166"/>
<polygon fill="#c0c0c0" stroke="#c0c0c0" stroke-width="2" points="751.3944,-550.3637 747.7557,-540.4133 744.3951,-550.4609 751.3944,-550.3637"/>
</g>
<!-- 26 -->
<g id="node27" class="node">
<title>26</title>
<path fill="none" stroke="#56b1d8" stroke-width="2" d="M701.5,-684C701.5,-684 585.5,-684 585.5,-684 579.5,-684 573.5,-678 573.5,-672 573.5,-672 573.5,-660 573.5,-660 573.5,-654 579.5,-648 585.5,-648 585.5,-648 701.5,-648 701.5,-648 707.5,-648 713.5,-654 713.5,-660 713.5,-660 713.5,-672 713.5,-672 713.5,-678 707.5,-684 701.5,-684"/>
<text text-anchor="middle" x="643.5" y="-663.5" font-family="sans" font-size="10.00" fill="#000000">shard_saturated_reads_filter</text>
</g>
<!-- 26&#45;&gt;25 -->
<g id="edge55" class="edge">
<title>26&#45;&gt;25</title>
<path fill="none" stroke="#c0c0c0" stroke-width="2" d="M669.9959,-647.8314C683.1774,-638.7927 699.2847,-627.7476 713.4711,-618.0198"/>
<polygon fill="#c0c0c0" stroke="#c0c0c0" stroke-width="2" points="715.7446,-620.7047 722.0125,-612.1628 711.7859,-614.9316 715.7446,-620.7047"/>
</g>
<!-- 26&#45;&gt;31 -->
<g id="edge63" class="edge">
<title>26&#45;&gt;31</title>
<path fill="none" stroke="#c0c0c0" stroke-width="2" d="M617.0041,-647.8314C603.8226,-638.7927 587.7153,-627.7476 573.5289,-618.0198"/>
<polygon fill="#c0c0c0" stroke="#c0c0c0" stroke-width="2" points="575.2141,-614.9316 564.9875,-612.1628 571.2554,-620.7047 575.2141,-614.9316"/>
</g>
<!-- 67 -->
<g id="node68" class="node">
<title>67</title>
<path fill="none" stroke="#56c9d8" stroke-width="2" d="M589,-108C589,-108 462,-108 462,-108 456,-108 450,-102 450,-96 450,-96 450,-84 450,-84 450,-78 456,-72 462,-72 462,-72 589,-72 589,-72 595,-72 601,-78 601,-84 601,-84 601,-96 601,-96 601,-102 595,-108 589,-108"/>
<text text-anchor="middle" x="525.5" y="-87.5" font-family="sans" font-size="10.00" fill="#000000">shard_saturated_reads_extract</text>
</g>
<!-- 26&#45;&gt;67 -->
<g id="edge111" class="edge">
<title>26&#45;&gt;67</title>
<path fill="none" stroke="#c0c0c0" stroke-width="2" d="M643.5194,-647.9344C642.7181,-628.6126 638.9981,-597.8108 624.5,-576 608.9394,-552.5908 586.823,-564.1863 572.5,-540 489.9078,-400.5317 509.9268,-193.523 520.7982,-118.4745"/>
<polygon fill="#c0c0c0" stroke="#c0c0c0" stroke-width="2" points="524.2896,-118.7936 522.3225,-108.383 517.3681,-117.7481 524.2896,-118.7936"/>
</g>
<!-- 27&#45;&gt;26 -->
<g id="edge56" class="edge">
<title>27&#45;&gt;26</title>
<path fill="none" stroke="#c0c0c0" stroke-width="2" d="M744.4338,-719.8314C726.8467,-710.4516 705.2084,-698.9112 686.4832,-688.9244"/>
<polygon fill="#c0c0c0" stroke="#c0c0c0" stroke-width="2" points="688.0259,-685.7805 677.5553,-684.1628 684.7318,-691.957 688.0259,-685.7805"/>
</g>
<!-- 28&#45;&gt;26 -->
<g id="edge57" class="edge">
<title>28&#45;&gt;26</title>
<path fill="none" stroke="#c0c0c0" stroke-width="2" d="M632.2851,-719.8314C633.8894,-712.131 635.797,-702.9743 637.5799,-694.4166"/>
<polygon fill="#c0c0c0" stroke="#c0c0c0" stroke-width="2" points="641.0507,-694.9169 639.6639,-684.4133 634.1979,-693.4892 641.0507,-694.9169"/>
</g>
<!-- 29 -->
<g id="node30" class="node">
<title>29</title>
<path fill="none" stroke="#5682d8" stroke-width="2" d="M665.5,-468C665.5,-468 597.5,-468 597.5,-468 591.5,-468 585.5,-462 585.5,-456 585.5,-456 585.5,-444 585.5,-444 585.5,-438 591.5,-432 597.5,-432 597.5,-432 665.5,-432 665.5,-432 671.5,-432 677.5,-438 677.5,-444 677.5,-444 677.5,-456 677.5,-456 677.5,-462 671.5,-468 665.5,-468"/>
<text text-anchor="middle" x="631.5" y="-447.5" font-family="sans" font-size="10.00" fill="#000000">shard_sort_query</text>
</g>
<!-- 29&#45;&gt;22 -->
<g id="edge51" class="edge">
<title>29&#45;&gt;22</title>
<path fill="none" stroke="#c0c0c0" stroke-width="2" d="M640.0796,-431.8314C643.8358,-423.8771 648.3257,-414.369 652.4798,-405.5723"/>
<polygon fill="#c0c0c0" stroke="#c0c0c0" stroke-width="2" points="655.6996,-406.9503 656.8048,-396.4133 649.3699,-403.9612 655.6996,-406.9503"/>
</g>
<!-- 30 -->
<g id="node31" class="node">
<title>30</title>
<path fill="none" stroke="#566bd8" stroke-width="2" d="M646,-540C646,-540 593,-540 593,-540 587,-540 581,-534 581,-528 581,-528 581,-516 581,-516 581,-510 587,-504 593,-504 593,-504 646,-504 646,-504 652,-504 658,-510 658,-516 658,-516 658,-528 658,-528 658,-534 652,-540 646,-540"/>
<text text-anchor="middle" x="619.5" y="-519.5" font-family="sans" font-size="10.00" fill="#000000">shard_unicorn</text>
</g>
<!-- 30&#45;&gt;29 -->
<g id="edge60" class="edge">
<title>30&#45;&gt;29</title>
<path fill="none" stroke="#c0c0c0" stroke-width="2" d="M622.5281,-503.8314C623.8115,-496.131 625.3376,-486.9743 626.7639,-478.4166"/>
<polygon fill="#c0c0c0" stroke="#c0c0c0" stroke-width="2" points="630.2394,-478.8526 628.4311,-468.4133 623.3347,-477.7018 630.2394,-478.8526"/>
</g>
<!-- 31&#45;&gt;30 -->
<g id="edge61" class="edge">
<title>31&#45;&gt;30</title>
<path fill="none" stroke="#c0c0c0" stroke-width="2" d="M558.9397,-575.8314C568.8205,-567.0485 580.8324,-556.3712 591.545,-546.8489"/>
<polygon fill="#c0c0c0" stroke="#c0c0c0" stroke-width="2" points="593.918,-549.4224 599.0668,-540.1628 589.2674,-544.1906 593.918,-549.4224"/>
</g>
<!-- 32 -->
<g id="node33" class="node">
<title>32</title>
<path fill="none" stroke="#ced856" stroke-width="2" d="M1047.5,-180C1047.5,-180 1007.5,-180 1007.5,-180 1001.5,-180 995.5,-174 995.5,-168 995.5,-168 995.5,-156 995.5,-156 995.5,-150 1001.5,-144 1007.5,-144 1007.5,-144 1047.5,-144 1047.5,-144 1053.5,-144 1059.5,-150 1059.5,-156 1059.5,-156 1059.5,-168 1059.5,-168 1059.5,-174 1053.5,-180 1047.5,-180"/>
<text text-anchor="middle" x="1027.5" y="-159.5" font-family="sans" font-size="10.00" fill="#000000">align_stats</text>
</g>
<!-- 32&#45;&gt;1 -->
<g id="edge24" class="edge">
<title>32&#45;&gt;1</title>
<path fill="none" stroke="#c0c0c0" stroke-width="2" d="M997.976,-143.8314C982.3255,-134.2003 962.9734,-122.2913 946.4535,-112.1252"/>
<polygon fill="#c0c0c0" stroke="#c0c0c0" stroke-width="2" points="947.9596,-108.9424 937.6086,-106.6822 944.2909,-114.9041 947.9596,-108.9424"/>
</g>
<!-- 33 -->
<g id="node34" class="node">
<title>33</title>
<path fill="none" stroke="#d88556" stroke-width="2" d="M1134,-396C1134,-396 1089,-396 1089,-396 1083,-396 1077,-390 1077,-384 1077,-384 1077,-372 1077,-372 1077,-366 1083,-360 1089,-360 1089,-360 1134,-360 1134,-360 1140,-360 1146,-366 1146,-372 1146,-372 1146,-384 1146,-384 1146,-390 1140,-396 1134,-396"/>
<text text-anchor="middle" x="1111.5" y="-375.5" font-family="sans" font-size="10.00" fill="#000000">align_merge</text>
</g>
<!-- 33&#45;&gt;32 -->
<g id="edge64" class="edge">
<title>33&#45;&gt;32</title>
<path fill="none" stroke="#c0c0c0" stroke-width="2" d="M1091.9909,-359.6393C1082.6905,-349.879 1072.1664,-337.1895 1065.5,-324 1043.4525,-280.3791 1033.9494,-223.657 1030.0397,-190.2037"/>
<polygon fill="#c0c0c0" stroke="#c0c0c0" stroke-width="2" points="1033.5134,-189.7714 1028.958,-180.2059 1026.554,-190.5244 1033.5134,-189.7714"/>
</g>
<!-- 59 -->
<g id="node60" class="node">
<title>59</title>
<path fill="none" stroke="#59d856" stroke-width="2" d="M1137,-324C1137,-324 1086,-324 1086,-324 1080,-324 1074,-318 1074,-312 1074,-312 1074,-300 1074,-300 1074,-294 1080,-288 1086,-288 1086,-288 1137,-288 1137,-288 1143,-288 1149,-294 1149,-300 1149,-300 1149,-312 1149,-312 1149,-318 1143,-324 1137,-324"/>
<text text-anchor="middle" x="1111.5" y="-303.5" font-family="sans" font-size="10.00" fill="#000000">metadmg_lca</text>
</g>
<!-- 33&#45;&gt;59 -->
<g id="edge99" class="edge">
<title>33&#45;&gt;59</title>
<path fill="none" stroke="#c0c0c0" stroke-width="2" d="M1111.5,-359.8314C1111.5,-352.131 1111.5,-342.9743 1111.5,-334.4166"/>
<polygon fill="#c0c0c0" stroke="#c0c0c0" stroke-width="2" points="1115.0001,-334.4132 1111.5,-324.4133 1108.0001,-334.4133 1115.0001,-334.4132"/>
</g>
<!-- 72 -->
<g id="node73" class="node">
<title>72</title>
<path fill="none" stroke="#88d856" stroke-width="2" d="M1285,-108C1285,-108 1212,-108 1212,-108 1206,-108 1200,-102 1200,-96 1200,-96 1200,-84 1200,-84 1200,-78 1206,-72 1212,-72 1212,-72 1285,-72 1285,-72 1291,-72 1297,-78 1297,-84 1297,-84 1297,-96 1297,-96 1297,-102 1291,-108 1285,-108"/>
<text text-anchor="middle" x="1248.5" y="-87.5" font-family="sans" font-size="10.00" fill="#000000">metadmg_damage</text>
</g>
<!-- 33&#45;&gt;72 -->
<g id="edge116" class="edge">
<title>33&#45;&gt;72</title>
<path fill="none" stroke="#c0c0c0" stroke-width="2" d="M1129.263,-359.9495C1138.6316,-349.8764 1149.9266,-336.8067 1158.5,-324 1198.3055,-264.5397 1207.2781,-247.6812 1230.5,-180 1237.3843,-159.9355 1241.9762,-136.401 1244.7983,-118.4313"/>
<polygon fill="#c0c0c0" stroke="#c0c0c0" stroke-width="2" points="1248.2954,-118.7073 1246.2953,-108.303 1241.3707,-117.6837 1248.2954,-118.7073"/>
</g>
<!-- 34 -->
<g id="node35" class="node">
<title>34</title>
<path fill="none" stroke="#5682d8" stroke-width="2" d="M1185.5,-468C1185.5,-468 1117.5,-468 1117.5,-468 1111.5,-468 1105.5,-462 1105.5,-456 1105.5,-456 1105.5,-444 1105.5,-444 1105.5,-438 1111.5,-432 1117.5,-432 1117.5,-432 1185.5,-432 1185.5,-432 1191.5,-432 1197.5,-438 1197.5,-444 1197.5,-444 1197.5,-456 1197.5,-456 1197.5,-462 1191.5,-468 1185.5,-468"/>
<text text-anchor="middle" x="1151.5" y="-447.5" font-family="sans" font-size="10.00" fill="#000000">shard_sort_query</text>
</g>
<!-- 34&#45;&gt;33 -->
<g id="edge65" class="edge">
<title>34&#45;&gt;33</title>
<path fill="none" stroke="#c0c0c0" stroke-width="2" d="M1141.4063,-431.8314C1136.9403,-423.7925 1131.5925,-414.1666 1126.6621,-405.2918"/>
<polygon fill="#c0c0c0" stroke="#c0c0c0" stroke-width="2" points="1129.6456,-403.4551 1121.7296,-396.4133 1123.5265,-406.8546 1129.6456,-403.4551"/>
</g>
<!-- 35 -->
<g id="node36" class="node">
<title>35</title>
<path fill="none" stroke="#566bd8" stroke-width="2" d="M1180,-540C1180,-540 1127,-540 1127,-540 1121,-540 1115,-534 1115,-528 1115,-528 1115,-516 1115,-516 1115,-510 1121,-504 1127,-504 1127,-504 1180,-504 1180,-504 1186,-504 1192,-510 1192,-516 1192,-516 1192,-528 1192,-528 1192,-534 1186,-540 1180,-540"/>
<text text-anchor="middle" x="1153.5" y="-519.5" font-family="sans" font-size="10.00" fill="#000000">shard_unicorn</text>
</g>
<!-- 35&#45;&gt;34 -->
<g id="edge67" class="edge">
<title>35&#45;&gt;34</title>
<path fill="none" stroke="#c0c0c0" stroke-width="2" d="M1152.9953,-503.8314C1152.7814,-496.131 1152.5271,-486.9743 1152.2894,-478.4166"/>
<polygon fill="#c0c0c0" stroke="#c0c0c0" stroke-width="2" points="1155.7879,-478.3122 1152.0115,-468.4133 1148.7906,-478.5066 1155.7879,-478.3122"/>
</g>
<!-- 36&#45;&gt;35 -->
<g id="edge68" class="edge">
<title>36&#45;&gt;35</title>
<path fill="none" stroke="#c0c0c0" stroke-width="2" d="M1249.9479,-575.8314C1233.2952,-566.5368 1212.8415,-555.1208 1195.0615,-545.1971"/>
<polygon fill="#c0c0c0" stroke="#c0c0c0" stroke-width="2" points="1196.4795,-541.9803 1186.0417,-540.1628 1193.0679,-548.0927 1196.4795,-541.9803"/>
</g>
<!-- 37 -->
<g id="node38" class="node">
<title>37</title>
<path fill="none" stroke="#56b1d8" stroke-width="2" d="M1235.5,-684C1235.5,-684 1119.5,-684 1119.5,-684 1113.5,-684 1107.5,-678 1107.5,-672 1107.5,-672 1107.5,-660 1107.5,-660 1107.5,-654 1113.5,-648 1119.5,-648 1119.5,-648 1235.5,-648 1235.5,-648 1241.5,-648 1247.5,-654 1247.5,-660 1247.5,-660 1247.5,-672 1247.5,-672 1247.5,-678 1241.5,-684 1235.5,-684"/>
<text text-anchor="middle" x="1177.5" y="-663.5" font-family="sans" font-size="10.00" fill="#000000">shard_saturated_reads_filter</text>
</g>
<!-- 37&#45;&gt;36 -->
<g id="edge70" class="edge">
<title>37&#45;&gt;36</title>
<path fill="none" stroke="#c0c0c0" stroke-width="2" d="M1203.9959,-647.8314C1217.1774,-638.7927 1233.2847,-627.7476 1247.4711,-618.0198"/>
<polygon fill="#c0c0c0" stroke="#c0c0c0" stroke-width="2" points="1249.7446,-620.7047 1256.0125,-612.1628 1245.7859,-614.9316 1249.7446,-620.7047"/>
</g>
<!-- 37&#45;&gt;42 -->
<g id="edge78" class="edge">
<title>37&#45;&gt;42</title>
<path fill="none" stroke="#c0c0c0" stroke-width="2" d="M1151.0041,-647.8314C1137.8226,-638.7927 1121.7153,-627.7476 1107.5289,-618.0198"/>
<polygon fill="#c0c0c0" stroke="#c0c0c0" stroke-width="2" points="1109.2141,-614.9316 1098.9875,-612.1628 1105.2554,-620.7047 1109.2141,-614.9316"/>
</g>
<!-- 68 -->
<g id="node69" class="node">
<title>68</title>
<path fill="none" stroke="#56c9d8" stroke-width="2" d="M1321,-396C1321,-396 1194,-396 1194,-396 1188,-396 1182,-390 1182,-384 1182,-384 1182,-372 1182,-372 1182,-366 1188,-360 1194,-360 1194,-360 1321,-360 1321,-360 1327,-360 1333,-366 1333,-372 1333,-372 1333,-384 1333,-384 1333,-390 1327,-396 1321,-396"/>
<text text-anchor="middle" x="1257.5" y="-375.5" font-family="sans" font-size="10.00" fill="#000000">shard_saturated_reads_extract</text>
</g>
<!-- 37&#45;&gt;68 -->
<g id="edge112" class="edge">
<title>37&#45;&gt;68</title>
<path fill="none" stroke="#c0c0c0" stroke-width="2" d="M1181.0877,-647.9743C1184.8155,-629.7355 1191.0041,-600.7723 1197.5,-576 1213.531,-514.8656 1235.8703,-444.2302 1248.2726,-406.036"/>
<polygon fill="#c0c0c0" stroke="#c0c0c0" stroke-width="2" points="1251.7209,-406.7508 1251.4937,-396.1584 1245.0658,-404.5805 1251.7209,-406.7508"/>
</g>
<!-- 38&#45;&gt;37 -->
<g id="edge71" class="edge">
<title>38&#45;&gt;37</title>
<path fill="none" stroke="#c0c0c0" stroke-width="2" d="M1193.2008,-719.8314C1190.9302,-712.0463 1188.2254,-702.7729 1185.706,-694.1347"/>
<polygon fill="#c0c0c0" stroke="#c0c0c0" stroke-width="2" points="1189.0306,-693.0332 1182.8705,-684.4133 1182.3106,-694.9933 1189.0306,-693.0332"/>
</g>
<!-- 39&#45;&gt;37 -->
<g id="edge72" class="edge">
<title>39&#45;&gt;37</title>
<path fill="none" stroke="#c0c0c0" stroke-width="2" d="M1110.2108,-719.8314C1121.296,-710.9632 1134.7954,-700.1637 1146.7852,-690.5718"/>
<polygon fill="#c0c0c0" stroke="#c0c0c0" stroke-width="2" points="1149.1742,-693.1429 1154.7965,-684.1628 1144.8013,-687.6768 1149.1742,-693.1429"/>
</g>
<!-- 40 -->
<g id="node41" class="node">
<title>40</title>
<path fill="none" stroke="#5682d8" stroke-width="2" d="M1075.5,-468C1075.5,-468 1007.5,-468 1007.5,-468 1001.5,-468 995.5,-462 995.5,-456 995.5,-456 995.5,-444 995.5,-444 995.5,-438 1001.5,-432 1007.5,-432 1007.5,-432 1075.5,-432 1075.5,-432 1081.5,-432 1087.5,-438 1087.5,-444 1087.5,-444 1087.5,-456 1087.5,-456 1087.5,-462 1081.5,-468 1075.5,-468"/>
<text text-anchor="middle" x="1041.5" y="-447.5" font-family="sans" font-size="10.00" fill="#000000">shard_sort_query</text>
</g>
<!-- 40&#45;&gt;33 -->
<g id="edge66" class="edge">
<title>40&#45;&gt;33</title>
<path fill="none" stroke="#c0c0c0" stroke-width="2" d="M1059.164,-431.8314C1067.4732,-423.2848 1077.5264,-412.9443 1086.5918,-403.6198"/>
<polygon fill="#c0c0c0" stroke="#c0c0c0" stroke-width="2" points="1089.1369,-406.023 1093.5982,-396.4133 1084.1179,-401.1435 1089.1369,-406.023"/>
</g>
<!-- 41 -->
<g id="node42" class="node">
<title>41</title>
<path fill="none" stroke="#566bd8" stroke-width="2" d="M1078,-540C1078,-540 1025,-540 1025,-540 1019,-540 1013,-534 1013,-528 1013,-528 1013,-516 1013,-516 1013,-510 1019,-504 1025,-504 1025,-504 1078,-504 1078,-504 1084,-504 1090,-510 1090,-516 1090,-516 1090,-528 1090,-528 1090,-534 1084,-540 1078,-540"/>
<text text-anchor="middle" x="1051.5" y="-519.5" font-family="sans" font-size="10.00" fill="#000000">shard_unicorn</text>
</g>
<!-- 41&#45;&gt;40 -->
<g id="edge75" class="edge">
<title>41&#45;&gt;40</title>
<path fill="none" stroke="#c0c0c0" stroke-width="2" d="M1048.9766,-503.8314C1047.9071,-496.131 1046.6353,-486.9743 1045.4468,-478.4166"/>
<polygon fill="#c0c0c0" stroke="#c0c0c0" stroke-width="2" points="1048.8999,-477.8367 1044.0574,-468.4133 1041.9664,-478.7997 1048.8999,-477.8367"/>
</g>
<!-- 42&#45;&gt;41 -->
<g id="edge76" class="edge">
<title>42&#45;&gt;41</title>
<path fill="none" stroke="#c0c0c0" stroke-width="2" d="M1067.2008,-575.8314C1064.9302,-568.0463 1062.2254,-558.7729 1059.706,-550.1347"/>
<polygon fill="#c0c0c0" stroke="#c0c0c0" stroke-width="2" points="1063.0306,-549.0332 1056.8705,-540.4133 1056.3106,-550.9933 1063.0306,-549.0332"/>
</g>
<!-- 43 -->
<g id="node44" class="node">
<title>43</title>
<path fill="none" stroke="#ced856" stroke-width="2" d="M1395.5,-252C1395.5,-252 1355.5,-252 1355.5,-252 1349.5,-252 1343.5,-246 1343.5,-240 1343.5,-240 1343.5,-228 1343.5,-228 1343.5,-222 1349.5,-216 1355.5,-216 1355.5,-216 1395.5,-216 1395.5,-216 1401.5,-216 1407.5,-222 1407.5,-228 1407.5,-228 1407.5,-240 1407.5,-240 1407.5,-246 1401.5,-252 1395.5,-252"/>
<text text-anchor="middle" x="1375.5" y="-231.5" font-family="sans" font-size="10.00" fill="#000000">align_stats</text>
</g>
<!-- 43&#45;&gt;1 -->
<g id="edge25" class="edge">
<title>43&#45;&gt;1</title>
<path fill="none" stroke="#c0c0c0" stroke-width="2" d="M1366.0072,-215.6635C1354.0293,-194.5647 1331.3367,-160.6873 1301.5,-144 1241.2162,-110.2841 1033.4142,-96.1829 947.808,-91.7119"/>
<polygon fill="#c0c0c0" stroke="#c0c0c0" stroke-width="2" points="947.9181,-88.2131 937.7536,-91.202 947.5635,-95.2041 947.9181,-88.2131"/>
</g>
<!-- 44 -->
<g id="node45" class="node">
<title>44</title>
<path fill="none" stroke="#d88556" stroke-width="2" d="M1561,-396C1561,-396 1516,-396 1516,-396 1510,-396 1504,-390 1504,-384 1504,-384 1504,-372 1504,-372 1504,-366 1510,-360 1516,-360 1516,-360 1561,-360 1561,-360 1567,-360 1573,-366 1573,-372 1573,-372 1573,-384 1573,-384 1573,-390 1567,-396 1561,-396"/>
<text text-anchor="middle" x="1538.5" y="-375.5" font-family="sans" font-size="10.00" fill="#000000">align_merge</text>
</g>
<!-- 44&#45;&gt;43 -->
<g id="edge79" class="edge">
<title>44&#45;&gt;43</title>
<path fill="none" stroke="#c0c0c0" stroke-width="2" d="M1518.9703,-359.8541C1499.1398,-341.5219 1467.4573,-312.4876 1439.5,-288 1428.4325,-278.306 1416.1134,-267.8374 1405.2621,-258.7216"/>
<polygon fill="#c0c0c0" stroke="#c0c0c0" stroke-width="2" points="1407.2089,-255.7867 1397.2951,-252.0495 1402.7146,-261.1534 1407.2089,-255.7867"/>
</g>
<!-- 61 -->
<g id="node62" class="node">
<title>61</title>
<path fill="none" stroke="#59d856" stroke-width="2" d="M1564,-324C1564,-324 1513,-324 1513,-324 1507,-324 1501,-318 1501,-312 1501,-312 1501,-300 1501,-300 1501,-294 1507,-288 1513,-288 1513,-288 1564,-288 1564,-288 1570,-288 1576,-294 1576,-300 1576,-300 1576,-312 1576,-312 1576,-318 1570,-324 1564,-324"/>
<text text-anchor="middle" x="1538.5" y="-303.5" font-family="sans" font-size="10.00" fill="#000000">metadmg_lca</text>
</g>
<!-- 44&#45;&gt;61 -->
<g id="edge101" class="edge">
<title>44&#45;&gt;61</title>
<path fill="none" stroke="#c0c0c0" stroke-width="2" d="M1538.5,-359.8314C1538.5,-352.131 1538.5,-342.9743 1538.5,-334.4166"/>
<polygon fill="#c0c0c0" stroke="#c0c0c0" stroke-width="2" points="1542.0001,-334.4132 1538.5,-324.4133 1535.0001,-334.4133 1542.0001,-334.4132"/>
</g>
<!-- 73 -->
<g id="node74" class="node">
<title>73</title>
<path fill="none" stroke="#88d856" stroke-width="2" d="M1612,-108C1612,-108 1539,-108 1539,-108 1533,-108 1527,-102 1527,-96 1527,-96 1527,-84 1527,-84 1527,-78 1533,-72 1539,-72 1539,-72 1612,-72 1612,-72 1618,-72 1624,-78 1624,-84 1624,-84 1624,-96 1624,-96 1624,-102 1618,-108 1612,-108"/>
<text text-anchor="middle" x="1575.5" y="-87.5" font-family="sans" font-size="10.00" fill="#000000">metadmg_damage</text>
</g>
<!-- 44&#45;&gt;73 -->
<g id="edge117" class="edge">
<title>44&#45;&gt;73</title>
<path fill="none" stroke="#c0c0c0" stroke-width="2" d="M1560.2672,-359.8165C1569.9723,-350.2816 1580.3597,-337.7355 1585.5,-324 1611.8223,-253.6639 1594.9587,-163.0194 1583.522,-117.9799"/>
<polygon fill="#c0c0c0" stroke="#c0c0c0" stroke-width="2" points="1586.8397,-116.835 1580.9011,-108.061 1580.072,-118.6233 1586.8397,-116.835"/>
</g>
<!-- 45 -->
<g id="node46" class="node">
<title>45</title>
<path fill="none" stroke="#5682d8" stroke-width="2" d="M1533.5,-468C1533.5,-468 1465.5,-468 1465.5,-468 1459.5,-468 1453.5,-462 1453.5,-456 1453.5,-456 1453.5,-444 1453.5,-444 1453.5,-438 1459.5,-432 1465.5,-432 1465.5,-432 1533.5,-432 1533.5,-432 1539.5,-432 1545.5,-438 1545.5,-444 1545.5,-444 1545.5,-456 1545.5,-456 1545.5,-462 1539.5,-468 1533.5,-468"/>
<text text-anchor="middle" x="1499.5" y="-447.5" font-family="sans" font-size="10.00" fill="#000000">shard_sort_query</text>
</g>
<!-- 45&#45;&gt;44 -->
<g id="edge80" class="edge">
<title>45&#45;&gt;44</title>
<path fill="none" stroke="#c0c0c0" stroke-width="2" d="M1509.3413,-431.8314C1513.6957,-423.7925 1518.9098,-414.1666 1523.7169,-405.2918"/>
<polygon fill="#c0c0c0" stroke="#c0c0c0" stroke-width="2" points="1526.8408,-406.8732 1528.5261,-396.4133 1520.6857,-403.5392 1526.8408,-406.8732"/>
</g>
<!-- 46 -->
<g id="node47" class="node">
<title>46</title>
<path fill="none" stroke="#566bd8" stroke-width="2" d="M1534,-540C1534,-540 1481,-540 1481,-540 1475,-540 1469,-534 1469,-528 1469,-528 1469,-516 1469,-516 1469,-510 1475,-504 1481,-504 1481,-504 1534,-504 1534,-504 1540,-504 1546,-510 1546,-516 1546,-516 1546,-528 1546,-528 1546,-534 1540,-540 1534,-540"/>
<text text-anchor="middle" x="1507.5" y="-519.5" font-family="sans" font-size="10.00" fill="#000000">shard_unicorn</text>
</g>
<!-- 46&#45;&gt;45 -->
<g id="edge82" class="edge">
<title>46&#45;&gt;45</title>
<path fill="none" stroke="#c0c0c0" stroke-width="2" d="M1505.4813,-503.8314C1504.6257,-496.131 1503.6083,-486.9743 1502.6574,-478.4166"/>
<polygon fill="#c0c0c0" stroke="#c0c0c0" stroke-width="2" points="1506.1289,-477.9656 1501.5459,-468.4133 1499.1717,-478.7386 1506.1289,-477.9656"/>
</g>
<!-- 47&#45;&gt;46 -->
<g id="edge83" class="edge">
<title>47&#45;&gt;46</title>
<path fill="none" stroke="#c0c0c0" stroke-width="2" d="M1524.6961,-575.8314C1522.2092,-568.0463 1519.2469,-558.7729 1516.4875,-550.1347"/>
<polygon fill="#c0c0c0" stroke="#c0c0c0" stroke-width="2" points="1519.7591,-548.874 1513.382,-540.4133 1513.091,-551.0041 1519.7591,-548.874"/>
</g>
<!-- 48 -->
<g id="node49" class="node">
<title>48</title>
<path fill="none" stroke="#56b1d8" stroke-width="2" d="M1741.5,-684C1741.5,-684 1625.5,-684 1625.5,-684 1619.5,-684 1613.5,-678 1613.5,-672 1613.5,-672 1613.5,-660 1613.5,-660 1613.5,-654 1619.5,-648 1625.5,-648 1625.5,-648 1741.5,-648 1741.5,-648 1747.5,-648 1753.5,-654 1753.5,-660 1753.5,-660 1753.5,-672 1753.5,-672 1753.5,-678 1747.5,-684 1741.5,-684"/>
<text text-anchor="middle" x="1683.5" y="-663.5" font-family="sans" font-size="10.00" fill="#000000">shard_saturated_reads_filter</text>
</g>
<!-- 48&#45;&gt;47 -->
<g id="edge85" class="edge">
<title>48&#45;&gt;47</title>
<path fill="none" stroke="#c0c0c0" stroke-width="2" d="M1644.8916,-647.8314C1624.6107,-638.2874 1599.5762,-626.5065 1578.1029,-616.4013"/>
<polygon fill="#c0c0c0" stroke="#c0c0c0" stroke-width="2" points="1579.3692,-613.1291 1568.8307,-612.038 1576.3886,-619.4629 1579.3692,-613.1291"/>
</g>
<!-- 48&#45;&gt;53 -->
<g id="edge93" class="edge">
<title>48&#45;&gt;53</title>
<path fill="none" stroke="#c0c0c0" stroke-width="2" d="M1709.9959,-647.8314C1723.1774,-638.7927 1739.2847,-627.7476 1753.4711,-618.0198"/>
<polygon fill="#c0c0c0" stroke="#c0c0c0" stroke-width="2" points="1755.7446,-620.7047 1762.0125,-612.1628 1751.7859,-614.9316 1755.7446,-620.7047"/>
</g>
<!-- 69 -->
<g id="node70" class="node">
<title>69</title>
<path fill="none" stroke="#56c9d8" stroke-width="2" d="M1740,-396C1740,-396 1613,-396 1613,-396 1607,-396 1601,-390 1601,-384 1601,-384 1601,-372 1601,-372 1601,-366 1607,-360 1613,-360 1613,-360 1740,-360 1740,-360 1746,-360 1752,-366 1752,-372 1752,-372 1752,-384 1752,-384 1752,-390 1746,-396 1740,-396"/>
<text text-anchor="middle" x="1676.5" y="-375.5" font-family="sans" font-size="10.00" fill="#000000">shard_saturated_reads_extract</text>
</g>
<!-- 48&#45;&gt;69 -->
<g id="edge113" class="edge">
<title>48&#45;&gt;69</title>
<path fill="none" stroke="#c0c0c0" stroke-width="2" d="M1683.0621,-647.9843C1681.8787,-599.2939 1678.6096,-464.7961 1677.1819,-406.0573"/>
<polygon fill="#c0c0c0" stroke="#c0c0c0" stroke-width="2" points="1680.6798,-405.9208 1676.9377,-396.0089 1673.6818,-406.091 1680.6798,-405.9208"/>
</g>
<!-- 49&#45;&gt;48 -->
<g id="edge86" class="edge">
<title>49&#45;&gt;48</title>
<path fill="none" stroke="#c0c0c0" stroke-width="2" d="M1610.2295,-719.8314C1622.4162,-710.8779 1637.2823,-699.9558 1650.4312,-690.2955"/>
<polygon fill="#c0c0c0" stroke="#c0c0c0" stroke-width="2" points="1652.7918,-692.9042 1658.7784,-684.1628 1648.6473,-687.263 1652.7918,-692.9042"/>
</g>
<!-- 50&#45;&gt;48 -->
<g id="edge87" class="edge">
<title>50&#45;&gt;48</title>
<path fill="none" stroke="#c0c0c0" stroke-width="2" d="M1693.2196,-719.8314C1691.8292,-712.131 1690.1759,-702.9743 1688.6308,-694.4166"/>
<polygon fill="#c0c0c0" stroke="#c0c0c0" stroke-width="2" points="1692.0458,-693.6322 1686.8246,-684.4133 1685.1572,-694.8761 1692.0458,-693.6322"/>
</g>
<!-- 51 -->
<g id="node52" class="node">
<title>51</title>
<path fill="none" stroke="#5682d8" stroke-width="2" d="M1643.5,-468C1643.5,-468 1575.5,-468 1575.5,-468 1569.5,-468 1563.5,-462 1563.5,-456 1563.5,-456 1563.5,-444 1563.5,-444 1563.5,-438 1569.5,-432 1575.5,-432 1575.5,-432 1643.5,-432 1643.5,-432 1649.5,-432 1655.5,-438 1655.5,-444 1655.5,-444 1655.5,-456 1655.5,-456 1655.5,-462 1649.5,-468 1643.5,-468"/>
<text text-anchor="middle" x="1609.5" y="-447.5" font-family="sans" font-size="10.00" fill="#000000">shard_sort_query</text>
</g>
<!-- 51&#45;&gt;44 -->
<g id="edge81" class="edge">
<title>51&#45;&gt;44</title>
<path fill="none" stroke="#c0c0c0" stroke-width="2" d="M1591.5837,-431.8314C1583.1558,-423.2848 1572.959,-412.9443 1563.764,-403.6198"/>
<polygon fill="#c0c0c0" stroke="#c0c0c0" stroke-width="2" points="1566.1711,-401.0761 1556.6575,-396.4133 1561.1869,-405.9912 1566.1711,-401.0761"/>
</g>
<!-- 52 -->
<g id="node53" class="node">
<title>52</title>
<path fill="none" stroke="#566bd8" stroke-width="2" d="M1640,-540C1640,-540 1587,-540 1587,-540 1581,-540 1575,-534 1575,-528 1575,-528 1575,-516 1575,-516 1575,-510 1581,-504 1587,-504 1587,-504 1640,-504 1640,-504 1646,-504 1652,-510 1652,-516 1652,-516 1652,-528 1652,-528 1652,-534 1646,-540 1640,-540"/>
<text text-anchor="middle" x="1613.5" y="-519.5" font-family="sans" font-size="10.00" fill="#000000">shard_unicorn</text>
</g>
<!-- 52&#45;&gt;51 -->
<g id="edge90" class="edge">
<title>52&#45;&gt;51</title>
<path fill="none" stroke="#c0c0c0" stroke-width="2" d="M1612.4906,-503.8314C1612.0628,-496.131 1611.5541,-486.9743 1611.0787,-478.4166"/>
<polygon fill="#c0c0c0" stroke="#c0c0c0" stroke-width="2" points="1614.5724,-478.2037 1610.523,-468.4133 1607.5831,-478.592 1614.5724,-478.2037"/>
</g>
<!-- 53&#45;&gt;52 -->
<g id="edge91" class="edge">
<title>53&#45;&gt;52</title>
<path fill="none" stroke="#c0c0c0" stroke-width="2" d="M1744.3401,-575.8314C1719.2005,-565.4882 1687.6753,-552.5178 1661.8691,-541.9004"/>
<polygon fill="#c0c0c0" stroke="#c0c0c0" stroke-width="2" points="1662.8635,-538.5249 1652.2839,-537.9568 1660.2,-544.9985 1662.8635,-538.5249"/>
</g>
<!-- 54 -->
<g id="node55" class="node">
<title>54</title>
<path fill="none" stroke="#70d856" stroke-width="2" d="M387.5,-252C387.5,-252 335.5,-252 335.5,-252 329.5,-252 323.5,-246 323.5,-240 323.5,-240 323.5,-228 323.5,-228 323.5,-222 329.5,-216 335.5,-216 335.5,-216 387.5,-216 387.5,-216 393.5,-216 399.5,-222 399.5,-228 399.5,-228 399.5,-240 399.5,-240 399.5,-246 393.5,-252 387.5,-252"/>
<text text-anchor="middle" x="361.5" y="-231.5" font-family="sans" font-size="10.00" fill="#000000">metadmg_dfit</text>
</g>
<!-- 54&#45;&gt;1 -->
<g id="edge26" class="edge">
<title>54&#45;&gt;1</title>
<path fill="none" stroke="#c0c0c0" stroke-width="2" d="M363.9037,-215.7692C367.7167,-194.7722 377.2733,-160.9925 400.5,-144 464.3172,-97.3116 675.8893,-116.532 754.5,-108 795.1664,-103.5863 841.7507,-98.1632 873.3471,-94.43"/>
<polygon fill="#c0c0c0" stroke="#c0c0c0" stroke-width="2" points="873.9386,-97.8845 883.4576,-93.2327 873.1153,-90.9331 873.9386,-97.8845"/>
</g>
<!-- 62 -->
<g id="node63" class="node">
<title>62</title>
<path fill="none" stroke="#9fd856" stroke-width="2" d="M341,-180C341,-180 260,-180 260,-180 254,-180 248,-174 248,-168 248,-168 248,-156 248,-156 248,-150 254,-144 260,-144 260,-144 341,-144 341,-144 347,-144 353,-150 353,-156 353,-156 353,-168 353,-168 353,-174 347,-180 341,-180"/>
<text text-anchor="middle" x="300.5" y="-159.5" font-family="sans" font-size="10.00" fill="#000000">metadmg_aggregate</text>
</g>
<!-- 54&#45;&gt;62 -->
<g id="edge103" class="edge">
<title>54&#45;&gt;62</title>
<path fill="none" stroke="#c0c0c0" stroke-width="2" d="M346.1071,-215.8314C339.0096,-207.454 330.452,-197.3531 322.676,-188.1749"/>
<polygon fill="#c0c0c0" stroke="#c0c0c0" stroke-width="2" points="325.2348,-185.7807 316.1001,-180.4133 319.8939,-190.3056 325.2348,-185.7807"/>
</g>
<!-- 55&#45;&gt;54 -->
<g id="edge94" class="edge">
<title>55&#45;&gt;54</title>
<path fill="none" stroke="#c0c0c0" stroke-width="2" d="M361.5,-287.8314C361.5,-280.131 361.5,-270.9743 361.5,-262.4166"/>
<polygon fill="#c0c0c0" stroke="#c0c0c0" stroke-width="2" points="365.0001,-262.4132 361.5,-252.4133 358.0001,-262.4133 365.0001,-262.4132"/>
</g>
<!-- 55&#45;&gt;62 -->
<g id="edge102" class="edge">
<title>55&#45;&gt;62</title>
<path fill="none" stroke="#c0c0c0" stroke-width="2" d="M341.1242,-287.9224C331.5088,-278.2343 320.7886,-265.5238 314.5,-252 305.4708,-232.5825 302.0767,-208.5235 300.8825,-190.1673"/>
<polygon fill="#c0c0c0" stroke="#c0c0c0" stroke-width="2" points="304.3749,-189.9206 300.4076,-180.0966 297.3826,-190.2504 304.3749,-189.9206"/>
</g>
<!-- 56 -->
<g id="node57" class="node">
<title>56</title>
<path fill="none" stroke="#70d856" stroke-width="2" d="M731.5,-252C731.5,-252 679.5,-252 679.5,-252 673.5,-252 667.5,-246 667.5,-240 667.5,-240 667.5,-228 667.5,-228 667.5,-222 673.5,-216 679.5,-216 679.5,-216 731.5,-216 731.5,-216 737.5,-216 743.5,-222 743.5,-228 743.5,-228 743.5,-240 743.5,-240 743.5,-246 737.5,-252 731.5,-252"/>
<text text-anchor="middle" x="705.5" y="-231.5" font-family="sans" font-size="10.00" fill="#000000">metadmg_dfit</text>
</g>
<!-- 56&#45;&gt;1 -->
<g id="edge27" class="edge">
<title>56&#45;&gt;1</title>
<path fill="none" stroke="#c0c0c0" stroke-width="2" d="M724.6876,-215.8613C745.4186,-196.7539 779.8773,-166.3889 812.5,-144 832.183,-130.4916 855.5518,-117.5086 874.532,-107.6595"/>
<polygon fill="#c0c0c0" stroke="#c0c0c0" stroke-width="2" points="876.1554,-110.7604 883.4616,-103.0876 872.9653,-104.5296 876.1554,-110.7604"/>
</g>
<!-- 63 -->
<g id="node64" class="node">
<title>63</title>
<path fill="none" stroke="#9fd856" stroke-width="2" d="M737,-180C737,-180 656,-180 656,-180 650,-180 644,-174 644,-168 644,-168 644,-156 644,-156 644,-150 650,-144 656,-144 656,-144 737,-144 737,-144 743,-144 749,-150 749,-156 749,-156 749,-168 749,-168 749,-174 743,-180 737,-180"/>
<text text-anchor="middle" x="696.5" y="-159.5" font-family="sans" font-size="10.00" fill="#000000">metadmg_aggregate</text>
</g>
<!-- 56&#45;&gt;63 -->
<g id="edge105" class="edge">
<title>56&#45;&gt;63</title>
<path fill="none" stroke="#c0c0c0" stroke-width="2" d="M703.2289,-215.8314C702.2664,-208.131 701.1218,-198.9743 700.0521,-190.4166"/>
<polygon fill="#c0c0c0" stroke="#c0c0c0" stroke-width="2" points="703.5151,-189.9019 698.8017,-180.4133 696.5691,-190.7702 703.5151,-189.9019"/>
</g>
<!-- 57&#45;&gt;56 -->
<g id="edge96" class="edge">
<title>57&#45;&gt;56</title>
<path fill="none" stroke="#c0c0c0" stroke-width="2" d="M675.5937,-287.8314C680.0597,-279.7925 685.4075,-270.1666 690.3379,-261.2918"/>
<polygon fill="#c0c0c0" stroke="#c0c0c0" stroke-width="2" points="693.4735,-262.8546 695.2704,-252.4133 687.3544,-259.4551 693.4735,-262.8546"/>
</g>
<!-- 57&#45;&gt;63 -->
<g id="edge104" class="edge">
<title>57&#45;&gt;63</title>
<path fill="none" stroke="#c0c0c0" stroke-width="2" d="M660.1773,-287.9549C655.6164,-269.4508 650.8843,-240.0555 658.5,-216 661.5815,-206.2664 667.1183,-196.7695 673.0289,-188.5228"/>
<polygon fill="#c0c0c0" stroke="#c0c0c0" stroke-width="2" points="675.931,-190.49 679.2365,-180.4239 670.3752,-186.2316 675.931,-190.49"/>
</g>
<!-- 58 -->
<g id="node59" class="node">
<title>58</title>
<path fill="none" stroke="#70d856" stroke-width="2" d="M1128.5,-252C1128.5,-252 1076.5,-252 1076.5,-252 1070.5,-252 1064.5,-246 1064.5,-240 1064.5,-240 1064.5,-228 1064.5,-228 1064.5,-222 1070.5,-216 1076.5,-216 1076.5,-216 1128.5,-216 1128.5,-216 1134.5,-216 1140.5,-222 1140.5,-228 1140.5,-228 1140.5,-240 1140.5,-240 1140.5,-246 1134.5,-252 1128.5,-252"/>
<text text-anchor="middle" x="1102.5" y="-231.5" font-family="sans" font-size="10.00" fill="#000000">metadmg_dfit</text>
</g>
<!-- 58&#45;&gt;1 -->
<g id="edge28" class="edge">
<title>58&#45;&gt;1</title>
<path fill="none" stroke="#c0c0c0" stroke-width="2" d="M1100.2939,-215.9668C1096.8998,-195.7936 1088.5357,-163.4069 1068.5,-144 1035.5248,-112.0596 982.8825,-98.9718 947.5254,-93.6348"/>
<polygon fill="#c0c0c0" stroke="#c0c0c0" stroke-width="2" points="947.9791,-90.1643 937.5957,-92.2702 947.0261,-97.0991 947.9791,-90.1643"/>
</g>
<!-- 64 -->
<g id="node65" class="node">
<title>64</title>
<path fill="none" stroke="#9fd856" stroke-width="2" d="M1209,-180C1209,-180 1128,-180 1128,-180 1122,-180 1116,-174 1116,-168 1116,-168 1116,-156 1116,-156 1116,-150 1122,-144 1128,-144 1128,-144 1209,-144 1209,-144 1215,-144 1221,-150 1221,-156 1221,-156 1221,-168 1221,-168 1221,-174 1215,-180 1209,-180"/>
<text text-anchor="middle" x="1168.5" y="-159.5" font-family="sans" font-size="10.00" fill="#000000">metadmg_aggregate</text>
</g>
<!-- 58&#45;&gt;64 -->
<g id="edge107" class="edge">
<title>58&#45;&gt;64</title>
<path fill="none" stroke="#c0c0c0" stroke-width="2" d="M1119.1546,-215.8314C1126.9114,-207.3694 1136.2802,-197.1489 1144.761,-187.8971"/>
<polygon fill="#c0c0c0" stroke="#c0c0c0" stroke-width="2" points="1147.4439,-190.1499 1151.6212,-180.4133 1142.2838,-185.4198 1147.4439,-190.1499"/>
</g>
<!-- 59&#45;&gt;58 -->
<g id="edge98" class="edge">
<title>59&#45;&gt;58</title>
<path fill="none" stroke="#c0c0c0" stroke-width="2" d="M1109.2289,-287.8314C1108.2664,-280.131 1107.1218,-270.9743 1106.0521,-262.4166"/>
<polygon fill="#c0c0c0" stroke="#c0c0c0" stroke-width="2" points="1109.5151,-261.9019 1104.8017,-252.4133 1102.5691,-262.7702 1109.5151,-261.9019"/>
</g>
<!-- 59&#45;&gt;64 -->
<g id="edge106" class="edge">
<title>59&#45;&gt;64</title>
<path fill="none" stroke="#c0c0c0" stroke-width="2" d="M1127.246,-287.6429C1135.0252,-277.6881 1143.9171,-264.8229 1149.5,-252 1158.0796,-232.2941 1162.8895,-208.4331 1165.5221,-190.2324"/>
<polygon fill="#c0c0c0" stroke="#c0c0c0" stroke-width="2" points="1169.0019,-190.6147 1166.8326,-180.2443 1162.0613,-189.704 1169.0019,-190.6147"/>
</g>
<!-- 60 -->
<g id="node61" class="node">
<title>60</title>
<path fill="none" stroke="#70d856" stroke-width="2" d="M1527.5,-252C1527.5,-252 1475.5,-252 1475.5,-252 1469.5,-252 1463.5,-246 1463.5,-240 1463.5,-240 1463.5,-228 1463.5,-228 1463.5,-222 1469.5,-216 1475.5,-216 1475.5,-216 1527.5,-216 1527.5,-216 1533.5,-216 1539.5,-222 1539.5,-228 1539.5,-228 1539.5,-240 1539.5,-240 1539.5,-246 1533.5,-252 1527.5,-252"/>
<text text-anchor="middle" x="1501.5" y="-231.5" font-family="sans" font-size="10.00" fill="#000000">metadmg_dfit</text>
</g>
<!-- 60&#45;&gt;1 -->
<g id="edge29" class="edge">
<title>60&#45;&gt;1</title>
<path fill="none" stroke="#c0c0c0" stroke-width="2" d="M1475.392,-215.9598C1443.6328,-194.9811 1387.6561,-161.0559 1334.5,-144 1262.6254,-120.938 1037.2086,-100.4269 947.6844,-92.9772"/>
<polygon fill="#c0c0c0" stroke="#c0c0c0" stroke-width="2" points="947.9615,-89.4883 937.7077,-92.1545 947.3861,-96.4646 947.9615,-89.4883"/>
</g>
<!-- 65 -->
<g id="node66" class="node">
<title>65</title>
<path fill="none" stroke="#9fd856" stroke-width="2" d="M1561,-180C1561,-180 1480,-180 1480,-180 1474,-180 1468,-174 1468,-168 1468,-168 1468,-156 1468,-156 1468,-150 1474,-144 1480,-144 1480,-144 1561,-144 1561,-144 1567,-144 1573,-150 1573,-156 1573,-156 1573,-168 1573,-168 1573,-174 1567,-180 1561,-180"/>
<text text-anchor="middle" x="1520.5" y="-159.5" font-family="sans" font-size="10.00" fill="#000000">metadmg_aggregate</text>
</g>
<!-- 60&#45;&gt;65 -->
<g id="edge109" class="edge">
<title>60&#45;&gt;65</title>
<path fill="none" stroke="#c0c0c0" stroke-width="2" d="M1506.2945,-215.8314C1508.3489,-208.0463 1510.796,-198.7729 1513.0756,-190.1347"/>
<polygon fill="#c0c0c0" stroke="#c0c0c0" stroke-width="2" points="1516.4735,-190.9753 1515.6409,-180.4133 1509.7052,-189.1892 1516.4735,-190.9753"/>
</g>
<!-- 61&#45;&gt;60 -->
<g id="edge100" class="edge">
<title>61&#45;&gt;60</title>
<path fill="none" stroke="#c0c0c0" stroke-width="2" d="M1529.1633,-287.8314C1525.0757,-279.8771 1520.1896,-270.369 1515.6691,-261.5723"/>
<polygon fill="#c0c0c0" stroke="#c0c0c0" stroke-width="2" points="1518.6461,-259.7078 1510.9624,-252.4133 1512.4201,-262.9074 1518.6461,-259.7078"/>
</g>
<!-- 61&#45;&gt;65 -->
<g id="edge108" class="edge">
<title>61&#45;&gt;65</title>
<path fill="none" stroke="#c0c0c0" stroke-width="2" d="M1544.178,-287.8331C1549.063,-269.4846 1554.459,-240.4378 1548.5,-216 1546.2461,-206.7566 1542.1107,-197.3312 1537.6973,-188.9966"/>
<polygon fill="#c0c0c0" stroke="#c0c0c0" stroke-width="2" points="1540.6476,-187.1033 1532.6817,-180.118 1534.5529,-190.5463 1540.6476,-187.1033"/>
</g>
<!-- 62&#45;&gt;0 -->
<g id="edge6" class="edge">
<title>62&#45;&gt;0</title>
<path fill="none" stroke="#c0c0c0" stroke-width="2" d="M321.796,-143.9492C348.0659,-122.7927 394.9793,-88.5278 441.5,-72 521.1524,-43.7012 776.925,-25.9479 873.2954,-20.1181"/>
<polygon fill="#c0c0c0" stroke="#c0c0c0" stroke-width="2" points="873.6698,-23.602 883.4437,-19.5128 873.253,-16.6145 873.6698,-23.602"/>
</g>
<!-- 62&#45;&gt;1 -->
<g id="edge30" class="edge">
<title>62&#45;&gt;1</title>
<path fill="none" stroke="#c0c0c0" stroke-width="2" d="M353.3428,-146.9149C358.1069,-145.8247 362.8766,-144.8299 367.5,-144 537.5252,-113.4806 582.6875,-125.9013 754.5,-108 795.185,-103.761 841.7661,-98.3078 873.3566,-94.5198"/>
<polygon fill="#c0c0c0" stroke="#c0c0c0" stroke-width="2" points="873.955,-97.9732 883.4651,-93.3032 873.1185,-91.0233 873.955,-97.9732"/>
</g>
<!-- 63&#45;&gt;0 -->
<g id="edge7" class="edge">
<title>63&#45;&gt;0</title>
<path fill="none" stroke="#c0c0c0" stroke-width="2" d="M723.6032,-143.7623C762.114,-117.8485 832.7052,-70.3479 875.244,-41.7237"/>
<polygon fill="#c0c0c0" stroke="#c0c0c0" stroke-width="2" points="877.2742,-44.5762 883.6168,-36.0896 873.3663,-38.7686 877.2742,-44.5762"/>
</g>
<!-- 63&#45;&gt;1 -->
<g id="edge31" class="edge">
<title>63&#45;&gt;1</title>
<path fill="none" stroke="#c0c0c0" stroke-width="2" d="M749.1244,-144.2946C787.7592,-131.296 839.2755,-113.9634 873.6014,-102.4145"/>
<polygon fill="#c0c0c0" stroke="#c0c0c0" stroke-width="2" points="874.8732,-105.6794 883.2351,-99.1732 872.641,-99.0449 874.8732,-105.6794"/>
</g>
<!-- 64&#45;&gt;0 -->
<g id="edge8" class="edge">
<title>64&#45;&gt;0</title>
<path fill="none" stroke="#c0c0c0" stroke-width="2" d="M1136.0854,-143.9081C1087.7974,-116.9567 997.2617,-66.4251 946.8093,-38.2656"/>
<polygon fill="#c0c0c0" stroke="#c0c0c0" stroke-width="2" points="948.3121,-35.0962 937.8744,-33.2787 944.9005,-41.2086 948.3121,-35.0962"/>
</g>
<!-- 64&#45;&gt;1 -->
<g id="edge32" class="edge">
<title>64&#45;&gt;1</title>
<path fill="none" stroke="#c0c0c0" stroke-width="2" d="M1115.9789,-147.3429C1065.8146,-133.3436 991.5014,-112.605 947.3409,-100.2812"/>
<polygon fill="#c0c0c0" stroke="#c0c0c0" stroke-width="2" points="948.1686,-96.8785 937.5958,-97.5616 946.287,-103.6209 948.1686,-96.8785"/>
</g>
<!-- 65&#45;&gt;0 -->
<g id="edge9" class="edge">
<title>65&#45;&gt;0</title>
<path fill="none" stroke="#c0c0c0" stroke-width="2" d="M1512.6538,-143.8755C1502.4088,-122.6463 1482.3197,-88.3099 1453.5,-72 1409.6262,-47.1705 1063.3172,-26.2987 947.8329,-19.9687"/>
<polygon fill="#c0c0c0" stroke="#c0c0c0" stroke-width="2" points="947.8835,-16.4664 937.7083,-19.4187 947.5037,-23.456 947.8835,-16.4664"/>
</g>
<!-- 65&#45;&gt;1 -->
<g id="edge33" class="edge">
<title>65&#45;&gt;1</title>
<path fill="none" stroke="#c0c0c0" stroke-width="2" d="M1467.8819,-155.2478C1440.8717,-151.8145 1407.4344,-147.6146 1377.5,-144 1217.5606,-124.6874 1026.6255,-103.053 947.5787,-94.1587"/>
<polygon fill="#c0c0c0" stroke="#c0c0c0" stroke-width="2" points="947.9497,-90.6785 937.6212,-93.0392 947.1675,-97.6347 947.9497,-90.6785"/>
</g>
<!-- 66&#45;&gt;0 -->
<g id="edge2" class="edge">
<title>66&#45;&gt;0</title>
<path fill="none" stroke="#c0c0c0" stroke-width="2" d="M120.8984,-287.9165C135.5496,-242.3895 180.7619,-123.0414 265.5,-72 317.6377,-40.5952 743.516,-23.6694 873.1785,-19.2089"/>
<polygon fill="#c0c0c0" stroke="#c0c0c0" stroke-width="2" points="873.5212,-22.6994 883.3967,-18.8622 873.2837,-15.7034 873.5212,-22.6994"/>
</g>
<!-- 67&#45;&gt;0 -->
<g id="edge3" class="edge">
<title>67&#45;&gt;0</title>
<path fill="none" stroke="#c0c0c0" stroke-width="2" d="M601.1042,-75.861C683.0813,-60.5302 810.5774,-36.6868 873.2087,-24.974"/>
<polygon fill="#c0c0c0" stroke="#c0c0c0" stroke-width="2" points="874.2198,-28.3456 883.406,-23.0669 872.933,-21.4649 874.2198,-28.3456"/>
</g>
<!-- 68&#45;&gt;0 -->
<g id="edge4" class="edge">
<title>68&#45;&gt;0</title>
<path fill="none" stroke="#c0c0c0" stroke-width="2" d="M1296.74,-359.9147C1335.293,-339.7261 1391.8178,-303.052 1416.5,-252 1456.4749,-169.3169 1351.3355,-98.0893 1306.5,-72 1245.9067,-36.7414 1034.2386,-23.4997 947.7487,-19.4854"/>
<polygon fill="#c0c0c0" stroke="#c0c0c0" stroke-width="2" points="947.7465,-15.9819 937.5998,-19.0304 947.4329,-22.9749 947.7465,-15.9819"/>
</g>
<!-- 69&#45;&gt;0 -->
<g id="edge5" class="edge">
<title>69&#45;&gt;0</title>
<path fill="none" stroke="#c0c0c0" stroke-width="2" d="M1672.9776,-359.8955C1667.9982,-332.6824 1659.5,-279.5642 1659.5,-234 1659.5,-234 1659.5,-234 1659.5,-162 1659.5,-120.3643 1665.8209,-98.2468 1633.5,-72 1579.9929,-28.5485 1088.7305,-19.9202 948.0069,-18.3346"/>
<polygon fill="#c0c0c0" stroke="#c0c0c0" stroke-width="2" points="947.7731,-14.832 937.7361,-18.2245 947.698,-21.8316 947.7731,-14.832"/>
</g>
<!-- 70&#45;&gt;0 -->
<g id="edge10" class="edge">
<title>70&#45;&gt;0</title>
<path fill="none" stroke="#c0c0c0" stroke-width="2" d="M248.8824,-287.9966C235.1377,-256.4418 212.4226,-190.1225 239.5,-144 272.7417,-87.3776 305.8553,-91.666 368.5,-72 463.1403,-42.2896 766.6696,-25.0089 873.1538,-19.7388"/>
<polygon fill="#c0c0c0" stroke="#c0c0c0" stroke-width="2" points="873.5937,-23.2216 883.4112,-19.2383 873.2525,-16.2299 873.5937,-23.2216"/>
</g>
<!-- 71&#45;&gt;0 -->
<g id="edge11" class="edge">
<title>71&#45;&gt;0</title>
<path fill="none" stroke="#c0c0c0" stroke-width="2" d="M745.0599,-73.6621C784.174,-60.5022 838.3173,-42.2858 873.8581,-30.3281"/>
<polygon fill="#c0c0c0" stroke="#c0c0c0" stroke-width="2" points="874.9993,-33.637 883.3611,-27.1308 872.7671,-27.0025 874.9993,-33.637"/>
</g>
<!-- 72&#45;&gt;0 -->
<g id="edge12" class="edge">
<title>72&#45;&gt;0</title>
<path fill="none" stroke="#c0c0c0" stroke-width="2" d="M1199.7129,-79.6075C1131.4491,-65.0661 1008.9305,-38.9674 947.5999,-25.9029"/>
<polygon fill="#c0c0c0" stroke="#c0c0c0" stroke-width="2" points="948.1023,-22.4315 937.5925,-23.7712 946.6438,-29.2779 948.1023,-22.4315"/>
</g>
<!-- 73&#45;&gt;0 -->
<g id="edge13" class="edge">
<title>73&#45;&gt;0</title>
<path fill="none" stroke="#c0c0c0" stroke-width="2" d="M1526.8218,-77.5508C1517.4677,-75.4628 1507.7152,-73.4929 1498.5,-72 1291.9308,-38.5344 1040.9235,-24.1041 947.6918,-19.6306"/>
<polygon fill="#c0c0c0" stroke="#c0c0c0" stroke-width="2" points="947.7805,-16.1309 937.627,-19.1572 947.4515,-23.1232 947.7805,-16.1309"/>
</g>
</g>
</svg>
