<?xml version="1.0" encoding="UTF-8" standalone="no"?>
<!DOCTYPE svg PUBLIC "-//W3C//DTD SVG 1.1//EN"
 "http://www.w3.org/Graphics/SVG/1.1/DTD/svg11.dtd">
<!-- Generated by graphviz version 2.40.1 (0)
 -->
<!-- Title: snakemake_dag Pages: 1 -->
<svg width="1877pt" height="2758pt"
 viewBox="0.00 0.00 1876.50 2758.00" xmlns="http://www.w3.org/2000/svg" xmlns:xlink="http://www.w3.org/1999/xlink">
<g id="graph0" class="graph" transform="scale(1 1) rotate(0) translate(4 2754)">
<title>snakemake_dag</title>
<polygon fill="#ffffff" stroke="transparent" points="-4,4 -4,-2754 1872.5,-2754 1872.5,4 -4,4"/>
<!-- 0 -->
<g id="node1" class="node">
<title>0</title>
<text text-anchor="start" x="896" y="-287.6" font-family="sans" font-weight="bold" font-size="18.00" fill="#000000">all</text>
<text text-anchor="start" x="723" y="-263.8" font-family="sans" font-size="10.00" fill="#000000"> </text>
<text text-anchor="start" x="727" y="-263.8" font-family="sans" font-weight="bold" font-size="14.00" fill="#000000">↪ input</text>
<text text-anchor="start" x="780" y="-263.8" font-family="sans" font-size="10.00" fill="#000000"> </text>
<text text-anchor="start" x="723" y="-244" font-family="monospace" font-size="10.00" fill="#000000">reports/multiqc.html</text>
<text text-anchor="start" x="723" y="-226" font-family="monospace" font-size="10.00" fill="#000000">results/metadmg/aggregate/HD827sonic_1_lib1_collapsed.stat.gz</text>
<text text-anchor="start" x="723" y="-208" font-family="monospace" font-size="10.00" fill="#000000">results/metadmg/aggregate/HD827sonic_1_lib1_collapsed.stat.gz</text>
<text text-anchor="start" x="723" y="-190" font-family="monospace" font-size="10.00" fill="#000000">results/metadmg/aggregate/HD827sonic_2_lib1_collapsed.stat.gz</text>
<text text-anchor="start" x="723" y="-172" font-family="monospace" font-size="10.00" fill="#000000">results/metadmg/aggregate/HD827sonic_2_lib2_collapsed.stat.gz</text>
<text text-anchor="start" x="723" y="-154" font-family="monospace" font-size="10.00" fill="#000000">results/reads/saturated/HD827sonic_1_lib1_collapsed.fastq.gz</text>
<text text-anchor="start" x="723" y="-136" font-family="monospace" font-size="10.00" fill="#000000">results/reads/saturated/HD827sonic_1_lib1_collapsed.fastq.gz</text>
<text text-anchor="start" x="723" y="-118" font-family="monospace" font-size="10.00" fill="#000000">results/reads/saturated/HD827sonic_2_lib1_collapsed.fastq.gz</text>
<text text-anchor="start" x="723" y="-100" font-family="monospace" font-size="10.00" fill="#000000">results/reads/saturated/HD827sonic_2_lib2_collapsed.fastq.gz</text>
<text text-anchor="start" x="723" y="-82" font-family="monospace" font-size="10.00" fill="#000000">stats/metadmg/damage/HD827sonic_1_lib1_collapsed.stat.gz</text>
<text text-anchor="start" x="723" y="-64" font-family="monospace" font-size="10.00" fill="#000000">stats/metadmg/damage/HD827sonic_1_lib1_collapsed.stat.gz</text>
<text text-anchor="start" x="723" y="-46" font-family="monospace" font-size="10.00" fill="#000000">stats/metadmg/damage/HD827sonic_2_lib1_collapsed.stat.gz</text>
<text text-anchor="start" x="723" y="-28" font-family="monospace" font-size="10.00" fill="#000000">stats/metadmg/damage/HD827sonic_2_lib2_collapsed.stat.gz</text>
<text text-anchor="start" x="1083" y="-10" font-family="sans" font-size="10.00" fill="#000000"> &#160;</text>
<polygon fill="#b5d957" stroke="#b5d957" points="717,-278 717,-278 1097,-278 1097,-278 717,-278"/>
<polygon fill="#b5d957" stroke="#b5d957" points="717,-22 717,-22 1097,-22 1097,-22 717,-22"/>
<polygon fill="none" stroke="#b5d957" stroke-width="2" points="716.5,-1 716.5,-307 1095.5,-307 1095.5,-1 716.5,-1"/>
</g>
<!-- 1 -->
<g id="node2" class="node">
<title>1</title>
<text text-anchor="start" x="318" y="-887.6" font-family="sans" font-weight="bold" font-size="18.00" fill="#000000">multiqc</text>
<text text-anchor="start" x="113" y="-863.8" font-family="sans" font-size="10.00" fill="#000000"> </text>
<text text-anchor="start" x="117" y="-863.8" font-family="sans" font-weight="bold" font-size="14.00" fill="#000000">↪ input</text>
<text text-anchor="start" x="170" y="-863.8" font-family="sans" font-size="10.00" fill="#000000"> </text>
<text text-anchor="start" x="113" y="-844" font-family="monospace" font-size="10.00" fill="#000000">logs/shards/bowtie2/HD827sonic_1_lib1_collapsed.refseq_mitochondrion.1&#45;of&#45;1.log</text>
<text text-anchor="start" x="113" y="-826" font-family="monospace" font-size="10.00" fill="#000000">logs/shards/bowtie2/HD827sonic_1_lib1_collapsed.wgs_eukaryota.1&#45;of&#45;2.log</text>
<text text-anchor="start" x="113" y="-808" font-family="monospace" font-size="10.00" fill="#000000">logs/shards/bowtie2/HD827sonic_1_lib1_collapsed.wgs_eukaryota.2&#45;of&#45;2.log</text>
<text text-anchor="start" x="113" y="-790" font-family="monospace" font-size="10.00" fill="#000000">logs/shards/bowtie2/HD827sonic_2_lib1_collapsed.refseq_mitochondrion.1&#45;of&#45;1.log</text>
<text text-anchor="start" x="113" y="-772" font-family="monospace" font-size="10.00" fill="#000000">logs/shards/bowtie2/HD827sonic_2_lib1_collapsed.wgs_eukaryota.1&#45;of&#45;2.log</text>
<text text-anchor="start" x="113" y="-754" font-family="monospace" font-size="10.00" fill="#000000">logs/shards/bowtie2/HD827sonic_2_lib1_collapsed.wgs_eukaryota.2&#45;of&#45;2.log</text>
<text text-anchor="start" x="113" y="-736" font-family="monospace" font-size="10.00" fill="#000000">logs/shards/bowtie2/HD827sonic_2_lib2_collapsed.refseq_mitochondrion.1&#45;of&#45;1.log</text>
<text text-anchor="start" x="113" y="-718" font-family="monospace" font-size="10.00" fill="#000000">logs/shards/bowtie2/HD827sonic_2_lib2_collapsed.wgs_eukaryota.1&#45;of&#45;2.log</text>
<text text-anchor="start" x="113" y="-700" font-family="monospace" font-size="10.00" fill="#000000">logs/shards/bowtie2/HD827sonic_2_lib2_collapsed.wgs_eukaryota.2&#45;of&#45;2.log</text>
<text text-anchor="start" x="113" y="-682" font-family="monospace" font-size="10.00" fill="#000000">results/metadmg/aggregate/HD827sonic_1_lib1_collapsed.stat.gz</text>
<text text-anchor="start" x="113" y="-664" font-family="monospace" font-size="10.00" fill="#000000">results/metadmg/aggregate/HD827sonic_1_lib1_collapsed.stat.gz</text>
<text text-anchor="start" x="113" y="-646" font-family="monospace" font-size="10.00" fill="#000000">results/metadmg/aggregate/HD827sonic_2_lib1_collapsed.stat.gz</text>
<text text-anchor="start" x="113" y="-628" font-family="monospace" font-size="10.00" fill="#000000">results/metadmg/aggregate/HD827sonic_2_lib2_collapsed.stat.gz</text>
<text text-anchor="start" x="113" y="-610" font-family="monospace" font-size="10.00" fill="#000000">results/metadmg/dfit/HD827sonic_1_lib1_collapsed.dfit.gz</text>
<text text-anchor="start" x="113" y="-592" font-family="monospace" font-size="10.00" fill="#000000">results/metadmg/dfit/HD827sonic_1_lib1_collapsed.dfit.gz</text>
<text text-anchor="start" x="113" y="-574" font-family="monospace" font-size="10.00" fill="#000000">results/metadmg/dfit/HD827sonic_2_lib1_collapsed.dfit.gz</text>
<text text-anchor="start" x="113" y="-556" font-family="monospace" font-size="10.00" fill="#000000">results/metadmg/dfit/HD827sonic_2_lib2_collapsed.dfit.gz</text>
<text text-anchor="start" x="113" y="-538" font-family="monospace" font-size="10.00" fill="#000000">stats/aligns/samtools_stats/HD827sonic_1_lib1_collapsed.txt</text>
<text text-anchor="start" x="113" y="-520" font-family="monospace" font-size="10.00" fill="#000000">stats/aligns/samtools_stats/HD827sonic_1_lib1_collapsed.txt</text>
<text text-anchor="start" x="113" y="-502" font-family="monospace" font-size="10.00" fill="#000000">stats/aligns/samtools_stats/HD827sonic_1_lib1_collapsed.txt</text>
<text text-anchor="start" x="113" y="-484" font-family="monospace" font-size="10.00" fill="#000000">stats/aligns/samtools_stats/HD827sonic_1_lib1_collapsed.txt</text>
<text text-anchor="start" x="113" y="-466" font-family="monospace" font-size="10.00" fill="#000000">stats/aligns/samtools_stats/HD827sonic_2_lib1_collapsed.txt</text>
<text text-anchor="start" x="113" y="-448" font-family="monospace" font-size="10.00" fill="#000000">stats/aligns/samtools_stats/HD827sonic_2_lib1_collapsed.txt</text>
<text text-anchor="start" x="113" y="-430" font-family="monospace" font-size="10.00" fill="#000000">stats/aligns/samtools_stats/HD827sonic_2_lib2_collapsed.txt</text>
<text text-anchor="start" x="113" y="-412" font-family="monospace" font-size="10.00" fill="#000000">stats/aligns/samtools_stats/HD827sonic_2_lib2_collapsed.txt</text>
<text text-anchor="start" x="519" y="-391.8" font-family="sans" font-size="10.00" fill="#000000"> </text>
<text text-anchor="start" x="523" y="-391.8" font-family="sans" font-weight="bold" font-size="14.00" fill="#000000">output →</text>
<text text-anchor="start" x="584" y="-391.8" font-family="sans" font-size="10.00" fill="#000000"> </text>
<text text-anchor="start" x="113" y="-372" font-family="monospace" font-size="10.00" fill="#000000">reports/multiqc.html</text>
<text text-anchor="start" x="113" y="-354" font-family="monospace" font-size="10.00" fill="#000000">reports/multiqc_data.zip</text>
<polygon fill="#57d9b5" stroke="#57d9b5" points="107,-878 107,-878 595,-878 595,-878 107,-878"/>
<polygon fill="#57d9b5" stroke="#57d9b5" points="107,-406 107,-406 595,-406 595,-406 107,-406"/>
<polygon fill="none" stroke="#57d9b5" stroke-width="2" points="106.5,-345 106.5,-907 593.5,-907 593.5,-345 106.5,-345"/>
</g>
<!-- 1&#45;&gt;0 -->
<g id="edge4" class="edge">
<title>1&#45;&gt;0</title>
<path fill="none" stroke="#c0c0c0" stroke-width="2" d="M594.6788,-418.2871C635.5125,-383.6225 677.3192,-348.1319 716.5063,-314.8651"/>
<polygon fill="#c0c0c0" stroke="#c0c0c0" stroke-width="2" points="718.9494,-317.3823 724.3078,-308.2423 714.4192,-312.0458 718.9494,-317.3823"/>
</g>
<!-- 2 -->
<g id="node3" class="node">
<title>2</title>
<text text-anchor="start" x="674" y="-2729.6" font-family="sans" font-weight="bold" font-size="18.00" fill="#000000">bowtie2</text>
<text text-anchor="start" x="360" y="-2705.8" font-family="sans" font-size="10.00" fill="#000000"> </text>
<text text-anchor="start" x="364" y="-2705.8" font-family="sans" font-weight="bold" font-size="14.00" fill="#000000">↪ input</text>
<text text-anchor="start" x="417" y="-2705.8" font-family="sans" font-size="10.00" fill="#000000"> </text>
<text text-anchor="start" x="360" y="-2686" font-family="monospace" font-size="10.00" fill="#000000">&lt;input function&gt;</text>
<text text-anchor="start" x="360" y="-2668" font-family="monospace" font-size="10.00" fill="#000000">&lt;input function&gt;</text>
<text text-anchor="start" x="988" y="-2647.8" font-family="sans" font-size="10.00" fill="#000000"> </text>
<text text-anchor="start" x="992" y="-2647.8" font-family="sans" font-weight="bold" font-size="14.00" fill="#000000">output →</text>
<text text-anchor="start" x="1053" y="-2647.8" font-family="sans" font-size="10.00" fill="#000000"> </text>
<text text-anchor="start" x="360" y="-2628" font-family="monospace" font-size="10.00" fill="#000000">temp/shards/bowtie2/{sample}_{library}_{read_type_map,pe|se|singleton|collapsed}.{ref}.{n_shard}&#45;of&#45;{tot_shards}.bam</text>
<polygon fill="#9ed957" stroke="#9ed957" points="354,-2720 354,-2720 1064,-2720 1064,-2720 354,-2720"/>
<polygon fill="#9ed957" stroke="#9ed957" points="354,-2662 354,-2662 1064,-2662 1064,-2662 354,-2662"/>
<polygon fill="none" stroke="#9ed957" stroke-width="2" points="353.5,-2619 353.5,-2749 1062.5,-2749 1062.5,-2619 353.5,-2619"/>
</g>
<!-- 2&#45;&gt;1 -->
<g id="edge8" class="edge">
<title>2&#45;&gt;1</title>
<path fill="none" stroke="#c0c0c0" stroke-width="2" d="M455.8933,-2617.9427C252.4796,-2556.9907 0,-2460.4915 0,-2357 0,-2357 0,-2357 0,-1250 0,-1132.3241 47.934,-1016.2861 108.3238,-916.79"/>
<polygon fill="#c0c0c0" stroke="#c0c0c0" stroke-width="2" points="111.3889,-918.4869 113.635,-908.1329 105.4223,-914.8264 111.3889,-918.4869"/>
</g>
<!-- 7 -->
<g id="node8" class="node">
<title>7</title>
<text text-anchor="start" x="771.5" y="-2225.6" font-family="sans" font-weight="bold" font-size="18.00" fill="#000000">shard_saturated_reads_remove</text>
<text text-anchor="start" x="512" y="-2201.8" font-family="sans" font-size="10.00" fill="#000000"> </text>
<text text-anchor="start" x="516" y="-2201.8" font-family="sans" font-weight="bold" font-size="14.00" fill="#000000">↪ input</text>
<text text-anchor="start" x="569" y="-2201.8" font-family="sans" font-size="10.00" fill="#000000"> </text>
<text text-anchor="start" x="512" y="-2182" font-family="monospace" font-size="10.00" fill="#000000">&lt;input function&gt;</text>
<text text-anchor="start" x="512" y="-2164" font-family="monospace" font-size="10.00" fill="#000000">temp/shards/saturated_reads/filter/{sample}_{library}_{read_type_map}.tsv</text>
<text text-anchor="start" x="1230" y="-2143.8" font-family="sans" font-size="10.00" fill="#000000"> </text>
<text text-anchor="start" x="1234" y="-2143.8" font-family="sans" font-weight="bold" font-size="14.00" fill="#000000">output →</text>
<text text-anchor="start" x="1295" y="-2143.8" font-family="sans" font-size="10.00" fill="#000000"> </text>
<text text-anchor="start" x="512" y="-2124" font-family="monospace" font-size="10.00" fill="#000000">temp/shards/saturated_reads/remove/{sample}_{library}_{read_type_map,pe|se|singleton|collapsed}.{ref}.{n_shard}&#45;of&#45;{tot_shards}.bam</text>
<polygon fill="#5786d9" stroke="#5786d9" points="506,-2216 506,-2216 1306,-2216 1306,-2216 506,-2216"/>
<polygon fill="#5786d9" stroke="#5786d9" points="506,-2158 506,-2158 1306,-2158 1306,-2158 506,-2158"/>
<polygon fill="none" stroke="#5786d9" stroke-width="2" points="505.5,-2115 505.5,-2245 1304.5,-2245 1304.5,-2115 505.5,-2115"/>
</g>
<!-- 2&#45;&gt;7 -->
<g id="edge13" class="edge">
<title>2&#45;&gt;7</title>
<path fill="none" stroke="#c0c0c0" stroke-width="2" d="M706.3178,-2617.7227C707.2896,-2532.9763 719.7884,-2384.9091 788,-2282 794.5718,-2272.0853 802.3557,-2262.5572 810.7384,-2253.5772"/>
<polygon fill="#c0c0c0" stroke="#c0c0c0" stroke-width="2" points="813.4701,-2255.7873 817.9073,-2246.1664 808.4389,-2250.9204 813.4701,-2255.7873"/>
</g>
<!-- 9 -->
<g id="node10" class="node">
<title>9</title>
<text text-anchor="start" x="1024.5" y="-2561.6" font-family="sans" font-weight="bold" font-size="18.00" fill="#000000">shard_count_alns</text>
<text text-anchor="start" x="744" y="-2537.8" font-family="sans" font-size="10.00" fill="#000000"> </text>
<text text-anchor="start" x="748" y="-2537.8" font-family="sans" font-weight="bold" font-size="14.00" fill="#000000">↪ input</text>
<text text-anchor="start" x="801" y="-2537.8" font-family="sans" font-size="10.00" fill="#000000"> </text>
<text text-anchor="start" x="744" y="-2518" font-family="monospace" font-size="10.00" fill="#000000">&lt;input function&gt;</text>
<text text-anchor="start" x="1390" y="-2497.8" font-family="sans" font-size="10.00" fill="#000000"> </text>
<text text-anchor="start" x="1394" y="-2497.8" font-family="sans" font-weight="bold" font-size="14.00" fill="#000000">output →</text>
<text text-anchor="start" x="1455" y="-2497.8" font-family="sans" font-size="10.00" fill="#000000"> </text>
<text text-anchor="start" x="744" y="-2478" font-family="monospace" font-size="10.00" fill="#000000">temp/shards/count_alns/{sample}_{library}_{read_type_map,pe|se|singleton|collapsed}.{ref}.{n_shard}&#45;of&#45;{tot_shards}.tsv</text>
<polygon fill="#57cdd9" stroke="#57cdd9" points="738,-2552 738,-2552 1466,-2552 1466,-2552 738,-2552"/>
<polygon fill="#57cdd9" stroke="#57cdd9" points="738,-2512 738,-2512 1466,-2512 1466,-2512 738,-2512"/>
<polygon fill="none" stroke="#57cdd9" stroke-width="2" points="737.5,-2469 737.5,-2581 1464.5,-2581 1464.5,-2469 737.5,-2469"/>
</g>
<!-- 2&#45;&gt;9 -->
<g id="edge16" class="edge">
<title>2&#45;&gt;9</title>
<path fill="none" stroke="#c0c0c0" stroke-width="2" d="M871.2532,-2617.951C897.4548,-2607.3504 924.4686,-2596.4211 950.3576,-2585.9469"/>
<polygon fill="#c0c0c0" stroke="#c0c0c0" stroke-width="2" points="951.8838,-2589.1051 959.8412,-2582.11 949.2585,-2582.6161 951.8838,-2589.1051"/>
</g>
<!-- 3 -->
<g id="node4" class="node">
<title>3</title>
<text text-anchor="start" x="265.5" y="-1286.6" font-family="sans" font-weight="bold" font-size="18.00" fill="#000000">align_stats</text>
<text text-anchor="start" x="36" y="-1262.8" font-family="sans" font-size="10.00" fill="#000000"> </text>
<text text-anchor="start" x="40" y="-1262.8" font-family="sans" font-weight="bold" font-size="14.00" fill="#000000">↪ input</text>
<text text-anchor="start" x="93" y="-1262.8" font-family="sans" font-size="10.00" fill="#000000"> </text>
<text text-anchor="start" x="36" y="-1243" font-family="monospace" font-size="10.00" fill="#000000">results/aligns/merge/{sample}_{library}_{read_type_map}.bam</text>
<text text-anchor="start" x="520" y="-1222.8" font-family="sans" font-size="10.00" fill="#000000"> </text>
<text text-anchor="start" x="524" y="-1222.8" font-family="sans" font-weight="bold" font-size="14.00" fill="#000000">output →</text>
<text text-anchor="start" x="585" y="-1222.8" font-family="sans" font-size="10.00" fill="#000000"> </text>
<text text-anchor="start" x="36" y="-1203" font-family="monospace" font-size="10.00" fill="#000000">stats/aligns/samtools_stats/{sample}_{library}_{read_type_map,pe|se|singleton|collapsed}.txt</text>
<polygon fill="#cdd957" stroke="#cdd957" points="30,-1277 30,-1277 596,-1277 596,-1277 30,-1277"/>
<polygon fill="#cdd957" stroke="#cdd957" points="30,-1237 30,-1237 596,-1237 596,-1237 30,-1237"/>
<polygon fill="none" stroke="#cdd957" stroke-width="2" points="29.5,-1194 29.5,-1306 594.5,-1306 594.5,-1194 29.5,-1194"/>
</g>
<!-- 3&#45;&gt;1 -->
<g id="edge6" class="edge">
<title>3&#45;&gt;1</title>
<path fill="none" stroke="#c0c0c0" stroke-width="2" d="M315.473,-1192.97C319.3334,-1129.5773 325.8639,-1022.3404 332.213,-918.0817"/>
<polygon fill="#c0c0c0" stroke="#c0c0c0" stroke-width="2" points="335.7123,-918.1973 332.8267,-908.003 328.7253,-917.7718 335.7123,-918.1973"/>
</g>
<!-- 4 -->
<g id="node5" class="node">
<title>4</title>
<text text-anchor="start" x="852.5" y="-1739.6" font-family="sans" font-weight="bold" font-size="18.00" fill="#000000">align_merge</text>
<text text-anchor="start" x="650" y="-1715.8" font-family="sans" font-size="10.00" fill="#000000"> </text>
<text text-anchor="start" x="654" y="-1715.8" font-family="sans" font-weight="bold" font-size="14.00" fill="#000000">↪ input</text>
<text text-anchor="start" x="707" y="-1715.8" font-family="sans" font-size="10.00" fill="#000000"> </text>
<text text-anchor="start" x="650" y="-1696" font-family="monospace" font-size="10.00" fill="#000000">&lt;input function&gt;</text>
<text text-anchor="start" x="1092" y="-1675.8" font-family="sans" font-size="10.00" fill="#000000"> </text>
<text text-anchor="start" x="1096" y="-1675.8" font-family="sans" font-weight="bold" font-size="14.00" fill="#000000">output →</text>
<text text-anchor="start" x="1157" y="-1675.8" font-family="sans" font-size="10.00" fill="#000000"> </text>
<text text-anchor="start" x="650" y="-1656" font-family="monospace" font-size="10.00" fill="#000000">results/aligns/merge/{sample}_{library}_{read_type_map,pe|se|singleton|collapsed}.bam</text>
<polygon fill="#d98657" stroke="#d98657" points="644,-1730 644,-1730 1168,-1730 1168,-1730 644,-1730"/>
<polygon fill="#d98657" stroke="#d98657" points="644,-1690 644,-1690 1168,-1690 1168,-1690 644,-1690"/>
<polygon fill="none" stroke="#d98657" stroke-width="2" points="643.5,-1647 643.5,-1759 1166.5,-1759 1166.5,-1647 643.5,-1647"/>
</g>
<!-- 4&#45;&gt;3 -->
<g id="edge9" class="edge">
<title>4&#45;&gt;3</title>
<path fill="none" stroke="#c0c0c0" stroke-width="2" d="M644.6437,-1645.992C621.4933,-1635.8756 599.2068,-1623.9811 579,-1610 469.0169,-1533.9022 386.3627,-1397.7116 343.9172,-1316.4219"/>
<polygon fill="#c0c0c0" stroke="#c0c0c0" stroke-width="2" points="346.8903,-1314.5512 339.1896,-1307.2745 340.6717,-1317.7652 346.8903,-1314.5512"/>
</g>
<!-- 11 -->
<g id="node12" class="node">
<title>11</title>
<text text-anchor="start" x="848" y="-1589.6" font-family="sans" font-weight="bold" font-size="18.00" fill="#000000">metadmg_lca</text>
<text text-anchor="start" x="596" y="-1565.8" font-family="sans" font-size="10.00" fill="#000000"> </text>
<text text-anchor="start" x="600" y="-1565.8" font-family="sans" font-weight="bold" font-size="14.00" fill="#000000">↪ input</text>
<text text-anchor="start" x="653" y="-1565.8" font-family="sans" font-size="10.00" fill="#000000"> </text>
<text text-anchor="start" x="596" y="-1546" font-family="monospace" font-size="10.00" fill="#000000">/datasets/caeg_dataset/references/ncbi/20250205/taxonomy/ncbi/refseq_mitochondrion.genomic.acc2taxid.gz</text>
<text text-anchor="start" x="596" y="-1528" font-family="monospace" font-size="10.00" fill="#000000">/datasets/caeg_dataset/references/ncbi/20250205/taxonomy/ncbi/wgs_eukaryota.acc2taxid.gz</text>
<text text-anchor="start" x="596" y="-1510" font-family="monospace" font-size="10.00" fill="#000000">/datasets/caeg_dataset/taxonomy/ncbi/20250210/names.dmp</text>
<text text-anchor="start" x="596" y="-1492" font-family="monospace" font-size="10.00" fill="#000000">/datasets/caeg_dataset/taxonomy/ncbi/20250210/nodes.dmp</text>
<text text-anchor="start" x="596" y="-1474" font-family="monospace" font-size="10.00" fill="#000000">&lt;function &lt;lambda&gt; at 0x7f000fae2020&gt;</text>
<text text-anchor="start" x="1146" y="-1453.8" font-family="sans" font-size="10.00" fill="#000000"> </text>
<text text-anchor="start" x="1150" y="-1453.8" font-family="sans" font-weight="bold" font-size="14.00" fill="#000000">output →</text>
<text text-anchor="start" x="1211" y="-1453.8" font-family="sans" font-size="10.00" fill="#000000"> </text>
<text text-anchor="start" x="596" y="-1434" font-family="monospace" font-size="10.00" fill="#000000">results/metadmg/lca/{sample}_{library}_{read_type_map,pe|se|singleton|collapsed}.bdamage.gz</text>
<text text-anchor="start" x="596" y="-1416" font-family="monospace" font-size="10.00" fill="#000000">results/metadmg/lca/{sample}_{library}_{read_type_map,pe|se|singleton|collapsed}.lca.gz</text>
<text text-anchor="start" x="596" y="-1398" font-family="monospace" font-size="10.00" fill="#000000">stats/metadmg/lca/{sample}_{library}_{read_type_map,pe|se|singleton|collapsed}.rlens.gz</text>
<text text-anchor="start" x="596" y="-1380" font-family="monospace" font-size="10.00" fill="#000000">stats/metadmg/lca/{sample}_{library}_{read_type_map,pe|se|singleton|collapsed}.stat.gz</text>
<polygon fill="#57d99e" stroke="#57d99e" points="590,-1580 590,-1580 1222,-1580 1222,-1580 590,-1580"/>
<polygon fill="#57d99e" stroke="#57d99e" points="590,-1468 590,-1468 1222,-1468 1222,-1468 590,-1468"/>
<polygon fill="none" stroke="#57d99e" stroke-width="2" points="589.5,-1371 589.5,-1609 1220.5,-1609 1220.5,-1371 589.5,-1371"/>
</g>
<!-- 4&#45;&gt;11 -->
<g id="edge18" class="edge">
<title>4&#45;&gt;11</title>
<path fill="none" stroke="#c0c0c0" stroke-width="2" d="M905,-1645.9199C905,-1637.7724 905,-1629.129 905,-1620.2537"/>
<polygon fill="#c0c0c0" stroke="#c0c0c0" stroke-width="2" points="908.5001,-1620.1487 905,-1610.1487 901.5001,-1620.1488 908.5001,-1620.1487"/>
</g>
<!-- 14 -->
<g id="node15" class="node">
<title>14</title>
<text text-anchor="start" x="1187" y="-1100.6" font-family="sans" font-weight="bold" font-size="18.00" fill="#000000">metadmg_damage</text>
<text text-anchor="start" x="983" y="-1076.8" font-family="sans" font-size="10.00" fill="#000000"> </text>
<text text-anchor="start" x="987" y="-1076.8" font-family="sans" font-weight="bold" font-size="14.00" fill="#000000">↪ input</text>
<text text-anchor="start" x="1040" y="-1076.8" font-family="sans" font-size="10.00" fill="#000000"> </text>
<text text-anchor="start" x="983" y="-1057" font-family="monospace" font-size="10.00" fill="#000000">&lt;function &lt;lambda&gt; at 0x7f000fae11c0&gt;</text>
<text text-anchor="start" x="1479" y="-1036.8" font-family="sans" font-size="10.00" fill="#000000"> </text>
<text text-anchor="start" x="1483" y="-1036.8" font-family="sans" font-weight="bold" font-size="14.00" fill="#000000">output →</text>
<text text-anchor="start" x="1544" y="-1036.8" font-family="sans" font-size="10.00" fill="#000000"> </text>
<text text-anchor="start" x="983" y="-1017" font-family="monospace" font-size="10.00" fill="#000000">results/metadmg/damage/{sample}_{library}_{read_type_map,pe|se|singleton|collapsed}.bdamage.gz</text>
<text text-anchor="start" x="983" y="-999" font-family="monospace" font-size="10.00" fill="#000000">results/metadmg/damage/{sample}_{library}_{read_type_map,pe|se|singleton|collapsed}.res.gz</text>
<text text-anchor="start" x="983" y="-981" font-family="monospace" font-size="10.00" fill="#000000">stats/metadmg/damage/{sample}_{library}_{read_type_map,pe|se|singleton|collapsed}.rlens.gz</text>
<text text-anchor="start" x="983" y="-963" font-family="monospace" font-size="10.00" fill="#000000">stats/metadmg/damage/{sample}_{library}_{read_type_map,pe|se|singleton|collapsed}.stat.gz</text>
<polygon fill="#57d96e" stroke="#57d96e" points="977,-1091 977,-1091 1555,-1091 1555,-1091 977,-1091"/>
<polygon fill="#57d96e" stroke="#57d96e" points="977,-1051 977,-1051 1555,-1051 1555,-1051 977,-1051"/>
<polygon fill="none" stroke="#57d96e" stroke-width="2" points="976.5,-954 976.5,-1120 1553.5,-1120 1553.5,-954 976.5,-954"/>
</g>
<!-- 4&#45;&gt;14 -->
<g id="edge22" class="edge">
<title>4&#45;&gt;14</title>
<path fill="none" stroke="#c0c0c0" stroke-width="2" d="M1167.7333,-1646.6021C1196.9633,-1635.7834 1220.1357,-1623.5431 1231,-1610 1340.4365,-1473.5805 1315.8063,-1254.9149 1289.4937,-1130.8803"/>
<polygon fill="#c0c0c0" stroke="#c0c0c0" stroke-width="2" points="1292.8943,-1130.0464 1287.3549,-1121.015 1286.0532,-1131.5296 1292.8943,-1130.0464"/>
</g>
<!-- 5 -->
<g id="node6" class="node">
<title>5</title>
<text text-anchor="start" x="829" y="-1889.6" font-family="sans" font-weight="bold" font-size="18.00" fill="#000000">shard_sort_query</text>
<text text-anchor="start" x="548" y="-1865.8" font-family="sans" font-size="10.00" fill="#000000"> </text>
<text text-anchor="start" x="552" y="-1865.8" font-family="sans" font-weight="bold" font-size="14.00" fill="#000000">↪ input</text>
<text text-anchor="start" x="605" y="-1865.8" font-family="sans" font-size="10.00" fill="#000000"> </text>
<text text-anchor="start" x="548" y="-1846" font-family="monospace" font-size="10.00" fill="#000000">temp/shards/clean_header/{sample}_{library}_{read_type_map}.{ref}.{n_shard}&#45;of&#45;{tot_shards}.bam</text>
<text text-anchor="start" x="1194" y="-1825.8" font-family="sans" font-size="10.00" fill="#000000"> </text>
<text text-anchor="start" x="1198" y="-1825.8" font-family="sans" font-weight="bold" font-size="14.00" fill="#000000">output →</text>
<text text-anchor="start" x="1259" y="-1825.8" font-family="sans" font-size="10.00" fill="#000000"> </text>
<text text-anchor="start" x="548" y="-1806" font-family="monospace" font-size="10.00" fill="#000000">temp/shards/sort_query/{sample}_{library}_{read_type_map,pe|se|singleton|collapsed}.{ref}.{n_shard}&#45;of&#45;{tot_shards}.bam</text>
<polygon fill="#576ed9" stroke="#576ed9" points="542,-1880 542,-1880 1270,-1880 1270,-1880 542,-1880"/>
<polygon fill="#576ed9" stroke="#576ed9" points="542,-1840 542,-1840 1270,-1840 1270,-1840 542,-1840"/>
<polygon fill="none" stroke="#576ed9" stroke-width="2" points="541.5,-1797 541.5,-1909 1268.5,-1909 1268.5,-1797 541.5,-1797"/>
</g>
<!-- 5&#45;&gt;4 -->
<g id="edge10" class="edge">
<title>5&#45;&gt;4</title>
<path fill="none" stroke="#c0c0c0" stroke-width="2" d="M905,-1795.8635C905,-1787.6231 905,-1779.0771 905,-1770.6558"/>
<polygon fill="#c0c0c0" stroke="#c0c0c0" stroke-width="2" points="908.5001,-1770.4745 905,-1760.4745 901.5001,-1770.4745 908.5001,-1770.4745"/>
</g>
<!-- 6 -->
<g id="node7" class="node">
<title>6</title>
<text text-anchor="start" x="819" y="-2048.6" font-family="sans" font-weight="bold" font-size="18.00" fill="#000000">shard_clean_header</text>
<text text-anchor="start" x="542" y="-2024.8" font-family="sans" font-size="10.00" fill="#000000"> </text>
<text text-anchor="start" x="546" y="-2024.8" font-family="sans" font-weight="bold" font-size="14.00" fill="#000000">↪ input</text>
<text text-anchor="start" x="599" y="-2024.8" font-family="sans" font-size="10.00" fill="#000000"> </text>
<text text-anchor="start" x="542" y="-2005" font-family="monospace" font-size="10.00" fill="#000000">temp/shards/saturated_reads/remove/{sample}_{library}_{read_type_map}.{ref}.{n_shard}&#45;of&#45;{tot_shards}.bam</text>
<text text-anchor="start" x="1200" y="-1984.8" font-family="sans" font-size="10.00" fill="#000000"> </text>
<text text-anchor="start" x="1204" y="-1984.8" font-family="sans" font-weight="bold" font-size="14.00" fill="#000000">output →</text>
<text text-anchor="start" x="1265" y="-1984.8" font-family="sans" font-size="10.00" fill="#000000"> </text>
<text text-anchor="start" x="542" y="-1965" font-family="monospace" font-size="10.00" fill="#000000">temp/shards/clean_header/{sample}_{library}_{read_type_map,pe|se|singleton|collapsed}.{ref}.{n_shard}&#45;of&#45;{tot_shards}.bam</text>
<polygon fill="#57d9cd" stroke="#57d9cd" points="536,-2039 536,-2039 1276,-2039 1276,-2039 536,-2039"/>
<polygon fill="#57d9cd" stroke="#57d9cd" points="536,-1999 536,-1999 1276,-1999 1276,-1999 536,-1999"/>
<polygon fill="none" stroke="#57d9cd" stroke-width="2" points="535.5,-1956 535.5,-2068 1274.5,-2068 1274.5,-1956 535.5,-1956"/>
</g>
<!-- 6&#45;&gt;5 -->
<g id="edge11" class="edge">
<title>6&#45;&gt;5</title>
<path fill="none" stroke="#c0c0c0" stroke-width="2" d="M905,-1954.5974C905,-1943.4964 905,-1931.771 905,-1920.3851"/>
<polygon fill="#c0c0c0" stroke="#c0c0c0" stroke-width="2" points="908.5001,-1920.0517 905,-1910.0517 901.5001,-1920.0518 908.5001,-1920.0517"/>
</g>
<!-- 7&#45;&gt;6 -->
<g id="edge12" class="edge">
<title>7&#45;&gt;6</title>
<path fill="none" stroke="#c0c0c0" stroke-width="2" d="M905,-2113.602C905,-2102.3667 905,-2090.6915 905,-2079.4301"/>
<polygon fill="#c0c0c0" stroke="#c0c0c0" stroke-width="2" points="908.5001,-2079.2288 905,-2069.2288 901.5001,-2079.2289 908.5001,-2079.2288"/>
</g>
<!-- 8 -->
<g id="node9" class="node">
<title>8</title>
<text text-anchor="start" x="979" y="-2411.6" font-family="sans" font-weight="bold" font-size="18.00" fill="#000000">shard_saturated_reads_filter</text>
<text text-anchor="start" x="804" y="-2387.8" font-family="sans" font-size="10.00" fill="#000000"> </text>
<text text-anchor="start" x="808" y="-2387.8" font-family="sans" font-weight="bold" font-size="14.00" fill="#000000">↪ input</text>
<text text-anchor="start" x="861" y="-2387.8" font-family="sans" font-size="10.00" fill="#000000"> </text>
<text text-anchor="start" x="804" y="-2368" font-family="monospace" font-size="10.00" fill="#000000">temp/shards/count_alns/{sample}_{library}_collapsed.refseq_mitochondrion.1&#45;of&#45;1.tsv</text>
<text text-anchor="start" x="804" y="-2350" font-family="monospace" font-size="10.00" fill="#000000">temp/shards/count_alns/{sample}_{library}_collapsed.wgs_eukaryota.1&#45;of&#45;2.tsv</text>
<text text-anchor="start" x="804" y="-2332" font-family="monospace" font-size="10.00" fill="#000000">temp/shards/count_alns/{sample}_{library}_collapsed.wgs_eukaryota.2&#45;of&#45;2.tsv</text>
<text text-anchor="start" x="1330" y="-2311.8" font-family="sans" font-size="10.00" fill="#000000"> </text>
<text text-anchor="start" x="1334" y="-2311.8" font-family="sans" font-weight="bold" font-size="14.00" fill="#000000">output →</text>
<text text-anchor="start" x="1395" y="-2311.8" font-family="sans" font-size="10.00" fill="#000000"> </text>
<text text-anchor="start" x="804" y="-2292" font-family="monospace" font-size="10.00" fill="#000000">temp/shards/saturated_reads/filter/{sample}_{library}_{read_type_map,pe|se|singleton|collapsed}.tsv</text>
<polygon fill="#579ed9" stroke="#579ed9" points="798,-2402 798,-2402 1406,-2402 1406,-2402 798,-2402"/>
<polygon fill="#579ed9" stroke="#579ed9" points="798,-2326 798,-2326 1406,-2326 1406,-2326 798,-2326"/>
<polygon fill="none" stroke="#579ed9" stroke-width="2" points="797.5,-2283 797.5,-2431 1404.5,-2431 1404.5,-2283 797.5,-2283"/>
</g>
<!-- 8&#45;&gt;7 -->
<g id="edge14" class="edge">
<title>8&#45;&gt;7</title>
<path fill="none" stroke="#c0c0c0" stroke-width="2" d="M1017.8784,-2281.9361C1007.2997,-2272.3829 996.4843,-2262.6159 985.9406,-2253.0943"/>
<polygon fill="#c0c0c0" stroke="#c0c0c0" stroke-width="2" points="988.086,-2250.3158 978.3185,-2246.2111 983.3944,-2255.5109 988.086,-2250.3158"/>
</g>
<!-- 13 -->
<g id="node14" class="node">
<title>13</title>
<text text-anchor="start" x="1451" y="-2057.6" font-family="sans" font-weight="bold" font-size="18.00" fill="#000000">shard_saturated_reads_extract</text>
<text text-anchor="start" x="1303" y="-2033.8" font-family="sans" font-size="10.00" fill="#000000"> </text>
<text text-anchor="start" x="1307" y="-2033.8" font-family="sans" font-weight="bold" font-size="14.00" fill="#000000">↪ input</text>
<text text-anchor="start" x="1360" y="-2033.8" font-family="sans" font-size="10.00" fill="#000000"> </text>
<text text-anchor="start" x="1303" y="-2014" font-family="monospace" font-size="10.00" fill="#000000">&lt;input function&gt;</text>
<text text-anchor="start" x="1303" y="-1996" font-family="monospace" font-size="10.00" fill="#000000">temp/shards/saturated_reads/filter/{sample}_{library}_{read_type_map}.tsv</text>
<text text-anchor="start" x="1793" y="-1975.8" font-family="sans" font-size="10.00" fill="#000000"> </text>
<text text-anchor="start" x="1797" y="-1975.8" font-family="sans" font-weight="bold" font-size="14.00" fill="#000000">output →</text>
<text text-anchor="start" x="1858" y="-1975.8" font-family="sans" font-size="10.00" fill="#000000"> </text>
<text text-anchor="start" x="1303" y="-1956" font-family="monospace" font-size="10.00" fill="#000000">results/reads/saturated/{sample}_{library}_{read_type_map,pe|se|singleton|collapsed}.fastq.gz</text>
<polygon fill="#57b5d9" stroke="#57b5d9" points="1297,-2048 1297,-2048 1869,-2048 1869,-2048 1297,-2048"/>
<polygon fill="#57b5d9" stroke="#57b5d9" points="1297,-1990 1297,-1990 1869,-1990 1869,-1990 1297,-1990"/>
<polygon fill="none" stroke="#57b5d9" stroke-width="2" points="1296.5,-1947 1296.5,-2077 1867.5,-2077 1867.5,-1947 1296.5,-1947"/>
</g>
<!-- 8&#45;&gt;13 -->
<g id="edge21" class="edge">
<title>8&#45;&gt;13</title>
<path fill="none" stroke="#c0c0c0" stroke-width="2" d="M1256.7226,-2281.8977C1276.7738,-2270.5942 1296.6804,-2258.5078 1315,-2246 1384.9869,-2198.2162 1456.8117,-2134.264 1508.3135,-2085.2929"/>
<polygon fill="#c0c0c0" stroke="#c0c0c0" stroke-width="2" points="1510.947,-2087.6176 1515.762,-2078.18 1506.1126,-2082.555 1510.947,-2087.6176"/>
</g>
<!-- 9&#45;&gt;8 -->
<g id="edge15" class="edge">
<title>9&#45;&gt;8</title>
<path fill="none" stroke="#c0c0c0" stroke-width="2" d="M1101,-2467.6538C1101,-2459.4553 1101,-2450.8789 1101,-2442.2845"/>
<polygon fill="#c0c0c0" stroke="#c0c0c0" stroke-width="2" points="1104.5001,-2442.2088 1101,-2432.2088 1097.5001,-2442.2088 1104.5001,-2442.2088"/>
</g>
<!-- 10 -->
<g id="node11" class="node">
<title>10</title>
<text text-anchor="start" x="844.5" y="-1313.6" font-family="sans" font-weight="bold" font-size="18.00" fill="#000000">metadmg_dfit</text>
<text text-anchor="start" x="621" y="-1289.8" font-family="sans" font-size="10.00" fill="#000000"> </text>
<text text-anchor="start" x="625" y="-1289.8" font-family="sans" font-weight="bold" font-size="14.00" fill="#000000">↪ input</text>
<text text-anchor="start" x="678" y="-1289.8" font-family="sans" font-size="10.00" fill="#000000"> </text>
<text text-anchor="start" x="621" y="-1270" font-family="monospace" font-size="10.00" fill="#000000">/datasets/caeg_dataset/taxonomy/ncbi/20250210/names.dmp</text>
<text text-anchor="start" x="621" y="-1252" font-family="monospace" font-size="10.00" fill="#000000">/datasets/caeg_dataset/taxonomy/ncbi/20250210/nodes.dmp</text>
<text text-anchor="start" x="621" y="-1234" font-family="monospace" font-size="10.00" fill="#000000">results/metadmg/lca/{sample}_{library}_{read_type_map}.bdamage.gz</text>
<text text-anchor="start" x="1117" y="-1213.8" font-family="sans" font-size="10.00" fill="#000000"> </text>
<text text-anchor="start" x="1121" y="-1213.8" font-family="sans" font-weight="bold" font-size="14.00" fill="#000000">output →</text>
<text text-anchor="start" x="1182" y="-1213.8" font-family="sans" font-size="10.00" fill="#000000"> </text>
<text text-anchor="start" x="621" y="-1194" font-family="monospace" font-size="10.00" fill="#000000">results/metadmg/dfit/{sample}_{library}_{read_type_map,pe|se|singleton|collapsed}.boot.stat.gz</text>
<text text-anchor="start" x="621" y="-1176" font-family="monospace" font-size="10.00" fill="#000000">results/metadmg/dfit/{sample}_{library}_{read_type_map,pe|se|singleton|collapsed}.dfit.gz</text>
<polygon fill="#57d986" stroke="#57d986" points="615,-1304 615,-1304 1193,-1304 1193,-1304 615,-1304"/>
<polygon fill="#57d986" stroke="#57d986" points="615,-1228 615,-1228 1193,-1228 1193,-1228 615,-1228"/>
<polygon fill="none" stroke="#57d986" stroke-width="2" points="614.5,-1167 614.5,-1333 1191.5,-1333 1191.5,-1167 614.5,-1167"/>
</g>
<!-- 10&#45;&gt;1 -->
<g id="edge7" class="edge">
<title>10&#45;&gt;1</title>
<path fill="none" stroke="#c0c0c0" stroke-width="2" d="M613.133,-1168.0036C610.0754,-1167.3234 607.0303,-1166.6552 604,-1166 552.3619,-1154.8347 404.1621,-1169.4308 369,-1130 353.2435,-1112.3306 347.4089,-1019.642 345.9252,-918.4722"/>
<polygon fill="#c0c0c0" stroke="#c0c0c0" stroke-width="2" points="349.4232,-918.2925 345.7912,-908.3396 342.4238,-918.3851 349.4232,-918.2925"/>
</g>
<!-- 12 -->
<g id="node13" class="node">
<title>12</title>
<text text-anchor="start" x="581" y="-1109.6" font-family="sans" font-weight="bold" font-size="18.00" fill="#000000">metadmg_aggregate</text>
<text text-anchor="start" x="386" y="-1085.8" font-family="sans" font-size="10.00" fill="#000000"> </text>
<text text-anchor="start" x="390" y="-1085.8" font-family="sans" font-weight="bold" font-size="14.00" fill="#000000">↪ input</text>
<text text-anchor="start" x="443" y="-1085.8" font-family="sans" font-size="10.00" fill="#000000"> </text>
<text text-anchor="start" x="386" y="-1066" font-family="monospace" font-size="10.00" fill="#000000">/datasets/caeg_dataset/taxonomy/ncbi/20250210/names.dmp</text>
<text text-anchor="start" x="386" y="-1048" font-family="monospace" font-size="10.00" fill="#000000">/datasets/caeg_dataset/taxonomy/ncbi/20250210/nodes.dmp</text>
<text text-anchor="start" x="386" y="-1030" font-family="monospace" font-size="10.00" fill="#000000">results/metadmg/dfit/{sample}_{library}_{read_type_map}.dfit.gz</text>
<text text-anchor="start" x="386" y="-1012" font-family="monospace" font-size="10.00" fill="#000000">results/metadmg/lca/{sample}_{library}_{read_type_map}.bdamage.gz</text>
<text text-anchor="start" x="386" y="-994" font-family="monospace" font-size="10.00" fill="#000000">stats/metadmg/lca/{sample}_{library}_{read_type_map}.stat.gz</text>
<text text-anchor="start" x="882" y="-973.8" font-family="sans" font-size="10.00" fill="#000000"> </text>
<text text-anchor="start" x="886" y="-973.8" font-family="sans" font-weight="bold" font-size="14.00" fill="#000000">output →</text>
<text text-anchor="start" x="947" y="-973.8" font-family="sans" font-size="10.00" fill="#000000"> </text>
<text text-anchor="start" x="386" y="-954" font-family="monospace" font-size="10.00" fill="#000000">results/metadmg/aggregate/{sample}_{library}_{read_type_map,pe|se|singleton|collapsed}.stat.gz</text>
<polygon fill="#57d957" stroke="#57d957" points="380,-1100 380,-1100 958,-1100 958,-1100 380,-1100"/>
<polygon fill="#57d957" stroke="#57d957" points="380,-988 380,-988 958,-988 958,-988 380,-988"/>
<polygon fill="none" stroke="#57d957" stroke-width="2" points="379.5,-945 379.5,-1129 956.5,-1129 956.5,-945 379.5,-945"/>
</g>
<!-- 10&#45;&gt;12 -->
<g id="edge20" class="edge">
<title>10&#45;&gt;12</title>
<path fill="none" stroke="#c0c0c0" stroke-width="2" d="M810.1218,-1165.8168C799.6949,-1156.366 788.9971,-1146.6698 778.3773,-1137.0441"/>
<polygon fill="#c0c0c0" stroke="#c0c0c0" stroke-width="2" points="780.4231,-1134.1746 770.6631,-1130.0521 775.722,-1139.3612 780.4231,-1134.1746"/>
</g>
<!-- 11&#45;&gt;10 -->
<g id="edge17" class="edge">
<title>11&#45;&gt;10</title>
<path fill="none" stroke="#c0c0c0" stroke-width="2" d="M904,-1370C903.9285,-1361.4188 903.857,-1352.8375 903.7869,-1344.4318"/>
<polygon fill="#c0c0c0" stroke="#c0c0c0" stroke-width="2" points="907.2856,-1344.248 903.7023,-1334.2775 900.2859,-1344.3064 907.2856,-1344.248"/>
</g>
<!-- 11&#45;&gt;12 -->
<g id="edge19" class="edge">
<title>11&#45;&gt;12</title>
<path fill="none" stroke="#c0c0c0" stroke-width="2" d="M1174.466,-1369.8851C1184.8634,-1358.8974 1194.168,-1346.9604 1202,-1334 1240.6176,-1270.0954 1250.6359,-1222.6539 1202,-1166 1169.3345,-1127.9494 1033.3267,-1140.4018 967.7209,-1129.7635"/>
<polygon fill="#c0c0c0" stroke="#c0c0c0" stroke-width="2" points="968.3057,-1126.3118 957.8226,-1127.8465 966.9748,-1133.1841 968.3057,-1126.3118"/>
</g>
<!-- 12&#45;&gt;0 -->
<g id="edge1" class="edge">
<title>12&#45;&gt;0</title>
<path fill="none" stroke="#c0c0c0" stroke-width="2" d="M693.1325,-943.7563C733.2211,-795.0241 812.1723,-502.1085 861.8423,-317.8289"/>
<polygon fill="#c0c0c0" stroke="#c0c0c0" stroke-width="2" points="865.2568,-318.6093 864.4799,-308.043 858.498,-316.7875 865.2568,-318.6093"/>
</g>
<!-- 12&#45;&gt;1 -->
<g id="edge5" class="edge">
<title>12&#45;&gt;1</title>
<path fill="none" stroke="#c0c0c0" stroke-width="2" d="M596.0396,-943.9945C589.1689,-935.1146 581.9849,-925.8295 574.5701,-916.2463"/>
<polygon fill="#c0c0c0" stroke="#c0c0c0" stroke-width="2" points="577.177,-913.896 568.2894,-908.1287 571.6406,-918.1796 577.177,-913.896"/>
</g>
<!-- 13&#45;&gt;0 -->
<g id="edge2" class="edge">
<title>13&#45;&gt;0</title>
<path fill="none" stroke="#c0c0c0" stroke-width="2" d="M1582.3372,-1945.9966C1582.6275,-1883.4337 1583,-1786.8221 1583,-1703 1583,-1703 1583,-1703 1583,-1037 1583,-719.8495 1304.5433,-446.3115 1104.7976,-290.8927"/>
<polygon fill="#c0c0c0" stroke="#c0c0c0" stroke-width="2" points="1106.8846,-288.0821 1096.835,-284.7271 1102.5989,-293.6169 1106.8846,-288.0821"/>
</g>
<!-- 14&#45;&gt;0 -->
<g id="edge3" class="edge">
<title>14&#45;&gt;0</title>
<path fill="none" stroke="#c0c0c0" stroke-width="2" d="M1230.7402,-952.7342C1171.4942,-807.0123 1048.9215,-505.5311 972.4701,-317.4905"/>
<polygon fill="#c0c0c0" stroke="#c0c0c0" stroke-width="2" points="975.6468,-316.0108 968.6381,-308.0654 969.1622,-318.6473 975.6468,-316.0108"/>
</g>
</g>
</svg>
