<?xml version="1.0" encoding="UTF-8" standalone="no"?>
<!DOCTYPE svg PUBLIC "-//W3C//DTD SVG 1.1//EN"
 "http://www.w3.org/Graphics/SVG/1.1/DTD/svg11.dtd">
<!-- Generated by graphviz version 2.40.1 (0)
 -->
<!-- Title: snakemake_dag Pages: 1 -->
<svg width="2418pt" height="2164pt"
 viewBox="0.00 0.00 2418.00 2164.00" xmlns="http://www.w3.org/2000/svg" xmlns:xlink="http://www.w3.org/1999/xlink">
<g id="graph0" class="graph" transform="scale(1 1) rotate(0) translate(4 2160)">
<title>snakemake_dag</title>
<polygon fill="#ffffff" stroke="transparent" points="-4,4 -4,-2160 2414,-2160 2414,4 -4,4"/>
<!-- 0 -->
<g id="node1" class="node">
<title>0</title>
<text text-anchor="start" x="1189.5" y="-215.6" font-family="sans" font-weight="bold" font-size="18.00" fill="#000000">all</text>
<text text-anchor="start" x="1016.5" y="-191.8" font-family="sans" font-size="10.00" fill="#000000"> </text>
<text text-anchor="start" x="1020.5" y="-191.8" font-family="sans" font-weight="bold" font-size="14.00" fill="#000000">↪ input</text>
<text text-anchor="start" x="1073.5" y="-191.8" font-family="sans" font-size="10.00" fill="#000000"> </text>
<text text-anchor="start" x="1016.5" y="-172" font-family="monospace" font-size="10.00" fill="#000000">reports/multiqc.html</text>
<text text-anchor="start" x="1016.5" y="-154" font-family="monospace" font-size="10.00" fill="#000000">results/metadmg/aggregate/HD827sonic_1_lib1_collapsed.stat.gz</text>
<text text-anchor="start" x="1016.5" y="-136" font-family="monospace" font-size="10.00" fill="#000000">results/metadmg/aggregate/HD827sonic_1_lib1_collapsed.stat.gz</text>
<text text-anchor="start" x="1016.5" y="-118" font-family="monospace" font-size="10.00" fill="#000000">results/metadmg/aggregate/HD827sonic_2_lib1_collapsed.stat.gz</text>
<text text-anchor="start" x="1016.5" y="-100" font-family="monospace" font-size="10.00" fill="#000000">results/metadmg/aggregate/HD827sonic_2_lib2_collapsed.stat.gz</text>
<text text-anchor="start" x="1016.5" y="-82" font-family="monospace" font-size="10.00" fill="#000000">stats/metadmg/damage/HD827sonic_1_lib1_collapsed.stat.gz</text>
<text text-anchor="start" x="1016.5" y="-64" font-family="monospace" font-size="10.00" fill="#000000">stats/metadmg/damage/HD827sonic_1_lib1_collapsed.stat.gz</text>
<text text-anchor="start" x="1016.5" y="-46" font-family="monospace" font-size="10.00" fill="#000000">stats/metadmg/damage/HD827sonic_2_lib1_collapsed.stat.gz</text>
<text text-anchor="start" x="1016.5" y="-28" font-family="monospace" font-size="10.00" fill="#000000">stats/metadmg/damage/HD827sonic_2_lib2_collapsed.stat.gz</text>
<text text-anchor="start" x="1376.5" y="-10" font-family="sans" font-size="10.00" fill="#000000"> &#160;</text>
<polygon fill="#91d957" stroke="#91d957" points="1010.5,-206 1010.5,-206 1390.5,-206 1390.5,-206 1010.5,-206"/>
<polygon fill="#91d957" stroke="#91d957" points="1010.5,-22 1010.5,-22 1390.5,-22 1390.5,-22 1010.5,-22"/>
<polygon fill="none" stroke="#91d957" stroke-width="2" points="1010,-1 1010,-235 1389,-235 1389,-1 1010,-1"/>
</g>
<!-- 1 -->
<g id="node2" class="node">
<title>1</title>
<text text-anchor="start" x="741.5" y="-815.6" font-family="sans" font-weight="bold" font-size="18.00" fill="#000000">multiqc</text>
<text text-anchor="start" x="536.5" y="-791.8" font-family="sans" font-size="10.00" fill="#000000"> </text>
<text text-anchor="start" x="540.5" y="-791.8" font-family="sans" font-weight="bold" font-size="14.00" fill="#000000">↪ input</text>
<text text-anchor="start" x="593.5" y="-791.8" font-family="sans" font-size="10.00" fill="#000000"> </text>
<text text-anchor="start" x="536.5" y="-772" font-family="monospace" font-size="10.00" fill="#000000">logs/shards/bowtie2/HD827sonic_1_lib1_collapsed.refseq_mitochondrion.1&#45;of&#45;1.log</text>
<text text-anchor="start" x="536.5" y="-754" font-family="monospace" font-size="10.00" fill="#000000">logs/shards/bowtie2/HD827sonic_1_lib1_collapsed.wgs_eukaryota.1&#45;of&#45;2.log</text>
<text text-anchor="start" x="536.5" y="-736" font-family="monospace" font-size="10.00" fill="#000000">logs/shards/bowtie2/HD827sonic_1_lib1_collapsed.wgs_eukaryota.2&#45;of&#45;2.log</text>
<text text-anchor="start" x="536.5" y="-718" font-family="monospace" font-size="10.00" fill="#000000">logs/shards/bowtie2/HD827sonic_2_lib1_collapsed.refseq_mitochondrion.1&#45;of&#45;1.log</text>
<text text-anchor="start" x="536.5" y="-700" font-family="monospace" font-size="10.00" fill="#000000">logs/shards/bowtie2/HD827sonic_2_lib1_collapsed.wgs_eukaryota.1&#45;of&#45;2.log</text>
<text text-anchor="start" x="536.5" y="-682" font-family="monospace" font-size="10.00" fill="#000000">logs/shards/bowtie2/HD827sonic_2_lib1_collapsed.wgs_eukaryota.2&#45;of&#45;2.log</text>
<text text-anchor="start" x="536.5" y="-664" font-family="monospace" font-size="10.00" fill="#000000">logs/shards/bowtie2/HD827sonic_2_lib2_collapsed.refseq_mitochondrion.1&#45;of&#45;1.log</text>
<text text-anchor="start" x="536.5" y="-646" font-family="monospace" font-size="10.00" fill="#000000">logs/shards/bowtie2/HD827sonic_2_lib2_collapsed.wgs_eukaryota.1&#45;of&#45;2.log</text>
<text text-anchor="start" x="536.5" y="-628" font-family="monospace" font-size="10.00" fill="#000000">logs/shards/bowtie2/HD827sonic_2_lib2_collapsed.wgs_eukaryota.2&#45;of&#45;2.log</text>
<text text-anchor="start" x="536.5" y="-610" font-family="monospace" font-size="10.00" fill="#000000">results/metadmg/aggregate/HD827sonic_1_lib1_collapsed.stat.gz</text>
<text text-anchor="start" x="536.5" y="-592" font-family="monospace" font-size="10.00" fill="#000000">results/metadmg/aggregate/HD827sonic_1_lib1_collapsed.stat.gz</text>
<text text-anchor="start" x="536.5" y="-574" font-family="monospace" font-size="10.00" fill="#000000">results/metadmg/aggregate/HD827sonic_2_lib1_collapsed.stat.gz</text>
<text text-anchor="start" x="536.5" y="-556" font-family="monospace" font-size="10.00" fill="#000000">results/metadmg/aggregate/HD827sonic_2_lib2_collapsed.stat.gz</text>
<text text-anchor="start" x="536.5" y="-538" font-family="monospace" font-size="10.00" fill="#000000">results/metadmg/dfit/HD827sonic_1_lib1_collapsed.dfit.gz</text>
<text text-anchor="start" x="536.5" y="-520" font-family="monospace" font-size="10.00" fill="#000000">results/metadmg/dfit/HD827sonic_1_lib1_collapsed.dfit.gz</text>
<text text-anchor="start" x="536.5" y="-502" font-family="monospace" font-size="10.00" fill="#000000">results/metadmg/dfit/HD827sonic_2_lib1_collapsed.dfit.gz</text>
<text text-anchor="start" x="536.5" y="-484" font-family="monospace" font-size="10.00" fill="#000000">results/metadmg/dfit/HD827sonic_2_lib2_collapsed.dfit.gz</text>
<text text-anchor="start" x="536.5" y="-466" font-family="monospace" font-size="10.00" fill="#000000">stats/aligns/samtools_stats/HD827sonic_1_lib1_collapsed.txt</text>
<text text-anchor="start" x="536.5" y="-448" font-family="monospace" font-size="10.00" fill="#000000">stats/aligns/samtools_stats/HD827sonic_1_lib1_collapsed.txt</text>
<text text-anchor="start" x="536.5" y="-430" font-family="monospace" font-size="10.00" fill="#000000">stats/aligns/samtools_stats/HD827sonic_1_lib1_collapsed.txt</text>
<text text-anchor="start" x="536.5" y="-412" font-family="monospace" font-size="10.00" fill="#000000">stats/aligns/samtools_stats/HD827sonic_1_lib1_collapsed.txt</text>
<text text-anchor="start" x="536.5" y="-394" font-family="monospace" font-size="10.00" fill="#000000">stats/aligns/samtools_stats/HD827sonic_2_lib1_collapsed.txt</text>
<text text-anchor="start" x="536.5" y="-376" font-family="monospace" font-size="10.00" fill="#000000">stats/aligns/samtools_stats/HD827sonic_2_lib1_collapsed.txt</text>
<text text-anchor="start" x="536.5" y="-358" font-family="monospace" font-size="10.00" fill="#000000">stats/aligns/samtools_stats/HD827sonic_2_lib2_collapsed.txt</text>
<text text-anchor="start" x="536.5" y="-340" font-family="monospace" font-size="10.00" fill="#000000">stats/aligns/samtools_stats/HD827sonic_2_lib2_collapsed.txt</text>
<text text-anchor="start" x="942.5" y="-319.8" font-family="sans" font-size="10.00" fill="#000000"> </text>
<text text-anchor="start" x="946.5" y="-319.8" font-family="sans" font-weight="bold" font-size="14.00" fill="#000000">output →</text>
<text text-anchor="start" x="1007.5" y="-319.8" font-family="sans" font-size="10.00" fill="#000000"> </text>
<text text-anchor="start" x="536.5" y="-300" font-family="monospace" font-size="10.00" fill="#000000">reports/multiqc.html</text>
<text text-anchor="start" x="536.5" y="-282" font-family="monospace" font-size="10.00" fill="#000000">reports/multiqc_data.zip</text>
<polygon fill="#57add9" stroke="#57add9" points="530.5,-806 530.5,-806 1018.5,-806 1018.5,-806 530.5,-806"/>
<polygon fill="#57add9" stroke="#57add9" points="530.5,-334 530.5,-334 1018.5,-334 1018.5,-334 530.5,-334"/>
<polygon fill="none" stroke="#57add9" stroke-width="2" points="530,-273 530,-835 1017,-835 1017,-273 530,-273"/>
</g>
<!-- 1&#45;&gt;0 -->
<g id="edge3" class="edge">
<title>1&#45;&gt;0</title>
<path fill="none" stroke="#c0c0c0" stroke-width="2" d="M1018.2199,-303.5355C1038.4441,-282.8365 1058.278,-262.537 1076.9703,-243.406"/>
<polygon fill="#c0c0c0" stroke="#c0c0c0" stroke-width="2" points="1079.5916,-245.7314 1084.0768,-236.1327 1074.5847,-240.8393 1079.5916,-245.7314"/>
</g>
<!-- 2 -->
<g id="node3" class="node">
<title>2</title>
<text text-anchor="start" x="429.5" y="-2135.6" font-family="sans" font-weight="bold" font-size="18.00" fill="#000000">bowtie2</text>
<text text-anchor="start" x="7.5" y="-2111.8" font-family="sans" font-size="10.00" fill="#000000"> </text>
<text text-anchor="start" x="11.5" y="-2111.8" font-family="sans" font-weight="bold" font-size="14.00" fill="#000000">↪ input</text>
<text text-anchor="start" x="64.5" y="-2111.8" font-family="sans" font-size="10.00" fill="#000000"> </text>
<text text-anchor="start" x="7.5" y="-2092" font-family="monospace" font-size="10.00" fill="#000000">&lt;input function&gt;</text>
<text text-anchor="start" x="7.5" y="-2074" font-family="monospace" font-size="10.00" fill="#000000">&lt;input function&gt;</text>
<text text-anchor="start" x="851.5" y="-2053.8" font-family="sans" font-size="10.00" fill="#000000"> </text>
<text text-anchor="start" x="855.5" y="-2053.8" font-family="sans" font-weight="bold" font-size="14.00" fill="#000000">output →</text>
<text text-anchor="start" x="916.5" y="-2053.8" font-family="sans" font-size="10.00" fill="#000000"> </text>
<text text-anchor="start" x="7.5" y="-2034" font-family="monospace" font-size="10.00" fill="#000000">temp/shards/bowtie2/{sample,HD827sonic_1|HD827sonic_2}_{library,lib1|lib2}_{read_type_map,pe|se|singleton|collapsed}.{ref}.{n_shard}&#45;of&#45;{tot_shards}.bam</text>
<polygon fill="#74d957" stroke="#74d957" points="1.5,-2126 1.5,-2126 927.5,-2126 927.5,-2126 1.5,-2126"/>
<polygon fill="#74d957" stroke="#74d957" points="1.5,-2068 1.5,-2068 927.5,-2068 927.5,-2068 1.5,-2068"/>
<polygon fill="none" stroke="#74d957" stroke-width="2" points="1,-2025 1,-2155 926,-2155 926,-2025 1,-2025"/>
</g>
<!-- 2&#45;&gt;1 -->
<g id="edge7" class="edge">
<title>2&#45;&gt;1</title>
<path fill="none" stroke="#c0c0c0" stroke-width="2" d="M207.6681,-2023.8109C189.2962,-2013.5387 171.9532,-2001.6825 156.5,-1988 80.2905,-1920.5226 58.5,-1882.7894 58.5,-1781 58.5,-1781 58.5,-1781 58.5,-1178 58.5,-925.7588 314.2236,-752.0428 519.8034,-653.1445"/>
<polygon fill="#c0c0c0" stroke="#c0c0c0" stroke-width="2" points="521.4215,-656.2505 528.9377,-648.7834 518.4055,-649.9335 521.4215,-656.2505"/>
</g>
<!-- 6 -->
<g id="node7" class="node">
<title>6</title>
<text text-anchor="start" x="558.5" y="-1967.6" font-family="sans" font-weight="bold" font-size="18.00" fill="#000000">shard_clean_header</text>
<text text-anchor="start" x="173.5" y="-1943.8" font-family="sans" font-size="10.00" fill="#000000"> </text>
<text text-anchor="start" x="177.5" y="-1943.8" font-family="sans" font-weight="bold" font-size="14.00" fill="#000000">↪ input</text>
<text text-anchor="start" x="230.5" y="-1943.8" font-family="sans" font-size="10.00" fill="#000000"> </text>
<text text-anchor="start" x="173.5" y="-1924" font-family="monospace" font-size="10.00" fill="#000000">&lt;input function&gt;</text>
<text text-anchor="start" x="1047.5" y="-1903.8" font-family="sans" font-size="10.00" fill="#000000"> </text>
<text text-anchor="start" x="1051.5" y="-1903.8" font-family="sans" font-weight="bold" font-size="14.00" fill="#000000">output →</text>
<text text-anchor="start" x="1112.5" y="-1903.8" font-family="sans" font-size="10.00" fill="#000000"> </text>
<text text-anchor="start" x="173.5" y="-1884" font-family="monospace" font-size="10.00" fill="#000000">temp/shards/clean_header/{sample,HD827sonic_1|HD827sonic_2}_{library,lib1|lib2}_{read_type_map,pe|se|singleton|collapsed}.{ref}.{n_shard}&#45;of&#45;{tot_shards}.bam</text>
<polygon fill="#5791d9" stroke="#5791d9" points="167.5,-1958 167.5,-1958 1123.5,-1958 1123.5,-1958 167.5,-1958"/>
<polygon fill="#5791d9" stroke="#5791d9" points="167.5,-1918 167.5,-1918 1123.5,-1918 1123.5,-1918 167.5,-1918"/>
<polygon fill="none" stroke="#5791d9" stroke-width="2" points="167,-1875 167,-1987 1122,-1987 1122,-1875 167,-1875"/>
</g>
<!-- 2&#45;&gt;6 -->
<g id="edge11" class="edge">
<title>2&#45;&gt;6</title>
<path fill="none" stroke="#c0c0c0" stroke-width="2" d="M538.6879,-2023.951C549.5518,-2014.4076 560.7189,-2004.5978 571.5382,-1995.0935"/>
<polygon fill="#c0c0c0" stroke="#c0c0c0" stroke-width="2" points="574.1426,-1997.4643 579.3457,-1988.235 569.5228,-1992.2053 574.1426,-1997.4643"/>
</g>
<!-- 3 -->
<g id="node4" class="node">
<title>3</title>
<text text-anchor="start" x="432" y="-1214.6" font-family="sans" font-weight="bold" font-size="18.00" fill="#000000">align_stats</text>
<text text-anchor="start" x="94.5" y="-1190.8" font-family="sans" font-size="10.00" fill="#000000"> </text>
<text text-anchor="start" x="98.5" y="-1190.8" font-family="sans" font-weight="bold" font-size="14.00" fill="#000000">↪ input</text>
<text text-anchor="start" x="151.5" y="-1190.8" font-family="sans" font-size="10.00" fill="#000000"> </text>
<text text-anchor="start" x="94.5" y="-1171" font-family="monospace" font-size="10.00" fill="#000000">temp/aligns/merge/{sample}_{library}_{read_type_map}.bam</text>
<text text-anchor="start" x="794.5" y="-1150.8" font-family="sans" font-size="10.00" fill="#000000"> </text>
<text text-anchor="start" x="798.5" y="-1150.8" font-family="sans" font-weight="bold" font-size="14.00" fill="#000000">output →</text>
<text text-anchor="start" x="859.5" y="-1150.8" font-family="sans" font-size="10.00" fill="#000000"> </text>
<text text-anchor="start" x="94.5" y="-1131" font-family="monospace" font-size="10.00" fill="#000000">stats/aligns/samtools_stats/{sample,HD827sonic_1|HD827sonic_2}_{library,lib1|lib2}_{read_type_map,pe|se|singleton|collapsed}.txt</text>
<polygon fill="#add957" stroke="#add957" points="88.5,-1205 88.5,-1205 870.5,-1205 870.5,-1205 88.5,-1205"/>
<polygon fill="#add957" stroke="#add957" points="88.5,-1165 88.5,-1165 870.5,-1165 870.5,-1165 88.5,-1165"/>
<polygon fill="none" stroke="#add957" stroke-width="2" points="88,-1122 88,-1234 869,-1234 869,-1122 88,-1122"/>
</g>
<!-- 3&#45;&gt;1 -->
<g id="edge4" class="edge">
<title>3&#45;&gt;1</title>
<path fill="none" stroke="#c0c0c0" stroke-width="2" d="M505.4613,-1120.97C535.5212,-1057.3856 586.4343,-949.6914 635.8636,-845.1359"/>
<polygon fill="#c0c0c0" stroke="#c0c0c0" stroke-width="2" points="639.0714,-846.5396 640.1813,-836.003 632.743,-843.5478 639.0714,-846.5396"/>
</g>
<!-- 4 -->
<g id="node5" class="node">
<title>4</title>
<text text-anchor="start" x="829" y="-1667.6" font-family="sans" font-weight="bold" font-size="18.00" fill="#000000">align_merge</text>
<text text-anchor="start" x="527.5" y="-1643.8" font-family="sans" font-size="10.00" fill="#000000"> </text>
<text text-anchor="start" x="531.5" y="-1643.8" font-family="sans" font-weight="bold" font-size="14.00" fill="#000000">↪ input</text>
<text text-anchor="start" x="584.5" y="-1643.8" font-family="sans" font-size="10.00" fill="#000000"> </text>
<text text-anchor="start" x="527.5" y="-1624" font-family="monospace" font-size="10.00" fill="#000000">&lt;input function&gt;</text>
<text text-anchor="start" x="1167.5" y="-1603.8" font-family="sans" font-size="10.00" fill="#000000"> </text>
<text text-anchor="start" x="1171.5" y="-1603.8" font-family="sans" font-weight="bold" font-size="14.00" fill="#000000">output →</text>
<text text-anchor="start" x="1232.5" y="-1603.8" font-family="sans" font-size="10.00" fill="#000000"> </text>
<text text-anchor="start" x="527.5" y="-1584" font-family="monospace" font-size="10.00" fill="#000000">temp/aligns/merge/{sample,HD827sonic_1|HD827sonic_2}_{library,lib1|lib2}_{read_type_map,pe|se|singleton|collapsed}.bam</text>
<polygon fill="#d99157" stroke="#d99157" points="521.5,-1658 521.5,-1658 1243.5,-1658 1243.5,-1658 521.5,-1658"/>
<polygon fill="#d99157" stroke="#d99157" points="521.5,-1618 521.5,-1618 1243.5,-1618 1243.5,-1618 521.5,-1618"/>
<polygon fill="none" stroke="#d99157" stroke-width="2" points="521,-1575 521,-1687 1242,-1687 1242,-1575 521,-1575"/>
</g>
<!-- 4&#45;&gt;3 -->
<g id="edge8" class="edge">
<title>4&#45;&gt;3</title>
<path fill="none" stroke="#c0c0c0" stroke-width="2" d="M830.4598,-1573.6272C755.2392,-1489.0741 615.0265,-1331.4652 536.1777,-1242.8337"/>
<polygon fill="#c0c0c0" stroke="#c0c0c0" stroke-width="2" points="538.7046,-1240.4084 529.4429,-1235.2633 533.4746,-1245.0611 538.7046,-1240.4084"/>
</g>
<!-- 8 -->
<g id="node9" class="node">
<title>8</title>
<text text-anchor="start" x="1228.5" y="-1517.6" font-family="sans" font-weight="bold" font-size="18.00" fill="#000000">metadmg_lca</text>
<text text-anchor="start" x="904.5" y="-1493.8" font-family="sans" font-size="10.00" fill="#000000"> </text>
<text text-anchor="start" x="908.5" y="-1493.8" font-family="sans" font-weight="bold" font-size="14.00" fill="#000000">↪ input</text>
<text text-anchor="start" x="961.5" y="-1493.8" font-family="sans" font-size="10.00" fill="#000000"> </text>
<text text-anchor="start" x="904.5" y="-1474" font-family="monospace" font-size="10.00" fill="#000000">/datasets/caeg_dataset/references/ncbi/20250205/refseq_mitochondrion.genomic.acc2taxid.gz</text>
<text text-anchor="start" x="904.5" y="-1456" font-family="monospace" font-size="10.00" fill="#000000">/datasets/caeg_dataset/references/ncbi/20250205/wgs_eukaryota.acc2taxid.gz</text>
<text text-anchor="start" x="904.5" y="-1438" font-family="monospace" font-size="10.00" fill="#000000">/datasets/caeg_dataset/taxonomy/20250210/names.dmp</text>
<text text-anchor="start" x="904.5" y="-1420" font-family="monospace" font-size="10.00" fill="#000000">/datasets/caeg_dataset/taxonomy/20250210/nodes.dmp</text>
<text text-anchor="start" x="904.5" y="-1402" font-family="monospace" font-size="10.00" fill="#000000">&lt;function &lt;lambda&gt; at 0x7f0d3cce7060&gt;</text>
<text text-anchor="start" x="1598.5" y="-1381.8" font-family="sans" font-size="10.00" fill="#000000"> </text>
<text text-anchor="start" x="1602.5" y="-1381.8" font-family="sans" font-weight="bold" font-size="14.00" fill="#000000">output →</text>
<text text-anchor="start" x="1663.5" y="-1381.8" font-family="sans" font-size="10.00" fill="#000000"> </text>
<text text-anchor="start" x="904.5" y="-1362" font-family="monospace" font-size="10.00" fill="#000000">results/metadmg/lca/{sample,HD827sonic_1|HD827sonic_2}_{library,lib1|lib2}_{read_type_map,pe|se|singleton|collapsed}.bdamage.gz</text>
<text text-anchor="start" x="904.5" y="-1344" font-family="monospace" font-size="10.00" fill="#000000">results/metadmg/lca/{sample,HD827sonic_1|HD827sonic_2}_{library,lib1|lib2}_{read_type_map,pe|se|singleton|collapsed}.lca.gz</text>
<text text-anchor="start" x="904.5" y="-1326" font-family="monospace" font-size="10.00" fill="#000000">stats/metadmg/lca/{sample,HD827sonic_1|HD827sonic_2}_{library,lib1|lib2}_{read_type_map,pe|se|singleton|collapsed}.rlens.gz</text>
<text text-anchor="start" x="904.5" y="-1308" font-family="monospace" font-size="10.00" fill="#000000">stats/metadmg/lca/{sample,HD827sonic_1|HD827sonic_2}_{library,lib1|lib2}_{read_type_map,pe|se|singleton|collapsed}.stat.gz</text>
<polygon fill="#57cad9" stroke="#57cad9" points="898.5,-1508 898.5,-1508 1674.5,-1508 1674.5,-1508 898.5,-1508"/>
<polygon fill="#57cad9" stroke="#57cad9" points="898.5,-1396 898.5,-1396 1674.5,-1396 1674.5,-1396 898.5,-1396"/>
<polygon fill="none" stroke="#57cad9" stroke-width="2" points="898,-1299 898,-1537 1673,-1537 1673,-1299 898,-1299"/>
</g>
<!-- 4&#45;&gt;8 -->
<g id="edge13" class="edge">
<title>4&#45;&gt;8</title>
<path fill="none" stroke="#c0c0c0" stroke-width="2" d="M989.7646,-1573.9199C1008.2922,-1564.1516 1028.1717,-1553.6706 1048.5403,-1542.9317"/>
<polygon fill="#c0c0c0" stroke="#c0c0c0" stroke-width="2" points="1050.3987,-1545.9086 1057.6122,-1538.1487 1047.134,-1539.7165 1050.3987,-1545.9086"/>
</g>
<!-- 10 -->
<g id="node11" class="node">
<title>10</title>
<text text-anchor="start" x="1934.5" y="-1028.6" font-family="sans" font-weight="bold" font-size="18.00" fill="#000000">metadmg_damage</text>
<text text-anchor="start" x="1622.5" y="-1004.8" font-family="sans" font-size="10.00" fill="#000000"> </text>
<text text-anchor="start" x="1626.5" y="-1004.8" font-family="sans" font-weight="bold" font-size="14.00" fill="#000000">↪ input</text>
<text text-anchor="start" x="1679.5" y="-1004.8" font-family="sans" font-size="10.00" fill="#000000"> </text>
<text text-anchor="start" x="1622.5" y="-985" font-family="monospace" font-size="10.00" fill="#000000">&lt;function &lt;lambda&gt; at 0x7f0d3cce6fc0&gt;</text>
<text text-anchor="start" x="2334.5" y="-964.8" font-family="sans" font-size="10.00" fill="#000000"> </text>
<text text-anchor="start" x="2338.5" y="-964.8" font-family="sans" font-weight="bold" font-size="14.00" fill="#000000">output →</text>
<text text-anchor="start" x="2399.5" y="-964.8" font-family="sans" font-size="10.00" fill="#000000"> </text>
<text text-anchor="start" x="1622.5" y="-945" font-family="monospace" font-size="10.00" fill="#000000">results/metadmg/damage/{sample,HD827sonic_1|HD827sonic_2}_{library,lib1|lib2}_{read_type_map,pe|se|singleton|collapsed}.bdamage.gz</text>
<text text-anchor="start" x="1622.5" y="-927" font-family="monospace" font-size="10.00" fill="#000000">results/metadmg/damage/{sample,HD827sonic_1|HD827sonic_2}_{library,lib1|lib2}_{read_type_map,pe|se|singleton|collapsed}.res.gz</text>
<text text-anchor="start" x="1622.5" y="-909" font-family="monospace" font-size="10.00" fill="#000000">stats/metadmg/damage/{sample,HD827sonic_1|HD827sonic_2}_{library,lib1|lib2}_{read_type_map,pe|se|singleton|collapsed}.rlens.gz</text>
<text text-anchor="start" x="1622.5" y="-891" font-family="monospace" font-size="10.00" fill="#000000">stats/metadmg/damage/{sample,HD827sonic_1|HD827sonic_2}_{library,lib1|lib2}_{read_type_map,pe|se|singleton|collapsed}.stat.gz</text>
<polygon fill="#57d9ad" stroke="#57d9ad" points="1616.5,-1019 1616.5,-1019 2410.5,-1019 2410.5,-1019 1616.5,-1019"/>
<polygon fill="#57d9ad" stroke="#57d9ad" points="1616.5,-979 1616.5,-979 2410.5,-979 2410.5,-979 1616.5,-979"/>
<polygon fill="none" stroke="#57d9ad" stroke-width="2" points="1616,-882 1616,-1048 2409,-1048 2409,-882 1616,-882"/>
</g>
<!-- 4&#45;&gt;10 -->
<g id="edge16" class="edge">
<title>4&#45;&gt;10</title>
<path fill="none" stroke="#c0c0c0" stroke-width="2" d="M1243.22,-1604.0003C1437.6489,-1586.8331 1645.3116,-1563.1573 1683.5,-1538 1854.8717,-1425.1057 1947.3945,-1190.1724 1987.5814,-1058.8989"/>
<polygon fill="#c0c0c0" stroke="#c0c0c0" stroke-width="2" points="1990.9573,-1059.8268 1990.5006,-1049.2418 1984.2567,-1057.8013 1990.9573,-1059.8268"/>
</g>
<!-- 5 -->
<g id="node6" class="node">
<title>5</title>
<text text-anchor="start" x="726.5" y="-1817.6" font-family="sans" font-weight="bold" font-size="18.00" fill="#000000">shard_sort_query</text>
<text text-anchor="start" x="337.5" y="-1793.8" font-family="sans" font-size="10.00" fill="#000000"> </text>
<text text-anchor="start" x="341.5" y="-1793.8" font-family="sans" font-weight="bold" font-size="14.00" fill="#000000">↪ input</text>
<text text-anchor="start" x="394.5" y="-1793.8" font-family="sans" font-size="10.00" fill="#000000"> </text>
<text text-anchor="start" x="337.5" y="-1774" font-family="monospace" font-size="10.00" fill="#000000">temp/shards/clean_header/{sample}_{library}_{read_type_map}.{ref}.{n_shard}&#45;of&#45;{tot_shards}.bam</text>
<text text-anchor="start" x="1199.5" y="-1753.8" font-family="sans" font-size="10.00" fill="#000000"> </text>
<text text-anchor="start" x="1203.5" y="-1753.8" font-family="sans" font-weight="bold" font-size="14.00" fill="#000000">output →</text>
<text text-anchor="start" x="1264.5" y="-1753.8" font-family="sans" font-size="10.00" fill="#000000"> </text>
<text text-anchor="start" x="337.5" y="-1734" font-family="monospace" font-size="10.00" fill="#000000">temp/shards/sort_query/{sample,HD827sonic_1|HD827sonic_2}_{library,lib1|lib2}_{read_type_map,pe|se|singleton|collapsed}.{ref}.{n_shard}&#45;of&#45;{tot_shards}.bam</text>
<polygon fill="#5774d9" stroke="#5774d9" points="331.5,-1808 331.5,-1808 1275.5,-1808 1275.5,-1808 331.5,-1808"/>
<polygon fill="#5774d9" stroke="#5774d9" points="331.5,-1768 331.5,-1768 1275.5,-1768 1275.5,-1768 331.5,-1768"/>
<polygon fill="none" stroke="#5774d9" stroke-width="2" points="331,-1725 331,-1837 1274,-1837 1274,-1725 331,-1725"/>
</g>
<!-- 5&#45;&gt;4 -->
<g id="edge9" class="edge">
<title>5&#45;&gt;4</title>
<path fill="none" stroke="#c0c0c0" stroke-width="2" d="M832.5919,-1723.8635C837.1226,-1715.2608 841.8287,-1706.3252 846.4524,-1697.5461"/>
<polygon fill="#c0c0c0" stroke="#c0c0c0" stroke-width="2" points="849.6669,-1698.9534 851.2301,-1688.4745 843.4734,-1695.6914 849.6669,-1698.9534"/>
</g>
<!-- 6&#45;&gt;5 -->
<g id="edge10" class="edge">
<title>6&#45;&gt;5</title>
<path fill="none" stroke="#c0c0c0" stroke-width="2" d="M704.6838,-1873.8635C714.5785,-1864.4698 724.8914,-1854.679 734.9512,-1845.1286"/>
<polygon fill="#c0c0c0" stroke="#c0c0c0" stroke-width="2" points="737.3795,-1847.6494 742.222,-1838.226 732.5599,-1842.5728 737.3795,-1847.6494"/>
</g>
<!-- 7 -->
<g id="node8" class="node">
<title>7</title>
<text text-anchor="start" x="1227" y="-1241.6" font-family="sans" font-weight="bold" font-size="18.00" fill="#000000">metadmg_dfit</text>
<text text-anchor="start" x="895.5" y="-1217.8" font-family="sans" font-size="10.00" fill="#000000"> </text>
<text text-anchor="start" x="899.5" y="-1217.8" font-family="sans" font-weight="bold" font-size="14.00" fill="#000000">↪ input</text>
<text text-anchor="start" x="952.5" y="-1217.8" font-family="sans" font-size="10.00" fill="#000000"> </text>
<text text-anchor="start" x="895.5" y="-1198" font-family="monospace" font-size="10.00" fill="#000000">/datasets/caeg_dataset/taxonomy/20250210/names.dmp</text>
<text text-anchor="start" x="895.5" y="-1180" font-family="monospace" font-size="10.00" fill="#000000">/datasets/caeg_dataset/taxonomy/20250210/nodes.dmp</text>
<text text-anchor="start" x="895.5" y="-1162" font-family="monospace" font-size="10.00" fill="#000000">results/metadmg/lca/{sample}_{library}_{read_type_map}.bdamage.gz</text>
<text text-anchor="start" x="1607.5" y="-1141.8" font-family="sans" font-size="10.00" fill="#000000"> </text>
<text text-anchor="start" x="1611.5" y="-1141.8" font-family="sans" font-weight="bold" font-size="14.00" fill="#000000">output →</text>
<text text-anchor="start" x="1672.5" y="-1141.8" font-family="sans" font-size="10.00" fill="#000000"> </text>
<text text-anchor="start" x="895.5" y="-1122" font-family="monospace" font-size="10.00" fill="#000000">results/metadmg/dfit/{sample,HD827sonic_1|HD827sonic_2}_{library,lib1|lib2}_{read_type_map,pe|se|singleton|collapsed}.boot.stat.gz</text>
<text text-anchor="start" x="895.5" y="-1104" font-family="monospace" font-size="10.00" fill="#000000">results/metadmg/dfit/{sample,HD827sonic_1|HD827sonic_2}_{library,lib1|lib2}_{read_type_map,pe|se|singleton|collapsed}.dfit.gz</text>
<polygon fill="#57d9ca" stroke="#57d9ca" points="889.5,-1232 889.5,-1232 1683.5,-1232 1683.5,-1232 889.5,-1232"/>
<polygon fill="#57d9ca" stroke="#57d9ca" points="889.5,-1156 889.5,-1156 1683.5,-1156 1683.5,-1156 889.5,-1156"/>
<polygon fill="none" stroke="#57d9ca" stroke-width="2" points="889,-1095 889,-1261 1682,-1261 1682,-1095 889,-1095"/>
</g>
<!-- 7&#45;&gt;1 -->
<g id="edge6" class="edge">
<title>7&#45;&gt;1</title>
<path fill="none" stroke="#c0c0c0" stroke-width="2" d="M887.9641,-1096.1065C838.3535,-1082.4828 801.6245,-1069.172 792.5,-1058 744.4611,-999.181 726.7918,-922.3675 724.4281,-846.5036"/>
<polygon fill="#c0c0c0" stroke="#c0c0c0" stroke-width="2" points="727.9225,-846.2123 724.2009,-836.2927 720.9243,-846.3681 727.9225,-846.2123"/>
</g>
<!-- 9 -->
<g id="node10" class="node">
<title>9</title>
<text text-anchor="start" x="1112.5" y="-1037.6" font-family="sans" font-weight="bold" font-size="18.00" fill="#000000">metadmg_aggregate</text>
<text text-anchor="start" x="809.5" y="-1013.8" font-family="sans" font-size="10.00" fill="#000000"> </text>
<text text-anchor="start" x="813.5" y="-1013.8" font-family="sans" font-weight="bold" font-size="14.00" fill="#000000">↪ input</text>
<text text-anchor="start" x="866.5" y="-1013.8" font-family="sans" font-size="10.00" fill="#000000"> </text>
<text text-anchor="start" x="809.5" y="-994" font-family="monospace" font-size="10.00" fill="#000000">/datasets/caeg_dataset/taxonomy/20250210/names.dmp</text>
<text text-anchor="start" x="809.5" y="-976" font-family="monospace" font-size="10.00" fill="#000000">/datasets/caeg_dataset/taxonomy/20250210/nodes.dmp</text>
<text text-anchor="start" x="809.5" y="-958" font-family="monospace" font-size="10.00" fill="#000000">results/metadmg/dfit/{sample}_{library}_{read_type_map}.dfit.gz</text>
<text text-anchor="start" x="809.5" y="-940" font-family="monospace" font-size="10.00" fill="#000000">results/metadmg/lca/{sample}_{library}_{read_type_map}.bdamage.gz</text>
<text text-anchor="start" x="809.5" y="-922" font-family="monospace" font-size="10.00" fill="#000000">stats/metadmg/lca/{sample}_{library}_{read_type_map}.stat.gz</text>
<text text-anchor="start" x="1521.5" y="-901.8" font-family="sans" font-size="10.00" fill="#000000"> </text>
<text text-anchor="start" x="1525.5" y="-901.8" font-family="sans" font-weight="bold" font-size="14.00" fill="#000000">output →</text>
<text text-anchor="start" x="1586.5" y="-901.8" font-family="sans" font-size="10.00" fill="#000000"> </text>
<text text-anchor="start" x="809.5" y="-882" font-family="monospace" font-size="10.00" fill="#000000">results/metadmg/aggregate/{sample,HD827sonic_1|HD827sonic_2}_{library,lib1|lib2}_{read_type_map,pe|se|singleton|collapsed}.stat.gz</text>
<polygon fill="#57d990" stroke="#57d990" points="803.5,-1028 803.5,-1028 1597.5,-1028 1597.5,-1028 803.5,-1028"/>
<polygon fill="#57d990" stroke="#57d990" points="803.5,-916 803.5,-916 1597.5,-916 1597.5,-916 803.5,-916"/>
<polygon fill="none" stroke="#57d990" stroke-width="2" points="803,-873 803,-1057 1596,-1057 1596,-873 803,-873"/>
</g>
<!-- 7&#45;&gt;9 -->
<g id="edge14" class="edge">
<title>7&#45;&gt;9</title>
<path fill="none" stroke="#c0c0c0" stroke-width="2" d="M1251.5105,-1093.8168C1248.0281,-1085.1918 1244.4632,-1076.3624 1240.9127,-1067.5687"/>
<polygon fill="#c0c0c0" stroke="#c0c0c0" stroke-width="2" points="1244.0598,-1066.0144 1237.0703,-1058.0521 1237.5689,-1068.6352 1244.0598,-1066.0144"/>
</g>
<!-- 8&#45;&gt;7 -->
<g id="edge12" class="edge">
<title>8&#45;&gt;7</title>
<path fill="none" stroke="#c0c0c0" stroke-width="2" d="M1285.5,-1298C1285.5,-1289.4188 1285.5,-1280.8375 1285.5,-1272.4318"/>
<polygon fill="#c0c0c0" stroke="#c0c0c0" stroke-width="2" points="1289.0001,-1272.2775 1285.5,-1262.2775 1282.0001,-1272.2776 1289.0001,-1272.2775"/>
</g>
<!-- 8&#45;&gt;9 -->
<g id="edge15" class="edge">
<title>8&#45;&gt;9</title>
<path fill="none" stroke="#c0c0c0" stroke-width="2" d="M1649.0177,-1297.9676C1668.8796,-1286.2335 1684.139,-1274.1588 1692.5,-1262 1734.807,-1200.4758 1738.128,-1153.1033 1692.5,-1094 1687.7823,-1087.889 1648.9782,-1075.5185 1595.0285,-1060.7566"/>
<polygon fill="#c0c0c0" stroke="#c0c0c0" stroke-width="2" points="1595.7191,-1057.3174 1585.1512,-1058.0726 1593.8835,-1064.0724 1595.7191,-1057.3174"/>
</g>
<!-- 9&#45;&gt;0 -->
<g id="edge1" class="edge">
<title>9&#45;&gt;0</title>
<path fill="none" stroke="#c0c0c0" stroke-width="2" d="M1199.5,-871.9333C1199.5,-720.0374 1199.5,-418.5526 1199.5,-246.4071"/>
<polygon fill="#c0c0c0" stroke="#c0c0c0" stroke-width="2" points="1203.0001,-246.2756 1199.5,-236.2757 1196.0001,-246.2757 1203.0001,-246.2756"/>
</g>
<!-- 9&#45;&gt;1 -->
<g id="edge5" class="edge">
<title>9&#45;&gt;1</title>
<path fill="none" stroke="#c0c0c0" stroke-width="2" d="M1103.1002,-871.9945C1079.4428,-849.1702 1053.0117,-823.6697 1025.6895,-797.3096"/>
<polygon fill="#c0c0c0" stroke="#c0c0c0" stroke-width="2" points="1027.9716,-794.648 1018.3448,-790.2235 1023.1113,-799.6856 1027.9716,-794.648"/>
</g>
<!-- 10&#45;&gt;0 -->
<g id="edge2" class="edge">
<title>10&#45;&gt;0</title>
<path fill="none" stroke="#c0c0c0" stroke-width="2" d="M1931.5742,-880.6898C1788.0419,-731.155 1488.2242,-418.7988 1320.216,-243.7644"/>
<polygon fill="#c0c0c0" stroke="#c0c0c0" stroke-width="2" points="1322.5087,-241.0986 1313.0588,-236.3079 1317.4586,-245.946 1322.5087,-241.0986"/>
</g>
</g>
</svg>
