<?xml version="1.0" encoding="UTF-8" standalone="no"?>
<!DOCTYPE svg PUBLIC "-//W3C//DTD SVG 1.1//EN"
 "http://www.w3.org/Graphics/SVG/1.1/DTD/svg11.dtd">
<!-- Generated by graphviz version 2.40.1 (0)
 -->
<!-- Title: snakemake_dag Pages: 1 -->
<svg width="1873pt" height="2758pt"
 viewBox="0.00 0.00 1872.50 2758.00" xmlns="http://www.w3.org/2000/svg" xmlns:xlink="http://www.w3.org/1999/xlink">
<g id="graph0" class="graph" transform="scale(1 1) rotate(0) translate(4 2754)">
<title>snakemake_dag</title>
<polygon fill="#ffffff" stroke="transparent" points="-4,4 -4,-2754 1868.5,-2754 1868.5,4 -4,4"/>
<!-- 0 -->
<g id="node1" class="node">
<title>0</title>
<text text-anchor="start" x="896" y="-287.6" font-family="sans" font-weight="bold" font-size="18.00" fill="#000000">all</text>
<text text-anchor="start" x="723" y="-263.8" font-family="sans" font-size="10.00" fill="#000000"> </text>
<text text-anchor="start" x="727" y="-263.8" font-family="sans" font-weight="bold" font-size="14.00" fill="#000000">↪ input</text>
<text text-anchor="start" x="780" y="-263.8" font-family="sans" font-size="10.00" fill="#000000"> </text>
<text text-anchor="start" x="723" y="-244" font-family="monospace" font-size="10.00" fill="#000000">reports/multiqc.html</text>
<text text-anchor="start" x="723" y="-226" font-family="monospace" font-size="10.00" fill="#000000">results/metadmg/aggregate/HD827sonic_1_lib1_collapsed.stat.gz</text>
<text text-anchor="start" x="723" y="-208" font-family="monospace" font-size="10.00" fill="#000000">results/metadmg/aggregate/HD827sonic_1_lib1_collapsed.stat.gz</text>
<text text-anchor="start" x="723" y="-190" font-family="monospace" font-size="10.00" fill="#000000">results/metadmg/aggregate/HD827sonic_2_lib1_collapsed.stat.gz</text>
<text text-anchor="start" x="723" y="-172" font-family="monospace" font-size="10.00" fill="#000000">results/metadmg/aggregate/HD827sonic_2_lib2_collapsed.stat.gz</text>
<text text-anchor="start" x="723" y="-154" font-family="monospace" font-size="10.00" fill="#000000">results/reads/saturated/HD827sonic_1_lib1_collapsed.fastq.gz</text>
<text text-anchor="start" x="723" y="-136" font-family="monospace" font-size="10.00" fill="#000000">results/reads/saturated/HD827sonic_1_lib1_collapsed.fastq.gz</text>
<text text-anchor="start" x="723" y="-118" font-family="monospace" font-size="10.00" fill="#000000">results/reads/saturated/HD827sonic_2_lib1_collapsed.fastq.gz</text>
<text text-anchor="start" x="723" y="-100" font-family="monospace" font-size="10.00" fill="#000000">results/reads/saturated/HD827sonic_2_lib2_collapsed.fastq.gz</text>
<text text-anchor="start" x="723" y="-82" font-family="monospace" font-size="10.00" fill="#000000">stats/metadmg/damage/HD827sonic_1_lib1_collapsed.stat.gz</text>
<text text-anchor="start" x="723" y="-64" font-family="monospace" font-size="10.00" fill="#000000">stats/metadmg/damage/HD827sonic_1_lib1_collapsed.stat.gz</text>
<text text-anchor="start" x="723" y="-46" font-family="monospace" font-size="10.00" fill="#000000">stats/metadmg/damage/HD827sonic_2_lib1_collapsed.stat.gz</text>
<text text-anchor="start" x="723" y="-28" font-family="monospace" font-size="10.00" fill="#000000">stats/metadmg/damage/HD827sonic_2_lib2_collapsed.stat.gz</text>
<text text-anchor="start" x="1083" y="-10" font-family="sans" font-size="10.00" fill="#000000"> &#160;</text>
<polygon fill="#b5d957" stroke="#b5d957" points="717,-278 717,-278 1097,-278 1097,-278 717,-278"/>
<polygon fill="#b5d957" stroke="#b5d957" points="717,-22 717,-22 1097,-22 1097,-22 717,-22"/>
<polygon fill="none" stroke="#b5d957" stroke-width="2" points="716.5,-1 716.5,-307 1095.5,-307 1095.5,-1 716.5,-1"/>
</g>
<!-- 1 -->
<g id="node2" class="node">
<title>1</title>
<text text-anchor="start" x="318" y="-887.6" font-family="sans" font-weight="bold" font-size="18.00" fill="#000000">multiqc</text>
<text text-anchor="start" x="113" y="-863.8" font-family="sans" font-size="10.00" fill="#000000"> </text>
<text text-anchor="start" x="117" y="-863.8" font-family="sans" font-weight="bold" font-size="14.00" fill="#000000">↪ input</text>
<text text-anchor="start" x="170" y="-863.8" font-family="sans" font-size="10.00" fill="#000000"> </text>
<text text-anchor="start" x="113" y="-844" font-family="monospace" font-size="10.00" fill="#000000">logs/shards/bowtie2/HD827sonic_1_lib1_collapsed.refseq_mitochondrion.1&#45;of&#45;1.log</text>
<text text-anchor="start" x="113" y="-826" font-family="monospace" font-size="10.00" fill="#000000">logs/shards/bowtie2/HD827sonic_1_lib1_collapsed.wgs_eukaryota.1&#45;of&#45;2.log</text>
<text text-anchor="start" x="113" y="-808" font-family="monospace" font-size="10.00" fill="#000000">logs/shards/bowtie2/HD827sonic_1_lib1_collapsed.wgs_eukaryota.2&#45;of&#45;2.log</text>
<text text-anchor="start" x="113" y="-790" font-family="monospace" font-size="10.00" fill="#000000">logs/shards/bowtie2/HD827sonic_2_lib1_collapsed.refseq_mitochondrion.1&#45;of&#45;1.log</text>
<text text-anchor="start" x="113" y="-772" font-family="monospace" font-size="10.00" fill="#000000">logs/shards/bowtie2/HD827sonic_2_lib1_collapsed.wgs_eukaryota.1&#45;of&#45;2.log</text>
<text text-anchor="start" x="113" y="-754" font-family="monospace" font-size="10.00" fill="#000000">logs/shards/bowtie2/HD827sonic_2_lib1_collapsed.wgs_eukaryota.2&#45;of&#45;2.log</text>
<text text-anchor="start" x="113" y="-736" font-family="monospace" font-size="10.00" fill="#000000">logs/shards/bowtie2/HD827sonic_2_lib2_collapsed.refseq_mitochondrion.1&#45;of&#45;1.log</text>
<text text-anchor="start" x="113" y="-718" font-family="monospace" font-size="10.00" fill="#000000">logs/shards/bowtie2/HD827sonic_2_lib2_collapsed.wgs_eukaryota.1&#45;of&#45;2.log</text>
<text text-anchor="start" x="113" y="-700" font-family="monospace" font-size="10.00" fill="#000000">logs/shards/bowtie2/HD827sonic_2_lib2_collapsed.wgs_eukaryota.2&#45;of&#45;2.log</text>
<text text-anchor="start" x="113" y="-682" font-family="monospace" font-size="10.00" fill="#000000">results/metadmg/aggregate/HD827sonic_1_lib1_collapsed.stat.gz</text>
<text text-anchor="start" x="113" y="-664" font-family="monospace" font-size="10.00" fill="#000000">results/metadmg/aggregate/HD827sonic_1_lib1_collapsed.stat.gz</text>
<text text-anchor="start" x="113" y="-646" font-family="monospace" font-size="10.00" fill="#000000">results/metadmg/aggregate/HD827sonic_2_lib1_collapsed.stat.gz</text>
<text text-anchor="start" x="113" y="-628" font-family="monospace" font-size="10.00" fill="#000000">results/metadmg/aggregate/HD827sonic_2_lib2_collapsed.stat.gz</text>
<text text-anchor="start" x="113" y="-610" font-family="monospace" font-size="10.00" fill="#000000">results/metadmg/dfit/HD827sonic_1_lib1_collapsed.dfit.gz</text>
<text text-anchor="start" x="113" y="-592" font-family="monospace" font-size="10.00" fill="#000000">results/metadmg/dfit/HD827sonic_1_lib1_collapsed.dfit.gz</text>
<text text-anchor="start" x="113" y="-574" font-family="monospace" font-size="10.00" fill="#000000">results/metadmg/dfit/HD827sonic_2_lib1_collapsed.dfit.gz</text>
<text text-anchor="start" x="113" y="-556" font-family="monospace" font-size="10.00" fill="#000000">results/metadmg/dfit/HD827sonic_2_lib2_collapsed.dfit.gz</text>
<text text-anchor="start" x="113" y="-538" font-family="monospace" font-size="10.00" fill="#000000">stats/aligns/samtools_stats/HD827sonic_1_lib1_collapsed.txt</text>
<text text-anchor="start" x="113" y="-520" font-family="monospace" font-size="10.00" fill="#000000">stats/aligns/samtools_stats/HD827sonic_1_lib1_collapsed.txt</text>
<text text-anchor="start" x="113" y="-502" font-family="monospace" font-size="10.00" fill="#000000">stats/aligns/samtools_stats/HD827sonic_1_lib1_collapsed.txt</text>
<text text-anchor="start" x="113" y="-484" font-family="monospace" font-size="10.00" fill="#000000">stats/aligns/samtools_stats/HD827sonic_1_lib1_collapsed.txt</text>
<text text-anchor="start" x="113" y="-466" font-family="monospace" font-size="10.00" fill="#000000">stats/aligns/samtools_stats/HD827sonic_2_lib1_collapsed.txt</text>
<text text-anchor="start" x="113" y="-448" font-family="monospace" font-size="10.00" fill="#000000">stats/aligns/samtools_stats/HD827sonic_2_lib1_collapsed.txt</text>
<text text-anchor="start" x="113" y="-430" font-family="monospace" font-size="10.00" fill="#000000">stats/aligns/samtools_stats/HD827sonic_2_lib2_collapsed.txt</text>
<text text-anchor="start" x="113" y="-412" font-family="monospace" font-size="10.00" fill="#000000">stats/aligns/samtools_stats/HD827sonic_2_lib2_collapsed.txt</text>
<text text-anchor="start" x="519" y="-391.8" font-family="sans" font-size="10.00" fill="#000000"> </text>
<text text-anchor="start" x="523" y="-391.8" font-family="sans" font-weight="bold" font-size="14.00" fill="#000000">output →</text>
<text text-anchor="start" x="584" y="-391.8" font-family="sans" font-size="10.00" fill="#000000"> </text>
<text text-anchor="start" x="113" y="-372" font-family="monospace" font-size="10.00" fill="#000000">reports/multiqc.html</text>
<text text-anchor="start" x="113" y="-354" font-family="monospace" font-size="10.00" fill="#000000">reports/multiqc_data.zip</text>
<polygon fill="#57d96e" stroke="#57d96e" points="107,-878 107,-878 595,-878 595,-878 107,-878"/>
<polygon fill="#57d96e" stroke="#57d96e" points="107,-406 107,-406 595,-406 595,-406 107,-406"/>
<polygon fill="none" stroke="#57d96e" stroke-width="2" points="106.5,-345 106.5,-907 593.5,-907 593.5,-345 106.5,-345"/>
</g>
<!-- 1&#45;&gt;0 -->
<g id="edge4" class="edge">
<title>1&#45;&gt;0</title>
<path fill="none" stroke="#c0c0c0" stroke-width="2" d="M594.6788,-418.2871C635.5125,-383.6225 677.3192,-348.1319 716.5063,-314.8651"/>
<polygon fill="#c0c0c0" stroke="#c0c0c0" stroke-width="2" points="718.9494,-317.3823 724.3078,-308.2423 714.4192,-312.0458 718.9494,-317.3823"/>
</g>
<!-- 2 -->
<g id="node3" class="node">
<title>2</title>
<text text-anchor="start" x="649" y="-2729.6" font-family="sans" font-weight="bold" font-size="18.00" fill="#000000">shard_bowtie2</text>
<text text-anchor="start" x="364" y="-2705.8" font-family="sans" font-size="10.00" fill="#000000"> </text>
<text text-anchor="start" x="368" y="-2705.8" font-family="sans" font-weight="bold" font-size="14.00" fill="#000000">↪ input</text>
<text text-anchor="start" x="421" y="-2705.8" font-family="sans" font-size="10.00" fill="#000000"> </text>
<text text-anchor="start" x="364" y="-2686" font-family="monospace" font-size="10.00" fill="#000000">&lt;input function&gt;</text>
<text text-anchor="start" x="364" y="-2668" font-family="monospace" font-size="10.00" fill="#000000">&lt;input function&gt;</text>
<text text-anchor="start" x="992" y="-2647.8" font-family="sans" font-size="10.00" fill="#000000"> </text>
<text text-anchor="start" x="996" y="-2647.8" font-family="sans" font-weight="bold" font-size="14.00" fill="#000000">output →</text>
<text text-anchor="start" x="1057" y="-2647.8" font-family="sans" font-size="10.00" fill="#000000"> </text>
<text text-anchor="start" x="364" y="-2628" font-family="monospace" font-size="10.00" fill="#000000">temp/shards/bowtie2/{sample}_{library}_{read_type_map,pe|se|singleton|collapsed}.{ref}.{n_shard}&#45;of&#45;{tot_shards}.bam</text>
<polygon fill="#57d986" stroke="#57d986" points="358,-2720 358,-2720 1068,-2720 1068,-2720 358,-2720"/>
<polygon fill="#57d986" stroke="#57d986" points="358,-2662 358,-2662 1068,-2662 1068,-2662 358,-2662"/>
<polygon fill="none" stroke="#57d986" stroke-width="2" points="357.5,-2619 357.5,-2749 1066.5,-2749 1066.5,-2619 357.5,-2619"/>
</g>
<!-- 2&#45;&gt;1 -->
<g id="edge5" class="edge">
<title>2&#45;&gt;1</title>
<path fill="none" stroke="#c0c0c0" stroke-width="2" d="M457.7161,-2617.9536C253.2836,-2557.1427 0,-2460.8461 0,-2357 0,-2357 0,-2357 0,-1250 0,-1132.3241 47.934,-1016.2861 108.3238,-916.79"/>
<polygon fill="#c0c0c0" stroke="#c0c0c0" stroke-width="2" points="111.3889,-918.4869 113.635,-908.1329 105.4223,-914.8264 111.3889,-918.4869"/>
</g>
<!-- 7 -->
<g id="node8" class="node">
<title>7</title>
<text text-anchor="start" x="775.5" y="-2225.6" font-family="sans" font-weight="bold" font-size="18.00" fill="#000000">shard_saturated_reads_remove</text>
<text text-anchor="start" x="516" y="-2201.8" font-family="sans" font-size="10.00" fill="#000000"> </text>
<text text-anchor="start" x="520" y="-2201.8" font-family="sans" font-weight="bold" font-size="14.00" fill="#000000">↪ input</text>
<text text-anchor="start" x="573" y="-2201.8" font-family="sans" font-size="10.00" fill="#000000"> </text>
<text text-anchor="start" x="516" y="-2182" font-family="monospace" font-size="10.00" fill="#000000">&lt;input function&gt;</text>
<text text-anchor="start" x="516" y="-2164" font-family="monospace" font-size="10.00" fill="#000000">temp/shards/saturated_reads/filter/{sample}_{library}_{read_type_map}.tsv</text>
<text text-anchor="start" x="1234" y="-2143.8" font-family="sans" font-size="10.00" fill="#000000"> </text>
<text text-anchor="start" x="1238" y="-2143.8" font-family="sans" font-weight="bold" font-size="14.00" fill="#000000">output →</text>
<text text-anchor="start" x="1299" y="-2143.8" font-family="sans" font-size="10.00" fill="#000000"> </text>
<text text-anchor="start" x="516" y="-2124" font-family="monospace" font-size="10.00" fill="#000000">temp/shards/saturated_reads/remove/{sample}_{library}_{read_type_map,pe|se|singleton|collapsed}.{ref}.{n_shard}&#45;of&#45;{tot_shards}.bam</text>
<polygon fill="#579ed9" stroke="#579ed9" points="510,-2216 510,-2216 1310,-2216 1310,-2216 510,-2216"/>
<polygon fill="#579ed9" stroke="#579ed9" points="510,-2158 510,-2158 1310,-2158 1310,-2158 510,-2158"/>
<polygon fill="none" stroke="#579ed9" stroke-width="2" points="509.5,-2115 509.5,-2245 1308.5,-2245 1308.5,-2115 509.5,-2115"/>
</g>
<!-- 2&#45;&gt;7 -->
<g id="edge13" class="edge">
<title>2&#45;&gt;7</title>
<path fill="none" stroke="#c0c0c0" stroke-width="2" d="M710.3178,-2617.7227C711.2896,-2532.9763 723.7884,-2384.9091 792,-2282 798.5718,-2272.0853 806.3557,-2262.5572 814.7384,-2253.5772"/>
<polygon fill="#c0c0c0" stroke="#c0c0c0" stroke-width="2" points="817.4701,-2255.7873 821.9073,-2246.1664 812.4389,-2250.9204 817.4701,-2255.7873"/>
</g>
<!-- 9 -->
<g id="node10" class="node">
<title>9</title>
<text text-anchor="start" x="1028.5" y="-2561.6" font-family="sans" font-weight="bold" font-size="18.00" fill="#000000">shard_count_alns</text>
<text text-anchor="start" x="748" y="-2537.8" font-family="sans" font-size="10.00" fill="#000000"> </text>
<text text-anchor="start" x="752" y="-2537.8" font-family="sans" font-weight="bold" font-size="14.00" fill="#000000">↪ input</text>
<text text-anchor="start" x="805" y="-2537.8" font-family="sans" font-size="10.00" fill="#000000"> </text>
<text text-anchor="start" x="748" y="-2518" font-family="monospace" font-size="10.00" fill="#000000">&lt;input function&gt;</text>
<text text-anchor="start" x="1394" y="-2497.8" font-family="sans" font-size="10.00" fill="#000000"> </text>
<text text-anchor="start" x="1398" y="-2497.8" font-family="sans" font-weight="bold" font-size="14.00" fill="#000000">output →</text>
<text text-anchor="start" x="1459" y="-2497.8" font-family="sans" font-size="10.00" fill="#000000"> </text>
<text text-anchor="start" x="748" y="-2478" font-family="monospace" font-size="10.00" fill="#000000">temp/shards/count_alns/{sample}_{library}_{read_type_map,pe|se|singleton|collapsed}.{ref}.{n_shard}&#45;of&#45;{tot_shards}.tsv</text>
<polygon fill="#57d9cd" stroke="#57d9cd" points="742,-2552 742,-2552 1470,-2552 1470,-2552 742,-2552"/>
<polygon fill="#57d9cd" stroke="#57d9cd" points="742,-2512 742,-2512 1470,-2512 1470,-2512 742,-2512"/>
<polygon fill="none" stroke="#57d9cd" stroke-width="2" points="741.5,-2469 741.5,-2581 1468.5,-2581 1468.5,-2469 741.5,-2469"/>
</g>
<!-- 2&#45;&gt;9 -->
<g id="edge16" class="edge">
<title>2&#45;&gt;9</title>
<path fill="none" stroke="#c0c0c0" stroke-width="2" d="M875.2532,-2617.951C901.4548,-2607.3504 928.4686,-2596.4211 954.3576,-2585.9469"/>
<polygon fill="#c0c0c0" stroke="#c0c0c0" stroke-width="2" points="955.8838,-2589.1051 963.8412,-2582.11 953.2585,-2582.6161 955.8838,-2589.1051"/>
</g>
<!-- 3 -->
<g id="node4" class="node">
<title>3</title>
<text text-anchor="start" x="265.5" y="-1286.6" font-family="sans" font-weight="bold" font-size="18.00" fill="#000000">align_stats</text>
<text text-anchor="start" x="36" y="-1262.8" font-family="sans" font-size="10.00" fill="#000000"> </text>
<text text-anchor="start" x="40" y="-1262.8" font-family="sans" font-weight="bold" font-size="14.00" fill="#000000">↪ input</text>
<text text-anchor="start" x="93" y="-1262.8" font-family="sans" font-size="10.00" fill="#000000"> </text>
<text text-anchor="start" x="36" y="-1243" font-family="monospace" font-size="10.00" fill="#000000">results/aligns/merge/{sample}_{library}_{read_type_map}.bam</text>
<text text-anchor="start" x="520" y="-1222.8" font-family="sans" font-size="10.00" fill="#000000"> </text>
<text text-anchor="start" x="524" y="-1222.8" font-family="sans" font-weight="bold" font-size="14.00" fill="#000000">output →</text>
<text text-anchor="start" x="585" y="-1222.8" font-family="sans" font-size="10.00" fill="#000000"> </text>
<text text-anchor="start" x="36" y="-1203" font-family="monospace" font-size="10.00" fill="#000000">stats/aligns/samtools_stats/{sample}_{library}_{read_type_map,pe|se|singleton|collapsed}.txt</text>
<polygon fill="#cdd957" stroke="#cdd957" points="30,-1277 30,-1277 596,-1277 596,-1277 30,-1277"/>
<polygon fill="#cdd957" stroke="#cdd957" points="30,-1237 30,-1237 596,-1237 596,-1237 30,-1237"/>
<polygon fill="none" stroke="#cdd957" stroke-width="2" points="29.5,-1194 29.5,-1306 594.5,-1306 594.5,-1194 29.5,-1194"/>
</g>
<!-- 3&#45;&gt;1 -->
<g id="edge7" class="edge">
<title>3&#45;&gt;1</title>
<path fill="none" stroke="#c0c0c0" stroke-width="2" d="M315.473,-1192.97C319.3334,-1129.5773 325.8639,-1022.3404 332.213,-918.0817"/>
<polygon fill="#c0c0c0" stroke="#c0c0c0" stroke-width="2" points="335.7123,-918.1973 332.8267,-908.003 328.7253,-917.7718 335.7123,-918.1973"/>
</g>
<!-- 4 -->
<g id="node5" class="node">
<title>4</title>
<text text-anchor="start" x="856.5" y="-1739.6" font-family="sans" font-weight="bold" font-size="18.00" fill="#000000">align_merge</text>
<text text-anchor="start" x="654" y="-1715.8" font-family="sans" font-size="10.00" fill="#000000"> </text>
<text text-anchor="start" x="658" y="-1715.8" font-family="sans" font-weight="bold" font-size="14.00" fill="#000000">↪ input</text>
<text text-anchor="start" x="711" y="-1715.8" font-family="sans" font-size="10.00" fill="#000000"> </text>
<text text-anchor="start" x="654" y="-1696" font-family="monospace" font-size="10.00" fill="#000000">&lt;input function&gt;</text>
<text text-anchor="start" x="1096" y="-1675.8" font-family="sans" font-size="10.00" fill="#000000"> </text>
<text text-anchor="start" x="1100" y="-1675.8" font-family="sans" font-weight="bold" font-size="14.00" fill="#000000">output →</text>
<text text-anchor="start" x="1161" y="-1675.8" font-family="sans" font-size="10.00" fill="#000000"> </text>
<text text-anchor="start" x="654" y="-1656" font-family="monospace" font-size="10.00" fill="#000000">results/aligns/merge/{sample}_{library}_{read_type_map,pe|se|singleton|collapsed}.bam</text>
<polygon fill="#d98657" stroke="#d98657" points="648,-1730 648,-1730 1172,-1730 1172,-1730 648,-1730"/>
<polygon fill="#d98657" stroke="#d98657" points="648,-1690 648,-1690 1172,-1690 1172,-1690 648,-1690"/>
<polygon fill="none" stroke="#d98657" stroke-width="2" points="647.5,-1647 647.5,-1759 1170.5,-1759 1170.5,-1647 647.5,-1647"/>
</g>
<!-- 4&#45;&gt;3 -->
<g id="edge9" class="edge">
<title>4&#45;&gt;3</title>
<path fill="none" stroke="#c0c0c0" stroke-width="2" d="M648.7482,-1645.8405C625.5765,-1635.7548 603.2565,-1623.909 583,-1610 472.1573,-1533.8903 387.9947,-1397.7038 344.6507,-1316.4181"/>
<polygon fill="#c0c0c0" stroke="#c0c0c0" stroke-width="2" points="347.5857,-1314.4806 339.822,-1307.2711 341.3953,-1317.7485 347.5857,-1314.4806"/>
</g>
<!-- 11 -->
<g id="node12" class="node">
<title>11</title>
<text text-anchor="start" x="852" y="-1589.6" font-family="sans" font-weight="bold" font-size="18.00" fill="#000000">metadmg_lca</text>
<text text-anchor="start" x="600" y="-1565.8" font-family="sans" font-size="10.00" fill="#000000"> </text>
<text text-anchor="start" x="604" y="-1565.8" font-family="sans" font-weight="bold" font-size="14.00" fill="#000000">↪ input</text>
<text text-anchor="start" x="657" y="-1565.8" font-family="sans" font-size="10.00" fill="#000000"> </text>
<text text-anchor="start" x="600" y="-1546" font-family="monospace" font-size="10.00" fill="#000000">/datasets/caeg_dataset/references/ncbi/20250205/taxonomy/ncbi/refseq_mitochondrion.genomic.acc2taxid.gz</text>
<text text-anchor="start" x="600" y="-1528" font-family="monospace" font-size="10.00" fill="#000000">/datasets/caeg_dataset/references/ncbi/20250205/taxonomy/ncbi/wgs_eukaryota.acc2taxid.gz</text>
<text text-anchor="start" x="600" y="-1510" font-family="monospace" font-size="10.00" fill="#000000">/datasets/caeg_dataset/taxonomy/ncbi/20250210/names.dmp</text>
<text text-anchor="start" x="600" y="-1492" font-family="monospace" font-size="10.00" fill="#000000">/datasets/caeg_dataset/taxonomy/ncbi/20250210/nodes.dmp</text>
<text text-anchor="start" x="600" y="-1474" font-family="monospace" font-size="10.00" fill="#000000">&lt;function &lt;lambda&gt; at 0x7f9f707a5260&gt;</text>
<text text-anchor="start" x="1150" y="-1453.8" font-family="sans" font-size="10.00" fill="#000000"> </text>
<text text-anchor="start" x="1154" y="-1453.8" font-family="sans" font-weight="bold" font-size="14.00" fill="#000000">output →</text>
<text text-anchor="start" x="1215" y="-1453.8" font-family="sans" font-size="10.00" fill="#000000"> </text>
<text text-anchor="start" x="600" y="-1434" font-family="monospace" font-size="10.00" fill="#000000">results/metadmg/lca/{sample}_{library}_{read_type_map,pe|se|singleton|collapsed}.bdamage.gz</text>
<text text-anchor="start" x="600" y="-1416" font-family="monospace" font-size="10.00" fill="#000000">results/metadmg/lca/{sample}_{library}_{read_type_map,pe|se|singleton|collapsed}.lca.gz</text>
<text text-anchor="start" x="600" y="-1398" font-family="monospace" font-size="10.00" fill="#000000">stats/metadmg/lca/{sample}_{library}_{read_type_map,pe|se|singleton|collapsed}.rlens.gz</text>
<text text-anchor="start" x="600" y="-1380" font-family="monospace" font-size="10.00" fill="#000000">stats/metadmg/lca/{sample}_{library}_{read_type_map,pe|se|singleton|collapsed}.stat.gz</text>
<polygon fill="#57d957" stroke="#57d957" points="594,-1580 594,-1580 1226,-1580 1226,-1580 594,-1580"/>
<polygon fill="#57d957" stroke="#57d957" points="594,-1468 594,-1468 1226,-1468 1226,-1468 594,-1468"/>
<polygon fill="none" stroke="#57d957" stroke-width="2" points="593.5,-1371 593.5,-1609 1224.5,-1609 1224.5,-1371 593.5,-1371"/>
</g>
<!-- 4&#45;&gt;11 -->
<g id="edge18" class="edge">
<title>4&#45;&gt;11</title>
<path fill="none" stroke="#c0c0c0" stroke-width="2" d="M909,-1645.9199C909,-1637.7724 909,-1629.129 909,-1620.2537"/>
<polygon fill="#c0c0c0" stroke="#c0c0c0" stroke-width="2" points="912.5001,-1620.1487 909,-1610.1487 905.5001,-1620.1488 912.5001,-1620.1487"/>
</g>
<!-- 14 -->
<g id="node15" class="node">
<title>14</title>
<text text-anchor="start" x="1187" y="-1100.6" font-family="sans" font-weight="bold" font-size="18.00" fill="#000000">metadmg_damage</text>
<text text-anchor="start" x="983" y="-1076.8" font-family="sans" font-size="10.00" fill="#000000"> </text>
<text text-anchor="start" x="987" y="-1076.8" font-family="sans" font-weight="bold" font-size="14.00" fill="#000000">↪ input</text>
<text text-anchor="start" x="1040" y="-1076.8" font-family="sans" font-size="10.00" fill="#000000"> </text>
<text text-anchor="start" x="983" y="-1057" font-family="monospace" font-size="10.00" fill="#000000">&lt;function &lt;lambda&gt; at 0x7f9f707a5120&gt;</text>
<text text-anchor="start" x="1479" y="-1036.8" font-family="sans" font-size="10.00" fill="#000000"> </text>
<text text-anchor="start" x="1483" y="-1036.8" font-family="sans" font-weight="bold" font-size="14.00" fill="#000000">output →</text>
<text text-anchor="start" x="1544" y="-1036.8" font-family="sans" font-size="10.00" fill="#000000"> </text>
<text text-anchor="start" x="983" y="-1017" font-family="monospace" font-size="10.00" fill="#000000">results/metadmg/damage/{sample}_{library}_{read_type_map,pe|se|singleton|collapsed}.bdamage.gz</text>
<text text-anchor="start" x="983" y="-999" font-family="monospace" font-size="10.00" fill="#000000">results/metadmg/damage/{sample}_{library}_{read_type_map,pe|se|singleton|collapsed}.res.gz</text>
<text text-anchor="start" x="983" y="-981" font-family="monospace" font-size="10.00" fill="#000000">stats/metadmg/damage/{sample}_{library}_{read_type_map,pe|se|singleton|collapsed}.rlens.gz</text>
<text text-anchor="start" x="983" y="-963" font-family="monospace" font-size="10.00" fill="#000000">stats/metadmg/damage/{sample}_{library}_{read_type_map,pe|se|singleton|collapsed}.stat.gz</text>
<polygon fill="#86d957" stroke="#86d957" points="977,-1091 977,-1091 1555,-1091 1555,-1091 977,-1091"/>
<polygon fill="#86d957" stroke="#86d957" points="977,-1051 977,-1051 1555,-1051 1555,-1051 977,-1051"/>
<polygon fill="none" stroke="#86d957" stroke-width="2" points="976.5,-954 976.5,-1120 1553.5,-1120 1553.5,-954 976.5,-954"/>
</g>
<!-- 4&#45;&gt;14 -->
<g id="edge22" class="edge">
<title>4&#45;&gt;14</title>
<path fill="none" stroke="#c0c0c0" stroke-width="2" d="M1171.8171,-1646.6692C1201.036,-1635.8415 1224.1829,-1623.5808 1235,-1610 1343.8433,-1473.3485 1317.6373,-1255.0124 1290.3349,-1131.0413"/>
<polygon fill="#c0c0c0" stroke="#c0c0c0" stroke-width="2" points="1293.7261,-1130.1688 1288.117,-1121.1806 1286.8967,-1131.7049 1293.7261,-1130.1688"/>
</g>
<!-- 5 -->
<g id="node6" class="node">
<title>5</title>
<text text-anchor="start" x="833" y="-1889.6" font-family="sans" font-weight="bold" font-size="18.00" fill="#000000">shard_sort_query</text>
<text text-anchor="start" x="552" y="-1865.8" font-family="sans" font-size="10.00" fill="#000000"> </text>
<text text-anchor="start" x="556" y="-1865.8" font-family="sans" font-weight="bold" font-size="14.00" fill="#000000">↪ input</text>
<text text-anchor="start" x="609" y="-1865.8" font-family="sans" font-size="10.00" fill="#000000"> </text>
<text text-anchor="start" x="552" y="-1846" font-family="monospace" font-size="10.00" fill="#000000">temp/shards/unicorn/{sample}_{library}_{read_type_map}.{ref}.{n_shard}&#45;of&#45;{tot_shards}.bam</text>
<text text-anchor="start" x="1198" y="-1825.8" font-family="sans" font-size="10.00" fill="#000000"> </text>
<text text-anchor="start" x="1202" y="-1825.8" font-family="sans" font-weight="bold" font-size="14.00" fill="#000000">output →</text>
<text text-anchor="start" x="1263" y="-1825.8" font-family="sans" font-size="10.00" fill="#000000"> </text>
<text text-anchor="start" x="552" y="-1806" font-family="monospace" font-size="10.00" fill="#000000">temp/shards/sort_query/{sample}_{library}_{read_type_map,pe|se|singleton|collapsed}.{ref}.{n_shard}&#45;of&#45;{tot_shards}.bam</text>
<polygon fill="#5786d9" stroke="#5786d9" points="546,-1880 546,-1880 1274,-1880 1274,-1880 546,-1880"/>
<polygon fill="#5786d9" stroke="#5786d9" points="546,-1840 546,-1840 1274,-1840 1274,-1840 546,-1840"/>
<polygon fill="none" stroke="#5786d9" stroke-width="2" points="545.5,-1797 545.5,-1909 1272.5,-1909 1272.5,-1797 545.5,-1797"/>
</g>
<!-- 5&#45;&gt;4 -->
<g id="edge10" class="edge">
<title>5&#45;&gt;4</title>
<path fill="none" stroke="#c0c0c0" stroke-width="2" d="M909,-1795.8635C909,-1787.6231 909,-1779.0771 909,-1770.6558"/>
<polygon fill="#c0c0c0" stroke="#c0c0c0" stroke-width="2" points="912.5001,-1770.4745 909,-1760.4745 905.5001,-1770.4745 912.5001,-1770.4745"/>
</g>
<!-- 6 -->
<g id="node7" class="node">
<title>6</title>
<text text-anchor="start" x="846.5" y="-2057.6" font-family="sans" font-weight="bold" font-size="18.00" fill="#000000">shard_unicorn</text>
<text text-anchor="start" x="558" y="-2033.8" font-family="sans" font-size="10.00" fill="#000000"> </text>
<text text-anchor="start" x="562" y="-2033.8" font-family="sans" font-weight="bold" font-size="14.00" fill="#000000">↪ input</text>
<text text-anchor="start" x="615" y="-2033.8" font-family="sans" font-size="10.00" fill="#000000"> </text>
<text text-anchor="start" x="558" y="-2014" font-family="monospace" font-size="10.00" fill="#000000">temp/shards/saturated_reads/remove/{sample}_{library}_{read_type_map}.{ref}.{n_shard}&#45;of&#45;{tot_shards}.bam</text>
<text text-anchor="start" x="1192" y="-1993.8" font-family="sans" font-size="10.00" fill="#000000"> </text>
<text text-anchor="start" x="1196" y="-1993.8" font-family="sans" font-weight="bold" font-size="14.00" fill="#000000">output →</text>
<text text-anchor="start" x="1257" y="-1993.8" font-family="sans" font-size="10.00" fill="#000000"> </text>
<text text-anchor="start" x="558" y="-1974" font-family="monospace" font-size="10.00" fill="#000000">stats/shards/unicorn/{sample}_{library}_{read_type_map,pe|se|singleton|collapsed}.{ref}.{n_shard}&#45;of&#45;{tot_shards}.tsv</text>
<text text-anchor="start" x="558" y="-1956" font-family="monospace" font-size="10.00" fill="#000000">temp/shards/unicorn/{sample}_{library}_{read_type_map,pe|se|singleton|collapsed}.{ref}.{n_shard}&#45;of&#45;{tot_shards}.bam</text>
<polygon fill="#576ed9" stroke="#576ed9" points="552,-2048 552,-2048 1268,-2048 1268,-2048 552,-2048"/>
<polygon fill="#576ed9" stroke="#576ed9" points="552,-2008 552,-2008 1268,-2008 1268,-2008 552,-2008"/>
<polygon fill="none" stroke="#576ed9" stroke-width="2" points="551.5,-1947 551.5,-2077 1266.5,-2077 1266.5,-1947 551.5,-1947"/>
</g>
<!-- 6&#45;&gt;5 -->
<g id="edge11" class="edge">
<title>6&#45;&gt;5</title>
<path fill="none" stroke="#c0c0c0" stroke-width="2" d="M909,-1945.951C909,-1937.5194 909,-1928.8799 909,-1920.4269"/>
<polygon fill="#c0c0c0" stroke="#c0c0c0" stroke-width="2" points="912.5001,-1920.235 909,-1910.235 905.5001,-1920.2351 912.5001,-1920.235"/>
</g>
<!-- 7&#45;&gt;6 -->
<g id="edge12" class="edge">
<title>7&#45;&gt;6</title>
<path fill="none" stroke="#c0c0c0" stroke-width="2" d="M909,-2113.602C909,-2105.3209 909,-2096.801 909,-2088.3839"/>
<polygon fill="#c0c0c0" stroke="#c0c0c0" stroke-width="2" points="912.5001,-2088.1908 909,-2078.1908 905.5001,-2088.1908 912.5001,-2088.1908"/>
</g>
<!-- 8 -->
<g id="node9" class="node">
<title>8</title>
<text text-anchor="start" x="983" y="-2411.6" font-family="sans" font-weight="bold" font-size="18.00" fill="#000000">shard_saturated_reads_filter</text>
<text text-anchor="start" x="808" y="-2387.8" font-family="sans" font-size="10.00" fill="#000000"> </text>
<text text-anchor="start" x="812" y="-2387.8" font-family="sans" font-weight="bold" font-size="14.00" fill="#000000">↪ input</text>
<text text-anchor="start" x="865" y="-2387.8" font-family="sans" font-size="10.00" fill="#000000"> </text>
<text text-anchor="start" x="808" y="-2368" font-family="monospace" font-size="10.00" fill="#000000">temp/shards/count_alns/{sample}_{library}_collapsed.refseq_mitochondrion.1&#45;of&#45;1.tsv</text>
<text text-anchor="start" x="808" y="-2350" font-family="monospace" font-size="10.00" fill="#000000">temp/shards/count_alns/{sample}_{library}_collapsed.wgs_eukaryota.1&#45;of&#45;2.tsv</text>
<text text-anchor="start" x="808" y="-2332" font-family="monospace" font-size="10.00" fill="#000000">temp/shards/count_alns/{sample}_{library}_collapsed.wgs_eukaryota.2&#45;of&#45;2.tsv</text>
<text text-anchor="start" x="1334" y="-2311.8" font-family="sans" font-size="10.00" fill="#000000"> </text>
<text text-anchor="start" x="1338" y="-2311.8" font-family="sans" font-weight="bold" font-size="14.00" fill="#000000">output →</text>
<text text-anchor="start" x="1399" y="-2311.8" font-family="sans" font-size="10.00" fill="#000000"> </text>
<text text-anchor="start" x="808" y="-2292" font-family="monospace" font-size="10.00" fill="#000000">temp/shards/saturated_reads/filter/{sample}_{library}_{read_type_map,pe|se|singleton|collapsed}.tsv</text>
<polygon fill="#57b5d9" stroke="#57b5d9" points="802,-2402 802,-2402 1410,-2402 1410,-2402 802,-2402"/>
<polygon fill="#57b5d9" stroke="#57b5d9" points="802,-2326 802,-2326 1410,-2326 1410,-2326 802,-2326"/>
<polygon fill="none" stroke="#57b5d9" stroke-width="2" points="801.5,-2283 801.5,-2431 1408.5,-2431 1408.5,-2283 801.5,-2283"/>
</g>
<!-- 8&#45;&gt;7 -->
<g id="edge14" class="edge">
<title>8&#45;&gt;7</title>
<path fill="none" stroke="#c0c0c0" stroke-width="2" d="M1021.8784,-2281.9361C1011.2997,-2272.3829 1000.4843,-2262.6159 989.9406,-2253.0943"/>
<polygon fill="#c0c0c0" stroke="#c0c0c0" stroke-width="2" points="992.086,-2250.3158 982.3185,-2246.2111 987.3944,-2255.5109 992.086,-2250.3158"/>
</g>
<!-- 13 -->
<g id="node14" class="node">
<title>13</title>
<text text-anchor="start" x="1447" y="-2057.6" font-family="sans" font-weight="bold" font-size="18.00" fill="#000000">shard_saturated_reads_extract</text>
<text text-anchor="start" x="1299" y="-2033.8" font-family="sans" font-size="10.00" fill="#000000"> </text>
<text text-anchor="start" x="1303" y="-2033.8" font-family="sans" font-weight="bold" font-size="14.00" fill="#000000">↪ input</text>
<text text-anchor="start" x="1356" y="-2033.8" font-family="sans" font-size="10.00" fill="#000000"> </text>
<text text-anchor="start" x="1299" y="-2014" font-family="monospace" font-size="10.00" fill="#000000">&lt;input function&gt;</text>
<text text-anchor="start" x="1299" y="-1996" font-family="monospace" font-size="10.00" fill="#000000">temp/shards/saturated_reads/filter/{sample}_{library}_{read_type_map}.tsv</text>
<text text-anchor="start" x="1789" y="-1975.8" font-family="sans" font-size="10.00" fill="#000000"> </text>
<text text-anchor="start" x="1793" y="-1975.8" font-family="sans" font-weight="bold" font-size="14.00" fill="#000000">output →</text>
<text text-anchor="start" x="1854" y="-1975.8" font-family="sans" font-size="10.00" fill="#000000"> </text>
<text text-anchor="start" x="1299" y="-1956" font-family="monospace" font-size="10.00" fill="#000000">results/reads/saturated/{sample}_{library}_{read_type_map,pe|se|singleton|collapsed}.fastq.gz</text>
<polygon fill="#57cdd9" stroke="#57cdd9" points="1293,-2048 1293,-2048 1865,-2048 1865,-2048 1293,-2048"/>
<polygon fill="#57cdd9" stroke="#57cdd9" points="1293,-1990 1293,-1990 1865,-1990 1865,-1990 1293,-1990"/>
<polygon fill="none" stroke="#57cdd9" stroke-width="2" points="1292.5,-1947 1292.5,-2077 1863.5,-2077 1863.5,-1947 1292.5,-1947"/>
</g>
<!-- 8&#45;&gt;13 -->
<g id="edge21" class="edge">
<title>8&#45;&gt;13</title>
<path fill="none" stroke="#c0c0c0" stroke-width="2" d="M1261.1851,-2281.9974C1281.1117,-2270.6983 1300.8614,-2258.5861 1319,-2246 1387.5705,-2198.4199 1457.3244,-2134.307 1507.1414,-2085.2219"/>
<polygon fill="#c0c0c0" stroke="#c0c0c0" stroke-width="2" points="1509.6991,-2087.6148 1514.3442,-2078.0926 1504.7748,-2082.6397 1509.6991,-2087.6148"/>
</g>
<!-- 9&#45;&gt;8 -->
<g id="edge15" class="edge">
<title>9&#45;&gt;8</title>
<path fill="none" stroke="#c0c0c0" stroke-width="2" d="M1105,-2467.6538C1105,-2459.4553 1105,-2450.8789 1105,-2442.2845"/>
<polygon fill="#c0c0c0" stroke="#c0c0c0" stroke-width="2" points="1108.5001,-2442.2088 1105,-2432.2088 1101.5001,-2442.2088 1108.5001,-2442.2088"/>
</g>
<!-- 10 -->
<g id="node11" class="node">
<title>10</title>
<text text-anchor="start" x="844.5" y="-1313.6" font-family="sans" font-weight="bold" font-size="18.00" fill="#000000">metadmg_dfit</text>
<text text-anchor="start" x="621" y="-1289.8" font-family="sans" font-size="10.00" fill="#000000"> </text>
<text text-anchor="start" x="625" y="-1289.8" font-family="sans" font-weight="bold" font-size="14.00" fill="#000000">↪ input</text>
<text text-anchor="start" x="678" y="-1289.8" font-family="sans" font-size="10.00" fill="#000000"> </text>
<text text-anchor="start" x="621" y="-1270" font-family="monospace" font-size="10.00" fill="#000000">/datasets/caeg_dataset/taxonomy/ncbi/20250210/names.dmp</text>
<text text-anchor="start" x="621" y="-1252" font-family="monospace" font-size="10.00" fill="#000000">/datasets/caeg_dataset/taxonomy/ncbi/20250210/nodes.dmp</text>
<text text-anchor="start" x="621" y="-1234" font-family="monospace" font-size="10.00" fill="#000000">results/metadmg/lca/{sample}_{library}_{read_type_map}.bdamage.gz</text>
<text text-anchor="start" x="1117" y="-1213.8" font-family="sans" font-size="10.00" fill="#000000"> </text>
<text text-anchor="start" x="1121" y="-1213.8" font-family="sans" font-weight="bold" font-size="14.00" fill="#000000">output →</text>
<text text-anchor="start" x="1182" y="-1213.8" font-family="sans" font-size="10.00" fill="#000000"> </text>
<text text-anchor="start" x="621" y="-1194" font-family="monospace" font-size="10.00" fill="#000000">results/metadmg/dfit/{sample}_{library}_{read_type_map,pe|se|singleton|collapsed}.boot.stat.gz</text>
<text text-anchor="start" x="621" y="-1176" font-family="monospace" font-size="10.00" fill="#000000">results/metadmg/dfit/{sample}_{library}_{read_type_map,pe|se|singleton|collapsed}.dfit.gz</text>
<polygon fill="#6ed957" stroke="#6ed957" points="615,-1304 615,-1304 1193,-1304 1193,-1304 615,-1304"/>
<polygon fill="#6ed957" stroke="#6ed957" points="615,-1228 615,-1228 1193,-1228 1193,-1228 615,-1228"/>
<polygon fill="none" stroke="#6ed957" stroke-width="2" points="614.5,-1167 614.5,-1333 1191.5,-1333 1191.5,-1167 614.5,-1167"/>
</g>
<!-- 10&#45;&gt;1 -->
<g id="edge6" class="edge">
<title>10&#45;&gt;1</title>
<path fill="none" stroke="#c0c0c0" stroke-width="2" d="M613.133,-1168.0036C610.0754,-1167.3234 607.0303,-1166.6552 604,-1166 552.3619,-1154.8347 404.1621,-1169.4308 369,-1130 353.2435,-1112.3306 347.4089,-1019.642 345.9252,-918.4722"/>
<polygon fill="#c0c0c0" stroke="#c0c0c0" stroke-width="2" points="349.4232,-918.2925 345.7912,-908.3396 342.4238,-918.3851 349.4232,-918.2925"/>
</g>
<!-- 12 -->
<g id="node13" class="node">
<title>12</title>
<text text-anchor="start" x="581" y="-1109.6" font-family="sans" font-weight="bold" font-size="18.00" fill="#000000">metadmg_aggregate</text>
<text text-anchor="start" x="386" y="-1085.8" font-family="sans" font-size="10.00" fill="#000000"> </text>
<text text-anchor="start" x="390" y="-1085.8" font-family="sans" font-weight="bold" font-size="14.00" fill="#000000">↪ input</text>
<text text-anchor="start" x="443" y="-1085.8" font-family="sans" font-size="10.00" fill="#000000"> </text>
<text text-anchor="start" x="386" y="-1066" font-family="monospace" font-size="10.00" fill="#000000">/datasets/caeg_dataset/taxonomy/ncbi/20250210/names.dmp</text>
<text text-anchor="start" x="386" y="-1048" font-family="monospace" font-size="10.00" fill="#000000">/datasets/caeg_dataset/taxonomy/ncbi/20250210/nodes.dmp</text>
<text text-anchor="start" x="386" y="-1030" font-family="monospace" font-size="10.00" fill="#000000">results/metadmg/dfit/{sample}_{library}_{read_type_map}.dfit.gz</text>
<text text-anchor="start" x="386" y="-1012" font-family="monospace" font-size="10.00" fill="#000000">results/metadmg/lca/{sample}_{library}_{read_type_map}.bdamage.gz</text>
<text text-anchor="start" x="386" y="-994" font-family="monospace" font-size="10.00" fill="#000000">stats/metadmg/lca/{sample}_{library}_{read_type_map}.stat.gz</text>
<text text-anchor="start" x="882" y="-973.8" font-family="sans" font-size="10.00" fill="#000000"> </text>
<text text-anchor="start" x="886" y="-973.8" font-family="sans" font-weight="bold" font-size="14.00" fill="#000000">output →</text>
<text text-anchor="start" x="947" y="-973.8" font-family="sans" font-size="10.00" fill="#000000"> </text>
<text text-anchor="start" x="386" y="-954" font-family="monospace" font-size="10.00" fill="#000000">results/metadmg/aggregate/{sample}_{library}_{read_type_map,pe|se|singleton|collapsed}.stat.gz</text>
<polygon fill="#9ed957" stroke="#9ed957" points="380,-1100 380,-1100 958,-1100 958,-1100 380,-1100"/>
<polygon fill="#9ed957" stroke="#9ed957" points="380,-988 380,-988 958,-988 958,-988 380,-988"/>
<polygon fill="none" stroke="#9ed957" stroke-width="2" points="379.5,-945 379.5,-1129 956.5,-1129 956.5,-945 379.5,-945"/>
</g>
<!-- 10&#45;&gt;12 -->
<g id="edge20" class="edge">
<title>10&#45;&gt;12</title>
<path fill="none" stroke="#c0c0c0" stroke-width="2" d="M810.1218,-1165.8168C799.6949,-1156.366 788.9971,-1146.6698 778.3773,-1137.0441"/>
<polygon fill="#c0c0c0" stroke="#c0c0c0" stroke-width="2" points="780.4231,-1134.1746 770.6631,-1130.0521 775.722,-1139.3612 780.4231,-1134.1746"/>
</g>
<!-- 11&#45;&gt;10 -->
<g id="edge17" class="edge">
<title>11&#45;&gt;10</title>
<path fill="none" stroke="#c0c0c0" stroke-width="2" d="M906,-1370C905.7855,-1361.4188 905.5709,-1352.8375 905.3608,-1344.4318"/>
<polygon fill="#c0c0c0" stroke="#c0c0c0" stroke-width="2" points="908.8559,-1344.1869 905.1069,-1334.2775 901.858,-1344.3619 908.8559,-1344.1869"/>
</g>
<!-- 11&#45;&gt;12 -->
<g id="edge19" class="edge">
<title>11&#45;&gt;12</title>
<path fill="none" stroke="#c0c0c0" stroke-width="2" d="M1174.5724,-1369.9214C1184.9411,-1358.9186 1194.2124,-1346.969 1202,-1334 1240.4384,-1269.9875 1250.6359,-1222.6539 1202,-1166 1169.3345,-1127.9494 1033.3267,-1140.4018 967.7209,-1129.7635"/>
<polygon fill="#c0c0c0" stroke="#c0c0c0" stroke-width="2" points="968.3057,-1126.3118 957.8226,-1127.8465 966.9748,-1133.1841 968.3057,-1126.3118"/>
</g>
<!-- 12&#45;&gt;0 -->
<g id="edge1" class="edge">
<title>12&#45;&gt;0</title>
<path fill="none" stroke="#c0c0c0" stroke-width="2" d="M693.1325,-943.7563C733.2211,-795.0241 812.1723,-502.1085 861.8423,-317.8289"/>
<polygon fill="#c0c0c0" stroke="#c0c0c0" stroke-width="2" points="865.2568,-318.6093 864.4799,-308.043 858.498,-316.7875 865.2568,-318.6093"/>
</g>
<!-- 12&#45;&gt;1 -->
<g id="edge8" class="edge">
<title>12&#45;&gt;1</title>
<path fill="none" stroke="#c0c0c0" stroke-width="2" d="M596.0396,-943.9945C589.1689,-935.1146 581.9849,-925.8295 574.5701,-916.2463"/>
<polygon fill="#c0c0c0" stroke="#c0c0c0" stroke-width="2" points="577.177,-913.896 568.2894,-908.1287 571.6406,-918.1796 577.177,-913.896"/>
</g>
<!-- 13&#45;&gt;0 -->
<g id="edge2" class="edge">
<title>13&#45;&gt;0</title>
<path fill="none" stroke="#c0c0c0" stroke-width="2" d="M1579.6928,-1945.7008C1581.1433,-1883.1328 1583,-1786.6985 1583,-1703 1583,-1703 1583,-1703 1583,-1037 1583,-719.8495 1304.5433,-446.3115 1104.7976,-290.8927"/>
<polygon fill="#c0c0c0" stroke="#c0c0c0" stroke-width="2" points="1106.8846,-288.0821 1096.835,-284.7271 1102.5989,-293.6169 1106.8846,-288.0821"/>
</g>
<!-- 14&#45;&gt;0 -->
<g id="edge3" class="edge">
<title>14&#45;&gt;0</title>
<path fill="none" stroke="#c0c0c0" stroke-width="2" d="M1230.7402,-952.7342C1171.4942,-807.0123 1048.9215,-505.5311 972.4701,-317.4905"/>
<polygon fill="#c0c0c0" stroke="#c0c0c0" stroke-width="2" points="975.6468,-316.0108 968.6381,-308.0654 969.1622,-318.6473 975.6468,-316.0108"/>
</g>
</g>
</svg>
