<?xml version="1.0" encoding="UTF-8" standalone="no"?>
<!DOCTYPE svg PUBLIC "-//W3C//DTD SVG 1.1//EN"
 "http://www.w3.org/Graphics/SVG/1.1/DTD/svg11.dtd">
<!-- Generated by graphviz version 2.40.1 (0)
 -->
<!-- Title: snakemake_dag Pages: 1 -->
<svg width="1874pt" height="2740pt"
 viewBox="0.00 0.00 1873.50 2740.00" xmlns="http://www.w3.org/2000/svg" xmlns:xlink="http://www.w3.org/1999/xlink">
<g id="graph0" class="graph" transform="scale(1 1) rotate(0) translate(4 2736)">
<title>snakemake_dag</title>
<polygon fill="#ffffff" stroke="transparent" points="-4,4 -4,-2736 1869.5,-2736 1869.5,4 -4,4"/>
<!-- 0 -->
<g id="node1" class="node">
<title>0</title>
<text text-anchor="start" x="896" y="-341.6" font-family="sans" font-weight="bold" font-size="18.00" fill="#000000">all</text>
<text text-anchor="start" x="723" y="-317.8" font-family="sans" font-size="10.00" fill="#000000"> </text>
<text text-anchor="start" x="727" y="-317.8" font-family="sans" font-weight="bold" font-size="14.00" fill="#000000">↪ input</text>
<text text-anchor="start" x="780" y="-317.8" font-family="sans" font-size="10.00" fill="#000000"> </text>
<text text-anchor="start" x="723" y="-298" font-family="monospace" font-size="10.00" fill="#000000">reports/multiqc.html</text>
<text text-anchor="start" x="723" y="-280" font-family="monospace" font-size="10.00" fill="#000000">results/metadmg/aggregate/HD827sonic_1_lib1_collapsed.stat.gz</text>
<text text-anchor="start" x="723" y="-262" font-family="monospace" font-size="10.00" fill="#000000">results/metadmg/aggregate/HD827sonic_1_lib1_collapsed.stat.gz</text>
<text text-anchor="start" x="723" y="-244" font-family="monospace" font-size="10.00" fill="#000000">results/metadmg/aggregate/HD827sonic_2_lib1_collapsed.stat.gz</text>
<text text-anchor="start" x="723" y="-226" font-family="monospace" font-size="10.00" fill="#000000">results/metadmg/aggregate/HD827sonic_2_lib2_collapsed.stat.gz</text>
<text text-anchor="start" x="723" y="-208" font-family="monospace" font-size="10.00" fill="#000000">results/metadmg/aggregate/HD827sonic_2_lib3_collapsed.stat.gz</text>
<text text-anchor="start" x="723" y="-190" font-family="monospace" font-size="10.00" fill="#000000">results/reads/saturated/HD827sonic_1_lib1_collapsed.fastq.gz</text>
<text text-anchor="start" x="723" y="-172" font-family="monospace" font-size="10.00" fill="#000000">results/reads/saturated/HD827sonic_1_lib1_collapsed.fastq.gz</text>
<text text-anchor="start" x="723" y="-154" font-family="monospace" font-size="10.00" fill="#000000">results/reads/saturated/HD827sonic_2_lib1_collapsed.fastq.gz</text>
<text text-anchor="start" x="723" y="-136" font-family="monospace" font-size="10.00" fill="#000000">results/reads/saturated/HD827sonic_2_lib2_collapsed.fastq.gz</text>
<text text-anchor="start" x="723" y="-118" font-family="monospace" font-size="10.00" fill="#000000">results/reads/saturated/HD827sonic_2_lib3_collapsed.fastq.gz</text>
<text text-anchor="start" x="723" y="-100" font-family="monospace" font-size="10.00" fill="#000000">stats/metadmg/damage/HD827sonic_1_lib1_collapsed.stat.gz</text>
<text text-anchor="start" x="723" y="-82" font-family="monospace" font-size="10.00" fill="#000000">stats/metadmg/damage/HD827sonic_1_lib1_collapsed.stat.gz</text>
<text text-anchor="start" x="723" y="-64" font-family="monospace" font-size="10.00" fill="#000000">stats/metadmg/damage/HD827sonic_2_lib1_collapsed.stat.gz</text>
<text text-anchor="start" x="723" y="-46" font-family="monospace" font-size="10.00" fill="#000000">stats/metadmg/damage/HD827sonic_2_lib2_collapsed.stat.gz</text>
<text text-anchor="start" x="723" y="-28" font-family="monospace" font-size="10.00" fill="#000000">stats/metadmg/damage/HD827sonic_2_lib3_collapsed.stat.gz</text>
<text text-anchor="start" x="1083" y="-10" font-family="sans" font-size="10.00" fill="#000000"> &#160;</text>
<polygon fill="#b5d957" stroke="#b5d957" points="717,-332 717,-332 1097,-332 1097,-332 717,-332"/>
<polygon fill="#b5d957" stroke="#b5d957" points="717,-22 717,-22 1097,-22 1097,-22 717,-22"/>
<polygon fill="none" stroke="#b5d957" stroke-width="2" points="716.5,-1 716.5,-361 1095.5,-361 1095.5,-1 716.5,-1"/>
</g>
<!-- 1 -->
<g id="node2" class="node">
<title>1</title>
<text text-anchor="start" x="318" y="-905.6" font-family="sans" font-weight="bold" font-size="18.00" fill="#000000">multiqc</text>
<text text-anchor="start" x="161" y="-881.8" font-family="sans" font-size="10.00" fill="#000000"> </text>
<text text-anchor="start" x="165" y="-881.8" font-family="sans" font-weight="bold" font-size="14.00" fill="#000000">↪ input</text>
<text text-anchor="start" x="218" y="-881.8" font-family="sans" font-size="10.00" fill="#000000"> </text>
<text text-anchor="start" x="161" y="-862" font-family="monospace" font-size="10.00" fill="#000000">logs/shards/bowtie2/HD827sonic_1_lib1_collapsed.test.1&#45;of&#45;2.log</text>
<text text-anchor="start" x="161" y="-844" font-family="monospace" font-size="10.00" fill="#000000">logs/shards/bowtie2/HD827sonic_1_lib1_collapsed.test.2&#45;of&#45;2.log</text>
<text text-anchor="start" x="161" y="-826" font-family="monospace" font-size="10.00" fill="#000000">logs/shards/bowtie2/HD827sonic_2_lib1_collapsed.test.1&#45;of&#45;2.log</text>
<text text-anchor="start" x="161" y="-808" font-family="monospace" font-size="10.00" fill="#000000">logs/shards/bowtie2/HD827sonic_2_lib1_collapsed.test.2&#45;of&#45;2.log</text>
<text text-anchor="start" x="161" y="-790" font-family="monospace" font-size="10.00" fill="#000000">logs/shards/bowtie2/HD827sonic_2_lib2_collapsed.test.1&#45;of&#45;2.log</text>
<text text-anchor="start" x="161" y="-772" font-family="monospace" font-size="10.00" fill="#000000">logs/shards/bowtie2/HD827sonic_2_lib2_collapsed.test.2&#45;of&#45;2.log</text>
<text text-anchor="start" x="161" y="-754" font-family="monospace" font-size="10.00" fill="#000000">logs/shards/bowtie2/HD827sonic_2_lib3_collapsed.test.1&#45;of&#45;2.log</text>
<text text-anchor="start" x="161" y="-736" font-family="monospace" font-size="10.00" fill="#000000">logs/shards/bowtie2/HD827sonic_2_lib3_collapsed.test.2&#45;of&#45;2.log</text>
<text text-anchor="start" x="161" y="-718" font-family="monospace" font-size="10.00" fill="#000000">results/metadmg/aggregate/HD827sonic_1_lib1_collapsed.stat.gz</text>
<text text-anchor="start" x="161" y="-700" font-family="monospace" font-size="10.00" fill="#000000">results/metadmg/aggregate/HD827sonic_1_lib1_collapsed.stat.gz</text>
<text text-anchor="start" x="161" y="-682" font-family="monospace" font-size="10.00" fill="#000000">results/metadmg/aggregate/HD827sonic_2_lib1_collapsed.stat.gz</text>
<text text-anchor="start" x="161" y="-664" font-family="monospace" font-size="10.00" fill="#000000">results/metadmg/aggregate/HD827sonic_2_lib2_collapsed.stat.gz</text>
<text text-anchor="start" x="161" y="-646" font-family="monospace" font-size="10.00" fill="#000000">results/metadmg/aggregate/HD827sonic_2_lib3_collapsed.stat.gz</text>
<text text-anchor="start" x="161" y="-628" font-family="monospace" font-size="10.00" fill="#000000">results/metadmg/dfit/HD827sonic_1_lib1_collapsed.dfit.gz</text>
<text text-anchor="start" x="161" y="-610" font-family="monospace" font-size="10.00" fill="#000000">results/metadmg/dfit/HD827sonic_1_lib1_collapsed.dfit.gz</text>
<text text-anchor="start" x="161" y="-592" font-family="monospace" font-size="10.00" fill="#000000">results/metadmg/dfit/HD827sonic_2_lib1_collapsed.dfit.gz</text>
<text text-anchor="start" x="161" y="-574" font-family="monospace" font-size="10.00" fill="#000000">results/metadmg/dfit/HD827sonic_2_lib2_collapsed.dfit.gz</text>
<text text-anchor="start" x="161" y="-556" font-family="monospace" font-size="10.00" fill="#000000">results/metadmg/dfit/HD827sonic_2_lib3_collapsed.dfit.gz</text>
<text text-anchor="start" x="161" y="-538" font-family="monospace" font-size="10.00" fill="#000000">stats/aligns/samtools_stats/HD827sonic_1_lib1_collapsed.txt</text>
<text text-anchor="start" x="161" y="-520" font-family="monospace" font-size="10.00" fill="#000000">stats/aligns/samtools_stats/HD827sonic_1_lib1_collapsed.txt</text>
<text text-anchor="start" x="161" y="-502" font-family="monospace" font-size="10.00" fill="#000000">stats/aligns/samtools_stats/HD827sonic_2_lib1_collapsed.txt</text>
<text text-anchor="start" x="161" y="-484" font-family="monospace" font-size="10.00" fill="#000000">stats/aligns/samtools_stats/HD827sonic_2_lib2_collapsed.txt</text>
<text text-anchor="start" x="161" y="-466" font-family="monospace" font-size="10.00" fill="#000000">stats/aligns/samtools_stats/HD827sonic_2_lib3_collapsed.txt</text>
<text text-anchor="start" x="471" y="-445.8" font-family="sans" font-size="10.00" fill="#000000"> </text>
<text text-anchor="start" x="475" y="-445.8" font-family="sans" font-weight="bold" font-size="14.00" fill="#000000">output →</text>
<text text-anchor="start" x="536" y="-445.8" font-family="sans" font-size="10.00" fill="#000000"> </text>
<text text-anchor="start" x="161" y="-426" font-family="monospace" font-size="10.00" fill="#000000">reports/multiqc.html</text>
<text text-anchor="start" x="161" y="-408" font-family="monospace" font-size="10.00" fill="#000000">reports/multiqc_data.zip</text>
<polygon fill="#57d96e" stroke="#57d96e" points="155,-896 155,-896 547,-896 547,-896 155,-896"/>
<polygon fill="#57d96e" stroke="#57d96e" points="155,-460 155,-460 547,-460 547,-460 155,-460"/>
<polygon fill="none" stroke="#57d96e" stroke-width="2" points="154.5,-399 154.5,-925 545.5,-925 545.5,-399 154.5,-399"/>
</g>
<!-- 1&#45;&gt;0 -->
<g id="edge3" class="edge">
<title>1&#45;&gt;0</title>
<path fill="none" stroke="#c0c0c0" stroke-width="2" d="M546.8072,-491.7405C598.913,-446.6634 655.1902,-397.9776 707.3909,-352.8183"/>
<polygon fill="#c0c0c0" stroke="#c0c0c0" stroke-width="2" points="709.7892,-355.3715 715.0621,-346.1819 705.2094,-350.0776 709.7892,-355.3715"/>
</g>
<!-- 2 -->
<g id="node3" class="node">
<title>2</title>
<text text-anchor="start" x="648" y="-2711.6" font-family="sans" font-weight="bold" font-size="18.00" fill="#000000">shard_bowtie2</text>
<text text-anchor="start" x="363" y="-2687.8" font-family="sans" font-size="10.00" fill="#000000"> </text>
<text text-anchor="start" x="367" y="-2687.8" font-family="sans" font-weight="bold" font-size="14.00" fill="#000000">↪ input</text>
<text text-anchor="start" x="420" y="-2687.8" font-family="sans" font-size="10.00" fill="#000000"> </text>
<text text-anchor="start" x="363" y="-2668" font-family="monospace" font-size="10.00" fill="#000000">&lt;input function&gt;</text>
<text text-anchor="start" x="363" y="-2650" font-family="monospace" font-size="10.00" fill="#000000">&lt;input function&gt;</text>
<text text-anchor="start" x="991" y="-2629.8" font-family="sans" font-size="10.00" fill="#000000"> </text>
<text text-anchor="start" x="995" y="-2629.8" font-family="sans" font-weight="bold" font-size="14.00" fill="#000000">output →</text>
<text text-anchor="start" x="1056" y="-2629.8" font-family="sans" font-size="10.00" fill="#000000"> </text>
<text text-anchor="start" x="363" y="-2610" font-family="monospace" font-size="10.00" fill="#000000">temp/shards/bowtie2/{sample}_{library}_{read_type_map,pe|se|singleton|collapsed}.{ref}.{n_shard}&#45;of&#45;{tot_shards}.bam</text>
<polygon fill="#57d986" stroke="#57d986" points="357,-2702 357,-2702 1067,-2702 1067,-2702 357,-2702"/>
<polygon fill="#57d986" stroke="#57d986" points="357,-2644 357,-2644 1067,-2644 1067,-2644 357,-2644"/>
<polygon fill="none" stroke="#57d986" stroke-width="2" points="356.5,-2601 356.5,-2731 1065.5,-2731 1065.5,-2601 356.5,-2601"/>
</g>
<!-- 2&#45;&gt;1 -->
<g id="edge7" class="edge">
<title>2&#45;&gt;1</title>
<path fill="none" stroke="#c0c0c0" stroke-width="2" d="M447.0077,-2599.9707C244.7131,-2541.391 0,-2449.5427 0,-2348 0,-2348 0,-2348 0,-1268 0,-1129.016 69.8877,-993.2378 147.2037,-885.5525"/>
<polygon fill="#c0c0c0" stroke="#c0c0c0" stroke-width="2" points="150.227,-887.3452 153.2605,-877.1939 144.5587,-883.2378 150.227,-887.3452"/>
</g>
<!-- 7 -->
<g id="node8" class="node">
<title>7</title>
<text text-anchor="start" x="774.5" y="-2225.6" font-family="sans" font-weight="bold" font-size="18.00" fill="#000000">shard_saturated_reads_remove</text>
<text text-anchor="start" x="515" y="-2201.8" font-family="sans" font-size="10.00" fill="#000000"> </text>
<text text-anchor="start" x="519" y="-2201.8" font-family="sans" font-weight="bold" font-size="14.00" fill="#000000">↪ input</text>
<text text-anchor="start" x="572" y="-2201.8" font-family="sans" font-size="10.00" fill="#000000"> </text>
<text text-anchor="start" x="515" y="-2182" font-family="monospace" font-size="10.00" fill="#000000">&lt;input function&gt;</text>
<text text-anchor="start" x="515" y="-2164" font-family="monospace" font-size="10.00" fill="#000000">temp/shards/saturated_reads/filter/{sample}_{library}_{read_type_map}.tsv</text>
<text text-anchor="start" x="1233" y="-2143.8" font-family="sans" font-size="10.00" fill="#000000"> </text>
<text text-anchor="start" x="1237" y="-2143.8" font-family="sans" font-weight="bold" font-size="14.00" fill="#000000">output →</text>
<text text-anchor="start" x="1298" y="-2143.8" font-family="sans" font-size="10.00" fill="#000000"> </text>
<text text-anchor="start" x="515" y="-2124" font-family="monospace" font-size="10.00" fill="#000000">temp/shards/saturated_reads/remove/{sample}_{library}_{read_type_map,pe|se|singleton|collapsed}.{ref}.{n_shard}&#45;of&#45;{tot_shards}.bam</text>
<polygon fill="#579ed9" stroke="#579ed9" points="509,-2216 509,-2216 1309,-2216 1309,-2216 509,-2216"/>
<polygon fill="#579ed9" stroke="#579ed9" points="509,-2158 509,-2158 1309,-2158 1309,-2158 509,-2158"/>
<polygon fill="none" stroke="#579ed9" stroke-width="2" points="508.5,-2115 508.5,-2245 1307.5,-2245 1307.5,-2115 508.5,-2115"/>
</g>
<!-- 2&#45;&gt;7 -->
<g id="edge14" class="edge">
<title>2&#45;&gt;7</title>
<path fill="none" stroke="#c0c0c0" stroke-width="2" d="M709.8004,-2599.9467C711.4581,-2518.3313 724.8601,-2378.4613 791,-2282 797.854,-2272.0039 805.911,-2262.3718 814.5368,-2253.2843"/>
<polygon fill="#c0c0c0" stroke="#c0c0c0" stroke-width="2" points="817.0627,-2255.7075 821.5644,-2246.1166 812.0643,-2250.8068 817.0627,-2255.7075"/>
</g>
<!-- 9 -->
<g id="node10" class="node">
<title>9</title>
<text text-anchor="start" x="1027.5" y="-2543.6" font-family="sans" font-weight="bold" font-size="18.00" fill="#000000">shard_count_alns</text>
<text text-anchor="start" x="747" y="-2519.8" font-family="sans" font-size="10.00" fill="#000000"> </text>
<text text-anchor="start" x="751" y="-2519.8" font-family="sans" font-weight="bold" font-size="14.00" fill="#000000">↪ input</text>
<text text-anchor="start" x="804" y="-2519.8" font-family="sans" font-size="10.00" fill="#000000"> </text>
<text text-anchor="start" x="747" y="-2500" font-family="monospace" font-size="10.00" fill="#000000">&lt;input function&gt;</text>
<text text-anchor="start" x="1393" y="-2479.8" font-family="sans" font-size="10.00" fill="#000000"> </text>
<text text-anchor="start" x="1397" y="-2479.8" font-family="sans" font-weight="bold" font-size="14.00" fill="#000000">output →</text>
<text text-anchor="start" x="1458" y="-2479.8" font-family="sans" font-size="10.00" fill="#000000"> </text>
<text text-anchor="start" x="747" y="-2460" font-family="monospace" font-size="10.00" fill="#000000">temp/shards/count_alns/{sample}_{library}_{read_type_map,pe|se|singleton|collapsed}.{ref}.{n_shard}&#45;of&#45;{tot_shards}.tsv</text>
<polygon fill="#57d9cd" stroke="#57d9cd" points="741,-2534 741,-2534 1469,-2534 1469,-2534 741,-2534"/>
<polygon fill="#57d9cd" stroke="#57d9cd" points="741,-2494 741,-2494 1469,-2494 1469,-2494 741,-2494"/>
<polygon fill="none" stroke="#57d9cd" stroke-width="2" points="740.5,-2451 740.5,-2563 1467.5,-2563 1467.5,-2451 740.5,-2451"/>
</g>
<!-- 2&#45;&gt;9 -->
<g id="edge16" class="edge">
<title>2&#45;&gt;9</title>
<path fill="none" stroke="#c0c0c0" stroke-width="2" d="M874.2532,-2599.951C900.4548,-2589.3504 927.4686,-2578.4211 953.3576,-2567.9469"/>
<polygon fill="#c0c0c0" stroke="#c0c0c0" stroke-width="2" points="954.8838,-2571.1051 962.8412,-2564.11 952.2585,-2564.6161 954.8838,-2571.1051"/>
</g>
<!-- 3 -->
<g id="node4" class="node">
<title>3</title>
<text text-anchor="start" x="265.5" y="-1304.6" font-family="sans" font-weight="bold" font-size="18.00" fill="#000000">align_stats</text>
<text text-anchor="start" x="36" y="-1280.8" font-family="sans" font-size="10.00" fill="#000000"> </text>
<text text-anchor="start" x="40" y="-1280.8" font-family="sans" font-weight="bold" font-size="14.00" fill="#000000">↪ input</text>
<text text-anchor="start" x="93" y="-1280.8" font-family="sans" font-size="10.00" fill="#000000"> </text>
<text text-anchor="start" x="36" y="-1261" font-family="monospace" font-size="10.00" fill="#000000">results/aligns/merge/{sample}_{library}_{read_type_map}.bam</text>
<text text-anchor="start" x="520" y="-1240.8" font-family="sans" font-size="10.00" fill="#000000"> </text>
<text text-anchor="start" x="524" y="-1240.8" font-family="sans" font-weight="bold" font-size="14.00" fill="#000000">output →</text>
<text text-anchor="start" x="585" y="-1240.8" font-family="sans" font-size="10.00" fill="#000000"> </text>
<text text-anchor="start" x="36" y="-1221" font-family="monospace" font-size="10.00" fill="#000000">stats/aligns/samtools_stats/{sample}_{library}_{read_type_map,pe|se|singleton|collapsed}.txt</text>
<polygon fill="#cdd957" stroke="#cdd957" points="30,-1295 30,-1295 596,-1295 596,-1295 30,-1295"/>
<polygon fill="#cdd957" stroke="#cdd957" points="30,-1255 30,-1255 596,-1255 596,-1255 30,-1255"/>
<polygon fill="none" stroke="#cdd957" stroke-width="2" points="29.5,-1212 29.5,-1324 594.5,-1324 594.5,-1212 29.5,-1212"/>
</g>
<!-- 3&#45;&gt;1 -->
<g id="edge5" class="edge">
<title>3&#45;&gt;1</title>
<path fill="none" stroke="#c0c0c0" stroke-width="2" d="M315.5749,-1210.989C319.5708,-1147.2663 326.3333,-1039.4219 332.8122,-936.1007"/>
<polygon fill="#c0c0c0" stroke="#c0c0c0" stroke-width="2" points="336.3054,-936.3171 333.4382,-926.1176 329.3191,-935.8789 336.3054,-936.3171"/>
</g>
<!-- 4 -->
<g id="node5" class="node">
<title>4</title>
<text text-anchor="start" x="855.5" y="-1739.6" font-family="sans" font-weight="bold" font-size="18.00" fill="#000000">align_merge</text>
<text text-anchor="start" x="653" y="-1715.8" font-family="sans" font-size="10.00" fill="#000000"> </text>
<text text-anchor="start" x="657" y="-1715.8" font-family="sans" font-weight="bold" font-size="14.00" fill="#000000">↪ input</text>
<text text-anchor="start" x="710" y="-1715.8" font-family="sans" font-size="10.00" fill="#000000"> </text>
<text text-anchor="start" x="653" y="-1696" font-family="monospace" font-size="10.00" fill="#000000">&lt;input function&gt;</text>
<text text-anchor="start" x="1095" y="-1675.8" font-family="sans" font-size="10.00" fill="#000000"> </text>
<text text-anchor="start" x="1099" y="-1675.8" font-family="sans" font-weight="bold" font-size="14.00" fill="#000000">output →</text>
<text text-anchor="start" x="1160" y="-1675.8" font-family="sans" font-size="10.00" fill="#000000"> </text>
<text text-anchor="start" x="653" y="-1656" font-family="monospace" font-size="10.00" fill="#000000">results/aligns/merge/{sample}_{library}_{read_type_map,pe|se|singleton|collapsed}.bam</text>
<polygon fill="#d98657" stroke="#d98657" points="647,-1730 647,-1730 1171,-1730 1171,-1730 647,-1730"/>
<polygon fill="#d98657" stroke="#d98657" points="647,-1690 647,-1690 1171,-1690 1171,-1690 647,-1690"/>
<polygon fill="none" stroke="#d98657" stroke-width="2" points="646.5,-1647 646.5,-1759 1169.5,-1759 1169.5,-1647 646.5,-1647"/>
</g>
<!-- 4&#45;&gt;3 -->
<g id="edge9" class="edge">
<title>4&#45;&gt;3</title>
<path fill="none" stroke="#c0c0c0" stroke-width="2" d="M686.9256,-1645.9427C662.7905,-1635.7189 639.2893,-1623.815 618,-1610 504.8986,-1536.6067 407.611,-1410.798 354.6533,-1333.9437"/>
<polygon fill="#c0c0c0" stroke="#c0c0c0" stroke-width="2" points="357.2637,-1331.5604 348.7296,-1325.2818 351.4857,-1335.5119 357.2637,-1331.5604"/>
</g>
<!-- 11 -->
<g id="node12" class="node">
<title>11</title>
<text text-anchor="start" x="851" y="-1589.6" font-family="sans" font-weight="bold" font-size="18.00" fill="#000000">metadmg_lca</text>
<text text-anchor="start" x="635" y="-1565.8" font-family="sans" font-size="10.00" fill="#000000"> </text>
<text text-anchor="start" x="639" y="-1565.8" font-family="sans" font-weight="bold" font-size="14.00" fill="#000000">↪ input</text>
<text text-anchor="start" x="692" y="-1565.8" font-family="sans" font-size="10.00" fill="#000000"> </text>
<text text-anchor="start" x="635" y="-1546" font-family="monospace" font-size="10.00" fill="#000000">&lt;function &lt;lambda&gt; at 0x7fb9516c9260&gt;</text>
<text text-anchor="start" x="635" y="-1528" font-family="monospace" font-size="10.00" fill="#000000">data/taxdump/names.dmp</text>
<text text-anchor="start" x="635" y="-1510" font-family="monospace" font-size="10.00" fill="#000000">data/taxdump/nodes.dmp</text>
<text text-anchor="start" x="635" y="-1492" font-family="monospace" font-size="10.00" fill="#000000">data/test.acc2taxid.gz</text>
<text text-anchor="start" x="1113" y="-1471.8" font-family="sans" font-size="10.00" fill="#000000"> </text>
<text text-anchor="start" x="1117" y="-1471.8" font-family="sans" font-weight="bold" font-size="14.00" fill="#000000">output →</text>
<text text-anchor="start" x="1178" y="-1471.8" font-family="sans" font-size="10.00" fill="#000000"> </text>
<text text-anchor="start" x="635" y="-1452" font-family="monospace" font-size="10.00" fill="#000000">results/metadmg/lca/{sample}_{library}_{read_type_map,pe|se|singleton|collapsed}.bdamage.gz</text>
<text text-anchor="start" x="635" y="-1434" font-family="monospace" font-size="10.00" fill="#000000">results/metadmg/lca/{sample}_{library}_{read_type_map,pe|se|singleton|collapsed}.lca.gz</text>
<text text-anchor="start" x="635" y="-1416" font-family="monospace" font-size="10.00" fill="#000000">stats/metadmg/lca/{sample}_{library}_{read_type_map,pe|se|singleton|collapsed}.rlens.gz</text>
<text text-anchor="start" x="635" y="-1398" font-family="monospace" font-size="10.00" fill="#000000">stats/metadmg/lca/{sample}_{library}_{read_type_map,pe|se|singleton|collapsed}.stat.gz</text>
<polygon fill="#57d957" stroke="#57d957" points="629,-1580 629,-1580 1189,-1580 1189,-1580 629,-1580"/>
<polygon fill="#57d957" stroke="#57d957" points="629,-1486 629,-1486 1189,-1486 1189,-1486 629,-1486"/>
<polygon fill="none" stroke="#57d957" stroke-width="2" points="628.5,-1389 628.5,-1609 1187.5,-1609 1187.5,-1389 628.5,-1389"/>
</g>
<!-- 4&#45;&gt;11 -->
<g id="edge18" class="edge">
<title>4&#45;&gt;11</title>
<path fill="none" stroke="#c0c0c0" stroke-width="2" d="M908,-1645.9034C908,-1637.7674 908,-1629.1553 908,-1620.3432"/>
<polygon fill="#c0c0c0" stroke="#c0c0c0" stroke-width="2" points="911.5001,-1620.3238 908,-1610.3239 904.5001,-1620.3239 911.5001,-1620.3238"/>
</g>
<!-- 14 -->
<g id="node15" class="node">
<title>14</title>
<text text-anchor="start" x="1187" y="-1118.6" font-family="sans" font-weight="bold" font-size="18.00" fill="#000000">metadmg_damage</text>
<text text-anchor="start" x="983" y="-1094.8" font-family="sans" font-size="10.00" fill="#000000"> </text>
<text text-anchor="start" x="987" y="-1094.8" font-family="sans" font-weight="bold" font-size="14.00" fill="#000000">↪ input</text>
<text text-anchor="start" x="1040" y="-1094.8" font-family="sans" font-size="10.00" fill="#000000"> </text>
<text text-anchor="start" x="983" y="-1075" font-family="monospace" font-size="10.00" fill="#000000">&lt;function &lt;lambda&gt; at 0x7fb9516cbba0&gt;</text>
<text text-anchor="start" x="1479" y="-1054.8" font-family="sans" font-size="10.00" fill="#000000"> </text>
<text text-anchor="start" x="1483" y="-1054.8" font-family="sans" font-weight="bold" font-size="14.00" fill="#000000">output →</text>
<text text-anchor="start" x="1544" y="-1054.8" font-family="sans" font-size="10.00" fill="#000000"> </text>
<text text-anchor="start" x="983" y="-1035" font-family="monospace" font-size="10.00" fill="#000000">results/metadmg/damage/{sample}_{library}_{read_type_map,pe|se|singleton|collapsed}.bdamage.gz</text>
<text text-anchor="start" x="983" y="-1017" font-family="monospace" font-size="10.00" fill="#000000">results/metadmg/damage/{sample}_{library}_{read_type_map,pe|se|singleton|collapsed}.res.gz</text>
<text text-anchor="start" x="983" y="-999" font-family="monospace" font-size="10.00" fill="#000000">stats/metadmg/damage/{sample}_{library}_{read_type_map,pe|se|singleton|collapsed}.rlens.gz</text>
<text text-anchor="start" x="983" y="-981" font-family="monospace" font-size="10.00" fill="#000000">stats/metadmg/damage/{sample}_{library}_{read_type_map,pe|se|singleton|collapsed}.stat.gz</text>
<polygon fill="#86d957" stroke="#86d957" points="977,-1109 977,-1109 1555,-1109 1555,-1109 977,-1109"/>
<polygon fill="#86d957" stroke="#86d957" points="977,-1069 977,-1069 1555,-1069 1555,-1069 977,-1069"/>
<polygon fill="none" stroke="#86d957" stroke-width="2" points="976.5,-972 976.5,-1138 1553.5,-1138 1553.5,-972 976.5,-972"/>
</g>
<!-- 4&#45;&gt;14 -->
<g id="edge22" class="edge">
<title>4&#45;&gt;14</title>
<path fill="none" stroke="#c0c0c0" stroke-width="2" d="M1135.7528,-1645.9228C1164.3409,-1634.908 1187.3249,-1622.7839 1198,-1610 1306.3067,-1480.2984 1298.2846,-1270.3097 1282.0684,-1149.2319"/>
<polygon fill="#c0c0c0" stroke="#c0c0c0" stroke-width="2" points="1285.5227,-1148.6603 1280.6837,-1139.2351 1278.5889,-1149.6207 1285.5227,-1148.6603"/>
</g>
<!-- 5 -->
<g id="node6" class="node">
<title>5</title>
<text text-anchor="start" x="832" y="-1889.6" font-family="sans" font-weight="bold" font-size="18.00" fill="#000000">shard_sort_query</text>
<text text-anchor="start" x="551" y="-1865.8" font-family="sans" font-size="10.00" fill="#000000"> </text>
<text text-anchor="start" x="555" y="-1865.8" font-family="sans" font-weight="bold" font-size="14.00" fill="#000000">↪ input</text>
<text text-anchor="start" x="608" y="-1865.8" font-family="sans" font-size="10.00" fill="#000000"> </text>
<text text-anchor="start" x="551" y="-1846" font-family="monospace" font-size="10.00" fill="#000000">temp/shards/unicorn/{sample}_{library}_{read_type_map}.{ref}.{n_shard}&#45;of&#45;{tot_shards}.bam</text>
<text text-anchor="start" x="1197" y="-1825.8" font-family="sans" font-size="10.00" fill="#000000"> </text>
<text text-anchor="start" x="1201" y="-1825.8" font-family="sans" font-weight="bold" font-size="14.00" fill="#000000">output →</text>
<text text-anchor="start" x="1262" y="-1825.8" font-family="sans" font-size="10.00" fill="#000000"> </text>
<text text-anchor="start" x="551" y="-1806" font-family="monospace" font-size="10.00" fill="#000000">temp/shards/sort_query/{sample}_{library}_{read_type_map,pe|se|singleton|collapsed}.{ref}.{n_shard}&#45;of&#45;{tot_shards}.bam</text>
<polygon fill="#5786d9" stroke="#5786d9" points="545,-1880 545,-1880 1273,-1880 1273,-1880 545,-1880"/>
<polygon fill="#5786d9" stroke="#5786d9" points="545,-1840 545,-1840 1273,-1840 1273,-1840 545,-1840"/>
<polygon fill="none" stroke="#5786d9" stroke-width="2" points="544.5,-1797 544.5,-1909 1271.5,-1909 1271.5,-1797 544.5,-1797"/>
</g>
<!-- 5&#45;&gt;4 -->
<g id="edge10" class="edge">
<title>5&#45;&gt;4</title>
<path fill="none" stroke="#c0c0c0" stroke-width="2" d="M908,-1795.8635C908,-1787.6231 908,-1779.0771 908,-1770.6558"/>
<polygon fill="#c0c0c0" stroke="#c0c0c0" stroke-width="2" points="911.5001,-1770.4745 908,-1760.4745 904.5001,-1770.4745 911.5001,-1770.4745"/>
</g>
<!-- 6 -->
<g id="node7" class="node">
<title>6</title>
<text text-anchor="start" x="845.5" y="-2057.6" font-family="sans" font-weight="bold" font-size="18.00" fill="#000000">shard_unicorn</text>
<text text-anchor="start" x="557" y="-2033.8" font-family="sans" font-size="10.00" fill="#000000"> </text>
<text text-anchor="start" x="561" y="-2033.8" font-family="sans" font-weight="bold" font-size="14.00" fill="#000000">↪ input</text>
<text text-anchor="start" x="614" y="-2033.8" font-family="sans" font-size="10.00" fill="#000000"> </text>
<text text-anchor="start" x="557" y="-2014" font-family="monospace" font-size="10.00" fill="#000000">temp/shards/saturated_reads/remove/{sample}_{library}_{read_type_map}.{ref}.{n_shard}&#45;of&#45;{tot_shards}.bam</text>
<text text-anchor="start" x="1191" y="-1993.8" font-family="sans" font-size="10.00" fill="#000000"> </text>
<text text-anchor="start" x="1195" y="-1993.8" font-family="sans" font-weight="bold" font-size="14.00" fill="#000000">output →</text>
<text text-anchor="start" x="1256" y="-1993.8" font-family="sans" font-size="10.00" fill="#000000"> </text>
<text text-anchor="start" x="557" y="-1974" font-family="monospace" font-size="10.00" fill="#000000">stats/shards/unicorn/{sample}_{library}_{read_type_map,pe|se|singleton|collapsed}.{ref}.{n_shard}&#45;of&#45;{tot_shards}.tsv</text>
<text text-anchor="start" x="557" y="-1956" font-family="monospace" font-size="10.00" fill="#000000">temp/shards/unicorn/{sample}_{library}_{read_type_map,pe|se|singleton|collapsed}.{ref}.{n_shard}&#45;of&#45;{tot_shards}.bam</text>
<polygon fill="#576ed9" stroke="#576ed9" points="551,-2048 551,-2048 1267,-2048 1267,-2048 551,-2048"/>
<polygon fill="#576ed9" stroke="#576ed9" points="551,-2008 551,-2008 1267,-2008 1267,-2008 551,-2008"/>
<polygon fill="none" stroke="#576ed9" stroke-width="2" points="550.5,-1947 550.5,-2077 1265.5,-2077 1265.5,-1947 550.5,-1947"/>
</g>
<!-- 6&#45;&gt;5 -->
<g id="edge11" class="edge">
<title>6&#45;&gt;5</title>
<path fill="none" stroke="#c0c0c0" stroke-width="2" d="M908,-1945.951C908,-1937.5194 908,-1928.8799 908,-1920.4269"/>
<polygon fill="#c0c0c0" stroke="#c0c0c0" stroke-width="2" points="911.5001,-1920.235 908,-1910.235 904.5001,-1920.2351 911.5001,-1920.235"/>
</g>
<!-- 7&#45;&gt;6 -->
<g id="edge12" class="edge">
<title>7&#45;&gt;6</title>
<path fill="none" stroke="#c0c0c0" stroke-width="2" d="M908,-2113.602C908,-2105.3209 908,-2096.801 908,-2088.3839"/>
<polygon fill="#c0c0c0" stroke="#c0c0c0" stroke-width="2" points="911.5001,-2088.1908 908,-2078.1908 904.5001,-2088.1908 911.5001,-2088.1908"/>
</g>
<!-- 8 -->
<g id="node9" class="node">
<title>8</title>
<text text-anchor="start" x="982" y="-2393.6" font-family="sans" font-weight="bold" font-size="18.00" fill="#000000">shard_saturated_reads_filter</text>
<text text-anchor="start" x="807" y="-2369.8" font-family="sans" font-size="10.00" fill="#000000"> </text>
<text text-anchor="start" x="811" y="-2369.8" font-family="sans" font-weight="bold" font-size="14.00" fill="#000000">↪ input</text>
<text text-anchor="start" x="864" y="-2369.8" font-family="sans" font-size="10.00" fill="#000000"> </text>
<text text-anchor="start" x="807" y="-2350" font-family="monospace" font-size="10.00" fill="#000000">temp/shards/count_alns/{sample}_{library}_collapsed.test.1&#45;of&#45;2.tsv</text>
<text text-anchor="start" x="807" y="-2332" font-family="monospace" font-size="10.00" fill="#000000">temp/shards/count_alns/{sample}_{library}_collapsed.test.2&#45;of&#45;2.tsv</text>
<text text-anchor="start" x="1333" y="-2311.8" font-family="sans" font-size="10.00" fill="#000000"> </text>
<text text-anchor="start" x="1337" y="-2311.8" font-family="sans" font-weight="bold" font-size="14.00" fill="#000000">output →</text>
<text text-anchor="start" x="1398" y="-2311.8" font-family="sans" font-size="10.00" fill="#000000"> </text>
<text text-anchor="start" x="807" y="-2292" font-family="monospace" font-size="10.00" fill="#000000">temp/shards/saturated_reads/filter/{sample}_{library}_{read_type_map,pe|se|singleton|collapsed}.tsv</text>
<polygon fill="#57b5d9" stroke="#57b5d9" points="801,-2384 801,-2384 1409,-2384 1409,-2384 801,-2384"/>
<polygon fill="#57b5d9" stroke="#57b5d9" points="801,-2326 801,-2326 1409,-2326 1409,-2326 801,-2326"/>
<polygon fill="none" stroke="#57b5d9" stroke-width="2" points="800.5,-2283 800.5,-2413 1407.5,-2413 1407.5,-2283 800.5,-2283"/>
</g>
<!-- 8&#45;&gt;7 -->
<g id="edge13" class="edge">
<title>8&#45;&gt;7</title>
<path fill="none" stroke="#c0c0c0" stroke-width="2" d="M1026.817,-2281.8431C1015.6759,-2272.2936 1004.1586,-2262.4216 992.8775,-2252.7521"/>
<polygon fill="#c0c0c0" stroke="#c0c0c0" stroke-width="2" points="994.9831,-2249.9472 985.1127,-2246.0966 990.4275,-2255.262 994.9831,-2249.9472"/>
</g>
<!-- 13 -->
<g id="node14" class="node">
<title>13</title>
<text text-anchor="start" x="1448" y="-2057.6" font-family="sans" font-weight="bold" font-size="18.00" fill="#000000">shard_saturated_reads_extract</text>
<text text-anchor="start" x="1300" y="-2033.8" font-family="sans" font-size="10.00" fill="#000000"> </text>
<text text-anchor="start" x="1304" y="-2033.8" font-family="sans" font-weight="bold" font-size="14.00" fill="#000000">↪ input</text>
<text text-anchor="start" x="1357" y="-2033.8" font-family="sans" font-size="10.00" fill="#000000"> </text>
<text text-anchor="start" x="1300" y="-2014" font-family="monospace" font-size="10.00" fill="#000000">&lt;input function&gt;</text>
<text text-anchor="start" x="1300" y="-1996" font-family="monospace" font-size="10.00" fill="#000000">temp/shards/saturated_reads/filter/{sample}_{library}_{read_type_map}.tsv</text>
<text text-anchor="start" x="1790" y="-1975.8" font-family="sans" font-size="10.00" fill="#000000"> </text>
<text text-anchor="start" x="1794" y="-1975.8" font-family="sans" font-weight="bold" font-size="14.00" fill="#000000">output →</text>
<text text-anchor="start" x="1855" y="-1975.8" font-family="sans" font-size="10.00" fill="#000000"> </text>
<text text-anchor="start" x="1300" y="-1956" font-family="monospace" font-size="10.00" fill="#000000">results/reads/saturated/{sample}_{library}_{read_type_map,pe|se|singleton|collapsed}.fastq.gz</text>
<polygon fill="#57cdd9" stroke="#57cdd9" points="1294,-2048 1294,-2048 1866,-2048 1866,-2048 1294,-2048"/>
<polygon fill="#57cdd9" stroke="#57cdd9" points="1294,-1990 1294,-1990 1866,-1990 1866,-1990 1294,-1990"/>
<polygon fill="none" stroke="#57cdd9" stroke-width="2" points="1293.5,-1947 1293.5,-2077 1864.5,-2077 1864.5,-1947 1293.5,-1947"/>
</g>
<!-- 8&#45;&gt;13 -->
<g id="edge21" class="edge">
<title>8&#45;&gt;13</title>
<path fill="none" stroke="#c0c0c0" stroke-width="2" d="M1256.6413,-2281.9112C1277.7924,-2270.8523 1298.8209,-2258.7817 1318,-2246 1387.9884,-2199.3571 1458.4765,-2134.8771 1508.527,-2085.4127"/>
<polygon fill="#c0c0c0" stroke="#c0c0c0" stroke-width="2" points="1511.1324,-2087.758 1515.7607,-2078.2276 1506.1993,-2082.7916 1511.1324,-2087.758"/>
</g>
<!-- 9&#45;&gt;8 -->
<g id="edge15" class="edge">
<title>9&#45;&gt;8</title>
<path fill="none" stroke="#c0c0c0" stroke-width="2" d="M1104,-2449.5974C1104,-2441.4394 1104,-2432.9443 1104,-2424.4945"/>
<polygon fill="#c0c0c0" stroke="#c0c0c0" stroke-width="2" points="1107.5001,-2424.2358 1104,-2414.2358 1100.5001,-2424.2359 1107.5001,-2424.2358"/>
</g>
<!-- 10 -->
<g id="node11" class="node">
<title>10</title>
<text text-anchor="start" x="844.5" y="-1331.6" font-family="sans" font-weight="bold" font-size="18.00" fill="#000000">metadmg_dfit</text>
<text text-anchor="start" x="621" y="-1307.8" font-family="sans" font-size="10.00" fill="#000000"> </text>
<text text-anchor="start" x="625" y="-1307.8" font-family="sans" font-weight="bold" font-size="14.00" fill="#000000">↪ input</text>
<text text-anchor="start" x="678" y="-1307.8" font-family="sans" font-size="10.00" fill="#000000"> </text>
<text text-anchor="start" x="621" y="-1288" font-family="monospace" font-size="10.00" fill="#000000">data/taxdump/names.dmp</text>
<text text-anchor="start" x="621" y="-1270" font-family="monospace" font-size="10.00" fill="#000000">data/taxdump/nodes.dmp</text>
<text text-anchor="start" x="621" y="-1252" font-family="monospace" font-size="10.00" fill="#000000">results/metadmg/lca/{sample}_{library}_{read_type_map}.bdamage.gz</text>
<text text-anchor="start" x="1117" y="-1231.8" font-family="sans" font-size="10.00" fill="#000000"> </text>
<text text-anchor="start" x="1121" y="-1231.8" font-family="sans" font-weight="bold" font-size="14.00" fill="#000000">output →</text>
<text text-anchor="start" x="1182" y="-1231.8" font-family="sans" font-size="10.00" fill="#000000"> </text>
<text text-anchor="start" x="621" y="-1212" font-family="monospace" font-size="10.00" fill="#000000">results/metadmg/dfit/{sample}_{library}_{read_type_map,pe|se|singleton|collapsed}.boot.stat.gz</text>
<text text-anchor="start" x="621" y="-1194" font-family="monospace" font-size="10.00" fill="#000000">results/metadmg/dfit/{sample}_{library}_{read_type_map,pe|se|singleton|collapsed}.dfit.gz</text>
<polygon fill="#6ed957" stroke="#6ed957" points="615,-1322 615,-1322 1193,-1322 1193,-1322 615,-1322"/>
<polygon fill="#6ed957" stroke="#6ed957" points="615,-1246 615,-1246 1193,-1246 1193,-1246 615,-1246"/>
<polygon fill="none" stroke="#6ed957" stroke-width="2" points="614.5,-1185 614.5,-1351 1191.5,-1351 1191.5,-1185 614.5,-1185"/>
</g>
<!-- 10&#45;&gt;1 -->
<g id="edge6" class="edge">
<title>10&#45;&gt;1</title>
<path fill="none" stroke="#c0c0c0" stroke-width="2" d="M613.133,-1186.0036C610.0754,-1185.3234 607.0303,-1184.6552 604,-1184 552.3619,-1172.8347 404.1896,-1187.4063 369,-1148 353.3853,-1130.5142 347.7424,-1036.7436 346.3582,-936.163"/>
<polygon fill="#c0c0c0" stroke="#c0c0c0" stroke-width="2" points="349.8572,-936.0509 346.2339,-926.0949 342.8577,-936.1374 349.8572,-936.0509"/>
</g>
<!-- 12 -->
<g id="node13" class="node">
<title>12</title>
<text text-anchor="start" x="581" y="-1127.6" font-family="sans" font-weight="bold" font-size="18.00" fill="#000000">metadmg_aggregate</text>
<text text-anchor="start" x="386" y="-1103.8" font-family="sans" font-size="10.00" fill="#000000"> </text>
<text text-anchor="start" x="390" y="-1103.8" font-family="sans" font-weight="bold" font-size="14.00" fill="#000000">↪ input</text>
<text text-anchor="start" x="443" y="-1103.8" font-family="sans" font-size="10.00" fill="#000000"> </text>
<text text-anchor="start" x="386" y="-1084" font-family="monospace" font-size="10.00" fill="#000000">data/taxdump/names.dmp</text>
<text text-anchor="start" x="386" y="-1066" font-family="monospace" font-size="10.00" fill="#000000">data/taxdump/nodes.dmp</text>
<text text-anchor="start" x="386" y="-1048" font-family="monospace" font-size="10.00" fill="#000000">results/metadmg/dfit/{sample}_{library}_{read_type_map}.dfit.gz</text>
<text text-anchor="start" x="386" y="-1030" font-family="monospace" font-size="10.00" fill="#000000">results/metadmg/lca/{sample}_{library}_{read_type_map}.bdamage.gz</text>
<text text-anchor="start" x="386" y="-1012" font-family="monospace" font-size="10.00" fill="#000000">stats/metadmg/lca/{sample}_{library}_{read_type_map}.stat.gz</text>
<text text-anchor="start" x="882" y="-991.8" font-family="sans" font-size="10.00" fill="#000000"> </text>
<text text-anchor="start" x="886" y="-991.8" font-family="sans" font-weight="bold" font-size="14.00" fill="#000000">output →</text>
<text text-anchor="start" x="947" y="-991.8" font-family="sans" font-size="10.00" fill="#000000"> </text>
<text text-anchor="start" x="386" y="-972" font-family="monospace" font-size="10.00" fill="#000000">results/metadmg/aggregate/{sample}_{library}_{read_type_map,pe|se|singleton|collapsed}.stat.gz</text>
<polygon fill="#9ed957" stroke="#9ed957" points="380,-1118 380,-1118 958,-1118 958,-1118 380,-1118"/>
<polygon fill="#9ed957" stroke="#9ed957" points="380,-1006 380,-1006 958,-1006 958,-1006 380,-1006"/>
<polygon fill="none" stroke="#9ed957" stroke-width="2" points="379.5,-963 379.5,-1147 956.5,-1147 956.5,-963 379.5,-963"/>
</g>
<!-- 10&#45;&gt;12 -->
<g id="edge20" class="edge">
<title>10&#45;&gt;12</title>
<path fill="none" stroke="#c0c0c0" stroke-width="2" d="M810.1218,-1183.8168C799.6949,-1174.366 788.9971,-1164.6698 778.3773,-1155.0441"/>
<polygon fill="#c0c0c0" stroke="#c0c0c0" stroke-width="2" points="780.4231,-1152.1746 770.6631,-1148.0521 775.722,-1157.3612 780.4231,-1152.1746"/>
</g>
<!-- 11&#45;&gt;10 -->
<g id="edge17" class="edge">
<title>11&#45;&gt;10</title>
<path fill="none" stroke="#c0c0c0" stroke-width="2" d="M905.5952,-1387.898C905.4102,-1379.3521 905.2245,-1370.7741 905.0422,-1362.3514"/>
<polygon fill="#c0c0c0" stroke="#c0c0c0" stroke-width="2" points="908.5375,-1362.0892 904.8218,-1352.1673 901.5391,-1362.2407 908.5375,-1362.0892"/>
</g>
<!-- 11&#45;&gt;12 -->
<g id="edge19" class="edge">
<title>11&#45;&gt;12</title>
<path fill="none" stroke="#c0c0c0" stroke-width="2" d="M1173.7331,-1387.72C1184.4163,-1376.8621 1193.9746,-1364.9854 1202,-1352 1241.2546,-1288.4847 1250.6359,-1240.6539 1202,-1184 1169.3345,-1145.9494 1033.3267,-1158.4018 967.7209,-1147.7635"/>
<polygon fill="#c0c0c0" stroke="#c0c0c0" stroke-width="2" points="968.3057,-1144.3118 957.8226,-1145.8465 966.9748,-1151.1841 968.3057,-1144.3118"/>
</g>
<!-- 12&#45;&gt;0 -->
<g id="edge4" class="edge">
<title>12&#45;&gt;0</title>
<path fill="none" stroke="#c0c0c0" stroke-width="2" d="M693.3574,-961.8808C731.4531,-821.9833 804.2769,-554.5545 853.9809,-372.0282"/>
<polygon fill="#c0c0c0" stroke="#c0c0c0" stroke-width="2" points="857.3759,-372.8816 856.6264,-362.3133 850.6218,-371.0423 857.3759,-372.8816"/>
</g>
<!-- 12&#45;&gt;1 -->
<g id="edge8" class="edge">
<title>12&#45;&gt;1</title>
<path fill="none" stroke="#c0c0c0" stroke-width="2" d="M592.6384,-961.8645C580.2152,-946.5112 566.8396,-929.981 552.9801,-912.8528"/>
<polygon fill="#c0c0c0" stroke="#c0c0c0" stroke-width="2" points="555.591,-910.5153 546.5799,-904.943 550.1493,-914.9185 555.591,-910.5153"/>
</g>
<!-- 13&#45;&gt;0 -->
<g id="edge1" class="edge">
<title>13&#45;&gt;0</title>
<path fill="none" stroke="#c0c0c0" stroke-width="2" d="M1580.3486,-1945.9996C1581.5099,-1883.4389 1583,-1786.8286 1583,-1703 1583,-1703 1583,-1703 1583,-1055 1583,-739.8814 1304.5433,-469.4709 1104.7976,-316.0341"/>
<polygon fill="#c0c0c0" stroke="#c0c0c0" stroke-width="2" points="1106.9053,-313.2398 1096.835,-309.9473 1102.6541,-318.8011 1106.9053,-313.2398"/>
</g>
<!-- 14&#45;&gt;0 -->
<g id="edge2" class="edge">
<title>14&#45;&gt;0</title>
<path fill="none" stroke="#c0c0c0" stroke-width="2" d="M1230.4146,-970.8005C1174.0336,-833.5386 1060.9268,-558.1755 984.3249,-371.6852"/>
<polygon fill="#c0c0c0" stroke="#c0c0c0" stroke-width="2" points="987.5142,-370.2376 980.4771,-362.3174 981.0391,-372.8974 987.5142,-370.2376"/>
</g>
</g>
</svg>
