<?xml version="1.0" encoding="UTF-8" standalone="no"?>
<!DOCTYPE svg PUBLIC "-//W3C//DTD SVG 1.1//EN"
 "http://www.w3.org/Graphics/SVG/1.1/DTD/svg11.dtd">
<!-- Generated by graphviz version 2.40.1 (0)
 -->
<!-- Title: snakemake_dag Pages: 1 -->
<svg width="2525pt" height="2758pt"
 viewBox="0.00 0.00 2524.50 2758.00" xmlns="http://www.w3.org/2000/svg" xmlns:xlink="http://www.w3.org/1999/xlink">
<g id="graph0" class="graph" transform="scale(1 1) rotate(0) translate(4 2754)">
<title>snakemake_dag</title>
<polygon fill="#ffffff" stroke="transparent" points="-4,4 -4,-2754 2520.5,-2754 2520.5,4 -4,4"/>
<!-- 0 -->
<g id="node1" class="node">
<title>0</title>
<text text-anchor="start" x="1193" y="-287.6" font-family="sans" font-weight="bold" font-size="18.00" fill="#000000">all</text>
<text text-anchor="start" x="1020" y="-263.8" font-family="sans" font-size="10.00" fill="#000000"> </text>
<text text-anchor="start" x="1024" y="-263.8" font-family="sans" font-weight="bold" font-size="14.00" fill="#000000">↪ input</text>
<text text-anchor="start" x="1077" y="-263.8" font-family="sans" font-size="10.00" fill="#000000"> </text>
<text text-anchor="start" x="1020" y="-244" font-family="monospace" font-size="10.00" fill="#000000">reports/multiqc.html</text>
<text text-anchor="start" x="1020" y="-226" font-family="monospace" font-size="10.00" fill="#000000">results/metadmg/aggregate/HD827sonic_1_lib1_collapsed.stat.gz</text>
<text text-anchor="start" x="1020" y="-208" font-family="monospace" font-size="10.00" fill="#000000">results/metadmg/aggregate/HD827sonic_1_lib1_collapsed.stat.gz</text>
<text text-anchor="start" x="1020" y="-190" font-family="monospace" font-size="10.00" fill="#000000">results/metadmg/aggregate/HD827sonic_2_lib1_collapsed.stat.gz</text>
<text text-anchor="start" x="1020" y="-172" font-family="monospace" font-size="10.00" fill="#000000">results/metadmg/aggregate/HD827sonic_2_lib2_collapsed.stat.gz</text>
<text text-anchor="start" x="1020" y="-154" font-family="monospace" font-size="10.00" fill="#000000">results/reads/saturated/HD827sonic_1_lib1_collapsed.fastq.gz</text>
<text text-anchor="start" x="1020" y="-136" font-family="monospace" font-size="10.00" fill="#000000">results/reads/saturated/HD827sonic_1_lib1_collapsed.fastq.gz</text>
<text text-anchor="start" x="1020" y="-118" font-family="monospace" font-size="10.00" fill="#000000">results/reads/saturated/HD827sonic_2_lib1_collapsed.fastq.gz</text>
<text text-anchor="start" x="1020" y="-100" font-family="monospace" font-size="10.00" fill="#000000">results/reads/saturated/HD827sonic_2_lib2_collapsed.fastq.gz</text>
<text text-anchor="start" x="1020" y="-82" font-family="monospace" font-size="10.00" fill="#000000">stats/metadmg/damage/HD827sonic_1_lib1_collapsed.stat.gz</text>
<text text-anchor="start" x="1020" y="-64" font-family="monospace" font-size="10.00" fill="#000000">stats/metadmg/damage/HD827sonic_1_lib1_collapsed.stat.gz</text>
<text text-anchor="start" x="1020" y="-46" font-family="monospace" font-size="10.00" fill="#000000">stats/metadmg/damage/HD827sonic_2_lib1_collapsed.stat.gz</text>
<text text-anchor="start" x="1020" y="-28" font-family="monospace" font-size="10.00" fill="#000000">stats/metadmg/damage/HD827sonic_2_lib2_collapsed.stat.gz</text>
<text text-anchor="start" x="1380" y="-10" font-family="sans" font-size="10.00" fill="#000000"> &#160;</text>
<polygon fill="#b5d957" stroke="#b5d957" points="1014,-278 1014,-278 1394,-278 1394,-278 1014,-278"/>
<polygon fill="#b5d957" stroke="#b5d957" points="1014,-22 1014,-22 1394,-22 1394,-22 1014,-22"/>
<polygon fill="none" stroke="#b5d957" stroke-width="2" points="1013.5,-1 1013.5,-307 1392.5,-307 1392.5,-1 1013.5,-1"/>
</g>
<!-- 1 -->
<g id="node2" class="node">
<title>1</title>
<text text-anchor="start" x="426" y="-887.6" font-family="sans" font-weight="bold" font-size="18.00" fill="#000000">multiqc</text>
<text text-anchor="start" x="221" y="-863.8" font-family="sans" font-size="10.00" fill="#000000"> </text>
<text text-anchor="start" x="225" y="-863.8" font-family="sans" font-weight="bold" font-size="14.00" fill="#000000">↪ input</text>
<text text-anchor="start" x="278" y="-863.8" font-family="sans" font-size="10.00" fill="#000000"> </text>
<text text-anchor="start" x="221" y="-844" font-family="monospace" font-size="10.00" fill="#000000">logs/shards/bowtie2/HD827sonic_1_lib1_collapsed.refseq_mitochondrion.1&#45;of&#45;1.log</text>
<text text-anchor="start" x="221" y="-826" font-family="monospace" font-size="10.00" fill="#000000">logs/shards/bowtie2/HD827sonic_1_lib1_collapsed.wgs_eukaryota.1&#45;of&#45;2.log</text>
<text text-anchor="start" x="221" y="-808" font-family="monospace" font-size="10.00" fill="#000000">logs/shards/bowtie2/HD827sonic_1_lib1_collapsed.wgs_eukaryota.2&#45;of&#45;2.log</text>
<text text-anchor="start" x="221" y="-790" font-family="monospace" font-size="10.00" fill="#000000">logs/shards/bowtie2/HD827sonic_2_lib1_collapsed.refseq_mitochondrion.1&#45;of&#45;1.log</text>
<text text-anchor="start" x="221" y="-772" font-family="monospace" font-size="10.00" fill="#000000">logs/shards/bowtie2/HD827sonic_2_lib1_collapsed.wgs_eukaryota.1&#45;of&#45;2.log</text>
<text text-anchor="start" x="221" y="-754" font-family="monospace" font-size="10.00" fill="#000000">logs/shards/bowtie2/HD827sonic_2_lib1_collapsed.wgs_eukaryota.2&#45;of&#45;2.log</text>
<text text-anchor="start" x="221" y="-736" font-family="monospace" font-size="10.00" fill="#000000">logs/shards/bowtie2/HD827sonic_2_lib2_collapsed.refseq_mitochondrion.1&#45;of&#45;1.log</text>
<text text-anchor="start" x="221" y="-718" font-family="monospace" font-size="10.00" fill="#000000">logs/shards/bowtie2/HD827sonic_2_lib2_collapsed.wgs_eukaryota.1&#45;of&#45;2.log</text>
<text text-anchor="start" x="221" y="-700" font-family="monospace" font-size="10.00" fill="#000000">logs/shards/bowtie2/HD827sonic_2_lib2_collapsed.wgs_eukaryota.2&#45;of&#45;2.log</text>
<text text-anchor="start" x="221" y="-682" font-family="monospace" font-size="10.00" fill="#000000">results/metadmg/aggregate/HD827sonic_1_lib1_collapsed.stat.gz</text>
<text text-anchor="start" x="221" y="-664" font-family="monospace" font-size="10.00" fill="#000000">results/metadmg/aggregate/HD827sonic_1_lib1_collapsed.stat.gz</text>
<text text-anchor="start" x="221" y="-646" font-family="monospace" font-size="10.00" fill="#000000">results/metadmg/aggregate/HD827sonic_2_lib1_collapsed.stat.gz</text>
<text text-anchor="start" x="221" y="-628" font-family="monospace" font-size="10.00" fill="#000000">results/metadmg/aggregate/HD827sonic_2_lib2_collapsed.stat.gz</text>
<text text-anchor="start" x="221" y="-610" font-family="monospace" font-size="10.00" fill="#000000">results/metadmg/dfit/HD827sonic_1_lib1_collapsed.dfit.gz</text>
<text text-anchor="start" x="221" y="-592" font-family="monospace" font-size="10.00" fill="#000000">results/metadmg/dfit/HD827sonic_1_lib1_collapsed.dfit.gz</text>
<text text-anchor="start" x="221" y="-574" font-family="monospace" font-size="10.00" fill="#000000">results/metadmg/dfit/HD827sonic_2_lib1_collapsed.dfit.gz</text>
<text text-anchor="start" x="221" y="-556" font-family="monospace" font-size="10.00" fill="#000000">results/metadmg/dfit/HD827sonic_2_lib2_collapsed.dfit.gz</text>
<text text-anchor="start" x="221" y="-538" font-family="monospace" font-size="10.00" fill="#000000">stats/aligns/samtools_stats/HD827sonic_1_lib1_collapsed.txt</text>
<text text-anchor="start" x="221" y="-520" font-family="monospace" font-size="10.00" fill="#000000">stats/aligns/samtools_stats/HD827sonic_1_lib1_collapsed.txt</text>
<text text-anchor="start" x="221" y="-502" font-family="monospace" font-size="10.00" fill="#000000">stats/aligns/samtools_stats/HD827sonic_1_lib1_collapsed.txt</text>
<text text-anchor="start" x="221" y="-484" font-family="monospace" font-size="10.00" fill="#000000">stats/aligns/samtools_stats/HD827sonic_1_lib1_collapsed.txt</text>
<text text-anchor="start" x="221" y="-466" font-family="monospace" font-size="10.00" fill="#000000">stats/aligns/samtools_stats/HD827sonic_2_lib1_collapsed.txt</text>
<text text-anchor="start" x="221" y="-448" font-family="monospace" font-size="10.00" fill="#000000">stats/aligns/samtools_stats/HD827sonic_2_lib1_collapsed.txt</text>
<text text-anchor="start" x="221" y="-430" font-family="monospace" font-size="10.00" fill="#000000">stats/aligns/samtools_stats/HD827sonic_2_lib2_collapsed.txt</text>
<text text-anchor="start" x="221" y="-412" font-family="monospace" font-size="10.00" fill="#000000">stats/aligns/samtools_stats/HD827sonic_2_lib2_collapsed.txt</text>
<text text-anchor="start" x="627" y="-391.8" font-family="sans" font-size="10.00" fill="#000000"> </text>
<text text-anchor="start" x="631" y="-391.8" font-family="sans" font-weight="bold" font-size="14.00" fill="#000000">output →</text>
<text text-anchor="start" x="692" y="-391.8" font-family="sans" font-size="10.00" fill="#000000"> </text>
<text text-anchor="start" x="221" y="-372" font-family="monospace" font-size="10.00" fill="#000000">reports/multiqc.html</text>
<text text-anchor="start" x="221" y="-354" font-family="monospace" font-size="10.00" fill="#000000">reports/multiqc_data.zip</text>
<polygon fill="#57d9b5" stroke="#57d9b5" points="215,-878 215,-878 703,-878 703,-878 215,-878"/>
<polygon fill="#57d9b5" stroke="#57d9b5" points="215,-406 215,-406 703,-406 703,-406 215,-406"/>
<polygon fill="none" stroke="#57d9b5" stroke-width="2" points="214.5,-345 214.5,-907 701.5,-907 701.5,-345 214.5,-345"/>
</g>
<!-- 1&#45;&gt;0 -->
<g id="edge3" class="edge">
<title>1&#45;&gt;0</title>
<path fill="none" stroke="#c0c0c0" stroke-width="2" d="M702.7147,-470.9593C800.3014,-409.1325 911.2025,-338.8704 1003.748,-280.2375"/>
<polygon fill="#c0c0c0" stroke="#c0c0c0" stroke-width="2" points="1005.7865,-283.0893 1012.3607,-274.7809 1002.0402,-277.1762 1005.7865,-283.0893"/>
</g>
<!-- 2 -->
<g id="node3" class="node">
<title>2</title>
<text text-anchor="start" x="944" y="-2729.6" font-family="sans" font-weight="bold" font-size="18.00" fill="#000000">bowtie2</text>
<text text-anchor="start" x="522" y="-2705.8" font-family="sans" font-size="10.00" fill="#000000"> </text>
<text text-anchor="start" x="526" y="-2705.8" font-family="sans" font-weight="bold" font-size="14.00" fill="#000000">↪ input</text>
<text text-anchor="start" x="579" y="-2705.8" font-family="sans" font-size="10.00" fill="#000000"> </text>
<text text-anchor="start" x="522" y="-2686" font-family="monospace" font-size="10.00" fill="#000000">&lt;input function&gt;</text>
<text text-anchor="start" x="522" y="-2668" font-family="monospace" font-size="10.00" fill="#000000">&lt;input function&gt;</text>
<text text-anchor="start" x="1366" y="-2647.8" font-family="sans" font-size="10.00" fill="#000000"> </text>
<text text-anchor="start" x="1370" y="-2647.8" font-family="sans" font-weight="bold" font-size="14.00" fill="#000000">output →</text>
<text text-anchor="start" x="1431" y="-2647.8" font-family="sans" font-size="10.00" fill="#000000"> </text>
<text text-anchor="start" x="522" y="-2628" font-family="monospace" font-size="10.00" fill="#000000">temp/shards/bowtie2/{sample,HD827sonic_1|HD827sonic_2}_{library,lib1|lib2}_{read_type_map,pe|se|singleton|collapsed}.{ref}.{n_shard}&#45;of&#45;{tot_shards}.bam</text>
<polygon fill="#9ed957" stroke="#9ed957" points="516,-2720 516,-2720 1442,-2720 1442,-2720 516,-2720"/>
<polygon fill="#9ed957" stroke="#9ed957" points="516,-2662 516,-2662 1442,-2662 1442,-2662 516,-2662"/>
<polygon fill="none" stroke="#9ed957" stroke-width="2" points="515.5,-2619 515.5,-2749 1440.5,-2749 1440.5,-2619 515.5,-2619"/>
</g>
<!-- 2&#45;&gt;1 -->
<g id="edge8" class="edge">
<title>2&#45;&gt;1</title>
<path fill="none" stroke="#c0c0c0" stroke-width="2" d="M544.0518,-2617.9306C282.653,-2565.4387 0,-2480.1958 0,-2357 0,-2357 0,-2357 0,-1250 0,-1089.4117 99.7999,-942.7772 206.2262,-832.062"/>
<polygon fill="#c0c0c0" stroke="#c0c0c0" stroke-width="2" points="208.7977,-834.4378 213.245,-824.8215 203.7716,-829.5656 208.7977,-834.4378"/>
</g>
<!-- 7 -->
<g id="node8" class="node">
<title>7</title>
<text text-anchor="start" x="1095.5" y="-2225.6" font-family="sans" font-weight="bold" font-size="18.00" fill="#000000">shard_saturated_reads_remove</text>
<text text-anchor="start" x="728" y="-2201.8" font-family="sans" font-size="10.00" fill="#000000"> </text>
<text text-anchor="start" x="732" y="-2201.8" font-family="sans" font-weight="bold" font-size="14.00" fill="#000000">↪ input</text>
<text text-anchor="start" x="785" y="-2201.8" font-family="sans" font-size="10.00" fill="#000000"> </text>
<text text-anchor="start" x="728" y="-2182" font-family="monospace" font-size="10.00" fill="#000000">&lt;input function&gt;</text>
<text text-anchor="start" x="728" y="-2164" font-family="monospace" font-size="10.00" fill="#000000">temp/shards/saturated_reads/get/{sample}_{library}_{read_type_map}.tsv</text>
<text text-anchor="start" x="1662" y="-2143.8" font-family="sans" font-size="10.00" fill="#000000"> </text>
<text text-anchor="start" x="1666" y="-2143.8" font-family="sans" font-weight="bold" font-size="14.00" fill="#000000">output →</text>
<text text-anchor="start" x="1727" y="-2143.8" font-family="sans" font-size="10.00" fill="#000000"> </text>
<text text-anchor="start" x="728" y="-2124" font-family="monospace" font-size="10.00" fill="#000000">temp/shards/saturated_reads/remove/{sample,HD827sonic_1|HD827sonic_2}_{library,lib1|lib2}_{read_type_map,pe|se|singleton|collapsed}.{ref}.{n_shard}&#45;of&#45;{tot_shards}.bam</text>
<polygon fill="#5786d9" stroke="#5786d9" points="722,-2216 722,-2216 1738,-2216 1738,-2216 722,-2216"/>
<polygon fill="#5786d9" stroke="#5786d9" points="722,-2158 722,-2158 1738,-2158 1738,-2158 722,-2158"/>
<polygon fill="none" stroke="#5786d9" stroke-width="2" points="721.5,-2115 721.5,-2245 1736.5,-2245 1736.5,-2115 721.5,-2115"/>
</g>
<!-- 2&#45;&gt;7 -->
<g id="edge14" class="edge">
<title>2&#45;&gt;7</title>
<path fill="none" stroke="#c0c0c0" stroke-width="2" d="M975.3392,-2617.8407C975.3637,-2531.1875 987.9141,-2378.9208 1067,-2282 1075.6232,-2271.4322 1085.6448,-2261.6313 1096.395,-2252.6231"/>
<polygon fill="#c0c0c0" stroke="#c0c0c0" stroke-width="2" points="1098.7618,-2255.2104 1104.3419,-2246.2041 1094.3634,-2249.7649 1098.7618,-2255.2104"/>
</g>
<!-- 9 -->
<g id="node10" class="node">
<title>9</title>
<text text-anchor="start" x="1402.5" y="-2561.6" font-family="sans" font-weight="bold" font-size="18.00" fill="#000000">shard_count_alns</text>
<text text-anchor="start" x="1014" y="-2537.8" font-family="sans" font-size="10.00" fill="#000000"> </text>
<text text-anchor="start" x="1018" y="-2537.8" font-family="sans" font-weight="bold" font-size="14.00" fill="#000000">↪ input</text>
<text text-anchor="start" x="1071" y="-2537.8" font-family="sans" font-size="10.00" fill="#000000"> </text>
<text text-anchor="start" x="1014" y="-2518" font-family="monospace" font-size="10.00" fill="#000000">&lt;input function&gt;</text>
<text text-anchor="start" x="1876" y="-2497.8" font-family="sans" font-size="10.00" fill="#000000"> </text>
<text text-anchor="start" x="1880" y="-2497.8" font-family="sans" font-weight="bold" font-size="14.00" fill="#000000">output →</text>
<text text-anchor="start" x="1941" y="-2497.8" font-family="sans" font-size="10.00" fill="#000000"> </text>
<text text-anchor="start" x="1014" y="-2478" font-family="monospace" font-size="10.00" fill="#000000">temp/shards/count_alns/{sample,HD827sonic_1|HD827sonic_2}_{library,lib1|lib2}_{read_type_map,pe|se|singleton|collapsed}.{ref}.{n_shard}&#45;of&#45;{tot_shards}.tsv</text>
<polygon fill="#57cdd9" stroke="#57cdd9" points="1008,-2552 1008,-2552 1952,-2552 1952,-2552 1008,-2552"/>
<polygon fill="#57cdd9" stroke="#57cdd9" points="1008,-2512 1008,-2512 1952,-2512 1952,-2512 1008,-2512"/>
<polygon fill="none" stroke="#57cdd9" stroke-width="2" points="1007.5,-2469 1007.5,-2581 1950.5,-2581 1950.5,-2469 1007.5,-2469"/>
</g>
<!-- 2&#45;&gt;9 -->
<g id="edge16" class="edge">
<title>2&#45;&gt;9</title>
<path fill="none" stroke="#c0c0c0" stroke-width="2" d="M1186.1166,-2617.951C1220.2512,-2607.1179 1255.4671,-2595.9416 1289.1289,-2585.2585"/>
<polygon fill="#c0c0c0" stroke="#c0c0c0" stroke-width="2" points="1290.5767,-2588.4711 1299.0495,-2582.11 1288.4592,-2581.799 1290.5767,-2588.4711"/>
</g>
<!-- 3 -->
<g id="node4" class="node">
<title>3</title>
<text text-anchor="start" x="373.5" y="-1286.6" font-family="sans" font-weight="bold" font-size="18.00" fill="#000000">align_stats</text>
<text text-anchor="start" x="36" y="-1262.8" font-family="sans" font-size="10.00" fill="#000000"> </text>
<text text-anchor="start" x="40" y="-1262.8" font-family="sans" font-weight="bold" font-size="14.00" fill="#000000">↪ input</text>
<text text-anchor="start" x="93" y="-1262.8" font-family="sans" font-size="10.00" fill="#000000"> </text>
<text text-anchor="start" x="36" y="-1243" font-family="monospace" font-size="10.00" fill="#000000">results/aligns/merge/{sample}_{library}_{read_type_map}.bam</text>
<text text-anchor="start" x="736" y="-1222.8" font-family="sans" font-size="10.00" fill="#000000"> </text>
<text text-anchor="start" x="740" y="-1222.8" font-family="sans" font-weight="bold" font-size="14.00" fill="#000000">output →</text>
<text text-anchor="start" x="801" y="-1222.8" font-family="sans" font-size="10.00" fill="#000000"> </text>
<text text-anchor="start" x="36" y="-1203" font-family="monospace" font-size="10.00" fill="#000000">stats/aligns/samtools_stats/{sample,HD827sonic_1|HD827sonic_2}_{library,lib1|lib2}_{read_type_map,pe|se|singleton|collapsed}.txt</text>
<polygon fill="#cdd957" stroke="#cdd957" points="30,-1277 30,-1277 812,-1277 812,-1277 30,-1277"/>
<polygon fill="#cdd957" stroke="#cdd957" points="30,-1237 30,-1237 812,-1237 812,-1237 30,-1237"/>
<polygon fill="none" stroke="#cdd957" stroke-width="2" points="29.5,-1194 29.5,-1306 810.5,-1306 810.5,-1194 29.5,-1194"/>
</g>
<!-- 3&#45;&gt;1 -->
<g id="edge5" class="edge">
<title>3&#45;&gt;1</title>
<path fill="none" stroke="#c0c0c0" stroke-width="2" d="M423.473,-1192.97C427.3334,-1129.5773 433.8639,-1022.3404 440.213,-918.0817"/>
<polygon fill="#c0c0c0" stroke="#c0c0c0" stroke-width="2" points="443.7123,-918.1973 440.8267,-908.003 436.7253,-917.7718 443.7123,-918.1973"/>
</g>
<!-- 4 -->
<g id="node5" class="node">
<title>4</title>
<text text-anchor="start" x="1176.5" y="-1739.6" font-family="sans" font-weight="bold" font-size="18.00" fill="#000000">align_merge</text>
<text text-anchor="start" x="866" y="-1715.8" font-family="sans" font-size="10.00" fill="#000000"> </text>
<text text-anchor="start" x="870" y="-1715.8" font-family="sans" font-weight="bold" font-size="14.00" fill="#000000">↪ input</text>
<text text-anchor="start" x="923" y="-1715.8" font-family="sans" font-size="10.00" fill="#000000"> </text>
<text text-anchor="start" x="866" y="-1696" font-family="monospace" font-size="10.00" fill="#000000">&lt;input function&gt;</text>
<text text-anchor="start" x="1524" y="-1675.8" font-family="sans" font-size="10.00" fill="#000000"> </text>
<text text-anchor="start" x="1528" y="-1675.8" font-family="sans" font-weight="bold" font-size="14.00" fill="#000000">output →</text>
<text text-anchor="start" x="1589" y="-1675.8" font-family="sans" font-size="10.00" fill="#000000"> </text>
<text text-anchor="start" x="866" y="-1656" font-family="monospace" font-size="10.00" fill="#000000">results/aligns/merge/{sample,HD827sonic_1|HD827sonic_2}_{library,lib1|lib2}_{read_type_map,pe|se|singleton|collapsed}.bam</text>
<polygon fill="#d98657" stroke="#d98657" points="860,-1730 860,-1730 1600,-1730 1600,-1730 860,-1730"/>
<polygon fill="#d98657" stroke="#d98657" points="860,-1690 860,-1690 1600,-1690 1600,-1690 860,-1690"/>
<polygon fill="none" stroke="#d98657" stroke-width="2" points="859.5,-1647 859.5,-1759 1598.5,-1759 1598.5,-1647 859.5,-1647"/>
</g>
<!-- 4&#45;&gt;3 -->
<g id="edge9" class="edge">
<title>4&#45;&gt;3</title>
<path fill="none" stroke="#c0c0c0" stroke-width="2" d="M917.2838,-1645.9399C887.3949,-1635.8199 858.1419,-1623.9394 831,-1610 684.682,-1534.8548 548.0082,-1396.3336 475.0479,-1314.7729"/>
<polygon fill="#c0c0c0" stroke="#c0c0c0" stroke-width="2" points="477.4497,-1312.2068 468.188,-1307.0617 472.2197,-1316.8595 477.4497,-1312.2068"/>
</g>
<!-- 11 -->
<g id="node12" class="node">
<title>11</title>
<text text-anchor="start" x="1172" y="-1589.6" font-family="sans" font-weight="bold" font-size="18.00" fill="#000000">metadmg_lca</text>
<text text-anchor="start" x="848" y="-1565.8" font-family="sans" font-size="10.00" fill="#000000"> </text>
<text text-anchor="start" x="852" y="-1565.8" font-family="sans" font-weight="bold" font-size="14.00" fill="#000000">↪ input</text>
<text text-anchor="start" x="905" y="-1565.8" font-family="sans" font-size="10.00" fill="#000000"> </text>
<text text-anchor="start" x="848" y="-1546" font-family="monospace" font-size="10.00" fill="#000000">/datasets/caeg_dataset/references/ncbi/20250205/refseq_mitochondrion.genomic.acc2taxid.gz</text>
<text text-anchor="start" x="848" y="-1528" font-family="monospace" font-size="10.00" fill="#000000">/datasets/caeg_dataset/references/ncbi/20250205/wgs_eukaryota.acc2taxid.gz</text>
<text text-anchor="start" x="848" y="-1510" font-family="monospace" font-size="10.00" fill="#000000">/datasets/caeg_dataset/taxonomy/20250210/names.dmp</text>
<text text-anchor="start" x="848" y="-1492" font-family="monospace" font-size="10.00" fill="#000000">/datasets/caeg_dataset/taxonomy/20250210/nodes.dmp</text>
<text text-anchor="start" x="848" y="-1474" font-family="monospace" font-size="10.00" fill="#000000">&lt;function &lt;lambda&gt; at 0x7fd6c6d41440&gt;</text>
<text text-anchor="start" x="1542" y="-1453.8" font-family="sans" font-size="10.00" fill="#000000"> </text>
<text text-anchor="start" x="1546" y="-1453.8" font-family="sans" font-weight="bold" font-size="14.00" fill="#000000">output →</text>
<text text-anchor="start" x="1607" y="-1453.8" font-family="sans" font-size="10.00" fill="#000000"> </text>
<text text-anchor="start" x="848" y="-1434" font-family="monospace" font-size="10.00" fill="#000000">results/metadmg/lca/{sample,HD827sonic_1|HD827sonic_2}_{library,lib1|lib2}_{read_type_map,pe|se|singleton|collapsed}.bdamage.gz</text>
<text text-anchor="start" x="848" y="-1416" font-family="monospace" font-size="10.00" fill="#000000">results/metadmg/lca/{sample,HD827sonic_1|HD827sonic_2}_{library,lib1|lib2}_{read_type_map,pe|se|singleton|collapsed}.lca.gz</text>
<text text-anchor="start" x="848" y="-1398" font-family="monospace" font-size="10.00" fill="#000000">stats/metadmg/lca/{sample,HD827sonic_1|HD827sonic_2}_{library,lib1|lib2}_{read_type_map,pe|se|singleton|collapsed}.rlens.gz</text>
<text text-anchor="start" x="848" y="-1380" font-family="monospace" font-size="10.00" fill="#000000">stats/metadmg/lca/{sample,HD827sonic_1|HD827sonic_2}_{library,lib1|lib2}_{read_type_map,pe|se|singleton|collapsed}.stat.gz</text>
<polygon fill="#57d99e" stroke="#57d99e" points="842,-1580 842,-1580 1618,-1580 1618,-1580 842,-1580"/>
<polygon fill="#57d99e" stroke="#57d99e" points="842,-1468 842,-1468 1618,-1468 1618,-1468 842,-1468"/>
<polygon fill="none" stroke="#57d99e" stroke-width="2" points="841.5,-1371 841.5,-1609 1616.5,-1609 1616.5,-1371 841.5,-1371"/>
</g>
<!-- 4&#45;&gt;11 -->
<g id="edge18" class="edge">
<title>4&#45;&gt;11</title>
<path fill="none" stroke="#c0c0c0" stroke-width="2" d="M1229,-1645.9199C1229,-1637.7724 1229,-1629.129 1229,-1620.2537"/>
<polygon fill="#c0c0c0" stroke="#c0c0c0" stroke-width="2" points="1232.5001,-1620.1487 1229,-1610.1487 1225.5001,-1620.1488 1232.5001,-1620.1487"/>
</g>
<!-- 14 -->
<g id="node15" class="node">
<title>14</title>
<text text-anchor="start" x="1619" y="-1100.6" font-family="sans" font-weight="bold" font-size="18.00" fill="#000000">metadmg_damage</text>
<text text-anchor="start" x="1307" y="-1076.8" font-family="sans" font-size="10.00" fill="#000000"> </text>
<text text-anchor="start" x="1311" y="-1076.8" font-family="sans" font-weight="bold" font-size="14.00" fill="#000000">↪ input</text>
<text text-anchor="start" x="1364" y="-1076.8" font-family="sans" font-size="10.00" fill="#000000"> </text>
<text text-anchor="start" x="1307" y="-1057" font-family="monospace" font-size="10.00" fill="#000000">&lt;function &lt;lambda&gt; at 0x7fd6c6d413a0&gt;</text>
<text text-anchor="start" x="2019" y="-1036.8" font-family="sans" font-size="10.00" fill="#000000"> </text>
<text text-anchor="start" x="2023" y="-1036.8" font-family="sans" font-weight="bold" font-size="14.00" fill="#000000">output →</text>
<text text-anchor="start" x="2084" y="-1036.8" font-family="sans" font-size="10.00" fill="#000000"> </text>
<text text-anchor="start" x="1307" y="-1017" font-family="monospace" font-size="10.00" fill="#000000">results/metadmg/damage/{sample,HD827sonic_1|HD827sonic_2}_{library,lib1|lib2}_{read_type_map,pe|se|singleton|collapsed}.bdamage.gz</text>
<text text-anchor="start" x="1307" y="-999" font-family="monospace" font-size="10.00" fill="#000000">results/metadmg/damage/{sample,HD827sonic_1|HD827sonic_2}_{library,lib1|lib2}_{read_type_map,pe|se|singleton|collapsed}.res.gz</text>
<text text-anchor="start" x="1307" y="-981" font-family="monospace" font-size="10.00" fill="#000000">stats/metadmg/damage/{sample,HD827sonic_1|HD827sonic_2}_{library,lib1|lib2}_{read_type_map,pe|se|singleton|collapsed}.rlens.gz</text>
<text text-anchor="start" x="1307" y="-963" font-family="monospace" font-size="10.00" fill="#000000">stats/metadmg/damage/{sample,HD827sonic_1|HD827sonic_2}_{library,lib1|lib2}_{read_type_map,pe|se|singleton|collapsed}.stat.gz</text>
<polygon fill="#57d96e" stroke="#57d96e" points="1301,-1091 1301,-1091 2095,-1091 2095,-1091 1301,-1091"/>
<polygon fill="#57d96e" stroke="#57d96e" points="1301,-1051 1301,-1051 2095,-1051 2095,-1051 1301,-1051"/>
<polygon fill="none" stroke="#57d96e" stroke-width="2" points="1300.5,-954 1300.5,-1120 2093.5,-1120 2093.5,-954 1300.5,-954"/>
</g>
<!-- 4&#45;&gt;14 -->
<g id="edge22" class="edge">
<title>4&#45;&gt;14</title>
<path fill="none" stroke="#c0c0c0" stroke-width="2" d="M1560.7334,-1645.93C1590.7732,-1635.5698 1614.5731,-1623.6362 1627,-1610 1745.962,-1479.4618 1734.3113,-1257.1129 1715.4989,-1131.2156"/>
<polygon fill="#c0c0c0" stroke="#c0c0c0" stroke-width="2" points="1718.9384,-1130.554 1713.9573,-1121.2032 1712.02,-1131.6194 1718.9384,-1130.554"/>
</g>
<!-- 5 -->
<g id="node6" class="node">
<title>5</title>
<text text-anchor="start" x="1153" y="-1889.6" font-family="sans" font-weight="bold" font-size="18.00" fill="#000000">shard_sort_query</text>
<text text-anchor="start" x="764" y="-1865.8" font-family="sans" font-size="10.00" fill="#000000"> </text>
<text text-anchor="start" x="768" y="-1865.8" font-family="sans" font-weight="bold" font-size="14.00" fill="#000000">↪ input</text>
<text text-anchor="start" x="821" y="-1865.8" font-family="sans" font-size="10.00" fill="#000000"> </text>
<text text-anchor="start" x="764" y="-1846" font-family="monospace" font-size="10.00" fill="#000000">temp/shards/clean_header/{sample}_{library}_{read_type_map}.{ref}.{n_shard}&#45;of&#45;{tot_shards}.bam</text>
<text text-anchor="start" x="1626" y="-1825.8" font-family="sans" font-size="10.00" fill="#000000"> </text>
<text text-anchor="start" x="1630" y="-1825.8" font-family="sans" font-weight="bold" font-size="14.00" fill="#000000">output →</text>
<text text-anchor="start" x="1691" y="-1825.8" font-family="sans" font-size="10.00" fill="#000000"> </text>
<text text-anchor="start" x="764" y="-1806" font-family="monospace" font-size="10.00" fill="#000000">temp/shards/sort_query/{sample,HD827sonic_1|HD827sonic_2}_{library,lib1|lib2}_{read_type_map,pe|se|singleton|collapsed}.{ref}.{n_shard}&#45;of&#45;{tot_shards}.bam</text>
<polygon fill="#576ed9" stroke="#576ed9" points="758,-1880 758,-1880 1702,-1880 1702,-1880 758,-1880"/>
<polygon fill="#576ed9" stroke="#576ed9" points="758,-1840 758,-1840 1702,-1840 1702,-1840 758,-1840"/>
<polygon fill="none" stroke="#576ed9" stroke-width="2" points="757.5,-1797 757.5,-1909 1700.5,-1909 1700.5,-1797 757.5,-1797"/>
</g>
<!-- 5&#45;&gt;4 -->
<g id="edge10" class="edge">
<title>5&#45;&gt;4</title>
<path fill="none" stroke="#c0c0c0" stroke-width="2" d="M1229,-1795.8635C1229,-1787.6231 1229,-1779.0771 1229,-1770.6558"/>
<polygon fill="#c0c0c0" stroke="#c0c0c0" stroke-width="2" points="1232.5001,-1770.4745 1229,-1760.4745 1225.5001,-1770.4745 1232.5001,-1770.4745"/>
</g>
<!-- 6 -->
<g id="node7" class="node">
<title>6</title>
<text text-anchor="start" x="1143" y="-2048.6" font-family="sans" font-weight="bold" font-size="18.00" fill="#000000">shard_clean_header</text>
<text text-anchor="start" x="758" y="-2024.8" font-family="sans" font-size="10.00" fill="#000000"> </text>
<text text-anchor="start" x="762" y="-2024.8" font-family="sans" font-weight="bold" font-size="14.00" fill="#000000">↪ input</text>
<text text-anchor="start" x="815" y="-2024.8" font-family="sans" font-size="10.00" fill="#000000"> </text>
<text text-anchor="start" x="758" y="-2005" font-family="monospace" font-size="10.00" fill="#000000">temp/shards/saturated_reads/remove/{sample}_{library}_{read_type_map}.{ref}.{n_shard}&#45;of&#45;{tot_shards}.bam</text>
<text text-anchor="start" x="1632" y="-1984.8" font-family="sans" font-size="10.00" fill="#000000"> </text>
<text text-anchor="start" x="1636" y="-1984.8" font-family="sans" font-weight="bold" font-size="14.00" fill="#000000">output →</text>
<text text-anchor="start" x="1697" y="-1984.8" font-family="sans" font-size="10.00" fill="#000000"> </text>
<text text-anchor="start" x="758" y="-1965" font-family="monospace" font-size="10.00" fill="#000000">temp/shards/clean_header/{sample,HD827sonic_1|HD827sonic_2}_{library,lib1|lib2}_{read_type_map,pe|se|singleton|collapsed}.{ref}.{n_shard}&#45;of&#45;{tot_shards}.bam</text>
<polygon fill="#57d9cd" stroke="#57d9cd" points="752,-2039 752,-2039 1708,-2039 1708,-2039 752,-2039"/>
<polygon fill="#57d9cd" stroke="#57d9cd" points="752,-1999 752,-1999 1708,-1999 1708,-1999 752,-1999"/>
<polygon fill="none" stroke="#57d9cd" stroke-width="2" points="751.5,-1956 751.5,-2068 1706.5,-2068 1706.5,-1956 751.5,-1956"/>
</g>
<!-- 6&#45;&gt;5 -->
<g id="edge11" class="edge">
<title>6&#45;&gt;5</title>
<path fill="none" stroke="#c0c0c0" stroke-width="2" d="M1229,-1954.5974C1229,-1943.4964 1229,-1931.771 1229,-1920.3851"/>
<polygon fill="#c0c0c0" stroke="#c0c0c0" stroke-width="2" points="1232.5001,-1920.0517 1229,-1910.0517 1225.5001,-1920.0518 1232.5001,-1920.0517"/>
</g>
<!-- 7&#45;&gt;6 -->
<g id="edge12" class="edge">
<title>7&#45;&gt;6</title>
<path fill="none" stroke="#c0c0c0" stroke-width="2" d="M1229,-2113.602C1229,-2102.3667 1229,-2090.6915 1229,-2079.4301"/>
<polygon fill="#c0c0c0" stroke="#c0c0c0" stroke-width="2" points="1232.5001,-2079.2288 1229,-2069.2288 1225.5001,-2079.2289 1232.5001,-2079.2288"/>
</g>
<!-- 8 -->
<g id="node9" class="node">
<title>8</title>
<text text-anchor="start" x="1363" y="-2411.6" font-family="sans" font-weight="bold" font-size="18.00" fill="#000000">shard_saturated_reads_get</text>
<text text-anchor="start" x="1083" y="-2387.8" font-family="sans" font-size="10.00" fill="#000000"> </text>
<text text-anchor="start" x="1087" y="-2387.8" font-family="sans" font-weight="bold" font-size="14.00" fill="#000000">↪ input</text>
<text text-anchor="start" x="1140" y="-2387.8" font-family="sans" font-size="10.00" fill="#000000"> </text>
<text text-anchor="start" x="1083" y="-2368" font-family="monospace" font-size="10.00" fill="#000000">temp/shards/count_alns/{sample}_{library}_collapsed.refseq_mitochondrion.1&#45;of&#45;1.tsv</text>
<text text-anchor="start" x="1083" y="-2350" font-family="monospace" font-size="10.00" fill="#000000">temp/shards/count_alns/{sample}_{library}_collapsed.wgs_eukaryota.1&#45;of&#45;2.tsv</text>
<text text-anchor="start" x="1083" y="-2332" font-family="monospace" font-size="10.00" fill="#000000">temp/shards/count_alns/{sample}_{library}_collapsed.wgs_eukaryota.2&#45;of&#45;2.tsv</text>
<text text-anchor="start" x="1807" y="-2311.8" font-family="sans" font-size="10.00" fill="#000000"> </text>
<text text-anchor="start" x="1811" y="-2311.8" font-family="sans" font-weight="bold" font-size="14.00" fill="#000000">output →</text>
<text text-anchor="start" x="1872" y="-2311.8" font-family="sans" font-size="10.00" fill="#000000"> </text>
<text text-anchor="start" x="1083" y="-2292" font-family="monospace" font-size="10.00" fill="#000000">temp/shards/saturated_reads/get/{sample,HD827sonic_1|HD827sonic_2}_{library,lib1|lib2}_{read_type_map,pe|se|singleton|collapsed}.tsv</text>
<polygon fill="#579ed9" stroke="#579ed9" points="1077,-2402 1077,-2402 1883,-2402 1883,-2402 1077,-2402"/>
<polygon fill="#579ed9" stroke="#579ed9" points="1077,-2326 1077,-2326 1883,-2326 1883,-2326 1077,-2326"/>
<polygon fill="none" stroke="#579ed9" stroke-width="2" points="1076.5,-2283 1076.5,-2431 1881.5,-2431 1881.5,-2283 1076.5,-2283"/>
</g>
<!-- 8&#45;&gt;7 -->
<g id="edge13" class="edge">
<title>8&#45;&gt;7</title>
<path fill="none" stroke="#c0c0c0" stroke-width="2" d="M1372.9775,-2281.9361C1359.0913,-2272.1047 1344.8852,-2262.0467 1331.0664,-2252.263"/>
<polygon fill="#c0c0c0" stroke="#c0c0c0" stroke-width="2" points="1332.7025,-2249.133 1322.5185,-2246.2111 1328.6576,-2254.8461 1332.7025,-2249.133"/>
</g>
<!-- 13 -->
<g id="node14" class="node">
<title>13</title>
<text text-anchor="start" x="1991" y="-2057.6" font-family="sans" font-weight="bold" font-size="18.00" fill="#000000">shard_saturated_reads_extract</text>
<text text-anchor="start" x="1735" y="-2033.8" font-family="sans" font-size="10.00" fill="#000000"> </text>
<text text-anchor="start" x="1739" y="-2033.8" font-family="sans" font-weight="bold" font-size="14.00" fill="#000000">↪ input</text>
<text text-anchor="start" x="1792" y="-2033.8" font-family="sans" font-size="10.00" fill="#000000"> </text>
<text text-anchor="start" x="1735" y="-2014" font-family="monospace" font-size="10.00" fill="#000000">&lt;input function&gt;</text>
<text text-anchor="start" x="1735" y="-1996" font-family="monospace" font-size="10.00" fill="#000000">temp/shards/saturated_reads/get/{sample}_{library}_{read_type_map}.tsv</text>
<text text-anchor="start" x="2441" y="-1975.8" font-family="sans" font-size="10.00" fill="#000000"> </text>
<text text-anchor="start" x="2445" y="-1975.8" font-family="sans" font-weight="bold" font-size="14.00" fill="#000000">output →</text>
<text text-anchor="start" x="2506" y="-1975.8" font-family="sans" font-size="10.00" fill="#000000"> </text>
<text text-anchor="start" x="1735" y="-1956" font-family="monospace" font-size="10.00" fill="#000000">results/reads/saturated/{sample,HD827sonic_1|HD827sonic_2}_{library,lib1|lib2}_{read_type_map,pe|se|singleton|collapsed}.fastq.gz</text>
<polygon fill="#57b5d9" stroke="#57b5d9" points="1729,-2048 1729,-2048 2517,-2048 2517,-2048 1729,-2048"/>
<polygon fill="#57b5d9" stroke="#57b5d9" points="1729,-1990 1729,-1990 2517,-1990 2517,-1990 1729,-1990"/>
<polygon fill="none" stroke="#57b5d9" stroke-width="2" points="1728.5,-1947 1728.5,-2077 2515.5,-2077 2515.5,-1947 1728.5,-1947"/>
</g>
<!-- 8&#45;&gt;13 -->
<g id="edge21" class="edge">
<title>8&#45;&gt;13</title>
<path fill="none" stroke="#c0c0c0" stroke-width="2" d="M1671.0909,-2281.9765C1696.9153,-2270.5769 1722.8193,-2258.4439 1747,-2246 1841.611,-2197.3113 1943.7439,-2132.7188 2017.4957,-2083.7336"/>
<polygon fill="#c0c0c0" stroke="#c0c0c0" stroke-width="2" points="2019.5105,-2086.597 2025.8943,-2078.1413 2015.6308,-2080.7705 2019.5105,-2086.597"/>
</g>
<!-- 9&#45;&gt;8 -->
<g id="edge15" class="edge">
<title>9&#45;&gt;8</title>
<path fill="none" stroke="#c0c0c0" stroke-width="2" d="M1479,-2467.6538C1479,-2459.4553 1479,-2450.8789 1479,-2442.2845"/>
<polygon fill="#c0c0c0" stroke="#c0c0c0" stroke-width="2" points="1482.5001,-2442.2088 1479,-2432.2088 1475.5001,-2442.2088 1482.5001,-2442.2088"/>
</g>
<!-- 10 -->
<g id="node11" class="node">
<title>10</title>
<text text-anchor="start" x="1168.5" y="-1313.6" font-family="sans" font-weight="bold" font-size="18.00" fill="#000000">metadmg_dfit</text>
<text text-anchor="start" x="837" y="-1289.8" font-family="sans" font-size="10.00" fill="#000000"> </text>
<text text-anchor="start" x="841" y="-1289.8" font-family="sans" font-weight="bold" font-size="14.00" fill="#000000">↪ input</text>
<text text-anchor="start" x="894" y="-1289.8" font-family="sans" font-size="10.00" fill="#000000"> </text>
<text text-anchor="start" x="837" y="-1270" font-family="monospace" font-size="10.00" fill="#000000">/datasets/caeg_dataset/taxonomy/20250210/names.dmp</text>
<text text-anchor="start" x="837" y="-1252" font-family="monospace" font-size="10.00" fill="#000000">/datasets/caeg_dataset/taxonomy/20250210/nodes.dmp</text>
<text text-anchor="start" x="837" y="-1234" font-family="monospace" font-size="10.00" fill="#000000">results/metadmg/lca/{sample}_{library}_{read_type_map}.bdamage.gz</text>
<text text-anchor="start" x="1549" y="-1213.8" font-family="sans" font-size="10.00" fill="#000000"> </text>
<text text-anchor="start" x="1553" y="-1213.8" font-family="sans" font-weight="bold" font-size="14.00" fill="#000000">output →</text>
<text text-anchor="start" x="1614" y="-1213.8" font-family="sans" font-size="10.00" fill="#000000"> </text>
<text text-anchor="start" x="837" y="-1194" font-family="monospace" font-size="10.00" fill="#000000">results/metadmg/dfit/{sample,HD827sonic_1|HD827sonic_2}_{library,lib1|lib2}_{read_type_map,pe|se|singleton|collapsed}.boot.stat.gz</text>
<text text-anchor="start" x="837" y="-1176" font-family="monospace" font-size="10.00" fill="#000000">results/metadmg/dfit/{sample,HD827sonic_1|HD827sonic_2}_{library,lib1|lib2}_{read_type_map,pe|se|singleton|collapsed}.dfit.gz</text>
<polygon fill="#57d986" stroke="#57d986" points="831,-1304 831,-1304 1625,-1304 1625,-1304 831,-1304"/>
<polygon fill="#57d986" stroke="#57d986" points="831,-1228 831,-1228 1625,-1228 1625,-1228 831,-1228"/>
<polygon fill="none" stroke="#57d986" stroke-width="2" points="830.5,-1167 830.5,-1333 1623.5,-1333 1623.5,-1167 830.5,-1167"/>
</g>
<!-- 10&#45;&gt;1 -->
<g id="edge6" class="edge">
<title>10&#45;&gt;1</title>
<path fill="none" stroke="#c0c0c0" stroke-width="2" d="M829.3929,-1167.4766C826.2505,-1166.9767 823.1191,-1166.4843 820,-1166 744.2667,-1154.24 529.3508,-1185.9752 477,-1130 460.7927,-1112.6706 454.9037,-1019.6645 453.5008,-918.1716"/>
<polygon fill="#c0c0c0" stroke="#c0c0c0" stroke-width="2" points="456.9986,-917.9628 453.3754,-908.0068 449.9992,-918.0492 456.9986,-917.9628"/>
</g>
<!-- 12 -->
<g id="node13" class="node">
<title>12</title>
<text text-anchor="start" x="797" y="-1109.6" font-family="sans" font-weight="bold" font-size="18.00" fill="#000000">metadmg_aggregate</text>
<text text-anchor="start" x="494" y="-1085.8" font-family="sans" font-size="10.00" fill="#000000"> </text>
<text text-anchor="start" x="498" y="-1085.8" font-family="sans" font-weight="bold" font-size="14.00" fill="#000000">↪ input</text>
<text text-anchor="start" x="551" y="-1085.8" font-family="sans" font-size="10.00" fill="#000000"> </text>
<text text-anchor="start" x="494" y="-1066" font-family="monospace" font-size="10.00" fill="#000000">/datasets/caeg_dataset/taxonomy/20250210/names.dmp</text>
<text text-anchor="start" x="494" y="-1048" font-family="monospace" font-size="10.00" fill="#000000">/datasets/caeg_dataset/taxonomy/20250210/nodes.dmp</text>
<text text-anchor="start" x="494" y="-1030" font-family="monospace" font-size="10.00" fill="#000000">results/metadmg/dfit/{sample}_{library}_{read_type_map}.dfit.gz</text>
<text text-anchor="start" x="494" y="-1012" font-family="monospace" font-size="10.00" fill="#000000">results/metadmg/lca/{sample}_{library}_{read_type_map}.bdamage.gz</text>
<text text-anchor="start" x="494" y="-994" font-family="monospace" font-size="10.00" fill="#000000">stats/metadmg/lca/{sample}_{library}_{read_type_map}.stat.gz</text>
<text text-anchor="start" x="1206" y="-973.8" font-family="sans" font-size="10.00" fill="#000000"> </text>
<text text-anchor="start" x="1210" y="-973.8" font-family="sans" font-weight="bold" font-size="14.00" fill="#000000">output →</text>
<text text-anchor="start" x="1271" y="-973.8" font-family="sans" font-size="10.00" fill="#000000"> </text>
<text text-anchor="start" x="494" y="-954" font-family="monospace" font-size="10.00" fill="#000000">results/metadmg/aggregate/{sample,HD827sonic_1|HD827sonic_2}_{library,lib1|lib2}_{read_type_map,pe|se|singleton|collapsed}.stat.gz</text>
<polygon fill="#57d957" stroke="#57d957" points="488,-1100 488,-1100 1282,-1100 1282,-1100 488,-1100"/>
<polygon fill="#57d957" stroke="#57d957" points="488,-988 488,-988 1282,-988 1282,-988 488,-988"/>
<polygon fill="none" stroke="#57d957" stroke-width="2" points="487.5,-945 487.5,-1129 1280.5,-1129 1280.5,-945 487.5,-945"/>
</g>
<!-- 10&#45;&gt;12 -->
<g id="edge19" class="edge">
<title>10&#45;&gt;12</title>
<path fill="none" stroke="#c0c0c0" stroke-width="2" d="M1091.4373,-1165.8168C1075.332,-1155.8155 1058.7839,-1145.5393 1042.3963,-1135.3627"/>
<polygon fill="#c0c0c0" stroke="#c0c0c0" stroke-width="2" points="1044.1862,-1132.3543 1033.8445,-1130.0521 1040.4933,-1138.301 1044.1862,-1132.3543"/>
</g>
<!-- 11&#45;&gt;10 -->
<g id="edge17" class="edge">
<title>11&#45;&gt;10</title>
<path fill="none" stroke="#c0c0c0" stroke-width="2" d="M1228,-1370C1227.9285,-1361.4188 1227.857,-1352.8375 1227.7869,-1344.4318"/>
<polygon fill="#c0c0c0" stroke="#c0c0c0" stroke-width="2" points="1231.2856,-1344.248 1227.7023,-1334.2775 1224.2859,-1344.3064 1231.2856,-1344.248"/>
</g>
<!-- 11&#45;&gt;12 -->
<g id="edge20" class="edge">
<title>11&#45;&gt;12</title>
<path fill="none" stroke="#c0c0c0" stroke-width="2" d="M1590.7415,-1369.8701C1610.5037,-1358.1569 1625.6848,-1346.1136 1634,-1334 1676.2562,-1272.4409 1683.9658,-1221.4845 1634,-1166 1584.6163,-1111.1619 1382.4172,-1140.1964 1291.5729,-1129.7984"/>
<polygon fill="#c0c0c0" stroke="#c0c0c0" stroke-width="2" points="1291.9668,-1126.3196 1281.5809,-1128.4134 1291.0057,-1133.2533 1291.9668,-1126.3196"/>
</g>
<!-- 12&#45;&gt;0 -->
<g id="edge1" class="edge">
<title>12&#45;&gt;0</title>
<path fill="none" stroke="#c0c0c0" stroke-width="2" d="M917.686,-943.7563C971.445,-794.9502 1077.3446,-501.8173 1143.913,-317.5542"/>
<polygon fill="#c0c0c0" stroke="#c0c0c0" stroke-width="2" points="1147.2431,-318.6373 1147.3491,-308.043 1140.6595,-316.2588 1147.2431,-318.6373"/>
</g>
<!-- 12&#45;&gt;1 -->
<g id="edge7" class="edge">
<title>12&#45;&gt;1</title>
<path fill="none" stroke="#c0c0c0" stroke-width="2" d="M787.6002,-943.9945C763.9428,-921.1702 737.5117,-895.6697 710.1895,-869.3096"/>
<polygon fill="#c0c0c0" stroke="#c0c0c0" stroke-width="2" points="712.4716,-866.648 702.8448,-862.2235 707.6113,-871.6856 712.4716,-866.648"/>
</g>
<!-- 13&#45;&gt;0 -->
<g id="edge2" class="edge">
<title>13&#45;&gt;0</title>
<path fill="none" stroke="#c0c0c0" stroke-width="2" d="M2122.3372,-1945.9966C2122.6275,-1883.4337 2123,-1786.8221 2123,-1703 2123,-1703 2123,-1703 2123,-1037 2123,-640.7919 1673.3701,-367.0078 1402.7747,-238.1148"/>
<polygon fill="#c0c0c0" stroke="#c0c0c0" stroke-width="2" points="1404.1601,-234.8983 1393.6246,-233.779 1401.1626,-241.224 1404.1601,-234.8983"/>
</g>
<!-- 14&#45;&gt;0 -->
<g id="edge4" class="edge">
<title>14&#45;&gt;0</title>
<path fill="none" stroke="#c0c0c0" stroke-width="2" d="M1649.857,-952.7342C1568.251,-806.8676 1399.3312,-504.9321 1294.1526,-316.9307"/>
<polygon fill="#c0c0c0" stroke="#c0c0c0" stroke-width="2" points="1297.1298,-315.0836 1289.1929,-308.0654 1291.0209,-318.5014 1297.1298,-315.0836"/>
</g>
</g>
</svg>
