<?xml version="1.0" encoding="UTF-8" standalone="no"?>
<!DOCTYPE svg PUBLIC "-//W3C//DTD SVG 1.1//EN"
 "http://www.w3.org/Graphics/SVG/1.1/DTD/svg11.dtd">
<!-- Generated by graphviz version 2.40.1 (0)
 -->
<!-- Title: snakemake_dag Pages: 1 -->
<svg width="2650pt" height="2668pt"
 viewBox="0.00 0.00 2650.00 2668.00" xmlns="http://www.w3.org/2000/svg" xmlns:xlink="http://www.w3.org/1999/xlink">
<g id="graph0" class="graph" transform="scale(1 1) rotate(0) translate(4 2664)">
<title>snakemake_dag</title>
<polygon fill="#ffffff" stroke="transparent" points="-4,4 -4,-2664 2646,-2664 2646,4 -4,4"/>
<!-- 0 -->
<g id="node1" class="node">
<title>0</title>
<text text-anchor="start" x="1421.5" y="-215.6" font-family="sans" font-weight="bold" font-size="18.00" fill="#000000">all</text>
<text text-anchor="start" x="1248.5" y="-191.8" font-family="sans" font-size="10.00" fill="#000000"> </text>
<text text-anchor="start" x="1252.5" y="-191.8" font-family="sans" font-weight="bold" font-size="14.00" fill="#000000">↪ input</text>
<text text-anchor="start" x="1305.5" y="-191.8" font-family="sans" font-size="10.00" fill="#000000"> </text>
<text text-anchor="start" x="1248.5" y="-172" font-family="monospace" font-size="10.00" fill="#000000">reports/multiqc.html</text>
<text text-anchor="start" x="1248.5" y="-154" font-family="monospace" font-size="10.00" fill="#000000">results/metadmg/aggregate/HD827sonic_1_lib1_collapsed.stat.gz</text>
<text text-anchor="start" x="1248.5" y="-136" font-family="monospace" font-size="10.00" fill="#000000">results/metadmg/aggregate/HD827sonic_1_lib1_collapsed.stat.gz</text>
<text text-anchor="start" x="1248.5" y="-118" font-family="monospace" font-size="10.00" fill="#000000">results/metadmg/aggregate/HD827sonic_2_lib1_collapsed.stat.gz</text>
<text text-anchor="start" x="1248.5" y="-100" font-family="monospace" font-size="10.00" fill="#000000">results/metadmg/aggregate/HD827sonic_2_lib2_collapsed.stat.gz</text>
<text text-anchor="start" x="1248.5" y="-82" font-family="monospace" font-size="10.00" fill="#000000">stats/metadmg/damage/HD827sonic_1_lib1_collapsed.stat.gz</text>
<text text-anchor="start" x="1248.5" y="-64" font-family="monospace" font-size="10.00" fill="#000000">stats/metadmg/damage/HD827sonic_1_lib1_collapsed.stat.gz</text>
<text text-anchor="start" x="1248.5" y="-46" font-family="monospace" font-size="10.00" fill="#000000">stats/metadmg/damage/HD827sonic_2_lib1_collapsed.stat.gz</text>
<text text-anchor="start" x="1248.5" y="-28" font-family="monospace" font-size="10.00" fill="#000000">stats/metadmg/damage/HD827sonic_2_lib2_collapsed.stat.gz</text>
<text text-anchor="start" x="1608.5" y="-10" font-family="sans" font-size="10.00" fill="#000000"> &#160;</text>
<polygon fill="#add957" stroke="#add957" points="1242.5,-206 1242.5,-206 1622.5,-206 1622.5,-206 1242.5,-206"/>
<polygon fill="#add957" stroke="#add957" points="1242.5,-22 1242.5,-22 1622.5,-22 1622.5,-22 1242.5,-22"/>
<polygon fill="none" stroke="#add957" stroke-width="2" points="1242,-1 1242,-235 1621,-235 1621,-1 1242,-1"/>
</g>
<!-- 1 -->
<g id="node2" class="node">
<title>1</title>
<text text-anchor="start" x="973.5" y="-815.6" font-family="sans" font-weight="bold" font-size="18.00" fill="#000000">multiqc</text>
<text text-anchor="start" x="768.5" y="-791.8" font-family="sans" font-size="10.00" fill="#000000"> </text>
<text text-anchor="start" x="772.5" y="-791.8" font-family="sans" font-weight="bold" font-size="14.00" fill="#000000">↪ input</text>
<text text-anchor="start" x="825.5" y="-791.8" font-family="sans" font-size="10.00" fill="#000000"> </text>
<text text-anchor="start" x="768.5" y="-772" font-family="monospace" font-size="10.00" fill="#000000">logs/shards/bowtie2/HD827sonic_1_lib1_collapsed.refseq_mitochondrion.1&#45;of&#45;1.log</text>
<text text-anchor="start" x="768.5" y="-754" font-family="monospace" font-size="10.00" fill="#000000">logs/shards/bowtie2/HD827sonic_1_lib1_collapsed.wgs_eukaryota.1&#45;of&#45;2.log</text>
<text text-anchor="start" x="768.5" y="-736" font-family="monospace" font-size="10.00" fill="#000000">logs/shards/bowtie2/HD827sonic_1_lib1_collapsed.wgs_eukaryota.2&#45;of&#45;2.log</text>
<text text-anchor="start" x="768.5" y="-718" font-family="monospace" font-size="10.00" fill="#000000">logs/shards/bowtie2/HD827sonic_2_lib1_collapsed.refseq_mitochondrion.1&#45;of&#45;1.log</text>
<text text-anchor="start" x="768.5" y="-700" font-family="monospace" font-size="10.00" fill="#000000">logs/shards/bowtie2/HD827sonic_2_lib1_collapsed.wgs_eukaryota.1&#45;of&#45;2.log</text>
<text text-anchor="start" x="768.5" y="-682" font-family="monospace" font-size="10.00" fill="#000000">logs/shards/bowtie2/HD827sonic_2_lib1_collapsed.wgs_eukaryota.2&#45;of&#45;2.log</text>
<text text-anchor="start" x="768.5" y="-664" font-family="monospace" font-size="10.00" fill="#000000">logs/shards/bowtie2/HD827sonic_2_lib2_collapsed.refseq_mitochondrion.1&#45;of&#45;1.log</text>
<text text-anchor="start" x="768.5" y="-646" font-family="monospace" font-size="10.00" fill="#000000">logs/shards/bowtie2/HD827sonic_2_lib2_collapsed.wgs_eukaryota.1&#45;of&#45;2.log</text>
<text text-anchor="start" x="768.5" y="-628" font-family="monospace" font-size="10.00" fill="#000000">logs/shards/bowtie2/HD827sonic_2_lib2_collapsed.wgs_eukaryota.2&#45;of&#45;2.log</text>
<text text-anchor="start" x="768.5" y="-610" font-family="monospace" font-size="10.00" fill="#000000">results/metadmg/aggregate/HD827sonic_1_lib1_collapsed.stat.gz</text>
<text text-anchor="start" x="768.5" y="-592" font-family="monospace" font-size="10.00" fill="#000000">results/metadmg/aggregate/HD827sonic_1_lib1_collapsed.stat.gz</text>
<text text-anchor="start" x="768.5" y="-574" font-family="monospace" font-size="10.00" fill="#000000">results/metadmg/aggregate/HD827sonic_2_lib1_collapsed.stat.gz</text>
<text text-anchor="start" x="768.5" y="-556" font-family="monospace" font-size="10.00" fill="#000000">results/metadmg/aggregate/HD827sonic_2_lib2_collapsed.stat.gz</text>
<text text-anchor="start" x="768.5" y="-538" font-family="monospace" font-size="10.00" fill="#000000">results/metadmg/dfit/HD827sonic_1_lib1_collapsed.dfit.gz</text>
<text text-anchor="start" x="768.5" y="-520" font-family="monospace" font-size="10.00" fill="#000000">results/metadmg/dfit/HD827sonic_1_lib1_collapsed.dfit.gz</text>
<text text-anchor="start" x="768.5" y="-502" font-family="monospace" font-size="10.00" fill="#000000">results/metadmg/dfit/HD827sonic_2_lib1_collapsed.dfit.gz</text>
<text text-anchor="start" x="768.5" y="-484" font-family="monospace" font-size="10.00" fill="#000000">results/metadmg/dfit/HD827sonic_2_lib2_collapsed.dfit.gz</text>
<text text-anchor="start" x="768.5" y="-466" font-family="monospace" font-size="10.00" fill="#000000">stats/aligns/samtools_stats/HD827sonic_1_lib1_collapsed.txt</text>
<text text-anchor="start" x="768.5" y="-448" font-family="monospace" font-size="10.00" fill="#000000">stats/aligns/samtools_stats/HD827sonic_1_lib1_collapsed.txt</text>
<text text-anchor="start" x="768.5" y="-430" font-family="monospace" font-size="10.00" fill="#000000">stats/aligns/samtools_stats/HD827sonic_1_lib1_collapsed.txt</text>
<text text-anchor="start" x="768.5" y="-412" font-family="monospace" font-size="10.00" fill="#000000">stats/aligns/samtools_stats/HD827sonic_1_lib1_collapsed.txt</text>
<text text-anchor="start" x="768.5" y="-394" font-family="monospace" font-size="10.00" fill="#000000">stats/aligns/samtools_stats/HD827sonic_2_lib1_collapsed.txt</text>
<text text-anchor="start" x="768.5" y="-376" font-family="monospace" font-size="10.00" fill="#000000">stats/aligns/samtools_stats/HD827sonic_2_lib1_collapsed.txt</text>
<text text-anchor="start" x="768.5" y="-358" font-family="monospace" font-size="10.00" fill="#000000">stats/aligns/samtools_stats/HD827sonic_2_lib2_collapsed.txt</text>
<text text-anchor="start" x="768.5" y="-340" font-family="monospace" font-size="10.00" fill="#000000">stats/aligns/samtools_stats/HD827sonic_2_lib2_collapsed.txt</text>
<text text-anchor="start" x="1174.5" y="-319.8" font-family="sans" font-size="10.00" fill="#000000"> </text>
<text text-anchor="start" x="1178.5" y="-319.8" font-family="sans" font-weight="bold" font-size="14.00" fill="#000000">output →</text>
<text text-anchor="start" x="1239.5" y="-319.8" font-family="sans" font-size="10.00" fill="#000000"> </text>
<text text-anchor="start" x="768.5" y="-300" font-family="monospace" font-size="10.00" fill="#000000">reports/multiqc.html</text>
<text text-anchor="start" x="768.5" y="-282" font-family="monospace" font-size="10.00" fill="#000000">reports/multiqc_data.zip</text>
<polygon fill="#57d9c6" stroke="#57d9c6" points="762.5,-806 762.5,-806 1250.5,-806 1250.5,-806 762.5,-806"/>
<polygon fill="#57d9c6" stroke="#57d9c6" points="762.5,-334 762.5,-334 1250.5,-334 1250.5,-334 762.5,-334"/>
<polygon fill="none" stroke="#57d9c6" stroke-width="2" points="762,-273 762,-835 1249,-835 1249,-273 762,-273"/>
</g>
<!-- 1&#45;&gt;0 -->
<g id="edge1" class="edge">
<title>1&#45;&gt;0</title>
<path fill="none" stroke="#c0c0c0" stroke-width="2" d="M1250.2199,-303.5355C1270.4441,-282.8365 1290.278,-262.537 1308.9703,-243.406"/>
<polygon fill="#c0c0c0" stroke="#c0c0c0" stroke-width="2" points="1311.5916,-245.7314 1316.0768,-236.1327 1306.5847,-240.8393 1311.5916,-245.7314"/>
</g>
<!-- 2 -->
<g id="node3" class="node">
<title>2</title>
<text text-anchor="start" x="429.5" y="-2639.6" font-family="sans" font-weight="bold" font-size="18.00" fill="#000000">bowtie2</text>
<text text-anchor="start" x="7.5" y="-2615.8" font-family="sans" font-size="10.00" fill="#000000"> </text>
<text text-anchor="start" x="11.5" y="-2615.8" font-family="sans" font-weight="bold" font-size="14.00" fill="#000000">↪ input</text>
<text text-anchor="start" x="64.5" y="-2615.8" font-family="sans" font-size="10.00" fill="#000000"> </text>
<text text-anchor="start" x="7.5" y="-2596" font-family="monospace" font-size="10.00" fill="#000000">&lt;input function&gt;</text>
<text text-anchor="start" x="7.5" y="-2578" font-family="monospace" font-size="10.00" fill="#000000">&lt;input function&gt;</text>
<text text-anchor="start" x="851.5" y="-2557.8" font-family="sans" font-size="10.00" fill="#000000"> </text>
<text text-anchor="start" x="855.5" y="-2557.8" font-family="sans" font-weight="bold" font-size="14.00" fill="#000000">output →</text>
<text text-anchor="start" x="916.5" y="-2557.8" font-family="sans" font-size="10.00" fill="#000000"> </text>
<text text-anchor="start" x="7.5" y="-2538" font-family="monospace" font-size="10.00" fill="#000000">temp/shards/bowtie2/{sample,HD827sonic_1|HD827sonic_2}_{library,lib1|lib2}_{read_type_map,pe|se|singleton|collapsed}.{ref}.{n_shard}&#45;of&#45;{tot_shards}.bam</text>
<polygon fill="#95d957" stroke="#95d957" points="1.5,-2630 1.5,-2630 927.5,-2630 927.5,-2630 1.5,-2630"/>
<polygon fill="#95d957" stroke="#95d957" points="1.5,-2572 1.5,-2572 927.5,-2572 927.5,-2572 1.5,-2572"/>
<polygon fill="none" stroke="#95d957" stroke-width="2" points="1,-2529 1,-2659 926,-2659 926,-2529 1,-2529"/>
</g>
<!-- 2&#45;&gt;1 -->
<g id="edge6" class="edge">
<title>2&#45;&gt;1</title>
<path fill="none" stroke="#c0c0c0" stroke-width="2" d="M403.9632,-2527.9518C353.9205,-2465.4274 290.5,-2366.5507 290.5,-2267 290.5,-2267 290.5,-2267 290.5,-1178 290.5,-925.7588 546.2236,-752.0428 751.8034,-653.1445"/>
<polygon fill="#c0c0c0" stroke="#c0c0c0" stroke-width="2" points="753.4215,-656.2505 760.9377,-648.7834 750.4055,-649.9335 753.4215,-656.2505"/>
</g>
<!-- 7 -->
<g id="node8" class="node">
<title>7</title>
<text text-anchor="start" x="831" y="-2135.6" font-family="sans" font-weight="bold" font-size="18.00" fill="#000000">shard_saturated_reads_remove</text>
<text text-anchor="start" x="463.5" y="-2111.8" font-family="sans" font-size="10.00" fill="#000000"> </text>
<text text-anchor="start" x="467.5" y="-2111.8" font-family="sans" font-weight="bold" font-size="14.00" fill="#000000">↪ input</text>
<text text-anchor="start" x="520.5" y="-2111.8" font-family="sans" font-size="10.00" fill="#000000"> </text>
<text text-anchor="start" x="463.5" y="-2092" font-family="monospace" font-size="10.00" fill="#000000">&lt;input function&gt;</text>
<text text-anchor="start" x="463.5" y="-2074" font-family="monospace" font-size="10.00" fill="#000000">temp/shards/saturated_reads/get/{sample}_{library}_{read_type_map}.tsv</text>
<text text-anchor="start" x="1397.5" y="-2053.8" font-family="sans" font-size="10.00" fill="#000000"> </text>
<text text-anchor="start" x="1401.5" y="-2053.8" font-family="sans" font-weight="bold" font-size="14.00" fill="#000000">output →</text>
<text text-anchor="start" x="1462.5" y="-2053.8" font-family="sans" font-size="10.00" fill="#000000"> </text>
<text text-anchor="start" x="463.5" y="-2034" font-family="monospace" font-size="10.00" fill="#000000">temp/shards/saturated_reads/remove/{sample,HD827sonic_1|HD827sonic_2}_{library,lib1|lib2}_{read_type_map,pe|se|singleton|collapsed}.{ref}.{n_shard}&#45;of&#45;{tot_shards}.bam</text>
<polygon fill="#5788d9" stroke="#5788d9" points="457.5,-2126 457.5,-2126 1473.5,-2126 1473.5,-2126 457.5,-2126"/>
<polygon fill="#5788d9" stroke="#5788d9" points="457.5,-2068 457.5,-2068 1473.5,-2068 1473.5,-2068 457.5,-2068"/>
<polygon fill="none" stroke="#5788d9" stroke-width="2" points="457,-2025 457,-2155 1472,-2155 1472,-2025 457,-2025"/>
</g>
<!-- 2&#45;&gt;7 -->
<g id="edge13" class="edge">
<title>2&#45;&gt;7</title>
<path fill="none" stroke="#c0c0c0" stroke-width="2" d="M456.5877,-2527.9902C451.1645,-2437.5101 456.771,-2276.5781 551.5,-2192 564.6167,-2180.2889 587.1427,-2169.4054 615.1239,-2159.4469"/>
<polygon fill="#c0c0c0" stroke="#c0c0c0" stroke-width="2" points="616.5034,-2162.6736 624.8166,-2156.1053 614.2218,-2156.0558 616.5034,-2162.6736"/>
</g>
<!-- 9 -->
<g id="node10" class="node">
<title>9</title>
<text text-anchor="start" x="888" y="-2471.6" font-family="sans" font-weight="bold" font-size="18.00" fill="#000000">shard_count_alns</text>
<text text-anchor="start" x="499.5" y="-2447.8" font-family="sans" font-size="10.00" fill="#000000"> </text>
<text text-anchor="start" x="503.5" y="-2447.8" font-family="sans" font-weight="bold" font-size="14.00" fill="#000000">↪ input</text>
<text text-anchor="start" x="556.5" y="-2447.8" font-family="sans" font-size="10.00" fill="#000000"> </text>
<text text-anchor="start" x="499.5" y="-2428" font-family="monospace" font-size="10.00" fill="#000000">&lt;input function&gt;</text>
<text text-anchor="start" x="1361.5" y="-2407.8" font-family="sans" font-size="10.00" fill="#000000"> </text>
<text text-anchor="start" x="1365.5" y="-2407.8" font-family="sans" font-weight="bold" font-size="14.00" fill="#000000">output →</text>
<text text-anchor="start" x="1426.5" y="-2407.8" font-family="sans" font-size="10.00" fill="#000000"> </text>
<text text-anchor="start" x="499.5" y="-2388" font-family="monospace" font-size="10.00" fill="#000000">temp/shards/count_alns/{sample,HD827sonic_1|HD827sonic_2}_{library,lib1|lib2}_{read_type_map,pe|se|singleton|collapsed}.{ref}.{n_shard}&#45;of&#45;{tot_shards}.tsv</text>
<polygon fill="#57bad9" stroke="#57bad9" points="493.5,-2462 493.5,-2462 1437.5,-2462 1437.5,-2462 493.5,-2462"/>
<polygon fill="#57bad9" stroke="#57bad9" points="493.5,-2422 493.5,-2422 1437.5,-2422 1437.5,-2422 493.5,-2422"/>
<polygon fill="none" stroke="#57bad9" stroke-width="2" points="493,-2379 493,-2491 1436,-2491 1436,-2379 493,-2379"/>
</g>
<!-- 2&#45;&gt;9 -->
<g id="edge15" class="edge">
<title>2&#45;&gt;9</title>
<path fill="none" stroke="#c0c0c0" stroke-width="2" d="M671.6166,-2527.951C705.7512,-2517.1179 740.9671,-2505.9416 774.6289,-2495.2585"/>
<polygon fill="#c0c0c0" stroke="#c0c0c0" stroke-width="2" points="776.0767,-2498.4711 784.5495,-2492.11 773.9592,-2491.799 776.0767,-2498.4711"/>
</g>
<!-- 3 -->
<g id="node4" class="node">
<title>3</title>
<text text-anchor="start" x="664" y="-1214.6" font-family="sans" font-weight="bold" font-size="18.00" fill="#000000">align_stats</text>
<text text-anchor="start" x="326.5" y="-1190.8" font-family="sans" font-size="10.00" fill="#000000"> </text>
<text text-anchor="start" x="330.5" y="-1190.8" font-family="sans" font-weight="bold" font-size="14.00" fill="#000000">↪ input</text>
<text text-anchor="start" x="383.5" y="-1190.8" font-family="sans" font-size="10.00" fill="#000000"> </text>
<text text-anchor="start" x="326.5" y="-1171" font-family="monospace" font-size="10.00" fill="#000000">results/aligns/merge/{sample}_{library}_{read_type_map}.bam</text>
<text text-anchor="start" x="1026.5" y="-1150.8" font-family="sans" font-size="10.00" fill="#000000"> </text>
<text text-anchor="start" x="1030.5" y="-1150.8" font-family="sans" font-weight="bold" font-size="14.00" fill="#000000">output →</text>
<text text-anchor="start" x="1091.5" y="-1150.8" font-family="sans" font-size="10.00" fill="#000000"> </text>
<text text-anchor="start" x="326.5" y="-1131" font-family="monospace" font-size="10.00" fill="#000000">stats/aligns/samtools_stats/{sample,HD827sonic_1|HD827sonic_2}_{library,lib1|lib2}_{read_type_map,pe|se|singleton|collapsed}.txt</text>
<polygon fill="#c6d957" stroke="#c6d957" points="320.5,-1205 320.5,-1205 1102.5,-1205 1102.5,-1205 320.5,-1205"/>
<polygon fill="#c6d957" stroke="#c6d957" points="320.5,-1165 320.5,-1165 1102.5,-1165 1102.5,-1165 320.5,-1165"/>
<polygon fill="none" stroke="#c6d957" stroke-width="2" points="320,-1122 320,-1234 1101,-1234 1101,-1122 320,-1122"/>
</g>
<!-- 3&#45;&gt;1 -->
<g id="edge7" class="edge">
<title>3&#45;&gt;1</title>
<path fill="none" stroke="#c0c0c0" stroke-width="2" d="M737.4613,-1120.97C767.5212,-1057.3856 818.4343,-949.6914 867.8636,-845.1359"/>
<polygon fill="#c0c0c0" stroke="#c0c0c0" stroke-width="2" points="871.0714,-846.5396 872.1813,-836.003 864.743,-843.5478 871.0714,-846.5396"/>
</g>
<!-- 4 -->
<g id="node5" class="node">
<title>4</title>
<text text-anchor="start" x="1142" y="-1667.6" font-family="sans" font-weight="bold" font-size="18.00" fill="#000000">align_merge</text>
<text text-anchor="start" x="831.5" y="-1643.8" font-family="sans" font-size="10.00" fill="#000000"> </text>
<text text-anchor="start" x="835.5" y="-1643.8" font-family="sans" font-weight="bold" font-size="14.00" fill="#000000">↪ input</text>
<text text-anchor="start" x="888.5" y="-1643.8" font-family="sans" font-size="10.00" fill="#000000"> </text>
<text text-anchor="start" x="831.5" y="-1624" font-family="monospace" font-size="10.00" fill="#000000">&lt;input function&gt;</text>
<text text-anchor="start" x="1489.5" y="-1603.8" font-family="sans" font-size="10.00" fill="#000000"> </text>
<text text-anchor="start" x="1493.5" y="-1603.8" font-family="sans" font-weight="bold" font-size="14.00" fill="#000000">output →</text>
<text text-anchor="start" x="1554.5" y="-1603.8" font-family="sans" font-size="10.00" fill="#000000"> </text>
<text text-anchor="start" x="831.5" y="-1584" font-family="monospace" font-size="10.00" fill="#000000">results/aligns/merge/{sample,HD827sonic_1|HD827sonic_2}_{library,lib1|lib2}_{read_type_map,pe|se|singleton|collapsed}.bam</text>
<polygon fill="#d98857" stroke="#d98857" points="825.5,-1658 825.5,-1658 1565.5,-1658 1565.5,-1658 825.5,-1658"/>
<polygon fill="#d98857" stroke="#d98857" points="825.5,-1618 825.5,-1618 1565.5,-1618 1565.5,-1618 825.5,-1618"/>
<polygon fill="none" stroke="#d98857" stroke-width="2" points="825,-1575 825,-1687 1564,-1687 1564,-1575 825,-1575"/>
</g>
<!-- 4&#45;&gt;3 -->
<g id="edge8" class="edge">
<title>4&#45;&gt;3</title>
<path fill="none" stroke="#c0c0c0" stroke-width="2" d="M1133.2011,-1573.6272C1042.6801,-1488.9041 873.79,-1330.8314 779.2003,-1242.3001"/>
<polygon fill="#c0c0c0" stroke="#c0c0c0" stroke-width="2" points="781.3748,-1239.5414 771.682,-1235.2633 776.5914,-1244.6521 781.3748,-1239.5414"/>
</g>
<!-- 11 -->
<g id="node12" class="node">
<title>11</title>
<text text-anchor="start" x="1460.5" y="-1517.6" font-family="sans" font-weight="bold" font-size="18.00" fill="#000000">metadmg_lca</text>
<text text-anchor="start" x="1136.5" y="-1493.8" font-family="sans" font-size="10.00" fill="#000000"> </text>
<text text-anchor="start" x="1140.5" y="-1493.8" font-family="sans" font-weight="bold" font-size="14.00" fill="#000000">↪ input</text>
<text text-anchor="start" x="1193.5" y="-1493.8" font-family="sans" font-size="10.00" fill="#000000"> </text>
<text text-anchor="start" x="1136.5" y="-1474" font-family="monospace" font-size="10.00" fill="#000000">/datasets/caeg_dataset/references/ncbi/20250205/refseq_mitochondrion.genomic.acc2taxid.gz</text>
<text text-anchor="start" x="1136.5" y="-1456" font-family="monospace" font-size="10.00" fill="#000000">/datasets/caeg_dataset/references/ncbi/20250205/wgs_eukaryota.acc2taxid.gz</text>
<text text-anchor="start" x="1136.5" y="-1438" font-family="monospace" font-size="10.00" fill="#000000">/datasets/caeg_dataset/taxonomy/20250210/names.dmp</text>
<text text-anchor="start" x="1136.5" y="-1420" font-family="monospace" font-size="10.00" fill="#000000">/datasets/caeg_dataset/taxonomy/20250210/nodes.dmp</text>
<text text-anchor="start" x="1136.5" y="-1402" font-family="monospace" font-size="10.00" fill="#000000">&lt;function &lt;lambda&gt; at 0x7fa9b986d1c0&gt;</text>
<text text-anchor="start" x="1830.5" y="-1381.8" font-family="sans" font-size="10.00" fill="#000000"> </text>
<text text-anchor="start" x="1834.5" y="-1381.8" font-family="sans" font-weight="bold" font-size="14.00" fill="#000000">output →</text>
<text text-anchor="start" x="1895.5" y="-1381.8" font-family="sans" font-size="10.00" fill="#000000"> </text>
<text text-anchor="start" x="1136.5" y="-1362" font-family="monospace" font-size="10.00" fill="#000000">results/metadmg/lca/{sample,HD827sonic_1|HD827sonic_2}_{library,lib1|lib2}_{read_type_map,pe|se|singleton|collapsed}.bdamage.gz</text>
<text text-anchor="start" x="1136.5" y="-1344" font-family="monospace" font-size="10.00" fill="#000000">results/metadmg/lca/{sample,HD827sonic_1|HD827sonic_2}_{library,lib1|lib2}_{read_type_map,pe|se|singleton|collapsed}.lca.gz</text>
<text text-anchor="start" x="1136.5" y="-1326" font-family="monospace" font-size="10.00" fill="#000000">stats/metadmg/lca/{sample,HD827sonic_1|HD827sonic_2}_{library,lib1|lib2}_{read_type_map,pe|se|singleton|collapsed}.rlens.gz</text>
<text text-anchor="start" x="1136.5" y="-1308" font-family="monospace" font-size="10.00" fill="#000000">stats/metadmg/lca/{sample,HD827sonic_1|HD827sonic_2}_{library,lib1|lib2}_{read_type_map,pe|se|singleton|collapsed}.stat.gz</text>
<polygon fill="#57d9ad" stroke="#57d9ad" points="1130.5,-1508 1130.5,-1508 1906.5,-1508 1906.5,-1508 1130.5,-1508"/>
<polygon fill="#57d9ad" stroke="#57d9ad" points="1130.5,-1396 1130.5,-1396 1906.5,-1396 1906.5,-1396 1130.5,-1396"/>
<polygon fill="none" stroke="#57d9ad" stroke-width="2" points="1130,-1299 1130,-1537 1905,-1537 1905,-1299 1130,-1299"/>
</g>
<!-- 4&#45;&gt;11 -->
<g id="edge17" class="edge">
<title>4&#45;&gt;11</title>
<path fill="none" stroke="#c0c0c0" stroke-width="2" d="M1281.0581,-1573.9199C1295.406,-1564.4582 1310.768,-1554.3279 1326.5172,-1543.9422"/>
<polygon fill="#c0c0c0" stroke="#c0c0c0" stroke-width="2" points="1328.8812,-1546.5759 1335.3026,-1538.1487 1325.0275,-1540.7321 1328.8812,-1546.5759"/>
</g>
<!-- 13 -->
<g id="node14" class="node">
<title>13</title>
<text text-anchor="start" x="2166.5" y="-1028.6" font-family="sans" font-weight="bold" font-size="18.00" fill="#000000">metadmg_damage</text>
<text text-anchor="start" x="1854.5" y="-1004.8" font-family="sans" font-size="10.00" fill="#000000"> </text>
<text text-anchor="start" x="1858.5" y="-1004.8" font-family="sans" font-weight="bold" font-size="14.00" fill="#000000">↪ input</text>
<text text-anchor="start" x="1911.5" y="-1004.8" font-family="sans" font-size="10.00" fill="#000000"> </text>
<text text-anchor="start" x="1854.5" y="-985" font-family="monospace" font-size="10.00" fill="#000000">&lt;function &lt;lambda&gt; at 0x7fa9b986d120&gt;</text>
<text text-anchor="start" x="2566.5" y="-964.8" font-family="sans" font-size="10.00" fill="#000000"> </text>
<text text-anchor="start" x="2570.5" y="-964.8" font-family="sans" font-weight="bold" font-size="14.00" fill="#000000">output →</text>
<text text-anchor="start" x="2631.5" y="-964.8" font-family="sans" font-size="10.00" fill="#000000"> </text>
<text text-anchor="start" x="1854.5" y="-945" font-family="monospace" font-size="10.00" fill="#000000">results/metadmg/damage/{sample,HD827sonic_1|HD827sonic_2}_{library,lib1|lib2}_{read_type_map,pe|se|singleton|collapsed}.bdamage.gz</text>
<text text-anchor="start" x="1854.5" y="-927" font-family="monospace" font-size="10.00" fill="#000000">results/metadmg/damage/{sample,HD827sonic_1|HD827sonic_2}_{library,lib1|lib2}_{read_type_map,pe|se|singleton|collapsed}.res.gz</text>
<text text-anchor="start" x="1854.5" y="-909" font-family="monospace" font-size="10.00" fill="#000000">stats/metadmg/damage/{sample,HD827sonic_1|HD827sonic_2}_{library,lib1|lib2}_{read_type_map,pe|se|singleton|collapsed}.rlens.gz</text>
<text text-anchor="start" x="1854.5" y="-891" font-family="monospace" font-size="10.00" fill="#000000">stats/metadmg/damage/{sample,HD827sonic_1|HD827sonic_2}_{library,lib1|lib2}_{read_type_map,pe|se|singleton|collapsed}.stat.gz</text>
<polygon fill="#57d97c" stroke="#57d97c" points="1848.5,-1019 1848.5,-1019 2642.5,-1019 2642.5,-1019 1848.5,-1019"/>
<polygon fill="#57d97c" stroke="#57d97c" points="1848.5,-979 1848.5,-979 2642.5,-979 2642.5,-979 1848.5,-979"/>
<polygon fill="none" stroke="#57d97c" stroke-width="2" points="1848,-882 1848,-1048 2641,-1048 2641,-882 1848,-882"/>
</g>
<!-- 4&#45;&gt;13 -->
<g id="edge20" class="edge">
<title>4&#45;&gt;13</title>
<path fill="none" stroke="#c0c0c0" stroke-width="2" d="M1565.4846,-1613.1805C1710.7292,-1600.0693 1856.5977,-1577.3474 1915.5,-1538 2086.0274,-1424.086 2178.8294,-1189.831 2219.3006,-1058.8681"/>
<polygon fill="#c0c0c0" stroke="#c0c0c0" stroke-width="2" points="2222.6694,-1059.8198 2222.241,-1049.2336 2215.9743,-1057.7763 2222.6694,-1059.8198"/>
</g>
<!-- 5 -->
<g id="node6" class="node">
<title>5</title>
<text text-anchor="start" x="1085.5" y="-1817.6" font-family="sans" font-weight="bold" font-size="18.00" fill="#000000">shard_sort_query</text>
<text text-anchor="start" x="696.5" y="-1793.8" font-family="sans" font-size="10.00" fill="#000000"> </text>
<text text-anchor="start" x="700.5" y="-1793.8" font-family="sans" font-weight="bold" font-size="14.00" fill="#000000">↪ input</text>
<text text-anchor="start" x="753.5" y="-1793.8" font-family="sans" font-size="10.00" fill="#000000"> </text>
<text text-anchor="start" x="696.5" y="-1774" font-family="monospace" font-size="10.00" fill="#000000">temp/shards/clean_header/{sample}_{library}_{read_type_map}.{ref}.{n_shard}&#45;of&#45;{tot_shards}.bam</text>
<text text-anchor="start" x="1558.5" y="-1753.8" font-family="sans" font-size="10.00" fill="#000000"> </text>
<text text-anchor="start" x="1562.5" y="-1753.8" font-family="sans" font-weight="bold" font-size="14.00" fill="#000000">output →</text>
<text text-anchor="start" x="1623.5" y="-1753.8" font-family="sans" font-size="10.00" fill="#000000"> </text>
<text text-anchor="start" x="696.5" y="-1734" font-family="monospace" font-size="10.00" fill="#000000">temp/shards/sort_query/{sample,HD827sonic_1|HD827sonic_2}_{library,lib1|lib2}_{read_type_map,pe|se|singleton|collapsed}.{ref}.{n_shard}&#45;of&#45;{tot_shards}.bam</text>
<polygon fill="#576fd9" stroke="#576fd9" points="690.5,-1808 690.5,-1808 1634.5,-1808 1634.5,-1808 690.5,-1808"/>
<polygon fill="#576fd9" stroke="#576fd9" points="690.5,-1768 690.5,-1768 1634.5,-1768 1634.5,-1768 690.5,-1768"/>
<polygon fill="none" stroke="#576fd9" stroke-width="2" points="690,-1725 690,-1837 1633,-1837 1633,-1725 690,-1725"/>
</g>
<!-- 5&#45;&gt;4 -->
<g id="edge9" class="edge">
<title>5&#45;&gt;4</title>
<path fill="none" stroke="#c0c0c0" stroke-width="2" d="M1174.07,-1723.8635C1175.9029,-1715.5325 1177.8044,-1706.8892 1179.6768,-1698.3783"/>
<polygon fill="#c0c0c0" stroke="#c0c0c0" stroke-width="2" points="1183.1252,-1698.993 1181.8556,-1688.4745 1176.2887,-1697.4889 1183.1252,-1698.993"/>
</g>
<!-- 6 -->
<g id="node7" class="node">
<title>6</title>
<text text-anchor="start" x="1009.5" y="-1967.6" font-family="sans" font-weight="bold" font-size="18.00" fill="#000000">shard_clean_header</text>
<text text-anchor="start" x="624.5" y="-1943.8" font-family="sans" font-size="10.00" fill="#000000"> </text>
<text text-anchor="start" x="628.5" y="-1943.8" font-family="sans" font-weight="bold" font-size="14.00" fill="#000000">↪ input</text>
<text text-anchor="start" x="681.5" y="-1943.8" font-family="sans" font-size="10.00" fill="#000000"> </text>
<text text-anchor="start" x="624.5" y="-1924" font-family="monospace" font-size="10.00" fill="#000000">temp/shards/saturated_reads/remove/{sample}_{library}_{read_type_map}.{ref}.{n_shard}&#45;of&#45;{tot_shards}.bam</text>
<text text-anchor="start" x="1498.5" y="-1903.8" font-family="sans" font-size="10.00" fill="#000000"> </text>
<text text-anchor="start" x="1502.5" y="-1903.8" font-family="sans" font-weight="bold" font-size="14.00" fill="#000000">output →</text>
<text text-anchor="start" x="1563.5" y="-1903.8" font-family="sans" font-size="10.00" fill="#000000"> </text>
<text text-anchor="start" x="624.5" y="-1884" font-family="monospace" font-size="10.00" fill="#000000">temp/shards/clean_header/{sample,HD827sonic_1|HD827sonic_2}_{library,lib1|lib2}_{read_type_map,pe|se|singleton|collapsed}.{ref}.{n_shard}&#45;of&#45;{tot_shards}.bam</text>
<polygon fill="#57d3d9" stroke="#57d3d9" points="618.5,-1958 618.5,-1958 1574.5,-1958 1574.5,-1958 618.5,-1958"/>
<polygon fill="#57d3d9" stroke="#57d3d9" points="618.5,-1918 618.5,-1918 1574.5,-1918 1574.5,-1918 618.5,-1918"/>
<polygon fill="none" stroke="#57d3d9" stroke-width="2" points="618,-1875 618,-1987 1573,-1987 1573,-1875 618,-1875"/>
</g>
<!-- 6&#45;&gt;5 -->
<g id="edge10" class="edge">
<title>6&#45;&gt;5</title>
<path fill="none" stroke="#c0c0c0" stroke-width="2" d="M1120.64,-1873.8635C1124.3854,-1865.3514 1128.2742,-1856.5133 1132.0977,-1847.8234"/>
<polygon fill="#c0c0c0" stroke="#c0c0c0" stroke-width="2" points="1135.3874,-1849.0373 1136.2112,-1838.4745 1128.9802,-1846.2181 1135.3874,-1849.0373"/>
</g>
<!-- 7&#45;&gt;6 -->
<g id="edge11" class="edge">
<title>7&#45;&gt;6</title>
<path fill="none" stroke="#c0c0c0" stroke-width="2" d="M1018.9177,-2023.951C1026.4752,-2014.7782 1034.2354,-2005.3593 1041.78,-1996.2021"/>
<polygon fill="#c0c0c0" stroke="#c0c0c0" stroke-width="2" points="1044.6866,-1998.1785 1048.3441,-1988.235 1039.284,-1993.7274 1044.6866,-1998.1785"/>
</g>
<!-- 8 -->
<g id="node9" class="node">
<title>8</title>
<text text-anchor="start" x="848.5" y="-2321.6" font-family="sans" font-weight="bold" font-size="18.00" fill="#000000">shard_saturated_reads_get</text>
<text text-anchor="start" x="568.5" y="-2297.8" font-family="sans" font-size="10.00" fill="#000000"> </text>
<text text-anchor="start" x="572.5" y="-2297.8" font-family="sans" font-weight="bold" font-size="14.00" fill="#000000">↪ input</text>
<text text-anchor="start" x="625.5" y="-2297.8" font-family="sans" font-size="10.00" fill="#000000"> </text>
<text text-anchor="start" x="568.5" y="-2278" font-family="monospace" font-size="10.00" fill="#000000">temp/shards/count_alns/{sample}_{library}_collapsed.refseq_mitochondrion.1&#45;of&#45;1.tsv</text>
<text text-anchor="start" x="568.5" y="-2260" font-family="monospace" font-size="10.00" fill="#000000">temp/shards/count_alns/{sample}_{library}_collapsed.wgs_eukaryota.1&#45;of&#45;2.tsv</text>
<text text-anchor="start" x="568.5" y="-2242" font-family="monospace" font-size="10.00" fill="#000000">temp/shards/count_alns/{sample}_{library}_collapsed.wgs_eukaryota.2&#45;of&#45;2.tsv</text>
<text text-anchor="start" x="1292.5" y="-2221.8" font-family="sans" font-size="10.00" fill="#000000"> </text>
<text text-anchor="start" x="1296.5" y="-2221.8" font-family="sans" font-weight="bold" font-size="14.00" fill="#000000">output →</text>
<text text-anchor="start" x="1357.5" y="-2221.8" font-family="sans" font-size="10.00" fill="#000000"> </text>
<text text-anchor="start" x="568.5" y="-2202" font-family="monospace" font-size="10.00" fill="#000000">temp/shards/saturated_reads/get/{sample,HD827sonic_1|HD827sonic_2}_{library,lib1|lib2}_{read_type_map,pe|se|singleton|collapsed}.tsv</text>
<polygon fill="#57a1d9" stroke="#57a1d9" points="562.5,-2312 562.5,-2312 1368.5,-2312 1368.5,-2312 562.5,-2312"/>
<polygon fill="#57a1d9" stroke="#57a1d9" points="562.5,-2236 562.5,-2236 1368.5,-2236 1368.5,-2236 562.5,-2236"/>
<polygon fill="none" stroke="#57a1d9" stroke-width="2" points="562,-2193 562,-2341 1367,-2341 1367,-2193 562,-2193"/>
</g>
<!-- 8&#45;&gt;7 -->
<g id="edge12" class="edge">
<title>8&#45;&gt;7</title>
<path fill="none" stroke="#c0c0c0" stroke-width="2" d="M964.5,-2191.9361C964.5,-2183.4959 964.5,-2174.8888 964.5,-2166.4315"/>
<polygon fill="#c0c0c0" stroke="#c0c0c0" stroke-width="2" points="968.0001,-2166.2111 964.5,-2156.2111 961.0001,-2166.2112 968.0001,-2166.2111"/>
</g>
<!-- 9&#45;&gt;8 -->
<g id="edge14" class="edge">
<title>9&#45;&gt;8</title>
<path fill="none" stroke="#c0c0c0" stroke-width="2" d="M964.5,-2377.6538C964.5,-2369.4553 964.5,-2360.8789 964.5,-2352.2845"/>
<polygon fill="#c0c0c0" stroke="#c0c0c0" stroke-width="2" points="968.0001,-2352.2088 964.5,-2342.2088 961.0001,-2352.2088 968.0001,-2352.2088"/>
</g>
<!-- 10 -->
<g id="node11" class="node">
<title>10</title>
<text text-anchor="start" x="1459" y="-1241.6" font-family="sans" font-weight="bold" font-size="18.00" fill="#000000">metadmg_dfit</text>
<text text-anchor="start" x="1127.5" y="-1217.8" font-family="sans" font-size="10.00" fill="#000000"> </text>
<text text-anchor="start" x="1131.5" y="-1217.8" font-family="sans" font-weight="bold" font-size="14.00" fill="#000000">↪ input</text>
<text text-anchor="start" x="1184.5" y="-1217.8" font-family="sans" font-size="10.00" fill="#000000"> </text>
<text text-anchor="start" x="1127.5" y="-1198" font-family="monospace" font-size="10.00" fill="#000000">/datasets/caeg_dataset/taxonomy/20250210/names.dmp</text>
<text text-anchor="start" x="1127.5" y="-1180" font-family="monospace" font-size="10.00" fill="#000000">/datasets/caeg_dataset/taxonomy/20250210/nodes.dmp</text>
<text text-anchor="start" x="1127.5" y="-1162" font-family="monospace" font-size="10.00" fill="#000000">results/metadmg/lca/{sample}_{library}_{read_type_map}.bdamage.gz</text>
<text text-anchor="start" x="1839.5" y="-1141.8" font-family="sans" font-size="10.00" fill="#000000"> </text>
<text text-anchor="start" x="1843.5" y="-1141.8" font-family="sans" font-weight="bold" font-size="14.00" fill="#000000">output →</text>
<text text-anchor="start" x="1904.5" y="-1141.8" font-family="sans" font-size="10.00" fill="#000000"> </text>
<text text-anchor="start" x="1127.5" y="-1122" font-family="monospace" font-size="10.00" fill="#000000">results/metadmg/dfit/{sample,HD827sonic_1|HD827sonic_2}_{library,lib1|lib2}_{read_type_map,pe|se|singleton|collapsed}.boot.stat.gz</text>
<text text-anchor="start" x="1127.5" y="-1104" font-family="monospace" font-size="10.00" fill="#000000">results/metadmg/dfit/{sample,HD827sonic_1|HD827sonic_2}_{library,lib1|lib2}_{read_type_map,pe|se|singleton|collapsed}.dfit.gz</text>
<polygon fill="#57d995" stroke="#57d995" points="1121.5,-1232 1121.5,-1232 1915.5,-1232 1915.5,-1232 1121.5,-1232"/>
<polygon fill="#57d995" stroke="#57d995" points="1121.5,-1156 1121.5,-1156 1915.5,-1156 1915.5,-1156 1121.5,-1156"/>
<polygon fill="none" stroke="#57d995" stroke-width="2" points="1121,-1095 1121,-1261 1914,-1261 1914,-1095 1121,-1095"/>
</g>
<!-- 10&#45;&gt;1 -->
<g id="edge4" class="edge">
<title>10&#45;&gt;1</title>
<path fill="none" stroke="#c0c0c0" stroke-width="2" d="M1119.9371,-1095.8256C1070.8558,-1082.2885 1034.5632,-1069.0799 1025.5,-1058 977.3465,-999.1318 959.5642,-922.1978 957.088,-846.2315"/>
<polygon fill="#c0c0c0" stroke="#c0c0c0" stroke-width="2" points="960.5817,-845.9211 956.8456,-836.0069 953.5836,-846.087 960.5817,-845.9211"/>
</g>
<!-- 12 -->
<g id="node13" class="node">
<title>12</title>
<text text-anchor="start" x="1344.5" y="-1037.6" font-family="sans" font-weight="bold" font-size="18.00" fill="#000000">metadmg_aggregate</text>
<text text-anchor="start" x="1041.5" y="-1013.8" font-family="sans" font-size="10.00" fill="#000000"> </text>
<text text-anchor="start" x="1045.5" y="-1013.8" font-family="sans" font-weight="bold" font-size="14.00" fill="#000000">↪ input</text>
<text text-anchor="start" x="1098.5" y="-1013.8" font-family="sans" font-size="10.00" fill="#000000"> </text>
<text text-anchor="start" x="1041.5" y="-994" font-family="monospace" font-size="10.00" fill="#000000">/datasets/caeg_dataset/taxonomy/20250210/names.dmp</text>
<text text-anchor="start" x="1041.5" y="-976" font-family="monospace" font-size="10.00" fill="#000000">/datasets/caeg_dataset/taxonomy/20250210/nodes.dmp</text>
<text text-anchor="start" x="1041.5" y="-958" font-family="monospace" font-size="10.00" fill="#000000">results/metadmg/dfit/{sample}_{library}_{read_type_map}.dfit.gz</text>
<text text-anchor="start" x="1041.5" y="-940" font-family="monospace" font-size="10.00" fill="#000000">results/metadmg/lca/{sample}_{library}_{read_type_map}.bdamage.gz</text>
<text text-anchor="start" x="1041.5" y="-922" font-family="monospace" font-size="10.00" fill="#000000">stats/metadmg/lca/{sample}_{library}_{read_type_map}.stat.gz</text>
<text text-anchor="start" x="1753.5" y="-901.8" font-family="sans" font-size="10.00" fill="#000000"> </text>
<text text-anchor="start" x="1757.5" y="-901.8" font-family="sans" font-weight="bold" font-size="14.00" fill="#000000">output →</text>
<text text-anchor="start" x="1818.5" y="-901.8" font-family="sans" font-size="10.00" fill="#000000"> </text>
<text text-anchor="start" x="1041.5" y="-882" font-family="monospace" font-size="10.00" fill="#000000">results/metadmg/aggregate/{sample,HD827sonic_1|HD827sonic_2}_{library,lib1|lib2}_{read_type_map,pe|se|singleton|collapsed}.stat.gz</text>
<polygon fill="#57d963" stroke="#57d963" points="1035.5,-1028 1035.5,-1028 1829.5,-1028 1829.5,-1028 1035.5,-1028"/>
<polygon fill="#57d963" stroke="#57d963" points="1035.5,-916 1035.5,-916 1829.5,-916 1829.5,-916 1035.5,-916"/>
<polygon fill="none" stroke="#57d963" stroke-width="2" points="1035,-873 1035,-1057 1828,-1057 1828,-873 1035,-873"/>
</g>
<!-- 10&#45;&gt;12 -->
<g id="edge18" class="edge">
<title>10&#45;&gt;12</title>
<path fill="none" stroke="#c0c0c0" stroke-width="2" d="M1483.5105,-1093.8168C1480.0281,-1085.1918 1476.4632,-1076.3624 1472.9127,-1067.5687"/>
<polygon fill="#c0c0c0" stroke="#c0c0c0" stroke-width="2" points="1476.0598,-1066.0144 1469.0703,-1058.0521 1469.5689,-1068.6352 1476.0598,-1066.0144"/>
</g>
<!-- 11&#45;&gt;10 -->
<g id="edge16" class="edge">
<title>11&#45;&gt;10</title>
<path fill="none" stroke="#c0c0c0" stroke-width="2" d="M1517.5,-1298C1517.5,-1289.4188 1517.5,-1280.8375 1517.5,-1272.4318"/>
<polygon fill="#c0c0c0" stroke="#c0c0c0" stroke-width="2" points="1521.0001,-1272.2775 1517.5,-1262.2775 1514.0001,-1272.2776 1521.0001,-1272.2775"/>
</g>
<!-- 11&#45;&gt;12 -->
<g id="edge19" class="edge">
<title>11&#45;&gt;12</title>
<path fill="none" stroke="#c0c0c0" stroke-width="2" d="M1881.0177,-1297.9676C1900.8796,-1286.2335 1916.139,-1274.1588 1924.5,-1262 1966.807,-1200.4758 1970.128,-1153.1033 1924.5,-1094 1919.7823,-1087.889 1880.9782,-1075.5185 1827.0285,-1060.7566"/>
<polygon fill="#c0c0c0" stroke="#c0c0c0" stroke-width="2" points="1827.7191,-1057.3174 1817.1512,-1058.0726 1825.8835,-1064.0724 1827.7191,-1057.3174"/>
</g>
<!-- 12&#45;&gt;0 -->
<g id="edge2" class="edge">
<title>12&#45;&gt;0</title>
<path fill="none" stroke="#c0c0c0" stroke-width="2" d="M1431.5,-871.9333C1431.5,-720.0374 1431.5,-418.5526 1431.5,-246.4071"/>
<polygon fill="#c0c0c0" stroke="#c0c0c0" stroke-width="2" points="1435.0001,-246.2756 1431.5,-236.2757 1428.0001,-246.2757 1435.0001,-246.2756"/>
</g>
<!-- 12&#45;&gt;1 -->
<g id="edge5" class="edge">
<title>12&#45;&gt;1</title>
<path fill="none" stroke="#c0c0c0" stroke-width="2" d="M1335.1002,-871.9945C1311.4428,-849.1702 1285.0117,-823.6697 1257.6895,-797.3096"/>
<polygon fill="#c0c0c0" stroke="#c0c0c0" stroke-width="2" points="1259.9716,-794.648 1250.3448,-790.2235 1255.1113,-799.6856 1259.9716,-794.648"/>
</g>
<!-- 13&#45;&gt;0 -->
<g id="edge3" class="edge">
<title>13&#45;&gt;0</title>
<path fill="none" stroke="#c0c0c0" stroke-width="2" d="M2163.5742,-880.6898C2020.0419,-731.155 1720.2242,-418.7988 1552.216,-243.7644"/>
<polygon fill="#c0c0c0" stroke="#c0c0c0" stroke-width="2" points="1554.5087,-241.0986 1545.0588,-236.3079 1549.4586,-245.946 1554.5087,-241.0986"/>
</g>
</g>
</svg>
