<?xml version="1.0" encoding="UTF-8" standalone="no"?>
<!DOCTYPE svg PUBLIC "-//W3C//DTD SVG 1.1//EN"
 "http://www.w3.org/Graphics/SVG/1.1/DTD/svg11.dtd">
<!-- Generated by graphviz version 2.40.1 (0)
 -->
<!-- Title: snakemake_dag Pages: 1 -->
<svg width="420pt" height="836pt"
 viewBox="0.00 0.00 419.50 836.00" xmlns="http://www.w3.org/2000/svg" xmlns:xlink="http://www.w3.org/1999/xlink">
<g id="graph0" class="graph" transform="scale(1 1) rotate(0) translate(4 832)">
<title>snakemake_dag</title>
<polygon fill="#ffffff" stroke="transparent" points="-4,4 -4,-832 415.5,-832 415.5,4 -4,4"/>
<!-- 0 -->
<g id="node1" class="node">
<title>0</title>
<path fill="none" stroke="#b6d856" stroke-width="2" d="M231,-36C231,-36 201,-36 201,-36 195,-36 189,-30 189,-24 189,-24 189,-12 189,-12 189,-6 195,0 201,0 201,0 231,0 231,0 237,0 243,-6 243,-12 243,-12 243,-24 243,-24 243,-30 237,-36 231,-36"/>
<text text-anchor="middle" x="216" y="-15.5" font-family="sans" font-size="10.00" fill="#000000">all</text>
</g>
<!-- 1 -->
<g id="node2" class="node">
<title>1</title>
<path fill="none" stroke="#56d86b" stroke-width="2" d="M91,-108C91,-108 61,-108 61,-108 55,-108 49,-102 49,-96 49,-96 49,-84 49,-84 49,-78 55,-72 61,-72 61,-72 91,-72 91,-72 97,-72 103,-78 103,-84 103,-84 103,-96 103,-96 103,-102 97,-108 91,-108"/>
<text text-anchor="middle" x="76" y="-87.5" font-family="sans" font-size="10.00" fill="#000000">multiqc</text>
</g>
<!-- 1&#45;&gt;0 -->
<g id="edge1" class="edge">
<title>1&#45;&gt;0</title>
<path fill="none" stroke="#c0c0c0" stroke-width="2" d="M103.3258,-75.9468C125.1033,-64.7469 155.7917,-48.9642 179.6431,-36.6978"/>
<polygon fill="#c0c0c0" stroke="#c0c0c0" stroke-width="2" points="181.451,-39.7038 188.7432,-32.0178 178.2495,-33.4788 181.451,-39.7038"/>
</g>
<!-- 2 -->
<g id="node3" class="node">
<title>2</title>
<path fill="none" stroke="#56d882" stroke-width="2" d="M158,-828C158,-828 102,-828 102,-828 96,-828 90,-822 90,-816 90,-816 90,-804 90,-804 90,-798 96,-792 102,-792 102,-792 158,-792 158,-792 164,-792 170,-798 170,-804 170,-804 170,-816 170,-816 170,-822 164,-828 158,-828"/>
<text text-anchor="middle" x="130" y="-807.5" font-family="sans" font-size="10.00" fill="#000000">shard_bowtie2</text>
</g>
<!-- 2&#45;&gt;1 -->
<g id="edge6" class="edge">
<title>2&#45;&gt;1</title>
<path fill="none" stroke="#c0c0c0" stroke-width="2" d="M96.5218,-791.9646C58.0037,-768.4961 0,-723.5938 0,-666 0,-666 0,-666 0,-234 0,-188.656 29.8384,-143.5999 52.1226,-116.2735"/>
<polygon fill="#c0c0c0" stroke="#c0c0c0" stroke-width="2" points="55.0006,-118.2889 58.7544,-108.3814 49.6415,-113.7856 55.0006,-118.2889"/>
</g>
<!-- 7 -->
<g id="node8" class="node">
<title>7</title>
<path fill="none" stroke="#569ad8" stroke-width="2" d="M243.5,-612C243.5,-612 114.5,-612 114.5,-612 108.5,-612 102.5,-606 102.5,-600 102.5,-600 102.5,-588 102.5,-588 102.5,-582 108.5,-576 114.5,-576 114.5,-576 243.5,-576 243.5,-576 249.5,-576 255.5,-582 255.5,-588 255.5,-588 255.5,-600 255.5,-600 255.5,-606 249.5,-612 243.5,-612"/>
<text text-anchor="middle" x="179" y="-591.5" font-family="sans" font-size="10.00" fill="#000000">shard_saturated_reads_remove</text>
</g>
<!-- 2&#45;&gt;7 -->
<g id="edge13" class="edge">
<title>2&#45;&gt;7</title>
<path fill="none" stroke="#c0c0c0" stroke-width="2" d="M129.8592,-791.5309C130.1302,-760.9332 132.8357,-698.1294 149,-648 151.9971,-638.7052 156.658,-629.1902 161.4197,-620.7878"/>
<polygon fill="#c0c0c0" stroke="#c0c0c0" stroke-width="2" points="164.4423,-622.5527 166.5523,-612.1701 158.4281,-618.9707 164.4423,-622.5527"/>
</g>
<!-- 9 -->
<g id="node10" class="node">
<title>9</title>
<path fill="none" stroke="#56d8c9" stroke-width="2" d="M250.5,-756C250.5,-756 181.5,-756 181.5,-756 175.5,-756 169.5,-750 169.5,-744 169.5,-744 169.5,-732 169.5,-732 169.5,-726 175.5,-720 181.5,-720 181.5,-720 250.5,-720 250.5,-720 256.5,-720 262.5,-726 262.5,-732 262.5,-732 262.5,-744 262.5,-744 262.5,-750 256.5,-756 250.5,-756"/>
<text text-anchor="middle" x="216" y="-735.5" font-family="sans" font-size="10.00" fill="#000000">shard_count_alns</text>
</g>
<!-- 2&#45;&gt;9 -->
<g id="edge16" class="edge">
<title>2&#45;&gt;9</title>
<path fill="none" stroke="#c0c0c0" stroke-width="2" d="M151.7014,-791.8314C162.1921,-783.0485 174.9455,-772.3712 186.3194,-762.8489"/>
<polygon fill="#c0c0c0" stroke="#c0c0c0" stroke-width="2" points="188.8847,-765.2659 194.3055,-756.1628 184.3911,-759.8986 188.8847,-765.2659"/>
</g>
<!-- 3 -->
<g id="node4" class="node">
<title>3</title>
<path fill="none" stroke="#ced856" stroke-width="2" d="M80,-252C80,-252 40,-252 40,-252 34,-252 28,-246 28,-240 28,-240 28,-228 28,-228 28,-222 34,-216 40,-216 40,-216 80,-216 80,-216 86,-216 92,-222 92,-228 92,-228 92,-240 92,-240 92,-246 86,-252 80,-252"/>
<text text-anchor="middle" x="60" y="-231.5" font-family="sans" font-size="10.00" fill="#000000">align_stats</text>
</g>
<!-- 3&#45;&gt;1 -->
<g id="edge5" class="edge">
<title>3&#45;&gt;1</title>
<path fill="none" stroke="#c0c0c0" stroke-width="2" d="M59.1822,-215.9727C58.6398,-197.7327 58.5614,-168.7686 62,-144 63.1799,-135.5012 65.2198,-126.4176 67.3832,-118.1716"/>
<polygon fill="#c0c0c0" stroke="#c0c0c0" stroke-width="2" points="70.8262,-118.8541 70.1341,-108.2819 64.0822,-116.9782 70.8262,-118.8541"/>
</g>
<!-- 4 -->
<g id="node5" class="node">
<title>4</title>
<path fill="none" stroke="#d88556" stroke-width="2" d="M201.5,-396C201.5,-396 156.5,-396 156.5,-396 150.5,-396 144.5,-390 144.5,-384 144.5,-384 144.5,-372 144.5,-372 144.5,-366 150.5,-360 156.5,-360 156.5,-360 201.5,-360 201.5,-360 207.5,-360 213.5,-366 213.5,-372 213.5,-372 213.5,-384 213.5,-384 213.5,-390 207.5,-396 201.5,-396"/>
<text text-anchor="middle" x="179" y="-375.5" font-family="sans" font-size="10.00" fill="#000000">align_merge</text>
</g>
<!-- 4&#45;&gt;3 -->
<g id="edge9" class="edge">
<title>4&#45;&gt;3</title>
<path fill="none" stroke="#c0c0c0" stroke-width="2" d="M163.1349,-359.5987C154.2179,-349.2007 142.9195,-335.9328 133,-324 115.1555,-302.5337 95.21,-277.8985 80.6829,-259.8353"/>
<polygon fill="#c0c0c0" stroke="#c0c0c0" stroke-width="2" points="83.4075,-257.6383 74.4166,-252.0335 77.9499,-262.0218 83.4075,-257.6383"/>
</g>
<!-- 11 -->
<g id="node12" class="node">
<title>11</title>
<path fill="none" stroke="#59d856" stroke-width="2" d="M204.5,-324C204.5,-324 153.5,-324 153.5,-324 147.5,-324 141.5,-318 141.5,-312 141.5,-312 141.5,-300 141.5,-300 141.5,-294 147.5,-288 153.5,-288 153.5,-288 204.5,-288 204.5,-288 210.5,-288 216.5,-294 216.5,-300 216.5,-300 216.5,-312 216.5,-312 216.5,-318 210.5,-324 204.5,-324"/>
<text text-anchor="middle" x="179" y="-303.5" font-family="sans" font-size="10.00" fill="#000000">metadmg_lca</text>
</g>
<!-- 4&#45;&gt;11 -->
<g id="edge18" class="edge">
<title>4&#45;&gt;11</title>
<path fill="none" stroke="#c0c0c0" stroke-width="2" d="M179,-359.8314C179,-352.131 179,-342.9743 179,-334.4166"/>
<polygon fill="#c0c0c0" stroke="#c0c0c0" stroke-width="2" points="182.5001,-334.4132 179,-324.4133 175.5001,-334.4133 182.5001,-334.4132"/>
</g>
<!-- 14 -->
<g id="node15" class="node">
<title>14</title>
<path fill="none" stroke="#88d856" stroke-width="2" d="M312.5,-180C312.5,-180 239.5,-180 239.5,-180 233.5,-180 227.5,-174 227.5,-168 227.5,-168 227.5,-156 227.5,-156 227.5,-150 233.5,-144 239.5,-144 239.5,-144 312.5,-144 312.5,-144 318.5,-144 324.5,-150 324.5,-156 324.5,-156 324.5,-168 324.5,-168 324.5,-174 318.5,-180 312.5,-180"/>
<text text-anchor="middle" x="276" y="-159.5" font-family="sans" font-size="10.00" fill="#000000">metadmg_damage</text>
</g>
<!-- 4&#45;&gt;14 -->
<g id="edge22" class="edge">
<title>4&#45;&gt;14</title>
<path fill="none" stroke="#c0c0c0" stroke-width="2" d="M198.0909,-359.9937C207.6073,-350.1349 218.6271,-337.2498 226,-324 250.2146,-280.4841 264.2617,-223.7282 271.0041,-190.2399"/>
<polygon fill="#c0c0c0" stroke="#c0c0c0" stroke-width="2" points="274.4773,-190.7136 272.9401,-180.2309 267.6047,-189.3842 274.4773,-190.7136"/>
</g>
<!-- 5 -->
<g id="node6" class="node">
<title>5</title>
<path fill="none" stroke="#5682d8" stroke-width="2" d="M213,-468C213,-468 145,-468 145,-468 139,-468 133,-462 133,-456 133,-456 133,-444 133,-444 133,-438 139,-432 145,-432 145,-432 213,-432 213,-432 219,-432 225,-438 225,-444 225,-444 225,-456 225,-456 225,-462 219,-468 213,-468"/>
<text text-anchor="middle" x="179" y="-447.5" font-family="sans" font-size="10.00" fill="#000000">shard_sort_query</text>
</g>
<!-- 5&#45;&gt;4 -->
<g id="edge10" class="edge">
<title>5&#45;&gt;4</title>
<path fill="none" stroke="#c0c0c0" stroke-width="2" d="M179,-431.8314C179,-424.131 179,-414.9743 179,-406.4166"/>
<polygon fill="#c0c0c0" stroke="#c0c0c0" stroke-width="2" points="182.5001,-406.4132 179,-396.4133 175.5001,-406.4133 182.5001,-406.4132"/>
</g>
<!-- 6 -->
<g id="node7" class="node">
<title>6</title>
<path fill="none" stroke="#566bd8" stroke-width="2" d="M205.5,-540C205.5,-540 152.5,-540 152.5,-540 146.5,-540 140.5,-534 140.5,-528 140.5,-528 140.5,-516 140.5,-516 140.5,-510 146.5,-504 152.5,-504 152.5,-504 205.5,-504 205.5,-504 211.5,-504 217.5,-510 217.5,-516 217.5,-516 217.5,-528 217.5,-528 217.5,-534 211.5,-540 205.5,-540"/>
<text text-anchor="middle" x="179" y="-519.5" font-family="sans" font-size="10.00" fill="#000000">shard_unicorn</text>
</g>
<!-- 6&#45;&gt;5 -->
<g id="edge11" class="edge">
<title>6&#45;&gt;5</title>
<path fill="none" stroke="#c0c0c0" stroke-width="2" d="M179,-503.8314C179,-496.131 179,-486.9743 179,-478.4166"/>
<polygon fill="#c0c0c0" stroke="#c0c0c0" stroke-width="2" points="182.5001,-478.4132 179,-468.4133 175.5001,-478.4133 182.5001,-478.4132"/>
</g>
<!-- 7&#45;&gt;6 -->
<g id="edge12" class="edge">
<title>7&#45;&gt;6</title>
<path fill="none" stroke="#c0c0c0" stroke-width="2" d="M179,-575.8314C179,-568.131 179,-558.9743 179,-550.4166"/>
<polygon fill="#c0c0c0" stroke="#c0c0c0" stroke-width="2" points="182.5001,-550.4132 179,-540.4133 175.5001,-550.4133 182.5001,-550.4132"/>
</g>
<!-- 8 -->
<g id="node9" class="node">
<title>8</title>
<path fill="none" stroke="#56b1d8" stroke-width="2" d="M286,-684C286,-684 170,-684 170,-684 164,-684 158,-678 158,-672 158,-672 158,-660 158,-660 158,-654 164,-648 170,-648 170,-648 286,-648 286,-648 292,-648 298,-654 298,-660 298,-660 298,-672 298,-672 298,-678 292,-684 286,-684"/>
<text text-anchor="middle" x="228" y="-663.5" font-family="sans" font-size="10.00" fill="#000000">shard_saturated_reads_filter</text>
</g>
<!-- 8&#45;&gt;7 -->
<g id="edge14" class="edge">
<title>8&#45;&gt;7</title>
<path fill="none" stroke="#c0c0c0" stroke-width="2" d="M215.6352,-647.8314C210.0491,-639.6232 203.337,-629.7606 197.1928,-620.7323"/>
<polygon fill="#c0c0c0" stroke="#c0c0c0" stroke-width="2" points="200.051,-618.7112 191.5313,-612.4133 194.264,-622.6496 200.051,-618.7112"/>
</g>
<!-- 13 -->
<g id="node14" class="node">
<title>13</title>
<path fill="none" stroke="#56c9d8" stroke-width="2" d="M399.5,-540C399.5,-540 272.5,-540 272.5,-540 266.5,-540 260.5,-534 260.5,-528 260.5,-528 260.5,-516 260.5,-516 260.5,-510 266.5,-504 272.5,-504 272.5,-504 399.5,-504 399.5,-504 405.5,-504 411.5,-510 411.5,-516 411.5,-516 411.5,-528 411.5,-528 411.5,-534 405.5,-540 399.5,-540"/>
<text text-anchor="middle" x="336" y="-519.5" font-family="sans" font-size="10.00" fill="#000000">shard_saturated_reads_extract</text>
</g>
<!-- 8&#45;&gt;13 -->
<g id="edge21" class="edge">
<title>8&#45;&gt;13</title>
<path fill="none" stroke="#c0c0c0" stroke-width="2" d="M241.6783,-647.7623C260.5861,-622.5518 294.8173,-576.9103 316.4286,-548.0952"/>
<polygon fill="#c0c0c0" stroke="#c0c0c0" stroke-width="2" points="319.2328,-550.1897 322.4328,-540.0896 313.6327,-545.9896 319.2328,-550.1897"/>
</g>
<!-- 9&#45;&gt;8 -->
<g id="edge15" class="edge">
<title>9&#45;&gt;8</title>
<path fill="none" stroke="#c0c0c0" stroke-width="2" d="M219.0281,-719.8314C220.3115,-712.131 221.8376,-702.9743 223.2639,-694.4166"/>
<polygon fill="#c0c0c0" stroke="#c0c0c0" stroke-width="2" points="226.7394,-694.8526 224.9311,-684.4133 219.8347,-693.7018 226.7394,-694.8526"/>
</g>
<!-- 10 -->
<g id="node11" class="node">
<title>10</title>
<path fill="none" stroke="#70d856" stroke-width="2" d="M174,-252C174,-252 122,-252 122,-252 116,-252 110,-246 110,-240 110,-240 110,-228 110,-228 110,-222 116,-216 122,-216 122,-216 174,-216 174,-216 180,-216 186,-222 186,-228 186,-228 186,-240 186,-240 186,-246 180,-252 174,-252"/>
<text text-anchor="middle" x="148" y="-231.5" font-family="sans" font-size="10.00" fill="#000000">metadmg_dfit</text>
</g>
<!-- 10&#45;&gt;1 -->
<g id="edge8" class="edge">
<title>10&#45;&gt;1</title>
<path fill="none" stroke="#c0c0c0" stroke-width="2" d="M125.0548,-215.9943C114.3566,-206.4144 102.3851,-193.7774 95,-180 84.783,-160.9396 80.0586,-136.8599 77.8748,-118.4049"/>
<polygon fill="#c0c0c0" stroke="#c0c0c0" stroke-width="2" points="81.3389,-117.871 76.8602,-108.2693 74.3737,-118.5683 81.3389,-117.871"/>
</g>
<!-- 12 -->
<g id="node13" class="node">
<title>12</title>
<path fill="none" stroke="#9fd856" stroke-width="2" d="M197.5,-180C197.5,-180 116.5,-180 116.5,-180 110.5,-180 104.5,-174 104.5,-168 104.5,-168 104.5,-156 104.5,-156 104.5,-150 110.5,-144 116.5,-144 116.5,-144 197.5,-144 197.5,-144 203.5,-144 209.5,-150 209.5,-156 209.5,-156 209.5,-168 209.5,-168 209.5,-174 203.5,-180 197.5,-180"/>
<text text-anchor="middle" x="157" y="-159.5" font-family="sans" font-size="10.00" fill="#000000">metadmg_aggregate</text>
</g>
<!-- 10&#45;&gt;12 -->
<g id="edge20" class="edge">
<title>10&#45;&gt;12</title>
<path fill="none" stroke="#c0c0c0" stroke-width="2" d="M150.2711,-215.8314C151.2336,-208.131 152.3782,-198.9743 153.4479,-190.4166"/>
<polygon fill="#c0c0c0" stroke="#c0c0c0" stroke-width="2" points="156.9309,-190.7702 154.6983,-180.4133 149.9849,-189.9019 156.9309,-190.7702"/>
</g>
<!-- 11&#45;&gt;10 -->
<g id="edge17" class="edge">
<title>11&#45;&gt;10</title>
<path fill="none" stroke="#c0c0c0" stroke-width="2" d="M171.1774,-287.8314C167.7891,-279.9617 163.7459,-270.5712 159.9924,-261.8533"/>
<polygon fill="#c0c0c0" stroke="#c0c0c0" stroke-width="2" points="163.0973,-260.214 155.9279,-252.4133 156.6679,-262.9822 163.0973,-260.214"/>
</g>
<!-- 11&#45;&gt;12 -->
<g id="edge19" class="edge">
<title>11&#45;&gt;12</title>
<path fill="none" stroke="#c0c0c0" stroke-width="2" d="M187.2957,-287.7361C194.4979,-269.3121 202.6639,-240.2078 195,-216 191.9185,-206.2664 186.3817,-196.7695 180.4711,-188.5228"/>
<polygon fill="#c0c0c0" stroke="#c0c0c0" stroke-width="2" points="183.1248,-186.2316 174.2635,-180.4239 177.569,-190.49 183.1248,-186.2316"/>
</g>
<!-- 12&#45;&gt;0 -->
<g id="edge3" class="edge">
<title>12&#45;&gt;0</title>
<path fill="none" stroke="#c0c0c0" stroke-width="2" d="M164.4724,-143.7623C174.6243,-118.9846 192.8624,-74.4714 204.6942,-45.5939"/>
<polygon fill="#c0c0c0" stroke="#c0c0c0" stroke-width="2" points="208.0356,-46.67 208.5883,-36.0896 201.5582,-44.0161 208.0356,-46.67"/>
</g>
<!-- 12&#45;&gt;1 -->
<g id="edge7" class="edge">
<title>12&#45;&gt;1</title>
<path fill="none" stroke="#c0c0c0" stroke-width="2" d="M136.5603,-143.8314C126.6795,-135.0485 114.6676,-124.3712 103.955,-114.8489"/>
<polygon fill="#c0c0c0" stroke="#c0c0c0" stroke-width="2" points="106.2326,-112.1906 96.4332,-108.1628 101.582,-117.4224 106.2326,-112.1906"/>
</g>
<!-- 13&#45;&gt;0 -->
<g id="edge2" class="edge">
<title>13&#45;&gt;0</title>
<path fill="none" stroke="#c0c0c0" stroke-width="2" d="M339.5224,-503.8955C344.5018,-476.6824 353,-423.5642 353,-378 353,-378 353,-378 353,-162 353,-103.2928 292.4914,-59.0168 251.9,-35.9197"/>
<polygon fill="#c0c0c0" stroke="#c0c0c0" stroke-width="2" points="253.5133,-32.8124 243.0668,-31.0455 250.1313,-38.9412 253.5133,-32.8124"/>
</g>
<!-- 14&#45;&gt;0 -->
<g id="edge4" class="edge">
<title>14&#45;&gt;0</title>
<path fill="none" stroke="#c0c0c0" stroke-width="2" d="M268.401,-143.7623C258.0769,-118.9846 239.5297,-74.4714 227.4975,-45.5939"/>
<polygon fill="#c0c0c0" stroke="#c0c0c0" stroke-width="2" points="230.6143,-43.9742 223.5373,-36.0896 224.1528,-46.6666 230.6143,-43.9742"/>
</g>
</g>
</svg>
