<?xml version="1.0" encoding="UTF-8" standalone="no"?>
<!DOCTYPE svg PUBLIC "-//W3C//DTD SVG 1.1//EN"
 "http://www.w3.org/Graphics/SVG/1.1/DTD/svg11.dtd">
<!-- Generated by graphviz version 2.40.1 (0)
 -->
<!-- Title: snakemake_dag Pages: 1 -->
<svg width="344pt" height="836pt"
 viewBox="0.00 0.00 343.50 836.00" xmlns="http://www.w3.org/2000/svg" xmlns:xlink="http://www.w3.org/1999/xlink">
<g id="graph0" class="graph" transform="scale(1 1) rotate(0) translate(4 832)">
<title>snakemake_dag</title>
<polygon fill="#ffffff" stroke="transparent" points="-4,4 -4,-832 339.5,-832 339.5,4 -4,4"/>
<!-- 0 -->
<g id="node1" class="node">
<title>0</title>
<path fill="none" stroke="#afd856" stroke-width="2" d="M183,-36C183,-36 153,-36 153,-36 147,-36 141,-30 141,-24 141,-24 141,-12 141,-12 141,-6 147,0 153,0 153,0 183,0 183,0 189,0 195,-6 195,-12 195,-12 195,-24 195,-24 195,-30 189,-36 183,-36"/>
<text text-anchor="middle" x="168" y="-15.5" font-family="sans" font-size="10.00" fill="#000000">all</text>
</g>
<!-- 1 -->
<g id="node2" class="node">
<title>1</title>
<path fill="none" stroke="#56d8c9" stroke-width="2" d="M102,-108C102,-108 72,-108 72,-108 66,-108 60,-102 60,-96 60,-96 60,-84 60,-84 60,-78 66,-72 72,-72 72,-72 102,-72 102,-72 108,-72 114,-78 114,-84 114,-84 114,-96 114,-96 114,-102 108,-108 102,-108"/>
<text text-anchor="middle" x="87" y="-87.5" font-family="sans" font-size="10.00" fill="#000000">multiqc</text>
</g>
<!-- 1&#45;&gt;0 -->
<g id="edge1" class="edge">
<title>1&#45;&gt;0</title>
<path fill="none" stroke="#c0c0c0" stroke-width="2" d="M107.4397,-71.8314C117.3205,-63.0485 129.3324,-52.3712 140.045,-42.8489"/>
<polygon fill="#c0c0c0" stroke="#c0c0c0" stroke-width="2" points="142.418,-45.4224 147.5668,-36.1628 137.7674,-40.1906 142.418,-45.4224"/>
</g>
<!-- 2 -->
<g id="node3" class="node">
<title>2</title>
<path fill="none" stroke="#97d856" stroke-width="2" d="M60,-828C60,-828 30,-828 30,-828 24,-828 18,-822 18,-816 18,-816 18,-804 18,-804 18,-798 24,-792 30,-792 30,-792 60,-792 60,-792 66,-792 72,-798 72,-804 72,-804 72,-816 72,-816 72,-822 66,-828 60,-828"/>
<text text-anchor="middle" x="45" y="-807.5" font-family="sans" font-size="10.00" fill="#000000">bowtie2</text>
</g>
<!-- 2&#45;&gt;1 -->
<g id="edge4" class="edge">
<title>2&#45;&gt;1</title>
<path fill="none" stroke="#c0c0c0" stroke-width="2" d="M35.4567,-791.9269C22.2473,-765.1844 0,-713.1461 0,-666 0,-666 0,-666 0,-234 0,-187.2117 34.0641,-142.5954 59.5622,-115.7524"/>
<polygon fill="#c0c0c0" stroke="#c0c0c0" stroke-width="2" points="62.3267,-117.9318 66.8218,-108.3378 57.3249,-113.0346 62.3267,-117.9318"/>
</g>
<!-- 7 -->
<g id="node8" class="node">
<title>7</title>
<path fill="none" stroke="#568ad8" stroke-width="2" d="M204.5,-612C204.5,-612 75.5,-612 75.5,-612 69.5,-612 63.5,-606 63.5,-600 63.5,-600 63.5,-588 63.5,-588 63.5,-582 69.5,-576 75.5,-576 75.5,-576 204.5,-576 204.5,-576 210.5,-576 216.5,-582 216.5,-588 216.5,-588 216.5,-600 216.5,-600 216.5,-606 210.5,-612 204.5,-612"/>
<text text-anchor="middle" x="140" y="-591.5" font-family="sans" font-size="10.00" fill="#000000">shard_saturated_reads_remove</text>
</g>
<!-- 2&#45;&gt;7 -->
<g id="edge12" class="edge">
<title>2&#45;&gt;7</title>
<path fill="none" stroke="#c0c0c0" stroke-width="2" d="M42.6169,-791.9807C39.3634,-760.4012 36.7178,-694.0449 64,-648 71.1705,-635.8982 82.2311,-625.7898 93.7143,-617.7159"/>
<polygon fill="#c0c0c0" stroke="#c0c0c0" stroke-width="2" points="95.6714,-620.618 102.101,-612.1971 91.8234,-614.7705 95.6714,-620.618"/>
</g>
<!-- 9 -->
<g id="node10" class="node">
<title>9</title>
<path fill="none" stroke="#56b9d8" stroke-width="2" d="M164.5,-756C164.5,-756 95.5,-756 95.5,-756 89.5,-756 83.5,-750 83.5,-744 83.5,-744 83.5,-732 83.5,-732 83.5,-726 89.5,-720 95.5,-720 95.5,-720 164.5,-720 164.5,-720 170.5,-720 176.5,-726 176.5,-732 176.5,-732 176.5,-744 176.5,-744 176.5,-750 170.5,-756 164.5,-756"/>
<text text-anchor="middle" x="130" y="-735.5" font-family="sans" font-size="10.00" fill="#000000">shard_count_alns</text>
</g>
<!-- 2&#45;&gt;9 -->
<g id="edge15" class="edge">
<title>2&#45;&gt;9</title>
<path fill="none" stroke="#c0c0c0" stroke-width="2" d="M66.4491,-791.8314C76.8178,-783.0485 89.4229,-772.3712 100.6646,-762.8489"/>
<polygon fill="#c0c0c0" stroke="#c0c0c0" stroke-width="2" points="103.1895,-765.297 108.5578,-756.1628 98.6651,-759.9556 103.1895,-765.297"/>
</g>
<!-- 3 -->
<g id="node4" class="node">
<title>3</title>
<path fill="none" stroke="#c6d856" stroke-width="2" d="M80,-252C80,-252 40,-252 40,-252 34,-252 28,-246 28,-240 28,-240 28,-228 28,-228 28,-222 34,-216 40,-216 40,-216 80,-216 80,-216 86,-216 92,-222 92,-228 92,-228 92,-240 92,-240 92,-246 86,-252 80,-252"/>
<text text-anchor="middle" x="60" y="-231.5" font-family="sans" font-size="10.00" fill="#000000">align_stats</text>
</g>
<!-- 3&#45;&gt;1 -->
<g id="edge5" class="edge">
<title>3&#45;&gt;1</title>
<path fill="none" stroke="#c0c0c0" stroke-width="2" d="M62.0112,-215.9704C64.1848,-197.7286 68.0173,-168.7631 73,-144 74.6926,-135.5883 76.8903,-126.5315 79.0409,-118.2833"/>
<polygon fill="#c0c0c0" stroke="#c0c0c0" stroke-width="2" points="82.4876,-118.9431 81.6982,-108.3777 75.7267,-117.1294 82.4876,-118.9431"/>
</g>
<!-- 4 -->
<g id="node5" class="node">
<title>4</title>
<path fill="none" stroke="#d88556" stroke-width="2" d="M169.5,-396C169.5,-396 124.5,-396 124.5,-396 118.5,-396 112.5,-390 112.5,-384 112.5,-384 112.5,-372 112.5,-372 112.5,-366 118.5,-360 124.5,-360 124.5,-360 169.5,-360 169.5,-360 175.5,-360 181.5,-366 181.5,-372 181.5,-372 181.5,-384 181.5,-384 181.5,-390 175.5,-396 169.5,-396"/>
<text text-anchor="middle" x="147" y="-375.5" font-family="sans" font-size="10.00" fill="#000000">align_merge</text>
</g>
<!-- 4&#45;&gt;3 -->
<g id="edge8" class="edge">
<title>4&#45;&gt;3</title>
<path fill="none" stroke="#c0c0c0" stroke-width="2" d="M129.0121,-359.5234C119.8889,-349.5358 109.0637,-336.6775 101,-324 88.4819,-304.3195 77.7043,-280.1835 70.3449,-261.862"/>
<polygon fill="#c0c0c0" stroke="#c0c0c0" stroke-width="2" points="73.5242,-260.3821 66.6186,-252.3469 67.0062,-262.9347 73.5242,-260.3821"/>
</g>
<!-- 11 -->
<g id="node12" class="node">
<title>11</title>
<path fill="none" stroke="#56d8a9" stroke-width="2" d="M173.5,-324C173.5,-324 122.5,-324 122.5,-324 116.5,-324 110.5,-318 110.5,-312 110.5,-312 110.5,-300 110.5,-300 110.5,-294 116.5,-288 122.5,-288 122.5,-288 173.5,-288 173.5,-288 179.5,-288 185.5,-294 185.5,-300 185.5,-300 185.5,-312 185.5,-312 185.5,-318 179.5,-324 173.5,-324"/>
<text text-anchor="middle" x="148" y="-303.5" font-family="sans" font-size="10.00" fill="#000000">metadmg_lca</text>
</g>
<!-- 4&#45;&gt;11 -->
<g id="edge17" class="edge">
<title>4&#45;&gt;11</title>
<path fill="none" stroke="#c0c0c0" stroke-width="2" d="M147.2523,-359.8314C147.3593,-352.131 147.4865,-342.9743 147.6053,-334.4166"/>
<polygon fill="#c0c0c0" stroke="#c0c0c0" stroke-width="2" points="151.1049,-334.4609 147.7443,-324.4133 144.1056,-334.3637 151.1049,-334.4609"/>
</g>
<!-- 13 -->
<g id="node14" class="node">
<title>13</title>
<path fill="none" stroke="#56d87b" stroke-width="2" d="M323.5,-180C323.5,-180 250.5,-180 250.5,-180 244.5,-180 238.5,-174 238.5,-168 238.5,-168 238.5,-156 238.5,-156 238.5,-150 244.5,-144 250.5,-144 250.5,-144 323.5,-144 323.5,-144 329.5,-144 335.5,-150 335.5,-156 335.5,-156 335.5,-168 335.5,-168 335.5,-174 329.5,-180 323.5,-180"/>
<text text-anchor="middle" x="287" y="-159.5" font-family="sans" font-size="10.00" fill="#000000">metadmg_damage</text>
</g>
<!-- 4&#45;&gt;13 -->
<g id="edge20" class="edge">
<title>4&#45;&gt;13</title>
<path fill="none" stroke="#c0c0c0" stroke-width="2" d="M164.9007,-359.8203C174.3982,-349.7093 185.943,-336.6447 195,-324 227.0554,-279.2468 257.1525,-222.395 273.7264,-189.3133"/>
<polygon fill="#c0c0c0" stroke="#c0c0c0" stroke-width="2" points="276.9161,-190.7593 278.2281,-180.246 270.6463,-187.6465 276.9161,-190.7593"/>
</g>
<!-- 5 -->
<g id="node6" class="node">
<title>5</title>
<path fill="none" stroke="#5673d8" stroke-width="2" d="M180,-468C180,-468 112,-468 112,-468 106,-468 100,-462 100,-456 100,-456 100,-444 100,-444 100,-438 106,-432 112,-432 112,-432 180,-432 180,-432 186,-432 192,-438 192,-444 192,-444 192,-456 192,-456 192,-462 186,-468 180,-468"/>
<text text-anchor="middle" x="146" y="-447.5" font-family="sans" font-size="10.00" fill="#000000">shard_sort_query</text>
</g>
<!-- 5&#45;&gt;4 -->
<g id="edge9" class="edge">
<title>5&#45;&gt;4</title>
<path fill="none" stroke="#c0c0c0" stroke-width="2" d="M146.2523,-431.8314C146.3593,-424.131 146.4865,-414.9743 146.6053,-406.4166"/>
<polygon fill="#c0c0c0" stroke="#c0c0c0" stroke-width="2" points="150.1049,-406.4609 146.7443,-396.4133 143.1056,-406.3637 150.1049,-406.4609"/>
</g>
<!-- 6 -->
<g id="node7" class="node">
<title>6</title>
<path fill="none" stroke="#56d0d8" stroke-width="2" d="M184,-540C184,-540 104,-540 104,-540 98,-540 92,-534 92,-528 92,-528 92,-516 92,-516 92,-510 98,-504 104,-504 104,-504 184,-504 184,-504 190,-504 196,-510 196,-516 196,-516 196,-528 196,-528 196,-534 190,-540 184,-540"/>
<text text-anchor="middle" x="144" y="-519.5" font-family="sans" font-size="10.00" fill="#000000">shard_clean_header</text>
</g>
<!-- 6&#45;&gt;5 -->
<g id="edge10" class="edge">
<title>6&#45;&gt;5</title>
<path fill="none" stroke="#c0c0c0" stroke-width="2" d="M144.5047,-503.8314C144.7186,-496.131 144.9729,-486.9743 145.2106,-478.4166"/>
<polygon fill="#c0c0c0" stroke="#c0c0c0" stroke-width="2" points="148.7094,-478.5066 145.4885,-468.4133 141.7121,-478.3122 148.7094,-478.5066"/>
</g>
<!-- 7&#45;&gt;6 -->
<g id="edge11" class="edge">
<title>7&#45;&gt;6</title>
<path fill="none" stroke="#c0c0c0" stroke-width="2" d="M141.0094,-575.8314C141.4372,-568.131 141.9459,-558.9743 142.4213,-550.4166"/>
<polygon fill="#c0c0c0" stroke="#c0c0c0" stroke-width="2" points="145.9169,-550.592 142.977,-540.4133 138.9276,-550.2037 145.9169,-550.592"/>
</g>
<!-- 8 -->
<g id="node9" class="node">
<title>8</title>
<path fill="none" stroke="#56a2d8" stroke-width="2" d="M195,-684C195,-684 85,-684 85,-684 79,-684 73,-678 73,-672 73,-672 73,-660 73,-660 73,-654 79,-648 85,-648 85,-648 195,-648 195,-648 201,-648 207,-654 207,-660 207,-660 207,-672 207,-672 207,-678 201,-684 195,-684"/>
<text text-anchor="middle" x="140" y="-663.5" font-family="sans" font-size="10.00" fill="#000000">shard_saturated_reads_get</text>
</g>
<!-- 8&#45;&gt;7 -->
<g id="edge13" class="edge">
<title>8&#45;&gt;7</title>
<path fill="none" stroke="#c0c0c0" stroke-width="2" d="M140,-647.8314C140,-640.131 140,-630.9743 140,-622.4166"/>
<polygon fill="#c0c0c0" stroke="#c0c0c0" stroke-width="2" points="143.5001,-622.4132 140,-612.4133 136.5001,-622.4133 143.5001,-622.4132"/>
</g>
<!-- 9&#45;&gt;8 -->
<g id="edge14" class="edge">
<title>9&#45;&gt;8</title>
<path fill="none" stroke="#c0c0c0" stroke-width="2" d="M132.5234,-719.8314C133.5929,-712.131 134.8647,-702.9743 136.0532,-694.4166"/>
<polygon fill="#c0c0c0" stroke="#c0c0c0" stroke-width="2" points="139.5336,-694.7997 137.4426,-684.4133 132.6001,-693.8367 139.5336,-694.7997"/>
</g>
<!-- 10 -->
<g id="node11" class="node">
<title>10</title>
<path fill="none" stroke="#56d892" stroke-width="2" d="M174,-252C174,-252 122,-252 122,-252 116,-252 110,-246 110,-240 110,-240 110,-228 110,-228 110,-222 116,-216 122,-216 122,-216 174,-216 174,-216 180,-216 186,-222 186,-228 186,-228 186,-240 186,-240 186,-246 180,-252 174,-252"/>
<text text-anchor="middle" x="148" y="-231.5" font-family="sans" font-size="10.00" fill="#000000">metadmg_dfit</text>
</g>
<!-- 10&#45;&gt;1 -->
<g id="edge6" class="edge">
<title>10&#45;&gt;1</title>
<path fill="none" stroke="#c0c0c0" stroke-width="2" d="M130.5386,-215.906C121.9248,-206.0232 112.1002,-193.1431 106,-180 96.8954,-160.3839 92.1065,-136.3364 89.6151,-118.0351"/>
<polygon fill="#c0c0c0" stroke="#c0c0c0" stroke-width="2" points="93.0768,-117.5065 88.3985,-108.0005 86.1276,-118.3491 93.0768,-117.5065"/>
</g>
<!-- 12 -->
<g id="node13" class="node">
<title>12</title>
<path fill="none" stroke="#56d863" stroke-width="2" d="M208.5,-180C208.5,-180 127.5,-180 127.5,-180 121.5,-180 115.5,-174 115.5,-168 115.5,-168 115.5,-156 115.5,-156 115.5,-150 121.5,-144 127.5,-144 127.5,-144 208.5,-144 208.5,-144 214.5,-144 220.5,-150 220.5,-156 220.5,-156 220.5,-168 220.5,-168 220.5,-174 214.5,-180 208.5,-180"/>
<text text-anchor="middle" x="168" y="-159.5" font-family="sans" font-size="10.00" fill="#000000">metadmg_aggregate</text>
</g>
<!-- 10&#45;&gt;12 -->
<g id="edge19" class="edge">
<title>10&#45;&gt;12</title>
<path fill="none" stroke="#c0c0c0" stroke-width="2" d="M153.0468,-215.8314C155.2094,-208.0463 157.7853,-198.7729 160.1848,-190.1347"/>
<polygon fill="#c0c0c0" stroke="#c0c0c0" stroke-width="2" points="163.581,-190.9852 162.8852,-180.4133 156.8364,-189.1117 163.581,-190.9852"/>
</g>
<!-- 11&#45;&gt;10 -->
<g id="edge16" class="edge">
<title>11&#45;&gt;10</title>
<path fill="none" stroke="#c0c0c0" stroke-width="2" d="M148,-287.8314C148,-280.131 148,-270.9743 148,-262.4166"/>
<polygon fill="#c0c0c0" stroke="#c0c0c0" stroke-width="2" points="151.5001,-262.4132 148,-252.4133 144.5001,-262.4133 151.5001,-262.4132"/>
</g>
<!-- 11&#45;&gt;12 -->
<g id="edge18" class="edge">
<title>11&#45;&gt;12</title>
<path fill="none" stroke="#c0c0c0" stroke-width="2" d="M169.7672,-287.8165C179.4723,-278.2816 189.8597,-265.7355 195,-252 202.7903,-231.1835 194.64,-207.0313 185.3105,-188.9908"/>
<polygon fill="#c0c0c0" stroke="#c0c0c0" stroke-width="2" points="188.321,-187.2027 180.4024,-180.1638 182.2031,-190.6045 188.321,-187.2027"/>
</g>
<!-- 12&#45;&gt;0 -->
<g id="edge3" class="edge">
<title>12&#45;&gt;0</title>
<path fill="none" stroke="#c0c0c0" stroke-width="2" d="M168,-143.7623C168,-119.201 168,-75.2474 168,-46.3541"/>
<polygon fill="#c0c0c0" stroke="#c0c0c0" stroke-width="2" points="171.5001,-46.0896 168,-36.0896 164.5001,-46.0897 171.5001,-46.0896"/>
</g>
<!-- 12&#45;&gt;1 -->
<g id="edge7" class="edge">
<title>12&#45;&gt;1</title>
<path fill="none" stroke="#c0c0c0" stroke-width="2" d="M147.5603,-143.8314C137.6795,-135.0485 125.6676,-124.3712 114.955,-114.8489"/>
<polygon fill="#c0c0c0" stroke="#c0c0c0" stroke-width="2" points="117.2326,-112.1906 107.4332,-108.1628 112.582,-117.4224 117.2326,-112.1906"/>
</g>
<!-- 13&#45;&gt;0 -->
<g id="edge2" class="edge">
<title>13&#45;&gt;0</title>
<path fill="none" stroke="#c0c0c0" stroke-width="2" d="M271.9286,-143.7623C251.0949,-118.5518 213.3773,-72.9103 189.5647,-44.0952"/>
<polygon fill="#c0c0c0" stroke="#c0c0c0" stroke-width="2" points="192.0173,-41.5685 182.9491,-36.0896 186.6213,-46.0277 192.0173,-41.5685"/>
</g>
</g>
</svg>
