<?xml version="1.0" encoding="UTF-8" standalone="no"?>
<!DOCTYPE svg PUBLIC "-//W3C//DTD SVG 1.1//EN"
 "http://www.w3.org/Graphics/SVG/1.1/DTD/svg11.dtd">
<!-- Generated by graphviz version 2.40.1 (0)
 -->
<!-- Title: snakemake_dag Pages: 1 -->
<svg width="1992pt" height="1173pt"
 viewBox="0.00 0.00 1992.00 1173.00" xmlns="http://www.w3.org/2000/svg" xmlns:xlink="http://www.w3.org/1999/xlink">
<g id="graph0" class="graph" transform="scale(1 1) rotate(0) translate(4 1169)">
<title>snakemake_dag</title>
<polygon fill="#ffffff" stroke="transparent" points="-4,4 -4,-1169 1988,-1169 1988,4 -4,4"/>
<!-- 0 -->
<g id="node1" class="node">
<title>0</title>
<path fill="none" stroke="#b6d856" stroke-width="2" d="M1238.5,-36C1238.5,-36 1208.5,-36 1208.5,-36 1202.5,-36 1196.5,-30 1196.5,-24 1196.5,-24 1196.5,-12 1196.5,-12 1196.5,-6 1202.5,0 1208.5,0 1208.5,0 1238.5,0 1238.5,0 1244.5,0 1250.5,-6 1250.5,-12 1250.5,-12 1250.5,-24 1250.5,-24 1250.5,-30 1244.5,-36 1238.5,-36"/>
<text text-anchor="middle" x="1223.5" y="-15.5" font-family="sans" font-size="10.00" fill="#000000">all</text>
</g>
<!-- 1 -->
<g id="node2" class="node">
<title>1</title>
<path fill="none" stroke="#56d8b1" stroke-width="2" d="M849.5,-108C849.5,-108 819.5,-108 819.5,-108 813.5,-108 807.5,-102 807.5,-96 807.5,-96 807.5,-84 807.5,-84 807.5,-78 813.5,-72 819.5,-72 819.5,-72 849.5,-72 849.5,-72 855.5,-72 861.5,-78 861.5,-84 861.5,-84 861.5,-96 861.5,-96 861.5,-102 855.5,-108 849.5,-108"/>
<text text-anchor="middle" x="834.5" y="-87.5" font-family="sans" font-size="10.00" fill="#000000">multiqc</text>
</g>
<!-- 1&#45;&gt;0 -->
<g id="edge1" class="edge">
<title>1&#45;&gt;0</title>
<path fill="none" stroke="#c0c0c0" stroke-width="2" d="M861.5449,-84.9943C929.7288,-72.3741 1108.743,-39.2404 1186.5299,-24.8428"/>
<polygon fill="#c0c0c0" stroke="#c0c0c0" stroke-width="2" points="1187.18,-28.282 1196.3759,-23.0204 1185.9059,-21.3989 1187.18,-28.282"/>
</g>
<!-- 2 -->
<g id="node3" class="node">
<title>2</title>
<path fill="none" stroke="#9fd856" stroke-width="2" d="M654,-1165C654,-1165 547,-1165 547,-1165 541,-1165 535,-1159 535,-1153 535,-1153 535,-1092 535,-1092 535,-1086 541,-1080 547,-1080 547,-1080 654,-1080 654,-1080 660,-1080 666,-1086 666,-1092 666,-1092 666,-1153 666,-1153 666,-1159 660,-1165 654,-1165"/>
<text text-anchor="middle" x="600.5" y="-1153" font-family="sans" font-size="10.00" fill="#000000">bowtie2</text>
<text text-anchor="middle" x="600.5" y="-1142" font-family="sans" font-size="10.00" fill="#000000">library: lib1</text>
<text text-anchor="middle" x="600.5" y="-1131" font-family="sans" font-size="10.00" fill="#000000">n_shard: 1</text>
<text text-anchor="middle" x="600.5" y="-1120" font-family="sans" font-size="10.00" fill="#000000">read_type_map: collapsed</text>
<text text-anchor="middle" x="600.5" y="-1109" font-family="sans" font-size="10.00" fill="#000000">ref: refseq_mitochondrion</text>
<text text-anchor="middle" x="600.5" y="-1098" font-family="sans" font-size="10.00" fill="#000000">sample: HD827sonic_1</text>
<text text-anchor="middle" x="600.5" y="-1087" font-family="sans" font-size="10.00" fill="#000000">tot_shards: 1</text>
</g>
<!-- 2&#45;&gt;1 -->
<g id="edge11" class="edge">
<title>2&#45;&gt;1</title>
<path fill="none" stroke="#c0c0c0" stroke-width="2" d="M615.6278,-1079.8083C626.2248,-1046.0983 638.5,-997.6328 638.5,-954 638.5,-954 638.5,-954 638.5,-234 638.5,-190.7517 643.976,-173.6084 675.5,-144 709.1524,-112.3925 762.0167,-99.2258 797.4447,-93.78"/>
<polygon fill="#c0c0c0" stroke="#c0c0c0" stroke-width="2" points="797.9754,-97.2399 807.3912,-92.3827 797.0015,-90.308 797.9754,-97.2399"/>
</g>
<!-- 15 -->
<g id="node16" class="node">
<title>15</title>
<path fill="none" stroke="#5682d8" stroke-width="2" d="M522,-900C522,-900 393,-900 393,-900 387,-900 381,-894 381,-888 381,-888 381,-876 381,-876 381,-870 387,-864 393,-864 393,-864 522,-864 522,-864 528,-864 534,-870 534,-876 534,-876 534,-888 534,-888 534,-894 528,-900 522,-900"/>
<text text-anchor="middle" x="457.5" y="-879.5" font-family="sans" font-size="10.00" fill="#000000">shard_saturated_reads_remove</text>
</g>
<!-- 2&#45;&gt;15 -->
<g id="edge35" class="edge">
<title>2&#45;&gt;15</title>
<path fill="none" stroke="#c0c0c0" stroke-width="2" d="M575.0992,-1079.7805C545.7007,-1030.3376 498.1761,-950.4097 473.5081,-908.9227"/>
<polygon fill="#c0c0c0" stroke="#c0c0c0" stroke-width="2" points="476.4403,-907.0057 468.3211,-900.1991 470.4235,-910.5832 476.4403,-907.0057"/>
</g>
<!-- 17 -->
<g id="node18" class="node">
<title>17</title>
<path fill="none" stroke="#56c9d8" stroke-width="2" d="M484,-1044C484,-1044 415,-1044 415,-1044 409,-1044 403,-1038 403,-1032 403,-1032 403,-1020 403,-1020 403,-1014 409,-1008 415,-1008 415,-1008 484,-1008 484,-1008 490,-1008 496,-1014 496,-1020 496,-1020 496,-1032 496,-1032 496,-1038 490,-1044 484,-1044"/>
<text text-anchor="middle" x="449.5" y="-1023.5" font-family="sans" font-size="10.00" fill="#000000">shard_count_alns</text>
</g>
<!-- 2&#45;&gt;17 -->
<g id="edge40" class="edge">
<title>2&#45;&gt;17</title>
<path fill="none" stroke="#c0c0c0" stroke-width="2" d="M534.7085,-1080.4544C518.2546,-1069.9392 501.1752,-1059.0242 486.6664,-1049.752"/>
<polygon fill="#c0c0c0" stroke="#c0c0c0" stroke-width="2" points="488.3045,-1046.6452 477.9934,-1044.2094 484.5349,-1052.5436 488.3045,-1046.6452"/>
</g>
<!-- 3 -->
<g id="node4" class="node">
<title>3</title>
<path fill="none" stroke="#9fd856" stroke-width="2" d="M972,-1165C972,-1165 865,-1165 865,-1165 859,-1165 853,-1159 853,-1153 853,-1153 853,-1092 853,-1092 853,-1086 859,-1080 865,-1080 865,-1080 972,-1080 972,-1080 978,-1080 984,-1086 984,-1092 984,-1092 984,-1153 984,-1153 984,-1159 978,-1165 972,-1165"/>
<text text-anchor="middle" x="918.5" y="-1153" font-family="sans" font-size="10.00" fill="#000000">bowtie2</text>
<text text-anchor="middle" x="918.5" y="-1142" font-family="sans" font-size="10.00" fill="#000000">library: lib1</text>
<text text-anchor="middle" x="918.5" y="-1131" font-family="sans" font-size="10.00" fill="#000000">n_shard: 1</text>
<text text-anchor="middle" x="918.5" y="-1120" font-family="sans" font-size="10.00" fill="#000000">read_type_map: collapsed</text>
<text text-anchor="middle" x="918.5" y="-1109" font-family="sans" font-size="10.00" fill="#000000">ref: wgs_eukaryota</text>
<text text-anchor="middle" x="918.5" y="-1098" font-family="sans" font-size="10.00" fill="#000000">sample: HD827sonic_2</text>
<text text-anchor="middle" x="918.5" y="-1087" font-family="sans" font-size="10.00" fill="#000000">tot_shards: 2</text>
</g>
<!-- 3&#45;&gt;1 -->
<g id="edge12" class="edge">
<title>3&#45;&gt;1</title>
<path fill="none" stroke="#c0c0c0" stroke-width="2" d="M852.8302,-1083.9871C793.1945,-1046.6747 714.5,-990.519 714.5,-954 714.5,-954 714.5,-954 714.5,-234 714.5,-180.8995 763.2519,-136.9881 798.6078,-112.1247"/>
<polygon fill="#c0c0c0" stroke="#c0c0c0" stroke-width="2" points="800.9787,-114.7445 807.2701,-106.2199 797.0359,-108.9604 800.9787,-114.7445"/>
</g>
<!-- 34 -->
<g id="node35" class="node">
<title>34</title>
<path fill="none" stroke="#56c9d8" stroke-width="2" d="M1049,-1044C1049,-1044 980,-1044 980,-1044 974,-1044 968,-1038 968,-1032 968,-1032 968,-1020 968,-1020 968,-1014 974,-1008 980,-1008 980,-1008 1049,-1008 1049,-1008 1055,-1008 1061,-1014 1061,-1020 1061,-1020 1061,-1032 1061,-1032 1061,-1038 1055,-1044 1049,-1044"/>
<text text-anchor="middle" x="1014.5" y="-1023.5" font-family="sans" font-size="10.00" fill="#000000">shard_count_alns</text>
</g>
<!-- 3&#45;&gt;34 -->
<g id="edge64" class="edge">
<title>3&#45;&gt;34</title>
<path fill="none" stroke="#c0c0c0" stroke-width="2" d="M960.8864,-1079.8928C970.5209,-1070.2081 980.4613,-1060.216 989.1261,-1051.506"/>
<polygon fill="#c0c0c0" stroke="#c0c0c0" stroke-width="2" points="991.8012,-1053.7797 996.3726,-1044.2218 986.8386,-1048.8428 991.8012,-1053.7797"/>
</g>
<!-- 37 -->
<g id="node38" class="node">
<title>37</title>
<path fill="none" stroke="#5682d8" stroke-width="2" d="M1093,-900C1093,-900 964,-900 964,-900 958,-900 952,-894 952,-888 952,-888 952,-876 952,-876 952,-870 958,-864 964,-864 964,-864 1093,-864 1093,-864 1099,-864 1105,-870 1105,-876 1105,-876 1105,-888 1105,-888 1105,-894 1099,-900 1093,-900"/>
<text text-anchor="middle" x="1028.5" y="-879.5" font-family="sans" font-size="10.00" fill="#000000">shard_saturated_reads_remove</text>
</g>
<!-- 3&#45;&gt;37 -->
<g id="edge67" class="edge">
<title>3&#45;&gt;37</title>
<path fill="none" stroke="#c0c0c0" stroke-width="2" d="M868.3384,-1079.8131C849.6841,-1058.6177 835.8035,-1032.3856 848.5,-1008 874.2665,-958.5115 929.3501,-924.4416 971.8383,-904.3268"/>
<polygon fill="#c0c0c0" stroke="#c0c0c0" stroke-width="2" points="973.3501,-907.4839 980.9711,-900.1238 970.4236,-901.125 973.3501,-907.4839"/>
</g>
<!-- 4 -->
<g id="node5" class="node">
<title>4</title>
<path fill="none" stroke="#9fd856" stroke-width="2" d="M1934,-1165C1934,-1165 1827,-1165 1827,-1165 1821,-1165 1815,-1159 1815,-1153 1815,-1153 1815,-1092 1815,-1092 1815,-1086 1821,-1080 1827,-1080 1827,-1080 1934,-1080 1934,-1080 1940,-1080 1946,-1086 1946,-1092 1946,-1092 1946,-1153 1946,-1153 1946,-1159 1940,-1165 1934,-1165"/>
<text text-anchor="middle" x="1880.5" y="-1153" font-family="sans" font-size="10.00" fill="#000000">bowtie2</text>
<text text-anchor="middle" x="1880.5" y="-1142" font-family="sans" font-size="10.00" fill="#000000">library: lib2</text>
<text text-anchor="middle" x="1880.5" y="-1131" font-family="sans" font-size="10.00" fill="#000000">n_shard: 1</text>
<text text-anchor="middle" x="1880.5" y="-1120" font-family="sans" font-size="10.00" fill="#000000">read_type_map: collapsed</text>
<text text-anchor="middle" x="1880.5" y="-1109" font-family="sans" font-size="10.00" fill="#000000">ref: refseq_mitochondrion</text>
<text text-anchor="middle" x="1880.5" y="-1098" font-family="sans" font-size="10.00" fill="#000000">sample: HD827sonic_2</text>
<text text-anchor="middle" x="1880.5" y="-1087" font-family="sans" font-size="10.00" fill="#000000">tot_shards: 1</text>
</g>
<!-- 4&#45;&gt;1 -->
<g id="edge13" class="edge">
<title>4&#45;&gt;1</title>
<path fill="none" stroke="#c0c0c0" stroke-width="2" d="M1918.4073,-1079.6927C1943.0036,-1047.4581 1970.5,-1000.9282 1970.5,-954 1970.5,-954 1970.5,-954 1970.5,-810 1970.5,-653.8741 1842.7544,-655.6936 1708.5,-576 1667.5208,-551.6747 1649.5785,-562.3699 1607.5,-540 1416.9263,-438.6867 1353.6445,-418.6557 1216.5,-252 1182.7698,-211.0116 1207.8971,-175.9416 1165.5,-144 1119.6969,-109.4924 948.4013,-96.1174 871.8586,-91.7846"/>
<polygon fill="#c0c0c0" stroke="#c0c0c0" stroke-width="2" points="871.8854,-88.2809 861.7099,-91.2319 871.5047,-95.2706 871.8854,-88.2809"/>
</g>
<!-- 45 -->
<g id="node46" class="node">
<title>45</title>
<path fill="none" stroke="#5682d8" stroke-width="2" d="M1892,-900C1892,-900 1763,-900 1763,-900 1757,-900 1751,-894 1751,-888 1751,-888 1751,-876 1751,-876 1751,-870 1757,-864 1763,-864 1763,-864 1892,-864 1892,-864 1898,-864 1904,-870 1904,-876 1904,-876 1904,-888 1904,-888 1904,-894 1898,-900 1892,-900"/>
<text text-anchor="middle" x="1827.5" y="-879.5" font-family="sans" font-size="10.00" fill="#000000">shard_saturated_reads_remove</text>
</g>
<!-- 4&#45;&gt;45 -->
<g id="edge79" class="edge">
<title>4&#45;&gt;45</title>
<path fill="none" stroke="#c0c0c0" stroke-width="2" d="M1874.4584,-1079.8958C1871.131,-1058.2643 1866.6352,-1031.6288 1861.5,-1008 1854.099,-973.9459 1843.318,-935.3289 1835.8901,-909.9248"/>
<polygon fill="#c0c0c0" stroke="#c0c0c0" stroke-width="2" points="1839.2147,-908.8245 1833.0285,-900.2233 1832.5007,-910.805 1839.2147,-908.8245"/>
</g>
<!-- 47 -->
<g id="node48" class="node">
<title>47</title>
<path fill="none" stroke="#56c9d8" stroke-width="2" d="M1840,-1044C1840,-1044 1771,-1044 1771,-1044 1765,-1044 1759,-1038 1759,-1032 1759,-1032 1759,-1020 1759,-1020 1759,-1014 1765,-1008 1771,-1008 1771,-1008 1840,-1008 1840,-1008 1846,-1008 1852,-1014 1852,-1020 1852,-1020 1852,-1032 1852,-1032 1852,-1038 1846,-1044 1840,-1044"/>
<text text-anchor="middle" x="1805.5" y="-1023.5" font-family="sans" font-size="10.00" fill="#000000">shard_count_alns</text>
</g>
<!-- 4&#45;&gt;47 -->
<g id="edge84" class="edge">
<title>4&#45;&gt;47</title>
<path fill="none" stroke="#c0c0c0" stroke-width="2" d="M1847.3856,-1079.8928C1840.0867,-1070.5016 1832.5632,-1060.8213 1825.9414,-1052.3013"/>
<polygon fill="#c0c0c0" stroke="#c0c0c0" stroke-width="2" points="1828.5621,-1049.9697 1819.662,-1044.2218 1823.0351,-1054.2653 1828.5621,-1049.9697"/>
</g>
<!-- 5 -->
<g id="node6" class="node">
<title>5</title>
<path fill="none" stroke="#9fd856" stroke-width="2" d="M1218,-1165C1218,-1165 1111,-1165 1111,-1165 1105,-1165 1099,-1159 1099,-1153 1099,-1153 1099,-1092 1099,-1092 1099,-1086 1105,-1080 1111,-1080 1111,-1080 1218,-1080 1218,-1080 1224,-1080 1230,-1086 1230,-1092 1230,-1092 1230,-1153 1230,-1153 1230,-1159 1224,-1165 1218,-1165"/>
<text text-anchor="middle" x="1164.5" y="-1153" font-family="sans" font-size="10.00" fill="#000000">bowtie2</text>
<text text-anchor="middle" x="1164.5" y="-1142" font-family="sans" font-size="10.00" fill="#000000">library: lib1</text>
<text text-anchor="middle" x="1164.5" y="-1131" font-family="sans" font-size="10.00" fill="#000000">n_shard: 1</text>
<text text-anchor="middle" x="1164.5" y="-1120" font-family="sans" font-size="10.00" fill="#000000">read_type_map: collapsed</text>
<text text-anchor="middle" x="1164.5" y="-1109" font-family="sans" font-size="10.00" fill="#000000">ref: refseq_mitochondrion</text>
<text text-anchor="middle" x="1164.5" y="-1098" font-family="sans" font-size="10.00" fill="#000000">sample: HD827sonic_2</text>
<text text-anchor="middle" x="1164.5" y="-1087" font-family="sans" font-size="10.00" fill="#000000">tot_shards: 1</text>
</g>
<!-- 5&#45;&gt;1 -->
<g id="edge14" class="edge">
<title>5&#45;&gt;1</title>
<path fill="none" stroke="#c0c0c0" stroke-width="2" d="M1133.5325,-1079.7459C1112.3632,-1051.5561 1085.5156,-1018.0486 1070.5,-1008 1024.9315,-977.5052 1004.2228,-990.198 952.5,-972 871.2213,-943.4031 820.8053,-971.3485 772.5,-900 763.5299,-886.7509 771.4856,-879.9678 772.5,-864 786.3056,-646.6875 834.5,-595.7506 834.5,-378 834.5,-378 834.5,-378 834.5,-234 834.5,-193.876 834.5,-147.4631 834.5,-118.4177"/>
<polygon fill="#c0c0c0" stroke="#c0c0c0" stroke-width="2" points="838.0001,-118.1853 834.5,-108.1854 831.0001,-118.1854 838.0001,-118.1853"/>
</g>
<!-- 30 -->
<g id="node31" class="node">
<title>30</title>
<path fill="none" stroke="#5682d8" stroke-width="2" d="M1264,-900C1264,-900 1135,-900 1135,-900 1129,-900 1123,-894 1123,-888 1123,-888 1123,-876 1123,-876 1123,-870 1129,-864 1135,-864 1135,-864 1264,-864 1264,-864 1270,-864 1276,-870 1276,-876 1276,-876 1276,-888 1276,-888 1276,-894 1270,-900 1264,-900"/>
<text text-anchor="middle" x="1199.5" y="-879.5" font-family="sans" font-size="10.00" fill="#000000">shard_saturated_reads_remove</text>
</g>
<!-- 5&#45;&gt;30 -->
<g id="edge57" class="edge">
<title>5&#45;&gt;30</title>
<path fill="none" stroke="#c0c0c0" stroke-width="2" d="M1202.01,-1079.8766C1209.5912,-1068.8929 1216.4677,-1056.5956 1220.5,-1044 1235.0124,-998.6675 1221.4696,-943.1444 1210.4203,-910.2778"/>
<polygon fill="#c0c0c0" stroke="#c0c0c0" stroke-width="2" points="1213.5809,-908.7153 1206.9592,-900.4446 1206.9779,-911.0394 1213.5809,-908.7153"/>
</g>
<!-- 32 -->
<g id="node33" class="node">
<title>32</title>
<path fill="none" stroke="#56c9d8" stroke-width="2" d="M1199,-1044C1199,-1044 1130,-1044 1130,-1044 1124,-1044 1118,-1038 1118,-1032 1118,-1032 1118,-1020 1118,-1020 1118,-1014 1124,-1008 1130,-1008 1130,-1008 1199,-1008 1199,-1008 1205,-1008 1211,-1014 1211,-1020 1211,-1020 1211,-1032 1211,-1032 1211,-1038 1205,-1044 1199,-1044"/>
<text text-anchor="middle" x="1164.5" y="-1023.5" font-family="sans" font-size="10.00" fill="#000000">shard_count_alns</text>
</g>
<!-- 5&#45;&gt;32 -->
<g id="edge62" class="edge">
<title>5&#45;&gt;32</title>
<path fill="none" stroke="#c0c0c0" stroke-width="2" d="M1164.5,-1079.8928C1164.5,-1071.2842 1164.5,-1062.4327 1164.5,-1054.4546"/>
<polygon fill="#c0c0c0" stroke="#c0c0c0" stroke-width="2" points="1168.0001,-1054.2218 1164.5,-1044.2218 1161.0001,-1054.2218 1168.0001,-1054.2218"/>
</g>
<!-- 6 -->
<g id="node7" class="node">
<title>6</title>
<path fill="none" stroke="#9fd856" stroke-width="2" d="M242,-1165C242,-1165 135,-1165 135,-1165 129,-1165 123,-1159 123,-1153 123,-1153 123,-1092 123,-1092 123,-1086 129,-1080 135,-1080 135,-1080 242,-1080 242,-1080 248,-1080 254,-1086 254,-1092 254,-1092 254,-1153 254,-1153 254,-1159 248,-1165 242,-1165"/>
<text text-anchor="middle" x="188.5" y="-1153" font-family="sans" font-size="10.00" fill="#000000">bowtie2</text>
<text text-anchor="middle" x="188.5" y="-1142" font-family="sans" font-size="10.00" fill="#000000">library: lib1</text>
<text text-anchor="middle" x="188.5" y="-1131" font-family="sans" font-size="10.00" fill="#000000">n_shard: 1</text>
<text text-anchor="middle" x="188.5" y="-1120" font-family="sans" font-size="10.00" fill="#000000">read_type_map: collapsed</text>
<text text-anchor="middle" x="188.5" y="-1109" font-family="sans" font-size="10.00" fill="#000000">ref: wgs_eukaryota</text>
<text text-anchor="middle" x="188.5" y="-1098" font-family="sans" font-size="10.00" fill="#000000">sample: HD827sonic_1</text>
<text text-anchor="middle" x="188.5" y="-1087" font-family="sans" font-size="10.00" fill="#000000">tot_shards: 2</text>
</g>
<!-- 6&#45;&gt;1 -->
<g id="edge15" class="edge">
<title>6&#45;&gt;1</title>
<path fill="none" stroke="#c0c0c0" stroke-width="2" d="M254.1305,-1094.9912C268.8797,-1089.4798 284.5833,-1084.1243 299.5,-1080 388.6601,-1055.3482 433.7727,-1103.6228 504.5,-1044 533.7356,-1019.3545 562.5,-920.2377 562.5,-882 562.5,-882 562.5,-882 562.5,-234 562.5,-189.2786 572.4561,-171.7835 607.5,-144 636.6364,-120.9001 740.7126,-103.1619 797.2696,-94.9741"/>
<polygon fill="#c0c0c0" stroke="#c0c0c0" stroke-width="2" points="797.8396,-98.4284 807.2482,-93.5573 796.8555,-91.4979 797.8396,-98.4284"/>
</g>
<!-- 19 -->
<g id="node20" class="node">
<title>19</title>
<path fill="none" stroke="#56c9d8" stroke-width="2" d="M223,-1044C223,-1044 154,-1044 154,-1044 148,-1044 142,-1038 142,-1032 142,-1032 142,-1020 142,-1020 142,-1014 148,-1008 154,-1008 154,-1008 223,-1008 223,-1008 229,-1008 235,-1014 235,-1020 235,-1020 235,-1032 235,-1032 235,-1038 229,-1044 223,-1044"/>
<text text-anchor="middle" x="188.5" y="-1023.5" font-family="sans" font-size="10.00" fill="#000000">shard_count_alns</text>
</g>
<!-- 6&#45;&gt;19 -->
<g id="edge42" class="edge">
<title>6&#45;&gt;19</title>
<path fill="none" stroke="#c0c0c0" stroke-width="2" d="M188.5,-1079.8928C188.5,-1071.2842 188.5,-1062.4327 188.5,-1054.4546"/>
<polygon fill="#c0c0c0" stroke="#c0c0c0" stroke-width="2" points="192.0001,-1054.2218 188.5,-1044.2218 185.0001,-1054.2218 192.0001,-1054.2218"/>
</g>
<!-- 22 -->
<g id="node23" class="node">
<title>22</title>
<path fill="none" stroke="#5682d8" stroke-width="2" d="M141,-900C141,-900 12,-900 12,-900 6,-900 0,-894 0,-888 0,-888 0,-876 0,-876 0,-870 6,-864 12,-864 12,-864 141,-864 141,-864 147,-864 153,-870 153,-876 153,-876 153,-888 153,-888 153,-894 147,-900 141,-900"/>
<text text-anchor="middle" x="76.5" y="-879.5" font-family="sans" font-size="10.00" fill="#000000">shard_saturated_reads_remove</text>
</g>
<!-- 6&#45;&gt;22 -->
<g id="edge45" class="edge">
<title>6&#45;&gt;22</title>
<path fill="none" stroke="#c0c0c0" stroke-width="2" d="M154.7779,-1079.911C146.8004,-1068.6385 138.7932,-1056.2 132.5,-1044 109.4806,-999.3742 92.4773,-943.195 83.5602,-910.081"/>
<polygon fill="#c0c0c0" stroke="#c0c0c0" stroke-width="2" points="86.8849,-908.9618 80.9518,-900.184 80.116,-910.7458 86.8849,-908.9618"/>
</g>
<!-- 7 -->
<g id="node8" class="node">
<title>7</title>
<path fill="none" stroke="#9fd856" stroke-width="2" d="M1460,-1165C1460,-1165 1353,-1165 1353,-1165 1347,-1165 1341,-1159 1341,-1153 1341,-1153 1341,-1092 1341,-1092 1341,-1086 1347,-1080 1353,-1080 1353,-1080 1460,-1080 1460,-1080 1466,-1080 1472,-1086 1472,-1092 1472,-1092 1472,-1153 1472,-1153 1472,-1159 1466,-1165 1460,-1165"/>
<text text-anchor="middle" x="1406.5" y="-1153" font-family="sans" font-size="10.00" fill="#000000">bowtie2</text>
<text text-anchor="middle" x="1406.5" y="-1142" font-family="sans" font-size="10.00" fill="#000000">library: lib2</text>
<text text-anchor="middle" x="1406.5" y="-1131" font-family="sans" font-size="10.00" fill="#000000">n_shard: 1</text>
<text text-anchor="middle" x="1406.5" y="-1120" font-family="sans" font-size="10.00" fill="#000000">read_type_map: collapsed</text>
<text text-anchor="middle" x="1406.5" y="-1109" font-family="sans" font-size="10.00" fill="#000000">ref: wgs_eukaryota</text>
<text text-anchor="middle" x="1406.5" y="-1098" font-family="sans" font-size="10.00" fill="#000000">sample: HD827sonic_2</text>
<text text-anchor="middle" x="1406.5" y="-1087" font-family="sans" font-size="10.00" fill="#000000">tot_shards: 2</text>
</g>
<!-- 7&#45;&gt;1 -->
<g id="edge16" class="edge">
<title>7&#45;&gt;1</title>
<path fill="none" stroke="#c0c0c0" stroke-width="2" d="M1384.3246,-1079.9084C1378.4187,-1068.3163 1372.1207,-1055.7237 1366.5,-1044 1328.5744,-964.8947 1323.3435,-943.1446 1285.5,-864 1254.5468,-799.2656 1252.8918,-779.3055 1212.5,-720 1164.2976,-649.2266 1157.1789,-621.2783 1084.5,-576 1033.6147,-544.2989 996.6897,-582.5946 954.5,-540 950.6399,-536.1029 867.0326,-215.213 841.7064,-117.7572"/>
<polygon fill="#c0c0c0" stroke="#c0c0c0" stroke-width="2" points="845.0789,-116.8188 839.1768,-108.0202 838.3038,-118.579 845.0789,-116.8188"/>
</g>
<!-- 49 -->
<g id="node50" class="node">
<title>49</title>
<path fill="none" stroke="#56c9d8" stroke-width="2" d="M1618,-1044C1618,-1044 1549,-1044 1549,-1044 1543,-1044 1537,-1038 1537,-1032 1537,-1032 1537,-1020 1537,-1020 1537,-1014 1543,-1008 1549,-1008 1549,-1008 1618,-1008 1618,-1008 1624,-1008 1630,-1014 1630,-1020 1630,-1020 1630,-1032 1630,-1032 1630,-1038 1624,-1044 1618,-1044"/>
<text text-anchor="middle" x="1583.5" y="-1023.5" font-family="sans" font-size="10.00" fill="#000000">shard_count_alns</text>
</g>
<!-- 7&#45;&gt;49 -->
<g id="edge86" class="edge">
<title>7&#45;&gt;49</title>
<path fill="none" stroke="#c0c0c0" stroke-width="2" d="M1472.2904,-1085.0779C1475.3995,-1083.3538 1478.4812,-1081.654 1481.5,-1080 1500.5041,-1069.5878 1521.6552,-1058.3357 1539.7476,-1048.8116"/>
<polygon fill="#c0c0c0" stroke="#c0c0c0" stroke-width="2" points="1541.6775,-1051.7514 1548.9024,-1044.0022 1538.4219,-1045.5545 1541.6775,-1051.7514"/>
</g>
<!-- 52 -->
<g id="node53" class="node">
<title>52</title>
<path fill="none" stroke="#5682d8" stroke-width="2" d="M1550,-900C1550,-900 1421,-900 1421,-900 1415,-900 1409,-894 1409,-888 1409,-888 1409,-876 1409,-876 1409,-870 1415,-864 1421,-864 1421,-864 1550,-864 1550,-864 1556,-864 1562,-870 1562,-876 1562,-876 1562,-888 1562,-888 1562,-894 1556,-900 1550,-900"/>
<text text-anchor="middle" x="1485.5" y="-879.5" font-family="sans" font-size="10.00" fill="#000000">shard_saturated_reads_remove</text>
</g>
<!-- 7&#45;&gt;52 -->
<g id="edge89" class="edge">
<title>7&#45;&gt;52</title>
<path fill="none" stroke="#c0c0c0" stroke-width="2" d="M1420.5326,-1079.7805C1436.6714,-1030.6492 1462.6981,-951.416 1476.3972,-909.7116"/>
<polygon fill="#c0c0c0" stroke="#c0c0c0" stroke-width="2" points="1479.7263,-910.7919 1479.5219,-900.1991 1473.0759,-908.6074 1479.7263,-910.7919"/>
</g>
<!-- 8 -->
<g id="node9" class="node">
<title>8</title>
<path fill="none" stroke="#9fd856" stroke-width="2" d="M1609,-1165C1609,-1165 1502,-1165 1502,-1165 1496,-1165 1490,-1159 1490,-1153 1490,-1153 1490,-1092 1490,-1092 1490,-1086 1496,-1080 1502,-1080 1502,-1080 1609,-1080 1609,-1080 1615,-1080 1621,-1086 1621,-1092 1621,-1092 1621,-1153 1621,-1153 1621,-1159 1615,-1165 1609,-1165"/>
<text text-anchor="middle" x="1555.5" y="-1153" font-family="sans" font-size="10.00" fill="#000000">bowtie2</text>
<text text-anchor="middle" x="1555.5" y="-1142" font-family="sans" font-size="10.00" fill="#000000">library: lib2</text>
<text text-anchor="middle" x="1555.5" y="-1131" font-family="sans" font-size="10.00" fill="#000000">n_shard: 2</text>
<text text-anchor="middle" x="1555.5" y="-1120" font-family="sans" font-size="10.00" fill="#000000">read_type_map: collapsed</text>
<text text-anchor="middle" x="1555.5" y="-1109" font-family="sans" font-size="10.00" fill="#000000">ref: wgs_eukaryota</text>
<text text-anchor="middle" x="1555.5" y="-1098" font-family="sans" font-size="10.00" fill="#000000">sample: HD827sonic_2</text>
<text text-anchor="middle" x="1555.5" y="-1087" font-family="sans" font-size="10.00" fill="#000000">tot_shards: 2</text>
</g>
<!-- 8&#45;&gt;1 -->
<g id="edge17" class="edge">
<title>8&#45;&gt;1</title>
<path fill="none" stroke="#c0c0c0" stroke-width="2" d="M1495.2749,-1079.7753C1444.6537,-1041.5625 1380.5,-986.6865 1380.5,-954 1380.5,-954 1380.5,-954 1380.5,-738 1380.5,-697.1184 1389.1601,-678.1036 1361.5,-648 1286.4407,-566.31 1229.1638,-606.4956 1122.5,-576 1063.6209,-559.1662 1033.5917,-582.4976 989.5,-540 956.3269,-508.0262 885.2052,-186.1057 866.5,-144 862.4712,-134.9311 857.2596,-125.4814 852.2164,-117.0692"/>
<polygon fill="#c0c0c0" stroke="#c0c0c0" stroke-width="2" points="855.1054,-115.086 846.8741,-108.4155 849.149,-118.7632 855.1054,-115.086"/>
</g>
<!-- 48 -->
<g id="node49" class="node">
<title>48</title>
<path fill="none" stroke="#56c9d8" stroke-width="2" d="M1729,-1044C1729,-1044 1660,-1044 1660,-1044 1654,-1044 1648,-1038 1648,-1032 1648,-1032 1648,-1020 1648,-1020 1648,-1014 1654,-1008 1660,-1008 1660,-1008 1729,-1008 1729,-1008 1735,-1008 1741,-1014 1741,-1020 1741,-1020 1741,-1032 1741,-1032 1741,-1038 1735,-1044 1729,-1044"/>
<text text-anchor="middle" x="1694.5" y="-1023.5" font-family="sans" font-size="10.00" fill="#000000">shard_count_alns</text>
</g>
<!-- 8&#45;&gt;48 -->
<g id="edge85" class="edge">
<title>8&#45;&gt;48</title>
<path fill="none" stroke="#c0c0c0" stroke-width="2" d="M1616.872,-1079.8928C1631.6674,-1069.6212 1646.961,-1059.0037 1660.021,-1049.9369"/>
<polygon fill="#c0c0c0" stroke="#c0c0c0" stroke-width="2" points="1662.0346,-1052.7998 1668.2531,-1044.2218 1658.0426,-1047.0496 1662.0346,-1052.7998"/>
</g>
<!-- 55 -->
<g id="node56" class="node">
<title>55</title>
<path fill="none" stroke="#5682d8" stroke-width="2" d="M1721,-900C1721,-900 1592,-900 1592,-900 1586,-900 1580,-894 1580,-888 1580,-888 1580,-876 1580,-876 1580,-870 1586,-864 1592,-864 1592,-864 1721,-864 1721,-864 1727,-864 1733,-870 1733,-876 1733,-876 1733,-888 1733,-888 1733,-894 1727,-900 1721,-900"/>
<text text-anchor="middle" x="1656.5" y="-879.5" font-family="sans" font-size="10.00" fill="#000000">shard_saturated_reads_remove</text>
</g>
<!-- 8&#45;&gt;55 -->
<g id="edge93" class="edge">
<title>8&#45;&gt;55</title>
<path fill="none" stroke="#c0c0c0" stroke-width="2" d="M1533.034,-1079.8468C1524.5087,-1057.8422 1518.9136,-1030.8883 1528.5,-1008 1546.7784,-964.3588 1588.3566,-928.1861 1619.193,-905.9601"/>
<polygon fill="#c0c0c0" stroke="#c0c0c0" stroke-width="2" points="1621.4091,-908.6806 1627.5773,-900.0665 1617.3835,-902.9539 1621.4091,-908.6806"/>
</g>
<!-- 9 -->
<g id="node10" class="node">
<title>9</title>
<path fill="none" stroke="#9fd856" stroke-width="2" d="M428,-1165C428,-1165 321,-1165 321,-1165 315,-1165 309,-1159 309,-1153 309,-1153 309,-1092 309,-1092 309,-1086 315,-1080 321,-1080 321,-1080 428,-1080 428,-1080 434,-1080 440,-1086 440,-1092 440,-1092 440,-1153 440,-1153 440,-1159 434,-1165 428,-1165"/>
<text text-anchor="middle" x="374.5" y="-1153" font-family="sans" font-size="10.00" fill="#000000">bowtie2</text>
<text text-anchor="middle" x="374.5" y="-1142" font-family="sans" font-size="10.00" fill="#000000">library: lib1</text>
<text text-anchor="middle" x="374.5" y="-1131" font-family="sans" font-size="10.00" fill="#000000">n_shard: 2</text>
<text text-anchor="middle" x="374.5" y="-1120" font-family="sans" font-size="10.00" fill="#000000">read_type_map: collapsed</text>
<text text-anchor="middle" x="374.5" y="-1109" font-family="sans" font-size="10.00" fill="#000000">ref: wgs_eukaryota</text>
<text text-anchor="middle" x="374.5" y="-1098" font-family="sans" font-size="10.00" fill="#000000">sample: HD827sonic_1</text>
<text text-anchor="middle" x="374.5" y="-1087" font-family="sans" font-size="10.00" fill="#000000">tot_shards: 2</text>
</g>
<!-- 9&#45;&gt;1 -->
<g id="edge18" class="edge">
<title>9&#45;&gt;1</title>
<path fill="none" stroke="#c0c0c0" stroke-width="2" d="M440.2508,-1102.1195C472.8244,-1089.4583 510.9682,-1070.4733 538.5,-1044 594.0706,-990.5658 600.5,-959.0929 600.5,-882 600.5,-882 600.5,-882 600.5,-234 600.5,-189.669 609.6026,-172.5692 643.5,-144 666.7465,-124.4075 748.6863,-106.1695 797.3663,-96.7267"/>
<polygon fill="#c0c0c0" stroke="#c0c0c0" stroke-width="2" points="798.0491,-100.1597 807.2162,-94.8479 796.7375,-93.2837 798.0491,-100.1597"/>
</g>
<!-- 18 -->
<g id="node19" class="node">
<title>18</title>
<path fill="none" stroke="#56c9d8" stroke-width="2" d="M334,-1044C334,-1044 265,-1044 265,-1044 259,-1044 253,-1038 253,-1032 253,-1032 253,-1020 253,-1020 253,-1014 259,-1008 265,-1008 265,-1008 334,-1008 334,-1008 340,-1008 346,-1014 346,-1020 346,-1020 346,-1032 346,-1032 346,-1038 340,-1044 334,-1044"/>
<text text-anchor="middle" x="299.5" y="-1023.5" font-family="sans" font-size="10.00" fill="#000000">shard_count_alns</text>
</g>
<!-- 9&#45;&gt;18 -->
<g id="edge41" class="edge">
<title>9&#45;&gt;18</title>
<path fill="none" stroke="#c0c0c0" stroke-width="2" d="M341.3856,-1079.8928C334.0867,-1070.5016 326.5632,-1060.8213 319.9414,-1052.3013"/>
<polygon fill="#c0c0c0" stroke="#c0c0c0" stroke-width="2" points="322.5621,-1049.9697 313.662,-1044.2218 317.0351,-1054.2653 322.5621,-1049.9697"/>
</g>
<!-- 25 -->
<g id="node26" class="node">
<title>25</title>
<path fill="none" stroke="#5682d8" stroke-width="2" d="M351,-900C351,-900 222,-900 222,-900 216,-900 210,-894 210,-888 210,-888 210,-876 210,-876 210,-870 216,-864 222,-864 222,-864 351,-864 351,-864 357,-864 363,-870 363,-876 363,-876 363,-888 363,-888 363,-894 357,-900 351,-900"/>
<text text-anchor="middle" x="286.5" y="-879.5" font-family="sans" font-size="10.00" fill="#000000">shard_saturated_reads_remove</text>
</g>
<!-- 9&#45;&gt;25 -->
<g id="edge49" class="edge">
<title>9&#45;&gt;25</title>
<path fill="none" stroke="#c0c0c0" stroke-width="2" d="M379.2944,-1079.7097C381.716,-1039.9853 380.0255,-980.4554 355.5,-936 349.0005,-924.2188 338.7549,-914.1322 328.1278,-905.9756"/>
<polygon fill="#c0c0c0" stroke="#c0c0c0" stroke-width="2" points="330.1449,-903.115 319.9827,-900.1183 326.058,-908.7982 330.1449,-903.115"/>
</g>
<!-- 10 -->
<g id="node11" class="node">
<title>10</title>
<path fill="none" stroke="#9fd856" stroke-width="2" d="M823,-1165C823,-1165 716,-1165 716,-1165 710,-1165 704,-1159 704,-1153 704,-1153 704,-1092 704,-1092 704,-1086 710,-1080 716,-1080 716,-1080 823,-1080 823,-1080 829,-1080 835,-1086 835,-1092 835,-1092 835,-1153 835,-1153 835,-1159 829,-1165 823,-1165"/>
<text text-anchor="middle" x="769.5" y="-1153" font-family="sans" font-size="10.00" fill="#000000">bowtie2</text>
<text text-anchor="middle" x="769.5" y="-1142" font-family="sans" font-size="10.00" fill="#000000">library: lib1</text>
<text text-anchor="middle" x="769.5" y="-1131" font-family="sans" font-size="10.00" fill="#000000">n_shard: 2</text>
<text text-anchor="middle" x="769.5" y="-1120" font-family="sans" font-size="10.00" fill="#000000">read_type_map: collapsed</text>
<text text-anchor="middle" x="769.5" y="-1109" font-family="sans" font-size="10.00" fill="#000000">ref: wgs_eukaryota</text>
<text text-anchor="middle" x="769.5" y="-1098" font-family="sans" font-size="10.00" fill="#000000">sample: HD827sonic_2</text>
<text text-anchor="middle" x="769.5" y="-1087" font-family="sans" font-size="10.00" fill="#000000">tot_shards: 2</text>
</g>
<!-- 10&#45;&gt;1 -->
<g id="edge19" class="edge">
<title>10&#45;&gt;1</title>
<path fill="none" stroke="#c0c0c0" stroke-width="2" d="M725.8473,-1079.9432C716.4143,-1068.9572 707.2568,-1056.6421 700.5,-1044 680.9864,-1007.4898 676.5,-995.3978 676.5,-954 676.5,-954 676.5,-954 676.5,-234 676.5,-192.6022 673.0737,-175.0093 700.5,-144 725.3234,-115.9337 766.8057,-102.235 797.0516,-95.6928"/>
<polygon fill="#c0c0c0" stroke="#c0c0c0" stroke-width="2" points="798.1114,-99.0506 807.2356,-93.6654 796.7447,-92.1853 798.1114,-99.0506"/>
</g>
<!-- 33 -->
<g id="node34" class="node">
<title>33</title>
<path fill="none" stroke="#56c9d8" stroke-width="2" d="M938,-1044C938,-1044 869,-1044 869,-1044 863,-1044 857,-1038 857,-1032 857,-1032 857,-1020 857,-1020 857,-1014 863,-1008 869,-1008 869,-1008 938,-1008 938,-1008 944,-1008 950,-1014 950,-1020 950,-1020 950,-1032 950,-1032 950,-1038 944,-1044 938,-1044"/>
<text text-anchor="middle" x="903.5" y="-1023.5" font-family="sans" font-size="10.00" fill="#000000">shard_count_alns</text>
</g>
<!-- 10&#45;&gt;33 -->
<g id="edge63" class="edge">
<title>10&#45;&gt;33</title>
<path fill="none" stroke="#c0c0c0" stroke-width="2" d="M828.6644,-1079.8928C842.7917,-1069.719 857.3903,-1059.2059 869.901,-1050.1963"/>
<polygon fill="#c0c0c0" stroke="#c0c0c0" stroke-width="2" points="872.1278,-1052.9058 878.1972,-1044.2218 868.0371,-1047.2255 872.1278,-1052.9058"/>
</g>
<!-- 40 -->
<g id="node41" class="node">
<title>40</title>
<path fill="none" stroke="#5682d8" stroke-width="2" d="M922,-900C922,-900 793,-900 793,-900 787,-900 781,-894 781,-888 781,-888 781,-876 781,-876 781,-870 787,-864 793,-864 793,-864 922,-864 922,-864 928,-864 934,-870 934,-876 934,-876 934,-888 934,-888 934,-894 928,-900 922,-900"/>
<text text-anchor="middle" x="857.5" y="-879.5" font-family="sans" font-size="10.00" fill="#000000">shard_saturated_reads_remove</text>
</g>
<!-- 10&#45;&gt;40 -->
<g id="edge71" class="edge">
<title>10&#45;&gt;40</title>
<path fill="none" stroke="#c0c0c0" stroke-width="2" d="M774.4002,-1079.9765C780.1149,-1040.9686 791.8296,-982.383 814.5,-936 819.3654,-926.0456 826.3248,-916.2382 833.2313,-907.7699"/>
<polygon fill="#c0c0c0" stroke="#c0c0c0" stroke-width="2" points="835.945,-909.9816 839.7666,-900.1 830.6168,-905.4417 835.945,-909.9816"/>
</g>
<!-- 11 -->
<g id="node12" class="node">
<title>11</title>
<path fill="none" stroke="#ced856" stroke-width="2" d="M500.5,-540C500.5,-540 460.5,-540 460.5,-540 454.5,-540 448.5,-534 448.5,-528 448.5,-528 448.5,-516 448.5,-516 448.5,-510 454.5,-504 460.5,-504 460.5,-504 500.5,-504 500.5,-504 506.5,-504 512.5,-510 512.5,-516 512.5,-516 512.5,-528 512.5,-528 512.5,-534 506.5,-540 500.5,-540"/>
<text text-anchor="middle" x="480.5" y="-519.5" font-family="sans" font-size="10.00" fill="#000000">align_stats</text>
</g>
<!-- 11&#45;&gt;1 -->
<g id="edge20" class="edge">
<title>11&#45;&gt;1</title>
<path fill="none" stroke="#c0c0c0" stroke-width="2" d="M489.8313,-503.9025C502.7471,-477.1296 524.5,-425.0538 524.5,-378 524.5,-378 524.5,-378 524.5,-234 524.5,-192.6022 518.1647,-172.17 548.5,-144 566.5869,-127.2041 723.6715,-104.5897 797.0389,-94.823"/>
<polygon fill="#c0c0c0" stroke="#c0c0c0" stroke-width="2" points="797.7738,-98.2564 807.2296,-93.4774 796.8575,-91.3166 797.7738,-98.2564"/>
</g>
<!-- 12 -->
<g id="node13" class="node">
<title>12</title>
<path fill="none" stroke="#d88556" stroke-width="2" d="M363,-684C363,-684 318,-684 318,-684 312,-684 306,-678 306,-672 306,-672 306,-660 306,-660 306,-654 312,-648 318,-648 318,-648 363,-648 363,-648 369,-648 375,-654 375,-660 375,-660 375,-672 375,-672 375,-678 369,-684 363,-684"/>
<text text-anchor="middle" x="340.5" y="-663.5" font-family="sans" font-size="10.00" fill="#000000">align_merge</text>
</g>
<!-- 12&#45;&gt;11 -->
<g id="edge29" class="edge">
<title>12&#45;&gt;11</title>
<path fill="none" stroke="#c0c0c0" stroke-width="2" d="M358.6867,-647.5397C368.9316,-637.1232 381.9512,-623.8565 393.5,-612 414.5961,-590.3417 438.4577,-565.6431 455.8482,-547.6053"/>
<polygon fill="#c0c0c0" stroke="#c0c0c0" stroke-width="2" points="458.4589,-549.9401 462.8781,-540.3109 453.4186,-545.0825 458.4589,-549.9401"/>
</g>
<!-- 61 -->
<g id="node62" class="node">
<title>61</title>
<path fill="none" stroke="#d8b456" stroke-width="2" d="M372.5,-612C372.5,-612 308.5,-612 308.5,-612 302.5,-612 296.5,-606 296.5,-600 296.5,-600 296.5,-588 296.5,-588 296.5,-582 302.5,-576 308.5,-576 308.5,-576 372.5,-576 372.5,-576 378.5,-576 384.5,-582 384.5,-588 384.5,-588 384.5,-600 384.5,-600 384.5,-606 378.5,-612 372.5,-612"/>
<text text-anchor="middle" x="340.5" y="-591.5" font-family="sans" font-size="10.00" fill="#000000">align_sort_coord</text>
</g>
<!-- 12&#45;&gt;61 -->
<g id="edge100" class="edge">
<title>12&#45;&gt;61</title>
<path fill="none" stroke="#c0c0c0" stroke-width="2" d="M340.5,-647.8314C340.5,-640.131 340.5,-630.9743 340.5,-622.4166"/>
<polygon fill="#c0c0c0" stroke="#c0c0c0" stroke-width="2" points="344.0001,-622.4132 340.5,-612.4133 337.0001,-622.4133 344.0001,-622.4132"/>
</g>
<!-- 13 -->
<g id="node14" class="node">
<title>13</title>
<path fill="none" stroke="#566bd8" stroke-width="2" d="M486.5,-756C486.5,-756 418.5,-756 418.5,-756 412.5,-756 406.5,-750 406.5,-744 406.5,-744 406.5,-732 406.5,-732 406.5,-726 412.5,-720 418.5,-720 418.5,-720 486.5,-720 486.5,-720 492.5,-720 498.5,-726 498.5,-732 498.5,-732 498.5,-744 498.5,-744 498.5,-750 492.5,-756 486.5,-756"/>
<text text-anchor="middle" x="452.5" y="-735.5" font-family="sans" font-size="10.00" fill="#000000">shard_sort_query</text>
</g>
<!-- 13&#45;&gt;12 -->
<g id="edge30" class="edge">
<title>13&#45;&gt;12</title>
<path fill="none" stroke="#c0c0c0" stroke-width="2" d="M424.2377,-719.8314C410.0448,-710.7074 392.6718,-699.539 377.4364,-689.7449"/>
<polygon fill="#c0c0c0" stroke="#c0c0c0" stroke-width="2" points="379.0578,-686.6263 368.7533,-684.1628 375.2724,-692.5146 379.0578,-686.6263"/>
</g>
<!-- 14 -->
<g id="node15" class="node">
<title>14</title>
<path fill="none" stroke="#56d8c9" stroke-width="2" d="M495.5,-828C495.5,-828 415.5,-828 415.5,-828 409.5,-828 403.5,-822 403.5,-816 403.5,-816 403.5,-804 403.5,-804 403.5,-798 409.5,-792 415.5,-792 415.5,-792 495.5,-792 495.5,-792 501.5,-792 507.5,-798 507.5,-804 507.5,-804 507.5,-816 507.5,-816 507.5,-822 501.5,-828 495.5,-828"/>
<text text-anchor="middle" x="455.5" y="-807.5" font-family="sans" font-size="10.00" fill="#000000">shard_clean_header</text>
</g>
<!-- 14&#45;&gt;13 -->
<g id="edge33" class="edge">
<title>14&#45;&gt;13</title>
<path fill="none" stroke="#c0c0c0" stroke-width="2" d="M454.743,-791.8314C454.4221,-784.131 454.0406,-774.9743 453.684,-766.4166"/>
<polygon fill="#c0c0c0" stroke="#c0c0c0" stroke-width="2" points="457.1806,-766.2589 453.2672,-756.4133 450.1867,-766.5503 457.1806,-766.2589"/>
</g>
<!-- 15&#45;&gt;14 -->
<g id="edge34" class="edge">
<title>15&#45;&gt;14</title>
<path fill="none" stroke="#c0c0c0" stroke-width="2" d="M456.9953,-863.8314C456.7814,-856.131 456.5271,-846.9743 456.2894,-838.4166"/>
<polygon fill="#c0c0c0" stroke="#c0c0c0" stroke-width="2" points="459.7879,-838.3122 456.0115,-828.4133 452.7906,-838.5066 459.7879,-838.3122"/>
</g>
<!-- 16 -->
<g id="node17" class="node">
<title>16</title>
<path fill="none" stroke="#569ad8" stroke-width="2" d="M334.5,-972C334.5,-972 224.5,-972 224.5,-972 218.5,-972 212.5,-966 212.5,-960 212.5,-960 212.5,-948 212.5,-948 212.5,-942 218.5,-936 224.5,-936 224.5,-936 334.5,-936 334.5,-936 340.5,-936 346.5,-942 346.5,-948 346.5,-948 346.5,-960 346.5,-960 346.5,-966 340.5,-972 334.5,-972"/>
<text text-anchor="middle" x="279.5" y="-951.5" font-family="sans" font-size="10.00" fill="#000000">shard_saturated_reads_get</text>
</g>
<!-- 16&#45;&gt;15 -->
<g id="edge36" class="edge">
<title>16&#45;&gt;15</title>
<path fill="none" stroke="#c0c0c0" stroke-width="2" d="M324.4169,-935.8314C348.435,-926.1162 378.1834,-914.0831 403.4592,-903.8592"/>
<polygon fill="#c0c0c0" stroke="#c0c0c0" stroke-width="2" points="404.9482,-907.0325 412.9061,-900.038 402.3233,-900.5432 404.9482,-907.0325"/>
</g>
<!-- 16&#45;&gt;22 -->
<g id="edge46" class="edge">
<title>16&#45;&gt;22</title>
<path fill="none" stroke="#c0c0c0" stroke-width="2" d="M228.5366,-935.9243C200.7853,-926.0815 166.2672,-913.8386 137.1386,-903.5073"/>
<polygon fill="#c0c0c0" stroke="#c0c0c0" stroke-width="2" points="138.0792,-900.1273 127.4844,-900.0831 135.7392,-906.7246 138.0792,-900.1273"/>
</g>
<!-- 16&#45;&gt;25 -->
<g id="edge50" class="edge">
<title>16&#45;&gt;25</title>
<path fill="none" stroke="#c0c0c0" stroke-width="2" d="M281.2664,-935.8314C282.015,-928.131 282.9053,-918.9743 283.7373,-910.4166"/>
<polygon fill="#c0c0c0" stroke="#c0c0c0" stroke-width="2" points="287.2256,-910.7051 284.7098,-900.4133 280.2585,-910.0276 287.2256,-910.7051"/>
</g>
<!-- 77 -->
<g id="node78" class="node">
<title>77</title>
<path fill="none" stroke="#56b1d8" stroke-width="2" d="M656,-108C656,-108 529,-108 529,-108 523,-108 517,-102 517,-96 517,-96 517,-84 517,-84 517,-78 523,-72 529,-72 529,-72 656,-72 656,-72 662,-72 668,-78 668,-84 668,-84 668,-96 668,-96 668,-102 662,-108 656,-108"/>
<text text-anchor="middle" x="592.5" y="-87.5" font-family="sans" font-size="10.00" fill="#000000">shard_saturated_reads_extract</text>
</g>
<!-- 16&#45;&gt;77 -->
<g id="edge119" class="edge">
<title>16&#45;&gt;77</title>
<path fill="none" stroke="#c0c0c0" stroke-width="2" d="M237.966,-935.9032C223.3947,-927.2837 208.6417,-915.4273 200.5,-900 193.0322,-885.8497 198.6841,-879.8966 200.5,-864 211.6834,-766.0982 235.936,-506.44 300.5,-432 329.5405,-398.5173 360.5761,-425.6725 393.5,-396 486.9647,-311.7655 442.078,-240.7647 522.5,-144 531.8153,-132.7917 543.8506,-122.4689 555.3065,-113.9167"/>
<polygon fill="#c0c0c0" stroke="#c0c0c0" stroke-width="2" points="557.4307,-116.7001 563.4986,-108.015 553.339,-111.0205 557.4307,-116.7001"/>
</g>
<!-- 17&#45;&gt;16 -->
<g id="edge37" class="edge">
<title>17&#45;&gt;16</title>
<path fill="none" stroke="#c0c0c0" stroke-width="2" d="M406.6018,-1007.8314C383.7643,-998.159 355.502,-986.1891 331.4313,-975.9944"/>
<polygon fill="#c0c0c0" stroke="#c0c0c0" stroke-width="2" points="332.6629,-972.7151 322.0897,-972.038 329.9329,-979.1608 332.6629,-972.7151"/>
</g>
<!-- 18&#45;&gt;16 -->
<g id="edge38" class="edge">
<title>18&#45;&gt;16</title>
<path fill="none" stroke="#c0c0c0" stroke-width="2" d="M294.4532,-1007.8314C292.2906,-1000.0463 289.7147,-990.7729 287.3152,-982.1347"/>
<polygon fill="#c0c0c0" stroke="#c0c0c0" stroke-width="2" points="290.6636,-981.1117 284.6148,-972.4133 283.919,-982.9852 290.6636,-981.1117"/>
</g>
<!-- 19&#45;&gt;16 -->
<g id="edge39" class="edge">
<title>19&#45;&gt;16</title>
<path fill="none" stroke="#c0c0c0" stroke-width="2" d="M211.4631,-1007.8314C222.6715,-998.9632 236.3209,-988.1637 248.4439,-978.5718"/>
<polygon fill="#c0c0c0" stroke="#c0c0c0" stroke-width="2" points="250.8737,-981.1125 256.5442,-972.1628 246.5303,-975.6229 250.8737,-981.1125"/>
</g>
<!-- 20 -->
<g id="node21" class="node">
<title>20</title>
<path fill="none" stroke="#566bd8" stroke-width="2" d="M189.5,-756C189.5,-756 121.5,-756 121.5,-756 115.5,-756 109.5,-750 109.5,-744 109.5,-744 109.5,-732 109.5,-732 109.5,-726 115.5,-720 121.5,-720 121.5,-720 189.5,-720 189.5,-720 195.5,-720 201.5,-726 201.5,-732 201.5,-732 201.5,-744 201.5,-744 201.5,-750 195.5,-756 189.5,-756"/>
<text text-anchor="middle" x="155.5" y="-735.5" font-family="sans" font-size="10.00" fill="#000000">shard_sort_query</text>
</g>
<!-- 20&#45;&gt;12 -->
<g id="edge31" class="edge">
<title>20&#45;&gt;12</title>
<path fill="none" stroke="#c0c0c0" stroke-width="2" d="M201.7061,-720.0171C230.7444,-708.7157 267.9838,-694.2225 296.5772,-683.0943"/>
<polygon fill="#c0c0c0" stroke="#c0c0c0" stroke-width="2" points="297.8686,-686.3475 305.9182,-679.4588 295.3297,-679.8241 297.8686,-686.3475"/>
</g>
<!-- 21 -->
<g id="node22" class="node">
<title>21</title>
<path fill="none" stroke="#56d8c9" stroke-width="2" d="M127.5,-828C127.5,-828 47.5,-828 47.5,-828 41.5,-828 35.5,-822 35.5,-816 35.5,-816 35.5,-804 35.5,-804 35.5,-798 41.5,-792 47.5,-792 47.5,-792 127.5,-792 127.5,-792 133.5,-792 139.5,-798 139.5,-804 139.5,-804 139.5,-816 139.5,-816 139.5,-822 133.5,-828 127.5,-828"/>
<text text-anchor="middle" x="87.5" y="-807.5" font-family="sans" font-size="10.00" fill="#000000">shard_clean_header</text>
</g>
<!-- 21&#45;&gt;20 -->
<g id="edge43" class="edge">
<title>21&#45;&gt;20</title>
<path fill="none" stroke="#c0c0c0" stroke-width="2" d="M104.6593,-791.8314C112.6511,-783.3694 122.3038,-773.1489 131.0416,-763.8971"/>
<polygon fill="#c0c0c0" stroke="#c0c0c0" stroke-width="2" points="133.788,-766.0866 138.1097,-756.4133 128.6989,-761.2802 133.788,-766.0866"/>
</g>
<!-- 22&#45;&gt;21 -->
<g id="edge44" class="edge">
<title>22&#45;&gt;21</title>
<path fill="none" stroke="#c0c0c0" stroke-width="2" d="M79.2758,-863.8314C80.4522,-856.131 81.8511,-846.9743 83.1586,-838.4166"/>
<polygon fill="#c0c0c0" stroke="#c0c0c0" stroke-width="2" points="86.6364,-838.8272 84.6869,-828.4133 79.7167,-837.7699 86.6364,-838.8272"/>
</g>
<!-- 23 -->
<g id="node24" class="node">
<title>23</title>
<path fill="none" stroke="#566bd8" stroke-width="2" d="M365.5,-756C365.5,-756 297.5,-756 297.5,-756 291.5,-756 285.5,-750 285.5,-744 285.5,-744 285.5,-732 285.5,-732 285.5,-726 291.5,-720 297.5,-720 297.5,-720 365.5,-720 365.5,-720 371.5,-720 377.5,-726 377.5,-732 377.5,-732 377.5,-744 377.5,-744 377.5,-750 371.5,-756 365.5,-756"/>
<text text-anchor="middle" x="331.5" y="-735.5" font-family="sans" font-size="10.00" fill="#000000">shard_sort_query</text>
</g>
<!-- 23&#45;&gt;12 -->
<g id="edge32" class="edge">
<title>23&#45;&gt;12</title>
<path fill="none" stroke="#c0c0c0" stroke-width="2" d="M333.7711,-719.8314C334.7336,-712.131 335.8782,-702.9743 336.9479,-694.4166"/>
<polygon fill="#c0c0c0" stroke="#c0c0c0" stroke-width="2" points="340.4309,-694.7702 338.1983,-684.4133 333.4849,-693.9019 340.4309,-694.7702"/>
</g>
<!-- 24 -->
<g id="node25" class="node">
<title>24</title>
<path fill="none" stroke="#56d8c9" stroke-width="2" d="M361.5,-828C361.5,-828 281.5,-828 281.5,-828 275.5,-828 269.5,-822 269.5,-816 269.5,-816 269.5,-804 269.5,-804 269.5,-798 275.5,-792 281.5,-792 281.5,-792 361.5,-792 361.5,-792 367.5,-792 373.5,-798 373.5,-804 373.5,-804 373.5,-816 373.5,-816 373.5,-822 367.5,-828 361.5,-828"/>
<text text-anchor="middle" x="321.5" y="-807.5" font-family="sans" font-size="10.00" fill="#000000">shard_clean_header</text>
</g>
<!-- 24&#45;&gt;23 -->
<g id="edge47" class="edge">
<title>24&#45;&gt;23</title>
<path fill="none" stroke="#c0c0c0" stroke-width="2" d="M324.0234,-791.8314C325.0929,-784.131 326.3647,-774.9743 327.5532,-766.4166"/>
<polygon fill="#c0c0c0" stroke="#c0c0c0" stroke-width="2" points="331.0336,-766.7997 328.9426,-756.4133 324.1001,-765.8367 331.0336,-766.7997"/>
</g>
<!-- 25&#45;&gt;24 -->
<g id="edge48" class="edge">
<title>25&#45;&gt;24</title>
<path fill="none" stroke="#c0c0c0" stroke-width="2" d="M295.332,-863.8314C299.1986,-855.8771 303.8206,-846.369 308.0968,-837.5723"/>
<polygon fill="#c0c0c0" stroke="#c0c0c0" stroke-width="2" points="311.3249,-838.9371 312.5491,-828.4133 305.0293,-835.8768 311.3249,-838.9371"/>
</g>
<!-- 26 -->
<g id="node27" class="node">
<title>26</title>
<path fill="none" stroke="#ced856" stroke-width="2" d="M794.5,-468C794.5,-468 754.5,-468 754.5,-468 748.5,-468 742.5,-462 742.5,-456 742.5,-456 742.5,-444 742.5,-444 742.5,-438 748.5,-432 754.5,-432 754.5,-432 794.5,-432 794.5,-432 800.5,-432 806.5,-438 806.5,-444 806.5,-444 806.5,-456 806.5,-456 806.5,-462 800.5,-468 794.5,-468"/>
<text text-anchor="middle" x="774.5" y="-447.5" font-family="sans" font-size="10.00" fill="#000000">align_stats</text>
</g>
<!-- 26&#45;&gt;1 -->
<g id="edge21" class="edge">
<title>26&#45;&gt;1</title>
<path fill="none" stroke="#c0c0c0" stroke-width="2" d="M776.7792,-431.8486C780.0012,-404.5755 785.5,-351.3818 785.5,-306 785.5,-306 785.5,-306 785.5,-234 785.5,-191.531 804.8374,-145.5922 819.2165,-117.303"/>
<polygon fill="#c0c0c0" stroke="#c0c0c0" stroke-width="2" points="822.3314,-118.8993 823.8677,-108.4164 816.1295,-115.6532 822.3314,-118.8993"/>
</g>
<!-- 27 -->
<g id="node28" class="node">
<title>27</title>
<path fill="none" stroke="#d88556" stroke-width="2" d="M1051,-684C1051,-684 1006,-684 1006,-684 1000,-684 994,-678 994,-672 994,-672 994,-660 994,-660 994,-654 1000,-648 1006,-648 1006,-648 1051,-648 1051,-648 1057,-648 1063,-654 1063,-660 1063,-660 1063,-672 1063,-672 1063,-678 1057,-684 1051,-684"/>
<text text-anchor="middle" x="1028.5" y="-663.5" font-family="sans" font-size="10.00" fill="#000000">align_merge</text>
</g>
<!-- 27&#45;&gt;26 -->
<g id="edge51" class="edge">
<title>27&#45;&gt;26</title>
<path fill="none" stroke="#c0c0c0" stroke-width="2" d="M1007.281,-647.9555C961.8973,-609.3614 855.3372,-518.7435 803.6447,-474.7845"/>
<polygon fill="#c0c0c0" stroke="#c0c0c0" stroke-width="2" points="805.7226,-471.957 795.8373,-468.1451 801.1878,-477.2896 805.7226,-471.957"/>
</g>
<!-- 67 -->
<g id="node68" class="node">
<title>67</title>
<path fill="none" stroke="#d8b456" stroke-width="2" d="M1063.5,-612C1063.5,-612 999.5,-612 999.5,-612 993.5,-612 987.5,-606 987.5,-600 987.5,-600 987.5,-588 987.5,-588 987.5,-582 993.5,-576 999.5,-576 999.5,-576 1063.5,-576 1063.5,-576 1069.5,-576 1075.5,-582 1075.5,-588 1075.5,-588 1075.5,-600 1075.5,-600 1075.5,-606 1069.5,-612 1063.5,-612"/>
<text text-anchor="middle" x="1031.5" y="-591.5" font-family="sans" font-size="10.00" fill="#000000">align_sort_coord</text>
</g>
<!-- 27&#45;&gt;67 -->
<g id="edge106" class="edge">
<title>27&#45;&gt;67</title>
<path fill="none" stroke="#c0c0c0" stroke-width="2" d="M1029.257,-647.8314C1029.5779,-640.131 1029.9594,-630.9743 1030.316,-622.4166"/>
<polygon fill="#c0c0c0" stroke="#c0c0c0" stroke-width="2" points="1033.8133,-622.5503 1030.7328,-612.4133 1026.8194,-622.2589 1033.8133,-622.5503"/>
</g>
<!-- 28 -->
<g id="node29" class="node">
<title>28</title>
<path fill="none" stroke="#566bd8" stroke-width="2" d="M1191.5,-756C1191.5,-756 1123.5,-756 1123.5,-756 1117.5,-756 1111.5,-750 1111.5,-744 1111.5,-744 1111.5,-732 1111.5,-732 1111.5,-726 1117.5,-720 1123.5,-720 1123.5,-720 1191.5,-720 1191.5,-720 1197.5,-720 1203.5,-726 1203.5,-732 1203.5,-732 1203.5,-744 1203.5,-744 1203.5,-750 1197.5,-756 1191.5,-756"/>
<text text-anchor="middle" x="1157.5" y="-735.5" font-family="sans" font-size="10.00" fill="#000000">shard_sort_query</text>
</g>
<!-- 28&#45;&gt;27 -->
<g id="edge52" class="edge">
<title>28&#45;&gt;27</title>
<path fill="none" stroke="#c0c0c0" stroke-width="2" d="M1124.9479,-719.8314C1108.2952,-710.5368 1087.8415,-699.1208 1070.0615,-689.1971"/>
<polygon fill="#c0c0c0" stroke="#c0c0c0" stroke-width="2" points="1071.4795,-685.9803 1061.0417,-684.1628 1068.0679,-692.0927 1071.4795,-685.9803"/>
</g>
<!-- 29 -->
<g id="node30" class="node">
<title>29</title>
<path fill="none" stroke="#56d8c9" stroke-width="2" d="M1215.5,-828C1215.5,-828 1135.5,-828 1135.5,-828 1129.5,-828 1123.5,-822 1123.5,-816 1123.5,-816 1123.5,-804 1123.5,-804 1123.5,-798 1129.5,-792 1135.5,-792 1135.5,-792 1215.5,-792 1215.5,-792 1221.5,-792 1227.5,-798 1227.5,-804 1227.5,-804 1227.5,-816 1227.5,-816 1227.5,-822 1221.5,-828 1215.5,-828"/>
<text text-anchor="middle" x="1175.5" y="-807.5" font-family="sans" font-size="10.00" fill="#000000">shard_clean_header</text>
</g>
<!-- 29&#45;&gt;28 -->
<g id="edge55" class="edge">
<title>29&#45;&gt;28</title>
<path fill="none" stroke="#c0c0c0" stroke-width="2" d="M1170.9578,-791.8314C1169.0116,-784.0463 1166.6932,-774.7729 1164.5337,-766.1347"/>
<polygon fill="#c0c0c0" stroke="#c0c0c0" stroke-width="2" points="1167.9242,-765.2658 1162.1033,-756.4133 1161.1332,-766.9636 1167.9242,-765.2658"/>
</g>
<!-- 30&#45;&gt;29 -->
<g id="edge56" class="edge">
<title>30&#45;&gt;29</title>
<path fill="none" stroke="#c0c0c0" stroke-width="2" d="M1193.4438,-863.8314C1190.8488,-856.0463 1187.7576,-846.7729 1184.8782,-838.1347"/>
<polygon fill="#c0c0c0" stroke="#c0c0c0" stroke-width="2" points="1188.1205,-836.7933 1181.6378,-828.4133 1181.4797,-839.0069 1188.1205,-836.7933"/>
</g>
<!-- 31 -->
<g id="node32" class="node">
<title>31</title>
<path fill="none" stroke="#569ad8" stroke-width="2" d="M1083.5,-972C1083.5,-972 973.5,-972 973.5,-972 967.5,-972 961.5,-966 961.5,-960 961.5,-960 961.5,-948 961.5,-948 961.5,-942 967.5,-936 973.5,-936 973.5,-936 1083.5,-936 1083.5,-936 1089.5,-936 1095.5,-942 1095.5,-948 1095.5,-948 1095.5,-960 1095.5,-960 1095.5,-966 1089.5,-972 1083.5,-972"/>
<text text-anchor="middle" x="1028.5" y="-951.5" font-family="sans" font-size="10.00" fill="#000000">shard_saturated_reads_get</text>
</g>
<!-- 31&#45;&gt;30 -->
<g id="edge58" class="edge">
<title>31&#45;&gt;30</title>
<path fill="none" stroke="#c0c0c0" stroke-width="2" d="M1071.6505,-935.8314C1094.6224,-926.159 1123.0509,-914.1891 1147.2632,-903.9944"/>
<polygon fill="#c0c0c0" stroke="#c0c0c0" stroke-width="2" points="1148.8016,-907.1443 1156.6598,-900.038 1146.0852,-900.6929 1148.8016,-907.1443"/>
</g>
<!-- 31&#45;&gt;37 -->
<g id="edge68" class="edge">
<title>31&#45;&gt;37</title>
<path fill="none" stroke="#c0c0c0" stroke-width="2" d="M1028.5,-935.8314C1028.5,-928.131 1028.5,-918.9743 1028.5,-910.4166"/>
<polygon fill="#c0c0c0" stroke="#c0c0c0" stroke-width="2" points="1032.0001,-910.4132 1028.5,-900.4133 1025.0001,-910.4133 1032.0001,-910.4132"/>
</g>
<!-- 31&#45;&gt;40 -->
<g id="edge72" class="edge">
<title>31&#45;&gt;40</title>
<path fill="none" stroke="#c0c0c0" stroke-width="2" d="M985.3495,-935.8314C962.3776,-926.159 933.9491,-914.1891 909.7368,-903.9944"/>
<polygon fill="#c0c0c0" stroke="#c0c0c0" stroke-width="2" points="910.9148,-900.6929 900.3402,-900.038 908.1984,-907.1443 910.9148,-900.6929"/>
</g>
<!-- 78 -->
<g id="node79" class="node">
<title>78</title>
<path fill="none" stroke="#56b1d8" stroke-width="2" d="M1340,-684C1340,-684 1213,-684 1213,-684 1207,-684 1201,-678 1201,-672 1201,-672 1201,-660 1201,-660 1201,-654 1207,-648 1213,-648 1213,-648 1340,-648 1340,-648 1346,-648 1352,-654 1352,-660 1352,-660 1352,-672 1352,-672 1352,-678 1346,-684 1340,-684"/>
<text text-anchor="middle" x="1276.5" y="-663.5" font-family="sans" font-size="10.00" fill="#000000">shard_saturated_reads_extract</text>
</g>
<!-- 31&#45;&gt;78 -->
<g id="edge120" class="edge">
<title>31&#45;&gt;78</title>
<path fill="none" stroke="#c0c0c0" stroke-width="2" d="M1095.6451,-948.6222C1163.0253,-941.7555 1260.3348,-927.3388 1285.5,-900 1339.9505,-840.8465 1321.9719,-798.2483 1303.5,-720 1301.3304,-710.8094 1297.3438,-701.3995 1293.0879,-693.0631"/>
<polygon fill="#c0c0c0" stroke="#c0c0c0" stroke-width="2" points="1296.1056,-691.286 1288.2508,-684.1759 1289.9573,-694.6324 1296.1056,-691.286"/>
</g>
<!-- 32&#45;&gt;31 -->
<g id="edge59" class="edge">
<title>32&#45;&gt;31</title>
<path fill="none" stroke="#c0c0c0" stroke-width="2" d="M1130.1815,-1007.8314C1112.4641,-998.4516 1090.6655,-986.9112 1071.8016,-976.9244"/>
<polygon fill="#c0c0c0" stroke="#c0c0c0" stroke-width="2" points="1073.2831,-973.7485 1062.8076,-972.1628 1070.0078,-979.935 1073.2831,-973.7485"/>
</g>
<!-- 33&#45;&gt;31 -->
<g id="edge60" class="edge">
<title>33&#45;&gt;31</title>
<path fill="none" stroke="#c0c0c0" stroke-width="2" d="M935.0428,-1007.8314C951.1791,-998.5368 970.9986,-987.1208 988.2272,-977.1971"/>
<polygon fill="#c0c0c0" stroke="#c0c0c0" stroke-width="2" points="990.0489,-980.187 996.9673,-972.1628 986.555,-974.1212 990.0489,-980.187"/>
</g>
<!-- 34&#45;&gt;31 -->
<g id="edge61" class="edge">
<title>34&#45;&gt;31</title>
<path fill="none" stroke="#c0c0c0" stroke-width="2" d="M1018.0328,-1007.8314C1019.5301,-1000.131 1021.3105,-990.9743 1022.9745,-982.4166"/>
<polygon fill="#c0c0c0" stroke="#c0c0c0" stroke-width="2" points="1026.4465,-982.8975 1024.9196,-972.4133 1019.5752,-981.5614 1026.4465,-982.8975"/>
</g>
<!-- 35 -->
<g id="node36" class="node">
<title>35</title>
<path fill="none" stroke="#566bd8" stroke-width="2" d="M1062.5,-756C1062.5,-756 994.5,-756 994.5,-756 988.5,-756 982.5,-750 982.5,-744 982.5,-744 982.5,-732 982.5,-732 982.5,-726 988.5,-720 994.5,-720 994.5,-720 1062.5,-720 1062.5,-720 1068.5,-720 1074.5,-726 1074.5,-732 1074.5,-732 1074.5,-744 1074.5,-744 1074.5,-750 1068.5,-756 1062.5,-756"/>
<text text-anchor="middle" x="1028.5" y="-735.5" font-family="sans" font-size="10.00" fill="#000000">shard_sort_query</text>
</g>
<!-- 35&#45;&gt;27 -->
<g id="edge53" class="edge">
<title>35&#45;&gt;27</title>
<path fill="none" stroke="#c0c0c0" stroke-width="2" d="M1028.5,-719.8314C1028.5,-712.131 1028.5,-702.9743 1028.5,-694.4166"/>
<polygon fill="#c0c0c0" stroke="#c0c0c0" stroke-width="2" points="1032.0001,-694.4132 1028.5,-684.4133 1025.0001,-694.4133 1032.0001,-694.4132"/>
</g>
<!-- 36 -->
<g id="node37" class="node">
<title>36</title>
<path fill="none" stroke="#56d8c9" stroke-width="2" d="M1068.5,-828C1068.5,-828 988.5,-828 988.5,-828 982.5,-828 976.5,-822 976.5,-816 976.5,-816 976.5,-804 976.5,-804 976.5,-798 982.5,-792 988.5,-792 988.5,-792 1068.5,-792 1068.5,-792 1074.5,-792 1080.5,-798 1080.5,-804 1080.5,-804 1080.5,-816 1080.5,-816 1080.5,-822 1074.5,-828 1068.5,-828"/>
<text text-anchor="middle" x="1028.5" y="-807.5" font-family="sans" font-size="10.00" fill="#000000">shard_clean_header</text>
</g>
<!-- 36&#45;&gt;35 -->
<g id="edge65" class="edge">
<title>36&#45;&gt;35</title>
<path fill="none" stroke="#c0c0c0" stroke-width="2" d="M1028.5,-791.8314C1028.5,-784.131 1028.5,-774.9743 1028.5,-766.4166"/>
<polygon fill="#c0c0c0" stroke="#c0c0c0" stroke-width="2" points="1032.0001,-766.4132 1028.5,-756.4133 1025.0001,-766.4133 1032.0001,-766.4132"/>
</g>
<!-- 37&#45;&gt;36 -->
<g id="edge66" class="edge">
<title>37&#45;&gt;36</title>
<path fill="none" stroke="#c0c0c0" stroke-width="2" d="M1028.5,-863.8314C1028.5,-856.131 1028.5,-846.9743 1028.5,-838.4166"/>
<polygon fill="#c0c0c0" stroke="#c0c0c0" stroke-width="2" points="1032.0001,-838.4132 1028.5,-828.4133 1025.0001,-838.4133 1032.0001,-838.4132"/>
</g>
<!-- 38 -->
<g id="node39" class="node">
<title>38</title>
<path fill="none" stroke="#566bd8" stroke-width="2" d="M936.5,-756C936.5,-756 868.5,-756 868.5,-756 862.5,-756 856.5,-750 856.5,-744 856.5,-744 856.5,-732 856.5,-732 856.5,-726 862.5,-720 868.5,-720 868.5,-720 936.5,-720 936.5,-720 942.5,-720 948.5,-726 948.5,-732 948.5,-732 948.5,-744 948.5,-744 948.5,-750 942.5,-756 936.5,-756"/>
<text text-anchor="middle" x="902.5" y="-735.5" font-family="sans" font-size="10.00" fill="#000000">shard_sort_query</text>
</g>
<!-- 38&#45;&gt;27 -->
<g id="edge54" class="edge">
<title>38&#45;&gt;27</title>
<path fill="none" stroke="#c0c0c0" stroke-width="2" d="M934.2951,-719.8314C950.5605,-710.5368 970.5386,-699.1208 987.9051,-689.1971"/>
<polygon fill="#c0c0c0" stroke="#c0c0c0" stroke-width="2" points="989.7691,-692.1631 996.7151,-684.1628 986.2961,-686.0854 989.7691,-692.1631"/>
</g>
<!-- 39 -->
<g id="node40" class="node">
<title>39</title>
<path fill="none" stroke="#56d8c9" stroke-width="2" d="M912.5,-828C912.5,-828 832.5,-828 832.5,-828 826.5,-828 820.5,-822 820.5,-816 820.5,-816 820.5,-804 820.5,-804 820.5,-798 826.5,-792 832.5,-792 832.5,-792 912.5,-792 912.5,-792 918.5,-792 924.5,-798 924.5,-804 924.5,-804 924.5,-816 924.5,-816 924.5,-822 918.5,-828 912.5,-828"/>
<text text-anchor="middle" x="872.5" y="-807.5" font-family="sans" font-size="10.00" fill="#000000">shard_clean_header</text>
</g>
<!-- 39&#45;&gt;38 -->
<g id="edge69" class="edge">
<title>39&#45;&gt;38</title>
<path fill="none" stroke="#c0c0c0" stroke-width="2" d="M880.0703,-791.8314C883.3493,-783.9617 887.262,-774.5712 890.8945,-765.8533"/>
<polygon fill="#c0c0c0" stroke="#c0c0c0" stroke-width="2" points="894.2124,-766.9902 894.8278,-756.4133 887.7508,-764.2979 894.2124,-766.9902"/>
</g>
<!-- 40&#45;&gt;39 -->
<g id="edge70" class="edge">
<title>40&#45;&gt;39</title>
<path fill="none" stroke="#c0c0c0" stroke-width="2" d="M861.2851,-863.8314C862.8894,-856.131 864.797,-846.9743 866.5799,-838.4166"/>
<polygon fill="#c0c0c0" stroke="#c0c0c0" stroke-width="2" points="870.0507,-838.9169 868.6639,-828.4133 863.1979,-837.4892 870.0507,-838.9169"/>
</g>
<!-- 41 -->
<g id="node42" class="node">
<title>41</title>
<path fill="none" stroke="#ced856" stroke-width="2" d="M1258.5,-396C1258.5,-396 1218.5,-396 1218.5,-396 1212.5,-396 1206.5,-390 1206.5,-384 1206.5,-384 1206.5,-372 1206.5,-372 1206.5,-366 1212.5,-360 1218.5,-360 1218.5,-360 1258.5,-360 1258.5,-360 1264.5,-360 1270.5,-366 1270.5,-372 1270.5,-372 1270.5,-384 1270.5,-384 1270.5,-390 1264.5,-396 1258.5,-396"/>
<text text-anchor="middle" x="1238.5" y="-375.5" font-family="sans" font-size="10.00" fill="#000000">align_stats</text>
</g>
<!-- 41&#45;&gt;1 -->
<g id="edge22" class="edge">
<title>41&#45;&gt;1</title>
<path fill="none" stroke="#c0c0c0" stroke-width="2" d="M1230.1117,-359.7353C1218.9572,-335.3117 1198.7581,-290.6083 1182.5,-252 1162.4491,-204.3849 1179.5571,-176.6292 1139.5,-144 1098.9663,-110.9826 944.0588,-96.9689 871.899,-92.1383"/>
<polygon fill="#c0c0c0" stroke="#c0c0c0" stroke-width="2" points="872.0812,-88.6429 861.8764,-91.4911 871.63,-95.6283 872.0812,-88.6429"/>
</g>
<!-- 42 -->
<g id="node43" class="node">
<title>42</title>
<path fill="none" stroke="#d88556" stroke-width="2" d="M1678,-684C1678,-684 1633,-684 1633,-684 1627,-684 1621,-678 1621,-672 1621,-672 1621,-660 1621,-660 1621,-654 1627,-648 1633,-648 1633,-648 1678,-648 1678,-648 1684,-648 1690,-654 1690,-660 1690,-660 1690,-672 1690,-672 1690,-678 1684,-684 1678,-684"/>
<text text-anchor="middle" x="1655.5" y="-663.5" font-family="sans" font-size="10.00" fill="#000000">align_merge</text>
</g>
<!-- 42&#45;&gt;41 -->
<g id="edge73" class="edge">
<title>42&#45;&gt;41</title>
<path fill="none" stroke="#c0c0c0" stroke-width="2" d="M1629.4148,-647.9843C1557.16,-598.0817 1354.3999,-458.046 1272.98,-401.8135"/>
<polygon fill="#c0c0c0" stroke="#c0c0c0" stroke-width="2" points="1274.7927,-398.8119 1264.5754,-396.0089 1270.8147,-404.5717 1274.7927,-398.8119"/>
</g>
<!-- 73 -->
<g id="node74" class="node">
<title>73</title>
<path fill="none" stroke="#d8b456" stroke-width="2" d="M1687.5,-612C1687.5,-612 1623.5,-612 1623.5,-612 1617.5,-612 1611.5,-606 1611.5,-600 1611.5,-600 1611.5,-588 1611.5,-588 1611.5,-582 1617.5,-576 1623.5,-576 1623.5,-576 1687.5,-576 1687.5,-576 1693.5,-576 1699.5,-582 1699.5,-588 1699.5,-588 1699.5,-600 1699.5,-600 1699.5,-606 1693.5,-612 1687.5,-612"/>
<text text-anchor="middle" x="1655.5" y="-591.5" font-family="sans" font-size="10.00" fill="#000000">align_sort_coord</text>
</g>
<!-- 42&#45;&gt;73 -->
<g id="edge112" class="edge">
<title>42&#45;&gt;73</title>
<path fill="none" stroke="#c0c0c0" stroke-width="2" d="M1655.5,-647.8314C1655.5,-640.131 1655.5,-630.9743 1655.5,-622.4166"/>
<polygon fill="#c0c0c0" stroke="#c0c0c0" stroke-width="2" points="1659.0001,-622.4132 1655.5,-612.4133 1652.0001,-622.4133 1659.0001,-622.4132"/>
</g>
<!-- 43 -->
<g id="node44" class="node">
<title>43</title>
<path fill="none" stroke="#566bd8" stroke-width="2" d="M1830.5,-756C1830.5,-756 1762.5,-756 1762.5,-756 1756.5,-756 1750.5,-750 1750.5,-744 1750.5,-744 1750.5,-732 1750.5,-732 1750.5,-726 1756.5,-720 1762.5,-720 1762.5,-720 1830.5,-720 1830.5,-720 1836.5,-720 1842.5,-726 1842.5,-732 1842.5,-732 1842.5,-744 1842.5,-744 1842.5,-750 1836.5,-756 1830.5,-756"/>
<text text-anchor="middle" x="1796.5" y="-735.5" font-family="sans" font-size="10.00" fill="#000000">shard_sort_query</text>
</g>
<!-- 43&#45;&gt;42 -->
<g id="edge74" class="edge">
<title>43&#45;&gt;42</title>
<path fill="none" stroke="#c0c0c0" stroke-width="2" d="M1760.9197,-719.8314C1742.1858,-710.2651 1719.0507,-698.4514 1699.2307,-688.3306"/>
<polygon fill="#c0c0c0" stroke="#c0c0c0" stroke-width="2" points="1700.5918,-685.0957 1690.094,-683.665 1697.4084,-691.33 1700.5918,-685.0957"/>
</g>
<!-- 44 -->
<g id="node45" class="node">
<title>44</title>
<path fill="none" stroke="#56d8c9" stroke-width="2" d="M1842.5,-828C1842.5,-828 1762.5,-828 1762.5,-828 1756.5,-828 1750.5,-822 1750.5,-816 1750.5,-816 1750.5,-804 1750.5,-804 1750.5,-798 1756.5,-792 1762.5,-792 1762.5,-792 1842.5,-792 1842.5,-792 1848.5,-792 1854.5,-798 1854.5,-804 1854.5,-804 1854.5,-816 1854.5,-816 1854.5,-822 1848.5,-828 1842.5,-828"/>
<text text-anchor="middle" x="1802.5" y="-807.5" font-family="sans" font-size="10.00" fill="#000000">shard_clean_header</text>
</g>
<!-- 44&#45;&gt;43 -->
<g id="edge77" class="edge">
<title>44&#45;&gt;43</title>
<path fill="none" stroke="#c0c0c0" stroke-width="2" d="M1800.9859,-791.8314C1800.3442,-784.131 1799.5812,-774.9743 1798.8681,-766.4166"/>
<polygon fill="#c0c0c0" stroke="#c0c0c0" stroke-width="2" points="1802.3529,-766.088 1798.0344,-756.4133 1795.3771,-766.6694 1802.3529,-766.088"/>
</g>
<!-- 45&#45;&gt;44 -->
<g id="edge78" class="edge">
<title>45&#45;&gt;44</title>
<path fill="none" stroke="#c0c0c0" stroke-width="2" d="M1821.1914,-863.8314C1818.4883,-856.0463 1815.2684,-846.7729 1812.269,-838.1347"/>
<polygon fill="#c0c0c0" stroke="#c0c0c0" stroke-width="2" points="1815.48,-836.7119 1808.8935,-828.4133 1808.8673,-839.0081 1815.48,-836.7119"/>
</g>
<!-- 46 -->
<g id="node47" class="node">
<title>46</title>
<path fill="none" stroke="#569ad8" stroke-width="2" d="M1749.5,-972C1749.5,-972 1639.5,-972 1639.5,-972 1633.5,-972 1627.5,-966 1627.5,-960 1627.5,-960 1627.5,-948 1627.5,-948 1627.5,-942 1633.5,-936 1639.5,-936 1639.5,-936 1749.5,-936 1749.5,-936 1755.5,-936 1761.5,-942 1761.5,-948 1761.5,-948 1761.5,-960 1761.5,-960 1761.5,-966 1755.5,-972 1749.5,-972"/>
<text text-anchor="middle" x="1694.5" y="-951.5" font-family="sans" font-size="10.00" fill="#000000">shard_saturated_reads_get</text>
</g>
<!-- 46&#45;&gt;45 -->
<g id="edge80" class="edge">
<title>46&#45;&gt;45</title>
<path fill="none" stroke="#c0c0c0" stroke-width="2" d="M1728.0615,-935.8314C1745.3881,-926.4516 1766.7058,-914.9112 1785.1536,-904.9244"/>
<polygon fill="#c0c0c0" stroke="#c0c0c0" stroke-width="2" points="1786.8214,-908.0015 1793.9492,-900.1628 1783.4889,-901.8457 1786.8214,-908.0015"/>
</g>
<!-- 46&#45;&gt;52 -->
<g id="edge90" class="edge">
<title>46&#45;&gt;52</title>
<path fill="none" stroke="#c0c0c0" stroke-width="2" d="M1642.0302,-935.9243C1613.3345,-926.0387 1577.6112,-913.7321 1547.54,-903.3726"/>
<polygon fill="#c0c0c0" stroke="#c0c0c0" stroke-width="2" points="1548.5861,-900.0312 1537.9913,-900.0831 1546.306,-906.6495 1548.5861,-900.0312"/>
</g>
<!-- 46&#45;&gt;55 -->
<g id="edge94" class="edge">
<title>46&#45;&gt;55</title>
<path fill="none" stroke="#c0c0c0" stroke-width="2" d="M1684.911,-935.8314C1680.6683,-927.7925 1675.5879,-918.1666 1670.904,-909.2918"/>
<polygon fill="#c0c0c0" stroke="#c0c0c0" stroke-width="2" points="1673.9811,-907.6235 1666.2181,-900.4133 1667.7904,-910.8908 1673.9811,-907.6235"/>
</g>
<!-- 79 -->
<g id="node80" class="node">
<title>79</title>
<path fill="none" stroke="#56b1d8" stroke-width="2" d="M1972,-612C1972,-612 1845,-612 1845,-612 1839,-612 1833,-606 1833,-600 1833,-600 1833,-588 1833,-588 1833,-582 1839,-576 1845,-576 1845,-576 1972,-576 1972,-576 1978,-576 1984,-582 1984,-588 1984,-588 1984,-600 1984,-600 1984,-606 1978,-612 1972,-612"/>
<text text-anchor="middle" x="1908.5" y="-591.5" font-family="sans" font-size="10.00" fill="#000000">shard_saturated_reads_extract</text>
</g>
<!-- 46&#45;&gt;79 -->
<g id="edge121" class="edge">
<title>46&#45;&gt;79</title>
<path fill="none" stroke="#c0c0c0" stroke-width="2" d="M1761.6639,-945.3533C1818.0335,-936.7173 1892.609,-921.6071 1913.5,-900 1941.9166,-870.6094 1932.5,-850.8816 1932.5,-810 1932.5,-810 1932.5,-810 1932.5,-738 1932.5,-697.1433 1922.9835,-650.6424 1915.9355,-621.8061"/>
<polygon fill="#c0c0c0" stroke="#c0c0c0" stroke-width="2" points="1919.3085,-620.8675 1913.4728,-612.0247 1912.5204,-622.5766 1919.3085,-620.8675"/>
</g>
<!-- 47&#45;&gt;46 -->
<g id="edge81" class="edge">
<title>47&#45;&gt;46</title>
<path fill="none" stroke="#c0c0c0" stroke-width="2" d="M1777.49,-1007.8314C1763.4239,-998.7074 1746.206,-987.539 1731.1067,-977.7449"/>
<polygon fill="#c0c0c0" stroke="#c0c0c0" stroke-width="2" points="1732.7953,-974.6684 1722.501,-972.1628 1728.986,-980.5412 1732.7953,-974.6684"/>
</g>
<!-- 48&#45;&gt;46 -->
<g id="edge82" class="edge">
<title>48&#45;&gt;46</title>
<path fill="none" stroke="#c0c0c0" stroke-width="2" d="M1694.5,-1007.8314C1694.5,-1000.131 1694.5,-990.9743 1694.5,-982.4166"/>
<polygon fill="#c0c0c0" stroke="#c0c0c0" stroke-width="2" points="1698.0001,-982.4132 1694.5,-972.4133 1691.0001,-982.4133 1698.0001,-982.4132"/>
</g>
<!-- 49&#45;&gt;46 -->
<g id="edge83" class="edge">
<title>49&#45;&gt;46</title>
<path fill="none" stroke="#c0c0c0" stroke-width="2" d="M1611.51,-1007.8314C1625.5761,-998.7074 1642.794,-987.539 1657.8933,-977.7449"/>
<polygon fill="#c0c0c0" stroke="#c0c0c0" stroke-width="2" points="1660.014,-980.5412 1666.499,-972.1628 1656.2047,-974.6684 1660.014,-980.5412"/>
</g>
<!-- 50 -->
<g id="node51" class="node">
<title>50</title>
<path fill="none" stroke="#566bd8" stroke-width="2" d="M1574.5,-756C1574.5,-756 1506.5,-756 1506.5,-756 1500.5,-756 1494.5,-750 1494.5,-744 1494.5,-744 1494.5,-732 1494.5,-732 1494.5,-726 1500.5,-720 1506.5,-720 1506.5,-720 1574.5,-720 1574.5,-720 1580.5,-720 1586.5,-726 1586.5,-732 1586.5,-732 1586.5,-744 1586.5,-744 1586.5,-750 1580.5,-756 1574.5,-756"/>
<text text-anchor="middle" x="1540.5" y="-735.5" font-family="sans" font-size="10.00" fill="#000000">shard_sort_query</text>
</g>
<!-- 50&#45;&gt;42 -->
<g id="edge75" class="edge">
<title>50&#45;&gt;42</title>
<path fill="none" stroke="#c0c0c0" stroke-width="2" d="M1569.5194,-719.8314C1584.2286,-710.6221 1602.2644,-699.3301 1618.0122,-689.4706"/>
<polygon fill="#c0c0c0" stroke="#c0c0c0" stroke-width="2" points="1619.8714,-692.436 1626.4899,-684.1628 1616.1567,-686.5029 1619.8714,-692.436"/>
</g>
<!-- 51 -->
<g id="node52" class="node">
<title>51</title>
<path fill="none" stroke="#56d8c9" stroke-width="2" d="M1550.5,-828C1550.5,-828 1470.5,-828 1470.5,-828 1464.5,-828 1458.5,-822 1458.5,-816 1458.5,-816 1458.5,-804 1458.5,-804 1458.5,-798 1464.5,-792 1470.5,-792 1470.5,-792 1550.5,-792 1550.5,-792 1556.5,-792 1562.5,-798 1562.5,-804 1562.5,-804 1562.5,-816 1562.5,-816 1562.5,-822 1556.5,-828 1550.5,-828"/>
<text text-anchor="middle" x="1510.5" y="-807.5" font-family="sans" font-size="10.00" fill="#000000">shard_clean_header</text>
</g>
<!-- 51&#45;&gt;50 -->
<g id="edge87" class="edge">
<title>51&#45;&gt;50</title>
<path fill="none" stroke="#c0c0c0" stroke-width="2" d="M1518.0703,-791.8314C1521.3493,-783.9617 1525.262,-774.5712 1528.8945,-765.8533"/>
<polygon fill="#c0c0c0" stroke="#c0c0c0" stroke-width="2" points="1532.2124,-766.9902 1532.8278,-756.4133 1525.7508,-764.2979 1532.2124,-766.9902"/>
</g>
<!-- 52&#45;&gt;51 -->
<g id="edge88" class="edge">
<title>52&#45;&gt;51</title>
<path fill="none" stroke="#c0c0c0" stroke-width="2" d="M1491.8086,-863.8314C1494.5117,-856.0463 1497.7316,-846.7729 1500.731,-838.1347"/>
<polygon fill="#c0c0c0" stroke="#c0c0c0" stroke-width="2" points="1504.1327,-839.0081 1504.1065,-828.4133 1497.52,-836.7119 1504.1327,-839.0081"/>
</g>
<!-- 53 -->
<g id="node54" class="node">
<title>53</title>
<path fill="none" stroke="#566bd8" stroke-width="2" d="M1690.5,-756C1690.5,-756 1622.5,-756 1622.5,-756 1616.5,-756 1610.5,-750 1610.5,-744 1610.5,-744 1610.5,-732 1610.5,-732 1610.5,-726 1616.5,-720 1622.5,-720 1622.5,-720 1690.5,-720 1690.5,-720 1696.5,-720 1702.5,-726 1702.5,-732 1702.5,-732 1702.5,-744 1702.5,-744 1702.5,-750 1696.5,-756 1690.5,-756"/>
<text text-anchor="middle" x="1656.5" y="-735.5" font-family="sans" font-size="10.00" fill="#000000">shard_sort_query</text>
</g>
<!-- 53&#45;&gt;42 -->
<g id="edge76" class="edge">
<title>53&#45;&gt;42</title>
<path fill="none" stroke="#c0c0c0" stroke-width="2" d="M1656.2477,-719.8314C1656.1407,-712.131 1656.0135,-702.9743 1655.8947,-694.4166"/>
<polygon fill="#c0c0c0" stroke="#c0c0c0" stroke-width="2" points="1659.3944,-694.3637 1655.7557,-684.4133 1652.3951,-694.4609 1659.3944,-694.3637"/>
</g>
<!-- 54 -->
<g id="node55" class="node">
<title>54</title>
<path fill="none" stroke="#56d8c9" stroke-width="2" d="M1696.5,-828C1696.5,-828 1616.5,-828 1616.5,-828 1610.5,-828 1604.5,-822 1604.5,-816 1604.5,-816 1604.5,-804 1604.5,-804 1604.5,-798 1610.5,-792 1616.5,-792 1616.5,-792 1696.5,-792 1696.5,-792 1702.5,-792 1708.5,-798 1708.5,-804 1708.5,-804 1708.5,-816 1708.5,-816 1708.5,-822 1702.5,-828 1696.5,-828"/>
<text text-anchor="middle" x="1656.5" y="-807.5" font-family="sans" font-size="10.00" fill="#000000">shard_clean_header</text>
</g>
<!-- 54&#45;&gt;53 -->
<g id="edge91" class="edge">
<title>54&#45;&gt;53</title>
<path fill="none" stroke="#c0c0c0" stroke-width="2" d="M1656.5,-791.8314C1656.5,-784.131 1656.5,-774.9743 1656.5,-766.4166"/>
<polygon fill="#c0c0c0" stroke="#c0c0c0" stroke-width="2" points="1660.0001,-766.4132 1656.5,-756.4133 1653.0001,-766.4133 1660.0001,-766.4132"/>
</g>
<!-- 55&#45;&gt;54 -->
<g id="edge92" class="edge">
<title>55&#45;&gt;54</title>
<path fill="none" stroke="#c0c0c0" stroke-width="2" d="M1656.5,-863.8314C1656.5,-856.131 1656.5,-846.9743 1656.5,-838.4166"/>
<polygon fill="#c0c0c0" stroke="#c0c0c0" stroke-width="2" points="1660.0001,-838.4132 1656.5,-828.4133 1653.0001,-838.4133 1660.0001,-838.4132"/>
</g>
<!-- 56 -->
<g id="node57" class="node">
<title>56</title>
<path fill="none" stroke="#56d882" stroke-width="2" d="M408.5,-252C408.5,-252 356.5,-252 356.5,-252 350.5,-252 344.5,-246 344.5,-240 344.5,-240 344.5,-228 344.5,-228 344.5,-222 350.5,-216 356.5,-216 356.5,-216 408.5,-216 408.5,-216 414.5,-216 420.5,-222 420.5,-228 420.5,-228 420.5,-240 420.5,-240 420.5,-246 414.5,-252 408.5,-252"/>
<text text-anchor="middle" x="382.5" y="-231.5" font-family="sans" font-size="10.00" fill="#000000">metadmg_dfit</text>
</g>
<!-- 56&#45;&gt;1 -->
<g id="edge23" class="edge">
<title>56&#45;&gt;1</title>
<path fill="none" stroke="#c0c0c0" stroke-width="2" d="M402.0831,-215.9143C425.8436,-195.0568 468.0199,-161.4112 510.5,-144 562.0497,-122.8714 723.6531,-102.5381 797.2845,-94.0944"/>
<polygon fill="#c0c0c0" stroke="#c0c0c0" stroke-width="2" points="797.9449,-97.542 807.4862,-92.9362 797.1552,-90.5867 797.9449,-97.542"/>
</g>
<!-- 74 -->
<g id="node75" class="node">
<title>74</title>
<path fill="none" stroke="#59d856" stroke-width="2" d="M408,-180C408,-180 327,-180 327,-180 321,-180 315,-174 315,-168 315,-168 315,-156 315,-156 315,-150 321,-144 327,-144 327,-144 408,-144 408,-144 414,-144 420,-150 420,-156 420,-156 420,-168 420,-168 420,-174 414,-180 408,-180"/>
<text text-anchor="middle" x="367.5" y="-159.5" font-family="sans" font-size="10.00" fill="#000000">metadmg_aggregate</text>
</g>
<!-- 56&#45;&gt;74 -->
<g id="edge114" class="edge">
<title>56&#45;&gt;74</title>
<path fill="none" stroke="#c0c0c0" stroke-width="2" d="M378.7149,-215.8314C377.1106,-208.131 375.203,-198.9743 373.4201,-190.4166"/>
<polygon fill="#c0c0c0" stroke="#c0c0c0" stroke-width="2" points="376.8021,-189.4892 371.3361,-180.4133 369.9493,-190.9169 376.8021,-189.4892"/>
</g>
<!-- 57 -->
<g id="node58" class="node">
<title>57</title>
<path fill="none" stroke="#56d89a" stroke-width="2" d="M370,-324C370,-324 319,-324 319,-324 313,-324 307,-318 307,-312 307,-312 307,-300 307,-300 307,-294 313,-288 319,-288 319,-288 370,-288 370,-288 376,-288 382,-294 382,-300 382,-300 382,-312 382,-312 382,-318 376,-324 370,-324"/>
<text text-anchor="middle" x="344.5" y="-303.5" font-family="sans" font-size="10.00" fill="#000000">metadmg_lca</text>
</g>
<!-- 57&#45;&gt;56 -->
<g id="edge95" class="edge">
<title>57&#45;&gt;56</title>
<path fill="none" stroke="#c0c0c0" stroke-width="2" d="M354.089,-287.8314C358.3317,-279.7925 363.4121,-270.1666 368.096,-261.2918"/>
<polygon fill="#c0c0c0" stroke="#c0c0c0" stroke-width="2" points="371.2096,-262.8908 372.7819,-252.4133 365.0189,-259.6235 371.2096,-262.8908"/>
</g>
<!-- 57&#45;&gt;74 -->
<g id="edge113" class="edge">
<title>57&#45;&gt;74</title>
<path fill="none" stroke="#c0c0c0" stroke-width="2" d="M338.8509,-287.746C334.0353,-269.3297 328.8596,-240.2313 335.5,-216 338.0805,-206.5837 342.7742,-197.1443 347.7859,-188.8513"/>
<polygon fill="#c0c0c0" stroke="#c0c0c0" stroke-width="2" points="350.7851,-190.6585 353.2641,-180.3577 344.9026,-186.8644 350.7851,-190.6585"/>
</g>
<!-- 58 -->
<g id="node59" class="node">
<title>58</title>
<path fill="none" stroke="#d8cb56" stroke-width="2" d="M372.5,-396C372.5,-396 308.5,-396 308.5,-396 302.5,-396 296.5,-390 296.5,-384 296.5,-384 296.5,-372 296.5,-372 296.5,-366 302.5,-360 308.5,-360 308.5,-360 372.5,-360 372.5,-360 378.5,-360 384.5,-366 384.5,-372 384.5,-372 384.5,-384 384.5,-384 384.5,-390 378.5,-396 372.5,-396"/>
<text text-anchor="middle" x="340.5" y="-375.5" font-family="sans" font-size="10.00" fill="#000000">align_sort_query</text>
</g>
<!-- 58&#45;&gt;57 -->
<g id="edge96" class="edge">
<title>58&#45;&gt;57</title>
<path fill="none" stroke="#c0c0c0" stroke-width="2" d="M341.5094,-359.8314C341.9372,-352.131 342.4459,-342.9743 342.9213,-334.4166"/>
<polygon fill="#c0c0c0" stroke="#c0c0c0" stroke-width="2" points="346.4169,-334.592 343.477,-324.4133 339.4276,-334.2037 346.4169,-334.592"/>
</g>
<!-- 80 -->
<g id="node81" class="node">
<title>80</title>
<path fill="none" stroke="#56d86b" stroke-width="2" d="M381,-108C381,-108 308,-108 308,-108 302,-108 296,-102 296,-96 296,-96 296,-84 296,-84 296,-78 302,-72 308,-72 308,-72 381,-72 381,-72 387,-72 393,-78 393,-84 393,-84 393,-96 393,-96 393,-102 387,-108 381,-108"/>
<text text-anchor="middle" x="344.5" y="-87.5" font-family="sans" font-size="10.00" fill="#000000">metadmg_damage</text>
</g>
<!-- 58&#45;&gt;80 -->
<g id="edge122" class="edge">
<title>58&#45;&gt;80</title>
<path fill="none" stroke="#c0c0c0" stroke-width="2" d="M321.0044,-359.9663C311.9897,-350.2894 302.2449,-337.5757 297.5,-324 285.4787,-289.6053 268.8947,-247.32 305.5,-144 308.9395,-134.2918 314.7062,-124.8027 320.7645,-116.5552"/>
<polygon fill="#c0c0c0" stroke="#c0c0c0" stroke-width="2" points="323.6969,-118.487 327.098,-108.4529 318.1819,-114.1759 323.6969,-118.487"/>
</g>
<!-- 59 -->
<g id="node60" class="node">
<title>59</title>
<path fill="none" stroke="#d85656" stroke-width="2" d="M359,-468C359,-468 322,-468 322,-468 316,-468 310,-462 310,-456 310,-456 310,-444 310,-444 310,-438 316,-432 322,-432 322,-432 359,-432 359,-432 365,-432 371,-438 371,-444 371,-444 371,-456 371,-456 371,-462 365,-468 359,-468"/>
<text text-anchor="middle" x="340.5" y="-447.5" font-family="sans" font-size="10.00" fill="#000000">align_filter</text>
</g>
<!-- 59&#45;&gt;58 -->
<g id="edge97" class="edge">
<title>59&#45;&gt;58</title>
<path fill="none" stroke="#c0c0c0" stroke-width="2" d="M340.5,-431.8314C340.5,-424.131 340.5,-414.9743 340.5,-406.4166"/>
<polygon fill="#c0c0c0" stroke="#c0c0c0" stroke-width="2" points="344.0001,-406.4132 340.5,-396.4133 337.0001,-406.4133 344.0001,-406.4132"/>
</g>
<!-- 60 -->
<g id="node61" class="node">
<title>60</title>
<path fill="none" stroke="#d89c56" stroke-width="2" d="M368,-540C368,-540 313,-540 313,-540 307,-540 301,-534 301,-528 301,-528 301,-516 301,-516 301,-510 307,-504 313,-504 313,-504 368,-504 368,-504 374,-504 380,-510 380,-516 380,-516 380,-528 380,-528 380,-534 374,-540 368,-540"/>
<text text-anchor="middle" x="340.5" y="-519.5" font-family="sans" font-size="10.00" fill="#000000">align_reassign</text>
</g>
<!-- 60&#45;&gt;59 -->
<g id="edge98" class="edge">
<title>60&#45;&gt;59</title>
<path fill="none" stroke="#c0c0c0" stroke-width="2" d="M340.5,-503.8314C340.5,-496.131 340.5,-486.9743 340.5,-478.4166"/>
<polygon fill="#c0c0c0" stroke="#c0c0c0" stroke-width="2" points="344.0001,-478.4132 340.5,-468.4133 337.0001,-478.4133 344.0001,-478.4132"/>
</g>
<!-- 61&#45;&gt;60 -->
<g id="edge99" class="edge">
<title>61&#45;&gt;60</title>
<path fill="none" stroke="#c0c0c0" stroke-width="2" d="M340.5,-575.8314C340.5,-568.131 340.5,-558.9743 340.5,-550.4166"/>
<polygon fill="#c0c0c0" stroke="#c0c0c0" stroke-width="2" points="344.0001,-550.4132 340.5,-540.4133 337.0001,-550.4133 344.0001,-550.4132"/>
</g>
<!-- 62 -->
<g id="node63" class="node">
<title>62</title>
<path fill="none" stroke="#56d882" stroke-width="2" d="M1050.5,-252C1050.5,-252 998.5,-252 998.5,-252 992.5,-252 986.5,-246 986.5,-240 986.5,-240 986.5,-228 986.5,-228 986.5,-222 992.5,-216 998.5,-216 998.5,-216 1050.5,-216 1050.5,-216 1056.5,-216 1062.5,-222 1062.5,-228 1062.5,-228 1062.5,-240 1062.5,-240 1062.5,-246 1056.5,-252 1050.5,-252"/>
<text text-anchor="middle" x="1024.5" y="-231.5" font-family="sans" font-size="10.00" fill="#000000">metadmg_dfit</text>
</g>
<!-- 62&#45;&gt;1 -->
<g id="edge24" class="edge">
<title>62&#45;&gt;1</title>
<path fill="none" stroke="#c0c0c0" stroke-width="2" d="M1018.1617,-215.6898C1010.3384,-195.5706 995.2185,-163.5245 972.5,-144 943.5266,-119.1 901.7343,-104.9178 871.7425,-97.3974"/>
<polygon fill="#c0c0c0" stroke="#c0c0c0" stroke-width="2" points="872.2042,-93.9099 861.6665,-95.0086 870.5893,-100.7211 872.2042,-93.9099"/>
</g>
<!-- 75 -->
<g id="node76" class="node">
<title>75</title>
<path fill="none" stroke="#59d856" stroke-width="2" d="M1118,-180C1118,-180 1037,-180 1037,-180 1031,-180 1025,-174 1025,-168 1025,-168 1025,-156 1025,-156 1025,-150 1031,-144 1037,-144 1037,-144 1118,-144 1118,-144 1124,-144 1130,-150 1130,-156 1130,-156 1130,-168 1130,-168 1130,-174 1124,-180 1118,-180"/>
<text text-anchor="middle" x="1077.5" y="-159.5" font-family="sans" font-size="10.00" fill="#000000">metadmg_aggregate</text>
</g>
<!-- 62&#45;&gt;75 -->
<g id="edge116" class="edge">
<title>62&#45;&gt;75</title>
<path fill="none" stroke="#c0c0c0" stroke-width="2" d="M1037.8741,-215.8314C1043.9162,-207.6232 1051.1763,-197.7606 1057.8221,-188.7323"/>
<polygon fill="#c0c0c0" stroke="#c0c0c0" stroke-width="2" points="1060.8363,-190.5415 1063.9458,-180.4133 1055.1989,-186.3918 1060.8363,-190.5415"/>
</g>
<!-- 63 -->
<g id="node64" class="node">
<title>63</title>
<path fill="none" stroke="#56d89a" stroke-width="2" d="M1065,-324C1065,-324 1014,-324 1014,-324 1008,-324 1002,-318 1002,-312 1002,-312 1002,-300 1002,-300 1002,-294 1008,-288 1014,-288 1014,-288 1065,-288 1065,-288 1071,-288 1077,-294 1077,-300 1077,-300 1077,-312 1077,-312 1077,-318 1071,-324 1065,-324"/>
<text text-anchor="middle" x="1039.5" y="-303.5" font-family="sans" font-size="10.00" fill="#000000">metadmg_lca</text>
</g>
<!-- 63&#45;&gt;62 -->
<g id="edge101" class="edge">
<title>63&#45;&gt;62</title>
<path fill="none" stroke="#c0c0c0" stroke-width="2" d="M1035.7149,-287.8314C1034.1106,-280.131 1032.203,-270.9743 1030.4201,-262.4166"/>
<polygon fill="#c0c0c0" stroke="#c0c0c0" stroke-width="2" points="1033.8021,-261.4892 1028.3361,-252.4133 1026.9493,-262.9169 1033.8021,-261.4892"/>
</g>
<!-- 63&#45;&gt;75 -->
<g id="edge115" class="edge">
<title>63&#45;&gt;75</title>
<path fill="none" stroke="#c0c0c0" stroke-width="2" d="M1053.3868,-287.5403C1060.1092,-277.5574 1067.5614,-264.6981 1071.5,-252 1077.7145,-231.9644 1079.0681,-208.2538 1078.9464,-190.2003"/>
<polygon fill="#c0c0c0" stroke="#c0c0c0" stroke-width="2" points="1082.4419,-189.9545 1078.7201,-180.0349 1075.4436,-190.1103 1082.4419,-189.9545"/>
</g>
<!-- 64 -->
<g id="node65" class="node">
<title>64</title>
<path fill="none" stroke="#d8cb56" stroke-width="2" d="M1071.5,-396C1071.5,-396 1007.5,-396 1007.5,-396 1001.5,-396 995.5,-390 995.5,-384 995.5,-384 995.5,-372 995.5,-372 995.5,-366 1001.5,-360 1007.5,-360 1007.5,-360 1071.5,-360 1071.5,-360 1077.5,-360 1083.5,-366 1083.5,-372 1083.5,-372 1083.5,-384 1083.5,-384 1083.5,-390 1077.5,-396 1071.5,-396"/>
<text text-anchor="middle" x="1039.5" y="-375.5" font-family="sans" font-size="10.00" fill="#000000">align_sort_query</text>
</g>
<!-- 64&#45;&gt;63 -->
<g id="edge102" class="edge">
<title>64&#45;&gt;63</title>
<path fill="none" stroke="#c0c0c0" stroke-width="2" d="M1039.5,-359.8314C1039.5,-352.131 1039.5,-342.9743 1039.5,-334.4166"/>
<polygon fill="#c0c0c0" stroke="#c0c0c0" stroke-width="2" points="1043.0001,-334.4132 1039.5,-324.4133 1036.0001,-334.4133 1043.0001,-334.4132"/>
</g>
<!-- 81 -->
<g id="node82" class="node">
<title>81</title>
<path fill="none" stroke="#56d86b" stroke-width="2" d="M1310,-252C1310,-252 1237,-252 1237,-252 1231,-252 1225,-246 1225,-240 1225,-240 1225,-228 1225,-228 1225,-222 1231,-216 1237,-216 1237,-216 1310,-216 1310,-216 1316,-216 1322,-222 1322,-228 1322,-228 1322,-240 1322,-240 1322,-246 1316,-252 1310,-252"/>
<text text-anchor="middle" x="1273.5" y="-231.5" font-family="sans" font-size="10.00" fill="#000000">metadmg_damage</text>
</g>
<!-- 64&#45;&gt;81 -->
<g id="edge123" class="edge">
<title>64&#45;&gt;81</title>
<path fill="none" stroke="#c0c0c0" stroke-width="2" d="M1069.1363,-359.7623C1111.4219,-333.7404 1189.0799,-285.9508 1235.5301,-257.3661"/>
<polygon fill="#c0c0c0" stroke="#c0c0c0" stroke-width="2" points="1237.4221,-260.3114 1244.1044,-252.0896 1233.7534,-254.3498 1237.4221,-260.3114"/>
</g>
<!-- 65 -->
<g id="node66" class="node">
<title>65</title>
<path fill="none" stroke="#d85656" stroke-width="2" d="M1057,-468C1057,-468 1020,-468 1020,-468 1014,-468 1008,-462 1008,-456 1008,-456 1008,-444 1008,-444 1008,-438 1014,-432 1020,-432 1020,-432 1057,-432 1057,-432 1063,-432 1069,-438 1069,-444 1069,-444 1069,-456 1069,-456 1069,-462 1063,-468 1057,-468"/>
<text text-anchor="middle" x="1038.5" y="-447.5" font-family="sans" font-size="10.00" fill="#000000">align_filter</text>
</g>
<!-- 65&#45;&gt;64 -->
<g id="edge103" class="edge">
<title>65&#45;&gt;64</title>
<path fill="none" stroke="#c0c0c0" stroke-width="2" d="M1038.7523,-431.8314C1038.8593,-424.131 1038.9865,-414.9743 1039.1053,-406.4166"/>
<polygon fill="#c0c0c0" stroke="#c0c0c0" stroke-width="2" points="1042.6049,-406.4609 1039.2443,-396.4133 1035.6056,-406.3637 1042.6049,-406.4609"/>
</g>
<!-- 66 -->
<g id="node67" class="node">
<title>66</title>
<path fill="none" stroke="#d89c56" stroke-width="2" d="M1065,-540C1065,-540 1010,-540 1010,-540 1004,-540 998,-534 998,-528 998,-528 998,-516 998,-516 998,-510 1004,-504 1010,-504 1010,-504 1065,-504 1065,-504 1071,-504 1077,-510 1077,-516 1077,-516 1077,-528 1077,-528 1077,-534 1071,-540 1065,-540"/>
<text text-anchor="middle" x="1037.5" y="-519.5" font-family="sans" font-size="10.00" fill="#000000">align_reassign</text>
</g>
<!-- 66&#45;&gt;65 -->
<g id="edge104" class="edge">
<title>66&#45;&gt;65</title>
<path fill="none" stroke="#c0c0c0" stroke-width="2" d="M1037.7523,-503.8314C1037.8593,-496.131 1037.9865,-486.9743 1038.1053,-478.4166"/>
<polygon fill="#c0c0c0" stroke="#c0c0c0" stroke-width="2" points="1041.6049,-478.4609 1038.2443,-468.4133 1034.6056,-478.3637 1041.6049,-478.4609"/>
</g>
<!-- 67&#45;&gt;66 -->
<g id="edge105" class="edge">
<title>67&#45;&gt;66</title>
<path fill="none" stroke="#c0c0c0" stroke-width="2" d="M1033.0141,-575.8314C1033.6558,-568.131 1034.4188,-558.9743 1035.1319,-550.4166"/>
<polygon fill="#c0c0c0" stroke="#c0c0c0" stroke-width="2" points="1038.6229,-550.6694 1035.9656,-540.4133 1031.6471,-550.088 1038.6229,-550.6694"/>
</g>
<!-- 68 -->
<g id="node69" class="node">
<title>68</title>
<path fill="none" stroke="#56d882" stroke-width="2" d="M1404.5,-252C1404.5,-252 1352.5,-252 1352.5,-252 1346.5,-252 1340.5,-246 1340.5,-240 1340.5,-240 1340.5,-228 1340.5,-228 1340.5,-222 1346.5,-216 1352.5,-216 1352.5,-216 1404.5,-216 1404.5,-216 1410.5,-216 1416.5,-222 1416.5,-228 1416.5,-228 1416.5,-240 1416.5,-240 1416.5,-246 1410.5,-252 1404.5,-252"/>
<text text-anchor="middle" x="1378.5" y="-231.5" font-family="sans" font-size="10.00" fill="#000000">metadmg_dfit</text>
</g>
<!-- 68&#45;&gt;1 -->
<g id="edge25" class="edge">
<title>68&#45;&gt;1</title>
<path fill="none" stroke="#c0c0c0" stroke-width="2" d="M1351.8873,-215.9253C1319.8266,-195.0783 1263.6291,-161.443 1210.5,-144 1090.9547,-104.7517 940.7509,-94.0115 871.9887,-91.0865"/>
<polygon fill="#c0c0c0" stroke="#c0c0c0" stroke-width="2" points="871.799,-87.5764 861.6692,-90.681 871.524,-94.571 871.799,-87.5764"/>
</g>
<!-- 76 -->
<g id="node77" class="node">
<title>76</title>
<path fill="none" stroke="#59d856" stroke-width="2" d="M1394,-180C1394,-180 1313,-180 1313,-180 1307,-180 1301,-174 1301,-168 1301,-168 1301,-156 1301,-156 1301,-150 1307,-144 1313,-144 1313,-144 1394,-144 1394,-144 1400,-144 1406,-150 1406,-156 1406,-156 1406,-168 1406,-168 1406,-174 1400,-180 1394,-180"/>
<text text-anchor="middle" x="1353.5" y="-159.5" font-family="sans" font-size="10.00" fill="#000000">metadmg_aggregate</text>
</g>
<!-- 68&#45;&gt;76 -->
<g id="edge118" class="edge">
<title>68&#45;&gt;76</title>
<path fill="none" stroke="#c0c0c0" stroke-width="2" d="M1372.1914,-215.8314C1369.4883,-208.0463 1366.2684,-198.7729 1363.269,-190.1347"/>
<polygon fill="#c0c0c0" stroke="#c0c0c0" stroke-width="2" points="1366.48,-188.7119 1359.8935,-180.4133 1359.8673,-191.0081 1366.48,-188.7119"/>
</g>
<!-- 69 -->
<g id="node70" class="node">
<title>69</title>
<path fill="none" stroke="#56d89a" stroke-width="2" d="M1442,-324C1442,-324 1391,-324 1391,-324 1385,-324 1379,-318 1379,-312 1379,-312 1379,-300 1379,-300 1379,-294 1385,-288 1391,-288 1391,-288 1442,-288 1442,-288 1448,-288 1454,-294 1454,-300 1454,-300 1454,-312 1454,-312 1454,-318 1448,-324 1442,-324"/>
<text text-anchor="middle" x="1416.5" y="-303.5" font-family="sans" font-size="10.00" fill="#000000">metadmg_lca</text>
</g>
<!-- 69&#45;&gt;68 -->
<g id="edge107" class="edge">
<title>69&#45;&gt;68</title>
<path fill="none" stroke="#c0c0c0" stroke-width="2" d="M1406.911,-287.8314C1402.6683,-279.7925 1397.5879,-270.1666 1392.904,-261.2918"/>
<polygon fill="#c0c0c0" stroke="#c0c0c0" stroke-width="2" points="1395.9811,-259.6235 1388.2181,-252.4133 1389.7904,-262.8908 1395.9811,-259.6235"/>
</g>
<!-- 69&#45;&gt;76 -->
<g id="edge117" class="edge">
<title>69&#45;&gt;76</title>
<path fill="none" stroke="#c0c0c0" stroke-width="2" d="M1423.8508,-287.7112C1430.2506,-268.75 1436.8766,-238.7531 1425.5,-216 1419.4862,-203.9724 1409.3786,-193.9287 1398.6093,-185.8944"/>
<polygon fill="#c0c0c0" stroke="#c0c0c0" stroke-width="2" points="1400.5159,-182.9575 1390.3018,-180.1426 1396.5312,-188.7127 1400.5159,-182.9575"/>
</g>
<!-- 70 -->
<g id="node71" class="node">
<title>70</title>
<path fill="none" stroke="#d8cb56" stroke-width="2" d="M1509.5,-396C1509.5,-396 1445.5,-396 1445.5,-396 1439.5,-396 1433.5,-390 1433.5,-384 1433.5,-384 1433.5,-372 1433.5,-372 1433.5,-366 1439.5,-360 1445.5,-360 1445.5,-360 1509.5,-360 1509.5,-360 1515.5,-360 1521.5,-366 1521.5,-372 1521.5,-372 1521.5,-384 1521.5,-384 1521.5,-390 1515.5,-396 1509.5,-396"/>
<text text-anchor="middle" x="1477.5" y="-375.5" font-family="sans" font-size="10.00" fill="#000000">align_sort_query</text>
</g>
<!-- 70&#45;&gt;69 -->
<g id="edge108" class="edge">
<title>70&#45;&gt;69</title>
<path fill="none" stroke="#c0c0c0" stroke-width="2" d="M1462.1071,-359.8314C1455.0096,-351.454 1446.452,-341.3531 1438.676,-332.1749"/>
<polygon fill="#c0c0c0" stroke="#c0c0c0" stroke-width="2" points="1441.2348,-329.7807 1432.1001,-324.4133 1435.8939,-334.3056 1441.2348,-329.7807"/>
</g>
<!-- 82 -->
<g id="node83" class="node">
<title>82</title>
<path fill="none" stroke="#56d86b" stroke-width="2" d="M1509,-180C1509,-180 1436,-180 1436,-180 1430,-180 1424,-174 1424,-168 1424,-168 1424,-156 1424,-156 1424,-150 1430,-144 1436,-144 1436,-144 1509,-144 1509,-144 1515,-144 1521,-150 1521,-156 1521,-156 1521,-168 1521,-168 1521,-174 1515,-180 1509,-180"/>
<text text-anchor="middle" x="1472.5" y="-159.5" font-family="sans" font-size="10.00" fill="#000000">metadmg_damage</text>
</g>
<!-- 70&#45;&gt;82 -->
<g id="edge124" class="edge">
<title>70&#45;&gt;82</title>
<path fill="none" stroke="#c0c0c0" stroke-width="2" d="M1477.0823,-359.9555C1476.2128,-322.3938 1474.2026,-235.5541 1473.1576,-190.4103"/>
<polygon fill="#c0c0c0" stroke="#c0c0c0" stroke-width="2" points="1476.6506,-190.0614 1472.92,-180.1451 1469.6525,-190.2234 1476.6506,-190.0614"/>
</g>
<!-- 71 -->
<g id="node72" class="node">
<title>71</title>
<path fill="none" stroke="#d85656" stroke-width="2" d="M1670,-468C1670,-468 1633,-468 1633,-468 1627,-468 1621,-462 1621,-456 1621,-456 1621,-444 1621,-444 1621,-438 1627,-432 1633,-432 1633,-432 1670,-432 1670,-432 1676,-432 1682,-438 1682,-444 1682,-444 1682,-456 1682,-456 1682,-462 1676,-468 1670,-468"/>
<text text-anchor="middle" x="1651.5" y="-447.5" font-family="sans" font-size="10.00" fill="#000000">align_filter</text>
</g>
<!-- 71&#45;&gt;70 -->
<g id="edge109" class="edge">
<title>71&#45;&gt;70</title>
<path fill="none" stroke="#c0c0c0" stroke-width="2" d="M1620.7928,-437.2936C1595.879,-426.9844 1560.1718,-412.209 1530.6353,-399.987"/>
<polygon fill="#c0c0c0" stroke="#c0c0c0" stroke-width="2" points="1531.8622,-396.707 1521.2838,-396.1174 1529.1857,-403.1751 1531.8622,-396.707"/>
</g>
<!-- 72 -->
<g id="node73" class="node">
<title>72</title>
<path fill="none" stroke="#d89c56" stroke-width="2" d="M1683,-540C1683,-540 1628,-540 1628,-540 1622,-540 1616,-534 1616,-528 1616,-528 1616,-516 1616,-516 1616,-510 1622,-504 1628,-504 1628,-504 1683,-504 1683,-504 1689,-504 1695,-510 1695,-516 1695,-516 1695,-528 1695,-528 1695,-534 1689,-540 1683,-540"/>
<text text-anchor="middle" x="1655.5" y="-519.5" font-family="sans" font-size="10.00" fill="#000000">align_reassign</text>
</g>
<!-- 72&#45;&gt;71 -->
<g id="edge110" class="edge">
<title>72&#45;&gt;71</title>
<path fill="none" stroke="#c0c0c0" stroke-width="2" d="M1654.4906,-503.8314C1654.0628,-496.131 1653.5541,-486.9743 1653.0787,-478.4166"/>
<polygon fill="#c0c0c0" stroke="#c0c0c0" stroke-width="2" points="1656.5724,-478.2037 1652.523,-468.4133 1649.5831,-478.592 1656.5724,-478.2037"/>
</g>
<!-- 73&#45;&gt;72 -->
<g id="edge111" class="edge">
<title>73&#45;&gt;72</title>
<path fill="none" stroke="#c0c0c0" stroke-width="2" d="M1655.5,-575.8314C1655.5,-568.131 1655.5,-558.9743 1655.5,-550.4166"/>
<polygon fill="#c0c0c0" stroke="#c0c0c0" stroke-width="2" points="1659.0001,-550.4132 1655.5,-540.4133 1652.0001,-550.4133 1659.0001,-550.4132"/>
</g>
<!-- 74&#45;&gt;0 -->
<g id="edge5" class="edge">
<title>74&#45;&gt;0</title>
<path fill="none" stroke="#c0c0c0" stroke-width="2" d="M388.5145,-143.6371C414.4697,-122.1733 460.9241,-87.6059 507.5,-72 635.2582,-29.1929 1057.7985,-20.1757 1186.1796,-18.4061"/>
<polygon fill="#c0c0c0" stroke="#c0c0c0" stroke-width="2" points="1186.3432,-21.9043 1196.2964,-18.2734 1186.2513,-14.9049 1186.3432,-21.9043"/>
</g>
<!-- 74&#45;&gt;1 -->
<g id="edge26" class="edge">
<title>74&#45;&gt;1</title>
<path fill="none" stroke="#c0c0c0" stroke-width="2" d="M420.0717,-152.7576C436.8162,-149.8756 455.425,-146.7368 472.5,-144 590.772,-125.0433 731.1456,-104.7247 796.9432,-95.3284"/>
<polygon fill="#c0c0c0" stroke="#c0c0c0" stroke-width="2" points="797.8162,-98.7394 807.222,-93.8628 796.828,-91.8095 797.8162,-98.7394"/>
</g>
<!-- 75&#45;&gt;0 -->
<g id="edge6" class="edge">
<title>75&#45;&gt;0</title>
<path fill="none" stroke="#c0c0c0" stroke-width="2" d="M1095.991,-143.7623C1121.771,-118.3354 1168.623,-72.1253 1197.7909,-43.3569"/>
<polygon fill="#c0c0c0" stroke="#c0c0c0" stroke-width="2" points="1200.4972,-45.6037 1205.1591,-36.0896 1195.5817,-40.6199 1200.4972,-45.6037"/>
</g>
<!-- 75&#45;&gt;1 -->
<g id="edge27" class="edge">
<title>75&#45;&gt;1</title>
<path fill="none" stroke="#c0c0c0" stroke-width="2" d="M1024.7726,-146.3771C978.4474,-132.6511 912.2336,-113.0322 871.3784,-100.9269"/>
<polygon fill="#c0c0c0" stroke="#c0c0c0" stroke-width="2" points="872.1476,-97.5045 861.5653,-98.0194 870.159,-104.2161 872.1476,-97.5045"/>
</g>
<!-- 76&#45;&gt;0 -->
<g id="edge7" class="edge">
<title>76&#45;&gt;0</title>
<path fill="none" stroke="#c0c0c0" stroke-width="2" d="M1341.744,-143.8381C1329.1446,-124.9804 1308.0344,-95.0668 1286.5,-72 1276.8646,-61.6789 1265.3722,-51.3452 1254.8572,-42.5215"/>
<polygon fill="#c0c0c0" stroke="#c0c0c0" stroke-width="2" points="1256.9977,-39.7502 1247.0538,-36.0936 1252.547,-45.1531 1256.9977,-39.7502"/>
</g>
<!-- 76&#45;&gt;1 -->
<g id="edge28" class="edge">
<title>76&#45;&gt;1</title>
<path fill="none" stroke="#c0c0c0" stroke-width="2" d="M1300.9578,-152.5678C1284.2148,-149.6762 1265.5994,-146.5798 1248.5,-144 1109.8245,-123.0781 944.2807,-102.9352 871.6984,-94.345"/>
<polygon fill="#c0c0c0" stroke="#c0c0c0" stroke-width="2" points="872.0196,-90.8587 861.6784,-93.1627 871.1993,-97.8105 872.0196,-90.8587"/>
</g>
<!-- 77&#45;&gt;0 -->
<g id="edge2" class="edge">
<title>77&#45;&gt;0</title>
<path fill="none" stroke="#c0c0c0" stroke-width="2" d="M668.2997,-81.3509C804.4513,-65.8154 1085.6119,-33.7337 1186.4745,-22.2248"/>
<polygon fill="#c0c0c0" stroke="#c0c0c0" stroke-width="2" points="1186.9524,-25.6931 1196.4911,-21.0818 1186.1587,-18.7382 1186.9524,-25.6931"/>
</g>
<!-- 78&#45;&gt;0 -->
<g id="edge3" class="edge">
<title>78&#45;&gt;0</title>
<path fill="none" stroke="#c0c0c0" stroke-width="2" d="M1315.0352,-647.9148C1390.2878,-609.621 1549.5,-512.6875 1549.5,-378 1549.5,-378 1549.5,-378 1549.5,-162 1549.5,-99.4227 1345.9683,-45.8322 1260.5443,-26.0956"/>
<polygon fill="#c0c0c0" stroke="#c0c0c0" stroke-width="2" points="1261.2618,-22.6695 1250.7339,-23.8582 1259.7053,-29.4942 1261.2618,-22.6695"/>
</g>
<!-- 79&#45;&gt;0 -->
<g id="edge4" class="edge">
<title>79&#45;&gt;0</title>
<path fill="none" stroke="#c0c0c0" stroke-width="2" d="M1890.8006,-575.7014C1867.7873,-549.8978 1830.5,-500.3246 1830.5,-450 1830.5,-450 1830.5,-450 1830.5,-162 1830.5,-44.2903 1392.8952,-22.6556 1260.8053,-18.8065"/>
<polygon fill="#c0c0c0" stroke="#c0c0c0" stroke-width="2" points="1260.8529,-15.3065 1250.7607,-18.5313 1260.6611,-22.3039 1260.8529,-15.3065"/>
</g>
<!-- 80&#45;&gt;0 -->
<g id="edge8" class="edge">
<title>80&#45;&gt;0</title>
<path fill="none" stroke="#c0c0c0" stroke-width="2" d="M393.259,-76.065C400.016,-74.4908 406.9011,-73.0709 413.5,-72 565.5247,-47.3298 1048.3511,-25.4246 1186.3401,-19.5445"/>
<polygon fill="#c0c0c0" stroke="#c0c0c0" stroke-width="2" points="1186.5679,-23.038 1196.4107,-19.1177 1186.2714,-16.0443 1186.5679,-23.038"/>
</g>
<!-- 81&#45;&gt;0 -->
<g id="edge9" class="edge">
<title>81&#45;&gt;0</title>
<path fill="none" stroke="#c0c0c0" stroke-width="2" d="M1269.323,-215.9555C1260.6098,-178.3144 1240.4414,-91.1867 1230.0103,-46.1246"/>
<polygon fill="#c0c0c0" stroke="#c0c0c0" stroke-width="2" points="1233.3653,-45.0981 1227.7002,-36.1451 1226.5457,-46.6768 1233.3653,-45.0981"/>
</g>
<!-- 82&#45;&gt;0 -->
<g id="edge10" class="edge">
<title>82&#45;&gt;0</title>
<path fill="none" stroke="#c0c0c0" stroke-width="2" d="M1441.2161,-143.9081C1394.8586,-117.0989 1308.1562,-66.9578 1259.3167,-38.7133"/>
<polygon fill="#c0c0c0" stroke="#c0c0c0" stroke-width="2" points="1261.0651,-35.6813 1250.6562,-33.7048 1257.5607,-41.7409 1261.0651,-35.6813"/>
</g>
</g>
</svg>
