<?xml version="1.0" encoding="UTF-8" standalone="no"?>
<!DOCTYPE svg PUBLIC "-//W3C//DTD SVG 1.1//EN"
 "http://www.w3.org/Graphics/SVG/1.1/DTD/svg11.dtd">
<!-- Generated by graphviz version 2.40.1 (0)
 -->
<!-- Title: snakemake_dag Pages: 1 -->
<svg width="1446pt" height="957pt"
 viewBox="0.00 0.00 1446.00 957.00" xmlns="http://www.w3.org/2000/svg" xmlns:xlink="http://www.w3.org/1999/xlink">
<g id="graph0" class="graph" transform="scale(1 1) rotate(0) translate(4 953)">
<title>snakemake_dag</title>
<polygon fill="#ffffff" stroke="transparent" points="-4,4 -4,-953 1442,-953 1442,4 -4,4"/>
<!-- 0 -->
<g id="node1" class="node">
<title>0</title>
<path fill="none" stroke="#8fd856" stroke-width="2" d="M338.5,-36C338.5,-36 308.5,-36 308.5,-36 302.5,-36 296.5,-30 296.5,-24 296.5,-24 296.5,-12 296.5,-12 296.5,-6 302.5,0 308.5,0 308.5,0 338.5,0 338.5,0 344.5,0 350.5,-6 350.5,-12 350.5,-12 350.5,-24 350.5,-24 350.5,-30 344.5,-36 338.5,-36"/>
<text text-anchor="middle" x="323.5" y="-15.5" font-family="sans" font-size="10.00" fill="#000000">all</text>
</g>
<!-- 1 -->
<g id="node2" class="node">
<title>1</title>
<path fill="none" stroke="#56a9d8" stroke-width="2" d="M576.5,-108C576.5,-108 546.5,-108 546.5,-108 540.5,-108 534.5,-102 534.5,-96 534.5,-96 534.5,-84 534.5,-84 534.5,-78 540.5,-72 546.5,-72 546.5,-72 576.5,-72 576.5,-72 582.5,-72 588.5,-78 588.5,-84 588.5,-84 588.5,-96 588.5,-96 588.5,-102 582.5,-108 576.5,-108"/>
<text text-anchor="middle" x="561.5" y="-87.5" font-family="sans" font-size="10.00" fill="#000000">multiqc</text>
</g>
<!-- 1&#45;&gt;0 -->
<g id="edge1" class="edge">
<title>1&#45;&gt;0</title>
<path fill="none" stroke="#c0c0c0" stroke-width="2" d="M534.1984,-81.7407C491.4517,-68.8089 408.6496,-43.7596 360.5574,-29.2106"/>
<polygon fill="#c0c0c0" stroke="#c0c0c0" stroke-width="2" points="361.4339,-25.8192 350.8488,-26.2736 359.4069,-32.5193 361.4339,-25.8192"/>
</g>
<!-- 2 -->
<g id="node3" class="node">
<title>2</title>
<path fill="none" stroke="#70d856" stroke-width="2" d="M614,-949C614,-949 507,-949 507,-949 501,-949 495,-943 495,-937 495,-937 495,-876 495,-876 495,-870 501,-864 507,-864 507,-864 614,-864 614,-864 620,-864 626,-870 626,-876 626,-876 626,-937 626,-937 626,-943 620,-949 614,-949"/>
<text text-anchor="middle" x="560.5" y="-937" font-family="sans" font-size="10.00" fill="#000000">bowtie2</text>
<text text-anchor="middle" x="560.5" y="-926" font-family="sans" font-size="10.00" fill="#000000">library: lib2</text>
<text text-anchor="middle" x="560.5" y="-915" font-family="sans" font-size="10.00" fill="#000000">n_shard: 1</text>
<text text-anchor="middle" x="560.5" y="-904" font-family="sans" font-size="10.00" fill="#000000">read_type_map: collapsed</text>
<text text-anchor="middle" x="560.5" y="-893" font-family="sans" font-size="10.00" fill="#000000">ref: wgs_eukaryota</text>
<text text-anchor="middle" x="560.5" y="-882" font-family="sans" font-size="10.00" fill="#000000">sample: HD827sonic_2</text>
<text text-anchor="middle" x="560.5" y="-871" font-family="sans" font-size="10.00" fill="#000000">tot_shards: 2</text>
</g>
<!-- 2&#45;&gt;1 -->
<g id="edge8" class="edge">
<title>2&#45;&gt;1</title>
<path fill="none" stroke="#c0c0c0" stroke-width="2" d="M538.3688,-863.7058C524.4384,-834.2858 507.7657,-793.8447 500.5,-756 462.7609,-559.43 518.5,-506.1599 518.5,-306 518.5,-306 518.5,-306 518.5,-234 518.5,-191.9897 535.5108,-145.8592 548.1339,-117.4108"/>
<polygon fill="#c0c0c0" stroke="#c0c0c0" stroke-width="2" points="551.406,-118.6713 552.3808,-108.1214 545.0398,-115.7607 551.406,-118.6713"/>
</g>
<!-- 30 -->
<g id="node31" class="node">
<title>30</title>
<path fill="none" stroke="#5692d8" stroke-width="2" d="M633.5,-828C633.5,-828 553.5,-828 553.5,-828 547.5,-828 541.5,-822 541.5,-816 541.5,-816 541.5,-804 541.5,-804 541.5,-798 547.5,-792 553.5,-792 553.5,-792 633.5,-792 633.5,-792 639.5,-792 645.5,-798 645.5,-804 645.5,-804 645.5,-816 645.5,-816 645.5,-822 639.5,-828 633.5,-828"/>
<text text-anchor="middle" x="593.5" y="-807.5" font-family="sans" font-size="10.00" fill="#000000">shard_clean_header</text>
</g>
<!-- 2&#45;&gt;30 -->
<g id="edge51" class="edge">
<title>2&#45;&gt;30</title>
<path fill="none" stroke="#c0c0c0" stroke-width="2" d="M575.0703,-863.8928C578.0811,-855.0886 581.1788,-846.0302 583.9549,-837.9121"/>
<polygon fill="#c0c0c0" stroke="#c0c0c0" stroke-width="2" points="587.3446,-838.8164 587.2687,-828.2218 580.7212,-836.5513 587.3446,-838.8164"/>
</g>
<!-- 3 -->
<g id="node4" class="node">
<title>3</title>
<path fill="none" stroke="#70d856" stroke-width="2" d="M122,-949C122,-949 15,-949 15,-949 9,-949 3,-943 3,-937 3,-937 3,-876 3,-876 3,-870 9,-864 15,-864 15,-864 122,-864 122,-864 128,-864 134,-870 134,-876 134,-876 134,-937 134,-937 134,-943 128,-949 122,-949"/>
<text text-anchor="middle" x="68.5" y="-937" font-family="sans" font-size="10.00" fill="#000000">bowtie2</text>
<text text-anchor="middle" x="68.5" y="-926" font-family="sans" font-size="10.00" fill="#000000">library: lib1</text>
<text text-anchor="middle" x="68.5" y="-915" font-family="sans" font-size="10.00" fill="#000000">n_shard: 1</text>
<text text-anchor="middle" x="68.5" y="-904" font-family="sans" font-size="10.00" fill="#000000">read_type_map: collapsed</text>
<text text-anchor="middle" x="68.5" y="-893" font-family="sans" font-size="10.00" fill="#000000">ref: wgs_eukaryota</text>
<text text-anchor="middle" x="68.5" y="-882" font-family="sans" font-size="10.00" fill="#000000">sample: HD827sonic_1</text>
<text text-anchor="middle" x="68.5" y="-871" font-family="sans" font-size="10.00" fill="#000000">tot_shards: 2</text>
</g>
<!-- 3&#45;&gt;1 -->
<g id="edge9" class="edge">
<title>3&#45;&gt;1</title>
<path fill="none" stroke="#c0c0c0" stroke-width="2" d="M55.6279,-863.9926C46.0985,-823.6459 39.0046,-762.9523 66.5,-720 110.7894,-650.8126 175.588,-683.2366 216.5,-612 268.5332,-521.399 190.721,-220.8526 261.5,-144 296.4389,-106.063 452.0853,-94.5912 524.3756,-91.2765"/>
<polygon fill="#c0c0c0" stroke="#c0c0c0" stroke-width="2" points="524.5721,-94.7713 534.4123,-90.8444 524.271,-87.7778 524.5721,-94.7713"/>
</g>
<!-- 14 -->
<g id="node15" class="node">
<title>14</title>
<path fill="none" stroke="#5692d8" stroke-width="2" d="M153.5,-828C153.5,-828 73.5,-828 73.5,-828 67.5,-828 61.5,-822 61.5,-816 61.5,-816 61.5,-804 61.5,-804 61.5,-798 67.5,-792 73.5,-792 73.5,-792 153.5,-792 153.5,-792 159.5,-792 165.5,-798 165.5,-804 165.5,-804 165.5,-816 165.5,-816 165.5,-822 159.5,-828 153.5,-828"/>
<text text-anchor="middle" x="113.5" y="-807.5" font-family="sans" font-size="10.00" fill="#000000">shard_clean_header</text>
</g>
<!-- 3&#45;&gt;14 -->
<g id="edge31" class="edge">
<title>3&#45;&gt;14</title>
<path fill="none" stroke="#c0c0c0" stroke-width="2" d="M88.3686,-863.8928C92.5655,-854.8929 96.8861,-845.6275 100.7357,-837.3722"/>
<polygon fill="#c0c0c0" stroke="#c0c0c0" stroke-width="2" points="103.9485,-838.764 105.0028,-828.2218 97.6044,-835.8056 103.9485,-838.764"/>
</g>
<!-- 4 -->
<g id="node5" class="node">
<title>4</title>
<path fill="none" stroke="#70d856" stroke-width="2" d="M774,-949C774,-949 667,-949 667,-949 661,-949 655,-943 655,-937 655,-937 655,-876 655,-876 655,-870 661,-864 667,-864 667,-864 774,-864 774,-864 780,-864 786,-870 786,-876 786,-876 786,-937 786,-937 786,-943 780,-949 774,-949"/>
<text text-anchor="middle" x="720.5" y="-937" font-family="sans" font-size="10.00" fill="#000000">bowtie2</text>
<text text-anchor="middle" x="720.5" y="-926" font-family="sans" font-size="10.00" fill="#000000">library: lib2</text>
<text text-anchor="middle" x="720.5" y="-915" font-family="sans" font-size="10.00" fill="#000000">n_shard: 1</text>
<text text-anchor="middle" x="720.5" y="-904" font-family="sans" font-size="10.00" fill="#000000">read_type_map: collapsed</text>
<text text-anchor="middle" x="720.5" y="-893" font-family="sans" font-size="10.00" fill="#000000">ref: refseq_mitochondrion</text>
<text text-anchor="middle" x="720.5" y="-882" font-family="sans" font-size="10.00" fill="#000000">sample: HD827sonic_2</text>
<text text-anchor="middle" x="720.5" y="-871" font-family="sans" font-size="10.00" fill="#000000">tot_shards: 1</text>
</g>
<!-- 4&#45;&gt;1 -->
<g id="edge10" class="edge">
<title>4&#45;&gt;1</title>
<path fill="none" stroke="#c0c0c0" stroke-width="2" d="M750.6363,-863.9128C767.8799,-841.1578 790.7614,-813.4892 814.5,-792 835.8841,-772.6423 852.3223,-779.8806 868.5,-756 891.4289,-722.1537 887.5,-706.8816 887.5,-666 887.5,-666 887.5,-666 887.5,-234 887.5,-171.4227 683.9683,-117.8322 598.5443,-98.0956"/>
<polygon fill="#c0c0c0" stroke="#c0c0c0" stroke-width="2" points="599.2618,-94.6695 588.7339,-95.8582 597.7053,-101.4942 599.2618,-94.6695"/>
</g>
<!-- 32 -->
<g id="node33" class="node">
<title>32</title>
<path fill="none" stroke="#5692d8" stroke-width="2" d="M755.5,-828C755.5,-828 675.5,-828 675.5,-828 669.5,-828 663.5,-822 663.5,-816 663.5,-816 663.5,-804 663.5,-804 663.5,-798 669.5,-792 675.5,-792 675.5,-792 755.5,-792 755.5,-792 761.5,-792 767.5,-798 767.5,-804 767.5,-804 767.5,-816 767.5,-816 767.5,-822 761.5,-828 755.5,-828"/>
<text text-anchor="middle" x="715.5" y="-807.5" font-family="sans" font-size="10.00" fill="#000000">shard_clean_header</text>
</g>
<!-- 4&#45;&gt;32 -->
<g id="edge53" class="edge">
<title>4&#45;&gt;32</title>
<path fill="none" stroke="#c0c0c0" stroke-width="2" d="M718.2924,-863.8928C717.8463,-855.2842 717.3877,-846.4327 716.9743,-838.4546"/>
<polygon fill="#c0c0c0" stroke="#c0c0c0" stroke-width="2" points="720.457,-838.0273 716.4441,-828.2218 713.4664,-838.3895 720.457,-838.0273"/>
</g>
<!-- 5 -->
<g id="node6" class="node">
<title>5</title>
<path fill="none" stroke="#70d856" stroke-width="2" d="M457,-949C457,-949 350,-949 350,-949 344,-949 338,-943 338,-937 338,-937 338,-876 338,-876 338,-870 344,-864 350,-864 350,-864 457,-864 457,-864 463,-864 469,-870 469,-876 469,-876 469,-937 469,-937 469,-943 463,-949 457,-949"/>
<text text-anchor="middle" x="403.5" y="-937" font-family="sans" font-size="10.00" fill="#000000">bowtie2</text>
<text text-anchor="middle" x="403.5" y="-926" font-family="sans" font-size="10.00" fill="#000000">library: lib1</text>
<text text-anchor="middle" x="403.5" y="-915" font-family="sans" font-size="10.00" fill="#000000">n_shard: 1</text>
<text text-anchor="middle" x="403.5" y="-904" font-family="sans" font-size="10.00" fill="#000000">read_type_map: collapsed</text>
<text text-anchor="middle" x="403.5" y="-893" font-family="sans" font-size="10.00" fill="#000000">ref: refseq_mitochondrion</text>
<text text-anchor="middle" x="403.5" y="-882" font-family="sans" font-size="10.00" fill="#000000">sample: HD827sonic_1</text>
<text text-anchor="middle" x="403.5" y="-871" font-family="sans" font-size="10.00" fill="#000000">tot_shards: 1</text>
</g>
<!-- 5&#45;&gt;1 -->
<g id="edge11" class="edge">
<title>5&#45;&gt;1</title>
<path fill="none" stroke="#c0c0c0" stroke-width="2" d="M445.0822,-863.8845C469.1785,-840.7113 500.922,-812.6512 532.5,-792 564.4543,-771.1027 586.6939,-785.8504 610.5,-756 635.9901,-724.0381 629.5,-706.8816 629.5,-666 629.5,-666 629.5,-666 629.5,-234 629.5,-189.5937 602.7322,-144.2246 582.7854,-116.5811"/>
<polygon fill="#c0c0c0" stroke="#c0c0c0" stroke-width="2" points="585.3675,-114.1881 576.5914,-108.2525 579.7505,-118.3654 585.3675,-114.1881"/>
</g>
<!-- 16 -->
<g id="node17" class="node">
<title>16</title>
<path fill="none" stroke="#5692d8" stroke-width="2" d="M435.5,-828C435.5,-828 355.5,-828 355.5,-828 349.5,-828 343.5,-822 343.5,-816 343.5,-816 343.5,-804 343.5,-804 343.5,-798 349.5,-792 355.5,-792 355.5,-792 435.5,-792 435.5,-792 441.5,-792 447.5,-798 447.5,-804 447.5,-804 447.5,-816 447.5,-816 447.5,-822 441.5,-828 435.5,-828"/>
<text text-anchor="middle" x="395.5" y="-807.5" font-family="sans" font-size="10.00" fill="#000000">shard_clean_header</text>
</g>
<!-- 5&#45;&gt;16 -->
<g id="edge33" class="edge">
<title>5&#45;&gt;16</title>
<path fill="none" stroke="#c0c0c0" stroke-width="2" d="M399.9678,-863.8928C399.2541,-855.2842 398.5203,-846.4327 397.8589,-838.4546"/>
<polygon fill="#c0c0c0" stroke="#c0c0c0" stroke-width="2" points="401.3249,-837.8984 397.0106,-828.2218 394.3489,-838.4768 401.3249,-837.8984"/>
</g>
<!-- 6 -->
<g id="node7" class="node">
<title>6</title>
<path fill="none" stroke="#70d856" stroke-width="2" d="M1269,-949C1269,-949 1162,-949 1162,-949 1156,-949 1150,-943 1150,-937 1150,-937 1150,-876 1150,-876 1150,-870 1156,-864 1162,-864 1162,-864 1269,-864 1269,-864 1275,-864 1281,-870 1281,-876 1281,-876 1281,-937 1281,-937 1281,-943 1275,-949 1269,-949"/>
<text text-anchor="middle" x="1215.5" y="-937" font-family="sans" font-size="10.00" fill="#000000">bowtie2</text>
<text text-anchor="middle" x="1215.5" y="-926" font-family="sans" font-size="10.00" fill="#000000">library: lib1</text>
<text text-anchor="middle" x="1215.5" y="-915" font-family="sans" font-size="10.00" fill="#000000">n_shard: 1</text>
<text text-anchor="middle" x="1215.5" y="-904" font-family="sans" font-size="10.00" fill="#000000">read_type_map: collapsed</text>
<text text-anchor="middle" x="1215.5" y="-893" font-family="sans" font-size="10.00" fill="#000000">ref: refseq_mitochondrion</text>
<text text-anchor="middle" x="1215.5" y="-882" font-family="sans" font-size="10.00" fill="#000000">sample: HD827sonic_2</text>
<text text-anchor="middle" x="1215.5" y="-871" font-family="sans" font-size="10.00" fill="#000000">tot_shards: 1</text>
</g>
<!-- 6&#45;&gt;1 -->
<g id="edge12" class="edge">
<title>6&#45;&gt;1</title>
<path fill="none" stroke="#c0c0c0" stroke-width="2" d="M1191.9525,-863.9638C1177.5578,-840.6754 1157.51,-812.4774 1134.5,-792 1109.5396,-769.7869 1087.1444,-783.7278 1068.5,-756 933.7294,-555.5707 1110.0052,-434.6954 1007.5,-216 988.6895,-175.8676 977.926,-164.2493 938.5,-144 930.943,-140.1187 692.4085,-107.6483 598.7361,-95.0078"/>
<polygon fill="#c0c0c0" stroke="#c0c0c0" stroke-width="2" points="598.9508,-91.5052 588.5728,-93.6375 598.0154,-98.4424 598.9508,-91.5052"/>
</g>
<!-- 24 -->
<g id="node25" class="node">
<title>24</title>
<path fill="none" stroke="#5692d8" stroke-width="2" d="M1273.5,-828C1273.5,-828 1193.5,-828 1193.5,-828 1187.5,-828 1181.5,-822 1181.5,-816 1181.5,-816 1181.5,-804 1181.5,-804 1181.5,-798 1187.5,-792 1193.5,-792 1193.5,-792 1273.5,-792 1273.5,-792 1279.5,-792 1285.5,-798 1285.5,-804 1285.5,-804 1285.5,-816 1285.5,-816 1285.5,-822 1279.5,-828 1273.5,-828"/>
<text text-anchor="middle" x="1233.5" y="-807.5" font-family="sans" font-size="10.00" fill="#000000">shard_clean_header</text>
</g>
<!-- 6&#45;&gt;24 -->
<g id="edge43" class="edge">
<title>6&#45;&gt;24</title>
<path fill="none" stroke="#c0c0c0" stroke-width="2" d="M1223.4475,-863.8928C1225.0715,-855.1864 1226.7418,-846.2315 1228.2431,-838.183"/>
<polygon fill="#c0c0c0" stroke="#c0c0c0" stroke-width="2" points="1231.708,-838.694 1230.1011,-828.2218 1224.8267,-837.4104 1231.708,-838.694"/>
</g>
<!-- 7 -->
<g id="node8" class="node">
<title>7</title>
<path fill="none" stroke="#70d856" stroke-width="2" d="M1426,-949C1426,-949 1319,-949 1319,-949 1313,-949 1307,-943 1307,-937 1307,-937 1307,-876 1307,-876 1307,-870 1313,-864 1319,-864 1319,-864 1426,-864 1426,-864 1432,-864 1438,-870 1438,-876 1438,-876 1438,-937 1438,-937 1438,-943 1432,-949 1426,-949"/>
<text text-anchor="middle" x="1372.5" y="-937" font-family="sans" font-size="10.00" fill="#000000">bowtie2</text>
<text text-anchor="middle" x="1372.5" y="-926" font-family="sans" font-size="10.00" fill="#000000">library: lib1</text>
<text text-anchor="middle" x="1372.5" y="-915" font-family="sans" font-size="10.00" fill="#000000">n_shard: 2</text>
<text text-anchor="middle" x="1372.5" y="-904" font-family="sans" font-size="10.00" fill="#000000">read_type_map: collapsed</text>
<text text-anchor="middle" x="1372.5" y="-893" font-family="sans" font-size="10.00" fill="#000000">ref: wgs_eukaryota</text>
<text text-anchor="middle" x="1372.5" y="-882" font-family="sans" font-size="10.00" fill="#000000">sample: HD827sonic_2</text>
<text text-anchor="middle" x="1372.5" y="-871" font-family="sans" font-size="10.00" fill="#000000">tot_shards: 2</text>
</g>
<!-- 7&#45;&gt;1 -->
<g id="edge13" class="edge">
<title>7&#45;&gt;1</title>
<path fill="none" stroke="#c0c0c0" stroke-width="2" d="M1399.603,-863.6231C1405.8594,-852.3561 1411.9934,-839.9923 1416.5,-828 1430.8811,-789.7313 1435.5,-778.8816 1435.5,-738 1435.5,-738 1435.5,-738 1435.5,-234 1435.5,-142.1644 1338.142,-168.0078 1249.5,-144 1125.05,-110.294 723.5602,-95.0946 598.827,-91.108"/>
<polygon fill="#c0c0c0" stroke="#c0c0c0" stroke-width="2" points="598.7447,-87.6038 588.6397,-90.7879 598.5248,-94.6004 598.7447,-87.6038"/>
</g>
<!-- 26 -->
<g id="node27" class="node">
<title>26</title>
<path fill="none" stroke="#5692d8" stroke-width="2" d="M1395.5,-828C1395.5,-828 1315.5,-828 1315.5,-828 1309.5,-828 1303.5,-822 1303.5,-816 1303.5,-816 1303.5,-804 1303.5,-804 1303.5,-798 1309.5,-792 1315.5,-792 1315.5,-792 1395.5,-792 1395.5,-792 1401.5,-792 1407.5,-798 1407.5,-804 1407.5,-804 1407.5,-816 1407.5,-816 1407.5,-822 1401.5,-828 1395.5,-828"/>
<text text-anchor="middle" x="1355.5" y="-807.5" font-family="sans" font-size="10.00" fill="#000000">shard_clean_header</text>
</g>
<!-- 7&#45;&gt;26 -->
<g id="edge45" class="edge">
<title>7&#45;&gt;26</title>
<path fill="none" stroke="#c0c0c0" stroke-width="2" d="M1364.9941,-863.8928C1363.4603,-855.1864 1361.8827,-846.2315 1360.4649,-838.183"/>
<polygon fill="#c0c0c0" stroke="#c0c0c0" stroke-width="2" points="1363.892,-837.4629 1358.7101,-828.2218 1356.9982,-838.6774 1363.892,-837.4629"/>
</g>
<!-- 8 -->
<g id="node9" class="node">
<title>8</title>
<path fill="none" stroke="#70d856" stroke-width="2" d="M303,-949C303,-949 196,-949 196,-949 190,-949 184,-943 184,-937 184,-937 184,-876 184,-876 184,-870 190,-864 196,-864 196,-864 303,-864 303,-864 309,-864 315,-870 315,-876 315,-876 315,-937 315,-937 315,-943 309,-949 303,-949"/>
<text text-anchor="middle" x="249.5" y="-937" font-family="sans" font-size="10.00" fill="#000000">bowtie2</text>
<text text-anchor="middle" x="249.5" y="-926" font-family="sans" font-size="10.00" fill="#000000">library: lib1</text>
<text text-anchor="middle" x="249.5" y="-915" font-family="sans" font-size="10.00" fill="#000000">n_shard: 2</text>
<text text-anchor="middle" x="249.5" y="-904" font-family="sans" font-size="10.00" fill="#000000">read_type_map: collapsed</text>
<text text-anchor="middle" x="249.5" y="-893" font-family="sans" font-size="10.00" fill="#000000">ref: wgs_eukaryota</text>
<text text-anchor="middle" x="249.5" y="-882" font-family="sans" font-size="10.00" fill="#000000">sample: HD827sonic_1</text>
<text text-anchor="middle" x="249.5" y="-871" font-family="sans" font-size="10.00" fill="#000000">tot_shards: 2</text>
</g>
<!-- 8&#45;&gt;1 -->
<g id="edge14" class="edge">
<title>8&#45;&gt;1</title>
<path fill="none" stroke="#c0c0c0" stroke-width="2" d="M276.8761,-863.5961C283.6615,-852.225 290.6564,-839.8184 296.5,-828 319.3992,-781.6873 314.494,-765.2099 339.5,-720 368.2842,-667.9591 393.9731,-666.1777 418.5,-612 475.7285,-485.5872 480.5,-444.7635 480.5,-306 480.5,-306 480.5,-306 480.5,-234 480.5,-187.7913 512.5762,-142.7153 536.3584,-115.6452"/>
<polygon fill="#c0c0c0" stroke="#c0c0c0" stroke-width="2" points="539.0065,-117.9351 543.1198,-108.1713 533.8155,-113.2389 539.0065,-117.9351"/>
</g>
<!-- 18 -->
<g id="node19" class="node">
<title>18</title>
<path fill="none" stroke="#5692d8" stroke-width="2" d="M275.5,-828C275.5,-828 195.5,-828 195.5,-828 189.5,-828 183.5,-822 183.5,-816 183.5,-816 183.5,-804 183.5,-804 183.5,-798 189.5,-792 195.5,-792 195.5,-792 275.5,-792 275.5,-792 281.5,-792 287.5,-798 287.5,-804 287.5,-804 287.5,-816 287.5,-816 287.5,-822 281.5,-828 275.5,-828"/>
<text text-anchor="middle" x="235.5" y="-807.5" font-family="sans" font-size="10.00" fill="#000000">shard_clean_header</text>
</g>
<!-- 8&#45;&gt;18 -->
<g id="edge35" class="edge">
<title>8&#45;&gt;18</title>
<path fill="none" stroke="#c0c0c0" stroke-width="2" d="M243.3186,-863.8928C242.0555,-855.1864 240.7564,-846.2315 239.5887,-838.183"/>
<polygon fill="#c0c0c0" stroke="#c0c0c0" stroke-width="2" points="243.0431,-837.6156 238.1436,-828.2218 236.1157,-838.6207 243.0431,-837.6156"/>
</g>
<!-- 9 -->
<g id="node10" class="node">
<title>9</title>
<path fill="none" stroke="#70d856" stroke-width="2" d="M933,-949C933,-949 826,-949 826,-949 820,-949 814,-943 814,-937 814,-937 814,-876 814,-876 814,-870 820,-864 826,-864 826,-864 933,-864 933,-864 939,-864 945,-870 945,-876 945,-876 945,-937 945,-937 945,-943 939,-949 933,-949"/>
<text text-anchor="middle" x="879.5" y="-937" font-family="sans" font-size="10.00" fill="#000000">bowtie2</text>
<text text-anchor="middle" x="879.5" y="-926" font-family="sans" font-size="10.00" fill="#000000">library: lib2</text>
<text text-anchor="middle" x="879.5" y="-915" font-family="sans" font-size="10.00" fill="#000000">n_shard: 2</text>
<text text-anchor="middle" x="879.5" y="-904" font-family="sans" font-size="10.00" fill="#000000">read_type_map: collapsed</text>
<text text-anchor="middle" x="879.5" y="-893" font-family="sans" font-size="10.00" fill="#000000">ref: wgs_eukaryota</text>
<text text-anchor="middle" x="879.5" y="-882" font-family="sans" font-size="10.00" fill="#000000">sample: HD827sonic_2</text>
<text text-anchor="middle" x="879.5" y="-871" font-family="sans" font-size="10.00" fill="#000000">tot_shards: 2</text>
</g>
<!-- 9&#45;&gt;1 -->
<g id="edge15" class="edge">
<title>9&#45;&gt;1</title>
<path fill="none" stroke="#c0c0c0" stroke-width="2" d="M915.5234,-863.667C923.4123,-852.5971 931.0299,-840.3135 936.5,-828 953.097,-790.6389 955.5,-778.8816 955.5,-738 955.5,-738 955.5,-738 955.5,-234 955.5,-158.4621 696.7936,-110.7911 598.6497,-95.4242"/>
<polygon fill="#c0c0c0" stroke="#c0c0c0" stroke-width="2" points="598.9975,-91.9365 588.5812,-93.8733 597.9318,-98.8549 598.9975,-91.9365"/>
</g>
<!-- 34 -->
<g id="node35" class="node">
<title>34</title>
<path fill="none" stroke="#5692d8" stroke-width="2" d="M915.5,-828C915.5,-828 835.5,-828 835.5,-828 829.5,-828 823.5,-822 823.5,-816 823.5,-816 823.5,-804 823.5,-804 823.5,-798 829.5,-792 835.5,-792 835.5,-792 915.5,-792 915.5,-792 921.5,-792 927.5,-798 927.5,-804 927.5,-804 927.5,-816 927.5,-816 927.5,-822 921.5,-828 915.5,-828"/>
<text text-anchor="middle" x="875.5" y="-807.5" font-family="sans" font-size="10.00" fill="#000000">shard_clean_header</text>
</g>
<!-- 9&#45;&gt;34 -->
<g id="edge55" class="edge">
<title>9&#45;&gt;34</title>
<path fill="none" stroke="#c0c0c0" stroke-width="2" d="M877.7339,-863.8928C877.3771,-855.2842 877.0102,-846.4327 876.6795,-838.4546"/>
<polygon fill="#c0c0c0" stroke="#c0c0c0" stroke-width="2" points="880.1666,-838.0682 876.2553,-828.2218 873.1726,-838.3582 880.1666,-838.0682"/>
</g>
<!-- 10 -->
<g id="node11" class="node">
<title>10</title>
<path fill="none" stroke="#70d856" stroke-width="2" d="M1104,-949C1104,-949 997,-949 997,-949 991,-949 985,-943 985,-937 985,-937 985,-876 985,-876 985,-870 991,-864 997,-864 997,-864 1104,-864 1104,-864 1110,-864 1116,-870 1116,-876 1116,-876 1116,-937 1116,-937 1116,-943 1110,-949 1104,-949"/>
<text text-anchor="middle" x="1050.5" y="-937" font-family="sans" font-size="10.00" fill="#000000">bowtie2</text>
<text text-anchor="middle" x="1050.5" y="-926" font-family="sans" font-size="10.00" fill="#000000">library: lib1</text>
<text text-anchor="middle" x="1050.5" y="-915" font-family="sans" font-size="10.00" fill="#000000">n_shard: 1</text>
<text text-anchor="middle" x="1050.5" y="-904" font-family="sans" font-size="10.00" fill="#000000">read_type_map: collapsed</text>
<text text-anchor="middle" x="1050.5" y="-893" font-family="sans" font-size="10.00" fill="#000000">ref: wgs_eukaryota</text>
<text text-anchor="middle" x="1050.5" y="-882" font-family="sans" font-size="10.00" fill="#000000">sample: HD827sonic_2</text>
<text text-anchor="middle" x="1050.5" y="-871" font-family="sans" font-size="10.00" fill="#000000">tot_shards: 2</text>
</g>
<!-- 10&#45;&gt;1 -->
<g id="edge16" class="edge">
<title>10&#45;&gt;1</title>
<path fill="none" stroke="#c0c0c0" stroke-width="2" d="M1027.4802,-863.8462C1011.6606,-830.5574 993.5,-782.6244 993.5,-738 993.5,-738 993.5,-738 993.5,-234 993.5,-170.1421 939.7545,-170.1579 881.5,-144 855.9833,-132.5423 677.4975,-106.3666 598.719,-95.2015"/>
<polygon fill="#c0c0c0" stroke="#c0c0c0" stroke-width="2" points="599.1251,-91.7242 588.7339,-93.7911 598.1461,-98.6554 599.1251,-91.7242"/>
</g>
<!-- 22 -->
<g id="node23" class="node">
<title>22</title>
<path fill="none" stroke="#5692d8" stroke-width="2" d="M1113.5,-828C1113.5,-828 1033.5,-828 1033.5,-828 1027.5,-828 1021.5,-822 1021.5,-816 1021.5,-816 1021.5,-804 1021.5,-804 1021.5,-798 1027.5,-792 1033.5,-792 1033.5,-792 1113.5,-792 1113.5,-792 1119.5,-792 1125.5,-798 1125.5,-804 1125.5,-804 1125.5,-816 1125.5,-816 1125.5,-822 1119.5,-828 1113.5,-828"/>
<text text-anchor="middle" x="1073.5" y="-807.5" font-family="sans" font-size="10.00" fill="#000000">shard_clean_header</text>
</g>
<!-- 10&#45;&gt;22 -->
<g id="edge41" class="edge">
<title>10&#45;&gt;22</title>
<path fill="none" stroke="#c0c0c0" stroke-width="2" d="M1060.6551,-863.8928C1062.7302,-855.1864 1064.8645,-846.2315 1066.7828,-838.183"/>
<polygon fill="#c0c0c0" stroke="#c0c0c0" stroke-width="2" points="1070.2431,-838.7608 1069.157,-828.2218 1063.4338,-837.1378 1070.2431,-838.7608"/>
</g>
<!-- 11 -->
<g id="node12" class="node">
<title>11</title>
<path fill="none" stroke="#afd856" stroke-width="2" d="M429.5,-468C429.5,-468 389.5,-468 389.5,-468 383.5,-468 377.5,-462 377.5,-456 377.5,-456 377.5,-444 377.5,-444 377.5,-438 383.5,-432 389.5,-432 389.5,-432 429.5,-432 429.5,-432 435.5,-432 441.5,-438 441.5,-444 441.5,-444 441.5,-456 441.5,-456 441.5,-462 435.5,-468 429.5,-468"/>
<text text-anchor="middle" x="409.5" y="-447.5" font-family="sans" font-size="10.00" fill="#000000">align_stats</text>
</g>
<!-- 11&#45;&gt;1 -->
<g id="edge17" class="edge">
<title>11&#45;&gt;1</title>
<path fill="none" stroke="#c0c0c0" stroke-width="2" d="M416.4985,-431.6679C426.1853,-404.6028 442.5,-352.1665 442.5,-306 442.5,-306 442.5,-306 442.5,-234 442.5,-192.6022 441.208,-176.7733 466.5,-144 481.2417,-124.8977 504.7848,-111.4473 524.7448,-102.7479"/>
<polygon fill="#c0c0c0" stroke="#c0c0c0" stroke-width="2" points="526.2866,-105.8982 534.2014,-98.855 523.6219,-99.4253 526.2866,-105.8982"/>
</g>
<!-- 12 -->
<g id="node13" class="node">
<title>12</title>
<path fill="none" stroke="#d88d56" stroke-width="2" d="M258,-684C258,-684 213,-684 213,-684 207,-684 201,-678 201,-672 201,-672 201,-660 201,-660 201,-654 207,-648 213,-648 213,-648 258,-648 258,-648 264,-648 270,-654 270,-660 270,-660 270,-672 270,-672 270,-678 264,-684 258,-684"/>
<text text-anchor="middle" x="235.5" y="-663.5" font-family="sans" font-size="10.00" fill="#000000">align_merge</text>
</g>
<!-- 12&#45;&gt;11 -->
<g id="edge26" class="edge">
<title>12&#45;&gt;11</title>
<path fill="none" stroke="#c0c0c0" stroke-width="2" d="M240.002,-647.8375C248.8254,-615.445 271.1402,-547.0712 311.5,-504 327.1383,-487.3111 349.1203,-474.5512 368.3034,-465.6363"/>
<polygon fill="#c0c0c0" stroke="#c0c0c0" stroke-width="2" points="369.7392,-468.8283 377.4557,-461.5683 366.8961,-462.4317 369.7392,-468.8283"/>
</g>
<!-- 40 -->
<g id="node41" class="node">
<title>40</title>
<path fill="none" stroke="#d8cb56" stroke-width="2" d="M195.5,-612C195.5,-612 131.5,-612 131.5,-612 125.5,-612 119.5,-606 119.5,-600 119.5,-600 119.5,-588 119.5,-588 119.5,-582 125.5,-576 131.5,-576 131.5,-576 195.5,-576 195.5,-576 201.5,-576 207.5,-582 207.5,-588 207.5,-588 207.5,-600 207.5,-600 207.5,-606 201.5,-612 195.5,-612"/>
<text text-anchor="middle" x="163.5" y="-591.5" font-family="sans" font-size="10.00" fill="#000000">align_sort_coord</text>
</g>
<!-- 12&#45;&gt;40 -->
<g id="edge61" class="edge">
<title>12&#45;&gt;40</title>
<path fill="none" stroke="#c0c0c0" stroke-width="2" d="M217.3314,-647.8314C208.7848,-639.2848 198.4443,-628.9443 189.1198,-619.6198"/>
<polygon fill="#c0c0c0" stroke="#c0c0c0" stroke-width="2" points="191.4592,-617.0095 181.9133,-612.4133 186.5095,-621.9592 191.4592,-617.0095"/>
</g>
<!-- 13 -->
<g id="node14" class="node">
<title>13</title>
<path fill="none" stroke="#5673d8" stroke-width="2" d="M155.5,-756C155.5,-756 87.5,-756 87.5,-756 81.5,-756 75.5,-750 75.5,-744 75.5,-744 75.5,-732 75.5,-732 75.5,-726 81.5,-720 87.5,-720 87.5,-720 155.5,-720 155.5,-720 161.5,-720 167.5,-726 167.5,-732 167.5,-732 167.5,-744 167.5,-744 167.5,-750 161.5,-756 155.5,-756"/>
<text text-anchor="middle" x="121.5" y="-735.5" font-family="sans" font-size="10.00" fill="#000000">shard_sort_query</text>
</g>
<!-- 13&#45;&gt;12 -->
<g id="edge27" class="edge">
<title>13&#45;&gt;12</title>
<path fill="none" stroke="#c0c0c0" stroke-width="2" d="M150.267,-719.8314C164.7133,-710.7074 182.3965,-699.539 197.904,-689.7449"/>
<polygon fill="#c0c0c0" stroke="#c0c0c0" stroke-width="2" points="200.1563,-692.462 206.7422,-684.1628 196.4183,-686.5436 200.1563,-692.462"/>
</g>
<!-- 14&#45;&gt;13 -->
<g id="edge30" class="edge">
<title>14&#45;&gt;13</title>
<path fill="none" stroke="#c0c0c0" stroke-width="2" d="M115.5187,-791.8314C116.3743,-784.131 117.3917,-774.9743 118.3426,-766.4166"/>
<polygon fill="#c0c0c0" stroke="#c0c0c0" stroke-width="2" points="121.8283,-766.7386 119.4541,-756.4133 114.8711,-765.9656 121.8283,-766.7386"/>
</g>
<!-- 15 -->
<g id="node16" class="node">
<title>15</title>
<path fill="none" stroke="#5673d8" stroke-width="2" d="M428.5,-756C428.5,-756 360.5,-756 360.5,-756 354.5,-756 348.5,-750 348.5,-744 348.5,-744 348.5,-732 348.5,-732 348.5,-726 354.5,-720 360.5,-720 360.5,-720 428.5,-720 428.5,-720 434.5,-720 440.5,-726 440.5,-732 440.5,-732 440.5,-744 440.5,-744 440.5,-750 434.5,-756 428.5,-756"/>
<text text-anchor="middle" x="394.5" y="-735.5" font-family="sans" font-size="10.00" fill="#000000">shard_sort_query</text>
</g>
<!-- 15&#45;&gt;12 -->
<g id="edge28" class="edge">
<title>15&#45;&gt;12</title>
<path fill="none" stroke="#c0c0c0" stroke-width="2" d="M354.3776,-719.8314C331.576,-709.5061 302.9926,-696.5627 279.5686,-685.9556"/>
<polygon fill="#c0c0c0" stroke="#c0c0c0" stroke-width="2" points="280.7624,-682.6541 270.209,-681.7173 277.8748,-689.0308 280.7624,-682.6541"/>
</g>
<!-- 16&#45;&gt;15 -->
<g id="edge32" class="edge">
<title>16&#45;&gt;15</title>
<path fill="none" stroke="#c0c0c0" stroke-width="2" d="M395.2477,-791.8314C395.1407,-784.131 395.0135,-774.9743 394.8947,-766.4166"/>
<polygon fill="#c0c0c0" stroke="#c0c0c0" stroke-width="2" points="398.3944,-766.3637 394.7557,-756.4133 391.3951,-766.4609 398.3944,-766.3637"/>
</g>
<!-- 17 -->
<g id="node18" class="node">
<title>17</title>
<path fill="none" stroke="#5673d8" stroke-width="2" d="M269.5,-756C269.5,-756 201.5,-756 201.5,-756 195.5,-756 189.5,-750 189.5,-744 189.5,-744 189.5,-732 189.5,-732 189.5,-726 195.5,-720 201.5,-720 201.5,-720 269.5,-720 269.5,-720 275.5,-720 281.5,-726 281.5,-732 281.5,-732 281.5,-744 281.5,-744 281.5,-750 275.5,-756 269.5,-756"/>
<text text-anchor="middle" x="235.5" y="-735.5" font-family="sans" font-size="10.00" fill="#000000">shard_sort_query</text>
</g>
<!-- 17&#45;&gt;12 -->
<g id="edge29" class="edge">
<title>17&#45;&gt;12</title>
<path fill="none" stroke="#c0c0c0" stroke-width="2" d="M235.5,-719.8314C235.5,-712.131 235.5,-702.9743 235.5,-694.4166"/>
<polygon fill="#c0c0c0" stroke="#c0c0c0" stroke-width="2" points="239.0001,-694.4132 235.5,-684.4133 232.0001,-694.4133 239.0001,-694.4132"/>
</g>
<!-- 18&#45;&gt;17 -->
<g id="edge34" class="edge">
<title>18&#45;&gt;17</title>
<path fill="none" stroke="#c0c0c0" stroke-width="2" d="M235.5,-791.8314C235.5,-784.131 235.5,-774.9743 235.5,-766.4166"/>
<polygon fill="#c0c0c0" stroke="#c0c0c0" stroke-width="2" points="239.0001,-766.4132 235.5,-756.4133 232.0001,-766.4133 239.0001,-766.4132"/>
</g>
<!-- 19 -->
<g id="node20" class="node">
<title>19</title>
<path fill="none" stroke="#afd856" stroke-width="2" d="M1129.5,-396C1129.5,-396 1089.5,-396 1089.5,-396 1083.5,-396 1077.5,-390 1077.5,-384 1077.5,-384 1077.5,-372 1077.5,-372 1077.5,-366 1083.5,-360 1089.5,-360 1089.5,-360 1129.5,-360 1129.5,-360 1135.5,-360 1141.5,-366 1141.5,-372 1141.5,-372 1141.5,-384 1141.5,-384 1141.5,-390 1135.5,-396 1129.5,-396"/>
<text text-anchor="middle" x="1109.5" y="-375.5" font-family="sans" font-size="10.00" fill="#000000">align_stats</text>
</g>
<!-- 19&#45;&gt;1 -->
<g id="edge18" class="edge">
<title>19&#45;&gt;1</title>
<path fill="none" stroke="#c0c0c0" stroke-width="2" d="M1107.1641,-359.7568C1100.3728,-309.7671 1078.9672,-172.4213 1045.5,-144 986.9136,-94.2467 777.8447,-116.9014 701.5,-108 666.6428,-103.9358 626.9743,-98.786 598.785,-95.0369"/>
<polygon fill="#c0c0c0" stroke="#c0c0c0" stroke-width="2" points="598.9525,-91.5283 588.5771,-93.6738 598.0259,-98.4667 598.9525,-91.5283"/>
</g>
<!-- 20 -->
<g id="node21" class="node">
<title>20</title>
<path fill="none" stroke="#d88d56" stroke-width="2" d="M1247,-684C1247,-684 1202,-684 1202,-684 1196,-684 1190,-678 1190,-672 1190,-672 1190,-660 1190,-660 1190,-654 1196,-648 1202,-648 1202,-648 1247,-648 1247,-648 1253,-648 1259,-654 1259,-660 1259,-660 1259,-672 1259,-672 1259,-678 1253,-684 1247,-684"/>
<text text-anchor="middle" x="1224.5" y="-663.5" font-family="sans" font-size="10.00" fill="#000000">align_merge</text>
</g>
<!-- 20&#45;&gt;19 -->
<g id="edge36" class="edge">
<title>20&#45;&gt;19</title>
<path fill="none" stroke="#c0c0c0" stroke-width="2" d="M1201.8543,-647.8288C1191.2296,-638.2083 1179.2336,-625.5848 1171.5,-612 1133.0021,-544.3751 1117.7596,-452.1631 1112.2716,-406.3056"/>
<polygon fill="#c0c0c0" stroke="#c0c0c0" stroke-width="2" points="1115.7314,-405.7517 1111.1328,-396.2069 1108.7755,-406.5361 1115.7314,-405.7517"/>
</g>
<!-- 46 -->
<g id="node47" class="node">
<title>46</title>
<path fill="none" stroke="#d8cb56" stroke-width="2" d="M1256.5,-612C1256.5,-612 1192.5,-612 1192.5,-612 1186.5,-612 1180.5,-606 1180.5,-600 1180.5,-600 1180.5,-588 1180.5,-588 1180.5,-582 1186.5,-576 1192.5,-576 1192.5,-576 1256.5,-576 1256.5,-576 1262.5,-576 1268.5,-582 1268.5,-588 1268.5,-588 1268.5,-600 1268.5,-600 1268.5,-606 1262.5,-612 1256.5,-612"/>
<text text-anchor="middle" x="1224.5" y="-591.5" font-family="sans" font-size="10.00" fill="#000000">align_sort_coord</text>
</g>
<!-- 20&#45;&gt;46 -->
<g id="edge67" class="edge">
<title>20&#45;&gt;46</title>
<path fill="none" stroke="#c0c0c0" stroke-width="2" d="M1224.5,-647.8314C1224.5,-640.131 1224.5,-630.9743 1224.5,-622.4166"/>
<polygon fill="#c0c0c0" stroke="#c0c0c0" stroke-width="2" points="1228.0001,-622.4132 1224.5,-612.4133 1221.0001,-622.4133 1228.0001,-622.4132"/>
</g>
<!-- 21 -->
<g id="node22" class="node">
<title>21</title>
<path fill="none" stroke="#5673d8" stroke-width="2" d="M1157.5,-756C1157.5,-756 1089.5,-756 1089.5,-756 1083.5,-756 1077.5,-750 1077.5,-744 1077.5,-744 1077.5,-732 1077.5,-732 1077.5,-726 1083.5,-720 1089.5,-720 1089.5,-720 1157.5,-720 1157.5,-720 1163.5,-720 1169.5,-726 1169.5,-732 1169.5,-732 1169.5,-744 1169.5,-744 1169.5,-750 1163.5,-756 1157.5,-756"/>
<text text-anchor="middle" x="1123.5" y="-735.5" font-family="sans" font-size="10.00" fill="#000000">shard_sort_query</text>
</g>
<!-- 21&#45;&gt;20 -->
<g id="edge37" class="edge">
<title>21&#45;&gt;20</title>
<path fill="none" stroke="#c0c0c0" stroke-width="2" d="M1148.9866,-719.8314C1161.6659,-710.7927 1177.1596,-699.7476 1190.8055,-690.0198"/>
<polygon fill="#c0c0c0" stroke="#c0c0c0" stroke-width="2" points="1192.9105,-692.8176 1199.0216,-684.1628 1188.8471,-687.1176 1192.9105,-692.8176"/>
</g>
<!-- 22&#45;&gt;21 -->
<g id="edge40" class="edge">
<title>22&#45;&gt;21</title>
<path fill="none" stroke="#c0c0c0" stroke-width="2" d="M1086.1171,-791.8314C1091.8172,-783.6232 1098.6663,-773.7606 1104.9359,-764.7323"/>
<polygon fill="#c0c0c0" stroke="#c0c0c0" stroke-width="2" points="1107.8838,-766.6234 1110.713,-756.4133 1102.1342,-762.6306 1107.8838,-766.6234"/>
</g>
<!-- 23 -->
<g id="node24" class="node">
<title>23</title>
<path fill="none" stroke="#5673d8" stroke-width="2" d="M1267.5,-756C1267.5,-756 1199.5,-756 1199.5,-756 1193.5,-756 1187.5,-750 1187.5,-744 1187.5,-744 1187.5,-732 1187.5,-732 1187.5,-726 1193.5,-720 1199.5,-720 1199.5,-720 1267.5,-720 1267.5,-720 1273.5,-720 1279.5,-726 1279.5,-732 1279.5,-732 1279.5,-744 1279.5,-744 1279.5,-750 1273.5,-756 1267.5,-756"/>
<text text-anchor="middle" x="1233.5" y="-735.5" font-family="sans" font-size="10.00" fill="#000000">shard_sort_query</text>
</g>
<!-- 23&#45;&gt;20 -->
<g id="edge38" class="edge">
<title>23&#45;&gt;20</title>
<path fill="none" stroke="#c0c0c0" stroke-width="2" d="M1231.2289,-719.8314C1230.2664,-712.131 1229.1218,-702.9743 1228.0521,-694.4166"/>
<polygon fill="#c0c0c0" stroke="#c0c0c0" stroke-width="2" points="1231.5151,-693.9019 1226.8017,-684.4133 1224.5691,-694.7702 1231.5151,-693.9019"/>
</g>
<!-- 24&#45;&gt;23 -->
<g id="edge42" class="edge">
<title>24&#45;&gt;23</title>
<path fill="none" stroke="#c0c0c0" stroke-width="2" d="M1233.5,-791.8314C1233.5,-784.131 1233.5,-774.9743 1233.5,-766.4166"/>
<polygon fill="#c0c0c0" stroke="#c0c0c0" stroke-width="2" points="1237.0001,-766.4132 1233.5,-756.4133 1230.0001,-766.4133 1237.0001,-766.4132"/>
</g>
<!-- 25 -->
<g id="node26" class="node">
<title>25</title>
<path fill="none" stroke="#5673d8" stroke-width="2" d="M1383.5,-756C1383.5,-756 1315.5,-756 1315.5,-756 1309.5,-756 1303.5,-750 1303.5,-744 1303.5,-744 1303.5,-732 1303.5,-732 1303.5,-726 1309.5,-720 1315.5,-720 1315.5,-720 1383.5,-720 1383.5,-720 1389.5,-720 1395.5,-726 1395.5,-732 1395.5,-732 1395.5,-744 1395.5,-744 1395.5,-750 1389.5,-756 1383.5,-756"/>
<text text-anchor="middle" x="1349.5" y="-735.5" font-family="sans" font-size="10.00" fill="#000000">shard_sort_query</text>
</g>
<!-- 25&#45;&gt;20 -->
<g id="edge39" class="edge">
<title>25&#45;&gt;20</title>
<path fill="none" stroke="#c0c0c0" stroke-width="2" d="M1317.9572,-719.8314C1301.8209,-710.5368 1282.0014,-699.1208 1264.7728,-689.1971"/>
<polygon fill="#c0c0c0" stroke="#c0c0c0" stroke-width="2" points="1266.445,-686.1212 1256.0327,-684.1628 1262.9511,-692.187 1266.445,-686.1212"/>
</g>
<!-- 26&#45;&gt;25 -->
<g id="edge44" class="edge">
<title>26&#45;&gt;25</title>
<path fill="none" stroke="#c0c0c0" stroke-width="2" d="M1353.9859,-791.8314C1353.3442,-784.131 1352.5812,-774.9743 1351.8681,-766.4166"/>
<polygon fill="#c0c0c0" stroke="#c0c0c0" stroke-width="2" points="1355.3529,-766.088 1351.0344,-756.4133 1348.3771,-766.6694 1355.3529,-766.088"/>
</g>
<!-- 27 -->
<g id="node28" class="node">
<title>27</title>
<path fill="none" stroke="#afd856" stroke-width="2" d="M581.5,-540C581.5,-540 541.5,-540 541.5,-540 535.5,-540 529.5,-534 529.5,-528 529.5,-528 529.5,-516 529.5,-516 529.5,-510 535.5,-504 541.5,-504 541.5,-504 581.5,-504 581.5,-504 587.5,-504 593.5,-510 593.5,-516 593.5,-516 593.5,-528 593.5,-528 593.5,-534 587.5,-540 581.5,-540"/>
<text text-anchor="middle" x="561.5" y="-519.5" font-family="sans" font-size="10.00" fill="#000000">align_stats</text>
</g>
<!-- 27&#45;&gt;1 -->
<g id="edge19" class="edge">
<title>27&#45;&gt;1</title>
<path fill="none" stroke="#c0c0c0" stroke-width="2" d="M561.5,-503.8146C561.5,-476.4983 561.5,-423.25 561.5,-378 561.5,-378 561.5,-378 561.5,-234 561.5,-193.876 561.5,-147.4631 561.5,-118.4177"/>
<polygon fill="#c0c0c0" stroke="#c0c0c0" stroke-width="2" points="565.0001,-118.1853 561.5,-108.1854 558.0001,-118.1854 565.0001,-118.1853"/>
</g>
<!-- 28 -->
<g id="node29" class="node">
<title>28</title>
<path fill="none" stroke="#d88d56" stroke-width="2" d="M584,-684C584,-684 539,-684 539,-684 533,-684 527,-678 527,-672 527,-672 527,-660 527,-660 527,-654 533,-648 539,-648 539,-648 584,-648 584,-648 590,-648 596,-654 596,-660 596,-660 596,-672 596,-672 596,-678 590,-684 584,-684"/>
<text text-anchor="middle" x="561.5" y="-663.5" font-family="sans" font-size="10.00" fill="#000000">align_merge</text>
</g>
<!-- 28&#45;&gt;27 -->
<g id="edge46" class="edge">
<title>28&#45;&gt;27</title>
<path fill="none" stroke="#c0c0c0" stroke-width="2" d="M561.5,-647.7623C561.5,-623.201 561.5,-579.2474 561.5,-550.3541"/>
<polygon fill="#c0c0c0" stroke="#c0c0c0" stroke-width="2" points="565.0001,-550.0896 561.5,-540.0896 558.0001,-550.0897 565.0001,-550.0896"/>
</g>
<!-- 52 -->
<g id="node53" class="node">
<title>52</title>
<path fill="none" stroke="#d8cb56" stroke-width="2" d="M397.5,-612C397.5,-612 333.5,-612 333.5,-612 327.5,-612 321.5,-606 321.5,-600 321.5,-600 321.5,-588 321.5,-588 321.5,-582 327.5,-576 333.5,-576 333.5,-576 397.5,-576 397.5,-576 403.5,-576 409.5,-582 409.5,-588 409.5,-588 409.5,-600 409.5,-600 409.5,-606 403.5,-612 397.5,-612"/>
<text text-anchor="middle" x="365.5" y="-591.5" font-family="sans" font-size="10.00" fill="#000000">align_sort_coord</text>
</g>
<!-- 28&#45;&gt;52 -->
<g id="edge73" class="edge">
<title>28&#45;&gt;52</title>
<path fill="none" stroke="#c0c0c0" stroke-width="2" d="M526.9103,-653.2936C497.0756,-642.3339 453.5002,-626.3266 419.1432,-613.7057"/>
<polygon fill="#c0c0c0" stroke="#c0c0c0" stroke-width="2" points="420.3099,-610.4056 409.7163,-610.2427 417.8961,-616.9763 420.3099,-610.4056"/>
</g>
<!-- 29 -->
<g id="node30" class="node">
<title>29</title>
<path fill="none" stroke="#5673d8" stroke-width="2" d="M589.5,-756C589.5,-756 521.5,-756 521.5,-756 515.5,-756 509.5,-750 509.5,-744 509.5,-744 509.5,-732 509.5,-732 509.5,-726 515.5,-720 521.5,-720 521.5,-720 589.5,-720 589.5,-720 595.5,-720 601.5,-726 601.5,-732 601.5,-732 601.5,-744 601.5,-744 601.5,-750 595.5,-756 589.5,-756"/>
<text text-anchor="middle" x="555.5" y="-735.5" font-family="sans" font-size="10.00" fill="#000000">shard_sort_query</text>
</g>
<!-- 29&#45;&gt;28 -->
<g id="edge47" class="edge">
<title>29&#45;&gt;28</title>
<path fill="none" stroke="#c0c0c0" stroke-width="2" d="M557.0141,-719.8314C557.6558,-712.131 558.4188,-702.9743 559.1319,-694.4166"/>
<polygon fill="#c0c0c0" stroke="#c0c0c0" stroke-width="2" points="562.6229,-694.6694 559.9656,-684.4133 555.6471,-694.088 562.6229,-694.6694"/>
</g>
<!-- 30&#45;&gt;29 -->
<g id="edge50" class="edge">
<title>30&#45;&gt;29</title>
<path fill="none" stroke="#c0c0c0" stroke-width="2" d="M583.911,-791.8314C579.6683,-783.7925 574.5879,-774.1666 569.904,-765.2918"/>
<polygon fill="#c0c0c0" stroke="#c0c0c0" stroke-width="2" points="572.9811,-763.6235 565.2181,-756.4133 566.7904,-766.8908 572.9811,-763.6235"/>
</g>
<!-- 31 -->
<g id="node32" class="node">
<title>31</title>
<path fill="none" stroke="#5673d8" stroke-width="2" d="M737.5,-756C737.5,-756 669.5,-756 669.5,-756 663.5,-756 657.5,-750 657.5,-744 657.5,-744 657.5,-732 657.5,-732 657.5,-726 663.5,-720 669.5,-720 669.5,-720 737.5,-720 737.5,-720 743.5,-720 749.5,-726 749.5,-732 749.5,-732 749.5,-744 749.5,-744 749.5,-750 743.5,-756 737.5,-756"/>
<text text-anchor="middle" x="703.5" y="-735.5" font-family="sans" font-size="10.00" fill="#000000">shard_sort_query</text>
</g>
<!-- 31&#45;&gt;28 -->
<g id="edge48" class="edge">
<title>31&#45;&gt;28</title>
<path fill="none" stroke="#c0c0c0" stroke-width="2" d="M667.6674,-719.8314C648.7152,-710.2218 625.2905,-698.3445 605.2701,-688.1933"/>
<polygon fill="#c0c0c0" stroke="#c0c0c0" stroke-width="2" points="606.8412,-685.0657 596.3394,-683.665 603.6756,-691.3091 606.8412,-685.0657"/>
</g>
<!-- 32&#45;&gt;31 -->
<g id="edge52" class="edge">
<title>32&#45;&gt;31</title>
<path fill="none" stroke="#c0c0c0" stroke-width="2" d="M712.4719,-791.8314C711.1885,-784.131 709.6624,-774.9743 708.2361,-766.4166"/>
<polygon fill="#c0c0c0" stroke="#c0c0c0" stroke-width="2" points="711.6653,-765.7018 706.5689,-756.4133 704.7606,-766.8526 711.6653,-765.7018"/>
</g>
<!-- 33 -->
<g id="node34" class="node">
<title>33</title>
<path fill="none" stroke="#5673d8" stroke-width="2" d="M847.5,-756C847.5,-756 779.5,-756 779.5,-756 773.5,-756 767.5,-750 767.5,-744 767.5,-744 767.5,-732 767.5,-732 767.5,-726 773.5,-720 779.5,-720 779.5,-720 847.5,-720 847.5,-720 853.5,-720 859.5,-726 859.5,-732 859.5,-732 859.5,-744 859.5,-744 859.5,-750 853.5,-756 847.5,-756"/>
<text text-anchor="middle" x="813.5" y="-735.5" font-family="sans" font-size="10.00" fill="#000000">shard_sort_query</text>
</g>
<!-- 33&#45;&gt;28 -->
<g id="edge49" class="edge">
<title>33&#45;&gt;28</title>
<path fill="none" stroke="#c0c0c0" stroke-width="2" d="M767.3379,-722.7117C764.3519,-721.7787 761.3866,-720.8674 758.5,-720 706.3698,-704.335 645.9315,-688.0421 605.8883,-677.5057"/>
<polygon fill="#c0c0c0" stroke="#c0c0c0" stroke-width="2" points="606.7256,-674.107 596.1647,-674.9549 604.9493,-680.8779 606.7256,-674.107"/>
</g>
<!-- 34&#45;&gt;33 -->
<g id="edge54" class="edge">
<title>34&#45;&gt;33</title>
<path fill="none" stroke="#c0c0c0" stroke-width="2" d="M859.8548,-791.8314C852.6409,-783.454 843.943,-773.3531 836.0395,-764.1749"/>
<polygon fill="#c0c0c0" stroke="#c0c0c0" stroke-width="2" points="838.5333,-761.7071 829.3559,-756.4133 833.2289,-766.2748 838.5333,-761.7071"/>
</g>
<!-- 35 -->
<g id="node36" class="node">
<title>35</title>
<path fill="none" stroke="#56d8c9" stroke-width="2" d="M202.5,-252C202.5,-252 150.5,-252 150.5,-252 144.5,-252 138.5,-246 138.5,-240 138.5,-240 138.5,-228 138.5,-228 138.5,-222 144.5,-216 150.5,-216 150.5,-216 202.5,-216 202.5,-216 208.5,-216 214.5,-222 214.5,-228 214.5,-228 214.5,-240 214.5,-240 214.5,-246 208.5,-252 202.5,-252"/>
<text text-anchor="middle" x="176.5" y="-231.5" font-family="sans" font-size="10.00" fill="#000000">metadmg_dfit</text>
</g>
<!-- 35&#45;&gt;1 -->
<g id="edge20" class="edge">
<title>35&#45;&gt;1</title>
<path fill="none" stroke="#c0c0c0" stroke-width="2" d="M181.7369,-215.8813C188.775,-194.992 203.3957,-161.3159 228.5,-144 275.9845,-111.2471 447.5581,-96.9264 524.1396,-92.0643"/>
<polygon fill="#c0c0c0" stroke="#c0c0c0" stroke-width="2" points="524.526,-95.5473 534.2923,-91.4401 524.0964,-88.5604 524.526,-95.5473"/>
</g>
<!-- 53 -->
<g id="node54" class="node">
<title>53</title>
<path fill="none" stroke="#56d892" stroke-width="2" d="M164,-180C164,-180 83,-180 83,-180 77,-180 71,-174 71,-168 71,-168 71,-156 71,-156 71,-150 77,-144 83,-144 83,-144 164,-144 164,-144 170,-144 176,-150 176,-156 176,-156 176,-168 176,-168 176,-174 170,-180 164,-180"/>
<text text-anchor="middle" x="123.5" y="-159.5" font-family="sans" font-size="10.00" fill="#000000">metadmg_aggregate</text>
</g>
<!-- 35&#45;&gt;53 -->
<g id="edge75" class="edge">
<title>35&#45;&gt;53</title>
<path fill="none" stroke="#c0c0c0" stroke-width="2" d="M163.1259,-215.8314C157.0838,-207.6232 149.8237,-197.7606 143.1779,-188.7323"/>
<polygon fill="#c0c0c0" stroke="#c0c0c0" stroke-width="2" points="145.8011,-186.3918 137.0542,-180.4133 140.1637,-190.5415 145.8011,-186.3918"/>
</g>
<!-- 36 -->
<g id="node37" class="node">
<title>36</title>
<path fill="none" stroke="#56c9d8" stroke-width="2" d="M137,-324C137,-324 86,-324 86,-324 80,-324 74,-318 74,-312 74,-312 74,-300 74,-300 74,-294 80,-288 86,-288 86,-288 137,-288 137,-288 143,-288 149,-294 149,-300 149,-300 149,-312 149,-312 149,-318 143,-324 137,-324"/>
<text text-anchor="middle" x="111.5" y="-303.5" font-family="sans" font-size="10.00" fill="#000000">metadmg_lca</text>
</g>
<!-- 36&#45;&gt;35 -->
<g id="edge56" class="edge">
<title>36&#45;&gt;35</title>
<path fill="none" stroke="#c0c0c0" stroke-width="2" d="M127.9022,-287.8314C135.5415,-279.3694 144.7683,-269.1489 153.1207,-259.8971"/>
<polygon fill="#c0c0c0" stroke="#c0c0c0" stroke-width="2" points="155.7738,-262.1813 159.8769,-252.4133 150.5779,-257.4906 155.7738,-262.1813"/>
</g>
<!-- 36&#45;&gt;53 -->
<g id="edge74" class="edge">
<title>36&#45;&gt;53</title>
<path fill="none" stroke="#c0c0c0" stroke-width="2" d="M113.0198,-287.7623C115.0666,-263.201 118.7294,-219.2474 121.1372,-190.3541"/>
<polygon fill="#c0c0c0" stroke="#c0c0c0" stroke-width="2" points="124.6499,-190.3458 121.9925,-180.0896 117.6741,-189.7644 124.6499,-190.3458"/>
</g>
<!-- 37 -->
<g id="node38" class="node">
<title>37</title>
<path fill="none" stroke="#c6d856" stroke-width="2" d="M143.5,-396C143.5,-396 79.5,-396 79.5,-396 73.5,-396 67.5,-390 67.5,-384 67.5,-384 67.5,-372 67.5,-372 67.5,-366 73.5,-360 79.5,-360 79.5,-360 143.5,-360 143.5,-360 149.5,-360 155.5,-366 155.5,-372 155.5,-372 155.5,-384 155.5,-384 155.5,-390 149.5,-396 143.5,-396"/>
<text text-anchor="middle" x="111.5" y="-375.5" font-family="sans" font-size="10.00" fill="#000000">align_sort_query</text>
</g>
<!-- 37&#45;&gt;36 -->
<g id="edge57" class="edge">
<title>37&#45;&gt;36</title>
<path fill="none" stroke="#c0c0c0" stroke-width="2" d="M111.5,-359.8314C111.5,-352.131 111.5,-342.9743 111.5,-334.4166"/>
<polygon fill="#c0c0c0" stroke="#c0c0c0" stroke-width="2" points="115.0001,-334.4132 111.5,-324.4133 108.0001,-334.4133 115.0001,-334.4132"/>
</g>
<!-- 56 -->
<g id="node57" class="node">
<title>56</title>
<path fill="none" stroke="#56d8a9" stroke-width="2" d="M85,-108C85,-108 12,-108 12,-108 6,-108 0,-102 0,-96 0,-96 0,-84 0,-84 0,-78 6,-72 12,-72 12,-72 85,-72 85,-72 91,-72 97,-78 97,-84 97,-84 97,-96 97,-96 97,-102 91,-108 85,-108"/>
<text text-anchor="middle" x="48.5" y="-87.5" font-family="sans" font-size="10.00" fill="#000000">metadmg_damage</text>
</g>
<!-- 37&#45;&gt;56 -->
<g id="edge80" class="edge">
<title>37&#45;&gt;56</title>
<path fill="none" stroke="#c0c0c0" stroke-width="2" d="M67.4804,-360.1164C52.3209,-351.5744 37.0244,-339.7156 28.5,-324 -7.737,-257.1929 19.4004,-163.6129 36.8342,-117.6683"/>
<polygon fill="#c0c0c0" stroke="#c0c0c0" stroke-width="2" points="40.1966,-118.6809 40.5916,-108.0935 33.6803,-116.1237 40.1966,-118.6809"/>
</g>
<!-- 38 -->
<g id="node39" class="node">
<title>38</title>
<path fill="none" stroke="#d85656" stroke-width="2" d="M160,-468C160,-468 123,-468 123,-468 117,-468 111,-462 111,-456 111,-456 111,-444 111,-444 111,-438 117,-432 123,-432 123,-432 160,-432 160,-432 166,-432 172,-438 172,-444 172,-444 172,-456 172,-456 172,-462 166,-468 160,-468"/>
<text text-anchor="middle" x="141.5" y="-447.5" font-family="sans" font-size="10.00" fill="#000000">align_filter</text>
</g>
<!-- 38&#45;&gt;37 -->
<g id="edge58" class="edge">
<title>38&#45;&gt;37</title>
<path fill="none" stroke="#c0c0c0" stroke-width="2" d="M133.9297,-431.8314C130.6507,-423.9617 126.738,-414.5712 123.1055,-405.8533"/>
<polygon fill="#c0c0c0" stroke="#c0c0c0" stroke-width="2" points="126.2492,-404.2979 119.1722,-396.4133 119.7876,-406.9902 126.2492,-404.2979"/>
</g>
<!-- 39 -->
<g id="node40" class="node">
<title>39</title>
<path fill="none" stroke="#d8ac56" stroke-width="2" d="M184,-540C184,-540 129,-540 129,-540 123,-540 117,-534 117,-528 117,-528 117,-516 117,-516 117,-510 123,-504 129,-504 129,-504 184,-504 184,-504 190,-504 196,-510 196,-516 196,-516 196,-528 196,-528 196,-534 190,-540 184,-540"/>
<text text-anchor="middle" x="156.5" y="-519.5" font-family="sans" font-size="10.00" fill="#000000">align_reassign</text>
</g>
<!-- 39&#45;&gt;38 -->
<g id="edge59" class="edge">
<title>39&#45;&gt;38</title>
<path fill="none" stroke="#c0c0c0" stroke-width="2" d="M152.7149,-503.8314C151.1106,-496.131 149.203,-486.9743 147.4201,-478.4166"/>
<polygon fill="#c0c0c0" stroke="#c0c0c0" stroke-width="2" points="150.8021,-477.4892 145.3361,-468.4133 143.9493,-478.9169 150.8021,-477.4892"/>
</g>
<!-- 40&#45;&gt;39 -->
<g id="edge60" class="edge">
<title>40&#45;&gt;39</title>
<path fill="none" stroke="#c0c0c0" stroke-width="2" d="M161.7336,-575.8314C160.985,-568.131 160.0947,-558.9743 159.2627,-550.4166"/>
<polygon fill="#c0c0c0" stroke="#c0c0c0" stroke-width="2" points="162.7415,-550.0276 158.2902,-540.4133 155.7744,-550.7051 162.7415,-550.0276"/>
</g>
<!-- 41 -->
<g id="node42" class="node">
<title>41</title>
<path fill="none" stroke="#56d8c9" stroke-width="2" d="M1161.5,-252C1161.5,-252 1109.5,-252 1109.5,-252 1103.5,-252 1097.5,-246 1097.5,-240 1097.5,-240 1097.5,-228 1097.5,-228 1097.5,-222 1103.5,-216 1109.5,-216 1109.5,-216 1161.5,-216 1161.5,-216 1167.5,-216 1173.5,-222 1173.5,-228 1173.5,-228 1173.5,-240 1173.5,-240 1173.5,-246 1167.5,-252 1161.5,-252"/>
<text text-anchor="middle" x="1135.5" y="-231.5" font-family="sans" font-size="10.00" fill="#000000">metadmg_dfit</text>
</g>
<!-- 41&#45;&gt;1 -->
<g id="edge21" class="edge">
<title>41&#45;&gt;1</title>
<path fill="none" stroke="#c0c0c0" stroke-width="2" d="M1130.4325,-215.628C1123.5573,-194.495 1109.0932,-160.5848 1083.5,-144 1042.9933,-117.751 711.8559,-97.9566 599.0064,-91.9174"/>
<polygon fill="#c0c0c0" stroke="#c0c0c0" stroke-width="2" points="598.9551,-88.4099 588.784,-91.3762 598.5849,-95.4001 598.9551,-88.4099"/>
</g>
<!-- 54 -->
<g id="node55" class="node">
<title>54</title>
<path fill="none" stroke="#56d892" stroke-width="2" d="M1229,-180C1229,-180 1148,-180 1148,-180 1142,-180 1136,-174 1136,-168 1136,-168 1136,-156 1136,-156 1136,-150 1142,-144 1148,-144 1148,-144 1229,-144 1229,-144 1235,-144 1241,-150 1241,-156 1241,-156 1241,-168 1241,-168 1241,-174 1235,-180 1229,-180"/>
<text text-anchor="middle" x="1188.5" y="-159.5" font-family="sans" font-size="10.00" fill="#000000">metadmg_aggregate</text>
</g>
<!-- 41&#45;&gt;54 -->
<g id="edge77" class="edge">
<title>41&#45;&gt;54</title>
<path fill="none" stroke="#c0c0c0" stroke-width="2" d="M1148.8741,-215.8314C1154.9162,-207.6232 1162.1763,-197.7606 1168.8221,-188.7323"/>
<polygon fill="#c0c0c0" stroke="#c0c0c0" stroke-width="2" points="1171.8363,-190.5415 1174.9458,-180.4133 1166.1989,-186.3918 1171.8363,-190.5415"/>
</g>
<!-- 42 -->
<g id="node43" class="node">
<title>42</title>
<path fill="none" stroke="#56c9d8" stroke-width="2" d="M1227,-324C1227,-324 1176,-324 1176,-324 1170,-324 1164,-318 1164,-312 1164,-312 1164,-300 1164,-300 1164,-294 1170,-288 1176,-288 1176,-288 1227,-288 1227,-288 1233,-288 1239,-294 1239,-300 1239,-300 1239,-312 1239,-312 1239,-318 1233,-324 1227,-324"/>
<text text-anchor="middle" x="1201.5" y="-303.5" font-family="sans" font-size="10.00" fill="#000000">metadmg_lca</text>
</g>
<!-- 42&#45;&gt;41 -->
<g id="edge62" class="edge">
<title>42&#45;&gt;41</title>
<path fill="none" stroke="#c0c0c0" stroke-width="2" d="M1184.8454,-287.8314C1177.0886,-279.3694 1167.7198,-269.1489 1159.239,-259.8971"/>
<polygon fill="#c0c0c0" stroke="#c0c0c0" stroke-width="2" points="1161.7162,-257.4198 1152.3788,-252.4133 1156.5561,-262.1499 1161.7162,-257.4198"/>
</g>
<!-- 42&#45;&gt;54 -->
<g id="edge76" class="edge">
<title>42&#45;&gt;54</title>
<path fill="none" stroke="#c0c0c0" stroke-width="2" d="M1199.8535,-287.7623C1197.6362,-263.201 1193.6682,-219.2474 1191.0597,-190.3541"/>
<polygon fill="#c0c0c0" stroke="#c0c0c0" stroke-width="2" points="1194.5181,-189.7344 1190.1331,-180.0896 1187.5465,-190.3638 1194.5181,-189.7344"/>
</g>
<!-- 43 -->
<g id="node44" class="node">
<title>43</title>
<path fill="none" stroke="#c6d856" stroke-width="2" d="M1256.5,-396C1256.5,-396 1192.5,-396 1192.5,-396 1186.5,-396 1180.5,-390 1180.5,-384 1180.5,-384 1180.5,-372 1180.5,-372 1180.5,-366 1186.5,-360 1192.5,-360 1192.5,-360 1256.5,-360 1256.5,-360 1262.5,-360 1268.5,-366 1268.5,-372 1268.5,-372 1268.5,-384 1268.5,-384 1268.5,-390 1262.5,-396 1256.5,-396"/>
<text text-anchor="middle" x="1224.5" y="-375.5" font-family="sans" font-size="10.00" fill="#000000">align_sort_query</text>
</g>
<!-- 43&#45;&gt;42 -->
<g id="edge63" class="edge">
<title>43&#45;&gt;42</title>
<path fill="none" stroke="#c0c0c0" stroke-width="2" d="M1218.6961,-359.8314C1216.2092,-352.0463 1213.2469,-342.7729 1210.4875,-334.1347"/>
<polygon fill="#c0c0c0" stroke="#c0c0c0" stroke-width="2" points="1213.7591,-332.874 1207.382,-324.4133 1207.091,-335.0041 1213.7591,-332.874"/>
</g>
<!-- 57 -->
<g id="node58" class="node">
<title>57</title>
<path fill="none" stroke="#56d8a9" stroke-width="2" d="M1315,-252C1315,-252 1242,-252 1242,-252 1236,-252 1230,-246 1230,-240 1230,-240 1230,-228 1230,-228 1230,-222 1236,-216 1242,-216 1242,-216 1315,-216 1315,-216 1321,-216 1327,-222 1327,-228 1327,-228 1327,-240 1327,-240 1327,-246 1321,-252 1315,-252"/>
<text text-anchor="middle" x="1278.5" y="-231.5" font-family="sans" font-size="10.00" fill="#000000">metadmg_damage</text>
</g>
<!-- 43&#45;&gt;57 -->
<g id="edge81" class="edge">
<title>43&#45;&gt;57</title>
<path fill="none" stroke="#c0c0c0" stroke-width="2" d="M1232.7037,-359.6379C1237.2471,-349.2521 1242.8908,-335.9835 1247.5,-324 1255.472,-303.2736 1263.6161,-279.5088 1269.5553,-261.606"/>
<polygon fill="#c0c0c0" stroke="#c0c0c0" stroke-width="2" points="1272.8936,-262.6581 1272.6959,-252.0651 1266.2446,-260.4694 1272.8936,-262.6581"/>
</g>
<!-- 44 -->
<g id="node45" class="node">
<title>44</title>
<path fill="none" stroke="#d85656" stroke-width="2" d="M1243,-468C1243,-468 1206,-468 1206,-468 1200,-468 1194,-462 1194,-456 1194,-456 1194,-444 1194,-444 1194,-438 1200,-432 1206,-432 1206,-432 1243,-432 1243,-432 1249,-432 1255,-438 1255,-444 1255,-444 1255,-456 1255,-456 1255,-462 1249,-468 1243,-468"/>
<text text-anchor="middle" x="1224.5" y="-447.5" font-family="sans" font-size="10.00" fill="#000000">align_filter</text>
</g>
<!-- 44&#45;&gt;43 -->
<g id="edge64" class="edge">
<title>44&#45;&gt;43</title>
<path fill="none" stroke="#c0c0c0" stroke-width="2" d="M1224.5,-431.8314C1224.5,-424.131 1224.5,-414.9743 1224.5,-406.4166"/>
<polygon fill="#c0c0c0" stroke="#c0c0c0" stroke-width="2" points="1228.0001,-406.4132 1224.5,-396.4133 1221.0001,-406.4133 1228.0001,-406.4132"/>
</g>
<!-- 45 -->
<g id="node46" class="node">
<title>45</title>
<path fill="none" stroke="#d8ac56" stroke-width="2" d="M1252,-540C1252,-540 1197,-540 1197,-540 1191,-540 1185,-534 1185,-528 1185,-528 1185,-516 1185,-516 1185,-510 1191,-504 1197,-504 1197,-504 1252,-504 1252,-504 1258,-504 1264,-510 1264,-516 1264,-516 1264,-528 1264,-528 1264,-534 1258,-540 1252,-540"/>
<text text-anchor="middle" x="1224.5" y="-519.5" font-family="sans" font-size="10.00" fill="#000000">align_reassign</text>
</g>
<!-- 45&#45;&gt;44 -->
<g id="edge65" class="edge">
<title>45&#45;&gt;44</title>
<path fill="none" stroke="#c0c0c0" stroke-width="2" d="M1224.5,-503.8314C1224.5,-496.131 1224.5,-486.9743 1224.5,-478.4166"/>
<polygon fill="#c0c0c0" stroke="#c0c0c0" stroke-width="2" points="1228.0001,-478.4132 1224.5,-468.4133 1221.0001,-478.4133 1228.0001,-478.4132"/>
</g>
<!-- 46&#45;&gt;45 -->
<g id="edge66" class="edge">
<title>46&#45;&gt;45</title>
<path fill="none" stroke="#c0c0c0" stroke-width="2" d="M1224.5,-575.8314C1224.5,-568.131 1224.5,-558.9743 1224.5,-550.4166"/>
<polygon fill="#c0c0c0" stroke="#c0c0c0" stroke-width="2" points="1228.0001,-550.4132 1224.5,-540.4133 1221.0001,-550.4133 1228.0001,-550.4132"/>
</g>
<!-- 47 -->
<g id="node48" class="node">
<title>47</title>
<path fill="none" stroke="#56d8c9" stroke-width="2" d="M402.5,-252C402.5,-252 350.5,-252 350.5,-252 344.5,-252 338.5,-246 338.5,-240 338.5,-240 338.5,-228 338.5,-228 338.5,-222 344.5,-216 350.5,-216 350.5,-216 402.5,-216 402.5,-216 408.5,-216 414.5,-222 414.5,-228 414.5,-228 414.5,-240 414.5,-240 414.5,-246 408.5,-252 402.5,-252"/>
<text text-anchor="middle" x="376.5" y="-231.5" font-family="sans" font-size="10.00" fill="#000000">metadmg_dfit</text>
</g>
<!-- 47&#45;&gt;1 -->
<g id="edge22" class="edge">
<title>47&#45;&gt;1</title>
<path fill="none" stroke="#c0c0c0" stroke-width="2" d="M382.8844,-215.7431C390.749,-195.6717 405.9059,-163.6683 428.5,-144 456.0753,-119.9955 495.7228,-105.7696 524.5507,-97.9978"/>
<polygon fill="#c0c0c0" stroke="#c0c0c0" stroke-width="2" points="525.4392,-101.3833 534.2588,-95.5126 523.7031,-94.602 525.4392,-101.3833"/>
</g>
<!-- 55 -->
<g id="node56" class="node">
<title>55</title>
<path fill="none" stroke="#56d892" stroke-width="2" d="M364,-180C364,-180 283,-180 283,-180 277,-180 271,-174 271,-168 271,-168 271,-156 271,-156 271,-150 277,-144 283,-144 283,-144 364,-144 364,-144 370,-144 376,-150 376,-156 376,-156 376,-168 376,-168 376,-174 370,-180 364,-180"/>
<text text-anchor="middle" x="323.5" y="-159.5" font-family="sans" font-size="10.00" fill="#000000">metadmg_aggregate</text>
</g>
<!-- 47&#45;&gt;55 -->
<g id="edge79" class="edge">
<title>47&#45;&gt;55</title>
<path fill="none" stroke="#c0c0c0" stroke-width="2" d="M363.1259,-215.8314C357.0838,-207.6232 349.8237,-197.7606 343.1779,-188.7323"/>
<polygon fill="#c0c0c0" stroke="#c0c0c0" stroke-width="2" points="345.8011,-186.3918 337.0542,-180.4133 340.1637,-190.5415 345.8011,-186.3918"/>
</g>
<!-- 48 -->
<g id="node49" class="node">
<title>48</title>
<path fill="none" stroke="#56c9d8" stroke-width="2" d="M338,-324C338,-324 287,-324 287,-324 281,-324 275,-318 275,-312 275,-312 275,-300 275,-300 275,-294 281,-288 287,-288 287,-288 338,-288 338,-288 344,-288 350,-294 350,-300 350,-300 350,-312 350,-312 350,-318 344,-324 338,-324"/>
<text text-anchor="middle" x="312.5" y="-303.5" font-family="sans" font-size="10.00" fill="#000000">metadmg_lca</text>
</g>
<!-- 48&#45;&gt;47 -->
<g id="edge68" class="edge">
<title>48&#45;&gt;47</title>
<path fill="none" stroke="#c0c0c0" stroke-width="2" d="M328.6499,-287.8314C336.1717,-279.3694 345.2565,-269.1489 353.4804,-259.8971"/>
<polygon fill="#c0c0c0" stroke="#c0c0c0" stroke-width="2" points="356.1049,-262.2127 360.1327,-252.4133 350.873,-257.5621 356.1049,-262.2127"/>
</g>
<!-- 48&#45;&gt;55 -->
<g id="edge78" class="edge">
<title>48&#45;&gt;55</title>
<path fill="none" stroke="#c0c0c0" stroke-width="2" d="M313.8932,-287.7623C315.7694,-263.201 319.1269,-219.2474 321.3341,-190.3541"/>
<polygon fill="#c0c0c0" stroke="#c0c0c0" stroke-width="2" points="324.8462,-190.3272 322.1182,-180.0896 317.8666,-189.794 324.8462,-190.3272"/>
</g>
<!-- 49 -->
<g id="node50" class="node">
<title>49</title>
<path fill="none" stroke="#c6d856" stroke-width="2" d="M344.5,-396C344.5,-396 280.5,-396 280.5,-396 274.5,-396 268.5,-390 268.5,-384 268.5,-384 268.5,-372 268.5,-372 268.5,-366 274.5,-360 280.5,-360 280.5,-360 344.5,-360 344.5,-360 350.5,-360 356.5,-366 356.5,-372 356.5,-372 356.5,-384 356.5,-384 356.5,-390 350.5,-396 344.5,-396"/>
<text text-anchor="middle" x="312.5" y="-375.5" font-family="sans" font-size="10.00" fill="#000000">align_sort_query</text>
</g>
<!-- 49&#45;&gt;48 -->
<g id="edge69" class="edge">
<title>49&#45;&gt;48</title>
<path fill="none" stroke="#c0c0c0" stroke-width="2" d="M312.5,-359.8314C312.5,-352.131 312.5,-342.9743 312.5,-334.4166"/>
<polygon fill="#c0c0c0" stroke="#c0c0c0" stroke-width="2" points="316.0001,-334.4132 312.5,-324.4133 309.0001,-334.4133 316.0001,-334.4132"/>
</g>
<!-- 58 -->
<g id="node59" class="node">
<title>58</title>
<path fill="none" stroke="#56d8a9" stroke-width="2" d="M222,-108C222,-108 149,-108 149,-108 143,-108 137,-102 137,-96 137,-96 137,-84 137,-84 137,-78 143,-72 149,-72 149,-72 222,-72 222,-72 228,-72 234,-78 234,-84 234,-84 234,-96 234,-96 234,-102 228,-108 222,-108"/>
<text text-anchor="middle" x="185.5" y="-87.5" font-family="sans" font-size="10.00" fill="#000000">metadmg_damage</text>
</g>
<!-- 49&#45;&gt;58 -->
<g id="edge82" class="edge">
<title>49&#45;&gt;58</title>
<path fill="none" stroke="#c0c0c0" stroke-width="2" d="M268.2919,-371.3884C200.5291,-360.8144 77.4157,-339.6932 64.5,-324 13.6554,-262.2213 17.6493,-210.9246 61.5,-144 76.212,-121.5466 102.5135,-108.3783 127.1193,-100.6799"/>
<polygon fill="#c0c0c0" stroke="#c0c0c0" stroke-width="2" points="128.1555,-104.0239 136.7973,-97.8944 126.2193,-97.2969 128.1555,-104.0239"/>
</g>
<!-- 50 -->
<g id="node51" class="node">
<title>50</title>
<path fill="none" stroke="#d85656" stroke-width="2" d="M340,-468C340,-468 303,-468 303,-468 297,-468 291,-462 291,-456 291,-456 291,-444 291,-444 291,-438 297,-432 303,-432 303,-432 340,-432 340,-432 346,-432 352,-438 352,-444 352,-444 352,-456 352,-456 352,-462 346,-468 340,-468"/>
<text text-anchor="middle" x="321.5" y="-447.5" font-family="sans" font-size="10.00" fill="#000000">align_filter</text>
</g>
<!-- 50&#45;&gt;49 -->
<g id="edge70" class="edge">
<title>50&#45;&gt;49</title>
<path fill="none" stroke="#c0c0c0" stroke-width="2" d="M319.2289,-431.8314C318.2664,-424.131 317.1218,-414.9743 316.0521,-406.4166"/>
<polygon fill="#c0c0c0" stroke="#c0c0c0" stroke-width="2" points="319.5151,-405.9019 314.8017,-396.4133 312.5691,-406.7702 319.5151,-405.9019"/>
</g>
<!-- 51 -->
<g id="node52" class="node">
<title>51</title>
<path fill="none" stroke="#d8ac56" stroke-width="2" d="M388,-540C388,-540 333,-540 333,-540 327,-540 321,-534 321,-528 321,-528 321,-516 321,-516 321,-510 327,-504 333,-504 333,-504 388,-504 388,-504 394,-504 400,-510 400,-516 400,-516 400,-528 400,-528 400,-534 394,-540 388,-540"/>
<text text-anchor="middle" x="360.5" y="-519.5" font-family="sans" font-size="10.00" fill="#000000">align_reassign</text>
</g>
<!-- 51&#45;&gt;50 -->
<g id="edge71" class="edge">
<title>51&#45;&gt;50</title>
<path fill="none" stroke="#c0c0c0" stroke-width="2" d="M350.6587,-503.8314C346.3043,-495.7925 341.0902,-486.1666 336.2831,-477.2918"/>
<polygon fill="#c0c0c0" stroke="#c0c0c0" stroke-width="2" points="339.3143,-475.5392 331.4739,-468.4133 333.1592,-478.8732 339.3143,-475.5392"/>
</g>
<!-- 52&#45;&gt;51 -->
<g id="edge72" class="edge">
<title>52&#45;&gt;51</title>
<path fill="none" stroke="#c0c0c0" stroke-width="2" d="M364.2383,-575.8314C363.7035,-568.131 363.0677,-558.9743 362.4734,-550.4166"/>
<polygon fill="#c0c0c0" stroke="#c0c0c0" stroke-width="2" points="365.9632,-550.1467 361.7787,-540.4133 358.98,-550.6317 365.9632,-550.1467"/>
</g>
<!-- 53&#45;&gt;0 -->
<g id="edge2" class="edge">
<title>53&#45;&gt;0</title>
<path fill="none" stroke="#c0c0c0" stroke-width="2" d="M175.2279,-143.9709C197.11,-135.0048 222.181,-122.8768 242.5,-108 266.8783,-90.1511 289.4154,-63.9746 304.4942,-44.4478"/>
<polygon fill="#c0c0c0" stroke="#c0c0c0" stroke-width="2" points="307.442,-46.3523 310.6802,-36.2644 301.8579,-42.1312 307.442,-46.3523"/>
</g>
<!-- 53&#45;&gt;1 -->
<g id="edge23" class="edge">
<title>53&#45;&gt;1</title>
<path fill="none" stroke="#c0c0c0" stroke-width="2" d="M176.0268,-147.2605C180.902,-146.0825 185.7816,-144.9737 190.5,-144 311.5166,-119.0276 457.0734,-101.3966 524.222,-93.9517"/>
<polygon fill="#c0c0c0" stroke="#c0c0c0" stroke-width="2" points="524.7515,-97.4147 534.31,-92.8448 523.9879,-90.4565 524.7515,-97.4147"/>
</g>
<!-- 54&#45;&gt;0 -->
<g id="edge3" class="edge">
<title>54&#45;&gt;0</title>
<path fill="none" stroke="#c0c0c0" stroke-width="2" d="M1135.7555,-148.7995C1128.3036,-147.0928 1120.7226,-145.4404 1113.5,-144 825.5244,-86.5673 474.3614,-38.0562 360.8135,-22.9053"/>
<polygon fill="#c0c0c0" stroke="#c0c0c0" stroke-width="2" points="360.951,-19.3928 350.5769,-21.544 360.0282,-26.3318 360.951,-19.3928"/>
</g>
<!-- 54&#45;&gt;1 -->
<g id="edge24" class="edge">
<title>54&#45;&gt;1</title>
<path fill="none" stroke="#c0c0c0" stroke-width="2" d="M1135.6542,-146.9317C1130.8907,-145.8379 1126.122,-144.8377 1121.5,-144 926.4366,-108.6464 688.6742,-95.4083 598.5307,-91.4406"/>
<polygon fill="#c0c0c0" stroke="#c0c0c0" stroke-width="2" points="598.6701,-87.9435 588.5294,-91.0121 598.3704,-94.937 598.6701,-87.9435"/>
</g>
<!-- 55&#45;&gt;0 -->
<g id="edge4" class="edge">
<title>55&#45;&gt;0</title>
<path fill="none" stroke="#c0c0c0" stroke-width="2" d="M323.5,-143.7623C323.5,-119.201 323.5,-75.2474 323.5,-46.3541"/>
<polygon fill="#c0c0c0" stroke="#c0c0c0" stroke-width="2" points="327.0001,-46.0896 323.5,-36.0896 320.0001,-46.0897 327.0001,-46.0896"/>
</g>
<!-- 55&#45;&gt;1 -->
<g id="edge25" class="edge">
<title>55&#45;&gt;1</title>
<path fill="none" stroke="#c0c0c0" stroke-width="2" d="M376.0247,-146.1102C421.077,-132.4809 484.8457,-113.1895 524.6546,-101.1465"/>
<polygon fill="#c0c0c0" stroke="#c0c0c0" stroke-width="2" points="525.6752,-104.4945 534.2333,-98.2488 523.6482,-97.7944 525.6752,-104.4945"/>
</g>
<!-- 56&#45;&gt;0 -->
<g id="edge5" class="edge">
<title>56&#45;&gt;0</title>
<path fill="none" stroke="#c0c0c0" stroke-width="2" d="M97.0315,-77.2936C151.1582,-63.1222 237.5189,-40.5114 286.4711,-27.6948"/>
<polygon fill="#c0c0c0" stroke="#c0c0c0" stroke-width="2" points="287.5367,-31.0339 296.3241,-25.1151 285.7637,-24.2621 287.5367,-31.0339"/>
</g>
<!-- 57&#45;&gt;0 -->
<g id="edge6" class="edge">
<title>57&#45;&gt;0</title>
<path fill="none" stroke="#c0c0c0" stroke-width="2" d="M1277.9653,-215.8082C1276.3207,-195.174 1270.3458,-162.0571 1249.5,-144 1180.9505,-84.6208 525.7625,-32.8487 360.9697,-20.6919"/>
<polygon fill="#c0c0c0" stroke="#c0c0c0" stroke-width="2" points="361.0649,-17.1896 350.8357,-19.9488 360.5529,-24.1708 361.0649,-17.1896"/>
</g>
<!-- 58&#45;&gt;0 -->
<g id="edge7" class="edge">
<title>58&#45;&gt;0</title>
<path fill="none" stroke="#c0c0c0" stroke-width="2" d="M220.3232,-71.8314C240.6803,-61.2103 266.3472,-47.8188 286.9881,-37.0497"/>
<polygon fill="#c0c0c0" stroke="#c0c0c0" stroke-width="2" points="288.8341,-40.0343 296.081,-32.3056 285.5961,-33.8282 288.8341,-40.0343"/>
</g>
</g>
</svg>
