<?xml version="1.0" encoding="UTF-8" standalone="no"?>
<!DOCTYPE svg PUBLIC "-//W3C//DTD SVG 1.1//EN"
 "http://www.w3.org/Graphics/SVG/1.1/DTD/svg11.dtd">
<!-- Generated by graphviz version 2.40.1 (0)
 -->
<!-- Title: snakemake_dag Pages: 1 -->
<svg width="1497pt" height="957pt"
 viewBox="0.00 0.00 1497.00 957.00" xmlns="http://www.w3.org/2000/svg" xmlns:xlink="http://www.w3.org/1999/xlink">
<g id="graph0" class="graph" transform="scale(1 1) rotate(0) translate(4 953)">
<title>snakemake_dag</title>
<polygon fill="#ffffff" stroke="transparent" points="-4,4 -4,-953 1493,-953 1493,4 -4,4"/>
<!-- 0 -->
<g id="node1" class="node">
<title>0</title>
<path fill="none" stroke="#8fd856" stroke-width="2" d="M338.5,-36C338.5,-36 308.5,-36 308.5,-36 302.5,-36 296.5,-30 296.5,-24 296.5,-24 296.5,-12 296.5,-12 296.5,-6 302.5,0 308.5,0 308.5,0 338.5,0 338.5,0 344.5,0 350.5,-6 350.5,-12 350.5,-12 350.5,-24 350.5,-24 350.5,-30 344.5,-36 338.5,-36"/>
<text text-anchor="middle" x="323.5" y="-15.5" font-family="sans" font-size="10.00" fill="#000000">all</text>
</g>
<!-- 1 -->
<g id="node2" class="node">
<title>1</title>
<path fill="none" stroke="#56a9d8" stroke-width="2" d="M604.5,-108C604.5,-108 574.5,-108 574.5,-108 568.5,-108 562.5,-102 562.5,-96 562.5,-96 562.5,-84 562.5,-84 562.5,-78 568.5,-72 574.5,-72 574.5,-72 604.5,-72 604.5,-72 610.5,-72 616.5,-78 616.5,-84 616.5,-84 616.5,-96 616.5,-96 616.5,-102 610.5,-108 604.5,-108"/>
<text text-anchor="middle" x="589.5" y="-87.5" font-family="sans" font-size="10.00" fill="#000000">multiqc</text>
</g>
<!-- 1&#45;&gt;0 -->
<g id="edge1" class="edge">
<title>1&#45;&gt;0</title>
<path fill="none" stroke="#c0c0c0" stroke-width="2" d="M562.0352,-82.5659C514.0248,-69.5706 414.8082,-42.715 360.691,-28.0667"/>
<polygon fill="#c0c0c0" stroke="#c0c0c0" stroke-width="2" points="361.3825,-24.628 350.8154,-25.3936 359.5535,-31.3849 361.3825,-24.628"/>
</g>
<!-- 2 -->
<g id="node3" class="node">
<title>2</title>
<path fill="none" stroke="#70d856" stroke-width="2" d="M147,-949C147,-949 40,-949 40,-949 34,-949 28,-943 28,-937 28,-937 28,-876 28,-876 28,-870 34,-864 40,-864 40,-864 147,-864 147,-864 153,-864 159,-870 159,-876 159,-876 159,-937 159,-937 159,-943 153,-949 147,-949"/>
<text text-anchor="middle" x="93.5" y="-937" font-family="sans" font-size="10.00" fill="#000000">bowtie2</text>
<text text-anchor="middle" x="93.5" y="-926" font-family="sans" font-size="10.00" fill="#000000">library: lib2</text>
<text text-anchor="middle" x="93.5" y="-915" font-family="sans" font-size="10.00" fill="#000000">n_shard: 1</text>
<text text-anchor="middle" x="93.5" y="-904" font-family="sans" font-size="10.00" fill="#000000">read_type_map: collapsed</text>
<text text-anchor="middle" x="93.5" y="-893" font-family="sans" font-size="10.00" fill="#000000">ref: wgs_eukaryota</text>
<text text-anchor="middle" x="93.5" y="-882" font-family="sans" font-size="10.00" fill="#000000">sample: HD827sonic_2</text>
<text text-anchor="middle" x="93.5" y="-871" font-family="sans" font-size="10.00" fill="#000000">tot_shards: 2</text>
</g>
<!-- 2&#45;&gt;1 -->
<g id="edge8" class="edge">
<title>2&#45;&gt;1</title>
<path fill="none" stroke="#c0c0c0" stroke-width="2" d="M82.4425,-863.8188C74.5841,-823.9001 69.3603,-763.9972 94.5,-720 130.4267,-657.1245 181.996,-675.6673 216.5,-612 251.1803,-548.0074 240.5,-522.7858 240.5,-450 240.5,-450 240.5,-450 240.5,-378 240.5,-325.791 225.9672,-182.2518 261.5,-144 281.1406,-122.8565 470.3242,-101.7875 552.124,-93.5841"/>
<polygon fill="#c0c0c0" stroke="#c0c0c0" stroke-width="2" points="552.8618,-97.0282 562.4674,-92.5581 552.1707,-90.0624 552.8618,-97.0282"/>
</g>
<!-- 32 -->
<g id="node33" class="node">
<title>32</title>
<path fill="none" stroke="#5692d8" stroke-width="2" d="M181.5,-828C181.5,-828 101.5,-828 101.5,-828 95.5,-828 89.5,-822 89.5,-816 89.5,-816 89.5,-804 89.5,-804 89.5,-798 95.5,-792 101.5,-792 101.5,-792 181.5,-792 181.5,-792 187.5,-792 193.5,-798 193.5,-804 193.5,-804 193.5,-816 193.5,-816 193.5,-822 187.5,-828 181.5,-828"/>
<text text-anchor="middle" x="141.5" y="-807.5" font-family="sans" font-size="10.00" fill="#000000">shard_clean_header</text>
</g>
<!-- 2&#45;&gt;32 -->
<g id="edge53" class="edge">
<title>2&#45;&gt;32</title>
<path fill="none" stroke="#c0c0c0" stroke-width="2" d="M114.6932,-863.8928C119.1699,-854.8929 123.7786,-845.6275 127.8848,-837.3722"/>
<polygon fill="#c0c0c0" stroke="#c0c0c0" stroke-width="2" points="131.1164,-838.7341 132.4363,-828.2218 124.8489,-835.6166 131.1164,-838.7341"/>
</g>
<!-- 3 -->
<g id="node4" class="node">
<title>3</title>
<path fill="none" stroke="#70d856" stroke-width="2" d="M961,-949C961,-949 854,-949 854,-949 848,-949 842,-943 842,-937 842,-937 842,-876 842,-876 842,-870 848,-864 854,-864 854,-864 961,-864 961,-864 967,-864 973,-870 973,-876 973,-876 973,-937 973,-937 973,-943 967,-949 961,-949"/>
<text text-anchor="middle" x="907.5" y="-937" font-family="sans" font-size="10.00" fill="#000000">bowtie2</text>
<text text-anchor="middle" x="907.5" y="-926" font-family="sans" font-size="10.00" fill="#000000">library: lib1</text>
<text text-anchor="middle" x="907.5" y="-915" font-family="sans" font-size="10.00" fill="#000000">n_shard: 1</text>
<text text-anchor="middle" x="907.5" y="-904" font-family="sans" font-size="10.00" fill="#000000">read_type_map: collapsed</text>
<text text-anchor="middle" x="907.5" y="-893" font-family="sans" font-size="10.00" fill="#000000">ref: wgs_eukaryota</text>
<text text-anchor="middle" x="907.5" y="-882" font-family="sans" font-size="10.00" fill="#000000">sample: HD827sonic_2</text>
<text text-anchor="middle" x="907.5" y="-871" font-family="sans" font-size="10.00" fill="#000000">tot_shards: 2</text>
</g>
<!-- 3&#45;&gt;1 -->
<g id="edge9" class="edge">
<title>3&#45;&gt;1</title>
<path fill="none" stroke="#c0c0c0" stroke-width="2" d="M943.5234,-863.667C951.4123,-852.5971 959.0299,-840.3135 964.5,-828 981.097,-790.6389 983.5,-778.8816 983.5,-738 983.5,-738 983.5,-738 983.5,-234 983.5,-158.4621 724.7936,-110.7911 626.6497,-95.4242"/>
<polygon fill="#c0c0c0" stroke="#c0c0c0" stroke-width="2" points="626.9975,-91.9365 616.5812,-93.8733 625.9318,-98.8549 626.9975,-91.9365"/>
</g>
<!-- 24 -->
<g id="node25" class="node">
<title>24</title>
<path fill="none" stroke="#5692d8" stroke-width="2" d="M943.5,-828C943.5,-828 863.5,-828 863.5,-828 857.5,-828 851.5,-822 851.5,-816 851.5,-816 851.5,-804 851.5,-804 851.5,-798 857.5,-792 863.5,-792 863.5,-792 943.5,-792 943.5,-792 949.5,-792 955.5,-798 955.5,-804 955.5,-804 955.5,-816 955.5,-816 955.5,-822 949.5,-828 943.5,-828"/>
<text text-anchor="middle" x="903.5" y="-807.5" font-family="sans" font-size="10.00" fill="#000000">shard_clean_header</text>
</g>
<!-- 3&#45;&gt;24 -->
<g id="edge43" class="edge">
<title>3&#45;&gt;24</title>
<path fill="none" stroke="#c0c0c0" stroke-width="2" d="M905.7339,-863.8928C905.3771,-855.2842 905.0102,-846.4327 904.6795,-838.4546"/>
<polygon fill="#c0c0c0" stroke="#c0c0c0" stroke-width="2" points="908.1666,-838.0682 904.2553,-828.2218 901.1726,-838.3582 908.1666,-838.0682"/>
</g>
<!-- 4 -->
<g id="node5" class="node">
<title>4</title>
<path fill="none" stroke="#70d856" stroke-width="2" d="M804,-949C804,-949 697,-949 697,-949 691,-949 685,-943 685,-937 685,-937 685,-876 685,-876 685,-870 691,-864 697,-864 697,-864 804,-864 804,-864 810,-864 816,-870 816,-876 816,-876 816,-937 816,-937 816,-943 810,-949 804,-949"/>
<text text-anchor="middle" x="750.5" y="-937" font-family="sans" font-size="10.00" fill="#000000">bowtie2</text>
<text text-anchor="middle" x="750.5" y="-926" font-family="sans" font-size="10.00" fill="#000000">library: lib1</text>
<text text-anchor="middle" x="750.5" y="-915" font-family="sans" font-size="10.00" fill="#000000">n_shard: 2</text>
<text text-anchor="middle" x="750.5" y="-904" font-family="sans" font-size="10.00" fill="#000000">read_type_map: collapsed</text>
<text text-anchor="middle" x="750.5" y="-893" font-family="sans" font-size="10.00" fill="#000000">ref: wgs_eukaryota</text>
<text text-anchor="middle" x="750.5" y="-882" font-family="sans" font-size="10.00" fill="#000000">sample: HD827sonic_2</text>
<text text-anchor="middle" x="750.5" y="-871" font-family="sans" font-size="10.00" fill="#000000">tot_shards: 2</text>
</g>
<!-- 4&#45;&gt;1 -->
<g id="edge10" class="edge">
<title>4&#45;&gt;1</title>
<path fill="none" stroke="#c0c0c0" stroke-width="2" d="M779.8443,-863.8658C796.676,-841.0968 819.0759,-813.4298 842.5,-792 863.7819,-772.53 880.3223,-779.8806 896.5,-756 919.4289,-722.1537 915.5,-706.8816 915.5,-666 915.5,-666 915.5,-666 915.5,-234 915.5,-171.4227 711.9683,-117.8322 626.5443,-98.0956"/>
<polygon fill="#c0c0c0" stroke="#c0c0c0" stroke-width="2" points="627.2618,-94.6695 616.7339,-95.8582 625.7053,-101.4942 627.2618,-94.6695"/>
</g>
<!-- 26 -->
<g id="node27" class="node">
<title>26</title>
<path fill="none" stroke="#5692d8" stroke-width="2" d="M783.5,-828C783.5,-828 703.5,-828 703.5,-828 697.5,-828 691.5,-822 691.5,-816 691.5,-816 691.5,-804 691.5,-804 691.5,-798 697.5,-792 703.5,-792 703.5,-792 783.5,-792 783.5,-792 789.5,-792 795.5,-798 795.5,-804 795.5,-804 795.5,-816 795.5,-816 795.5,-822 789.5,-828 783.5,-828"/>
<text text-anchor="middle" x="743.5" y="-807.5" font-family="sans" font-size="10.00" fill="#000000">shard_clean_header</text>
</g>
<!-- 4&#45;&gt;26 -->
<g id="edge45" class="edge">
<title>4&#45;&gt;26</title>
<path fill="none" stroke="#c0c0c0" stroke-width="2" d="M747.4093,-863.8928C746.7849,-855.2842 746.1428,-846.4327 745.5641,-838.4546"/>
<polygon fill="#c0c0c0" stroke="#c0c0c0" stroke-width="2" points="749.0362,-837.9423 744.8218,-828.2218 742.0545,-838.4488 749.0362,-837.9423"/>
</g>
<!-- 5 -->
<g id="node6" class="node">
<title>5</title>
<path fill="none" stroke="#70d856" stroke-width="2" d="M482,-949C482,-949 375,-949 375,-949 369,-949 363,-943 363,-937 363,-937 363,-876 363,-876 363,-870 369,-864 375,-864 375,-864 482,-864 482,-864 488,-864 494,-870 494,-876 494,-876 494,-937 494,-937 494,-943 488,-949 482,-949"/>
<text text-anchor="middle" x="428.5" y="-937" font-family="sans" font-size="10.00" fill="#000000">bowtie2</text>
<text text-anchor="middle" x="428.5" y="-926" font-family="sans" font-size="10.00" fill="#000000">library: lib2</text>
<text text-anchor="middle" x="428.5" y="-915" font-family="sans" font-size="10.00" fill="#000000">n_shard: 2</text>
<text text-anchor="middle" x="428.5" y="-904" font-family="sans" font-size="10.00" fill="#000000">read_type_map: collapsed</text>
<text text-anchor="middle" x="428.5" y="-893" font-family="sans" font-size="10.00" fill="#000000">ref: wgs_eukaryota</text>
<text text-anchor="middle" x="428.5" y="-882" font-family="sans" font-size="10.00" fill="#000000">sample: HD827sonic_2</text>
<text text-anchor="middle" x="428.5" y="-871" font-family="sans" font-size="10.00" fill="#000000">tot_shards: 2</text>
</g>
<!-- 5&#45;&gt;1 -->
<g id="edge11" class="edge">
<title>5&#45;&gt;1</title>
<path fill="none" stroke="#c0c0c0" stroke-width="2" d="M471.2061,-863.9521C495.9119,-840.8001 528.3904,-812.7386 560.5,-792 592.5729,-771.2851 614.6939,-785.8504 638.5,-756 663.9901,-724.0381 657.5,-706.8816 657.5,-666 657.5,-666 657.5,-666 657.5,-234 657.5,-189.5937 630.7322,-144.2246 610.7854,-116.5811"/>
<polygon fill="#c0c0c0" stroke="#c0c0c0" stroke-width="2" points="613.3675,-114.1881 604.5914,-108.2525 607.7505,-118.3654 613.3675,-114.1881"/>
</g>
<!-- 34 -->
<g id="node35" class="node">
<title>34</title>
<path fill="none" stroke="#5692d8" stroke-width="2" d="M463.5,-828C463.5,-828 383.5,-828 383.5,-828 377.5,-828 371.5,-822 371.5,-816 371.5,-816 371.5,-804 371.5,-804 371.5,-798 377.5,-792 383.5,-792 383.5,-792 463.5,-792 463.5,-792 469.5,-792 475.5,-798 475.5,-804 475.5,-804 475.5,-816 475.5,-816 475.5,-822 469.5,-828 463.5,-828"/>
<text text-anchor="middle" x="423.5" y="-807.5" font-family="sans" font-size="10.00" fill="#000000">shard_clean_header</text>
</g>
<!-- 5&#45;&gt;34 -->
<g id="edge55" class="edge">
<title>5&#45;&gt;34</title>
<path fill="none" stroke="#c0c0c0" stroke-width="2" d="M426.2924,-863.8928C425.8463,-855.2842 425.3877,-846.4327 424.9743,-838.4546"/>
<polygon fill="#c0c0c0" stroke="#c0c0c0" stroke-width="2" points="428.457,-838.0273 424.4441,-828.2218 421.4664,-838.3895 428.457,-838.0273"/>
</g>
<!-- 6 -->
<g id="node7" class="node">
<title>6</title>
<path fill="none" stroke="#70d856" stroke-width="2" d="M322,-949C322,-949 215,-949 215,-949 209,-949 203,-943 203,-937 203,-937 203,-876 203,-876 203,-870 209,-864 215,-864 215,-864 322,-864 322,-864 328,-864 334,-870 334,-876 334,-876 334,-937 334,-937 334,-943 328,-949 322,-949"/>
<text text-anchor="middle" x="268.5" y="-937" font-family="sans" font-size="10.00" fill="#000000">bowtie2</text>
<text text-anchor="middle" x="268.5" y="-926" font-family="sans" font-size="10.00" fill="#000000">library: lib2</text>
<text text-anchor="middle" x="268.5" y="-915" font-family="sans" font-size="10.00" fill="#000000">n_shard: 1</text>
<text text-anchor="middle" x="268.5" y="-904" font-family="sans" font-size="10.00" fill="#000000">read_type_map: collapsed</text>
<text text-anchor="middle" x="268.5" y="-893" font-family="sans" font-size="10.00" fill="#000000">ref: refseq_mitochondrion</text>
<text text-anchor="middle" x="268.5" y="-882" font-family="sans" font-size="10.00" fill="#000000">sample: HD827sonic_2</text>
<text text-anchor="middle" x="268.5" y="-871" font-family="sans" font-size="10.00" fill="#000000">tot_shards: 1</text>
</g>
<!-- 6&#45;&gt;1 -->
<g id="edge12" class="edge">
<title>6&#45;&gt;1</title>
<path fill="none" stroke="#c0c0c0" stroke-width="2" d="M301.8348,-863.7055C309.8197,-852.437 317.9274,-840.0518 324.5,-828 349.2366,-782.6421 342.0914,-764.9848 367.5,-720 397.1396,-667.5244 426.5559,-667.7294 449.5,-612 489.439,-514.9912 480.5,-482.9087 480.5,-378 480.5,-378 480.5,-378 480.5,-234 480.5,-183.9186 522.9327,-140.274 554.8479,-114.5303"/>
<polygon fill="#c0c0c0" stroke="#c0c0c0" stroke-width="2" points="557.393,-116.9832 563.1141,-108.0658 553.0808,-111.4691 557.393,-116.9832"/>
</g>
<!-- 30 -->
<g id="node31" class="node">
<title>30</title>
<path fill="none" stroke="#5692d8" stroke-width="2" d="M303.5,-828C303.5,-828 223.5,-828 223.5,-828 217.5,-828 211.5,-822 211.5,-816 211.5,-816 211.5,-804 211.5,-804 211.5,-798 217.5,-792 223.5,-792 223.5,-792 303.5,-792 303.5,-792 309.5,-792 315.5,-798 315.5,-804 315.5,-804 315.5,-816 315.5,-816 315.5,-822 309.5,-828 303.5,-828"/>
<text text-anchor="middle" x="263.5" y="-807.5" font-family="sans" font-size="10.00" fill="#000000">shard_clean_header</text>
</g>
<!-- 6&#45;&gt;30 -->
<g id="edge51" class="edge">
<title>6&#45;&gt;30</title>
<path fill="none" stroke="#c0c0c0" stroke-width="2" d="M266.2924,-863.8928C265.8463,-855.2842 265.3877,-846.4327 264.9743,-838.4546"/>
<polygon fill="#c0c0c0" stroke="#c0c0c0" stroke-width="2" points="268.457,-838.0273 264.4441,-828.2218 261.4664,-838.3895 268.457,-838.0273"/>
</g>
<!-- 7 -->
<g id="node8" class="node">
<title>7</title>
<path fill="none" stroke="#70d856" stroke-width="2" d="M644,-949C644,-949 537,-949 537,-949 531,-949 525,-943 525,-937 525,-937 525,-876 525,-876 525,-870 531,-864 537,-864 537,-864 644,-864 644,-864 650,-864 656,-870 656,-876 656,-876 656,-937 656,-937 656,-943 650,-949 644,-949"/>
<text text-anchor="middle" x="590.5" y="-937" font-family="sans" font-size="10.00" fill="#000000">bowtie2</text>
<text text-anchor="middle" x="590.5" y="-926" font-family="sans" font-size="10.00" fill="#000000">library: lib1</text>
<text text-anchor="middle" x="590.5" y="-915" font-family="sans" font-size="10.00" fill="#000000">n_shard: 1</text>
<text text-anchor="middle" x="590.5" y="-904" font-family="sans" font-size="10.00" fill="#000000">read_type_map: collapsed</text>
<text text-anchor="middle" x="590.5" y="-893" font-family="sans" font-size="10.00" fill="#000000">ref: refseq_mitochondrion</text>
<text text-anchor="middle" x="590.5" y="-882" font-family="sans" font-size="10.00" fill="#000000">sample: HD827sonic_2</text>
<text text-anchor="middle" x="590.5" y="-871" font-family="sans" font-size="10.00" fill="#000000">tot_shards: 1</text>
</g>
<!-- 7&#45;&gt;1 -->
<g id="edge13" class="edge">
<title>7&#45;&gt;1</title>
<path fill="none" stroke="#c0c0c0" stroke-width="2" d="M567.9616,-863.7256C553.7104,-834.3141 536.5178,-793.8752 528.5,-756 493.6947,-591.5848 518.5,-546.0588 518.5,-378 518.5,-378 518.5,-378 518.5,-234 518.5,-189.0363 546.6913,-143.5617 567.5456,-116.0733"/>
<polygon fill="#c0c0c0" stroke="#c0c0c0" stroke-width="2" points="570.3448,-118.1755 573.7428,-108.1403 564.8284,-113.8661 570.3448,-118.1755"/>
</g>
<!-- 22 -->
<g id="node23" class="node">
<title>22</title>
<path fill="none" stroke="#5692d8" stroke-width="2" d="M661.5,-828C661.5,-828 581.5,-828 581.5,-828 575.5,-828 569.5,-822 569.5,-816 569.5,-816 569.5,-804 569.5,-804 569.5,-798 575.5,-792 581.5,-792 581.5,-792 661.5,-792 661.5,-792 667.5,-792 673.5,-798 673.5,-804 673.5,-804 673.5,-816 673.5,-816 673.5,-822 667.5,-828 661.5,-828"/>
<text text-anchor="middle" x="621.5" y="-807.5" font-family="sans" font-size="10.00" fill="#000000">shard_clean_header</text>
</g>
<!-- 7&#45;&gt;22 -->
<g id="edge41" class="edge">
<title>7&#45;&gt;22</title>
<path fill="none" stroke="#c0c0c0" stroke-width="2" d="M604.1873,-863.8928C607.0156,-855.0886 609.9255,-846.0302 612.5334,-837.9121"/>
<polygon fill="#c0c0c0" stroke="#c0c0c0" stroke-width="2" points="615.9201,-838.8131 615.6464,-828.2218 609.2555,-836.6721 615.9201,-838.8131"/>
</g>
<!-- 8 -->
<g id="node9" class="node">
<title>8</title>
<path fill="none" stroke="#70d856" stroke-width="2" d="M1126,-949C1126,-949 1019,-949 1019,-949 1013,-949 1007,-943 1007,-937 1007,-937 1007,-876 1007,-876 1007,-870 1013,-864 1019,-864 1019,-864 1126,-864 1126,-864 1132,-864 1138,-870 1138,-876 1138,-876 1138,-937 1138,-937 1138,-943 1132,-949 1126,-949"/>
<text text-anchor="middle" x="1072.5" y="-937" font-family="sans" font-size="10.00" fill="#000000">bowtie2</text>
<text text-anchor="middle" x="1072.5" y="-926" font-family="sans" font-size="10.00" fill="#000000">library: lib1</text>
<text text-anchor="middle" x="1072.5" y="-915" font-family="sans" font-size="10.00" fill="#000000">n_shard: 1</text>
<text text-anchor="middle" x="1072.5" y="-904" font-family="sans" font-size="10.00" fill="#000000">read_type_map: collapsed</text>
<text text-anchor="middle" x="1072.5" y="-893" font-family="sans" font-size="10.00" fill="#000000">ref: wgs_eukaryota</text>
<text text-anchor="middle" x="1072.5" y="-882" font-family="sans" font-size="10.00" fill="#000000">sample: HD827sonic_1</text>
<text text-anchor="middle" x="1072.5" y="-871" font-family="sans" font-size="10.00" fill="#000000">tot_shards: 2</text>
</g>
<!-- 8&#45;&gt;1 -->
<g id="edge14" class="edge">
<title>8&#45;&gt;1</title>
<path fill="none" stroke="#c0c0c0" stroke-width="2" d="M1052.0502,-863.9313C1037.8616,-830.4894 1021.5,-782.3179 1021.5,-738 1021.5,-738 1021.5,-738 1021.5,-234 1021.5,-170.1421 967.7545,-170.1579 909.5,-144 883.9833,-132.5423 705.4975,-106.3666 626.719,-95.2015"/>
<polygon fill="#c0c0c0" stroke="#c0c0c0" stroke-width="2" points="627.1251,-91.7242 616.7339,-93.7911 626.1461,-98.6554 627.1251,-91.7242"/>
</g>
<!-- 16 -->
<g id="node17" class="node">
<title>16</title>
<path fill="none" stroke="#5692d8" stroke-width="2" d="M1141.5,-828C1141.5,-828 1061.5,-828 1061.5,-828 1055.5,-828 1049.5,-822 1049.5,-816 1049.5,-816 1049.5,-804 1049.5,-804 1049.5,-798 1055.5,-792 1061.5,-792 1061.5,-792 1141.5,-792 1141.5,-792 1147.5,-792 1153.5,-798 1153.5,-804 1153.5,-804 1153.5,-816 1153.5,-816 1153.5,-822 1147.5,-828 1141.5,-828"/>
<text text-anchor="middle" x="1101.5" y="-807.5" font-family="sans" font-size="10.00" fill="#000000">shard_clean_header</text>
</g>
<!-- 8&#45;&gt;16 -->
<g id="edge33" class="edge">
<title>8&#45;&gt;16</title>
<path fill="none" stroke="#c0c0c0" stroke-width="2" d="M1085.3042,-863.8928C1087.9501,-855.0886 1090.6723,-846.0302 1093.1119,-837.9121"/>
<polygon fill="#c0c0c0" stroke="#c0c0c0" stroke-width="2" points="1096.4978,-838.806 1096.024,-828.2218 1089.794,-836.7914 1096.4978,-838.806"/>
</g>
<!-- 9 -->
<g id="node10" class="node">
<title>9</title>
<path fill="none" stroke="#70d856" stroke-width="2" d="M1283,-949C1283,-949 1176,-949 1176,-949 1170,-949 1164,-943 1164,-937 1164,-937 1164,-876 1164,-876 1164,-870 1170,-864 1176,-864 1176,-864 1283,-864 1283,-864 1289,-864 1295,-870 1295,-876 1295,-876 1295,-937 1295,-937 1295,-943 1289,-949 1283,-949"/>
<text text-anchor="middle" x="1229.5" y="-937" font-family="sans" font-size="10.00" fill="#000000">bowtie2</text>
<text text-anchor="middle" x="1229.5" y="-926" font-family="sans" font-size="10.00" fill="#000000">library: lib1</text>
<text text-anchor="middle" x="1229.5" y="-915" font-family="sans" font-size="10.00" fill="#000000">n_shard: 2</text>
<text text-anchor="middle" x="1229.5" y="-904" font-family="sans" font-size="10.00" fill="#000000">read_type_map: collapsed</text>
<text text-anchor="middle" x="1229.5" y="-893" font-family="sans" font-size="10.00" fill="#000000">ref: wgs_eukaryota</text>
<text text-anchor="middle" x="1229.5" y="-882" font-family="sans" font-size="10.00" fill="#000000">sample: HD827sonic_1</text>
<text text-anchor="middle" x="1229.5" y="-871" font-family="sans" font-size="10.00" fill="#000000">tot_shards: 2</text>
</g>
<!-- 9&#45;&gt;1 -->
<g id="edge15" class="edge">
<title>9&#45;&gt;1</title>
<path fill="none" stroke="#c0c0c0" stroke-width="2" d="M1211.5116,-863.7688C1200.0784,-840.4185 1183.4729,-812.2234 1162.5,-792 1138.1661,-768.5356 1114.4251,-784.0099 1095.5,-756 960.3098,-555.9132 1137.7842,-434.7443 1035.5,-216 971.741,-79.6454 863.5002,-129.3709 714.5,-108 685.0651,-103.7782 651.7345,-98.9776 626.8976,-95.3964"/>
<polygon fill="#c0c0c0" stroke="#c0c0c0" stroke-width="2" points="627.2065,-91.9048 616.8093,-93.9415 626.2073,-98.8332 627.2065,-91.9048"/>
</g>
<!-- 18 -->
<g id="node19" class="node">
<title>18</title>
<path fill="none" stroke="#5692d8" stroke-width="2" d="M1301.5,-828C1301.5,-828 1221.5,-828 1221.5,-828 1215.5,-828 1209.5,-822 1209.5,-816 1209.5,-816 1209.5,-804 1209.5,-804 1209.5,-798 1215.5,-792 1221.5,-792 1221.5,-792 1301.5,-792 1301.5,-792 1307.5,-792 1313.5,-798 1313.5,-804 1313.5,-804 1313.5,-816 1313.5,-816 1313.5,-822 1307.5,-828 1301.5,-828"/>
<text text-anchor="middle" x="1261.5" y="-807.5" font-family="sans" font-size="10.00" fill="#000000">shard_clean_header</text>
</g>
<!-- 9&#45;&gt;18 -->
<g id="edge35" class="edge">
<title>9&#45;&gt;18</title>
<path fill="none" stroke="#c0c0c0" stroke-width="2" d="M1243.6288,-863.8928C1246.5484,-855.0886 1249.5522,-846.0302 1252.2442,-837.9121"/>
<polygon fill="#c0c0c0" stroke="#c0c0c0" stroke-width="2" points="1255.6321,-838.8152 1255.4575,-828.2218 1248.9878,-836.6119 1255.6321,-838.8152"/>
</g>
<!-- 10 -->
<g id="node11" class="node">
<title>10</title>
<path fill="none" stroke="#70d856" stroke-width="2" d="M1477,-949C1477,-949 1370,-949 1370,-949 1364,-949 1358,-943 1358,-937 1358,-937 1358,-876 1358,-876 1358,-870 1364,-864 1370,-864 1370,-864 1477,-864 1477,-864 1483,-864 1489,-870 1489,-876 1489,-876 1489,-937 1489,-937 1489,-943 1483,-949 1477,-949"/>
<text text-anchor="middle" x="1423.5" y="-937" font-family="sans" font-size="10.00" fill="#000000">bowtie2</text>
<text text-anchor="middle" x="1423.5" y="-926" font-family="sans" font-size="10.00" fill="#000000">library: lib1</text>
<text text-anchor="middle" x="1423.5" y="-915" font-family="sans" font-size="10.00" fill="#000000">n_shard: 1</text>
<text text-anchor="middle" x="1423.5" y="-904" font-family="sans" font-size="10.00" fill="#000000">read_type_map: collapsed</text>
<text text-anchor="middle" x="1423.5" y="-893" font-family="sans" font-size="10.00" fill="#000000">ref: refseq_mitochondrion</text>
<text text-anchor="middle" x="1423.5" y="-882" font-family="sans" font-size="10.00" fill="#000000">sample: HD827sonic_1</text>
<text text-anchor="middle" x="1423.5" y="-871" font-family="sans" font-size="10.00" fill="#000000">tot_shards: 1</text>
</g>
<!-- 10&#45;&gt;1 -->
<g id="edge16" class="edge">
<title>10&#45;&gt;1</title>
<path fill="none" stroke="#c0c0c0" stroke-width="2" d="M1439.424,-863.872C1450.5787,-830.1966 1463.5,-781.7467 1463.5,-738 1463.5,-738 1463.5,-738 1463.5,-234 1463.5,-142.5643 1366.732,-167.9917 1278.5,-144 1153.9041,-110.1204 751.8069,-95.0393 626.8839,-91.0948"/>
<polygon fill="#c0c0c0" stroke="#c0c0c0" stroke-width="2" points="626.7849,-87.5902 616.6811,-90.7781 626.5677,-94.5868 626.7849,-87.5902"/>
</g>
<!-- 14 -->
<g id="node15" class="node">
<title>14</title>
<path fill="none" stroke="#5692d8" stroke-width="2" d="M1423.5,-828C1423.5,-828 1343.5,-828 1343.5,-828 1337.5,-828 1331.5,-822 1331.5,-816 1331.5,-816 1331.5,-804 1331.5,-804 1331.5,-798 1337.5,-792 1343.5,-792 1343.5,-792 1423.5,-792 1423.5,-792 1429.5,-792 1435.5,-798 1435.5,-804 1435.5,-804 1435.5,-816 1435.5,-816 1435.5,-822 1429.5,-828 1423.5,-828"/>
<text text-anchor="middle" x="1383.5" y="-807.5" font-family="sans" font-size="10.00" fill="#000000">shard_clean_header</text>
</g>
<!-- 10&#45;&gt;14 -->
<g id="edge31" class="edge">
<title>10&#45;&gt;14</title>
<path fill="none" stroke="#c0c0c0" stroke-width="2" d="M1405.839,-863.8928C1402.149,-854.9907 1398.3513,-845.8289 1394.9577,-837.6418"/>
<polygon fill="#c0c0c0" stroke="#c0c0c0" stroke-width="2" points="1398.1155,-836.1194 1391.0531,-828.2218 1391.649,-838.7999 1398.1155,-836.1194"/>
</g>
<!-- 11 -->
<g id="node12" class="node">
<title>11</title>
<path fill="none" stroke="#afd856" stroke-width="2" d="M1153.5,-396C1153.5,-396 1113.5,-396 1113.5,-396 1107.5,-396 1101.5,-390 1101.5,-384 1101.5,-384 1101.5,-372 1101.5,-372 1101.5,-366 1107.5,-360 1113.5,-360 1113.5,-360 1153.5,-360 1153.5,-360 1159.5,-360 1165.5,-366 1165.5,-372 1165.5,-372 1165.5,-384 1165.5,-384 1165.5,-390 1159.5,-396 1153.5,-396"/>
<text text-anchor="middle" x="1133.5" y="-375.5" font-family="sans" font-size="10.00" fill="#000000">align_stats</text>
</g>
<!-- 11&#45;&gt;1 -->
<g id="edge17" class="edge">
<title>11&#45;&gt;1</title>
<path fill="none" stroke="#c0c0c0" stroke-width="2" d="M1131.4945,-359.7644C1125.6057,-309.7944 1106.6605,-172.4949 1073.5,-144 1012.6893,-91.7453 794.087,-117.7161 714.5,-108 684.983,-104.3965 651.6573,-99.5591 626.8431,-95.8065"/>
<polygon fill="#c0c0c0" stroke="#c0c0c0" stroke-width="2" points="627.1785,-92.3173 616.7655,-94.2715 626.1244,-99.2375 627.1785,-92.3173"/>
</g>
<!-- 12 -->
<g id="node13" class="node">
<title>12</title>
<path fill="none" stroke="#d88d56" stroke-width="2" d="M1273,-684C1273,-684 1228,-684 1228,-684 1222,-684 1216,-678 1216,-672 1216,-672 1216,-660 1216,-660 1216,-654 1222,-648 1228,-648 1228,-648 1273,-648 1273,-648 1279,-648 1285,-654 1285,-660 1285,-660 1285,-672 1285,-672 1285,-678 1279,-684 1273,-684"/>
<text text-anchor="middle" x="1250.5" y="-663.5" font-family="sans" font-size="10.00" fill="#000000">align_merge</text>
</g>
<!-- 12&#45;&gt;11 -->
<g id="edge26" class="edge">
<title>12&#45;&gt;11</title>
<path fill="none" stroke="#c0c0c0" stroke-width="2" d="M1227.9007,-647.8022C1217.2875,-638.1752 1205.2877,-625.5539 1197.5,-612 1158.6497,-544.3841 1142.5183,-452.168 1136.5653,-406.3076"/>
<polygon fill="#c0c0c0" stroke="#c0c0c0" stroke-width="2" points="1140.0178,-405.7063 1135.3234,-396.2083 1133.0702,-406.5607 1140.0178,-405.7063"/>
</g>
<!-- 40 -->
<g id="node41" class="node">
<title>40</title>
<path fill="none" stroke="#d8cb56" stroke-width="2" d="M1282.5,-612C1282.5,-612 1218.5,-612 1218.5,-612 1212.5,-612 1206.5,-606 1206.5,-600 1206.5,-600 1206.5,-588 1206.5,-588 1206.5,-582 1212.5,-576 1218.5,-576 1218.5,-576 1282.5,-576 1282.5,-576 1288.5,-576 1294.5,-582 1294.5,-588 1294.5,-588 1294.5,-600 1294.5,-600 1294.5,-606 1288.5,-612 1282.5,-612"/>
<text text-anchor="middle" x="1250.5" y="-591.5" font-family="sans" font-size="10.00" fill="#000000">align_sort_coord</text>
</g>
<!-- 12&#45;&gt;40 -->
<g id="edge61" class="edge">
<title>12&#45;&gt;40</title>
<path fill="none" stroke="#c0c0c0" stroke-width="2" d="M1250.5,-647.8314C1250.5,-640.131 1250.5,-630.9743 1250.5,-622.4166"/>
<polygon fill="#c0c0c0" stroke="#c0c0c0" stroke-width="2" points="1254.0001,-622.4132 1250.5,-612.4133 1247.0001,-622.4133 1254.0001,-622.4132"/>
</g>
<!-- 13 -->
<g id="node14" class="node">
<title>13</title>
<path fill="none" stroke="#5673d8" stroke-width="2" d="M1411.5,-756C1411.5,-756 1343.5,-756 1343.5,-756 1337.5,-756 1331.5,-750 1331.5,-744 1331.5,-744 1331.5,-732 1331.5,-732 1331.5,-726 1337.5,-720 1343.5,-720 1343.5,-720 1411.5,-720 1411.5,-720 1417.5,-720 1423.5,-726 1423.5,-732 1423.5,-732 1423.5,-744 1423.5,-744 1423.5,-750 1417.5,-756 1411.5,-756"/>
<text text-anchor="middle" x="1377.5" y="-735.5" font-family="sans" font-size="10.00" fill="#000000">shard_sort_query</text>
</g>
<!-- 13&#45;&gt;12 -->
<g id="edge27" class="edge">
<title>13&#45;&gt;12</title>
<path fill="none" stroke="#c0c0c0" stroke-width="2" d="M1345.4525,-719.8314C1329.058,-710.5368 1308.9214,-699.1208 1291.4171,-689.1971"/>
<polygon fill="#c0c0c0" stroke="#c0c0c0" stroke-width="2" points="1292.9626,-686.05 1282.5372,-684.1628 1289.5103,-692.1395 1292.9626,-686.05"/>
</g>
<!-- 14&#45;&gt;13 -->
<g id="edge30" class="edge">
<title>14&#45;&gt;13</title>
<path fill="none" stroke="#c0c0c0" stroke-width="2" d="M1381.9859,-791.8314C1381.3442,-784.131 1380.5812,-774.9743 1379.8681,-766.4166"/>
<polygon fill="#c0c0c0" stroke="#c0c0c0" stroke-width="2" points="1383.3529,-766.088 1379.0344,-756.4133 1376.3771,-766.6694 1383.3529,-766.088"/>
</g>
<!-- 15 -->
<g id="node16" class="node">
<title>15</title>
<path fill="none" stroke="#5673d8" stroke-width="2" d="M1184.5,-756C1184.5,-756 1116.5,-756 1116.5,-756 1110.5,-756 1104.5,-750 1104.5,-744 1104.5,-744 1104.5,-732 1104.5,-732 1104.5,-726 1110.5,-720 1116.5,-720 1116.5,-720 1184.5,-720 1184.5,-720 1190.5,-720 1196.5,-726 1196.5,-732 1196.5,-732 1196.5,-744 1196.5,-744 1196.5,-750 1190.5,-756 1184.5,-756"/>
<text text-anchor="middle" x="1150.5" y="-735.5" font-family="sans" font-size="10.00" fill="#000000">shard_sort_query</text>
</g>
<!-- 15&#45;&gt;12 -->
<g id="edge28" class="edge">
<title>15&#45;&gt;12</title>
<path fill="none" stroke="#c0c0c0" stroke-width="2" d="M1175.7342,-719.8314C1188.288,-710.7927 1203.6283,-699.7476 1217.1391,-690.0198"/>
<polygon fill="#c0c0c0" stroke="#c0c0c0" stroke-width="2" points="1219.2036,-692.8463 1225.2739,-684.1628 1215.1134,-687.1655 1219.2036,-692.8463"/>
</g>
<!-- 16&#45;&gt;15 -->
<g id="edge32" class="edge">
<title>16&#45;&gt;15</title>
<path fill="none" stroke="#c0c0c0" stroke-width="2" d="M1113.8648,-791.8314C1119.4509,-783.6232 1126.163,-773.7606 1132.3072,-764.7323"/>
<polygon fill="#c0c0c0" stroke="#c0c0c0" stroke-width="2" points="1135.236,-766.6496 1137.9687,-756.4133 1129.449,-762.7112 1135.236,-766.6496"/>
</g>
<!-- 17 -->
<g id="node18" class="node">
<title>17</title>
<path fill="none" stroke="#5673d8" stroke-width="2" d="M1295.5,-756C1295.5,-756 1227.5,-756 1227.5,-756 1221.5,-756 1215.5,-750 1215.5,-744 1215.5,-744 1215.5,-732 1215.5,-732 1215.5,-726 1221.5,-720 1227.5,-720 1227.5,-720 1295.5,-720 1295.5,-720 1301.5,-720 1307.5,-726 1307.5,-732 1307.5,-732 1307.5,-744 1307.5,-744 1307.5,-750 1301.5,-756 1295.5,-756"/>
<text text-anchor="middle" x="1261.5" y="-735.5" font-family="sans" font-size="10.00" fill="#000000">shard_sort_query</text>
</g>
<!-- 17&#45;&gt;12 -->
<g id="edge29" class="edge">
<title>17&#45;&gt;12</title>
<path fill="none" stroke="#c0c0c0" stroke-width="2" d="M1258.7242,-719.8314C1257.5478,-712.131 1256.1489,-702.9743 1254.8414,-694.4166"/>
<polygon fill="#c0c0c0" stroke="#c0c0c0" stroke-width="2" points="1258.2833,-693.7699 1253.3131,-684.4133 1251.3636,-694.8272 1258.2833,-693.7699"/>
</g>
<!-- 18&#45;&gt;17 -->
<g id="edge34" class="edge">
<title>18&#45;&gt;17</title>
<path fill="none" stroke="#c0c0c0" stroke-width="2" d="M1261.5,-791.8314C1261.5,-784.131 1261.5,-774.9743 1261.5,-766.4166"/>
<polygon fill="#c0c0c0" stroke="#c0c0c0" stroke-width="2" points="1265.0001,-766.4132 1261.5,-756.4133 1258.0001,-766.4133 1265.0001,-766.4132"/>
</g>
<!-- 19 -->
<g id="node20" class="node">
<title>19</title>
<path fill="none" stroke="#afd856" stroke-width="2" d="M609.5,-468C609.5,-468 569.5,-468 569.5,-468 563.5,-468 557.5,-462 557.5,-456 557.5,-456 557.5,-444 557.5,-444 557.5,-438 563.5,-432 569.5,-432 569.5,-432 609.5,-432 609.5,-432 615.5,-432 621.5,-438 621.5,-444 621.5,-444 621.5,-456 621.5,-456 621.5,-462 615.5,-468 609.5,-468"/>
<text text-anchor="middle" x="589.5" y="-447.5" font-family="sans" font-size="10.00" fill="#000000">align_stats</text>
</g>
<!-- 19&#45;&gt;1 -->
<g id="edge18" class="edge">
<title>19&#45;&gt;1</title>
<path fill="none" stroke="#c0c0c0" stroke-width="2" d="M589.5,-431.8146C589.5,-404.4983 589.5,-351.25 589.5,-306 589.5,-306 589.5,-306 589.5,-234 589.5,-193.876 589.5,-147.4631 589.5,-118.4177"/>
<polygon fill="#c0c0c0" stroke="#c0c0c0" stroke-width="2" points="593.0001,-118.1853 589.5,-108.1854 586.0001,-118.1854 593.0001,-118.1853"/>
</g>
<!-- 20 -->
<g id="node21" class="node">
<title>20</title>
<path fill="none" stroke="#d88d56" stroke-width="2" d="M612,-684C612,-684 567,-684 567,-684 561,-684 555,-678 555,-672 555,-672 555,-660 555,-660 555,-654 561,-648 567,-648 567,-648 612,-648 612,-648 618,-648 624,-654 624,-660 624,-660 624,-672 624,-672 624,-678 618,-684 612,-684"/>
<text text-anchor="middle" x="589.5" y="-663.5" font-family="sans" font-size="10.00" fill="#000000">align_merge</text>
</g>
<!-- 20&#45;&gt;19 -->
<g id="edge36" class="edge">
<title>20&#45;&gt;19</title>
<path fill="none" stroke="#c0c0c0" stroke-width="2" d="M589.5,-647.9555C589.5,-610.3938 589.5,-523.5541 589.5,-478.4103"/>
<polygon fill="#c0c0c0" stroke="#c0c0c0" stroke-width="2" points="593.0001,-478.145 589.5,-468.1451 586.0001,-478.1451 593.0001,-478.145"/>
</g>
<!-- 46 -->
<g id="node47" class="node">
<title>46</title>
<path fill="none" stroke="#d8cb56" stroke-width="2" d="M428.5,-612C428.5,-612 364.5,-612 364.5,-612 358.5,-612 352.5,-606 352.5,-600 352.5,-600 352.5,-588 352.5,-588 352.5,-582 358.5,-576 364.5,-576 364.5,-576 428.5,-576 428.5,-576 434.5,-576 440.5,-582 440.5,-588 440.5,-588 440.5,-600 440.5,-600 440.5,-606 434.5,-612 428.5,-612"/>
<text text-anchor="middle" x="396.5" y="-591.5" font-family="sans" font-size="10.00" fill="#000000">align_sort_coord</text>
</g>
<!-- 20&#45;&gt;46 -->
<g id="edge67" class="edge">
<title>20&#45;&gt;46</title>
<path fill="none" stroke="#c0c0c0" stroke-width="2" d="M554.9955,-653.1278C525.8838,-642.2675 483.7182,-626.5374 450.1956,-614.0315"/>
<polygon fill="#c0c0c0" stroke="#c0c0c0" stroke-width="2" points="451.1345,-610.6462 440.5418,-610.4301 448.6878,-617.2047 451.1345,-610.6462"/>
</g>
<!-- 21 -->
<g id="node22" class="node">
<title>21</title>
<path fill="none" stroke="#5673d8" stroke-width="2" d="M617.5,-756C617.5,-756 549.5,-756 549.5,-756 543.5,-756 537.5,-750 537.5,-744 537.5,-744 537.5,-732 537.5,-732 537.5,-726 543.5,-720 549.5,-720 549.5,-720 617.5,-720 617.5,-720 623.5,-720 629.5,-726 629.5,-732 629.5,-732 629.5,-744 629.5,-744 629.5,-750 623.5,-756 617.5,-756"/>
<text text-anchor="middle" x="583.5" y="-735.5" font-family="sans" font-size="10.00" fill="#000000">shard_sort_query</text>
</g>
<!-- 21&#45;&gt;20 -->
<g id="edge37" class="edge">
<title>21&#45;&gt;20</title>
<path fill="none" stroke="#c0c0c0" stroke-width="2" d="M585.0141,-719.8314C585.6558,-712.131 586.4188,-702.9743 587.1319,-694.4166"/>
<polygon fill="#c0c0c0" stroke="#c0c0c0" stroke-width="2" points="590.6229,-694.6694 587.9656,-684.4133 583.6471,-694.088 590.6229,-694.6694"/>
</g>
<!-- 22&#45;&gt;21 -->
<g id="edge40" class="edge">
<title>22&#45;&gt;21</title>
<path fill="none" stroke="#c0c0c0" stroke-width="2" d="M611.911,-791.8314C607.6683,-783.7925 602.5879,-774.1666 597.904,-765.2918"/>
<polygon fill="#c0c0c0" stroke="#c0c0c0" stroke-width="2" points="600.9811,-763.6235 593.2181,-756.4133 594.7904,-766.8908 600.9811,-763.6235"/>
</g>
<!-- 23 -->
<g id="node24" class="node">
<title>23</title>
<path fill="none" stroke="#5673d8" stroke-width="2" d="M875.5,-756C875.5,-756 807.5,-756 807.5,-756 801.5,-756 795.5,-750 795.5,-744 795.5,-744 795.5,-732 795.5,-732 795.5,-726 801.5,-720 807.5,-720 807.5,-720 875.5,-720 875.5,-720 881.5,-720 887.5,-726 887.5,-732 887.5,-732 887.5,-744 887.5,-744 887.5,-750 881.5,-756 875.5,-756"/>
<text text-anchor="middle" x="841.5" y="-735.5" font-family="sans" font-size="10.00" fill="#000000">shard_sort_query</text>
</g>
<!-- 23&#45;&gt;20 -->
<g id="edge38" class="edge">
<title>23&#45;&gt;20</title>
<path fill="none" stroke="#c0c0c0" stroke-width="2" d="M795.3379,-722.7117C792.3519,-721.7787 789.3866,-720.8674 786.5,-720 734.3698,-704.335 673.9315,-688.0421 633.8883,-677.5057"/>
<polygon fill="#c0c0c0" stroke="#c0c0c0" stroke-width="2" points="634.7256,-674.107 624.1647,-674.9549 632.9493,-680.8779 634.7256,-674.107"/>
</g>
<!-- 24&#45;&gt;23 -->
<g id="edge42" class="edge">
<title>24&#45;&gt;23</title>
<path fill="none" stroke="#c0c0c0" stroke-width="2" d="M887.8548,-791.8314C880.6409,-783.454 871.943,-773.3531 864.0395,-764.1749"/>
<polygon fill="#c0c0c0" stroke="#c0c0c0" stroke-width="2" points="866.5333,-761.7071 857.3559,-756.4133 861.2289,-766.2748 866.5333,-761.7071"/>
</g>
<!-- 25 -->
<g id="node26" class="node">
<title>25</title>
<path fill="none" stroke="#5673d8" stroke-width="2" d="M765.5,-756C765.5,-756 697.5,-756 697.5,-756 691.5,-756 685.5,-750 685.5,-744 685.5,-744 685.5,-732 685.5,-732 685.5,-726 691.5,-720 697.5,-720 697.5,-720 765.5,-720 765.5,-720 771.5,-720 777.5,-726 777.5,-732 777.5,-732 777.5,-744 777.5,-744 777.5,-750 771.5,-756 765.5,-756"/>
<text text-anchor="middle" x="731.5" y="-735.5" font-family="sans" font-size="10.00" fill="#000000">shard_sort_query</text>
</g>
<!-- 25&#45;&gt;20 -->
<g id="edge39" class="edge">
<title>25&#45;&gt;20</title>
<path fill="none" stroke="#c0c0c0" stroke-width="2" d="M695.6674,-719.8314C676.7152,-710.2218 653.2905,-698.3445 633.2701,-688.1933"/>
<polygon fill="#c0c0c0" stroke="#c0c0c0" stroke-width="2" points="634.8412,-685.0657 624.3394,-683.665 631.6756,-691.3091 634.8412,-685.0657"/>
</g>
<!-- 26&#45;&gt;25 -->
<g id="edge44" class="edge">
<title>26&#45;&gt;25</title>
<path fill="none" stroke="#c0c0c0" stroke-width="2" d="M740.4719,-791.8314C739.1885,-784.131 737.6624,-774.9743 736.2361,-766.4166"/>
<polygon fill="#c0c0c0" stroke="#c0c0c0" stroke-width="2" points="739.6653,-765.7018 734.5689,-756.4133 732.7606,-766.8526 739.6653,-765.7018"/>
</g>
<!-- 27 -->
<g id="node28" class="node">
<title>27</title>
<path fill="none" stroke="#afd856" stroke-width="2" d="M321.5,-540C321.5,-540 281.5,-540 281.5,-540 275.5,-540 269.5,-534 269.5,-528 269.5,-528 269.5,-516 269.5,-516 269.5,-510 275.5,-504 281.5,-504 281.5,-504 321.5,-504 321.5,-504 327.5,-504 333.5,-510 333.5,-516 333.5,-516 333.5,-528 333.5,-528 333.5,-534 327.5,-540 321.5,-540"/>
<text text-anchor="middle" x="301.5" y="-519.5" font-family="sans" font-size="10.00" fill="#000000">align_stats</text>
</g>
<!-- 27&#45;&gt;1 -->
<g id="edge19" class="edge">
<title>27&#45;&gt;1</title>
<path fill="none" stroke="#c0c0c0" stroke-width="2" d="M333.8482,-506.8305C375.4763,-484.8058 442.5,-439.7556 442.5,-378 442.5,-378 442.5,-378 442.5,-234 442.5,-192.6022 439.5515,-175.4254 466.5,-144 488.4425,-118.4122 524.8158,-104.5045 552.3303,-97.2444"/>
<polygon fill="#c0c0c0" stroke="#c0c0c0" stroke-width="2" points="553.5146,-100.5577 562.3933,-94.7768 551.8474,-93.7591 553.5146,-100.5577"/>
</g>
<!-- 28 -->
<g id="node29" class="node">
<title>28</title>
<path fill="none" stroke="#d88d56" stroke-width="2" d="M286,-684C286,-684 241,-684 241,-684 235,-684 229,-678 229,-672 229,-672 229,-660 229,-660 229,-654 235,-648 241,-648 241,-648 286,-648 286,-648 292,-648 298,-654 298,-660 298,-660 298,-672 298,-672 298,-678 292,-684 286,-684"/>
<text text-anchor="middle" x="263.5" y="-663.5" font-family="sans" font-size="10.00" fill="#000000">align_merge</text>
</g>
<!-- 28&#45;&gt;27 -->
<g id="edge46" class="edge">
<title>28&#45;&gt;27</title>
<path fill="none" stroke="#c0c0c0" stroke-width="2" d="M268.3127,-647.7623C274.8227,-623.0928 286.4953,-578.8598 294.1182,-549.9731"/>
<polygon fill="#c0c0c0" stroke="#c0c0c0" stroke-width="2" points="297.5589,-550.6517 296.7264,-540.0896 290.7906,-548.8656 297.5589,-550.6517"/>
</g>
<!-- 52 -->
<g id="node53" class="node">
<title>52</title>
<path fill="none" stroke="#d8cb56" stroke-width="2" d="M195.5,-612C195.5,-612 131.5,-612 131.5,-612 125.5,-612 119.5,-606 119.5,-600 119.5,-600 119.5,-588 119.5,-588 119.5,-582 125.5,-576 131.5,-576 131.5,-576 195.5,-576 195.5,-576 201.5,-576 207.5,-582 207.5,-588 207.5,-588 207.5,-600 207.5,-600 207.5,-606 201.5,-612 195.5,-612"/>
<text text-anchor="middle" x="163.5" y="-591.5" font-family="sans" font-size="10.00" fill="#000000">align_sort_coord</text>
</g>
<!-- 28&#45;&gt;52 -->
<g id="edge73" class="edge">
<title>28&#45;&gt;52</title>
<path fill="none" stroke="#c0c0c0" stroke-width="2" d="M238.2658,-647.8314C225.712,-638.7927 210.3717,-627.7476 196.8609,-618.0198"/>
<polygon fill="#c0c0c0" stroke="#c0c0c0" stroke-width="2" points="198.8866,-615.1655 188.7261,-612.1628 194.7964,-620.8463 198.8866,-615.1655"/>
</g>
<!-- 29 -->
<g id="node30" class="node">
<title>29</title>
<path fill="none" stroke="#5673d8" stroke-width="2" d="M297.5,-756C297.5,-756 229.5,-756 229.5,-756 223.5,-756 217.5,-750 217.5,-744 217.5,-744 217.5,-732 217.5,-732 217.5,-726 223.5,-720 229.5,-720 229.5,-720 297.5,-720 297.5,-720 303.5,-720 309.5,-726 309.5,-732 309.5,-732 309.5,-744 309.5,-744 309.5,-750 303.5,-756 297.5,-756"/>
<text text-anchor="middle" x="263.5" y="-735.5" font-family="sans" font-size="10.00" fill="#000000">shard_sort_query</text>
</g>
<!-- 29&#45;&gt;28 -->
<g id="edge47" class="edge">
<title>29&#45;&gt;28</title>
<path fill="none" stroke="#c0c0c0" stroke-width="2" d="M263.5,-719.8314C263.5,-712.131 263.5,-702.9743 263.5,-694.4166"/>
<polygon fill="#c0c0c0" stroke="#c0c0c0" stroke-width="2" points="267.0001,-694.4132 263.5,-684.4133 260.0001,-694.4133 267.0001,-694.4132"/>
</g>
<!-- 30&#45;&gt;29 -->
<g id="edge50" class="edge">
<title>30&#45;&gt;29</title>
<path fill="none" stroke="#c0c0c0" stroke-width="2" d="M263.5,-791.8314C263.5,-784.131 263.5,-774.9743 263.5,-766.4166"/>
<polygon fill="#c0c0c0" stroke="#c0c0c0" stroke-width="2" points="267.0001,-766.4132 263.5,-756.4133 260.0001,-766.4133 267.0001,-766.4132"/>
</g>
<!-- 31 -->
<g id="node32" class="node">
<title>31</title>
<path fill="none" stroke="#5673d8" stroke-width="2" d="M183.5,-756C183.5,-756 115.5,-756 115.5,-756 109.5,-756 103.5,-750 103.5,-744 103.5,-744 103.5,-732 103.5,-732 103.5,-726 109.5,-720 115.5,-720 115.5,-720 183.5,-720 183.5,-720 189.5,-720 195.5,-726 195.5,-732 195.5,-732 195.5,-744 195.5,-744 195.5,-750 189.5,-756 183.5,-756"/>
<text text-anchor="middle" x="149.5" y="-735.5" font-family="sans" font-size="10.00" fill="#000000">shard_sort_query</text>
</g>
<!-- 31&#45;&gt;28 -->
<g id="edge48" class="edge">
<title>31&#45;&gt;28</title>
<path fill="none" stroke="#c0c0c0" stroke-width="2" d="M178.267,-719.8314C192.7133,-710.7074 210.3965,-699.539 225.904,-689.7449"/>
<polygon fill="#c0c0c0" stroke="#c0c0c0" stroke-width="2" points="228.1563,-692.462 234.7422,-684.1628 224.4183,-686.5436 228.1563,-692.462"/>
</g>
<!-- 32&#45;&gt;31 -->
<g id="edge52" class="edge">
<title>32&#45;&gt;31</title>
<path fill="none" stroke="#c0c0c0" stroke-width="2" d="M143.5187,-791.8314C144.3743,-784.131 145.3917,-774.9743 146.3426,-766.4166"/>
<polygon fill="#c0c0c0" stroke="#c0c0c0" stroke-width="2" points="149.8283,-766.7386 147.4541,-756.4133 142.8711,-765.9656 149.8283,-766.7386"/>
</g>
<!-- 33 -->
<g id="node34" class="node">
<title>33</title>
<path fill="none" stroke="#5673d8" stroke-width="2" d="M456.5,-756C456.5,-756 388.5,-756 388.5,-756 382.5,-756 376.5,-750 376.5,-744 376.5,-744 376.5,-732 376.5,-732 376.5,-726 382.5,-720 388.5,-720 388.5,-720 456.5,-720 456.5,-720 462.5,-720 468.5,-726 468.5,-732 468.5,-732 468.5,-744 468.5,-744 468.5,-750 462.5,-756 456.5,-756"/>
<text text-anchor="middle" x="422.5" y="-735.5" font-family="sans" font-size="10.00" fill="#000000">shard_sort_query</text>
</g>
<!-- 33&#45;&gt;28 -->
<g id="edge49" class="edge">
<title>33&#45;&gt;28</title>
<path fill="none" stroke="#c0c0c0" stroke-width="2" d="M382.3776,-719.8314C359.576,-709.5061 330.9926,-696.5627 307.5686,-685.9556"/>
<polygon fill="#c0c0c0" stroke="#c0c0c0" stroke-width="2" points="308.7624,-682.6541 298.209,-681.7173 305.8748,-689.0308 308.7624,-682.6541"/>
</g>
<!-- 34&#45;&gt;33 -->
<g id="edge54" class="edge">
<title>34&#45;&gt;33</title>
<path fill="none" stroke="#c0c0c0" stroke-width="2" d="M423.2477,-791.8314C423.1407,-784.131 423.0135,-774.9743 422.8947,-766.4166"/>
<polygon fill="#c0c0c0" stroke="#c0c0c0" stroke-width="2" points="426.3944,-766.3637 422.7557,-756.4133 419.3951,-766.4609 426.3944,-766.3637"/>
</g>
<!-- 35 -->
<g id="node36" class="node">
<title>35</title>
<path fill="none" stroke="#56d8c9" stroke-width="2" d="M1189.5,-252C1189.5,-252 1137.5,-252 1137.5,-252 1131.5,-252 1125.5,-246 1125.5,-240 1125.5,-240 1125.5,-228 1125.5,-228 1125.5,-222 1131.5,-216 1137.5,-216 1137.5,-216 1189.5,-216 1189.5,-216 1195.5,-216 1201.5,-222 1201.5,-228 1201.5,-228 1201.5,-240 1201.5,-240 1201.5,-246 1195.5,-252 1189.5,-252"/>
<text text-anchor="middle" x="1163.5" y="-231.5" font-family="sans" font-size="10.00" fill="#000000">metadmg_dfit</text>
</g>
<!-- 35&#45;&gt;1 -->
<g id="edge20" class="edge">
<title>35&#45;&gt;1</title>
<path fill="none" stroke="#c0c0c0" stroke-width="2" d="M1158.4325,-215.628C1151.5573,-194.495 1137.0932,-160.5848 1111.5,-144 1070.9933,-117.751 739.8559,-97.9566 627.0064,-91.9174"/>
<polygon fill="#c0c0c0" stroke="#c0c0c0" stroke-width="2" points="626.9551,-88.4099 616.784,-91.3762 626.5849,-95.4001 626.9551,-88.4099"/>
</g>
<!-- 53 -->
<g id="node54" class="node">
<title>53</title>
<path fill="none" stroke="#56d892" stroke-width="2" d="M1257,-180C1257,-180 1176,-180 1176,-180 1170,-180 1164,-174 1164,-168 1164,-168 1164,-156 1164,-156 1164,-150 1170,-144 1176,-144 1176,-144 1257,-144 1257,-144 1263,-144 1269,-150 1269,-156 1269,-156 1269,-168 1269,-168 1269,-174 1263,-180 1257,-180"/>
<text text-anchor="middle" x="1216.5" y="-159.5" font-family="sans" font-size="10.00" fill="#000000">metadmg_aggregate</text>
</g>
<!-- 35&#45;&gt;53 -->
<g id="edge75" class="edge">
<title>35&#45;&gt;53</title>
<path fill="none" stroke="#c0c0c0" stroke-width="2" d="M1176.8741,-215.8314C1182.9162,-207.6232 1190.1763,-197.7606 1196.8221,-188.7323"/>
<polygon fill="#c0c0c0" stroke="#c0c0c0" stroke-width="2" points="1199.8363,-190.5415 1202.9458,-180.4133 1194.1989,-186.3918 1199.8363,-190.5415"/>
</g>
<!-- 36 -->
<g id="node37" class="node">
<title>36</title>
<path fill="none" stroke="#56c9d8" stroke-width="2" d="M1255,-324C1255,-324 1204,-324 1204,-324 1198,-324 1192,-318 1192,-312 1192,-312 1192,-300 1192,-300 1192,-294 1198,-288 1204,-288 1204,-288 1255,-288 1255,-288 1261,-288 1267,-294 1267,-300 1267,-300 1267,-312 1267,-312 1267,-318 1261,-324 1255,-324"/>
<text text-anchor="middle" x="1229.5" y="-303.5" font-family="sans" font-size="10.00" fill="#000000">metadmg_lca</text>
</g>
<!-- 36&#45;&gt;35 -->
<g id="edge56" class="edge">
<title>36&#45;&gt;35</title>
<path fill="none" stroke="#c0c0c0" stroke-width="2" d="M1212.8454,-287.8314C1205.0886,-279.3694 1195.7198,-269.1489 1187.239,-259.8971"/>
<polygon fill="#c0c0c0" stroke="#c0c0c0" stroke-width="2" points="1189.7162,-257.4198 1180.3788,-252.4133 1184.5561,-262.1499 1189.7162,-257.4198"/>
</g>
<!-- 36&#45;&gt;53 -->
<g id="edge74" class="edge">
<title>36&#45;&gt;53</title>
<path fill="none" stroke="#c0c0c0" stroke-width="2" d="M1227.8535,-287.7623C1225.6362,-263.201 1221.6682,-219.2474 1219.0597,-190.3541"/>
<polygon fill="#c0c0c0" stroke="#c0c0c0" stroke-width="2" points="1222.5181,-189.7344 1218.1331,-180.0896 1215.5465,-190.3638 1222.5181,-189.7344"/>
</g>
<!-- 37 -->
<g id="node38" class="node">
<title>37</title>
<path fill="none" stroke="#c6d856" stroke-width="2" d="M1282.5,-396C1282.5,-396 1218.5,-396 1218.5,-396 1212.5,-396 1206.5,-390 1206.5,-384 1206.5,-384 1206.5,-372 1206.5,-372 1206.5,-366 1212.5,-360 1218.5,-360 1218.5,-360 1282.5,-360 1282.5,-360 1288.5,-360 1294.5,-366 1294.5,-372 1294.5,-372 1294.5,-384 1294.5,-384 1294.5,-390 1288.5,-396 1282.5,-396"/>
<text text-anchor="middle" x="1250.5" y="-375.5" font-family="sans" font-size="10.00" fill="#000000">align_sort_query</text>
</g>
<!-- 37&#45;&gt;36 -->
<g id="edge57" class="edge">
<title>37&#45;&gt;36</title>
<path fill="none" stroke="#c0c0c0" stroke-width="2" d="M1245.2008,-359.8314C1242.9302,-352.0463 1240.2254,-342.7729 1237.706,-334.1347"/>
<polygon fill="#c0c0c0" stroke="#c0c0c0" stroke-width="2" points="1241.0306,-333.0332 1234.8705,-324.4133 1234.3106,-334.9933 1241.0306,-333.0332"/>
</g>
<!-- 56 -->
<g id="node57" class="node">
<title>56</title>
<path fill="none" stroke="#56d8a9" stroke-width="2" d="M1343,-252C1343,-252 1270,-252 1270,-252 1264,-252 1258,-246 1258,-240 1258,-240 1258,-228 1258,-228 1258,-222 1264,-216 1270,-216 1270,-216 1343,-216 1343,-216 1349,-216 1355,-222 1355,-228 1355,-228 1355,-240 1355,-240 1355,-246 1349,-252 1343,-252"/>
<text text-anchor="middle" x="1306.5" y="-231.5" font-family="sans" font-size="10.00" fill="#000000">metadmg_damage</text>
</g>
<!-- 37&#45;&gt;56 -->
<g id="edge80" class="edge">
<title>37&#45;&gt;56</title>
<path fill="none" stroke="#c0c0c0" stroke-width="2" d="M1259.9933,-359.7664C1265.1979,-349.4208 1271.5734,-336.1495 1276.5,-324 1284.8167,-303.4902 1292.6681,-279.7147 1298.2513,-261.7527"/>
<polygon fill="#c0c0c0" stroke="#c0c0c0" stroke-width="2" points="1301.6031,-262.7606 1301.1855,-252.174 1294.91,-260.7103 1301.6031,-262.7606"/>
</g>
<!-- 38 -->
<g id="node39" class="node">
<title>38</title>
<path fill="none" stroke="#d85656" stroke-width="2" d="M1269,-468C1269,-468 1232,-468 1232,-468 1226,-468 1220,-462 1220,-456 1220,-456 1220,-444 1220,-444 1220,-438 1226,-432 1232,-432 1232,-432 1269,-432 1269,-432 1275,-432 1281,-438 1281,-444 1281,-444 1281,-456 1281,-456 1281,-462 1275,-468 1269,-468"/>
<text text-anchor="middle" x="1250.5" y="-447.5" font-family="sans" font-size="10.00" fill="#000000">align_filter</text>
</g>
<!-- 38&#45;&gt;37 -->
<g id="edge58" class="edge">
<title>38&#45;&gt;37</title>
<path fill="none" stroke="#c0c0c0" stroke-width="2" d="M1250.5,-431.8314C1250.5,-424.131 1250.5,-414.9743 1250.5,-406.4166"/>
<polygon fill="#c0c0c0" stroke="#c0c0c0" stroke-width="2" points="1254.0001,-406.4132 1250.5,-396.4133 1247.0001,-406.4133 1254.0001,-406.4132"/>
</g>
<!-- 39 -->
<g id="node40" class="node">
<title>39</title>
<path fill="none" stroke="#d8ac56" stroke-width="2" d="M1278,-540C1278,-540 1223,-540 1223,-540 1217,-540 1211,-534 1211,-528 1211,-528 1211,-516 1211,-516 1211,-510 1217,-504 1223,-504 1223,-504 1278,-504 1278,-504 1284,-504 1290,-510 1290,-516 1290,-516 1290,-528 1290,-528 1290,-534 1284,-540 1278,-540"/>
<text text-anchor="middle" x="1250.5" y="-519.5" font-family="sans" font-size="10.00" fill="#000000">align_reassign</text>
</g>
<!-- 39&#45;&gt;38 -->
<g id="edge59" class="edge">
<title>39&#45;&gt;38</title>
<path fill="none" stroke="#c0c0c0" stroke-width="2" d="M1250.5,-503.8314C1250.5,-496.131 1250.5,-486.9743 1250.5,-478.4166"/>
<polygon fill="#c0c0c0" stroke="#c0c0c0" stroke-width="2" points="1254.0001,-478.4132 1250.5,-468.4133 1247.0001,-478.4133 1254.0001,-478.4132"/>
</g>
<!-- 40&#45;&gt;39 -->
<g id="edge60" class="edge">
<title>40&#45;&gt;39</title>
<path fill="none" stroke="#c0c0c0" stroke-width="2" d="M1250.5,-575.8314C1250.5,-568.131 1250.5,-558.9743 1250.5,-550.4166"/>
<polygon fill="#c0c0c0" stroke="#c0c0c0" stroke-width="2" points="1254.0001,-550.4132 1250.5,-540.4133 1247.0001,-550.4133 1254.0001,-550.4132"/>
</g>
<!-- 41 -->
<g id="node42" class="node">
<title>41</title>
<path fill="none" stroke="#56d8c9" stroke-width="2" d="M402.5,-252C402.5,-252 350.5,-252 350.5,-252 344.5,-252 338.5,-246 338.5,-240 338.5,-240 338.5,-228 338.5,-228 338.5,-222 344.5,-216 350.5,-216 350.5,-216 402.5,-216 402.5,-216 408.5,-216 414.5,-222 414.5,-228 414.5,-228 414.5,-240 414.5,-240 414.5,-246 408.5,-252 402.5,-252"/>
<text text-anchor="middle" x="376.5" y="-231.5" font-family="sans" font-size="10.00" fill="#000000">metadmg_dfit</text>
</g>
<!-- 41&#45;&gt;1 -->
<g id="edge21" class="edge">
<title>41&#45;&gt;1</title>
<path fill="none" stroke="#c0c0c0" stroke-width="2" d="M382.5244,-215.8454C390.1474,-195.5607 405.1667,-163.072 428.5,-144 464.546,-114.537 517.3824,-100.8753 552.5798,-94.7316"/>
<polygon fill="#c0c0c0" stroke="#c0c0c0" stroke-width="2" points="553.1466,-98.1855 562.4543,-93.1241 552.0218,-91.2765 553.1466,-98.1855"/>
</g>
<!-- 54 -->
<g id="node55" class="node">
<title>54</title>
<path fill="none" stroke="#56d892" stroke-width="2" d="M364,-180C364,-180 283,-180 283,-180 277,-180 271,-174 271,-168 271,-168 271,-156 271,-156 271,-150 277,-144 283,-144 283,-144 364,-144 364,-144 370,-144 376,-150 376,-156 376,-156 376,-168 376,-168 376,-174 370,-180 364,-180"/>
<text text-anchor="middle" x="323.5" y="-159.5" font-family="sans" font-size="10.00" fill="#000000">metadmg_aggregate</text>
</g>
<!-- 41&#45;&gt;54 -->
<g id="edge77" class="edge">
<title>41&#45;&gt;54</title>
<path fill="none" stroke="#c0c0c0" stroke-width="2" d="M363.1259,-215.8314C357.0838,-207.6232 349.8237,-197.7606 343.1779,-188.7323"/>
<polygon fill="#c0c0c0" stroke="#c0c0c0" stroke-width="2" points="345.8011,-186.3918 337.0542,-180.4133 340.1637,-190.5415 345.8011,-186.3918"/>
</g>
<!-- 42 -->
<g id="node43" class="node">
<title>42</title>
<path fill="none" stroke="#56c9d8" stroke-width="2" d="M355,-324C355,-324 304,-324 304,-324 298,-324 292,-318 292,-312 292,-312 292,-300 292,-300 292,-294 298,-288 304,-288 304,-288 355,-288 355,-288 361,-288 367,-294 367,-300 367,-300 367,-312 367,-312 367,-318 361,-324 355,-324"/>
<text text-anchor="middle" x="329.5" y="-303.5" font-family="sans" font-size="10.00" fill="#000000">metadmg_lca</text>
</g>
<!-- 42&#45;&gt;41 -->
<g id="edge62" class="edge">
<title>42&#45;&gt;41</title>
<path fill="none" stroke="#c0c0c0" stroke-width="2" d="M341.3601,-287.8314C346.6629,-279.7079 353.0237,-269.9637 358.8673,-261.0118"/>
<polygon fill="#c0c0c0" stroke="#c0c0c0" stroke-width="2" points="361.9448,-262.7003 364.4802,-252.4133 356.0831,-258.8739 361.9448,-262.7003"/>
</g>
<!-- 42&#45;&gt;54 -->
<g id="edge76" class="edge">
<title>42&#45;&gt;54</title>
<path fill="none" stroke="#c0c0c0" stroke-width="2" d="M328.7401,-287.7623C327.7167,-263.201 325.8853,-219.2474 324.6814,-190.3541"/>
<polygon fill="#c0c0c0" stroke="#c0c0c0" stroke-width="2" points="328.1671,-189.9352 324.2537,-180.0896 321.1732,-190.2267 328.1671,-189.9352"/>
</g>
<!-- 43 -->
<g id="node44" class="node">
<title>43</title>
<path fill="none" stroke="#c6d856" stroke-width="2" d="M361.5,-396C361.5,-396 297.5,-396 297.5,-396 291.5,-396 285.5,-390 285.5,-384 285.5,-384 285.5,-372 285.5,-372 285.5,-366 291.5,-360 297.5,-360 297.5,-360 361.5,-360 361.5,-360 367.5,-360 373.5,-366 373.5,-372 373.5,-372 373.5,-384 373.5,-384 373.5,-390 367.5,-396 361.5,-396"/>
<text text-anchor="middle" x="329.5" y="-375.5" font-family="sans" font-size="10.00" fill="#000000">align_sort_query</text>
</g>
<!-- 43&#45;&gt;42 -->
<g id="edge63" class="edge">
<title>43&#45;&gt;42</title>
<path fill="none" stroke="#c0c0c0" stroke-width="2" d="M329.5,-359.8314C329.5,-352.131 329.5,-342.9743 329.5,-334.4166"/>
<polygon fill="#c0c0c0" stroke="#c0c0c0" stroke-width="2" points="333.0001,-334.4132 329.5,-324.4133 326.0001,-334.4133 333.0001,-334.4132"/>
</g>
<!-- 57 -->
<g id="node58" class="node">
<title>57</title>
<path fill="none" stroke="#56d8a9" stroke-width="2" d="M222,-108C222,-108 149,-108 149,-108 143,-108 137,-102 137,-96 137,-96 137,-84 137,-84 137,-78 143,-72 149,-72 149,-72 222,-72 222,-72 228,-72 234,-78 234,-84 234,-84 234,-96 234,-96 234,-102 228,-108 222,-108"/>
<text text-anchor="middle" x="185.5" y="-87.5" font-family="sans" font-size="10.00" fill="#000000">metadmg_damage</text>
</g>
<!-- 43&#45;&gt;57 -->
<g id="edge81" class="edge">
<title>43&#45;&gt;57</title>
<path fill="none" stroke="#c0c0c0" stroke-width="2" d="M285.4752,-372.0598C213.841,-361.9556 78.5805,-340.8773 64.5,-324 13.2435,-262.5627 17.6493,-210.9246 61.5,-144 76.212,-121.5466 102.5135,-108.3783 127.1193,-100.6799"/>
<polygon fill="#c0c0c0" stroke="#c0c0c0" stroke-width="2" points="128.1555,-104.0239 136.7973,-97.8944 126.2193,-97.2969 128.1555,-104.0239"/>
</g>
<!-- 44 -->
<g id="node45" class="node">
<title>44</title>
<path fill="none" stroke="#d85656" stroke-width="2" d="M368,-468C368,-468 331,-468 331,-468 325,-468 319,-462 319,-456 319,-456 319,-444 319,-444 319,-438 325,-432 331,-432 331,-432 368,-432 368,-432 374,-432 380,-438 380,-444 380,-444 380,-456 380,-456 380,-462 374,-468 368,-468"/>
<text text-anchor="middle" x="349.5" y="-447.5" font-family="sans" font-size="10.00" fill="#000000">align_filter</text>
</g>
<!-- 44&#45;&gt;43 -->
<g id="edge64" class="edge">
<title>44&#45;&gt;43</title>
<path fill="none" stroke="#c0c0c0" stroke-width="2" d="M344.4532,-431.8314C342.2906,-424.0463 339.7147,-414.7729 337.3152,-406.1347"/>
<polygon fill="#c0c0c0" stroke="#c0c0c0" stroke-width="2" points="340.6636,-405.1117 334.6148,-396.4133 333.919,-406.9852 340.6636,-405.1117"/>
</g>
<!-- 45 -->
<g id="node46" class="node">
<title>45</title>
<path fill="none" stroke="#d8ac56" stroke-width="2" d="M423,-540C423,-540 368,-540 368,-540 362,-540 356,-534 356,-528 356,-528 356,-516 356,-516 356,-510 362,-504 368,-504 368,-504 423,-504 423,-504 429,-504 435,-510 435,-516 435,-516 435,-528 435,-528 435,-534 429,-540 423,-540"/>
<text text-anchor="middle" x="395.5" y="-519.5" font-family="sans" font-size="10.00" fill="#000000">align_reassign</text>
</g>
<!-- 45&#45;&gt;44 -->
<g id="edge65" class="edge">
<title>45&#45;&gt;44</title>
<path fill="none" stroke="#c0c0c0" stroke-width="2" d="M383.8923,-503.8314C378.7022,-495.7079 372.4768,-485.9637 366.7575,-477.0118"/>
<polygon fill="#c0c0c0" stroke="#c0c0c0" stroke-width="2" points="369.5974,-474.9559 361.264,-468.4133 363.6985,-478.7246 369.5974,-474.9559"/>
</g>
<!-- 46&#45;&gt;45 -->
<g id="edge66" class="edge">
<title>46&#45;&gt;45</title>
<path fill="none" stroke="#c0c0c0" stroke-width="2" d="M396.2477,-575.8314C396.1407,-568.131 396.0135,-558.9743 395.8947,-550.4166"/>
<polygon fill="#c0c0c0" stroke="#c0c0c0" stroke-width="2" points="399.3944,-550.3637 395.7557,-540.4133 392.3951,-550.4609 399.3944,-550.3637"/>
</g>
<!-- 47 -->
<g id="node48" class="node">
<title>47</title>
<path fill="none" stroke="#56d8c9" stroke-width="2" d="M202.5,-252C202.5,-252 150.5,-252 150.5,-252 144.5,-252 138.5,-246 138.5,-240 138.5,-240 138.5,-228 138.5,-228 138.5,-222 144.5,-216 150.5,-216 150.5,-216 202.5,-216 202.5,-216 208.5,-216 214.5,-222 214.5,-228 214.5,-228 214.5,-240 214.5,-240 214.5,-246 208.5,-252 202.5,-252"/>
<text text-anchor="middle" x="176.5" y="-231.5" font-family="sans" font-size="10.00" fill="#000000">metadmg_dfit</text>
</g>
<!-- 47&#45;&gt;1 -->
<g id="edge22" class="edge">
<title>47&#45;&gt;1</title>
<path fill="none" stroke="#c0c0c0" stroke-width="2" d="M181.7002,-215.8278C188.7031,-194.887 203.2899,-161.1614 228.5,-144 280.7649,-108.4214 470.8801,-95.4989 552.1951,-91.5295"/>
<polygon fill="#c0c0c0" stroke="#c0c0c0" stroke-width="2" points="552.6424,-95.0124 562.4674,-91.0477 552.3144,-88.0201 552.6424,-95.0124"/>
</g>
<!-- 55 -->
<g id="node56" class="node">
<title>55</title>
<path fill="none" stroke="#56d892" stroke-width="2" d="M164,-180C164,-180 83,-180 83,-180 77,-180 71,-174 71,-168 71,-168 71,-156 71,-156 71,-150 77,-144 83,-144 83,-144 164,-144 164,-144 170,-144 176,-150 176,-156 176,-156 176,-168 176,-168 176,-174 170,-180 164,-180"/>
<text text-anchor="middle" x="123.5" y="-159.5" font-family="sans" font-size="10.00" fill="#000000">metadmg_aggregate</text>
</g>
<!-- 47&#45;&gt;55 -->
<g id="edge79" class="edge">
<title>47&#45;&gt;55</title>
<path fill="none" stroke="#c0c0c0" stroke-width="2" d="M163.1259,-215.8314C157.0838,-207.6232 149.8237,-197.7606 143.1779,-188.7323"/>
<polygon fill="#c0c0c0" stroke="#c0c0c0" stroke-width="2" points="145.8011,-186.3918 137.0542,-180.4133 140.1637,-190.5415 145.8011,-186.3918"/>
</g>
<!-- 48 -->
<g id="node49" class="node">
<title>48</title>
<path fill="none" stroke="#56c9d8" stroke-width="2" d="M137,-324C137,-324 86,-324 86,-324 80,-324 74,-318 74,-312 74,-312 74,-300 74,-300 74,-294 80,-288 86,-288 86,-288 137,-288 137,-288 143,-288 149,-294 149,-300 149,-300 149,-312 149,-312 149,-318 143,-324 137,-324"/>
<text text-anchor="middle" x="111.5" y="-303.5" font-family="sans" font-size="10.00" fill="#000000">metadmg_lca</text>
</g>
<!-- 48&#45;&gt;47 -->
<g id="edge68" class="edge">
<title>48&#45;&gt;47</title>
<path fill="none" stroke="#c0c0c0" stroke-width="2" d="M127.9022,-287.8314C135.5415,-279.3694 144.7683,-269.1489 153.1207,-259.8971"/>
<polygon fill="#c0c0c0" stroke="#c0c0c0" stroke-width="2" points="155.7738,-262.1813 159.8769,-252.4133 150.5779,-257.4906 155.7738,-262.1813"/>
</g>
<!-- 48&#45;&gt;55 -->
<g id="edge78" class="edge">
<title>48&#45;&gt;55</title>
<path fill="none" stroke="#c0c0c0" stroke-width="2" d="M113.0198,-287.7623C115.0666,-263.201 118.7294,-219.2474 121.1372,-190.3541"/>
<polygon fill="#c0c0c0" stroke="#c0c0c0" stroke-width="2" points="124.6499,-190.3458 121.9925,-180.0896 117.6741,-189.7644 124.6499,-190.3458"/>
</g>
<!-- 49 -->
<g id="node50" class="node">
<title>49</title>
<path fill="none" stroke="#c6d856" stroke-width="2" d="M143.5,-396C143.5,-396 79.5,-396 79.5,-396 73.5,-396 67.5,-390 67.5,-384 67.5,-384 67.5,-372 67.5,-372 67.5,-366 73.5,-360 79.5,-360 79.5,-360 143.5,-360 143.5,-360 149.5,-360 155.5,-366 155.5,-372 155.5,-372 155.5,-384 155.5,-384 155.5,-390 149.5,-396 143.5,-396"/>
<text text-anchor="middle" x="111.5" y="-375.5" font-family="sans" font-size="10.00" fill="#000000">align_sort_query</text>
</g>
<!-- 49&#45;&gt;48 -->
<g id="edge69" class="edge">
<title>49&#45;&gt;48</title>
<path fill="none" stroke="#c0c0c0" stroke-width="2" d="M111.5,-359.8314C111.5,-352.131 111.5,-342.9743 111.5,-334.4166"/>
<polygon fill="#c0c0c0" stroke="#c0c0c0" stroke-width="2" points="115.0001,-334.4132 111.5,-324.4133 108.0001,-334.4133 115.0001,-334.4132"/>
</g>
<!-- 58 -->
<g id="node59" class="node">
<title>58</title>
<path fill="none" stroke="#56d8a9" stroke-width="2" d="M85,-108C85,-108 12,-108 12,-108 6,-108 0,-102 0,-96 0,-96 0,-84 0,-84 0,-78 6,-72 12,-72 12,-72 85,-72 85,-72 91,-72 97,-78 97,-84 97,-84 97,-96 97,-96 97,-102 91,-108 85,-108"/>
<text text-anchor="middle" x="48.5" y="-87.5" font-family="sans" font-size="10.00" fill="#000000">metadmg_damage</text>
</g>
<!-- 49&#45;&gt;58 -->
<g id="edge82" class="edge">
<title>49&#45;&gt;58</title>
<path fill="none" stroke="#c0c0c0" stroke-width="2" d="M67.4804,-360.1164C52.3209,-351.5744 37.0244,-339.7156 28.5,-324 -7.737,-257.1929 19.4004,-163.6129 36.8342,-117.6683"/>
<polygon fill="#c0c0c0" stroke="#c0c0c0" stroke-width="2" points="40.1966,-118.6809 40.5916,-108.0935 33.6803,-116.1237 40.1966,-118.6809"/>
</g>
<!-- 50 -->
<g id="node51" class="node">
<title>50</title>
<path fill="none" stroke="#d85656" stroke-width="2" d="M160,-468C160,-468 123,-468 123,-468 117,-468 111,-462 111,-456 111,-456 111,-444 111,-444 111,-438 117,-432 123,-432 123,-432 160,-432 160,-432 166,-432 172,-438 172,-444 172,-444 172,-456 172,-456 172,-462 166,-468 160,-468"/>
<text text-anchor="middle" x="141.5" y="-447.5" font-family="sans" font-size="10.00" fill="#000000">align_filter</text>
</g>
<!-- 50&#45;&gt;49 -->
<g id="edge70" class="edge">
<title>50&#45;&gt;49</title>
<path fill="none" stroke="#c0c0c0" stroke-width="2" d="M133.9297,-431.8314C130.6507,-423.9617 126.738,-414.5712 123.1055,-405.8533"/>
<polygon fill="#c0c0c0" stroke="#c0c0c0" stroke-width="2" points="126.2492,-404.2979 119.1722,-396.4133 119.7876,-406.9902 126.2492,-404.2979"/>
</g>
<!-- 51 -->
<g id="node52" class="node">
<title>51</title>
<path fill="none" stroke="#d8ac56" stroke-width="2" d="M184,-540C184,-540 129,-540 129,-540 123,-540 117,-534 117,-528 117,-528 117,-516 117,-516 117,-510 123,-504 129,-504 129,-504 184,-504 184,-504 190,-504 196,-510 196,-516 196,-516 196,-528 196,-528 196,-534 190,-540 184,-540"/>
<text text-anchor="middle" x="156.5" y="-519.5" font-family="sans" font-size="10.00" fill="#000000">align_reassign</text>
</g>
<!-- 51&#45;&gt;50 -->
<g id="edge71" class="edge">
<title>51&#45;&gt;50</title>
<path fill="none" stroke="#c0c0c0" stroke-width="2" d="M152.7149,-503.8314C151.1106,-496.131 149.203,-486.9743 147.4201,-478.4166"/>
<polygon fill="#c0c0c0" stroke="#c0c0c0" stroke-width="2" points="150.8021,-477.4892 145.3361,-468.4133 143.9493,-478.9169 150.8021,-477.4892"/>
</g>
<!-- 52&#45;&gt;51 -->
<g id="edge72" class="edge">
<title>52&#45;&gt;51</title>
<path fill="none" stroke="#c0c0c0" stroke-width="2" d="M161.7336,-575.8314C160.985,-568.131 160.0947,-558.9743 159.2627,-550.4166"/>
<polygon fill="#c0c0c0" stroke="#c0c0c0" stroke-width="2" points="162.7415,-550.0276 158.2902,-540.4133 155.7744,-550.7051 162.7415,-550.0276"/>
</g>
<!-- 53&#45;&gt;0 -->
<g id="edge2" class="edge">
<title>53&#45;&gt;0</title>
<path fill="none" stroke="#c0c0c0" stroke-width="2" d="M1163.8767,-148.9641C1156.0612,-147.1946 1148.0857,-145.4808 1140.5,-144 841.7004,-85.6709 477.1193,-37.4938 360.9339,-22.6941"/>
<polygon fill="#c0c0c0" stroke="#c0c0c0" stroke-width="2" points="361.1495,-19.1934 350.7884,-21.4063 360.268,-26.1377 361.1495,-19.1934"/>
</g>
<!-- 53&#45;&gt;1 -->
<g id="edge23" class="edge">
<title>53&#45;&gt;1</title>
<path fill="none" stroke="#c0c0c0" stroke-width="2" d="M1163.6542,-146.9317C1158.8907,-145.8379 1154.122,-144.8377 1149.5,-144 954.4366,-108.6464 716.6742,-95.4083 626.5307,-91.4406"/>
<polygon fill="#c0c0c0" stroke="#c0c0c0" stroke-width="2" points="626.6701,-87.9435 616.5294,-91.0121 626.3704,-94.937 626.6701,-87.9435"/>
</g>
<!-- 54&#45;&gt;0 -->
<g id="edge3" class="edge">
<title>54&#45;&gt;0</title>
<path fill="none" stroke="#c0c0c0" stroke-width="2" d="M323.5,-143.7623C323.5,-119.201 323.5,-75.2474 323.5,-46.3541"/>
<polygon fill="#c0c0c0" stroke="#c0c0c0" stroke-width="2" points="327.0001,-46.0896 323.5,-36.0896 320.0001,-46.0897 327.0001,-46.0896"/>
</g>
<!-- 54&#45;&gt;1 -->
<g id="edge24" class="edge">
<title>54&#45;&gt;1</title>
<path fill="none" stroke="#c0c0c0" stroke-width="2" d="M376.053,-147.7751C428.1348,-133.6778 506.5795,-112.4446 552.4551,-100.0272"/>
<polygon fill="#c0c0c0" stroke="#c0c0c0" stroke-width="2" points="553.5414,-103.3592 562.2795,-97.3679 551.7124,-96.6023 553.5414,-103.3592"/>
</g>
<!-- 55&#45;&gt;0 -->
<g id="edge4" class="edge">
<title>55&#45;&gt;0</title>
<path fill="none" stroke="#c0c0c0" stroke-width="2" d="M175.2279,-143.9709C197.11,-135.0048 222.181,-122.8768 242.5,-108 266.8783,-90.1511 289.4154,-63.9746 304.4942,-44.4478"/>
<polygon fill="#c0c0c0" stroke="#c0c0c0" stroke-width="2" points="307.442,-46.3523 310.6802,-36.2644 301.8579,-42.1312 307.442,-46.3523"/>
</g>
<!-- 55&#45;&gt;1 -->
<g id="edge25" class="edge">
<title>55&#45;&gt;1</title>
<path fill="none" stroke="#c0c0c0" stroke-width="2" d="M176.0165,-147.21C180.8939,-146.0426 185.7768,-144.95 190.5,-144 322.171,-117.5159 480.9521,-100.3679 551.9788,-93.4605"/>
<polygon fill="#c0c0c0" stroke="#c0c0c0" stroke-width="2" points="552.5884,-96.9181 562.2078,-92.4778 551.9189,-89.9502 552.5884,-96.9181"/>
</g>
<!-- 56&#45;&gt;0 -->
<g id="edge5" class="edge">
<title>56&#45;&gt;0</title>
<path fill="none" stroke="#c0c0c0" stroke-width="2" d="M1306.1973,-215.8081C1304.81,-195.1739 1299.2294,-162.0569 1278.5,-144 1207.8222,-82.4342 528.5113,-32.0667 360.7932,-20.5009"/>
<polygon fill="#c0c0c0" stroke="#c0c0c0" stroke-width="2" points="360.9352,-17.0025 350.7193,-19.8105 360.4566,-23.9861 360.9352,-17.0025"/>
</g>
<!-- 57&#45;&gt;0 -->
<g id="edge6" class="edge">
<title>57&#45;&gt;0</title>
<path fill="none" stroke="#c0c0c0" stroke-width="2" d="M220.3232,-71.8314C240.6803,-61.2103 266.3472,-47.8188 286.9881,-37.0497"/>
<polygon fill="#c0c0c0" stroke="#c0c0c0" stroke-width="2" points="288.8341,-40.0343 296.081,-32.3056 285.5961,-33.8282 288.8341,-40.0343"/>
</g>
<!-- 58&#45;&gt;0 -->
<g id="edge7" class="edge">
<title>58&#45;&gt;0</title>
<path fill="none" stroke="#c0c0c0" stroke-width="2" d="M97.0315,-77.2936C151.1582,-63.1222 237.5189,-40.5114 286.4711,-27.6948"/>
<polygon fill="#c0c0c0" stroke="#c0c0c0" stroke-width="2" points="287.5367,-31.0339 296.3241,-25.1151 285.7637,-24.2621 287.5367,-31.0339"/>
</g>
</g>
</svg>
