<?xml version="1.0" encoding="UTF-8" standalone="no"?>
<!DOCTYPE svg PUBLIC "-//W3C//DTD SVG 1.1//EN"
 "http://www.w3.org/Graphics/SVG/1.1/DTD/svg11.dtd">
<!-- Generated by graphviz version 2.40.1 (0)
 -->
<!-- Title: snakemake_dag Pages: 1 -->
<svg width="1989pt" height="1173pt"
 viewBox="0.00 0.00 1989.00 1173.00" xmlns="http://www.w3.org/2000/svg" xmlns:xlink="http://www.w3.org/1999/xlink">
<g id="graph0" class="graph" transform="scale(1 1) rotate(0) translate(4 1169)">
<title>snakemake_dag</title>
<polygon fill="#ffffff" stroke="transparent" points="-4,4 -4,-1169 1985,-1169 1985,4 -4,4"/>
<!-- 0 -->
<g id="node1" class="node">
<title>0</title>
<path fill="none" stroke="#afd856" stroke-width="2" d="M619.5,-36C619.5,-36 589.5,-36 589.5,-36 583.5,-36 577.5,-30 577.5,-24 577.5,-24 577.5,-12 577.5,-12 577.5,-6 583.5,0 589.5,0 589.5,0 619.5,0 619.5,0 625.5,0 631.5,-6 631.5,-12 631.5,-12 631.5,-24 631.5,-24 631.5,-30 625.5,-36 619.5,-36"/>
<text text-anchor="middle" x="604.5" y="-15.5" font-family="sans" font-size="10.00" fill="#000000">all</text>
</g>
<!-- 1 -->
<g id="node2" class="node">
<title>1</title>
<path fill="none" stroke="#56d8c9" stroke-width="2" d="M852.5,-108C852.5,-108 822.5,-108 822.5,-108 816.5,-108 810.5,-102 810.5,-96 810.5,-96 810.5,-84 810.5,-84 810.5,-78 816.5,-72 822.5,-72 822.5,-72 852.5,-72 852.5,-72 858.5,-72 864.5,-78 864.5,-84 864.5,-84 864.5,-96 864.5,-96 864.5,-102 858.5,-108 852.5,-108"/>
<text text-anchor="middle" x="837.5" y="-87.5" font-family="sans" font-size="10.00" fill="#000000">multiqc</text>
</g>
<!-- 1&#45;&gt;0 -->
<g id="edge1" class="edge">
<title>1&#45;&gt;0</title>
<path fill="none" stroke="#c0c0c0" stroke-width="2" d="M810.3159,-81.5998C768.4884,-68.6745 688.2721,-43.8866 641.2882,-29.368"/>
<polygon fill="#c0c0c0" stroke="#c0c0c0" stroke-width="2" points="642.0985,-25.9552 631.5109,-26.3467 640.0318,-32.6432 642.0985,-25.9552"/>
</g>
<!-- 2 -->
<g id="node3" class="node">
<title>2</title>
<path fill="none" stroke="#97d856" stroke-width="2" d="M1205,-1165C1205,-1165 1098,-1165 1098,-1165 1092,-1165 1086,-1159 1086,-1153 1086,-1153 1086,-1092 1086,-1092 1086,-1086 1092,-1080 1098,-1080 1098,-1080 1205,-1080 1205,-1080 1211,-1080 1217,-1086 1217,-1092 1217,-1092 1217,-1153 1217,-1153 1217,-1159 1211,-1165 1205,-1165"/>
<text text-anchor="middle" x="1151.5" y="-1153" font-family="sans" font-size="10.00" fill="#000000">bowtie2</text>
<text text-anchor="middle" x="1151.5" y="-1142" font-family="sans" font-size="10.00" fill="#000000">library: lib2</text>
<text text-anchor="middle" x="1151.5" y="-1131" font-family="sans" font-size="10.00" fill="#000000">n_shard: 1</text>
<text text-anchor="middle" x="1151.5" y="-1120" font-family="sans" font-size="10.00" fill="#000000">read_type_map: collapsed</text>
<text text-anchor="middle" x="1151.5" y="-1109" font-family="sans" font-size="10.00" fill="#000000">ref: refseq_mitochondrion</text>
<text text-anchor="middle" x="1151.5" y="-1098" font-family="sans" font-size="10.00" fill="#000000">sample: HD827sonic_2</text>
<text text-anchor="middle" x="1151.5" y="-1087" font-family="sans" font-size="10.00" fill="#000000">tot_shards: 1</text>
</g>
<!-- 2&#45;&gt;1 -->
<g id="edge8" class="edge">
<title>2&#45;&gt;1</title>
<path fill="none" stroke="#c0c0c0" stroke-width="2" d="M1182.8509,-1079.8158C1203.7859,-1047.0895 1227.5,-999.8907 1227.5,-954 1227.5,-954 1227.5,-954 1227.5,-234 1227.5,-176.4809 1185.6663,-170.2765 1134.5,-144 1111.6441,-132.2623 949.5218,-106.8198 874.9116,-95.557"/>
<polygon fill="#c0c0c0" stroke="#c0c0c0" stroke-width="2" points="874.9748,-92.0273 864.5655,-94.0015 873.934,-98.9495 874.9748,-92.0273"/>
</g>
<!-- 48 -->
<g id="node49" class="node">
<title>48</title>
<path fill="none" stroke="#56b9d8" stroke-width="2" d="M1111,-1044C1111,-1044 1042,-1044 1042,-1044 1036,-1044 1030,-1038 1030,-1032 1030,-1032 1030,-1020 1030,-1020 1030,-1014 1036,-1008 1042,-1008 1042,-1008 1111,-1008 1111,-1008 1117,-1008 1123,-1014 1123,-1020 1123,-1020 1123,-1032 1123,-1032 1123,-1038 1117,-1044 1111,-1044"/>
<text text-anchor="middle" x="1076.5" y="-1023.5" font-family="sans" font-size="10.00" fill="#000000">shard_count_alns</text>
</g>
<!-- 2&#45;&gt;48 -->
<g id="edge82" class="edge">
<title>2&#45;&gt;48</title>
<path fill="none" stroke="#c0c0c0" stroke-width="2" d="M1118.3856,-1079.8928C1111.0867,-1070.5016 1103.5632,-1060.8213 1096.9414,-1052.3013"/>
<polygon fill="#c0c0c0" stroke="#c0c0c0" stroke-width="2" points="1099.5621,-1049.9697 1090.662,-1044.2218 1094.0351,-1054.2653 1099.5621,-1049.9697"/>
</g>
<!-- 52 -->
<g id="node53" class="node">
<title>52</title>
<path fill="none" stroke="#568ad8" stroke-width="2" d="M1111,-900C1111,-900 982,-900 982,-900 976,-900 970,-894 970,-888 970,-888 970,-876 970,-876 970,-870 976,-864 982,-864 982,-864 1111,-864 1111,-864 1117,-864 1123,-870 1123,-876 1123,-876 1123,-888 1123,-888 1123,-894 1117,-900 1111,-900"/>
<text text-anchor="middle" x="1046.5" y="-879.5" font-family="sans" font-size="10.00" fill="#000000">shard_saturated_reads_remove</text>
</g>
<!-- 2&#45;&gt;52 -->
<g id="edge86" class="edge">
<title>2&#45;&gt;52</title>
<path fill="none" stroke="#c0c0c0" stroke-width="2" d="M1148.859,-1079.9801C1146.4011,-1057.8881 1141.6567,-1030.8144 1132.5,-1008 1117.3219,-970.1831 1089.3236,-932.3098 1069.398,-908.108"/>
<polygon fill="#c0c0c0" stroke="#c0c0c0" stroke-width="2" points="1071.8265,-905.5567 1062.7209,-900.1402 1066.4613,-910.0528 1071.8265,-905.5567"/>
</g>
<!-- 3 -->
<g id="node4" class="node">
<title>3</title>
<path fill="none" stroke="#97d856" stroke-width="2" d="M577,-1165C577,-1165 470,-1165 470,-1165 464,-1165 458,-1159 458,-1153 458,-1153 458,-1092 458,-1092 458,-1086 464,-1080 470,-1080 470,-1080 577,-1080 577,-1080 583,-1080 589,-1086 589,-1092 589,-1092 589,-1153 589,-1153 589,-1159 583,-1165 577,-1165"/>
<text text-anchor="middle" x="523.5" y="-1153" font-family="sans" font-size="10.00" fill="#000000">bowtie2</text>
<text text-anchor="middle" x="523.5" y="-1142" font-family="sans" font-size="10.00" fill="#000000">library: lib1</text>
<text text-anchor="middle" x="523.5" y="-1131" font-family="sans" font-size="10.00" fill="#000000">n_shard: 1</text>
<text text-anchor="middle" x="523.5" y="-1120" font-family="sans" font-size="10.00" fill="#000000">read_type_map: collapsed</text>
<text text-anchor="middle" x="523.5" y="-1109" font-family="sans" font-size="10.00" fill="#000000">ref: refseq_mitochondrion</text>
<text text-anchor="middle" x="523.5" y="-1098" font-family="sans" font-size="10.00" fill="#000000">sample: HD827sonic_2</text>
<text text-anchor="middle" x="523.5" y="-1087" font-family="sans" font-size="10.00" fill="#000000">tot_shards: 1</text>
</g>
<!-- 3&#45;&gt;1 -->
<g id="edge9" class="edge">
<title>3&#45;&gt;1</title>
<path fill="none" stroke="#c0c0c0" stroke-width="2" d="M555.9312,-1079.694C563.228,-1068.5263 570.3316,-1056.191 575.5,-1044 623.4624,-930.8677 616.7826,-599.1804 694.5,-504 719.4164,-473.4849 749.9228,-497.9635 775.5,-468 802.3772,-436.5136 799.5,-419.3978 799.5,-378 799.5,-378 799.5,-378 799.5,-234 799.5,-192.3681 814.5328,-146.14 825.6881,-117.567"/>
<polygon fill="#c0c0c0" stroke="#c0c0c0" stroke-width="2" points="828.9578,-118.817 829.4412,-108.2332 822.4632,-116.2055 828.9578,-118.817"/>
</g>
<!-- 33 -->
<g id="node34" class="node">
<title>33</title>
<path fill="none" stroke="#56b9d8" stroke-width="2" d="M483,-1044C483,-1044 414,-1044 414,-1044 408,-1044 402,-1038 402,-1032 402,-1032 402,-1020 402,-1020 402,-1014 408,-1008 414,-1008 414,-1008 483,-1008 483,-1008 489,-1008 495,-1014 495,-1020 495,-1020 495,-1032 495,-1032 495,-1038 489,-1044 483,-1044"/>
<text text-anchor="middle" x="448.5" y="-1023.5" font-family="sans" font-size="10.00" fill="#000000">shard_count_alns</text>
</g>
<!-- 3&#45;&gt;33 -->
<g id="edge60" class="edge">
<title>3&#45;&gt;33</title>
<path fill="none" stroke="#c0c0c0" stroke-width="2" d="M490.3856,-1079.8928C483.0867,-1070.5016 475.5632,-1060.8213 468.9414,-1052.3013"/>
<polygon fill="#c0c0c0" stroke="#c0c0c0" stroke-width="2" points="471.5621,-1049.9697 462.662,-1044.2218 466.0351,-1054.2653 471.5621,-1049.9697"/>
</g>
<!-- 37 -->
<g id="node38" class="node">
<title>37</title>
<path fill="none" stroke="#568ad8" stroke-width="2" d="M483,-900C483,-900 354,-900 354,-900 348,-900 342,-894 342,-888 342,-888 342,-876 342,-876 342,-870 348,-864 354,-864 354,-864 483,-864 483,-864 489,-864 495,-870 495,-876 495,-876 495,-888 495,-888 495,-894 489,-900 483,-900"/>
<text text-anchor="middle" x="418.5" y="-879.5" font-family="sans" font-size="10.00" fill="#000000">shard_saturated_reads_remove</text>
</g>
<!-- 3&#45;&gt;37 -->
<g id="edge64" class="edge">
<title>3&#45;&gt;37</title>
<path fill="none" stroke="#c0c0c0" stroke-width="2" d="M520.3634,-1079.9957C517.6785,-1057.908 512.7048,-1030.8334 503.5,-1008 488.3203,-970.3454 460.6836,-932.4393 441.0466,-908.1855"/>
<polygon fill="#c0c0c0" stroke="#c0c0c0" stroke-width="2" points="443.5274,-905.6922 434.468,-900.1988 438.1243,-910.1427 443.5274,-905.6922"/>
</g>
<!-- 4 -->
<g id="node5" class="node">
<title>4</title>
<path fill="none" stroke="#97d856" stroke-width="2" d="M203,-1165C203,-1165 96,-1165 96,-1165 90,-1165 84,-1159 84,-1153 84,-1153 84,-1092 84,-1092 84,-1086 90,-1080 96,-1080 96,-1080 203,-1080 203,-1080 209,-1080 215,-1086 215,-1092 215,-1092 215,-1153 215,-1153 215,-1159 209,-1165 203,-1165"/>
<text text-anchor="middle" x="149.5" y="-1153" font-family="sans" font-size="10.00" fill="#000000">bowtie2</text>
<text text-anchor="middle" x="149.5" y="-1142" font-family="sans" font-size="10.00" fill="#000000">library: lib1</text>
<text text-anchor="middle" x="149.5" y="-1131" font-family="sans" font-size="10.00" fill="#000000">n_shard: 2</text>
<text text-anchor="middle" x="149.5" y="-1120" font-family="sans" font-size="10.00" fill="#000000">read_type_map: collapsed</text>
<text text-anchor="middle" x="149.5" y="-1109" font-family="sans" font-size="10.00" fill="#000000">ref: wgs_eukaryota</text>
<text text-anchor="middle" x="149.5" y="-1098" font-family="sans" font-size="10.00" fill="#000000">sample: HD827sonic_2</text>
<text text-anchor="middle" x="149.5" y="-1087" font-family="sans" font-size="10.00" fill="#000000">tot_shards: 2</text>
</g>
<!-- 4&#45;&gt;1 -->
<g id="edge10" class="edge">
<title>4&#45;&gt;1</title>
<path fill="none" stroke="#c0c0c0" stroke-width="2" d="M189.3644,-1079.764C213.8999,-1055.6768 247.1492,-1026.7493 281.5,-1008 387.9381,-949.9042 523.5,-1003.2609 523.5,-882 523.5,-882 523.5,-882 523.5,-234 523.5,-193.1184 513.2046,-172.5147 542.5,-144 578.6095,-108.8529 728.7647,-95.984 799.8603,-91.7975"/>
<polygon fill="#c0c0c0" stroke="#c0c0c0" stroke-width="2" points="800.37,-95.2745 810.1581,-91.2195 799.9777,-88.2855 800.37,-95.2745"/>
</g>
<!-- 30 -->
<g id="node31" class="node">
<title>30</title>
<path fill="none" stroke="#568ad8" stroke-width="2" d="M141,-900C141,-900 12,-900 12,-900 6,-900 0,-894 0,-888 0,-888 0,-876 0,-876 0,-870 6,-864 12,-864 12,-864 141,-864 141,-864 147,-864 153,-870 153,-876 153,-876 153,-888 153,-888 153,-894 147,-900 141,-900"/>
<text text-anchor="middle" x="76.5" y="-879.5" font-family="sans" font-size="10.00" fill="#000000">shard_saturated_reads_remove</text>
</g>
<!-- 4&#45;&gt;30 -->
<g id="edge54" class="edge">
<title>4&#45;&gt;30</title>
<path fill="none" stroke="#c0c0c0" stroke-width="2" d="M113.2154,-1079.9658C105.4921,-1068.8869 98.2442,-1056.5242 93.5,-1044 76.6695,-999.5693 74.6081,-943.6825 75.1794,-910.513"/>
<polygon fill="#c0c0c0" stroke="#c0c0c0" stroke-width="2" points="78.687,-910.2747 75.4565,-900.1844 71.6895,-910.0869 78.687,-910.2747"/>
</g>
<!-- 32 -->
<g id="node33" class="node">
<title>32</title>
<path fill="none" stroke="#56b9d8" stroke-width="2" d="M184,-1044C184,-1044 115,-1044 115,-1044 109,-1044 103,-1038 103,-1032 103,-1032 103,-1020 103,-1020 103,-1014 109,-1008 115,-1008 115,-1008 184,-1008 184,-1008 190,-1008 196,-1014 196,-1020 196,-1020 196,-1032 196,-1032 196,-1038 190,-1044 184,-1044"/>
<text text-anchor="middle" x="149.5" y="-1023.5" font-family="sans" font-size="10.00" fill="#000000">shard_count_alns</text>
</g>
<!-- 4&#45;&gt;32 -->
<g id="edge59" class="edge">
<title>4&#45;&gt;32</title>
<path fill="none" stroke="#c0c0c0" stroke-width="2" d="M149.5,-1079.8928C149.5,-1071.2842 149.5,-1062.4327 149.5,-1054.4546"/>
<polygon fill="#c0c0c0" stroke="#c0c0c0" stroke-width="2" points="153.0001,-1054.2218 149.5,-1044.2218 146.0001,-1054.2218 153.0001,-1054.2218"/>
</g>
<!-- 5 -->
<g id="node6" class="node">
<title>5</title>
<path fill="none" stroke="#97d856" stroke-width="2" d="M1019,-1165C1019,-1165 912,-1165 912,-1165 906,-1165 900,-1159 900,-1153 900,-1153 900,-1092 900,-1092 900,-1086 906,-1080 912,-1080 912,-1080 1019,-1080 1019,-1080 1025,-1080 1031,-1086 1031,-1092 1031,-1092 1031,-1153 1031,-1153 1031,-1159 1025,-1165 1019,-1165"/>
<text text-anchor="middle" x="965.5" y="-1153" font-family="sans" font-size="10.00" fill="#000000">bowtie2</text>
<text text-anchor="middle" x="965.5" y="-1142" font-family="sans" font-size="10.00" fill="#000000">library: lib2</text>
<text text-anchor="middle" x="965.5" y="-1131" font-family="sans" font-size="10.00" fill="#000000">n_shard: 1</text>
<text text-anchor="middle" x="965.5" y="-1120" font-family="sans" font-size="10.00" fill="#000000">read_type_map: collapsed</text>
<text text-anchor="middle" x="965.5" y="-1109" font-family="sans" font-size="10.00" fill="#000000">ref: wgs_eukaryota</text>
<text text-anchor="middle" x="965.5" y="-1098" font-family="sans" font-size="10.00" fill="#000000">sample: HD827sonic_2</text>
<text text-anchor="middle" x="965.5" y="-1087" font-family="sans" font-size="10.00" fill="#000000">tot_shards: 2</text>
</g>
<!-- 5&#45;&gt;1 -->
<g id="edge11" class="edge">
<title>5&#45;&gt;1</title>
<path fill="none" stroke="#c0c0c0" stroke-width="2" d="M1031.2882,-1096.0537C1070.7284,-1079.3526 1116.2828,-1058.3047 1132.5,-1044 1168.0079,-1012.6796 1189.5,-1001.3474 1189.5,-954 1189.5,-954 1189.5,-954 1189.5,-234 1189.5,-170.488 1135.6654,-171.6748 1078.5,-144 1011.2645,-111.45 923.9275,-98.1939 874.9871,-93.0462"/>
<polygon fill="#c0c0c0" stroke="#c0c0c0" stroke-width="2" points="875.1545,-89.5457 864.8574,-92.0396 874.4622,-96.5114 875.1545,-89.5457"/>
</g>
<!-- 49 -->
<g id="node50" class="node">
<title>49</title>
<path fill="none" stroke="#56b9d8" stroke-width="2" d="M1000,-1044C1000,-1044 931,-1044 931,-1044 925,-1044 919,-1038 919,-1032 919,-1032 919,-1020 919,-1020 919,-1014 925,-1008 931,-1008 931,-1008 1000,-1008 1000,-1008 1006,-1008 1012,-1014 1012,-1020 1012,-1020 1012,-1032 1012,-1032 1012,-1038 1006,-1044 1000,-1044"/>
<text text-anchor="middle" x="965.5" y="-1023.5" font-family="sans" font-size="10.00" fill="#000000">shard_count_alns</text>
</g>
<!-- 5&#45;&gt;49 -->
<g id="edge83" class="edge">
<title>5&#45;&gt;49</title>
<path fill="none" stroke="#c0c0c0" stroke-width="2" d="M965.5,-1079.8928C965.5,-1071.2842 965.5,-1062.4327 965.5,-1054.4546"/>
<polygon fill="#c0c0c0" stroke="#c0c0c0" stroke-width="2" points="969.0001,-1054.2218 965.5,-1044.2218 962.0001,-1054.2218 969.0001,-1054.2218"/>
</g>
<!-- 55 -->
<g id="node56" class="node">
<title>55</title>
<path fill="none" stroke="#568ad8" stroke-width="2" d="M940,-900C940,-900 811,-900 811,-900 805,-900 799,-894 799,-888 799,-888 799,-876 799,-876 799,-870 805,-864 811,-864 811,-864 940,-864 940,-864 946,-864 952,-870 952,-876 952,-876 952,-888 952,-888 952,-894 946,-900 940,-900"/>
<text text-anchor="middle" x="875.5" y="-879.5" font-family="sans" font-size="10.00" fill="#000000">shard_saturated_reads_remove</text>
</g>
<!-- 5&#45;&gt;55 -->
<g id="edge90" class="edge">
<title>5&#45;&gt;55</title>
<path fill="none" stroke="#c0c0c0" stroke-width="2" d="M932.5442,-1079.882C912.687,-1051.1813 889.5439,-1011.488 880.5,-972 875.8491,-951.6929 874.6832,-928.1682 874.6355,-910.2637"/>
<polygon fill="#c0c0c0" stroke="#c0c0c0" stroke-width="2" points="878.136,-910.2103 874.7238,-900.18 871.1363,-910.1489 878.136,-910.2103"/>
</g>
<!-- 6 -->
<g id="node7" class="node">
<title>6</title>
<path fill="none" stroke="#97d856" stroke-width="2" d="M1582,-1165C1582,-1165 1475,-1165 1475,-1165 1469,-1165 1463,-1159 1463,-1153 1463,-1153 1463,-1092 1463,-1092 1463,-1086 1469,-1080 1475,-1080 1475,-1080 1582,-1080 1582,-1080 1588,-1080 1594,-1086 1594,-1092 1594,-1092 1594,-1153 1594,-1153 1594,-1159 1588,-1165 1582,-1165"/>
<text text-anchor="middle" x="1528.5" y="-1153" font-family="sans" font-size="10.00" fill="#000000">bowtie2</text>
<text text-anchor="middle" x="1528.5" y="-1142" font-family="sans" font-size="10.00" fill="#000000">library: lib1</text>
<text text-anchor="middle" x="1528.5" y="-1131" font-family="sans" font-size="10.00" fill="#000000">n_shard: 1</text>
<text text-anchor="middle" x="1528.5" y="-1120" font-family="sans" font-size="10.00" fill="#000000">read_type_map: collapsed</text>
<text text-anchor="middle" x="1528.5" y="-1109" font-family="sans" font-size="10.00" fill="#000000">ref: wgs_eukaryota</text>
<text text-anchor="middle" x="1528.5" y="-1098" font-family="sans" font-size="10.00" fill="#000000">sample: HD827sonic_1</text>
<text text-anchor="middle" x="1528.5" y="-1087" font-family="sans" font-size="10.00" fill="#000000">tot_shards: 2</text>
</g>
<!-- 6&#45;&gt;1 -->
<g id="edge12" class="edge">
<title>6&#45;&gt;1</title>
<path fill="none" stroke="#c0c0c0" stroke-width="2" d="M1495.4337,-1079.9458C1477.8931,-1057.9678 1455.6455,-1031.0078 1434.5,-1008 1387.9231,-957.3209 1357.0348,-960.1098 1323.5,-900 1303.5365,-864.2163 1303.5,-850.9758 1303.5,-810 1303.5,-810 1303.5,-810 1303.5,-234 1303.5,-181.0682 1272.0154,-169.2605 1225.5,-144 1217.7951,-139.8158 970.6148,-107.3172 874.8674,-94.8483"/>
<polygon fill="#c0c0c0" stroke="#c0c0c0" stroke-width="2" points="875.1265,-91.3526 864.7585,-93.533 874.2233,-98.2941 875.1265,-91.3526"/>
</g>
<!-- 19 -->
<g id="node20" class="node">
<title>19</title>
<path fill="none" stroke="#56b9d8" stroke-width="2" d="M1563,-1044C1563,-1044 1494,-1044 1494,-1044 1488,-1044 1482,-1038 1482,-1032 1482,-1032 1482,-1020 1482,-1020 1482,-1014 1488,-1008 1494,-1008 1494,-1008 1563,-1008 1563,-1008 1569,-1008 1575,-1014 1575,-1020 1575,-1020 1575,-1032 1575,-1032 1575,-1038 1569,-1044 1563,-1044"/>
<text text-anchor="middle" x="1528.5" y="-1023.5" font-family="sans" font-size="10.00" fill="#000000">shard_count_alns</text>
</g>
<!-- 6&#45;&gt;19 -->
<g id="edge39" class="edge">
<title>6&#45;&gt;19</title>
<path fill="none" stroke="#c0c0c0" stroke-width="2" d="M1528.5,-1079.8928C1528.5,-1071.2842 1528.5,-1062.4327 1528.5,-1054.4546"/>
<polygon fill="#c0c0c0" stroke="#c0c0c0" stroke-width="2" points="1532.0001,-1054.2218 1528.5,-1044.2218 1525.0001,-1054.2218 1532.0001,-1054.2218"/>
</g>
<!-- 25 -->
<g id="node26" class="node">
<title>25</title>
<path fill="none" stroke="#568ad8" stroke-width="2" d="M1644,-900C1644,-900 1515,-900 1515,-900 1509,-900 1503,-894 1503,-888 1503,-888 1503,-876 1503,-876 1503,-870 1509,-864 1515,-864 1515,-864 1644,-864 1644,-864 1650,-864 1656,-870 1656,-876 1656,-876 1656,-888 1656,-888 1656,-894 1650,-900 1644,-900"/>
<text text-anchor="middle" x="1579.5" y="-879.5" font-family="sans" font-size="10.00" fill="#000000">shard_saturated_reads_remove</text>
</g>
<!-- 6&#45;&gt;25 -->
<g id="edge46" class="edge">
<title>6&#45;&gt;25</title>
<path fill="none" stroke="#c0c0c0" stroke-width="2" d="M1566.01,-1079.8766C1573.5912,-1068.8929 1580.4677,-1056.5956 1584.5,-1044 1598.9763,-998.7804 1592.1967,-942.7902 1585.8928,-909.874"/>
<polygon fill="#c0c0c0" stroke="#c0c0c0" stroke-width="2" points="1589.3154,-909.141 1583.8903,-900.0406 1582.4562,-910.5379 1589.3154,-909.141"/>
</g>
<!-- 7 -->
<g id="node8" class="node">
<title>7</title>
<path fill="none" stroke="#97d856" stroke-width="2" d="M391,-1165C391,-1165 284,-1165 284,-1165 278,-1165 272,-1159 272,-1153 272,-1153 272,-1092 272,-1092 272,-1086 278,-1080 284,-1080 284,-1080 391,-1080 391,-1080 397,-1080 403,-1086 403,-1092 403,-1092 403,-1153 403,-1153 403,-1159 397,-1165 391,-1165"/>
<text text-anchor="middle" x="337.5" y="-1153" font-family="sans" font-size="10.00" fill="#000000">bowtie2</text>
<text text-anchor="middle" x="337.5" y="-1142" font-family="sans" font-size="10.00" fill="#000000">library: lib1</text>
<text text-anchor="middle" x="337.5" y="-1131" font-family="sans" font-size="10.00" fill="#000000">n_shard: 1</text>
<text text-anchor="middle" x="337.5" y="-1120" font-family="sans" font-size="10.00" fill="#000000">read_type_map: collapsed</text>
<text text-anchor="middle" x="337.5" y="-1109" font-family="sans" font-size="10.00" fill="#000000">ref: wgs_eukaryota</text>
<text text-anchor="middle" x="337.5" y="-1098" font-family="sans" font-size="10.00" fill="#000000">sample: HD827sonic_2</text>
<text text-anchor="middle" x="337.5" y="-1087" font-family="sans" font-size="10.00" fill="#000000">tot_shards: 2</text>
</g>
<!-- 7&#45;&gt;1 -->
<g id="edge13" class="edge">
<title>7&#45;&gt;1</title>
<path fill="none" stroke="#c0c0c0" stroke-width="2" d="M403.0649,-1096.8498C442.6207,-1080.3735 488.2319,-1059.2765 503.5,-1044 681.0872,-866.3156 546.4772,-722.4658 670.5,-504 680.9241,-485.6379 688.7309,-484.816 701.5,-468 730.5729,-429.7132 761.5,-426.074 761.5,-378 761.5,-378 761.5,-378 761.5,-234 761.5,-188.656 791.3384,-143.5999 813.6226,-116.2735"/>
<polygon fill="#c0c0c0" stroke="#c0c0c0" stroke-width="2" points="816.5006,-118.2889 820.2544,-108.3814 811.1415,-113.7856 816.5006,-118.2889"/>
</g>
<!-- 34 -->
<g id="node35" class="node">
<title>34</title>
<path fill="none" stroke="#56b9d8" stroke-width="2" d="M372,-1044C372,-1044 303,-1044 303,-1044 297,-1044 291,-1038 291,-1032 291,-1032 291,-1020 291,-1020 291,-1014 297,-1008 303,-1008 303,-1008 372,-1008 372,-1008 378,-1008 384,-1014 384,-1020 384,-1020 384,-1032 384,-1032 384,-1038 378,-1044 372,-1044"/>
<text text-anchor="middle" x="337.5" y="-1023.5" font-family="sans" font-size="10.00" fill="#000000">shard_count_alns</text>
</g>
<!-- 7&#45;&gt;34 -->
<g id="edge61" class="edge">
<title>7&#45;&gt;34</title>
<path fill="none" stroke="#c0c0c0" stroke-width="2" d="M337.5,-1079.8928C337.5,-1071.2842 337.5,-1062.4327 337.5,-1054.4546"/>
<polygon fill="#c0c0c0" stroke="#c0c0c0" stroke-width="2" points="341.0001,-1054.2218 337.5,-1044.2218 334.0001,-1054.2218 341.0001,-1054.2218"/>
</g>
<!-- 40 -->
<g id="node41" class="node">
<title>40</title>
<path fill="none" stroke="#568ad8" stroke-width="2" d="M312,-900C312,-900 183,-900 183,-900 177,-900 171,-894 171,-888 171,-888 171,-876 171,-876 171,-870 177,-864 183,-864 183,-864 312,-864 312,-864 318,-864 324,-870 324,-876 324,-876 324,-888 324,-888 324,-894 318,-900 312,-900"/>
<text text-anchor="middle" x="247.5" y="-879.5" font-family="sans" font-size="10.00" fill="#000000">shard_saturated_reads_remove</text>
</g>
<!-- 7&#45;&gt;40 -->
<g id="edge68" class="edge">
<title>7&#45;&gt;40</title>
<path fill="none" stroke="#c0c0c0" stroke-width="2" d="M304.1985,-1079.6873C296.2129,-1068.4191 288.0966,-1056.0386 281.5,-1044 264.9222,-1013.7461 260.0015,-1005.6727 252.5,-972 247.9699,-951.6656 246.7992,-928.142 246.719,-910.2448"/>
<polygon fill="#c0c0c0" stroke="#c0c0c0" stroke-width="2" points="250.2194,-910.1889 246.7851,-900.1662 243.2195,-910.143 250.2194,-910.1889"/>
</g>
<!-- 8 -->
<g id="node9" class="node">
<title>8</title>
<path fill="none" stroke="#97d856" stroke-width="2" d="M1357,-1165C1357,-1165 1250,-1165 1250,-1165 1244,-1165 1238,-1159 1238,-1153 1238,-1153 1238,-1092 1238,-1092 1238,-1086 1244,-1080 1250,-1080 1250,-1080 1357,-1080 1357,-1080 1363,-1080 1369,-1086 1369,-1092 1369,-1092 1369,-1153 1369,-1153 1369,-1159 1363,-1165 1357,-1165"/>
<text text-anchor="middle" x="1303.5" y="-1153" font-family="sans" font-size="10.00" fill="#000000">bowtie2</text>
<text text-anchor="middle" x="1303.5" y="-1142" font-family="sans" font-size="10.00" fill="#000000">library: lib1</text>
<text text-anchor="middle" x="1303.5" y="-1131" font-family="sans" font-size="10.00" fill="#000000">n_shard: 1</text>
<text text-anchor="middle" x="1303.5" y="-1120" font-family="sans" font-size="10.00" fill="#000000">read_type_map: collapsed</text>
<text text-anchor="middle" x="1303.5" y="-1109" font-family="sans" font-size="10.00" fill="#000000">ref: refseq_mitochondrion</text>
<text text-anchor="middle" x="1303.5" y="-1098" font-family="sans" font-size="10.00" fill="#000000">sample: HD827sonic_1</text>
<text text-anchor="middle" x="1303.5" y="-1087" font-family="sans" font-size="10.00" fill="#000000">tot_shards: 1</text>
</g>
<!-- 8&#45;&gt;1 -->
<g id="edge14" class="edge">
<title>8&#45;&gt;1</title>
<path fill="none" stroke="#c0c0c0" stroke-width="2" d="M1288.3722,-1079.8083C1277.7752,-1046.0983 1265.5,-997.6328 1265.5,-954 1265.5,-954 1265.5,-954 1265.5,-234 1265.5,-179.2846 1229.8341,-169.6436 1181.5,-144 1167.9949,-136.8349 960.9926,-107.2694 874.7617,-95.1835"/>
<polygon fill="#c0c0c0" stroke="#c0c0c0" stroke-width="2" points="875.0135,-91.6848 864.625,-93.7654 874.0436,-98.6172 875.0135,-91.6848"/>
</g>
<!-- 18 -->
<g id="node19" class="node">
<title>18</title>
<path fill="none" stroke="#56b9d8" stroke-width="2" d="M1413,-1044C1413,-1044 1344,-1044 1344,-1044 1338,-1044 1332,-1038 1332,-1032 1332,-1032 1332,-1020 1332,-1020 1332,-1014 1338,-1008 1344,-1008 1344,-1008 1413,-1008 1413,-1008 1419,-1008 1425,-1014 1425,-1020 1425,-1020 1425,-1032 1425,-1032 1425,-1038 1419,-1044 1413,-1044"/>
<text text-anchor="middle" x="1378.5" y="-1023.5" font-family="sans" font-size="10.00" fill="#000000">shard_count_alns</text>
</g>
<!-- 8&#45;&gt;18 -->
<g id="edge38" class="edge">
<title>8&#45;&gt;18</title>
<path fill="none" stroke="#c0c0c0" stroke-width="2" d="M1336.6144,-1079.8928C1343.9133,-1070.5016 1351.4368,-1060.8213 1358.0586,-1052.3013"/>
<polygon fill="#c0c0c0" stroke="#c0c0c0" stroke-width="2" points="1360.9649,-1054.2653 1364.338,-1044.2218 1355.4379,-1049.9697 1360.9649,-1054.2653"/>
</g>
<!-- 22 -->
<g id="node23" class="node">
<title>22</title>
<path fill="none" stroke="#568ad8" stroke-width="2" d="M1473,-900C1473,-900 1344,-900 1344,-900 1338,-900 1332,-894 1332,-888 1332,-888 1332,-876 1332,-876 1332,-870 1338,-864 1344,-864 1344,-864 1473,-864 1473,-864 1479,-864 1485,-870 1485,-876 1485,-876 1485,-888 1485,-888 1485,-894 1479,-900 1473,-900"/>
<text text-anchor="middle" x="1408.5" y="-879.5" font-family="sans" font-size="10.00" fill="#000000">shard_saturated_reads_remove</text>
</g>
<!-- 8&#45;&gt;22 -->
<g id="edge42" class="edge">
<title>8&#45;&gt;22</title>
<path fill="none" stroke="#c0c0c0" stroke-width="2" d="M1306.6366,-1079.9957C1309.3215,-1057.908 1314.2952,-1030.8334 1323.5,-1008 1338.6797,-970.3454 1366.3164,-932.4393 1385.9534,-908.1855"/>
<polygon fill="#c0c0c0" stroke="#c0c0c0" stroke-width="2" points="1388.8757,-910.1427 1392.532,-900.1988 1383.4726,-905.6922 1388.8757,-910.1427"/>
</g>
<!-- 9 -->
<g id="node10" class="node">
<title>9</title>
<path fill="none" stroke="#97d856" stroke-width="2" d="M831,-1165C831,-1165 724,-1165 724,-1165 718,-1165 712,-1159 712,-1153 712,-1153 712,-1092 712,-1092 712,-1086 718,-1080 724,-1080 724,-1080 831,-1080 831,-1080 837,-1080 843,-1086 843,-1092 843,-1092 843,-1153 843,-1153 843,-1159 837,-1165 831,-1165"/>
<text text-anchor="middle" x="777.5" y="-1153" font-family="sans" font-size="10.00" fill="#000000">bowtie2</text>
<text text-anchor="middle" x="777.5" y="-1142" font-family="sans" font-size="10.00" fill="#000000">library: lib2</text>
<text text-anchor="middle" x="777.5" y="-1131" font-family="sans" font-size="10.00" fill="#000000">n_shard: 2</text>
<text text-anchor="middle" x="777.5" y="-1120" font-family="sans" font-size="10.00" fill="#000000">read_type_map: collapsed</text>
<text text-anchor="middle" x="777.5" y="-1109" font-family="sans" font-size="10.00" fill="#000000">ref: wgs_eukaryota</text>
<text text-anchor="middle" x="777.5" y="-1098" font-family="sans" font-size="10.00" fill="#000000">sample: HD827sonic_2</text>
<text text-anchor="middle" x="777.5" y="-1087" font-family="sans" font-size="10.00" fill="#000000">tot_shards: 2</text>
</g>
<!-- 9&#45;&gt;1 -->
<g id="edge15" class="edge">
<title>9&#45;&gt;1</title>
<path fill="none" stroke="#c0c0c0" stroke-width="2" d="M817.7382,-1079.8045C842.4841,-1055.7313 875.9861,-1026.8042 910.5,-1008 1016.6364,-950.1739 1151.5,-1002.8668 1151.5,-882 1151.5,-882 1151.5,-882 1151.5,-234 1151.5,-173.6216 957.2501,-119.1394 874.3173,-98.6302"/>
<polygon fill="#c0c0c0" stroke="#c0c0c0" stroke-width="2" points="875.0881,-95.2156 864.5432,-96.2432 873.4274,-102.0158 875.0881,-95.2156"/>
</g>
<!-- 45 -->
<g id="node46" class="node">
<title>45</title>
<path fill="none" stroke="#568ad8" stroke-width="2" d="M769,-900C769,-900 640,-900 640,-900 634,-900 628,-894 628,-888 628,-888 628,-876 628,-876 628,-870 634,-864 640,-864 640,-864 769,-864 769,-864 775,-864 781,-870 781,-876 781,-876 781,-888 781,-888 781,-894 775,-900 769,-900"/>
<text text-anchor="middle" x="704.5" y="-879.5" font-family="sans" font-size="10.00" fill="#000000">shard_saturated_reads_remove</text>
</g>
<!-- 9&#45;&gt;45 -->
<g id="edge76" class="edge">
<title>9&#45;&gt;45</title>
<path fill="none" stroke="#c0c0c0" stroke-width="2" d="M741.2154,-1079.9658C733.4921,-1068.8869 726.2442,-1056.5242 721.5,-1044 704.6695,-999.5693 702.6081,-943.6825 703.1794,-910.513"/>
<polygon fill="#c0c0c0" stroke="#c0c0c0" stroke-width="2" points="706.687,-910.2747 703.4565,-900.1844 699.6895,-910.0869 706.687,-910.2747"/>
</g>
<!-- 47 -->
<g id="node48" class="node">
<title>47</title>
<path fill="none" stroke="#56b9d8" stroke-width="2" d="M812,-1044C812,-1044 743,-1044 743,-1044 737,-1044 731,-1038 731,-1032 731,-1032 731,-1020 731,-1020 731,-1014 737,-1008 743,-1008 743,-1008 812,-1008 812,-1008 818,-1008 824,-1014 824,-1020 824,-1020 824,-1032 824,-1032 824,-1038 818,-1044 812,-1044"/>
<text text-anchor="middle" x="777.5" y="-1023.5" font-family="sans" font-size="10.00" fill="#000000">shard_count_alns</text>
</g>
<!-- 9&#45;&gt;47 -->
<g id="edge81" class="edge">
<title>9&#45;&gt;47</title>
<path fill="none" stroke="#c0c0c0" stroke-width="2" d="M777.5,-1079.8928C777.5,-1071.2842 777.5,-1062.4327 777.5,-1054.4546"/>
<polygon fill="#c0c0c0" stroke="#c0c0c0" stroke-width="2" points="781.0001,-1054.2218 777.5,-1044.2218 774.0001,-1054.2218 781.0001,-1054.2218"/>
</g>
<!-- 10 -->
<g id="node11" class="node">
<title>10</title>
<path fill="none" stroke="#97d856" stroke-width="2" d="M1807,-1165C1807,-1165 1700,-1165 1700,-1165 1694,-1165 1688,-1159 1688,-1153 1688,-1153 1688,-1092 1688,-1092 1688,-1086 1694,-1080 1700,-1080 1700,-1080 1807,-1080 1807,-1080 1813,-1080 1819,-1086 1819,-1092 1819,-1092 1819,-1153 1819,-1153 1819,-1159 1813,-1165 1807,-1165"/>
<text text-anchor="middle" x="1753.5" y="-1153" font-family="sans" font-size="10.00" fill="#000000">bowtie2</text>
<text text-anchor="middle" x="1753.5" y="-1142" font-family="sans" font-size="10.00" fill="#000000">library: lib1</text>
<text text-anchor="middle" x="1753.5" y="-1131" font-family="sans" font-size="10.00" fill="#000000">n_shard: 2</text>
<text text-anchor="middle" x="1753.5" y="-1120" font-family="sans" font-size="10.00" fill="#000000">read_type_map: collapsed</text>
<text text-anchor="middle" x="1753.5" y="-1109" font-family="sans" font-size="10.00" fill="#000000">ref: wgs_eukaryota</text>
<text text-anchor="middle" x="1753.5" y="-1098" font-family="sans" font-size="10.00" fill="#000000">sample: HD827sonic_1</text>
<text text-anchor="middle" x="1753.5" y="-1087" font-family="sans" font-size="10.00" fill="#000000">tot_shards: 2</text>
</g>
<!-- 10&#45;&gt;1 -->
<g id="edge16" class="edge">
<title>10&#45;&gt;1</title>
<path fill="none" stroke="#c0c0c0" stroke-width="2" d="M1797.053,-1079.8917C1824.7763,-1048.1074 1855.5,-1002.0451 1855.5,-954 1855.5,-954 1855.5,-954 1855.5,-234 1855.5,-132.9321 1058.6817,-97.9848 874.967,-91.2704"/>
<polygon fill="#c0c0c0" stroke="#c0c0c0" stroke-width="2" points="874.8483,-87.764 864.729,-90.9025 874.5968,-94.7595 874.8483,-87.764"/>
</g>
<!-- 15 -->
<g id="node16" class="node">
<title>15</title>
<path fill="none" stroke="#568ad8" stroke-width="2" d="M1815,-900C1815,-900 1686,-900 1686,-900 1680,-900 1674,-894 1674,-888 1674,-888 1674,-876 1674,-876 1674,-870 1680,-864 1686,-864 1686,-864 1815,-864 1815,-864 1821,-864 1827,-870 1827,-876 1827,-876 1827,-888 1827,-888 1827,-894 1821,-900 1815,-900"/>
<text text-anchor="middle" x="1750.5" y="-879.5" font-family="sans" font-size="10.00" fill="#000000">shard_saturated_reads_remove</text>
</g>
<!-- 10&#45;&gt;15 -->
<g id="edge32" class="edge">
<title>10&#45;&gt;15</title>
<path fill="none" stroke="#c0c0c0" stroke-width="2" d="M1752.9671,-1079.7805C1752.3568,-1030.8569 1751.3742,-952.0855 1750.8523,-910.2427"/>
<polygon fill="#c0c0c0" stroke="#c0c0c0" stroke-width="2" points="1754.3516,-910.1546 1750.727,-900.1991 1747.3521,-910.242 1754.3516,-910.1546"/>
</g>
<!-- 17 -->
<g id="node18" class="node">
<title>17</title>
<path fill="none" stroke="#56b9d8" stroke-width="2" d="M1713,-1044C1713,-1044 1644,-1044 1644,-1044 1638,-1044 1632,-1038 1632,-1032 1632,-1032 1632,-1020 1632,-1020 1632,-1014 1638,-1008 1644,-1008 1644,-1008 1713,-1008 1713,-1008 1719,-1008 1725,-1014 1725,-1020 1725,-1020 1725,-1032 1725,-1032 1725,-1038 1719,-1044 1713,-1044"/>
<text text-anchor="middle" x="1678.5" y="-1023.5" font-family="sans" font-size="10.00" fill="#000000">shard_count_alns</text>
</g>
<!-- 10&#45;&gt;17 -->
<g id="edge37" class="edge">
<title>10&#45;&gt;17</title>
<path fill="none" stroke="#c0c0c0" stroke-width="2" d="M1720.3856,-1079.8928C1713.0867,-1070.5016 1705.5632,-1060.8213 1698.9414,-1052.3013"/>
<polygon fill="#c0c0c0" stroke="#c0c0c0" stroke-width="2" points="1701.5621,-1049.9697 1692.662,-1044.2218 1696.0351,-1054.2653 1701.5621,-1049.9697"/>
</g>
<!-- 11 -->
<g id="node12" class="node">
<title>11</title>
<path fill="none" stroke="#c6d856" stroke-width="2" d="M1430.5,-396C1430.5,-396 1390.5,-396 1390.5,-396 1384.5,-396 1378.5,-390 1378.5,-384 1378.5,-384 1378.5,-372 1378.5,-372 1378.5,-366 1384.5,-360 1390.5,-360 1390.5,-360 1430.5,-360 1430.5,-360 1436.5,-360 1442.5,-366 1442.5,-372 1442.5,-372 1442.5,-384 1442.5,-384 1442.5,-390 1436.5,-396 1430.5,-396"/>
<text text-anchor="middle" x="1410.5" y="-375.5" font-family="sans" font-size="10.00" fill="#000000">align_stats</text>
</g>
<!-- 11&#45;&gt;1 -->
<g id="edge17" class="edge">
<title>11&#45;&gt;1</title>
<path fill="none" stroke="#c0c0c0" stroke-width="2" d="M1403.6114,-359.9487C1382.8649,-305.6785 1322.1147,-147.5008 1317.5,-144 1256.9691,-98.08 1052.9613,-116.845 977.5,-108 942.6453,-103.9146 902.9765,-98.7673 874.7864,-95.0246"/>
<polygon fill="#c0c0c0" stroke="#c0c0c0" stroke-width="2" points="874.9531,-91.5159 864.5783,-93.664 874.0282,-98.4545 874.9531,-91.5159"/>
</g>
<!-- 12 -->
<g id="node13" class="node">
<title>12</title>
<path fill="none" stroke="#d88556" stroke-width="2" d="M1566,-684C1566,-684 1521,-684 1521,-684 1515,-684 1509,-678 1509,-672 1509,-672 1509,-660 1509,-660 1509,-654 1515,-648 1521,-648 1521,-648 1566,-648 1566,-648 1572,-648 1578,-654 1578,-660 1578,-660 1578,-672 1578,-672 1578,-678 1572,-684 1566,-684"/>
<text text-anchor="middle" x="1543.5" y="-663.5" font-family="sans" font-size="10.00" fill="#000000">align_merge</text>
</g>
<!-- 12&#45;&gt;11 -->
<g id="edge26" class="edge">
<title>12&#45;&gt;11</title>
<path fill="none" stroke="#c0c0c0" stroke-width="2" d="M1521.526,-647.8311C1510.9388,-638.1197 1498.776,-625.416 1490.5,-612 1448.676,-544.2005 1425.4535,-451.7563 1415.8392,-406.0087"/>
<polygon fill="#c0c0c0" stroke="#c0c0c0" stroke-width="2" points="1419.2668,-405.3001 1413.8379,-396.2019 1412.4082,-406.6998 1419.2668,-405.3001"/>
</g>
<!-- 61 -->
<g id="node62" class="node">
<title>61</title>
<path fill="none" stroke="#d8bc56" stroke-width="2" d="M1575.5,-612C1575.5,-612 1511.5,-612 1511.5,-612 1505.5,-612 1499.5,-606 1499.5,-600 1499.5,-600 1499.5,-588 1499.5,-588 1499.5,-582 1505.5,-576 1511.5,-576 1511.5,-576 1575.5,-576 1575.5,-576 1581.5,-576 1587.5,-582 1587.5,-588 1587.5,-588 1587.5,-600 1587.5,-600 1587.5,-606 1581.5,-612 1575.5,-612"/>
<text text-anchor="middle" x="1543.5" y="-591.5" font-family="sans" font-size="10.00" fill="#000000">align_sort_coord</text>
</g>
<!-- 12&#45;&gt;61 -->
<g id="edge97" class="edge">
<title>12&#45;&gt;61</title>
<path fill="none" stroke="#c0c0c0" stroke-width="2" d="M1543.5,-647.8314C1543.5,-640.131 1543.5,-630.9743 1543.5,-622.4166"/>
<polygon fill="#c0c0c0" stroke="#c0c0c0" stroke-width="2" points="1547.0001,-622.4132 1543.5,-612.4133 1540.0001,-622.4133 1547.0001,-622.4132"/>
</g>
<!-- 13 -->
<g id="node14" class="node">
<title>13</title>
<path fill="none" stroke="#5673d8" stroke-width="2" d="M1709.5,-756C1709.5,-756 1641.5,-756 1641.5,-756 1635.5,-756 1629.5,-750 1629.5,-744 1629.5,-744 1629.5,-732 1629.5,-732 1629.5,-726 1635.5,-720 1641.5,-720 1641.5,-720 1709.5,-720 1709.5,-720 1715.5,-720 1721.5,-726 1721.5,-732 1721.5,-732 1721.5,-744 1721.5,-744 1721.5,-750 1715.5,-756 1709.5,-756"/>
<text text-anchor="middle" x="1675.5" y="-735.5" font-family="sans" font-size="10.00" fill="#000000">shard_sort_query</text>
</g>
<!-- 13&#45;&gt;12 -->
<g id="edge27" class="edge">
<title>13&#45;&gt;12</title>
<path fill="none" stroke="#c0c0c0" stroke-width="2" d="M1642.1908,-719.8314C1625.0727,-710.4942 1604.0294,-699.016 1585.7778,-689.0606"/>
<polygon fill="#c0c0c0" stroke="#c0c0c0" stroke-width="2" points="1587.2535,-685.8788 1576.7985,-684.1628 1583.9015,-692.024 1587.2535,-685.8788"/>
</g>
<!-- 14 -->
<g id="node15" class="node">
<title>14</title>
<path fill="none" stroke="#56d0d8" stroke-width="2" d="M1744.5,-828C1744.5,-828 1664.5,-828 1664.5,-828 1658.5,-828 1652.5,-822 1652.5,-816 1652.5,-816 1652.5,-804 1652.5,-804 1652.5,-798 1658.5,-792 1664.5,-792 1664.5,-792 1744.5,-792 1744.5,-792 1750.5,-792 1756.5,-798 1756.5,-804 1756.5,-804 1756.5,-816 1756.5,-816 1756.5,-822 1750.5,-828 1744.5,-828"/>
<text text-anchor="middle" x="1704.5" y="-807.5" font-family="sans" font-size="10.00" fill="#000000">shard_clean_header</text>
</g>
<!-- 14&#45;&gt;13 -->
<g id="edge30" class="edge">
<title>14&#45;&gt;13</title>
<path fill="none" stroke="#c0c0c0" stroke-width="2" d="M1697.1821,-791.8314C1694.0124,-783.9617 1690.23,-774.5712 1686.7187,-765.8533"/>
<polygon fill="#c0c0c0" stroke="#c0c0c0" stroke-width="2" points="1689.8992,-764.3815 1682.9165,-756.4133 1683.4061,-766.9968 1689.8992,-764.3815"/>
</g>
<!-- 15&#45;&gt;14 -->
<g id="edge31" class="edge">
<title>15&#45;&gt;14</title>
<path fill="none" stroke="#c0c0c0" stroke-width="2" d="M1738.8923,-863.8314C1733.7022,-855.7079 1727.4768,-845.9637 1721.7575,-837.0118"/>
<polygon fill="#c0c0c0" stroke="#c0c0c0" stroke-width="2" points="1724.5974,-834.9559 1716.264,-828.4133 1718.6985,-838.7246 1724.5974,-834.9559"/>
</g>
<!-- 16 -->
<g id="node17" class="node">
<title>16</title>
<path fill="none" stroke="#56a2d8" stroke-width="2" d="M1563.5,-972C1563.5,-972 1453.5,-972 1453.5,-972 1447.5,-972 1441.5,-966 1441.5,-960 1441.5,-960 1441.5,-948 1441.5,-948 1441.5,-942 1447.5,-936 1453.5,-936 1453.5,-936 1563.5,-936 1563.5,-936 1569.5,-936 1575.5,-942 1575.5,-948 1575.5,-948 1575.5,-960 1575.5,-960 1575.5,-966 1569.5,-972 1563.5,-972"/>
<text text-anchor="middle" x="1508.5" y="-951.5" font-family="sans" font-size="10.00" fill="#000000">shard_saturated_reads_get</text>
</g>
<!-- 16&#45;&gt;15 -->
<g id="edge33" class="edge">
<title>16&#45;&gt;15</title>
<path fill="none" stroke="#c0c0c0" stroke-width="2" d="M1569.2545,-935.9243C1602.9126,-925.9103 1644.9207,-913.412 1680.0174,-902.97"/>
<polygon fill="#c0c0c0" stroke="#c0c0c0" stroke-width="2" points="1681.1339,-906.2896 1689.7206,-900.0831 1679.1377,-899.5802 1681.1339,-906.2896"/>
</g>
<!-- 16&#45;&gt;22 -->
<g id="edge43" class="edge">
<title>16&#45;&gt;22</title>
<path fill="none" stroke="#c0c0c0" stroke-width="2" d="M1483.2658,-935.8314C1470.712,-926.7927 1455.3717,-915.7476 1441.8609,-906.0198"/>
<polygon fill="#c0c0c0" stroke="#c0c0c0" stroke-width="2" points="1443.8866,-903.1655 1433.7261,-900.1628 1439.7964,-908.8463 1443.8866,-903.1655"/>
</g>
<!-- 16&#45;&gt;25 -->
<g id="edge47" class="edge">
<title>16&#45;&gt;25</title>
<path fill="none" stroke="#c0c0c0" stroke-width="2" d="M1526.4163,-935.8314C1534.8442,-927.2848 1545.041,-916.9443 1554.236,-907.6198"/>
<polygon fill="#c0c0c0" stroke="#c0c0c0" stroke-width="2" points="1556.8131,-909.9912 1561.3425,-900.4133 1551.8289,-905.0761 1556.8131,-909.9912"/>
</g>
<!-- 17&#45;&gt;16 -->
<g id="edge34" class="edge">
<title>17&#45;&gt;16</title>
<path fill="none" stroke="#c0c0c0" stroke-width="2" d="M1635.6018,-1007.8314C1612.7643,-998.159 1584.502,-986.1891 1560.4313,-975.9944"/>
<polygon fill="#c0c0c0" stroke="#c0c0c0" stroke-width="2" points="1561.6629,-972.7151 1551.0897,-972.038 1558.9329,-979.1608 1561.6629,-972.7151"/>
</g>
<!-- 18&#45;&gt;16 -->
<g id="edge35" class="edge">
<title>18&#45;&gt;16</title>
<path fill="none" stroke="#c0c0c0" stroke-width="2" d="M1411.3045,-1007.8314C1428.0862,-998.5368 1448.6985,-987.1208 1466.6163,-977.1971"/>
<polygon fill="#c0c0c0" stroke="#c0c0c0" stroke-width="2" points="1468.6538,-980.0696 1475.706,-972.1628 1465.2623,-973.9461 1468.6538,-980.0696"/>
</g>
<!-- 19&#45;&gt;16 -->
<g id="edge36" class="edge">
<title>19&#45;&gt;16</title>
<path fill="none" stroke="#c0c0c0" stroke-width="2" d="M1523.4532,-1007.8314C1521.2906,-1000.0463 1518.7147,-990.7729 1516.3152,-982.1347"/>
<polygon fill="#c0c0c0" stroke="#c0c0c0" stroke-width="2" points="1519.6636,-981.1117 1513.6148,-972.4133 1512.919,-982.9852 1519.6636,-981.1117"/>
</g>
<!-- 20 -->
<g id="node21" class="node">
<title>20</title>
<path fill="none" stroke="#5673d8" stroke-width="2" d="M1469.5,-756C1469.5,-756 1401.5,-756 1401.5,-756 1395.5,-756 1389.5,-750 1389.5,-744 1389.5,-744 1389.5,-732 1389.5,-732 1389.5,-726 1395.5,-720 1401.5,-720 1401.5,-720 1469.5,-720 1469.5,-720 1475.5,-720 1481.5,-726 1481.5,-732 1481.5,-732 1481.5,-744 1481.5,-744 1481.5,-750 1475.5,-756 1469.5,-756"/>
<text text-anchor="middle" x="1435.5" y="-735.5" font-family="sans" font-size="10.00" fill="#000000">shard_sort_query</text>
</g>
<!-- 20&#45;&gt;12 -->
<g id="edge28" class="edge">
<title>20&#45;&gt;12</title>
<path fill="none" stroke="#c0c0c0" stroke-width="2" d="M1462.753,-719.8314C1476.4389,-710.7074 1493.1915,-699.539 1507.8827,-689.7449"/>
<polygon fill="#c0c0c0" stroke="#c0c0c0" stroke-width="2" points="1509.8767,-692.6221 1516.2558,-684.1628 1505.9938,-686.7977 1509.8767,-692.6221"/>
</g>
<!-- 21 -->
<g id="node22" class="node">
<title>21</title>
<path fill="none" stroke="#56d0d8" stroke-width="2" d="M1457.5,-828C1457.5,-828 1377.5,-828 1377.5,-828 1371.5,-828 1365.5,-822 1365.5,-816 1365.5,-816 1365.5,-804 1365.5,-804 1365.5,-798 1371.5,-792 1377.5,-792 1377.5,-792 1457.5,-792 1457.5,-792 1463.5,-792 1469.5,-798 1469.5,-804 1469.5,-804 1469.5,-816 1469.5,-816 1469.5,-822 1463.5,-828 1457.5,-828"/>
<text text-anchor="middle" x="1417.5" y="-807.5" font-family="sans" font-size="10.00" fill="#000000">shard_clean_header</text>
</g>
<!-- 21&#45;&gt;20 -->
<g id="edge40" class="edge">
<title>21&#45;&gt;20</title>
<path fill="none" stroke="#c0c0c0" stroke-width="2" d="M1422.0422,-791.8314C1423.9884,-784.0463 1426.3068,-774.7729 1428.4663,-766.1347"/>
<polygon fill="#c0c0c0" stroke="#c0c0c0" stroke-width="2" points="1431.8668,-766.9636 1430.8967,-756.4133 1425.0758,-765.2658 1431.8668,-766.9636"/>
</g>
<!-- 22&#45;&gt;21 -->
<g id="edge41" class="edge">
<title>22&#45;&gt;21</title>
<path fill="none" stroke="#c0c0c0" stroke-width="2" d="M1410.7711,-863.8314C1411.7336,-856.131 1412.8782,-846.9743 1413.9479,-838.4166"/>
<polygon fill="#c0c0c0" stroke="#c0c0c0" stroke-width="2" points="1417.4309,-838.7702 1415.1983,-828.4133 1410.4849,-837.9019 1417.4309,-838.7702"/>
</g>
<!-- 23 -->
<g id="node24" class="node">
<title>23</title>
<path fill="none" stroke="#5673d8" stroke-width="2" d="M1588.5,-756C1588.5,-756 1520.5,-756 1520.5,-756 1514.5,-756 1508.5,-750 1508.5,-744 1508.5,-744 1508.5,-732 1508.5,-732 1508.5,-726 1514.5,-720 1520.5,-720 1520.5,-720 1588.5,-720 1588.5,-720 1594.5,-720 1600.5,-726 1600.5,-732 1600.5,-732 1600.5,-744 1600.5,-744 1600.5,-750 1594.5,-756 1588.5,-756"/>
<text text-anchor="middle" x="1554.5" y="-735.5" font-family="sans" font-size="10.00" fill="#000000">shard_sort_query</text>
</g>
<!-- 23&#45;&gt;12 -->
<g id="edge29" class="edge">
<title>23&#45;&gt;12</title>
<path fill="none" stroke="#c0c0c0" stroke-width="2" d="M1551.7242,-719.8314C1550.5478,-712.131 1549.1489,-702.9743 1547.8414,-694.4166"/>
<polygon fill="#c0c0c0" stroke="#c0c0c0" stroke-width="2" points="1551.2833,-693.7699 1546.3131,-684.4133 1544.3636,-694.8272 1551.2833,-693.7699"/>
</g>
<!-- 24 -->
<g id="node25" class="node">
<title>24</title>
<path fill="none" stroke="#56d0d8" stroke-width="2" d="M1616.5,-828C1616.5,-828 1536.5,-828 1536.5,-828 1530.5,-828 1524.5,-822 1524.5,-816 1524.5,-816 1524.5,-804 1524.5,-804 1524.5,-798 1530.5,-792 1536.5,-792 1536.5,-792 1616.5,-792 1616.5,-792 1622.5,-792 1628.5,-798 1628.5,-804 1628.5,-804 1628.5,-816 1628.5,-816 1628.5,-822 1622.5,-828 1616.5,-828"/>
<text text-anchor="middle" x="1576.5" y="-807.5" font-family="sans" font-size="10.00" fill="#000000">shard_clean_header</text>
</g>
<!-- 24&#45;&gt;23 -->
<g id="edge44" class="edge">
<title>24&#45;&gt;23</title>
<path fill="none" stroke="#c0c0c0" stroke-width="2" d="M1570.9485,-791.8314C1568.5697,-784.0463 1565.7362,-774.7729 1563.0967,-766.1347"/>
<polygon fill="#c0c0c0" stroke="#c0c0c0" stroke-width="2" points="1566.3958,-764.954 1560.1263,-756.4133 1559.7013,-766.9996 1566.3958,-764.954"/>
</g>
<!-- 25&#45;&gt;24 -->
<g id="edge45" class="edge">
<title>25&#45;&gt;24</title>
<path fill="none" stroke="#c0c0c0" stroke-width="2" d="M1578.743,-863.8314C1578.4221,-856.131 1578.0406,-846.9743 1577.684,-838.4166"/>
<polygon fill="#c0c0c0" stroke="#c0c0c0" stroke-width="2" points="1581.1806,-838.2589 1577.2672,-828.4133 1574.1867,-838.5503 1581.1806,-838.2589"/>
</g>
<!-- 26 -->
<g id="node27" class="node">
<title>26</title>
<path fill="none" stroke="#c6d856" stroke-width="2" d="M466.5,-468C466.5,-468 426.5,-468 426.5,-468 420.5,-468 414.5,-462 414.5,-456 414.5,-456 414.5,-444 414.5,-444 414.5,-438 420.5,-432 426.5,-432 426.5,-432 466.5,-432 466.5,-432 472.5,-432 478.5,-438 478.5,-444 478.5,-444 478.5,-456 478.5,-456 478.5,-462 472.5,-468 466.5,-468"/>
<text text-anchor="middle" x="446.5" y="-447.5" font-family="sans" font-size="10.00" fill="#000000">align_stats</text>
</g>
<!-- 26&#45;&gt;1 -->
<g id="edge18" class="edge">
<title>26&#45;&gt;1</title>
<path fill="none" stroke="#c0c0c0" stroke-width="2" d="M478.7821,-445.7856C534.5227,-437.9694 645.8002,-419.8296 676.5,-396 712.1472,-368.3301 723.5,-351.1259 723.5,-306 723.5,-306 723.5,-306 723.5,-234 723.5,-192.6022 722.5955,-177.0688 747.5,-144 761.0976,-125.9448 782.6483,-112.7084 801.2524,-103.86"/>
<polygon fill="#c0c0c0" stroke="#c0c0c0" stroke-width="2" points="802.6975,-107.0479 810.377,-99.7489 799.8219,-100.6657 802.6975,-107.0479"/>
</g>
<!-- 27 -->
<g id="node28" class="node">
<title>27</title>
<path fill="none" stroke="#d88556" stroke-width="2" d="M344,-684C344,-684 299,-684 299,-684 293,-684 287,-678 287,-672 287,-672 287,-660 287,-660 287,-654 293,-648 299,-648 299,-648 344,-648 344,-648 350,-648 356,-654 356,-660 356,-660 356,-672 356,-672 356,-678 350,-684 344,-684"/>
<text text-anchor="middle" x="321.5" y="-663.5" font-family="sans" font-size="10.00" fill="#000000">align_merge</text>
</g>
<!-- 27&#45;&gt;26 -->
<g id="edge48" class="edge">
<title>27&#45;&gt;26</title>
<path fill="none" stroke="#c0c0c0" stroke-width="2" d="M342.4552,-647.9961C353.0296,-638.1379 365.4889,-625.2527 374.5,-612 403.9845,-568.6369 426.1142,-511.2384 437.6193,-477.693"/>
<polygon fill="#c0c0c0" stroke="#c0c0c0" stroke-width="2" points="440.9785,-478.6841 440.8451,-468.0901 434.3429,-476.455 440.9785,-478.6841"/>
</g>
<!-- 67 -->
<g id="node68" class="node">
<title>67</title>
<path fill="none" stroke="#d8bc56" stroke-width="2" d="M353.5,-612C353.5,-612 289.5,-612 289.5,-612 283.5,-612 277.5,-606 277.5,-600 277.5,-600 277.5,-588 277.5,-588 277.5,-582 283.5,-576 289.5,-576 289.5,-576 353.5,-576 353.5,-576 359.5,-576 365.5,-582 365.5,-588 365.5,-588 365.5,-600 365.5,-600 365.5,-606 359.5,-612 353.5,-612"/>
<text text-anchor="middle" x="321.5" y="-591.5" font-family="sans" font-size="10.00" fill="#000000">align_sort_coord</text>
</g>
<!-- 27&#45;&gt;67 -->
<g id="edge103" class="edge">
<title>27&#45;&gt;67</title>
<path fill="none" stroke="#c0c0c0" stroke-width="2" d="M321.5,-647.8314C321.5,-640.131 321.5,-630.9743 321.5,-622.4166"/>
<polygon fill="#c0c0c0" stroke="#c0c0c0" stroke-width="2" points="325.0001,-622.4132 321.5,-612.4133 318.0001,-622.4133 325.0001,-622.4132"/>
</g>
<!-- 28 -->
<g id="node29" class="node">
<title>28</title>
<path fill="none" stroke="#5673d8" stroke-width="2" d="M153.5,-756C153.5,-756 85.5,-756 85.5,-756 79.5,-756 73.5,-750 73.5,-744 73.5,-744 73.5,-732 73.5,-732 73.5,-726 79.5,-720 85.5,-720 85.5,-720 153.5,-720 153.5,-720 159.5,-720 165.5,-726 165.5,-732 165.5,-732 165.5,-744 165.5,-744 165.5,-750 159.5,-756 153.5,-756"/>
<text text-anchor="middle" x="119.5" y="-735.5" font-family="sans" font-size="10.00" fill="#000000">shard_sort_query</text>
</g>
<!-- 28&#45;&gt;27 -->
<g id="edge49" class="edge">
<title>28&#45;&gt;27</title>
<path fill="none" stroke="#c0c0c0" stroke-width="2" d="M165.5897,-721.572C199.1855,-709.5973 244.427,-693.4716 277.5208,-681.6758"/>
<polygon fill="#c0c0c0" stroke="#c0c0c0" stroke-width="2" points="278.6987,-684.9717 286.9431,-678.3173 276.3485,-678.378 278.6987,-684.9717"/>
</g>
<!-- 29 -->
<g id="node30" class="node">
<title>29</title>
<path fill="none" stroke="#56d0d8" stroke-width="2" d="M153.5,-828C153.5,-828 73.5,-828 73.5,-828 67.5,-828 61.5,-822 61.5,-816 61.5,-816 61.5,-804 61.5,-804 61.5,-798 67.5,-792 73.5,-792 73.5,-792 153.5,-792 153.5,-792 159.5,-792 165.5,-798 165.5,-804 165.5,-804 165.5,-816 165.5,-816 165.5,-822 159.5,-828 153.5,-828"/>
<text text-anchor="middle" x="113.5" y="-807.5" font-family="sans" font-size="10.00" fill="#000000">shard_clean_header</text>
</g>
<!-- 29&#45;&gt;28 -->
<g id="edge52" class="edge">
<title>29&#45;&gt;28</title>
<path fill="none" stroke="#c0c0c0" stroke-width="2" d="M115.0141,-791.8314C115.6558,-784.131 116.4188,-774.9743 117.1319,-766.4166"/>
<polygon fill="#c0c0c0" stroke="#c0c0c0" stroke-width="2" points="120.6229,-766.6694 117.9656,-756.4133 113.6471,-766.088 120.6229,-766.6694"/>
</g>
<!-- 30&#45;&gt;29 -->
<g id="edge53" class="edge">
<title>30&#45;&gt;29</title>
<path fill="none" stroke="#c0c0c0" stroke-width="2" d="M85.8367,-863.8314C89.9243,-855.8771 94.8104,-846.369 99.3309,-837.5723"/>
<polygon fill="#c0c0c0" stroke="#c0c0c0" stroke-width="2" points="102.5799,-838.9074 104.0376,-828.4133 96.3539,-835.7078 102.5799,-838.9074"/>
</g>
<!-- 31 -->
<g id="node32" class="node">
<title>31</title>
<path fill="none" stroke="#56a2d8" stroke-width="2" d="M383.5,-972C383.5,-972 273.5,-972 273.5,-972 267.5,-972 261.5,-966 261.5,-960 261.5,-960 261.5,-948 261.5,-948 261.5,-942 267.5,-936 273.5,-936 273.5,-936 383.5,-936 383.5,-936 389.5,-936 395.5,-942 395.5,-948 395.5,-948 395.5,-960 395.5,-960 395.5,-966 389.5,-972 383.5,-972"/>
<text text-anchor="middle" x="328.5" y="-951.5" font-family="sans" font-size="10.00" fill="#000000">shard_saturated_reads_get</text>
</g>
<!-- 31&#45;&gt;30 -->
<g id="edge55" class="edge">
<title>31&#45;&gt;30</title>
<path fill="none" stroke="#c0c0c0" stroke-width="2" d="M265.235,-935.9243C230.0363,-925.8675 186.0681,-913.3052 149.4269,-902.8363"/>
<polygon fill="#c0c0c0" stroke="#c0c0c0" stroke-width="2" points="150.3678,-899.4651 139.791,-900.0831 148.4447,-906.1958 150.3678,-899.4651"/>
</g>
<!-- 31&#45;&gt;37 -->
<g id="edge65" class="edge">
<title>31&#45;&gt;37</title>
<path fill="none" stroke="#c0c0c0" stroke-width="2" d="M351.2108,-935.8314C362.296,-926.9632 375.7954,-916.1637 387.7852,-906.5718"/>
<polygon fill="#c0c0c0" stroke="#c0c0c0" stroke-width="2" points="390.1742,-909.1429 395.7965,-900.1628 385.8013,-903.6768 390.1742,-909.1429"/>
</g>
<!-- 31&#45;&gt;40 -->
<g id="edge69" class="edge">
<title>31&#45;&gt;40</title>
<path fill="none" stroke="#c0c0c0" stroke-width="2" d="M308.0603,-935.8314C298.1795,-927.0485 286.1676,-916.3712 275.455,-906.8489"/>
<polygon fill="#c0c0c0" stroke="#c0c0c0" stroke-width="2" points="277.7326,-904.1906 267.9332,-900.1628 273.082,-909.4224 277.7326,-904.1906"/>
</g>
<!-- 32&#45;&gt;31 -->
<g id="edge56" class="edge">
<title>32&#45;&gt;31</title>
<path fill="none" stroke="#c0c0c0" stroke-width="2" d="M194.6693,-1007.8314C218.8223,-998.1162 248.7378,-986.0831 274.1556,-975.8592"/>
<polygon fill="#c0c0c0" stroke="#c0c0c0" stroke-width="2" points="275.6841,-979.017 283.6556,-972.038 273.0718,-972.5227 275.6841,-979.017"/>
</g>
<!-- 33&#45;&gt;31 -->
<g id="edge57" class="edge">
<title>33&#45;&gt;31</title>
<path fill="none" stroke="#c0c0c0" stroke-width="2" d="M418.2189,-1007.8314C402.8702,-998.6221 384.0502,-987.3301 367.6177,-977.4706"/>
<polygon fill="#c0c0c0" stroke="#c0c0c0" stroke-width="2" points="369.1471,-974.3066 358.7714,-972.1628 365.5456,-980.3091 369.1471,-974.3066"/>
</g>
<!-- 34&#45;&gt;31 -->
<g id="edge58" class="edge">
<title>34&#45;&gt;31</title>
<path fill="none" stroke="#c0c0c0" stroke-width="2" d="M335.2289,-1007.8314C334.2664,-1000.131 333.1218,-990.9743 332.0521,-982.4166"/>
<polygon fill="#c0c0c0" stroke="#c0c0c0" stroke-width="2" points="335.5151,-981.9019 330.8017,-972.4133 328.5691,-982.7702 335.5151,-981.9019"/>
</g>
<!-- 35 -->
<g id="node36" class="node">
<title>35</title>
<path fill="none" stroke="#5673d8" stroke-width="2" d="M424.5,-756C424.5,-756 356.5,-756 356.5,-756 350.5,-756 344.5,-750 344.5,-744 344.5,-744 344.5,-732 344.5,-732 344.5,-726 350.5,-720 356.5,-720 356.5,-720 424.5,-720 424.5,-720 430.5,-720 436.5,-726 436.5,-732 436.5,-732 436.5,-744 436.5,-744 436.5,-750 430.5,-756 424.5,-756"/>
<text text-anchor="middle" x="390.5" y="-735.5" font-family="sans" font-size="10.00" fill="#000000">shard_sort_query</text>
</g>
<!-- 35&#45;&gt;27 -->
<g id="edge50" class="edge">
<title>35&#45;&gt;27</title>
<path fill="none" stroke="#c0c0c0" stroke-width="2" d="M373.0884,-719.8314C364.979,-711.3694 355.1844,-701.1489 346.318,-691.8971"/>
<polygon fill="#c0c0c0" stroke="#c0c0c0" stroke-width="2" points="348.5921,-689.2115 339.146,-684.4133 343.5382,-694.0549 348.5921,-689.2115"/>
</g>
<!-- 36 -->
<g id="node37" class="node">
<title>36</title>
<path fill="none" stroke="#56d0d8" stroke-width="2" d="M445.5,-828C445.5,-828 365.5,-828 365.5,-828 359.5,-828 353.5,-822 353.5,-816 353.5,-816 353.5,-804 353.5,-804 353.5,-798 359.5,-792 365.5,-792 365.5,-792 445.5,-792 445.5,-792 451.5,-792 457.5,-798 457.5,-804 457.5,-804 457.5,-816 457.5,-816 457.5,-822 451.5,-828 445.5,-828"/>
<text text-anchor="middle" x="405.5" y="-807.5" font-family="sans" font-size="10.00" fill="#000000">shard_clean_header</text>
</g>
<!-- 36&#45;&gt;35 -->
<g id="edge62" class="edge">
<title>36&#45;&gt;35</title>
<path fill="none" stroke="#c0c0c0" stroke-width="2" d="M401.7149,-791.8314C400.1106,-784.131 398.203,-774.9743 396.4201,-766.4166"/>
<polygon fill="#c0c0c0" stroke="#c0c0c0" stroke-width="2" points="399.8021,-765.4892 394.3361,-756.4133 392.9493,-766.9169 399.8021,-765.4892"/>
</g>
<!-- 37&#45;&gt;36 -->
<g id="edge63" class="edge">
<title>37&#45;&gt;36</title>
<path fill="none" stroke="#c0c0c0" stroke-width="2" d="M415.2196,-863.8314C413.8292,-856.131 412.1759,-846.9743 410.6308,-838.4166"/>
<polygon fill="#c0c0c0" stroke="#c0c0c0" stroke-width="2" points="414.0458,-837.6322 408.8246,-828.4133 407.1572,-838.8761 414.0458,-837.6322"/>
</g>
<!-- 38 -->
<g id="node39" class="node">
<title>38</title>
<path fill="none" stroke="#5673d8" stroke-width="2" d="M308.5,-756C308.5,-756 240.5,-756 240.5,-756 234.5,-756 228.5,-750 228.5,-744 228.5,-744 228.5,-732 228.5,-732 228.5,-726 234.5,-720 240.5,-720 240.5,-720 308.5,-720 308.5,-720 314.5,-720 320.5,-726 320.5,-732 320.5,-732 320.5,-744 320.5,-744 320.5,-750 314.5,-756 308.5,-756"/>
<text text-anchor="middle" x="274.5" y="-735.5" font-family="sans" font-size="10.00" fill="#000000">shard_sort_query</text>
</g>
<!-- 38&#45;&gt;27 -->
<g id="edge51" class="edge">
<title>38&#45;&gt;27</title>
<path fill="none" stroke="#c0c0c0" stroke-width="2" d="M286.3601,-719.8314C291.6629,-711.7079 298.0237,-701.9637 303.8673,-693.0118"/>
<polygon fill="#c0c0c0" stroke="#c0c0c0" stroke-width="2" points="306.9448,-694.7003 309.4802,-684.4133 301.0831,-690.8739 306.9448,-694.7003"/>
</g>
<!-- 39 -->
<g id="node40" class="node">
<title>39</title>
<path fill="none" stroke="#56d0d8" stroke-width="2" d="M299.5,-828C299.5,-828 219.5,-828 219.5,-828 213.5,-828 207.5,-822 207.5,-816 207.5,-816 207.5,-804 207.5,-804 207.5,-798 213.5,-792 219.5,-792 219.5,-792 299.5,-792 299.5,-792 305.5,-792 311.5,-798 311.5,-804 311.5,-804 311.5,-816 311.5,-816 311.5,-822 305.5,-828 299.5,-828"/>
<text text-anchor="middle" x="259.5" y="-807.5" font-family="sans" font-size="10.00" fill="#000000">shard_clean_header</text>
</g>
<!-- 39&#45;&gt;38 -->
<g id="edge66" class="edge">
<title>39&#45;&gt;38</title>
<path fill="none" stroke="#c0c0c0" stroke-width="2" d="M263.2851,-791.8314C264.8894,-784.131 266.797,-774.9743 268.5799,-766.4166"/>
<polygon fill="#c0c0c0" stroke="#c0c0c0" stroke-width="2" points="272.0507,-766.9169 270.6639,-756.4133 265.1979,-765.4892 272.0507,-766.9169"/>
</g>
<!-- 40&#45;&gt;39 -->
<g id="edge67" class="edge">
<title>40&#45;&gt;39</title>
<path fill="none" stroke="#c0c0c0" stroke-width="2" d="M250.5281,-863.8314C251.8115,-856.131 253.3376,-846.9743 254.7639,-838.4166"/>
<polygon fill="#c0c0c0" stroke="#c0c0c0" stroke-width="2" points="258.2394,-838.8526 256.4311,-828.4133 251.3347,-837.7018 258.2394,-838.8526"/>
</g>
<!-- 41 -->
<g id="node42" class="node">
<title>41</title>
<path fill="none" stroke="#c6d856" stroke-width="2" d="M857.5,-540C857.5,-540 817.5,-540 817.5,-540 811.5,-540 805.5,-534 805.5,-528 805.5,-528 805.5,-516 805.5,-516 805.5,-510 811.5,-504 817.5,-504 817.5,-504 857.5,-504 857.5,-504 863.5,-504 869.5,-510 869.5,-516 869.5,-516 869.5,-528 869.5,-528 869.5,-534 863.5,-540 857.5,-540"/>
<text text-anchor="middle" x="837.5" y="-519.5" font-family="sans" font-size="10.00" fill="#000000">align_stats</text>
</g>
<!-- 41&#45;&gt;1 -->
<g id="edge19" class="edge">
<title>41&#45;&gt;1</title>
<path fill="none" stroke="#c0c0c0" stroke-width="2" d="M837.5,-503.8146C837.5,-476.4983 837.5,-423.25 837.5,-378 837.5,-378 837.5,-378 837.5,-234 837.5,-193.876 837.5,-147.4631 837.5,-118.4177"/>
<polygon fill="#c0c0c0" stroke="#c0c0c0" stroke-width="2" points="841.0001,-118.1853 837.5,-108.1854 834.0001,-118.1854 841.0001,-118.1853"/>
</g>
<!-- 42 -->
<g id="node43" class="node">
<title>42</title>
<path fill="none" stroke="#d88556" stroke-width="2" d="M860,-684C860,-684 815,-684 815,-684 809,-684 803,-678 803,-672 803,-672 803,-660 803,-660 803,-654 809,-648 815,-648 815,-648 860,-648 860,-648 866,-648 872,-654 872,-660 872,-660 872,-672 872,-672 872,-678 866,-684 860,-684"/>
<text text-anchor="middle" x="837.5" y="-663.5" font-family="sans" font-size="10.00" fill="#000000">align_merge</text>
</g>
<!-- 42&#45;&gt;41 -->
<g id="edge70" class="edge">
<title>42&#45;&gt;41</title>
<path fill="none" stroke="#c0c0c0" stroke-width="2" d="M837.5,-647.7623C837.5,-623.201 837.5,-579.2474 837.5,-550.3541"/>
<polygon fill="#c0c0c0" stroke="#c0c0c0" stroke-width="2" points="841.0001,-550.0896 837.5,-540.0896 834.0001,-550.0897 841.0001,-550.0896"/>
</g>
<!-- 73 -->
<g id="node74" class="node">
<title>73</title>
<path fill="none" stroke="#d8bc56" stroke-width="2" d="M790.5,-612C790.5,-612 726.5,-612 726.5,-612 720.5,-612 714.5,-606 714.5,-600 714.5,-600 714.5,-588 714.5,-588 714.5,-582 720.5,-576 726.5,-576 726.5,-576 790.5,-576 790.5,-576 796.5,-576 802.5,-582 802.5,-588 802.5,-588 802.5,-600 802.5,-600 802.5,-606 796.5,-612 790.5,-612"/>
<text text-anchor="middle" x="758.5" y="-591.5" font-family="sans" font-size="10.00" fill="#000000">align_sort_coord</text>
</g>
<!-- 42&#45;&gt;73 -->
<g id="edge109" class="edge">
<title>42&#45;&gt;73</title>
<path fill="none" stroke="#c0c0c0" stroke-width="2" d="M817.565,-647.8314C808.0217,-639.1337 796.4401,-628.5783 786.0694,-619.1265"/>
<polygon fill="#c0c0c0" stroke="#c0c0c0" stroke-width="2" points="788.1772,-616.3121 778.4287,-612.1628 783.462,-621.4857 788.1772,-616.3121"/>
</g>
<!-- 43 -->
<g id="node44" class="node">
<title>43</title>
<path fill="none" stroke="#5673d8" stroke-width="2" d="M760.5,-756C760.5,-756 692.5,-756 692.5,-756 686.5,-756 680.5,-750 680.5,-744 680.5,-744 680.5,-732 680.5,-732 680.5,-726 686.5,-720 692.5,-720 692.5,-720 760.5,-720 760.5,-720 766.5,-720 772.5,-726 772.5,-732 772.5,-732 772.5,-744 772.5,-744 772.5,-750 766.5,-756 760.5,-756"/>
<text text-anchor="middle" x="726.5" y="-735.5" font-family="sans" font-size="10.00" fill="#000000">shard_sort_query</text>
</g>
<!-- 43&#45;&gt;42 -->
<g id="edge71" class="edge">
<title>43&#45;&gt;42</title>
<path fill="none" stroke="#c0c0c0" stroke-width="2" d="M754.51,-719.8314C768.5761,-710.7074 785.794,-699.539 800.8933,-689.7449"/>
<polygon fill="#c0c0c0" stroke="#c0c0c0" stroke-width="2" points="803.014,-692.5412 809.499,-684.1628 799.2047,-686.6684 803.014,-692.5412"/>
</g>
<!-- 44 -->
<g id="node45" class="node">
<title>44</title>
<path fill="none" stroke="#56d0d8" stroke-width="2" d="M761.5,-828C761.5,-828 681.5,-828 681.5,-828 675.5,-828 669.5,-822 669.5,-816 669.5,-816 669.5,-804 669.5,-804 669.5,-798 675.5,-792 681.5,-792 681.5,-792 761.5,-792 761.5,-792 767.5,-792 773.5,-798 773.5,-804 773.5,-804 773.5,-816 773.5,-816 773.5,-822 767.5,-828 761.5,-828"/>
<text text-anchor="middle" x="721.5" y="-807.5" font-family="sans" font-size="10.00" fill="#000000">shard_clean_header</text>
</g>
<!-- 44&#45;&gt;43 -->
<g id="edge74" class="edge">
<title>44&#45;&gt;43</title>
<path fill="none" stroke="#c0c0c0" stroke-width="2" d="M722.7617,-791.8314C723.2965,-784.131 723.9323,-774.9743 724.5266,-766.4166"/>
<polygon fill="#c0c0c0" stroke="#c0c0c0" stroke-width="2" points="728.02,-766.6317 725.2213,-756.4133 721.0368,-766.1467 728.02,-766.6317"/>
</g>
<!-- 45&#45;&gt;44 -->
<g id="edge75" class="edge">
<title>45&#45;&gt;44</title>
<path fill="none" stroke="#c0c0c0" stroke-width="2" d="M708.7898,-863.8314C710.608,-856.131 712.7699,-846.9743 714.7905,-838.4166"/>
<polygon fill="#c0c0c0" stroke="#c0c0c0" stroke-width="2" points="718.2608,-838.95 717.1524,-828.4133 711.4481,-837.3414 718.2608,-838.95"/>
</g>
<!-- 46 -->
<g id="node47" class="node">
<title>46</title>
<path fill="none" stroke="#56a2d8" stroke-width="2" d="M1011.5,-972C1011.5,-972 901.5,-972 901.5,-972 895.5,-972 889.5,-966 889.5,-960 889.5,-960 889.5,-948 889.5,-948 889.5,-942 895.5,-936 901.5,-936 901.5,-936 1011.5,-936 1011.5,-936 1017.5,-936 1023.5,-942 1023.5,-948 1023.5,-948 1023.5,-960 1023.5,-960 1023.5,-966 1017.5,-972 1011.5,-972"/>
<text text-anchor="middle" x="956.5" y="-951.5" font-family="sans" font-size="10.00" fill="#000000">shard_saturated_reads_get</text>
</g>
<!-- 46&#45;&gt;45 -->
<g id="edge77" class="edge">
<title>46&#45;&gt;45</title>
<path fill="none" stroke="#c0c0c0" stroke-width="2" d="M893.235,-935.9243C858.0363,-925.8675 814.0681,-913.3052 777.4269,-902.8363"/>
<polygon fill="#c0c0c0" stroke="#c0c0c0" stroke-width="2" points="778.3678,-899.4651 767.791,-900.0831 776.4447,-906.1958 778.3678,-899.4651"/>
</g>
<!-- 46&#45;&gt;52 -->
<g id="edge87" class="edge">
<title>46&#45;&gt;52</title>
<path fill="none" stroke="#c0c0c0" stroke-width="2" d="M979.2108,-935.8314C990.296,-926.9632 1003.7954,-916.1637 1015.7852,-906.5718"/>
<polygon fill="#c0c0c0" stroke="#c0c0c0" stroke-width="2" points="1018.1742,-909.1429 1023.7965,-900.1628 1013.8013,-903.6768 1018.1742,-909.1429"/>
</g>
<!-- 46&#45;&gt;55 -->
<g id="edge91" class="edge">
<title>46&#45;&gt;55</title>
<path fill="none" stroke="#c0c0c0" stroke-width="2" d="M936.0603,-935.8314C926.1795,-927.0485 914.1676,-916.3712 903.455,-906.8489"/>
<polygon fill="#c0c0c0" stroke="#c0c0c0" stroke-width="2" points="905.7326,-904.1906 895.9332,-900.1628 901.082,-909.4224 905.7326,-904.1906"/>
</g>
<!-- 47&#45;&gt;46 -->
<g id="edge78" class="edge">
<title>47&#45;&gt;46</title>
<path fill="none" stroke="#c0c0c0" stroke-width="2" d="M822.6693,-1007.8314C846.8223,-998.1162 876.7378,-986.0831 902.1556,-975.8592"/>
<polygon fill="#c0c0c0" stroke="#c0c0c0" stroke-width="2" points="903.6841,-979.017 911.6556,-972.038 901.0718,-972.5227 903.6841,-979.017"/>
</g>
<!-- 48&#45;&gt;46 -->
<g id="edge79" class="edge">
<title>48&#45;&gt;46</title>
<path fill="none" stroke="#c0c0c0" stroke-width="2" d="M1046.2189,-1007.8314C1030.8702,-998.6221 1012.0502,-987.3301 995.6177,-977.4706"/>
<polygon fill="#c0c0c0" stroke="#c0c0c0" stroke-width="2" points="997.1471,-974.3066 986.7714,-972.1628 993.5456,-980.3091 997.1471,-974.3066"/>
</g>
<!-- 49&#45;&gt;46 -->
<g id="edge80" class="edge">
<title>49&#45;&gt;46</title>
<path fill="none" stroke="#c0c0c0" stroke-width="2" d="M963.2289,-1007.8314C962.2664,-1000.131 961.1218,-990.9743 960.0521,-982.4166"/>
<polygon fill="#c0c0c0" stroke="#c0c0c0" stroke-width="2" points="963.5151,-981.9019 958.8017,-972.4133 956.5691,-982.7702 963.5151,-981.9019"/>
</g>
<!-- 50 -->
<g id="node51" class="node">
<title>50</title>
<path fill="none" stroke="#5673d8" stroke-width="2" d="M1021.5,-756C1021.5,-756 953.5,-756 953.5,-756 947.5,-756 941.5,-750 941.5,-744 941.5,-744 941.5,-732 941.5,-732 941.5,-726 947.5,-720 953.5,-720 953.5,-720 1021.5,-720 1021.5,-720 1027.5,-720 1033.5,-726 1033.5,-732 1033.5,-732 1033.5,-744 1033.5,-744 1033.5,-750 1027.5,-756 1021.5,-756"/>
<text text-anchor="middle" x="987.5" y="-735.5" font-family="sans" font-size="10.00" fill="#000000">shard_sort_query</text>
</g>
<!-- 50&#45;&gt;42 -->
<g id="edge72" class="edge">
<title>50&#45;&gt;42</title>
<path fill="none" stroke="#c0c0c0" stroke-width="2" d="M949.6487,-719.8314C928.7649,-709.8072 902.7401,-697.3153 881.0192,-686.8892"/>
<polygon fill="#c0c0c0" stroke="#c0c0c0" stroke-width="2" points="882.5311,-683.7326 872.0013,-682.5606 879.5019,-690.0433 882.5311,-683.7326"/>
</g>
<!-- 51 -->
<g id="node52" class="node">
<title>51</title>
<path fill="none" stroke="#56d0d8" stroke-width="2" d="M1062.5,-828C1062.5,-828 982.5,-828 982.5,-828 976.5,-828 970.5,-822 970.5,-816 970.5,-816 970.5,-804 970.5,-804 970.5,-798 976.5,-792 982.5,-792 982.5,-792 1062.5,-792 1062.5,-792 1068.5,-792 1074.5,-798 1074.5,-804 1074.5,-804 1074.5,-816 1074.5,-816 1074.5,-822 1068.5,-828 1062.5,-828"/>
<text text-anchor="middle" x="1022.5" y="-807.5" font-family="sans" font-size="10.00" fill="#000000">shard_clean_header</text>
</g>
<!-- 51&#45;&gt;50 -->
<g id="edge84" class="edge">
<title>51&#45;&gt;50</title>
<path fill="none" stroke="#c0c0c0" stroke-width="2" d="M1013.668,-791.8314C1009.8014,-783.8771 1005.1794,-774.369 1000.9032,-765.5723"/>
<polygon fill="#c0c0c0" stroke="#c0c0c0" stroke-width="2" points="1003.9707,-763.8768 996.4509,-756.4133 997.6751,-766.9371 1003.9707,-763.8768"/>
</g>
<!-- 52&#45;&gt;51 -->
<g id="edge85" class="edge">
<title>52&#45;&gt;51</title>
<path fill="none" stroke="#c0c0c0" stroke-width="2" d="M1040.4438,-863.8314C1037.8488,-856.0463 1034.7576,-846.7729 1031.8782,-838.1347"/>
<polygon fill="#c0c0c0" stroke="#c0c0c0" stroke-width="2" points="1035.1205,-836.7933 1028.6378,-828.4133 1028.4797,-839.0069 1035.1205,-836.7933"/>
</g>
<!-- 53 -->
<g id="node54" class="node">
<title>53</title>
<path fill="none" stroke="#5673d8" stroke-width="2" d="M876.5,-756C876.5,-756 808.5,-756 808.5,-756 802.5,-756 796.5,-750 796.5,-744 796.5,-744 796.5,-732 796.5,-732 796.5,-726 802.5,-720 808.5,-720 808.5,-720 876.5,-720 876.5,-720 882.5,-720 888.5,-726 888.5,-732 888.5,-732 888.5,-744 888.5,-744 888.5,-750 882.5,-756 876.5,-756"/>
<text text-anchor="middle" x="842.5" y="-735.5" font-family="sans" font-size="10.00" fill="#000000">shard_sort_query</text>
</g>
<!-- 53&#45;&gt;42 -->
<g id="edge73" class="edge">
<title>53&#45;&gt;42</title>
<path fill="none" stroke="#c0c0c0" stroke-width="2" d="M841.2383,-719.8314C840.7035,-712.131 840.0677,-702.9743 839.4734,-694.4166"/>
<polygon fill="#c0c0c0" stroke="#c0c0c0" stroke-width="2" points="842.9632,-694.1467 838.7787,-684.4133 835.98,-694.6317 842.9632,-694.1467"/>
</g>
<!-- 54 -->
<g id="node55" class="node">
<title>54</title>
<path fill="none" stroke="#56d0d8" stroke-width="2" d="M902.5,-828C902.5,-828 822.5,-828 822.5,-828 816.5,-828 810.5,-822 810.5,-816 810.5,-816 810.5,-804 810.5,-804 810.5,-798 816.5,-792 822.5,-792 822.5,-792 902.5,-792 902.5,-792 908.5,-792 914.5,-798 914.5,-804 914.5,-804 914.5,-816 914.5,-816 914.5,-822 908.5,-828 902.5,-828"/>
<text text-anchor="middle" x="862.5" y="-807.5" font-family="sans" font-size="10.00" fill="#000000">shard_clean_header</text>
</g>
<!-- 54&#45;&gt;53 -->
<g id="edge88" class="edge">
<title>54&#45;&gt;53</title>
<path fill="none" stroke="#c0c0c0" stroke-width="2" d="M857.4532,-791.8314C855.2906,-784.0463 852.7147,-774.7729 850.3152,-766.1347"/>
<polygon fill="#c0c0c0" stroke="#c0c0c0" stroke-width="2" points="853.6636,-765.1117 847.6148,-756.4133 846.919,-766.9852 853.6636,-765.1117"/>
</g>
<!-- 55&#45;&gt;54 -->
<g id="edge89" class="edge">
<title>55&#45;&gt;54</title>
<path fill="none" stroke="#c0c0c0" stroke-width="2" d="M872.2196,-863.8314C870.8292,-856.131 869.1759,-846.9743 867.6308,-838.4166"/>
<polygon fill="#c0c0c0" stroke="#c0c0c0" stroke-width="2" points="871.0458,-837.6322 865.8246,-828.4133 864.1572,-838.8761 871.0458,-837.6322"/>
</g>
<!-- 56 -->
<g id="node57" class="node">
<title>56</title>
<path fill="none" stroke="#56d892" stroke-width="2" d="M1436.5,-252C1436.5,-252 1384.5,-252 1384.5,-252 1378.5,-252 1372.5,-246 1372.5,-240 1372.5,-240 1372.5,-228 1372.5,-228 1372.5,-222 1378.5,-216 1384.5,-216 1384.5,-216 1436.5,-216 1436.5,-216 1442.5,-216 1448.5,-222 1448.5,-228 1448.5,-228 1448.5,-240 1448.5,-240 1448.5,-246 1442.5,-252 1436.5,-252"/>
<text text-anchor="middle" x="1410.5" y="-231.5" font-family="sans" font-size="10.00" fill="#000000">metadmg_dfit</text>
</g>
<!-- 56&#45;&gt;1 -->
<g id="edge20" class="edge">
<title>56&#45;&gt;1</title>
<path fill="none" stroke="#c0c0c0" stroke-width="2" d="M1404.9618,-215.9792C1397.4404,-194.8522 1381.8242,-160.6163 1355.5,-144 1314.9928,-118.431 986.5966,-98.1908 874.6913,-91.9779"/>
<polygon fill="#c0c0c0" stroke="#c0c0c0" stroke-width="2" points="874.7316,-88.4749 864.5545,-91.4208 874.3473,-95.4644 874.7316,-88.4749"/>
</g>
<!-- 74 -->
<g id="node75" class="node">
<title>74</title>
<path fill="none" stroke="#56d863" stroke-width="2" d="M1501,-180C1501,-180 1420,-180 1420,-180 1414,-180 1408,-174 1408,-168 1408,-168 1408,-156 1408,-156 1408,-150 1414,-144 1420,-144 1420,-144 1501,-144 1501,-144 1507,-144 1513,-150 1513,-156 1513,-156 1513,-168 1513,-168 1513,-174 1507,-180 1501,-180"/>
<text text-anchor="middle" x="1460.5" y="-159.5" font-family="sans" font-size="10.00" fill="#000000">metadmg_aggregate</text>
</g>
<!-- 56&#45;&gt;74 -->
<g id="edge111" class="edge">
<title>56&#45;&gt;74</title>
<path fill="none" stroke="#c0c0c0" stroke-width="2" d="M1423.1171,-215.8314C1428.8172,-207.6232 1435.6663,-197.7606 1441.9359,-188.7323"/>
<polygon fill="#c0c0c0" stroke="#c0c0c0" stroke-width="2" points="1444.8838,-190.6234 1447.713,-180.4133 1439.1342,-186.6306 1444.8838,-190.6234"/>
</g>
<!-- 57 -->
<g id="node58" class="node">
<title>57</title>
<path fill="none" stroke="#56d8a9" stroke-width="2" d="M1502,-324C1502,-324 1451,-324 1451,-324 1445,-324 1439,-318 1439,-312 1439,-312 1439,-300 1439,-300 1439,-294 1445,-288 1451,-288 1451,-288 1502,-288 1502,-288 1508,-288 1514,-294 1514,-300 1514,-300 1514,-312 1514,-312 1514,-318 1508,-324 1502,-324"/>
<text text-anchor="middle" x="1476.5" y="-303.5" font-family="sans" font-size="10.00" fill="#000000">metadmg_lca</text>
</g>
<!-- 57&#45;&gt;56 -->
<g id="edge92" class="edge">
<title>57&#45;&gt;56</title>
<path fill="none" stroke="#c0c0c0" stroke-width="2" d="M1459.8454,-287.8314C1452.0886,-279.3694 1442.7198,-269.1489 1434.239,-259.8971"/>
<polygon fill="#c0c0c0" stroke="#c0c0c0" stroke-width="2" points="1436.7162,-257.4198 1427.3788,-252.4133 1431.5561,-262.1499 1436.7162,-257.4198"/>
</g>
<!-- 57&#45;&gt;74 -->
<g id="edge110" class="edge">
<title>57&#45;&gt;74</title>
<path fill="none" stroke="#c0c0c0" stroke-width="2" d="M1474.4736,-287.7623C1471.7446,-263.201 1466.8608,-219.2474 1463.6505,-190.3541"/>
<polygon fill="#c0c0c0" stroke="#c0c0c0" stroke-width="2" points="1467.093,-189.6419 1462.51,-180.0896 1460.1358,-190.415 1467.093,-189.6419"/>
</g>
<!-- 58 -->
<g id="node59" class="node">
<title>58</title>
<path fill="none" stroke="#d8d356" stroke-width="2" d="M1575.5,-396C1575.5,-396 1511.5,-396 1511.5,-396 1505.5,-396 1499.5,-390 1499.5,-384 1499.5,-384 1499.5,-372 1499.5,-372 1499.5,-366 1505.5,-360 1511.5,-360 1511.5,-360 1575.5,-360 1575.5,-360 1581.5,-360 1587.5,-366 1587.5,-372 1587.5,-372 1587.5,-384 1587.5,-384 1587.5,-390 1581.5,-396 1575.5,-396"/>
<text text-anchor="middle" x="1543.5" y="-375.5" font-family="sans" font-size="10.00" fill="#000000">align_sort_query</text>
</g>
<!-- 58&#45;&gt;57 -->
<g id="edge93" class="edge">
<title>58&#45;&gt;57</title>
<path fill="none" stroke="#c0c0c0" stroke-width="2" d="M1526.5931,-359.8314C1518.7187,-351.3694 1509.208,-341.1489 1500.5987,-331.8971"/>
<polygon fill="#c0c0c0" stroke="#c0c0c0" stroke-width="2" points="1503.0092,-329.3497 1493.6346,-324.4133 1497.8847,-334.1183 1503.0092,-329.3497"/>
</g>
<!-- 77 -->
<g id="node78" class="node">
<title>77</title>
<path fill="none" stroke="#56d87b" stroke-width="2" d="M1969,-252C1969,-252 1896,-252 1896,-252 1890,-252 1884,-246 1884,-240 1884,-240 1884,-228 1884,-228 1884,-222 1890,-216 1896,-216 1896,-216 1969,-216 1969,-216 1975,-216 1981,-222 1981,-228 1981,-228 1981,-240 1981,-240 1981,-246 1975,-252 1969,-252"/>
<text text-anchor="middle" x="1932.5" y="-231.5" font-family="sans" font-size="10.00" fill="#000000">metadmg_damage</text>
</g>
<!-- 58&#45;&gt;77 -->
<g id="edge116" class="edge">
<title>58&#45;&gt;77</title>
<path fill="none" stroke="#c0c0c0" stroke-width="2" d="M1587.7445,-361.6216C1658.1156,-335.5716 1795.5819,-284.6843 1874.0005,-255.6553"/>
<polygon fill="#c0c0c0" stroke="#c0c0c0" stroke-width="2" points="1875.5655,-258.8082 1883.7285,-252.0542 1873.1353,-252.2435 1875.5655,-258.8082"/>
</g>
<!-- 59 -->
<g id="node60" class="node">
<title>59</title>
<path fill="none" stroke="#d85656" stroke-width="2" d="M1562,-468C1562,-468 1525,-468 1525,-468 1519,-468 1513,-462 1513,-456 1513,-456 1513,-444 1513,-444 1513,-438 1519,-432 1525,-432 1525,-432 1562,-432 1562,-432 1568,-432 1574,-438 1574,-444 1574,-444 1574,-456 1574,-456 1574,-462 1568,-468 1562,-468"/>
<text text-anchor="middle" x="1543.5" y="-447.5" font-family="sans" font-size="10.00" fill="#000000">align_filter</text>
</g>
<!-- 59&#45;&gt;58 -->
<g id="edge94" class="edge">
<title>59&#45;&gt;58</title>
<path fill="none" stroke="#c0c0c0" stroke-width="2" d="M1543.5,-431.8314C1543.5,-424.131 1543.5,-414.9743 1543.5,-406.4166"/>
<polygon fill="#c0c0c0" stroke="#c0c0c0" stroke-width="2" points="1547.0001,-406.4132 1543.5,-396.4133 1540.0001,-406.4133 1547.0001,-406.4132"/>
</g>
<!-- 60 -->
<g id="node61" class="node">
<title>60</title>
<path fill="none" stroke="#d8a456" stroke-width="2" d="M1571,-540C1571,-540 1516,-540 1516,-540 1510,-540 1504,-534 1504,-528 1504,-528 1504,-516 1504,-516 1504,-510 1510,-504 1516,-504 1516,-504 1571,-504 1571,-504 1577,-504 1583,-510 1583,-516 1583,-516 1583,-528 1583,-528 1583,-534 1577,-540 1571,-540"/>
<text text-anchor="middle" x="1543.5" y="-519.5" font-family="sans" font-size="10.00" fill="#000000">align_reassign</text>
</g>
<!-- 60&#45;&gt;59 -->
<g id="edge95" class="edge">
<title>60&#45;&gt;59</title>
<path fill="none" stroke="#c0c0c0" stroke-width="2" d="M1543.5,-503.8314C1543.5,-496.131 1543.5,-486.9743 1543.5,-478.4166"/>
<polygon fill="#c0c0c0" stroke="#c0c0c0" stroke-width="2" points="1547.0001,-478.4132 1543.5,-468.4133 1540.0001,-478.4133 1547.0001,-478.4132"/>
</g>
<!-- 61&#45;&gt;60 -->
<g id="edge96" class="edge">
<title>61&#45;&gt;60</title>
<path fill="none" stroke="#c0c0c0" stroke-width="2" d="M1543.5,-575.8314C1543.5,-568.131 1543.5,-558.9743 1543.5,-550.4166"/>
<polygon fill="#c0c0c0" stroke="#c0c0c0" stroke-width="2" points="1547.0001,-550.4132 1543.5,-540.4133 1540.0001,-550.4133 1547.0001,-550.4132"/>
</g>
<!-- 62 -->
<g id="node63" class="node">
<title>62</title>
<path fill="none" stroke="#56d892" stroke-width="2" d="M482.5,-252C482.5,-252 430.5,-252 430.5,-252 424.5,-252 418.5,-246 418.5,-240 418.5,-240 418.5,-228 418.5,-228 418.5,-222 424.5,-216 430.5,-216 430.5,-216 482.5,-216 482.5,-216 488.5,-216 494.5,-222 494.5,-228 494.5,-228 494.5,-240 494.5,-240 494.5,-246 488.5,-252 482.5,-252"/>
<text text-anchor="middle" x="456.5" y="-231.5" font-family="sans" font-size="10.00" fill="#000000">metadmg_dfit</text>
</g>
<!-- 62&#45;&gt;1 -->
<g id="edge21" class="edge">
<title>62&#45;&gt;1</title>
<path fill="none" stroke="#c0c0c0" stroke-width="2" d="M461.945,-215.8846C469.2218,-194.9985 484.223,-161.3256 509.5,-144 556.3278,-111.9029 724.9117,-97.2463 800.444,-92.1811"/>
<polygon fill="#c0c0c0" stroke="#c0c0c0" stroke-width="2" points="800.7104,-95.6712 810.462,-91.5292 800.2558,-88.686 800.7104,-95.6712"/>
</g>
<!-- 75 -->
<g id="node76" class="node">
<title>75</title>
<path fill="none" stroke="#56d863" stroke-width="2" d="M445,-180C445,-180 364,-180 364,-180 358,-180 352,-174 352,-168 352,-168 352,-156 352,-156 352,-150 358,-144 364,-144 364,-144 445,-144 445,-144 451,-144 457,-150 457,-156 457,-156 457,-168 457,-168 457,-174 451,-180 445,-180"/>
<text text-anchor="middle" x="404.5" y="-159.5" font-family="sans" font-size="10.00" fill="#000000">metadmg_aggregate</text>
</g>
<!-- 62&#45;&gt;75 -->
<g id="edge113" class="edge">
<title>62&#45;&gt;75</title>
<path fill="none" stroke="#c0c0c0" stroke-width="2" d="M443.3782,-215.8314C437.4501,-207.6232 430.3271,-197.7606 423.8067,-188.7323"/>
<polygon fill="#c0c0c0" stroke="#c0c0c0" stroke-width="2" points="426.4908,-186.4708 417.7985,-180.4133 420.816,-190.5693 426.4908,-186.4708"/>
</g>
<!-- 63 -->
<g id="node64" class="node">
<title>63</title>
<path fill="none" stroke="#56d8a9" stroke-width="2" d="M416,-324C416,-324 365,-324 365,-324 359,-324 353,-318 353,-312 353,-312 353,-300 353,-300 353,-294 359,-288 365,-288 365,-288 416,-288 416,-288 422,-288 428,-294 428,-300 428,-300 428,-312 428,-312 428,-318 422,-324 416,-324"/>
<text text-anchor="middle" x="390.5" y="-303.5" font-family="sans" font-size="10.00" fill="#000000">metadmg_lca</text>
</g>
<!-- 63&#45;&gt;62 -->
<g id="edge98" class="edge">
<title>63&#45;&gt;62</title>
<path fill="none" stroke="#c0c0c0" stroke-width="2" d="M407.1546,-287.8314C414.9114,-279.3694 424.2802,-269.1489 432.761,-259.8971"/>
<polygon fill="#c0c0c0" stroke="#c0c0c0" stroke-width="2" points="435.4439,-262.1499 439.6212,-252.4133 430.2838,-257.4198 435.4439,-262.1499"/>
</g>
<!-- 63&#45;&gt;75 -->
<g id="edge112" class="edge">
<title>63&#45;&gt;75</title>
<path fill="none" stroke="#c0c0c0" stroke-width="2" d="M392.2731,-287.7623C394.661,-263.201 398.9343,-219.2474 401.7434,-190.3541"/>
<polygon fill="#c0c0c0" stroke="#c0c0c0" stroke-width="2" points="405.2571,-190.3814 402.7413,-180.0896 398.29,-189.704 405.2571,-190.3814"/>
</g>
<!-- 64 -->
<g id="node65" class="node">
<title>64</title>
<path fill="none" stroke="#d8d356" stroke-width="2" d="M353.5,-396C353.5,-396 289.5,-396 289.5,-396 283.5,-396 277.5,-390 277.5,-384 277.5,-384 277.5,-372 277.5,-372 277.5,-366 283.5,-360 289.5,-360 289.5,-360 353.5,-360 353.5,-360 359.5,-360 365.5,-366 365.5,-372 365.5,-372 365.5,-384 365.5,-384 365.5,-390 359.5,-396 353.5,-396"/>
<text text-anchor="middle" x="321.5" y="-375.5" font-family="sans" font-size="10.00" fill="#000000">align_sort_query</text>
</g>
<!-- 64&#45;&gt;63 -->
<g id="edge99" class="edge">
<title>64&#45;&gt;63</title>
<path fill="none" stroke="#c0c0c0" stroke-width="2" d="M338.9116,-359.8314C347.021,-351.3694 356.8156,-341.1489 365.682,-331.8971"/>
<polygon fill="#c0c0c0" stroke="#c0c0c0" stroke-width="2" points="368.4618,-334.0549 372.854,-324.4133 363.4079,-329.2115 368.4618,-334.0549"/>
</g>
<!-- 78 -->
<g id="node79" class="node">
<title>78</title>
<path fill="none" stroke="#56d87b" stroke-width="2" d="M334,-108C334,-108 261,-108 261,-108 255,-108 249,-102 249,-96 249,-96 249,-84 249,-84 249,-78 255,-72 261,-72 261,-72 334,-72 334,-72 340,-72 346,-78 346,-84 346,-84 346,-96 346,-96 346,-102 340,-108 334,-108"/>
<text text-anchor="middle" x="297.5" y="-87.5" font-family="sans" font-size="10.00" fill="#000000">metadmg_damage</text>
</g>
<!-- 64&#45;&gt;78 -->
<g id="edge117" class="edge">
<title>64&#45;&gt;78</title>
<path fill="none" stroke="#c0c0c0" stroke-width="2" d="M316.6189,-359.6434C314.0605,-349.2594 311.1281,-335.9906 309.5,-324 299.4848,-250.2386 297.6561,-162.3643 297.4276,-118.2422"/>
<polygon fill="#c0c0c0" stroke="#c0c0c0" stroke-width="2" points="300.927,-117.9931 297.4,-108.0026 293.9271,-118.0121 300.927,-117.9931"/>
</g>
<!-- 65 -->
<g id="node66" class="node">
<title>65</title>
<path fill="none" stroke="#d85656" stroke-width="2" d="M340,-468C340,-468 303,-468 303,-468 297,-468 291,-462 291,-456 291,-456 291,-444 291,-444 291,-438 297,-432 303,-432 303,-432 340,-432 340,-432 346,-432 352,-438 352,-444 352,-444 352,-456 352,-456 352,-462 346,-468 340,-468"/>
<text text-anchor="middle" x="321.5" y="-447.5" font-family="sans" font-size="10.00" fill="#000000">align_filter</text>
</g>
<!-- 65&#45;&gt;64 -->
<g id="edge100" class="edge">
<title>65&#45;&gt;64</title>
<path fill="none" stroke="#c0c0c0" stroke-width="2" d="M321.5,-431.8314C321.5,-424.131 321.5,-414.9743 321.5,-406.4166"/>
<polygon fill="#c0c0c0" stroke="#c0c0c0" stroke-width="2" points="325.0001,-406.4132 321.5,-396.4133 318.0001,-406.4133 325.0001,-406.4132"/>
</g>
<!-- 66 -->
<g id="node67" class="node">
<title>66</title>
<path fill="none" stroke="#d8a456" stroke-width="2" d="M349,-540C349,-540 294,-540 294,-540 288,-540 282,-534 282,-528 282,-528 282,-516 282,-516 282,-510 288,-504 294,-504 294,-504 349,-504 349,-504 355,-504 361,-510 361,-516 361,-516 361,-528 361,-528 361,-534 355,-540 349,-540"/>
<text text-anchor="middle" x="321.5" y="-519.5" font-family="sans" font-size="10.00" fill="#000000">align_reassign</text>
</g>
<!-- 66&#45;&gt;65 -->
<g id="edge101" class="edge">
<title>66&#45;&gt;65</title>
<path fill="none" stroke="#c0c0c0" stroke-width="2" d="M321.5,-503.8314C321.5,-496.131 321.5,-486.9743 321.5,-478.4166"/>
<polygon fill="#c0c0c0" stroke="#c0c0c0" stroke-width="2" points="325.0001,-478.4132 321.5,-468.4133 318.0001,-478.4133 325.0001,-478.4132"/>
</g>
<!-- 67&#45;&gt;66 -->
<g id="edge102" class="edge">
<title>67&#45;&gt;66</title>
<path fill="none" stroke="#c0c0c0" stroke-width="2" d="M321.5,-575.8314C321.5,-568.131 321.5,-558.9743 321.5,-550.4166"/>
<polygon fill="#c0c0c0" stroke="#c0c0c0" stroke-width="2" points="325.0001,-550.4132 321.5,-540.4133 318.0001,-550.4133 325.0001,-550.4132"/>
</g>
<!-- 68 -->
<g id="node69" class="node">
<title>68</title>
<path fill="none" stroke="#56d892" stroke-width="2" d="M683.5,-252C683.5,-252 631.5,-252 631.5,-252 625.5,-252 619.5,-246 619.5,-240 619.5,-240 619.5,-228 619.5,-228 619.5,-222 625.5,-216 631.5,-216 631.5,-216 683.5,-216 683.5,-216 689.5,-216 695.5,-222 695.5,-228 695.5,-228 695.5,-240 695.5,-240 695.5,-246 689.5,-252 683.5,-252"/>
<text text-anchor="middle" x="657.5" y="-231.5" font-family="sans" font-size="10.00" fill="#000000">metadmg_dfit</text>
</g>
<!-- 68&#45;&gt;1 -->
<g id="edge22" class="edge">
<title>68&#45;&gt;1</title>
<path fill="none" stroke="#c0c0c0" stroke-width="2" d="M663.9339,-215.7997C671.843,-195.7789 687.0395,-163.8208 709.5,-144 735.592,-120.9745 772.9315,-106.7505 800.5524,-98.7209"/>
<polygon fill="#c0c0c0" stroke="#c0c0c0" stroke-width="2" points="801.5453,-102.0778 810.25,-96.0381 799.6788,-95.3312 801.5453,-102.0778"/>
</g>
<!-- 76 -->
<g id="node77" class="node">
<title>76</title>
<path fill="none" stroke="#56d863" stroke-width="2" d="M645,-180C645,-180 564,-180 564,-180 558,-180 552,-174 552,-168 552,-168 552,-156 552,-156 552,-150 558,-144 564,-144 564,-144 645,-144 645,-144 651,-144 657,-150 657,-156 657,-156 657,-168 657,-168 657,-174 651,-180 645,-180"/>
<text text-anchor="middle" x="604.5" y="-159.5" font-family="sans" font-size="10.00" fill="#000000">metadmg_aggregate</text>
</g>
<!-- 68&#45;&gt;76 -->
<g id="edge115" class="edge">
<title>68&#45;&gt;76</title>
<path fill="none" stroke="#c0c0c0" stroke-width="2" d="M644.1259,-215.8314C638.0838,-207.6232 630.8237,-197.7606 624.1779,-188.7323"/>
<polygon fill="#c0c0c0" stroke="#c0c0c0" stroke-width="2" points="626.8011,-186.3918 618.0542,-180.4133 621.1637,-190.5415 626.8011,-186.3918"/>
</g>
<!-- 69 -->
<g id="node70" class="node">
<title>69</title>
<path fill="none" stroke="#56d8a9" stroke-width="2" d="M649,-324C649,-324 598,-324 598,-324 592,-324 586,-318 586,-312 586,-312 586,-300 586,-300 586,-294 592,-288 598,-288 598,-288 649,-288 649,-288 655,-288 661,-294 661,-300 661,-300 661,-312 661,-312 661,-318 655,-324 649,-324"/>
<text text-anchor="middle" x="623.5" y="-303.5" font-family="sans" font-size="10.00" fill="#000000">metadmg_lca</text>
</g>
<!-- 69&#45;&gt;68 -->
<g id="edge104" class="edge">
<title>69&#45;&gt;68</title>
<path fill="none" stroke="#c0c0c0" stroke-width="2" d="M632.0796,-287.8314C635.8358,-279.8771 640.3257,-270.369 644.4798,-261.5723"/>
<polygon fill="#c0c0c0" stroke="#c0c0c0" stroke-width="2" points="647.6996,-262.9503 648.8048,-252.4133 641.3699,-259.9612 647.6996,-262.9503"/>
</g>
<!-- 69&#45;&gt;76 -->
<g id="edge114" class="edge">
<title>69&#45;&gt;76</title>
<path fill="none" stroke="#c0c0c0" stroke-width="2" d="M618.2654,-287.6592C615.5104,-277.2801 612.3326,-264.011 610.5,-252 607.3557,-231.3915 605.8591,-207.8789 605.1467,-190.0554"/>
<polygon fill="#c0c0c0" stroke="#c0c0c0" stroke-width="2" points="608.6436,-189.9018 604.8041,-180.0272 601.6477,-190.1409 608.6436,-189.9018"/>
</g>
<!-- 70 -->
<g id="node71" class="node">
<title>70</title>
<path fill="none" stroke="#d8d356" stroke-width="2" d="M655.5,-396C655.5,-396 591.5,-396 591.5,-396 585.5,-396 579.5,-390 579.5,-384 579.5,-384 579.5,-372 579.5,-372 579.5,-366 585.5,-360 591.5,-360 591.5,-360 655.5,-360 655.5,-360 661.5,-360 667.5,-366 667.5,-372 667.5,-372 667.5,-384 667.5,-384 667.5,-390 661.5,-396 655.5,-396"/>
<text text-anchor="middle" x="623.5" y="-375.5" font-family="sans" font-size="10.00" fill="#000000">align_sort_query</text>
</g>
<!-- 70&#45;&gt;69 -->
<g id="edge105" class="edge">
<title>70&#45;&gt;69</title>
<path fill="none" stroke="#c0c0c0" stroke-width="2" d="M623.5,-359.8314C623.5,-352.131 623.5,-342.9743 623.5,-334.4166"/>
<polygon fill="#c0c0c0" stroke="#c0c0c0" stroke-width="2" points="627.0001,-334.4132 623.5,-324.4133 620.0001,-334.4133 627.0001,-334.4132"/>
</g>
<!-- 79 -->
<g id="node80" class="node">
<title>79</title>
<path fill="none" stroke="#56d87b" stroke-width="2" d="M493,-108C493,-108 420,-108 420,-108 414,-108 408,-102 408,-96 408,-96 408,-84 408,-84 408,-78 414,-72 420,-72 420,-72 493,-72 493,-72 499,-72 505,-78 505,-84 505,-84 505,-96 505,-96 505,-102 499,-108 493,-108"/>
<text text-anchor="middle" x="456.5" y="-87.5" font-family="sans" font-size="10.00" fill="#000000">metadmg_damage</text>
</g>
<!-- 70&#45;&gt;79 -->
<g id="edge118" class="edge">
<title>70&#45;&gt;79</title>
<path fill="none" stroke="#c0c0c0" stroke-width="2" d="M579.32,-376.0701C508.1311,-371.9342 373.0142,-359.4983 343.5,-324 317.9269,-293.2418 321.1097,-177.801 342.5,-144 354.9913,-124.2612 376.8642,-111.5965 398.1323,-103.5376"/>
<polygon fill="#c0c0c0" stroke="#c0c0c0" stroke-width="2" points="399.5402,-106.7532 407.8256,-100.1501 397.2308,-100.1451 399.5402,-106.7532"/>
</g>
<!-- 71 -->
<g id="node72" class="node">
<title>71</title>
<path fill="none" stroke="#d85656" stroke-width="2" d="M681,-468C681,-468 644,-468 644,-468 638,-468 632,-462 632,-456 632,-456 632,-444 632,-444 632,-438 638,-432 644,-432 644,-432 681,-432 681,-432 687,-432 693,-438 693,-444 693,-444 693,-456 693,-456 693,-462 687,-468 681,-468"/>
<text text-anchor="middle" x="662.5" y="-447.5" font-family="sans" font-size="10.00" fill="#000000">align_filter</text>
</g>
<!-- 71&#45;&gt;70 -->
<g id="edge106" class="edge">
<title>71&#45;&gt;70</title>
<path fill="none" stroke="#c0c0c0" stroke-width="2" d="M652.6587,-431.8314C648.3043,-423.7925 643.0902,-414.1666 638.2831,-405.2918"/>
<polygon fill="#c0c0c0" stroke="#c0c0c0" stroke-width="2" points="641.3143,-403.5392 633.4739,-396.4133 635.1592,-406.8732 641.3143,-403.5392"/>
</g>
<!-- 72 -->
<g id="node73" class="node">
<title>72</title>
<path fill="none" stroke="#d8a456" stroke-width="2" d="M771,-540C771,-540 716,-540 716,-540 710,-540 704,-534 704,-528 704,-528 704,-516 704,-516 704,-510 710,-504 716,-504 716,-504 771,-504 771,-504 777,-504 783,-510 783,-516 783,-516 783,-528 783,-528 783,-534 777,-540 771,-540"/>
<text text-anchor="middle" x="743.5" y="-519.5" font-family="sans" font-size="10.00" fill="#000000">align_reassign</text>
</g>
<!-- 72&#45;&gt;71 -->
<g id="edge107" class="edge">
<title>72&#45;&gt;71</title>
<path fill="none" stroke="#c0c0c0" stroke-width="2" d="M723.0603,-503.8314C713.1795,-495.0485 701.1676,-484.3712 690.455,-474.8489"/>
<polygon fill="#c0c0c0" stroke="#c0c0c0" stroke-width="2" points="692.7326,-472.1906 682.9332,-468.1628 688.082,-477.4224 692.7326,-472.1906"/>
</g>
<!-- 73&#45;&gt;72 -->
<g id="edge108" class="edge">
<title>73&#45;&gt;72</title>
<path fill="none" stroke="#c0c0c0" stroke-width="2" d="M754.7149,-575.8314C753.1106,-568.131 751.203,-558.9743 749.4201,-550.4166"/>
<polygon fill="#c0c0c0" stroke="#c0c0c0" stroke-width="2" points="752.8021,-549.4892 747.3361,-540.4133 745.9493,-550.9169 752.8021,-549.4892"/>
</g>
<!-- 74&#45;&gt;0 -->
<g id="edge2" class="edge">
<title>74&#45;&gt;0</title>
<path fill="none" stroke="#c0c0c0" stroke-width="2" d="M1407.7531,-148.8115C1400.3015,-147.1029 1392.7213,-145.4469 1385.5,-144 1101.1004,-87.0155 754.4272,-38.3013 641.7723,-22.9926"/>
<polygon fill="#c0c0c0" stroke="#c0c0c0" stroke-width="2" points="641.99,-19.4903 631.6107,-21.6163 641.0504,-26.4269 641.99,-19.4903"/>
</g>
<!-- 74&#45;&gt;1 -->
<g id="edge23" class="edge">
<title>74&#45;&gt;1</title>
<path fill="none" stroke="#c0c0c0" stroke-width="2" d="M1407.6536,-146.9351C1402.8903,-145.8406 1398.1217,-144.8393 1393.5,-144 1200.255,-108.9074 964.8034,-95.5432 874.8586,-91.4909"/>
<polygon fill="#c0c0c0" stroke="#c0c0c0" stroke-width="2" points="874.7675,-87.9836 864.6237,-91.042 874.4607,-94.9769 874.7675,-87.9836"/>
</g>
<!-- 75&#45;&gt;0 -->
<g id="edge3" class="edge">
<title>75&#45;&gt;0</title>
<path fill="none" stroke="#c0c0c0" stroke-width="2" d="M448.7519,-143.9838C469.3115,-134.6541 493.5609,-122.2324 513.5,-108 539.5686,-89.3924 565.1306,-63.2066 582.4921,-43.8755"/>
<polygon fill="#c0c0c0" stroke="#c0c0c0" stroke-width="2" points="585.1772,-46.1225 589.1811,-36.3134 579.9341,-41.4847 585.1772,-46.1225"/>
</g>
<!-- 75&#45;&gt;1 -->
<g id="edge24" class="edge">
<title>75&#45;&gt;1</title>
<path fill="none" stroke="#c0c0c0" stroke-width="2" d="M457.0288,-147.2703C461.9036,-146.0902 466.7826,-144.9782 471.5,-144 590.5972,-119.3028 733.7681,-101.5955 800.2282,-94.051"/>
<polygon fill="#c0c0c0" stroke="#c0c0c0" stroke-width="2" points="800.6741,-97.523 810.2206,-92.9279 799.8922,-90.5668 800.6741,-97.523"/>
</g>
<!-- 76&#45;&gt;0 -->
<g id="edge4" class="edge">
<title>76&#45;&gt;0</title>
<path fill="none" stroke="#c0c0c0" stroke-width="2" d="M604.5,-143.7623C604.5,-119.201 604.5,-75.2474 604.5,-46.3541"/>
<polygon fill="#c0c0c0" stroke="#c0c0c0" stroke-width="2" points="608.0001,-46.0896 604.5,-36.0896 601.0001,-46.0897 608.0001,-46.0896"/>
</g>
<!-- 76&#45;&gt;1 -->
<g id="edge25" class="edge">
<title>76&#45;&gt;1</title>
<path fill="none" stroke="#c0c0c0" stroke-width="2" d="M657.0803,-145.752C700.8199,-132.2359 761.9703,-113.3396 800.6489,-101.3875"/>
<polygon fill="#c0c0c0" stroke="#c0c0c0" stroke-width="2" points="801.9303,-104.6549 810.4512,-98.3584 799.8636,-97.9669 801.9303,-104.6549"/>
</g>
<!-- 77&#45;&gt;0 -->
<g id="edge5" class="edge">
<title>77&#45;&gt;0</title>
<path fill="none" stroke="#c0c0c0" stroke-width="2" d="M1925.4207,-215.8999C1916.0812,-194.6948 1897.4807,-160.3821 1869.5,-144 1760.794,-80.3549 839.9222,-30.019 641.9094,-19.871"/>
<polygon fill="#c0c0c0" stroke="#c0c0c0" stroke-width="2" points="641.8887,-16.3654 631.7235,-19.3518 641.5323,-23.3564 641.8887,-16.3654"/>
</g>
<!-- 78&#45;&gt;0 -->
<g id="edge6" class="edge">
<title>78&#45;&gt;0</title>
<path fill="none" stroke="#c0c0c0" stroke-width="2" d="M346.1451,-78.5914C407.5835,-64.1824 511.9507,-39.7054 567.3631,-26.7096"/>
<polygon fill="#c0c0c0" stroke="#c0c0c0" stroke-width="2" points="568.1821,-30.1126 577.1187,-24.4217 566.5837,-23.2975 568.1821,-30.1126"/>
</g>
<!-- 79&#45;&gt;0 -->
<g id="edge7" class="edge">
<title>79&#45;&gt;0</title>
<path fill="none" stroke="#c0c0c0" stroke-width="2" d="M493.8466,-71.8314C516.6249,-60.7501 545.6018,-46.6532 568.1885,-35.665"/>
<polygon fill="#c0c0c0" stroke="#c0c0c0" stroke-width="2" points="569.9794,-38.6861 577.4406,-31.164 566.9171,-32.3914 569.9794,-38.6861"/>
</g>
</g>
</svg>
