<?xml version="1.0" encoding="UTF-8" standalone="no"?>
<!DOCTYPE svg PUBLIC "-//W3C//DTD SVG 1.1//EN"
 "http://www.w3.org/Graphics/SVG/1.1/DTD/svg11.dtd">
<!-- Generated by graphviz version 2.40.1 (0)
 -->
<!-- Title: snakemake_dag Pages: 1 -->
<svg width="2570pt" height="2926pt"
 viewBox="0.00 0.00 2570.00 2926.00" xmlns="http://www.w3.org/2000/svg" xmlns:xlink="http://www.w3.org/1999/xlink">
<g id="graph0" class="graph" transform="scale(1 1) rotate(0) translate(4 2922)">
<title>snakemake_dag</title>
<polygon fill="#ffffff" stroke="transparent" points="-4,4 -4,-2922 2566,-2922 2566,4 -4,4"/>
<!-- 0 -->
<g id="node1" class="node">
<title>0</title>
<text text-anchor="start" x="1341.5" y="-215.6" font-family="sans" font-weight="bold" font-size="18.00" fill="#000000">all</text>
<text text-anchor="start" x="1168.5" y="-191.8" font-family="sans" font-size="10.00" fill="#000000"> </text>
<text text-anchor="start" x="1172.5" y="-191.8" font-family="sans" font-weight="bold" font-size="14.00" fill="#000000">↪ input</text>
<text text-anchor="start" x="1225.5" y="-191.8" font-family="sans" font-size="10.00" fill="#000000"> </text>
<text text-anchor="start" x="1168.5" y="-172" font-family="monospace" font-size="10.00" fill="#000000">reports/multiqc.html</text>
<text text-anchor="start" x="1168.5" y="-154" font-family="monospace" font-size="10.00" fill="#000000">results/metadmg/aggregate/HD827sonic_1_lib1_collapsed.stat.gz</text>
<text text-anchor="start" x="1168.5" y="-136" font-family="monospace" font-size="10.00" fill="#000000">results/metadmg/aggregate/HD827sonic_1_lib1_collapsed.stat.gz</text>
<text text-anchor="start" x="1168.5" y="-118" font-family="monospace" font-size="10.00" fill="#000000">results/metadmg/aggregate/HD827sonic_2_lib1_collapsed.stat.gz</text>
<text text-anchor="start" x="1168.5" y="-100" font-family="monospace" font-size="10.00" fill="#000000">results/metadmg/aggregate/HD827sonic_2_lib2_collapsed.stat.gz</text>
<text text-anchor="start" x="1168.5" y="-82" font-family="monospace" font-size="10.00" fill="#000000">stats/metadmg/damage/HD827sonic_1_lib1_collapsed.stat.gz</text>
<text text-anchor="start" x="1168.5" y="-64" font-family="monospace" font-size="10.00" fill="#000000">stats/metadmg/damage/HD827sonic_1_lib1_collapsed.stat.gz</text>
<text text-anchor="start" x="1168.5" y="-46" font-family="monospace" font-size="10.00" fill="#000000">stats/metadmg/damage/HD827sonic_2_lib1_collapsed.stat.gz</text>
<text text-anchor="start" x="1168.5" y="-28" font-family="monospace" font-size="10.00" fill="#000000">stats/metadmg/damage/HD827sonic_2_lib2_collapsed.stat.gz</text>
<text text-anchor="start" x="1528.5" y="-10" font-family="sans" font-size="10.00" fill="#000000"> &#160;</text>
<polygon fill="#91d957" stroke="#91d957" points="1162.5,-206 1162.5,-206 1542.5,-206 1542.5,-206 1162.5,-206"/>
<polygon fill="#91d957" stroke="#91d957" points="1162.5,-22 1162.5,-22 1542.5,-22 1542.5,-22 1162.5,-22"/>
<polygon fill="none" stroke="#91d957" stroke-width="2" points="1162,-1 1162,-235 1541,-235 1541,-1 1162,-1"/>
</g>
<!-- 1 -->
<g id="node2" class="node">
<title>1</title>
<text text-anchor="start" x="893.5" y="-869.6" font-family="sans" font-weight="bold" font-size="18.00" fill="#000000">multiqc</text>
<text text-anchor="start" x="688.5" y="-845.8" font-family="sans" font-size="10.00" fill="#000000"> </text>
<text text-anchor="start" x="692.5" y="-845.8" font-family="sans" font-weight="bold" font-size="14.00" fill="#000000">↪ input</text>
<text text-anchor="start" x="745.5" y="-845.8" font-family="sans" font-size="10.00" fill="#000000"> </text>
<text text-anchor="start" x="688.5" y="-826" font-family="monospace" font-size="10.00" fill="#000000">logs/shards/bowtie2/HD827sonic_1_lib1_collapsed.refseq_invertebrate.1&#45;of&#45;3.log</text>
<text text-anchor="start" x="688.5" y="-808" font-family="monospace" font-size="10.00" fill="#000000">logs/shards/bowtie2/HD827sonic_1_lib1_collapsed.refseq_invertebrate.2&#45;of&#45;3.log</text>
<text text-anchor="start" x="688.5" y="-790" font-family="monospace" font-size="10.00" fill="#000000">logs/shards/bowtie2/HD827sonic_1_lib1_collapsed.refseq_invertebrate.3&#45;of&#45;3.log</text>
<text text-anchor="start" x="688.5" y="-772" font-family="monospace" font-size="10.00" fill="#000000">logs/shards/bowtie2/HD827sonic_1_lib1_collapsed.refseq_mitochondrion.1&#45;of&#45;1.log</text>
<text text-anchor="start" x="688.5" y="-754" font-family="monospace" font-size="10.00" fill="#000000">logs/shards/bowtie2/HD827sonic_2_lib1_collapsed.refseq_invertebrate.1&#45;of&#45;3.log</text>
<text text-anchor="start" x="688.5" y="-736" font-family="monospace" font-size="10.00" fill="#000000">logs/shards/bowtie2/HD827sonic_2_lib1_collapsed.refseq_invertebrate.2&#45;of&#45;3.log</text>
<text text-anchor="start" x="688.5" y="-718" font-family="monospace" font-size="10.00" fill="#000000">logs/shards/bowtie2/HD827sonic_2_lib1_collapsed.refseq_invertebrate.3&#45;of&#45;3.log</text>
<text text-anchor="start" x="688.5" y="-700" font-family="monospace" font-size="10.00" fill="#000000">logs/shards/bowtie2/HD827sonic_2_lib1_collapsed.refseq_mitochondrion.1&#45;of&#45;1.log</text>
<text text-anchor="start" x="688.5" y="-682" font-family="monospace" font-size="10.00" fill="#000000">logs/shards/bowtie2/HD827sonic_2_lib2_collapsed.refseq_invertebrate.1&#45;of&#45;3.log</text>
<text text-anchor="start" x="688.5" y="-664" font-family="monospace" font-size="10.00" fill="#000000">logs/shards/bowtie2/HD827sonic_2_lib2_collapsed.refseq_invertebrate.2&#45;of&#45;3.log</text>
<text text-anchor="start" x="688.5" y="-646" font-family="monospace" font-size="10.00" fill="#000000">logs/shards/bowtie2/HD827sonic_2_lib2_collapsed.refseq_invertebrate.3&#45;of&#45;3.log</text>
<text text-anchor="start" x="688.5" y="-628" font-family="monospace" font-size="10.00" fill="#000000">logs/shards/bowtie2/HD827sonic_2_lib2_collapsed.refseq_mitochondrion.1&#45;of&#45;1.log</text>
<text text-anchor="start" x="688.5" y="-610" font-family="monospace" font-size="10.00" fill="#000000">results/metadmg/aggregate/HD827sonic_1_lib1_collapsed.stat.gz</text>
<text text-anchor="start" x="688.5" y="-592" font-family="monospace" font-size="10.00" fill="#000000">results/metadmg/aggregate/HD827sonic_1_lib1_collapsed.stat.gz</text>
<text text-anchor="start" x="688.5" y="-574" font-family="monospace" font-size="10.00" fill="#000000">results/metadmg/aggregate/HD827sonic_2_lib1_collapsed.stat.gz</text>
<text text-anchor="start" x="688.5" y="-556" font-family="monospace" font-size="10.00" fill="#000000">results/metadmg/aggregate/HD827sonic_2_lib2_collapsed.stat.gz</text>
<text text-anchor="start" x="688.5" y="-538" font-family="monospace" font-size="10.00" fill="#000000">results/metadmg/dfit/HD827sonic_1_lib1_collapsed.dfit.gz</text>
<text text-anchor="start" x="688.5" y="-520" font-family="monospace" font-size="10.00" fill="#000000">results/metadmg/dfit/HD827sonic_1_lib1_collapsed.dfit.gz</text>
<text text-anchor="start" x="688.5" y="-502" font-family="monospace" font-size="10.00" fill="#000000">results/metadmg/dfit/HD827sonic_2_lib1_collapsed.dfit.gz</text>
<text text-anchor="start" x="688.5" y="-484" font-family="monospace" font-size="10.00" fill="#000000">results/metadmg/dfit/HD827sonic_2_lib2_collapsed.dfit.gz</text>
<text text-anchor="start" x="688.5" y="-466" font-family="monospace" font-size="10.00" fill="#000000">stats/aligns/samtools_stats/HD827sonic_1_lib1_collapsed.txt</text>
<text text-anchor="start" x="688.5" y="-448" font-family="monospace" font-size="10.00" fill="#000000">stats/aligns/samtools_stats/HD827sonic_1_lib1_collapsed.txt</text>
<text text-anchor="start" x="688.5" y="-430" font-family="monospace" font-size="10.00" fill="#000000">stats/aligns/samtools_stats/HD827sonic_1_lib1_collapsed.txt</text>
<text text-anchor="start" x="688.5" y="-412" font-family="monospace" font-size="10.00" fill="#000000">stats/aligns/samtools_stats/HD827sonic_1_lib1_collapsed.txt</text>
<text text-anchor="start" x="688.5" y="-394" font-family="monospace" font-size="10.00" fill="#000000">stats/aligns/samtools_stats/HD827sonic_2_lib1_collapsed.txt</text>
<text text-anchor="start" x="688.5" y="-376" font-family="monospace" font-size="10.00" fill="#000000">stats/aligns/samtools_stats/HD827sonic_2_lib1_collapsed.txt</text>
<text text-anchor="start" x="688.5" y="-358" font-family="monospace" font-size="10.00" fill="#000000">stats/aligns/samtools_stats/HD827sonic_2_lib2_collapsed.txt</text>
<text text-anchor="start" x="688.5" y="-340" font-family="monospace" font-size="10.00" fill="#000000">stats/aligns/samtools_stats/HD827sonic_2_lib2_collapsed.txt</text>
<text text-anchor="start" x="1094.5" y="-319.8" font-family="sans" font-size="10.00" fill="#000000"> </text>
<text text-anchor="start" x="1098.5" y="-319.8" font-family="sans" font-weight="bold" font-size="14.00" fill="#000000">output →</text>
<text text-anchor="start" x="1159.5" y="-319.8" font-family="sans" font-size="10.00" fill="#000000"> </text>
<text text-anchor="start" x="688.5" y="-300" font-family="monospace" font-size="10.00" fill="#000000">reports/multiqc.html</text>
<text text-anchor="start" x="688.5" y="-282" font-family="monospace" font-size="10.00" fill="#000000">reports/multiqc_data.zip</text>
<polygon fill="#57add9" stroke="#57add9" points="682.5,-860 682.5,-860 1170.5,-860 1170.5,-860 682.5,-860"/>
<polygon fill="#57add9" stroke="#57add9" points="682.5,-334 682.5,-334 1170.5,-334 1170.5,-334 682.5,-334"/>
<polygon fill="none" stroke="#57add9" stroke-width="2" points="682,-273 682,-889 1169,-889 1169,-273 682,-273"/>
</g>
<!-- 1&#45;&gt;0 -->
<g id="edge1" class="edge">
<title>1&#45;&gt;0</title>
<path fill="none" stroke="#c0c0c0" stroke-width="2" d="M1170.2199,-315.025C1192.9605,-290.3094 1215.2076,-266.13 1235.893,-243.648"/>
<polygon fill="#c0c0c0" stroke="#c0c0c0" stroke-width="2" points="1238.6513,-245.8193 1242.8466,-236.0904 1233.5,-241.0796 1238.6513,-245.8193"/>
</g>
<!-- 2 -->
<g id="node3" class="node">
<title>2</title>
<text text-anchor="start" x="429.5" y="-2897.6" font-family="sans" font-weight="bold" font-size="18.00" fill="#000000">bowtie2</text>
<text text-anchor="start" x="7.5" y="-2873.8" font-family="sans" font-size="10.00" fill="#000000"> </text>
<text text-anchor="start" x="11.5" y="-2873.8" font-family="sans" font-weight="bold" font-size="14.00" fill="#000000">↪ input</text>
<text text-anchor="start" x="64.5" y="-2873.8" font-family="sans" font-size="10.00" fill="#000000"> </text>
<text text-anchor="start" x="7.5" y="-2854" font-family="monospace" font-size="10.00" fill="#000000">&lt;input function&gt;</text>
<text text-anchor="start" x="7.5" y="-2836" font-family="monospace" font-size="10.00" fill="#000000">&lt;input function&gt;</text>
<text text-anchor="start" x="851.5" y="-2815.8" font-family="sans" font-size="10.00" fill="#000000"> </text>
<text text-anchor="start" x="855.5" y="-2815.8" font-family="sans" font-weight="bold" font-size="14.00" fill="#000000">output →</text>
<text text-anchor="start" x="916.5" y="-2815.8" font-family="sans" font-size="10.00" fill="#000000"> </text>
<text text-anchor="start" x="7.5" y="-2796" font-family="monospace" font-size="10.00" fill="#000000">temp/shards/bowtie2/{sample,HD827sonic_1|HD827sonic_2}_{library,lib1|lib2}_{read_type_map,pe|se|singleton|collapsed}.{ref}.{n_shard}&#45;of&#45;{tot_shards}.bam</text>
<polygon fill="#74d957" stroke="#74d957" points="1.5,-2888 1.5,-2888 927.5,-2888 927.5,-2888 1.5,-2888"/>
<polygon fill="#74d957" stroke="#74d957" points="1.5,-2830 1.5,-2830 927.5,-2830 927.5,-2830 1.5,-2830"/>
<polygon fill="none" stroke="#74d957" stroke-width="2" points="1,-2787 1,-2917 926,-2917 926,-2787 1,-2787"/>
</g>
<!-- 2&#45;&gt;1 -->
<g id="edge7" class="edge">
<title>2&#45;&gt;1</title>
<path fill="none" stroke="#c0c0c0" stroke-width="2" d="M363.5077,-2785.9441C292.7899,-2730.4963 210.5,-2644.2272 210.5,-2543 210.5,-2543 210.5,-2543 210.5,-1232 210.5,-974.9831 466.2236,-792.5468 671.8034,-687.4098"/>
<polygon fill="#c0c0c0" stroke="#c0c0c0" stroke-width="2" points="673.6057,-690.4201 680.9377,-682.7721 670.4366,-684.1785 673.6057,-690.4201"/>
</g>
<!-- 10 -->
<g id="node11" class="node">
<title>10</title>
<text text-anchor="start" x="782.5" y="-2729.6" font-family="sans" font-weight="bold" font-size="18.00" fill="#000000">shard_clean_header</text>
<text text-anchor="start" x="397.5" y="-2705.8" font-family="sans" font-size="10.00" fill="#000000"> </text>
<text text-anchor="start" x="401.5" y="-2705.8" font-family="sans" font-weight="bold" font-size="14.00" fill="#000000">↪ input</text>
<text text-anchor="start" x="454.5" y="-2705.8" font-family="sans" font-size="10.00" fill="#000000"> </text>
<text text-anchor="start" x="397.5" y="-2686" font-family="monospace" font-size="10.00" fill="#000000">temp/shards/bowtie2/{sample}_{library}_{read_type_map}.{ref}.{n_shard}&#45;of&#45;{tot_shards}.bam</text>
<text text-anchor="start" x="1271.5" y="-2665.8" font-family="sans" font-size="10.00" fill="#000000"> </text>
<text text-anchor="start" x="1275.5" y="-2665.8" font-family="sans" font-weight="bold" font-size="14.00" fill="#000000">output →</text>
<text text-anchor="start" x="1336.5" y="-2665.8" font-family="sans" font-size="10.00" fill="#000000"> </text>
<text text-anchor="start" x="397.5" y="-2646" font-family="monospace" font-size="10.00" fill="#000000">temp/shards/clean_header/{sample,HD827sonic_1|HD827sonic_2}_{library,lib1|lib2}_{read_type_map,pe|se|singleton|collapsed}.{ref}.{n_shard}&#45;of&#45;{tot_shards}.bam</text>
<polygon fill="#5791d9" stroke="#5791d9" points="391.5,-2720 391.5,-2720 1347.5,-2720 1347.5,-2720 391.5,-2720"/>
<polygon fill="#5791d9" stroke="#5791d9" points="391.5,-2680 391.5,-2680 1347.5,-2680 1347.5,-2680 391.5,-2680"/>
<polygon fill="none" stroke="#5791d9" stroke-width="2" points="391,-2637 391,-2749 1346,-2749 1346,-2637 391,-2637"/>
</g>
<!-- 2&#45;&gt;10 -->
<g id="edge15" class="edge">
<title>2&#45;&gt;10</title>
<path fill="none" stroke="#c0c0c0" stroke-width="2" d="M631.738,-2785.951C658.8581,-2775.3039 686.8225,-2764.3252 713.6088,-2753.8091"/>
<polygon fill="#c0c0c0" stroke="#c0c0c0" stroke-width="2" points="715.0017,-2757.0224 723.031,-2750.11 712.4436,-2750.5066 715.0017,-2757.0224"/>
</g>
<!-- 3 -->
<g id="node4" class="node">
<title>3</title>
<text text-anchor="start" x="584" y="-1268.6" font-family="sans" font-weight="bold" font-size="18.00" fill="#000000">align_stats</text>
<text text-anchor="start" x="246.5" y="-1244.8" font-family="sans" font-size="10.00" fill="#000000"> </text>
<text text-anchor="start" x="250.5" y="-1244.8" font-family="sans" font-weight="bold" font-size="14.00" fill="#000000">↪ input</text>
<text text-anchor="start" x="303.5" y="-1244.8" font-family="sans" font-size="10.00" fill="#000000"> </text>
<text text-anchor="start" x="246.5" y="-1225" font-family="monospace" font-size="10.00" fill="#000000">results/align/sort_query/{sample}_{library}_{read_type_map}.bam</text>
<text text-anchor="start" x="946.5" y="-1204.8" font-family="sans" font-size="10.00" fill="#000000"> </text>
<text text-anchor="start" x="950.5" y="-1204.8" font-family="sans" font-weight="bold" font-size="14.00" fill="#000000">output →</text>
<text text-anchor="start" x="1011.5" y="-1204.8" font-family="sans" font-size="10.00" fill="#000000"> </text>
<text text-anchor="start" x="246.5" y="-1185" font-family="monospace" font-size="10.00" fill="#000000">stats/aligns/samtools_stats/{sample,HD827sonic_1|HD827sonic_2}_{library,lib1|lib2}_{read_type_map,pe|se|singleton|collapsed}.txt</text>
<polygon fill="#add957" stroke="#add957" points="240.5,-1259 240.5,-1259 1022.5,-1259 1022.5,-1259 240.5,-1259"/>
<polygon fill="#add957" stroke="#add957" points="240.5,-1219 240.5,-1219 1022.5,-1219 1022.5,-1219 240.5,-1219"/>
<polygon fill="none" stroke="#add957" stroke-width="2" points="240,-1176 240,-1288 1021,-1288 1021,-1176 240,-1176"/>
</g>
<!-- 3&#45;&gt;1 -->
<g id="edge6" class="edge">
<title>3&#45;&gt;1</title>
<path fill="none" stroke="#c0c0c0" stroke-width="2" d="M656.4207,-1174.7987C685.0074,-1111.7142 733.3239,-1005.0903 781.1919,-899.4561"/>
<polygon fill="#c0c0c0" stroke="#c0c0c0" stroke-width="2" points="784.4362,-900.7765 785.3757,-890.2234 778.0602,-897.8872 784.4362,-900.7765"/>
</g>
<!-- 4 -->
<g id="node5" class="node">
<title>4</title>
<text text-anchor="start" x="1013.5" y="-1703.6" font-family="sans" font-weight="bold" font-size="18.00" fill="#000000">align_sort_query</text>
<text text-anchor="start" x="711.5" y="-1679.8" font-family="sans" font-size="10.00" fill="#000000"> </text>
<text text-anchor="start" x="715.5" y="-1679.8" font-family="sans" font-weight="bold" font-size="14.00" fill="#000000">↪ input</text>
<text text-anchor="start" x="768.5" y="-1679.8" font-family="sans" font-size="10.00" fill="#000000"> </text>
<text text-anchor="start" x="711.5" y="-1660" font-family="monospace" font-size="10.00" fill="#000000">&lt;function &lt;lambda&gt; at 0x7f119d6b5300&gt;</text>
<text text-anchor="start" x="1393.5" y="-1639.8" font-family="sans" font-size="10.00" fill="#000000"> </text>
<text text-anchor="start" x="1397.5" y="-1639.8" font-family="sans" font-weight="bold" font-size="14.00" fill="#000000">output →</text>
<text text-anchor="start" x="1458.5" y="-1639.8" font-family="sans" font-size="10.00" fill="#000000"> </text>
<text text-anchor="start" x="711.5" y="-1620" font-family="monospace" font-size="10.00" fill="#000000">results/align/sort_query/{sample,HD827sonic_1|HD827sonic_2}_{library,lib1|lib2}_{read_type_map,pe|se|singleton|collapsed}.bam</text>
<polygon fill="#cad957" stroke="#cad957" points="705.5,-1694 705.5,-1694 1469.5,-1694 1469.5,-1694 705.5,-1694"/>
<polygon fill="#cad957" stroke="#cad957" points="705.5,-1654 705.5,-1654 1469.5,-1654 1469.5,-1654 705.5,-1654"/>
<polygon fill="none" stroke="#cad957" stroke-width="2" points="705,-1611 705,-1723 1468,-1723 1468,-1611 705,-1611"/>
</g>
<!-- 4&#45;&gt;3 -->
<g id="edge8" class="edge">
<title>4&#45;&gt;3</title>
<path fill="none" stroke="#c0c0c0" stroke-width="2" d="M1026.4171,-1609.684C941.3813,-1528.5644 786.4181,-1380.7377 697.6775,-1296.0838"/>
<polygon fill="#c0c0c0" stroke="#c0c0c0" stroke-width="2" points="700.005,-1293.467 690.3534,-1289.0969 695.1732,-1298.532 700.005,-1293.467"/>
</g>
<!-- 12 -->
<g id="node13" class="node">
<title>12</title>
<text text-anchor="start" x="1380.5" y="-1553.6" font-family="sans" font-weight="bold" font-size="18.00" fill="#000000">metadmg_lca</text>
<text text-anchor="start" x="1056.5" y="-1529.8" font-family="sans" font-size="10.00" fill="#000000"> </text>
<text text-anchor="start" x="1060.5" y="-1529.8" font-family="sans" font-weight="bold" font-size="14.00" fill="#000000">↪ input</text>
<text text-anchor="start" x="1113.5" y="-1529.8" font-family="sans" font-size="10.00" fill="#000000"> </text>
<text text-anchor="start" x="1056.5" y="-1510" font-family="monospace" font-size="10.00" fill="#000000">/projects/caeg/data/db/aeDNA&#45;refs/resources/20230825/ncbi/taxonomy/names.dmp</text>
<text text-anchor="start" x="1056.5" y="-1492" font-family="monospace" font-size="10.00" fill="#000000">/projects/caeg/data/db/aeDNA&#45;refs/resources/20230825/ncbi/taxonomy/nodes.dmp</text>
<text text-anchor="start" x="1056.5" y="-1474" font-family="monospace" font-size="10.00" fill="#000000">/projects/caeg/data/db/mikkels/combined_accession2taxid_20221112.gz</text>
<text text-anchor="start" x="1056.5" y="-1456" font-family="monospace" font-size="10.00" fill="#000000">results/align/sort_query/{sample}_{library}_{read_type_map}.bam</text>
<text text-anchor="start" x="1750.5" y="-1435.8" font-family="sans" font-size="10.00" fill="#000000"> </text>
<text text-anchor="start" x="1754.5" y="-1435.8" font-family="sans" font-weight="bold" font-size="14.00" fill="#000000">output →</text>
<text text-anchor="start" x="1815.5" y="-1435.8" font-family="sans" font-size="10.00" fill="#000000"> </text>
<text text-anchor="start" x="1056.5" y="-1416" font-family="monospace" font-size="10.00" fill="#000000">results/metadmg/lca/{sample,HD827sonic_1|HD827sonic_2}_{library,lib1|lib2}_{read_type_map,pe|se|singleton|collapsed}.bdamage.gz</text>
<text text-anchor="start" x="1056.5" y="-1398" font-family="monospace" font-size="10.00" fill="#000000">results/metadmg/lca/{sample,HD827sonic_1|HD827sonic_2}_{library,lib1|lib2}_{read_type_map,pe|se|singleton|collapsed}.lca.gz</text>
<text text-anchor="start" x="1056.5" y="-1380" font-family="monospace" font-size="10.00" fill="#000000">stats/metadmg/lca/{sample,HD827sonic_1|HD827sonic_2}_{library,lib1|lib2}_{read_type_map,pe|se|singleton|collapsed}.rlens.gz</text>
<text text-anchor="start" x="1056.5" y="-1362" font-family="monospace" font-size="10.00" fill="#000000">stats/metadmg/lca/{sample,HD827sonic_1|HD827sonic_2}_{library,lib1|lib2}_{read_type_map,pe|se|singleton|collapsed}.stat.gz</text>
<polygon fill="#57cad9" stroke="#57cad9" points="1050.5,-1544 1050.5,-1544 1826.5,-1544 1826.5,-1544 1050.5,-1544"/>
<polygon fill="#57cad9" stroke="#57cad9" points="1050.5,-1450 1050.5,-1450 1826.5,-1450 1826.5,-1450 1050.5,-1450"/>
<polygon fill="none" stroke="#57cad9" stroke-width="2" points="1050,-1353 1050,-1573 1825,-1573 1825,-1353 1050,-1353"/>
</g>
<!-- 4&#45;&gt;12 -->
<g id="edge17" class="edge">
<title>4&#45;&gt;12</title>
<path fill="none" stroke="#c0c0c0" stroke-width="2" d="M1184.7398,-1609.9034C1201.3844,-1600.2296 1219.1874,-1589.8825 1237.3497,-1579.3267"/>
<polygon fill="#c0c0c0" stroke="#c0c0c0" stroke-width="2" points="1239.404,-1582.1809 1246.2911,-1574.1299 1235.8866,-1576.1289 1239.404,-1582.1809"/>
</g>
<!-- 14 -->
<g id="node15" class="node">
<title>14</title>
<text text-anchor="start" x="2086.5" y="-1082.6" font-family="sans" font-weight="bold" font-size="18.00" fill="#000000">metadmg_damage</text>
<text text-anchor="start" x="1774.5" y="-1058.8" font-family="sans" font-size="10.00" fill="#000000"> </text>
<text text-anchor="start" x="1778.5" y="-1058.8" font-family="sans" font-weight="bold" font-size="14.00" fill="#000000">↪ input</text>
<text text-anchor="start" x="1831.5" y="-1058.8" font-family="sans" font-size="10.00" fill="#000000"> </text>
<text text-anchor="start" x="1774.5" y="-1039" font-family="monospace" font-size="10.00" fill="#000000">results/align/sort_query/{sample}_{library}_{read_type_map}.bam</text>
<text text-anchor="start" x="2486.5" y="-1018.8" font-family="sans" font-size="10.00" fill="#000000"> </text>
<text text-anchor="start" x="2490.5" y="-1018.8" font-family="sans" font-weight="bold" font-size="14.00" fill="#000000">output →</text>
<text text-anchor="start" x="2551.5" y="-1018.8" font-family="sans" font-size="10.00" fill="#000000"> </text>
<text text-anchor="start" x="1774.5" y="-999" font-family="monospace" font-size="10.00" fill="#000000">results/metadmg/damage/{sample,HD827sonic_1|HD827sonic_2}_{library,lib1|lib2}_{read_type_map,pe|se|singleton|collapsed}.bdamage.gz</text>
<text text-anchor="start" x="1774.5" y="-981" font-family="monospace" font-size="10.00" fill="#000000">results/metadmg/damage/{sample,HD827sonic_1|HD827sonic_2}_{library,lib1|lib2}_{read_type_map,pe|se|singleton|collapsed}.res.gz</text>
<text text-anchor="start" x="1774.5" y="-963" font-family="monospace" font-size="10.00" fill="#000000">stats/metadmg/damage/{sample,HD827sonic_1|HD827sonic_2}_{library,lib1|lib2}_{read_type_map,pe|se|singleton|collapsed}.rlens.gz</text>
<text text-anchor="start" x="1774.5" y="-945" font-family="monospace" font-size="10.00" fill="#000000">stats/metadmg/damage/{sample,HD827sonic_1|HD827sonic_2}_{library,lib1|lib2}_{read_type_map,pe|se|singleton|collapsed}.stat.gz</text>
<polygon fill="#57d9ad" stroke="#57d9ad" points="1768.5,-1073 1768.5,-1073 2562.5,-1073 2562.5,-1073 1768.5,-1073"/>
<polygon fill="#57d9ad" stroke="#57d9ad" points="1768.5,-1033 1768.5,-1033 2562.5,-1033 2562.5,-1033 1768.5,-1033"/>
<polygon fill="none" stroke="#57d9ad" stroke-width="2" points="1768,-936 1768,-1102 2561,-1102 2561,-936 1768,-936"/>
</g>
<!-- 4&#45;&gt;14 -->
<g id="edge20" class="edge">
<title>4&#45;&gt;14</title>
<path fill="none" stroke="#c0c0c0" stroke-width="2" d="M1469.0497,-1650.2773C1620.703,-1637.3695 1773.6263,-1614.5035 1835.5,-1574 2001.8488,-1465.1054 2095.6848,-1240.4007 2137.5909,-1112.8338"/>
<polygon fill="#c0c0c0" stroke="#c0c0c0" stroke-width="2" points="2141.0033,-1113.6573 2140.7607,-1103.0652 2134.345,-1111.4967 2141.0033,-1113.6573"/>
</g>
<!-- 5 -->
<g id="node6" class="node">
<title>5</title>
<text text-anchor="start" x="1032" y="-1943.6" font-family="sans" font-weight="bold" font-size="18.00" fill="#000000">align_filter</text>
<text text-anchor="start" x="660.5" y="-1919.8" font-family="sans" font-size="10.00" fill="#000000"> </text>
<text text-anchor="start" x="664.5" y="-1919.8" font-family="sans" font-weight="bold" font-size="14.00" fill="#000000">↪ input</text>
<text text-anchor="start" x="717.5" y="-1919.8" font-family="sans" font-size="10.00" fill="#000000"> </text>
<text text-anchor="start" x="660.5" y="-1900" font-family="monospace" font-size="10.00" fill="#000000">&lt;function &lt;lambda&gt; at 0x7f119d6baa20&gt;</text>
<text text-anchor="start" x="1426.5" y="-1879.8" font-family="sans" font-size="10.00" fill="#000000"> </text>
<text text-anchor="start" x="1430.5" y="-1879.8" font-family="sans" font-weight="bold" font-size="14.00" fill="#000000">output →</text>
<text text-anchor="start" x="1491.5" y="-1879.8" font-family="sans" font-size="10.00" fill="#000000"> </text>
<text text-anchor="start" x="660.5" y="-1860" font-family="monospace" font-size="10.00" fill="#000000">stats/aligns/filter/{sample,HD827sonic_1|HD827sonic_2}_{library,lib1|lib2}_{read_type_map,pe|se|singleton|collapsed}.read&#45;hits&#45;count.tsv.gz</text>
<text text-anchor="start" x="660.5" y="-1842" font-family="monospace" font-size="10.00" fill="#000000">stats/aligns/filter/{sample,HD827sonic_1|HD827sonic_2}_{library,lib1|lib2}_{read_type_map,pe|se|singleton|collapsed}.read&#45;length&#45;freqs.json</text>
<text text-anchor="start" x="660.5" y="-1824" font-family="monospace" font-size="10.00" fill="#000000">stats/aligns/filter/{sample,HD827sonic_1|HD827sonic_2}_{library,lib1|lib2}_{read_type_map,pe|se|singleton|collapsed}.stats&#45;filtered.tsv.gz</text>
<text text-anchor="start" x="660.5" y="-1806" font-family="monospace" font-size="10.00" fill="#000000">stats/aligns/filter/{sample,HD827sonic_1|HD827sonic_2}_{library,lib1|lib2}_{read_type_map,pe|se|singleton|collapsed}.stats.tsv.gz</text>
<text text-anchor="start" x="660.5" y="-1788" font-family="monospace" font-size="10.00" fill="#000000">temp/aligns/filter/{sample,HD827sonic_1|HD827sonic_2}_{library,lib1|lib2}_{read_type_map,pe|se|singleton|collapsed}.bam</text>
<text text-anchor="start" x="660.5" y="-1770" font-family="monospace" font-size="10.00" fill="#000000">temp/aligns/filter/{sample,HD827sonic_1|HD827sonic_2}_{library,lib1|lib2}_{read_type_map,pe|se|singleton|collapsed}.bam.csi</text>
<polygon fill="#d95757" stroke="#d95757" points="654.5,-1934 654.5,-1934 1502.5,-1934 1502.5,-1934 654.5,-1934"/>
<polygon fill="#d95757" stroke="#d95757" points="654.5,-1894 654.5,-1894 1502.5,-1894 1502.5,-1894 654.5,-1894"/>
<polygon fill="none" stroke="#d95757" stroke-width="2" points="654,-1761 654,-1963 1501,-1963 1501,-1761 654,-1761"/>
</g>
<!-- 5&#45;&gt;4 -->
<g id="edge9" class="edge">
<title>5&#45;&gt;4</title>
<path fill="none" stroke="#c0c0c0" stroke-width="2" d="M1082.2109,-1759.9312C1082.6086,-1751.3138 1083.0041,-1742.7441 1083.385,-1734.4921"/>
<polygon fill="#c0c0c0" stroke="#c0c0c0" stroke-width="2" points="1086.8938,-1734.3807 1083.8586,-1724.2299 1079.9012,-1734.0579 1086.8938,-1734.3807"/>
</g>
<!-- 6 -->
<g id="node7" class="node">
<title>6</title>
<text text-anchor="start" x="1005.5" y="-2111.6" font-family="sans" font-weight="bold" font-size="18.00" fill="#000000">align_reassign</text>
<text text-anchor="start" x="693.5" y="-2087.8" font-family="sans" font-size="10.00" fill="#000000"> </text>
<text text-anchor="start" x="697.5" y="-2087.8" font-family="sans" font-weight="bold" font-size="14.00" fill="#000000">↪ input</text>
<text text-anchor="start" x="750.5" y="-2087.8" font-family="sans" font-size="10.00" fill="#000000"> </text>
<text text-anchor="start" x="693.5" y="-2068" font-family="monospace" font-size="10.00" fill="#000000">&lt;function &lt;lambda&gt; at 0x7f119d6bade0&gt;</text>
<text text-anchor="start" x="1375.5" y="-2047.8" font-family="sans" font-size="10.00" fill="#000000"> </text>
<text text-anchor="start" x="1379.5" y="-2047.8" font-family="sans" font-weight="bold" font-size="14.00" fill="#000000">output →</text>
<text text-anchor="start" x="1440.5" y="-2047.8" font-family="sans" font-size="10.00" fill="#000000"> </text>
<text text-anchor="start" x="693.5" y="-2028" font-family="monospace" font-size="10.00" fill="#000000">temp/aligns/reassign/{sample,HD827sonic_1|HD827sonic_2}_{library,lib1|lib2}_{read_type_map,pe|se|singleton|collapsed}.bam</text>
<text text-anchor="start" x="693.5" y="-2010" font-family="monospace" font-size="10.00" fill="#000000">temp/aligns/reassign/{sample,HD827sonic_1|HD827sonic_2}_{library,lib1|lib2}_{read_type_map,pe|se|singleton|collapsed}.bam.csi</text>
<polygon fill="#d9ad57" stroke="#d9ad57" points="687.5,-2102 687.5,-2102 1451.5,-2102 1451.5,-2102 687.5,-2102"/>
<polygon fill="#d9ad57" stroke="#d9ad57" points="687.5,-2062 687.5,-2062 1451.5,-2062 1451.5,-2062 687.5,-2062"/>
<polygon fill="none" stroke="#d9ad57" stroke-width="2" points="687,-2001 687,-2131 1450,-2131 1450,-2001 687,-2001"/>
</g>
<!-- 6&#45;&gt;5 -->
<g id="edge10" class="edge">
<title>6&#45;&gt;5</title>
<path fill="none" stroke="#c0c0c0" stroke-width="2" d="M1071.422,-1999.767C1071.7836,-1991.5723 1072.1607,-1983.0248 1072.5422,-1974.3768"/>
<polygon fill="#c0c0c0" stroke="#c0c0c0" stroke-width="2" points="1076.0472,-1974.3383 1072.9915,-1964.1938 1069.054,-1974.0298 1076.0472,-1974.3383"/>
</g>
<!-- 7 -->
<g id="node8" class="node">
<title>7</title>
<text text-anchor="start" x="977" y="-2279.6" font-family="sans" font-weight="bold" font-size="18.00" fill="#000000">align_sort_coord</text>
<text text-anchor="start" x="672.5" y="-2255.8" font-family="sans" font-size="10.00" fill="#000000"> </text>
<text text-anchor="start" x="676.5" y="-2255.8" font-family="sans" font-weight="bold" font-size="14.00" fill="#000000">↪ input</text>
<text text-anchor="start" x="729.5" y="-2255.8" font-family="sans" font-size="10.00" fill="#000000"> </text>
<text text-anchor="start" x="672.5" y="-2236" font-family="monospace" font-size="10.00" fill="#000000">results/aligns/merge/{sample}_{library}_{read_type_map}.bam</text>
<text text-anchor="start" x="1360.5" y="-2215.8" font-family="sans" font-size="10.00" fill="#000000"> </text>
<text text-anchor="start" x="1364.5" y="-2215.8" font-family="sans" font-weight="bold" font-size="14.00" fill="#000000">output →</text>
<text text-anchor="start" x="1425.5" y="-2215.8" font-family="sans" font-size="10.00" fill="#000000"> </text>
<text text-anchor="start" x="672.5" y="-2196" font-family="monospace" font-size="10.00" fill="#000000">temp/align/sort_coord/{sample,HD827sonic_1|HD827sonic_2}_{library,lib1|lib2}_{read_type_map,pe|se|singleton|collapsed}.bam</text>
<text text-anchor="start" x="672.5" y="-2178" font-family="monospace" font-size="10.00" fill="#000000">temp/align/sort_coord/{sample,HD827sonic_1|HD827sonic_2}_{library,lib1|lib2}_{read_type_map,pe|se|singleton|collapsed}.bam.csi</text>
<polygon fill="#d9ca57" stroke="#d9ca57" points="666.5,-2270 666.5,-2270 1436.5,-2270 1436.5,-2270 666.5,-2270"/>
<polygon fill="#d9ca57" stroke="#d9ca57" points="666.5,-2230 666.5,-2230 1436.5,-2230 1436.5,-2230 666.5,-2230"/>
<polygon fill="none" stroke="#d9ca57" stroke-width="2" points="666,-2169 666,-2299 1435,-2299 1435,-2169 666,-2169"/>
</g>
<!-- 7&#45;&gt;6 -->
<g id="edge11" class="edge">
<title>7&#45;&gt;6</title>
<path fill="none" stroke="#c0c0c0" stroke-width="2" d="M1057.6141,-2167.602C1058.5013,-2159.3209 1059.4142,-2150.801 1060.316,-2142.3839"/>
<polygon fill="#c0c0c0" stroke="#c0c0c0" stroke-width="2" points="1063.8228,-2142.5068 1061.4081,-2132.1908 1056.8626,-2141.761 1063.8228,-2142.5068"/>
</g>
<!-- 8 -->
<g id="node9" class="node">
<title>8</title>
<text text-anchor="start" x="922" y="-2429.6" font-family="sans" font-weight="bold" font-size="18.00" fill="#000000">align_merge</text>
<text text-anchor="start" x="611.5" y="-2405.8" font-family="sans" font-size="10.00" fill="#000000"> </text>
<text text-anchor="start" x="615.5" y="-2405.8" font-family="sans" font-weight="bold" font-size="14.00" fill="#000000">↪ input</text>
<text text-anchor="start" x="668.5" y="-2405.8" font-family="sans" font-size="10.00" fill="#000000"> </text>
<text text-anchor="start" x="611.5" y="-2386" font-family="monospace" font-size="10.00" fill="#000000">&lt;input function&gt;</text>
<text text-anchor="start" x="1269.5" y="-2365.8" font-family="sans" font-size="10.00" fill="#000000"> </text>
<text text-anchor="start" x="1273.5" y="-2365.8" font-family="sans" font-weight="bold" font-size="14.00" fill="#000000">output →</text>
<text text-anchor="start" x="1334.5" y="-2365.8" font-family="sans" font-size="10.00" fill="#000000"> </text>
<text text-anchor="start" x="611.5" y="-2346" font-family="monospace" font-size="10.00" fill="#000000">results/aligns/merge/{sample,HD827sonic_1|HD827sonic_2}_{library,lib1|lib2}_{read_type_map,pe|se|singleton|collapsed}.bam</text>
<polygon fill="#d99157" stroke="#d99157" points="605.5,-2420 605.5,-2420 1345.5,-2420 1345.5,-2420 605.5,-2420"/>
<polygon fill="#d99157" stroke="#d99157" points="605.5,-2380 605.5,-2380 1345.5,-2380 1345.5,-2380 605.5,-2380"/>
<polygon fill="none" stroke="#d99157" stroke-width="2" points="605,-2337 605,-2449 1344,-2449 1344,-2337 605,-2337"/>
</g>
<!-- 8&#45;&gt;7 -->
<g id="edge12" class="edge">
<title>8&#45;&gt;7</title>
<path fill="none" stroke="#c0c0c0" stroke-width="2" d="M1001.9377,-2335.5974C1006.0085,-2327.0809 1010.255,-2318.1968 1014.469,-2309.3806"/>
<polygon fill="#c0c0c0" stroke="#c0c0c0" stroke-width="2" points="1017.6853,-2310.7676 1018.8401,-2300.2358 1011.3697,-2307.7487 1017.6853,-2310.7676"/>
</g>
<!-- 9 -->
<g id="node10" class="node">
<title>9</title>
<text text-anchor="start" x="863" y="-2579.6" font-family="sans" font-weight="bold" font-size="18.00" fill="#000000">shard_sort_coord</text>
<text text-anchor="start" x="474.5" y="-2555.8" font-family="sans" font-size="10.00" fill="#000000"> </text>
<text text-anchor="start" x="478.5" y="-2555.8" font-family="sans" font-weight="bold" font-size="14.00" fill="#000000">↪ input</text>
<text text-anchor="start" x="531.5" y="-2555.8" font-family="sans" font-size="10.00" fill="#000000"> </text>
<text text-anchor="start" x="474.5" y="-2536" font-family="monospace" font-size="10.00" fill="#000000">temp/shards/clean_header/{sample}_{library}_{read_type_map}.{ref}.{n_shard}&#45;of&#45;{tot_shards}.bam</text>
<text text-anchor="start" x="1336.5" y="-2515.8" font-family="sans" font-size="10.00" fill="#000000"> </text>
<text text-anchor="start" x="1340.5" y="-2515.8" font-family="sans" font-weight="bold" font-size="14.00" fill="#000000">output →</text>
<text text-anchor="start" x="1401.5" y="-2515.8" font-family="sans" font-size="10.00" fill="#000000"> </text>
<text text-anchor="start" x="474.5" y="-2496" font-family="monospace" font-size="10.00" fill="#000000">temp/shards/sort_coord/{sample,HD827sonic_1|HD827sonic_2}_{library,lib1|lib2}_{read_type_map,pe|se|singleton|collapsed}.{ref}.{n_shard}&#45;of&#45;{tot_shards}.bam</text>
<polygon fill="#5774d9" stroke="#5774d9" points="468.5,-2570 468.5,-2570 1412.5,-2570 1412.5,-2570 468.5,-2570"/>
<polygon fill="#5774d9" stroke="#5774d9" points="468.5,-2530 468.5,-2530 1412.5,-2530 1412.5,-2530 468.5,-2530"/>
<polygon fill="none" stroke="#5774d9" stroke-width="2" points="468,-2487 468,-2599 1411,-2599 1411,-2487 468,-2487"/>
</g>
<!-- 9&#45;&gt;8 -->
<g id="edge13" class="edge">
<title>9&#45;&gt;8</title>
<path fill="none" stroke="#c0c0c0" stroke-width="2" d="M952.8318,-2485.8635C954.7758,-2477.5325 956.7925,-2468.8892 958.7784,-2460.3783"/>
<polygon fill="#c0c0c0" stroke="#c0c0c0" stroke-width="2" points="962.2254,-2461.0082 961.0893,-2450.4745 955.4085,-2459.4176 962.2254,-2461.0082"/>
</g>
<!-- 10&#45;&gt;9 -->
<g id="edge14" class="edge">
<title>10&#45;&gt;9</title>
<path fill="none" stroke="#c0c0c0" stroke-width="2" d="M895.5446,-2635.8635C899.6165,-2627.2608 903.8461,-2618.3252 908.0015,-2609.5461"/>
<polygon fill="#c0c0c0" stroke="#c0c0c0" stroke-width="2" points="911.1806,-2611.0105 912.2954,-2600.4745 904.8536,-2608.0157 911.1806,-2611.0105"/>
</g>
<!-- 11 -->
<g id="node12" class="node">
<title>11</title>
<text text-anchor="start" x="1379" y="-1295.6" font-family="sans" font-weight="bold" font-size="18.00" fill="#000000">metadmg_dfit</text>
<text text-anchor="start" x="1047.5" y="-1271.8" font-family="sans" font-size="10.00" fill="#000000"> </text>
<text text-anchor="start" x="1051.5" y="-1271.8" font-family="sans" font-weight="bold" font-size="14.00" fill="#000000">↪ input</text>
<text text-anchor="start" x="1104.5" y="-1271.8" font-family="sans" font-size="10.00" fill="#000000"> </text>
<text text-anchor="start" x="1047.5" y="-1252" font-family="monospace" font-size="10.00" fill="#000000">/projects/caeg/data/db/aeDNA&#45;refs/resources/20230825/ncbi/taxonomy/names.dmp</text>
<text text-anchor="start" x="1047.5" y="-1234" font-family="monospace" font-size="10.00" fill="#000000">/projects/caeg/data/db/aeDNA&#45;refs/resources/20230825/ncbi/taxonomy/nodes.dmp</text>
<text text-anchor="start" x="1047.5" y="-1216" font-family="monospace" font-size="10.00" fill="#000000">results/metadmg/lca/{sample}_{library}_{read_type_map}.bdamage.gz</text>
<text text-anchor="start" x="1759.5" y="-1195.8" font-family="sans" font-size="10.00" fill="#000000"> </text>
<text text-anchor="start" x="1763.5" y="-1195.8" font-family="sans" font-weight="bold" font-size="14.00" fill="#000000">output →</text>
<text text-anchor="start" x="1824.5" y="-1195.8" font-family="sans" font-size="10.00" fill="#000000"> </text>
<text text-anchor="start" x="1047.5" y="-1176" font-family="monospace" font-size="10.00" fill="#000000">results/metadmg/dfit/{sample,HD827sonic_1|HD827sonic_2}_{library,lib1|lib2}_{read_type_map,pe|se|singleton|collapsed}.boot.stat.gz</text>
<text text-anchor="start" x="1047.5" y="-1158" font-family="monospace" font-size="10.00" fill="#000000">results/metadmg/dfit/{sample,HD827sonic_1|HD827sonic_2}_{library,lib1|lib2}_{read_type_map,pe|se|singleton|collapsed}.dfit.gz</text>
<polygon fill="#57d9ca" stroke="#57d9ca" points="1041.5,-1286 1041.5,-1286 1835.5,-1286 1835.5,-1286 1041.5,-1286"/>
<polygon fill="#57d9ca" stroke="#57d9ca" points="1041.5,-1210 1041.5,-1210 1835.5,-1210 1835.5,-1210 1041.5,-1210"/>
<polygon fill="none" stroke="#57d9ca" stroke-width="2" points="1041,-1149 1041,-1315 1834,-1315 1834,-1149 1041,-1149"/>
</g>
<!-- 11&#45;&gt;1 -->
<g id="edge4" class="edge">
<title>11&#45;&gt;1</title>
<path fill="none" stroke="#c0c0c0" stroke-width="2" d="M1039.9463,-1150.121C990.3376,-1136.4958 953.6138,-1123.1807 944.5,-1112 896.321,-1052.8942 877.2754,-976.5935 873.572,-900.3653"/>
<polygon fill="#c0c0c0" stroke="#c0c0c0" stroke-width="2" points="877.0585,-899.9532 873.1648,-890.0998 870.064,-900.2307 877.0585,-899.9532"/>
</g>
<!-- 13 -->
<g id="node14" class="node">
<title>13</title>
<text text-anchor="start" x="1264.5" y="-1091.6" font-family="sans" font-weight="bold" font-size="18.00" fill="#000000">metadmg_aggregate</text>
<text text-anchor="start" x="961.5" y="-1067.8" font-family="sans" font-size="10.00" fill="#000000"> </text>
<text text-anchor="start" x="965.5" y="-1067.8" font-family="sans" font-weight="bold" font-size="14.00" fill="#000000">↪ input</text>
<text text-anchor="start" x="1018.5" y="-1067.8" font-family="sans" font-size="10.00" fill="#000000"> </text>
<text text-anchor="start" x="961.5" y="-1048" font-family="monospace" font-size="10.00" fill="#000000">/projects/caeg/data/db/aeDNA&#45;refs/resources/20230825/ncbi/taxonomy/names.dmp</text>
<text text-anchor="start" x="961.5" y="-1030" font-family="monospace" font-size="10.00" fill="#000000">/projects/caeg/data/db/aeDNA&#45;refs/resources/20230825/ncbi/taxonomy/nodes.dmp</text>
<text text-anchor="start" x="961.5" y="-1012" font-family="monospace" font-size="10.00" fill="#000000">results/metadmg/dfit/{sample}_{library}_{read_type_map}.dfit.gz</text>
<text text-anchor="start" x="961.5" y="-994" font-family="monospace" font-size="10.00" fill="#000000">results/metadmg/lca/{sample}_{library}_{read_type_map}.bdamage.gz</text>
<text text-anchor="start" x="961.5" y="-976" font-family="monospace" font-size="10.00" fill="#000000">stats/metadmg/lca/{sample}_{library}_{read_type_map}.stat.gz</text>
<text text-anchor="start" x="1673.5" y="-955.8" font-family="sans" font-size="10.00" fill="#000000"> </text>
<text text-anchor="start" x="1677.5" y="-955.8" font-family="sans" font-weight="bold" font-size="14.00" fill="#000000">output →</text>
<text text-anchor="start" x="1738.5" y="-955.8" font-family="sans" font-size="10.00" fill="#000000"> </text>
<text text-anchor="start" x="961.5" y="-936" font-family="monospace" font-size="10.00" fill="#000000">results/metadmg/aggregate/{sample,HD827sonic_1|HD827sonic_2}_{library,lib1|lib2}_{read_type_map,pe|se|singleton|collapsed}.stat.gz</text>
<polygon fill="#57d990" stroke="#57d990" points="955.5,-1082 955.5,-1082 1749.5,-1082 1749.5,-1082 955.5,-1082"/>
<polygon fill="#57d990" stroke="#57d990" points="955.5,-970 955.5,-970 1749.5,-970 1749.5,-970 955.5,-970"/>
<polygon fill="none" stroke="#57d990" stroke-width="2" points="955,-927 955,-1111 1748,-1111 1748,-927 955,-927"/>
</g>
<!-- 11&#45;&gt;13 -->
<g id="edge18" class="edge">
<title>11&#45;&gt;13</title>
<path fill="none" stroke="#c0c0c0" stroke-width="2" d="M1403.5105,-1147.8168C1400.0281,-1139.1918 1396.4632,-1130.3624 1392.9127,-1121.5687"/>
<polygon fill="#c0c0c0" stroke="#c0c0c0" stroke-width="2" points="1396.0598,-1120.0144 1389.0703,-1112.0521 1389.5689,-1122.6352 1396.0598,-1120.0144"/>
</g>
<!-- 12&#45;&gt;11 -->
<g id="edge16" class="edge">
<title>12&#45;&gt;11</title>
<path fill="none" stroke="#c0c0c0" stroke-width="2" d="M1437.5,-1351.898C1437.5,-1343.3521 1437.5,-1334.7741 1437.5,-1326.3514"/>
<polygon fill="#c0c0c0" stroke="#c0c0c0" stroke-width="2" points="1441.0001,-1326.1672 1437.5,-1316.1673 1434.0001,-1326.1673 1441.0001,-1326.1672"/>
</g>
<!-- 12&#45;&gt;13 -->
<g id="edge19" class="edge">
<title>12&#45;&gt;13</title>
<path fill="none" stroke="#c0c0c0" stroke-width="2" d="M1799.3568,-1351.9094C1819.9946,-1340.3409 1835.8666,-1328.2975 1844.5,-1316 1887.4024,-1254.8895 1890.128,-1207.1033 1844.5,-1148 1839.7823,-1141.889 1800.9782,-1129.5185 1747.0285,-1114.7566"/>
<polygon fill="#c0c0c0" stroke="#c0c0c0" stroke-width="2" points="1747.7191,-1111.3174 1737.1512,-1112.0726 1745.8835,-1118.0724 1747.7191,-1111.3174"/>
</g>
<!-- 13&#45;&gt;0 -->
<g id="edge2" class="edge">
<title>13&#45;&gt;0</title>
<path fill="none" stroke="#c0c0c0" stroke-width="2" d="M1351.5,-925.9708C1351.5,-764.1333 1351.5,-430.5185 1351.5,-246.6369"/>
<polygon fill="#c0c0c0" stroke="#c0c0c0" stroke-width="2" points="1355.0001,-246.3705 1351.5,-236.3706 1348.0001,-246.3706 1355.0001,-246.3705"/>
</g>
<!-- 13&#45;&gt;1 -->
<g id="edge5" class="edge">
<title>13&#45;&gt;1</title>
<path fill="none" stroke="#c0c0c0" stroke-width="2" d="M1260.8957,-925.8435C1235.6782,-899.9156 1206.9962,-870.4257 1177.2716,-839.8638"/>
<polygon fill="#c0c0c0" stroke="#c0c0c0" stroke-width="2" points="1179.585,-837.2224 1170.1038,-832.494 1174.567,-842.1029 1179.585,-837.2224"/>
</g>
<!-- 14&#45;&gt;0 -->
<g id="edge3" class="edge">
<title>14&#45;&gt;0</title>
<path fill="none" stroke="#c0c0c0" stroke-width="2" d="M2088.3803,-934.6411C1944.8101,-775.5306 1633.3686,-430.3784 1465.0055,-243.7914"/>
<polygon fill="#c0c0c0" stroke="#c0c0c0" stroke-width="2" points="1467.3853,-241.2043 1458.0875,-236.1247 1462.1882,-245.8938 1467.3853,-241.2043"/>
</g>
</g>
</svg>
