<?xml version="1.0" encoding="UTF-8" standalone="no"?>
<!DOCTYPE svg PUBLIC "-//W3C//DTD SVG 1.1//EN"
 "http://www.w3.org/Graphics/SVG/1.1/DTD/svg11.dtd">
<!-- Generated by graphviz version 2.40.1 (0)
 -->
<!-- Title: snakemake_dag Pages: 1 -->
<svg width="2087pt" height="2872pt"
 viewBox="0.00 0.00 2087.00 2872.00" xmlns="http://www.w3.org/2000/svg" xmlns:xlink="http://www.w3.org/1999/xlink">
<g id="graph0" class="graph" transform="scale(1 1) rotate(0) translate(4 2868)">
<title>snakemake_dag</title>
<polygon fill="#ffffff" stroke="transparent" points="-4,4 -4,-2868 2083,-2868 2083,4 -4,4"/>
<!-- 0 -->
<g id="node1" class="node">
<title>0</title>
<text text-anchor="start" x="1051.5" y="-215.6" font-family="sans" font-weight="bold" font-size="18.00" fill="#000000">all</text>
<text text-anchor="start" x="878.5" y="-191.8" font-family="sans" font-size="10.00" fill="#000000"> </text>
<text text-anchor="start" x="882.5" y="-191.8" font-family="sans" font-weight="bold" font-size="14.00" fill="#000000">↪ input</text>
<text text-anchor="start" x="935.5" y="-191.8" font-family="sans" font-size="10.00" fill="#000000"> </text>
<text text-anchor="start" x="878.5" y="-172" font-family="monospace" font-size="10.00" fill="#000000">reports/multiqc.html</text>
<text text-anchor="start" x="878.5" y="-154" font-family="monospace" font-size="10.00" fill="#000000">results/metadmg/aggregate/HD827sonic_1_lib1_collapsed.stat.gz</text>
<text text-anchor="start" x="878.5" y="-136" font-family="monospace" font-size="10.00" fill="#000000">results/metadmg/aggregate/HD827sonic_1_lib1_collapsed.stat.gz</text>
<text text-anchor="start" x="878.5" y="-118" font-family="monospace" font-size="10.00" fill="#000000">results/metadmg/aggregate/HD827sonic_2_lib1_collapsed.stat.gz</text>
<text text-anchor="start" x="878.5" y="-100" font-family="monospace" font-size="10.00" fill="#000000">results/metadmg/aggregate/HD827sonic_2_lib2_collapsed.stat.gz</text>
<text text-anchor="start" x="878.5" y="-82" font-family="monospace" font-size="10.00" fill="#000000">stats/metadmg/damage/HD827sonic_1_lib1_collapsed.stat.gz</text>
<text text-anchor="start" x="878.5" y="-64" font-family="monospace" font-size="10.00" fill="#000000">stats/metadmg/damage/HD827sonic_1_lib1_collapsed.stat.gz</text>
<text text-anchor="start" x="878.5" y="-46" font-family="monospace" font-size="10.00" fill="#000000">stats/metadmg/damage/HD827sonic_2_lib1_collapsed.stat.gz</text>
<text text-anchor="start" x="878.5" y="-28" font-family="monospace" font-size="10.00" fill="#000000">stats/metadmg/damage/HD827sonic_2_lib2_collapsed.stat.gz</text>
<text text-anchor="start" x="1238.5" y="-10" font-family="sans" font-size="10.00" fill="#000000"> &#160;</text>
<polygon fill="#91d957" stroke="#91d957" points="872.5,-206 872.5,-206 1252.5,-206 1252.5,-206 872.5,-206"/>
<polygon fill="#91d957" stroke="#91d957" points="872.5,-22 872.5,-22 1252.5,-22 1252.5,-22 872.5,-22"/>
<polygon fill="none" stroke="#91d957" stroke-width="2" points="872,-1 872,-235 1251,-235 1251,-1 872,-1"/>
</g>
<!-- 1 -->
<g id="node2" class="node">
<title>1</title>
<text text-anchor="start" x="603.5" y="-815.6" font-family="sans" font-weight="bold" font-size="18.00" fill="#000000">multiqc</text>
<text text-anchor="start" x="398.5" y="-791.8" font-family="sans" font-size="10.00" fill="#000000"> </text>
<text text-anchor="start" x="402.5" y="-791.8" font-family="sans" font-weight="bold" font-size="14.00" fill="#000000">↪ input</text>
<text text-anchor="start" x="455.5" y="-791.8" font-family="sans" font-size="10.00" fill="#000000"> </text>
<text text-anchor="start" x="398.5" y="-772" font-family="monospace" font-size="10.00" fill="#000000">logs/shards/bowtie2/HD827sonic_1_lib1_collapsed.refseq_mitochondrion.1&#45;of&#45;1.log</text>
<text text-anchor="start" x="398.5" y="-754" font-family="monospace" font-size="10.00" fill="#000000">logs/shards/bowtie2/HD827sonic_1_lib1_collapsed.wgs_eukaryota.1&#45;of&#45;2.log</text>
<text text-anchor="start" x="398.5" y="-736" font-family="monospace" font-size="10.00" fill="#000000">logs/shards/bowtie2/HD827sonic_1_lib1_collapsed.wgs_eukaryota.2&#45;of&#45;2.log</text>
<text text-anchor="start" x="398.5" y="-718" font-family="monospace" font-size="10.00" fill="#000000">logs/shards/bowtie2/HD827sonic_2_lib1_collapsed.refseq_mitochondrion.1&#45;of&#45;1.log</text>
<text text-anchor="start" x="398.5" y="-700" font-family="monospace" font-size="10.00" fill="#000000">logs/shards/bowtie2/HD827sonic_2_lib1_collapsed.wgs_eukaryota.1&#45;of&#45;2.log</text>
<text text-anchor="start" x="398.5" y="-682" font-family="monospace" font-size="10.00" fill="#000000">logs/shards/bowtie2/HD827sonic_2_lib1_collapsed.wgs_eukaryota.2&#45;of&#45;2.log</text>
<text text-anchor="start" x="398.5" y="-664" font-family="monospace" font-size="10.00" fill="#000000">logs/shards/bowtie2/HD827sonic_2_lib2_collapsed.refseq_mitochondrion.1&#45;of&#45;1.log</text>
<text text-anchor="start" x="398.5" y="-646" font-family="monospace" font-size="10.00" fill="#000000">logs/shards/bowtie2/HD827sonic_2_lib2_collapsed.wgs_eukaryota.1&#45;of&#45;2.log</text>
<text text-anchor="start" x="398.5" y="-628" font-family="monospace" font-size="10.00" fill="#000000">logs/shards/bowtie2/HD827sonic_2_lib2_collapsed.wgs_eukaryota.2&#45;of&#45;2.log</text>
<text text-anchor="start" x="398.5" y="-610" font-family="monospace" font-size="10.00" fill="#000000">results/metadmg/aggregate/HD827sonic_1_lib1_collapsed.stat.gz</text>
<text text-anchor="start" x="398.5" y="-592" font-family="monospace" font-size="10.00" fill="#000000">results/metadmg/aggregate/HD827sonic_1_lib1_collapsed.stat.gz</text>
<text text-anchor="start" x="398.5" y="-574" font-family="monospace" font-size="10.00" fill="#000000">results/metadmg/aggregate/HD827sonic_2_lib1_collapsed.stat.gz</text>
<text text-anchor="start" x="398.5" y="-556" font-family="monospace" font-size="10.00" fill="#000000">results/metadmg/aggregate/HD827sonic_2_lib2_collapsed.stat.gz</text>
<text text-anchor="start" x="398.5" y="-538" font-family="monospace" font-size="10.00" fill="#000000">results/metadmg/dfit/HD827sonic_1_lib1_collapsed.dfit.gz</text>
<text text-anchor="start" x="398.5" y="-520" font-family="monospace" font-size="10.00" fill="#000000">results/metadmg/dfit/HD827sonic_1_lib1_collapsed.dfit.gz</text>
<text text-anchor="start" x="398.5" y="-502" font-family="monospace" font-size="10.00" fill="#000000">results/metadmg/dfit/HD827sonic_2_lib1_collapsed.dfit.gz</text>
<text text-anchor="start" x="398.5" y="-484" font-family="monospace" font-size="10.00" fill="#000000">results/metadmg/dfit/HD827sonic_2_lib2_collapsed.dfit.gz</text>
<text text-anchor="start" x="398.5" y="-466" font-family="monospace" font-size="10.00" fill="#000000">stats/aligns/samtools_stats/HD827sonic_1_lib1_collapsed.txt</text>
<text text-anchor="start" x="398.5" y="-448" font-family="monospace" font-size="10.00" fill="#000000">stats/aligns/samtools_stats/HD827sonic_1_lib1_collapsed.txt</text>
<text text-anchor="start" x="398.5" y="-430" font-family="monospace" font-size="10.00" fill="#000000">stats/aligns/samtools_stats/HD827sonic_1_lib1_collapsed.txt</text>
<text text-anchor="start" x="398.5" y="-412" font-family="monospace" font-size="10.00" fill="#000000">stats/aligns/samtools_stats/HD827sonic_1_lib1_collapsed.txt</text>
<text text-anchor="start" x="398.5" y="-394" font-family="monospace" font-size="10.00" fill="#000000">stats/aligns/samtools_stats/HD827sonic_2_lib1_collapsed.txt</text>
<text text-anchor="start" x="398.5" y="-376" font-family="monospace" font-size="10.00" fill="#000000">stats/aligns/samtools_stats/HD827sonic_2_lib1_collapsed.txt</text>
<text text-anchor="start" x="398.5" y="-358" font-family="monospace" font-size="10.00" fill="#000000">stats/aligns/samtools_stats/HD827sonic_2_lib2_collapsed.txt</text>
<text text-anchor="start" x="398.5" y="-340" font-family="monospace" font-size="10.00" fill="#000000">stats/aligns/samtools_stats/HD827sonic_2_lib2_collapsed.txt</text>
<text text-anchor="start" x="804.5" y="-319.8" font-family="sans" font-size="10.00" fill="#000000"> </text>
<text text-anchor="start" x="808.5" y="-319.8" font-family="sans" font-weight="bold" font-size="14.00" fill="#000000">output →</text>
<text text-anchor="start" x="869.5" y="-319.8" font-family="sans" font-size="10.00" fill="#000000"> </text>
<text text-anchor="start" x="398.5" y="-300" font-family="monospace" font-size="10.00" fill="#000000">reports/multiqc.html</text>
<text text-anchor="start" x="398.5" y="-282" font-family="monospace" font-size="10.00" fill="#000000">reports/multiqc_data.zip</text>
<polygon fill="#57add9" stroke="#57add9" points="392.5,-806 392.5,-806 880.5,-806 880.5,-806 392.5,-806"/>
<polygon fill="#57add9" stroke="#57add9" points="392.5,-334 392.5,-334 880.5,-334 880.5,-334 392.5,-334"/>
<polygon fill="none" stroke="#57add9" stroke-width="2" points="392,-273 392,-835 879,-835 879,-273 392,-273"/>
</g>
<!-- 1&#45;&gt;0 -->
<g id="edge3" class="edge">
<title>1&#45;&gt;0</title>
<path fill="none" stroke="#c0c0c0" stroke-width="2" d="M880.2199,-303.5355C900.4441,-282.8365 920.278,-262.537 938.9703,-243.406"/>
<polygon fill="#c0c0c0" stroke="#c0c0c0" stroke-width="2" points="941.5916,-245.7314 946.0768,-236.1327 936.5847,-240.8393 941.5916,-245.7314"/>
</g>
<!-- 2 -->
<g id="node3" class="node">
<title>2</title>
<text text-anchor="start" x="429.5" y="-2843.6" font-family="sans" font-weight="bold" font-size="18.00" fill="#000000">bowtie2</text>
<text text-anchor="start" x="7.5" y="-2819.8" font-family="sans" font-size="10.00" fill="#000000"> </text>
<text text-anchor="start" x="11.5" y="-2819.8" font-family="sans" font-weight="bold" font-size="14.00" fill="#000000">↪ input</text>
<text text-anchor="start" x="64.5" y="-2819.8" font-family="sans" font-size="10.00" fill="#000000"> </text>
<text text-anchor="start" x="7.5" y="-2800" font-family="monospace" font-size="10.00" fill="#000000">&lt;input function&gt;</text>
<text text-anchor="start" x="7.5" y="-2782" font-family="monospace" font-size="10.00" fill="#000000">&lt;input function&gt;</text>
<text text-anchor="start" x="851.5" y="-2761.8" font-family="sans" font-size="10.00" fill="#000000"> </text>
<text text-anchor="start" x="855.5" y="-2761.8" font-family="sans" font-weight="bold" font-size="14.00" fill="#000000">output →</text>
<text text-anchor="start" x="916.5" y="-2761.8" font-family="sans" font-size="10.00" fill="#000000"> </text>
<text text-anchor="start" x="7.5" y="-2742" font-family="monospace" font-size="10.00" fill="#000000">temp/shards/bowtie2/{sample,HD827sonic_1|HD827sonic_2}_{library,lib1|lib2}_{read_type_map,pe|se|singleton|collapsed}.{ref}.{n_shard}&#45;of&#45;{tot_shards}.bam</text>
<polygon fill="#74d957" stroke="#74d957" points="1.5,-2834 1.5,-2834 927.5,-2834 927.5,-2834 1.5,-2834"/>
<polygon fill="#74d957" stroke="#74d957" points="1.5,-2776 1.5,-2776 927.5,-2776 927.5,-2776 1.5,-2776"/>
<polygon fill="none" stroke="#74d957" stroke-width="2" points="1,-2733 1,-2863 926,-2863 926,-2733 1,-2733"/>
</g>
<!-- 2&#45;&gt;1 -->
<g id="edge5" class="edge">
<title>2&#45;&gt;1</title>
<path fill="none" stroke="#c0c0c0" stroke-width="2" d="M265.1567,-2731.9745C251.6111,-2721.6521 239.4268,-2709.7405 229.5,-2696 175.3975,-2621.1119 210.5,-2581.3867 210.5,-2489 210.5,-2489 210.5,-2489 210.5,-1178 210.5,-1030.7982 292.2909,-892.6601 384.1109,-783.9623"/>
<polygon fill="#c0c0c0" stroke="#c0c0c0" stroke-width="2" points="386.9149,-786.0681 390.7383,-776.1872 381.5875,-781.5272 386.9149,-786.0681"/>
</g>
<!-- 6 -->
<g id="node7" class="node">
<title>6</title>
<text text-anchor="start" x="631.5" y="-2675.6" font-family="sans" font-weight="bold" font-size="18.00" fill="#000000">shard_clean_header</text>
<text text-anchor="start" x="246.5" y="-2651.8" font-family="sans" font-size="10.00" fill="#000000"> </text>
<text text-anchor="start" x="250.5" y="-2651.8" font-family="sans" font-weight="bold" font-size="14.00" fill="#000000">↪ input</text>
<text text-anchor="start" x="303.5" y="-2651.8" font-family="sans" font-size="10.00" fill="#000000"> </text>
<text text-anchor="start" x="246.5" y="-2632" font-family="monospace" font-size="10.00" fill="#000000">&lt;input function&gt;</text>
<text text-anchor="start" x="1120.5" y="-2611.8" font-family="sans" font-size="10.00" fill="#000000"> </text>
<text text-anchor="start" x="1124.5" y="-2611.8" font-family="sans" font-weight="bold" font-size="14.00" fill="#000000">output →</text>
<text text-anchor="start" x="1185.5" y="-2611.8" font-family="sans" font-size="10.00" fill="#000000"> </text>
<text text-anchor="start" x="246.5" y="-2592" font-family="monospace" font-size="10.00" fill="#000000">temp/shards/clean_header/{sample,HD827sonic_1|HD827sonic_2}_{library,lib1|lib2}_{read_type_map,pe|se|singleton|collapsed}.{ref}.{n_shard}&#45;of&#45;{tot_shards}.bam</text>
<polygon fill="#5791d9" stroke="#5791d9" points="240.5,-2666 240.5,-2666 1196.5,-2666 1196.5,-2666 240.5,-2666"/>
<polygon fill="#5791d9" stroke="#5791d9" points="240.5,-2626 240.5,-2626 1196.5,-2626 1196.5,-2626 240.5,-2626"/>
<polygon fill="none" stroke="#5791d9" stroke-width="2" points="240,-2583 240,-2695 1195,-2695 1195,-2583 240,-2583"/>
</g>
<!-- 2&#45;&gt;6 -->
<g id="edge11" class="edge">
<title>2&#45;&gt;6</title>
<path fill="none" stroke="#c0c0c0" stroke-width="2" d="M569.0122,-2731.951C584.9978,-2721.9443 601.4512,-2711.6447 617.3192,-2701.7116"/>
<polygon fill="#c0c0c0" stroke="#c0c0c0" stroke-width="2" points="619.4488,-2704.5078 626.0679,-2696.235 615.7346,-2698.5744 619.4488,-2704.5078"/>
</g>
<!-- 3 -->
<g id="node4" class="node">
<title>3</title>
<text text-anchor="start" x="584" y="-2057.6" font-family="sans" font-weight="bold" font-size="18.00" fill="#000000">align_stats</text>
<text text-anchor="start" x="246.5" y="-2033.8" font-family="sans" font-size="10.00" fill="#000000"> </text>
<text text-anchor="start" x="250.5" y="-2033.8" font-family="sans" font-weight="bold" font-size="14.00" fill="#000000">↪ input</text>
<text text-anchor="start" x="303.5" y="-2033.8" font-family="sans" font-size="10.00" fill="#000000"> </text>
<text text-anchor="start" x="246.5" y="-2014" font-family="monospace" font-size="10.00" fill="#000000">results/aligns/merge/{sample}_{library}_{read_type_map}.bam</text>
<text text-anchor="start" x="946.5" y="-1993.8" font-family="sans" font-size="10.00" fill="#000000"> </text>
<text text-anchor="start" x="950.5" y="-1993.8" font-family="sans" font-weight="bold" font-size="14.00" fill="#000000">output →</text>
<text text-anchor="start" x="1011.5" y="-1993.8" font-family="sans" font-size="10.00" fill="#000000"> </text>
<text text-anchor="start" x="246.5" y="-1974" font-family="monospace" font-size="10.00" fill="#000000">stats/aligns/samtools_stats/{sample,HD827sonic_1|HD827sonic_2}_{library,lib1|lib2}_{read_type_map,pe|se|singleton|collapsed}.txt</text>
<polygon fill="#add957" stroke="#add957" points="240.5,-2048 240.5,-2048 1022.5,-2048 1022.5,-2048 240.5,-2048"/>
<polygon fill="#add957" stroke="#add957" points="240.5,-2008 240.5,-2008 1022.5,-2008 1022.5,-2008 240.5,-2008"/>
<polygon fill="none" stroke="#add957" stroke-width="2" points="240,-1965 240,-2077 1021,-2077 1021,-1965 240,-1965"/>
</g>
<!-- 3&#45;&gt;1 -->
<g id="edge6" class="edge">
<title>3&#45;&gt;1</title>
<path fill="none" stroke="#c0c0c0" stroke-width="2" d="M569.6682,-1963.9843C502.428,-1894.4854 403.5,-1770.1234 403.5,-1640 403.5,-1640 403.5,-1640 403.5,-1178 403.5,-1065.2199 437.2069,-947.756 478.9247,-845.5646"/>
<polygon fill="#c0c0c0" stroke="#c0c0c0" stroke-width="2" points="482.2762,-846.6181 482.8545,-836.039 475.8052,-843.9485 482.2762,-846.6181"/>
</g>
<!-- 4 -->
<g id="node5" class="node">
<title>4</title>
<text text-anchor="start" x="665" y="-2375.6" font-family="sans" font-weight="bold" font-size="18.00" fill="#000000">align_merge</text>
<text text-anchor="start" x="354.5" y="-2351.8" font-family="sans" font-size="10.00" fill="#000000"> </text>
<text text-anchor="start" x="358.5" y="-2351.8" font-family="sans" font-weight="bold" font-size="14.00" fill="#000000">↪ input</text>
<text text-anchor="start" x="411.5" y="-2351.8" font-family="sans" font-size="10.00" fill="#000000"> </text>
<text text-anchor="start" x="354.5" y="-2332" font-family="monospace" font-size="10.00" fill="#000000">&lt;input function&gt;</text>
<text text-anchor="start" x="1012.5" y="-2311.8" font-family="sans" font-size="10.00" fill="#000000"> </text>
<text text-anchor="start" x="1016.5" y="-2311.8" font-family="sans" font-weight="bold" font-size="14.00" fill="#000000">output →</text>
<text text-anchor="start" x="1077.5" y="-2311.8" font-family="sans" font-size="10.00" fill="#000000"> </text>
<text text-anchor="start" x="354.5" y="-2292" font-family="monospace" font-size="10.00" fill="#000000">results/aligns/merge/{sample,HD827sonic_1|HD827sonic_2}_{library,lib1|lib2}_{read_type_map,pe|se|singleton|collapsed}.bam</text>
<polygon fill="#d99157" stroke="#d99157" points="348.5,-2366 348.5,-2366 1088.5,-2366 1088.5,-2366 348.5,-2366"/>
<polygon fill="#d99157" stroke="#d99157" points="348.5,-2326 348.5,-2326 1088.5,-2326 1088.5,-2326 348.5,-2326"/>
<polygon fill="none" stroke="#d99157" stroke-width="2" points="348,-2283 348,-2395 1087,-2395 1087,-2283 348,-2283"/>
</g>
<!-- 4&#45;&gt;3 -->
<g id="edge8" class="edge">
<title>4&#45;&gt;3</title>
<path fill="none" stroke="#c0c0c0" stroke-width="2" d="M701.8457,-2281.7807C686.9313,-2227.266 664.4828,-2145.2131 648.7602,-2087.7443"/>
<polygon fill="#c0c0c0" stroke="#c0c0c0" stroke-width="2" points="652.1167,-2086.7492 646.1018,-2078.0273 645.3648,-2088.5965 652.1167,-2086.7492"/>
</g>
<!-- 12 -->
<g id="node13" class="node">
<title>12</title>
<text text-anchor="start" x="1198" y="-2225.6" font-family="sans" font-weight="bold" font-size="18.00" fill="#000000">align_sort_coord</text>
<text text-anchor="start" x="890.5" y="-2201.8" font-family="sans" font-size="10.00" fill="#000000"> </text>
<text text-anchor="start" x="894.5" y="-2201.8" font-family="sans" font-weight="bold" font-size="14.00" fill="#000000">↪ input</text>
<text text-anchor="start" x="947.5" y="-2201.8" font-family="sans" font-size="10.00" fill="#000000"> </text>
<text text-anchor="start" x="890.5" y="-2182" font-family="monospace" font-size="10.00" fill="#000000">results/aligns/merge/{sample}_{library}_{read_type_map}.bam</text>
<text text-anchor="start" x="1584.5" y="-2161.8" font-family="sans" font-size="10.00" fill="#000000"> </text>
<text text-anchor="start" x="1588.5" y="-2161.8" font-family="sans" font-weight="bold" font-size="14.00" fill="#000000">output →</text>
<text text-anchor="start" x="1649.5" y="-2161.8" font-family="sans" font-size="10.00" fill="#000000"> </text>
<text text-anchor="start" x="890.5" y="-2142" font-family="monospace" font-size="10.00" fill="#000000">temp/aligns/sort_coord/{sample,HD827sonic_1|HD827sonic_2}_{library,lib1|lib2}_{read_type_map,pe|se|singleton|collapsed}.bam</text>
<text text-anchor="start" x="890.5" y="-2124" font-family="monospace" font-size="10.00" fill="#000000">temp/aligns/sort_coord/{sample,HD827sonic_1|HD827sonic_2}_{library,lib1|lib2}_{read_type_map,pe|se|singleton|collapsed}.bam.csi</text>
<polygon fill="#d9ca57" stroke="#d9ca57" points="884.5,-2216 884.5,-2216 1660.5,-2216 1660.5,-2216 884.5,-2216"/>
<polygon fill="#d9ca57" stroke="#d9ca57" points="884.5,-2176 884.5,-2176 1660.5,-2176 1660.5,-2176 884.5,-2176"/>
<polygon fill="none" stroke="#d9ca57" stroke-width="2" points="884,-2115 884,-2245 1659,-2245 1659,-2115 884,-2115"/>
</g>
<!-- 4&#45;&gt;12 -->
<g id="edge17" class="edge">
<title>4&#45;&gt;12</title>
<path fill="none" stroke="#c0c0c0" stroke-width="2" d="M916.3329,-2281.9342C953.6686,-2271.2188 993.0679,-2259.911 1031.4996,-2248.881"/>
<polygon fill="#c0c0c0" stroke="#c0c0c0" stroke-width="2" points="1032.6013,-2252.2062 1041.2477,-2246.0832 1030.6702,-2245.4778 1032.6013,-2252.2062"/>
</g>
<!-- 5 -->
<g id="node6" class="node">
<title>5</title>
<text text-anchor="start" x="641.5" y="-2525.6" font-family="sans" font-weight="bold" font-size="18.00" fill="#000000">shard_sort_query</text>
<text text-anchor="start" x="252.5" y="-2501.8" font-family="sans" font-size="10.00" fill="#000000"> </text>
<text text-anchor="start" x="256.5" y="-2501.8" font-family="sans" font-weight="bold" font-size="14.00" fill="#000000">↪ input</text>
<text text-anchor="start" x="309.5" y="-2501.8" font-family="sans" font-size="10.00" fill="#000000"> </text>
<text text-anchor="start" x="252.5" y="-2482" font-family="monospace" font-size="10.00" fill="#000000">temp/shards/clean_header/{sample}_{library}_{read_type_map}.{ref}.{n_shard}&#45;of&#45;{tot_shards}.bam</text>
<text text-anchor="start" x="1114.5" y="-2461.8" font-family="sans" font-size="10.00" fill="#000000"> </text>
<text text-anchor="start" x="1118.5" y="-2461.8" font-family="sans" font-weight="bold" font-size="14.00" fill="#000000">output →</text>
<text text-anchor="start" x="1179.5" y="-2461.8" font-family="sans" font-size="10.00" fill="#000000"> </text>
<text text-anchor="start" x="252.5" y="-2442" font-family="monospace" font-size="10.00" fill="#000000">temp/shards/sort_query/{sample,HD827sonic_1|HD827sonic_2}_{library,lib1|lib2}_{read_type_map,pe|se|singleton|collapsed}.{ref}.{n_shard}&#45;of&#45;{tot_shards}.bam</text>
<polygon fill="#5774d9" stroke="#5774d9" points="246.5,-2516 246.5,-2516 1190.5,-2516 1190.5,-2516 246.5,-2516"/>
<polygon fill="#5774d9" stroke="#5774d9" points="246.5,-2476 246.5,-2476 1190.5,-2476 1190.5,-2476 246.5,-2476"/>
<polygon fill="none" stroke="#5774d9" stroke-width="2" points="246,-2433 246,-2545 1189,-2545 1189,-2433 246,-2433"/>
</g>
<!-- 5&#45;&gt;4 -->
<g id="edge9" class="edge">
<title>5&#45;&gt;4</title>
<path fill="none" stroke="#c0c0c0" stroke-width="2" d="M717.5,-2431.8635C717.5,-2423.6231 717.5,-2415.0771 717.5,-2406.6558"/>
<polygon fill="#c0c0c0" stroke="#c0c0c0" stroke-width="2" points="721.0001,-2406.4745 717.5,-2396.4745 714.0001,-2406.4745 721.0001,-2406.4745"/>
</g>
<!-- 6&#45;&gt;5 -->
<g id="edge10" class="edge">
<title>6&#45;&gt;5</title>
<path fill="none" stroke="#c0c0c0" stroke-width="2" d="M717.5,-2581.8635C717.5,-2573.6231 717.5,-2565.0771 717.5,-2556.6558"/>
<polygon fill="#c0c0c0" stroke="#c0c0c0" stroke-width="2" points="721.0001,-2556.4745 717.5,-2546.4745 714.0001,-2556.4745 721.0001,-2556.4745"/>
</g>
<!-- 7 -->
<g id="node8" class="node">
<title>7</title>
<text text-anchor="start" x="771" y="-1241.6" font-family="sans" font-weight="bold" font-size="18.00" fill="#000000">metadmg_dfit</text>
<text text-anchor="start" x="439.5" y="-1217.8" font-family="sans" font-size="10.00" fill="#000000"> </text>
<text text-anchor="start" x="443.5" y="-1217.8" font-family="sans" font-weight="bold" font-size="14.00" fill="#000000">↪ input</text>
<text text-anchor="start" x="496.5" y="-1217.8" font-family="sans" font-size="10.00" fill="#000000"> </text>
<text text-anchor="start" x="439.5" y="-1198" font-family="monospace" font-size="10.00" fill="#000000">/datasets/caeg_dataset/taxonomy/20250210/names.dmp</text>
<text text-anchor="start" x="439.5" y="-1180" font-family="monospace" font-size="10.00" fill="#000000">/datasets/caeg_dataset/taxonomy/20250210/nodes.dmp</text>
<text text-anchor="start" x="439.5" y="-1162" font-family="monospace" font-size="10.00" fill="#000000">results/metadmg/lca/{sample}_{library}_{read_type_map}.bdamage.gz</text>
<text text-anchor="start" x="1151.5" y="-1141.8" font-family="sans" font-size="10.00" fill="#000000"> </text>
<text text-anchor="start" x="1155.5" y="-1141.8" font-family="sans" font-weight="bold" font-size="14.00" fill="#000000">output →</text>
<text text-anchor="start" x="1216.5" y="-1141.8" font-family="sans" font-size="10.00" fill="#000000"> </text>
<text text-anchor="start" x="439.5" y="-1122" font-family="monospace" font-size="10.00" fill="#000000">results/metadmg/dfit/{sample,HD827sonic_1|HD827sonic_2}_{library,lib1|lib2}_{read_type_map,pe|se|singleton|collapsed}.boot.stat.gz</text>
<text text-anchor="start" x="439.5" y="-1104" font-family="monospace" font-size="10.00" fill="#000000">results/metadmg/dfit/{sample,HD827sonic_1|HD827sonic_2}_{library,lib1|lib2}_{read_type_map,pe|se|singleton|collapsed}.dfit.gz</text>
<polygon fill="#57d9ca" stroke="#57d9ca" points="433.5,-1232 433.5,-1232 1227.5,-1232 1227.5,-1232 433.5,-1232"/>
<polygon fill="#57d9ca" stroke="#57d9ca" points="433.5,-1156 433.5,-1156 1227.5,-1156 1227.5,-1156 433.5,-1156"/>
<polygon fill="none" stroke="#57d9ca" stroke-width="2" points="433,-1095 433,-1261 1226,-1261 1226,-1095 433,-1095"/>
</g>
<!-- 7&#45;&gt;1 -->
<g id="edge7" class="edge">
<title>7&#45;&gt;1</title>
<path fill="none" stroke="#c0c0c0" stroke-width="2" d="M681.563,-1093.8379C671.004,-1083.0024 661.7013,-1071.0667 654.5,-1058 619.4328,-994.3709 605.101,-919.0434 601.7472,-846.2848"/>
<polygon fill="#c0c0c0" stroke="#c0c0c0" stroke-width="2" points="605.2346,-845.8921 601.3459,-836.0367 598.24,-846.1661 605.2346,-845.8921"/>
</g>
<!-- 13 -->
<g id="node14" class="node">
<title>13</title>
<text text-anchor="start" x="974.5" y="-1037.6" font-family="sans" font-weight="bold" font-size="18.00" fill="#000000">metadmg_aggregate</text>
<text text-anchor="start" x="671.5" y="-1013.8" font-family="sans" font-size="10.00" fill="#000000"> </text>
<text text-anchor="start" x="675.5" y="-1013.8" font-family="sans" font-weight="bold" font-size="14.00" fill="#000000">↪ input</text>
<text text-anchor="start" x="728.5" y="-1013.8" font-family="sans" font-size="10.00" fill="#000000"> </text>
<text text-anchor="start" x="671.5" y="-994" font-family="monospace" font-size="10.00" fill="#000000">/datasets/caeg_dataset/taxonomy/20250210/names.dmp</text>
<text text-anchor="start" x="671.5" y="-976" font-family="monospace" font-size="10.00" fill="#000000">/datasets/caeg_dataset/taxonomy/20250210/nodes.dmp</text>
<text text-anchor="start" x="671.5" y="-958" font-family="monospace" font-size="10.00" fill="#000000">results/metadmg/dfit/{sample}_{library}_{read_type_map}.dfit.gz</text>
<text text-anchor="start" x="671.5" y="-940" font-family="monospace" font-size="10.00" fill="#000000">results/metadmg/lca/{sample}_{library}_{read_type_map}.bdamage.gz</text>
<text text-anchor="start" x="671.5" y="-922" font-family="monospace" font-size="10.00" fill="#000000">stats/metadmg/lca/{sample}_{library}_{read_type_map}.stat.gz</text>
<text text-anchor="start" x="1383.5" y="-901.8" font-family="sans" font-size="10.00" fill="#000000"> </text>
<text text-anchor="start" x="1387.5" y="-901.8" font-family="sans" font-weight="bold" font-size="14.00" fill="#000000">output →</text>
<text text-anchor="start" x="1448.5" y="-901.8" font-family="sans" font-size="10.00" fill="#000000"> </text>
<text text-anchor="start" x="671.5" y="-882" font-family="monospace" font-size="10.00" fill="#000000">results/metadmg/aggregate/{sample,HD827sonic_1|HD827sonic_2}_{library,lib1|lib2}_{read_type_map,pe|se|singleton|collapsed}.stat.gz</text>
<polygon fill="#57d990" stroke="#57d990" points="665.5,-1028 665.5,-1028 1459.5,-1028 1459.5,-1028 665.5,-1028"/>
<polygon fill="#57d990" stroke="#57d990" points="665.5,-916 665.5,-916 1459.5,-916 1459.5,-916 665.5,-916"/>
<polygon fill="none" stroke="#57d990" stroke-width="2" points="665,-873 665,-1057 1458,-1057 1458,-873 665,-873"/>
</g>
<!-- 7&#45;&gt;13 -->
<g id="edge18" class="edge">
<title>7&#45;&gt;13</title>
<path fill="none" stroke="#c0c0c0" stroke-width="2" d="M921.1925,-1093.8168C931.4863,-1084.366 942.0475,-1074.6698 952.5318,-1065.0441"/>
<polygon fill="#c0c0c0" stroke="#c0c0c0" stroke-width="2" points="955.1482,-1067.3933 960.1475,-1058.0521 950.4141,-1062.2369 955.1482,-1067.3933"/>
</g>
<!-- 8 -->
<g id="node9" class="node">
<title>8</title>
<text text-anchor="start" x="1198.5" y="-1517.6" font-family="sans" font-weight="bold" font-size="18.00" fill="#000000">metadmg_lca</text>
<text text-anchor="start" x="874.5" y="-1493.8" font-family="sans" font-size="10.00" fill="#000000"> </text>
<text text-anchor="start" x="878.5" y="-1493.8" font-family="sans" font-weight="bold" font-size="14.00" fill="#000000">↪ input</text>
<text text-anchor="start" x="931.5" y="-1493.8" font-family="sans" font-size="10.00" fill="#000000"> </text>
<text text-anchor="start" x="874.5" y="-1474" font-family="monospace" font-size="10.00" fill="#000000">/datasets/caeg_dataset/references/ncbi/20250205/refseq_mitochondrion.genomic.acc2taxid.gz</text>
<text text-anchor="start" x="874.5" y="-1456" font-family="monospace" font-size="10.00" fill="#000000">/datasets/caeg_dataset/references/ncbi/20250205/wgs_eukaryota.acc2taxid.gz</text>
<text text-anchor="start" x="874.5" y="-1438" font-family="monospace" font-size="10.00" fill="#000000">/datasets/caeg_dataset/taxonomy/20250210/names.dmp</text>
<text text-anchor="start" x="874.5" y="-1420" font-family="monospace" font-size="10.00" fill="#000000">/datasets/caeg_dataset/taxonomy/20250210/nodes.dmp</text>
<text text-anchor="start" x="874.5" y="-1402" font-family="monospace" font-size="10.00" fill="#000000">&lt;function &lt;lambda&gt; at 0x7f9ef7d2ee80&gt;</text>
<text text-anchor="start" x="1568.5" y="-1381.8" font-family="sans" font-size="10.00" fill="#000000"> </text>
<text text-anchor="start" x="1572.5" y="-1381.8" font-family="sans" font-weight="bold" font-size="14.00" fill="#000000">output →</text>
<text text-anchor="start" x="1633.5" y="-1381.8" font-family="sans" font-size="10.00" fill="#000000"> </text>
<text text-anchor="start" x="874.5" y="-1362" font-family="monospace" font-size="10.00" fill="#000000">results/metadmg/lca/{sample,HD827sonic_1|HD827sonic_2}_{library,lib1|lib2}_{read_type_map,pe|se|singleton|collapsed}.bdamage.gz</text>
<text text-anchor="start" x="874.5" y="-1344" font-family="monospace" font-size="10.00" fill="#000000">results/metadmg/lca/{sample,HD827sonic_1|HD827sonic_2}_{library,lib1|lib2}_{read_type_map,pe|se|singleton|collapsed}.lca.gz</text>
<text text-anchor="start" x="874.5" y="-1326" font-family="monospace" font-size="10.00" fill="#000000">stats/metadmg/lca/{sample,HD827sonic_1|HD827sonic_2}_{library,lib1|lib2}_{read_type_map,pe|se|singleton|collapsed}.rlens.gz</text>
<text text-anchor="start" x="874.5" y="-1308" font-family="monospace" font-size="10.00" fill="#000000">stats/metadmg/lca/{sample,HD827sonic_1|HD827sonic_2}_{library,lib1|lib2}_{read_type_map,pe|se|singleton|collapsed}.stat.gz</text>
<polygon fill="#57cad9" stroke="#57cad9" points="868.5,-1508 868.5,-1508 1644.5,-1508 1644.5,-1508 868.5,-1508"/>
<polygon fill="#57cad9" stroke="#57cad9" points="868.5,-1396 868.5,-1396 1644.5,-1396 1644.5,-1396 868.5,-1396"/>
<polygon fill="none" stroke="#57cad9" stroke-width="2" points="868,-1299 868,-1537 1643,-1537 1643,-1299 868,-1299"/>
</g>
<!-- 8&#45;&gt;7 -->
<g id="edge12" class="edge">
<title>8&#45;&gt;7</title>
<path fill="none" stroke="#c0c0c0" stroke-width="2" d="M1042.5,-1298C1023.9987,-1287.5767 1005.4974,-1277.1534 987.5544,-1267.0447"/>
<polygon fill="#c0c0c0" stroke="#c0c0c0" stroke-width="2" points="989.2238,-1263.968 978.7933,-1262.1089 985.7878,-1270.0668 989.2238,-1263.968"/>
</g>
<!-- 8&#45;&gt;13 -->
<g id="edge19" class="edge">
<title>8&#45;&gt;13</title>
<path fill="none" stroke="#c0c0c0" stroke-width="2" d="M1271.6012,-1297.785C1274.5914,-1233.6703 1268.9016,-1155.5439 1235.5,-1094 1230.0893,-1084.0305 1223.5379,-1074.6194 1216.1898,-1065.7736"/>
<polygon fill="#c0c0c0" stroke="#c0c0c0" stroke-width="2" points="1218.747,-1063.3807 1209.5359,-1058.1456 1213.4719,-1067.9822 1218.747,-1063.3807"/>
</g>
<!-- 9 -->
<g id="node10" class="node">
<title>9</title>
<text text-anchor="start" x="1337.5" y="-1685.6" font-family="sans" font-weight="bold" font-size="18.00" fill="#000000">align_sort_query</text>
<text text-anchor="start" x="1029.5" y="-1661.8" font-family="sans" font-size="10.00" fill="#000000"> </text>
<text text-anchor="start" x="1033.5" y="-1661.8" font-family="sans" font-weight="bold" font-size="14.00" fill="#000000">↪ input</text>
<text text-anchor="start" x="1086.5" y="-1661.8" font-family="sans" font-size="10.00" fill="#000000"> </text>
<text text-anchor="start" x="1029.5" y="-1642" font-family="monospace" font-size="10.00" fill="#000000">&lt;function &lt;lambda&gt; at 0x7f9ef7d37880&gt;</text>
<text text-anchor="start" x="1723.5" y="-1621.8" font-family="sans" font-size="10.00" fill="#000000"> </text>
<text text-anchor="start" x="1727.5" y="-1621.8" font-family="sans" font-weight="bold" font-size="14.00" fill="#000000">output →</text>
<text text-anchor="start" x="1788.5" y="-1621.8" font-family="sans" font-size="10.00" fill="#000000"> </text>
<text text-anchor="start" x="1029.5" y="-1602" font-family="monospace" font-size="10.00" fill="#000000">temp/aligns/sort_query/{sample,HD827sonic_1|HD827sonic_2}_{library,lib1|lib2}_{read_type_map,pe|se|singleton|collapsed}.bam</text>
<text text-anchor="start" x="1029.5" y="-1584" font-family="monospace" font-size="10.00" fill="#000000">temp/aligns/sort_query/{sample,HD827sonic_1|HD827sonic_2}_{library,lib1|lib2}_{read_type_map,pe|se|singleton|collapsed}.bam.csi</text>
<polygon fill="#cad957" stroke="#cad957" points="1023.5,-1676 1023.5,-1676 1799.5,-1676 1799.5,-1676 1023.5,-1676"/>
<polygon fill="#cad957" stroke="#cad957" points="1023.5,-1636 1023.5,-1636 1799.5,-1636 1799.5,-1636 1023.5,-1636"/>
<polygon fill="none" stroke="#cad957" stroke-width="2" points="1023,-1575 1023,-1705 1798,-1705 1798,-1575 1023,-1575"/>
</g>
<!-- 9&#45;&gt;8 -->
<g id="edge13" class="edge">
<title>9&#45;&gt;8</title>
<path fill="none" stroke="#c0c0c0" stroke-width="2" d="M1364.4146,-1573.9937C1358.2718,-1565.1957 1351.8121,-1555.9437 1345.2316,-1546.5189"/>
<polygon fill="#c0c0c0" stroke="#c0c0c0" stroke-width="2" points="1348.0172,-1544.3946 1339.4227,-1538.199 1342.2777,-1548.4019 1348.0172,-1544.3946"/>
</g>
<!-- 14 -->
<g id="node15" class="node">
<title>14</title>
<text text-anchor="start" x="1603.5" y="-1241.6" font-family="sans" font-weight="bold" font-size="18.00" fill="#000000">metadmg_damage</text>
<text text-anchor="start" x="1291.5" y="-1217.8" font-family="sans" font-size="10.00" fill="#000000"> </text>
<text text-anchor="start" x="1295.5" y="-1217.8" font-family="sans" font-weight="bold" font-size="14.00" fill="#000000">↪ input</text>
<text text-anchor="start" x="1348.5" y="-1217.8" font-family="sans" font-size="10.00" fill="#000000"> </text>
<text text-anchor="start" x="1291.5" y="-1198" font-family="monospace" font-size="10.00" fill="#000000">&lt;function &lt;lambda&gt; at 0x7f9ef7d2ca40&gt;</text>
<text text-anchor="start" x="2003.5" y="-1177.8" font-family="sans" font-size="10.00" fill="#000000"> </text>
<text text-anchor="start" x="2007.5" y="-1177.8" font-family="sans" font-weight="bold" font-size="14.00" fill="#000000">output →</text>
<text text-anchor="start" x="2068.5" y="-1177.8" font-family="sans" font-size="10.00" fill="#000000"> </text>
<text text-anchor="start" x="1291.5" y="-1158" font-family="monospace" font-size="10.00" fill="#000000">results/metadmg/damage/{sample,HD827sonic_1|HD827sonic_2}_{library,lib1|lib2}_{read_type_map,pe|se|singleton|collapsed}.bdamage.gz</text>
<text text-anchor="start" x="1291.5" y="-1140" font-family="monospace" font-size="10.00" fill="#000000">results/metadmg/damage/{sample,HD827sonic_1|HD827sonic_2}_{library,lib1|lib2}_{read_type_map,pe|se|singleton|collapsed}.res.gz</text>
<text text-anchor="start" x="1291.5" y="-1122" font-family="monospace" font-size="10.00" fill="#000000">stats/metadmg/damage/{sample,HD827sonic_1|HD827sonic_2}_{library,lib1|lib2}_{read_type_map,pe|se|singleton|collapsed}.rlens.gz</text>
<text text-anchor="start" x="1291.5" y="-1104" font-family="monospace" font-size="10.00" fill="#000000">stats/metadmg/damage/{sample,HD827sonic_1|HD827sonic_2}_{library,lib1|lib2}_{read_type_map,pe|se|singleton|collapsed}.stat.gz</text>
<polygon fill="#57d9ad" stroke="#57d9ad" points="1285.5,-1232 1285.5,-1232 2079.5,-1232 2079.5,-1232 1285.5,-1232"/>
<polygon fill="#57d9ad" stroke="#57d9ad" points="1285.5,-1192 1285.5,-1192 2079.5,-1192 2079.5,-1192 1285.5,-1192"/>
<polygon fill="none" stroke="#57d9ad" stroke-width="2" points="1285,-1095 1285,-1261 2078,-1261 2078,-1095 1285,-1095"/>
</g>
<!-- 9&#45;&gt;14 -->
<g id="edge20" class="edge">
<title>9&#45;&gt;14</title>
<path fill="none" stroke="#c0c0c0" stroke-width="2" d="M1617.9778,-1573.9062C1631.4654,-1563.611 1643.5882,-1551.7236 1653.5,-1538 1708.6498,-1461.6411 1708.7072,-1350.9018 1699.3445,-1272.4444"/>
<polygon fill="#c0c0c0" stroke="#c0c0c0" stroke-width="2" points="1702.7603,-1271.5584 1698.0305,-1262.0779 1695.8158,-1272.4386 1702.7603,-1271.5584"/>
</g>
<!-- 10 -->
<g id="node11" class="node">
<title>10</title>
<text text-anchor="start" x="1365" y="-1907.6" font-family="sans" font-weight="bold" font-size="18.00" fill="#000000">align_filter</text>
<text text-anchor="start" x="993.5" y="-1883.8" font-family="sans" font-size="10.00" fill="#000000"> </text>
<text text-anchor="start" x="997.5" y="-1883.8" font-family="sans" font-weight="bold" font-size="14.00" fill="#000000">↪ input</text>
<text text-anchor="start" x="1050.5" y="-1883.8" font-family="sans" font-size="10.00" fill="#000000"> </text>
<text text-anchor="start" x="993.5" y="-1864" font-family="monospace" font-size="10.00" fill="#000000">&lt;function &lt;lambda&gt; at 0x7f9ef7d37920&gt;</text>
<text text-anchor="start" x="1759.5" y="-1843.8" font-family="sans" font-size="10.00" fill="#000000"> </text>
<text text-anchor="start" x="1763.5" y="-1843.8" font-family="sans" font-weight="bold" font-size="14.00" fill="#000000">output →</text>
<text text-anchor="start" x="1824.5" y="-1843.8" font-family="sans" font-size="10.00" fill="#000000"> </text>
<text text-anchor="start" x="993.5" y="-1824" font-family="monospace" font-size="10.00" fill="#000000">stats/aligns/filter/{sample,HD827sonic_1|HD827sonic_2}_{library,lib1|lib2}_{read_type_map,pe|se|singleton|collapsed}.read&#45;hits&#45;count.tsv.gz</text>
<text text-anchor="start" x="993.5" y="-1806" font-family="monospace" font-size="10.00" fill="#000000">stats/aligns/filter/{sample,HD827sonic_1|HD827sonic_2}_{library,lib1|lib2}_{read_type_map,pe|se|singleton|collapsed}.read&#45;length&#45;freqs.json</text>
<text text-anchor="start" x="993.5" y="-1788" font-family="monospace" font-size="10.00" fill="#000000">stats/aligns/filter/{sample,HD827sonic_1|HD827sonic_2}_{library,lib1|lib2}_{read_type_map,pe|se|singleton|collapsed}.stats&#45;filtered.tsv.gz</text>
<text text-anchor="start" x="993.5" y="-1770" font-family="monospace" font-size="10.00" fill="#000000">stats/aligns/filter/{sample,HD827sonic_1|HD827sonic_2}_{library,lib1|lib2}_{read_type_map,pe|se|singleton|collapsed}.stats.tsv.gz</text>
<text text-anchor="start" x="993.5" y="-1752" font-family="monospace" font-size="10.00" fill="#000000">temp/aligns/filter/{sample,HD827sonic_1|HD827sonic_2}_{library,lib1|lib2}_{read_type_map,pe|se|singleton|collapsed}.bam</text>
<polygon fill="#d95757" stroke="#d95757" points="987.5,-1898 987.5,-1898 1835.5,-1898 1835.5,-1898 987.5,-1898"/>
<polygon fill="#d95757" stroke="#d95757" points="987.5,-1858 987.5,-1858 1835.5,-1858 1835.5,-1858 987.5,-1858"/>
<polygon fill="none" stroke="#d95757" stroke-width="2" points="987,-1743 987,-1927 1834,-1927 1834,-1743 987,-1743"/>
</g>
<!-- 10&#45;&gt;9 -->
<g id="edge14" class="edge">
<title>10&#45;&gt;9</title>
<path fill="none" stroke="#c0c0c0" stroke-width="2" d="M1410.5,-1741.7834C1410.5,-1733.2208 1410.5,-1724.614 1410.5,-1716.2279"/>
<polygon fill="#c0c0c0" stroke="#c0c0c0" stroke-width="2" points="1414.0001,-1716.1259 1410.5,-1706.126 1407.0001,-1716.126 1414.0001,-1716.1259"/>
</g>
<!-- 11 -->
<g id="node12" class="node">
<title>11</title>
<text text-anchor="start" x="1347.5" y="-2057.6" font-family="sans" font-weight="bold" font-size="18.00" fill="#000000">align_reassign</text>
<text text-anchor="start" x="1047.5" y="-2033.8" font-family="sans" font-size="10.00" fill="#000000"> </text>
<text text-anchor="start" x="1051.5" y="-2033.8" font-family="sans" font-weight="bold" font-size="14.00" fill="#000000">↪ input</text>
<text text-anchor="start" x="1104.5" y="-2033.8" font-family="sans" font-size="10.00" fill="#000000"> </text>
<text text-anchor="start" x="1047.5" y="-2014" font-family="monospace" font-size="10.00" fill="#000000">&lt;function &lt;lambda&gt; at 0x7f9ef7d37420&gt;</text>
<text text-anchor="start" x="1705.5" y="-1993.8" font-family="sans" font-size="10.00" fill="#000000"> </text>
<text text-anchor="start" x="1709.5" y="-1993.8" font-family="sans" font-weight="bold" font-size="14.00" fill="#000000">output →</text>
<text text-anchor="start" x="1770.5" y="-1993.8" font-family="sans" font-size="10.00" fill="#000000"> </text>
<text text-anchor="start" x="1047.5" y="-1974" font-family="monospace" font-size="10.00" fill="#000000">temp/aligns/reassign/{sample,HD827sonic_1|HD827sonic_2}_{library,lib1|lib2}_{read_type_map,pe|se|singleton|collapsed}.bam</text>
<polygon fill="#d9ad57" stroke="#d9ad57" points="1041.5,-2048 1041.5,-2048 1781.5,-2048 1781.5,-2048 1041.5,-2048"/>
<polygon fill="#d9ad57" stroke="#d9ad57" points="1041.5,-2008 1041.5,-2008 1781.5,-2008 1781.5,-2008 1041.5,-2008"/>
<polygon fill="none" stroke="#d9ad57" stroke-width="2" points="1041,-1965 1041,-2077 1780,-2077 1780,-1965 1041,-1965"/>
</g>
<!-- 11&#45;&gt;10 -->
<g id="edge15" class="edge">
<title>11&#45;&gt;10</title>
<path fill="none" stroke="#c0c0c0" stroke-width="2" d="M1410.5,-1963.9298C1410.5,-1955.7939 1410.5,-1947.2245 1410.5,-1938.5307"/>
<polygon fill="#c0c0c0" stroke="#c0c0c0" stroke-width="2" points="1414.0001,-1938.2863 1410.5,-1928.2863 1407.0001,-1938.2863 1414.0001,-1938.2863"/>
</g>
<!-- 12&#45;&gt;11 -->
<g id="edge16" class="edge">
<title>12&#45;&gt;11</title>
<path fill="none" stroke="#c0c0c0" stroke-width="2" d="M1329.2409,-2113.951C1337.341,-2104.6855 1345.6604,-2095.169 1353.7419,-2085.9247"/>
<polygon fill="#c0c0c0" stroke="#c0c0c0" stroke-width="2" points="1356.5177,-2088.0674 1360.4643,-2078.235 1351.2476,-2083.4602 1356.5177,-2088.0674"/>
</g>
<!-- 13&#45;&gt;0 -->
<g id="edge1" class="edge">
<title>13&#45;&gt;0</title>
<path fill="none" stroke="#c0c0c0" stroke-width="2" d="M1061.5,-871.9333C1061.5,-720.0374 1061.5,-418.5526 1061.5,-246.4071"/>
<polygon fill="#c0c0c0" stroke="#c0c0c0" stroke-width="2" points="1065.0001,-246.2756 1061.5,-236.2757 1058.0001,-246.2757 1065.0001,-246.2756"/>
</g>
<!-- 13&#45;&gt;1 -->
<g id="edge4" class="edge">
<title>13&#45;&gt;1</title>
<path fill="none" stroke="#c0c0c0" stroke-width="2" d="M965.1002,-871.9945C941.4428,-849.1702 915.0117,-823.6697 887.6895,-797.3096"/>
<polygon fill="#c0c0c0" stroke="#c0c0c0" stroke-width="2" points="889.9716,-794.648 880.3448,-790.2235 885.1113,-799.6856 889.9716,-794.648"/>
</g>
<!-- 14&#45;&gt;0 -->
<g id="edge2" class="edge">
<title>14&#45;&gt;0</title>
<path fill="none" stroke="#c0c0c0" stroke-width="2" d="M1632.3314,-1093.9376C1523.9403,-908.6237 1263.915,-464.0644 1135.6345,-244.746"/>
<polygon fill="#c0c0c0" stroke="#c0c0c0" stroke-width="2" points="1138.6343,-242.9425 1130.5643,-236.0777 1132.592,-246.4767 1138.6343,-242.9425"/>
</g>
</g>
</svg>
