<?xml version="1.0" encoding="UTF-8" standalone="no"?>
<!DOCTYPE svg PUBLIC "-//W3C//DTD SVG 1.1//EN"
 "http://www.w3.org/Graphics/SVG/1.1/DTD/svg11.dtd">
<!-- Generated by graphviz version 2.40.1 (0)
 -->
<!-- Title: snakemake_dag Pages: 1 -->
<svg width="304pt" height="908pt"
 viewBox="0.00 0.00 303.50 908.00" xmlns="http://www.w3.org/2000/svg" xmlns:xlink="http://www.w3.org/1999/xlink">
<g id="graph0" class="graph" transform="scale(1 1) rotate(0) translate(4 904)">
<title>snakemake_dag</title>
<polygon fill="#ffffff" stroke="transparent" points="-4,4 -4,-904 299.5,-904 299.5,4 -4,4"/>
<!-- 0 -->
<g id="node1" class="node">
<title>0</title>
<path fill="none" stroke="#8fd856" stroke-width="2" d="M176,-36C176,-36 146,-36 146,-36 140,-36 134,-30 134,-24 134,-24 134,-12 134,-12 134,-6 140,0 146,0 146,0 176,0 176,0 182,0 188,-6 188,-12 188,-12 188,-24 188,-24 188,-30 182,-36 176,-36"/>
<text text-anchor="middle" x="161" y="-15.5" font-family="sans" font-size="10.00" fill="#000000">all</text>
</g>
<!-- 1 -->
<g id="node2" class="node">
<title>1</title>
<path fill="none" stroke="#56a9d8" stroke-width="2" d="M95,-108C95,-108 65,-108 65,-108 59,-108 53,-102 53,-96 53,-96 53,-84 53,-84 53,-78 59,-72 65,-72 65,-72 95,-72 95,-72 101,-72 107,-78 107,-84 107,-84 107,-96 107,-96 107,-102 101,-108 95,-108"/>
<text text-anchor="middle" x="80" y="-87.5" font-family="sans" font-size="10.00" fill="#000000">multiqc</text>
</g>
<!-- 1&#45;&gt;0 -->
<g id="edge2" class="edge">
<title>1&#45;&gt;0</title>
<path fill="none" stroke="#c0c0c0" stroke-width="2" d="M100.4397,-71.8314C110.3205,-63.0485 122.3324,-52.3712 133.045,-42.8489"/>
<polygon fill="#c0c0c0" stroke="#c0c0c0" stroke-width="2" points="135.418,-45.4224 140.5668,-36.1628 130.7674,-40.1906 135.418,-45.4224"/>
</g>
<!-- 2 -->
<g id="node3" class="node">
<title>2</title>
<path fill="none" stroke="#70d856" stroke-width="2" d="M55,-900C55,-900 25,-900 25,-900 19,-900 13,-894 13,-888 13,-888 13,-876 13,-876 13,-870 19,-864 25,-864 25,-864 55,-864 55,-864 61,-864 67,-870 67,-876 67,-876 67,-888 67,-888 67,-894 61,-900 55,-900"/>
<text text-anchor="middle" x="40" y="-879.5" font-family="sans" font-size="10.00" fill="#000000">bowtie2</text>
</g>
<!-- 2&#45;&gt;1 -->
<g id="edge6" class="edge">
<title>2&#45;&gt;1</title>
<path fill="none" stroke="#c0c0c0" stroke-width="2" d="M31.517,-863.81C19.7754,-836.9218 0,-784.7039 0,-738 0,-738 0,-738 0,-234 0,-187.9277 31.6802,-142.8164 55.1688,-115.7014"/>
<polygon fill="#c0c0c0" stroke="#c0c0c0" stroke-width="2" points="57.8025,-118.0067 61.8468,-108.2141 52.5785,-113.3474 57.8025,-118.0067"/>
</g>
<!-- 6 -->
<g id="node7" class="node">
<title>6</title>
<path fill="none" stroke="#5692d8" stroke-width="2" d="M120,-828C120,-828 40,-828 40,-828 34,-828 28,-822 28,-816 28,-816 28,-804 28,-804 28,-798 34,-792 40,-792 40,-792 120,-792 120,-792 126,-792 132,-798 132,-804 132,-804 132,-816 132,-816 132,-822 126,-828 120,-828"/>
<text text-anchor="middle" x="80" y="-807.5" font-family="sans" font-size="10.00" fill="#000000">shard_clean_header</text>
</g>
<!-- 2&#45;&gt;6 -->
<g id="edge11" class="edge">
<title>2&#45;&gt;6</title>
<path fill="none" stroke="#c0c0c0" stroke-width="2" d="M50.0937,-863.8314C54.5597,-855.7925 59.9075,-846.1666 64.8379,-837.2918"/>
<polygon fill="#c0c0c0" stroke="#c0c0c0" stroke-width="2" points="67.9735,-838.8546 69.7704,-828.4133 61.8544,-835.4551 67.9735,-838.8546"/>
</g>
<!-- 3 -->
<g id="node4" class="node">
<title>3</title>
<path fill="none" stroke="#afd856" stroke-width="2" d="M90,-540C90,-540 50,-540 50,-540 44,-540 38,-534 38,-528 38,-528 38,-516 38,-516 38,-510 44,-504 50,-504 50,-504 90,-504 90,-504 96,-504 102,-510 102,-516 102,-516 102,-528 102,-528 102,-534 96,-540 90,-540"/>
<text text-anchor="middle" x="70" y="-519.5" font-family="sans" font-size="10.00" fill="#000000">align_stats</text>
</g>
<!-- 3&#45;&gt;1 -->
<g id="edge5" class="edge">
<title>3&#45;&gt;1</title>
<path fill="none" stroke="#c0c0c0" stroke-width="2" d="M63.2136,-503.6497C53.8203,-476.5619 38,-424.0977 38,-378 38,-378 38,-378 38,-234 38,-192.0688 54.6152,-145.918 66.9448,-117.4435"/>
<polygon fill="#c0c0c0" stroke="#c0c0c0" stroke-width="2" points="70.2152,-118.7032 71.0929,-108.1447 63.8225,-115.8513 70.2152,-118.7032"/>
</g>
<!-- 4 -->
<g id="node5" class="node">
<title>4</title>
<path fill="none" stroke="#d88d56" stroke-width="2" d="M102.5,-684C102.5,-684 57.5,-684 57.5,-684 51.5,-684 45.5,-678 45.5,-672 45.5,-672 45.5,-660 45.5,-660 45.5,-654 51.5,-648 57.5,-648 57.5,-648 102.5,-648 102.5,-648 108.5,-648 114.5,-654 114.5,-660 114.5,-660 114.5,-672 114.5,-672 114.5,-678 108.5,-684 102.5,-684"/>
<text text-anchor="middle" x="80" y="-663.5" font-family="sans" font-size="10.00" fill="#000000">align_merge</text>
</g>
<!-- 4&#45;&gt;3 -->
<g id="edge8" class="edge">
<title>4&#45;&gt;3</title>
<path fill="none" stroke="#c0c0c0" stroke-width="2" d="M78.7335,-647.7623C77.0279,-623.201 73.9755,-579.2474 71.969,-550.3541"/>
<polygon fill="#c0c0c0" stroke="#c0c0c0" stroke-width="2" points="75.4407,-549.8231 71.2562,-540.0896 68.4575,-550.3081 75.4407,-549.8231"/>
</g>
<!-- 12 -->
<g id="node13" class="node">
<title>12</title>
<path fill="none" stroke="#d8cb56" stroke-width="2" d="M188,-612C188,-612 124,-612 124,-612 118,-612 112,-606 112,-600 112,-600 112,-588 112,-588 112,-582 118,-576 124,-576 124,-576 188,-576 188,-576 194,-576 200,-582 200,-588 200,-588 200,-600 200,-600 200,-606 194,-612 188,-612"/>
<text text-anchor="middle" x="156" y="-591.5" font-family="sans" font-size="10.00" fill="#000000">align_sort_coord</text>
</g>
<!-- 4&#45;&gt;12 -->
<g id="edge17" class="edge">
<title>4&#45;&gt;12</title>
<path fill="none" stroke="#c0c0c0" stroke-width="2" d="M99.178,-647.8314C108.3588,-639.1337 119.5006,-628.5783 129.4776,-619.1265"/>
<polygon fill="#c0c0c0" stroke="#c0c0c0" stroke-width="2" points="131.9757,-621.5811 136.8281,-612.1628 127.1615,-616.4995 131.9757,-621.5811"/>
</g>
<!-- 5 -->
<g id="node6" class="node">
<title>5</title>
<path fill="none" stroke="#5673d8" stroke-width="2" d="M114,-756C114,-756 46,-756 46,-756 40,-756 34,-750 34,-744 34,-744 34,-732 34,-732 34,-726 40,-720 46,-720 46,-720 114,-720 114,-720 120,-720 126,-726 126,-732 126,-732 126,-744 126,-744 126,-750 120,-756 114,-756"/>
<text text-anchor="middle" x="80" y="-735.5" font-family="sans" font-size="10.00" fill="#000000">shard_sort_query</text>
</g>
<!-- 5&#45;&gt;4 -->
<g id="edge9" class="edge">
<title>5&#45;&gt;4</title>
<path fill="none" stroke="#c0c0c0" stroke-width="2" d="M80,-719.8314C80,-712.131 80,-702.9743 80,-694.4166"/>
<polygon fill="#c0c0c0" stroke="#c0c0c0" stroke-width="2" points="83.5001,-694.4132 80,-684.4133 76.5001,-694.4133 83.5001,-694.4132"/>
</g>
<!-- 6&#45;&gt;5 -->
<g id="edge10" class="edge">
<title>6&#45;&gt;5</title>
<path fill="none" stroke="#c0c0c0" stroke-width="2" d="M80,-791.8314C80,-784.131 80,-774.9743 80,-766.4166"/>
<polygon fill="#c0c0c0" stroke="#c0c0c0" stroke-width="2" points="83.5001,-766.4132 80,-756.4133 76.5001,-766.4133 83.5001,-766.4132"/>
</g>
<!-- 7 -->
<g id="node8" class="node">
<title>7</title>
<path fill="none" stroke="#56d8c9" stroke-width="2" d="M130,-252C130,-252 78,-252 78,-252 72,-252 66,-246 66,-240 66,-240 66,-228 66,-228 66,-222 72,-216 78,-216 78,-216 130,-216 130,-216 136,-216 142,-222 142,-228 142,-228 142,-240 142,-240 142,-246 136,-252 130,-252"/>
<text text-anchor="middle" x="104" y="-231.5" font-family="sans" font-size="10.00" fill="#000000">metadmg_dfit</text>
</g>
<!-- 7&#45;&gt;1 -->
<g id="edge7" class="edge">
<title>7&#45;&gt;1</title>
<path fill="none" stroke="#c0c0c0" stroke-width="2" d="M100.9604,-215.7623C96.8488,-191.0928 89.4766,-146.8598 84.6622,-117.9731"/>
<polygon fill="#c0c0c0" stroke="#c0c0c0" stroke-width="2" points="88.1114,-117.3781 83.0149,-108.0896 81.2066,-118.529 88.1114,-117.3781"/>
</g>
<!-- 13 -->
<g id="node14" class="node">
<title>13</title>
<path fill="none" stroke="#56d892" stroke-width="2" d="M201.5,-180C201.5,-180 120.5,-180 120.5,-180 114.5,-180 108.5,-174 108.5,-168 108.5,-168 108.5,-156 108.5,-156 108.5,-150 114.5,-144 120.5,-144 120.5,-144 201.5,-144 201.5,-144 207.5,-144 213.5,-150 213.5,-156 213.5,-156 213.5,-168 213.5,-168 213.5,-174 207.5,-180 201.5,-180"/>
<text text-anchor="middle" x="161" y="-159.5" font-family="sans" font-size="10.00" fill="#000000">metadmg_aggregate</text>
</g>
<!-- 7&#45;&gt;13 -->
<g id="edge19" class="edge">
<title>7&#45;&gt;13</title>
<path fill="none" stroke="#c0c0c0" stroke-width="2" d="M118.3835,-215.8314C124.9486,-207.5386 132.8507,-197.557 140.0578,-188.4533"/>
<polygon fill="#c0c0c0" stroke="#c0c0c0" stroke-width="2" points="142.9599,-190.4262 146.4228,-180.4133 137.4716,-186.0813 142.9599,-190.4262"/>
</g>
<!-- 8 -->
<g id="node9" class="node">
<title>8</title>
<path fill="none" stroke="#56c9d8" stroke-width="2" d="M193.5,-324C193.5,-324 142.5,-324 142.5,-324 136.5,-324 130.5,-318 130.5,-312 130.5,-312 130.5,-300 130.5,-300 130.5,-294 136.5,-288 142.5,-288 142.5,-288 193.5,-288 193.5,-288 199.5,-288 205.5,-294 205.5,-300 205.5,-300 205.5,-312 205.5,-312 205.5,-318 199.5,-324 193.5,-324"/>
<text text-anchor="middle" x="168" y="-303.5" font-family="sans" font-size="10.00" fill="#000000">metadmg_lca</text>
</g>
<!-- 8&#45;&gt;7 -->
<g id="edge12" class="edge">
<title>8&#45;&gt;7</title>
<path fill="none" stroke="#c0c0c0" stroke-width="2" d="M151.8501,-287.8314C144.3283,-279.3694 135.2435,-269.1489 127.0196,-259.8971"/>
<polygon fill="#c0c0c0" stroke="#c0c0c0" stroke-width="2" points="129.627,-257.5621 120.3673,-252.4133 124.3951,-262.2127 129.627,-257.5621"/>
</g>
<!-- 8&#45;&gt;13 -->
<g id="edge18" class="edge">
<title>8&#45;&gt;13</title>
<path fill="none" stroke="#c0c0c0" stroke-width="2" d="M167.1134,-287.7623C165.9195,-263.201 163.7829,-219.2474 162.3783,-190.3541"/>
<polygon fill="#c0c0c0" stroke="#c0c0c0" stroke-width="2" points="165.8609,-189.9079 161.8794,-180.0896 158.8691,-190.2478 165.8609,-189.9079"/>
</g>
<!-- 9 -->
<g id="node10" class="node">
<title>9</title>
<path fill="none" stroke="#c6d856" stroke-width="2" d="M200,-396C200,-396 136,-396 136,-396 130,-396 124,-390 124,-384 124,-384 124,-372 124,-372 124,-366 130,-360 136,-360 136,-360 200,-360 200,-360 206,-360 212,-366 212,-372 212,-372 212,-384 212,-384 212,-390 206,-396 200,-396"/>
<text text-anchor="middle" x="168" y="-375.5" font-family="sans" font-size="10.00" fill="#000000">align_sort_query</text>
</g>
<!-- 9&#45;&gt;8 -->
<g id="edge13" class="edge">
<title>9&#45;&gt;8</title>
<path fill="none" stroke="#c0c0c0" stroke-width="2" d="M168,-359.8314C168,-352.131 168,-342.9743 168,-334.4166"/>
<polygon fill="#c0c0c0" stroke="#c0c0c0" stroke-width="2" points="171.5001,-334.4132 168,-324.4133 164.5001,-334.4133 171.5001,-334.4132"/>
</g>
<!-- 14 -->
<g id="node15" class="node">
<title>14</title>
<path fill="none" stroke="#56d8a9" stroke-width="2" d="M283.5,-252C283.5,-252 210.5,-252 210.5,-252 204.5,-252 198.5,-246 198.5,-240 198.5,-240 198.5,-228 198.5,-228 198.5,-222 204.5,-216 210.5,-216 210.5,-216 283.5,-216 283.5,-216 289.5,-216 295.5,-222 295.5,-228 295.5,-228 295.5,-240 295.5,-240 295.5,-246 289.5,-252 283.5,-252"/>
<text text-anchor="middle" x="247" y="-231.5" font-family="sans" font-size="10.00" fill="#000000">metadmg_damage</text>
</g>
<!-- 9&#45;&gt;14 -->
<g id="edge20" class="edge">
<title>9&#45;&gt;14</title>
<path fill="none" stroke="#c0c0c0" stroke-width="2" d="M186.3887,-359.7677C195.6216,-349.847 206.4239,-336.9748 214,-324 225.4174,-304.4468 234.0199,-280.2564 239.5746,-261.8807"/>
<polygon fill="#c0c0c0" stroke="#c0c0c0" stroke-width="2" points="242.9945,-262.6541 242.4184,-252.0749 236.2715,-260.7043 242.9945,-262.6541"/>
</g>
<!-- 10 -->
<g id="node11" class="node">
<title>10</title>
<path fill="none" stroke="#d85656" stroke-width="2" d="M184.5,-468C184.5,-468 147.5,-468 147.5,-468 141.5,-468 135.5,-462 135.5,-456 135.5,-456 135.5,-444 135.5,-444 135.5,-438 141.5,-432 147.5,-432 147.5,-432 184.5,-432 184.5,-432 190.5,-432 196.5,-438 196.5,-444 196.5,-444 196.5,-456 196.5,-456 196.5,-462 190.5,-468 184.5,-468"/>
<text text-anchor="middle" x="166" y="-447.5" font-family="sans" font-size="10.00" fill="#000000">align_filter</text>
</g>
<!-- 10&#45;&gt;9 -->
<g id="edge14" class="edge">
<title>10&#45;&gt;9</title>
<path fill="none" stroke="#c0c0c0" stroke-width="2" d="M166.5047,-431.8314C166.7186,-424.131 166.9729,-414.9743 167.2106,-406.4166"/>
<polygon fill="#c0c0c0" stroke="#c0c0c0" stroke-width="2" points="170.7094,-406.5066 167.4885,-396.4133 163.7121,-406.3122 170.7094,-406.5066"/>
</g>
<!-- 11 -->
<g id="node12" class="node">
<title>11</title>
<path fill="none" stroke="#d8ac56" stroke-width="2" d="M192.5,-540C192.5,-540 137.5,-540 137.5,-540 131.5,-540 125.5,-534 125.5,-528 125.5,-528 125.5,-516 125.5,-516 125.5,-510 131.5,-504 137.5,-504 137.5,-504 192.5,-504 192.5,-504 198.5,-504 204.5,-510 204.5,-516 204.5,-516 204.5,-528 204.5,-528 204.5,-534 198.5,-540 192.5,-540"/>
<text text-anchor="middle" x="165" y="-519.5" font-family="sans" font-size="10.00" fill="#000000">align_reassign</text>
</g>
<!-- 11&#45;&gt;10 -->
<g id="edge15" class="edge">
<title>11&#45;&gt;10</title>
<path fill="none" stroke="#c0c0c0" stroke-width="2" d="M165.2523,-503.8314C165.3593,-496.131 165.4865,-486.9743 165.6053,-478.4166"/>
<polygon fill="#c0c0c0" stroke="#c0c0c0" stroke-width="2" points="169.1049,-478.4609 165.7443,-468.4133 162.1056,-478.3637 169.1049,-478.4609"/>
</g>
<!-- 12&#45;&gt;11 -->
<g id="edge16" class="edge">
<title>12&#45;&gt;11</title>
<path fill="none" stroke="#c0c0c0" stroke-width="2" d="M158.2711,-575.8314C159.2336,-568.131 160.3782,-558.9743 161.4479,-550.4166"/>
<polygon fill="#c0c0c0" stroke="#c0c0c0" stroke-width="2" points="164.9309,-550.7702 162.6983,-540.4133 157.9849,-549.9019 164.9309,-550.7702"/>
</g>
<!-- 13&#45;&gt;0 -->
<g id="edge3" class="edge">
<title>13&#45;&gt;0</title>
<path fill="none" stroke="#c0c0c0" stroke-width="2" d="M161,-143.7623C161,-119.201 161,-75.2474 161,-46.3541"/>
<polygon fill="#c0c0c0" stroke="#c0c0c0" stroke-width="2" points="164.5001,-46.0896 161,-36.0896 157.5001,-46.0897 164.5001,-46.0896"/>
</g>
<!-- 13&#45;&gt;1 -->
<g id="edge4" class="edge">
<title>13&#45;&gt;1</title>
<path fill="none" stroke="#c0c0c0" stroke-width="2" d="M140.5603,-143.8314C130.6795,-135.0485 118.6676,-124.3712 107.955,-114.8489"/>
<polygon fill="#c0c0c0" stroke="#c0c0c0" stroke-width="2" points="110.2326,-112.1906 100.4332,-108.1628 105.582,-117.4224 110.2326,-112.1906"/>
</g>
<!-- 14&#45;&gt;0 -->
<g id="edge1" class="edge">
<title>14&#45;&gt;0</title>
<path fill="none" stroke="#c0c0c0" stroke-width="2" d="M242.9552,-215.7645C238.6374,-197.3625 231.1624,-168.275 222,-144 208.7586,-108.9178 189.3207,-70.3552 175.9652,-45.2506"/>
<polygon fill="#c0c0c0" stroke="#c0c0c0" stroke-width="2" points="178.9854,-43.4766 171.17,-36.3233 172.8186,-46.789 178.9854,-43.4766"/>
</g>
</g>
</svg>
