<?xml version="1.0" encoding="UTF-8" standalone="no"?>
<!DOCTYPE svg PUBLIC "-//W3C//DTD SVG 1.1//EN"
 "http://www.w3.org/Graphics/SVG/1.1/DTD/svg11.dtd">
<!-- Generated by graphviz version 2.40.1 (0)
 -->
<!-- Title: snakemake_dag Pages: 1 -->
<svg width="304pt" height="1124pt"
 viewBox="0.00 0.00 303.50 1124.00" xmlns="http://www.w3.org/2000/svg" xmlns:xlink="http://www.w3.org/1999/xlink">
<g id="graph0" class="graph" transform="scale(1 1) rotate(0) translate(4 1120)">
<title>snakemake_dag</title>
<polygon fill="#ffffff" stroke="transparent" points="-4,4 -4,-1120 299.5,-1120 299.5,4 -4,4"/>
<!-- 0 -->
<g id="node1" class="node">
<title>0</title>
<path fill="none" stroke="#afd856" stroke-width="2" d="M176,-36C176,-36 146,-36 146,-36 140,-36 134,-30 134,-24 134,-24 134,-12 134,-12 134,-6 140,0 146,0 146,0 176,0 176,0 182,0 188,-6 188,-12 188,-12 188,-24 188,-24 188,-30 182,-36 176,-36"/>
<text text-anchor="middle" x="161" y="-15.5" font-family="sans" font-size="10.00" fill="#000000">all</text>
</g>
<!-- 1 -->
<g id="node2" class="node">
<title>1</title>
<path fill="none" stroke="#56d8c9" stroke-width="2" d="M95,-108C95,-108 65,-108 65,-108 59,-108 53,-102 53,-96 53,-96 53,-84 53,-84 53,-78 59,-72 65,-72 65,-72 95,-72 95,-72 101,-72 107,-78 107,-84 107,-84 107,-96 107,-96 107,-102 101,-108 95,-108"/>
<text text-anchor="middle" x="80" y="-87.5" font-family="sans" font-size="10.00" fill="#000000">multiqc</text>
</g>
<!-- 1&#45;&gt;0 -->
<g id="edge3" class="edge">
<title>1&#45;&gt;0</title>
<path fill="none" stroke="#c0c0c0" stroke-width="2" d="M100.4397,-71.8314C110.3205,-63.0485 122.3324,-52.3712 133.045,-42.8489"/>
<polygon fill="#c0c0c0" stroke="#c0c0c0" stroke-width="2" points="135.418,-45.4224 140.5668,-36.1628 130.7674,-40.1906 135.418,-45.4224"/>
</g>
<!-- 2 -->
<g id="node3" class="node">
<title>2</title>
<path fill="none" stroke="#97d856" stroke-width="2" d="M53,-1116C53,-1116 23,-1116 23,-1116 17,-1116 11,-1110 11,-1104 11,-1104 11,-1092 11,-1092 11,-1086 17,-1080 23,-1080 23,-1080 53,-1080 53,-1080 59,-1080 65,-1086 65,-1092 65,-1092 65,-1104 65,-1104 65,-1110 59,-1116 53,-1116"/>
<text text-anchor="middle" x="38" y="-1095.5" font-family="sans" font-size="10.00" fill="#000000">bowtie2</text>
</g>
<!-- 2&#45;&gt;1 -->
<g id="edge5" class="edge">
<title>2&#45;&gt;1</title>
<path fill="none" stroke="#c0c0c0" stroke-width="2" d="M29.9412,-1079.7668C18.7866,-1052.8248 0,-1000.5405 0,-954 0,-954 0,-954 0,-234 0,-187.9277 31.6802,-142.8164 55.1688,-115.7014"/>
<polygon fill="#c0c0c0" stroke="#c0c0c0" stroke-width="2" points="57.8025,-118.0067 61.8468,-108.2141 52.5785,-113.3474 57.8025,-118.0067"/>
</g>
<!-- 7 -->
<g id="node8" class="node">
<title>7</title>
<path fill="none" stroke="#568ad8" stroke-width="2" d="M182.5,-900C182.5,-900 53.5,-900 53.5,-900 47.5,-900 41.5,-894 41.5,-888 41.5,-888 41.5,-876 41.5,-876 41.5,-870 47.5,-864 53.5,-864 53.5,-864 182.5,-864 182.5,-864 188.5,-864 194.5,-870 194.5,-876 194.5,-876 194.5,-888 194.5,-888 194.5,-894 188.5,-900 182.5,-900"/>
<text text-anchor="middle" x="118" y="-879.5" font-family="sans" font-size="10.00" fill="#000000">shard_saturated_reads_remove</text>
</g>
<!-- 2&#45;&gt;7 -->
<g id="edge12" class="edge">
<title>2&#45;&gt;7</title>
<path fill="none" stroke="#c0c0c0" stroke-width="2" d="M36.0912,-1079.7694C33.6561,-1048.4348 32.3466,-983.1851 57,-936 62.8334,-924.8353 71.991,-914.9032 81.4538,-906.6973"/>
<polygon fill="#c0c0c0" stroke="#c0c0c0" stroke-width="2" points="83.863,-909.2491 89.4081,-900.2211 79.4434,-903.8207 83.863,-909.2491"/>
</g>
<!-- 9 -->
<g id="node10" class="node">
<title>9</title>
<path fill="none" stroke="#56b9d8" stroke-width="2" d="M157.5,-1044C157.5,-1044 88.5,-1044 88.5,-1044 82.5,-1044 76.5,-1038 76.5,-1032 76.5,-1032 76.5,-1020 76.5,-1020 76.5,-1014 82.5,-1008 88.5,-1008 88.5,-1008 157.5,-1008 157.5,-1008 163.5,-1008 169.5,-1014 169.5,-1020 169.5,-1020 169.5,-1032 169.5,-1032 169.5,-1038 163.5,-1044 157.5,-1044"/>
<text text-anchor="middle" x="123" y="-1023.5" font-family="sans" font-size="10.00" fill="#000000">shard_count_alns</text>
</g>
<!-- 2&#45;&gt;9 -->
<g id="edge15" class="edge">
<title>2&#45;&gt;9</title>
<path fill="none" stroke="#c0c0c0" stroke-width="2" d="M59.4491,-1079.8314C69.8178,-1071.0485 82.4229,-1060.3712 93.6646,-1050.8489"/>
<polygon fill="#c0c0c0" stroke="#c0c0c0" stroke-width="2" points="96.1895,-1053.297 101.5578,-1044.1628 91.6651,-1047.9556 96.1895,-1053.297"/>
</g>
<!-- 3 -->
<g id="node4" class="node">
<title>3</title>
<path fill="none" stroke="#c6d856" stroke-width="2" d="M90,-540C90,-540 50,-540 50,-540 44,-540 38,-534 38,-528 38,-528 38,-516 38,-516 38,-510 44,-504 50,-504 50,-504 90,-504 90,-504 96,-504 102,-510 102,-516 102,-516 102,-528 102,-528 102,-534 96,-540 90,-540"/>
<text text-anchor="middle" x="70" y="-519.5" font-family="sans" font-size="10.00" fill="#000000">align_stats</text>
</g>
<!-- 3&#45;&gt;1 -->
<g id="edge7" class="edge">
<title>3&#45;&gt;1</title>
<path fill="none" stroke="#c0c0c0" stroke-width="2" d="M63.2136,-503.6497C53.8203,-476.5619 38,-424.0977 38,-378 38,-378 38,-378 38,-234 38,-192.0688 54.6152,-145.918 66.9448,-117.4435"/>
<polygon fill="#c0c0c0" stroke="#c0c0c0" stroke-width="2" points="70.2152,-118.7032 71.0929,-108.1447 63.8225,-115.8513 70.2152,-118.7032"/>
</g>
<!-- 4 -->
<g id="node5" class="node">
<title>4</title>
<path fill="none" stroke="#d88556" stroke-width="2" d="M140.5,-684C140.5,-684 95.5,-684 95.5,-684 89.5,-684 83.5,-678 83.5,-672 83.5,-672 83.5,-660 83.5,-660 83.5,-654 89.5,-648 95.5,-648 95.5,-648 140.5,-648 140.5,-648 146.5,-648 152.5,-654 152.5,-660 152.5,-660 152.5,-672 152.5,-672 152.5,-678 146.5,-684 140.5,-684"/>
<text text-anchor="middle" x="118" y="-663.5" font-family="sans" font-size="10.00" fill="#000000">align_merge</text>
</g>
<!-- 4&#45;&gt;3 -->
<g id="edge8" class="edge">
<title>4&#45;&gt;3</title>
<path fill="none" stroke="#c0c0c0" stroke-width="2" d="M111.9208,-647.7623C103.6615,-622.9846 88.8238,-578.4714 79.198,-549.5939"/>
<polygon fill="#c0c0c0" stroke="#c0c0c0" stroke-width="2" points="82.5126,-548.4696 76.0299,-540.0896 75.8718,-550.6833 82.5126,-548.4696"/>
</g>
<!-- 15 -->
<g id="node16" class="node">
<title>15</title>
<path fill="none" stroke="#d8bc56" stroke-width="2" d="M190,-612C190,-612 126,-612 126,-612 120,-612 114,-606 114,-600 114,-600 114,-588 114,-588 114,-582 120,-576 126,-576 126,-576 190,-576 190,-576 196,-576 202,-582 202,-588 202,-588 202,-600 202,-600 202,-606 196,-612 190,-612"/>
<text text-anchor="middle" x="158" y="-591.5" font-family="sans" font-size="10.00" fill="#000000">align_sort_coord</text>
</g>
<!-- 4&#45;&gt;15 -->
<g id="edge21" class="edge">
<title>4&#45;&gt;15</title>
<path fill="none" stroke="#c0c0c0" stroke-width="2" d="M128.0937,-647.8314C132.5597,-639.7925 137.9075,-630.1666 142.8379,-621.2918"/>
<polygon fill="#c0c0c0" stroke="#c0c0c0" stroke-width="2" points="145.9735,-622.8546 147.7704,-612.4133 139.8544,-619.4551 145.9735,-622.8546"/>
</g>
<!-- 5 -->
<g id="node6" class="node">
<title>5</title>
<path fill="none" stroke="#5673d8" stroke-width="2" d="M152,-756C152,-756 84,-756 84,-756 78,-756 72,-750 72,-744 72,-744 72,-732 72,-732 72,-726 78,-720 84,-720 84,-720 152,-720 152,-720 158,-720 164,-726 164,-732 164,-732 164,-744 164,-744 164,-750 158,-756 152,-756"/>
<text text-anchor="middle" x="118" y="-735.5" font-family="sans" font-size="10.00" fill="#000000">shard_sort_query</text>
</g>
<!-- 5&#45;&gt;4 -->
<g id="edge9" class="edge">
<title>5&#45;&gt;4</title>
<path fill="none" stroke="#c0c0c0" stroke-width="2" d="M118,-719.8314C118,-712.131 118,-702.9743 118,-694.4166"/>
<polygon fill="#c0c0c0" stroke="#c0c0c0" stroke-width="2" points="121.5001,-694.4132 118,-684.4133 114.5001,-694.4133 121.5001,-694.4132"/>
</g>
<!-- 6 -->
<g id="node7" class="node">
<title>6</title>
<path fill="none" stroke="#56d0d8" stroke-width="2" d="M158,-828C158,-828 78,-828 78,-828 72,-828 66,-822 66,-816 66,-816 66,-804 66,-804 66,-798 72,-792 78,-792 78,-792 158,-792 158,-792 164,-792 170,-798 170,-804 170,-804 170,-816 170,-816 170,-822 164,-828 158,-828"/>
<text text-anchor="middle" x="118" y="-807.5" font-family="sans" font-size="10.00" fill="#000000">shard_clean_header</text>
</g>
<!-- 6&#45;&gt;5 -->
<g id="edge10" class="edge">
<title>6&#45;&gt;5</title>
<path fill="none" stroke="#c0c0c0" stroke-width="2" d="M118,-791.8314C118,-784.131 118,-774.9743 118,-766.4166"/>
<polygon fill="#c0c0c0" stroke="#c0c0c0" stroke-width="2" points="121.5001,-766.4132 118,-756.4133 114.5001,-766.4133 121.5001,-766.4132"/>
</g>
<!-- 7&#45;&gt;6 -->
<g id="edge11" class="edge">
<title>7&#45;&gt;6</title>
<path fill="none" stroke="#c0c0c0" stroke-width="2" d="M118,-863.8314C118,-856.131 118,-846.9743 118,-838.4166"/>
<polygon fill="#c0c0c0" stroke="#c0c0c0" stroke-width="2" points="121.5001,-838.4132 118,-828.4133 114.5001,-838.4133 121.5001,-838.4132"/>
</g>
<!-- 8 -->
<g id="node9" class="node">
<title>8</title>
<path fill="none" stroke="#56a2d8" stroke-width="2" d="M188,-972C188,-972 78,-972 78,-972 72,-972 66,-966 66,-960 66,-960 66,-948 66,-948 66,-942 72,-936 78,-936 78,-936 188,-936 188,-936 194,-936 200,-942 200,-948 200,-948 200,-960 200,-960 200,-966 194,-972 188,-972"/>
<text text-anchor="middle" x="133" y="-951.5" font-family="sans" font-size="10.00" fill="#000000">shard_saturated_reads_get</text>
</g>
<!-- 8&#45;&gt;7 -->
<g id="edge13" class="edge">
<title>8&#45;&gt;7</title>
<path fill="none" stroke="#c0c0c0" stroke-width="2" d="M129.2149,-935.8314C127.6106,-928.131 125.703,-918.9743 123.9201,-910.4166"/>
<polygon fill="#c0c0c0" stroke="#c0c0c0" stroke-width="2" points="127.3021,-909.4892 121.8361,-900.4133 120.4493,-910.9169 127.3021,-909.4892"/>
</g>
<!-- 9&#45;&gt;8 -->
<g id="edge14" class="edge">
<title>9&#45;&gt;8</title>
<path fill="none" stroke="#c0c0c0" stroke-width="2" d="M125.5234,-1007.8314C126.5929,-1000.131 127.8647,-990.9743 129.0532,-982.4166"/>
<polygon fill="#c0c0c0" stroke="#c0c0c0" stroke-width="2" points="132.5336,-982.7997 130.4426,-972.4133 125.6001,-981.8367 132.5336,-982.7997"/>
</g>
<!-- 10 -->
<g id="node11" class="node">
<title>10</title>
<path fill="none" stroke="#56d892" stroke-width="2" d="M130,-252C130,-252 78,-252 78,-252 72,-252 66,-246 66,-240 66,-240 66,-228 66,-228 66,-222 72,-216 78,-216 78,-216 130,-216 130,-216 136,-216 142,-222 142,-228 142,-228 142,-240 142,-240 142,-246 136,-252 130,-252"/>
<text text-anchor="middle" x="104" y="-231.5" font-family="sans" font-size="10.00" fill="#000000">metadmg_dfit</text>
</g>
<!-- 10&#45;&gt;1 -->
<g id="edge6" class="edge">
<title>10&#45;&gt;1</title>
<path fill="none" stroke="#c0c0c0" stroke-width="2" d="M100.9604,-215.7623C96.8488,-191.0928 89.4766,-146.8598 84.6622,-117.9731"/>
<polygon fill="#c0c0c0" stroke="#c0c0c0" stroke-width="2" points="88.1114,-117.3781 83.0149,-108.0896 81.2066,-118.529 88.1114,-117.3781"/>
</g>
<!-- 16 -->
<g id="node17" class="node">
<title>16</title>
<path fill="none" stroke="#56d863" stroke-width="2" d="M201.5,-180C201.5,-180 120.5,-180 120.5,-180 114.5,-180 108.5,-174 108.5,-168 108.5,-168 108.5,-156 108.5,-156 108.5,-150 114.5,-144 120.5,-144 120.5,-144 201.5,-144 201.5,-144 207.5,-144 213.5,-150 213.5,-156 213.5,-156 213.5,-168 213.5,-168 213.5,-174 207.5,-180 201.5,-180"/>
<text text-anchor="middle" x="161" y="-159.5" font-family="sans" font-size="10.00" fill="#000000">metadmg_aggregate</text>
</g>
<!-- 10&#45;&gt;16 -->
<g id="edge23" class="edge">
<title>10&#45;&gt;16</title>
<path fill="none" stroke="#c0c0c0" stroke-width="2" d="M118.3835,-215.8314C124.9486,-207.5386 132.8507,-197.557 140.0578,-188.4533"/>
<polygon fill="#c0c0c0" stroke="#c0c0c0" stroke-width="2" points="142.9599,-190.4262 146.4228,-180.4133 137.4716,-186.0813 142.9599,-190.4262"/>
</g>
<!-- 11 -->
<g id="node12" class="node">
<title>11</title>
<path fill="none" stroke="#56d8a9" stroke-width="2" d="M193.5,-324C193.5,-324 142.5,-324 142.5,-324 136.5,-324 130.5,-318 130.5,-312 130.5,-312 130.5,-300 130.5,-300 130.5,-294 136.5,-288 142.5,-288 142.5,-288 193.5,-288 193.5,-288 199.5,-288 205.5,-294 205.5,-300 205.5,-300 205.5,-312 205.5,-312 205.5,-318 199.5,-324 193.5,-324"/>
<text text-anchor="middle" x="168" y="-303.5" font-family="sans" font-size="10.00" fill="#000000">metadmg_lca</text>
</g>
<!-- 11&#45;&gt;10 -->
<g id="edge16" class="edge">
<title>11&#45;&gt;10</title>
<path fill="none" stroke="#c0c0c0" stroke-width="2" d="M151.8501,-287.8314C144.3283,-279.3694 135.2435,-269.1489 127.0196,-259.8971"/>
<polygon fill="#c0c0c0" stroke="#c0c0c0" stroke-width="2" points="129.627,-257.5621 120.3673,-252.4133 124.3951,-262.2127 129.627,-257.5621"/>
</g>
<!-- 11&#45;&gt;16 -->
<g id="edge22" class="edge">
<title>11&#45;&gt;16</title>
<path fill="none" stroke="#c0c0c0" stroke-width="2" d="M167.1134,-287.7623C165.9195,-263.201 163.7829,-219.2474 162.3783,-190.3541"/>
<polygon fill="#c0c0c0" stroke="#c0c0c0" stroke-width="2" points="165.8609,-189.9079 161.8794,-180.0896 158.8691,-190.2478 165.8609,-189.9079"/>
</g>
<!-- 12 -->
<g id="node13" class="node">
<title>12</title>
<path fill="none" stroke="#d8d356" stroke-width="2" d="M200,-396C200,-396 136,-396 136,-396 130,-396 124,-390 124,-384 124,-384 124,-372 124,-372 124,-366 130,-360 136,-360 136,-360 200,-360 200,-360 206,-360 212,-366 212,-372 212,-372 212,-384 212,-384 212,-390 206,-396 200,-396"/>
<text text-anchor="middle" x="168" y="-375.5" font-family="sans" font-size="10.00" fill="#000000">align_sort_query</text>
</g>
<!-- 12&#45;&gt;11 -->
<g id="edge17" class="edge">
<title>12&#45;&gt;11</title>
<path fill="none" stroke="#c0c0c0" stroke-width="2" d="M168,-359.8314C168,-352.131 168,-342.9743 168,-334.4166"/>
<polygon fill="#c0c0c0" stroke="#c0c0c0" stroke-width="2" points="171.5001,-334.4132 168,-324.4133 164.5001,-334.4133 171.5001,-334.4132"/>
</g>
<!-- 17 -->
<g id="node18" class="node">
<title>17</title>
<path fill="none" stroke="#56d87b" stroke-width="2" d="M283.5,-252C283.5,-252 210.5,-252 210.5,-252 204.5,-252 198.5,-246 198.5,-240 198.5,-240 198.5,-228 198.5,-228 198.5,-222 204.5,-216 210.5,-216 210.5,-216 283.5,-216 283.5,-216 289.5,-216 295.5,-222 295.5,-228 295.5,-228 295.5,-240 295.5,-240 295.5,-246 289.5,-252 283.5,-252"/>
<text text-anchor="middle" x="247" y="-231.5" font-family="sans" font-size="10.00" fill="#000000">metadmg_damage</text>
</g>
<!-- 12&#45;&gt;17 -->
<g id="edge24" class="edge">
<title>12&#45;&gt;17</title>
<path fill="none" stroke="#c0c0c0" stroke-width="2" d="M186.8622,-359.8633C196.316,-349.9688 207.3489,-337.0911 215,-324 226.3848,-304.5206 234.7069,-280.3256 240.006,-261.9293"/>
<polygon fill="#c0c0c0" stroke="#c0c0c0" stroke-width="2" points="243.4293,-262.6807 242.7081,-252.1105 236.6802,-260.8234 243.4293,-262.6807"/>
</g>
<!-- 13 -->
<g id="node14" class="node">
<title>13</title>
<path fill="none" stroke="#d85656" stroke-width="2" d="M184.5,-468C184.5,-468 147.5,-468 147.5,-468 141.5,-468 135.5,-462 135.5,-456 135.5,-456 135.5,-444 135.5,-444 135.5,-438 141.5,-432 147.5,-432 147.5,-432 184.5,-432 184.5,-432 190.5,-432 196.5,-438 196.5,-444 196.5,-444 196.5,-456 196.5,-456 196.5,-462 190.5,-468 184.5,-468"/>
<text text-anchor="middle" x="166" y="-447.5" font-family="sans" font-size="10.00" fill="#000000">align_filter</text>
</g>
<!-- 13&#45;&gt;12 -->
<g id="edge18" class="edge">
<title>13&#45;&gt;12</title>
<path fill="none" stroke="#c0c0c0" stroke-width="2" d="M166.5047,-431.8314C166.7186,-424.131 166.9729,-414.9743 167.2106,-406.4166"/>
<polygon fill="#c0c0c0" stroke="#c0c0c0" stroke-width="2" points="170.7094,-406.5066 167.4885,-396.4133 163.7121,-406.3122 170.7094,-406.5066"/>
</g>
<!-- 14 -->
<g id="node15" class="node">
<title>14</title>
<path fill="none" stroke="#d8a456" stroke-width="2" d="M192.5,-540C192.5,-540 137.5,-540 137.5,-540 131.5,-540 125.5,-534 125.5,-528 125.5,-528 125.5,-516 125.5,-516 125.5,-510 131.5,-504 137.5,-504 137.5,-504 192.5,-504 192.5,-504 198.5,-504 204.5,-510 204.5,-516 204.5,-516 204.5,-528 204.5,-528 204.5,-534 198.5,-540 192.5,-540"/>
<text text-anchor="middle" x="165" y="-519.5" font-family="sans" font-size="10.00" fill="#000000">align_reassign</text>
</g>
<!-- 14&#45;&gt;13 -->
<g id="edge19" class="edge">
<title>14&#45;&gt;13</title>
<path fill="none" stroke="#c0c0c0" stroke-width="2" d="M165.2523,-503.8314C165.3593,-496.131 165.4865,-486.9743 165.6053,-478.4166"/>
<polygon fill="#c0c0c0" stroke="#c0c0c0" stroke-width="2" points="169.1049,-478.4609 165.7443,-468.4133 162.1056,-478.3637 169.1049,-478.4609"/>
</g>
<!-- 15&#45;&gt;14 -->
<g id="edge20" class="edge">
<title>15&#45;&gt;14</title>
<path fill="none" stroke="#c0c0c0" stroke-width="2" d="M159.7664,-575.8314C160.515,-568.131 161.4053,-558.9743 162.2373,-550.4166"/>
<polygon fill="#c0c0c0" stroke="#c0c0c0" stroke-width="2" points="165.7256,-550.7051 163.2098,-540.4133 158.7585,-550.0276 165.7256,-550.7051"/>
</g>
<!-- 16&#45;&gt;0 -->
<g id="edge1" class="edge">
<title>16&#45;&gt;0</title>
<path fill="none" stroke="#c0c0c0" stroke-width="2" d="M161,-143.7623C161,-119.201 161,-75.2474 161,-46.3541"/>
<polygon fill="#c0c0c0" stroke="#c0c0c0" stroke-width="2" points="164.5001,-46.0896 161,-36.0896 157.5001,-46.0897 164.5001,-46.0896"/>
</g>
<!-- 16&#45;&gt;1 -->
<g id="edge4" class="edge">
<title>16&#45;&gt;1</title>
<path fill="none" stroke="#c0c0c0" stroke-width="2" d="M140.5603,-143.8314C130.6795,-135.0485 118.6676,-124.3712 107.955,-114.8489"/>
<polygon fill="#c0c0c0" stroke="#c0c0c0" stroke-width="2" points="110.2326,-112.1906 100.4332,-108.1628 105.582,-117.4224 110.2326,-112.1906"/>
</g>
<!-- 17&#45;&gt;0 -->
<g id="edge2" class="edge">
<title>17&#45;&gt;0</title>
<path fill="none" stroke="#c0c0c0" stroke-width="2" d="M243.2406,-215.7432C239.1917,-197.3248 232.0889,-168.2247 223,-144 209.7864,-108.7818 189.9795,-70.2471 176.3265,-45.1862"/>
<polygon fill="#c0c0c0" stroke="#c0c0c0" stroke-width="2" points="179.3103,-43.3486 171.4217,-36.276 173.178,-46.7243 179.3103,-43.3486"/>
</g>
</g>
</svg>
