<?xml version="1.0" encoding="UTF-8" standalone="no"?>
<!DOCTYPE svg PUBLIC "-//W3C//DTD SVG 1.1//EN"
 "http://www.w3.org/Graphics/SVG/1.1/DTD/svg11.dtd">
<!-- Generated by graphviz version 2.40.1 (0)
 -->
<!-- Title: snakemake_dag Pages: 1 -->
<svg width="390pt" height="1124pt"
 viewBox="0.00 0.00 389.50 1124.00" xmlns="http://www.w3.org/2000/svg" xmlns:xlink="http://www.w3.org/1999/xlink">
<g id="graph0" class="graph" transform="scale(1 1) rotate(0) translate(4 1120)">
<title>snakemake_dag</title>
<polygon fill="#ffffff" stroke="transparent" points="-4,4 -4,-1120 385.5,-1120 385.5,4 -4,4"/>
<!-- 0 -->
<g id="node1" class="node">
<title>0</title>
<path fill="none" stroke="#b6d856" stroke-width="2" d="M241,-36C241,-36 211,-36 211,-36 205,-36 199,-30 199,-24 199,-24 199,-12 199,-12 199,-6 205,0 211,0 211,0 241,0 241,0 247,0 253,-6 253,-12 253,-12 253,-24 253,-24 253,-30 247,-36 241,-36"/>
<text text-anchor="middle" x="226" y="-15.5" font-family="sans" font-size="10.00" fill="#000000">all</text>
</g>
<!-- 1 -->
<g id="node2" class="node">
<title>1</title>
<path fill="none" stroke="#56d8b1" stroke-width="2" d="M100,-108C100,-108 70,-108 70,-108 64,-108 58,-102 58,-96 58,-96 58,-84 58,-84 58,-78 64,-72 70,-72 70,-72 100,-72 100,-72 106,-72 112,-78 112,-84 112,-84 112,-96 112,-96 112,-102 106,-108 100,-108"/>
<text text-anchor="middle" x="85" y="-87.5" font-family="sans" font-size="10.00" fill="#000000">multiqc</text>
</g>
<!-- 1&#45;&gt;0 -->
<g id="edge1" class="edge">
<title>1&#45;&gt;0</title>
<path fill="none" stroke="#c0c0c0" stroke-width="2" d="M112.1862,-76.1177C134.2282,-64.8622 165.4929,-48.8972 189.6783,-36.5473"/>
<polygon fill="#c0c0c0" stroke="#c0c0c0" stroke-width="2" points="191.5829,-39.5047 198.8972,-31.8397 188.3994,-33.2704 191.5829,-39.5047"/>
</g>
<!-- 2 -->
<g id="node3" class="node">
<title>2</title>
<path fill="none" stroke="#9fd856" stroke-width="2" d="M86,-1116C86,-1116 56,-1116 56,-1116 50,-1116 44,-1110 44,-1104 44,-1104 44,-1092 44,-1092 44,-1086 50,-1080 56,-1080 56,-1080 86,-1080 86,-1080 92,-1080 98,-1086 98,-1092 98,-1092 98,-1104 98,-1104 98,-1110 92,-1116 86,-1116"/>
<text text-anchor="middle" x="71" y="-1095.5" font-family="sans" font-size="10.00" fill="#000000">bowtie2</text>
</g>
<!-- 2&#45;&gt;1 -->
<g id="edge7" class="edge">
<title>2&#45;&gt;1</title>
<path fill="none" stroke="#c0c0c0" stroke-width="2" d="M55.2428,-1079.8597C34.3256,-1053.8524 0,-1003.6151 0,-954 0,-954 0,-954 0,-234 0,-187.4968 33.281,-142.8088 58.193,-115.8723"/>
<polygon fill="#c0c0c0" stroke="#c0c0c0" stroke-width="2" points="60.9206,-118.0835 65.2856,-108.4296 55.8531,-113.2543 60.9206,-118.0835"/>
</g>
<!-- 7 -->
<g id="node8" class="node">
<title>7</title>
<path fill="none" stroke="#5682d8" stroke-width="2" d="M190.5,-900C190.5,-900 61.5,-900 61.5,-900 55.5,-900 49.5,-894 49.5,-888 49.5,-888 49.5,-876 49.5,-876 49.5,-870 55.5,-864 61.5,-864 61.5,-864 190.5,-864 190.5,-864 196.5,-864 202.5,-870 202.5,-876 202.5,-876 202.5,-888 202.5,-888 202.5,-894 196.5,-900 190.5,-900"/>
<text text-anchor="middle" x="126" y="-879.5" font-family="sans" font-size="10.00" fill="#000000">shard_saturated_reads_remove</text>
</g>
<!-- 2&#45;&gt;7 -->
<g id="edge14" class="edge">
<title>2&#45;&gt;7</title>
<path fill="none" stroke="#c0c0c0" stroke-width="2" d="M70.4137,-1079.8694C70.01,-1049.2324 71.7239,-985.7005 90,-936 93.5211,-926.4246 99.0551,-916.8673 104.7375,-908.5132"/>
<polygon fill="#c0c0c0" stroke="#c0c0c0" stroke-width="2" points="107.6497,-910.4581 110.6349,-900.2925 101.9619,-906.3778 107.6497,-910.4581"/>
</g>
<!-- 9 -->
<g id="node10" class="node">
<title>9</title>
<path fill="none" stroke="#56c9d8" stroke-width="2" d="M190.5,-1044C190.5,-1044 121.5,-1044 121.5,-1044 115.5,-1044 109.5,-1038 109.5,-1032 109.5,-1032 109.5,-1020 109.5,-1020 109.5,-1014 115.5,-1008 121.5,-1008 121.5,-1008 190.5,-1008 190.5,-1008 196.5,-1008 202.5,-1014 202.5,-1020 202.5,-1020 202.5,-1032 202.5,-1032 202.5,-1038 196.5,-1044 190.5,-1044"/>
<text text-anchor="middle" x="156" y="-1023.5" font-family="sans" font-size="10.00" fill="#000000">shard_count_alns</text>
</g>
<!-- 2&#45;&gt;9 -->
<g id="edge16" class="edge">
<title>2&#45;&gt;9</title>
<path fill="none" stroke="#c0c0c0" stroke-width="2" d="M92.4491,-1079.8314C102.8178,-1071.0485 115.4229,-1060.3712 126.6646,-1050.8489"/>
<polygon fill="#c0c0c0" stroke="#c0c0c0" stroke-width="2" points="129.1895,-1053.297 134.5578,-1044.1628 124.6651,-1047.9556 129.1895,-1053.297"/>
</g>
<!-- 3 -->
<g id="node4" class="node">
<title>3</title>
<path fill="none" stroke="#ced856" stroke-width="2" d="M82,-540C82,-540 42,-540 42,-540 36,-540 30,-534 30,-528 30,-528 30,-516 30,-516 30,-510 36,-504 42,-504 42,-504 82,-504 82,-504 88,-504 94,-510 94,-516 94,-516 94,-528 94,-528 94,-534 88,-540 82,-540"/>
<text text-anchor="middle" x="62" y="-519.5" font-family="sans" font-size="10.00" fill="#000000">align_stats</text>
</g>
<!-- 3&#45;&gt;1 -->
<g id="edge5" class="edge">
<title>3&#45;&gt;1</title>
<path fill="none" stroke="#c0c0c0" stroke-width="2" d="M57.0272,-503.9753C49.9974,-476.864 38,-423.8742 38,-378 38,-378 38,-378 38,-234 38,-191.6562 56.5932,-145.6118 70.3906,-117.273"/>
<polygon fill="#c0c0c0" stroke="#c0c0c0" stroke-width="2" points="73.6755,-118.5304 75.0325,-108.0228 67.4191,-115.3907 73.6755,-118.5304"/>
</g>
<!-- 4 -->
<g id="node5" class="node">
<title>4</title>
<path fill="none" stroke="#d88556" stroke-width="2" d="M148.5,-684C148.5,-684 103.5,-684 103.5,-684 97.5,-684 91.5,-678 91.5,-672 91.5,-672 91.5,-660 91.5,-660 91.5,-654 97.5,-648 103.5,-648 103.5,-648 148.5,-648 148.5,-648 154.5,-648 160.5,-654 160.5,-660 160.5,-660 160.5,-672 160.5,-672 160.5,-678 154.5,-684 148.5,-684"/>
<text text-anchor="middle" x="126" y="-663.5" font-family="sans" font-size="10.00" fill="#000000">align_merge</text>
</g>
<!-- 4&#45;&gt;3 -->
<g id="edge9" class="edge">
<title>4&#45;&gt;3</title>
<path fill="none" stroke="#c0c0c0" stroke-width="2" d="M113.3566,-647.5657C106.7284,-637.38 98.8046,-624.3254 93,-612 83.4795,-591.7841 75.3678,-567.8157 69.8328,-549.6985"/>
<polygon fill="#c0c0c0" stroke="#c0c0c0" stroke-width="2" points="73.1646,-548.6234 66.9554,-540.0387 66.4559,-550.6218 73.1646,-548.6234"/>
</g>
<!-- 15 -->
<g id="node16" class="node">
<title>15</title>
<path fill="none" stroke="#d8b456" stroke-width="2" d="M178,-612C178,-612 114,-612 114,-612 108,-612 102,-606 102,-600 102,-600 102,-588 102,-588 102,-582 108,-576 114,-576 114,-576 178,-576 178,-576 184,-576 190,-582 190,-588 190,-588 190,-600 190,-600 190,-606 184,-612 178,-612"/>
<text text-anchor="middle" x="146" y="-591.5" font-family="sans" font-size="10.00" fill="#000000">align_sort_coord</text>
</g>
<!-- 4&#45;&gt;15 -->
<g id="edge22" class="edge">
<title>4&#45;&gt;15</title>
<path fill="none" stroke="#c0c0c0" stroke-width="2" d="M131.0468,-647.8314C133.2094,-640.0463 135.7853,-630.7729 138.1848,-622.1347"/>
<polygon fill="#c0c0c0" stroke="#c0c0c0" stroke-width="2" points="141.581,-622.9852 140.8852,-612.4133 134.8364,-621.1117 141.581,-622.9852"/>
</g>
<!-- 5 -->
<g id="node6" class="node">
<title>5</title>
<path fill="none" stroke="#566bd8" stroke-width="2" d="M160,-756C160,-756 92,-756 92,-756 86,-756 80,-750 80,-744 80,-744 80,-732 80,-732 80,-726 86,-720 92,-720 92,-720 160,-720 160,-720 166,-720 172,-726 172,-732 172,-732 172,-744 172,-744 172,-750 166,-756 160,-756"/>
<text text-anchor="middle" x="126" y="-735.5" font-family="sans" font-size="10.00" fill="#000000">shard_sort_query</text>
</g>
<!-- 5&#45;&gt;4 -->
<g id="edge10" class="edge">
<title>5&#45;&gt;4</title>
<path fill="none" stroke="#c0c0c0" stroke-width="2" d="M126,-719.8314C126,-712.131 126,-702.9743 126,-694.4166"/>
<polygon fill="#c0c0c0" stroke="#c0c0c0" stroke-width="2" points="129.5001,-694.4132 126,-684.4133 122.5001,-694.4133 129.5001,-694.4132"/>
</g>
<!-- 6 -->
<g id="node7" class="node">
<title>6</title>
<path fill="none" stroke="#56d8c9" stroke-width="2" d="M166,-828C166,-828 86,-828 86,-828 80,-828 74,-822 74,-816 74,-816 74,-804 74,-804 74,-798 80,-792 86,-792 86,-792 166,-792 166,-792 172,-792 178,-798 178,-804 178,-804 178,-816 178,-816 178,-822 172,-828 166,-828"/>
<text text-anchor="middle" x="126" y="-807.5" font-family="sans" font-size="10.00" fill="#000000">shard_clean_header</text>
</g>
<!-- 6&#45;&gt;5 -->
<g id="edge11" class="edge">
<title>6&#45;&gt;5</title>
<path fill="none" stroke="#c0c0c0" stroke-width="2" d="M126,-791.8314C126,-784.131 126,-774.9743 126,-766.4166"/>
<polygon fill="#c0c0c0" stroke="#c0c0c0" stroke-width="2" points="129.5001,-766.4132 126,-756.4133 122.5001,-766.4133 129.5001,-766.4132"/>
</g>
<!-- 7&#45;&gt;6 -->
<g id="edge12" class="edge">
<title>7&#45;&gt;6</title>
<path fill="none" stroke="#c0c0c0" stroke-width="2" d="M126,-863.8314C126,-856.131 126,-846.9743 126,-838.4166"/>
<polygon fill="#c0c0c0" stroke="#c0c0c0" stroke-width="2" points="129.5001,-838.4132 126,-828.4133 122.5001,-838.4133 129.5001,-838.4132"/>
</g>
<!-- 8 -->
<g id="node9" class="node">
<title>8</title>
<path fill="none" stroke="#569ad8" stroke-width="2" d="M221,-972C221,-972 111,-972 111,-972 105,-972 99,-966 99,-960 99,-960 99,-948 99,-948 99,-942 105,-936 111,-936 111,-936 221,-936 221,-936 227,-936 233,-942 233,-948 233,-948 233,-960 233,-960 233,-966 227,-972 221,-972"/>
<text text-anchor="middle" x="166" y="-951.5" font-family="sans" font-size="10.00" fill="#000000">shard_saturated_reads_get</text>
</g>
<!-- 8&#45;&gt;7 -->
<g id="edge13" class="edge">
<title>8&#45;&gt;7</title>
<path fill="none" stroke="#c0c0c0" stroke-width="2" d="M155.9063,-935.8314C151.4403,-927.7925 146.0925,-918.1666 141.1621,-909.2918"/>
<polygon fill="#c0c0c0" stroke="#c0c0c0" stroke-width="2" points="144.1456,-907.4551 136.2296,-900.4133 138.0265,-910.8546 144.1456,-907.4551"/>
</g>
<!-- 17 -->
<g id="node18" class="node">
<title>17</title>
<path fill="none" stroke="#56b1d8" stroke-width="2" d="M369.5,-828C369.5,-828 242.5,-828 242.5,-828 236.5,-828 230.5,-822 230.5,-816 230.5,-816 230.5,-804 230.5,-804 230.5,-798 236.5,-792 242.5,-792 242.5,-792 369.5,-792 369.5,-792 375.5,-792 381.5,-798 381.5,-804 381.5,-804 381.5,-816 381.5,-816 381.5,-822 375.5,-828 369.5,-828"/>
<text text-anchor="middle" x="306" y="-807.5" font-family="sans" font-size="10.00" fill="#000000">shard_saturated_reads_extract</text>
</g>
<!-- 8&#45;&gt;17 -->
<g id="edge25" class="edge">
<title>8&#45;&gt;17</title>
<path fill="none" stroke="#c0c0c0" stroke-width="2" d="M183.7311,-935.7623C208.4516,-910.3354 253.3782,-864.1253 281.3475,-835.3569"/>
<polygon fill="#c0c0c0" stroke="#c0c0c0" stroke-width="2" points="283.9516,-837.6994 288.4129,-828.0896 278.9326,-832.8198 283.9516,-837.6994"/>
</g>
<!-- 9&#45;&gt;8 -->
<g id="edge15" class="edge">
<title>9&#45;&gt;8</title>
<path fill="none" stroke="#c0c0c0" stroke-width="2" d="M158.5234,-1007.8314C159.5929,-1000.131 160.8647,-990.9743 162.0532,-982.4166"/>
<polygon fill="#c0c0c0" stroke="#c0c0c0" stroke-width="2" points="165.5336,-982.7997 163.4426,-972.4133 158.6001,-981.8367 165.5336,-982.7997"/>
</g>
<!-- 10 -->
<g id="node11" class="node">
<title>10</title>
<path fill="none" stroke="#56d882" stroke-width="2" d="M130,-252C130,-252 78,-252 78,-252 72,-252 66,-246 66,-240 66,-240 66,-228 66,-228 66,-222 72,-216 78,-216 78,-216 130,-216 130,-216 136,-216 142,-222 142,-228 142,-228 142,-240 142,-240 142,-246 136,-252 130,-252"/>
<text text-anchor="middle" x="104" y="-231.5" font-family="sans" font-size="10.00" fill="#000000">metadmg_dfit</text>
</g>
<!-- 10&#45;&gt;1 -->
<g id="edge6" class="edge">
<title>10&#45;&gt;1</title>
<path fill="none" stroke="#c0c0c0" stroke-width="2" d="M101.5936,-215.7623C98.3529,-191.201 92.5535,-147.2474 88.7412,-118.3541"/>
<polygon fill="#c0c0c0" stroke="#c0c0c0" stroke-width="2" points="92.1649,-117.5458 87.3868,-108.0896 85.2251,-118.4616 92.1649,-117.5458"/>
</g>
<!-- 16 -->
<g id="node17" class="node">
<title>16</title>
<path fill="none" stroke="#59d856" stroke-width="2" d="M206.5,-180C206.5,-180 125.5,-180 125.5,-180 119.5,-180 113.5,-174 113.5,-168 113.5,-168 113.5,-156 113.5,-156 113.5,-150 119.5,-144 125.5,-144 125.5,-144 206.5,-144 206.5,-144 212.5,-144 218.5,-150 218.5,-156 218.5,-156 218.5,-168 218.5,-168 218.5,-174 212.5,-180 206.5,-180"/>
<text text-anchor="middle" x="166" y="-159.5" font-family="sans" font-size="10.00" fill="#000000">metadmg_aggregate</text>
</g>
<!-- 10&#45;&gt;16 -->
<g id="edge24" class="edge">
<title>10&#45;&gt;16</title>
<path fill="none" stroke="#c0c0c0" stroke-width="2" d="M119.6452,-215.8314C126.8591,-207.454 135.557,-197.3531 143.4605,-188.1749"/>
<polygon fill="#c0c0c0" stroke="#c0c0c0" stroke-width="2" points="146.2711,-190.2748 150.1441,-180.4133 140.9667,-185.7071 146.2711,-190.2748"/>
</g>
<!-- 11 -->
<g id="node12" class="node">
<title>11</title>
<path fill="none" stroke="#56d89a" stroke-width="2" d="M185.5,-324C185.5,-324 134.5,-324 134.5,-324 128.5,-324 122.5,-318 122.5,-312 122.5,-312 122.5,-300 122.5,-300 122.5,-294 128.5,-288 134.5,-288 134.5,-288 185.5,-288 185.5,-288 191.5,-288 197.5,-294 197.5,-300 197.5,-300 197.5,-312 197.5,-312 197.5,-318 191.5,-324 185.5,-324"/>
<text text-anchor="middle" x="160" y="-303.5" font-family="sans" font-size="10.00" fill="#000000">metadmg_lca</text>
</g>
<!-- 11&#45;&gt;10 -->
<g id="edge17" class="edge">
<title>11&#45;&gt;10</title>
<path fill="none" stroke="#c0c0c0" stroke-width="2" d="M145.8688,-287.8314C139.4189,-279.5386 131.6555,-269.557 124.5748,-260.4533"/>
<polygon fill="#c0c0c0" stroke="#c0c0c0" stroke-width="2" points="127.2236,-258.158 118.3214,-252.4133 121.6981,-262.4556 127.2236,-258.158"/>
</g>
<!-- 11&#45;&gt;16 -->
<g id="edge23" class="edge">
<title>11&#45;&gt;16</title>
<path fill="none" stroke="#c0c0c0" stroke-width="2" d="M160.7599,-287.7623C161.7833,-263.201 163.6147,-219.2474 164.8186,-190.3541"/>
<polygon fill="#c0c0c0" stroke="#c0c0c0" stroke-width="2" points="168.3268,-190.2267 165.2463,-180.0896 161.3329,-189.9352 168.3268,-190.2267"/>
</g>
<!-- 12 -->
<g id="node13" class="node">
<title>12</title>
<path fill="none" stroke="#d8cb56" stroke-width="2" d="M192,-396C192,-396 128,-396 128,-396 122,-396 116,-390 116,-384 116,-384 116,-372 116,-372 116,-366 122,-360 128,-360 128,-360 192,-360 192,-360 198,-360 204,-366 204,-372 204,-372 204,-384 204,-384 204,-390 198,-396 192,-396"/>
<text text-anchor="middle" x="160" y="-375.5" font-family="sans" font-size="10.00" fill="#000000">align_sort_query</text>
</g>
<!-- 12&#45;&gt;11 -->
<g id="edge18" class="edge">
<title>12&#45;&gt;11</title>
<path fill="none" stroke="#c0c0c0" stroke-width="2" d="M160,-359.8314C160,-352.131 160,-342.9743 160,-334.4166"/>
<polygon fill="#c0c0c0" stroke="#c0c0c0" stroke-width="2" points="163.5001,-334.4132 160,-324.4133 156.5001,-334.4133 163.5001,-334.4132"/>
</g>
<!-- 18 -->
<g id="node19" class="node">
<title>18</title>
<path fill="none" stroke="#56d86b" stroke-width="2" d="M283.5,-252C283.5,-252 210.5,-252 210.5,-252 204.5,-252 198.5,-246 198.5,-240 198.5,-240 198.5,-228 198.5,-228 198.5,-222 204.5,-216 210.5,-216 210.5,-216 283.5,-216 283.5,-216 289.5,-216 295.5,-222 295.5,-228 295.5,-228 295.5,-240 295.5,-240 295.5,-246 289.5,-252 283.5,-252"/>
<text text-anchor="middle" x="247" y="-231.5" font-family="sans" font-size="10.00" fill="#000000">metadmg_damage</text>
</g>
<!-- 12&#45;&gt;18 -->
<g id="edge26" class="edge">
<title>12&#45;&gt;18</title>
<path fill="none" stroke="#c0c0c0" stroke-width="2" d="M178.4548,-359.6146C187.797,-349.652 198.8532,-336.7885 207,-324 219.5573,-304.2882 230.1085,-279.9682 237.2159,-261.5806"/>
<polygon fill="#c0c0c0" stroke="#c0c0c0" stroke-width="2" points="240.5588,-262.6345 240.8011,-252.0425 234.0064,-260.1716 240.5588,-262.6345"/>
</g>
<!-- 13 -->
<g id="node14" class="node">
<title>13</title>
<path fill="none" stroke="#d85656" stroke-width="2" d="M176.5,-468C176.5,-468 139.5,-468 139.5,-468 133.5,-468 127.5,-462 127.5,-456 127.5,-456 127.5,-444 127.5,-444 127.5,-438 133.5,-432 139.5,-432 139.5,-432 176.5,-432 176.5,-432 182.5,-432 188.5,-438 188.5,-444 188.5,-444 188.5,-456 188.5,-456 188.5,-462 182.5,-468 176.5,-468"/>
<text text-anchor="middle" x="158" y="-447.5" font-family="sans" font-size="10.00" fill="#000000">align_filter</text>
</g>
<!-- 13&#45;&gt;12 -->
<g id="edge19" class="edge">
<title>13&#45;&gt;12</title>
<path fill="none" stroke="#c0c0c0" stroke-width="2" d="M158.5047,-431.8314C158.7186,-424.131 158.9729,-414.9743 159.2106,-406.4166"/>
<polygon fill="#c0c0c0" stroke="#c0c0c0" stroke-width="2" points="162.7094,-406.5066 159.4885,-396.4133 155.7121,-406.3122 162.7094,-406.5066"/>
</g>
<!-- 14 -->
<g id="node15" class="node">
<title>14</title>
<path fill="none" stroke="#d89c56" stroke-width="2" d="M184.5,-540C184.5,-540 129.5,-540 129.5,-540 123.5,-540 117.5,-534 117.5,-528 117.5,-528 117.5,-516 117.5,-516 117.5,-510 123.5,-504 129.5,-504 129.5,-504 184.5,-504 184.5,-504 190.5,-504 196.5,-510 196.5,-516 196.5,-516 196.5,-528 196.5,-528 196.5,-534 190.5,-540 184.5,-540"/>
<text text-anchor="middle" x="157" y="-519.5" font-family="sans" font-size="10.00" fill="#000000">align_reassign</text>
</g>
<!-- 14&#45;&gt;13 -->
<g id="edge20" class="edge">
<title>14&#45;&gt;13</title>
<path fill="none" stroke="#c0c0c0" stroke-width="2" d="M157.2523,-503.8314C157.3593,-496.131 157.4865,-486.9743 157.6053,-478.4166"/>
<polygon fill="#c0c0c0" stroke="#c0c0c0" stroke-width="2" points="161.1049,-478.4609 157.7443,-468.4133 154.1056,-478.3637 161.1049,-478.4609"/>
</g>
<!-- 15&#45;&gt;14 -->
<g id="edge21" class="edge">
<title>15&#45;&gt;14</title>
<path fill="none" stroke="#c0c0c0" stroke-width="2" d="M148.7758,-575.8314C149.9522,-568.131 151.3511,-558.9743 152.6586,-550.4166"/>
<polygon fill="#c0c0c0" stroke="#c0c0c0" stroke-width="2" points="156.1364,-550.8272 154.1869,-540.4133 149.2167,-549.7699 156.1364,-550.8272"/>
</g>
<!-- 16&#45;&gt;0 -->
<g id="edge2" class="edge">
<title>16&#45;&gt;0</title>
<path fill="none" stroke="#c0c0c0" stroke-width="2" d="M173.599,-143.7623C183.9231,-118.9846 202.4703,-74.4714 214.5025,-45.5939"/>
<polygon fill="#c0c0c0" stroke="#c0c0c0" stroke-width="2" points="217.8472,-46.6666 218.4627,-36.0896 211.3857,-43.9742 217.8472,-46.6666"/>
</g>
<!-- 16&#45;&gt;1 -->
<g id="edge8" class="edge">
<title>16&#45;&gt;1</title>
<path fill="none" stroke="#c0c0c0" stroke-width="2" d="M145.5603,-143.8314C135.6795,-135.0485 123.6676,-124.3712 112.955,-114.8489"/>
<polygon fill="#c0c0c0" stroke="#c0c0c0" stroke-width="2" points="115.2326,-112.1906 105.4332,-108.1628 110.582,-117.4224 115.2326,-112.1906"/>
</g>
<!-- 17&#45;&gt;0 -->
<g id="edge3" class="edge">
<title>17&#45;&gt;0</title>
<path fill="none" stroke="#c0c0c0" stroke-width="2" d="M309.7296,-791.9053C315.0019,-764.7046 324,-711.6021 324,-666 324,-666 324,-666 324,-162 324,-113.6274 285.7374,-69.4833 257.0288,-43.1696"/>
<polygon fill="#c0c0c0" stroke="#c0c0c0" stroke-width="2" points="259.0239,-40.2601 249.2246,-36.2319 254.3731,-45.4918 259.0239,-40.2601"/>
</g>
<!-- 18&#45;&gt;0 -->
<g id="edge4" class="edge">
<title>18&#45;&gt;0</title>
<path fill="none" stroke="#c0c0c0" stroke-width="2" d="M245.2457,-215.9555C241.5861,-178.3144 233.1154,-91.1867 228.7343,-46.1246"/>
<polygon fill="#c0c0c0" stroke="#c0c0c0" stroke-width="2" points="232.2154,-45.7594 227.7641,-36.1451 225.2483,-46.4369 232.2154,-45.7594"/>
</g>
</g>
</svg>
