<?xml version="1.0" encoding="UTF-8" standalone="no"?>
<!DOCTYPE svg PUBLIC "-//W3C//DTD SVG 1.1//EN"
 "http://www.w3.org/Graphics/SVG/1.1/DTD/svg11.dtd">
<!-- Generated by graphviz version 2.40.1 (0)
 -->
<!-- Title: snakemake_dag Pages: 1 -->
<svg width="2013pt" height="1173pt"
 viewBox="0.00 0.00 2013.00 1173.00" xmlns="http://www.w3.org/2000/svg" xmlns:xlink="http://www.w3.org/1999/xlink">
<g id="graph0" class="graph" transform="scale(1 1) rotate(0) translate(4 1169)">
<title>snakemake_dag</title>
<polygon fill="#ffffff" stroke="transparent" points="-4,4 -4,-1169 2009,-1169 2009,4 -4,4"/>
<!-- 0 -->
<g id="node1" class="node">
<title>0</title>
<path fill="none" stroke="#b6d856" stroke-width="2" d="M1302.5,-36C1302.5,-36 1272.5,-36 1272.5,-36 1266.5,-36 1260.5,-30 1260.5,-24 1260.5,-24 1260.5,-12 1260.5,-12 1260.5,-6 1266.5,0 1272.5,0 1272.5,0 1302.5,0 1302.5,0 1308.5,0 1314.5,-6 1314.5,-12 1314.5,-12 1314.5,-24 1314.5,-24 1314.5,-30 1308.5,-36 1302.5,-36"/>
<text text-anchor="middle" x="1287.5" y="-15.5" font-family="sans" font-size="10.00" fill="#000000">all</text>
</g>
<!-- 1 -->
<g id="node2" class="node">
<title>1</title>
<path fill="none" stroke="#56d8b1" stroke-width="2" d="M1156.5,-108C1156.5,-108 1126.5,-108 1126.5,-108 1120.5,-108 1114.5,-102 1114.5,-96 1114.5,-96 1114.5,-84 1114.5,-84 1114.5,-78 1120.5,-72 1126.5,-72 1126.5,-72 1156.5,-72 1156.5,-72 1162.5,-72 1168.5,-78 1168.5,-84 1168.5,-84 1168.5,-96 1168.5,-96 1168.5,-102 1162.5,-108 1156.5,-108"/>
<text text-anchor="middle" x="1141.5" y="-87.5" font-family="sans" font-size="10.00" fill="#000000">multiqc</text>
</g>
<!-- 1&#45;&gt;0 -->
<g id="edge1" class="edge">
<title>1&#45;&gt;0</title>
<path fill="none" stroke="#c0c0c0" stroke-width="2" d="M1168.6193,-76.6261C1191.8281,-65.1807 1225.4418,-48.604 1251.0092,-35.9955"/>
<polygon fill="#c0c0c0" stroke="#c0c0c0" stroke-width="2" points="1252.6098,-39.1086 1260.0305,-31.5466 1249.5137,-32.8305 1252.6098,-39.1086"/>
</g>
<!-- 2 -->
<g id="node3" class="node">
<title>2</title>
<path fill="none" stroke="#9fd856" stroke-width="2" d="M477,-1165C477,-1165 370,-1165 370,-1165 364,-1165 358,-1159 358,-1153 358,-1153 358,-1092 358,-1092 358,-1086 364,-1080 370,-1080 370,-1080 477,-1080 477,-1080 483,-1080 489,-1086 489,-1092 489,-1092 489,-1153 489,-1153 489,-1159 483,-1165 477,-1165"/>
<text text-anchor="middle" x="423.5" y="-1153" font-family="sans" font-size="10.00" fill="#000000">bowtie2</text>
<text text-anchor="middle" x="423.5" y="-1142" font-family="sans" font-size="10.00" fill="#000000">library: lib1</text>
<text text-anchor="middle" x="423.5" y="-1131" font-family="sans" font-size="10.00" fill="#000000">n_shard: 1</text>
<text text-anchor="middle" x="423.5" y="-1120" font-family="sans" font-size="10.00" fill="#000000">read_type_map: collapsed</text>
<text text-anchor="middle" x="423.5" y="-1109" font-family="sans" font-size="10.00" fill="#000000">ref: wgs_eukaryota</text>
<text text-anchor="middle" x="423.5" y="-1098" font-family="sans" font-size="10.00" fill="#000000">sample: HD827sonic_2</text>
<text text-anchor="middle" x="423.5" y="-1087" font-family="sans" font-size="10.00" fill="#000000">tot_shards: 2</text>
</g>
<!-- 2&#45;&gt;1 -->
<g id="edge11" class="edge">
<title>2&#45;&gt;1</title>
<path fill="none" stroke="#c0c0c0" stroke-width="2" d="M489.0536,-1084.6691C518.4234,-1067.3976 547.7787,-1049.5565 553.5,-1044 587.6368,-1010.8463 611.5,-1001.5867 611.5,-954 611.5,-954 611.5,-954 611.5,-306 611.5,-218.7201 644.7262,-183.6109 722.5,-144 788.993,-110.1345 1014.4942,-95.9887 1104.224,-91.6098"/>
<polygon fill="#c0c0c0" stroke="#c0c0c0" stroke-width="2" points="1104.6509,-95.0936 1114.4738,-91.1236 1104.3191,-88.1015 1104.6509,-95.0936"/>
</g>
<!-- 34 -->
<g id="node35" class="node">
<title>34</title>
<path fill="none" stroke="#56c9d8" stroke-width="2" d="M383,-1044C383,-1044 314,-1044 314,-1044 308,-1044 302,-1038 302,-1032 302,-1032 302,-1020 302,-1020 302,-1014 308,-1008 314,-1008 314,-1008 383,-1008 383,-1008 389,-1008 395,-1014 395,-1020 395,-1020 395,-1032 395,-1032 395,-1038 389,-1044 383,-1044"/>
<text text-anchor="middle" x="348.5" y="-1023.5" font-family="sans" font-size="10.00" fill="#000000">shard_count_alns</text>
</g>
<!-- 2&#45;&gt;34 -->
<g id="edge64" class="edge">
<title>2&#45;&gt;34</title>
<path fill="none" stroke="#c0c0c0" stroke-width="2" d="M390.3856,-1079.8928C383.0867,-1070.5016 375.5632,-1060.8213 368.9414,-1052.3013"/>
<polygon fill="#c0c0c0" stroke="#c0c0c0" stroke-width="2" points="371.5621,-1049.9697 362.662,-1044.2218 366.0351,-1054.2653 371.5621,-1049.9697"/>
</g>
<!-- 40 -->
<g id="node41" class="node">
<title>40</title>
<path fill="none" stroke="#5682d8" stroke-width="2" d="M362,-900C362,-900 233,-900 233,-900 227,-900 221,-894 221,-888 221,-888 221,-876 221,-876 221,-870 227,-864 233,-864 233,-864 362,-864 362,-864 368,-864 374,-870 374,-876 374,-876 374,-888 374,-888 374,-894 368,-900 362,-900"/>
<text text-anchor="middle" x="297.5" y="-879.5" font-family="sans" font-size="10.00" fill="#000000">shard_saturated_reads_remove</text>
</g>
<!-- 2&#45;&gt;40 -->
<g id="edge71" class="edge">
<title>2&#45;&gt;40</title>
<path fill="none" stroke="#c0c0c0" stroke-width="2" d="M421.6592,-1079.6276C417.8519,-1038.7276 406.5526,-977.3857 373.5,-936 364.2341,-924.398 351.85,-914.1769 339.7722,-905.8369"/>
<polygon fill="#c0c0c0" stroke="#c0c0c0" stroke-width="2" points="341.3555,-902.6885 331.0808,-900.1037 337.501,-908.5317 341.3555,-902.6885"/>
</g>
<!-- 3 -->
<g id="node4" class="node">
<title>3</title>
<path fill="none" stroke="#9fd856" stroke-width="2" d="M1429,-1165C1429,-1165 1322,-1165 1322,-1165 1316,-1165 1310,-1159 1310,-1153 1310,-1153 1310,-1092 1310,-1092 1310,-1086 1316,-1080 1322,-1080 1322,-1080 1429,-1080 1429,-1080 1435,-1080 1441,-1086 1441,-1092 1441,-1092 1441,-1153 1441,-1153 1441,-1159 1435,-1165 1429,-1165"/>
<text text-anchor="middle" x="1375.5" y="-1153" font-family="sans" font-size="10.00" fill="#000000">bowtie2</text>
<text text-anchor="middle" x="1375.5" y="-1142" font-family="sans" font-size="10.00" fill="#000000">library: lib2</text>
<text text-anchor="middle" x="1375.5" y="-1131" font-family="sans" font-size="10.00" fill="#000000">n_shard: 1</text>
<text text-anchor="middle" x="1375.5" y="-1120" font-family="sans" font-size="10.00" fill="#000000">read_type_map: collapsed</text>
<text text-anchor="middle" x="1375.5" y="-1109" font-family="sans" font-size="10.00" fill="#000000">ref: refseq_mitochondrion</text>
<text text-anchor="middle" x="1375.5" y="-1098" font-family="sans" font-size="10.00" fill="#000000">sample: HD827sonic_2</text>
<text text-anchor="middle" x="1375.5" y="-1087" font-family="sans" font-size="10.00" fill="#000000">tot_shards: 1</text>
</g>
<!-- 3&#45;&gt;1 -->
<g id="edge12" class="edge">
<title>3&#45;&gt;1</title>
<path fill="none" stroke="#c0c0c0" stroke-width="2" d="M1367.2002,-1079.7442C1361.3304,-1045.7936 1354.5,-997.0405 1354.5,-954 1354.5,-954 1354.5,-954 1354.5,-882 1354.5,-849.2433 1228.5,-338.7567 1228.5,-306 1228.5,-306 1228.5,-306 1228.5,-234 1228.5,-187.2117 1194.4359,-142.5954 1168.9378,-115.7524"/>
<polygon fill="#c0c0c0" stroke="#c0c0c0" stroke-width="2" points="1171.1751,-113.0346 1161.6782,-108.3378 1166.1733,-117.9318 1171.1751,-113.0346"/>
</g>
<!-- 45 -->
<g id="node46" class="node">
<title>45</title>
<path fill="none" stroke="#5682d8" stroke-width="2" d="M1600,-900C1600,-900 1471,-900 1471,-900 1465,-900 1459,-894 1459,-888 1459,-888 1459,-876 1459,-876 1459,-870 1465,-864 1471,-864 1471,-864 1600,-864 1600,-864 1606,-864 1612,-870 1612,-876 1612,-876 1612,-888 1612,-888 1612,-894 1606,-900 1600,-900"/>
<text text-anchor="middle" x="1535.5" y="-879.5" font-family="sans" font-size="10.00" fill="#000000">shard_saturated_reads_remove</text>
</g>
<!-- 3&#45;&gt;45 -->
<g id="edge79" class="edge">
<title>3&#45;&gt;45</title>
<path fill="none" stroke="#c0c0c0" stroke-width="2" d="M1400.4377,-1079.7718C1423.2745,-1041.3897 1458.5827,-983.8746 1492.5,-936 1499.1151,-926.6628 1506.7776,-916.7784 1513.7859,-908.0541"/>
<polygon fill="#c0c0c0" stroke="#c0c0c0" stroke-width="2" points="1516.6587,-910.0687 1520.2492,-900.1007 1511.2263,-905.654 1516.6587,-910.0687"/>
</g>
<!-- 48 -->
<g id="node49" class="node">
<title>48</title>
<path fill="none" stroke="#56c9d8" stroke-width="2" d="M1616,-1044C1616,-1044 1547,-1044 1547,-1044 1541,-1044 1535,-1038 1535,-1032 1535,-1032 1535,-1020 1535,-1020 1535,-1014 1541,-1008 1547,-1008 1547,-1008 1616,-1008 1616,-1008 1622,-1008 1628,-1014 1628,-1020 1628,-1020 1628,-1032 1628,-1032 1628,-1038 1622,-1044 1616,-1044"/>
<text text-anchor="middle" x="1581.5" y="-1023.5" font-family="sans" font-size="10.00" fill="#000000">shard_count_alns</text>
</g>
<!-- 3&#45;&gt;48 -->
<g id="edge85" class="edge">
<title>3&#45;&gt;48</title>
<path fill="none" stroke="#c0c0c0" stroke-width="2" d="M1441.102,-1084.7136C1444.2615,-1083.0869 1447.4054,-1081.5074 1450.5,-1080 1474.6024,-1068.2598 1501.9252,-1056.7289 1525.3581,-1047.3568"/>
<polygon fill="#c0c0c0" stroke="#c0c0c0" stroke-width="2" points="1526.7981,-1050.551 1534.8036,-1043.611 1524.2176,-1044.044 1526.7981,-1050.551"/>
</g>
<!-- 4 -->
<g id="node5" class="node">
<title>4</title>
<path fill="none" stroke="#9fd856" stroke-width="2" d="M1041,-1165C1041,-1165 934,-1165 934,-1165 928,-1165 922,-1159 922,-1153 922,-1153 922,-1092 922,-1092 922,-1086 928,-1080 934,-1080 934,-1080 1041,-1080 1041,-1080 1047,-1080 1053,-1086 1053,-1092 1053,-1092 1053,-1153 1053,-1153 1053,-1159 1047,-1165 1041,-1165"/>
<text text-anchor="middle" x="987.5" y="-1153" font-family="sans" font-size="10.00" fill="#000000">bowtie2</text>
<text text-anchor="middle" x="987.5" y="-1142" font-family="sans" font-size="10.00" fill="#000000">library: lib1</text>
<text text-anchor="middle" x="987.5" y="-1131" font-family="sans" font-size="10.00" fill="#000000">n_shard: 1</text>
<text text-anchor="middle" x="987.5" y="-1120" font-family="sans" font-size="10.00" fill="#000000">read_type_map: collapsed</text>
<text text-anchor="middle" x="987.5" y="-1109" font-family="sans" font-size="10.00" fill="#000000">ref: wgs_eukaryota</text>
<text text-anchor="middle" x="987.5" y="-1098" font-family="sans" font-size="10.00" fill="#000000">sample: HD827sonic_1</text>
<text text-anchor="middle" x="987.5" y="-1087" font-family="sans" font-size="10.00" fill="#000000">tot_shards: 2</text>
</g>
<!-- 4&#45;&gt;1 -->
<g id="edge13" class="edge">
<title>4&#45;&gt;1</title>
<path fill="none" stroke="#c0c0c0" stroke-width="2" d="M921.712,-1111.943C877.332,-1101.635 820.3572,-1081.7349 783.5,-1044 730.0637,-989.2912 725.5,-958.4754 725.5,-882 725.5,-882 725.5,-882 725.5,-378 725.5,-194.5632 1002.3161,-118.7561 1104.3312,-97.0472"/>
<polygon fill="#c0c0c0" stroke="#c0c0c0" stroke-width="2" points="1105.124,-100.4573 1114.2051,-94.9998 1103.7027,-93.6031 1105.124,-100.4573"/>
</g>
<!-- 19 -->
<g id="node20" class="node">
<title>19</title>
<path fill="none" stroke="#56c9d8" stroke-width="2" d="M1022,-1044C1022,-1044 953,-1044 953,-1044 947,-1044 941,-1038 941,-1032 941,-1032 941,-1020 941,-1020 941,-1014 947,-1008 953,-1008 953,-1008 1022,-1008 1022,-1008 1028,-1008 1034,-1014 1034,-1020 1034,-1020 1034,-1032 1034,-1032 1034,-1038 1028,-1044 1022,-1044"/>
<text text-anchor="middle" x="987.5" y="-1023.5" font-family="sans" font-size="10.00" fill="#000000">shard_count_alns</text>
</g>
<!-- 4&#45;&gt;19 -->
<g id="edge42" class="edge">
<title>4&#45;&gt;19</title>
<path fill="none" stroke="#c0c0c0" stroke-width="2" d="M987.5,-1079.8928C987.5,-1071.2842 987.5,-1062.4327 987.5,-1054.4546"/>
<polygon fill="#c0c0c0" stroke="#c0c0c0" stroke-width="2" points="991.0001,-1054.2218 987.5,-1044.2218 984.0001,-1054.2218 991.0001,-1054.2218"/>
</g>
<!-- 25 -->
<g id="node26" class="node">
<title>25</title>
<path fill="none" stroke="#5682d8" stroke-width="2" d="M1143,-900C1143,-900 1014,-900 1014,-900 1008,-900 1002,-894 1002,-888 1002,-888 1002,-876 1002,-876 1002,-870 1008,-864 1014,-864 1014,-864 1143,-864 1143,-864 1149,-864 1155,-870 1155,-876 1155,-876 1155,-888 1155,-888 1155,-894 1149,-900 1143,-900"/>
<text text-anchor="middle" x="1078.5" y="-879.5" font-family="sans" font-size="10.00" fill="#000000">shard_saturated_reads_remove</text>
</g>
<!-- 4&#45;&gt;25 -->
<g id="edge49" class="edge">
<title>4&#45;&gt;25</title>
<path fill="none" stroke="#c0c0c0" stroke-width="2" d="M1022.5431,-1079.9904C1030.3983,-1068.8153 1038.0177,-1056.4024 1043.5,-1044 1063.0448,-999.7847 1072.0105,-943.8306 1075.8648,-910.5893"/>
<polygon fill="#c0c0c0" stroke="#c0c0c0" stroke-width="2" points="1079.3888,-910.5549 1076.9838,-900.2367 1072.4294,-909.8026 1079.3888,-910.5549"/>
</g>
<!-- 5 -->
<g id="node6" class="node">
<title>5</title>
<path fill="none" stroke="#9fd856" stroke-width="2" d="M779,-1165C779,-1165 672,-1165 672,-1165 666,-1165 660,-1159 660,-1153 660,-1153 660,-1092 660,-1092 660,-1086 666,-1080 672,-1080 672,-1080 779,-1080 779,-1080 785,-1080 791,-1086 791,-1092 791,-1092 791,-1153 791,-1153 791,-1159 785,-1165 779,-1165"/>
<text text-anchor="middle" x="725.5" y="-1153" font-family="sans" font-size="10.00" fill="#000000">bowtie2</text>
<text text-anchor="middle" x="725.5" y="-1142" font-family="sans" font-size="10.00" fill="#000000">library: lib1</text>
<text text-anchor="middle" x="725.5" y="-1131" font-family="sans" font-size="10.00" fill="#000000">n_shard: 1</text>
<text text-anchor="middle" x="725.5" y="-1120" font-family="sans" font-size="10.00" fill="#000000">read_type_map: collapsed</text>
<text text-anchor="middle" x="725.5" y="-1109" font-family="sans" font-size="10.00" fill="#000000">ref: refseq_mitochondrion</text>
<text text-anchor="middle" x="725.5" y="-1098" font-family="sans" font-size="10.00" fill="#000000">sample: HD827sonic_1</text>
<text text-anchor="middle" x="725.5" y="-1087" font-family="sans" font-size="10.00" fill="#000000">tot_shards: 1</text>
</g>
<!-- 5&#45;&gt;1 -->
<g id="edge14" class="edge">
<title>5&#45;&gt;1</title>
<path fill="none" stroke="#c0c0c0" stroke-width="2" d="M710.3722,-1079.8083C699.7752,-1046.0983 687.5,-997.6328 687.5,-954 687.5,-954 687.5,-954 687.5,-378 687.5,-246.7902 748.0548,-198.3032 867.5,-144 946.7401,-107.9752 1049.5958,-95.9204 1103.9728,-91.9331"/>
<polygon fill="#c0c0c0" stroke="#c0c0c0" stroke-width="2" points="1104.4412,-95.4094 1114.1805,-91.2385 1103.9659,-88.4256 1104.4412,-95.4094"/>
</g>
<!-- 15 -->
<g id="node16" class="node">
<title>15</title>
<path fill="none" stroke="#5682d8" stroke-width="2" d="M933,-900C933,-900 804,-900 804,-900 798,-900 792,-894 792,-888 792,-888 792,-876 792,-876 792,-870 798,-864 804,-864 804,-864 933,-864 933,-864 939,-864 945,-870 945,-876 945,-876 945,-888 945,-888 945,-894 939,-900 933,-900"/>
<text text-anchor="middle" x="868.5" y="-879.5" font-family="sans" font-size="10.00" fill="#000000">shard_saturated_reads_remove</text>
</g>
<!-- 5&#45;&gt;15 -->
<g id="edge35" class="edge">
<title>5&#45;&gt;15</title>
<path fill="none" stroke="#c0c0c0" stroke-width="2" d="M750.9008,-1079.7805C780.2993,-1030.3376 827.8239,-950.4097 852.4919,-908.9227"/>
<polygon fill="#c0c0c0" stroke="#c0c0c0" stroke-width="2" points="855.5765,-910.5832 857.6789,-900.1991 849.5597,-907.0057 855.5765,-910.5832"/>
</g>
<!-- 18 -->
<g id="node19" class="node">
<title>18</title>
<path fill="none" stroke="#56c9d8" stroke-width="2" d="M911,-1044C911,-1044 842,-1044 842,-1044 836,-1044 830,-1038 830,-1032 830,-1032 830,-1020 830,-1020 830,-1014 836,-1008 842,-1008 842,-1008 911,-1008 911,-1008 917,-1008 923,-1014 923,-1020 923,-1020 923,-1032 923,-1032 923,-1038 917,-1044 911,-1044"/>
<text text-anchor="middle" x="876.5" y="-1023.5" font-family="sans" font-size="10.00" fill="#000000">shard_count_alns</text>
</g>
<!-- 5&#45;&gt;18 -->
<g id="edge41" class="edge">
<title>5&#45;&gt;18</title>
<path fill="none" stroke="#c0c0c0" stroke-width="2" d="M791.2915,-1080.4544C807.7454,-1069.9392 824.8248,-1059.0242 839.3336,-1049.752"/>
<polygon fill="#c0c0c0" stroke="#c0c0c0" stroke-width="2" points="841.4651,-1052.5436 848.0066,-1044.2094 837.6955,-1046.6452 841.4651,-1052.5436"/>
</g>
<!-- 6 -->
<g id="node7" class="node">
<title>6</title>
<path fill="none" stroke="#9fd856" stroke-width="2" d="M1857,-1165C1857,-1165 1750,-1165 1750,-1165 1744,-1165 1738,-1159 1738,-1153 1738,-1153 1738,-1092 1738,-1092 1738,-1086 1744,-1080 1750,-1080 1750,-1080 1857,-1080 1857,-1080 1863,-1080 1869,-1086 1869,-1092 1869,-1092 1869,-1153 1869,-1153 1869,-1159 1863,-1165 1857,-1165"/>
<text text-anchor="middle" x="1803.5" y="-1153" font-family="sans" font-size="10.00" fill="#000000">bowtie2</text>
<text text-anchor="middle" x="1803.5" y="-1142" font-family="sans" font-size="10.00" fill="#000000">library: lib2</text>
<text text-anchor="middle" x="1803.5" y="-1131" font-family="sans" font-size="10.00" fill="#000000">n_shard: 1</text>
<text text-anchor="middle" x="1803.5" y="-1120" font-family="sans" font-size="10.00" fill="#000000">read_type_map: collapsed</text>
<text text-anchor="middle" x="1803.5" y="-1109" font-family="sans" font-size="10.00" fill="#000000">ref: wgs_eukaryota</text>
<text text-anchor="middle" x="1803.5" y="-1098" font-family="sans" font-size="10.00" fill="#000000">sample: HD827sonic_2</text>
<text text-anchor="middle" x="1803.5" y="-1087" font-family="sans" font-size="10.00" fill="#000000">tot_shards: 2</text>
</g>
<!-- 6&#45;&gt;1 -->
<g id="edge15" class="edge">
<title>6&#45;&gt;1</title>
<path fill="none" stroke="#c0c0c0" stroke-width="2" d="M1737.7813,-1110.0919C1666.6079,-1095.5924 1558.8874,-1070.226 1526.5,-1044 1439.1385,-973.2582 1430.5,-922.4119 1430.5,-810 1430.5,-810 1430.5,-810 1430.5,-522 1430.5,-401.1679 1326.4196,-165.1483 1304.5,-144 1270.2315,-110.9373 1215.2679,-98.1106 1178.7762,-93.1392"/>
<polygon fill="#c0c0c0" stroke="#c0c0c0" stroke-width="2" points="1178.899,-89.6281 1168.5473,-91.8847 1178.0468,-96.576 1178.899,-89.6281"/>
</g>
<!-- 49 -->
<g id="node50" class="node">
<title>49</title>
<path fill="none" stroke="#56c9d8" stroke-width="2" d="M1838,-1044C1838,-1044 1769,-1044 1769,-1044 1763,-1044 1757,-1038 1757,-1032 1757,-1032 1757,-1020 1757,-1020 1757,-1014 1763,-1008 1769,-1008 1769,-1008 1838,-1008 1838,-1008 1844,-1008 1850,-1014 1850,-1020 1850,-1020 1850,-1032 1850,-1032 1850,-1038 1844,-1044 1838,-1044"/>
<text text-anchor="middle" x="1803.5" y="-1023.5" font-family="sans" font-size="10.00" fill="#000000">shard_count_alns</text>
</g>
<!-- 6&#45;&gt;49 -->
<g id="edge86" class="edge">
<title>6&#45;&gt;49</title>
<path fill="none" stroke="#c0c0c0" stroke-width="2" d="M1803.5,-1079.8928C1803.5,-1071.2842 1803.5,-1062.4327 1803.5,-1054.4546"/>
<polygon fill="#c0c0c0" stroke="#c0c0c0" stroke-width="2" points="1807.0001,-1054.2218 1803.5,-1044.2218 1800.0001,-1054.2218 1807.0001,-1054.2218"/>
</g>
<!-- 55 -->
<g id="node56" class="node">
<title>55</title>
<path fill="none" stroke="#5682d8" stroke-width="2" d="M1942,-900C1942,-900 1813,-900 1813,-900 1807,-900 1801,-894 1801,-888 1801,-888 1801,-876 1801,-876 1801,-870 1807,-864 1813,-864 1813,-864 1942,-864 1942,-864 1948,-864 1954,-870 1954,-876 1954,-876 1954,-888 1954,-888 1954,-894 1948,-900 1942,-900"/>
<text text-anchor="middle" x="1877.5" y="-879.5" font-family="sans" font-size="10.00" fill="#000000">shard_saturated_reads_remove</text>
</g>
<!-- 6&#45;&gt;55 -->
<g id="edge93" class="edge">
<title>6&#45;&gt;55</title>
<path fill="none" stroke="#c0c0c0" stroke-width="2" d="M1839.7304,-1079.9452C1847.4554,-1068.8669 1854.7176,-1056.5097 1859.5,-1044 1876.4772,-999.5915 1878.9235,-943.6978 1878.5994,-910.5209"/>
<polygon fill="#c0c0c0" stroke="#c0c0c0" stroke-width="2" points="1882.0924,-910.1205 1878.4003,-900.1898 1875.0937,-910.2555 1882.0924,-910.1205"/>
</g>
<!-- 7 -->
<g id="node8" class="node">
<title>7</title>
<path fill="none" stroke="#9fd856" stroke-width="2" d="M252,-1165C252,-1165 145,-1165 145,-1165 139,-1165 133,-1159 133,-1153 133,-1153 133,-1092 133,-1092 133,-1086 139,-1080 145,-1080 145,-1080 252,-1080 252,-1080 258,-1080 264,-1086 264,-1092 264,-1092 264,-1153 264,-1153 264,-1159 258,-1165 252,-1165"/>
<text text-anchor="middle" x="198.5" y="-1153" font-family="sans" font-size="10.00" fill="#000000">bowtie2</text>
<text text-anchor="middle" x="198.5" y="-1142" font-family="sans" font-size="10.00" fill="#000000">library: lib1</text>
<text text-anchor="middle" x="198.5" y="-1131" font-family="sans" font-size="10.00" fill="#000000">n_shard: 2</text>
<text text-anchor="middle" x="198.5" y="-1120" font-family="sans" font-size="10.00" fill="#000000">read_type_map: collapsed</text>
<text text-anchor="middle" x="198.5" y="-1109" font-family="sans" font-size="10.00" fill="#000000">ref: wgs_eukaryota</text>
<text text-anchor="middle" x="198.5" y="-1098" font-family="sans" font-size="10.00" fill="#000000">sample: HD827sonic_2</text>
<text text-anchor="middle" x="198.5" y="-1087" font-family="sans" font-size="10.00" fill="#000000">tot_shards: 2</text>
</g>
<!-- 7&#45;&gt;1 -->
<g id="edge16" class="edge">
<title>7&#45;&gt;1</title>
<path fill="none" stroke="#c0c0c0" stroke-width="2" d="M225.6646,-1079.9529C242.5528,-1056.2288 266.0528,-1027.6038 292.5,-1008 342.9267,-970.6216 513.1319,-948.0668 553.5,-900 579.8522,-868.6221 573.5,-850.9758 573.5,-810 573.5,-810 573.5,-810 573.5,-234 573.5,-178.3663 610.5772,-168.5524 660.5,-144 738.6203,-105.5799 1005.3811,-93.9776 1104.2446,-90.9503"/>
<polygon fill="#c0c0c0" stroke="#c0c0c0" stroke-width="2" points="1104.4728,-94.4452 1114.3655,-90.6527 1104.2669,-87.4482 1104.4728,-94.4452"/>
</g>
<!-- 32 -->
<g id="node33" class="node">
<title>32</title>
<path fill="none" stroke="#56c9d8" stroke-width="2" d="M233,-1044C233,-1044 164,-1044 164,-1044 158,-1044 152,-1038 152,-1032 152,-1032 152,-1020 152,-1020 152,-1014 158,-1008 164,-1008 164,-1008 233,-1008 233,-1008 239,-1008 245,-1014 245,-1020 245,-1020 245,-1032 245,-1032 245,-1038 239,-1044 233,-1044"/>
<text text-anchor="middle" x="198.5" y="-1023.5" font-family="sans" font-size="10.00" fill="#000000">shard_count_alns</text>
</g>
<!-- 7&#45;&gt;32 -->
<g id="edge62" class="edge">
<title>7&#45;&gt;32</title>
<path fill="none" stroke="#c0c0c0" stroke-width="2" d="M198.5,-1079.8928C198.5,-1071.2842 198.5,-1062.4327 198.5,-1054.4546"/>
<polygon fill="#c0c0c0" stroke="#c0c0c0" stroke-width="2" points="202.0001,-1054.2218 198.5,-1044.2218 195.0001,-1054.2218 202.0001,-1054.2218"/>
</g>
<!-- 37 -->
<g id="node38" class="node">
<title>37</title>
<path fill="none" stroke="#5682d8" stroke-width="2" d="M141,-900C141,-900 12,-900 12,-900 6,-900 0,-894 0,-888 0,-888 0,-876 0,-876 0,-870 6,-864 12,-864 12,-864 141,-864 141,-864 147,-864 153,-870 153,-876 153,-876 153,-888 153,-888 153,-894 147,-900 141,-900"/>
<text text-anchor="middle" x="76.5" y="-879.5" font-family="sans" font-size="10.00" fill="#000000">shard_saturated_reads_remove</text>
</g>
<!-- 7&#45;&gt;37 -->
<g id="edge67" class="edge">
<title>7&#45;&gt;37</title>
<path fill="none" stroke="#c0c0c0" stroke-width="2" d="M165.2317,-1079.6691C157.2454,-1068.4013 149.1206,-1056.0255 142.5,-1044 117.7853,-999.1086 96.977,-943.014 85.6629,-909.9884"/>
<polygon fill="#c0c0c0" stroke="#c0c0c0" stroke-width="2" points="88.8458,-908.4743 82.3302,-900.1198 82.2138,-910.714 88.8458,-908.4743"/>
</g>
<!-- 8 -->
<g id="node9" class="node">
<title>8</title>
<path fill="none" stroke="#9fd856" stroke-width="2" d="M1578,-1165C1578,-1165 1471,-1165 1471,-1165 1465,-1165 1459,-1159 1459,-1153 1459,-1153 1459,-1092 1459,-1092 1459,-1086 1465,-1080 1471,-1080 1471,-1080 1578,-1080 1578,-1080 1584,-1080 1590,-1086 1590,-1092 1590,-1092 1590,-1153 1590,-1153 1590,-1159 1584,-1165 1578,-1165"/>
<text text-anchor="middle" x="1524.5" y="-1153" font-family="sans" font-size="10.00" fill="#000000">bowtie2</text>
<text text-anchor="middle" x="1524.5" y="-1142" font-family="sans" font-size="10.00" fill="#000000">library: lib2</text>
<text text-anchor="middle" x="1524.5" y="-1131" font-family="sans" font-size="10.00" fill="#000000">n_shard: 2</text>
<text text-anchor="middle" x="1524.5" y="-1120" font-family="sans" font-size="10.00" fill="#000000">read_type_map: collapsed</text>
<text text-anchor="middle" x="1524.5" y="-1109" font-family="sans" font-size="10.00" fill="#000000">ref: wgs_eukaryota</text>
<text text-anchor="middle" x="1524.5" y="-1098" font-family="sans" font-size="10.00" fill="#000000">sample: HD827sonic_2</text>
<text text-anchor="middle" x="1524.5" y="-1087" font-family="sans" font-size="10.00" fill="#000000">tot_shards: 2</text>
</g>
<!-- 8&#45;&gt;1 -->
<g id="edge17" class="edge">
<title>8&#45;&gt;1</title>
<path fill="none" stroke="#c0c0c0" stroke-width="2" d="M1479.8139,-1079.618C1470.3742,-1068.7342 1461.2421,-1056.5459 1454.5,-1044 1423.1671,-985.6949 1433.0477,-964.0891 1416.5,-900 1382.464,-768.1794 1266.5,-442.1437 1266.5,-306 1266.5,-306 1266.5,-306 1266.5,-234 1266.5,-179.1399 1214.1215,-134.9642 1177.1762,-110.6284"/>
<polygon fill="#c0c0c0" stroke="#c0c0c0" stroke-width="2" points="1178.9342,-107.5982 1168.6231,-105.1627 1175.1649,-113.4967 1178.9342,-107.5982"/>
</g>
<!-- 47 -->
<g id="node48" class="node">
<title>47</title>
<path fill="none" stroke="#56c9d8" stroke-width="2" d="M1727,-1044C1727,-1044 1658,-1044 1658,-1044 1652,-1044 1646,-1038 1646,-1032 1646,-1032 1646,-1020 1646,-1020 1646,-1014 1652,-1008 1658,-1008 1658,-1008 1727,-1008 1727,-1008 1733,-1008 1739,-1014 1739,-1020 1739,-1020 1739,-1032 1739,-1032 1739,-1038 1733,-1044 1727,-1044"/>
<text text-anchor="middle" x="1692.5" y="-1023.5" font-family="sans" font-size="10.00" fill="#000000">shard_count_alns</text>
</g>
<!-- 8&#45;&gt;47 -->
<g id="edge84" class="edge">
<title>8&#45;&gt;47</title>
<path fill="none" stroke="#c0c0c0" stroke-width="2" d="M1590.4159,-1084.6376C1611.2716,-1072.658 1633.6887,-1059.7815 1652.1883,-1049.1552"/>
<polygon fill="#c0c0c0" stroke="#c0c0c0" stroke-width="2" points="1654.0033,-1052.149 1660.9313,-1044.1332 1650.5167,-1046.0791 1654.0033,-1052.149"/>
</g>
<!-- 52 -->
<g id="node53" class="node">
<title>52</title>
<path fill="none" stroke="#5682d8" stroke-width="2" d="M1771,-900C1771,-900 1642,-900 1642,-900 1636,-900 1630,-894 1630,-888 1630,-888 1630,-876 1630,-876 1630,-870 1636,-864 1642,-864 1642,-864 1771,-864 1771,-864 1777,-864 1783,-870 1783,-876 1783,-876 1783,-888 1783,-888 1783,-894 1777,-900 1771,-900"/>
<text text-anchor="middle" x="1706.5" y="-879.5" font-family="sans" font-size="10.00" fill="#000000">shard_saturated_reads_remove</text>
</g>
<!-- 8&#45;&gt;52 -->
<g id="edge89" class="edge">
<title>8&#45;&gt;52</title>
<path fill="none" stroke="#c0c0c0" stroke-width="2" d="M1516.3141,-1079.9284C1514.0935,-1057.3106 1514.9244,-1029.7665 1526.5,-1008 1552.7811,-958.5815 1608.0705,-924.4191 1650.4803,-904.2594"/>
<polygon fill="#c0c0c0" stroke="#c0c0c0" stroke-width="2" points="1651.9829,-907.4207 1659.5912,-900.0474 1649.0455,-901.0668 1651.9829,-907.4207"/>
</g>
<!-- 9 -->
<g id="node10" class="node">
<title>9</title>
<path fill="none" stroke="#9fd856" stroke-width="2" d="M1202,-1165C1202,-1165 1095,-1165 1095,-1165 1089,-1165 1083,-1159 1083,-1153 1083,-1153 1083,-1092 1083,-1092 1083,-1086 1089,-1080 1095,-1080 1095,-1080 1202,-1080 1202,-1080 1208,-1080 1214,-1086 1214,-1092 1214,-1092 1214,-1153 1214,-1153 1214,-1159 1208,-1165 1202,-1165"/>
<text text-anchor="middle" x="1148.5" y="-1153" font-family="sans" font-size="10.00" fill="#000000">bowtie2</text>
<text text-anchor="middle" x="1148.5" y="-1142" font-family="sans" font-size="10.00" fill="#000000">library: lib1</text>
<text text-anchor="middle" x="1148.5" y="-1131" font-family="sans" font-size="10.00" fill="#000000">n_shard: 2</text>
<text text-anchor="middle" x="1148.5" y="-1120" font-family="sans" font-size="10.00" fill="#000000">read_type_map: collapsed</text>
<text text-anchor="middle" x="1148.5" y="-1109" font-family="sans" font-size="10.00" fill="#000000">ref: wgs_eukaryota</text>
<text text-anchor="middle" x="1148.5" y="-1098" font-family="sans" font-size="10.00" fill="#000000">sample: HD827sonic_1</text>
<text text-anchor="middle" x="1148.5" y="-1087" font-family="sans" font-size="10.00" fill="#000000">tot_shards: 2</text>
</g>
<!-- 9&#45;&gt;1 -->
<g id="edge18" class="edge">
<title>9&#45;&gt;1</title>
<path fill="none" stroke="#c0c0c0" stroke-width="2" d="M1082.6791,-1087.4366C1075.9753,-1084.6371 1069.1754,-1082.0893 1062.5,-1080 958.7252,-1047.5195 904.3594,-1113.2228 820.5,-1044 761.6369,-995.4107 763.5,-958.3268 763.5,-882 763.5,-882 763.5,-882 763.5,-450 763.5,-262.6912 1009.8951,-143.1737 1104.8235,-104.0779"/>
<polygon fill="#c0c0c0" stroke="#c0c0c0" stroke-width="2" points="1106.3628,-107.2307 1114.3152,-100.23 1103.7328,-100.7435 1106.3628,-107.2307"/>
</g>
<!-- 17 -->
<g id="node18" class="node">
<title>17</title>
<path fill="none" stroke="#56c9d8" stroke-width="2" d="M1183,-1044C1183,-1044 1114,-1044 1114,-1044 1108,-1044 1102,-1038 1102,-1032 1102,-1032 1102,-1020 1102,-1020 1102,-1014 1108,-1008 1114,-1008 1114,-1008 1183,-1008 1183,-1008 1189,-1008 1195,-1014 1195,-1020 1195,-1020 1195,-1032 1195,-1032 1195,-1038 1189,-1044 1183,-1044"/>
<text text-anchor="middle" x="1148.5" y="-1023.5" font-family="sans" font-size="10.00" fill="#000000">shard_count_alns</text>
</g>
<!-- 9&#45;&gt;17 -->
<g id="edge40" class="edge">
<title>9&#45;&gt;17</title>
<path fill="none" stroke="#c0c0c0" stroke-width="2" d="M1148.5,-1079.8928C1148.5,-1071.2842 1148.5,-1062.4327 1148.5,-1054.4546"/>
<polygon fill="#c0c0c0" stroke="#c0c0c0" stroke-width="2" points="1152.0001,-1054.2218 1148.5,-1044.2218 1145.0001,-1054.2218 1152.0001,-1054.2218"/>
</g>
<!-- 22 -->
<g id="node23" class="node">
<title>22</title>
<path fill="none" stroke="#5682d8" stroke-width="2" d="M1314,-900C1314,-900 1185,-900 1185,-900 1179,-900 1173,-894 1173,-888 1173,-888 1173,-876 1173,-876 1173,-870 1179,-864 1185,-864 1185,-864 1314,-864 1314,-864 1320,-864 1326,-870 1326,-876 1326,-876 1326,-888 1326,-888 1326,-894 1320,-900 1314,-900"/>
<text text-anchor="middle" x="1249.5" y="-879.5" font-family="sans" font-size="10.00" fill="#000000">shard_saturated_reads_remove</text>
</g>
<!-- 9&#45;&gt;22 -->
<g id="edge45" class="edge">
<title>9&#45;&gt;22</title>
<path fill="none" stroke="#c0c0c0" stroke-width="2" d="M1183.0407,-1079.7595C1190.9084,-1068.5902 1198.6593,-1056.2378 1204.5,-1044 1225.7152,-999.5486 1238.5137,-943.3139 1244.7738,-910.1417"/>
<polygon fill="#c0c0c0" stroke="#c0c0c0" stroke-width="2" points="1248.2312,-910.6913 1246.579,-900.2261 1241.3444,-909.4375 1248.2312,-910.6913"/>
</g>
<!-- 10 -->
<g id="node11" class="node">
<title>10</title>
<path fill="none" stroke="#9fd856" stroke-width="2" d="M627,-1165C627,-1165 520,-1165 520,-1165 514,-1165 508,-1159 508,-1153 508,-1153 508,-1092 508,-1092 508,-1086 514,-1080 520,-1080 520,-1080 627,-1080 627,-1080 633,-1080 639,-1086 639,-1092 639,-1092 639,-1153 639,-1153 639,-1159 633,-1165 627,-1165"/>
<text text-anchor="middle" x="573.5" y="-1153" font-family="sans" font-size="10.00" fill="#000000">bowtie2</text>
<text text-anchor="middle" x="573.5" y="-1142" font-family="sans" font-size="10.00" fill="#000000">library: lib1</text>
<text text-anchor="middle" x="573.5" y="-1131" font-family="sans" font-size="10.00" fill="#000000">n_shard: 1</text>
<text text-anchor="middle" x="573.5" y="-1120" font-family="sans" font-size="10.00" fill="#000000">read_type_map: collapsed</text>
<text text-anchor="middle" x="573.5" y="-1109" font-family="sans" font-size="10.00" fill="#000000">ref: refseq_mitochondrion</text>
<text text-anchor="middle" x="573.5" y="-1098" font-family="sans" font-size="10.00" fill="#000000">sample: HD827sonic_2</text>
<text text-anchor="middle" x="573.5" y="-1087" font-family="sans" font-size="10.00" fill="#000000">tot_shards: 1</text>
</g>
<!-- 10&#45;&gt;1 -->
<g id="edge19" class="edge">
<title>10&#45;&gt;1</title>
<path fill="none" stroke="#c0c0c0" stroke-width="2" d="M605.2889,-1079.9446C612.6875,-1068.6715 619.9994,-1056.2243 625.5,-1044 642.4873,-1006.248 649.5,-995.3978 649.5,-954 649.5,-954 649.5,-954 649.5,-306 649.5,-208.7763 708.4503,-185.2273 796.5,-144 850.7079,-118.6184 1026.5524,-100.2644 1104.1361,-93.1978"/>
<polygon fill="#c0c0c0" stroke="#c0c0c0" stroke-width="2" points="1104.7613,-96.6559 1114.4085,-92.276 1104.1356,-89.6839 1104.7613,-96.6559"/>
</g>
<!-- 30 -->
<g id="node31" class="node">
<title>30</title>
<path fill="none" stroke="#5682d8" stroke-width="2" d="M533,-900C533,-900 404,-900 404,-900 398,-900 392,-894 392,-888 392,-888 392,-876 392,-876 392,-870 398,-864 404,-864 404,-864 533,-864 533,-864 539,-864 545,-870 545,-876 545,-876 545,-888 545,-888 545,-894 539,-900 533,-900"/>
<text text-anchor="middle" x="468.5" y="-879.5" font-family="sans" font-size="10.00" fill="#000000">shard_saturated_reads_remove</text>
</g>
<!-- 10&#45;&gt;30 -->
<g id="edge57" class="edge">
<title>10&#45;&gt;30</title>
<path fill="none" stroke="#c0c0c0" stroke-width="2" d="M570.3634,-1079.9957C567.6785,-1057.908 562.7048,-1030.8334 553.5,-1008 538.3203,-970.3454 510.6836,-932.4393 491.0466,-908.1855"/>
<polygon fill="#c0c0c0" stroke="#c0c0c0" stroke-width="2" points="493.5274,-905.6922 484.468,-900.1988 488.1243,-910.1427 493.5274,-905.6922"/>
</g>
<!-- 33 -->
<g id="node34" class="node">
<title>33</title>
<path fill="none" stroke="#56c9d8" stroke-width="2" d="M533,-1044C533,-1044 464,-1044 464,-1044 458,-1044 452,-1038 452,-1032 452,-1032 452,-1020 452,-1020 452,-1014 458,-1008 464,-1008 464,-1008 533,-1008 533,-1008 539,-1008 545,-1014 545,-1020 545,-1020 545,-1032 545,-1032 545,-1038 539,-1044 533,-1044"/>
<text text-anchor="middle" x="498.5" y="-1023.5" font-family="sans" font-size="10.00" fill="#000000">shard_count_alns</text>
</g>
<!-- 10&#45;&gt;33 -->
<g id="edge63" class="edge">
<title>10&#45;&gt;33</title>
<path fill="none" stroke="#c0c0c0" stroke-width="2" d="M540.3856,-1079.8928C533.0867,-1070.5016 525.5632,-1060.8213 518.9414,-1052.3013"/>
<polygon fill="#c0c0c0" stroke="#c0c0c0" stroke-width="2" points="521.5621,-1049.9697 512.662,-1044.2218 516.0351,-1054.2653 521.5621,-1049.9697"/>
</g>
<!-- 11 -->
<g id="node12" class="node">
<title>11</title>
<path fill="none" stroke="#ced856" stroke-width="2" d="M1161.5,-396C1161.5,-396 1121.5,-396 1121.5,-396 1115.5,-396 1109.5,-390 1109.5,-384 1109.5,-384 1109.5,-372 1109.5,-372 1109.5,-366 1115.5,-360 1121.5,-360 1121.5,-360 1161.5,-360 1161.5,-360 1167.5,-360 1173.5,-366 1173.5,-372 1173.5,-372 1173.5,-384 1173.5,-384 1173.5,-390 1167.5,-396 1161.5,-396"/>
<text text-anchor="middle" x="1141.5" y="-375.5" font-family="sans" font-size="10.00" fill="#000000">align_stats</text>
</g>
<!-- 11&#45;&gt;1 -->
<g id="edge20" class="edge">
<title>11&#45;&gt;1</title>
<path fill="none" stroke="#c0c0c0" stroke-width="2" d="M1141.5,-359.9843C1141.5,-311.2939 1141.5,-176.7961 1141.5,-118.0573"/>
<polygon fill="#c0c0c0" stroke="#c0c0c0" stroke-width="2" points="1145.0001,-118.0088 1141.5,-108.0089 1138.0001,-118.0089 1145.0001,-118.0088"/>
</g>
<!-- 12 -->
<g id="node13" class="node">
<title>12</title>
<path fill="none" stroke="#d88556" stroke-width="2" d="M1170,-684C1170,-684 1125,-684 1125,-684 1119,-684 1113,-678 1113,-672 1113,-672 1113,-660 1113,-660 1113,-654 1119,-648 1125,-648 1125,-648 1170,-648 1170,-648 1176,-648 1182,-654 1182,-660 1182,-660 1182,-672 1182,-672 1182,-678 1176,-684 1170,-684"/>
<text text-anchor="middle" x="1147.5" y="-663.5" font-family="sans" font-size="10.00" fill="#000000">align_merge</text>
</g>
<!-- 12&#45;&gt;11 -->
<g id="edge29" class="edge">
<title>12&#45;&gt;11</title>
<path fill="none" stroke="#c0c0c0" stroke-width="2" d="M1147.1247,-647.9843C1146.1103,-599.2939 1143.3083,-464.7961 1142.0845,-406.0573"/>
<polygon fill="#c0c0c0" stroke="#c0c0c0" stroke-width="2" points="1145.5828,-405.9338 1141.8752,-396.0089 1138.5843,-406.0796 1145.5828,-405.9338"/>
</g>
<!-- 61 -->
<g id="node62" class="node">
<title>61</title>
<path fill="none" stroke="#d8b456" stroke-width="2" d="M1245.5,-612C1245.5,-612 1181.5,-612 1181.5,-612 1175.5,-612 1169.5,-606 1169.5,-600 1169.5,-600 1169.5,-588 1169.5,-588 1169.5,-582 1175.5,-576 1181.5,-576 1181.5,-576 1245.5,-576 1245.5,-576 1251.5,-576 1257.5,-582 1257.5,-588 1257.5,-588 1257.5,-600 1257.5,-600 1257.5,-606 1251.5,-612 1245.5,-612"/>
<text text-anchor="middle" x="1213.5" y="-591.5" font-family="sans" font-size="10.00" fill="#000000">align_sort_coord</text>
</g>
<!-- 12&#45;&gt;61 -->
<g id="edge100" class="edge">
<title>12&#45;&gt;61</title>
<path fill="none" stroke="#c0c0c0" stroke-width="2" d="M1164.1546,-647.8314C1171.9114,-639.3694 1181.2802,-629.1489 1189.761,-619.8971"/>
<polygon fill="#c0c0c0" stroke="#c0c0c0" stroke-width="2" points="1192.4439,-622.1499 1196.6212,-612.4133 1187.2838,-617.4198 1192.4439,-622.1499"/>
</g>
<!-- 13 -->
<g id="node14" class="node">
<title>13</title>
<path fill="none" stroke="#566bd8" stroke-width="2" d="M1065.5,-756C1065.5,-756 997.5,-756 997.5,-756 991.5,-756 985.5,-750 985.5,-744 985.5,-744 985.5,-732 985.5,-732 985.5,-726 991.5,-720 997.5,-720 997.5,-720 1065.5,-720 1065.5,-720 1071.5,-720 1077.5,-726 1077.5,-732 1077.5,-732 1077.5,-744 1077.5,-744 1077.5,-750 1071.5,-756 1065.5,-756"/>
<text text-anchor="middle" x="1031.5" y="-735.5" font-family="sans" font-size="10.00" fill="#000000">shard_sort_query</text>
</g>
<!-- 13&#45;&gt;12 -->
<g id="edge30" class="edge">
<title>13&#45;&gt;12</title>
<path fill="none" stroke="#c0c0c0" stroke-width="2" d="M1060.7717,-719.8314C1075.6088,-710.6221 1093.8015,-699.3301 1109.6862,-689.4706"/>
<polygon fill="#c0c0c0" stroke="#c0c0c0" stroke-width="2" points="1111.587,-692.4102 1118.2377,-684.1628 1107.8955,-686.4628 1111.587,-692.4102"/>
</g>
<!-- 14 -->
<g id="node15" class="node">
<title>14</title>
<path fill="none" stroke="#56d8c9" stroke-width="2" d="M1065.5,-828C1065.5,-828 985.5,-828 985.5,-828 979.5,-828 973.5,-822 973.5,-816 973.5,-816 973.5,-804 973.5,-804 973.5,-798 979.5,-792 985.5,-792 985.5,-792 1065.5,-792 1065.5,-792 1071.5,-792 1077.5,-798 1077.5,-804 1077.5,-804 1077.5,-816 1077.5,-816 1077.5,-822 1071.5,-828 1065.5,-828"/>
<text text-anchor="middle" x="1025.5" y="-807.5" font-family="sans" font-size="10.00" fill="#000000">shard_clean_header</text>
</g>
<!-- 14&#45;&gt;13 -->
<g id="edge33" class="edge">
<title>14&#45;&gt;13</title>
<path fill="none" stroke="#c0c0c0" stroke-width="2" d="M1027.0141,-791.8314C1027.6558,-784.131 1028.4188,-774.9743 1029.1319,-766.4166"/>
<polygon fill="#c0c0c0" stroke="#c0c0c0" stroke-width="2" points="1032.6229,-766.6694 1029.9656,-756.4133 1025.6471,-766.088 1032.6229,-766.6694"/>
</g>
<!-- 15&#45;&gt;14 -->
<g id="edge34" class="edge">
<title>15&#45;&gt;14</title>
<path fill="none" stroke="#c0c0c0" stroke-width="2" d="M908.1177,-863.8314C929.0222,-854.2446 954.8483,-842.4008 976.9488,-832.2655"/>
<polygon fill="#c0c0c0" stroke="#c0c0c0" stroke-width="2" points="978.5364,-835.388 986.1672,-828.038 975.6184,-829.0252 978.5364,-835.388"/>
</g>
<!-- 16 -->
<g id="node17" class="node">
<title>16</title>
<path fill="none" stroke="#569ad8" stroke-width="2" d="M1033.5,-972C1033.5,-972 923.5,-972 923.5,-972 917.5,-972 911.5,-966 911.5,-960 911.5,-960 911.5,-948 911.5,-948 911.5,-942 917.5,-936 923.5,-936 923.5,-936 1033.5,-936 1033.5,-936 1039.5,-936 1045.5,-942 1045.5,-948 1045.5,-948 1045.5,-960 1045.5,-960 1045.5,-966 1039.5,-972 1033.5,-972"/>
<text text-anchor="middle" x="978.5" y="-951.5" font-family="sans" font-size="10.00" fill="#000000">shard_saturated_reads_get</text>
</g>
<!-- 16&#45;&gt;15 -->
<g id="edge36" class="edge">
<title>16&#45;&gt;15</title>
<path fill="none" stroke="#c0c0c0" stroke-width="2" d="M950.7424,-935.8314C936.803,-926.7074 919.7402,-915.539 904.7769,-905.7449"/>
<polygon fill="#c0c0c0" stroke="#c0c0c0" stroke-width="2" points="906.5326,-902.711 896.2488,-900.1628 902.699,-908.5679 906.5326,-902.711"/>
</g>
<!-- 16&#45;&gt;22 -->
<g id="edge46" class="edge">
<title>16&#45;&gt;22</title>
<path fill="none" stroke="#c0c0c0" stroke-width="2" d="M1045.837,-936.1097C1084.0688,-925.9522 1132.09,-913.1938 1171.8993,-902.6172"/>
<polygon fill="#c0c0c0" stroke="#c0c0c0" stroke-width="2" points="1172.8028,-905.9986 1181.5688,-900.0481 1171.0053,-899.2333 1172.8028,-905.9986"/>
</g>
<!-- 16&#45;&gt;25 -->
<g id="edge50" class="edge">
<title>16&#45;&gt;25</title>
<path fill="none" stroke="#c0c0c0" stroke-width="2" d="M1003.7342,-935.8314C1016.288,-926.7927 1031.6283,-915.7476 1045.1391,-906.0198"/>
<polygon fill="#c0c0c0" stroke="#c0c0c0" stroke-width="2" points="1047.2036,-908.8463 1053.2739,-900.1628 1043.1134,-903.1655 1047.2036,-908.8463"/>
</g>
<!-- 77 -->
<g id="node78" class="node">
<title>77</title>
<path fill="none" stroke="#56b1d8" stroke-width="2" d="M970,-612C970,-612 843,-612 843,-612 837,-612 831,-606 831,-600 831,-600 831,-588 831,-588 831,-582 837,-576 843,-576 843,-576 970,-576 970,-576 976,-576 982,-582 982,-588 982,-588 982,-600 982,-600 982,-606 976,-612 970,-612"/>
<text text-anchor="middle" x="906.5" y="-591.5" font-family="sans" font-size="10.00" fill="#000000">shard_saturated_reads_extract</text>
</g>
<!-- 16&#45;&gt;77 -->
<g id="edge119" class="edge">
<title>16&#45;&gt;77</title>
<path fill="none" stroke="#c0c0c0" stroke-width="2" d="M974.8305,-935.6526C963.0826,-876.9129 926.3403,-693.2013 912.1609,-622.3047"/>
<polygon fill="#c0c0c0" stroke="#c0c0c0" stroke-width="2" points="915.5554,-621.4298 910.1621,-612.3104 908.6913,-622.8027 915.5554,-621.4298"/>
</g>
<!-- 17&#45;&gt;16 -->
<g id="edge37" class="edge">
<title>17&#45;&gt;16</title>
<path fill="none" stroke="#c0c0c0" stroke-width="2" d="M1105.6018,-1007.8314C1082.7643,-998.159 1054.502,-986.1891 1030.4313,-975.9944"/>
<polygon fill="#c0c0c0" stroke="#c0c0c0" stroke-width="2" points="1031.6629,-972.7151 1021.0897,-972.038 1028.9329,-979.1608 1031.6629,-972.7151"/>
</g>
<!-- 18&#45;&gt;16 -->
<g id="edge38" class="edge">
<title>18&#45;&gt;16</title>
<path fill="none" stroke="#c0c0c0" stroke-width="2" d="M902.2389,-1007.8314C915.0437,-998.7927 930.6909,-987.7476 944.4719,-978.0198"/>
<polygon fill="#c0c0c0" stroke="#c0c0c0" stroke-width="2" points="946.618,-980.7891 952.7693,-972.1628 942.5812,-975.0703 946.618,-980.7891"/>
</g>
<!-- 19&#45;&gt;16 -->
<g id="edge39" class="edge">
<title>19&#45;&gt;16</title>
<path fill="none" stroke="#c0c0c0" stroke-width="2" d="M985.2289,-1007.8314C984.2664,-1000.131 983.1218,-990.9743 982.0521,-982.4166"/>
<polygon fill="#c0c0c0" stroke="#c0c0c0" stroke-width="2" points="985.5151,-981.9019 980.8017,-972.4133 978.5691,-982.7702 985.5151,-981.9019"/>
</g>
<!-- 20 -->
<g id="node21" class="node">
<title>20</title>
<path fill="none" stroke="#566bd8" stroke-width="2" d="M1297.5,-756C1297.5,-756 1229.5,-756 1229.5,-756 1223.5,-756 1217.5,-750 1217.5,-744 1217.5,-744 1217.5,-732 1217.5,-732 1217.5,-726 1223.5,-720 1229.5,-720 1229.5,-720 1297.5,-720 1297.5,-720 1303.5,-720 1309.5,-726 1309.5,-732 1309.5,-732 1309.5,-744 1309.5,-744 1309.5,-750 1303.5,-756 1297.5,-756"/>
<text text-anchor="middle" x="1263.5" y="-735.5" font-family="sans" font-size="10.00" fill="#000000">shard_sort_query</text>
</g>
<!-- 20&#45;&gt;12 -->
<g id="edge31" class="edge">
<title>20&#45;&gt;12</title>
<path fill="none" stroke="#c0c0c0" stroke-width="2" d="M1234.2283,-719.8314C1219.3912,-710.6221 1201.1985,-699.3301 1185.3138,-689.4706"/>
<polygon fill="#c0c0c0" stroke="#c0c0c0" stroke-width="2" points="1187.1045,-686.4628 1176.7623,-684.1628 1183.413,-692.4102 1187.1045,-686.4628"/>
</g>
<!-- 21 -->
<g id="node22" class="node">
<title>21</title>
<path fill="none" stroke="#56d8c9" stroke-width="2" d="M1309.5,-828C1309.5,-828 1229.5,-828 1229.5,-828 1223.5,-828 1217.5,-822 1217.5,-816 1217.5,-816 1217.5,-804 1217.5,-804 1217.5,-798 1223.5,-792 1229.5,-792 1229.5,-792 1309.5,-792 1309.5,-792 1315.5,-792 1321.5,-798 1321.5,-804 1321.5,-804 1321.5,-816 1321.5,-816 1321.5,-822 1315.5,-828 1309.5,-828"/>
<text text-anchor="middle" x="1269.5" y="-807.5" font-family="sans" font-size="10.00" fill="#000000">shard_clean_header</text>
</g>
<!-- 21&#45;&gt;20 -->
<g id="edge43" class="edge">
<title>21&#45;&gt;20</title>
<path fill="none" stroke="#c0c0c0" stroke-width="2" d="M1267.9859,-791.8314C1267.3442,-784.131 1266.5812,-774.9743 1265.8681,-766.4166"/>
<polygon fill="#c0c0c0" stroke="#c0c0c0" stroke-width="2" points="1269.3529,-766.088 1265.0344,-756.4133 1262.3771,-766.6694 1269.3529,-766.088"/>
</g>
<!-- 22&#45;&gt;21 -->
<g id="edge44" class="edge">
<title>22&#45;&gt;21</title>
<path fill="none" stroke="#c0c0c0" stroke-width="2" d="M1254.5468,-863.8314C1256.7094,-856.0463 1259.2853,-846.7729 1261.6848,-838.1347"/>
<polygon fill="#c0c0c0" stroke="#c0c0c0" stroke-width="2" points="1265.081,-838.9852 1264.3852,-828.4133 1258.3364,-837.1117 1265.081,-838.9852"/>
</g>
<!-- 23 -->
<g id="node24" class="node">
<title>23</title>
<path fill="none" stroke="#566bd8" stroke-width="2" d="M1181.5,-756C1181.5,-756 1113.5,-756 1113.5,-756 1107.5,-756 1101.5,-750 1101.5,-744 1101.5,-744 1101.5,-732 1101.5,-732 1101.5,-726 1107.5,-720 1113.5,-720 1113.5,-720 1181.5,-720 1181.5,-720 1187.5,-720 1193.5,-726 1193.5,-732 1193.5,-732 1193.5,-744 1193.5,-744 1193.5,-750 1187.5,-756 1181.5,-756"/>
<text text-anchor="middle" x="1147.5" y="-735.5" font-family="sans" font-size="10.00" fill="#000000">shard_sort_query</text>
</g>
<!-- 23&#45;&gt;12 -->
<g id="edge32" class="edge">
<title>23&#45;&gt;12</title>
<path fill="none" stroke="#c0c0c0" stroke-width="2" d="M1147.5,-719.8314C1147.5,-712.131 1147.5,-702.9743 1147.5,-694.4166"/>
<polygon fill="#c0c0c0" stroke="#c0c0c0" stroke-width="2" points="1151.0001,-694.4132 1147.5,-684.4133 1144.0001,-694.4133 1151.0001,-694.4132"/>
</g>
<!-- 24 -->
<g id="node25" class="node">
<title>24</title>
<path fill="none" stroke="#56d8c9" stroke-width="2" d="M1187.5,-828C1187.5,-828 1107.5,-828 1107.5,-828 1101.5,-828 1095.5,-822 1095.5,-816 1095.5,-816 1095.5,-804 1095.5,-804 1095.5,-798 1101.5,-792 1107.5,-792 1107.5,-792 1187.5,-792 1187.5,-792 1193.5,-792 1199.5,-798 1199.5,-804 1199.5,-804 1199.5,-816 1199.5,-816 1199.5,-822 1193.5,-828 1187.5,-828"/>
<text text-anchor="middle" x="1147.5" y="-807.5" font-family="sans" font-size="10.00" fill="#000000">shard_clean_header</text>
</g>
<!-- 24&#45;&gt;23 -->
<g id="edge47" class="edge">
<title>24&#45;&gt;23</title>
<path fill="none" stroke="#c0c0c0" stroke-width="2" d="M1147.5,-791.8314C1147.5,-784.131 1147.5,-774.9743 1147.5,-766.4166"/>
<polygon fill="#c0c0c0" stroke="#c0c0c0" stroke-width="2" points="1151.0001,-766.4132 1147.5,-756.4133 1144.0001,-766.4133 1151.0001,-766.4132"/>
</g>
<!-- 25&#45;&gt;24 -->
<g id="edge48" class="edge">
<title>25&#45;&gt;24</title>
<path fill="none" stroke="#c0c0c0" stroke-width="2" d="M1095.9116,-863.8314C1104.021,-855.3694 1113.8156,-845.1489 1122.682,-835.8971"/>
<polygon fill="#c0c0c0" stroke="#c0c0c0" stroke-width="2" points="1125.4618,-838.0549 1129.854,-828.4133 1120.4079,-833.2115 1125.4618,-838.0549"/>
</g>
<!-- 26 -->
<g id="node27" class="node">
<title>26</title>
<path fill="none" stroke="#ced856" stroke-width="2" d="M516.5,-540C516.5,-540 476.5,-540 476.5,-540 470.5,-540 464.5,-534 464.5,-528 464.5,-528 464.5,-516 464.5,-516 464.5,-510 470.5,-504 476.5,-504 476.5,-504 516.5,-504 516.5,-504 522.5,-504 528.5,-510 528.5,-516 528.5,-516 528.5,-528 528.5,-528 528.5,-534 522.5,-540 516.5,-540"/>
<text text-anchor="middle" x="496.5" y="-519.5" font-family="sans" font-size="10.00" fill="#000000">align_stats</text>
</g>
<!-- 26&#45;&gt;1 -->
<g id="edge21" class="edge">
<title>26&#45;&gt;1</title>
<path fill="none" stroke="#c0c0c0" stroke-width="2" d="M504.7709,-503.7881C516.219,-476.8727 535.5,-424.6212 535.5,-378 535.5,-378 535.5,-378 535.5,-234 535.5,-192.6022 527.8734,-170.7121 559.5,-144 601.0772,-108.8835 981.6679,-94.7013 1103.8958,-91.0277"/>
<polygon fill="#c0c0c0" stroke="#c0c0c0" stroke-width="2" points="1104.3475,-94.516 1114.2403,-90.7235 1104.1417,-87.519 1104.3475,-94.516"/>
</g>
<!-- 27 -->
<g id="node28" class="node">
<title>27</title>
<path fill="none" stroke="#d88556" stroke-width="2" d="M406,-684C406,-684 361,-684 361,-684 355,-684 349,-678 349,-672 349,-672 349,-660 349,-660 349,-654 355,-648 361,-648 361,-648 406,-648 406,-648 412,-648 418,-654 418,-660 418,-660 418,-672 418,-672 418,-678 412,-684 406,-684"/>
<text text-anchor="middle" x="383.5" y="-663.5" font-family="sans" font-size="10.00" fill="#000000">align_merge</text>
</g>
<!-- 27&#45;&gt;26 -->
<g id="edge51" class="edge">
<title>27&#45;&gt;26</title>
<path fill="none" stroke="#c0c0c0" stroke-width="2" d="M403.052,-647.8204C413.4764,-637.7095 426.2321,-624.6449 436.5,-612 452.804,-591.9217 468.9319,-567.3971 480.3538,-549.0223"/>
<polygon fill="#c0c0c0" stroke="#c0c0c0" stroke-width="2" points="483.4677,-550.6399 485.7182,-540.2868 477.5027,-546.9767 483.4677,-550.6399"/>
</g>
<!-- 67 -->
<g id="node68" class="node">
<title>67</title>
<path fill="none" stroke="#d8b456" stroke-width="2" d="M415.5,-612C415.5,-612 351.5,-612 351.5,-612 345.5,-612 339.5,-606 339.5,-600 339.5,-600 339.5,-588 339.5,-588 339.5,-582 345.5,-576 351.5,-576 351.5,-576 415.5,-576 415.5,-576 421.5,-576 427.5,-582 427.5,-588 427.5,-588 427.5,-600 427.5,-600 427.5,-606 421.5,-612 415.5,-612"/>
<text text-anchor="middle" x="383.5" y="-591.5" font-family="sans" font-size="10.00" fill="#000000">align_sort_coord</text>
</g>
<!-- 27&#45;&gt;67 -->
<g id="edge106" class="edge">
<title>27&#45;&gt;67</title>
<path fill="none" stroke="#c0c0c0" stroke-width="2" d="M383.5,-647.8314C383.5,-640.131 383.5,-630.9743 383.5,-622.4166"/>
<polygon fill="#c0c0c0" stroke="#c0c0c0" stroke-width="2" points="387.0001,-622.4132 383.5,-612.4133 380.0001,-622.4133 387.0001,-622.4132"/>
</g>
<!-- 28 -->
<g id="node29" class="node">
<title>28</title>
<path fill="none" stroke="#566bd8" stroke-width="2" d="M521.5,-756C521.5,-756 453.5,-756 453.5,-756 447.5,-756 441.5,-750 441.5,-744 441.5,-744 441.5,-732 441.5,-732 441.5,-726 447.5,-720 453.5,-720 453.5,-720 521.5,-720 521.5,-720 527.5,-720 533.5,-726 533.5,-732 533.5,-732 533.5,-744 533.5,-744 533.5,-750 527.5,-756 521.5,-756"/>
<text text-anchor="middle" x="487.5" y="-735.5" font-family="sans" font-size="10.00" fill="#000000">shard_sort_query</text>
</g>
<!-- 28&#45;&gt;27 -->
<g id="edge52" class="edge">
<title>28&#45;&gt;27</title>
<path fill="none" stroke="#c0c0c0" stroke-width="2" d="M461.2564,-719.8314C448.2005,-710.7927 432.2465,-699.7476 418.1953,-690.0198"/>
<polygon fill="#c0c0c0" stroke="#c0c0c0" stroke-width="2" points="419.9494,-686.9773 409.7352,-684.1628 415.9649,-692.7326 419.9494,-686.9773"/>
</g>
<!-- 29 -->
<g id="node30" class="node">
<title>29</title>
<path fill="none" stroke="#56d8c9" stroke-width="2" d="M533.5,-828C533.5,-828 453.5,-828 453.5,-828 447.5,-828 441.5,-822 441.5,-816 441.5,-816 441.5,-804 441.5,-804 441.5,-798 447.5,-792 453.5,-792 453.5,-792 533.5,-792 533.5,-792 539.5,-792 545.5,-798 545.5,-804 545.5,-804 545.5,-816 545.5,-816 545.5,-822 539.5,-828 533.5,-828"/>
<text text-anchor="middle" x="493.5" y="-807.5" font-family="sans" font-size="10.00" fill="#000000">shard_clean_header</text>
</g>
<!-- 29&#45;&gt;28 -->
<g id="edge55" class="edge">
<title>29&#45;&gt;28</title>
<path fill="none" stroke="#c0c0c0" stroke-width="2" d="M491.9859,-791.8314C491.3442,-784.131 490.5812,-774.9743 489.8681,-766.4166"/>
<polygon fill="#c0c0c0" stroke="#c0c0c0" stroke-width="2" points="493.3529,-766.088 489.0344,-756.4133 486.3771,-766.6694 493.3529,-766.088"/>
</g>
<!-- 30&#45;&gt;29 -->
<g id="edge56" class="edge">
<title>30&#45;&gt;29</title>
<path fill="none" stroke="#c0c0c0" stroke-width="2" d="M474.8086,-863.8314C477.5117,-856.0463 480.7316,-846.7729 483.731,-838.1347"/>
<polygon fill="#c0c0c0" stroke="#c0c0c0" stroke-width="2" points="487.1327,-839.0081 487.1065,-828.4133 480.52,-836.7119 487.1327,-839.0081"/>
</g>
<!-- 31 -->
<g id="node32" class="node">
<title>31</title>
<path fill="none" stroke="#569ad8" stroke-width="2" d="M352.5,-972C352.5,-972 242.5,-972 242.5,-972 236.5,-972 230.5,-966 230.5,-960 230.5,-960 230.5,-948 230.5,-948 230.5,-942 236.5,-936 242.5,-936 242.5,-936 352.5,-936 352.5,-936 358.5,-936 364.5,-942 364.5,-948 364.5,-948 364.5,-960 364.5,-960 364.5,-966 358.5,-972 352.5,-972"/>
<text text-anchor="middle" x="297.5" y="-951.5" font-family="sans" font-size="10.00" fill="#000000">shard_saturated_reads_get</text>
</g>
<!-- 31&#45;&gt;30 -->
<g id="edge58" class="edge">
<title>31&#45;&gt;30</title>
<path fill="none" stroke="#c0c0c0" stroke-width="2" d="M340.6505,-935.8314C363.6224,-926.159 392.0509,-914.1891 416.2632,-903.9944"/>
<polygon fill="#c0c0c0" stroke="#c0c0c0" stroke-width="2" points="417.8016,-907.1443 425.6598,-900.038 415.0852,-900.6929 417.8016,-907.1443"/>
</g>
<!-- 31&#45;&gt;37 -->
<g id="edge68" class="edge">
<title>31&#45;&gt;37</title>
<path fill="none" stroke="#c0c0c0" stroke-width="2" d="M242.0176,-935.9243C211.5429,-925.9959 173.5727,-913.6255 141.6895,-903.2382"/>
<polygon fill="#c0c0c0" stroke="#c0c0c0" stroke-width="2" points="142.5975,-899.853 132.0052,-900.0831 140.4291,-906.5087 142.5975,-899.853"/>
</g>
<!-- 31&#45;&gt;40 -->
<g id="edge72" class="edge">
<title>31&#45;&gt;40</title>
<path fill="none" stroke="#c0c0c0" stroke-width="2" d="M297.5,-935.8314C297.5,-928.131 297.5,-918.9743 297.5,-910.4166"/>
<polygon fill="#c0c0c0" stroke="#c0c0c0" stroke-width="2" points="301.0001,-910.4132 297.5,-900.4133 294.0001,-910.4133 301.0001,-910.4132"/>
</g>
<!-- 78 -->
<g id="node79" class="node">
<title>78</title>
<path fill="none" stroke="#56b1d8" stroke-width="2" d="M260,-108C260,-108 133,-108 133,-108 127,-108 121,-102 121,-96 121,-96 121,-84 121,-84 121,-78 127,-72 133,-72 133,-72 260,-72 260,-72 266,-72 272,-78 272,-84 272,-84 272,-96 272,-96 272,-102 266,-108 260,-108"/>
<text text-anchor="middle" x="196.5" y="-87.5" font-family="sans" font-size="10.00" fill="#000000">shard_saturated_reads_extract</text>
</g>
<!-- 31&#45;&gt;78 -->
<g id="edge120" class="edge">
<title>31&#45;&gt;78</title>
<path fill="none" stroke="#c0c0c0" stroke-width="2" d="M256.2039,-935.8095C240.2981,-927.0074 223.1687,-915.0457 211.5,-900 165.9164,-841.2243 169.5,-812.3804 169.5,-738 169.5,-738 169.5,-738 169.5,-234 169.5,-193.2235 180.0881,-147.0472 188.0033,-118.2247"/>
<polygon fill="#c0c0c0" stroke="#c0c0c0" stroke-width="2" points="191.419,-119.0083 190.774,-108.4332 184.6834,-117.1024 191.419,-119.0083"/>
</g>
<!-- 32&#45;&gt;31 -->
<g id="edge59" class="edge">
<title>32&#45;&gt;31</title>
<path fill="none" stroke="#c0c0c0" stroke-width="2" d="M223.4819,-1007.8314C235.7928,-998.8779 250.8107,-987.9558 264.0937,-978.2955"/>
<polygon fill="#c0c0c0" stroke="#c0c0c0" stroke-width="2" points="266.4973,-980.8752 272.5261,-972.1628 262.3801,-975.214 266.4973,-980.8752"/>
</g>
<!-- 33&#45;&gt;31 -->
<g id="edge60" class="edge">
<title>33&#45;&gt;31</title>
<path fill="none" stroke="#c0c0c0" stroke-width="2" d="M451.8813,-1009.3008C423.8362,-999.2547 387.8432,-986.3617 357.6667,-975.5523"/>
<polygon fill="#c0c0c0" stroke="#c0c0c0" stroke-width="2" points="358.6856,-972.1995 348.091,-972.1222 356.3249,-978.7895 358.6856,-972.1995"/>
</g>
<!-- 34&#45;&gt;31 -->
<g id="edge61" class="edge">
<title>34&#45;&gt;31</title>
<path fill="none" stroke="#c0c0c0" stroke-width="2" d="M335.6305,-1007.8314C329.8165,-999.6232 322.8304,-989.7606 316.4354,-980.7323"/>
<polygon fill="#c0c0c0" stroke="#c0c0c0" stroke-width="2" points="319.179,-978.5505 310.5427,-972.4133 313.4669,-982.5966 319.179,-978.5505"/>
</g>
<!-- 35 -->
<g id="node36" class="node">
<title>35</title>
<path fill="none" stroke="#566bd8" stroke-width="2" d="M289.5,-756C289.5,-756 221.5,-756 221.5,-756 215.5,-756 209.5,-750 209.5,-744 209.5,-744 209.5,-732 209.5,-732 209.5,-726 215.5,-720 221.5,-720 221.5,-720 289.5,-720 289.5,-720 295.5,-720 301.5,-726 301.5,-732 301.5,-732 301.5,-744 301.5,-744 301.5,-750 295.5,-756 289.5,-756"/>
<text text-anchor="middle" x="255.5" y="-735.5" font-family="sans" font-size="10.00" fill="#000000">shard_sort_query</text>
</g>
<!-- 35&#45;&gt;27 -->
<g id="edge53" class="edge">
<title>35&#45;&gt;27</title>
<path fill="none" stroke="#c0c0c0" stroke-width="2" d="M287.7998,-719.8314C304.3234,-710.5368 324.6186,-699.1208 342.2607,-689.1971"/>
<polygon fill="#c0c0c0" stroke="#c0c0c0" stroke-width="2" points="344.2107,-692.116 351.2105,-684.1628 340.7788,-686.015 344.2107,-692.116"/>
</g>
<!-- 36 -->
<g id="node37" class="node">
<title>36</title>
<path fill="none" stroke="#56d8c9" stroke-width="2" d="M289.5,-828C289.5,-828 209.5,-828 209.5,-828 203.5,-828 197.5,-822 197.5,-816 197.5,-816 197.5,-804 197.5,-804 197.5,-798 203.5,-792 209.5,-792 209.5,-792 289.5,-792 289.5,-792 295.5,-792 301.5,-798 301.5,-804 301.5,-804 301.5,-816 301.5,-816 301.5,-822 295.5,-828 289.5,-828"/>
<text text-anchor="middle" x="249.5" y="-807.5" font-family="sans" font-size="10.00" fill="#000000">shard_clean_header</text>
</g>
<!-- 36&#45;&gt;35 -->
<g id="edge65" class="edge">
<title>36&#45;&gt;35</title>
<path fill="none" stroke="#c0c0c0" stroke-width="2" d="M251.0141,-791.8314C251.6558,-784.131 252.4188,-774.9743 253.1319,-766.4166"/>
<polygon fill="#c0c0c0" stroke="#c0c0c0" stroke-width="2" points="256.6229,-766.6694 253.9656,-756.4133 249.6471,-766.088 256.6229,-766.6694"/>
</g>
<!-- 37&#45;&gt;36 -->
<g id="edge66" class="edge">
<title>37&#45;&gt;36</title>
<path fill="none" stroke="#c0c0c0" stroke-width="2" d="M120.1552,-863.8314C143.3958,-854.159 172.1568,-842.1891 196.6523,-831.9944"/>
<polygon fill="#c0c0c0" stroke="#c0c0c0" stroke-width="2" points="198.2712,-835.1117 206.1587,-828.038 195.5815,-828.6491 198.2712,-835.1117"/>
</g>
<!-- 38 -->
<g id="node39" class="node">
<title>38</title>
<path fill="none" stroke="#566bd8" stroke-width="2" d="M408.5,-756C408.5,-756 340.5,-756 340.5,-756 334.5,-756 328.5,-750 328.5,-744 328.5,-744 328.5,-732 328.5,-732 328.5,-726 334.5,-720 340.5,-720 340.5,-720 408.5,-720 408.5,-720 414.5,-720 420.5,-726 420.5,-732 420.5,-732 420.5,-744 420.5,-744 420.5,-750 414.5,-756 408.5,-756"/>
<text text-anchor="middle" x="374.5" y="-735.5" font-family="sans" font-size="10.00" fill="#000000">shard_sort_query</text>
</g>
<!-- 38&#45;&gt;27 -->
<g id="edge54" class="edge">
<title>38&#45;&gt;27</title>
<path fill="none" stroke="#c0c0c0" stroke-width="2" d="M376.7711,-719.8314C377.7336,-712.131 378.8782,-702.9743 379.9479,-694.4166"/>
<polygon fill="#c0c0c0" stroke="#c0c0c0" stroke-width="2" points="383.4309,-694.7702 381.1983,-684.4133 376.4849,-693.9019 383.4309,-694.7702"/>
</g>
<!-- 39 -->
<g id="node40" class="node">
<title>39</title>
<path fill="none" stroke="#56d8c9" stroke-width="2" d="M411.5,-828C411.5,-828 331.5,-828 331.5,-828 325.5,-828 319.5,-822 319.5,-816 319.5,-816 319.5,-804 319.5,-804 319.5,-798 325.5,-792 331.5,-792 331.5,-792 411.5,-792 411.5,-792 417.5,-792 423.5,-798 423.5,-804 423.5,-804 423.5,-816 423.5,-816 423.5,-822 417.5,-828 411.5,-828"/>
<text text-anchor="middle" x="371.5" y="-807.5" font-family="sans" font-size="10.00" fill="#000000">shard_clean_header</text>
</g>
<!-- 39&#45;&gt;38 -->
<g id="edge69" class="edge">
<title>39&#45;&gt;38</title>
<path fill="none" stroke="#c0c0c0" stroke-width="2" d="M372.257,-791.8314C372.5779,-784.131 372.9594,-774.9743 373.316,-766.4166"/>
<polygon fill="#c0c0c0" stroke="#c0c0c0" stroke-width="2" points="376.8133,-766.5503 373.7328,-756.4133 369.8194,-766.2589 376.8133,-766.5503"/>
</g>
<!-- 40&#45;&gt;39 -->
<g id="edge70" class="edge">
<title>40&#45;&gt;39</title>
<path fill="none" stroke="#c0c0c0" stroke-width="2" d="M316.1733,-863.8314C325.0249,-855.219 335.7486,-844.7851 345.3895,-835.4048"/>
<polygon fill="#c0c0c0" stroke="#c0c0c0" stroke-width="2" points="348.1061,-837.645 352.8326,-828.1628 343.2246,-832.6279 348.1061,-837.645"/>
</g>
<!-- 41 -->
<g id="node42" class="node">
<title>41</title>
<path fill="none" stroke="#ced856" stroke-width="2" d="M1390.5,-468C1390.5,-468 1350.5,-468 1350.5,-468 1344.5,-468 1338.5,-462 1338.5,-456 1338.5,-456 1338.5,-444 1338.5,-444 1338.5,-438 1344.5,-432 1350.5,-432 1350.5,-432 1390.5,-432 1390.5,-432 1396.5,-432 1402.5,-438 1402.5,-444 1402.5,-444 1402.5,-456 1402.5,-456 1402.5,-462 1396.5,-468 1390.5,-468"/>
<text text-anchor="middle" x="1370.5" y="-447.5" font-family="sans" font-size="10.00" fill="#000000">align_stats</text>
</g>
<!-- 41&#45;&gt;1 -->
<g id="edge22" class="edge">
<title>41&#45;&gt;1</title>
<path fill="none" stroke="#c0c0c0" stroke-width="2" d="M1355.8525,-431.6749C1336.4083,-405.4479 1304.5,-354.9514 1304.5,-306 1304.5,-306 1304.5,-306 1304.5,-234 1304.5,-192.6022 1308.1201,-174.8368 1280.5,-144 1254.2736,-114.7193 1210.2602,-101.1758 1178.785,-95.0022"/>
<polygon fill="#c0c0c0" stroke="#c0c0c0" stroke-width="2" points="1179.0966,-91.5022 1168.6353,-93.1789 1177.8589,-98.3919 1179.0966,-91.5022"/>
</g>
<!-- 42 -->
<g id="node43" class="node">
<title>42</title>
<path fill="none" stroke="#d88556" stroke-width="2" d="M1674,-684C1674,-684 1629,-684 1629,-684 1623,-684 1617,-678 1617,-672 1617,-672 1617,-660 1617,-660 1617,-654 1623,-648 1629,-648 1629,-648 1674,-648 1674,-648 1680,-648 1686,-654 1686,-660 1686,-660 1686,-672 1686,-672 1686,-678 1680,-684 1674,-684"/>
<text text-anchor="middle" x="1651.5" y="-663.5" font-family="sans" font-size="10.00" fill="#000000">align_merge</text>
</g>
<!-- 42&#45;&gt;41 -->
<g id="edge73" class="edge">
<title>42&#45;&gt;41</title>
<path fill="none" stroke="#c0c0c0" stroke-width="2" d="M1628.0254,-647.9555C1577.6108,-609.2026 1458.9587,-517.9967 1402.0399,-474.2442"/>
<polygon fill="#c0c0c0" stroke="#c0c0c0" stroke-width="2" points="1404.1668,-471.4646 1394.1054,-468.1451 1399.9007,-477.0144 1404.1668,-471.4646"/>
</g>
<!-- 73 -->
<g id="node74" class="node">
<title>73</title>
<path fill="none" stroke="#d8b456" stroke-width="2" d="M1683.5,-612C1683.5,-612 1619.5,-612 1619.5,-612 1613.5,-612 1607.5,-606 1607.5,-600 1607.5,-600 1607.5,-588 1607.5,-588 1607.5,-582 1613.5,-576 1619.5,-576 1619.5,-576 1683.5,-576 1683.5,-576 1689.5,-576 1695.5,-582 1695.5,-588 1695.5,-588 1695.5,-600 1695.5,-600 1695.5,-606 1689.5,-612 1683.5,-612"/>
<text text-anchor="middle" x="1651.5" y="-591.5" font-family="sans" font-size="10.00" fill="#000000">align_sort_coord</text>
</g>
<!-- 42&#45;&gt;73 -->
<g id="edge112" class="edge">
<title>42&#45;&gt;73</title>
<path fill="none" stroke="#c0c0c0" stroke-width="2" d="M1651.5,-647.8314C1651.5,-640.131 1651.5,-630.9743 1651.5,-622.4166"/>
<polygon fill="#c0c0c0" stroke="#c0c0c0" stroke-width="2" points="1655.0001,-622.4132 1651.5,-612.4133 1648.0001,-622.4133 1655.0001,-622.4132"/>
</g>
<!-- 43 -->
<g id="node44" class="node">
<title>43</title>
<path fill="none" stroke="#566bd8" stroke-width="2" d="M1591.5,-756C1591.5,-756 1523.5,-756 1523.5,-756 1517.5,-756 1511.5,-750 1511.5,-744 1511.5,-744 1511.5,-732 1511.5,-732 1511.5,-726 1517.5,-720 1523.5,-720 1523.5,-720 1591.5,-720 1591.5,-720 1597.5,-720 1603.5,-726 1603.5,-732 1603.5,-732 1603.5,-744 1603.5,-744 1603.5,-750 1597.5,-756 1591.5,-756"/>
<text text-anchor="middle" x="1557.5" y="-735.5" font-family="sans" font-size="10.00" fill="#000000">shard_sort_query</text>
</g>
<!-- 43&#45;&gt;42 -->
<g id="edge74" class="edge">
<title>43&#45;&gt;42</title>
<path fill="none" stroke="#c0c0c0" stroke-width="2" d="M1581.2202,-719.8314C1592.9094,-710.8779 1607.1688,-699.9558 1619.7809,-690.2955"/>
<polygon fill="#c0c0c0" stroke="#c0c0c0" stroke-width="2" points="1621.9769,-693.0222 1627.7874,-684.1628 1617.7203,-687.4651 1621.9769,-693.0222"/>
</g>
<!-- 44 -->
<g id="node45" class="node">
<title>44</title>
<path fill="none" stroke="#56d8c9" stroke-width="2" d="M1588.5,-828C1588.5,-828 1508.5,-828 1508.5,-828 1502.5,-828 1496.5,-822 1496.5,-816 1496.5,-816 1496.5,-804 1496.5,-804 1496.5,-798 1502.5,-792 1508.5,-792 1508.5,-792 1588.5,-792 1588.5,-792 1594.5,-792 1600.5,-798 1600.5,-804 1600.5,-804 1600.5,-816 1600.5,-816 1600.5,-822 1594.5,-828 1588.5,-828"/>
<text text-anchor="middle" x="1548.5" y="-807.5" font-family="sans" font-size="10.00" fill="#000000">shard_clean_header</text>
</g>
<!-- 44&#45;&gt;43 -->
<g id="edge77" class="edge">
<title>44&#45;&gt;43</title>
<path fill="none" stroke="#c0c0c0" stroke-width="2" d="M1550.7711,-791.8314C1551.7336,-784.131 1552.8782,-774.9743 1553.9479,-766.4166"/>
<polygon fill="#c0c0c0" stroke="#c0c0c0" stroke-width="2" points="1557.4309,-766.7702 1555.1983,-756.4133 1550.4849,-765.9019 1557.4309,-766.7702"/>
</g>
<!-- 45&#45;&gt;44 -->
<g id="edge78" class="edge">
<title>45&#45;&gt;44</title>
<path fill="none" stroke="#c0c0c0" stroke-width="2" d="M1538.7804,-863.8314C1540.1708,-856.131 1541.8241,-846.9743 1543.3692,-838.4166"/>
<polygon fill="#c0c0c0" stroke="#c0c0c0" stroke-width="2" points="1546.8428,-838.8761 1545.1754,-828.4133 1539.9542,-837.6322 1546.8428,-838.8761"/>
</g>
<!-- 46 -->
<g id="node47" class="node">
<title>46</title>
<path fill="none" stroke="#569ad8" stroke-width="2" d="M1761.5,-972C1761.5,-972 1651.5,-972 1651.5,-972 1645.5,-972 1639.5,-966 1639.5,-960 1639.5,-960 1639.5,-948 1639.5,-948 1639.5,-942 1645.5,-936 1651.5,-936 1651.5,-936 1761.5,-936 1761.5,-936 1767.5,-936 1773.5,-942 1773.5,-948 1773.5,-948 1773.5,-960 1773.5,-960 1773.5,-966 1767.5,-972 1761.5,-972"/>
<text text-anchor="middle" x="1706.5" y="-951.5" font-family="sans" font-size="10.00" fill="#000000">shard_saturated_reads_get</text>
</g>
<!-- 46&#45;&gt;45 -->
<g id="edge80" class="edge">
<title>46&#45;&gt;45</title>
<path fill="none" stroke="#c0c0c0" stroke-width="2" d="M1663.3495,-935.8314C1640.3776,-926.159 1611.9491,-914.1891 1587.7368,-903.9944"/>
<polygon fill="#c0c0c0" stroke="#c0c0c0" stroke-width="2" points="1588.9148,-900.6929 1578.3402,-900.038 1586.1984,-907.1443 1588.9148,-900.6929"/>
</g>
<!-- 46&#45;&gt;52 -->
<g id="edge90" class="edge">
<title>46&#45;&gt;52</title>
<path fill="none" stroke="#c0c0c0" stroke-width="2" d="M1706.5,-935.8314C1706.5,-928.131 1706.5,-918.9743 1706.5,-910.4166"/>
<polygon fill="#c0c0c0" stroke="#c0c0c0" stroke-width="2" points="1710.0001,-910.4132 1706.5,-900.4133 1703.0001,-910.4133 1710.0001,-910.4132"/>
</g>
<!-- 46&#45;&gt;55 -->
<g id="edge94" class="edge">
<title>46&#45;&gt;55</title>
<path fill="none" stroke="#c0c0c0" stroke-width="2" d="M1749.6505,-935.8314C1772.6224,-926.159 1801.0509,-914.1891 1825.2632,-903.9944"/>
<polygon fill="#c0c0c0" stroke="#c0c0c0" stroke-width="2" points="1826.8016,-907.1443 1834.6598,-900.038 1824.0852,-900.6929 1826.8016,-907.1443"/>
</g>
<!-- 79 -->
<g id="node80" class="node">
<title>79</title>
<path fill="none" stroke="#56b1d8" stroke-width="2" d="M1993,-684C1993,-684 1866,-684 1866,-684 1860,-684 1854,-678 1854,-672 1854,-672 1854,-660 1854,-660 1854,-654 1860,-648 1866,-648 1866,-648 1993,-648 1993,-648 1999,-648 2005,-654 2005,-660 2005,-660 2005,-672 2005,-672 2005,-678 1999,-684 1993,-684"/>
<text text-anchor="middle" x="1929.5" y="-663.5" font-family="sans" font-size="10.00" fill="#000000">shard_saturated_reads_extract</text>
</g>
<!-- 46&#45;&gt;79 -->
<g id="edge121" class="edge">
<title>46&#45;&gt;79</title>
<path fill="none" stroke="#c0c0c0" stroke-width="2" d="M1773.7124,-949.2788C1841.6943,-942.939 1940.0103,-928.9382 1963.5,-900 2012.4948,-839.6407 1970.3966,-740.532 1945.1656,-693.0335"/>
<polygon fill="#c0c0c0" stroke="#c0c0c0" stroke-width="2" points="1948.236,-691.3533 1940.3763,-684.2487 1942.09,-694.704 1948.236,-691.3533"/>
</g>
<!-- 47&#45;&gt;46 -->
<g id="edge81" class="edge">
<title>47&#45;&gt;46</title>
<path fill="none" stroke="#c0c0c0" stroke-width="2" d="M1696.0328,-1007.8314C1697.5301,-1000.131 1699.3105,-990.9743 1700.9745,-982.4166"/>
<polygon fill="#c0c0c0" stroke="#c0c0c0" stroke-width="2" points="1704.4465,-982.8975 1702.9196,-972.4133 1697.5752,-981.5614 1704.4465,-982.8975"/>
</g>
<!-- 48&#45;&gt;46 -->
<g id="edge82" class="edge">
<title>48&#45;&gt;46</title>
<path fill="none" stroke="#c0c0c0" stroke-width="2" d="M1613.0428,-1007.8314C1629.1791,-998.5368 1648.9986,-987.1208 1666.2272,-977.1971"/>
<polygon fill="#c0c0c0" stroke="#c0c0c0" stroke-width="2" points="1668.0489,-980.187 1674.9673,-972.1628 1664.555,-974.1212 1668.0489,-980.187"/>
</g>
<!-- 49&#45;&gt;46 -->
<g id="edge83" class="edge">
<title>49&#45;&gt;46</title>
<path fill="none" stroke="#c0c0c0" stroke-width="2" d="M1779.0228,-1007.8314C1766.9605,-998.8779 1752.246,-987.9558 1739.2314,-978.2955"/>
<polygon fill="#c0c0c0" stroke="#c0c0c0" stroke-width="2" points="1741.0852,-975.3127 1730.9694,-972.1628 1736.913,-980.9335 1741.0852,-975.3127"/>
</g>
<!-- 50 -->
<g id="node51" class="node">
<title>50</title>
<path fill="none" stroke="#566bd8" stroke-width="2" d="M1710.5,-756C1710.5,-756 1642.5,-756 1642.5,-756 1636.5,-756 1630.5,-750 1630.5,-744 1630.5,-744 1630.5,-732 1630.5,-732 1630.5,-726 1636.5,-720 1642.5,-720 1642.5,-720 1710.5,-720 1710.5,-720 1716.5,-720 1722.5,-726 1722.5,-732 1722.5,-732 1722.5,-744 1722.5,-744 1722.5,-750 1716.5,-756 1710.5,-756"/>
<text text-anchor="middle" x="1676.5" y="-735.5" font-family="sans" font-size="10.00" fill="#000000">shard_sort_query</text>
</g>
<!-- 50&#45;&gt;42 -->
<g id="edge75" class="edge">
<title>50&#45;&gt;42</title>
<path fill="none" stroke="#c0c0c0" stroke-width="2" d="M1670.1914,-719.8314C1667.4883,-712.0463 1664.2684,-702.7729 1661.269,-694.1347"/>
<polygon fill="#c0c0c0" stroke="#c0c0c0" stroke-width="2" points="1664.48,-692.7119 1657.8935,-684.4133 1657.8673,-695.0081 1664.48,-692.7119"/>
</g>
<!-- 51 -->
<g id="node52" class="node">
<title>51</title>
<path fill="none" stroke="#56d8c9" stroke-width="2" d="M1722.5,-828C1722.5,-828 1642.5,-828 1642.5,-828 1636.5,-828 1630.5,-822 1630.5,-816 1630.5,-816 1630.5,-804 1630.5,-804 1630.5,-798 1636.5,-792 1642.5,-792 1642.5,-792 1722.5,-792 1722.5,-792 1728.5,-792 1734.5,-798 1734.5,-804 1734.5,-804 1734.5,-816 1734.5,-816 1734.5,-822 1728.5,-828 1722.5,-828"/>
<text text-anchor="middle" x="1682.5" y="-807.5" font-family="sans" font-size="10.00" fill="#000000">shard_clean_header</text>
</g>
<!-- 51&#45;&gt;50 -->
<g id="edge87" class="edge">
<title>51&#45;&gt;50</title>
<path fill="none" stroke="#c0c0c0" stroke-width="2" d="M1680.9859,-791.8314C1680.3442,-784.131 1679.5812,-774.9743 1678.8681,-766.4166"/>
<polygon fill="#c0c0c0" stroke="#c0c0c0" stroke-width="2" points="1682.3529,-766.088 1678.0344,-756.4133 1675.3771,-766.6694 1682.3529,-766.088"/>
</g>
<!-- 52&#45;&gt;51 -->
<g id="edge88" class="edge">
<title>52&#45;&gt;51</title>
<path fill="none" stroke="#c0c0c0" stroke-width="2" d="M1700.4438,-863.8314C1697.8488,-856.0463 1694.7576,-846.7729 1691.8782,-838.1347"/>
<polygon fill="#c0c0c0" stroke="#c0c0c0" stroke-width="2" points="1695.1205,-836.7933 1688.6378,-828.4133 1688.4797,-839.0069 1695.1205,-836.7933"/>
</g>
<!-- 53 -->
<g id="node54" class="node">
<title>53</title>
<path fill="none" stroke="#566bd8" stroke-width="2" d="M1848.5,-756C1848.5,-756 1780.5,-756 1780.5,-756 1774.5,-756 1768.5,-750 1768.5,-744 1768.5,-744 1768.5,-732 1768.5,-732 1768.5,-726 1774.5,-720 1780.5,-720 1780.5,-720 1848.5,-720 1848.5,-720 1854.5,-720 1860.5,-726 1860.5,-732 1860.5,-732 1860.5,-744 1860.5,-744 1860.5,-750 1854.5,-756 1848.5,-756"/>
<text text-anchor="middle" x="1814.5" y="-735.5" font-family="sans" font-size="10.00" fill="#000000">shard_sort_query</text>
</g>
<!-- 53&#45;&gt;42 -->
<g id="edge76" class="edge">
<title>53&#45;&gt;42</title>
<path fill="none" stroke="#c0c0c0" stroke-width="2" d="M1773.3682,-719.8314C1749.5561,-709.3131 1719.5931,-696.0779 1695.3362,-685.3632"/>
<polygon fill="#c0c0c0" stroke="#c0c0c0" stroke-width="2" points="1696.5674,-682.0809 1686.0058,-681.2418 1693.739,-688.484 1696.5674,-682.0809"/>
</g>
<!-- 54 -->
<g id="node55" class="node">
<title>54</title>
<path fill="none" stroke="#56d8c9" stroke-width="2" d="M1881.5,-828C1881.5,-828 1801.5,-828 1801.5,-828 1795.5,-828 1789.5,-822 1789.5,-816 1789.5,-816 1789.5,-804 1789.5,-804 1789.5,-798 1795.5,-792 1801.5,-792 1801.5,-792 1881.5,-792 1881.5,-792 1887.5,-792 1893.5,-798 1893.5,-804 1893.5,-804 1893.5,-816 1893.5,-816 1893.5,-822 1887.5,-828 1881.5,-828"/>
<text text-anchor="middle" x="1841.5" y="-807.5" font-family="sans" font-size="10.00" fill="#000000">shard_clean_header</text>
</g>
<!-- 54&#45;&gt;53 -->
<g id="edge91" class="edge">
<title>54&#45;&gt;53</title>
<path fill="none" stroke="#c0c0c0" stroke-width="2" d="M1834.6868,-791.8314C1831.7356,-783.9617 1828.2142,-774.5712 1824.945,-765.8533"/>
<polygon fill="#c0c0c0" stroke="#c0c0c0" stroke-width="2" points="1828.1934,-764.5476 1821.405,-756.4133 1821.6391,-767.0055 1828.1934,-764.5476"/>
</g>
<!-- 55&#45;&gt;54 -->
<g id="edge92" class="edge">
<title>55&#45;&gt;54</title>
<path fill="none" stroke="#c0c0c0" stroke-width="2" d="M1868.4157,-863.8314C1864.4385,-855.8771 1859.6845,-846.369 1855.2861,-837.5723"/>
<polygon fill="#c0c0c0" stroke="#c0c0c0" stroke-width="2" points="1858.3093,-835.7923 1850.7066,-828.4133 1852.0483,-838.9228 1858.3093,-835.7923"/>
</g>
<!-- 56 -->
<g id="node57" class="node">
<title>56</title>
<path fill="none" stroke="#56d882" stroke-width="2" d="M1434.5,-252C1434.5,-252 1382.5,-252 1382.5,-252 1376.5,-252 1370.5,-246 1370.5,-240 1370.5,-240 1370.5,-228 1370.5,-228 1370.5,-222 1376.5,-216 1382.5,-216 1382.5,-216 1434.5,-216 1434.5,-216 1440.5,-216 1446.5,-222 1446.5,-228 1446.5,-228 1446.5,-240 1446.5,-240 1446.5,-246 1440.5,-252 1434.5,-252"/>
<text text-anchor="middle" x="1408.5" y="-231.5" font-family="sans" font-size="10.00" fill="#000000">metadmg_dfit</text>
</g>
<!-- 56&#45;&gt;1 -->
<g id="edge23" class="edge">
<title>56&#45;&gt;1</title>
<path fill="none" stroke="#c0c0c0" stroke-width="2" d="M1402.8691,-215.8808C1395.5313,-195.3149 1380.699,-162.2619 1356.5,-144 1328.7082,-123.0267 1232.7994,-104.7251 1178.9453,-95.7958"/>
<polygon fill="#c0c0c0" stroke="#c0c0c0" stroke-width="2" points="1179.2007,-92.2913 1168.7679,-94.1368 1178.0745,-99.2001 1179.2007,-92.2913"/>
</g>
<!-- 74 -->
<g id="node75" class="node">
<title>74</title>
<path fill="none" stroke="#59d856" stroke-width="2" d="M1502,-180C1502,-180 1421,-180 1421,-180 1415,-180 1409,-174 1409,-168 1409,-168 1409,-156 1409,-156 1409,-150 1415,-144 1421,-144 1421,-144 1502,-144 1502,-144 1508,-144 1514,-150 1514,-156 1514,-156 1514,-168 1514,-168 1514,-174 1508,-180 1502,-180"/>
<text text-anchor="middle" x="1461.5" y="-159.5" font-family="sans" font-size="10.00" fill="#000000">metadmg_aggregate</text>
</g>
<!-- 56&#45;&gt;74 -->
<g id="edge114" class="edge">
<title>56&#45;&gt;74</title>
<path fill="none" stroke="#c0c0c0" stroke-width="2" d="M1421.8741,-215.8314C1427.9162,-207.6232 1435.1763,-197.7606 1441.8221,-188.7323"/>
<polygon fill="#c0c0c0" stroke="#c0c0c0" stroke-width="2" points="1444.8363,-190.5415 1447.9458,-180.4133 1439.1989,-186.3918 1444.8363,-190.5415"/>
</g>
<!-- 57 -->
<g id="node58" class="node">
<title>57</title>
<path fill="none" stroke="#56d89a" stroke-width="2" d="M1493,-324C1493,-324 1442,-324 1442,-324 1436,-324 1430,-318 1430,-312 1430,-312 1430,-300 1430,-300 1430,-294 1436,-288 1442,-288 1442,-288 1493,-288 1493,-288 1499,-288 1505,-294 1505,-300 1505,-300 1505,-312 1505,-312 1505,-318 1499,-324 1493,-324"/>
<text text-anchor="middle" x="1467.5" y="-303.5" font-family="sans" font-size="10.00" fill="#000000">metadmg_lca</text>
</g>
<!-- 57&#45;&gt;56 -->
<g id="edge95" class="edge">
<title>57&#45;&gt;56</title>
<path fill="none" stroke="#c0c0c0" stroke-width="2" d="M1452.6118,-287.8314C1445.747,-279.454 1437.4699,-269.3531 1429.9489,-260.1749"/>
<polygon fill="#c0c0c0" stroke="#c0c0c0" stroke-width="2" points="1432.6341,-257.9297 1423.5886,-252.4133 1427.2197,-262.3665 1432.6341,-257.9297"/>
</g>
<!-- 57&#45;&gt;74 -->
<g id="edge113" class="edge">
<title>57&#45;&gt;74</title>
<path fill="none" stroke="#c0c0c0" stroke-width="2" d="M1466.7401,-287.7623C1465.7167,-263.201 1463.8853,-219.2474 1462.6814,-190.3541"/>
<polygon fill="#c0c0c0" stroke="#c0c0c0" stroke-width="2" points="1466.1671,-189.9352 1462.2537,-180.0896 1459.1732,-190.2267 1466.1671,-189.9352"/>
</g>
<!-- 58 -->
<g id="node59" class="node">
<title>58</title>
<path fill="none" stroke="#d8cb56" stroke-width="2" d="M1499.5,-396C1499.5,-396 1435.5,-396 1435.5,-396 1429.5,-396 1423.5,-390 1423.5,-384 1423.5,-384 1423.5,-372 1423.5,-372 1423.5,-366 1429.5,-360 1435.5,-360 1435.5,-360 1499.5,-360 1499.5,-360 1505.5,-360 1511.5,-366 1511.5,-372 1511.5,-372 1511.5,-384 1511.5,-384 1511.5,-390 1505.5,-396 1499.5,-396"/>
<text text-anchor="middle" x="1467.5" y="-375.5" font-family="sans" font-size="10.00" fill="#000000">align_sort_query</text>
</g>
<!-- 58&#45;&gt;57 -->
<g id="edge96" class="edge">
<title>58&#45;&gt;57</title>
<path fill="none" stroke="#c0c0c0" stroke-width="2" d="M1467.5,-359.8314C1467.5,-352.131 1467.5,-342.9743 1467.5,-334.4166"/>
<polygon fill="#c0c0c0" stroke="#c0c0c0" stroke-width="2" points="1471.0001,-334.4132 1467.5,-324.4133 1464.0001,-334.4133 1471.0001,-334.4132"/>
</g>
<!-- 80 -->
<g id="node81" class="node">
<title>80</title>
<path fill="none" stroke="#56d86b" stroke-width="2" d="M1779,-180C1779,-180 1706,-180 1706,-180 1700,-180 1694,-174 1694,-168 1694,-168 1694,-156 1694,-156 1694,-150 1700,-144 1706,-144 1706,-144 1779,-144 1779,-144 1785,-144 1791,-150 1791,-156 1791,-156 1791,-168 1791,-168 1791,-174 1785,-180 1779,-180"/>
<text text-anchor="middle" x="1742.5" y="-159.5" font-family="sans" font-size="10.00" fill="#000000">metadmg_damage</text>
</g>
<!-- 58&#45;&gt;80 -->
<g id="edge122" class="edge">
<title>58&#45;&gt;80</title>
<path fill="none" stroke="#c0c0c0" stroke-width="2" d="M1511.9399,-371.1317C1565.2195,-362.1075 1650.3668,-344.9234 1674.5,-324 1714.7736,-289.0828 1731.75,-226.3492 1738.4692,-190.0454"/>
<polygon fill="#c0c0c0" stroke="#c0c0c0" stroke-width="2" points="1741.9308,-190.567 1740.1717,-180.1193 1735.0315,-189.3836 1741.9308,-190.567"/>
</g>
<!-- 59 -->
<g id="node60" class="node">
<title>59</title>
<path fill="none" stroke="#d85656" stroke-width="2" d="M1232,-468C1232,-468 1195,-468 1195,-468 1189,-468 1183,-462 1183,-456 1183,-456 1183,-444 1183,-444 1183,-438 1189,-432 1195,-432 1195,-432 1232,-432 1232,-432 1238,-432 1244,-438 1244,-444 1244,-444 1244,-456 1244,-456 1244,-462 1238,-468 1232,-468"/>
<text text-anchor="middle" x="1213.5" y="-447.5" font-family="sans" font-size="10.00" fill="#000000">align_filter</text>
</g>
<!-- 59&#45;&gt;58 -->
<g id="edge97" class="edge">
<title>59&#45;&gt;58</title>
<path fill="none" stroke="#c0c0c0" stroke-width="2" d="M1244.1383,-441.3151C1286.0358,-429.4387 1361.8765,-407.9405 1413.4432,-393.3232"/>
<polygon fill="#c0c0c0" stroke="#c0c0c0" stroke-width="2" points="1414.429,-396.6817 1423.0954,-390.5871 1412.52,-389.9471 1414.429,-396.6817"/>
</g>
<!-- 60 -->
<g id="node61" class="node">
<title>60</title>
<path fill="none" stroke="#d89c56" stroke-width="2" d="M1241,-540C1241,-540 1186,-540 1186,-540 1180,-540 1174,-534 1174,-528 1174,-528 1174,-516 1174,-516 1174,-510 1180,-504 1186,-504 1186,-504 1241,-504 1241,-504 1247,-504 1253,-510 1253,-516 1253,-516 1253,-528 1253,-528 1253,-534 1247,-540 1241,-540"/>
<text text-anchor="middle" x="1213.5" y="-519.5" font-family="sans" font-size="10.00" fill="#000000">align_reassign</text>
</g>
<!-- 60&#45;&gt;59 -->
<g id="edge98" class="edge">
<title>60&#45;&gt;59</title>
<path fill="none" stroke="#c0c0c0" stroke-width="2" d="M1213.5,-503.8314C1213.5,-496.131 1213.5,-486.9743 1213.5,-478.4166"/>
<polygon fill="#c0c0c0" stroke="#c0c0c0" stroke-width="2" points="1217.0001,-478.4132 1213.5,-468.4133 1210.0001,-478.4133 1217.0001,-478.4132"/>
</g>
<!-- 61&#45;&gt;60 -->
<g id="edge99" class="edge">
<title>61&#45;&gt;60</title>
<path fill="none" stroke="#c0c0c0" stroke-width="2" d="M1213.5,-575.8314C1213.5,-568.131 1213.5,-558.9743 1213.5,-550.4166"/>
<polygon fill="#c0c0c0" stroke="#c0c0c0" stroke-width="2" points="1217.0001,-550.4132 1213.5,-540.4133 1210.0001,-550.4133 1217.0001,-550.4132"/>
</g>
<!-- 62 -->
<g id="node63" class="node">
<title>62</title>
<path fill="none" stroke="#56d882" stroke-width="2" d="M494.5,-252C494.5,-252 442.5,-252 442.5,-252 436.5,-252 430.5,-246 430.5,-240 430.5,-240 430.5,-228 430.5,-228 430.5,-222 436.5,-216 442.5,-216 442.5,-216 494.5,-216 494.5,-216 500.5,-216 506.5,-222 506.5,-228 506.5,-228 506.5,-240 506.5,-240 506.5,-246 500.5,-252 494.5,-252"/>
<text text-anchor="middle" x="468.5" y="-231.5" font-family="sans" font-size="10.00" fill="#000000">metadmg_dfit</text>
</g>
<!-- 62&#45;&gt;1 -->
<g id="edge24" class="edge">
<title>62&#45;&gt;1</title>
<path fill="none" stroke="#c0c0c0" stroke-width="2" d="M473.5979,-215.9215C480.6105,-194.7376 495.4272,-160.4457 521.5,-144 570.7827,-112.9143 977.2255,-95.8748 1103.93,-91.2816"/>
<polygon fill="#c0c0c0" stroke="#c0c0c0" stroke-width="2" points="1104.4115,-94.7667 1114.28,-90.9116 1104.1614,-87.7711 1104.4115,-94.7667"/>
</g>
<!-- 75 -->
<g id="node76" class="node">
<title>75</title>
<path fill="none" stroke="#59d856" stroke-width="2" d="M457,-180C457,-180 376,-180 376,-180 370,-180 364,-174 364,-168 364,-168 364,-156 364,-156 364,-150 370,-144 376,-144 376,-144 457,-144 457,-144 463,-144 469,-150 469,-156 469,-156 469,-168 469,-168 469,-174 463,-180 457,-180"/>
<text text-anchor="middle" x="416.5" y="-159.5" font-family="sans" font-size="10.00" fill="#000000">metadmg_aggregate</text>
</g>
<!-- 62&#45;&gt;75 -->
<g id="edge116" class="edge">
<title>62&#45;&gt;75</title>
<path fill="none" stroke="#c0c0c0" stroke-width="2" d="M455.3782,-215.8314C449.4501,-207.6232 442.3271,-197.7606 435.8067,-188.7323"/>
<polygon fill="#c0c0c0" stroke="#c0c0c0" stroke-width="2" points="438.4908,-186.4708 429.7985,-180.4133 432.816,-190.5693 438.4908,-186.4708"/>
</g>
<!-- 63 -->
<g id="node64" class="node">
<title>63</title>
<path fill="none" stroke="#56d89a" stroke-width="2" d="M428,-324C428,-324 377,-324 377,-324 371,-324 365,-318 365,-312 365,-312 365,-300 365,-300 365,-294 371,-288 377,-288 377,-288 428,-288 428,-288 434,-288 440,-294 440,-300 440,-300 440,-312 440,-312 440,-318 434,-324 428,-324"/>
<text text-anchor="middle" x="402.5" y="-303.5" font-family="sans" font-size="10.00" fill="#000000">metadmg_lca</text>
</g>
<!-- 63&#45;&gt;62 -->
<g id="edge101" class="edge">
<title>63&#45;&gt;62</title>
<path fill="none" stroke="#c0c0c0" stroke-width="2" d="M419.1546,-287.8314C426.9114,-279.3694 436.2802,-269.1489 444.761,-259.8971"/>
<polygon fill="#c0c0c0" stroke="#c0c0c0" stroke-width="2" points="447.4439,-262.1499 451.6212,-252.4133 442.2838,-257.4198 447.4439,-262.1499"/>
</g>
<!-- 63&#45;&gt;75 -->
<g id="edge115" class="edge">
<title>63&#45;&gt;75</title>
<path fill="none" stroke="#c0c0c0" stroke-width="2" d="M404.2731,-287.7623C406.661,-263.201 410.9343,-219.2474 413.7434,-190.3541"/>
<polygon fill="#c0c0c0" stroke="#c0c0c0" stroke-width="2" points="417.2571,-190.3814 414.7413,-180.0896 410.29,-189.704 417.2571,-190.3814"/>
</g>
<!-- 64 -->
<g id="node65" class="node">
<title>64</title>
<path fill="none" stroke="#d8cb56" stroke-width="2" d="M415.5,-396C415.5,-396 351.5,-396 351.5,-396 345.5,-396 339.5,-390 339.5,-384 339.5,-384 339.5,-372 339.5,-372 339.5,-366 345.5,-360 351.5,-360 351.5,-360 415.5,-360 415.5,-360 421.5,-360 427.5,-366 427.5,-372 427.5,-372 427.5,-384 427.5,-384 427.5,-390 421.5,-396 415.5,-396"/>
<text text-anchor="middle" x="383.5" y="-375.5" font-family="sans" font-size="10.00" fill="#000000">align_sort_query</text>
</g>
<!-- 64&#45;&gt;63 -->
<g id="edge102" class="edge">
<title>64&#45;&gt;63</title>
<path fill="none" stroke="#c0c0c0" stroke-width="2" d="M388.2945,-359.8314C390.3489,-352.0463 392.796,-342.7729 395.0756,-334.1347"/>
<polygon fill="#c0c0c0" stroke="#c0c0c0" stroke-width="2" points="398.4735,-334.9753 397.6409,-324.4133 391.7052,-333.1892 398.4735,-334.9753"/>
</g>
<!-- 81 -->
<g id="node82" class="node">
<title>81</title>
<path fill="none" stroke="#56d86b" stroke-width="2" d="M428,-108C428,-108 355,-108 355,-108 349,-108 343,-102 343,-96 343,-96 343,-84 343,-84 343,-78 349,-72 355,-72 355,-72 428,-72 428,-72 434,-72 440,-78 440,-84 440,-84 440,-96 440,-96 440,-102 434,-108 428,-108"/>
<text text-anchor="middle" x="391.5" y="-87.5" font-family="sans" font-size="10.00" fill="#000000">metadmg_damage</text>
</g>
<!-- 64&#45;&gt;81 -->
<g id="edge123" class="edge">
<title>64&#45;&gt;81</title>
<path fill="none" stroke="#c0c0c0" stroke-width="2" d="M371.3535,-359.8734C365.314,-349.7779 358.6464,-336.7112 355.5,-324 336.2778,-246.3424 330.8307,-220.4197 354.5,-144 357.5445,-134.1704 363.0641,-124.5387 368.9271,-116.1946"/>
<polygon fill="#c0c0c0" stroke="#c0c0c0" stroke-width="2" points="371.8663,-118.1092 375.0719,-108.011 366.2686,-113.9061 371.8663,-118.1092"/>
</g>
<!-- 65 -->
<g id="node66" class="node">
<title>65</title>
<path fill="none" stroke="#d85656" stroke-width="2" d="M402,-468C402,-468 365,-468 365,-468 359,-468 353,-462 353,-456 353,-456 353,-444 353,-444 353,-438 359,-432 365,-432 365,-432 402,-432 402,-432 408,-432 414,-438 414,-444 414,-444 414,-456 414,-456 414,-462 408,-468 402,-468"/>
<text text-anchor="middle" x="383.5" y="-447.5" font-family="sans" font-size="10.00" fill="#000000">align_filter</text>
</g>
<!-- 65&#45;&gt;64 -->
<g id="edge103" class="edge">
<title>65&#45;&gt;64</title>
<path fill="none" stroke="#c0c0c0" stroke-width="2" d="M383.5,-431.8314C383.5,-424.131 383.5,-414.9743 383.5,-406.4166"/>
<polygon fill="#c0c0c0" stroke="#c0c0c0" stroke-width="2" points="387.0001,-406.4132 383.5,-396.4133 380.0001,-406.4133 387.0001,-406.4132"/>
</g>
<!-- 66 -->
<g id="node67" class="node">
<title>66</title>
<path fill="none" stroke="#d89c56" stroke-width="2" d="M411,-540C411,-540 356,-540 356,-540 350,-540 344,-534 344,-528 344,-528 344,-516 344,-516 344,-510 350,-504 356,-504 356,-504 411,-504 411,-504 417,-504 423,-510 423,-516 423,-516 423,-528 423,-528 423,-534 417,-540 411,-540"/>
<text text-anchor="middle" x="383.5" y="-519.5" font-family="sans" font-size="10.00" fill="#000000">align_reassign</text>
</g>
<!-- 66&#45;&gt;65 -->
<g id="edge104" class="edge">
<title>66&#45;&gt;65</title>
<path fill="none" stroke="#c0c0c0" stroke-width="2" d="M383.5,-503.8314C383.5,-496.131 383.5,-486.9743 383.5,-478.4166"/>
<polygon fill="#c0c0c0" stroke="#c0c0c0" stroke-width="2" points="387.0001,-478.4132 383.5,-468.4133 380.0001,-478.4133 387.0001,-478.4132"/>
</g>
<!-- 67&#45;&gt;66 -->
<g id="edge105" class="edge">
<title>67&#45;&gt;66</title>
<path fill="none" stroke="#c0c0c0" stroke-width="2" d="M383.5,-575.8314C383.5,-568.131 383.5,-558.9743 383.5,-550.4166"/>
<polygon fill="#c0c0c0" stroke="#c0c0c0" stroke-width="2" points="387.0001,-550.4132 383.5,-540.4133 380.0001,-550.4133 387.0001,-550.4132"/>
</g>
<!-- 68 -->
<g id="node69" class="node">
<title>68</title>
<path fill="none" stroke="#56d882" stroke-width="2" d="M1587.5,-252C1587.5,-252 1535.5,-252 1535.5,-252 1529.5,-252 1523.5,-246 1523.5,-240 1523.5,-240 1523.5,-228 1523.5,-228 1523.5,-222 1529.5,-216 1535.5,-216 1535.5,-216 1587.5,-216 1587.5,-216 1593.5,-216 1599.5,-222 1599.5,-228 1599.5,-228 1599.5,-240 1599.5,-240 1599.5,-246 1593.5,-252 1587.5,-252"/>
<text text-anchor="middle" x="1561.5" y="-231.5" font-family="sans" font-size="10.00" fill="#000000">metadmg_dfit</text>
</g>
<!-- 68&#45;&gt;1 -->
<g id="edge25" class="edge">
<title>68&#45;&gt;1</title>
<path fill="none" stroke="#c0c0c0" stroke-width="2" d="M1559.1876,-215.9382C1555.5008,-195.1036 1546.2166,-161.4801 1523.5,-144 1469.9951,-102.8287 1263.8766,-93.0139 1178.6798,-90.7016"/>
<polygon fill="#c0c0c0" stroke="#c0c0c0" stroke-width="2" points="1178.7552,-87.2025 1168.6703,-90.4497 1178.5791,-94.2003 1178.7552,-87.2025"/>
</g>
<!-- 76 -->
<g id="node77" class="node">
<title>76</title>
<path fill="none" stroke="#59d856" stroke-width="2" d="M1664,-180C1664,-180 1583,-180 1583,-180 1577,-180 1571,-174 1571,-168 1571,-168 1571,-156 1571,-156 1571,-150 1577,-144 1583,-144 1583,-144 1664,-144 1664,-144 1670,-144 1676,-150 1676,-156 1676,-156 1676,-168 1676,-168 1676,-174 1670,-180 1664,-180"/>
<text text-anchor="middle" x="1623.5" y="-159.5" font-family="sans" font-size="10.00" fill="#000000">metadmg_aggregate</text>
</g>
<!-- 68&#45;&gt;76 -->
<g id="edge118" class="edge">
<title>68&#45;&gt;76</title>
<path fill="none" stroke="#c0c0c0" stroke-width="2" d="M1577.1452,-215.8314C1584.3591,-207.454 1593.057,-197.3531 1600.9605,-188.1749"/>
<polygon fill="#c0c0c0" stroke="#c0c0c0" stroke-width="2" points="1603.7711,-190.2748 1607.6441,-180.4133 1598.4667,-185.7071 1603.7711,-190.2748"/>
</g>
<!-- 69 -->
<g id="node70" class="node">
<title>69</title>
<path fill="none" stroke="#56d89a" stroke-width="2" d="M1653,-324C1653,-324 1602,-324 1602,-324 1596,-324 1590,-318 1590,-312 1590,-312 1590,-300 1590,-300 1590,-294 1596,-288 1602,-288 1602,-288 1653,-288 1653,-288 1659,-288 1665,-294 1665,-300 1665,-300 1665,-312 1665,-312 1665,-318 1659,-324 1653,-324"/>
<text text-anchor="middle" x="1627.5" y="-303.5" font-family="sans" font-size="10.00" fill="#000000">metadmg_lca</text>
</g>
<!-- 69&#45;&gt;68 -->
<g id="edge107" class="edge">
<title>69&#45;&gt;68</title>
<path fill="none" stroke="#c0c0c0" stroke-width="2" d="M1610.8454,-287.8314C1603.0886,-279.3694 1593.7198,-269.1489 1585.239,-259.8971"/>
<polygon fill="#c0c0c0" stroke="#c0c0c0" stroke-width="2" points="1587.7162,-257.4198 1578.3788,-252.4133 1582.5561,-262.1499 1587.7162,-257.4198"/>
</g>
<!-- 69&#45;&gt;76 -->
<g id="edge117" class="edge">
<title>69&#45;&gt;76</title>
<path fill="none" stroke="#c0c0c0" stroke-width="2" d="M1626.9934,-287.7623C1626.3111,-263.201 1625.0902,-219.2474 1624.2876,-190.3541"/>
<polygon fill="#c0c0c0" stroke="#c0c0c0" stroke-width="2" points="1627.7789,-189.9885 1624.0025,-180.0896 1620.7816,-190.183 1627.7789,-189.9885"/>
</g>
<!-- 70 -->
<g id="node71" class="node">
<title>70</title>
<path fill="none" stroke="#d8cb56" stroke-width="2" d="M1683.5,-396C1683.5,-396 1619.5,-396 1619.5,-396 1613.5,-396 1607.5,-390 1607.5,-384 1607.5,-384 1607.5,-372 1607.5,-372 1607.5,-366 1613.5,-360 1619.5,-360 1619.5,-360 1683.5,-360 1683.5,-360 1689.5,-360 1695.5,-366 1695.5,-372 1695.5,-372 1695.5,-384 1695.5,-384 1695.5,-390 1689.5,-396 1683.5,-396"/>
<text text-anchor="middle" x="1651.5" y="-375.5" font-family="sans" font-size="10.00" fill="#000000">align_sort_query</text>
</g>
<!-- 70&#45;&gt;69 -->
<g id="edge108" class="edge">
<title>70&#45;&gt;69</title>
<path fill="none" stroke="#c0c0c0" stroke-width="2" d="M1645.4438,-359.8314C1642.8488,-352.0463 1639.7576,-342.7729 1636.8782,-334.1347"/>
<polygon fill="#c0c0c0" stroke="#c0c0c0" stroke-width="2" points="1640.1205,-332.7933 1633.6378,-324.4133 1633.4797,-335.0069 1640.1205,-332.7933"/>
</g>
<!-- 82 -->
<g id="node83" class="node">
<title>82</title>
<path fill="none" stroke="#56d86b" stroke-width="2" d="M1828,-252C1828,-252 1755,-252 1755,-252 1749,-252 1743,-246 1743,-240 1743,-240 1743,-228 1743,-228 1743,-222 1749,-216 1755,-216 1755,-216 1828,-216 1828,-216 1834,-216 1840,-222 1840,-228 1840,-228 1840,-240 1840,-240 1840,-246 1834,-252 1828,-252"/>
<text text-anchor="middle" x="1791.5" y="-231.5" font-family="sans" font-size="10.00" fill="#000000">metadmg_damage</text>
</g>
<!-- 70&#45;&gt;82 -->
<g id="edge124" class="edge">
<title>70&#45;&gt;82</title>
<path fill="none" stroke="#c0c0c0" stroke-width="2" d="M1679.2772,-359.9208C1693.2901,-350.1386 1710.1076,-337.345 1723.5,-324 1743.0201,-304.549 1761.6262,-279.289 1774.4254,-260.483"/>
<polygon fill="#c0c0c0" stroke="#c0c0c0" stroke-width="2" points="1777.3948,-262.339 1780.0501,-252.0823 1771.5782,-258.4445 1777.3948,-262.339"/>
</g>
<!-- 71 -->
<g id="node72" class="node">
<title>71</title>
<path fill="none" stroke="#d85656" stroke-width="2" d="M1670,-468C1670,-468 1633,-468 1633,-468 1627,-468 1621,-462 1621,-456 1621,-456 1621,-444 1621,-444 1621,-438 1627,-432 1633,-432 1633,-432 1670,-432 1670,-432 1676,-432 1682,-438 1682,-444 1682,-444 1682,-456 1682,-456 1682,-462 1676,-468 1670,-468"/>
<text text-anchor="middle" x="1651.5" y="-447.5" font-family="sans" font-size="10.00" fill="#000000">align_filter</text>
</g>
<!-- 71&#45;&gt;70 -->
<g id="edge109" class="edge">
<title>71&#45;&gt;70</title>
<path fill="none" stroke="#c0c0c0" stroke-width="2" d="M1651.5,-431.8314C1651.5,-424.131 1651.5,-414.9743 1651.5,-406.4166"/>
<polygon fill="#c0c0c0" stroke="#c0c0c0" stroke-width="2" points="1655.0001,-406.4132 1651.5,-396.4133 1648.0001,-406.4133 1655.0001,-406.4132"/>
</g>
<!-- 72 -->
<g id="node73" class="node">
<title>72</title>
<path fill="none" stroke="#d89c56" stroke-width="2" d="M1679,-540C1679,-540 1624,-540 1624,-540 1618,-540 1612,-534 1612,-528 1612,-528 1612,-516 1612,-516 1612,-510 1618,-504 1624,-504 1624,-504 1679,-504 1679,-504 1685,-504 1691,-510 1691,-516 1691,-516 1691,-528 1691,-528 1691,-534 1685,-540 1679,-540"/>
<text text-anchor="middle" x="1651.5" y="-519.5" font-family="sans" font-size="10.00" fill="#000000">align_reassign</text>
</g>
<!-- 72&#45;&gt;71 -->
<g id="edge110" class="edge">
<title>72&#45;&gt;71</title>
<path fill="none" stroke="#c0c0c0" stroke-width="2" d="M1651.5,-503.8314C1651.5,-496.131 1651.5,-486.9743 1651.5,-478.4166"/>
<polygon fill="#c0c0c0" stroke="#c0c0c0" stroke-width="2" points="1655.0001,-478.4132 1651.5,-468.4133 1648.0001,-478.4133 1655.0001,-478.4132"/>
</g>
<!-- 73&#45;&gt;72 -->
<g id="edge111" class="edge">
<title>73&#45;&gt;72</title>
<path fill="none" stroke="#c0c0c0" stroke-width="2" d="M1651.5,-575.8314C1651.5,-568.131 1651.5,-558.9743 1651.5,-550.4166"/>
<polygon fill="#c0c0c0" stroke="#c0c0c0" stroke-width="2" points="1655.0001,-550.4132 1651.5,-540.4133 1648.0001,-550.4133 1655.0001,-550.4132"/>
</g>
<!-- 74&#45;&gt;0 -->
<g id="edge5" class="edge">
<title>74&#45;&gt;0</title>
<path fill="none" stroke="#c0c0c0" stroke-width="2" d="M1439.4628,-143.7623C1408.4772,-118.119 1351.9491,-71.3372 1317.2566,-42.6262"/>
<polygon fill="#c0c0c0" stroke="#c0c0c0" stroke-width="2" points="1319.2938,-39.7689 1309.3583,-36.0896 1314.8308,-45.1617 1319.2938,-39.7689"/>
</g>
<!-- 74&#45;&gt;1 -->
<g id="edge26" class="edge">
<title>74&#45;&gt;1</title>
<path fill="none" stroke="#c0c0c0" stroke-width="2" d="M1408.8994,-147.5906C1404.0397,-146.3433 1399.1838,-145.1282 1394.5,-144 1318.0665,-125.5891 1227.8681,-107.1081 1178.4666,-97.2611"/>
<polygon fill="#c0c0c0" stroke="#c0c0c0" stroke-width="2" points="1179.054,-93.8094 1168.5637,-95.294 1177.6901,-100.6753 1179.054,-93.8094"/>
</g>
<!-- 75&#45;&gt;0 -->
<g id="edge6" class="edge">
<title>75&#45;&gt;0</title>
<path fill="none" stroke="#c0c0c0" stroke-width="2" d="M444.2843,-143.9248C478.6901,-122.5737 539.8289,-87.9466 597.5,-72 722.1295,-37.5388 1124.9107,-22.8541 1250.0506,-19.0506"/>
<polygon fill="#c0c0c0" stroke="#c0c0c0" stroke-width="2" points="1250.3801,-22.5424 1260.2712,-18.7455 1250.1712,-15.5455 1250.3801,-22.5424"/>
</g>
<!-- 75&#45;&gt;1 -->
<g id="edge27" class="edge">
<title>75&#45;&gt;1</title>
<path fill="none" stroke="#c0c0c0" stroke-width="2" d="M469.3332,-146.8607C474.0993,-145.7821 478.8721,-144.8048 483.5,-144 717.2095,-103.3596 1003.0874,-93.1368 1104.0401,-90.7115"/>
<polygon fill="#c0c0c0" stroke="#c0c0c0" stroke-width="2" points="1104.41,-94.2041 1114.3274,-90.4764 1104.2499,-87.2059 1104.41,-94.2041"/>
</g>
<!-- 76&#45;&gt;0 -->
<g id="edge7" class="edge">
<title>76&#45;&gt;0</title>
<path fill="none" stroke="#c0c0c0" stroke-width="2" d="M1581.2856,-143.9081C1514.8656,-115.4424 1387.0688,-60.6723 1324.2246,-33.7391"/>
<polygon fill="#c0c0c0" stroke="#c0c0c0" stroke-width="2" points="1325.2858,-30.3861 1314.7156,-29.6638 1322.5283,-36.8201 1325.2858,-30.3861"/>
</g>
<!-- 76&#45;&gt;1 -->
<g id="edge28" class="edge">
<title>76&#45;&gt;1</title>
<path fill="none" stroke="#c0c0c0" stroke-width="2" d="M1570.9887,-147.1841C1566.1102,-146.0222 1561.2256,-144.9379 1556.5,-144 1418.6116,-116.6329 1252.0939,-99.7874 1178.989,-93.1919"/>
<polygon fill="#c0c0c0" stroke="#c0c0c0" stroke-width="2" points="1179.1664,-89.694 1168.8954,-92.2932 1178.5456,-96.6664 1179.1664,-89.694"/>
</g>
<!-- 77&#45;&gt;0 -->
<g id="edge2" class="edge">
<title>77&#45;&gt;0</title>
<path fill="none" stroke="#c0c0c0" stroke-width="2" d="M891.9047,-575.9348C840.9032,-510.5262 679.4638,-282.6389 787.5,-144 845.2197,-69.9304 1144.135,-32.6411 1250.1563,-21.5934"/>
<polygon fill="#c0c0c0" stroke="#c0c0c0" stroke-width="2" points="1250.7877,-25.0472 1260.3796,-20.5476 1250.0753,-18.0835 1250.7877,-25.0472"/>
</g>
<!-- 78&#45;&gt;0 -->
<g id="edge3" class="edge">
<title>78&#45;&gt;0</title>
<path fill="none" stroke="#c0c0c0" stroke-width="2" d="M272.1171,-79.0456C292.0482,-76.4378 313.5567,-73.872 333.5,-72 689.3351,-38.5995 1121.916,-23.1716 1250.0478,-19.1216"/>
<polygon fill="#c0c0c0" stroke="#c0c0c0" stroke-width="2" points="1250.238,-22.6175 1260.1238,-18.8069 1250.0194,-15.6209 1250.238,-22.6175"/>
</g>
<!-- 79&#45;&gt;0 -->
<g id="edge4" class="edge">
<title>79&#45;&gt;0</title>
<path fill="none" stroke="#c0c0c0" stroke-width="2" d="M1917.9998,-647.6962C1902.4121,-621.088 1876.5,-569.6848 1876.5,-522 1876.5,-522 1876.5,-522 1876.5,-162 1876.5,-47.9629 1454.6194,-23.8084 1324.9543,-19.0776"/>
<polygon fill="#c0c0c0" stroke="#c0c0c0" stroke-width="2" points="1324.8427,-15.5717 1314.7274,-18.7231 1324.6001,-22.5675 1324.8427,-15.5717"/>
</g>
<!-- 80&#45;&gt;0 -->
<g id="edge8" class="edge">
<title>80&#45;&gt;0</title>
<path fill="none" stroke="#c0c0c0" stroke-width="2" d="M1693.8201,-145.4623C1639.326,-127.0637 1548.3194,-96.6791 1469.5,-72 1419.4751,-56.3367 1361.3595,-39.2927 1324.5153,-28.6294"/>
<polygon fill="#c0c0c0" stroke="#c0c0c0" stroke-width="2" points="1325.2903,-25.2103 1314.7118,-25.7975 1323.3476,-31.9353 1325.2903,-25.2103"/>
</g>
<!-- 81&#45;&gt;0 -->
<g id="edge9" class="edge">
<title>81&#45;&gt;0</title>
<path fill="none" stroke="#c0c0c0" stroke-width="2" d="M440.2675,-78.9235C453.2814,-76.3009 467.3753,-73.7584 480.5,-72 775.389,-32.4913 1134.9669,-21.3908 1250.1373,-18.7383"/>
<polygon fill="#c0c0c0" stroke="#c0c0c0" stroke-width="2" points="1250.2802,-22.2361 1260.1996,-18.514 1250.1241,-15.2378 1250.2802,-22.2361"/>
</g>
<!-- 82&#45;&gt;0 -->
<g id="edge10" class="edge">
<title>82&#45;&gt;0</title>
<path fill="none" stroke="#c0c0c0" stroke-width="2" d="M1800.0687,-215.7708C1807.9492,-196.0212 1816.237,-164.5832 1800.5,-144 1741.8762,-67.3229 1432.8374,-31.5544 1324.8141,-21.2604"/>
<polygon fill="#c0c0c0" stroke="#c0c0c0" stroke-width="2" points="1324.9903,-17.7617 1314.708,-20.3163 1324.339,-24.7314 1324.9903,-17.7617"/>
</g>
</g>
</svg>
