<?xml version="1.0" encoding="UTF-8" standalone="no"?>
<!DOCTYPE svg PUBLIC "-//W3C//DTD SVG 1.1//EN"
 "http://www.w3.org/Graphics/SVG/1.1/DTD/svg11.dtd">
<!-- Generated by graphviz version 2.40.1 (0)
 -->
<!-- Title: snakemake_dag Pages: 1 -->
<svg width="1982pt" height="1173pt"
 viewBox="0.00 0.00 1982.00 1173.00" xmlns="http://www.w3.org/2000/svg" xmlns:xlink="http://www.w3.org/1999/xlink">
<g id="graph0" class="graph" transform="scale(1 1) rotate(0) translate(4 1169)">
<title>snakemake_dag</title>
<polygon fill="#ffffff" stroke="transparent" points="-4,4 -4,-1169 1978,-1169 1978,4 -4,4"/>
<!-- 0 -->
<g id="node1" class="node">
<title>0</title>
<path fill="none" stroke="#b6d856" stroke-width="2" d="M1227.5,-36C1227.5,-36 1197.5,-36 1197.5,-36 1191.5,-36 1185.5,-30 1185.5,-24 1185.5,-24 1185.5,-12 1185.5,-12 1185.5,-6 1191.5,0 1197.5,0 1197.5,0 1227.5,0 1227.5,0 1233.5,0 1239.5,-6 1239.5,-12 1239.5,-12 1239.5,-24 1239.5,-24 1239.5,-30 1233.5,-36 1227.5,-36"/>
<text text-anchor="middle" x="1212.5" y="-15.5" font-family="sans" font-size="10.00" fill="#000000">all</text>
</g>
<!-- 1 -->
<g id="node2" class="node">
<title>1</title>
<path fill="none" stroke="#56d86b" stroke-width="2" d="M849.5,-108C849.5,-108 819.5,-108 819.5,-108 813.5,-108 807.5,-102 807.5,-96 807.5,-96 807.5,-84 807.5,-84 807.5,-78 813.5,-72 819.5,-72 819.5,-72 849.5,-72 849.5,-72 855.5,-72 861.5,-78 861.5,-84 861.5,-84 861.5,-96 861.5,-96 861.5,-102 855.5,-108 849.5,-108"/>
<text text-anchor="middle" x="834.5" y="-87.5" font-family="sans" font-size="10.00" fill="#000000">multiqc</text>
</g>
<!-- 1&#45;&gt;0 -->
<g id="edge1" class="edge">
<title>1&#45;&gt;0</title>
<path fill="none" stroke="#c0c0c0" stroke-width="2" d="M861.6848,-84.8219C928.2148,-72.1496 1099.3144,-39.5592 1175.2462,-25.096"/>
<polygon fill="#c0c0c0" stroke="#c0c0c0" stroke-width="2" points="1176.1396,-28.4888 1185.3081,-23.1794 1174.8297,-21.6124 1176.1396,-28.4888"/>
</g>
<!-- 2 -->
<g id="node3" class="node">
<title>2</title>
<path fill="none" stroke="#56d882" stroke-width="2" d="M654,-1165C654,-1165 547,-1165 547,-1165 541,-1165 535,-1159 535,-1153 535,-1153 535,-1092 535,-1092 535,-1086 541,-1080 547,-1080 547,-1080 654,-1080 654,-1080 660,-1080 666,-1086 666,-1092 666,-1092 666,-1153 666,-1153 666,-1159 660,-1165 654,-1165"/>
<text text-anchor="middle" x="600.5" y="-1153" font-family="sans" font-size="10.00" fill="#000000">shard_bowtie2</text>
<text text-anchor="middle" x="600.5" y="-1142" font-family="sans" font-size="10.00" fill="#000000">library: lib1</text>
<text text-anchor="middle" x="600.5" y="-1131" font-family="sans" font-size="10.00" fill="#000000">n_shard: 2</text>
<text text-anchor="middle" x="600.5" y="-1120" font-family="sans" font-size="10.00" fill="#000000">read_type_map: collapsed</text>
<text text-anchor="middle" x="600.5" y="-1109" font-family="sans" font-size="10.00" fill="#000000">ref: wgs_eukaryota</text>
<text text-anchor="middle" x="600.5" y="-1098" font-family="sans" font-size="10.00" fill="#000000">sample: HD827sonic_1</text>
<text text-anchor="middle" x="600.5" y="-1087" font-family="sans" font-size="10.00" fill="#000000">tot_shards: 2</text>
</g>
<!-- 2&#45;&gt;1 -->
<g id="edge11" class="edge">
<title>2&#45;&gt;1</title>
<path fill="none" stroke="#c0c0c0" stroke-width="2" d="M615.6278,-1079.8083C626.2248,-1046.0983 638.5,-997.6328 638.5,-954 638.5,-954 638.5,-954 638.5,-234 638.5,-190.5807 644.7396,-173.6059 676.5,-144 709.8407,-112.921 761.8295,-99.6484 796.9818,-94.0331"/>
<polygon fill="#c0c0c0" stroke="#c0c0c0" stroke-width="2" points="797.9218,-97.4331 807.3113,-92.525 796.9105,-90.5065 797.9218,-97.4331"/>
</g>
<!-- 15 -->
<g id="node16" class="node">
<title>15</title>
<path fill="none" stroke="#569ad8" stroke-width="2" d="M522,-900C522,-900 393,-900 393,-900 387,-900 381,-894 381,-888 381,-888 381,-876 381,-876 381,-870 387,-864 393,-864 393,-864 522,-864 522,-864 528,-864 534,-870 534,-876 534,-876 534,-888 534,-888 534,-894 528,-900 522,-900"/>
<text text-anchor="middle" x="457.5" y="-879.5" font-family="sans" font-size="10.00" fill="#000000">shard_saturated_reads_remove</text>
</g>
<!-- 2&#45;&gt;15 -->
<g id="edge35" class="edge">
<title>2&#45;&gt;15</title>
<path fill="none" stroke="#c0c0c0" stroke-width="2" d="M575.0992,-1079.7805C545.7007,-1030.3376 498.1761,-950.4097 473.5081,-908.9227"/>
<polygon fill="#c0c0c0" stroke="#c0c0c0" stroke-width="2" points="476.4403,-907.0057 468.3211,-900.1991 470.4235,-910.5832 476.4403,-907.0057"/>
</g>
<!-- 18 -->
<g id="node19" class="node">
<title>18</title>
<path fill="none" stroke="#56d8c9" stroke-width="2" d="M484,-1044C484,-1044 415,-1044 415,-1044 409,-1044 403,-1038 403,-1032 403,-1032 403,-1020 403,-1020 403,-1014 409,-1008 415,-1008 415,-1008 484,-1008 484,-1008 490,-1008 496,-1014 496,-1020 496,-1020 496,-1032 496,-1032 496,-1038 490,-1044 484,-1044"/>
<text text-anchor="middle" x="449.5" y="-1023.5" font-family="sans" font-size="10.00" fill="#000000">shard_count_alns</text>
</g>
<!-- 2&#45;&gt;18 -->
<g id="edge41" class="edge">
<title>2&#45;&gt;18</title>
<path fill="none" stroke="#c0c0c0" stroke-width="2" d="M534.7085,-1080.4544C518.2546,-1069.9392 501.1752,-1059.0242 486.6664,-1049.752"/>
<polygon fill="#c0c0c0" stroke="#c0c0c0" stroke-width="2" points="488.3045,-1046.6452 477.9934,-1044.2094 484.5349,-1052.5436 488.3045,-1046.6452"/>
</g>
<!-- 3 -->
<g id="node4" class="node">
<title>3</title>
<path fill="none" stroke="#56d882" stroke-width="2" d="M972,-1165C972,-1165 865,-1165 865,-1165 859,-1165 853,-1159 853,-1153 853,-1153 853,-1092 853,-1092 853,-1086 859,-1080 865,-1080 865,-1080 972,-1080 972,-1080 978,-1080 984,-1086 984,-1092 984,-1092 984,-1153 984,-1153 984,-1159 978,-1165 972,-1165"/>
<text text-anchor="middle" x="918.5" y="-1153" font-family="sans" font-size="10.00" fill="#000000">shard_bowtie2</text>
<text text-anchor="middle" x="918.5" y="-1142" font-family="sans" font-size="10.00" fill="#000000">library: lib1</text>
<text text-anchor="middle" x="918.5" y="-1131" font-family="sans" font-size="10.00" fill="#000000">n_shard: 1</text>
<text text-anchor="middle" x="918.5" y="-1120" font-family="sans" font-size="10.00" fill="#000000">read_type_map: collapsed</text>
<text text-anchor="middle" x="918.5" y="-1109" font-family="sans" font-size="10.00" fill="#000000">ref: wgs_eukaryota</text>
<text text-anchor="middle" x="918.5" y="-1098" font-family="sans" font-size="10.00" fill="#000000">sample: HD827sonic_2</text>
<text text-anchor="middle" x="918.5" y="-1087" font-family="sans" font-size="10.00" fill="#000000">tot_shards: 2</text>
</g>
<!-- 3&#45;&gt;1 -->
<g id="edge12" class="edge">
<title>3&#45;&gt;1</title>
<path fill="none" stroke="#c0c0c0" stroke-width="2" d="M852.8302,-1083.9871C793.1945,-1046.6747 714.5,-990.519 714.5,-954 714.5,-954 714.5,-954 714.5,-234 714.5,-180.8995 763.2519,-136.9881 798.6078,-112.1247"/>
<polygon fill="#c0c0c0" stroke="#c0c0c0" stroke-width="2" points="800.9787,-114.7445 807.2701,-106.2199 797.0359,-108.9604 800.9787,-114.7445"/>
</g>
<!-- 32 -->
<g id="node33" class="node">
<title>32</title>
<path fill="none" stroke="#56d8c9" stroke-width="2" d="M1049,-1044C1049,-1044 980,-1044 980,-1044 974,-1044 968,-1038 968,-1032 968,-1032 968,-1020 968,-1020 968,-1014 974,-1008 980,-1008 980,-1008 1049,-1008 1049,-1008 1055,-1008 1061,-1014 1061,-1020 1061,-1020 1061,-1032 1061,-1032 1061,-1038 1055,-1044 1049,-1044"/>
<text text-anchor="middle" x="1014.5" y="-1023.5" font-family="sans" font-size="10.00" fill="#000000">shard_count_alns</text>
</g>
<!-- 3&#45;&gt;32 -->
<g id="edge62" class="edge">
<title>3&#45;&gt;32</title>
<path fill="none" stroke="#c0c0c0" stroke-width="2" d="M960.8864,-1079.8928C970.5209,-1070.2081 980.4613,-1060.216 989.1261,-1051.506"/>
<polygon fill="#c0c0c0" stroke="#c0c0c0" stroke-width="2" points="991.8012,-1053.7797 996.3726,-1044.2218 986.8386,-1048.8428 991.8012,-1053.7797"/>
</g>
<!-- 37 -->
<g id="node38" class="node">
<title>37</title>
<path fill="none" stroke="#569ad8" stroke-width="2" d="M1093,-900C1093,-900 964,-900 964,-900 958,-900 952,-894 952,-888 952,-888 952,-876 952,-876 952,-870 958,-864 964,-864 964,-864 1093,-864 1093,-864 1099,-864 1105,-870 1105,-876 1105,-876 1105,-888 1105,-888 1105,-894 1099,-900 1093,-900"/>
<text text-anchor="middle" x="1028.5" y="-879.5" font-family="sans" font-size="10.00" fill="#000000">shard_saturated_reads_remove</text>
</g>
<!-- 3&#45;&gt;37 -->
<g id="edge67" class="edge">
<title>3&#45;&gt;37</title>
<path fill="none" stroke="#c0c0c0" stroke-width="2" d="M867.7788,-1079.918C848.895,-1058.7474 834.8021,-1032.5059 847.5,-1008 873.2648,-958.276 928.6751,-924.2397 971.4437,-904.1969"/>
<polygon fill="#c0c0c0" stroke="#c0c0c0" stroke-width="2" points="972.987,-907.34 980.6373,-900.0104 970.0859,-900.9695 972.987,-907.34"/>
</g>
<!-- 4 -->
<g id="node5" class="node">
<title>4</title>
<path fill="none" stroke="#56d882" stroke-width="2" d="M1609,-1165C1609,-1165 1502,-1165 1502,-1165 1496,-1165 1490,-1159 1490,-1153 1490,-1153 1490,-1092 1490,-1092 1490,-1086 1496,-1080 1502,-1080 1502,-1080 1609,-1080 1609,-1080 1615,-1080 1621,-1086 1621,-1092 1621,-1092 1621,-1153 1621,-1153 1621,-1159 1615,-1165 1609,-1165"/>
<text text-anchor="middle" x="1555.5" y="-1153" font-family="sans" font-size="10.00" fill="#000000">shard_bowtie2</text>
<text text-anchor="middle" x="1555.5" y="-1142" font-family="sans" font-size="10.00" fill="#000000">library: lib2</text>
<text text-anchor="middle" x="1555.5" y="-1131" font-family="sans" font-size="10.00" fill="#000000">n_shard: 1</text>
<text text-anchor="middle" x="1555.5" y="-1120" font-family="sans" font-size="10.00" fill="#000000">read_type_map: collapsed</text>
<text text-anchor="middle" x="1555.5" y="-1109" font-family="sans" font-size="10.00" fill="#000000">ref: refseq_mitochondrion</text>
<text text-anchor="middle" x="1555.5" y="-1098" font-family="sans" font-size="10.00" fill="#000000">sample: HD827sonic_2</text>
<text text-anchor="middle" x="1555.5" y="-1087" font-family="sans" font-size="10.00" fill="#000000">tot_shards: 1</text>
</g>
<!-- 4&#45;&gt;1 -->
<g id="edge13" class="edge">
<title>4&#45;&gt;1</title>
<path fill="none" stroke="#c0c0c0" stroke-width="2" d="M1495.2749,-1079.7753C1444.6537,-1041.5625 1380.5,-986.6865 1380.5,-954 1380.5,-954 1380.5,-954 1380.5,-738 1380.5,-697.0242 1388.3661,-678.0415 1360.5,-648 1285.3448,-566.9776 1228.8754,-605.9534 1122.5,-576 1061.4867,-558.8198 1030.0853,-584.0427 984.5,-540 852.4261,-412.3956 940.0872,-312.2597 866.5,-144 862.5237,-134.908 857.3272,-125.4516 852.2817,-117.0404"/>
<polygon fill="#c0c0c0" stroke="#c0c0c0" stroke-width="2" points="855.1683,-115.0536 846.931,-108.3903 849.2152,-118.736 855.1683,-115.0536"/>
</g>
<!-- 49 -->
<g id="node50" class="node">
<title>49</title>
<path fill="none" stroke="#56d8c9" stroke-width="2" d="M1721,-1044C1721,-1044 1652,-1044 1652,-1044 1646,-1044 1640,-1038 1640,-1032 1640,-1032 1640,-1020 1640,-1020 1640,-1014 1646,-1008 1652,-1008 1652,-1008 1721,-1008 1721,-1008 1727,-1008 1733,-1014 1733,-1020 1733,-1020 1733,-1032 1733,-1032 1733,-1038 1727,-1044 1721,-1044"/>
<text text-anchor="middle" x="1686.5" y="-1023.5" font-family="sans" font-size="10.00" fill="#000000">shard_count_alns</text>
</g>
<!-- 4&#45;&gt;49 -->
<g id="edge86" class="edge">
<title>4&#45;&gt;49</title>
<path fill="none" stroke="#c0c0c0" stroke-width="2" d="M1613.3398,-1079.8928C1627.1509,-1069.719 1641.4226,-1059.2059 1653.6532,-1050.1963"/>
<polygon fill="#c0c0c0" stroke="#c0c0c0" stroke-width="2" points="1655.7882,-1052.9707 1661.7637,-1044.2218 1651.6365,-1047.3348 1655.7882,-1052.9707"/>
</g>
<!-- 55 -->
<g id="node56" class="node">
<title>55</title>
<path fill="none" stroke="#569ad8" stroke-width="2" d="M1721,-900C1721,-900 1592,-900 1592,-900 1586,-900 1580,-894 1580,-888 1580,-888 1580,-876 1580,-876 1580,-870 1586,-864 1592,-864 1592,-864 1721,-864 1721,-864 1727,-864 1733,-870 1733,-876 1733,-876 1733,-888 1733,-888 1733,-894 1727,-900 1721,-900"/>
<text text-anchor="middle" x="1656.5" y="-879.5" font-family="sans" font-size="10.00" fill="#000000">shard_saturated_reads_remove</text>
</g>
<!-- 4&#45;&gt;55 -->
<g id="edge93" class="edge">
<title>4&#45;&gt;55</title>
<path fill="none" stroke="#c0c0c0" stroke-width="2" d="M1527.5707,-1079.8199C1516.8547,-1057.9301 1509.3664,-1031.0878 1519.5,-1008 1539.1118,-963.3177 1583.2551,-927.5078 1616.1654,-905.6502"/>
<polygon fill="#c0c0c0" stroke="#c0c0c0" stroke-width="2" points="1618.2018,-908.5013 1624.6936,-900.1283 1614.3972,-902.6255 1618.2018,-908.5013"/>
</g>
<!-- 5 -->
<g id="node6" class="node">
<title>5</title>
<path fill="none" stroke="#56d882" stroke-width="2" d="M1460,-1165C1460,-1165 1353,-1165 1353,-1165 1347,-1165 1341,-1159 1341,-1153 1341,-1153 1341,-1092 1341,-1092 1341,-1086 1347,-1080 1353,-1080 1353,-1080 1460,-1080 1460,-1080 1466,-1080 1472,-1086 1472,-1092 1472,-1092 1472,-1153 1472,-1153 1472,-1159 1466,-1165 1460,-1165"/>
<text text-anchor="middle" x="1406.5" y="-1153" font-family="sans" font-size="10.00" fill="#000000">shard_bowtie2</text>
<text text-anchor="middle" x="1406.5" y="-1142" font-family="sans" font-size="10.00" fill="#000000">library: lib2</text>
<text text-anchor="middle" x="1406.5" y="-1131" font-family="sans" font-size="10.00" fill="#000000">n_shard: 1</text>
<text text-anchor="middle" x="1406.5" y="-1120" font-family="sans" font-size="10.00" fill="#000000">read_type_map: collapsed</text>
<text text-anchor="middle" x="1406.5" y="-1109" font-family="sans" font-size="10.00" fill="#000000">ref: wgs_eukaryota</text>
<text text-anchor="middle" x="1406.5" y="-1098" font-family="sans" font-size="10.00" fill="#000000">sample: HD827sonic_2</text>
<text text-anchor="middle" x="1406.5" y="-1087" font-family="sans" font-size="10.00" fill="#000000">tot_shards: 2</text>
</g>
<!-- 5&#45;&gt;1 -->
<g id="edge14" class="edge">
<title>5&#45;&gt;1</title>
<path fill="none" stroke="#c0c0c0" stroke-width="2" d="M1384.3607,-1079.891C1378.4548,-1068.2989 1372.1477,-1055.7107 1366.5,-1044 1328.3125,-964.8172 1323.04,-943.0118 1284.5,-864 1252.8648,-799.1438 1250.0975,-779.657 1209.5,-720 1161.82,-649.9355 1156.3825,-620.8924 1084.5,-576 1031.8309,-543.1068 993.1696,-584.1471 949.5,-540 821.7655,-410.8686 893.7362,-319.9111 848.5,-144 846.3631,-135.6901 844.0285,-126.6646 841.889,-118.4139"/>
<polygon fill="#c0c0c0" stroke="#c0c0c0" stroke-width="2" points="845.2132,-117.2895 839.3129,-108.4897 838.4378,-119.0483 845.2132,-117.2895"/>
</g>
<!-- 47 -->
<g id="node48" class="node">
<title>47</title>
<path fill="none" stroke="#56d8c9" stroke-width="2" d="M1610,-1044C1610,-1044 1541,-1044 1541,-1044 1535,-1044 1529,-1038 1529,-1032 1529,-1032 1529,-1020 1529,-1020 1529,-1014 1535,-1008 1541,-1008 1541,-1008 1610,-1008 1610,-1008 1616,-1008 1622,-1014 1622,-1020 1622,-1020 1622,-1032 1622,-1032 1622,-1038 1616,-1044 1610,-1044"/>
<text text-anchor="middle" x="1575.5" y="-1023.5" font-family="sans" font-size="10.00" fill="#000000">shard_count_alns</text>
</g>
<!-- 5&#45;&gt;47 -->
<g id="edge84" class="edge">
<title>5&#45;&gt;47</title>
<path fill="none" stroke="#c0c0c0" stroke-width="2" d="M1472.2588,-1084.7129C1475.0425,-1083.1197 1477.7986,-1081.5435 1480.5,-1080 1498.1509,-1069.9148 1517.6701,-1058.8113 1534.4008,-1049.3089"/>
<polygon fill="#c0c0c0" stroke="#c0c0c0" stroke-width="2" points="1536.4112,-1052.1923 1543.3792,-1044.2112 1532.955,-1046.105 1536.4112,-1052.1923"/>
</g>
<!-- 52 -->
<g id="node53" class="node">
<title>52</title>
<path fill="none" stroke="#569ad8" stroke-width="2" d="M1550,-900C1550,-900 1421,-900 1421,-900 1415,-900 1409,-894 1409,-888 1409,-888 1409,-876 1409,-876 1409,-870 1415,-864 1421,-864 1421,-864 1550,-864 1550,-864 1556,-864 1562,-870 1562,-876 1562,-876 1562,-888 1562,-888 1562,-894 1556,-900 1550,-900"/>
<text text-anchor="middle" x="1485.5" y="-879.5" font-family="sans" font-size="10.00" fill="#000000">shard_saturated_reads_remove</text>
</g>
<!-- 5&#45;&gt;52 -->
<g id="edge89" class="edge">
<title>5&#45;&gt;52</title>
<path fill="none" stroke="#c0c0c0" stroke-width="2" d="M1420.5326,-1079.7805C1436.6714,-1030.6492 1462.6981,-951.416 1476.3972,-909.7116"/>
<polygon fill="#c0c0c0" stroke="#c0c0c0" stroke-width="2" points="1479.7263,-910.7919 1479.5219,-900.1991 1473.0759,-908.6074 1479.7263,-910.7919"/>
</g>
<!-- 6 -->
<g id="node7" class="node">
<title>6</title>
<path fill="none" stroke="#56d882" stroke-width="2" d="M1926,-1165C1926,-1165 1819,-1165 1819,-1165 1813,-1165 1807,-1159 1807,-1153 1807,-1153 1807,-1092 1807,-1092 1807,-1086 1813,-1080 1819,-1080 1819,-1080 1926,-1080 1926,-1080 1932,-1080 1938,-1086 1938,-1092 1938,-1092 1938,-1153 1938,-1153 1938,-1159 1932,-1165 1926,-1165"/>
<text text-anchor="middle" x="1872.5" y="-1153" font-family="sans" font-size="10.00" fill="#000000">shard_bowtie2</text>
<text text-anchor="middle" x="1872.5" y="-1142" font-family="sans" font-size="10.00" fill="#000000">library: lib2</text>
<text text-anchor="middle" x="1872.5" y="-1131" font-family="sans" font-size="10.00" fill="#000000">n_shard: 2</text>
<text text-anchor="middle" x="1872.5" y="-1120" font-family="sans" font-size="10.00" fill="#000000">read_type_map: collapsed</text>
<text text-anchor="middle" x="1872.5" y="-1109" font-family="sans" font-size="10.00" fill="#000000">ref: wgs_eukaryota</text>
<text text-anchor="middle" x="1872.5" y="-1098" font-family="sans" font-size="10.00" fill="#000000">sample: HD827sonic_2</text>
<text text-anchor="middle" x="1872.5" y="-1087" font-family="sans" font-size="10.00" fill="#000000">tot_shards: 2</text>
</g>
<!-- 6&#45;&gt;1 -->
<g id="edge15" class="edge">
<title>6&#45;&gt;1</title>
<path fill="none" stroke="#c0c0c0" stroke-width="2" d="M1914.0608,-1079.9279C1940.7707,-1047.9863 1970.5,-1001.7163 1970.5,-954 1970.5,-954 1970.5,-954 1970.5,-810 1970.5,-650.1946 1835.8667,-655.9526 1697.5,-576 1655.8754,-551.948 1637.9833,-562.5006 1595.5,-540 1404.7693,-438.9826 1342.2721,-418.1372 1204.5,-252 1170.4933,-210.9919 1195.0668,-176.0342 1152.5,-144 1108.7874,-111.1035 946.5531,-96.9659 872.1837,-92.1155"/>
<polygon fill="#c0c0c0" stroke="#c0c0c0" stroke-width="2" points="872.0735,-88.6017 861.8733,-91.4661 871.6335,-95.5879 872.0735,-88.6017"/>
</g>
<!-- 45 -->
<g id="node46" class="node">
<title>45</title>
<path fill="none" stroke="#569ad8" stroke-width="2" d="M1892,-900C1892,-900 1763,-900 1763,-900 1757,-900 1751,-894 1751,-888 1751,-888 1751,-876 1751,-876 1751,-870 1757,-864 1763,-864 1763,-864 1892,-864 1892,-864 1898,-864 1904,-870 1904,-876 1904,-876 1904,-888 1904,-888 1904,-894 1898,-900 1892,-900"/>
<text text-anchor="middle" x="1827.5" y="-879.5" font-family="sans" font-size="10.00" fill="#000000">shard_saturated_reads_remove</text>
</g>
<!-- 6&#45;&gt;45 -->
<g id="edge79" class="edge">
<title>6&#45;&gt;45</title>
<path fill="none" stroke="#c0c0c0" stroke-width="2" d="M1865.8121,-1079.7471C1862.3375,-1058.1948 1857.9049,-1031.6733 1853.5,-1008 1847.2434,-974.3753 1839.1693,-935.8956 1833.6904,-910.399"/>
<polygon fill="#c0c0c0" stroke="#c0c0c0" stroke-width="2" points="1837.0457,-909.3549 1831.5141,-900.3188 1830.2034,-910.8322 1837.0457,-909.3549"/>
</g>
<!-- 48 -->
<g id="node49" class="node">
<title>48</title>
<path fill="none" stroke="#56d8c9" stroke-width="2" d="M1832,-1044C1832,-1044 1763,-1044 1763,-1044 1757,-1044 1751,-1038 1751,-1032 1751,-1032 1751,-1020 1751,-1020 1751,-1014 1757,-1008 1763,-1008 1763,-1008 1832,-1008 1832,-1008 1838,-1008 1844,-1014 1844,-1020 1844,-1020 1844,-1032 1844,-1032 1844,-1038 1838,-1044 1832,-1044"/>
<text text-anchor="middle" x="1797.5" y="-1023.5" font-family="sans" font-size="10.00" fill="#000000">shard_count_alns</text>
</g>
<!-- 6&#45;&gt;48 -->
<g id="edge85" class="edge">
<title>6&#45;&gt;48</title>
<path fill="none" stroke="#c0c0c0" stroke-width="2" d="M1839.3856,-1079.8928C1832.0867,-1070.5016 1824.5632,-1060.8213 1817.9414,-1052.3013"/>
<polygon fill="#c0c0c0" stroke="#c0c0c0" stroke-width="2" points="1820.5621,-1049.9697 1811.662,-1044.2218 1815.0351,-1054.2653 1820.5621,-1049.9697"/>
</g>
<!-- 7 -->
<g id="node8" class="node">
<title>7</title>
<path fill="none" stroke="#56d882" stroke-width="2" d="M242,-1165C242,-1165 135,-1165 135,-1165 129,-1165 123,-1159 123,-1153 123,-1153 123,-1092 123,-1092 123,-1086 129,-1080 135,-1080 135,-1080 242,-1080 242,-1080 248,-1080 254,-1086 254,-1092 254,-1092 254,-1153 254,-1153 254,-1159 248,-1165 242,-1165"/>
<text text-anchor="middle" x="188.5" y="-1153" font-family="sans" font-size="10.00" fill="#000000">shard_bowtie2</text>
<text text-anchor="middle" x="188.5" y="-1142" font-family="sans" font-size="10.00" fill="#000000">library: lib1</text>
<text text-anchor="middle" x="188.5" y="-1131" font-family="sans" font-size="10.00" fill="#000000">n_shard: 1</text>
<text text-anchor="middle" x="188.5" y="-1120" font-family="sans" font-size="10.00" fill="#000000">read_type_map: collapsed</text>
<text text-anchor="middle" x="188.5" y="-1109" font-family="sans" font-size="10.00" fill="#000000">ref: wgs_eukaryota</text>
<text text-anchor="middle" x="188.5" y="-1098" font-family="sans" font-size="10.00" fill="#000000">sample: HD827sonic_1</text>
<text text-anchor="middle" x="188.5" y="-1087" font-family="sans" font-size="10.00" fill="#000000">tot_shards: 2</text>
</g>
<!-- 7&#45;&gt;1 -->
<g id="edge16" class="edge">
<title>7&#45;&gt;1</title>
<path fill="none" stroke="#c0c0c0" stroke-width="2" d="M254.1305,-1094.9912C268.8797,-1089.4798 284.5833,-1084.1243 299.5,-1080 388.6601,-1055.3482 433.7727,-1103.6228 504.5,-1044 533.7356,-1019.3545 562.5,-920.2377 562.5,-882 562.5,-882 562.5,-882 562.5,-234 562.5,-189.2786 572.4561,-171.7835 607.5,-144 636.6364,-120.9001 740.7126,-103.1619 797.2696,-94.9741"/>
<polygon fill="#c0c0c0" stroke="#c0c0c0" stroke-width="2" points="797.8396,-98.4284 807.2482,-93.5573 796.8555,-91.4979 797.8396,-98.4284"/>
</g>
<!-- 17 -->
<g id="node18" class="node">
<title>17</title>
<path fill="none" stroke="#56d8c9" stroke-width="2" d="M223,-1044C223,-1044 154,-1044 154,-1044 148,-1044 142,-1038 142,-1032 142,-1032 142,-1020 142,-1020 142,-1014 148,-1008 154,-1008 154,-1008 223,-1008 223,-1008 229,-1008 235,-1014 235,-1020 235,-1020 235,-1032 235,-1032 235,-1038 229,-1044 223,-1044"/>
<text text-anchor="middle" x="188.5" y="-1023.5" font-family="sans" font-size="10.00" fill="#000000">shard_count_alns</text>
</g>
<!-- 7&#45;&gt;17 -->
<g id="edge40" class="edge">
<title>7&#45;&gt;17</title>
<path fill="none" stroke="#c0c0c0" stroke-width="2" d="M188.5,-1079.8928C188.5,-1071.2842 188.5,-1062.4327 188.5,-1054.4546"/>
<polygon fill="#c0c0c0" stroke="#c0c0c0" stroke-width="2" points="192.0001,-1054.2218 188.5,-1044.2218 185.0001,-1054.2218 192.0001,-1054.2218"/>
</g>
<!-- 22 -->
<g id="node23" class="node">
<title>22</title>
<path fill="none" stroke="#569ad8" stroke-width="2" d="M141,-900C141,-900 12,-900 12,-900 6,-900 0,-894 0,-888 0,-888 0,-876 0,-876 0,-870 6,-864 12,-864 12,-864 141,-864 141,-864 147,-864 153,-870 153,-876 153,-876 153,-888 153,-888 153,-894 147,-900 141,-900"/>
<text text-anchor="middle" x="76.5" y="-879.5" font-family="sans" font-size="10.00" fill="#000000">shard_saturated_reads_remove</text>
</g>
<!-- 7&#45;&gt;22 -->
<g id="edge45" class="edge">
<title>7&#45;&gt;22</title>
<path fill="none" stroke="#c0c0c0" stroke-width="2" d="M154.7779,-1079.911C146.8004,-1068.6385 138.7932,-1056.2 132.5,-1044 109.4806,-999.3742 92.4773,-943.195 83.5602,-910.081"/>
<polygon fill="#c0c0c0" stroke="#c0c0c0" stroke-width="2" points="86.8849,-908.9618 80.9518,-900.184 80.116,-910.7458 86.8849,-908.9618"/>
</g>
<!-- 8 -->
<g id="node9" class="node">
<title>8</title>
<path fill="none" stroke="#56d882" stroke-width="2" d="M1218,-1165C1218,-1165 1111,-1165 1111,-1165 1105,-1165 1099,-1159 1099,-1153 1099,-1153 1099,-1092 1099,-1092 1099,-1086 1105,-1080 1111,-1080 1111,-1080 1218,-1080 1218,-1080 1224,-1080 1230,-1086 1230,-1092 1230,-1092 1230,-1153 1230,-1153 1230,-1159 1224,-1165 1218,-1165"/>
<text text-anchor="middle" x="1164.5" y="-1153" font-family="sans" font-size="10.00" fill="#000000">shard_bowtie2</text>
<text text-anchor="middle" x="1164.5" y="-1142" font-family="sans" font-size="10.00" fill="#000000">library: lib1</text>
<text text-anchor="middle" x="1164.5" y="-1131" font-family="sans" font-size="10.00" fill="#000000">n_shard: 2</text>
<text text-anchor="middle" x="1164.5" y="-1120" font-family="sans" font-size="10.00" fill="#000000">read_type_map: collapsed</text>
<text text-anchor="middle" x="1164.5" y="-1109" font-family="sans" font-size="10.00" fill="#000000">ref: wgs_eukaryota</text>
<text text-anchor="middle" x="1164.5" y="-1098" font-family="sans" font-size="10.00" fill="#000000">sample: HD827sonic_2</text>
<text text-anchor="middle" x="1164.5" y="-1087" font-family="sans" font-size="10.00" fill="#000000">tot_shards: 2</text>
</g>
<!-- 8&#45;&gt;1 -->
<g id="edge17" class="edge">
<title>8&#45;&gt;1</title>
<path fill="none" stroke="#c0c0c0" stroke-width="2" d="M1133.1751,-1079.7268C1111.7674,-1051.5279 1084.6297,-1018.0173 1069.5,-1008 1023.0724,-977.2604 1002.0327,-990.4597 949.5,-972 868.9881,-943.7086 819.2061,-970.758 771.5,-900 762.5556,-886.7336 770.4694,-879.9668 771.5,-864 785.5291,-646.645 834.5,-595.8073 834.5,-378 834.5,-378 834.5,-378 834.5,-234 834.5,-193.876 834.5,-147.4631 834.5,-118.4177"/>
<polygon fill="#c0c0c0" stroke="#c0c0c0" stroke-width="2" points="838.0001,-118.1853 834.5,-108.1854 831.0001,-118.1854 838.0001,-118.1853"/>
</g>
<!-- 30 -->
<g id="node31" class="node">
<title>30</title>
<path fill="none" stroke="#569ad8" stroke-width="2" d="M1264,-900C1264,-900 1135,-900 1135,-900 1129,-900 1123,-894 1123,-888 1123,-888 1123,-876 1123,-876 1123,-870 1129,-864 1135,-864 1135,-864 1264,-864 1264,-864 1270,-864 1276,-870 1276,-876 1276,-876 1276,-888 1276,-888 1276,-894 1270,-900 1264,-900"/>
<text text-anchor="middle" x="1199.5" y="-879.5" font-family="sans" font-size="10.00" fill="#000000">shard_saturated_reads_remove</text>
</g>
<!-- 8&#45;&gt;30 -->
<g id="edge57" class="edge">
<title>8&#45;&gt;30</title>
<path fill="none" stroke="#c0c0c0" stroke-width="2" d="M1201.3478,-1079.7927C1208.7934,-1068.812 1215.5451,-1056.5371 1219.5,-1044 1233.8088,-998.6412 1220.7592,-943.1263 1210.0737,-910.2684"/>
<polygon fill="#c0c0c0" stroke="#c0c0c0" stroke-width="2" points="1213.2627,-908.7754 1206.7252,-900.438 1206.6366,-911.0325 1213.2627,-908.7754"/>
</g>
<!-- 33 -->
<g id="node34" class="node">
<title>33</title>
<path fill="none" stroke="#56d8c9" stroke-width="2" d="M1199,-1044C1199,-1044 1130,-1044 1130,-1044 1124,-1044 1118,-1038 1118,-1032 1118,-1032 1118,-1020 1118,-1020 1118,-1014 1124,-1008 1130,-1008 1130,-1008 1199,-1008 1199,-1008 1205,-1008 1211,-1014 1211,-1020 1211,-1020 1211,-1032 1211,-1032 1211,-1038 1205,-1044 1199,-1044"/>
<text text-anchor="middle" x="1164.5" y="-1023.5" font-family="sans" font-size="10.00" fill="#000000">shard_count_alns</text>
</g>
<!-- 8&#45;&gt;33 -->
<g id="edge63" class="edge">
<title>8&#45;&gt;33</title>
<path fill="none" stroke="#c0c0c0" stroke-width="2" d="M1164.5,-1079.8928C1164.5,-1071.2842 1164.5,-1062.4327 1164.5,-1054.4546"/>
<polygon fill="#c0c0c0" stroke="#c0c0c0" stroke-width="2" points="1168.0001,-1054.2218 1164.5,-1044.2218 1161.0001,-1054.2218 1168.0001,-1054.2218"/>
</g>
<!-- 9 -->
<g id="node10" class="node">
<title>9</title>
<path fill="none" stroke="#56d882" stroke-width="2" d="M428,-1165C428,-1165 321,-1165 321,-1165 315,-1165 309,-1159 309,-1153 309,-1153 309,-1092 309,-1092 309,-1086 315,-1080 321,-1080 321,-1080 428,-1080 428,-1080 434,-1080 440,-1086 440,-1092 440,-1092 440,-1153 440,-1153 440,-1159 434,-1165 428,-1165"/>
<text text-anchor="middle" x="374.5" y="-1153" font-family="sans" font-size="10.00" fill="#000000">shard_bowtie2</text>
<text text-anchor="middle" x="374.5" y="-1142" font-family="sans" font-size="10.00" fill="#000000">library: lib1</text>
<text text-anchor="middle" x="374.5" y="-1131" font-family="sans" font-size="10.00" fill="#000000">n_shard: 1</text>
<text text-anchor="middle" x="374.5" y="-1120" font-family="sans" font-size="10.00" fill="#000000">read_type_map: collapsed</text>
<text text-anchor="middle" x="374.5" y="-1109" font-family="sans" font-size="10.00" fill="#000000">ref: refseq_mitochondrion</text>
<text text-anchor="middle" x="374.5" y="-1098" font-family="sans" font-size="10.00" fill="#000000">sample: HD827sonic_1</text>
<text text-anchor="middle" x="374.5" y="-1087" font-family="sans" font-size="10.00" fill="#000000">tot_shards: 1</text>
</g>
<!-- 9&#45;&gt;1 -->
<g id="edge18" class="edge">
<title>9&#45;&gt;1</title>
<path fill="none" stroke="#c0c0c0" stroke-width="2" d="M440.2508,-1102.1195C472.8244,-1089.4583 510.9682,-1070.4733 538.5,-1044 594.0706,-990.5658 600.5,-959.0929 600.5,-882 600.5,-882 600.5,-882 600.5,-234 600.5,-189.4756 610.3455,-172.5638 644.5,-144 667.6595,-124.6315 748.8466,-106.3601 797.2806,-96.8396"/>
<polygon fill="#c0c0c0" stroke="#c0c0c0" stroke-width="2" points="798.2232,-100.2223 807.3773,-94.8883 796.8949,-93.3495 798.2232,-100.2223"/>
</g>
<!-- 19 -->
<g id="node20" class="node">
<title>19</title>
<path fill="none" stroke="#56d8c9" stroke-width="2" d="M334,-1044C334,-1044 265,-1044 265,-1044 259,-1044 253,-1038 253,-1032 253,-1032 253,-1020 253,-1020 253,-1014 259,-1008 265,-1008 265,-1008 334,-1008 334,-1008 340,-1008 346,-1014 346,-1020 346,-1020 346,-1032 346,-1032 346,-1038 340,-1044 334,-1044"/>
<text text-anchor="middle" x="299.5" y="-1023.5" font-family="sans" font-size="10.00" fill="#000000">shard_count_alns</text>
</g>
<!-- 9&#45;&gt;19 -->
<g id="edge42" class="edge">
<title>9&#45;&gt;19</title>
<path fill="none" stroke="#c0c0c0" stroke-width="2" d="M341.3856,-1079.8928C334.0867,-1070.5016 326.5632,-1060.8213 319.9414,-1052.3013"/>
<polygon fill="#c0c0c0" stroke="#c0c0c0" stroke-width="2" points="322.5621,-1049.9697 313.662,-1044.2218 317.0351,-1054.2653 322.5621,-1049.9697"/>
</g>
<!-- 25 -->
<g id="node26" class="node">
<title>25</title>
<path fill="none" stroke="#569ad8" stroke-width="2" d="M351,-900C351,-900 222,-900 222,-900 216,-900 210,-894 210,-888 210,-888 210,-876 210,-876 210,-870 216,-864 222,-864 222,-864 351,-864 351,-864 357,-864 363,-870 363,-876 363,-876 363,-888 363,-888 363,-894 357,-900 351,-900"/>
<text text-anchor="middle" x="286.5" y="-879.5" font-family="sans" font-size="10.00" fill="#000000">shard_saturated_reads_remove</text>
</g>
<!-- 9&#45;&gt;25 -->
<g id="edge49" class="edge">
<title>9&#45;&gt;25</title>
<path fill="none" stroke="#c0c0c0" stroke-width="2" d="M379.2944,-1079.7097C381.716,-1039.9853 380.0255,-980.4554 355.5,-936 349.0005,-924.2188 338.7549,-914.1322 328.1278,-905.9756"/>
<polygon fill="#c0c0c0" stroke="#c0c0c0" stroke-width="2" points="330.1449,-903.115 319.9827,-900.1183 326.058,-908.7982 330.1449,-903.115"/>
</g>
<!-- 10 -->
<g id="node11" class="node">
<title>10</title>
<path fill="none" stroke="#56d882" stroke-width="2" d="M823,-1165C823,-1165 716,-1165 716,-1165 710,-1165 704,-1159 704,-1153 704,-1153 704,-1092 704,-1092 704,-1086 710,-1080 716,-1080 716,-1080 823,-1080 823,-1080 829,-1080 835,-1086 835,-1092 835,-1092 835,-1153 835,-1153 835,-1159 829,-1165 823,-1165"/>
<text text-anchor="middle" x="769.5" y="-1153" font-family="sans" font-size="10.00" fill="#000000">shard_bowtie2</text>
<text text-anchor="middle" x="769.5" y="-1142" font-family="sans" font-size="10.00" fill="#000000">library: lib1</text>
<text text-anchor="middle" x="769.5" y="-1131" font-family="sans" font-size="10.00" fill="#000000">n_shard: 1</text>
<text text-anchor="middle" x="769.5" y="-1120" font-family="sans" font-size="10.00" fill="#000000">read_type_map: collapsed</text>
<text text-anchor="middle" x="769.5" y="-1109" font-family="sans" font-size="10.00" fill="#000000">ref: refseq_mitochondrion</text>
<text text-anchor="middle" x="769.5" y="-1098" font-family="sans" font-size="10.00" fill="#000000">sample: HD827sonic_2</text>
<text text-anchor="middle" x="769.5" y="-1087" font-family="sans" font-size="10.00" fill="#000000">tot_shards: 1</text>
</g>
<!-- 10&#45;&gt;1 -->
<g id="edge19" class="edge">
<title>10&#45;&gt;1</title>
<path fill="none" stroke="#c0c0c0" stroke-width="2" d="M725.8473,-1079.9432C716.4143,-1068.9572 707.2568,-1056.6421 700.5,-1044 680.9864,-1007.4898 676.5,-995.3978 676.5,-954 676.5,-954 676.5,-954 676.5,-234 676.5,-192.6022 673.0737,-175.0093 700.5,-144 725.3234,-115.9337 766.8057,-102.235 797.0516,-95.6928"/>
<polygon fill="#c0c0c0" stroke="#c0c0c0" stroke-width="2" points="798.1114,-99.0506 807.2356,-93.6654 796.7447,-92.1853 798.1114,-99.0506"/>
</g>
<!-- 34 -->
<g id="node35" class="node">
<title>34</title>
<path fill="none" stroke="#56d8c9" stroke-width="2" d="M938,-1044C938,-1044 869,-1044 869,-1044 863,-1044 857,-1038 857,-1032 857,-1032 857,-1020 857,-1020 857,-1014 863,-1008 869,-1008 869,-1008 938,-1008 938,-1008 944,-1008 950,-1014 950,-1020 950,-1020 950,-1032 950,-1032 950,-1038 944,-1044 938,-1044"/>
<text text-anchor="middle" x="903.5" y="-1023.5" font-family="sans" font-size="10.00" fill="#000000">shard_count_alns</text>
</g>
<!-- 10&#45;&gt;34 -->
<g id="edge64" class="edge">
<title>10&#45;&gt;34</title>
<path fill="none" stroke="#c0c0c0" stroke-width="2" d="M828.6644,-1079.8928C842.7917,-1069.719 857.3903,-1059.2059 869.901,-1050.1963"/>
<polygon fill="#c0c0c0" stroke="#c0c0c0" stroke-width="2" points="872.1278,-1052.9058 878.1972,-1044.2218 868.0371,-1047.2255 872.1278,-1052.9058"/>
</g>
<!-- 40 -->
<g id="node41" class="node">
<title>40</title>
<path fill="none" stroke="#569ad8" stroke-width="2" d="M922,-900C922,-900 793,-900 793,-900 787,-900 781,-894 781,-888 781,-888 781,-876 781,-876 781,-870 787,-864 793,-864 793,-864 922,-864 922,-864 928,-864 934,-870 934,-876 934,-876 934,-888 934,-888 934,-894 928,-900 922,-900"/>
<text text-anchor="middle" x="857.5" y="-879.5" font-family="sans" font-size="10.00" fill="#000000">shard_saturated_reads_remove</text>
</g>
<!-- 10&#45;&gt;40 -->
<g id="edge71" class="edge">
<title>10&#45;&gt;40</title>
<path fill="none" stroke="#c0c0c0" stroke-width="2" d="M774.4002,-1079.9765C780.1149,-1040.9686 791.8296,-982.383 814.5,-936 819.3654,-926.0456 826.3248,-916.2382 833.2313,-907.7699"/>
<polygon fill="#c0c0c0" stroke="#c0c0c0" stroke-width="2" points="835.945,-909.9816 839.7666,-900.1 830.6168,-905.4417 835.945,-909.9816"/>
</g>
<!-- 11 -->
<g id="node12" class="node">
<title>11</title>
<path fill="none" stroke="#ced856" stroke-width="2" d="M486.5,-540C486.5,-540 446.5,-540 446.5,-540 440.5,-540 434.5,-534 434.5,-528 434.5,-528 434.5,-516 434.5,-516 434.5,-510 440.5,-504 446.5,-504 446.5,-504 486.5,-504 486.5,-504 492.5,-504 498.5,-510 498.5,-516 498.5,-516 498.5,-528 498.5,-528 498.5,-534 492.5,-540 486.5,-540"/>
<text text-anchor="middle" x="466.5" y="-519.5" font-family="sans" font-size="10.00" fill="#000000">align_stats</text>
</g>
<!-- 11&#45;&gt;1 -->
<g id="edge20" class="edge">
<title>11&#45;&gt;1</title>
<path fill="none" stroke="#c0c0c0" stroke-width="2" d="M479.0851,-503.8478C496.1434,-477.4241 524.5,-426.2435 524.5,-378 524.5,-378 524.5,-378 524.5,-234 524.5,-192.6022 518.1647,-172.17 548.5,-144 566.5869,-127.2041 723.6715,-104.5897 797.0389,-94.823"/>
<polygon fill="#c0c0c0" stroke="#c0c0c0" stroke-width="2" points="797.7738,-98.2564 807.2296,-93.4774 796.8575,-91.3166 797.7738,-98.2564"/>
</g>
<!-- 12 -->
<g id="node13" class="node">
<title>12</title>
<path fill="none" stroke="#d88556" stroke-width="2" d="M338,-684C338,-684 293,-684 293,-684 287,-684 281,-678 281,-672 281,-672 281,-660 281,-660 281,-654 287,-648 293,-648 293,-648 338,-648 338,-648 344,-648 350,-654 350,-660 350,-660 350,-672 350,-672 350,-678 344,-684 338,-684"/>
<text text-anchor="middle" x="315.5" y="-663.5" font-family="sans" font-size="10.00" fill="#000000">align_merge</text>
</g>
<!-- 12&#45;&gt;11 -->
<g id="edge29" class="edge">
<title>12&#45;&gt;11</title>
<path fill="none" stroke="#c0c0c0" stroke-width="2" d="M334.6243,-647.7623C361.2871,-622.3354 409.7436,-576.1253 439.9105,-547.3569"/>
<polygon fill="#c0c0c0" stroke="#c0c0c0" stroke-width="2" points="442.7097,-549.5239 447.531,-540.0896 437.8787,-544.4581 442.7097,-549.5239"/>
</g>
<!-- 61 -->
<g id="node62" class="node">
<title>61</title>
<path fill="none" stroke="#d8b456" stroke-width="2" d="M347.5,-612C347.5,-612 283.5,-612 283.5,-612 277.5,-612 271.5,-606 271.5,-600 271.5,-600 271.5,-588 271.5,-588 271.5,-582 277.5,-576 283.5,-576 283.5,-576 347.5,-576 347.5,-576 353.5,-576 359.5,-582 359.5,-588 359.5,-588 359.5,-600 359.5,-600 359.5,-606 353.5,-612 347.5,-612"/>
<text text-anchor="middle" x="315.5" y="-591.5" font-family="sans" font-size="10.00" fill="#000000">align_sort_coord</text>
</g>
<!-- 12&#45;&gt;61 -->
<g id="edge100" class="edge">
<title>12&#45;&gt;61</title>
<path fill="none" stroke="#c0c0c0" stroke-width="2" d="M315.5,-647.8314C315.5,-640.131 315.5,-630.9743 315.5,-622.4166"/>
<polygon fill="#c0c0c0" stroke="#c0c0c0" stroke-width="2" points="319.0001,-622.4132 315.5,-612.4133 312.0001,-622.4133 319.0001,-622.4132"/>
</g>
<!-- 13 -->
<g id="node14" class="node">
<title>13</title>
<path fill="none" stroke="#5682d8" stroke-width="2" d="M467.5,-756C467.5,-756 399.5,-756 399.5,-756 393.5,-756 387.5,-750 387.5,-744 387.5,-744 387.5,-732 387.5,-732 387.5,-726 393.5,-720 399.5,-720 399.5,-720 467.5,-720 467.5,-720 473.5,-720 479.5,-726 479.5,-732 479.5,-732 479.5,-744 479.5,-744 479.5,-750 473.5,-756 467.5,-756"/>
<text text-anchor="middle" x="433.5" y="-735.5" font-family="sans" font-size="10.00" fill="#000000">shard_sort_query</text>
</g>
<!-- 13&#45;&gt;12 -->
<g id="edge30" class="edge">
<title>13&#45;&gt;12</title>
<path fill="none" stroke="#c0c0c0" stroke-width="2" d="M403.7236,-719.8314C388.6307,-710.6221 370.1243,-699.3301 353.9657,-689.4706"/>
<polygon fill="#c0c0c0" stroke="#c0c0c0" stroke-width="2" points="355.6263,-686.3838 345.2669,-684.1628 351.9802,-692.3593 355.6263,-686.3838"/>
</g>
<!-- 14 -->
<g id="node15" class="node">
<title>14</title>
<path fill="none" stroke="#566bd8" stroke-width="2" d="M468,-828C468,-828 415,-828 415,-828 409,-828 403,-822 403,-816 403,-816 403,-804 403,-804 403,-798 409,-792 415,-792 415,-792 468,-792 468,-792 474,-792 480,-798 480,-804 480,-804 480,-816 480,-816 480,-822 474,-828 468,-828"/>
<text text-anchor="middle" x="441.5" y="-807.5" font-family="sans" font-size="10.00" fill="#000000">shard_unicorn</text>
</g>
<!-- 14&#45;&gt;13 -->
<g id="edge33" class="edge">
<title>14&#45;&gt;13</title>
<path fill="none" stroke="#c0c0c0" stroke-width="2" d="M439.4813,-791.8314C438.6257,-784.131 437.6083,-774.9743 436.6574,-766.4166"/>
<polygon fill="#c0c0c0" stroke="#c0c0c0" stroke-width="2" points="440.1289,-765.9656 435.5459,-756.4133 433.1717,-766.7386 440.1289,-765.9656"/>
</g>
<!-- 15&#45;&gt;14 -->
<g id="edge34" class="edge">
<title>15&#45;&gt;14</title>
<path fill="none" stroke="#c0c0c0" stroke-width="2" d="M453.4625,-863.8314C451.7513,-856.131 449.7165,-846.9743 447.8148,-838.4166"/>
<polygon fill="#c0c0c0" stroke="#c0c0c0" stroke-width="2" points="451.1779,-837.4159 445.5918,-828.4133 444.3446,-838.9344 451.1779,-837.4159"/>
</g>
<!-- 16 -->
<g id="node17" class="node">
<title>16</title>
<path fill="none" stroke="#56b1d8" stroke-width="2" d="M334.5,-972C334.5,-972 218.5,-972 218.5,-972 212.5,-972 206.5,-966 206.5,-960 206.5,-960 206.5,-948 206.5,-948 206.5,-942 212.5,-936 218.5,-936 218.5,-936 334.5,-936 334.5,-936 340.5,-936 346.5,-942 346.5,-948 346.5,-948 346.5,-960 346.5,-960 346.5,-966 340.5,-972 334.5,-972"/>
<text text-anchor="middle" x="276.5" y="-951.5" font-family="sans" font-size="10.00" fill="#000000">shard_saturated_reads_filter</text>
</g>
<!-- 16&#45;&gt;15 -->
<g id="edge36" class="edge">
<title>16&#45;&gt;15</title>
<path fill="none" stroke="#c0c0c0" stroke-width="2" d="M322.1739,-935.8314C346.5968,-926.1162 376.8466,-914.0831 402.5484,-903.8592"/>
<polygon fill="#c0c0c0" stroke="#c0c0c0" stroke-width="2" points="404.1563,-906.9864 412.1545,-900.038 401.569,-900.4821 404.1563,-906.9864"/>
</g>
<!-- 16&#45;&gt;22 -->
<g id="edge46" class="edge">
<title>16&#45;&gt;22</title>
<path fill="none" stroke="#c0c0c0" stroke-width="2" d="M226.2897,-935.9243C198.9485,-926.0815 164.9406,-913.8386 136.2425,-903.5073"/>
<polygon fill="#c0c0c0" stroke="#c0c0c0" stroke-width="2" points="137.3254,-900.1773 126.7309,-900.0831 134.9543,-906.7635 137.3254,-900.1773"/>
</g>
<!-- 16&#45;&gt;25 -->
<g id="edge50" class="edge">
<title>16&#45;&gt;25</title>
<path fill="none" stroke="#c0c0c0" stroke-width="2" d="M279.0234,-935.8314C280.0929,-928.131 281.3647,-918.9743 282.5532,-910.4166"/>
<polygon fill="#c0c0c0" stroke="#c0c0c0" stroke-width="2" points="286.0336,-910.7997 283.9426,-900.4133 279.1001,-909.8367 286.0336,-910.7997"/>
</g>
<!-- 77 -->
<g id="node78" class="node">
<title>77</title>
<path fill="none" stroke="#56c9d8" stroke-width="2" d="M656,-108C656,-108 529,-108 529,-108 523,-108 517,-102 517,-96 517,-96 517,-84 517,-84 517,-78 523,-72 529,-72 529,-72 656,-72 656,-72 662,-72 668,-78 668,-84 668,-84 668,-96 668,-96 668,-102 662,-108 656,-108"/>
<text text-anchor="middle" x="592.5" y="-87.5" font-family="sans" font-size="10.00" fill="#000000">shard_saturated_reads_extract</text>
</g>
<!-- 16&#45;&gt;77 -->
<g id="edge119" class="edge">
<title>16&#45;&gt;77</title>
<path fill="none" stroke="#c0c0c0" stroke-width="2" d="M236.9052,-935.8102C222.7524,-927.1243 208.3698,-915.2457 200.5,-900 193.161,-885.7825 199.1265,-879.9409 200.5,-864 217.2284,-669.8473 151.9563,-582.7053 275.5,-432 303.599,-397.7233 334.4807,-424.4101 368.5,-396 469.2467,-311.8647 434.8571,-241.7106 522.5,-144 532.3138,-133.0589 544.5799,-122.7475 556.0907,-114.1254"/>
<polygon fill="#c0c0c0" stroke="#c0c0c0" stroke-width="2" points="558.2636,-116.8729 564.293,-108.161 554.1468,-111.2115 558.2636,-116.8729"/>
</g>
<!-- 17&#45;&gt;16 -->
<g id="edge37" class="edge">
<title>17&#45;&gt;16</title>
<path fill="none" stroke="#c0c0c0" stroke-width="2" d="M210.7061,-1007.8314C221.545,-998.9632 234.7444,-988.1637 246.4678,-978.5718"/>
<polygon fill="#c0c0c0" stroke="#c0c0c0" stroke-width="2" points="248.7777,-981.2041 254.301,-972.1628 244.345,-975.7864 248.7777,-981.2041"/>
</g>
<!-- 18&#45;&gt;16 -->
<g id="edge38" class="edge">
<title>18&#45;&gt;16</title>
<path fill="none" stroke="#c0c0c0" stroke-width="2" d="M405.8448,-1007.8314C382.6042,-998.159 353.8432,-986.1891 329.3477,-975.9944"/>
<polygon fill="#c0c0c0" stroke="#c0c0c0" stroke-width="2" points="330.4185,-972.6491 319.8413,-972.038 327.7288,-979.1117 330.4185,-972.6491"/>
</g>
<!-- 19&#45;&gt;16 -->
<g id="edge39" class="edge">
<title>19&#45;&gt;16</title>
<path fill="none" stroke="#c0c0c0" stroke-width="2" d="M293.6961,-1007.8314C291.2092,-1000.0463 288.2469,-990.7729 285.4875,-982.1347"/>
<polygon fill="#c0c0c0" stroke="#c0c0c0" stroke-width="2" points="288.7591,-980.874 282.382,-972.4133 282.091,-983.0041 288.7591,-980.874"/>
</g>
<!-- 20 -->
<g id="node21" class="node">
<title>20</title>
<path fill="none" stroke="#5682d8" stroke-width="2" d="M155.5,-756C155.5,-756 87.5,-756 87.5,-756 81.5,-756 75.5,-750 75.5,-744 75.5,-744 75.5,-732 75.5,-732 75.5,-726 81.5,-720 87.5,-720 87.5,-720 155.5,-720 155.5,-720 161.5,-720 167.5,-726 167.5,-732 167.5,-732 167.5,-744 167.5,-744 167.5,-750 161.5,-756 155.5,-756"/>
<text text-anchor="middle" x="121.5" y="-735.5" font-family="sans" font-size="10.00" fill="#000000">shard_sort_query</text>
</g>
<!-- 20&#45;&gt;12 -->
<g id="edge31" class="edge">
<title>20&#45;&gt;12</title>
<path fill="none" stroke="#c0c0c0" stroke-width="2" d="M167.9678,-720.7542C199.3241,-709.1168 240.4546,-693.8519 271.3197,-682.3968"/>
<polygon fill="#c0c0c0" stroke="#c0c0c0" stroke-width="2" points="272.7974,-685.5817 280.9547,-678.8209 270.3617,-679.0191 272.7974,-685.5817"/>
</g>
<!-- 21 -->
<g id="node22" class="node">
<title>21</title>
<path fill="none" stroke="#566bd8" stroke-width="2" d="M135,-828C135,-828 82,-828 82,-828 76,-828 70,-822 70,-816 70,-816 70,-804 70,-804 70,-798 76,-792 82,-792 82,-792 135,-792 135,-792 141,-792 147,-798 147,-804 147,-804 147,-816 147,-816 147,-822 141,-828 135,-828"/>
<text text-anchor="middle" x="108.5" y="-807.5" font-family="sans" font-size="10.00" fill="#000000">shard_unicorn</text>
</g>
<!-- 21&#45;&gt;20 -->
<g id="edge43" class="edge">
<title>21&#45;&gt;20</title>
<path fill="none" stroke="#c0c0c0" stroke-width="2" d="M111.7804,-791.8314C113.1708,-784.131 114.8241,-774.9743 116.3692,-766.4166"/>
<polygon fill="#c0c0c0" stroke="#c0c0c0" stroke-width="2" points="119.8428,-766.8761 118.1754,-756.4133 112.9542,-765.6322 119.8428,-766.8761"/>
</g>
<!-- 22&#45;&gt;21 -->
<g id="edge44" class="edge">
<title>22&#45;&gt;21</title>
<path fill="none" stroke="#c0c0c0" stroke-width="2" d="M84.575,-863.8314C88.1102,-855.8771 92.336,-846.369 96.2456,-837.5723"/>
<polygon fill="#c0c0c0" stroke="#c0c0c0" stroke-width="2" points="99.4532,-838.9729 100.3163,-828.4133 93.0565,-836.1299 99.4532,-838.9729"/>
</g>
<!-- 23 -->
<g id="node24" class="node">
<title>23</title>
<path fill="none" stroke="#5682d8" stroke-width="2" d="M342.5,-756C342.5,-756 274.5,-756 274.5,-756 268.5,-756 262.5,-750 262.5,-744 262.5,-744 262.5,-732 262.5,-732 262.5,-726 268.5,-720 274.5,-720 274.5,-720 342.5,-720 342.5,-720 348.5,-720 354.5,-726 354.5,-732 354.5,-732 354.5,-744 354.5,-744 354.5,-750 348.5,-756 342.5,-756"/>
<text text-anchor="middle" x="308.5" y="-735.5" font-family="sans" font-size="10.00" fill="#000000">shard_sort_query</text>
</g>
<!-- 23&#45;&gt;12 -->
<g id="edge32" class="edge">
<title>23&#45;&gt;12</title>
<path fill="none" stroke="#c0c0c0" stroke-width="2" d="M310.2664,-719.8314C311.015,-712.131 311.9053,-702.9743 312.7373,-694.4166"/>
<polygon fill="#c0c0c0" stroke="#c0c0c0" stroke-width="2" points="316.2256,-694.7051 313.7098,-684.4133 309.2585,-694.0276 316.2256,-694.7051"/>
</g>
<!-- 24 -->
<g id="node25" class="node">
<title>24</title>
<path fill="none" stroke="#566bd8" stroke-width="2" d="M327,-828C327,-828 274,-828 274,-828 268,-828 262,-822 262,-816 262,-816 262,-804 262,-804 262,-798 268,-792 274,-792 274,-792 327,-792 327,-792 333,-792 339,-798 339,-804 339,-804 339,-816 339,-816 339,-822 333,-828 327,-828"/>
<text text-anchor="middle" x="300.5" y="-807.5" font-family="sans" font-size="10.00" fill="#000000">shard_unicorn</text>
</g>
<!-- 24&#45;&gt;23 -->
<g id="edge47" class="edge">
<title>24&#45;&gt;23</title>
<path fill="none" stroke="#c0c0c0" stroke-width="2" d="M302.5187,-791.8314C303.3743,-784.131 304.3917,-774.9743 305.3426,-766.4166"/>
<polygon fill="#c0c0c0" stroke="#c0c0c0" stroke-width="2" points="308.8283,-766.7386 306.4541,-756.4133 301.8711,-765.9656 308.8283,-766.7386"/>
</g>
<!-- 25&#45;&gt;24 -->
<g id="edge48" class="edge">
<title>25&#45;&gt;24</title>
<path fill="none" stroke="#c0c0c0" stroke-width="2" d="M290.0328,-863.8314C291.5301,-856.131 293.3105,-846.9743 294.9745,-838.4166"/>
<polygon fill="#c0c0c0" stroke="#c0c0c0" stroke-width="2" points="298.4465,-838.8975 296.9196,-828.4133 291.5752,-837.5614 298.4465,-838.8975"/>
</g>
<!-- 26 -->
<g id="node27" class="node">
<title>26</title>
<path fill="none" stroke="#ced856" stroke-width="2" d="M794.5,-468C794.5,-468 754.5,-468 754.5,-468 748.5,-468 742.5,-462 742.5,-456 742.5,-456 742.5,-444 742.5,-444 742.5,-438 748.5,-432 754.5,-432 754.5,-432 794.5,-432 794.5,-432 800.5,-432 806.5,-438 806.5,-444 806.5,-444 806.5,-456 806.5,-456 806.5,-462 800.5,-468 794.5,-468"/>
<text text-anchor="middle" x="774.5" y="-447.5" font-family="sans" font-size="10.00" fill="#000000">align_stats</text>
</g>
<!-- 26&#45;&gt;1 -->
<g id="edge21" class="edge">
<title>26&#45;&gt;1</title>
<path fill="none" stroke="#c0c0c0" stroke-width="2" d="M776.7792,-431.8486C780.0012,-404.5755 785.5,-351.3818 785.5,-306 785.5,-306 785.5,-306 785.5,-234 785.5,-191.531 804.8374,-145.5922 819.2165,-117.303"/>
<polygon fill="#c0c0c0" stroke="#c0c0c0" stroke-width="2" points="822.3314,-118.8993 823.8677,-108.4164 816.1295,-115.6532 822.3314,-118.8993"/>
</g>
<!-- 27 -->
<g id="node28" class="node">
<title>27</title>
<path fill="none" stroke="#d88556" stroke-width="2" d="M1051,-684C1051,-684 1006,-684 1006,-684 1000,-684 994,-678 994,-672 994,-672 994,-660 994,-660 994,-654 1000,-648 1006,-648 1006,-648 1051,-648 1051,-648 1057,-648 1063,-654 1063,-660 1063,-660 1063,-672 1063,-672 1063,-678 1057,-684 1051,-684"/>
<text text-anchor="middle" x="1028.5" y="-663.5" font-family="sans" font-size="10.00" fill="#000000">align_merge</text>
</g>
<!-- 27&#45;&gt;26 -->
<g id="edge51" class="edge">
<title>27&#45;&gt;26</title>
<path fill="none" stroke="#c0c0c0" stroke-width="2" d="M1007.281,-647.9555C961.8973,-609.3614 855.3372,-518.7435 803.6447,-474.7845"/>
<polygon fill="#c0c0c0" stroke="#c0c0c0" stroke-width="2" points="805.7226,-471.957 795.8373,-468.1451 801.1878,-477.2896 805.7226,-471.957"/>
</g>
<!-- 67 -->
<g id="node68" class="node">
<title>67</title>
<path fill="none" stroke="#d8b456" stroke-width="2" d="M1063.5,-612C1063.5,-612 999.5,-612 999.5,-612 993.5,-612 987.5,-606 987.5,-600 987.5,-600 987.5,-588 987.5,-588 987.5,-582 993.5,-576 999.5,-576 999.5,-576 1063.5,-576 1063.5,-576 1069.5,-576 1075.5,-582 1075.5,-588 1075.5,-588 1075.5,-600 1075.5,-600 1075.5,-606 1069.5,-612 1063.5,-612"/>
<text text-anchor="middle" x="1031.5" y="-591.5" font-family="sans" font-size="10.00" fill="#000000">align_sort_coord</text>
</g>
<!-- 27&#45;&gt;67 -->
<g id="edge106" class="edge">
<title>27&#45;&gt;67</title>
<path fill="none" stroke="#c0c0c0" stroke-width="2" d="M1029.257,-647.8314C1029.5779,-640.131 1029.9594,-630.9743 1030.316,-622.4166"/>
<polygon fill="#c0c0c0" stroke="#c0c0c0" stroke-width="2" points="1033.8133,-622.5503 1030.7328,-612.4133 1026.8194,-622.2589 1033.8133,-622.5503"/>
</g>
<!-- 28 -->
<g id="node29" class="node">
<title>28</title>
<path fill="none" stroke="#5682d8" stroke-width="2" d="M1188.5,-756C1188.5,-756 1120.5,-756 1120.5,-756 1114.5,-756 1108.5,-750 1108.5,-744 1108.5,-744 1108.5,-732 1108.5,-732 1108.5,-726 1114.5,-720 1120.5,-720 1120.5,-720 1188.5,-720 1188.5,-720 1194.5,-720 1200.5,-726 1200.5,-732 1200.5,-732 1200.5,-744 1200.5,-744 1200.5,-750 1194.5,-756 1188.5,-756"/>
<text text-anchor="middle" x="1154.5" y="-735.5" font-family="sans" font-size="10.00" fill="#000000">shard_sort_query</text>
</g>
<!-- 28&#45;&gt;27 -->
<g id="edge52" class="edge">
<title>28&#45;&gt;27</title>
<path fill="none" stroke="#c0c0c0" stroke-width="2" d="M1122.7049,-719.8314C1106.4395,-710.5368 1086.4614,-699.1208 1069.0949,-689.1971"/>
<polygon fill="#c0c0c0" stroke="#c0c0c0" stroke-width="2" points="1070.7039,-686.0854 1060.2849,-684.1628 1067.2309,-692.1631 1070.7039,-686.0854"/>
</g>
<!-- 29 -->
<g id="node30" class="node">
<title>29</title>
<path fill="none" stroke="#566bd8" stroke-width="2" d="M1196,-828C1196,-828 1143,-828 1143,-828 1137,-828 1131,-822 1131,-816 1131,-816 1131,-804 1131,-804 1131,-798 1137,-792 1143,-792 1143,-792 1196,-792 1196,-792 1202,-792 1208,-798 1208,-804 1208,-804 1208,-816 1208,-816 1208,-822 1202,-828 1196,-828"/>
<text text-anchor="middle" x="1169.5" y="-807.5" font-family="sans" font-size="10.00" fill="#000000">shard_unicorn</text>
</g>
<!-- 29&#45;&gt;28 -->
<g id="edge55" class="edge">
<title>29&#45;&gt;28</title>
<path fill="none" stroke="#c0c0c0" stroke-width="2" d="M1165.7149,-791.8314C1164.1106,-784.131 1162.203,-774.9743 1160.4201,-766.4166"/>
<polygon fill="#c0c0c0" stroke="#c0c0c0" stroke-width="2" points="1163.8021,-765.4892 1158.3361,-756.4133 1156.9493,-766.9169 1163.8021,-765.4892"/>
</g>
<!-- 30&#45;&gt;29 -->
<g id="edge56" class="edge">
<title>30&#45;&gt;29</title>
<path fill="none" stroke="#c0c0c0" stroke-width="2" d="M1191.9297,-863.8314C1188.6507,-855.9617 1184.738,-846.5712 1181.1055,-837.8533"/>
<polygon fill="#c0c0c0" stroke="#c0c0c0" stroke-width="2" points="1184.2492,-836.2979 1177.1722,-828.4133 1177.7876,-838.9902 1184.2492,-836.2979"/>
</g>
<!-- 31 -->
<g id="node32" class="node">
<title>31</title>
<path fill="none" stroke="#56b1d8" stroke-width="2" d="M1086.5,-972C1086.5,-972 970.5,-972 970.5,-972 964.5,-972 958.5,-966 958.5,-960 958.5,-960 958.5,-948 958.5,-948 958.5,-942 964.5,-936 970.5,-936 970.5,-936 1086.5,-936 1086.5,-936 1092.5,-936 1098.5,-942 1098.5,-948 1098.5,-948 1098.5,-960 1098.5,-960 1098.5,-966 1092.5,-972 1086.5,-972"/>
<text text-anchor="middle" x="1028.5" y="-951.5" font-family="sans" font-size="10.00" fill="#000000">shard_saturated_reads_filter</text>
</g>
<!-- 31&#45;&gt;30 -->
<g id="edge58" class="edge">
<title>31&#45;&gt;30</title>
<path fill="none" stroke="#c0c0c0" stroke-width="2" d="M1071.6505,-935.8314C1094.6224,-926.159 1123.0509,-914.1891 1147.2632,-903.9944"/>
<polygon fill="#c0c0c0" stroke="#c0c0c0" stroke-width="2" points="1148.8016,-907.1443 1156.6598,-900.038 1146.0852,-900.6929 1148.8016,-907.1443"/>
</g>
<!-- 31&#45;&gt;37 -->
<g id="edge68" class="edge">
<title>31&#45;&gt;37</title>
<path fill="none" stroke="#c0c0c0" stroke-width="2" d="M1028.5,-935.8314C1028.5,-928.131 1028.5,-918.9743 1028.5,-910.4166"/>
<polygon fill="#c0c0c0" stroke="#c0c0c0" stroke-width="2" points="1032.0001,-910.4132 1028.5,-900.4133 1025.0001,-910.4133 1032.0001,-910.4132"/>
</g>
<!-- 31&#45;&gt;40 -->
<g id="edge72" class="edge">
<title>31&#45;&gt;40</title>
<path fill="none" stroke="#c0c0c0" stroke-width="2" d="M985.3495,-935.8314C962.3776,-926.159 933.9491,-914.1891 909.7368,-903.9944"/>
<polygon fill="#c0c0c0" stroke="#c0c0c0" stroke-width="2" points="910.9148,-900.6929 900.3402,-900.038 908.1984,-907.1443 910.9148,-900.6929"/>
</g>
<!-- 78 -->
<g id="node79" class="node">
<title>78</title>
<path fill="none" stroke="#56c9d8" stroke-width="2" d="M1340,-684C1340,-684 1213,-684 1213,-684 1207,-684 1201,-678 1201,-672 1201,-672 1201,-660 1201,-660 1201,-654 1207,-648 1213,-648 1213,-648 1340,-648 1340,-648 1346,-648 1352,-654 1352,-660 1352,-660 1352,-672 1352,-672 1352,-678 1346,-684 1340,-684"/>
<text text-anchor="middle" x="1276.5" y="-663.5" font-family="sans" font-size="10.00" fill="#000000">shard_saturated_reads_extract</text>
</g>
<!-- 31&#45;&gt;78 -->
<g id="edge120" class="edge">
<title>31&#45;&gt;78</title>
<path fill="none" stroke="#c0c0c0" stroke-width="2" d="M1098.581,-948.9424C1166.1512,-942.4353 1261.4668,-928.3986 1284.5,-900 1332.908,-840.3157 1305.4557,-741.1686 1287.7869,-693.3938"/>
<polygon fill="#c0c0c0" stroke="#c0c0c0" stroke-width="2" points="1291.0393,-692.0998 1284.1959,-684.0116 1284.5018,-694.6021 1291.0393,-692.0998"/>
</g>
<!-- 32&#45;&gt;31 -->
<g id="edge59" class="edge">
<title>32&#45;&gt;31</title>
<path fill="none" stroke="#c0c0c0" stroke-width="2" d="M1018.0328,-1007.8314C1019.5301,-1000.131 1021.3105,-990.9743 1022.9745,-982.4166"/>
<polygon fill="#c0c0c0" stroke="#c0c0c0" stroke-width="2" points="1026.4465,-982.8975 1024.9196,-972.4133 1019.5752,-981.5614 1026.4465,-982.8975"/>
</g>
<!-- 33&#45;&gt;31 -->
<g id="edge60" class="edge">
<title>33&#45;&gt;31</title>
<path fill="none" stroke="#c0c0c0" stroke-width="2" d="M1130.1815,-1007.8314C1112.4641,-998.4516 1090.6655,-986.9112 1071.8016,-976.9244"/>
<polygon fill="#c0c0c0" stroke="#c0c0c0" stroke-width="2" points="1073.2831,-973.7485 1062.8076,-972.1628 1070.0078,-979.935 1073.2831,-973.7485"/>
</g>
<!-- 34&#45;&gt;31 -->
<g id="edge61" class="edge">
<title>34&#45;&gt;31</title>
<path fill="none" stroke="#c0c0c0" stroke-width="2" d="M935.0428,-1007.8314C951.1791,-998.5368 970.9986,-987.1208 988.2272,-977.1971"/>
<polygon fill="#c0c0c0" stroke="#c0c0c0" stroke-width="2" points="990.0489,-980.187 996.9673,-972.1628 986.555,-974.1212 990.0489,-980.187"/>
</g>
<!-- 35 -->
<g id="node36" class="node">
<title>35</title>
<path fill="none" stroke="#5682d8" stroke-width="2" d="M1062.5,-756C1062.5,-756 994.5,-756 994.5,-756 988.5,-756 982.5,-750 982.5,-744 982.5,-744 982.5,-732 982.5,-732 982.5,-726 988.5,-720 994.5,-720 994.5,-720 1062.5,-720 1062.5,-720 1068.5,-720 1074.5,-726 1074.5,-732 1074.5,-732 1074.5,-744 1074.5,-744 1074.5,-750 1068.5,-756 1062.5,-756"/>
<text text-anchor="middle" x="1028.5" y="-735.5" font-family="sans" font-size="10.00" fill="#000000">shard_sort_query</text>
</g>
<!-- 35&#45;&gt;27 -->
<g id="edge53" class="edge">
<title>35&#45;&gt;27</title>
<path fill="none" stroke="#c0c0c0" stroke-width="2" d="M1028.5,-719.8314C1028.5,-712.131 1028.5,-702.9743 1028.5,-694.4166"/>
<polygon fill="#c0c0c0" stroke="#c0c0c0" stroke-width="2" points="1032.0001,-694.4132 1028.5,-684.4133 1025.0001,-694.4133 1032.0001,-694.4132"/>
</g>
<!-- 36 -->
<g id="node37" class="node">
<title>36</title>
<path fill="none" stroke="#566bd8" stroke-width="2" d="M1055,-828C1055,-828 1002,-828 1002,-828 996,-828 990,-822 990,-816 990,-816 990,-804 990,-804 990,-798 996,-792 1002,-792 1002,-792 1055,-792 1055,-792 1061,-792 1067,-798 1067,-804 1067,-804 1067,-816 1067,-816 1067,-822 1061,-828 1055,-828"/>
<text text-anchor="middle" x="1028.5" y="-807.5" font-family="sans" font-size="10.00" fill="#000000">shard_unicorn</text>
</g>
<!-- 36&#45;&gt;35 -->
<g id="edge65" class="edge">
<title>36&#45;&gt;35</title>
<path fill="none" stroke="#c0c0c0" stroke-width="2" d="M1028.5,-791.8314C1028.5,-784.131 1028.5,-774.9743 1028.5,-766.4166"/>
<polygon fill="#c0c0c0" stroke="#c0c0c0" stroke-width="2" points="1032.0001,-766.4132 1028.5,-756.4133 1025.0001,-766.4133 1032.0001,-766.4132"/>
</g>
<!-- 37&#45;&gt;36 -->
<g id="edge66" class="edge">
<title>37&#45;&gt;36</title>
<path fill="none" stroke="#c0c0c0" stroke-width="2" d="M1028.5,-863.8314C1028.5,-856.131 1028.5,-846.9743 1028.5,-838.4166"/>
<polygon fill="#c0c0c0" stroke="#c0c0c0" stroke-width="2" points="1032.0001,-838.4132 1028.5,-828.4133 1025.0001,-838.4133 1032.0001,-838.4132"/>
</g>
<!-- 38 -->
<g id="node39" class="node">
<title>38</title>
<path fill="none" stroke="#5682d8" stroke-width="2" d="M922.5,-756C922.5,-756 854.5,-756 854.5,-756 848.5,-756 842.5,-750 842.5,-744 842.5,-744 842.5,-732 842.5,-732 842.5,-726 848.5,-720 854.5,-720 854.5,-720 922.5,-720 922.5,-720 928.5,-720 934.5,-726 934.5,-732 934.5,-732 934.5,-744 934.5,-744 934.5,-750 928.5,-756 922.5,-756"/>
<text text-anchor="middle" x="888.5" y="-735.5" font-family="sans" font-size="10.00" fill="#000000">shard_sort_query</text>
</g>
<!-- 38&#45;&gt;27 -->
<g id="edge54" class="edge">
<title>38&#45;&gt;27</title>
<path fill="none" stroke="#c0c0c0" stroke-width="2" d="M923.8279,-719.8314C942.2891,-710.337 965.0548,-698.6289 984.635,-688.5591"/>
<polygon fill="#c0c0c0" stroke="#c0c0c0" stroke-width="2" points="986.3762,-691.5995 993.6684,-683.9134 983.1747,-685.3744 986.3762,-691.5995"/>
</g>
<!-- 39 -->
<g id="node40" class="node">
<title>39</title>
<path fill="none" stroke="#566bd8" stroke-width="2" d="M899,-828C899,-828 846,-828 846,-828 840,-828 834,-822 834,-816 834,-816 834,-804 834,-804 834,-798 840,-792 846,-792 846,-792 899,-792 899,-792 905,-792 911,-798 911,-804 911,-804 911,-816 911,-816 911,-822 905,-828 899,-828"/>
<text text-anchor="middle" x="872.5" y="-807.5" font-family="sans" font-size="10.00" fill="#000000">shard_unicorn</text>
</g>
<!-- 39&#45;&gt;38 -->
<g id="edge69" class="edge">
<title>39&#45;&gt;38</title>
<path fill="none" stroke="#c0c0c0" stroke-width="2" d="M876.5375,-791.8314C878.2487,-784.131 880.2835,-774.9743 882.1852,-766.4166"/>
<polygon fill="#c0c0c0" stroke="#c0c0c0" stroke-width="2" points="885.6554,-766.9344 884.4082,-756.4133 878.8221,-765.4159 885.6554,-766.9344"/>
</g>
<!-- 40&#45;&gt;39 -->
<g id="edge70" class="edge">
<title>40&#45;&gt;39</title>
<path fill="none" stroke="#c0c0c0" stroke-width="2" d="M861.2851,-863.8314C862.8894,-856.131 864.797,-846.9743 866.5799,-838.4166"/>
<polygon fill="#c0c0c0" stroke="#c0c0c0" stroke-width="2" points="870.0507,-838.9169 868.6639,-828.4133 863.1979,-837.4892 870.0507,-838.9169"/>
</g>
<!-- 41 -->
<g id="node42" class="node">
<title>41</title>
<path fill="none" stroke="#ced856" stroke-width="2" d="M1214.5,-396C1214.5,-396 1174.5,-396 1174.5,-396 1168.5,-396 1162.5,-390 1162.5,-384 1162.5,-384 1162.5,-372 1162.5,-372 1162.5,-366 1168.5,-360 1174.5,-360 1174.5,-360 1214.5,-360 1214.5,-360 1220.5,-360 1226.5,-366 1226.5,-372 1226.5,-372 1226.5,-384 1226.5,-384 1226.5,-390 1220.5,-396 1214.5,-396"/>
<text text-anchor="middle" x="1194.5" y="-375.5" font-family="sans" font-size="10.00" fill="#000000">align_stats</text>
</g>
<!-- 41&#45;&gt;1 -->
<g id="edge22" class="edge">
<title>41&#45;&gt;1</title>
<path fill="none" stroke="#c0c0c0" stroke-width="2" d="M1191.8049,-359.8796C1184.0478,-310.2082 1160.1182,-173.61 1127.5,-144 1090.5253,-110.4353 942.6414,-96.7827 872.1894,-92.0996"/>
<polygon fill="#c0c0c0" stroke="#c0c0c0" stroke-width="2" points="872.1798,-88.5919 861.9771,-91.4478 871.7339,-95.5777 872.1798,-88.5919"/>
</g>
<!-- 42 -->
<g id="node43" class="node">
<title>42</title>
<path fill="none" stroke="#d88556" stroke-width="2" d="M1667,-684C1667,-684 1622,-684 1622,-684 1616,-684 1610,-678 1610,-672 1610,-672 1610,-660 1610,-660 1610,-654 1616,-648 1622,-648 1622,-648 1667,-648 1667,-648 1673,-648 1679,-654 1679,-660 1679,-660 1679,-672 1679,-672 1679,-678 1673,-684 1667,-684"/>
<text text-anchor="middle" x="1644.5" y="-663.5" font-family="sans" font-size="10.00" fill="#000000">align_merge</text>
</g>
<!-- 42&#45;&gt;41 -->
<g id="edge73" class="edge">
<title>42&#45;&gt;41</title>
<path fill="none" stroke="#c0c0c0" stroke-width="2" d="M1616.3505,-647.9843C1538.2199,-597.9807 1318.6854,-457.4787 1231.1767,-401.4731"/>
<polygon fill="#c0c0c0" stroke="#c0c0c0" stroke-width="2" points="1232.9483,-398.4515 1222.6389,-396.0089 1229.1749,-404.3474 1232.9483,-398.4515"/>
</g>
<!-- 73 -->
<g id="node74" class="node">
<title>73</title>
<path fill="none" stroke="#d8b456" stroke-width="2" d="M1676.5,-612C1676.5,-612 1612.5,-612 1612.5,-612 1606.5,-612 1600.5,-606 1600.5,-600 1600.5,-600 1600.5,-588 1600.5,-588 1600.5,-582 1606.5,-576 1612.5,-576 1612.5,-576 1676.5,-576 1676.5,-576 1682.5,-576 1688.5,-582 1688.5,-588 1688.5,-588 1688.5,-600 1688.5,-600 1688.5,-606 1682.5,-612 1676.5,-612"/>
<text text-anchor="middle" x="1644.5" y="-591.5" font-family="sans" font-size="10.00" fill="#000000">align_sort_coord</text>
</g>
<!-- 42&#45;&gt;73 -->
<g id="edge112" class="edge">
<title>42&#45;&gt;73</title>
<path fill="none" stroke="#c0c0c0" stroke-width="2" d="M1644.5,-647.8314C1644.5,-640.131 1644.5,-630.9743 1644.5,-622.4166"/>
<polygon fill="#c0c0c0" stroke="#c0c0c0" stroke-width="2" points="1648.0001,-622.4132 1644.5,-612.4133 1641.0001,-622.4133 1648.0001,-622.4132"/>
</g>
<!-- 43 -->
<g id="node44" class="node">
<title>43</title>
<path fill="none" stroke="#5682d8" stroke-width="2" d="M1823.5,-756C1823.5,-756 1755.5,-756 1755.5,-756 1749.5,-756 1743.5,-750 1743.5,-744 1743.5,-744 1743.5,-732 1743.5,-732 1743.5,-726 1749.5,-720 1755.5,-720 1755.5,-720 1823.5,-720 1823.5,-720 1829.5,-720 1835.5,-726 1835.5,-732 1835.5,-732 1835.5,-744 1835.5,-744 1835.5,-750 1829.5,-756 1823.5,-756"/>
<text text-anchor="middle" x="1789.5" y="-735.5" font-family="sans" font-size="10.00" fill="#000000">shard_sort_query</text>
</g>
<!-- 43&#45;&gt;42 -->
<g id="edge74" class="edge">
<title>43&#45;&gt;42</title>
<path fill="none" stroke="#c0c0c0" stroke-width="2" d="M1752.9104,-719.8314C1733.2668,-710.0773 1708.9177,-697.9867 1688.2749,-687.7365"/>
<polygon fill="#c0c0c0" stroke="#c0c0c0" stroke-width="2" points="1689.5946,-684.4841 1679.0814,-683.1715 1686.4814,-690.7537 1689.5946,-684.4841"/>
</g>
<!-- 44 -->
<g id="node45" class="node">
<title>44</title>
<path fill="none" stroke="#566bd8" stroke-width="2" d="M1834,-828C1834,-828 1781,-828 1781,-828 1775,-828 1769,-822 1769,-816 1769,-816 1769,-804 1769,-804 1769,-798 1775,-792 1781,-792 1781,-792 1834,-792 1834,-792 1840,-792 1846,-798 1846,-804 1846,-804 1846,-816 1846,-816 1846,-822 1840,-828 1834,-828"/>
<text text-anchor="middle" x="1807.5" y="-807.5" font-family="sans" font-size="10.00" fill="#000000">shard_unicorn</text>
</g>
<!-- 44&#45;&gt;43 -->
<g id="edge77" class="edge">
<title>44&#45;&gt;43</title>
<path fill="none" stroke="#c0c0c0" stroke-width="2" d="M1802.9578,-791.8314C1801.0116,-784.0463 1798.6932,-774.7729 1796.5337,-766.1347"/>
<polygon fill="#c0c0c0" stroke="#c0c0c0" stroke-width="2" points="1799.9242,-765.2658 1794.1033,-756.4133 1793.1332,-766.9636 1799.9242,-765.2658"/>
</g>
<!-- 45&#45;&gt;44 -->
<g id="edge78" class="edge">
<title>45&#45;&gt;44</title>
<path fill="none" stroke="#c0c0c0" stroke-width="2" d="M1822.4532,-863.8314C1820.2906,-856.0463 1817.7147,-846.7729 1815.3152,-838.1347"/>
<polygon fill="#c0c0c0" stroke="#c0c0c0" stroke-width="2" points="1818.6636,-837.1117 1812.6148,-828.4133 1811.919,-838.9852 1818.6636,-837.1117"/>
</g>
<!-- 46 -->
<g id="node47" class="node">
<title>46</title>
<path fill="none" stroke="#56b1d8" stroke-width="2" d="M1744.5,-972C1744.5,-972 1628.5,-972 1628.5,-972 1622.5,-972 1616.5,-966 1616.5,-960 1616.5,-960 1616.5,-948 1616.5,-948 1616.5,-942 1622.5,-936 1628.5,-936 1628.5,-936 1744.5,-936 1744.5,-936 1750.5,-936 1756.5,-942 1756.5,-948 1756.5,-948 1756.5,-960 1756.5,-960 1756.5,-966 1750.5,-972 1744.5,-972"/>
<text text-anchor="middle" x="1686.5" y="-951.5" font-family="sans" font-size="10.00" fill="#000000">shard_saturated_reads_filter</text>
</g>
<!-- 46&#45;&gt;45 -->
<g id="edge80" class="edge">
<title>46&#45;&gt;45</title>
<path fill="none" stroke="#c0c0c0" stroke-width="2" d="M1722.0803,-935.8314C1740.5325,-926.4089 1763.2545,-914.8062 1782.873,-904.7883"/>
<polygon fill="#c0c0c0" stroke="#c0c0c0" stroke-width="2" points="1784.6168,-907.8278 1791.9311,-900.1628 1781.4333,-901.5935 1784.6168,-907.8278"/>
</g>
<!-- 46&#45;&gt;52 -->
<g id="edge90" class="edge">
<title>46&#45;&gt;52</title>
<path fill="none" stroke="#c0c0c0" stroke-width="2" d="M1636.0387,-935.9243C1608.5608,-926.0815 1574.3828,-913.8386 1545.5412,-903.5073"/>
<polygon fill="#c0c0c0" stroke="#c0c0c0" stroke-width="2" points="1546.5767,-900.1605 1535.9821,-900.0831 1544.216,-906.7505 1546.5767,-900.1605"/>
</g>
<!-- 46&#45;&gt;55 -->
<g id="edge94" class="edge">
<title>46&#45;&gt;55</title>
<path fill="none" stroke="#c0c0c0" stroke-width="2" d="M1678.9297,-935.8314C1675.6507,-927.9617 1671.738,-918.5712 1668.1055,-909.8533"/>
<polygon fill="#c0c0c0" stroke="#c0c0c0" stroke-width="2" points="1671.2492,-908.2979 1664.1722,-900.4133 1664.7876,-910.9902 1671.2492,-908.2979"/>
</g>
<!-- 79 -->
<g id="node80" class="node">
<title>79</title>
<path fill="none" stroke="#56c9d8" stroke-width="2" d="M1962,-612C1962,-612 1835,-612 1835,-612 1829,-612 1823,-606 1823,-600 1823,-600 1823,-588 1823,-588 1823,-582 1829,-576 1835,-576 1835,-576 1962,-576 1962,-576 1968,-576 1974,-582 1974,-588 1974,-588 1974,-600 1974,-600 1974,-606 1968,-612 1962,-612"/>
<text text-anchor="middle" x="1898.5" y="-591.5" font-family="sans" font-size="10.00" fill="#000000">shard_saturated_reads_extract</text>
</g>
<!-- 46&#45;&gt;79 -->
<g id="edge121" class="edge">
<title>46&#45;&gt;79</title>
<path fill="none" stroke="#c0c0c0" stroke-width="2" d="M1756.6655,-945.5862C1815.0102,-937.1449 1891.868,-922.1905 1913.5,-900 1942.0369,-870.7263 1932.5,-850.8816 1932.5,-810 1932.5,-810 1932.5,-810 1932.5,-738 1932.5,-696.8199 1919.1668,-650.7455 1909.1995,-622.0555"/>
<polygon fill="#c0c0c0" stroke="#c0c0c0" stroke-width="2" points="1912.3773,-620.5477 1905.7105,-612.3133 1905.7871,-622.9079 1912.3773,-620.5477"/>
</g>
<!-- 47&#45;&gt;46 -->
<g id="edge81" class="edge">
<title>47&#45;&gt;46</title>
<path fill="none" stroke="#c0c0c0" stroke-width="2" d="M1603.51,-1007.8314C1617.5761,-998.7074 1634.794,-987.539 1649.8933,-977.7449"/>
<polygon fill="#c0c0c0" stroke="#c0c0c0" stroke-width="2" points="1652.014,-980.5412 1658.499,-972.1628 1648.2047,-974.6684 1652.014,-980.5412"/>
</g>
<!-- 48&#45;&gt;46 -->
<g id="edge82" class="edge">
<title>48&#45;&gt;46</title>
<path fill="none" stroke="#c0c0c0" stroke-width="2" d="M1769.49,-1007.8314C1755.4239,-998.7074 1738.206,-987.539 1723.1067,-977.7449"/>
<polygon fill="#c0c0c0" stroke="#c0c0c0" stroke-width="2" points="1724.7953,-974.6684 1714.501,-972.1628 1720.986,-980.5412 1724.7953,-974.6684"/>
</g>
<!-- 49&#45;&gt;46 -->
<g id="edge83" class="edge">
<title>49&#45;&gt;46</title>
<path fill="none" stroke="#c0c0c0" stroke-width="2" d="M1686.5,-1007.8314C1686.5,-1000.131 1686.5,-990.9743 1686.5,-982.4166"/>
<polygon fill="#c0c0c0" stroke="#c0c0c0" stroke-width="2" points="1690.0001,-982.4132 1686.5,-972.4133 1683.0001,-982.4133 1690.0001,-982.4132"/>
</g>
<!-- 50 -->
<g id="node51" class="node">
<title>50</title>
<path fill="none" stroke="#5682d8" stroke-width="2" d="M1543.5,-756C1543.5,-756 1475.5,-756 1475.5,-756 1469.5,-756 1463.5,-750 1463.5,-744 1463.5,-744 1463.5,-732 1463.5,-732 1463.5,-726 1469.5,-720 1475.5,-720 1475.5,-720 1543.5,-720 1543.5,-720 1549.5,-720 1555.5,-726 1555.5,-732 1555.5,-732 1555.5,-744 1555.5,-744 1555.5,-750 1549.5,-756 1543.5,-756"/>
<text text-anchor="middle" x="1509.5" y="-735.5" font-family="sans" font-size="10.00" fill="#000000">shard_sort_query</text>
</g>
<!-- 50&#45;&gt;42 -->
<g id="edge75" class="edge">
<title>50&#45;&gt;42</title>
<path fill="none" stroke="#c0c0c0" stroke-width="2" d="M1543.5662,-719.8314C1561.1533,-710.4516 1582.7916,-698.9112 1601.5168,-688.9244"/>
<polygon fill="#c0c0c0" stroke="#c0c0c0" stroke-width="2" points="1603.2682,-691.957 1610.4447,-684.1628 1599.9741,-685.7805 1603.2682,-691.957"/>
</g>
<!-- 51 -->
<g id="node52" class="node">
<title>51</title>
<path fill="none" stroke="#566bd8" stroke-width="2" d="M1524,-828C1524,-828 1471,-828 1471,-828 1465,-828 1459,-822 1459,-816 1459,-816 1459,-804 1459,-804 1459,-798 1465,-792 1471,-792 1471,-792 1524,-792 1524,-792 1530,-792 1536,-798 1536,-804 1536,-804 1536,-816 1536,-816 1536,-822 1530,-828 1524,-828"/>
<text text-anchor="middle" x="1497.5" y="-807.5" font-family="sans" font-size="10.00" fill="#000000">shard_unicorn</text>
</g>
<!-- 51&#45;&gt;50 -->
<g id="edge87" class="edge">
<title>51&#45;&gt;50</title>
<path fill="none" stroke="#c0c0c0" stroke-width="2" d="M1500.5281,-791.8314C1501.8115,-784.131 1503.3376,-774.9743 1504.7639,-766.4166"/>
<polygon fill="#c0c0c0" stroke="#c0c0c0" stroke-width="2" points="1508.2394,-766.8526 1506.4311,-756.4133 1501.3347,-765.7018 1508.2394,-766.8526"/>
</g>
<!-- 52&#45;&gt;51 -->
<g id="edge88" class="edge">
<title>52&#45;&gt;51</title>
<path fill="none" stroke="#c0c0c0" stroke-width="2" d="M1488.5281,-863.8314C1489.8115,-856.131 1491.3376,-846.9743 1492.7639,-838.4166"/>
<polygon fill="#c0c0c0" stroke="#c0c0c0" stroke-width="2" points="1496.2394,-838.8526 1494.4311,-828.4133 1489.3347,-837.7018 1496.2394,-838.8526"/>
</g>
<!-- 53 -->
<g id="node54" class="node">
<title>53</title>
<path fill="none" stroke="#5682d8" stroke-width="2" d="M1683.5,-756C1683.5,-756 1615.5,-756 1615.5,-756 1609.5,-756 1603.5,-750 1603.5,-744 1603.5,-744 1603.5,-732 1603.5,-732 1603.5,-726 1609.5,-720 1615.5,-720 1615.5,-720 1683.5,-720 1683.5,-720 1689.5,-720 1695.5,-726 1695.5,-732 1695.5,-732 1695.5,-744 1695.5,-744 1695.5,-750 1689.5,-756 1683.5,-756"/>
<text text-anchor="middle" x="1649.5" y="-735.5" font-family="sans" font-size="10.00" fill="#000000">shard_sort_query</text>
</g>
<!-- 53&#45;&gt;42 -->
<g id="edge76" class="edge">
<title>53&#45;&gt;42</title>
<path fill="none" stroke="#c0c0c0" stroke-width="2" d="M1648.2383,-719.8314C1647.7035,-712.131 1647.0677,-702.9743 1646.4734,-694.4166"/>
<polygon fill="#c0c0c0" stroke="#c0c0c0" stroke-width="2" points="1649.9632,-694.1467 1645.7787,-684.4133 1642.98,-694.6317 1649.9632,-694.1467"/>
</g>
<!-- 54 -->
<g id="node55" class="node">
<title>54</title>
<path fill="none" stroke="#566bd8" stroke-width="2" d="M1677,-828C1677,-828 1624,-828 1624,-828 1618,-828 1612,-822 1612,-816 1612,-816 1612,-804 1612,-804 1612,-798 1618,-792 1624,-792 1624,-792 1677,-792 1677,-792 1683,-792 1689,-798 1689,-804 1689,-804 1689,-816 1689,-816 1689,-822 1683,-828 1677,-828"/>
<text text-anchor="middle" x="1650.5" y="-807.5" font-family="sans" font-size="10.00" fill="#000000">shard_unicorn</text>
</g>
<!-- 54&#45;&gt;53 -->
<g id="edge91" class="edge">
<title>54&#45;&gt;53</title>
<path fill="none" stroke="#c0c0c0" stroke-width="2" d="M1650.2477,-791.8314C1650.1407,-784.131 1650.0135,-774.9743 1649.8947,-766.4166"/>
<polygon fill="#c0c0c0" stroke="#c0c0c0" stroke-width="2" points="1653.3944,-766.3637 1649.7557,-756.4133 1646.3951,-766.4609 1653.3944,-766.3637"/>
</g>
<!-- 55&#45;&gt;54 -->
<g id="edge92" class="edge">
<title>55&#45;&gt;54</title>
<path fill="none" stroke="#c0c0c0" stroke-width="2" d="M1654.9859,-863.8314C1654.3442,-856.131 1653.5812,-846.9743 1652.8681,-838.4166"/>
<polygon fill="#c0c0c0" stroke="#c0c0c0" stroke-width="2" points="1656.3529,-838.088 1652.0344,-828.4133 1649.3771,-838.6694 1656.3529,-838.088"/>
</g>
<!-- 56 -->
<g id="node57" class="node">
<title>56</title>
<path fill="none" stroke="#70d856" stroke-width="2" d="M408.5,-252C408.5,-252 356.5,-252 356.5,-252 350.5,-252 344.5,-246 344.5,-240 344.5,-240 344.5,-228 344.5,-228 344.5,-222 350.5,-216 356.5,-216 356.5,-216 408.5,-216 408.5,-216 414.5,-216 420.5,-222 420.5,-228 420.5,-228 420.5,-240 420.5,-240 420.5,-246 414.5,-252 408.5,-252"/>
<text text-anchor="middle" x="382.5" y="-231.5" font-family="sans" font-size="10.00" fill="#000000">metadmg_dfit</text>
</g>
<!-- 56&#45;&gt;1 -->
<g id="edge23" class="edge">
<title>56&#45;&gt;1</title>
<path fill="none" stroke="#c0c0c0" stroke-width="2" d="M402.0831,-215.9143C425.8436,-195.0568 468.0199,-161.4112 510.5,-144 562.0497,-122.8714 723.6531,-102.5381 797.2845,-94.0944"/>
<polygon fill="#c0c0c0" stroke="#c0c0c0" stroke-width="2" points="797.9449,-97.542 807.4862,-92.9362 797.1552,-90.5867 797.9449,-97.542"/>
</g>
<!-- 74 -->
<g id="node75" class="node">
<title>74</title>
<path fill="none" stroke="#9fd856" stroke-width="2" d="M408,-180C408,-180 327,-180 327,-180 321,-180 315,-174 315,-168 315,-168 315,-156 315,-156 315,-150 321,-144 327,-144 327,-144 408,-144 408,-144 414,-144 420,-150 420,-156 420,-156 420,-168 420,-168 420,-174 414,-180 408,-180"/>
<text text-anchor="middle" x="367.5" y="-159.5" font-family="sans" font-size="10.00" fill="#000000">metadmg_aggregate</text>
</g>
<!-- 56&#45;&gt;74 -->
<g id="edge114" class="edge">
<title>56&#45;&gt;74</title>
<path fill="none" stroke="#c0c0c0" stroke-width="2" d="M378.7149,-215.8314C377.1106,-208.131 375.203,-198.9743 373.4201,-190.4166"/>
<polygon fill="#c0c0c0" stroke="#c0c0c0" stroke-width="2" points="376.8021,-189.4892 371.3361,-180.4133 369.9493,-190.9169 376.8021,-189.4892"/>
</g>
<!-- 57 -->
<g id="node58" class="node">
<title>57</title>
<path fill="none" stroke="#59d856" stroke-width="2" d="M370,-324C370,-324 319,-324 319,-324 313,-324 307,-318 307,-312 307,-312 307,-300 307,-300 307,-294 313,-288 319,-288 319,-288 370,-288 370,-288 376,-288 382,-294 382,-300 382,-300 382,-312 382,-312 382,-318 376,-324 370,-324"/>
<text text-anchor="middle" x="344.5" y="-303.5" font-family="sans" font-size="10.00" fill="#000000">metadmg_lca</text>
</g>
<!-- 57&#45;&gt;56 -->
<g id="edge95" class="edge">
<title>57&#45;&gt;56</title>
<path fill="none" stroke="#c0c0c0" stroke-width="2" d="M354.089,-287.8314C358.3317,-279.7925 363.4121,-270.1666 368.096,-261.2918"/>
<polygon fill="#c0c0c0" stroke="#c0c0c0" stroke-width="2" points="371.2096,-262.8908 372.7819,-252.4133 365.0189,-259.6235 371.2096,-262.8908"/>
</g>
<!-- 57&#45;&gt;74 -->
<g id="edge113" class="edge">
<title>57&#45;&gt;74</title>
<path fill="none" stroke="#c0c0c0" stroke-width="2" d="M338.8509,-287.746C334.0353,-269.3297 328.8596,-240.2313 335.5,-216 338.0805,-206.5837 342.7742,-197.1443 347.7859,-188.8513"/>
<polygon fill="#c0c0c0" stroke="#c0c0c0" stroke-width="2" points="350.7851,-190.6585 353.2641,-180.3577 344.9026,-186.8644 350.7851,-190.6585"/>
</g>
<!-- 58 -->
<g id="node59" class="node">
<title>58</title>
<path fill="none" stroke="#d8cb56" stroke-width="2" d="M347.5,-396C347.5,-396 283.5,-396 283.5,-396 277.5,-396 271.5,-390 271.5,-384 271.5,-384 271.5,-372 271.5,-372 271.5,-366 277.5,-360 283.5,-360 283.5,-360 347.5,-360 347.5,-360 353.5,-360 359.5,-366 359.5,-372 359.5,-372 359.5,-384 359.5,-384 359.5,-390 353.5,-396 347.5,-396"/>
<text text-anchor="middle" x="315.5" y="-375.5" font-family="sans" font-size="10.00" fill="#000000">align_sort_query</text>
</g>
<!-- 58&#45;&gt;57 -->
<g id="edge96" class="edge">
<title>58&#45;&gt;57</title>
<path fill="none" stroke="#c0c0c0" stroke-width="2" d="M322.8179,-359.8314C325.9876,-351.9617 329.77,-342.5712 333.2813,-333.8533"/>
<polygon fill="#c0c0c0" stroke="#c0c0c0" stroke-width="2" points="336.5939,-334.9968 337.0835,-324.4133 330.1008,-332.3815 336.5939,-334.9968"/>
</g>
<!-- 80 -->
<g id="node81" class="node">
<title>80</title>
<path fill="none" stroke="#88d856" stroke-width="2" d="M381,-108C381,-108 308,-108 308,-108 302,-108 296,-102 296,-96 296,-96 296,-84 296,-84 296,-78 302,-72 308,-72 308,-72 381,-72 381,-72 387,-72 393,-78 393,-84 393,-84 393,-96 393,-96 393,-102 387,-108 381,-108"/>
<text text-anchor="middle" x="344.5" y="-87.5" font-family="sans" font-size="10.00" fill="#000000">metadmg_damage</text>
</g>
<!-- 58&#45;&gt;80 -->
<g id="edge122" class="edge">
<title>58&#45;&gt;80</title>
<path fill="none" stroke="#c0c0c0" stroke-width="2" d="M307.8321,-359.8756C303.8861,-349.5642 299.4945,-336.2907 297.5,-324 289.8955,-277.1387 286.5891,-197.3767 305.5,-144 308.9395,-134.2918 314.7062,-124.8027 320.7645,-116.5552"/>
<polygon fill="#c0c0c0" stroke="#c0c0c0" stroke-width="2" points="323.6969,-118.487 327.098,-108.4529 318.1819,-114.1759 323.6969,-118.487"/>
</g>
<!-- 59 -->
<g id="node60" class="node">
<title>59</title>
<path fill="none" stroke="#d85656" stroke-width="2" d="M334,-468C334,-468 297,-468 297,-468 291,-468 285,-462 285,-456 285,-456 285,-444 285,-444 285,-438 291,-432 297,-432 297,-432 334,-432 334,-432 340,-432 346,-438 346,-444 346,-444 346,-456 346,-456 346,-462 340,-468 334,-468"/>
<text text-anchor="middle" x="315.5" y="-447.5" font-family="sans" font-size="10.00" fill="#000000">align_filter</text>
</g>
<!-- 59&#45;&gt;58 -->
<g id="edge97" class="edge">
<title>59&#45;&gt;58</title>
<path fill="none" stroke="#c0c0c0" stroke-width="2" d="M315.5,-431.8314C315.5,-424.131 315.5,-414.9743 315.5,-406.4166"/>
<polygon fill="#c0c0c0" stroke="#c0c0c0" stroke-width="2" points="319.0001,-406.4132 315.5,-396.4133 312.0001,-406.4133 319.0001,-406.4132"/>
</g>
<!-- 60 -->
<g id="node61" class="node">
<title>60</title>
<path fill="none" stroke="#d89c56" stroke-width="2" d="M343,-540C343,-540 288,-540 288,-540 282,-540 276,-534 276,-528 276,-528 276,-516 276,-516 276,-510 282,-504 288,-504 288,-504 343,-504 343,-504 349,-504 355,-510 355,-516 355,-516 355,-528 355,-528 355,-534 349,-540 343,-540"/>
<text text-anchor="middle" x="315.5" y="-519.5" font-family="sans" font-size="10.00" fill="#000000">align_reassign</text>
</g>
<!-- 60&#45;&gt;59 -->
<g id="edge98" class="edge">
<title>60&#45;&gt;59</title>
<path fill="none" stroke="#c0c0c0" stroke-width="2" d="M315.5,-503.8314C315.5,-496.131 315.5,-486.9743 315.5,-478.4166"/>
<polygon fill="#c0c0c0" stroke="#c0c0c0" stroke-width="2" points="319.0001,-478.4132 315.5,-468.4133 312.0001,-478.4133 319.0001,-478.4132"/>
</g>
<!-- 61&#45;&gt;60 -->
<g id="edge99" class="edge">
<title>61&#45;&gt;60</title>
<path fill="none" stroke="#c0c0c0" stroke-width="2" d="M315.5,-575.8314C315.5,-568.131 315.5,-558.9743 315.5,-550.4166"/>
<polygon fill="#c0c0c0" stroke="#c0c0c0" stroke-width="2" points="319.0001,-550.4132 315.5,-540.4133 312.0001,-550.4133 319.0001,-550.4132"/>
</g>
<!-- 62 -->
<g id="node63" class="node">
<title>62</title>
<path fill="none" stroke="#70d856" stroke-width="2" d="M1039.5,-252C1039.5,-252 987.5,-252 987.5,-252 981.5,-252 975.5,-246 975.5,-240 975.5,-240 975.5,-228 975.5,-228 975.5,-222 981.5,-216 987.5,-216 987.5,-216 1039.5,-216 1039.5,-216 1045.5,-216 1051.5,-222 1051.5,-228 1051.5,-228 1051.5,-240 1051.5,-240 1051.5,-246 1045.5,-252 1039.5,-252"/>
<text text-anchor="middle" x="1013.5" y="-231.5" font-family="sans" font-size="10.00" fill="#000000">metadmg_dfit</text>
</g>
<!-- 62&#45;&gt;1 -->
<g id="edge24" class="edge">
<title>62&#45;&gt;1</title>
<path fill="none" stroke="#c0c0c0" stroke-width="2" d="M1007.0557,-215.8114C999.1374,-195.8012 983.9325,-163.8524 961.5,-144 935.7268,-121.1911 898.89,-106.9769 871.5208,-98.8937"/>
<polygon fill="#c0c0c0" stroke="#c0c0c0" stroke-width="2" points="872.1116,-95.4243 861.5377,-96.0908 870.2193,-102.1637 872.1116,-95.4243"/>
</g>
<!-- 75 -->
<g id="node76" class="node">
<title>75</title>
<path fill="none" stroke="#9fd856" stroke-width="2" d="M1107,-180C1107,-180 1026,-180 1026,-180 1020,-180 1014,-174 1014,-168 1014,-168 1014,-156 1014,-156 1014,-150 1020,-144 1026,-144 1026,-144 1107,-144 1107,-144 1113,-144 1119,-150 1119,-156 1119,-156 1119,-168 1119,-168 1119,-174 1113,-180 1107,-180"/>
<text text-anchor="middle" x="1066.5" y="-159.5" font-family="sans" font-size="10.00" fill="#000000">metadmg_aggregate</text>
</g>
<!-- 62&#45;&gt;75 -->
<g id="edge116" class="edge">
<title>62&#45;&gt;75</title>
<path fill="none" stroke="#c0c0c0" stroke-width="2" d="M1026.8741,-215.8314C1032.9162,-207.6232 1040.1763,-197.7606 1046.8221,-188.7323"/>
<polygon fill="#c0c0c0" stroke="#c0c0c0" stroke-width="2" points="1049.8363,-190.5415 1052.9458,-180.4133 1044.1989,-186.3918 1049.8363,-190.5415"/>
</g>
<!-- 63 -->
<g id="node64" class="node">
<title>63</title>
<path fill="none" stroke="#59d856" stroke-width="2" d="M1060,-324C1060,-324 1009,-324 1009,-324 1003,-324 997,-318 997,-312 997,-312 997,-300 997,-300 997,-294 1003,-288 1009,-288 1009,-288 1060,-288 1060,-288 1066,-288 1072,-294 1072,-300 1072,-300 1072,-312 1072,-312 1072,-318 1066,-324 1060,-324"/>
<text text-anchor="middle" x="1034.5" y="-303.5" font-family="sans" font-size="10.00" fill="#000000">metadmg_lca</text>
</g>
<!-- 63&#45;&gt;62 -->
<g id="edge101" class="edge">
<title>63&#45;&gt;62</title>
<path fill="none" stroke="#c0c0c0" stroke-width="2" d="M1029.2008,-287.8314C1026.9302,-280.0463 1024.2254,-270.7729 1021.706,-262.1347"/>
<polygon fill="#c0c0c0" stroke="#c0c0c0" stroke-width="2" points="1025.0306,-261.0332 1018.8705,-252.4133 1018.3106,-262.9933 1025.0306,-261.0332"/>
</g>
<!-- 63&#45;&gt;75 -->
<g id="edge115" class="edge">
<title>63&#45;&gt;75</title>
<path fill="none" stroke="#c0c0c0" stroke-width="2" d="M1045.487,-287.6861C1051.0096,-277.5358 1057.2124,-264.4764 1060.5,-252 1065.8119,-231.8412 1067.2217,-208.3105 1067.3514,-190.3661"/>
<polygon fill="#c0c0c0" stroke="#c0c0c0" stroke-width="2" points="1070.8508,-190.2354 1067.2949,-180.2552 1063.8509,-190.2746 1070.8508,-190.2354"/>
</g>
<!-- 64 -->
<g id="node65" class="node">
<title>64</title>
<path fill="none" stroke="#d8cb56" stroke-width="2" d="M1066.5,-396C1066.5,-396 1002.5,-396 1002.5,-396 996.5,-396 990.5,-390 990.5,-384 990.5,-384 990.5,-372 990.5,-372 990.5,-366 996.5,-360 1002.5,-360 1002.5,-360 1066.5,-360 1066.5,-360 1072.5,-360 1078.5,-366 1078.5,-372 1078.5,-372 1078.5,-384 1078.5,-384 1078.5,-390 1072.5,-396 1066.5,-396"/>
<text text-anchor="middle" x="1034.5" y="-375.5" font-family="sans" font-size="10.00" fill="#000000">align_sort_query</text>
</g>
<!-- 64&#45;&gt;63 -->
<g id="edge102" class="edge">
<title>64&#45;&gt;63</title>
<path fill="none" stroke="#c0c0c0" stroke-width="2" d="M1034.5,-359.8314C1034.5,-352.131 1034.5,-342.9743 1034.5,-334.4166"/>
<polygon fill="#c0c0c0" stroke="#c0c0c0" stroke-width="2" points="1038.0001,-334.4132 1034.5,-324.4133 1031.0001,-334.4133 1038.0001,-334.4132"/>
</g>
<!-- 81 -->
<g id="node82" class="node">
<title>81</title>
<path fill="none" stroke="#88d856" stroke-width="2" d="M1299,-252C1299,-252 1226,-252 1226,-252 1220,-252 1214,-246 1214,-240 1214,-240 1214,-228 1214,-228 1214,-222 1220,-216 1226,-216 1226,-216 1299,-216 1299,-216 1305,-216 1311,-222 1311,-228 1311,-228 1311,-240 1311,-240 1311,-246 1305,-252 1299,-252"/>
<text text-anchor="middle" x="1262.5" y="-231.5" font-family="sans" font-size="10.00" fill="#000000">metadmg_damage</text>
</g>
<!-- 64&#45;&gt;81 -->
<g id="edge123" class="edge">
<title>64&#45;&gt;81</title>
<path fill="none" stroke="#c0c0c0" stroke-width="2" d="M1063.3764,-359.7623C1104.4921,-333.7945 1179.93,-286.1495 1225.221,-257.5446"/>
<polygon fill="#c0c0c0" stroke="#c0c0c0" stroke-width="2" points="1227.2722,-260.3888 1233.8581,-252.0896 1223.5342,-254.4704 1227.2722,-260.3888"/>
</g>
<!-- 65 -->
<g id="node66" class="node">
<title>65</title>
<path fill="none" stroke="#d85656" stroke-width="2" d="M1053,-468C1053,-468 1016,-468 1016,-468 1010,-468 1004,-462 1004,-456 1004,-456 1004,-444 1004,-444 1004,-438 1010,-432 1016,-432 1016,-432 1053,-432 1053,-432 1059,-432 1065,-438 1065,-444 1065,-444 1065,-456 1065,-456 1065,-462 1059,-468 1053,-468"/>
<text text-anchor="middle" x="1034.5" y="-447.5" font-family="sans" font-size="10.00" fill="#000000">align_filter</text>
</g>
<!-- 65&#45;&gt;64 -->
<g id="edge103" class="edge">
<title>65&#45;&gt;64</title>
<path fill="none" stroke="#c0c0c0" stroke-width="2" d="M1034.5,-431.8314C1034.5,-424.131 1034.5,-414.9743 1034.5,-406.4166"/>
<polygon fill="#c0c0c0" stroke="#c0c0c0" stroke-width="2" points="1038.0001,-406.4132 1034.5,-396.4133 1031.0001,-406.4133 1038.0001,-406.4132"/>
</g>
<!-- 66 -->
<g id="node67" class="node">
<title>66</title>
<path fill="none" stroke="#d89c56" stroke-width="2" d="M1061,-540C1061,-540 1006,-540 1006,-540 1000,-540 994,-534 994,-528 994,-528 994,-516 994,-516 994,-510 1000,-504 1006,-504 1006,-504 1061,-504 1061,-504 1067,-504 1073,-510 1073,-516 1073,-516 1073,-528 1073,-528 1073,-534 1067,-540 1061,-540"/>
<text text-anchor="middle" x="1033.5" y="-519.5" font-family="sans" font-size="10.00" fill="#000000">align_reassign</text>
</g>
<!-- 66&#45;&gt;65 -->
<g id="edge104" class="edge">
<title>66&#45;&gt;65</title>
<path fill="none" stroke="#c0c0c0" stroke-width="2" d="M1033.7523,-503.8314C1033.8593,-496.131 1033.9865,-486.9743 1034.1053,-478.4166"/>
<polygon fill="#c0c0c0" stroke="#c0c0c0" stroke-width="2" points="1037.6049,-478.4609 1034.2443,-468.4133 1030.6056,-478.3637 1037.6049,-478.4609"/>
</g>
<!-- 67&#45;&gt;66 -->
<g id="edge105" class="edge">
<title>67&#45;&gt;66</title>
<path fill="none" stroke="#c0c0c0" stroke-width="2" d="M1032.0047,-575.8314C1032.2186,-568.131 1032.4729,-558.9743 1032.7106,-550.4166"/>
<polygon fill="#c0c0c0" stroke="#c0c0c0" stroke-width="2" points="1036.2094,-550.5066 1032.9885,-540.4133 1029.2121,-550.3122 1036.2094,-550.5066"/>
</g>
<!-- 68 -->
<g id="node69" class="node">
<title>68</title>
<path fill="none" stroke="#70d856" stroke-width="2" d="M1393.5,-252C1393.5,-252 1341.5,-252 1341.5,-252 1335.5,-252 1329.5,-246 1329.5,-240 1329.5,-240 1329.5,-228 1329.5,-228 1329.5,-222 1335.5,-216 1341.5,-216 1341.5,-216 1393.5,-216 1393.5,-216 1399.5,-216 1405.5,-222 1405.5,-228 1405.5,-228 1405.5,-240 1405.5,-240 1405.5,-246 1399.5,-252 1393.5,-252"/>
<text text-anchor="middle" x="1367.5" y="-231.5" font-family="sans" font-size="10.00" fill="#000000">metadmg_dfit</text>
</g>
<!-- 68&#45;&gt;1 -->
<g id="edge25" class="edge">
<title>68&#45;&gt;1</title>
<path fill="none" stroke="#c0c0c0" stroke-width="2" d="M1340.8745,-215.9643C1308.8014,-195.1548 1252.592,-161.5555 1199.5,-144 1084.0387,-105.8213 939.0974,-94.5709 871.896,-91.3059"/>
<polygon fill="#c0c0c0" stroke="#c0c0c0" stroke-width="2" points="871.9428,-87.8045 861.7944,-90.8475 871.6255,-94.7973 871.9428,-87.8045"/>
</g>
<!-- 76 -->
<g id="node77" class="node">
<title>76</title>
<path fill="none" stroke="#9fd856" stroke-width="2" d="M1383,-180C1383,-180 1302,-180 1302,-180 1296,-180 1290,-174 1290,-168 1290,-168 1290,-156 1290,-156 1290,-150 1296,-144 1302,-144 1302,-144 1383,-144 1383,-144 1389,-144 1395,-150 1395,-156 1395,-156 1395,-168 1395,-168 1395,-174 1389,-180 1383,-180"/>
<text text-anchor="middle" x="1342.5" y="-159.5" font-family="sans" font-size="10.00" fill="#000000">metadmg_aggregate</text>
</g>
<!-- 68&#45;&gt;76 -->
<g id="edge118" class="edge">
<title>68&#45;&gt;76</title>
<path fill="none" stroke="#c0c0c0" stroke-width="2" d="M1361.1914,-215.8314C1358.4883,-208.0463 1355.2684,-198.7729 1352.269,-190.1347"/>
<polygon fill="#c0c0c0" stroke="#c0c0c0" stroke-width="2" points="1355.48,-188.7119 1348.8935,-180.4133 1348.8673,-191.0081 1355.48,-188.7119"/>
</g>
<!-- 69 -->
<g id="node70" class="node">
<title>69</title>
<path fill="none" stroke="#59d856" stroke-width="2" d="M1431,-324C1431,-324 1380,-324 1380,-324 1374,-324 1368,-318 1368,-312 1368,-312 1368,-300 1368,-300 1368,-294 1374,-288 1380,-288 1380,-288 1431,-288 1431,-288 1437,-288 1443,-294 1443,-300 1443,-300 1443,-312 1443,-312 1443,-318 1437,-324 1431,-324"/>
<text text-anchor="middle" x="1405.5" y="-303.5" font-family="sans" font-size="10.00" fill="#000000">metadmg_lca</text>
</g>
<!-- 69&#45;&gt;68 -->
<g id="edge107" class="edge">
<title>69&#45;&gt;68</title>
<path fill="none" stroke="#c0c0c0" stroke-width="2" d="M1395.911,-287.8314C1391.6683,-279.7925 1386.5879,-270.1666 1381.904,-261.2918"/>
<polygon fill="#c0c0c0" stroke="#c0c0c0" stroke-width="2" points="1384.9811,-259.6235 1377.2181,-252.4133 1378.7904,-262.8908 1384.9811,-259.6235"/>
</g>
<!-- 69&#45;&gt;76 -->
<g id="edge117" class="edge">
<title>69&#45;&gt;76</title>
<path fill="none" stroke="#c0c0c0" stroke-width="2" d="M1412.8508,-287.7112C1419.2506,-268.75 1425.8766,-238.7531 1414.5,-216 1408.4862,-203.9724 1398.3786,-193.9287 1387.6093,-185.8944"/>
<polygon fill="#c0c0c0" stroke="#c0c0c0" stroke-width="2" points="1389.5159,-182.9575 1379.3018,-180.1426 1385.5312,-188.7127 1389.5159,-182.9575"/>
</g>
<!-- 70 -->
<g id="node71" class="node">
<title>70</title>
<path fill="none" stroke="#d8cb56" stroke-width="2" d="M1498.5,-396C1498.5,-396 1434.5,-396 1434.5,-396 1428.5,-396 1422.5,-390 1422.5,-384 1422.5,-384 1422.5,-372 1422.5,-372 1422.5,-366 1428.5,-360 1434.5,-360 1434.5,-360 1498.5,-360 1498.5,-360 1504.5,-360 1510.5,-366 1510.5,-372 1510.5,-372 1510.5,-384 1510.5,-384 1510.5,-390 1504.5,-396 1498.5,-396"/>
<text text-anchor="middle" x="1466.5" y="-375.5" font-family="sans" font-size="10.00" fill="#000000">align_sort_query</text>
</g>
<!-- 70&#45;&gt;69 -->
<g id="edge108" class="edge">
<title>70&#45;&gt;69</title>
<path fill="none" stroke="#c0c0c0" stroke-width="2" d="M1451.1071,-359.8314C1444.0096,-351.454 1435.452,-341.3531 1427.676,-332.1749"/>
<polygon fill="#c0c0c0" stroke="#c0c0c0" stroke-width="2" points="1430.2348,-329.7807 1421.1001,-324.4133 1424.8939,-334.3056 1430.2348,-329.7807"/>
</g>
<!-- 82 -->
<g id="node83" class="node">
<title>82</title>
<path fill="none" stroke="#88d856" stroke-width="2" d="M1498,-180C1498,-180 1425,-180 1425,-180 1419,-180 1413,-174 1413,-168 1413,-168 1413,-156 1413,-156 1413,-150 1419,-144 1425,-144 1425,-144 1498,-144 1498,-144 1504,-144 1510,-150 1510,-156 1510,-156 1510,-168 1510,-168 1510,-174 1504,-180 1498,-180"/>
<text text-anchor="middle" x="1461.5" y="-159.5" font-family="sans" font-size="10.00" fill="#000000">metadmg_damage</text>
</g>
<!-- 70&#45;&gt;82 -->
<g id="edge124" class="edge">
<title>70&#45;&gt;82</title>
<path fill="none" stroke="#c0c0c0" stroke-width="2" d="M1466.0823,-359.9555C1465.2128,-322.3938 1463.2026,-235.5541 1462.1576,-190.4103"/>
<polygon fill="#c0c0c0" stroke="#c0c0c0" stroke-width="2" points="1465.6506,-190.0614 1461.92,-180.1451 1458.6525,-190.2234 1465.6506,-190.0614"/>
</g>
<!-- 71 -->
<g id="node72" class="node">
<title>71</title>
<path fill="none" stroke="#d85656" stroke-width="2" d="M1659,-468C1659,-468 1622,-468 1622,-468 1616,-468 1610,-462 1610,-456 1610,-456 1610,-444 1610,-444 1610,-438 1616,-432 1622,-432 1622,-432 1659,-432 1659,-432 1665,-432 1671,-438 1671,-444 1671,-444 1671,-456 1671,-456 1671,-462 1665,-468 1659,-468"/>
<text text-anchor="middle" x="1640.5" y="-447.5" font-family="sans" font-size="10.00" fill="#000000">align_filter</text>
</g>
<!-- 71&#45;&gt;70 -->
<g id="edge109" class="edge">
<title>71&#45;&gt;70</title>
<path fill="none" stroke="#c0c0c0" stroke-width="2" d="M1609.7928,-437.2936C1584.879,-426.9844 1549.1718,-412.209 1519.6353,-399.987"/>
<polygon fill="#c0c0c0" stroke="#c0c0c0" stroke-width="2" points="1520.8622,-396.707 1510.2838,-396.1174 1518.1857,-403.1751 1520.8622,-396.707"/>
</g>
<!-- 72 -->
<g id="node73" class="node">
<title>72</title>
<path fill="none" stroke="#d89c56" stroke-width="2" d="M1672,-540C1672,-540 1617,-540 1617,-540 1611,-540 1605,-534 1605,-528 1605,-528 1605,-516 1605,-516 1605,-510 1611,-504 1617,-504 1617,-504 1672,-504 1672,-504 1678,-504 1684,-510 1684,-516 1684,-516 1684,-528 1684,-528 1684,-534 1678,-540 1672,-540"/>
<text text-anchor="middle" x="1644.5" y="-519.5" font-family="sans" font-size="10.00" fill="#000000">align_reassign</text>
</g>
<!-- 72&#45;&gt;71 -->
<g id="edge110" class="edge">
<title>72&#45;&gt;71</title>
<path fill="none" stroke="#c0c0c0" stroke-width="2" d="M1643.4906,-503.8314C1643.0628,-496.131 1642.5541,-486.9743 1642.0787,-478.4166"/>
<polygon fill="#c0c0c0" stroke="#c0c0c0" stroke-width="2" points="1645.5724,-478.2037 1641.523,-468.4133 1638.5831,-478.592 1645.5724,-478.2037"/>
</g>
<!-- 73&#45;&gt;72 -->
<g id="edge111" class="edge">
<title>73&#45;&gt;72</title>
<path fill="none" stroke="#c0c0c0" stroke-width="2" d="M1644.5,-575.8314C1644.5,-568.131 1644.5,-558.9743 1644.5,-550.4166"/>
<polygon fill="#c0c0c0" stroke="#c0c0c0" stroke-width="2" points="1648.0001,-550.4132 1644.5,-540.4133 1641.0001,-550.4133 1648.0001,-550.4132"/>
</g>
<!-- 74&#45;&gt;0 -->
<g id="edge5" class="edge">
<title>74&#45;&gt;0</title>
<path fill="none" stroke="#c0c0c0" stroke-width="2" d="M388.5176,-143.6463C414.4759,-122.1916 460.9332,-87.6331 507.5,-72 633.1404,-29.8207 1048.4044,-20.3775 1175.3243,-18.4547"/>
<polygon fill="#c0c0c0" stroke="#c0c0c0" stroke-width="2" points="1175.3836,-21.9543 1185.3319,-18.3098 1175.2822,-14.955 1175.3836,-21.9543"/>
</g>
<!-- 74&#45;&gt;1 -->
<g id="edge26" class="edge">
<title>74&#45;&gt;1</title>
<path fill="none" stroke="#c0c0c0" stroke-width="2" d="M420.0717,-152.7576C436.8162,-149.8756 455.425,-146.7368 472.5,-144 590.772,-125.0433 731.1456,-104.7247 796.9432,-95.3284"/>
<polygon fill="#c0c0c0" stroke="#c0c0c0" stroke-width="2" points="797.8162,-98.7394 807.222,-93.8628 796.828,-91.8095 797.8162,-98.7394"/>
</g>
<!-- 75&#45;&gt;0 -->
<g id="edge6" class="edge">
<title>75&#45;&gt;0</title>
<path fill="none" stroke="#c0c0c0" stroke-width="2" d="M1084.991,-143.7623C1110.771,-118.3354 1157.623,-72.1253 1186.7909,-43.3569"/>
<polygon fill="#c0c0c0" stroke="#c0c0c0" stroke-width="2" points="1189.4972,-45.6037 1194.1591,-36.0896 1184.5817,-40.6199 1189.4972,-45.6037"/>
</g>
<!-- 75&#45;&gt;1 -->
<g id="edge27" class="edge">
<title>75&#45;&gt;1</title>
<path fill="none" stroke="#c0c0c0" stroke-width="2" d="M1013.8556,-145.6621C970.4113,-132.1794 909.8644,-113.3889 871.4252,-101.4595"/>
<polygon fill="#c0c0c0" stroke="#c0c0c0" stroke-width="2" points="872.2659,-98.0558 861.6778,-98.4345 870.191,-104.7413 872.2659,-98.0558"/>
</g>
<!-- 76&#45;&gt;0 -->
<g id="edge7" class="edge">
<title>76&#45;&gt;0</title>
<path fill="none" stroke="#c0c0c0" stroke-width="2" d="M1330.744,-143.8381C1318.1446,-124.9804 1297.0344,-95.0668 1275.5,-72 1265.8646,-61.6789 1254.3722,-51.3452 1243.8572,-42.5215"/>
<polygon fill="#c0c0c0" stroke="#c0c0c0" stroke-width="2" points="1245.9977,-39.7502 1236.0538,-36.0936 1241.547,-45.1531 1245.9977,-39.7502"/>
</g>
<!-- 76&#45;&gt;1 -->
<g id="edge28" class="edge">
<title>76&#45;&gt;1</title>
<path fill="none" stroke="#c0c0c0" stroke-width="2" d="M1289.9524,-152.604C1273.209,-149.7142 1254.5949,-146.6097 1237.5,-144 1103.4229,-123.5319 943.5942,-103.3695 872.1946,-94.5837"/>
<polygon fill="#c0c0c0" stroke="#c0c0c0" stroke-width="2" points="872.2652,-91.0662 861.9133,-93.3221 871.4126,-98.0141 872.2652,-91.0662"/>
</g>
<!-- 77&#45;&gt;0 -->
<g id="edge2" class="edge">
<title>77&#45;&gt;0</title>
<path fill="none" stroke="#c0c0c0" stroke-width="2" d="M668.214,-81.2074C802.0806,-65.6616 1075.8063,-33.8741 1175.2994,-22.3201"/>
<polygon fill="#c0c0c0" stroke="#c0c0c0" stroke-width="2" points="1175.9365,-25.7697 1185.466,-21.1394 1175.129,-18.8164 1175.9365,-25.7697"/>
</g>
<!-- 78&#45;&gt;0 -->
<g id="edge3" class="edge">
<title>78&#45;&gt;0</title>
<path fill="none" stroke="#c0c0c0" stroke-width="2" d="M1312.6549,-647.9361C1384.5284,-609.1736 1538.5,-510.6538 1538.5,-378 1538.5,-378 1538.5,-378 1538.5,-162 1538.5,-99.4227 1334.9683,-45.8322 1249.5443,-26.0956"/>
<polygon fill="#c0c0c0" stroke="#c0c0c0" stroke-width="2" points="1250.2618,-22.6695 1239.7339,-23.8582 1248.7053,-29.4942 1250.2618,-22.6695"/>
</g>
<!-- 79&#45;&gt;0 -->
<g id="edge4" class="edge">
<title>79&#45;&gt;0</title>
<path fill="none" stroke="#c0c0c0" stroke-width="2" d="M1880.3468,-575.7859C1856.7434,-550.0803 1818.5,-500.6202 1818.5,-450 1818.5,-450 1818.5,-450 1818.5,-162 1818.5,-44.4739 1381.6161,-22.711 1249.7438,-18.819"/>
<polygon fill="#c0c0c0" stroke="#c0c0c0" stroke-width="2" points="1249.8092,-15.3196 1239.7158,-18.5406 1249.6148,-22.3169 1249.8092,-15.3196"/>
</g>
<!-- 80&#45;&gt;0 -->
<g id="edge8" class="edge">
<title>80&#45;&gt;0</title>
<path fill="none" stroke="#c0c0c0" stroke-width="2" d="M393.2599,-76.0707C400.0167,-74.4956 406.9016,-73.0739 413.5,-72 563.141,-47.6464 1037.7153,-25.5956 1174.9761,-19.5994"/>
<polygon fill="#c0c0c0" stroke="#c0c0c0" stroke-width="2" points="1175.5337,-23.0786 1185.3723,-19.1478 1175.2299,-16.0852 1175.5337,-23.0786"/>
</g>
<!-- 81&#45;&gt;0 -->
<g id="edge9" class="edge">
<title>81&#45;&gt;0</title>
<path fill="none" stroke="#c0c0c0" stroke-width="2" d="M1258.323,-215.9555C1249.6098,-178.3144 1229.4414,-91.1867 1219.0103,-46.1246"/>
<polygon fill="#c0c0c0" stroke="#c0c0c0" stroke-width="2" points="1222.3653,-45.0981 1216.7002,-36.1451 1215.5457,-46.6768 1222.3653,-45.0981"/>
</g>
<!-- 82&#45;&gt;0 -->
<g id="edge10" class="edge">
<title>82&#45;&gt;0</title>
<path fill="none" stroke="#c0c0c0" stroke-width="2" d="M1430.2161,-143.9081C1383.8586,-117.0989 1297.1562,-66.9578 1248.3167,-38.7133"/>
<polygon fill="#c0c0c0" stroke="#c0c0c0" stroke-width="2" points="1250.0651,-35.6813 1239.6562,-33.7048 1246.5607,-41.7409 1250.0651,-35.6813"/>
</g>
</g>
</svg>
