<?xml version="1.0" encoding="UTF-8" standalone="no"?>
<!DOCTYPE svg PUBLIC "-//W3C//DTD SVG 1.1//EN"
 "http://www.w3.org/Graphics/SVG/1.1/DTD/svg11.dtd">
<!-- Generated by graphviz version 2.40.1 (0)
 -->
<!-- Title: snakemake_dag Pages: 1 -->
<svg width="2002pt" height="1173pt"
 viewBox="0.00 0.00 2002.00 1173.00" xmlns="http://www.w3.org/2000/svg" xmlns:xlink="http://www.w3.org/1999/xlink">
<g id="graph0" class="graph" transform="scale(1 1) rotate(0) translate(4 1169)">
<title>snakemake_dag</title>
<polygon fill="#ffffff" stroke="transparent" points="-4,4 -4,-1169 1998,-1169 1998,4 -4,4"/>
<!-- 0 -->
<g id="node1" class="node">
<title>0</title>
<path fill="none" stroke="#b6d856" stroke-width="2" d="M1147.5,-36C1147.5,-36 1117.5,-36 1117.5,-36 1111.5,-36 1105.5,-30 1105.5,-24 1105.5,-24 1105.5,-12 1105.5,-12 1105.5,-6 1111.5,0 1117.5,0 1117.5,0 1147.5,0 1147.5,0 1153.5,0 1159.5,-6 1159.5,-12 1159.5,-12 1159.5,-24 1159.5,-24 1159.5,-30 1153.5,-36 1147.5,-36"/>
<text text-anchor="middle" x="1132.5" y="-15.5" font-family="sans" font-size="10.00" fill="#000000">all</text>
</g>
<!-- 1 -->
<g id="node2" class="node">
<title>1</title>
<path fill="none" stroke="#56d8b1" stroke-width="2" d="M849.5,-108C849.5,-108 819.5,-108 819.5,-108 813.5,-108 807.5,-102 807.5,-96 807.5,-96 807.5,-84 807.5,-84 807.5,-78 813.5,-72 819.5,-72 819.5,-72 849.5,-72 849.5,-72 855.5,-72 861.5,-78 861.5,-84 861.5,-84 861.5,-96 861.5,-96 861.5,-102 855.5,-108 849.5,-108"/>
<text text-anchor="middle" x="834.5" y="-87.5" font-family="sans" font-size="10.00" fill="#000000">multiqc</text>
</g>
<!-- 1&#45;&gt;0 -->
<g id="edge1" class="edge">
<title>1&#45;&gt;0</title>
<path fill="none" stroke="#c0c0c0" stroke-width="2" d="M861.7355,-83.4196C915.3858,-70.4571 1034.7938,-41.6069 1095.5112,-26.9369"/>
<polygon fill="#c0c0c0" stroke="#c0c0c0" stroke-width="2" points="1096.5373,-30.2898 1105.4356,-24.5391 1094.8932,-23.4856 1096.5373,-30.2898"/>
</g>
<!-- 2 -->
<g id="node3" class="node">
<title>2</title>
<path fill="none" stroke="#9fd856" stroke-width="2" d="M428,-1165C428,-1165 321,-1165 321,-1165 315,-1165 309,-1159 309,-1153 309,-1153 309,-1092 309,-1092 309,-1086 315,-1080 321,-1080 321,-1080 428,-1080 428,-1080 434,-1080 440,-1086 440,-1092 440,-1092 440,-1153 440,-1153 440,-1159 434,-1165 428,-1165"/>
<text text-anchor="middle" x="374.5" y="-1153" font-family="sans" font-size="10.00" fill="#000000">bowtie2</text>
<text text-anchor="middle" x="374.5" y="-1142" font-family="sans" font-size="10.00" fill="#000000">library: lib1</text>
<text text-anchor="middle" x="374.5" y="-1131" font-family="sans" font-size="10.00" fill="#000000">n_shard: 1</text>
<text text-anchor="middle" x="374.5" y="-1120" font-family="sans" font-size="10.00" fill="#000000">read_type_map: collapsed</text>
<text text-anchor="middle" x="374.5" y="-1109" font-family="sans" font-size="10.00" fill="#000000">ref: refseq_mitochondrion</text>
<text text-anchor="middle" x="374.5" y="-1098" font-family="sans" font-size="10.00" fill="#000000">sample: HD827sonic_1</text>
<text text-anchor="middle" x="374.5" y="-1087" font-family="sans" font-size="10.00" fill="#000000">tot_shards: 1</text>
</g>
<!-- 2&#45;&gt;1 -->
<g id="edge11" class="edge">
<title>2&#45;&gt;1</title>
<path fill="none" stroke="#c0c0c0" stroke-width="2" d="M440.2508,-1102.1195C472.8244,-1089.4583 510.9682,-1070.4733 538.5,-1044 594.0706,-990.5658 600.5,-959.0929 600.5,-882 600.5,-882 600.5,-882 600.5,-234 600.5,-189.4756 610.3455,-172.5638 644.5,-144 650.4774,-139.001 743.7703,-113.8729 797.3601,-99.7235"/>
<polygon fill="#c0c0c0" stroke="#c0c0c0" stroke-width="2" points="798.4145,-103.0652 807.1928,-97.1328 796.6311,-96.2962 798.4145,-103.0652"/>
</g>
<!-- 19 -->
<g id="node20" class="node">
<title>19</title>
<path fill="none" stroke="#56c9d8" stroke-width="2" d="M334,-1044C334,-1044 265,-1044 265,-1044 259,-1044 253,-1038 253,-1032 253,-1032 253,-1020 253,-1020 253,-1014 259,-1008 265,-1008 265,-1008 334,-1008 334,-1008 340,-1008 346,-1014 346,-1020 346,-1020 346,-1032 346,-1032 346,-1038 340,-1044 334,-1044"/>
<text text-anchor="middle" x="299.5" y="-1023.5" font-family="sans" font-size="10.00" fill="#000000">shard_count_alns</text>
</g>
<!-- 2&#45;&gt;19 -->
<g id="edge42" class="edge">
<title>2&#45;&gt;19</title>
<path fill="none" stroke="#c0c0c0" stroke-width="2" d="M341.3856,-1079.8928C334.0867,-1070.5016 326.5632,-1060.8213 319.9414,-1052.3013"/>
<polygon fill="#c0c0c0" stroke="#c0c0c0" stroke-width="2" points="322.5621,-1049.9697 313.662,-1044.2218 317.0351,-1054.2653 322.5621,-1049.9697"/>
</g>
<!-- 25 -->
<g id="node26" class="node">
<title>25</title>
<path fill="none" stroke="#5682d8" stroke-width="2" d="M351,-900C351,-900 222,-900 222,-900 216,-900 210,-894 210,-888 210,-888 210,-876 210,-876 210,-870 216,-864 222,-864 222,-864 351,-864 351,-864 357,-864 363,-870 363,-876 363,-876 363,-888 363,-888 363,-894 357,-900 351,-900"/>
<text text-anchor="middle" x="286.5" y="-879.5" font-family="sans" font-size="10.00" fill="#000000">shard_saturated_reads_remove</text>
</g>
<!-- 2&#45;&gt;25 -->
<g id="edge49" class="edge">
<title>2&#45;&gt;25</title>
<path fill="none" stroke="#c0c0c0" stroke-width="2" d="M379.2944,-1079.7097C381.716,-1039.9853 380.0255,-980.4554 355.5,-936 349.0005,-924.2188 338.7549,-914.1322 328.1278,-905.9756"/>
<polygon fill="#c0c0c0" stroke="#c0c0c0" stroke-width="2" points="330.1449,-903.115 319.9827,-900.1183 326.058,-908.7982 330.1449,-903.115"/>
</g>
<!-- 3 -->
<g id="node4" class="node">
<title>3</title>
<path fill="none" stroke="#9fd856" stroke-width="2" d="M1457,-1165C1457,-1165 1350,-1165 1350,-1165 1344,-1165 1338,-1159 1338,-1153 1338,-1153 1338,-1092 1338,-1092 1338,-1086 1344,-1080 1350,-1080 1350,-1080 1457,-1080 1457,-1080 1463,-1080 1469,-1086 1469,-1092 1469,-1092 1469,-1153 1469,-1153 1469,-1159 1463,-1165 1457,-1165"/>
<text text-anchor="middle" x="1403.5" y="-1153" font-family="sans" font-size="10.00" fill="#000000">bowtie2</text>
<text text-anchor="middle" x="1403.5" y="-1142" font-family="sans" font-size="10.00" fill="#000000">library: lib2</text>
<text text-anchor="middle" x="1403.5" y="-1131" font-family="sans" font-size="10.00" fill="#000000">n_shard: 1</text>
<text text-anchor="middle" x="1403.5" y="-1120" font-family="sans" font-size="10.00" fill="#000000">read_type_map: collapsed</text>
<text text-anchor="middle" x="1403.5" y="-1109" font-family="sans" font-size="10.00" fill="#000000">ref: wgs_eukaryota</text>
<text text-anchor="middle" x="1403.5" y="-1098" font-family="sans" font-size="10.00" fill="#000000">sample: HD827sonic_2</text>
<text text-anchor="middle" x="1403.5" y="-1087" font-family="sans" font-size="10.00" fill="#000000">tot_shards: 2</text>
</g>
<!-- 3&#45;&gt;1 -->
<g id="edge12" class="edge">
<title>3&#45;&gt;1</title>
<path fill="none" stroke="#c0c0c0" stroke-width="2" d="M1383.2361,-1079.7688C1377.7727,-1068.177 1371.8847,-1055.6194 1366.5,-1044 1329.5367,-964.2384 1321.942,-943.538 1284.5,-864 1218.6623,-724.1411 1220.7429,-657.6725 1089.5,-576 1035.3184,-542.2828 995.5948,-585.1548 950.5,-540 822.0725,-411.4018 893.9722,-319.9642 848.5,-144 846.3532,-135.6926 844.0156,-126.6679 841.8764,-118.4172"/>
<polygon fill="#c0c0c0" stroke="#c0c0c0" stroke-width="2" points="845.2008,-117.2934 839.302,-108.4925 838.425,-119.051 845.2008,-117.2934"/>
</g>
<!-- 48 -->
<g id="node49" class="node">
<title>48</title>
<path fill="none" stroke="#56c9d8" stroke-width="2" d="M1610,-1044C1610,-1044 1541,-1044 1541,-1044 1535,-1044 1529,-1038 1529,-1032 1529,-1032 1529,-1020 1529,-1020 1529,-1014 1535,-1008 1541,-1008 1541,-1008 1610,-1008 1610,-1008 1616,-1008 1622,-1014 1622,-1020 1622,-1020 1622,-1032 1622,-1032 1622,-1038 1616,-1044 1610,-1044"/>
<text text-anchor="middle" x="1575.5" y="-1023.5" font-family="sans" font-size="10.00" fill="#000000">shard_count_alns</text>
</g>
<!-- 3&#45;&gt;48 -->
<g id="edge85" class="edge">
<title>3&#45;&gt;48</title>
<path fill="none" stroke="#c0c0c0" stroke-width="2" d="M1469.2331,-1084.6676C1472.0239,-1083.0868 1474.7885,-1081.5255 1477.5,-1080 1495.8098,-1069.6986 1516.1394,-1058.4637 1533.5144,-1048.9225"/>
<polygon fill="#c0c0c0" stroke="#c0c0c0" stroke-width="2" points="1535.22,-1051.9789 1542.3048,-1044.1013 1531.8538,-1045.8414 1535.22,-1051.9789"/>
</g>
<!-- 52 -->
<g id="node53" class="node">
<title>52</title>
<path fill="none" stroke="#5682d8" stroke-width="2" d="M1550,-900C1550,-900 1421,-900 1421,-900 1415,-900 1409,-894 1409,-888 1409,-888 1409,-876 1409,-876 1409,-870 1415,-864 1421,-864 1421,-864 1550,-864 1550,-864 1556,-864 1562,-870 1562,-876 1562,-876 1562,-888 1562,-888 1562,-894 1556,-900 1550,-900"/>
<text text-anchor="middle" x="1485.5" y="-879.5" font-family="sans" font-size="10.00" fill="#000000">shard_saturated_reads_remove</text>
</g>
<!-- 3&#45;&gt;52 -->
<g id="edge89" class="edge">
<title>3&#45;&gt;52</title>
<path fill="none" stroke="#c0c0c0" stroke-width="2" d="M1418.0655,-1079.7805C1434.8171,-1030.6492 1461.8322,-951.416 1476.0515,-909.7116"/>
<polygon fill="#c0c0c0" stroke="#c0c0c0" stroke-width="2" points="1479.3804,-910.7936 1479.2949,-900.1991 1472.755,-908.5345 1479.3804,-910.7936"/>
</g>
<!-- 4 -->
<g id="node5" class="node">
<title>4</title>
<path fill="none" stroke="#9fd856" stroke-width="2" d="M242,-1165C242,-1165 135,-1165 135,-1165 129,-1165 123,-1159 123,-1153 123,-1153 123,-1092 123,-1092 123,-1086 129,-1080 135,-1080 135,-1080 242,-1080 242,-1080 248,-1080 254,-1086 254,-1092 254,-1092 254,-1153 254,-1153 254,-1159 248,-1165 242,-1165"/>
<text text-anchor="middle" x="188.5" y="-1153" font-family="sans" font-size="10.00" fill="#000000">bowtie2</text>
<text text-anchor="middle" x="188.5" y="-1142" font-family="sans" font-size="10.00" fill="#000000">library: lib1</text>
<text text-anchor="middle" x="188.5" y="-1131" font-family="sans" font-size="10.00" fill="#000000">n_shard: 1</text>
<text text-anchor="middle" x="188.5" y="-1120" font-family="sans" font-size="10.00" fill="#000000">read_type_map: collapsed</text>
<text text-anchor="middle" x="188.5" y="-1109" font-family="sans" font-size="10.00" fill="#000000">ref: wgs_eukaryota</text>
<text text-anchor="middle" x="188.5" y="-1098" font-family="sans" font-size="10.00" fill="#000000">sample: HD827sonic_1</text>
<text text-anchor="middle" x="188.5" y="-1087" font-family="sans" font-size="10.00" fill="#000000">tot_shards: 2</text>
</g>
<!-- 4&#45;&gt;1 -->
<g id="edge13" class="edge">
<title>4&#45;&gt;1</title>
<path fill="none" stroke="#c0c0c0" stroke-width="2" d="M254.1305,-1094.9912C268.8797,-1089.4798 284.5833,-1084.1243 299.5,-1080 388.6601,-1055.3482 433.7727,-1103.6228 504.5,-1044 533.7356,-1019.3545 562.5,-920.2377 562.5,-882 562.5,-882 562.5,-882 562.5,-234 562.5,-189.2786 572.3242,-171.6163 607.5,-144 664.1492,-99.525 695.5356,-125.092 765.5,-108 775.8728,-105.466 787.0883,-102.5962 797.4014,-99.9047"/>
<polygon fill="#c0c0c0" stroke="#c0c0c0" stroke-width="2" points="798.5664,-103.2175 807.3489,-97.2915 796.7878,-96.4472 798.5664,-103.2175"/>
</g>
<!-- 18 -->
<g id="node19" class="node">
<title>18</title>
<path fill="none" stroke="#56c9d8" stroke-width="2" d="M223,-1044C223,-1044 154,-1044 154,-1044 148,-1044 142,-1038 142,-1032 142,-1032 142,-1020 142,-1020 142,-1014 148,-1008 154,-1008 154,-1008 223,-1008 223,-1008 229,-1008 235,-1014 235,-1020 235,-1020 235,-1032 235,-1032 235,-1038 229,-1044 223,-1044"/>
<text text-anchor="middle" x="188.5" y="-1023.5" font-family="sans" font-size="10.00" fill="#000000">shard_count_alns</text>
</g>
<!-- 4&#45;&gt;18 -->
<g id="edge41" class="edge">
<title>4&#45;&gt;18</title>
<path fill="none" stroke="#c0c0c0" stroke-width="2" d="M188.5,-1079.8928C188.5,-1071.2842 188.5,-1062.4327 188.5,-1054.4546"/>
<polygon fill="#c0c0c0" stroke="#c0c0c0" stroke-width="2" points="192.0001,-1054.2218 188.5,-1044.2218 185.0001,-1054.2218 192.0001,-1054.2218"/>
</g>
<!-- 22 -->
<g id="node23" class="node">
<title>22</title>
<path fill="none" stroke="#5682d8" stroke-width="2" d="M141,-900C141,-900 12,-900 12,-900 6,-900 0,-894 0,-888 0,-888 0,-876 0,-876 0,-870 6,-864 12,-864 12,-864 141,-864 141,-864 147,-864 153,-870 153,-876 153,-876 153,-888 153,-888 153,-894 147,-900 141,-900"/>
<text text-anchor="middle" x="76.5" y="-879.5" font-family="sans" font-size="10.00" fill="#000000">shard_saturated_reads_remove</text>
</g>
<!-- 4&#45;&gt;22 -->
<g id="edge45" class="edge">
<title>4&#45;&gt;22</title>
<path fill="none" stroke="#c0c0c0" stroke-width="2" d="M154.7779,-1079.911C146.8004,-1068.6385 138.7932,-1056.2 132.5,-1044 109.4806,-999.3742 92.4773,-943.195 83.5602,-910.081"/>
<polygon fill="#c0c0c0" stroke="#c0c0c0" stroke-width="2" points="86.8849,-908.9618 80.9518,-900.184 80.116,-910.7458 86.8849,-908.9618"/>
</g>
<!-- 5 -->
<g id="node6" class="node">
<title>5</title>
<path fill="none" stroke="#9fd856" stroke-width="2" d="M1926,-1165C1926,-1165 1819,-1165 1819,-1165 1813,-1165 1807,-1159 1807,-1153 1807,-1153 1807,-1092 1807,-1092 1807,-1086 1813,-1080 1819,-1080 1819,-1080 1926,-1080 1926,-1080 1932,-1080 1938,-1086 1938,-1092 1938,-1092 1938,-1153 1938,-1153 1938,-1159 1932,-1165 1926,-1165"/>
<text text-anchor="middle" x="1872.5" y="-1153" font-family="sans" font-size="10.00" fill="#000000">bowtie2</text>
<text text-anchor="middle" x="1872.5" y="-1142" font-family="sans" font-size="10.00" fill="#000000">library: lib2</text>
<text text-anchor="middle" x="1872.5" y="-1131" font-family="sans" font-size="10.00" fill="#000000">n_shard: 2</text>
<text text-anchor="middle" x="1872.5" y="-1120" font-family="sans" font-size="10.00" fill="#000000">read_type_map: collapsed</text>
<text text-anchor="middle" x="1872.5" y="-1109" font-family="sans" font-size="10.00" fill="#000000">ref: wgs_eukaryota</text>
<text text-anchor="middle" x="1872.5" y="-1098" font-family="sans" font-size="10.00" fill="#000000">sample: HD827sonic_2</text>
<text text-anchor="middle" x="1872.5" y="-1087" font-family="sans" font-size="10.00" fill="#000000">tot_shards: 2</text>
</g>
<!-- 5&#45;&gt;1 -->
<g id="edge14" class="edge">
<title>5&#45;&gt;1</title>
<path fill="none" stroke="#c0c0c0" stroke-width="2" d="M1914.0608,-1079.9279C1940.7707,-1047.9863 1970.5,-1001.7163 1970.5,-954 1970.5,-954 1970.5,-954 1970.5,-810 1970.5,-800.1172 1711.0343,-580.9836 1702.5,-576 1660.9858,-551.7579 1643.6977,-561.0966 1600.5,-540 1493.8162,-487.8985 1468.4517,-469.8646 1375.5,-396 1344.1273,-371.0695 1153.0236,-162.5432 1117.5,-144 1075.2004,-121.9197 938.759,-102.7574 871.9961,-94.428"/>
<polygon fill="#c0c0c0" stroke="#c0c0c0" stroke-width="2" points="872.2572,-90.9338 861.9044,-93.1855 871.4017,-97.8814 872.2572,-90.9338"/>
</g>
<!-- 45 -->
<g id="node46" class="node">
<title>45</title>
<path fill="none" stroke="#5682d8" stroke-width="2" d="M1892,-900C1892,-900 1763,-900 1763,-900 1757,-900 1751,-894 1751,-888 1751,-888 1751,-876 1751,-876 1751,-870 1757,-864 1763,-864 1763,-864 1892,-864 1892,-864 1898,-864 1904,-870 1904,-876 1904,-876 1904,-888 1904,-888 1904,-894 1898,-900 1892,-900"/>
<text text-anchor="middle" x="1827.5" y="-879.5" font-family="sans" font-size="10.00" fill="#000000">shard_saturated_reads_remove</text>
</g>
<!-- 5&#45;&gt;45 -->
<g id="edge79" class="edge">
<title>5&#45;&gt;45</title>
<path fill="none" stroke="#c0c0c0" stroke-width="2" d="M1865.8121,-1079.7471C1862.3375,-1058.1948 1857.9049,-1031.6733 1853.5,-1008 1847.2434,-974.3753 1839.1693,-935.8956 1833.6904,-910.399"/>
<polygon fill="#c0c0c0" stroke="#c0c0c0" stroke-width="2" points="1837.0457,-909.3549 1831.5141,-900.3188 1830.2034,-910.8322 1837.0457,-909.3549"/>
</g>
<!-- 47 -->
<g id="node48" class="node">
<title>47</title>
<path fill="none" stroke="#56c9d8" stroke-width="2" d="M1832,-1044C1832,-1044 1763,-1044 1763,-1044 1757,-1044 1751,-1038 1751,-1032 1751,-1032 1751,-1020 1751,-1020 1751,-1014 1757,-1008 1763,-1008 1763,-1008 1832,-1008 1832,-1008 1838,-1008 1844,-1014 1844,-1020 1844,-1020 1844,-1032 1844,-1032 1844,-1038 1838,-1044 1832,-1044"/>
<text text-anchor="middle" x="1797.5" y="-1023.5" font-family="sans" font-size="10.00" fill="#000000">shard_count_alns</text>
</g>
<!-- 5&#45;&gt;47 -->
<g id="edge84" class="edge">
<title>5&#45;&gt;47</title>
<path fill="none" stroke="#c0c0c0" stroke-width="2" d="M1839.3856,-1079.8928C1832.0867,-1070.5016 1824.5632,-1060.8213 1817.9414,-1052.3013"/>
<polygon fill="#c0c0c0" stroke="#c0c0c0" stroke-width="2" points="1820.5621,-1049.9697 1811.662,-1044.2218 1815.0351,-1054.2653 1820.5621,-1049.9697"/>
</g>
<!-- 6 -->
<g id="node7" class="node">
<title>6</title>
<path fill="none" stroke="#9fd856" stroke-width="2" d="M654,-1165C654,-1165 547,-1165 547,-1165 541,-1165 535,-1159 535,-1153 535,-1153 535,-1092 535,-1092 535,-1086 541,-1080 547,-1080 547,-1080 654,-1080 654,-1080 660,-1080 666,-1086 666,-1092 666,-1092 666,-1153 666,-1153 666,-1159 660,-1165 654,-1165"/>
<text text-anchor="middle" x="600.5" y="-1153" font-family="sans" font-size="10.00" fill="#000000">bowtie2</text>
<text text-anchor="middle" x="600.5" y="-1142" font-family="sans" font-size="10.00" fill="#000000">library: lib1</text>
<text text-anchor="middle" x="600.5" y="-1131" font-family="sans" font-size="10.00" fill="#000000">n_shard: 2</text>
<text text-anchor="middle" x="600.5" y="-1120" font-family="sans" font-size="10.00" fill="#000000">read_type_map: collapsed</text>
<text text-anchor="middle" x="600.5" y="-1109" font-family="sans" font-size="10.00" fill="#000000">ref: wgs_eukaryota</text>
<text text-anchor="middle" x="600.5" y="-1098" font-family="sans" font-size="10.00" fill="#000000">sample: HD827sonic_1</text>
<text text-anchor="middle" x="600.5" y="-1087" font-family="sans" font-size="10.00" fill="#000000">tot_shards: 2</text>
</g>
<!-- 6&#45;&gt;1 -->
<g id="edge15" class="edge">
<title>6&#45;&gt;1</title>
<path fill="none" stroke="#c0c0c0" stroke-width="2" d="M615.6278,-1079.8083C626.2248,-1046.0983 638.5,-997.6328 638.5,-954 638.5,-954 638.5,-954 638.5,-234 638.5,-190.5807 644.7396,-173.6059 676.5,-144 685.6229,-135.4959 753.8825,-114.0222 797.6473,-100.8594"/>
<polygon fill="#c0c0c0" stroke="#c0c0c0" stroke-width="2" points="798.8119,-104.1644 807.389,-97.9449 796.8054,-97.4581 798.8119,-104.1644"/>
</g>
<!-- 15 -->
<g id="node16" class="node">
<title>15</title>
<path fill="none" stroke="#5682d8" stroke-width="2" d="M522,-900C522,-900 393,-900 393,-900 387,-900 381,-894 381,-888 381,-888 381,-876 381,-876 381,-870 387,-864 393,-864 393,-864 522,-864 522,-864 528,-864 534,-870 534,-876 534,-876 534,-888 534,-888 534,-894 528,-900 522,-900"/>
<text text-anchor="middle" x="457.5" y="-879.5" font-family="sans" font-size="10.00" fill="#000000">shard_saturated_reads_remove</text>
</g>
<!-- 6&#45;&gt;15 -->
<g id="edge35" class="edge">
<title>6&#45;&gt;15</title>
<path fill="none" stroke="#c0c0c0" stroke-width="2" d="M575.0992,-1079.7805C545.7007,-1030.3376 498.1761,-950.4097 473.5081,-908.9227"/>
<polygon fill="#c0c0c0" stroke="#c0c0c0" stroke-width="2" points="476.4403,-907.0057 468.3211,-900.1991 470.4235,-910.5832 476.4403,-907.0057"/>
</g>
<!-- 17 -->
<g id="node18" class="node">
<title>17</title>
<path fill="none" stroke="#56c9d8" stroke-width="2" d="M484,-1044C484,-1044 415,-1044 415,-1044 409,-1044 403,-1038 403,-1032 403,-1032 403,-1020 403,-1020 403,-1014 409,-1008 415,-1008 415,-1008 484,-1008 484,-1008 490,-1008 496,-1014 496,-1020 496,-1020 496,-1032 496,-1032 496,-1038 490,-1044 484,-1044"/>
<text text-anchor="middle" x="449.5" y="-1023.5" font-family="sans" font-size="10.00" fill="#000000">shard_count_alns</text>
</g>
<!-- 6&#45;&gt;17 -->
<g id="edge40" class="edge">
<title>6&#45;&gt;17</title>
<path fill="none" stroke="#c0c0c0" stroke-width="2" d="M534.7085,-1080.4544C518.2546,-1069.9392 501.1752,-1059.0242 486.6664,-1049.752"/>
<polygon fill="#c0c0c0" stroke="#c0c0c0" stroke-width="2" points="488.3045,-1046.6452 477.9934,-1044.2094 484.5349,-1052.5436 488.3045,-1046.6452"/>
</g>
<!-- 7 -->
<g id="node8" class="node">
<title>7</title>
<path fill="none" stroke="#9fd856" stroke-width="2" d="M1606,-1165C1606,-1165 1499,-1165 1499,-1165 1493,-1165 1487,-1159 1487,-1153 1487,-1153 1487,-1092 1487,-1092 1487,-1086 1493,-1080 1499,-1080 1499,-1080 1606,-1080 1606,-1080 1612,-1080 1618,-1086 1618,-1092 1618,-1092 1618,-1153 1618,-1153 1618,-1159 1612,-1165 1606,-1165"/>
<text text-anchor="middle" x="1552.5" y="-1153" font-family="sans" font-size="10.00" fill="#000000">bowtie2</text>
<text text-anchor="middle" x="1552.5" y="-1142" font-family="sans" font-size="10.00" fill="#000000">library: lib2</text>
<text text-anchor="middle" x="1552.5" y="-1131" font-family="sans" font-size="10.00" fill="#000000">n_shard: 1</text>
<text text-anchor="middle" x="1552.5" y="-1120" font-family="sans" font-size="10.00" fill="#000000">read_type_map: collapsed</text>
<text text-anchor="middle" x="1552.5" y="-1109" font-family="sans" font-size="10.00" fill="#000000">ref: refseq_mitochondrion</text>
<text text-anchor="middle" x="1552.5" y="-1098" font-family="sans" font-size="10.00" fill="#000000">sample: HD827sonic_2</text>
<text text-anchor="middle" x="1552.5" y="-1087" font-family="sans" font-size="10.00" fill="#000000">tot_shards: 1</text>
</g>
<!-- 7&#45;&gt;1 -->
<g id="edge16" class="edge">
<title>7&#45;&gt;1</title>
<path fill="none" stroke="#c0c0c0" stroke-width="2" d="M1493.3074,-1079.6401C1443.5539,-1041.334 1380.5,-986.397 1380.5,-954 1380.5,-954 1380.5,-954 1380.5,-738 1380.5,-605.2271 1251.1404,-629.2189 1129.5,-576 1070.6404,-550.2483 1036.0387,-584.2917 989.5,-540 856.0011,-412.9469 941.3208,-312.4229 866.5,-144 862.4712,-134.9311 857.2596,-125.4814 852.2164,-117.0692"/>
<polygon fill="#c0c0c0" stroke="#c0c0c0" stroke-width="2" points="855.1054,-115.086 846.8741,-108.4155 849.149,-118.7632 855.1054,-115.086"/>
</g>
<!-- 49 -->
<g id="node50" class="node">
<title>49</title>
<path fill="none" stroke="#56c9d8" stroke-width="2" d="M1721,-1044C1721,-1044 1652,-1044 1652,-1044 1646,-1044 1640,-1038 1640,-1032 1640,-1032 1640,-1020 1640,-1020 1640,-1014 1646,-1008 1652,-1008 1652,-1008 1721,-1008 1721,-1008 1727,-1008 1733,-1014 1733,-1020 1733,-1020 1733,-1032 1733,-1032 1733,-1038 1727,-1044 1721,-1044"/>
<text text-anchor="middle" x="1686.5" y="-1023.5" font-family="sans" font-size="10.00" fill="#000000">shard_count_alns</text>
</g>
<!-- 7&#45;&gt;49 -->
<g id="edge86" class="edge">
<title>7&#45;&gt;49</title>
<path fill="none" stroke="#c0c0c0" stroke-width="2" d="M1611.6644,-1079.8928C1625.7917,-1069.719 1640.3903,-1059.2059 1652.901,-1050.1963"/>
<polygon fill="#c0c0c0" stroke="#c0c0c0" stroke-width="2" points="1655.1278,-1052.9058 1661.1972,-1044.2218 1651.0371,-1047.2255 1655.1278,-1052.9058"/>
</g>
<!-- 55 -->
<g id="node56" class="node">
<title>55</title>
<path fill="none" stroke="#5682d8" stroke-width="2" d="M1721,-900C1721,-900 1592,-900 1592,-900 1586,-900 1580,-894 1580,-888 1580,-888 1580,-876 1580,-876 1580,-870 1586,-864 1592,-864 1592,-864 1721,-864 1721,-864 1727,-864 1733,-870 1733,-876 1733,-876 1733,-888 1733,-888 1733,-894 1727,-900 1721,-900"/>
<text text-anchor="middle" x="1656.5" y="-879.5" font-family="sans" font-size="10.00" fill="#000000">shard_saturated_reads_remove</text>
</g>
<!-- 7&#45;&gt;55 -->
<g id="edge93" class="edge">
<title>7&#45;&gt;55</title>
<path fill="none" stroke="#c0c0c0" stroke-width="2" d="M1526.3786,-1079.9526C1516.3183,-1057.9764 1509.3979,-1031.016 1519.5,-1008 1539.1118,-963.3177 1583.2551,-927.5078 1616.1654,-905.6502"/>
<polygon fill="#c0c0c0" stroke="#c0c0c0" stroke-width="2" points="1618.2018,-908.5013 1624.6936,-900.1283 1614.3972,-902.6255 1618.2018,-908.5013"/>
</g>
<!-- 8 -->
<g id="node9" class="node">
<title>8</title>
<path fill="none" stroke="#9fd856" stroke-width="2" d="M972,-1165C972,-1165 865,-1165 865,-1165 859,-1165 853,-1159 853,-1153 853,-1153 853,-1092 853,-1092 853,-1086 859,-1080 865,-1080 865,-1080 972,-1080 972,-1080 978,-1080 984,-1086 984,-1092 984,-1092 984,-1153 984,-1153 984,-1159 978,-1165 972,-1165"/>
<text text-anchor="middle" x="918.5" y="-1153" font-family="sans" font-size="10.00" fill="#000000">bowtie2</text>
<text text-anchor="middle" x="918.5" y="-1142" font-family="sans" font-size="10.00" fill="#000000">library: lib1</text>
<text text-anchor="middle" x="918.5" y="-1131" font-family="sans" font-size="10.00" fill="#000000">n_shard: 1</text>
<text text-anchor="middle" x="918.5" y="-1120" font-family="sans" font-size="10.00" fill="#000000">read_type_map: collapsed</text>
<text text-anchor="middle" x="918.5" y="-1109" font-family="sans" font-size="10.00" fill="#000000">ref: wgs_eukaryota</text>
<text text-anchor="middle" x="918.5" y="-1098" font-family="sans" font-size="10.00" fill="#000000">sample: HD827sonic_2</text>
<text text-anchor="middle" x="918.5" y="-1087" font-family="sans" font-size="10.00" fill="#000000">tot_shards: 2</text>
</g>
<!-- 8&#45;&gt;1 -->
<g id="edge17" class="edge">
<title>8&#45;&gt;1</title>
<path fill="none" stroke="#c0c0c0" stroke-width="2" d="M852.8302,-1083.9871C793.1945,-1046.6747 714.5,-990.519 714.5,-954 714.5,-954 714.5,-954 714.5,-234 714.5,-180.8995 763.2519,-136.9881 798.6078,-112.1247"/>
<polygon fill="#c0c0c0" stroke="#c0c0c0" stroke-width="2" points="800.9787,-114.7445 807.2701,-106.2199 797.0359,-108.9604 800.9787,-114.7445"/>
</g>
<!-- 33 -->
<g id="node34" class="node">
<title>33</title>
<path fill="none" stroke="#56c9d8" stroke-width="2" d="M1049,-1044C1049,-1044 980,-1044 980,-1044 974,-1044 968,-1038 968,-1032 968,-1032 968,-1020 968,-1020 968,-1014 974,-1008 980,-1008 980,-1008 1049,-1008 1049,-1008 1055,-1008 1061,-1014 1061,-1020 1061,-1020 1061,-1032 1061,-1032 1061,-1038 1055,-1044 1049,-1044"/>
<text text-anchor="middle" x="1014.5" y="-1023.5" font-family="sans" font-size="10.00" fill="#000000">shard_count_alns</text>
</g>
<!-- 8&#45;&gt;33 -->
<g id="edge63" class="edge">
<title>8&#45;&gt;33</title>
<path fill="none" stroke="#c0c0c0" stroke-width="2" d="M960.8864,-1079.8928C970.5209,-1070.2081 980.4613,-1060.216 989.1261,-1051.506"/>
<polygon fill="#c0c0c0" stroke="#c0c0c0" stroke-width="2" points="991.8012,-1053.7797 996.3726,-1044.2218 986.8386,-1048.8428 991.8012,-1053.7797"/>
</g>
<!-- 37 -->
<g id="node38" class="node">
<title>37</title>
<path fill="none" stroke="#5682d8" stroke-width="2" d="M1093,-900C1093,-900 964,-900 964,-900 958,-900 952,-894 952,-888 952,-888 952,-876 952,-876 952,-870 958,-864 964,-864 964,-864 1093,-864 1093,-864 1099,-864 1105,-870 1105,-876 1105,-876 1105,-888 1105,-888 1105,-894 1099,-900 1093,-900"/>
<text text-anchor="middle" x="1028.5" y="-879.5" font-family="sans" font-size="10.00" fill="#000000">shard_saturated_reads_remove</text>
</g>
<!-- 8&#45;&gt;37 -->
<g id="edge67" class="edge">
<title>8&#45;&gt;37</title>
<path fill="none" stroke="#c0c0c0" stroke-width="2" d="M867.7788,-1079.918C848.895,-1058.7474 834.8021,-1032.5059 847.5,-1008 873.2648,-958.276 928.6751,-924.2397 971.4437,-904.1969"/>
<polygon fill="#c0c0c0" stroke="#c0c0c0" stroke-width="2" points="972.987,-907.34 980.6373,-900.0104 970.0859,-900.9695 972.987,-907.34"/>
</g>
<!-- 9 -->
<g id="node10" class="node">
<title>9</title>
<path fill="none" stroke="#9fd856" stroke-width="2" d="M1218,-1165C1218,-1165 1111,-1165 1111,-1165 1105,-1165 1099,-1159 1099,-1153 1099,-1153 1099,-1092 1099,-1092 1099,-1086 1105,-1080 1111,-1080 1111,-1080 1218,-1080 1218,-1080 1224,-1080 1230,-1086 1230,-1092 1230,-1092 1230,-1153 1230,-1153 1230,-1159 1224,-1165 1218,-1165"/>
<text text-anchor="middle" x="1164.5" y="-1153" font-family="sans" font-size="10.00" fill="#000000">bowtie2</text>
<text text-anchor="middle" x="1164.5" y="-1142" font-family="sans" font-size="10.00" fill="#000000">library: lib1</text>
<text text-anchor="middle" x="1164.5" y="-1131" font-family="sans" font-size="10.00" fill="#000000">n_shard: 2</text>
<text text-anchor="middle" x="1164.5" y="-1120" font-family="sans" font-size="10.00" fill="#000000">read_type_map: collapsed</text>
<text text-anchor="middle" x="1164.5" y="-1109" font-family="sans" font-size="10.00" fill="#000000">ref: wgs_eukaryota</text>
<text text-anchor="middle" x="1164.5" y="-1098" font-family="sans" font-size="10.00" fill="#000000">sample: HD827sonic_2</text>
<text text-anchor="middle" x="1164.5" y="-1087" font-family="sans" font-size="10.00" fill="#000000">tot_shards: 2</text>
</g>
<!-- 9&#45;&gt;1 -->
<g id="edge18" class="edge">
<title>9&#45;&gt;1</title>
<path fill="none" stroke="#c0c0c0" stroke-width="2" d="M1133.1751,-1079.7268C1111.7674,-1051.5279 1084.6297,-1018.0173 1069.5,-1008 1023.0724,-977.2604 1002.0327,-990.4597 949.5,-972 868.9881,-943.7086 819.2061,-970.758 771.5,-900 762.5556,-886.7336 770.4694,-879.9668 771.5,-864 785.5291,-646.645 834.5,-595.8073 834.5,-378 834.5,-378 834.5,-378 834.5,-234 834.5,-193.876 834.5,-147.4631 834.5,-118.4177"/>
<polygon fill="#c0c0c0" stroke="#c0c0c0" stroke-width="2" points="838.0001,-118.1853 834.5,-108.1854 831.0001,-118.1854 838.0001,-118.1853"/>
</g>
<!-- 30 -->
<g id="node31" class="node">
<title>30</title>
<path fill="none" stroke="#5682d8" stroke-width="2" d="M1264,-900C1264,-900 1135,-900 1135,-900 1129,-900 1123,-894 1123,-888 1123,-888 1123,-876 1123,-876 1123,-870 1129,-864 1135,-864 1135,-864 1264,-864 1264,-864 1270,-864 1276,-870 1276,-876 1276,-876 1276,-888 1276,-888 1276,-894 1270,-900 1264,-900"/>
<text text-anchor="middle" x="1199.5" y="-879.5" font-family="sans" font-size="10.00" fill="#000000">shard_saturated_reads_remove</text>
</g>
<!-- 9&#45;&gt;30 -->
<g id="edge57" class="edge">
<title>9&#45;&gt;30</title>
<path fill="none" stroke="#c0c0c0" stroke-width="2" d="M1201.3478,-1079.7927C1208.7934,-1068.812 1215.5451,-1056.5371 1219.5,-1044 1233.8088,-998.6412 1220.7592,-943.1263 1210.0737,-910.2684"/>
<polygon fill="#c0c0c0" stroke="#c0c0c0" stroke-width="2" points="1213.2627,-908.7754 1206.7252,-900.438 1206.6366,-911.0325 1213.2627,-908.7754"/>
</g>
<!-- 32 -->
<g id="node33" class="node">
<title>32</title>
<path fill="none" stroke="#56c9d8" stroke-width="2" d="M1199,-1044C1199,-1044 1130,-1044 1130,-1044 1124,-1044 1118,-1038 1118,-1032 1118,-1032 1118,-1020 1118,-1020 1118,-1014 1124,-1008 1130,-1008 1130,-1008 1199,-1008 1199,-1008 1205,-1008 1211,-1014 1211,-1020 1211,-1020 1211,-1032 1211,-1032 1211,-1038 1205,-1044 1199,-1044"/>
<text text-anchor="middle" x="1164.5" y="-1023.5" font-family="sans" font-size="10.00" fill="#000000">shard_count_alns</text>
</g>
<!-- 9&#45;&gt;32 -->
<g id="edge62" class="edge">
<title>9&#45;&gt;32</title>
<path fill="none" stroke="#c0c0c0" stroke-width="2" d="M1164.5,-1079.8928C1164.5,-1071.2842 1164.5,-1062.4327 1164.5,-1054.4546"/>
<polygon fill="#c0c0c0" stroke="#c0c0c0" stroke-width="2" points="1168.0001,-1054.2218 1164.5,-1044.2218 1161.0001,-1054.2218 1168.0001,-1054.2218"/>
</g>
<!-- 10 -->
<g id="node11" class="node">
<title>10</title>
<path fill="none" stroke="#9fd856" stroke-width="2" d="M823,-1165C823,-1165 716,-1165 716,-1165 710,-1165 704,-1159 704,-1153 704,-1153 704,-1092 704,-1092 704,-1086 710,-1080 716,-1080 716,-1080 823,-1080 823,-1080 829,-1080 835,-1086 835,-1092 835,-1092 835,-1153 835,-1153 835,-1159 829,-1165 823,-1165"/>
<text text-anchor="middle" x="769.5" y="-1153" font-family="sans" font-size="10.00" fill="#000000">bowtie2</text>
<text text-anchor="middle" x="769.5" y="-1142" font-family="sans" font-size="10.00" fill="#000000">library: lib1</text>
<text text-anchor="middle" x="769.5" y="-1131" font-family="sans" font-size="10.00" fill="#000000">n_shard: 1</text>
<text text-anchor="middle" x="769.5" y="-1120" font-family="sans" font-size="10.00" fill="#000000">read_type_map: collapsed</text>
<text text-anchor="middle" x="769.5" y="-1109" font-family="sans" font-size="10.00" fill="#000000">ref: refseq_mitochondrion</text>
<text text-anchor="middle" x="769.5" y="-1098" font-family="sans" font-size="10.00" fill="#000000">sample: HD827sonic_2</text>
<text text-anchor="middle" x="769.5" y="-1087" font-family="sans" font-size="10.00" fill="#000000">tot_shards: 1</text>
</g>
<!-- 10&#45;&gt;1 -->
<g id="edge19" class="edge">
<title>10&#45;&gt;1</title>
<path fill="none" stroke="#c0c0c0" stroke-width="2" d="M725.8473,-1079.9432C716.4143,-1068.9572 707.2568,-1056.6421 700.5,-1044 680.9864,-1007.4898 676.5,-995.3978 676.5,-954 676.5,-954 676.5,-954 676.5,-234 676.5,-192.6022 673.0737,-175.0093 700.5,-144 713.7713,-128.995 762.65,-111.6916 797.5346,-100.7998"/>
<polygon fill="#c0c0c0" stroke="#c0c0c0" stroke-width="2" points="798.875,-104.0496 807.4084,-97.7701 796.8216,-97.3575 798.875,-104.0496"/>
</g>
<!-- 34 -->
<g id="node35" class="node">
<title>34</title>
<path fill="none" stroke="#56c9d8" stroke-width="2" d="M938,-1044C938,-1044 869,-1044 869,-1044 863,-1044 857,-1038 857,-1032 857,-1032 857,-1020 857,-1020 857,-1014 863,-1008 869,-1008 869,-1008 938,-1008 938,-1008 944,-1008 950,-1014 950,-1020 950,-1020 950,-1032 950,-1032 950,-1038 944,-1044 938,-1044"/>
<text text-anchor="middle" x="903.5" y="-1023.5" font-family="sans" font-size="10.00" fill="#000000">shard_count_alns</text>
</g>
<!-- 10&#45;&gt;34 -->
<g id="edge64" class="edge">
<title>10&#45;&gt;34</title>
<path fill="none" stroke="#c0c0c0" stroke-width="2" d="M828.6644,-1079.8928C842.7917,-1069.719 857.3903,-1059.2059 869.901,-1050.1963"/>
<polygon fill="#c0c0c0" stroke="#c0c0c0" stroke-width="2" points="872.1278,-1052.9058 878.1972,-1044.2218 868.0371,-1047.2255 872.1278,-1052.9058"/>
</g>
<!-- 40 -->
<g id="node41" class="node">
<title>40</title>
<path fill="none" stroke="#5682d8" stroke-width="2" d="M922,-900C922,-900 793,-900 793,-900 787,-900 781,-894 781,-888 781,-888 781,-876 781,-876 781,-870 787,-864 793,-864 793,-864 922,-864 922,-864 928,-864 934,-870 934,-876 934,-876 934,-888 934,-888 934,-894 928,-900 922,-900"/>
<text text-anchor="middle" x="857.5" y="-879.5" font-family="sans" font-size="10.00" fill="#000000">shard_saturated_reads_remove</text>
</g>
<!-- 10&#45;&gt;40 -->
<g id="edge71" class="edge">
<title>10&#45;&gt;40</title>
<path fill="none" stroke="#c0c0c0" stroke-width="2" d="M774.4002,-1079.9765C780.1149,-1040.9686 791.8296,-982.383 814.5,-936 819.3654,-926.0456 826.3248,-916.2382 833.2313,-907.7699"/>
<polygon fill="#c0c0c0" stroke="#c0c0c0" stroke-width="2" points="835.945,-909.9816 839.7666,-900.1 830.6168,-905.4417 835.945,-909.9816"/>
</g>
<!-- 11 -->
<g id="node12" class="node">
<title>11</title>
<path fill="none" stroke="#ced856" stroke-width="2" d="M486.5,-540C486.5,-540 446.5,-540 446.5,-540 440.5,-540 434.5,-534 434.5,-528 434.5,-528 434.5,-516 434.5,-516 434.5,-510 440.5,-504 446.5,-504 446.5,-504 486.5,-504 486.5,-504 492.5,-504 498.5,-510 498.5,-516 498.5,-516 498.5,-528 498.5,-528 498.5,-534 492.5,-540 486.5,-540"/>
<text text-anchor="middle" x="466.5" y="-519.5" font-family="sans" font-size="10.00" fill="#000000">align_stats</text>
</g>
<!-- 11&#45;&gt;1 -->
<g id="edge20" class="edge">
<title>11&#45;&gt;1</title>
<path fill="none" stroke="#c0c0c0" stroke-width="2" d="M479.0851,-503.8478C496.1434,-477.4241 524.5,-426.2435 524.5,-378 524.5,-378 524.5,-378 524.5,-234 524.5,-192.6022 517.8537,-171.8313 548.5,-144 620.8725,-78.2752 669.8809,-128.3597 765.5,-108 775.9437,-105.7763 787.1824,-103.0078 797.4949,-100.314"/>
<polygon fill="#c0c0c0" stroke="#c0c0c0" stroke-width="2" points="798.6718,-103.6226 807.435,-97.668 796.8712,-96.8582 798.6718,-103.6226"/>
</g>
<!-- 12 -->
<g id="node13" class="node">
<title>12</title>
<path fill="none" stroke="#d88556" stroke-width="2" d="M331,-684C331,-684 286,-684 286,-684 280,-684 274,-678 274,-672 274,-672 274,-660 274,-660 274,-654 280,-648 286,-648 286,-648 331,-648 331,-648 337,-648 343,-654 343,-660 343,-660 343,-672 343,-672 343,-678 337,-684 331,-684"/>
<text text-anchor="middle" x="308.5" y="-663.5" font-family="sans" font-size="10.00" fill="#000000">align_merge</text>
</g>
<!-- 12&#45;&gt;11 -->
<g id="edge29" class="edge">
<title>12&#45;&gt;11</title>
<path fill="none" stroke="#c0c0c0" stroke-width="2" d="M328.5108,-647.7623C356.5284,-622.2272 407.5445,-575.7316 439.0798,-546.9906"/>
<polygon fill="#c0c0c0" stroke="#c0c0c0" stroke-width="2" points="441.6183,-549.4125 446.6517,-540.0896 436.9031,-544.2389 441.6183,-549.4125"/>
</g>
<!-- 61 -->
<g id="node62" class="node">
<title>61</title>
<path fill="none" stroke="#d8b456" stroke-width="2" d="M340.5,-612C340.5,-612 276.5,-612 276.5,-612 270.5,-612 264.5,-606 264.5,-600 264.5,-600 264.5,-588 264.5,-588 264.5,-582 270.5,-576 276.5,-576 276.5,-576 340.5,-576 340.5,-576 346.5,-576 352.5,-582 352.5,-588 352.5,-588 352.5,-600 352.5,-600 352.5,-606 346.5,-612 340.5,-612"/>
<text text-anchor="middle" x="308.5" y="-591.5" font-family="sans" font-size="10.00" fill="#000000">align_sort_coord</text>
</g>
<!-- 12&#45;&gt;61 -->
<g id="edge100" class="edge">
<title>12&#45;&gt;61</title>
<path fill="none" stroke="#c0c0c0" stroke-width="2" d="M308.5,-647.8314C308.5,-640.131 308.5,-630.9743 308.5,-622.4166"/>
<polygon fill="#c0c0c0" stroke="#c0c0c0" stroke-width="2" points="312.0001,-622.4132 308.5,-612.4133 305.0001,-622.4133 312.0001,-622.4132"/>
</g>
<!-- 13 -->
<g id="node14" class="node">
<title>13</title>
<path fill="none" stroke="#566bd8" stroke-width="2" d="M457.5,-756C457.5,-756 389.5,-756 389.5,-756 383.5,-756 377.5,-750 377.5,-744 377.5,-744 377.5,-732 377.5,-732 377.5,-726 383.5,-720 389.5,-720 389.5,-720 457.5,-720 457.5,-720 463.5,-720 469.5,-726 469.5,-732 469.5,-732 469.5,-744 469.5,-744 469.5,-750 463.5,-756 457.5,-756"/>
<text text-anchor="middle" x="423.5" y="-735.5" font-family="sans" font-size="10.00" fill="#000000">shard_sort_query</text>
</g>
<!-- 13&#45;&gt;12 -->
<g id="edge30" class="edge">
<title>13&#45;&gt;12</title>
<path fill="none" stroke="#c0c0c0" stroke-width="2" d="M394.4806,-719.8314C379.7714,-710.6221 361.7356,-699.3301 345.9878,-689.4706"/>
<polygon fill="#c0c0c0" stroke="#c0c0c0" stroke-width="2" points="347.8433,-686.5029 337.5101,-684.1628 344.1286,-692.436 347.8433,-686.5029"/>
</g>
<!-- 14 -->
<g id="node15" class="node">
<title>14</title>
<path fill="none" stroke="#56d8c9" stroke-width="2" d="M487.5,-828C487.5,-828 407.5,-828 407.5,-828 401.5,-828 395.5,-822 395.5,-816 395.5,-816 395.5,-804 395.5,-804 395.5,-798 401.5,-792 407.5,-792 407.5,-792 487.5,-792 487.5,-792 493.5,-792 499.5,-798 499.5,-804 499.5,-804 499.5,-816 499.5,-816 499.5,-822 493.5,-828 487.5,-828"/>
<text text-anchor="middle" x="447.5" y="-807.5" font-family="sans" font-size="10.00" fill="#000000">shard_clean_header</text>
</g>
<!-- 14&#45;&gt;13 -->
<g id="edge33" class="edge">
<title>14&#45;&gt;13</title>
<path fill="none" stroke="#c0c0c0" stroke-width="2" d="M441.4438,-791.8314C438.8488,-784.0463 435.7576,-774.7729 432.8782,-766.1347"/>
<polygon fill="#c0c0c0" stroke="#c0c0c0" stroke-width="2" points="436.1205,-764.7933 429.6378,-756.4133 429.4797,-767.0069 436.1205,-764.7933"/>
</g>
<!-- 15&#45;&gt;14 -->
<g id="edge34" class="edge">
<title>15&#45;&gt;14</title>
<path fill="none" stroke="#c0c0c0" stroke-width="2" d="M454.9766,-863.8314C453.9071,-856.131 452.6353,-846.9743 451.4468,-838.4166"/>
<polygon fill="#c0c0c0" stroke="#c0c0c0" stroke-width="2" points="454.8999,-837.8367 450.0574,-828.4133 447.9664,-838.7997 454.8999,-837.8367"/>
</g>
<!-- 16 -->
<g id="node17" class="node">
<title>16</title>
<path fill="none" stroke="#569ad8" stroke-width="2" d="M334.5,-972C334.5,-972 218.5,-972 218.5,-972 212.5,-972 206.5,-966 206.5,-960 206.5,-960 206.5,-948 206.5,-948 206.5,-942 212.5,-936 218.5,-936 218.5,-936 334.5,-936 334.5,-936 340.5,-936 346.5,-942 346.5,-948 346.5,-948 346.5,-960 346.5,-960 346.5,-966 340.5,-972 334.5,-972"/>
<text text-anchor="middle" x="276.5" y="-951.5" font-family="sans" font-size="10.00" fill="#000000">shard_saturated_reads_filter</text>
</g>
<!-- 16&#45;&gt;15 -->
<g id="edge36" class="edge">
<title>16&#45;&gt;15</title>
<path fill="none" stroke="#c0c0c0" stroke-width="2" d="M322.1739,-935.8314C346.5968,-926.1162 376.8466,-914.0831 402.5484,-903.8592"/>
<polygon fill="#c0c0c0" stroke="#c0c0c0" stroke-width="2" points="404.1563,-906.9864 412.1545,-900.038 401.569,-900.4821 404.1563,-906.9864"/>
</g>
<!-- 16&#45;&gt;22 -->
<g id="edge46" class="edge">
<title>16&#45;&gt;22</title>
<path fill="none" stroke="#c0c0c0" stroke-width="2" d="M226.2897,-935.9243C198.9485,-926.0815 164.9406,-913.8386 136.2425,-903.5073"/>
<polygon fill="#c0c0c0" stroke="#c0c0c0" stroke-width="2" points="137.3254,-900.1773 126.7309,-900.0831 134.9543,-906.7635 137.3254,-900.1773"/>
</g>
<!-- 16&#45;&gt;25 -->
<g id="edge50" class="edge">
<title>16&#45;&gt;25</title>
<path fill="none" stroke="#c0c0c0" stroke-width="2" d="M279.0234,-935.8314C280.0929,-928.131 281.3647,-918.9743 282.5532,-910.4166"/>
<polygon fill="#c0c0c0" stroke="#c0c0c0" stroke-width="2" points="286.0336,-910.7997 283.9426,-900.4133 279.1001,-909.8367 286.0336,-910.7997"/>
</g>
<!-- 77 -->
<g id="node78" class="node">
<title>77</title>
<path fill="none" stroke="#56b1d8" stroke-width="2" d="M745,-108C745,-108 618,-108 618,-108 612,-108 606,-102 606,-96 606,-96 606,-84 606,-84 606,-78 612,-72 618,-72 618,-72 745,-72 745,-72 751,-72 757,-78 757,-84 757,-84 757,-96 757,-96 757,-102 751,-108 745,-108"/>
<text text-anchor="middle" x="681.5" y="-87.5" font-family="sans" font-size="10.00" fill="#000000">shard_saturated_reads_extract</text>
</g>
<!-- 16&#45;&gt;77 -->
<g id="edge119" class="edge">
<title>16&#45;&gt;77</title>
<path fill="none" stroke="#c0c0c0" stroke-width="2" d="M236.9052,-935.8102C222.7524,-927.1243 208.3698,-915.2457 200.5,-900 192.5067,-884.5149 183.0433,-537.9377 268.5,-432 296.3278,-397.5028 327.1987,-424.0689 361.5,-396 464.358,-311.8309 417.9,-225.9942 522.5,-144 543.8618,-127.2548 570.7167,-115.5471 596.2435,-107.4276"/>
<polygon fill="#c0c0c0" stroke="#c0c0c0" stroke-width="2" points="597.3916,-110.737 605.9477,-104.4884 595.3624,-104.0375 597.3916,-110.737"/>
</g>
<!-- 17&#45;&gt;16 -->
<g id="edge37" class="edge">
<title>17&#45;&gt;16</title>
<path fill="none" stroke="#c0c0c0" stroke-width="2" d="M405.8448,-1007.8314C382.6042,-998.159 353.8432,-986.1891 329.3477,-975.9944"/>
<polygon fill="#c0c0c0" stroke="#c0c0c0" stroke-width="2" points="330.4185,-972.6491 319.8413,-972.038 327.7288,-979.1117 330.4185,-972.6491"/>
</g>
<!-- 18&#45;&gt;16 -->
<g id="edge38" class="edge">
<title>18&#45;&gt;16</title>
<path fill="none" stroke="#c0c0c0" stroke-width="2" d="M210.7061,-1007.8314C221.545,-998.9632 234.7444,-988.1637 246.4678,-978.5718"/>
<polygon fill="#c0c0c0" stroke="#c0c0c0" stroke-width="2" points="248.7777,-981.2041 254.301,-972.1628 244.345,-975.7864 248.7777,-981.2041"/>
</g>
<!-- 19&#45;&gt;16 -->
<g id="edge39" class="edge">
<title>19&#45;&gt;16</title>
<path fill="none" stroke="#c0c0c0" stroke-width="2" d="M293.6961,-1007.8314C291.2092,-1000.0463 288.2469,-990.7729 285.4875,-982.1347"/>
<polygon fill="#c0c0c0" stroke="#c0c0c0" stroke-width="2" points="288.7591,-980.874 282.382,-972.4133 282.091,-983.0041 288.7591,-980.874"/>
</g>
<!-- 20 -->
<g id="node21" class="node">
<title>20</title>
<path fill="none" stroke="#566bd8" stroke-width="2" d="M161.5,-756C161.5,-756 93.5,-756 93.5,-756 87.5,-756 81.5,-750 81.5,-744 81.5,-744 81.5,-732 81.5,-732 81.5,-726 87.5,-720 93.5,-720 93.5,-720 161.5,-720 161.5,-720 167.5,-720 173.5,-726 173.5,-732 173.5,-732 173.5,-744 173.5,-744 173.5,-750 167.5,-756 161.5,-756"/>
<text text-anchor="middle" x="127.5" y="-735.5" font-family="sans" font-size="10.00" fill="#000000">shard_sort_query</text>
</g>
<!-- 20&#45;&gt;12 -->
<g id="edge31" class="edge">
<title>20&#45;&gt;12</title>
<path fill="none" stroke="#c0c0c0" stroke-width="2" d="M173.1739,-719.8314C201.1845,-708.689 236.8597,-694.4978 264.5477,-683.4838"/>
<polygon fill="#c0c0c0" stroke="#c0c0c0" stroke-width="2" points="265.9844,-686.6791 273.9825,-679.7307 263.397,-680.1748 265.9844,-686.6791"/>
</g>
<!-- 21 -->
<g id="node22" class="node">
<title>21</title>
<path fill="none" stroke="#56d8c9" stroke-width="2" d="M144.5,-828C144.5,-828 64.5,-828 64.5,-828 58.5,-828 52.5,-822 52.5,-816 52.5,-816 52.5,-804 52.5,-804 52.5,-798 58.5,-792 64.5,-792 64.5,-792 144.5,-792 144.5,-792 150.5,-792 156.5,-798 156.5,-804 156.5,-804 156.5,-816 156.5,-816 156.5,-822 150.5,-828 144.5,-828"/>
<text text-anchor="middle" x="104.5" y="-807.5" font-family="sans" font-size="10.00" fill="#000000">shard_clean_header</text>
</g>
<!-- 21&#45;&gt;20 -->
<g id="edge43" class="edge">
<title>21&#45;&gt;20</title>
<path fill="none" stroke="#c0c0c0" stroke-width="2" d="M110.3039,-791.8314C112.7908,-784.0463 115.7531,-774.7729 118.5125,-766.1347"/>
<polygon fill="#c0c0c0" stroke="#c0c0c0" stroke-width="2" points="121.909,-767.0041 121.618,-756.4133 115.2409,-764.874 121.909,-767.0041"/>
</g>
<!-- 22&#45;&gt;21 -->
<g id="edge44" class="edge">
<title>22&#45;&gt;21</title>
<path fill="none" stroke="#c0c0c0" stroke-width="2" d="M83.5656,-863.8314C86.626,-855.9617 90.2779,-846.5712 93.6682,-837.8533"/>
<polygon fill="#c0c0c0" stroke="#c0c0c0" stroke-width="2" points="96.9768,-839.0019 97.3393,-828.4133 90.4527,-836.4647 96.9768,-839.0019"/>
</g>
<!-- 23 -->
<g id="node24" class="node">
<title>23</title>
<path fill="none" stroke="#566bd8" stroke-width="2" d="M336.5,-756C336.5,-756 268.5,-756 268.5,-756 262.5,-756 256.5,-750 256.5,-744 256.5,-744 256.5,-732 256.5,-732 256.5,-726 262.5,-720 268.5,-720 268.5,-720 336.5,-720 336.5,-720 342.5,-720 348.5,-726 348.5,-732 348.5,-732 348.5,-744 348.5,-744 348.5,-750 342.5,-756 336.5,-756"/>
<text text-anchor="middle" x="302.5" y="-735.5" font-family="sans" font-size="10.00" fill="#000000">shard_sort_query</text>
</g>
<!-- 23&#45;&gt;12 -->
<g id="edge32" class="edge">
<title>23&#45;&gt;12</title>
<path fill="none" stroke="#c0c0c0" stroke-width="2" d="M304.0141,-719.8314C304.6558,-712.131 305.4188,-702.9743 306.1319,-694.4166"/>
<polygon fill="#c0c0c0" stroke="#c0c0c0" stroke-width="2" points="309.6229,-694.6694 306.9656,-684.4133 302.6471,-694.088 309.6229,-694.6694"/>
</g>
<!-- 24 -->
<g id="node25" class="node">
<title>24</title>
<path fill="none" stroke="#56d8c9" stroke-width="2" d="M339.5,-828C339.5,-828 259.5,-828 259.5,-828 253.5,-828 247.5,-822 247.5,-816 247.5,-816 247.5,-804 247.5,-804 247.5,-798 253.5,-792 259.5,-792 259.5,-792 339.5,-792 339.5,-792 345.5,-792 351.5,-798 351.5,-804 351.5,-804 351.5,-816 351.5,-816 351.5,-822 345.5,-828 339.5,-828"/>
<text text-anchor="middle" x="299.5" y="-807.5" font-family="sans" font-size="10.00" fill="#000000">shard_clean_header</text>
</g>
<!-- 24&#45;&gt;23 -->
<g id="edge47" class="edge">
<title>24&#45;&gt;23</title>
<path fill="none" stroke="#c0c0c0" stroke-width="2" d="M300.257,-791.8314C300.5779,-784.131 300.9594,-774.9743 301.316,-766.4166"/>
<polygon fill="#c0c0c0" stroke="#c0c0c0" stroke-width="2" points="304.8133,-766.5503 301.7328,-756.4133 297.8194,-766.2589 304.8133,-766.5503"/>
</g>
<!-- 25&#45;&gt;24 -->
<g id="edge48" class="edge">
<title>25&#45;&gt;24</title>
<path fill="none" stroke="#c0c0c0" stroke-width="2" d="M289.7804,-863.8314C291.1708,-856.131 292.8241,-846.9743 294.3692,-838.4166"/>
<polygon fill="#c0c0c0" stroke="#c0c0c0" stroke-width="2" points="297.8428,-838.8761 296.1754,-828.4133 290.9542,-837.6322 297.8428,-838.8761"/>
</g>
<!-- 26 -->
<g id="node27" class="node">
<title>26</title>
<path fill="none" stroke="#ced856" stroke-width="2" d="M794.5,-396C794.5,-396 754.5,-396 754.5,-396 748.5,-396 742.5,-390 742.5,-384 742.5,-384 742.5,-372 742.5,-372 742.5,-366 748.5,-360 754.5,-360 754.5,-360 794.5,-360 794.5,-360 800.5,-360 806.5,-366 806.5,-372 806.5,-372 806.5,-384 806.5,-384 806.5,-390 800.5,-396 794.5,-396"/>
<text text-anchor="middle" x="774.5" y="-375.5" font-family="sans" font-size="10.00" fill="#000000">align_stats</text>
</g>
<!-- 26&#45;&gt;1 -->
<g id="edge21" class="edge">
<title>26&#45;&gt;1</title>
<path fill="none" stroke="#c0c0c0" stroke-width="2" d="M777.7109,-359.7173C784.7353,-320.1988 802.2991,-223.9309 820.5,-144 822.405,-135.6339 824.6682,-126.591 826.8135,-118.3418"/>
<polygon fill="#c0c0c0" stroke="#c0c0c0" stroke-width="2" points="830.2622,-118.9901 829.432,-108.4279 823.4943,-117.2025 830.2622,-118.9901"/>
</g>
<!-- 27 -->
<g id="node28" class="node">
<title>27</title>
<path fill="none" stroke="#d88556" stroke-width="2" d="M1051,-684C1051,-684 1006,-684 1006,-684 1000,-684 994,-678 994,-672 994,-672 994,-660 994,-660 994,-654 1000,-648 1006,-648 1006,-648 1051,-648 1051,-648 1057,-648 1063,-654 1063,-660 1063,-660 1063,-672 1063,-672 1063,-678 1057,-684 1051,-684"/>
<text text-anchor="middle" x="1028.5" y="-663.5" font-family="sans" font-size="10.00" fill="#000000">align_merge</text>
</g>
<!-- 27&#45;&gt;26 -->
<g id="edge51" class="edge">
<title>27&#45;&gt;26</title>
<path fill="none" stroke="#c0c0c0" stroke-width="2" d="M1010.9872,-647.9249C987.6628,-623.7111 945.2992,-579.2395 910.5,-540 868.8982,-493.0899 822.2921,-436.6905 795.8631,-404.3272"/>
<polygon fill="#c0c0c0" stroke="#c0c0c0" stroke-width="2" points="798.3106,-401.7903 789.2792,-396.2509 792.8849,-406.2133 798.3106,-401.7903"/>
</g>
<!-- 67 -->
<g id="node68" class="node">
<title>67</title>
<path fill="none" stroke="#d8b456" stroke-width="2" d="M1068.5,-612C1068.5,-612 1004.5,-612 1004.5,-612 998.5,-612 992.5,-606 992.5,-600 992.5,-600 992.5,-588 992.5,-588 992.5,-582 998.5,-576 1004.5,-576 1004.5,-576 1068.5,-576 1068.5,-576 1074.5,-576 1080.5,-582 1080.5,-588 1080.5,-588 1080.5,-600 1080.5,-600 1080.5,-606 1074.5,-612 1068.5,-612"/>
<text text-anchor="middle" x="1036.5" y="-591.5" font-family="sans" font-size="10.00" fill="#000000">align_sort_coord</text>
</g>
<!-- 27&#45;&gt;67 -->
<g id="edge106" class="edge">
<title>27&#45;&gt;67</title>
<path fill="none" stroke="#c0c0c0" stroke-width="2" d="M1030.5187,-647.8314C1031.3743,-640.131 1032.3917,-630.9743 1033.3426,-622.4166"/>
<polygon fill="#c0c0c0" stroke="#c0c0c0" stroke-width="2" points="1036.8283,-622.7386 1034.4541,-612.4133 1029.8711,-621.9656 1036.8283,-622.7386"/>
</g>
<!-- 28 -->
<g id="node29" class="node">
<title>28</title>
<path fill="none" stroke="#566bd8" stroke-width="2" d="M1192.5,-756C1192.5,-756 1124.5,-756 1124.5,-756 1118.5,-756 1112.5,-750 1112.5,-744 1112.5,-744 1112.5,-732 1112.5,-732 1112.5,-726 1118.5,-720 1124.5,-720 1124.5,-720 1192.5,-720 1192.5,-720 1198.5,-720 1204.5,-726 1204.5,-732 1204.5,-732 1204.5,-744 1204.5,-744 1204.5,-750 1198.5,-756 1192.5,-756"/>
<text text-anchor="middle" x="1158.5" y="-735.5" font-family="sans" font-size="10.00" fill="#000000">shard_sort_query</text>
</g>
<!-- 28&#45;&gt;27 -->
<g id="edge52" class="edge">
<title>28&#45;&gt;27</title>
<path fill="none" stroke="#c0c0c0" stroke-width="2" d="M1125.6955,-719.8314C1108.9138,-710.5368 1088.3015,-699.1208 1070.3837,-689.1971"/>
<polygon fill="#c0c0c0" stroke="#c0c0c0" stroke-width="2" points="1071.7377,-685.9461 1061.294,-684.1628 1068.3462,-692.0696 1071.7377,-685.9461"/>
</g>
<!-- 29 -->
<g id="node30" class="node">
<title>29</title>
<path fill="none" stroke="#56d8c9" stroke-width="2" d="M1228.5,-828C1228.5,-828 1148.5,-828 1148.5,-828 1142.5,-828 1136.5,-822 1136.5,-816 1136.5,-816 1136.5,-804 1136.5,-804 1136.5,-798 1142.5,-792 1148.5,-792 1148.5,-792 1228.5,-792 1228.5,-792 1234.5,-792 1240.5,-798 1240.5,-804 1240.5,-804 1240.5,-816 1240.5,-816 1240.5,-822 1234.5,-828 1228.5,-828"/>
<text text-anchor="middle" x="1188.5" y="-807.5" font-family="sans" font-size="10.00" fill="#000000">shard_clean_header</text>
</g>
<!-- 29&#45;&gt;28 -->
<g id="edge55" class="edge">
<title>29&#45;&gt;28</title>
<path fill="none" stroke="#c0c0c0" stroke-width="2" d="M1180.9297,-791.8314C1177.6507,-783.9617 1173.738,-774.5712 1170.1055,-765.8533"/>
<polygon fill="#c0c0c0" stroke="#c0c0c0" stroke-width="2" points="1173.2492,-764.2979 1166.1722,-756.4133 1166.7876,-766.9902 1173.2492,-764.2979"/>
</g>
<!-- 30&#45;&gt;29 -->
<g id="edge56" class="edge">
<title>30&#45;&gt;29</title>
<path fill="none" stroke="#c0c0c0" stroke-width="2" d="M1196.7242,-863.8314C1195.5478,-856.131 1194.1489,-846.9743 1192.8414,-838.4166"/>
<polygon fill="#c0c0c0" stroke="#c0c0c0" stroke-width="2" points="1196.2833,-837.7699 1191.3131,-828.4133 1189.3636,-838.8272 1196.2833,-837.7699"/>
</g>
<!-- 31 -->
<g id="node32" class="node">
<title>31</title>
<path fill="none" stroke="#569ad8" stroke-width="2" d="M1086.5,-972C1086.5,-972 970.5,-972 970.5,-972 964.5,-972 958.5,-966 958.5,-960 958.5,-960 958.5,-948 958.5,-948 958.5,-942 964.5,-936 970.5,-936 970.5,-936 1086.5,-936 1086.5,-936 1092.5,-936 1098.5,-942 1098.5,-948 1098.5,-948 1098.5,-960 1098.5,-960 1098.5,-966 1092.5,-972 1086.5,-972"/>
<text text-anchor="middle" x="1028.5" y="-951.5" font-family="sans" font-size="10.00" fill="#000000">shard_saturated_reads_filter</text>
</g>
<!-- 31&#45;&gt;30 -->
<g id="edge58" class="edge">
<title>31&#45;&gt;30</title>
<path fill="none" stroke="#c0c0c0" stroke-width="2" d="M1071.6505,-935.8314C1094.6224,-926.159 1123.0509,-914.1891 1147.2632,-903.9944"/>
<polygon fill="#c0c0c0" stroke="#c0c0c0" stroke-width="2" points="1148.8016,-907.1443 1156.6598,-900.038 1146.0852,-900.6929 1148.8016,-907.1443"/>
</g>
<!-- 31&#45;&gt;37 -->
<g id="edge68" class="edge">
<title>31&#45;&gt;37</title>
<path fill="none" stroke="#c0c0c0" stroke-width="2" d="M1028.5,-935.8314C1028.5,-928.131 1028.5,-918.9743 1028.5,-910.4166"/>
<polygon fill="#c0c0c0" stroke="#c0c0c0" stroke-width="2" points="1032.0001,-910.4132 1028.5,-900.4133 1025.0001,-910.4133 1032.0001,-910.4132"/>
</g>
<!-- 31&#45;&gt;40 -->
<g id="edge72" class="edge">
<title>31&#45;&gt;40</title>
<path fill="none" stroke="#c0c0c0" stroke-width="2" d="M985.3495,-935.8314C962.3776,-926.159 933.9491,-914.1891 909.7368,-903.9944"/>
<polygon fill="#c0c0c0" stroke="#c0c0c0" stroke-width="2" points="910.9148,-900.6929 900.3402,-900.038 908.1984,-907.1443 910.9148,-900.6929"/>
</g>
<!-- 78 -->
<g id="node79" class="node">
<title>78</title>
<path fill="none" stroke="#56b1d8" stroke-width="2" d="M1476,-612C1476,-612 1349,-612 1349,-612 1343,-612 1337,-606 1337,-600 1337,-600 1337,-588 1337,-588 1337,-582 1343,-576 1349,-576 1349,-576 1476,-576 1476,-576 1482,-576 1488,-582 1488,-588 1488,-588 1488,-600 1488,-600 1488,-606 1482,-612 1476,-612"/>
<text text-anchor="middle" x="1412.5" y="-591.5" font-family="sans" font-size="10.00" fill="#000000">shard_saturated_reads_extract</text>
</g>
<!-- 31&#45;&gt;78 -->
<g id="edge120" class="edge">
<title>31&#45;&gt;78</title>
<path fill="none" stroke="#c0c0c0" stroke-width="2" d="M1098.7149,-945.3529C1163.784,-936.2529 1254.8536,-920.418 1284.5,-900 1323.6912,-873.0084 1342.5,-857.5867 1342.5,-810 1342.5,-810 1342.5,-810 1342.5,-738 1342.5,-693.1595 1370.2942,-647.6528 1390.8548,-620.1238"/>
<polygon fill="#c0c0c0" stroke="#c0c0c0" stroke-width="2" points="1393.6435,-622.239 1396.9647,-612.1781 1388.0944,-617.9719 1393.6435,-622.239"/>
</g>
<!-- 32&#45;&gt;31 -->
<g id="edge59" class="edge">
<title>32&#45;&gt;31</title>
<path fill="none" stroke="#c0c0c0" stroke-width="2" d="M1130.1815,-1007.8314C1112.4641,-998.4516 1090.6655,-986.9112 1071.8016,-976.9244"/>
<polygon fill="#c0c0c0" stroke="#c0c0c0" stroke-width="2" points="1073.2831,-973.7485 1062.8076,-972.1628 1070.0078,-979.935 1073.2831,-973.7485"/>
</g>
<!-- 33&#45;&gt;31 -->
<g id="edge60" class="edge">
<title>33&#45;&gt;31</title>
<path fill="none" stroke="#c0c0c0" stroke-width="2" d="M1018.0328,-1007.8314C1019.5301,-1000.131 1021.3105,-990.9743 1022.9745,-982.4166"/>
<polygon fill="#c0c0c0" stroke="#c0c0c0" stroke-width="2" points="1026.4465,-982.8975 1024.9196,-972.4133 1019.5752,-981.5614 1026.4465,-982.8975"/>
</g>
<!-- 34&#45;&gt;31 -->
<g id="edge61" class="edge">
<title>34&#45;&gt;31</title>
<path fill="none" stroke="#c0c0c0" stroke-width="2" d="M935.0428,-1007.8314C951.1791,-998.5368 970.9986,-987.1208 988.2272,-977.1971"/>
<polygon fill="#c0c0c0" stroke="#c0c0c0" stroke-width="2" points="990.0489,-980.187 996.9673,-972.1628 986.555,-974.1212 990.0489,-980.187"/>
</g>
<!-- 35 -->
<g id="node36" class="node">
<title>35</title>
<path fill="none" stroke="#566bd8" stroke-width="2" d="M1062.5,-756C1062.5,-756 994.5,-756 994.5,-756 988.5,-756 982.5,-750 982.5,-744 982.5,-744 982.5,-732 982.5,-732 982.5,-726 988.5,-720 994.5,-720 994.5,-720 1062.5,-720 1062.5,-720 1068.5,-720 1074.5,-726 1074.5,-732 1074.5,-732 1074.5,-744 1074.5,-744 1074.5,-750 1068.5,-756 1062.5,-756"/>
<text text-anchor="middle" x="1028.5" y="-735.5" font-family="sans" font-size="10.00" fill="#000000">shard_sort_query</text>
</g>
<!-- 35&#45;&gt;27 -->
<g id="edge53" class="edge">
<title>35&#45;&gt;27</title>
<path fill="none" stroke="#c0c0c0" stroke-width="2" d="M1028.5,-719.8314C1028.5,-712.131 1028.5,-702.9743 1028.5,-694.4166"/>
<polygon fill="#c0c0c0" stroke="#c0c0c0" stroke-width="2" points="1032.0001,-694.4132 1028.5,-684.4133 1025.0001,-694.4133 1032.0001,-694.4132"/>
</g>
<!-- 36 -->
<g id="node37" class="node">
<title>36</title>
<path fill="none" stroke="#56d8c9" stroke-width="2" d="M1068.5,-828C1068.5,-828 988.5,-828 988.5,-828 982.5,-828 976.5,-822 976.5,-816 976.5,-816 976.5,-804 976.5,-804 976.5,-798 982.5,-792 988.5,-792 988.5,-792 1068.5,-792 1068.5,-792 1074.5,-792 1080.5,-798 1080.5,-804 1080.5,-804 1080.5,-816 1080.5,-816 1080.5,-822 1074.5,-828 1068.5,-828"/>
<text text-anchor="middle" x="1028.5" y="-807.5" font-family="sans" font-size="10.00" fill="#000000">shard_clean_header</text>
</g>
<!-- 36&#45;&gt;35 -->
<g id="edge65" class="edge">
<title>36&#45;&gt;35</title>
<path fill="none" stroke="#c0c0c0" stroke-width="2" d="M1028.5,-791.8314C1028.5,-784.131 1028.5,-774.9743 1028.5,-766.4166"/>
<polygon fill="#c0c0c0" stroke="#c0c0c0" stroke-width="2" points="1032.0001,-766.4132 1028.5,-756.4133 1025.0001,-766.4133 1032.0001,-766.4132"/>
</g>
<!-- 37&#45;&gt;36 -->
<g id="edge66" class="edge">
<title>37&#45;&gt;36</title>
<path fill="none" stroke="#c0c0c0" stroke-width="2" d="M1028.5,-863.8314C1028.5,-856.131 1028.5,-846.9743 1028.5,-838.4166"/>
<polygon fill="#c0c0c0" stroke="#c0c0c0" stroke-width="2" points="1032.0001,-838.4132 1028.5,-828.4133 1025.0001,-838.4133 1032.0001,-838.4132"/>
</g>
<!-- 38 -->
<g id="node39" class="node">
<title>38</title>
<path fill="none" stroke="#566bd8" stroke-width="2" d="M922.5,-756C922.5,-756 854.5,-756 854.5,-756 848.5,-756 842.5,-750 842.5,-744 842.5,-744 842.5,-732 842.5,-732 842.5,-726 848.5,-720 854.5,-720 854.5,-720 922.5,-720 922.5,-720 928.5,-720 934.5,-726 934.5,-732 934.5,-732 934.5,-744 934.5,-744 934.5,-750 928.5,-756 922.5,-756"/>
<text text-anchor="middle" x="888.5" y="-735.5" font-family="sans" font-size="10.00" fill="#000000">shard_sort_query</text>
</g>
<!-- 38&#45;&gt;27 -->
<g id="edge54" class="edge">
<title>38&#45;&gt;27</title>
<path fill="none" stroke="#c0c0c0" stroke-width="2" d="M923.8279,-719.8314C942.2891,-710.337 965.0548,-698.6289 984.635,-688.5591"/>
<polygon fill="#c0c0c0" stroke="#c0c0c0" stroke-width="2" points="986.3762,-691.5995 993.6684,-683.9134 983.1747,-685.3744 986.3762,-691.5995"/>
</g>
<!-- 39 -->
<g id="node40" class="node">
<title>39</title>
<path fill="none" stroke="#56d8c9" stroke-width="2" d="M912.5,-828C912.5,-828 832.5,-828 832.5,-828 826.5,-828 820.5,-822 820.5,-816 820.5,-816 820.5,-804 820.5,-804 820.5,-798 826.5,-792 832.5,-792 832.5,-792 912.5,-792 912.5,-792 918.5,-792 924.5,-798 924.5,-804 924.5,-804 924.5,-816 924.5,-816 924.5,-822 918.5,-828 912.5,-828"/>
<text text-anchor="middle" x="872.5" y="-807.5" font-family="sans" font-size="10.00" fill="#000000">shard_clean_header</text>
</g>
<!-- 39&#45;&gt;38 -->
<g id="edge69" class="edge">
<title>39&#45;&gt;38</title>
<path fill="none" stroke="#c0c0c0" stroke-width="2" d="M876.5375,-791.8314C878.2487,-784.131 880.2835,-774.9743 882.1852,-766.4166"/>
<polygon fill="#c0c0c0" stroke="#c0c0c0" stroke-width="2" points="885.6554,-766.9344 884.4082,-756.4133 878.8221,-765.4159 885.6554,-766.9344"/>
</g>
<!-- 40&#45;&gt;39 -->
<g id="edge70" class="edge">
<title>40&#45;&gt;39</title>
<path fill="none" stroke="#c0c0c0" stroke-width="2" d="M861.2851,-863.8314C862.8894,-856.131 864.797,-846.9743 866.5799,-838.4166"/>
<polygon fill="#c0c0c0" stroke="#c0c0c0" stroke-width="2" points="870.0507,-838.9169 868.6639,-828.4133 863.1979,-837.4892 870.0507,-838.9169"/>
</g>
<!-- 41 -->
<g id="node42" class="node">
<title>41</title>
<path fill="none" stroke="#ced856" stroke-width="2" d="M1331.5,-468C1331.5,-468 1291.5,-468 1291.5,-468 1285.5,-468 1279.5,-462 1279.5,-456 1279.5,-456 1279.5,-444 1279.5,-444 1279.5,-438 1285.5,-432 1291.5,-432 1291.5,-432 1331.5,-432 1331.5,-432 1337.5,-432 1343.5,-438 1343.5,-444 1343.5,-444 1343.5,-456 1343.5,-456 1343.5,-462 1337.5,-468 1331.5,-468"/>
<text text-anchor="middle" x="1311.5" y="-447.5" font-family="sans" font-size="10.00" fill="#000000">align_stats</text>
</g>
<!-- 41&#45;&gt;1 -->
<g id="edge22" class="edge">
<title>41&#45;&gt;1</title>
<path fill="none" stroke="#c0c0c0" stroke-width="2" d="M1291.3649,-431.8379C1255.8662,-398.9348 1181.5561,-325.9924 1135.5,-252 1108.1107,-207.9972 1131.2917,-177.212 1091.5,-144 1058.5772,-116.5212 935.2653,-100.2681 872.1836,-93.5808"/>
<polygon fill="#c0c0c0" stroke="#c0c0c0" stroke-width="2" points="872.176,-90.0614 861.8694,-92.5158 871.4571,-97.0244 872.176,-90.0614"/>
</g>
<!-- 42 -->
<g id="node43" class="node">
<title>42</title>
<path fill="none" stroke="#d88556" stroke-width="2" d="M1672,-684C1672,-684 1627,-684 1627,-684 1621,-684 1615,-678 1615,-672 1615,-672 1615,-660 1615,-660 1615,-654 1621,-648 1627,-648 1627,-648 1672,-648 1672,-648 1678,-648 1684,-654 1684,-660 1684,-660 1684,-672 1684,-672 1684,-678 1678,-684 1672,-684"/>
<text text-anchor="middle" x="1649.5" y="-663.5" font-family="sans" font-size="10.00" fill="#000000">align_merge</text>
</g>
<!-- 42&#45;&gt;41 -->
<g id="edge73" class="edge">
<title>42&#45;&gt;41</title>
<path fill="none" stroke="#c0c0c0" stroke-width="2" d="M1621.2637,-647.9555C1560.3741,-609.0438 1416.7311,-517.2483 1348.5996,-473.7086"/>
<polygon fill="#c0c0c0" stroke="#c0c0c0" stroke-width="2" points="1350.2047,-470.5808 1339.8937,-468.1451 1346.4353,-476.4792 1350.2047,-470.5808"/>
</g>
<!-- 73 -->
<g id="node74" class="node">
<title>73</title>
<path fill="none" stroke="#d8b456" stroke-width="2" d="M1681.5,-612C1681.5,-612 1617.5,-612 1617.5,-612 1611.5,-612 1605.5,-606 1605.5,-600 1605.5,-600 1605.5,-588 1605.5,-588 1605.5,-582 1611.5,-576 1617.5,-576 1617.5,-576 1681.5,-576 1681.5,-576 1687.5,-576 1693.5,-582 1693.5,-588 1693.5,-588 1693.5,-600 1693.5,-600 1693.5,-606 1687.5,-612 1681.5,-612"/>
<text text-anchor="middle" x="1649.5" y="-591.5" font-family="sans" font-size="10.00" fill="#000000">align_sort_coord</text>
</g>
<!-- 42&#45;&gt;73 -->
<g id="edge112" class="edge">
<title>42&#45;&gt;73</title>
<path fill="none" stroke="#c0c0c0" stroke-width="2" d="M1649.5,-647.8314C1649.5,-640.131 1649.5,-630.9743 1649.5,-622.4166"/>
<polygon fill="#c0c0c0" stroke="#c0c0c0" stroke-width="2" points="1653.0001,-622.4132 1649.5,-612.4133 1646.0001,-622.4133 1653.0001,-622.4132"/>
</g>
<!-- 43 -->
<g id="node44" class="node">
<title>43</title>
<path fill="none" stroke="#566bd8" stroke-width="2" d="M1815.5,-756C1815.5,-756 1747.5,-756 1747.5,-756 1741.5,-756 1735.5,-750 1735.5,-744 1735.5,-744 1735.5,-732 1735.5,-732 1735.5,-726 1741.5,-720 1747.5,-720 1747.5,-720 1815.5,-720 1815.5,-720 1821.5,-720 1827.5,-726 1827.5,-732 1827.5,-732 1827.5,-744 1827.5,-744 1827.5,-750 1821.5,-756 1815.5,-756"/>
<text text-anchor="middle" x="1781.5" y="-735.5" font-family="sans" font-size="10.00" fill="#000000">shard_sort_query</text>
</g>
<!-- 43&#45;&gt;42 -->
<g id="edge74" class="edge">
<title>43&#45;&gt;42</title>
<path fill="none" stroke="#c0c0c0" stroke-width="2" d="M1748.1908,-719.8314C1731.0727,-710.4942 1710.0294,-699.016 1691.7778,-689.0606"/>
<polygon fill="#c0c0c0" stroke="#c0c0c0" stroke-width="2" points="1693.2535,-685.8788 1682.7985,-684.1628 1689.9015,-692.024 1693.2535,-685.8788"/>
</g>
<!-- 44 -->
<g id="node45" class="node">
<title>44</title>
<path fill="none" stroke="#56d8c9" stroke-width="2" d="M1852.5,-828C1852.5,-828 1772.5,-828 1772.5,-828 1766.5,-828 1760.5,-822 1760.5,-816 1760.5,-816 1760.5,-804 1760.5,-804 1760.5,-798 1766.5,-792 1772.5,-792 1772.5,-792 1852.5,-792 1852.5,-792 1858.5,-792 1864.5,-798 1864.5,-804 1864.5,-804 1864.5,-816 1864.5,-816 1864.5,-822 1858.5,-828 1852.5,-828"/>
<text text-anchor="middle" x="1812.5" y="-807.5" font-family="sans" font-size="10.00" fill="#000000">shard_clean_header</text>
</g>
<!-- 44&#45;&gt;43 -->
<g id="edge77" class="edge">
<title>44&#45;&gt;43</title>
<path fill="none" stroke="#c0c0c0" stroke-width="2" d="M1804.6774,-791.8314C1801.2891,-783.9617 1797.2459,-774.5712 1793.4924,-765.8533"/>
<polygon fill="#c0c0c0" stroke="#c0c0c0" stroke-width="2" points="1796.5973,-764.214 1789.4279,-756.4133 1790.1679,-766.9822 1796.5973,-764.214"/>
</g>
<!-- 45&#45;&gt;44 -->
<g id="edge78" class="edge">
<title>45&#45;&gt;44</title>
<path fill="none" stroke="#c0c0c0" stroke-width="2" d="M1823.7149,-863.8314C1822.1106,-856.131 1820.203,-846.9743 1818.4201,-838.4166"/>
<polygon fill="#c0c0c0" stroke="#c0c0c0" stroke-width="2" points="1821.8021,-837.4892 1816.3361,-828.4133 1814.9493,-838.9169 1821.8021,-837.4892"/>
</g>
<!-- 46 -->
<g id="node47" class="node">
<title>46</title>
<path fill="none" stroke="#569ad8" stroke-width="2" d="M1744.5,-972C1744.5,-972 1628.5,-972 1628.5,-972 1622.5,-972 1616.5,-966 1616.5,-960 1616.5,-960 1616.5,-948 1616.5,-948 1616.5,-942 1622.5,-936 1628.5,-936 1628.5,-936 1744.5,-936 1744.5,-936 1750.5,-936 1756.5,-942 1756.5,-948 1756.5,-948 1756.5,-960 1756.5,-960 1756.5,-966 1750.5,-972 1744.5,-972"/>
<text text-anchor="middle" x="1686.5" y="-951.5" font-family="sans" font-size="10.00" fill="#000000">shard_saturated_reads_filter</text>
</g>
<!-- 46&#45;&gt;45 -->
<g id="edge80" class="edge">
<title>46&#45;&gt;45</title>
<path fill="none" stroke="#c0c0c0" stroke-width="2" d="M1722.0803,-935.8314C1740.5325,-926.4089 1763.2545,-914.8062 1782.873,-904.7883"/>
<polygon fill="#c0c0c0" stroke="#c0c0c0" stroke-width="2" points="1784.6168,-907.8278 1791.9311,-900.1628 1781.4333,-901.5935 1784.6168,-907.8278"/>
</g>
<!-- 46&#45;&gt;52 -->
<g id="edge90" class="edge">
<title>46&#45;&gt;52</title>
<path fill="none" stroke="#c0c0c0" stroke-width="2" d="M1636.0387,-935.9243C1608.5608,-926.0815 1574.3828,-913.8386 1545.5412,-903.5073"/>
<polygon fill="#c0c0c0" stroke="#c0c0c0" stroke-width="2" points="1546.5767,-900.1605 1535.9821,-900.0831 1544.216,-906.7505 1546.5767,-900.1605"/>
</g>
<!-- 46&#45;&gt;55 -->
<g id="edge94" class="edge">
<title>46&#45;&gt;55</title>
<path fill="none" stroke="#c0c0c0" stroke-width="2" d="M1678.9297,-935.8314C1675.6507,-927.9617 1671.738,-918.5712 1668.1055,-909.8533"/>
<polygon fill="#c0c0c0" stroke="#c0c0c0" stroke-width="2" points="1671.2492,-908.2979 1664.1722,-900.4133 1664.7876,-910.9902 1671.2492,-908.2979"/>
</g>
<!-- 79 -->
<g id="node80" class="node">
<title>79</title>
<path fill="none" stroke="#56b1d8" stroke-width="2" d="M1982,-684C1982,-684 1855,-684 1855,-684 1849,-684 1843,-678 1843,-672 1843,-672 1843,-660 1843,-660 1843,-654 1849,-648 1855,-648 1855,-648 1982,-648 1982,-648 1988,-648 1994,-654 1994,-660 1994,-660 1994,-672 1994,-672 1994,-678 1988,-684 1982,-684"/>
<text text-anchor="middle" x="1918.5" y="-663.5" font-family="sans" font-size="10.00" fill="#000000">shard_saturated_reads_extract</text>
</g>
<!-- 46&#45;&gt;79 -->
<g id="edge121" class="edge">
<title>46&#45;&gt;79</title>
<path fill="none" stroke="#c0c0c0" stroke-width="2" d="M1756.5605,-946.6712C1815.7377,-938.8798 1893.9033,-924.2678 1913.5,-900 1961.6617,-840.3583 1941.554,-741.54 1927.6423,-693.6773"/>
<polygon fill="#c0c0c0" stroke="#c0c0c0" stroke-width="2" points="1930.9595,-692.5551 1924.7095,-684.0001 1924.2604,-694.5854 1930.9595,-692.5551"/>
</g>
<!-- 47&#45;&gt;46 -->
<g id="edge81" class="edge">
<title>47&#45;&gt;46</title>
<path fill="none" stroke="#c0c0c0" stroke-width="2" d="M1769.49,-1007.8314C1755.4239,-998.7074 1738.206,-987.539 1723.1067,-977.7449"/>
<polygon fill="#c0c0c0" stroke="#c0c0c0" stroke-width="2" points="1724.7953,-974.6684 1714.501,-972.1628 1720.986,-980.5412 1724.7953,-974.6684"/>
</g>
<!-- 48&#45;&gt;46 -->
<g id="edge82" class="edge">
<title>48&#45;&gt;46</title>
<path fill="none" stroke="#c0c0c0" stroke-width="2" d="M1603.51,-1007.8314C1617.5761,-998.7074 1634.794,-987.539 1649.8933,-977.7449"/>
<polygon fill="#c0c0c0" stroke="#c0c0c0" stroke-width="2" points="1652.014,-980.5412 1658.499,-972.1628 1648.2047,-974.6684 1652.014,-980.5412"/>
</g>
<!-- 49&#45;&gt;46 -->
<g id="edge83" class="edge">
<title>49&#45;&gt;46</title>
<path fill="none" stroke="#c0c0c0" stroke-width="2" d="M1686.5,-1007.8314C1686.5,-1000.131 1686.5,-990.9743 1686.5,-982.4166"/>
<polygon fill="#c0c0c0" stroke="#c0c0c0" stroke-width="2" points="1690.0001,-982.4132 1686.5,-972.4133 1683.0001,-982.4133 1690.0001,-982.4132"/>
</g>
<!-- 50 -->
<g id="node51" class="node">
<title>50</title>
<path fill="none" stroke="#566bd8" stroke-width="2" d="M1548.5,-756C1548.5,-756 1480.5,-756 1480.5,-756 1474.5,-756 1468.5,-750 1468.5,-744 1468.5,-744 1468.5,-732 1468.5,-732 1468.5,-726 1474.5,-720 1480.5,-720 1480.5,-720 1548.5,-720 1548.5,-720 1554.5,-720 1560.5,-726 1560.5,-732 1560.5,-732 1560.5,-744 1560.5,-744 1560.5,-750 1554.5,-756 1548.5,-756"/>
<text text-anchor="middle" x="1514.5" y="-735.5" font-family="sans" font-size="10.00" fill="#000000">shard_sort_query</text>
</g>
<!-- 50&#45;&gt;42 -->
<g id="edge75" class="edge">
<title>50&#45;&gt;42</title>
<path fill="none" stroke="#c0c0c0" stroke-width="2" d="M1548.5662,-719.8314C1566.1533,-710.4516 1587.7916,-698.9112 1606.5168,-688.9244"/>
<polygon fill="#c0c0c0" stroke="#c0c0c0" stroke-width="2" points="1608.2682,-691.957 1615.4447,-684.1628 1604.9741,-685.7805 1608.2682,-691.957"/>
</g>
<!-- 51 -->
<g id="node52" class="node">
<title>51</title>
<path fill="none" stroke="#56d8c9" stroke-width="2" d="M1539.5,-828C1539.5,-828 1459.5,-828 1459.5,-828 1453.5,-828 1447.5,-822 1447.5,-816 1447.5,-816 1447.5,-804 1447.5,-804 1447.5,-798 1453.5,-792 1459.5,-792 1459.5,-792 1539.5,-792 1539.5,-792 1545.5,-792 1551.5,-798 1551.5,-804 1551.5,-804 1551.5,-816 1551.5,-816 1551.5,-822 1545.5,-828 1539.5,-828"/>
<text text-anchor="middle" x="1499.5" y="-807.5" font-family="sans" font-size="10.00" fill="#000000">shard_clean_header</text>
</g>
<!-- 51&#45;&gt;50 -->
<g id="edge87" class="edge">
<title>51&#45;&gt;50</title>
<path fill="none" stroke="#c0c0c0" stroke-width="2" d="M1503.2851,-791.8314C1504.8894,-784.131 1506.797,-774.9743 1508.5799,-766.4166"/>
<polygon fill="#c0c0c0" stroke="#c0c0c0" stroke-width="2" points="1512.0507,-766.9169 1510.6639,-756.4133 1505.1979,-765.4892 1512.0507,-766.9169"/>
</g>
<!-- 52&#45;&gt;51 -->
<g id="edge88" class="edge">
<title>52&#45;&gt;51</title>
<path fill="none" stroke="#c0c0c0" stroke-width="2" d="M1489.0328,-863.8314C1490.5301,-856.131 1492.3105,-846.9743 1493.9745,-838.4166"/>
<polygon fill="#c0c0c0" stroke="#c0c0c0" stroke-width="2" points="1497.4465,-838.8975 1495.9196,-828.4133 1490.5752,-837.5614 1497.4465,-838.8975"/>
</g>
<!-- 53 -->
<g id="node54" class="node">
<title>53</title>
<path fill="none" stroke="#566bd8" stroke-width="2" d="M1688.5,-756C1688.5,-756 1620.5,-756 1620.5,-756 1614.5,-756 1608.5,-750 1608.5,-744 1608.5,-744 1608.5,-732 1608.5,-732 1608.5,-726 1614.5,-720 1620.5,-720 1620.5,-720 1688.5,-720 1688.5,-720 1694.5,-720 1700.5,-726 1700.5,-732 1700.5,-732 1700.5,-744 1700.5,-744 1700.5,-750 1694.5,-756 1688.5,-756"/>
<text text-anchor="middle" x="1654.5" y="-735.5" font-family="sans" font-size="10.00" fill="#000000">shard_sort_query</text>
</g>
<!-- 53&#45;&gt;42 -->
<g id="edge76" class="edge">
<title>53&#45;&gt;42</title>
<path fill="none" stroke="#c0c0c0" stroke-width="2" d="M1653.2383,-719.8314C1652.7035,-712.131 1652.0677,-702.9743 1651.4734,-694.4166"/>
<polygon fill="#c0c0c0" stroke="#c0c0c0" stroke-width="2" points="1654.9632,-694.1467 1650.7787,-684.4133 1647.98,-694.6317 1654.9632,-694.1467"/>
</g>
<!-- 54 -->
<g id="node55" class="node">
<title>54</title>
<path fill="none" stroke="#56d8c9" stroke-width="2" d="M1695.5,-828C1695.5,-828 1615.5,-828 1615.5,-828 1609.5,-828 1603.5,-822 1603.5,-816 1603.5,-816 1603.5,-804 1603.5,-804 1603.5,-798 1609.5,-792 1615.5,-792 1615.5,-792 1695.5,-792 1695.5,-792 1701.5,-792 1707.5,-798 1707.5,-804 1707.5,-804 1707.5,-816 1707.5,-816 1707.5,-822 1701.5,-828 1695.5,-828"/>
<text text-anchor="middle" x="1655.5" y="-807.5" font-family="sans" font-size="10.00" fill="#000000">shard_clean_header</text>
</g>
<!-- 54&#45;&gt;53 -->
<g id="edge91" class="edge">
<title>54&#45;&gt;53</title>
<path fill="none" stroke="#c0c0c0" stroke-width="2" d="M1655.2477,-791.8314C1655.1407,-784.131 1655.0135,-774.9743 1654.8947,-766.4166"/>
<polygon fill="#c0c0c0" stroke="#c0c0c0" stroke-width="2" points="1658.3944,-766.3637 1654.7557,-756.4133 1651.3951,-766.4609 1658.3944,-766.3637"/>
</g>
<!-- 55&#45;&gt;54 -->
<g id="edge92" class="edge">
<title>55&#45;&gt;54</title>
<path fill="none" stroke="#c0c0c0" stroke-width="2" d="M1656.2477,-863.8314C1656.1407,-856.131 1656.0135,-846.9743 1655.8947,-838.4166"/>
<polygon fill="#c0c0c0" stroke="#c0c0c0" stroke-width="2" points="1659.3944,-838.3637 1655.7557,-828.4133 1652.3951,-838.4609 1659.3944,-838.3637"/>
</g>
<!-- 56 -->
<g id="node57" class="node">
<title>56</title>
<path fill="none" stroke="#56d882" stroke-width="2" d="M408.5,-252C408.5,-252 356.5,-252 356.5,-252 350.5,-252 344.5,-246 344.5,-240 344.5,-240 344.5,-228 344.5,-228 344.5,-222 350.5,-216 356.5,-216 356.5,-216 408.5,-216 408.5,-216 414.5,-216 420.5,-222 420.5,-228 420.5,-228 420.5,-240 420.5,-240 420.5,-246 414.5,-252 408.5,-252"/>
<text text-anchor="middle" x="382.5" y="-231.5" font-family="sans" font-size="10.00" fill="#000000">metadmg_dfit</text>
</g>
<!-- 56&#45;&gt;1 -->
<g id="edge23" class="edge">
<title>56&#45;&gt;1</title>
<path fill="none" stroke="#c0c0c0" stroke-width="2" d="M402.0091,-215.7306C425.6985,-194.6964 467.8064,-160.881 510.5,-144 616.9388,-101.9141 653.2727,-130.4829 765.5,-108 775.9698,-105.9026 787.217,-103.1752 797.5293,-100.4805"/>
<polygon fill="#c0c0c0" stroke="#c0c0c0" stroke-width="2" points="798.7114,-103.7875 807.4667,-97.8213 796.9018,-97.0254 798.7114,-103.7875"/>
</g>
<!-- 74 -->
<g id="node75" class="node">
<title>74</title>
<path fill="none" stroke="#59d856" stroke-width="2" d="M408,-180C408,-180 327,-180 327,-180 321,-180 315,-174 315,-168 315,-168 315,-156 315,-156 315,-150 321,-144 327,-144 327,-144 408,-144 408,-144 414,-144 420,-150 420,-156 420,-156 420,-168 420,-168 420,-174 414,-180 408,-180"/>
<text text-anchor="middle" x="367.5" y="-159.5" font-family="sans" font-size="10.00" fill="#000000">metadmg_aggregate</text>
</g>
<!-- 56&#45;&gt;74 -->
<g id="edge114" class="edge">
<title>56&#45;&gt;74</title>
<path fill="none" stroke="#c0c0c0" stroke-width="2" d="M378.7149,-215.8314C377.1106,-208.131 375.203,-198.9743 373.4201,-190.4166"/>
<polygon fill="#c0c0c0" stroke="#c0c0c0" stroke-width="2" points="376.8021,-189.4892 371.3361,-180.4133 369.9493,-190.9169 376.8021,-189.4892"/>
</g>
<!-- 57 -->
<g id="node58" class="node">
<title>57</title>
<path fill="none" stroke="#56d89a" stroke-width="2" d="M370,-324C370,-324 319,-324 319,-324 313,-324 307,-318 307,-312 307,-312 307,-300 307,-300 307,-294 313,-288 319,-288 319,-288 370,-288 370,-288 376,-288 382,-294 382,-300 382,-300 382,-312 382,-312 382,-318 376,-324 370,-324"/>
<text text-anchor="middle" x="344.5" y="-303.5" font-family="sans" font-size="10.00" fill="#000000">metadmg_lca</text>
</g>
<!-- 57&#45;&gt;56 -->
<g id="edge95" class="edge">
<title>57&#45;&gt;56</title>
<path fill="none" stroke="#c0c0c0" stroke-width="2" d="M354.089,-287.8314C358.3317,-279.7925 363.4121,-270.1666 368.096,-261.2918"/>
<polygon fill="#c0c0c0" stroke="#c0c0c0" stroke-width="2" points="371.2096,-262.8908 372.7819,-252.4133 365.0189,-259.6235 371.2096,-262.8908"/>
</g>
<!-- 57&#45;&gt;74 -->
<g id="edge113" class="edge">
<title>57&#45;&gt;74</title>
<path fill="none" stroke="#c0c0c0" stroke-width="2" d="M338.8509,-287.746C334.0353,-269.3297 328.8596,-240.2313 335.5,-216 338.0805,-206.5837 342.7742,-197.1443 347.7859,-188.8513"/>
<polygon fill="#c0c0c0" stroke="#c0c0c0" stroke-width="2" points="350.7851,-190.6585 353.2641,-180.3577 344.9026,-186.8644 350.7851,-190.6585"/>
</g>
<!-- 58 -->
<g id="node59" class="node">
<title>58</title>
<path fill="none" stroke="#d8cb56" stroke-width="2" d="M340.5,-396C340.5,-396 276.5,-396 276.5,-396 270.5,-396 264.5,-390 264.5,-384 264.5,-384 264.5,-372 264.5,-372 264.5,-366 270.5,-360 276.5,-360 276.5,-360 340.5,-360 340.5,-360 346.5,-360 352.5,-366 352.5,-372 352.5,-372 352.5,-384 352.5,-384 352.5,-390 346.5,-396 340.5,-396"/>
<text text-anchor="middle" x="308.5" y="-375.5" font-family="sans" font-size="10.00" fill="#000000">align_sort_query</text>
</g>
<!-- 58&#45;&gt;57 -->
<g id="edge96" class="edge">
<title>58&#45;&gt;57</title>
<path fill="none" stroke="#c0c0c0" stroke-width="2" d="M317.5843,-359.8314C321.5615,-351.8771 326.3155,-342.369 330.7139,-333.5723"/>
<polygon fill="#c0c0c0" stroke="#c0c0c0" stroke-width="2" points="333.9517,-334.9228 335.2934,-324.4133 327.6907,-331.7923 333.9517,-334.9228"/>
</g>
<!-- 80 -->
<g id="node81" class="node">
<title>80</title>
<path fill="none" stroke="#56d86b" stroke-width="2" d="M347,-108C347,-108 274,-108 274,-108 268,-108 262,-102 262,-96 262,-96 262,-84 262,-84 262,-78 268,-72 274,-72 274,-72 347,-72 347,-72 353,-72 359,-78 359,-84 359,-84 359,-96 359,-96 359,-102 353,-108 347,-108"/>
<text text-anchor="middle" x="310.5" y="-87.5" font-family="sans" font-size="10.00" fill="#000000">metadmg_damage</text>
</g>
<!-- 58&#45;&gt;80 -->
<g id="edge122" class="edge">
<title>58&#45;&gt;80</title>
<path fill="none" stroke="#c0c0c0" stroke-width="2" d="M303.8066,-359.6463C301.3929,-349.2631 298.7092,-335.9943 297.5,-324 290.0346,-249.9504 299.8747,-162.2539 306.1013,-118.2181"/>
<polygon fill="#c0c0c0" stroke="#c0c0c0" stroke-width="2" points="309.5754,-118.6488 307.5561,-108.2482 302.6488,-117.638 309.5754,-118.6488"/>
</g>
<!-- 59 -->
<g id="node60" class="node">
<title>59</title>
<path fill="none" stroke="#d85656" stroke-width="2" d="M327,-468C327,-468 290,-468 290,-468 284,-468 278,-462 278,-456 278,-456 278,-444 278,-444 278,-438 284,-432 290,-432 290,-432 327,-432 327,-432 333,-432 339,-438 339,-444 339,-444 339,-456 339,-456 339,-462 333,-468 327,-468"/>
<text text-anchor="middle" x="308.5" y="-447.5" font-family="sans" font-size="10.00" fill="#000000">align_filter</text>
</g>
<!-- 59&#45;&gt;58 -->
<g id="edge97" class="edge">
<title>59&#45;&gt;58</title>
<path fill="none" stroke="#c0c0c0" stroke-width="2" d="M308.5,-431.8314C308.5,-424.131 308.5,-414.9743 308.5,-406.4166"/>
<polygon fill="#c0c0c0" stroke="#c0c0c0" stroke-width="2" points="312.0001,-406.4132 308.5,-396.4133 305.0001,-406.4133 312.0001,-406.4132"/>
</g>
<!-- 60 -->
<g id="node61" class="node">
<title>60</title>
<path fill="none" stroke="#d89c56" stroke-width="2" d="M336,-540C336,-540 281,-540 281,-540 275,-540 269,-534 269,-528 269,-528 269,-516 269,-516 269,-510 275,-504 281,-504 281,-504 336,-504 336,-504 342,-504 348,-510 348,-516 348,-516 348,-528 348,-528 348,-534 342,-540 336,-540"/>
<text text-anchor="middle" x="308.5" y="-519.5" font-family="sans" font-size="10.00" fill="#000000">align_reassign</text>
</g>
<!-- 60&#45;&gt;59 -->
<g id="edge98" class="edge">
<title>60&#45;&gt;59</title>
<path fill="none" stroke="#c0c0c0" stroke-width="2" d="M308.5,-503.8314C308.5,-496.131 308.5,-486.9743 308.5,-478.4166"/>
<polygon fill="#c0c0c0" stroke="#c0c0c0" stroke-width="2" points="312.0001,-478.4132 308.5,-468.4133 305.0001,-478.4133 312.0001,-478.4132"/>
</g>
<!-- 61&#45;&gt;60 -->
<g id="edge99" class="edge">
<title>61&#45;&gt;60</title>
<path fill="none" stroke="#c0c0c0" stroke-width="2" d="M308.5,-575.8314C308.5,-568.131 308.5,-558.9743 308.5,-550.4166"/>
<polygon fill="#c0c0c0" stroke="#c0c0c0" stroke-width="2" points="312.0001,-550.4132 308.5,-540.4133 305.0001,-550.4133 312.0001,-550.4132"/>
</g>
<!-- 62 -->
<g id="node63" class="node">
<title>62</title>
<path fill="none" stroke="#56d882" stroke-width="2" d="M1003.5,-252C1003.5,-252 951.5,-252 951.5,-252 945.5,-252 939.5,-246 939.5,-240 939.5,-240 939.5,-228 939.5,-228 939.5,-222 945.5,-216 951.5,-216 951.5,-216 1003.5,-216 1003.5,-216 1009.5,-216 1015.5,-222 1015.5,-228 1015.5,-228 1015.5,-240 1015.5,-240 1015.5,-246 1009.5,-252 1003.5,-252"/>
<text text-anchor="middle" x="977.5" y="-231.5" font-family="sans" font-size="10.00" fill="#000000">metadmg_dfit</text>
</g>
<!-- 62&#45;&gt;1 -->
<g id="edge24" class="edge">
<title>62&#45;&gt;1</title>
<path fill="none" stroke="#c0c0c0" stroke-width="2" d="M970.394,-215.9957C961.9827,-196.4429 946.4313,-165.1764 925.5,-144 909.8838,-128.201 888.7167,-115.2791 870.7269,-106.0413"/>
<polygon fill="#c0c0c0" stroke="#c0c0c0" stroke-width="2" points="872.1701,-102.8504 861.6553,-101.5506 869.0646,-109.1238 872.1701,-102.8504"/>
</g>
<!-- 75 -->
<g id="node76" class="node">
<title>75</title>
<path fill="none" stroke="#59d856" stroke-width="2" d="M1071,-180C1071,-180 990,-180 990,-180 984,-180 978,-174 978,-168 978,-168 978,-156 978,-156 978,-150 984,-144 990,-144 990,-144 1071,-144 1071,-144 1077,-144 1083,-150 1083,-156 1083,-156 1083,-168 1083,-168 1083,-174 1077,-180 1071,-180"/>
<text text-anchor="middle" x="1030.5" y="-159.5" font-family="sans" font-size="10.00" fill="#000000">metadmg_aggregate</text>
</g>
<!-- 62&#45;&gt;75 -->
<g id="edge116" class="edge">
<title>62&#45;&gt;75</title>
<path fill="none" stroke="#c0c0c0" stroke-width="2" d="M990.8741,-215.8314C996.9162,-207.6232 1004.1763,-197.7606 1010.8221,-188.7323"/>
<polygon fill="#c0c0c0" stroke="#c0c0c0" stroke-width="2" points="1013.8363,-190.5415 1016.9458,-180.4133 1008.1989,-186.3918 1013.8363,-190.5415"/>
</g>
<!-- 63 -->
<g id="node64" class="node">
<title>63</title>
<path fill="none" stroke="#56d89a" stroke-width="2" d="M1067,-324C1067,-324 1016,-324 1016,-324 1010,-324 1004,-318 1004,-312 1004,-312 1004,-300 1004,-300 1004,-294 1010,-288 1016,-288 1016,-288 1067,-288 1067,-288 1073,-288 1079,-294 1079,-300 1079,-300 1079,-312 1079,-312 1079,-318 1073,-324 1067,-324"/>
<text text-anchor="middle" x="1041.5" y="-303.5" font-family="sans" font-size="10.00" fill="#000000">metadmg_lca</text>
</g>
<!-- 63&#45;&gt;62 -->
<g id="edge101" class="edge">
<title>63&#45;&gt;62</title>
<path fill="none" stroke="#c0c0c0" stroke-width="2" d="M1025.3501,-287.8314C1017.8283,-279.3694 1008.7435,-269.1489 1000.5196,-259.8971"/>
<polygon fill="#c0c0c0" stroke="#c0c0c0" stroke-width="2" points="1003.127,-257.5621 993.8673,-252.4133 997.8951,-262.2127 1003.127,-257.5621"/>
</g>
<!-- 63&#45;&gt;75 -->
<g id="edge115" class="edge">
<title>63&#45;&gt;75</title>
<path fill="none" stroke="#c0c0c0" stroke-width="2" d="M1040.1068,-287.7623C1038.2306,-263.201 1034.8731,-219.2474 1032.6659,-190.3541"/>
<polygon fill="#c0c0c0" stroke="#c0c0c0" stroke-width="2" points="1036.1334,-189.794 1031.8818,-180.0896 1029.1538,-190.3272 1036.1334,-189.794"/>
</g>
<!-- 64 -->
<g id="node65" class="node">
<title>64</title>
<path fill="none" stroke="#d8cb56" stroke-width="2" d="M1073.5,-396C1073.5,-396 1009.5,-396 1009.5,-396 1003.5,-396 997.5,-390 997.5,-384 997.5,-384 997.5,-372 997.5,-372 997.5,-366 1003.5,-360 1009.5,-360 1009.5,-360 1073.5,-360 1073.5,-360 1079.5,-360 1085.5,-366 1085.5,-372 1085.5,-372 1085.5,-384 1085.5,-384 1085.5,-390 1079.5,-396 1073.5,-396"/>
<text text-anchor="middle" x="1041.5" y="-375.5" font-family="sans" font-size="10.00" fill="#000000">align_sort_query</text>
</g>
<!-- 64&#45;&gt;63 -->
<g id="edge102" class="edge">
<title>64&#45;&gt;63</title>
<path fill="none" stroke="#c0c0c0" stroke-width="2" d="M1041.5,-359.8314C1041.5,-352.131 1041.5,-342.9743 1041.5,-334.4166"/>
<polygon fill="#c0c0c0" stroke="#c0c0c0" stroke-width="2" points="1045.0001,-334.4132 1041.5,-324.4133 1038.0001,-334.4133 1045.0001,-334.4132"/>
</g>
<!-- 81 -->
<g id="node82" class="node">
<title>81</title>
<path fill="none" stroke="#56d86b" stroke-width="2" d="M1301,-180C1301,-180 1228,-180 1228,-180 1222,-180 1216,-174 1216,-168 1216,-168 1216,-156 1216,-156 1216,-150 1222,-144 1228,-144 1228,-144 1301,-144 1301,-144 1307,-144 1313,-150 1313,-156 1313,-156 1313,-168 1313,-168 1313,-174 1307,-180 1301,-180"/>
<text text-anchor="middle" x="1264.5" y="-159.5" font-family="sans" font-size="10.00" fill="#000000">metadmg_damage</text>
</g>
<!-- 64&#45;&gt;81 -->
<g id="edge123" class="edge">
<title>64&#45;&gt;81</title>
<path fill="none" stroke="#c0c0c0" stroke-width="2" d="M1060.1293,-359.9555C1099.8101,-321.5203 1192.7597,-231.4884 1238.3496,-187.3295"/>
<polygon fill="#c0c0c0" stroke="#c0c0c0" stroke-width="2" points="1241.0191,-189.6166 1245.7669,-180.1451 1236.1489,-184.5885 1241.0191,-189.6166"/>
</g>
<!-- 65 -->
<g id="node66" class="node">
<title>65</title>
<path fill="none" stroke="#d85656" stroke-width="2" d="M1059,-468C1059,-468 1022,-468 1022,-468 1016,-468 1010,-462 1010,-456 1010,-456 1010,-444 1010,-444 1010,-438 1016,-432 1022,-432 1022,-432 1059,-432 1059,-432 1065,-432 1071,-438 1071,-444 1071,-444 1071,-456 1071,-456 1071,-462 1065,-468 1059,-468"/>
<text text-anchor="middle" x="1040.5" y="-447.5" font-family="sans" font-size="10.00" fill="#000000">align_filter</text>
</g>
<!-- 65&#45;&gt;64 -->
<g id="edge103" class="edge">
<title>65&#45;&gt;64</title>
<path fill="none" stroke="#c0c0c0" stroke-width="2" d="M1040.7523,-431.8314C1040.8593,-424.131 1040.9865,-414.9743 1041.1053,-406.4166"/>
<polygon fill="#c0c0c0" stroke="#c0c0c0" stroke-width="2" points="1044.6049,-406.4609 1041.2443,-396.4133 1037.6056,-406.3637 1044.6049,-406.4609"/>
</g>
<!-- 66 -->
<g id="node67" class="node">
<title>66</title>
<path fill="none" stroke="#d89c56" stroke-width="2" d="M1066,-540C1066,-540 1011,-540 1011,-540 1005,-540 999,-534 999,-528 999,-528 999,-516 999,-516 999,-510 1005,-504 1011,-504 1011,-504 1066,-504 1066,-504 1072,-504 1078,-510 1078,-516 1078,-516 1078,-528 1078,-528 1078,-534 1072,-540 1066,-540"/>
<text text-anchor="middle" x="1038.5" y="-519.5" font-family="sans" font-size="10.00" fill="#000000">align_reassign</text>
</g>
<!-- 66&#45;&gt;65 -->
<g id="edge104" class="edge">
<title>66&#45;&gt;65</title>
<path fill="none" stroke="#c0c0c0" stroke-width="2" d="M1039.0047,-503.8314C1039.2186,-496.131 1039.4729,-486.9743 1039.7106,-478.4166"/>
<polygon fill="#c0c0c0" stroke="#c0c0c0" stroke-width="2" points="1043.2094,-478.5066 1039.9885,-468.4133 1036.2121,-478.3122 1043.2094,-478.5066"/>
</g>
<!-- 67&#45;&gt;66 -->
<g id="edge105" class="edge">
<title>67&#45;&gt;66</title>
<path fill="none" stroke="#c0c0c0" stroke-width="2" d="M1037.0047,-575.8314C1037.2186,-568.131 1037.4729,-558.9743 1037.7106,-550.4166"/>
<polygon fill="#c0c0c0" stroke="#c0c0c0" stroke-width="2" points="1041.2094,-550.5066 1037.9885,-540.4133 1034.2121,-550.3122 1041.2094,-550.5066"/>
</g>
<!-- 68 -->
<g id="node69" class="node">
<title>68</title>
<path fill="none" stroke="#56d882" stroke-width="2" d="M1311.5,-252C1311.5,-252 1259.5,-252 1259.5,-252 1253.5,-252 1247.5,-246 1247.5,-240 1247.5,-240 1247.5,-228 1247.5,-228 1247.5,-222 1253.5,-216 1259.5,-216 1259.5,-216 1311.5,-216 1311.5,-216 1317.5,-216 1323.5,-222 1323.5,-228 1323.5,-228 1323.5,-240 1323.5,-240 1323.5,-246 1317.5,-252 1311.5,-252"/>
<text text-anchor="middle" x="1285.5" y="-231.5" font-family="sans" font-size="10.00" fill="#000000">metadmg_dfit</text>
</g>
<!-- 68&#45;&gt;1 -->
<g id="edge25" class="edge">
<title>68&#45;&gt;1</title>
<path fill="none" stroke="#c0c0c0" stroke-width="2" d="M1257.6152,-215.9017C1242.2762,-205.7082 1223.0531,-192.5397 1206.5,-180 1186.6325,-164.9496 1186.1571,-154.387 1163.5,-144 1111.9707,-120.3768 946.6997,-101.2912 871.9005,-93.6284"/>
<polygon fill="#c0c0c0" stroke="#c0c0c0" stroke-width="2" points="871.8467,-90.1052 861.5454,-92.5815 871.1426,-97.0697 871.8467,-90.1052"/>
</g>
<!-- 76 -->
<g id="node77" class="node">
<title>76</title>
<path fill="none" stroke="#59d856" stroke-width="2" d="M1424,-180C1424,-180 1343,-180 1343,-180 1337,-180 1331,-174 1331,-168 1331,-168 1331,-156 1331,-156 1331,-150 1337,-144 1343,-144 1343,-144 1424,-144 1424,-144 1430,-144 1436,-150 1436,-156 1436,-156 1436,-168 1436,-168 1436,-174 1430,-180 1424,-180"/>
<text text-anchor="middle" x="1383.5" y="-159.5" font-family="sans" font-size="10.00" fill="#000000">metadmg_aggregate</text>
</g>
<!-- 68&#45;&gt;76 -->
<g id="edge118" class="edge">
<title>68&#45;&gt;76</title>
<path fill="none" stroke="#c0c0c0" stroke-width="2" d="M1310.2295,-215.8314C1322.4162,-206.8779 1337.2823,-195.9558 1350.4312,-186.2955"/>
<polygon fill="#c0c0c0" stroke="#c0c0c0" stroke-width="2" points="1352.7918,-188.9042 1358.7784,-180.1628 1348.6473,-183.263 1352.7918,-188.9042"/>
</g>
<!-- 69 -->
<g id="node70" class="node">
<title>69</title>
<path fill="none" stroke="#56d89a" stroke-width="2" d="M1377,-324C1377,-324 1326,-324 1326,-324 1320,-324 1314,-318 1314,-312 1314,-312 1314,-300 1314,-300 1314,-294 1320,-288 1326,-288 1326,-288 1377,-288 1377,-288 1383,-288 1389,-294 1389,-300 1389,-300 1389,-312 1389,-312 1389,-318 1383,-324 1377,-324"/>
<text text-anchor="middle" x="1351.5" y="-303.5" font-family="sans" font-size="10.00" fill="#000000">metadmg_lca</text>
</g>
<!-- 69&#45;&gt;68 -->
<g id="edge107" class="edge">
<title>69&#45;&gt;68</title>
<path fill="none" stroke="#c0c0c0" stroke-width="2" d="M1334.8454,-287.8314C1327.0886,-279.3694 1317.7198,-269.1489 1309.239,-259.8971"/>
<polygon fill="#c0c0c0" stroke="#c0c0c0" stroke-width="2" points="1311.7162,-257.4198 1302.3788,-252.4133 1306.5561,-262.1499 1311.7162,-257.4198"/>
</g>
<!-- 69&#45;&gt;76 -->
<g id="edge117" class="edge">
<title>69&#45;&gt;76</title>
<path fill="none" stroke="#c0c0c0" stroke-width="2" d="M1355.2067,-287.6956C1358.9311,-269.4872 1364.9056,-240.7674 1370.5,-216 1372.3823,-207.667 1374.5187,-198.6343 1376.5079,-190.3842"/>
<polygon fill="#c0c0c0" stroke="#c0c0c0" stroke-width="2" points="1379.9581,-191.008 1378.9186,-180.4643 1373.1561,-189.3549 1379.9581,-191.008"/>
</g>
<!-- 70 -->
<g id="node71" class="node">
<title>70</title>
<path fill="none" stroke="#d8cb56" stroke-width="2" d="M1460.5,-396C1460.5,-396 1396.5,-396 1396.5,-396 1390.5,-396 1384.5,-390 1384.5,-384 1384.5,-384 1384.5,-372 1384.5,-372 1384.5,-366 1390.5,-360 1396.5,-360 1396.5,-360 1460.5,-360 1460.5,-360 1466.5,-360 1472.5,-366 1472.5,-372 1472.5,-372 1472.5,-384 1472.5,-384 1472.5,-390 1466.5,-396 1460.5,-396"/>
<text text-anchor="middle" x="1428.5" y="-375.5" font-family="sans" font-size="10.00" fill="#000000">align_sort_query</text>
</g>
<!-- 70&#45;&gt;69 -->
<g id="edge108" class="edge">
<title>70&#45;&gt;69</title>
<path fill="none" stroke="#c0c0c0" stroke-width="2" d="M1409.0696,-359.8314C1399.768,-351.1337 1388.4796,-340.5783 1378.3714,-331.1265"/>
<polygon fill="#c0c0c0" stroke="#c0c0c0" stroke-width="2" points="1380.6189,-328.4363 1370.9241,-324.1628 1375.8379,-333.5493 1380.6189,-328.4363"/>
</g>
<!-- 82 -->
<g id="node83" class="node">
<title>82</title>
<path fill="none" stroke="#56d86b" stroke-width="2" d="M1465,-252C1465,-252 1392,-252 1392,-252 1386,-252 1380,-246 1380,-240 1380,-240 1380,-228 1380,-228 1380,-222 1386,-216 1392,-216 1392,-216 1465,-216 1465,-216 1471,-216 1477,-222 1477,-228 1477,-228 1477,-240 1477,-240 1477,-246 1471,-252 1465,-252"/>
<text text-anchor="middle" x="1428.5" y="-231.5" font-family="sans" font-size="10.00" fill="#000000">metadmg_damage</text>
</g>
<!-- 70&#45;&gt;82 -->
<g id="edge124" class="edge">
<title>70&#45;&gt;82</title>
<path fill="none" stroke="#c0c0c0" stroke-width="2" d="M1428.5,-359.7623C1428.5,-335.201 1428.5,-291.2474 1428.5,-262.3541"/>
<polygon fill="#c0c0c0" stroke="#c0c0c0" stroke-width="2" points="1432.0001,-262.0896 1428.5,-252.0896 1425.0001,-262.0897 1432.0001,-262.0896"/>
</g>
<!-- 71 -->
<g id="node72" class="node">
<title>71</title>
<path fill="none" stroke="#d85656" stroke-width="2" d="M1664,-468C1664,-468 1627,-468 1627,-468 1621,-468 1615,-462 1615,-456 1615,-456 1615,-444 1615,-444 1615,-438 1621,-432 1627,-432 1627,-432 1664,-432 1664,-432 1670,-432 1676,-438 1676,-444 1676,-444 1676,-456 1676,-456 1676,-462 1670,-468 1664,-468"/>
<text text-anchor="middle" x="1645.5" y="-447.5" font-family="sans" font-size="10.00" fill="#000000">align_filter</text>
</g>
<!-- 71&#45;&gt;70 -->
<g id="edge109" class="edge">
<title>71&#45;&gt;70</title>
<path fill="none" stroke="#c0c0c0" stroke-width="2" d="M1614.8694,-439.8369C1580.5835,-428.4609 1524.3714,-409.8098 1482.6332,-395.9613"/>
<polygon fill="#c0c0c0" stroke="#c0c0c0" stroke-width="2" points="1483.4862,-392.5567 1472.8928,-392.7294 1481.2817,-399.2005 1483.4862,-392.5567"/>
</g>
<!-- 72 -->
<g id="node73" class="node">
<title>72</title>
<path fill="none" stroke="#d89c56" stroke-width="2" d="M1677,-540C1677,-540 1622,-540 1622,-540 1616,-540 1610,-534 1610,-528 1610,-528 1610,-516 1610,-516 1610,-510 1616,-504 1622,-504 1622,-504 1677,-504 1677,-504 1683,-504 1689,-510 1689,-516 1689,-516 1689,-528 1689,-528 1689,-534 1683,-540 1677,-540"/>
<text text-anchor="middle" x="1649.5" y="-519.5" font-family="sans" font-size="10.00" fill="#000000">align_reassign</text>
</g>
<!-- 72&#45;&gt;71 -->
<g id="edge110" class="edge">
<title>72&#45;&gt;71</title>
<path fill="none" stroke="#c0c0c0" stroke-width="2" d="M1648.4906,-503.8314C1648.0628,-496.131 1647.5541,-486.9743 1647.0787,-478.4166"/>
<polygon fill="#c0c0c0" stroke="#c0c0c0" stroke-width="2" points="1650.5724,-478.2037 1646.523,-468.4133 1643.5831,-478.592 1650.5724,-478.2037"/>
</g>
<!-- 73&#45;&gt;72 -->
<g id="edge111" class="edge">
<title>73&#45;&gt;72</title>
<path fill="none" stroke="#c0c0c0" stroke-width="2" d="M1649.5,-575.8314C1649.5,-568.131 1649.5,-558.9743 1649.5,-550.4166"/>
<polygon fill="#c0c0c0" stroke="#c0c0c0" stroke-width="2" points="1653.0001,-550.4132 1649.5,-540.4133 1646.0001,-550.4133 1653.0001,-550.4132"/>
</g>
<!-- 74&#45;&gt;0 -->
<g id="edge5" class="edge">
<title>74&#45;&gt;0</title>
<path fill="none" stroke="#c0c0c0" stroke-width="2" d="M404.1627,-143.9511C448.5514,-122.9641 526.1259,-89.0308 596.5,-72 691.6348,-48.9771 989.5208,-27.5029 1095.0116,-20.4359"/>
<polygon fill="#c0c0c0" stroke="#c0c0c0" stroke-width="2" points="1095.4379,-23.9153 1105.1835,-19.7593 1094.9733,-16.9308 1095.4379,-23.9153"/>
</g>
<!-- 74&#45;&gt;1 -->
<g id="edge26" class="edge">
<title>74&#45;&gt;1</title>
<path fill="none" stroke="#c0c0c0" stroke-width="2" d="M420.0307,-152.4908C436.7731,-149.5954 455.3911,-146.5161 472.5,-144 602.3053,-124.9105 636.6279,-132.6134 765.5,-108 775.9882,-105.9968 787.2415,-103.3003 797.5537,-100.6049"/>
<polygon fill="#c0c0c0" stroke="#c0c0c0" stroke-width="2" points="798.7396,-103.9105 807.489,-97.9357 796.9234,-97.1502 798.7396,-103.9105"/>
</g>
<!-- 75&#45;&gt;0 -->
<g id="edge6" class="edge">
<title>75&#45;&gt;0</title>
<path fill="none" stroke="#c0c0c0" stroke-width="2" d="M1043.4184,-143.7623C1061.1991,-118.66 1093.328,-73.3017 1113.7525,-44.4671"/>
<polygon fill="#c0c0c0" stroke="#c0c0c0" stroke-width="2" points="1116.7624,-46.273 1119.6865,-36.0896 1111.0502,-42.2268 1116.7624,-46.273"/>
</g>
<!-- 75&#45;&gt;1 -->
<g id="edge27" class="edge">
<title>75&#45;&gt;1</title>
<path fill="none" stroke="#c0c0c0" stroke-width="2" d="M981.2939,-143.9243C947.1182,-131.3699 902.3134,-114.911 871.2346,-103.4943"/>
<polygon fill="#c0c0c0" stroke="#c0c0c0" stroke-width="2" points="872.2508,-100.139 861.6572,-99.9761 869.837,-106.7097 872.2508,-100.139"/>
</g>
<!-- 76&#45;&gt;0 -->
<g id="edge7" class="edge">
<title>76&#45;&gt;0</title>
<path fill="none" stroke="#c0c0c0" stroke-width="2" d="M1351.9648,-143.9081C1305.111,-117.0278 1217.3722,-66.6916 1168.2135,-38.489"/>
<polygon fill="#c0c0c0" stroke="#c0c0c0" stroke-width="2" points="1169.9176,-35.4316 1159.502,-33.4912 1166.4342,-41.5034 1169.9176,-35.4316"/>
</g>
<!-- 76&#45;&gt;1 -->
<g id="edge28" class="edge">
<title>76&#45;&gt;1</title>
<path fill="none" stroke="#c0c0c0" stroke-width="2" d="M1330.8872,-146.0569C1327.7243,-145.3067 1324.5779,-144.6127 1321.5,-144 1155.6526,-110.9861 953.7241,-96.6832 871.7499,-91.939"/>
<polygon fill="#c0c0c0" stroke="#c0c0c0" stroke-width="2" points="871.8566,-88.4396 861.675,-91.3695 871.4615,-95.4284 871.8566,-88.4396"/>
</g>
<!-- 77&#45;&gt;0 -->
<g id="edge2" class="edge">
<title>77&#45;&gt;0</title>
<path fill="none" stroke="#c0c0c0" stroke-width="2" d="M757.2415,-77.9082C854.8099,-62.3319 1020.6442,-35.8573 1094.7609,-24.0249"/>
<polygon fill="#c0c0c0" stroke="#c0c0c0" stroke-width="2" points="1095.6885,-27.4212 1105.0117,-22.3884 1094.5849,-20.5087 1095.6885,-27.4212"/>
</g>
<!-- 78&#45;&gt;0 -->
<g id="edge3" class="edge">
<title>78&#45;&gt;0</title>
<path fill="none" stroke="#c0c0c0" stroke-width="2" d="M1434.0698,-575.9468C1461.543,-550.7991 1505.5,-502.3785 1505.5,-450 1505.5,-450 1505.5,-450 1505.5,-162 1505.5,-100.8731 1456.3881,-98.9033 1401.5,-72 1324.7117,-34.3624 1223.328,-22.9569 1169.6116,-19.5014"/>
<polygon fill="#c0c0c0" stroke="#c0c0c0" stroke-width="2" points="1169.7128,-16.0014 1159.5253,-18.9109 1169.3036,-22.9895 1169.7128,-16.0014"/>
</g>
<!-- 79&#45;&gt;0 -->
<g id="edge4" class="edge">
<title>79&#45;&gt;0</title>
<path fill="none" stroke="#c0c0c0" stroke-width="2" d="M1903.8525,-647.6749C1884.4083,-621.4479 1852.5,-570.9514 1852.5,-522 1852.5,-522 1852.5,-522 1852.5,-162 1852.5,-91.7347 1318.4271,-35.6881 1170.232,-21.4888"/>
<polygon fill="#c0c0c0" stroke="#c0c0c0" stroke-width="2" points="1170.1319,-17.9636 1159.8457,-20.5018 1169.4697,-24.9322 1170.1319,-17.9636"/>
</g>
<!-- 80&#45;&gt;0 -->
<g id="edge8" class="edge">
<title>80&#45;&gt;0</title>
<path fill="none" stroke="#c0c0c0" stroke-width="2" d="M359.3013,-85.252C397.6732,-81.5488 452.4848,-76.3256 500.5,-72 726.2013,-51.667 997.4252,-29.1299 1095.1424,-21.0709"/>
<polygon fill="#c0c0c0" stroke="#c0c0c0" stroke-width="2" points="1095.7102,-24.5361 1105.3889,-20.2265 1095.1352,-17.5598 1095.7102,-24.5361"/>
</g>
<!-- 81&#45;&gt;0 -->
<g id="edge9" class="edge">
<title>81&#45;&gt;0</title>
<path fill="none" stroke="#c0c0c0" stroke-width="2" d="M1247.7821,-143.7623C1224.5733,-118.4436 1182.475,-72.5182 1156.0813,-43.7251"/>
<polygon fill="#c0c0c0" stroke="#c0c0c0" stroke-width="2" points="1158.4195,-41.0961 1149.0821,-36.0896 1153.2594,-45.8262 1158.4195,-41.0961"/>
</g>
<!-- 82&#45;&gt;0 -->
<g id="edge10" class="edge">
<title>82&#45;&gt;0</title>
<path fill="none" stroke="#c0c0c0" stroke-width="2" d="M1438.8007,-215.8789C1448.2974,-196.5096 1458.9192,-165.6675 1444.5,-144 1382.445,-50.7508 1238.3185,-26.5028 1169.8747,-20.2051"/>
<polygon fill="#c0c0c0" stroke="#c0c0c0" stroke-width="2" points="1169.8214,-16.6884 1159.5639,-19.3406 1169.2365,-23.6639 1169.8214,-16.6884"/>
</g>
</g>
</svg>
