<?xml version="1.0" encoding="UTF-8" standalone="no"?>
<!DOCTYPE svg PUBLIC "-//W3C//DTD SVG 1.1//EN"
 "http://www.w3.org/Graphics/SVG/1.1/DTD/svg11.dtd">
<!-- Generated by graphviz version 2.40.1 (0)
 -->
<!-- Title: snakemake_dag Pages: 1 -->
<svg width="1970pt" height="1101pt"
 viewBox="0.00 0.00 1969.50 1101.00" xmlns="http://www.w3.org/2000/svg" xmlns:xlink="http://www.w3.org/1999/xlink">
<g id="graph0" class="graph" transform="scale(1 1) rotate(0) translate(4 1097)">
<title>snakemake_dag</title>
<polygon fill="#ffffff" stroke="transparent" points="-4,4 -4,-1097 1965.5,-1097 1965.5,4 -4,4"/>
<!-- 0 -->
<g id="node1" class="node">
<title>0</title>
<path fill="none" stroke="#b6d856" stroke-width="2" d="M1200.5,-36C1200.5,-36 1170.5,-36 1170.5,-36 1164.5,-36 1158.5,-30 1158.5,-24 1158.5,-24 1158.5,-12 1158.5,-12 1158.5,-6 1164.5,0 1170.5,0 1170.5,0 1200.5,0 1200.5,0 1206.5,0 1212.5,-6 1212.5,-12 1212.5,-12 1212.5,-24 1212.5,-24 1212.5,-30 1206.5,-36 1200.5,-36"/>
<text text-anchor="middle" x="1185.5" y="-15.5" font-family="sans" font-size="10.00" fill="#000000">all</text>
</g>
<!-- 1 -->
<g id="node2" class="node">
<title>1</title>
<path fill="none" stroke="#56d8b1" stroke-width="2" d="M840.5,-108C840.5,-108 810.5,-108 810.5,-108 804.5,-108 798.5,-102 798.5,-96 798.5,-96 798.5,-84 798.5,-84 798.5,-78 804.5,-72 810.5,-72 810.5,-72 840.5,-72 840.5,-72 846.5,-72 852.5,-78 852.5,-84 852.5,-84 852.5,-96 852.5,-96 852.5,-102 846.5,-108 840.5,-108"/>
<text text-anchor="middle" x="825.5" y="-87.5" font-family="sans" font-size="10.00" fill="#000000">multiqc</text>
</g>
<!-- 1&#45;&gt;0 -->
<g id="edge1" class="edge">
<title>1&#45;&gt;0</title>
<path fill="none" stroke="#c0c0c0" stroke-width="2" d="M852.5585,-84.5883C916.1473,-71.8705 1075.2069,-40.0586 1148.0304,-25.4939"/>
<polygon fill="#c0c0c0" stroke="#c0c0c0" stroke-width="2" points="1149.0081,-28.8678 1158.1275,-23.4745 1147.6353,-22.0037 1149.0081,-28.8678"/>
</g>
<!-- 2 -->
<g id="node3" class="node">
<title>2</title>
<path fill="none" stroke="#9fd856" stroke-width="2" d="M1567,-1093C1567,-1093 1460,-1093 1460,-1093 1454,-1093 1448,-1087 1448,-1081 1448,-1081 1448,-1020 1448,-1020 1448,-1014 1454,-1008 1460,-1008 1460,-1008 1567,-1008 1567,-1008 1573,-1008 1579,-1014 1579,-1020 1579,-1020 1579,-1081 1579,-1081 1579,-1087 1573,-1093 1567,-1093"/>
<text text-anchor="middle" x="1513.5" y="-1081" font-family="sans" font-size="10.00" fill="#000000">bowtie2</text>
<text text-anchor="middle" x="1513.5" y="-1070" font-family="sans" font-size="10.00" fill="#000000">library: lib2</text>
<text text-anchor="middle" x="1513.5" y="-1059" font-family="sans" font-size="10.00" fill="#000000">n_shard: 1</text>
<text text-anchor="middle" x="1513.5" y="-1048" font-family="sans" font-size="10.00" fill="#000000">read_type_map: collapsed</text>
<text text-anchor="middle" x="1513.5" y="-1037" font-family="sans" font-size="10.00" fill="#000000">ref: wgs_eukaryota</text>
<text text-anchor="middle" x="1513.5" y="-1026" font-family="sans" font-size="10.00" fill="#000000">sample: HD827sonic_2</text>
<text text-anchor="middle" x="1513.5" y="-1015" font-family="sans" font-size="10.00" fill="#000000">tot_shards: 2</text>
</g>
<!-- 2&#45;&gt;1 -->
<g id="edge11" class="edge">
<title>2&#45;&gt;1</title>
<path fill="none" stroke="#c0c0c0" stroke-width="2" d="M1448.3184,-1007.7678C1410.989,-977.6797 1371.5,-933.6457 1371.5,-882 1371.5,-882 1371.5,-882 1371.5,-666 1371.5,-516.4525 1170.1831,-640.5669 1059.5,-540 1058.3913,-538.9926 889.872,-214.1285 839.5372,-117.07"/>
<polygon fill="#c0c0c0" stroke="#c0c0c0" stroke-width="2" points="842.6233,-115.4181 834.9125,-108.1521 836.4092,-118.6407 842.6233,-115.4181"/>
</g>
<!-- 47 -->
<g id="node48" class="node">
<title>47</title>
<path fill="none" stroke="#56c9d8" stroke-width="2" d="M1708,-972C1708,-972 1639,-972 1639,-972 1633,-972 1627,-966 1627,-960 1627,-960 1627,-948 1627,-948 1627,-942 1633,-936 1639,-936 1639,-936 1708,-936 1708,-936 1714,-936 1720,-942 1720,-948 1720,-948 1720,-960 1720,-960 1720,-966 1714,-972 1708,-972"/>
<text text-anchor="middle" x="1673.5" y="-951.5" font-family="sans" font-size="10.00" fill="#000000">shard_count_alns</text>
</g>
<!-- 2&#45;&gt;47 -->
<g id="edge84" class="edge">
<title>2&#45;&gt;47</title>
<path fill="none" stroke="#c0c0c0" stroke-width="2" d="M1579.0398,-1010.9713C1597.8265,-999.6406 1617.7136,-987.6462 1634.3694,-977.6006"/>
<polygon fill="#c0c0c0" stroke="#c0c0c0" stroke-width="2" points="1636.5072,-980.3986 1643.2627,-972.2369 1632.892,-974.4044 1636.5072,-980.3986"/>
</g>
<!-- 52 -->
<g id="node53" class="node">
<title>52</title>
<path fill="none" stroke="#5682d8" stroke-width="2" d="M1712,-828C1712,-828 1583,-828 1583,-828 1577,-828 1571,-822 1571,-816 1571,-816 1571,-804 1571,-804 1571,-798 1577,-792 1583,-792 1583,-792 1712,-792 1712,-792 1718,-792 1724,-798 1724,-804 1724,-804 1724,-816 1724,-816 1724,-822 1718,-828 1712,-828"/>
<text text-anchor="middle" x="1647.5" y="-807.5" font-family="sans" font-size="10.00" fill="#000000">shard_saturated_reads_remove</text>
</g>
<!-- 2&#45;&gt;52 -->
<g id="edge89" class="edge">
<title>2&#45;&gt;52</title>
<path fill="none" stroke="#c0c0c0" stroke-width="2" d="M1501.6448,-1007.73C1497.7098,-985.4434 1496.5351,-958.2687 1506.5,-936 1526.687,-890.8877 1571.8933,-855.2594 1605.7111,-833.5618"/>
<polygon fill="#c0c0c0" stroke="#c0c0c0" stroke-width="2" points="1607.8537,-836.3501 1614.4784,-828.0819 1604.1435,-830.4142 1607.8537,-836.3501"/>
</g>
<!-- 3 -->
<g id="node4" class="node">
<title>3</title>
<path fill="none" stroke="#9fd856" stroke-width="2" d="M438,-1093C438,-1093 331,-1093 331,-1093 325,-1093 319,-1087 319,-1081 319,-1081 319,-1020 319,-1020 319,-1014 325,-1008 331,-1008 331,-1008 438,-1008 438,-1008 444,-1008 450,-1014 450,-1020 450,-1020 450,-1081 450,-1081 450,-1087 444,-1093 438,-1093"/>
<text text-anchor="middle" x="384.5" y="-1081" font-family="sans" font-size="10.00" fill="#000000">bowtie2</text>
<text text-anchor="middle" x="384.5" y="-1070" font-family="sans" font-size="10.00" fill="#000000">library: lib1</text>
<text text-anchor="middle" x="384.5" y="-1059" font-family="sans" font-size="10.00" fill="#000000">n_shard: 1</text>
<text text-anchor="middle" x="384.5" y="-1048" font-family="sans" font-size="10.00" fill="#000000">read_type_map: collapsed</text>
<text text-anchor="middle" x="384.5" y="-1037" font-family="sans" font-size="10.00" fill="#000000">ref: refseq_mitochondrion</text>
<text text-anchor="middle" x="384.5" y="-1026" font-family="sans" font-size="10.00" fill="#000000">sample: HD827sonic_2</text>
<text text-anchor="middle" x="384.5" y="-1015" font-family="sans" font-size="10.00" fill="#000000">tot_shards: 1</text>
</g>
<!-- 3&#45;&gt;1 -->
<g id="edge12" class="edge">
<title>3&#45;&gt;1</title>
<path fill="none" stroke="#c0c0c0" stroke-width="2" d="M450.1092,-1020.7279C472.6263,-1008.1262 496.6308,-991.7428 514.5,-972 567.9958,-912.8953 591.5,-889.7193 591.5,-810 591.5,-810 591.5,-810 591.5,-234 591.5,-189.4756 601.3455,-172.5638 635.5,-144 658.6595,-124.6315 739.8466,-106.3601 788.2806,-96.8396"/>
<polygon fill="#c0c0c0" stroke="#c0c0c0" stroke-width="2" points="789.2232,-100.2223 798.3773,-94.8883 787.8949,-93.3495 789.2232,-100.2223"/>
</g>
<!-- 34 -->
<g id="node35" class="node">
<title>34</title>
<path fill="none" stroke="#56c9d8" stroke-width="2" d="M344,-972C344,-972 275,-972 275,-972 269,-972 263,-966 263,-960 263,-960 263,-948 263,-948 263,-942 269,-936 275,-936 275,-936 344,-936 344,-936 350,-936 356,-942 356,-948 356,-948 356,-960 356,-960 356,-966 350,-972 344,-972"/>
<text text-anchor="middle" x="309.5" y="-951.5" font-family="sans" font-size="10.00" fill="#000000">shard_count_alns</text>
</g>
<!-- 3&#45;&gt;34 -->
<g id="edge64" class="edge">
<title>3&#45;&gt;34</title>
<path fill="none" stroke="#c0c0c0" stroke-width="2" d="M351.3856,-1007.8928C344.0867,-998.5016 336.5632,-988.8213 329.9414,-980.3013"/>
<polygon fill="#c0c0c0" stroke="#c0c0c0" stroke-width="2" points="332.5621,-977.9697 323.662,-972.2218 327.0351,-982.2653 332.5621,-977.9697"/>
</g>
<!-- 40 -->
<g id="node41" class="node">
<title>40</title>
<path fill="none" stroke="#5682d8" stroke-width="2" d="M380,-828C380,-828 251,-828 251,-828 245,-828 239,-822 239,-816 239,-816 239,-804 239,-804 239,-798 245,-792 251,-792 251,-792 380,-792 380,-792 386,-792 392,-798 392,-804 392,-804 392,-816 392,-816 392,-822 386,-828 380,-828"/>
<text text-anchor="middle" x="315.5" y="-807.5" font-family="sans" font-size="10.00" fill="#000000">shard_saturated_reads_remove</text>
</g>
<!-- 3&#45;&gt;40 -->
<g id="edge71" class="edge">
<title>3&#45;&gt;40</title>
<path fill="none" stroke="#c0c0c0" stroke-width="2" d="M387.6579,-1007.7857C388.8503,-968.6462 386.2652,-909.9744 365.5,-864 360.7486,-853.4804 353.1237,-843.6603 345.2452,-835.3562"/>
<polygon fill="#c0c0c0" stroke="#c0c0c0" stroke-width="2" points="347.5771,-832.7394 338.0136,-828.1796 342.6462,-837.708 347.5771,-832.7394"/>
</g>
<!-- 4 -->
<g id="node5" class="node">
<title>4</title>
<path fill="none" stroke="#9fd856" stroke-width="2" d="M1418,-1093C1418,-1093 1311,-1093 1311,-1093 1305,-1093 1299,-1087 1299,-1081 1299,-1081 1299,-1020 1299,-1020 1299,-1014 1305,-1008 1311,-1008 1311,-1008 1418,-1008 1418,-1008 1424,-1008 1430,-1014 1430,-1020 1430,-1020 1430,-1081 1430,-1081 1430,-1087 1424,-1093 1418,-1093"/>
<text text-anchor="middle" x="1364.5" y="-1081" font-family="sans" font-size="10.00" fill="#000000">bowtie2</text>
<text text-anchor="middle" x="1364.5" y="-1070" font-family="sans" font-size="10.00" fill="#000000">library: lib2</text>
<text text-anchor="middle" x="1364.5" y="-1059" font-family="sans" font-size="10.00" fill="#000000">n_shard: 2</text>
<text text-anchor="middle" x="1364.5" y="-1048" font-family="sans" font-size="10.00" fill="#000000">read_type_map: collapsed</text>
<text text-anchor="middle" x="1364.5" y="-1037" font-family="sans" font-size="10.00" fill="#000000">ref: wgs_eukaryota</text>
<text text-anchor="middle" x="1364.5" y="-1026" font-family="sans" font-size="10.00" fill="#000000">sample: HD827sonic_2</text>
<text text-anchor="middle" x="1364.5" y="-1015" font-family="sans" font-size="10.00" fill="#000000">tot_shards: 2</text>
</g>
<!-- 4&#45;&gt;1 -->
<g id="edge13" class="edge">
<title>4&#45;&gt;1</title>
<path fill="none" stroke="#c0c0c0" stroke-width="2" d="M1351.9022,-1007.6808C1336.1517,-955.8013 1307.358,-866.1332 1275.5,-792 1247.0092,-725.7023 1250.8673,-699.6744 1200.5,-648 1183.2123,-630.2636 1021.8828,-558.5755 1005.5,-540 890.1207,-409.1779 843.571,-195.1436 830.0367,-118.4514"/>
<polygon fill="#c0c0c0" stroke="#c0c0c0" stroke-width="2" points="833.412,-117.4252 828.2751,-108.159 826.5123,-118.6062 833.412,-117.4252"/>
</g>
<!-- 45 -->
<g id="node46" class="node">
<title>45</title>
<path fill="none" stroke="#5682d8" stroke-width="2" d="M1541,-828C1541,-828 1412,-828 1412,-828 1406,-828 1400,-822 1400,-816 1400,-816 1400,-804 1400,-804 1400,-798 1406,-792 1412,-792 1412,-792 1541,-792 1541,-792 1547,-792 1553,-798 1553,-804 1553,-804 1553,-816 1553,-816 1553,-822 1547,-828 1541,-828"/>
<text text-anchor="middle" x="1476.5" y="-807.5" font-family="sans" font-size="10.00" fill="#000000">shard_saturated_reads_remove</text>
</g>
<!-- 4&#45;&gt;45 -->
<g id="edge79" class="edge">
<title>4&#45;&gt;45</title>
<path fill="none" stroke="#c0c0c0" stroke-width="2" d="M1384.3943,-1007.7805C1407.323,-958.5453 1444.3293,-879.0809 1463.7177,-837.4476"/>
<polygon fill="#c0c0c0" stroke="#c0c0c0" stroke-width="2" points="1466.9759,-838.7419 1468.0248,-828.1991 1460.6302,-835.7867 1466.9759,-838.7419"/>
</g>
<!-- 48 -->
<g id="node49" class="node">
<title>48</title>
<path fill="none" stroke="#56c9d8" stroke-width="2" d="M1597,-972C1597,-972 1528,-972 1528,-972 1522,-972 1516,-966 1516,-960 1516,-960 1516,-948 1516,-948 1516,-942 1522,-936 1528,-936 1528,-936 1597,-936 1597,-936 1603,-936 1609,-942 1609,-948 1609,-948 1609,-960 1609,-960 1609,-966 1603,-972 1597,-972"/>
<text text-anchor="middle" x="1562.5" y="-951.5" font-family="sans" font-size="10.00" fill="#000000">shard_count_alns</text>
</g>
<!-- 4&#45;&gt;48 -->
<g id="edge85" class="edge">
<title>4&#45;&gt;48</title>
<path fill="none" stroke="#c0c0c0" stroke-width="2" d="M1430.0614,-1012.3451C1432.8992,-1010.8526 1435.7206,-1009.398 1438.5,-1008 1460.9753,-996.6956 1486.3584,-985.3945 1508.2782,-976.0742"/>
<polygon fill="#c0c0c0" stroke="#c0c0c0" stroke-width="2" points="1509.9085,-979.1852 1517.7613,-972.073 1507.1872,-972.7358 1509.9085,-979.1852"/>
</g>
<!-- 5 -->
<g id="node6" class="node">
<title>5</title>
<path fill="none" stroke="#9fd856" stroke-width="2" d="M626,-1093C626,-1093 519,-1093 519,-1093 513,-1093 507,-1087 507,-1081 507,-1081 507,-1020 507,-1020 507,-1014 513,-1008 519,-1008 519,-1008 626,-1008 626,-1008 632,-1008 638,-1014 638,-1020 638,-1020 638,-1081 638,-1081 638,-1087 632,-1093 626,-1093"/>
<text text-anchor="middle" x="572.5" y="-1081" font-family="sans" font-size="10.00" fill="#000000">bowtie2</text>
<text text-anchor="middle" x="572.5" y="-1070" font-family="sans" font-size="10.00" fill="#000000">library: lib1</text>
<text text-anchor="middle" x="572.5" y="-1059" font-family="sans" font-size="10.00" fill="#000000">n_shard: 2</text>
<text text-anchor="middle" x="572.5" y="-1048" font-family="sans" font-size="10.00" fill="#000000">read_type_map: collapsed</text>
<text text-anchor="middle" x="572.5" y="-1037" font-family="sans" font-size="10.00" fill="#000000">ref: wgs_eukaryota</text>
<text text-anchor="middle" x="572.5" y="-1026" font-family="sans" font-size="10.00" fill="#000000">sample: HD827sonic_2</text>
<text text-anchor="middle" x="572.5" y="-1015" font-family="sans" font-size="10.00" fill="#000000">tot_shards: 2</text>
</g>
<!-- 5&#45;&gt;1 -->
<g id="edge14" class="edge">
<title>5&#45;&gt;1</title>
<path fill="none" stroke="#c0c0c0" stroke-width="2" d="M595.5198,-1007.8462C611.3394,-974.5574 629.5,-926.6244 629.5,-882 629.5,-882 629.5,-882 629.5,-234 629.5,-190.5807 635.7396,-173.6059 667.5,-144 700.8407,-112.921 752.8295,-99.6484 787.9818,-94.0331"/>
<polygon fill="#c0c0c0" stroke="#c0c0c0" stroke-width="2" points="788.9218,-97.4331 798.3113,-92.525 787.9105,-90.5065 788.9218,-97.4331"/>
</g>
<!-- 30 -->
<g id="node31" class="node">
<title>30</title>
<path fill="none" stroke="#5682d8" stroke-width="2" d="M551,-828C551,-828 422,-828 422,-828 416,-828 410,-822 410,-816 410,-816 410,-804 410,-804 410,-798 416,-792 422,-792 422,-792 551,-792 551,-792 557,-792 563,-798 563,-804 563,-804 563,-816 563,-816 563,-822 557,-828 551,-828"/>
<text text-anchor="middle" x="486.5" y="-807.5" font-family="sans" font-size="10.00" fill="#000000">shard_saturated_reads_remove</text>
</g>
<!-- 5&#45;&gt;30 -->
<g id="edge57" class="edge">
<title>5&#45;&gt;30</title>
<path fill="none" stroke="#c0c0c0" stroke-width="2" d="M557.224,-1007.7805C539.6552,-958.6492 511.3224,-879.416 496.4094,-837.7116"/>
<polygon fill="#c0c0c0" stroke="#c0c0c0" stroke-width="2" points="499.6706,-836.4367 493.0078,-828.1991 493.0793,-838.7937 499.6706,-836.4367"/>
</g>
<!-- 33 -->
<g id="node34" class="node">
<title>33</title>
<path fill="none" stroke="#56c9d8" stroke-width="2" d="M494,-972C494,-972 425,-972 425,-972 419,-972 413,-966 413,-960 413,-960 413,-948 413,-948 413,-942 419,-936 425,-936 425,-936 494,-936 494,-936 500,-936 506,-942 506,-948 506,-948 506,-960 506,-960 506,-966 500,-972 494,-972"/>
<text text-anchor="middle" x="459.5" y="-951.5" font-family="sans" font-size="10.00" fill="#000000">shard_count_alns</text>
</g>
<!-- 5&#45;&gt;33 -->
<g id="edge63" class="edge">
<title>5&#45;&gt;33</title>
<path fill="none" stroke="#c0c0c0" stroke-width="2" d="M522.6076,-1007.8928C510.9234,-997.9147 498.8569,-987.6101 488.4441,-978.7178"/>
<polygon fill="#c0c0c0" stroke="#c0c0c0" stroke-width="2" points="490.7148,-976.0543 480.8374,-972.2218 486.169,-981.3774 490.7148,-976.0543"/>
</g>
<!-- 6 -->
<g id="node7" class="node">
<title>6</title>
<path fill="none" stroke="#9fd856" stroke-width="2" d="M1209,-1093C1209,-1093 1102,-1093 1102,-1093 1096,-1093 1090,-1087 1090,-1081 1090,-1081 1090,-1020 1090,-1020 1090,-1014 1096,-1008 1102,-1008 1102,-1008 1209,-1008 1209,-1008 1215,-1008 1221,-1014 1221,-1020 1221,-1020 1221,-1081 1221,-1081 1221,-1087 1215,-1093 1209,-1093"/>
<text text-anchor="middle" x="1155.5" y="-1081" font-family="sans" font-size="10.00" fill="#000000">bowtie2</text>
<text text-anchor="middle" x="1155.5" y="-1070" font-family="sans" font-size="10.00" fill="#000000">library: lib1</text>
<text text-anchor="middle" x="1155.5" y="-1059" font-family="sans" font-size="10.00" fill="#000000">n_shard: 1</text>
<text text-anchor="middle" x="1155.5" y="-1048" font-family="sans" font-size="10.00" fill="#000000">read_type_map: collapsed</text>
<text text-anchor="middle" x="1155.5" y="-1037" font-family="sans" font-size="10.00" fill="#000000">ref: refseq_mitochondrion</text>
<text text-anchor="middle" x="1155.5" y="-1026" font-family="sans" font-size="10.00" fill="#000000">sample: HD827sonic_1</text>
<text text-anchor="middle" x="1155.5" y="-1015" font-family="sans" font-size="10.00" fill="#000000">tot_shards: 1</text>
</g>
<!-- 6&#45;&gt;1 -->
<g id="edge15" class="edge">
<title>6&#45;&gt;1</title>
<path fill="none" stroke="#c0c0c0" stroke-width="2" d="M1124.1535,-1007.7593C1102.7354,-979.5759 1075.5943,-946.0706 1060.5,-936 1015.2422,-905.8051 994.8177,-918.0692 943.5,-900 861.8388,-871.2466 811.105,-899.644 762.5,-828 752.3292,-813.0082 808.9144,-252.2349 822.5813,-118.4464"/>
<polygon fill="#c0c0c0" stroke="#c0c0c0" stroke-width="2" points="826.0938,-118.5013 823.6297,-108.197 819.1302,-117.7889 826.0938,-118.5013"/>
</g>
<!-- 19 -->
<g id="node20" class="node">
<title>19</title>
<path fill="none" stroke="#56c9d8" stroke-width="2" d="M1190,-972C1190,-972 1121,-972 1121,-972 1115,-972 1109,-966 1109,-960 1109,-960 1109,-948 1109,-948 1109,-942 1115,-936 1121,-936 1121,-936 1190,-936 1190,-936 1196,-936 1202,-942 1202,-948 1202,-948 1202,-960 1202,-960 1202,-966 1196,-972 1190,-972"/>
<text text-anchor="middle" x="1155.5" y="-951.5" font-family="sans" font-size="10.00" fill="#000000">shard_count_alns</text>
</g>
<!-- 6&#45;&gt;19 -->
<g id="edge42" class="edge">
<title>6&#45;&gt;19</title>
<path fill="none" stroke="#c0c0c0" stroke-width="2" d="M1155.5,-1007.8928C1155.5,-999.2842 1155.5,-990.4327 1155.5,-982.4546"/>
<polygon fill="#c0c0c0" stroke="#c0c0c0" stroke-width="2" points="1159.0001,-982.2218 1155.5,-972.2218 1152.0001,-982.2218 1159.0001,-982.2218"/>
</g>
<!-- 25 -->
<g id="node26" class="node">
<title>25</title>
<path fill="none" stroke="#5682d8" stroke-width="2" d="M1255,-828C1255,-828 1126,-828 1126,-828 1120,-828 1114,-822 1114,-816 1114,-816 1114,-804 1114,-804 1114,-798 1120,-792 1126,-792 1126,-792 1255,-792 1255,-792 1261,-792 1267,-798 1267,-804 1267,-804 1267,-816 1267,-816 1267,-822 1261,-828 1255,-828"/>
<text text-anchor="middle" x="1190.5" y="-807.5" font-family="sans" font-size="10.00" fill="#000000">shard_saturated_reads_remove</text>
</g>
<!-- 6&#45;&gt;25 -->
<g id="edge49" class="edge">
<title>6&#45;&gt;25</title>
<path fill="none" stroke="#c0c0c0" stroke-width="2" d="M1192.3478,-1007.7927C1199.7934,-996.812 1206.5451,-984.5371 1210.5,-972 1224.8088,-926.6412 1211.7592,-871.1263 1201.0737,-838.2684"/>
<polygon fill="#c0c0c0" stroke="#c0c0c0" stroke-width="2" points="1204.2627,-836.7754 1197.7252,-828.438 1197.6366,-839.0325 1204.2627,-836.7754"/>
</g>
<!-- 7 -->
<g id="node8" class="node">
<title>7</title>
<path fill="none" stroke="#9fd856" stroke-width="2" d="M177,-1093C177,-1093 70,-1093 70,-1093 64,-1093 58,-1087 58,-1081 58,-1081 58,-1020 58,-1020 58,-1014 64,-1008 70,-1008 70,-1008 177,-1008 177,-1008 183,-1008 189,-1014 189,-1020 189,-1020 189,-1081 189,-1081 189,-1087 183,-1093 177,-1093"/>
<text text-anchor="middle" x="123.5" y="-1081" font-family="sans" font-size="10.00" fill="#000000">bowtie2</text>
<text text-anchor="middle" x="123.5" y="-1070" font-family="sans" font-size="10.00" fill="#000000">library: lib1</text>
<text text-anchor="middle" x="123.5" y="-1059" font-family="sans" font-size="10.00" fill="#000000">n_shard: 1</text>
<text text-anchor="middle" x="123.5" y="-1048" font-family="sans" font-size="10.00" fill="#000000">read_type_map: collapsed</text>
<text text-anchor="middle" x="123.5" y="-1037" font-family="sans" font-size="10.00" fill="#000000">ref: wgs_eukaryota</text>
<text text-anchor="middle" x="123.5" y="-1026" font-family="sans" font-size="10.00" fill="#000000">sample: HD827sonic_2</text>
<text text-anchor="middle" x="123.5" y="-1015" font-family="sans" font-size="10.00" fill="#000000">tot_shards: 2</text>
</g>
<!-- 7&#45;&gt;1 -->
<g id="edge16" class="edge">
<title>7&#45;&gt;1</title>
<path fill="none" stroke="#c0c0c0" stroke-width="2" d="M98.2275,-1007.9244C70.9017,-956.2845 34.2962,-866.8524 58.5,-792 82.7893,-716.8833 115.7976,-711.6505 162.5,-648 233.3313,-551.4644 227.0899,-503.0021 323.5,-432 362.2093,-403.4921 389.3096,-427.6444 425.5,-396 449.1798,-375.2947 529.4052,-162.9657 554.5,-144 563.8249,-136.9526 716.05,-109.3327 788.166,-96.5528"/>
<polygon fill="#c0c0c0" stroke="#c0c0c0" stroke-width="2" points="788.9603,-99.9668 798.1983,-94.7792 787.7416,-93.0737 788.9603,-99.9668"/>
</g>
<!-- 32 -->
<g id="node33" class="node">
<title>32</title>
<path fill="none" stroke="#56c9d8" stroke-width="2" d="M233,-972C233,-972 164,-972 164,-972 158,-972 152,-966 152,-960 152,-960 152,-948 152,-948 152,-942 158,-936 164,-936 164,-936 233,-936 233,-936 239,-936 245,-942 245,-948 245,-948 245,-960 245,-960 245,-966 239,-972 233,-972"/>
<text text-anchor="middle" x="198.5" y="-951.5" font-family="sans" font-size="10.00" fill="#000000">shard_count_alns</text>
</g>
<!-- 7&#45;&gt;32 -->
<g id="edge62" class="edge">
<title>7&#45;&gt;32</title>
<path fill="none" stroke="#c0c0c0" stroke-width="2" d="M156.6144,-1007.8928C163.9133,-998.5016 171.4368,-988.8213 178.0586,-980.3013"/>
<polygon fill="#c0c0c0" stroke="#c0c0c0" stroke-width="2" points="180.9649,-982.2653 184.338,-972.2218 175.4379,-977.9697 180.9649,-982.2653"/>
</g>
<!-- 37 -->
<g id="node38" class="node">
<title>37</title>
<path fill="none" stroke="#5682d8" stroke-width="2" d="M209,-828C209,-828 80,-828 80,-828 74,-828 68,-822 68,-816 68,-816 68,-804 68,-804 68,-798 74,-792 80,-792 80,-792 209,-792 209,-792 215,-792 221,-798 221,-804 221,-804 221,-816 221,-816 221,-822 215,-828 209,-828"/>
<text text-anchor="middle" x="144.5" y="-807.5" font-family="sans" font-size="10.00" fill="#000000">shard_saturated_reads_remove</text>
</g>
<!-- 7&#45;&gt;37 -->
<g id="edge67" class="edge">
<title>7&#45;&gt;37</title>
<path fill="none" stroke="#c0c0c0" stroke-width="2" d="M127.2302,-1007.7805C131.5021,-958.8569 138.3803,-880.0855 142.0339,-838.2427"/>
<polygon fill="#c0c0c0" stroke="#c0c0c0" stroke-width="2" points="145.5277,-838.4657 142.9109,-828.1991 138.5542,-837.8567 145.5277,-838.4657"/>
</g>
<!-- 8 -->
<g id="node9" class="node">
<title>8</title>
<path fill="none" stroke="#9fd856" stroke-width="2" d="M1913,-1093C1913,-1093 1806,-1093 1806,-1093 1800,-1093 1794,-1087 1794,-1081 1794,-1081 1794,-1020 1794,-1020 1794,-1014 1800,-1008 1806,-1008 1806,-1008 1913,-1008 1913,-1008 1919,-1008 1925,-1014 1925,-1020 1925,-1020 1925,-1081 1925,-1081 1925,-1087 1919,-1093 1913,-1093"/>
<text text-anchor="middle" x="1859.5" y="-1081" font-family="sans" font-size="10.00" fill="#000000">bowtie2</text>
<text text-anchor="middle" x="1859.5" y="-1070" font-family="sans" font-size="10.00" fill="#000000">library: lib2</text>
<text text-anchor="middle" x="1859.5" y="-1059" font-family="sans" font-size="10.00" fill="#000000">n_shard: 1</text>
<text text-anchor="middle" x="1859.5" y="-1048" font-family="sans" font-size="10.00" fill="#000000">read_type_map: collapsed</text>
<text text-anchor="middle" x="1859.5" y="-1037" font-family="sans" font-size="10.00" fill="#000000">ref: refseq_mitochondrion</text>
<text text-anchor="middle" x="1859.5" y="-1026" font-family="sans" font-size="10.00" fill="#000000">sample: HD827sonic_2</text>
<text text-anchor="middle" x="1859.5" y="-1015" font-family="sans" font-size="10.00" fill="#000000">tot_shards: 1</text>
</g>
<!-- 8&#45;&gt;1 -->
<g id="edge17" class="edge">
<title>8&#45;&gt;1</title>
<path fill="none" stroke="#c0c0c0" stroke-width="2" d="M1903.053,-1007.8917C1930.7763,-976.1074 1961.5,-930.0451 1961.5,-882 1961.5,-882 1961.5,-882 1961.5,-810 1961.5,-719.8665 1910.5984,-703.3992 1839.5,-648 1774.4529,-597.3159 1745.121,-606.4832 1668.5,-576 1626.1598,-559.1552 1612.1785,-562.4067 1572.5,-540 1482.6856,-489.2812 1461.8176,-470.5172 1390.5,-396 1342.7377,-346.0949 1267.6529,-179.6747 1208.5,-144 1150.6676,-109.1217 947.263,-95.7152 862.7513,-91.5713"/>
<polygon fill="#c0c0c0" stroke="#c0c0c0" stroke-width="2" points="862.7352,-88.0667 852.5808,-91.0894 862.4039,-95.0588 862.7352,-88.0667"/>
</g>
<!-- 49 -->
<g id="node50" class="node">
<title>49</title>
<path fill="none" stroke="#56c9d8" stroke-width="2" d="M1819,-972C1819,-972 1750,-972 1750,-972 1744,-972 1738,-966 1738,-960 1738,-960 1738,-948 1738,-948 1738,-942 1744,-936 1750,-936 1750,-936 1819,-936 1819,-936 1825,-936 1831,-942 1831,-948 1831,-948 1831,-960 1831,-960 1831,-966 1825,-972 1819,-972"/>
<text text-anchor="middle" x="1784.5" y="-951.5" font-family="sans" font-size="10.00" fill="#000000">shard_count_alns</text>
</g>
<!-- 8&#45;&gt;49 -->
<g id="edge86" class="edge">
<title>8&#45;&gt;49</title>
<path fill="none" stroke="#c0c0c0" stroke-width="2" d="M1826.3856,-1007.8928C1819.0867,-998.5016 1811.5632,-988.8213 1804.9414,-980.3013"/>
<polygon fill="#c0c0c0" stroke="#c0c0c0" stroke-width="2" points="1807.5621,-977.9697 1798.662,-972.2218 1802.0351,-982.2653 1807.5621,-977.9697"/>
</g>
<!-- 55 -->
<g id="node56" class="node">
<title>55</title>
<path fill="none" stroke="#5682d8" stroke-width="2" d="M1883,-828C1883,-828 1754,-828 1754,-828 1748,-828 1742,-822 1742,-816 1742,-816 1742,-804 1742,-804 1742,-798 1748,-792 1754,-792 1754,-792 1883,-792 1883,-792 1889,-792 1895,-798 1895,-804 1895,-804 1895,-816 1895,-816 1895,-822 1889,-828 1883,-828"/>
<text text-anchor="middle" x="1818.5" y="-807.5" font-family="sans" font-size="10.00" fill="#000000">shard_saturated_reads_remove</text>
</g>
<!-- 8&#45;&gt;55 -->
<g id="edge93" class="edge">
<title>8&#45;&gt;55</title>
<path fill="none" stroke="#c0c0c0" stroke-width="2" d="M1852.5024,-1007.8023C1848.9503,-986.2638 1844.5418,-959.738 1840.5,-936 1834.7925,-902.4796 1828.0418,-863.9794 1823.5378,-838.4495"/>
<polygon fill="#c0c0c0" stroke="#c0c0c0" stroke-width="2" points="1826.9408,-837.5933 1821.7546,-828.3545 1820.0475,-838.8109 1826.9408,-837.5933"/>
</g>
<!-- 9 -->
<g id="node10" class="node">
<title>9</title>
<path fill="none" stroke="#9fd856" stroke-width="2" d="M814,-1093C814,-1093 707,-1093 707,-1093 701,-1093 695,-1087 695,-1081 695,-1081 695,-1020 695,-1020 695,-1014 701,-1008 707,-1008 707,-1008 814,-1008 814,-1008 820,-1008 826,-1014 826,-1020 826,-1020 826,-1081 826,-1081 826,-1087 820,-1093 814,-1093"/>
<text text-anchor="middle" x="760.5" y="-1081" font-family="sans" font-size="10.00" fill="#000000">bowtie2</text>
<text text-anchor="middle" x="760.5" y="-1070" font-family="sans" font-size="10.00" fill="#000000">library: lib1</text>
<text text-anchor="middle" x="760.5" y="-1059" font-family="sans" font-size="10.00" fill="#000000">n_shard: 2</text>
<text text-anchor="middle" x="760.5" y="-1048" font-family="sans" font-size="10.00" fill="#000000">read_type_map: collapsed</text>
<text text-anchor="middle" x="760.5" y="-1037" font-family="sans" font-size="10.00" fill="#000000">ref: wgs_eukaryota</text>
<text text-anchor="middle" x="760.5" y="-1026" font-family="sans" font-size="10.00" fill="#000000">sample: HD827sonic_1</text>
<text text-anchor="middle" x="760.5" y="-1015" font-family="sans" font-size="10.00" fill="#000000">tot_shards: 2</text>
</g>
<!-- 9&#45;&gt;1 -->
<g id="edge18" class="edge">
<title>9&#45;&gt;1</title>
<path fill="none" stroke="#c0c0c0" stroke-width="2" d="M716.8473,-1007.9432C707.4143,-996.9572 698.2568,-984.6421 691.5,-972 671.9864,-935.4898 667.5,-923.3978 667.5,-882 667.5,-882 667.5,-882 667.5,-234 667.5,-192.6022 664.0737,-175.0093 691.5,-144 716.3234,-115.9337 757.8057,-102.235 788.0516,-95.6928"/>
<polygon fill="#c0c0c0" stroke="#c0c0c0" stroke-width="2" points="789.1114,-99.0506 798.2356,-93.6654 787.7447,-92.1853 789.1114,-99.0506"/>
</g>
<!-- 15 -->
<g id="node16" class="node">
<title>15</title>
<path fill="none" stroke="#5682d8" stroke-width="2" d="M913,-828C913,-828 784,-828 784,-828 778,-828 772,-822 772,-816 772,-816 772,-804 772,-804 772,-798 778,-792 784,-792 784,-792 913,-792 913,-792 919,-792 925,-798 925,-804 925,-804 925,-816 925,-816 925,-822 919,-828 913,-828"/>
<text text-anchor="middle" x="848.5" y="-807.5" font-family="sans" font-size="10.00" fill="#000000">shard_saturated_reads_remove</text>
</g>
<!-- 9&#45;&gt;15 -->
<g id="edge35" class="edge">
<title>9&#45;&gt;15</title>
<path fill="none" stroke="#c0c0c0" stroke-width="2" d="M765.4002,-1007.9765C771.1149,-968.9686 782.8296,-910.383 805.5,-864 810.3654,-854.0456 817.3248,-844.2382 824.2313,-835.7699"/>
<polygon fill="#c0c0c0" stroke="#c0c0c0" stroke-width="2" points="826.945,-837.9816 830.7666,-828.1 821.6168,-833.4417 826.945,-837.9816"/>
</g>
<!-- 18 -->
<g id="node19" class="node">
<title>18</title>
<path fill="none" stroke="#56c9d8" stroke-width="2" d="M929,-972C929,-972 860,-972 860,-972 854,-972 848,-966 848,-960 848,-960 848,-948 848,-948 848,-942 854,-936 860,-936 860,-936 929,-936 929,-936 935,-936 941,-942 941,-948 941,-948 941,-960 941,-960 941,-966 935,-972 929,-972"/>
<text text-anchor="middle" x="894.5" y="-951.5" font-family="sans" font-size="10.00" fill="#000000">shard_count_alns</text>
</g>
<!-- 9&#45;&gt;18 -->
<g id="edge41" class="edge">
<title>9&#45;&gt;18</title>
<path fill="none" stroke="#c0c0c0" stroke-width="2" d="M819.6644,-1007.8928C833.7917,-997.719 848.3903,-987.2059 860.901,-978.1963"/>
<polygon fill="#c0c0c0" stroke="#c0c0c0" stroke-width="2" points="863.1278,-980.9058 869.1972,-972.2218 859.0371,-975.2255 863.1278,-980.9058"/>
</g>
<!-- 10 -->
<g id="node11" class="node">
<title>10</title>
<path fill="none" stroke="#9fd856" stroke-width="2" d="M963,-1093C963,-1093 856,-1093 856,-1093 850,-1093 844,-1087 844,-1081 844,-1081 844,-1020 844,-1020 844,-1014 850,-1008 856,-1008 856,-1008 963,-1008 963,-1008 969,-1008 975,-1014 975,-1020 975,-1020 975,-1081 975,-1081 975,-1087 969,-1093 963,-1093"/>
<text text-anchor="middle" x="909.5" y="-1081" font-family="sans" font-size="10.00" fill="#000000">bowtie2</text>
<text text-anchor="middle" x="909.5" y="-1070" font-family="sans" font-size="10.00" fill="#000000">library: lib1</text>
<text text-anchor="middle" x="909.5" y="-1059" font-family="sans" font-size="10.00" fill="#000000">n_shard: 1</text>
<text text-anchor="middle" x="909.5" y="-1048" font-family="sans" font-size="10.00" fill="#000000">read_type_map: collapsed</text>
<text text-anchor="middle" x="909.5" y="-1037" font-family="sans" font-size="10.00" fill="#000000">ref: wgs_eukaryota</text>
<text text-anchor="middle" x="909.5" y="-1026" font-family="sans" font-size="10.00" fill="#000000">sample: HD827sonic_1</text>
<text text-anchor="middle" x="909.5" y="-1015" font-family="sans" font-size="10.00" fill="#000000">tot_shards: 2</text>
</g>
<!-- 10&#45;&gt;1 -->
<g id="edge19" class="edge">
<title>10&#45;&gt;1</title>
<path fill="none" stroke="#c0c0c0" stroke-width="2" d="M843.8302,-1011.9871C784.1945,-974.6747 705.5,-918.519 705.5,-882 705.5,-882 705.5,-882 705.5,-234 705.5,-193.1184 699.9569,-176.6947 724.5,-144 740.338,-122.9017 766.889,-109.1679 788.794,-100.8321"/>
<polygon fill="#c0c0c0" stroke="#c0c0c0" stroke-width="2" points="790.2357,-104.0339 798.4764,-97.375 787.8818,-97.4415 790.2357,-104.0339"/>
</g>
<!-- 17 -->
<g id="node18" class="node">
<title>17</title>
<path fill="none" stroke="#56c9d8" stroke-width="2" d="M1040,-972C1040,-972 971,-972 971,-972 965,-972 959,-966 959,-960 959,-960 959,-948 959,-948 959,-942 965,-936 971,-936 971,-936 1040,-936 1040,-936 1046,-936 1052,-942 1052,-948 1052,-948 1052,-960 1052,-960 1052,-966 1046,-972 1040,-972"/>
<text text-anchor="middle" x="1005.5" y="-951.5" font-family="sans" font-size="10.00" fill="#000000">shard_count_alns</text>
</g>
<!-- 10&#45;&gt;17 -->
<g id="edge40" class="edge">
<title>10&#45;&gt;17</title>
<path fill="none" stroke="#c0c0c0" stroke-width="2" d="M951.8864,-1007.8928C961.5209,-998.2081 971.4613,-988.216 980.1261,-979.506"/>
<polygon fill="#c0c0c0" stroke="#c0c0c0" stroke-width="2" points="982.8012,-981.7797 987.3726,-972.2218 977.8386,-976.8428 982.8012,-981.7797"/>
</g>
<!-- 22 -->
<g id="node23" class="node">
<title>22</title>
<path fill="none" stroke="#5682d8" stroke-width="2" d="M1084,-828C1084,-828 955,-828 955,-828 949,-828 943,-822 943,-816 943,-816 943,-804 943,-804 943,-798 949,-792 955,-792 955,-792 1084,-792 1084,-792 1090,-792 1096,-798 1096,-804 1096,-804 1096,-816 1096,-816 1096,-822 1090,-828 1084,-828"/>
<text text-anchor="middle" x="1019.5" y="-807.5" font-family="sans" font-size="10.00" fill="#000000">shard_saturated_reads_remove</text>
</g>
<!-- 10&#45;&gt;22 -->
<g id="edge45" class="edge">
<title>10&#45;&gt;22</title>
<path fill="none" stroke="#c0c0c0" stroke-width="2" d="M858.709,-1007.8817C839.8087,-986.7026 825.7221,-960.4642 838.5,-936 864.4272,-886.3605 919.8144,-852.3121 962.5332,-832.2435"/>
<polygon fill="#c0c0c0" stroke="#c0c0c0" stroke-width="2" points="964.0725,-835.3883 971.7155,-828.0511 961.1651,-829.0207 964.0725,-835.3883"/>
</g>
<!-- 11 -->
<g id="node12" class="node">
<title>11</title>
<path fill="none" stroke="#ced856" stroke-width="2" d="M785.5,-180C785.5,-180 745.5,-180 745.5,-180 739.5,-180 733.5,-174 733.5,-168 733.5,-168 733.5,-156 733.5,-156 733.5,-150 739.5,-144 745.5,-144 745.5,-144 785.5,-144 785.5,-144 791.5,-144 797.5,-150 797.5,-156 797.5,-156 797.5,-168 797.5,-168 797.5,-174 791.5,-180 785.5,-180"/>
<text text-anchor="middle" x="765.5" y="-159.5" font-family="sans" font-size="10.00" fill="#000000">align_stats</text>
</g>
<!-- 11&#45;&gt;1 -->
<g id="edge20" class="edge">
<title>11&#45;&gt;1</title>
<path fill="none" stroke="#c0c0c0" stroke-width="2" d="M780.6405,-143.8314C787.6217,-135.454 796.0391,-125.3531 803.6876,-116.1749"/>
<polygon fill="#c0c0c0" stroke="#c0c0c0" stroke-width="2" points="806.4425,-118.3362 810.1556,-108.4133 801.0649,-113.8548 806.4425,-118.3362"/>
</g>
<!-- 12 -->
<g id="node13" class="node">
<title>12</title>
<path fill="none" stroke="#d88556" stroke-width="2" d="M1042,-612C1042,-612 997,-612 997,-612 991,-612 985,-606 985,-600 985,-600 985,-588 985,-588 985,-582 991,-576 997,-576 997,-576 1042,-576 1042,-576 1048,-576 1054,-582 1054,-588 1054,-588 1054,-600 1054,-600 1054,-606 1048,-612 1042,-612"/>
<text text-anchor="middle" x="1019.5" y="-591.5" font-family="sans" font-size="10.00" fill="#000000">align_merge</text>
</g>
<!-- 12&#45;&gt;11 -->
<g id="edge29" class="edge">
<title>12&#45;&gt;11</title>
<path fill="none" stroke="#c0c0c0" stroke-width="2" d="M984.9725,-589.0361C919.8815,-577.5204 785.5,-542.54 785.5,-450 785.5,-450 785.5,-450 785.5,-306 785.5,-265.3124 777.5696,-218.7676 771.6963,-189.8757"/>
<polygon fill="#c0c0c0" stroke="#c0c0c0" stroke-width="2" points="775.1191,-189.144 769.644,-180.0735 768.2676,-190.5786 775.1191,-189.144"/>
</g>
<!-- 60 -->
<g id="node61" class="node">
<title>60</title>
<path fill="none" stroke="#d8b456" stroke-width="2" d="M1144.5,-540C1144.5,-540 1080.5,-540 1080.5,-540 1074.5,-540 1068.5,-534 1068.5,-528 1068.5,-528 1068.5,-516 1068.5,-516 1068.5,-510 1074.5,-504 1080.5,-504 1080.5,-504 1144.5,-504 1144.5,-504 1150.5,-504 1156.5,-510 1156.5,-516 1156.5,-516 1156.5,-528 1156.5,-528 1156.5,-534 1150.5,-540 1144.5,-540"/>
<text text-anchor="middle" x="1112.5" y="-519.5" font-family="sans" font-size="10.00" fill="#000000">align_sort_coord</text>
</g>
<!-- 12&#45;&gt;60 -->
<g id="edge99" class="edge">
<title>12&#45;&gt;60</title>
<path fill="none" stroke="#c0c0c0" stroke-width="2" d="M1042.9678,-575.8314C1054.5327,-566.8779 1068.6404,-555.9558 1081.1183,-546.2955"/>
<polygon fill="#c0c0c0" stroke="#c0c0c0" stroke-width="2" points="1083.275,-549.0521 1089.0397,-540.1628 1078.9898,-543.5171 1083.275,-549.0521"/>
</g>
<!-- 13 -->
<g id="node14" class="node">
<title>13</title>
<path fill="none" stroke="#566bd8" stroke-width="2" d="M925.5,-684C925.5,-684 857.5,-684 857.5,-684 851.5,-684 845.5,-678 845.5,-672 845.5,-672 845.5,-660 845.5,-660 845.5,-654 851.5,-648 857.5,-648 857.5,-648 925.5,-648 925.5,-648 931.5,-648 937.5,-654 937.5,-660 937.5,-660 937.5,-672 937.5,-672 937.5,-678 931.5,-684 925.5,-684"/>
<text text-anchor="middle" x="891.5" y="-663.5" font-family="sans" font-size="10.00" fill="#000000">shard_sort_query</text>
</g>
<!-- 13&#45;&gt;12 -->
<g id="edge30" class="edge">
<title>13&#45;&gt;12</title>
<path fill="none" stroke="#c0c0c0" stroke-width="2" d="M923.7998,-647.8314C940.3234,-638.5368 960.6186,-627.1208 978.2607,-617.1971"/>
<polygon fill="#c0c0c0" stroke="#c0c0c0" stroke-width="2" points="980.2107,-620.116 987.2105,-612.1628 976.7788,-614.015 980.2107,-620.116"/>
</g>
<!-- 14 -->
<g id="node15" class="node">
<title>14</title>
<path fill="none" stroke="#56d8c9" stroke-width="2" d="M913.5,-756C913.5,-756 833.5,-756 833.5,-756 827.5,-756 821.5,-750 821.5,-744 821.5,-744 821.5,-732 821.5,-732 821.5,-726 827.5,-720 833.5,-720 833.5,-720 913.5,-720 913.5,-720 919.5,-720 925.5,-726 925.5,-732 925.5,-732 925.5,-744 925.5,-744 925.5,-750 919.5,-756 913.5,-756"/>
<text text-anchor="middle" x="873.5" y="-735.5" font-family="sans" font-size="10.00" fill="#000000">shard_clean_header</text>
</g>
<!-- 14&#45;&gt;13 -->
<g id="edge33" class="edge">
<title>14&#45;&gt;13</title>
<path fill="none" stroke="#c0c0c0" stroke-width="2" d="M878.0422,-719.8314C879.9884,-712.0463 882.3068,-702.7729 884.4663,-694.1347"/>
<polygon fill="#c0c0c0" stroke="#c0c0c0" stroke-width="2" points="887.8668,-694.9636 886.8967,-684.4133 881.0758,-693.2658 887.8668,-694.9636"/>
</g>
<!-- 15&#45;&gt;14 -->
<g id="edge34" class="edge">
<title>15&#45;&gt;14</title>
<path fill="none" stroke="#c0c0c0" stroke-width="2" d="M854.8086,-791.8314C857.5117,-784.0463 860.7316,-774.7729 863.731,-766.1347"/>
<polygon fill="#c0c0c0" stroke="#c0c0c0" stroke-width="2" points="867.1327,-767.0081 867.1065,-756.4133 860.52,-764.7119 867.1327,-767.0081"/>
</g>
<!-- 16 -->
<g id="node17" class="node">
<title>16</title>
<path fill="none" stroke="#569ad8" stroke-width="2" d="M1074.5,-900C1074.5,-900 964.5,-900 964.5,-900 958.5,-900 952.5,-894 952.5,-888 952.5,-888 952.5,-876 952.5,-876 952.5,-870 958.5,-864 964.5,-864 964.5,-864 1074.5,-864 1074.5,-864 1080.5,-864 1086.5,-870 1086.5,-876 1086.5,-876 1086.5,-888 1086.5,-888 1086.5,-894 1080.5,-900 1074.5,-900"/>
<text text-anchor="middle" x="1019.5" y="-879.5" font-family="sans" font-size="10.00" fill="#000000">shard_saturated_reads_get</text>
</g>
<!-- 16&#45;&gt;15 -->
<g id="edge36" class="edge">
<title>16&#45;&gt;15</title>
<path fill="none" stroke="#c0c0c0" stroke-width="2" d="M976.3495,-863.8314C953.3776,-854.159 924.9491,-842.1891 900.7368,-831.9944"/>
<polygon fill="#c0c0c0" stroke="#c0c0c0" stroke-width="2" points="901.9148,-828.6929 891.3402,-828.038 899.1984,-835.1443 901.9148,-828.6929"/>
</g>
<!-- 16&#45;&gt;22 -->
<g id="edge46" class="edge">
<title>16&#45;&gt;22</title>
<path fill="none" stroke="#c0c0c0" stroke-width="2" d="M1019.5,-863.8314C1019.5,-856.131 1019.5,-846.9743 1019.5,-838.4166"/>
<polygon fill="#c0c0c0" stroke="#c0c0c0" stroke-width="2" points="1023.0001,-838.4132 1019.5,-828.4133 1016.0001,-838.4133 1023.0001,-838.4132"/>
</g>
<!-- 16&#45;&gt;25 -->
<g id="edge50" class="edge">
<title>16&#45;&gt;25</title>
<path fill="none" stroke="#c0c0c0" stroke-width="2" d="M1062.6505,-863.8314C1085.6224,-854.159 1114.0509,-842.1891 1138.2632,-831.9944"/>
<polygon fill="#c0c0c0" stroke="#c0c0c0" stroke-width="2" points="1139.8016,-835.1443 1147.6598,-828.038 1137.0852,-828.6929 1139.8016,-835.1443"/>
</g>
<!-- 74 -->
<g id="node75" class="node">
<title>74</title>
<path fill="none" stroke="#56b1d8" stroke-width="2" d="M1400,-540C1400,-540 1273,-540 1273,-540 1267,-540 1261,-534 1261,-528 1261,-528 1261,-516 1261,-516 1261,-510 1267,-504 1273,-504 1273,-504 1400,-504 1400,-504 1406,-504 1412,-510 1412,-516 1412,-516 1412,-528 1412,-528 1412,-534 1406,-540 1400,-540"/>
<text text-anchor="middle" x="1336.5" y="-519.5" font-family="sans" font-size="10.00" fill="#000000">shard_saturated_reads_extract</text>
</g>
<!-- 16&#45;&gt;74 -->
<g id="edge116" class="edge">
<title>16&#45;&gt;74</title>
<path fill="none" stroke="#c0c0c0" stroke-width="2" d="M1086.6556,-873.7784C1151.8958,-864.7512 1245.386,-848.74 1275.5,-828 1314.6912,-801.0084 1333.5,-785.5867 1333.5,-738 1333.5,-738 1333.5,-738 1333.5,-666 1333.5,-625.8673 1334.6792,-579.4566 1335.5589,-550.414"/>
<polygon fill="#c0c0c0" stroke="#c0c0c0" stroke-width="2" points="1339.0645,-550.2872 1335.8784,-540.1828 1332.0679,-550.0687 1339.0645,-550.2872"/>
</g>
<!-- 17&#45;&gt;16 -->
<g id="edge37" class="edge">
<title>17&#45;&gt;16</title>
<path fill="none" stroke="#c0c0c0" stroke-width="2" d="M1009.0328,-935.8314C1010.5301,-928.131 1012.3105,-918.9743 1013.9745,-910.4166"/>
<polygon fill="#c0c0c0" stroke="#c0c0c0" stroke-width="2" points="1017.4465,-910.8975 1015.9196,-900.4133 1010.5752,-909.5614 1017.4465,-910.8975"/>
</g>
<!-- 18&#45;&gt;16 -->
<g id="edge38" class="edge">
<title>18&#45;&gt;16</title>
<path fill="none" stroke="#c0c0c0" stroke-width="2" d="M926.0428,-935.8314C942.1791,-926.5368 961.9986,-915.1208 979.2272,-905.1971"/>
<polygon fill="#c0c0c0" stroke="#c0c0c0" stroke-width="2" points="981.0489,-908.187 987.9673,-900.1628 977.555,-902.1212 981.0489,-908.187"/>
</g>
<!-- 19&#45;&gt;16 -->
<g id="edge39" class="edge">
<title>19&#45;&gt;16</title>
<path fill="none" stroke="#c0c0c0" stroke-width="2" d="M1121.1815,-935.8314C1103.4641,-926.4516 1081.6655,-914.9112 1062.8016,-904.9244"/>
<polygon fill="#c0c0c0" stroke="#c0c0c0" stroke-width="2" points="1064.2831,-901.7485 1053.8076,-900.1628 1061.0078,-907.935 1064.2831,-901.7485"/>
</g>
<!-- 20 -->
<g id="node21" class="node">
<title>20</title>
<path fill="none" stroke="#566bd8" stroke-width="2" d="M1053.5,-684C1053.5,-684 985.5,-684 985.5,-684 979.5,-684 973.5,-678 973.5,-672 973.5,-672 973.5,-660 973.5,-660 973.5,-654 979.5,-648 985.5,-648 985.5,-648 1053.5,-648 1053.5,-648 1059.5,-648 1065.5,-654 1065.5,-660 1065.5,-660 1065.5,-672 1065.5,-672 1065.5,-678 1059.5,-684 1053.5,-684"/>
<text text-anchor="middle" x="1019.5" y="-663.5" font-family="sans" font-size="10.00" fill="#000000">shard_sort_query</text>
</g>
<!-- 20&#45;&gt;12 -->
<g id="edge31" class="edge">
<title>20&#45;&gt;12</title>
<path fill="none" stroke="#c0c0c0" stroke-width="2" d="M1019.5,-647.8314C1019.5,-640.131 1019.5,-630.9743 1019.5,-622.4166"/>
<polygon fill="#c0c0c0" stroke="#c0c0c0" stroke-width="2" points="1023.0001,-622.4132 1019.5,-612.4133 1016.0001,-622.4133 1023.0001,-622.4132"/>
</g>
<!-- 21 -->
<g id="node22" class="node">
<title>21</title>
<path fill="none" stroke="#56d8c9" stroke-width="2" d="M1059.5,-756C1059.5,-756 979.5,-756 979.5,-756 973.5,-756 967.5,-750 967.5,-744 967.5,-744 967.5,-732 967.5,-732 967.5,-726 973.5,-720 979.5,-720 979.5,-720 1059.5,-720 1059.5,-720 1065.5,-720 1071.5,-726 1071.5,-732 1071.5,-732 1071.5,-744 1071.5,-744 1071.5,-750 1065.5,-756 1059.5,-756"/>
<text text-anchor="middle" x="1019.5" y="-735.5" font-family="sans" font-size="10.00" fill="#000000">shard_clean_header</text>
</g>
<!-- 21&#45;&gt;20 -->
<g id="edge43" class="edge">
<title>21&#45;&gt;20</title>
<path fill="none" stroke="#c0c0c0" stroke-width="2" d="M1019.5,-719.8314C1019.5,-712.131 1019.5,-702.9743 1019.5,-694.4166"/>
<polygon fill="#c0c0c0" stroke="#c0c0c0" stroke-width="2" points="1023.0001,-694.4132 1019.5,-684.4133 1016.0001,-694.4133 1023.0001,-694.4132"/>
</g>
<!-- 22&#45;&gt;21 -->
<g id="edge44" class="edge">
<title>22&#45;&gt;21</title>
<path fill="none" stroke="#c0c0c0" stroke-width="2" d="M1019.5,-791.8314C1019.5,-784.131 1019.5,-774.9743 1019.5,-766.4166"/>
<polygon fill="#c0c0c0" stroke="#c0c0c0" stroke-width="2" points="1023.0001,-766.4132 1019.5,-756.4133 1016.0001,-766.4133 1023.0001,-766.4132"/>
</g>
<!-- 23 -->
<g id="node24" class="node">
<title>23</title>
<path fill="none" stroke="#566bd8" stroke-width="2" d="M1179.5,-684C1179.5,-684 1111.5,-684 1111.5,-684 1105.5,-684 1099.5,-678 1099.5,-672 1099.5,-672 1099.5,-660 1099.5,-660 1099.5,-654 1105.5,-648 1111.5,-648 1111.5,-648 1179.5,-648 1179.5,-648 1185.5,-648 1191.5,-654 1191.5,-660 1191.5,-660 1191.5,-672 1191.5,-672 1191.5,-678 1185.5,-684 1179.5,-684"/>
<text text-anchor="middle" x="1145.5" y="-663.5" font-family="sans" font-size="10.00" fill="#000000">shard_sort_query</text>
</g>
<!-- 23&#45;&gt;12 -->
<g id="edge32" class="edge">
<title>23&#45;&gt;12</title>
<path fill="none" stroke="#c0c0c0" stroke-width="2" d="M1113.7049,-647.8314C1097.4395,-638.5368 1077.4614,-627.1208 1060.0949,-617.1971"/>
<polygon fill="#c0c0c0" stroke="#c0c0c0" stroke-width="2" points="1061.7039,-614.0854 1051.2849,-612.1628 1058.2309,-620.1631 1061.7039,-614.0854"/>
</g>
<!-- 24 -->
<g id="node25" class="node">
<title>24</title>
<path fill="none" stroke="#56d8c9" stroke-width="2" d="M1215.5,-756C1215.5,-756 1135.5,-756 1135.5,-756 1129.5,-756 1123.5,-750 1123.5,-744 1123.5,-744 1123.5,-732 1123.5,-732 1123.5,-726 1129.5,-720 1135.5,-720 1135.5,-720 1215.5,-720 1215.5,-720 1221.5,-720 1227.5,-726 1227.5,-732 1227.5,-732 1227.5,-744 1227.5,-744 1227.5,-750 1221.5,-756 1215.5,-756"/>
<text text-anchor="middle" x="1175.5" y="-735.5" font-family="sans" font-size="10.00" fill="#000000">shard_clean_header</text>
</g>
<!-- 24&#45;&gt;23 -->
<g id="edge47" class="edge">
<title>24&#45;&gt;23</title>
<path fill="none" stroke="#c0c0c0" stroke-width="2" d="M1167.9297,-719.8314C1164.6507,-711.9617 1160.738,-702.5712 1157.1055,-693.8533"/>
<polygon fill="#c0c0c0" stroke="#c0c0c0" stroke-width="2" points="1160.2492,-692.2979 1153.1722,-684.4133 1153.7876,-694.9902 1160.2492,-692.2979"/>
</g>
<!-- 25&#45;&gt;24 -->
<g id="edge48" class="edge">
<title>25&#45;&gt;24</title>
<path fill="none" stroke="#c0c0c0" stroke-width="2" d="M1186.7149,-791.8314C1185.1106,-784.131 1183.203,-774.9743 1181.4201,-766.4166"/>
<polygon fill="#c0c0c0" stroke="#c0c0c0" stroke-width="2" points="1184.8021,-765.4892 1179.3361,-756.4133 1177.9493,-766.9169 1184.8021,-765.4892"/>
</g>
<!-- 26 -->
<g id="node27" class="node">
<title>26</title>
<path fill="none" stroke="#ced856" stroke-width="2" d="M541.5,-396C541.5,-396 501.5,-396 501.5,-396 495.5,-396 489.5,-390 489.5,-384 489.5,-384 489.5,-372 489.5,-372 489.5,-366 495.5,-360 501.5,-360 501.5,-360 541.5,-360 541.5,-360 547.5,-360 553.5,-366 553.5,-372 553.5,-372 553.5,-384 553.5,-384 553.5,-390 547.5,-396 541.5,-396"/>
<text text-anchor="middle" x="521.5" y="-375.5" font-family="sans" font-size="10.00" fill="#000000">align_stats</text>
</g>
<!-- 26&#45;&gt;1 -->
<g id="edge21" class="edge">
<title>26&#45;&gt;1</title>
<path fill="none" stroke="#c0c0c0" stroke-width="2" d="M523.3556,-359.9689C528.8098,-310.5294 546.3932,-174.4754 577.5,-144 592.5135,-129.2912 722.8999,-106.5126 788.3485,-95.8628"/>
<polygon fill="#c0c0c0" stroke="#c0c0c0" stroke-width="2" points="788.9535,-99.3106 798.2675,-94.2608 787.8373,-92.4001 788.9535,-99.3106"/>
</g>
<!-- 27 -->
<g id="node28" class="node">
<title>27</title>
<path fill="none" stroke="#d88556" stroke-width="2" d="M395,-612C395,-612 350,-612 350,-612 344,-612 338,-606 338,-600 338,-600 338,-588 338,-588 338,-582 344,-576 350,-576 350,-576 395,-576 395,-576 401,-576 407,-582 407,-588 407,-588 407,-600 407,-600 407,-606 401,-612 395,-612"/>
<text text-anchor="middle" x="372.5" y="-591.5" font-family="sans" font-size="10.00" fill="#000000">align_merge</text>
</g>
<!-- 27&#45;&gt;26 -->
<g id="edge51" class="edge">
<title>27&#45;&gt;26</title>
<path fill="none" stroke="#c0c0c0" stroke-width="2" d="M392.5769,-575.7904C403.0314,-565.7748 415.6511,-552.8086 425.5,-540 459.5079,-495.7722 490.8357,-438.521 507.9442,-405.2636"/>
<polygon fill="#c0c0c0" stroke="#c0c0c0" stroke-width="2" points="511.1652,-406.6512 512.5839,-396.1518 504.9273,-403.4749 511.1652,-406.6512"/>
</g>
<!-- 65 -->
<g id="node66" class="node">
<title>65</title>
<path fill="none" stroke="#d8b456" stroke-width="2" d="M404.5,-540C404.5,-540 340.5,-540 340.5,-540 334.5,-540 328.5,-534 328.5,-528 328.5,-528 328.5,-516 328.5,-516 328.5,-510 334.5,-504 340.5,-504 340.5,-504 404.5,-504 404.5,-504 410.5,-504 416.5,-510 416.5,-516 416.5,-516 416.5,-528 416.5,-528 416.5,-534 410.5,-540 404.5,-540"/>
<text text-anchor="middle" x="372.5" y="-519.5" font-family="sans" font-size="10.00" fill="#000000">align_sort_coord</text>
</g>
<!-- 27&#45;&gt;65 -->
<g id="edge104" class="edge">
<title>27&#45;&gt;65</title>
<path fill="none" stroke="#c0c0c0" stroke-width="2" d="M372.5,-575.8314C372.5,-568.131 372.5,-558.9743 372.5,-550.4166"/>
<polygon fill="#c0c0c0" stroke="#c0c0c0" stroke-width="2" points="376.0001,-550.4132 372.5,-540.4133 369.0001,-550.4133 376.0001,-550.4132"/>
</g>
<!-- 28 -->
<g id="node29" class="node">
<title>28</title>
<path fill="none" stroke="#566bd8" stroke-width="2" d="M498.5,-684C498.5,-684 430.5,-684 430.5,-684 424.5,-684 418.5,-678 418.5,-672 418.5,-672 418.5,-660 418.5,-660 418.5,-654 424.5,-648 430.5,-648 430.5,-648 498.5,-648 498.5,-648 504.5,-648 510.5,-654 510.5,-660 510.5,-660 510.5,-672 510.5,-672 510.5,-678 504.5,-684 498.5,-684"/>
<text text-anchor="middle" x="464.5" y="-663.5" font-family="sans" font-size="10.00" fill="#000000">shard_sort_query</text>
</g>
<!-- 28&#45;&gt;27 -->
<g id="edge52" class="edge">
<title>28&#45;&gt;27</title>
<path fill="none" stroke="#c0c0c0" stroke-width="2" d="M441.2845,-647.8314C429.953,-638.9632 416.1536,-628.1637 403.8973,-618.5718"/>
<polygon fill="#c0c0c0" stroke="#c0c0c0" stroke-width="2" points="405.7402,-615.5697 395.7081,-612.1628 401.426,-621.0822 405.7402,-615.5697"/>
</g>
<!-- 29 -->
<g id="node30" class="node">
<title>29</title>
<path fill="none" stroke="#56d8c9" stroke-width="2" d="M513.5,-756C513.5,-756 433.5,-756 433.5,-756 427.5,-756 421.5,-750 421.5,-744 421.5,-744 421.5,-732 421.5,-732 421.5,-726 427.5,-720 433.5,-720 433.5,-720 513.5,-720 513.5,-720 519.5,-720 525.5,-726 525.5,-732 525.5,-732 525.5,-744 525.5,-744 525.5,-750 519.5,-756 513.5,-756"/>
<text text-anchor="middle" x="473.5" y="-735.5" font-family="sans" font-size="10.00" fill="#000000">shard_clean_header</text>
</g>
<!-- 29&#45;&gt;28 -->
<g id="edge55" class="edge">
<title>29&#45;&gt;28</title>
<path fill="none" stroke="#c0c0c0" stroke-width="2" d="M471.2289,-719.8314C470.2664,-712.131 469.1218,-702.9743 468.0521,-694.4166"/>
<polygon fill="#c0c0c0" stroke="#c0c0c0" stroke-width="2" points="471.5151,-693.9019 466.8017,-684.4133 464.5691,-694.7702 471.5151,-693.9019"/>
</g>
<!-- 30&#45;&gt;29 -->
<g id="edge56" class="edge">
<title>30&#45;&gt;29</title>
<path fill="none" stroke="#c0c0c0" stroke-width="2" d="M483.2196,-791.8314C481.8292,-784.131 480.1759,-774.9743 478.6308,-766.4166"/>
<polygon fill="#c0c0c0" stroke="#c0c0c0" stroke-width="2" points="482.0458,-765.6322 476.8246,-756.4133 475.1572,-766.8761 482.0458,-765.6322"/>
</g>
<!-- 31 -->
<g id="node32" class="node">
<title>31</title>
<path fill="none" stroke="#569ad8" stroke-width="2" d="M344.5,-900C344.5,-900 234.5,-900 234.5,-900 228.5,-900 222.5,-894 222.5,-888 222.5,-888 222.5,-876 222.5,-876 222.5,-870 228.5,-864 234.5,-864 234.5,-864 344.5,-864 344.5,-864 350.5,-864 356.5,-870 356.5,-876 356.5,-876 356.5,-888 356.5,-888 356.5,-894 350.5,-900 344.5,-900"/>
<text text-anchor="middle" x="289.5" y="-879.5" font-family="sans" font-size="10.00" fill="#000000">shard_saturated_reads_get</text>
</g>
<!-- 31&#45;&gt;30 -->
<g id="edge58" class="edge">
<title>31&#45;&gt;30</title>
<path fill="none" stroke="#c0c0c0" stroke-width="2" d="M338.9571,-863.9243C365.7711,-854.1243 399.0949,-841.945 427.2847,-831.6422"/>
<polygon fill="#c0c0c0" stroke="#c0c0c0" stroke-width="2" points="428.8316,-834.8033 437.0225,-828.0831 426.4287,-828.2286 428.8316,-834.8033"/>
</g>
<!-- 31&#45;&gt;37 -->
<g id="edge68" class="edge">
<title>31&#45;&gt;37</title>
<path fill="none" stroke="#c0c0c0" stroke-width="2" d="M252.9104,-863.8314C233.7761,-854.3302 210.1771,-842.6121 189.8878,-832.5374"/>
<polygon fill="#c0c0c0" stroke="#c0c0c0" stroke-width="2" points="191.3397,-829.3506 180.8265,-828.038 188.2265,-835.6203 191.3397,-829.3506"/>
</g>
<!-- 31&#45;&gt;40 -->
<g id="edge72" class="edge">
<title>31&#45;&gt;40</title>
<path fill="none" stroke="#c0c0c0" stroke-width="2" d="M296.0609,-863.8314C298.9027,-855.9617 302.2937,-846.5712 305.4419,-837.8533"/>
<polygon fill="#c0c0c0" stroke="#c0c0c0" stroke-width="2" points="308.7462,-839.0076 308.8508,-828.4133 302.1623,-836.63 308.7462,-839.0076"/>
</g>
<!-- 75 -->
<g id="node76" class="node">
<title>75</title>
<path fill="none" stroke="#56b1d8" stroke-width="2" d="M139,-612C139,-612 12,-612 12,-612 6,-612 0,-606 0,-600 0,-600 0,-588 0,-588 0,-582 6,-576 12,-576 12,-576 139,-576 139,-576 145,-576 151,-582 151,-588 151,-588 151,-600 151,-600 151,-606 145,-612 139,-612"/>
<text text-anchor="middle" x="75.5" y="-591.5" font-family="sans" font-size="10.00" fill="#000000">shard_saturated_reads_extract</text>
</g>
<!-- 31&#45;&gt;75 -->
<g id="edge117" class="edge">
<title>31&#45;&gt;75</title>
<path fill="none" stroke="#c0c0c0" stroke-width="2" d="M222.4625,-875.4898C161.7098,-868.0401 78.6874,-853.4508 58.5,-828 10.7643,-767.8183 42.5844,-669.3183 62.6534,-621.6145"/>
<polygon fill="#c0c0c0" stroke="#c0c0c0" stroke-width="2" points="65.9522,-622.8047 66.7247,-612.2381 59.5314,-620.0167 65.9522,-622.8047"/>
</g>
<!-- 32&#45;&gt;31 -->
<g id="edge59" class="edge">
<title>32&#45;&gt;31</title>
<path fill="none" stroke="#c0c0c0" stroke-width="2" d="M221.4631,-935.8314C232.6715,-926.9632 246.3209,-916.1637 258.4439,-906.5718"/>
<polygon fill="#c0c0c0" stroke="#c0c0c0" stroke-width="2" points="260.8737,-909.1125 266.5442,-900.1628 256.5303,-903.6229 260.8737,-909.1125"/>
</g>
<!-- 33&#45;&gt;31 -->
<g id="edge60" class="edge">
<title>33&#45;&gt;31</title>
<path fill="none" stroke="#c0c0c0" stroke-width="2" d="M416.6018,-935.8314C393.7643,-926.159 365.502,-914.1891 341.4313,-903.9944"/>
<polygon fill="#c0c0c0" stroke="#c0c0c0" stroke-width="2" points="342.6629,-900.7151 332.0897,-900.038 339.9329,-907.1608 342.6629,-900.7151"/>
</g>
<!-- 34&#45;&gt;31 -->
<g id="edge61" class="edge">
<title>34&#45;&gt;31</title>
<path fill="none" stroke="#c0c0c0" stroke-width="2" d="M304.4532,-935.8314C302.2906,-928.0463 299.7147,-918.7729 297.3152,-910.1347"/>
<polygon fill="#c0c0c0" stroke="#c0c0c0" stroke-width="2" points="300.6636,-909.1117 294.6148,-900.4133 293.919,-910.9852 300.6636,-909.1117"/>
</g>
<!-- 35 -->
<g id="node36" class="node">
<title>35</title>
<path fill="none" stroke="#566bd8" stroke-width="2" d="M251.5,-684C251.5,-684 183.5,-684 183.5,-684 177.5,-684 171.5,-678 171.5,-672 171.5,-672 171.5,-660 171.5,-660 171.5,-654 177.5,-648 183.5,-648 183.5,-648 251.5,-648 251.5,-648 257.5,-648 263.5,-654 263.5,-660 263.5,-660 263.5,-672 263.5,-672 263.5,-678 257.5,-684 251.5,-684"/>
<text text-anchor="middle" x="217.5" y="-663.5" font-family="sans" font-size="10.00" fill="#000000">shard_sort_query</text>
</g>
<!-- 35&#45;&gt;27 -->
<g id="edge53" class="edge">
<title>35&#45;&gt;27</title>
<path fill="none" stroke="#c0c0c0" stroke-width="2" d="M256.613,-647.8314C278.6045,-637.616 306.1131,-624.8378 328.8096,-614.2949"/>
<polygon fill="#c0c0c0" stroke="#c0c0c0" stroke-width="2" points="330.295,-617.4641 337.8898,-610.077 327.346,-611.1156 330.295,-617.4641"/>
</g>
<!-- 36 -->
<g id="node37" class="node">
<title>36</title>
<path fill="none" stroke="#56d8c9" stroke-width="2" d="M224.5,-756C224.5,-756 144.5,-756 144.5,-756 138.5,-756 132.5,-750 132.5,-744 132.5,-744 132.5,-732 132.5,-732 132.5,-726 138.5,-720 144.5,-720 144.5,-720 224.5,-720 224.5,-720 230.5,-720 236.5,-726 236.5,-732 236.5,-732 236.5,-744 236.5,-744 236.5,-750 230.5,-756 224.5,-756"/>
<text text-anchor="middle" x="184.5" y="-735.5" font-family="sans" font-size="10.00" fill="#000000">shard_clean_header</text>
</g>
<!-- 36&#45;&gt;35 -->
<g id="edge65" class="edge">
<title>36&#45;&gt;35</title>
<path fill="none" stroke="#c0c0c0" stroke-width="2" d="M192.8273,-719.8314C196.473,-711.8771 200.8309,-702.369 204.8627,-693.5723"/>
<polygon fill="#c0c0c0" stroke="#c0c0c0" stroke-width="2" points="208.0757,-694.9622 209.0606,-684.4133 201.7123,-692.0456 208.0757,-694.9622"/>
</g>
<!-- 37&#45;&gt;36 -->
<g id="edge66" class="edge">
<title>37&#45;&gt;36</title>
<path fill="none" stroke="#c0c0c0" stroke-width="2" d="M154.5937,-791.8314C159.0597,-783.7925 164.4075,-774.1666 169.3379,-765.2918"/>
<polygon fill="#c0c0c0" stroke="#c0c0c0" stroke-width="2" points="172.4735,-766.8546 174.2704,-756.4133 166.3544,-763.4551 172.4735,-766.8546"/>
</g>
<!-- 38 -->
<g id="node39" class="node">
<title>38</title>
<path fill="none" stroke="#566bd8" stroke-width="2" d="M370.5,-684C370.5,-684 302.5,-684 302.5,-684 296.5,-684 290.5,-678 290.5,-672 290.5,-672 290.5,-660 290.5,-660 290.5,-654 296.5,-648 302.5,-648 302.5,-648 370.5,-648 370.5,-648 376.5,-648 382.5,-654 382.5,-660 382.5,-660 382.5,-672 382.5,-672 382.5,-678 376.5,-684 370.5,-684"/>
<text text-anchor="middle" x="336.5" y="-663.5" font-family="sans" font-size="10.00" fill="#000000">shard_sort_query</text>
</g>
<!-- 38&#45;&gt;27 -->
<g id="edge54" class="edge">
<title>38&#45;&gt;27</title>
<path fill="none" stroke="#c0c0c0" stroke-width="2" d="M345.5843,-647.8314C349.5615,-639.8771 354.3155,-630.369 358.7139,-621.5723"/>
<polygon fill="#c0c0c0" stroke="#c0c0c0" stroke-width="2" points="361.9517,-622.9228 363.2934,-612.4133 355.6907,-619.7923 361.9517,-622.9228"/>
</g>
<!-- 39 -->
<g id="node40" class="node">
<title>39</title>
<path fill="none" stroke="#56d8c9" stroke-width="2" d="M367.5,-756C367.5,-756 287.5,-756 287.5,-756 281.5,-756 275.5,-750 275.5,-744 275.5,-744 275.5,-732 275.5,-732 275.5,-726 281.5,-720 287.5,-720 287.5,-720 367.5,-720 367.5,-720 373.5,-720 379.5,-726 379.5,-732 379.5,-732 379.5,-744 379.5,-744 379.5,-750 373.5,-756 367.5,-756"/>
<text text-anchor="middle" x="327.5" y="-735.5" font-family="sans" font-size="10.00" fill="#000000">shard_clean_header</text>
</g>
<!-- 39&#45;&gt;38 -->
<g id="edge69" class="edge">
<title>39&#45;&gt;38</title>
<path fill="none" stroke="#c0c0c0" stroke-width="2" d="M329.7711,-719.8314C330.7336,-712.131 331.8782,-702.9743 332.9479,-694.4166"/>
<polygon fill="#c0c0c0" stroke="#c0c0c0" stroke-width="2" points="336.4309,-694.7702 334.1983,-684.4133 329.4849,-693.9019 336.4309,-694.7702"/>
</g>
<!-- 40&#45;&gt;39 -->
<g id="edge70" class="edge">
<title>40&#45;&gt;39</title>
<path fill="none" stroke="#c0c0c0" stroke-width="2" d="M318.5281,-791.8314C319.8115,-784.131 321.3376,-774.9743 322.7639,-766.4166"/>
<polygon fill="#c0c0c0" stroke="#c0c0c0" stroke-width="2" points="326.2394,-766.8526 324.4311,-756.4133 319.3347,-765.7018 326.2394,-766.8526"/>
</g>
<!-- 41 -->
<g id="node42" class="node">
<title>41</title>
<path fill="none" stroke="#ced856" stroke-width="2" d="M1366.5,-468C1366.5,-468 1326.5,-468 1326.5,-468 1320.5,-468 1314.5,-462 1314.5,-456 1314.5,-456 1314.5,-444 1314.5,-444 1314.5,-438 1320.5,-432 1326.5,-432 1326.5,-432 1366.5,-432 1366.5,-432 1372.5,-432 1378.5,-438 1378.5,-444 1378.5,-444 1378.5,-456 1378.5,-456 1378.5,-462 1372.5,-468 1366.5,-468"/>
<text text-anchor="middle" x="1346.5" y="-447.5" font-family="sans" font-size="10.00" fill="#000000">align_stats</text>
</g>
<!-- 41&#45;&gt;1 -->
<g id="edge22" class="edge">
<title>41&#45;&gt;1</title>
<path fill="none" stroke="#c0c0c0" stroke-width="2" d="M1333.951,-431.7404C1310.735,-397.4954 1260.2814,-320.8616 1225.5,-252 1202.1324,-205.7358 1222.215,-176.0734 1181.5,-144 1132.5654,-105.4516 944.0535,-94.1955 862.9516,-91.1005"/>
<polygon fill="#c0c0c0" stroke="#c0c0c0" stroke-width="2" points="862.8191,-87.5935 852.6996,-90.7312 862.5671,-94.589 862.8191,-87.5935"/>
</g>
<!-- 42 -->
<g id="node43" class="node">
<title>42</title>
<path fill="none" stroke="#d88556" stroke-width="2" d="M1648,-612C1648,-612 1603,-612 1603,-612 1597,-612 1591,-606 1591,-600 1591,-600 1591,-588 1591,-588 1591,-582 1597,-576 1603,-576 1603,-576 1648,-576 1648,-576 1654,-576 1660,-582 1660,-588 1660,-588 1660,-600 1660,-600 1660,-606 1654,-612 1648,-612"/>
<text text-anchor="middle" x="1625.5" y="-591.5" font-family="sans" font-size="10.00" fill="#000000">align_merge</text>
</g>
<!-- 42&#45;&gt;41 -->
<g id="edge73" class="edge">
<title>42&#45;&gt;41</title>
<path fill="none" stroke="#c0c0c0" stroke-width="2" d="M1590.7286,-576.0535C1539.222,-549.4694 1442.8269,-499.7171 1387.7987,-471.3155"/>
<polygon fill="#c0c0c0" stroke="#c0c0c0" stroke-width="2" points="1389.1719,-468.0856 1378.6804,-466.6092 1385.9614,-474.3059 1389.1719,-468.0856"/>
</g>
<!-- 70 -->
<g id="node71" class="node">
<title>70</title>
<path fill="none" stroke="#d8b456" stroke-width="2" d="M1657.5,-540C1657.5,-540 1593.5,-540 1593.5,-540 1587.5,-540 1581.5,-534 1581.5,-528 1581.5,-528 1581.5,-516 1581.5,-516 1581.5,-510 1587.5,-504 1593.5,-504 1593.5,-504 1657.5,-504 1657.5,-504 1663.5,-504 1669.5,-510 1669.5,-516 1669.5,-516 1669.5,-528 1669.5,-528 1669.5,-534 1663.5,-540 1657.5,-540"/>
<text text-anchor="middle" x="1625.5" y="-519.5" font-family="sans" font-size="10.00" fill="#000000">align_sort_coord</text>
</g>
<!-- 42&#45;&gt;70 -->
<g id="edge109" class="edge">
<title>42&#45;&gt;70</title>
<path fill="none" stroke="#c0c0c0" stroke-width="2" d="M1625.5,-575.8314C1625.5,-568.131 1625.5,-558.9743 1625.5,-550.4166"/>
<polygon fill="#c0c0c0" stroke="#c0c0c0" stroke-width="2" points="1629.0001,-550.4132 1625.5,-540.4133 1622.0001,-550.4133 1629.0001,-550.4132"/>
</g>
<!-- 43 -->
<g id="node44" class="node">
<title>43</title>
<path fill="none" stroke="#566bd8" stroke-width="2" d="M1535.5,-684C1535.5,-684 1467.5,-684 1467.5,-684 1461.5,-684 1455.5,-678 1455.5,-672 1455.5,-672 1455.5,-660 1455.5,-660 1455.5,-654 1461.5,-648 1467.5,-648 1467.5,-648 1535.5,-648 1535.5,-648 1541.5,-648 1547.5,-654 1547.5,-660 1547.5,-660 1547.5,-672 1547.5,-672 1547.5,-678 1541.5,-684 1535.5,-684"/>
<text text-anchor="middle" x="1501.5" y="-663.5" font-family="sans" font-size="10.00" fill="#000000">shard_sort_query</text>
</g>
<!-- 43&#45;&gt;42 -->
<g id="edge74" class="edge">
<title>43&#45;&gt;42</title>
<path fill="none" stroke="#c0c0c0" stroke-width="2" d="M1532.7904,-647.8314C1548.7977,-638.5368 1568.4586,-627.1208 1585.5494,-617.1971"/>
<polygon fill="#c0c0c0" stroke="#c0c0c0" stroke-width="2" points="1587.3292,-620.211 1594.2196,-612.1628 1583.8142,-614.1575 1587.3292,-620.211"/>
</g>
<!-- 44 -->
<g id="node45" class="node">
<title>44</title>
<path fill="none" stroke="#56d8c9" stroke-width="2" d="M1529.5,-756C1529.5,-756 1449.5,-756 1449.5,-756 1443.5,-756 1437.5,-750 1437.5,-744 1437.5,-744 1437.5,-732 1437.5,-732 1437.5,-726 1443.5,-720 1449.5,-720 1449.5,-720 1529.5,-720 1529.5,-720 1535.5,-720 1541.5,-726 1541.5,-732 1541.5,-732 1541.5,-744 1541.5,-744 1541.5,-750 1535.5,-756 1529.5,-756"/>
<text text-anchor="middle" x="1489.5" y="-735.5" font-family="sans" font-size="10.00" fill="#000000">shard_clean_header</text>
</g>
<!-- 44&#45;&gt;43 -->
<g id="edge77" class="edge">
<title>44&#45;&gt;43</title>
<path fill="none" stroke="#c0c0c0" stroke-width="2" d="M1492.5281,-719.8314C1493.8115,-712.131 1495.3376,-702.9743 1496.7639,-694.4166"/>
<polygon fill="#c0c0c0" stroke="#c0c0c0" stroke-width="2" points="1500.2394,-694.8526 1498.4311,-684.4133 1493.3347,-693.7018 1500.2394,-694.8526"/>
</g>
<!-- 45&#45;&gt;44 -->
<g id="edge78" class="edge">
<title>45&#45;&gt;44</title>
<path fill="none" stroke="#c0c0c0" stroke-width="2" d="M1479.7804,-791.8314C1481.1708,-784.131 1482.8241,-774.9743 1484.3692,-766.4166"/>
<polygon fill="#c0c0c0" stroke="#c0c0c0" stroke-width="2" points="1487.8428,-766.8761 1486.1754,-756.4133 1480.9542,-765.6322 1487.8428,-766.8761"/>
</g>
<!-- 46 -->
<g id="node47" class="node">
<title>46</title>
<path fill="none" stroke="#569ad8" stroke-width="2" d="M1728.5,-900C1728.5,-900 1618.5,-900 1618.5,-900 1612.5,-900 1606.5,-894 1606.5,-888 1606.5,-888 1606.5,-876 1606.5,-876 1606.5,-870 1612.5,-864 1618.5,-864 1618.5,-864 1728.5,-864 1728.5,-864 1734.5,-864 1740.5,-870 1740.5,-876 1740.5,-876 1740.5,-888 1740.5,-888 1740.5,-894 1734.5,-900 1728.5,-900"/>
<text text-anchor="middle" x="1673.5" y="-879.5" font-family="sans" font-size="10.00" fill="#000000">shard_saturated_reads_get</text>
</g>
<!-- 46&#45;&gt;45 -->
<g id="edge80" class="edge">
<title>46&#45;&gt;45</title>
<path fill="none" stroke="#c0c0c0" stroke-width="2" d="M1624.0429,-863.9243C1597.2289,-854.1243 1563.9051,-841.945 1535.7153,-831.6422"/>
<polygon fill="#c0c0c0" stroke="#c0c0c0" stroke-width="2" points="1536.5713,-828.2286 1525.9775,-828.0831 1534.1684,-834.8033 1536.5713,-828.2286"/>
</g>
<!-- 46&#45;&gt;52 -->
<g id="edge90" class="edge">
<title>46&#45;&gt;52</title>
<path fill="none" stroke="#c0c0c0" stroke-width="2" d="M1666.9391,-863.8314C1664.0973,-855.9617 1660.7063,-846.5712 1657.5581,-837.8533"/>
<polygon fill="#c0c0c0" stroke="#c0c0c0" stroke-width="2" points="1660.8377,-836.63 1654.1492,-828.4133 1654.2538,-839.0076 1660.8377,-836.63"/>
</g>
<!-- 46&#45;&gt;55 -->
<g id="edge94" class="edge">
<title>46&#45;&gt;55</title>
<path fill="none" stroke="#c0c0c0" stroke-width="2" d="M1710.0896,-863.8314C1729.2239,-854.3302 1752.8229,-842.6121 1773.1122,-832.5374"/>
<polygon fill="#c0c0c0" stroke="#c0c0c0" stroke-width="2" points="1774.7735,-835.6203 1782.1735,-828.038 1771.6603,-829.3506 1774.7735,-835.6203"/>
</g>
<!-- 76 -->
<g id="node77" class="node">
<title>76</title>
<path fill="none" stroke="#56b1d8" stroke-width="2" d="M1836,-108C1836,-108 1709,-108 1709,-108 1703,-108 1697,-102 1697,-96 1697,-96 1697,-84 1697,-84 1697,-78 1703,-72 1709,-72 1709,-72 1836,-72 1836,-72 1842,-72 1848,-78 1848,-84 1848,-84 1848,-96 1848,-96 1848,-102 1842,-108 1836,-108"/>
<text text-anchor="middle" x="1772.5" y="-87.5" font-family="sans" font-size="10.00" fill="#000000">shard_saturated_reads_extract</text>
</g>
<!-- 46&#45;&gt;76 -->
<g id="edge118" class="edge">
<title>46&#45;&gt;76</title>
<path fill="none" stroke="#c0c0c0" stroke-width="2" d="M1740.5603,-874.3464C1800.3881,-866.1336 1881.923,-851.0697 1904.5,-828 1933.094,-798.782 1923.5,-778.8816 1923.5,-738 1923.5,-738 1923.5,-738 1923.5,-234 1923.5,-177.5218 1867.4925,-136.4256 1823.6974,-112.9239"/>
<polygon fill="#c0c0c0" stroke="#c0c0c0" stroke-width="2" points="1825.0493,-109.682 1814.5619,-108.1767 1821.8215,-115.8935 1825.0493,-109.682"/>
</g>
<!-- 47&#45;&gt;46 -->
<g id="edge81" class="edge">
<title>47&#45;&gt;46</title>
<path fill="none" stroke="#c0c0c0" stroke-width="2" d="M1673.5,-935.8314C1673.5,-928.131 1673.5,-918.9743 1673.5,-910.4166"/>
<polygon fill="#c0c0c0" stroke="#c0c0c0" stroke-width="2" points="1677.0001,-910.4132 1673.5,-900.4133 1670.0001,-910.4133 1677.0001,-910.4132"/>
</g>
<!-- 48&#45;&gt;46 -->
<g id="edge82" class="edge">
<title>48&#45;&gt;46</title>
<path fill="none" stroke="#c0c0c0" stroke-width="2" d="M1590.51,-935.8314C1604.5761,-926.7074 1621.794,-915.539 1636.8933,-905.7449"/>
<polygon fill="#c0c0c0" stroke="#c0c0c0" stroke-width="2" points="1639.014,-908.5412 1645.499,-900.1628 1635.2047,-902.6684 1639.014,-908.5412"/>
</g>
<!-- 49&#45;&gt;46 -->
<g id="edge83" class="edge">
<title>49&#45;&gt;46</title>
<path fill="none" stroke="#c0c0c0" stroke-width="2" d="M1756.49,-935.8314C1742.4239,-926.7074 1725.206,-915.539 1710.1067,-905.7449"/>
<polygon fill="#c0c0c0" stroke="#c0c0c0" stroke-width="2" points="1711.7953,-902.6684 1701.501,-900.1628 1707.986,-908.5412 1711.7953,-902.6684"/>
</g>
<!-- 50 -->
<g id="node51" class="node">
<title>50</title>
<path fill="none" stroke="#566bd8" stroke-width="2" d="M1663.5,-684C1663.5,-684 1595.5,-684 1595.5,-684 1589.5,-684 1583.5,-678 1583.5,-672 1583.5,-672 1583.5,-660 1583.5,-660 1583.5,-654 1589.5,-648 1595.5,-648 1595.5,-648 1663.5,-648 1663.5,-648 1669.5,-648 1675.5,-654 1675.5,-660 1675.5,-660 1675.5,-672 1675.5,-672 1675.5,-678 1669.5,-684 1663.5,-684"/>
<text text-anchor="middle" x="1629.5" y="-663.5" font-family="sans" font-size="10.00" fill="#000000">shard_sort_query</text>
</g>
<!-- 50&#45;&gt;42 -->
<g id="edge75" class="edge">
<title>50&#45;&gt;42</title>
<path fill="none" stroke="#c0c0c0" stroke-width="2" d="M1628.4906,-647.8314C1628.0628,-640.131 1627.5541,-630.9743 1627.0787,-622.4166"/>
<polygon fill="#c0c0c0" stroke="#c0c0c0" stroke-width="2" points="1630.5724,-622.2037 1626.523,-612.4133 1623.5831,-622.592 1630.5724,-622.2037"/>
</g>
<!-- 51 -->
<g id="node52" class="node">
<title>51</title>
<path fill="none" stroke="#56d8c9" stroke-width="2" d="M1675.5,-756C1675.5,-756 1595.5,-756 1595.5,-756 1589.5,-756 1583.5,-750 1583.5,-744 1583.5,-744 1583.5,-732 1583.5,-732 1583.5,-726 1589.5,-720 1595.5,-720 1595.5,-720 1675.5,-720 1675.5,-720 1681.5,-720 1687.5,-726 1687.5,-732 1687.5,-732 1687.5,-744 1687.5,-744 1687.5,-750 1681.5,-756 1675.5,-756"/>
<text text-anchor="middle" x="1635.5" y="-735.5" font-family="sans" font-size="10.00" fill="#000000">shard_clean_header</text>
</g>
<!-- 51&#45;&gt;50 -->
<g id="edge87" class="edge">
<title>51&#45;&gt;50</title>
<path fill="none" stroke="#c0c0c0" stroke-width="2" d="M1633.9859,-719.8314C1633.3442,-712.131 1632.5812,-702.9743 1631.8681,-694.4166"/>
<polygon fill="#c0c0c0" stroke="#c0c0c0" stroke-width="2" points="1635.3529,-694.088 1631.0344,-684.4133 1628.3771,-694.6694 1635.3529,-694.088"/>
</g>
<!-- 52&#45;&gt;51 -->
<g id="edge88" class="edge">
<title>52&#45;&gt;51</title>
<path fill="none" stroke="#c0c0c0" stroke-width="2" d="M1644.4719,-791.8314C1643.1885,-784.131 1641.6624,-774.9743 1640.2361,-766.4166"/>
<polygon fill="#c0c0c0" stroke="#c0c0c0" stroke-width="2" points="1643.6653,-765.7018 1638.5689,-756.4133 1636.7606,-766.8526 1643.6653,-765.7018"/>
</g>
<!-- 53 -->
<g id="node54" class="node">
<title>53</title>
<path fill="none" stroke="#566bd8" stroke-width="2" d="M1818.5,-684C1818.5,-684 1750.5,-684 1750.5,-684 1744.5,-684 1738.5,-678 1738.5,-672 1738.5,-672 1738.5,-660 1738.5,-660 1738.5,-654 1744.5,-648 1750.5,-648 1750.5,-648 1818.5,-648 1818.5,-648 1824.5,-648 1830.5,-654 1830.5,-660 1830.5,-660 1830.5,-672 1830.5,-672 1830.5,-678 1824.5,-684 1818.5,-684"/>
<text text-anchor="middle" x="1784.5" y="-663.5" font-family="sans" font-size="10.00" fill="#000000">shard_sort_query</text>
</g>
<!-- 53&#45;&gt;42 -->
<g id="edge76" class="edge">
<title>53&#45;&gt;42</title>
<path fill="none" stroke="#c0c0c0" stroke-width="2" d="M1744.3776,-647.8314C1721.576,-637.5061 1692.9926,-624.5627 1669.5686,-613.9556"/>
<polygon fill="#c0c0c0" stroke="#c0c0c0" stroke-width="2" points="1670.7624,-610.6541 1660.209,-609.7173 1667.8748,-617.0308 1670.7624,-610.6541"/>
</g>
<!-- 54 -->
<g id="node55" class="node">
<title>54</title>
<path fill="none" stroke="#56d8c9" stroke-width="2" d="M1855.5,-756C1855.5,-756 1775.5,-756 1775.5,-756 1769.5,-756 1763.5,-750 1763.5,-744 1763.5,-744 1763.5,-732 1763.5,-732 1763.5,-726 1769.5,-720 1775.5,-720 1775.5,-720 1855.5,-720 1855.5,-720 1861.5,-720 1867.5,-726 1867.5,-732 1867.5,-732 1867.5,-744 1867.5,-744 1867.5,-750 1861.5,-756 1855.5,-756"/>
<text text-anchor="middle" x="1815.5" y="-735.5" font-family="sans" font-size="10.00" fill="#000000">shard_clean_header</text>
</g>
<!-- 54&#45;&gt;53 -->
<g id="edge91" class="edge">
<title>54&#45;&gt;53</title>
<path fill="none" stroke="#c0c0c0" stroke-width="2" d="M1807.6774,-719.8314C1804.2891,-711.9617 1800.2459,-702.5712 1796.4924,-693.8533"/>
<polygon fill="#c0c0c0" stroke="#c0c0c0" stroke-width="2" points="1799.5973,-692.214 1792.4279,-684.4133 1793.1679,-694.9822 1799.5973,-692.214"/>
</g>
<!-- 55&#45;&gt;54 -->
<g id="edge92" class="edge">
<title>55&#45;&gt;54</title>
<path fill="none" stroke="#c0c0c0" stroke-width="2" d="M1817.743,-791.8314C1817.4221,-784.131 1817.0406,-774.9743 1816.684,-766.4166"/>
<polygon fill="#c0c0c0" stroke="#c0c0c0" stroke-width="2" points="1820.1806,-766.2589 1816.2672,-756.4133 1813.1867,-766.5503 1820.1806,-766.2589"/>
</g>
<!-- 56 -->
<g id="node57" class="node">
<title>56</title>
<path fill="none" stroke="#56d882" stroke-width="2" d="M1093.5,-252C1093.5,-252 1041.5,-252 1041.5,-252 1035.5,-252 1029.5,-246 1029.5,-240 1029.5,-240 1029.5,-228 1029.5,-228 1029.5,-222 1035.5,-216 1041.5,-216 1041.5,-216 1093.5,-216 1093.5,-216 1099.5,-216 1105.5,-222 1105.5,-228 1105.5,-228 1105.5,-240 1105.5,-240 1105.5,-246 1099.5,-252 1093.5,-252"/>
<text text-anchor="middle" x="1067.5" y="-231.5" font-family="sans" font-size="10.00" fill="#000000">metadmg_dfit</text>
</g>
<!-- 56&#45;&gt;1 -->
<g id="edge23" class="edge">
<title>56&#45;&gt;1</title>
<path fill="none" stroke="#c0c0c0" stroke-width="2" d="M1061.6348,-215.6459C1054.1578,-195.1783 1039.2722,-162.5219 1015.5,-144 970.583,-109.0033 904.0001,-96.6875 862.7538,-92.3534"/>
<polygon fill="#c0c0c0" stroke="#c0c0c0" stroke-width="2" points="862.8743,-88.8493 852.5895,-91.3933 862.216,-95.8183 862.8743,-88.8493"/>
</g>
<!-- 71 -->
<g id="node72" class="node">
<title>71</title>
<path fill="none" stroke="#59d856" stroke-width="2" d="M1161,-180C1161,-180 1080,-180 1080,-180 1074,-180 1068,-174 1068,-168 1068,-168 1068,-156 1068,-156 1068,-150 1074,-144 1080,-144 1080,-144 1161,-144 1161,-144 1167,-144 1173,-150 1173,-156 1173,-156 1173,-168 1173,-168 1173,-174 1167,-180 1161,-180"/>
<text text-anchor="middle" x="1120.5" y="-159.5" font-family="sans" font-size="10.00" fill="#000000">metadmg_aggregate</text>
</g>
<!-- 56&#45;&gt;71 -->
<g id="edge111" class="edge">
<title>56&#45;&gt;71</title>
<path fill="none" stroke="#c0c0c0" stroke-width="2" d="M1080.8741,-215.8314C1086.9162,-207.6232 1094.1763,-197.7606 1100.8221,-188.7323"/>
<polygon fill="#c0c0c0" stroke="#c0c0c0" stroke-width="2" points="1103.8363,-190.5415 1106.9458,-180.4133 1098.1989,-186.3918 1103.8363,-190.5415"/>
</g>
<!-- 57 -->
<g id="node58" class="node">
<title>57</title>
<path fill="none" stroke="#56d89a" stroke-width="2" d="M1156,-324C1156,-324 1105,-324 1105,-324 1099,-324 1093,-318 1093,-312 1093,-312 1093,-300 1093,-300 1093,-294 1099,-288 1105,-288 1105,-288 1156,-288 1156,-288 1162,-288 1168,-294 1168,-300 1168,-300 1168,-312 1168,-312 1168,-318 1162,-324 1156,-324"/>
<text text-anchor="middle" x="1130.5" y="-303.5" font-family="sans" font-size="10.00" fill="#000000">metadmg_lca</text>
</g>
<!-- 57&#45;&gt;56 -->
<g id="edge95" class="edge">
<title>57&#45;&gt;56</title>
<path fill="none" stroke="#c0c0c0" stroke-width="2" d="M1114.6024,-287.8314C1107.2722,-279.454 1098.434,-269.3531 1090.4031,-260.1749"/>
<polygon fill="#c0c0c0" stroke="#c0c0c0" stroke-width="2" points="1092.8307,-257.6343 1083.6116,-252.4133 1087.5627,-262.2438 1092.8307,-257.6343"/>
</g>
<!-- 57&#45;&gt;71 -->
<g id="edge110" class="edge">
<title>57&#45;&gt;71</title>
<path fill="none" stroke="#c0c0c0" stroke-width="2" d="M1129.2335,-287.7623C1127.5279,-263.201 1124.4755,-219.2474 1122.469,-190.3541"/>
<polygon fill="#c0c0c0" stroke="#c0c0c0" stroke-width="2" points="1125.9407,-189.8231 1121.7562,-180.0896 1118.9575,-190.3081 1125.9407,-189.8231"/>
</g>
<!-- 58 -->
<g id="node59" class="node">
<title>58</title>
<path fill="none" stroke="#d8cb56" stroke-width="2" d="M1162.5,-396C1162.5,-396 1098.5,-396 1098.5,-396 1092.5,-396 1086.5,-390 1086.5,-384 1086.5,-384 1086.5,-372 1086.5,-372 1086.5,-366 1092.5,-360 1098.5,-360 1098.5,-360 1162.5,-360 1162.5,-360 1168.5,-360 1174.5,-366 1174.5,-372 1174.5,-372 1174.5,-384 1174.5,-384 1174.5,-390 1168.5,-396 1162.5,-396"/>
<text text-anchor="middle" x="1130.5" y="-375.5" font-family="sans" font-size="10.00" fill="#000000">align_sort_query</text>
</g>
<!-- 58&#45;&gt;57 -->
<g id="edge96" class="edge">
<title>58&#45;&gt;57</title>
<path fill="none" stroke="#c0c0c0" stroke-width="2" d="M1130.5,-359.8314C1130.5,-352.131 1130.5,-342.9743 1130.5,-334.4166"/>
<polygon fill="#c0c0c0" stroke="#c0c0c0" stroke-width="2" points="1134.0001,-334.4132 1130.5,-324.4133 1127.0001,-334.4133 1134.0001,-334.4132"/>
</g>
<!-- 77 -->
<g id="node78" class="node">
<title>77</title>
<path fill="none" stroke="#56d86b" stroke-width="2" d="M1282,-108C1282,-108 1209,-108 1209,-108 1203,-108 1197,-102 1197,-96 1197,-96 1197,-84 1197,-84 1197,-78 1203,-72 1209,-72 1209,-72 1282,-72 1282,-72 1288,-72 1294,-78 1294,-84 1294,-84 1294,-96 1294,-96 1294,-102 1288,-108 1282,-108"/>
<text text-anchor="middle" x="1245.5" y="-87.5" font-family="sans" font-size="10.00" fill="#000000">metadmg_damage</text>
</g>
<!-- 58&#45;&gt;77 -->
<g id="edge119" class="edge">
<title>58&#45;&gt;77</title>
<path fill="none" stroke="#c0c0c0" stroke-width="2" d="M1149.2369,-359.9636C1158.5651,-350.0965 1169.3475,-337.2131 1176.5,-324 1213.7393,-255.2069 1233.16,-163.879 1241.0898,-118.3391"/>
<polygon fill="#c0c0c0" stroke="#c0c0c0" stroke-width="2" points="1244.5703,-118.7467 1242.7786,-108.3045 1237.6674,-117.5849 1244.5703,-118.7467"/>
</g>
<!-- 59 -->
<g id="node60" class="node">
<title>59</title>
<path fill="none" stroke="#d89c56" stroke-width="2" d="M1140,-468C1140,-468 1085,-468 1085,-468 1079,-468 1073,-462 1073,-456 1073,-456 1073,-444 1073,-444 1073,-438 1079,-432 1085,-432 1085,-432 1140,-432 1140,-432 1146,-432 1152,-438 1152,-444 1152,-444 1152,-456 1152,-456 1152,-462 1146,-468 1140,-468"/>
<text text-anchor="middle" x="1112.5" y="-447.5" font-family="sans" font-size="10.00" fill="#000000">align_reassign</text>
</g>
<!-- 59&#45;&gt;58 -->
<g id="edge97" class="edge">
<title>59&#45;&gt;58</title>
<path fill="none" stroke="#c0c0c0" stroke-width="2" d="M1117.0422,-431.8314C1118.9884,-424.0463 1121.3068,-414.7729 1123.4663,-406.1347"/>
<polygon fill="#c0c0c0" stroke="#c0c0c0" stroke-width="2" points="1126.8668,-406.9636 1125.8967,-396.4133 1120.0758,-405.2658 1126.8668,-406.9636"/>
</g>
<!-- 60&#45;&gt;59 -->
<g id="edge98" class="edge">
<title>60&#45;&gt;59</title>
<path fill="none" stroke="#c0c0c0" stroke-width="2" d="M1112.5,-503.8314C1112.5,-496.131 1112.5,-486.9743 1112.5,-478.4166"/>
<polygon fill="#c0c0c0" stroke="#c0c0c0" stroke-width="2" points="1116.0001,-478.4132 1112.5,-468.4133 1109.0001,-478.4133 1116.0001,-478.4132"/>
</g>
<!-- 61 -->
<g id="node62" class="node">
<title>61</title>
<path fill="none" stroke="#56d882" stroke-width="2" d="M475.5,-252C475.5,-252 423.5,-252 423.5,-252 417.5,-252 411.5,-246 411.5,-240 411.5,-240 411.5,-228 411.5,-228 411.5,-222 417.5,-216 423.5,-216 423.5,-216 475.5,-216 475.5,-216 481.5,-216 487.5,-222 487.5,-228 487.5,-228 487.5,-240 487.5,-240 487.5,-246 481.5,-252 475.5,-252"/>
<text text-anchor="middle" x="449.5" y="-231.5" font-family="sans" font-size="10.00" fill="#000000">metadmg_dfit</text>
</g>
<!-- 61&#45;&gt;1 -->
<g id="edge24" class="edge">
<title>61&#45;&gt;1</title>
<path fill="none" stroke="#c0c0c0" stroke-width="2" d="M454.7501,-215.9003C461.8009,-195.0294 476.4338,-161.3709 501.5,-144 547.4025,-112.1895 712.73,-97.4449 787.8661,-92.2732"/>
<polygon fill="#c0c0c0" stroke="#c0c0c0" stroke-width="2" points="788.5277,-95.7369 798.2724,-91.5788 788.0615,-88.7525 788.5277,-95.7369"/>
</g>
<!-- 72 -->
<g id="node73" class="node">
<title>72</title>
<path fill="none" stroke="#59d856" stroke-width="2" d="M437,-180C437,-180 356,-180 356,-180 350,-180 344,-174 344,-168 344,-168 344,-156 344,-156 344,-150 350,-144 356,-144 356,-144 437,-144 437,-144 443,-144 449,-150 449,-156 449,-156 449,-168 449,-168 449,-174 443,-180 437,-180"/>
<text text-anchor="middle" x="396.5" y="-159.5" font-family="sans" font-size="10.00" fill="#000000">metadmg_aggregate</text>
</g>
<!-- 61&#45;&gt;72 -->
<g id="edge113" class="edge">
<title>61&#45;&gt;72</title>
<path fill="none" stroke="#c0c0c0" stroke-width="2" d="M436.1259,-215.8314C430.0838,-207.6232 422.8237,-197.7606 416.1779,-188.7323"/>
<polygon fill="#c0c0c0" stroke="#c0c0c0" stroke-width="2" points="418.8011,-186.3918 410.0542,-180.4133 413.1637,-190.5415 418.8011,-186.3918"/>
</g>
<!-- 62 -->
<g id="node63" class="node">
<title>62</title>
<path fill="none" stroke="#56d89a" stroke-width="2" d="M409,-324C409,-324 358,-324 358,-324 352,-324 346,-318 346,-312 346,-312 346,-300 346,-300 346,-294 352,-288 358,-288 358,-288 409,-288 409,-288 415,-288 421,-294 421,-300 421,-300 421,-312 421,-312 421,-318 415,-324 409,-324"/>
<text text-anchor="middle" x="383.5" y="-303.5" font-family="sans" font-size="10.00" fill="#000000">metadmg_lca</text>
</g>
<!-- 62&#45;&gt;61 -->
<g id="edge100" class="edge">
<title>62&#45;&gt;61</title>
<path fill="none" stroke="#c0c0c0" stroke-width="2" d="M400.1546,-287.8314C407.9114,-279.3694 417.2802,-269.1489 425.761,-259.8971"/>
<polygon fill="#c0c0c0" stroke="#c0c0c0" stroke-width="2" points="428.4439,-262.1499 432.6212,-252.4133 423.2838,-257.4198 428.4439,-262.1499"/>
</g>
<!-- 62&#45;&gt;72 -->
<g id="edge112" class="edge">
<title>62&#45;&gt;72</title>
<path fill="none" stroke="#c0c0c0" stroke-width="2" d="M385.1465,-287.7623C387.3638,-263.201 391.3318,-219.2474 393.9403,-190.3541"/>
<polygon fill="#c0c0c0" stroke="#c0c0c0" stroke-width="2" points="397.4535,-190.3638 394.8669,-180.0896 390.4819,-189.7344 397.4535,-190.3638"/>
</g>
<!-- 63 -->
<g id="node64" class="node">
<title>63</title>
<path fill="none" stroke="#d8cb56" stroke-width="2" d="M404.5,-396C404.5,-396 340.5,-396 340.5,-396 334.5,-396 328.5,-390 328.5,-384 328.5,-384 328.5,-372 328.5,-372 328.5,-366 334.5,-360 340.5,-360 340.5,-360 404.5,-360 404.5,-360 410.5,-360 416.5,-366 416.5,-372 416.5,-372 416.5,-384 416.5,-384 416.5,-390 410.5,-396 404.5,-396"/>
<text text-anchor="middle" x="372.5" y="-375.5" font-family="sans" font-size="10.00" fill="#000000">align_sort_query</text>
</g>
<!-- 63&#45;&gt;62 -->
<g id="edge101" class="edge">
<title>63&#45;&gt;62</title>
<path fill="none" stroke="#c0c0c0" stroke-width="2" d="M375.2758,-359.8314C376.4522,-352.131 377.8511,-342.9743 379.1586,-334.4166"/>
<polygon fill="#c0c0c0" stroke="#c0c0c0" stroke-width="2" points="382.6364,-334.8272 380.6869,-324.4133 375.7167,-333.7699 382.6364,-334.8272"/>
</g>
<!-- 78 -->
<g id="node79" class="node">
<title>78</title>
<path fill="none" stroke="#56d86b" stroke-width="2" d="M343,-252C343,-252 270,-252 270,-252 264,-252 258,-246 258,-240 258,-240 258,-228 258,-228 258,-222 264,-216 270,-216 270,-216 343,-216 343,-216 349,-216 355,-222 355,-228 355,-228 355,-240 355,-240 355,-246 349,-252 343,-252"/>
<text text-anchor="middle" x="306.5" y="-231.5" font-family="sans" font-size="10.00" fill="#000000">metadmg_damage</text>
</g>
<!-- 63&#45;&gt;78 -->
<g id="edge120" class="edge">
<title>63&#45;&gt;78</title>
<path fill="none" stroke="#c0c0c0" stroke-width="2" d="M358.5526,-359.7454C351.2765,-349.6125 342.6384,-336.5508 336.5,-324 326.7156,-303.9944 318.8978,-280.0141 313.6987,-261.8389"/>
<polygon fill="#c0c0c0" stroke="#c0c0c0" stroke-width="2" points="317.0556,-260.846 311.0146,-252.1422 310.3093,-262.7135 317.0556,-260.846"/>
</g>
<!-- 64 -->
<g id="node65" class="node">
<title>64</title>
<path fill="none" stroke="#d89c56" stroke-width="2" d="M400,-468C400,-468 345,-468 345,-468 339,-468 333,-462 333,-456 333,-456 333,-444 333,-444 333,-438 339,-432 345,-432 345,-432 400,-432 400,-432 406,-432 412,-438 412,-444 412,-444 412,-456 412,-456 412,-462 406,-468 400,-468"/>
<text text-anchor="middle" x="372.5" y="-447.5" font-family="sans" font-size="10.00" fill="#000000">align_reassign</text>
</g>
<!-- 64&#45;&gt;63 -->
<g id="edge102" class="edge">
<title>64&#45;&gt;63</title>
<path fill="none" stroke="#c0c0c0" stroke-width="2" d="M372.5,-431.8314C372.5,-424.131 372.5,-414.9743 372.5,-406.4166"/>
<polygon fill="#c0c0c0" stroke="#c0c0c0" stroke-width="2" points="376.0001,-406.4132 372.5,-396.4133 369.0001,-406.4133 376.0001,-406.4132"/>
</g>
<!-- 65&#45;&gt;64 -->
<g id="edge103" class="edge">
<title>65&#45;&gt;64</title>
<path fill="none" stroke="#c0c0c0" stroke-width="2" d="M372.5,-503.8314C372.5,-496.131 372.5,-486.9743 372.5,-478.4166"/>
<polygon fill="#c0c0c0" stroke="#c0c0c0" stroke-width="2" points="376.0001,-478.4132 372.5,-468.4133 369.0001,-478.4133 376.0001,-478.4132"/>
</g>
<!-- 66 -->
<g id="node67" class="node">
<title>66</title>
<path fill="none" stroke="#56d882" stroke-width="2" d="M1370.5,-252C1370.5,-252 1318.5,-252 1318.5,-252 1312.5,-252 1306.5,-246 1306.5,-240 1306.5,-240 1306.5,-228 1306.5,-228 1306.5,-222 1312.5,-216 1318.5,-216 1318.5,-216 1370.5,-216 1370.5,-216 1376.5,-216 1382.5,-222 1382.5,-228 1382.5,-228 1382.5,-240 1382.5,-240 1382.5,-246 1376.5,-252 1370.5,-252"/>
<text text-anchor="middle" x="1344.5" y="-231.5" font-family="sans" font-size="10.00" fill="#000000">metadmg_dfit</text>
</g>
<!-- 66&#45;&gt;1 -->
<g id="edge25" class="edge">
<title>66&#45;&gt;1</title>
<path fill="none" stroke="#c0c0c0" stroke-width="2" d="M1332.0916,-215.9473C1316.4523,-194.7888 1287.4695,-160.5219 1253.5,-144 1184.8272,-110.5992 953.9754,-96.146 862.8995,-91.648"/>
<polygon fill="#c0c0c0" stroke="#c0c0c0" stroke-width="2" points="862.9142,-88.1448 852.7575,-91.16 862.5777,-95.1367 862.9142,-88.1448"/>
</g>
<!-- 73 -->
<g id="node74" class="node">
<title>73</title>
<path fill="none" stroke="#59d856" stroke-width="2" d="M1437,-180C1437,-180 1356,-180 1356,-180 1350,-180 1344,-174 1344,-168 1344,-168 1344,-156 1344,-156 1344,-150 1350,-144 1356,-144 1356,-144 1437,-144 1437,-144 1443,-144 1449,-150 1449,-156 1449,-156 1449,-168 1449,-168 1449,-174 1443,-180 1437,-180"/>
<text text-anchor="middle" x="1396.5" y="-159.5" font-family="sans" font-size="10.00" fill="#000000">metadmg_aggregate</text>
</g>
<!-- 66&#45;&gt;73 -->
<g id="edge115" class="edge">
<title>66&#45;&gt;73</title>
<path fill="none" stroke="#c0c0c0" stroke-width="2" d="M1357.6218,-215.8314C1363.5499,-207.6232 1370.6729,-197.7606 1377.1933,-188.7323"/>
<polygon fill="#c0c0c0" stroke="#c0c0c0" stroke-width="2" points="1380.184,-190.5693 1383.2015,-180.4133 1374.5092,-186.4708 1380.184,-190.5693"/>
</g>
<!-- 67 -->
<g id="node68" class="node">
<title>67</title>
<path fill="none" stroke="#56d89a" stroke-width="2" d="M1436,-324C1436,-324 1385,-324 1385,-324 1379,-324 1373,-318 1373,-312 1373,-312 1373,-300 1373,-300 1373,-294 1379,-288 1385,-288 1385,-288 1436,-288 1436,-288 1442,-288 1448,-294 1448,-300 1448,-300 1448,-312 1448,-312 1448,-318 1442,-324 1436,-324"/>
<text text-anchor="middle" x="1410.5" y="-303.5" font-family="sans" font-size="10.00" fill="#000000">metadmg_lca</text>
</g>
<!-- 67&#45;&gt;66 -->
<g id="edge105" class="edge">
<title>67&#45;&gt;66</title>
<path fill="none" stroke="#c0c0c0" stroke-width="2" d="M1393.8454,-287.8314C1386.0886,-279.3694 1376.7198,-269.1489 1368.239,-259.8971"/>
<polygon fill="#c0c0c0" stroke="#c0c0c0" stroke-width="2" points="1370.7162,-257.4198 1361.3788,-252.4133 1365.5561,-262.1499 1370.7162,-257.4198"/>
</g>
<!-- 67&#45;&gt;73 -->
<g id="edge114" class="edge">
<title>67&#45;&gt;73</title>
<path fill="none" stroke="#c0c0c0" stroke-width="2" d="M1408.7269,-287.7623C1406.339,-263.201 1402.0657,-219.2474 1399.2566,-190.3541"/>
<polygon fill="#c0c0c0" stroke="#c0c0c0" stroke-width="2" points="1402.71,-189.704 1398.2587,-180.0896 1395.7429,-190.3814 1402.71,-189.704"/>
</g>
<!-- 68 -->
<g id="node69" class="node">
<title>68</title>
<path fill="none" stroke="#d8cb56" stroke-width="2" d="M1475.5,-396C1475.5,-396 1411.5,-396 1411.5,-396 1405.5,-396 1399.5,-390 1399.5,-384 1399.5,-384 1399.5,-372 1399.5,-372 1399.5,-366 1405.5,-360 1411.5,-360 1411.5,-360 1475.5,-360 1475.5,-360 1481.5,-360 1487.5,-366 1487.5,-372 1487.5,-372 1487.5,-384 1487.5,-384 1487.5,-390 1481.5,-396 1475.5,-396"/>
<text text-anchor="middle" x="1443.5" y="-375.5" font-family="sans" font-size="10.00" fill="#000000">align_sort_query</text>
</g>
<!-- 68&#45;&gt;67 -->
<g id="edge106" class="edge">
<title>68&#45;&gt;67</title>
<path fill="none" stroke="#c0c0c0" stroke-width="2" d="M1435.1727,-359.8314C1431.527,-351.8771 1427.1691,-342.369 1423.1373,-333.5723"/>
<polygon fill="#c0c0c0" stroke="#c0c0c0" stroke-width="2" points="1426.2877,-332.0456 1418.9394,-324.4133 1419.9243,-334.9622 1426.2877,-332.0456"/>
</g>
<!-- 79 -->
<g id="node80" class="node">
<title>79</title>
<path fill="none" stroke="#56d86b" stroke-width="2" d="M1464,-108C1464,-108 1391,-108 1391,-108 1385,-108 1379,-102 1379,-96 1379,-96 1379,-84 1379,-84 1379,-78 1385,-72 1391,-72 1391,-72 1464,-72 1464,-72 1470,-72 1476,-78 1476,-84 1476,-84 1476,-96 1476,-96 1476,-102 1470,-108 1464,-108"/>
<text text-anchor="middle" x="1427.5" y="-87.5" font-family="sans" font-size="10.00" fill="#000000">metadmg_damage</text>
</g>
<!-- 68&#45;&gt;79 -->
<g id="edge121" class="edge">
<title>68&#45;&gt;79</title>
<path fill="none" stroke="#c0c0c0" stroke-width="2" d="M1449.0122,-359.6973C1451.854,-349.3301 1455.0263,-336.0603 1456.5,-324 1466.2038,-244.5895 1477.5676,-221.4435 1457.5,-144 1455.1154,-134.7976 1450.7854,-125.4938 1446.1432,-117.2621"/>
<polygon fill="#c0c0c0" stroke="#c0c0c0" stroke-width="2" points="1449.0146,-115.2459 1440.8562,-108.4863 1443.0187,-118.8582 1449.0146,-115.2459"/>
</g>
<!-- 69 -->
<g id="node70" class="node">
<title>69</title>
<path fill="none" stroke="#d89c56" stroke-width="2" d="M1651,-468C1651,-468 1596,-468 1596,-468 1590,-468 1584,-462 1584,-456 1584,-456 1584,-444 1584,-444 1584,-438 1590,-432 1596,-432 1596,-432 1651,-432 1651,-432 1657,-432 1663,-438 1663,-444 1663,-444 1663,-456 1663,-456 1663,-462 1657,-468 1651,-468"/>
<text text-anchor="middle" x="1623.5" y="-447.5" font-family="sans" font-size="10.00" fill="#000000">align_reassign</text>
</g>
<!-- 69&#45;&gt;68 -->
<g id="edge107" class="edge">
<title>69&#45;&gt;68</title>
<path fill="none" stroke="#c0c0c0" stroke-width="2" d="M1583.9982,-434.1993C1558.5405,-424.0162 1525.1127,-410.6451 1497.2501,-399.5"/>
<polygon fill="#c0c0c0" stroke="#c0c0c0" stroke-width="2" points="1498.2337,-396.1239 1487.6491,-395.6596 1495.634,-402.6233 1498.2337,-396.1239"/>
</g>
<!-- 70&#45;&gt;69 -->
<g id="edge108" class="edge">
<title>70&#45;&gt;69</title>
<path fill="none" stroke="#c0c0c0" stroke-width="2" d="M1624.9953,-503.8314C1624.7814,-496.131 1624.5271,-486.9743 1624.2894,-478.4166"/>
<polygon fill="#c0c0c0" stroke="#c0c0c0" stroke-width="2" points="1627.7879,-478.3122 1624.0115,-468.4133 1620.7906,-478.5066 1627.7879,-478.3122"/>
</g>
<!-- 71&#45;&gt;0 -->
<g id="edge5" class="edge">
<title>71&#45;&gt;0</title>
<path fill="none" stroke="#c0c0c0" stroke-width="2" d="M1128.7323,-143.7623C1139.9655,-118.8764 1160.1851,-74.0822 1173.2148,-45.2165"/>
<polygon fill="#c0c0c0" stroke="#c0c0c0" stroke-width="2" points="1176.4104,-46.6441 1177.3345,-36.0896 1170.0302,-43.7641 1176.4104,-46.6441"/>
</g>
<!-- 71&#45;&gt;1 -->
<g id="edge26" class="edge">
<title>71&#45;&gt;1</title>
<path fill="none" stroke="#c0c0c0" stroke-width="2" d="M1067.872,-147.7018C1063.018,-146.4312 1058.1709,-145.1803 1053.5,-144 986.3598,-127.0344 907.6892,-108.753 862.5145,-98.4084"/>
<polygon fill="#c0c0c0" stroke="#c0c0c0" stroke-width="2" points="863.1173,-94.956 852.5888,-96.1398 861.5576,-101.78 863.1173,-94.956"/>
</g>
<!-- 72&#45;&gt;0 -->
<g id="edge6" class="edge">
<title>72&#45;&gt;0</title>
<path fill="none" stroke="#c0c0c0" stroke-width="2" d="M449.1891,-148.4657C455.3558,-146.934 461.5627,-145.4161 467.5,-144 610.1439,-109.9778 645.1656,-97.93 789.5,-72 920.7158,-48.4268 1078.0351,-29.8203 1148.3607,-22.004"/>
<polygon fill="#c0c0c0" stroke="#c0c0c0" stroke-width="2" points="1148.9324,-25.4622 1158.4881,-20.8863 1148.1645,-18.5045 1148.9324,-25.4622"/>
</g>
<!-- 72&#45;&gt;1 -->
<g id="edge27" class="edge">
<title>72&#45;&gt;1</title>
<path fill="none" stroke="#c0c0c0" stroke-width="2" d="M449.0305,-147.2783C453.905,-146.0966 458.7834,-144.982 463.5,-144 580.7669,-119.5848 721.6156,-101.8464 787.7336,-94.1901"/>
<polygon fill="#c0c0c0" stroke="#c0c0c0" stroke-width="2" points="788.5279,-97.6221 798.0642,-93.0058 787.7306,-90.6676 788.5279,-97.6221"/>
</g>
<!-- 73&#45;&gt;0 -->
<g id="edge7" class="edge">
<title>73&#45;&gt;0</title>
<path fill="none" stroke="#c0c0c0" stroke-width="2" d="M1380.9903,-143.9246C1363.4529,-124.3097 1333.3092,-92.9889 1302.5,-72 1277.475,-54.9516 1246.2059,-40.8355 1222.291,-31.3167"/>
<polygon fill="#c0c0c0" stroke="#c0c0c0" stroke-width="2" points="1223.4491,-28.0118 1212.8605,-27.6485 1220.9115,-34.5357 1223.4491,-28.0118"/>
</g>
<!-- 73&#45;&gt;1 -->
<g id="edge28" class="edge">
<title>73&#45;&gt;1</title>
<path fill="none" stroke="#c0c0c0" stroke-width="2" d="M1343.9797,-152.4196C1327.2377,-149.5205 1308.6174,-146.4571 1291.5,-144 1132.3704,-121.1576 941.5908,-101.4367 862.5728,-93.6037"/>
<polygon fill="#c0c0c0" stroke="#c0c0c0" stroke-width="2" points="862.9139,-90.1204 852.6184,-92.6213 862.2263,-97.0866 862.9139,-90.1204"/>
</g>
<!-- 74&#45;&gt;0 -->
<g id="edge2" class="edge">
<title>74&#45;&gt;0</title>
<path fill="none" stroke="#c0c0c0" stroke-width="2" d="M1391.6665,-503.9519C1444.2609,-482.8644 1515.5,-442.4128 1515.5,-378 1515.5,-378 1515.5,-378 1515.5,-162 1515.5,-119.6937 1516.6145,-99.5407 1484.5,-72 1445.7469,-38.7661 1294.659,-24.9173 1223.2657,-20.1389"/>
<polygon fill="#c0c0c0" stroke="#c0c0c0" stroke-width="2" points="1223.1311,-16.6231 1212.9269,-19.4733 1222.6814,-23.6086 1223.1311,-16.6231"/>
</g>
<!-- 75&#45;&gt;0 -->
<g id="edge3" class="edge">
<title>75&#45;&gt;0</title>
<path fill="none" stroke="#c0c0c0" stroke-width="2" d="M111.2324,-575.9575C151.5269,-552.7777 211.5,-508.4584 211.5,-450 211.5,-450 211.5,-450 211.5,-162 211.5,-77.294 298.0777,-95.3563 379.5,-72 526.8151,-29.742 1010.058,-20.2796 1148.2695,-18.4157"/>
<polygon fill="#c0c0c0" stroke="#c0c0c0" stroke-width="2" points="1148.4032,-21.9143 1158.357,-18.285 1148.3125,-14.9149 1148.4032,-21.9143"/>
</g>
<!-- 76&#45;&gt;0 -->
<g id="edge4" class="edge">
<title>76&#45;&gt;0</title>
<path fill="none" stroke="#c0c0c0" stroke-width="2" d="M1696.9617,-80.7347C1569.8183,-65.1396 1317.657,-34.2101 1222.771,-22.5716"/>
<polygon fill="#c0c0c0" stroke="#c0c0c0" stroke-width="2" points="1223.1296,-19.0894 1212.7779,-21.3458 1222.2773,-26.0373 1223.1296,-19.0894"/>
</g>
<!-- 77&#45;&gt;0 -->
<g id="edge8" class="edge">
<title>77&#45;&gt;0</title>
<path fill="none" stroke="#c0c0c0" stroke-width="2" d="M1230.3595,-71.8314C1223.3783,-63.454 1214.9609,-53.3531 1207.3124,-44.1749"/>
<polygon fill="#c0c0c0" stroke="#c0c0c0" stroke-width="2" points="1209.9351,-41.8548 1200.8444,-36.4133 1204.5575,-46.3362 1209.9351,-41.8548"/>
</g>
<!-- 78&#45;&gt;0 -->
<g id="edge9" class="edge">
<title>78&#45;&gt;0</title>
<path fill="none" stroke="#c0c0c0" stroke-width="2" d="M307.1232,-215.7626C308.8232,-195.4019 314.7084,-162.8436 334.5,-144 427.2479,-55.6947 487.3566,-94.0874 613.5,-72 813.3892,-36.9999 1056.8233,-23.5252 1148.3498,-19.4678"/>
<polygon fill="#c0c0c0" stroke="#c0c0c0" stroke-width="2" points="1148.6553,-22.958 1158.4949,-19.0294 1148.3531,-15.9645 1148.6553,-22.958"/>
</g>
<!-- 79&#45;&gt;0 -->
<g id="edge10" class="edge">
<title>79&#45;&gt;0</title>
<path fill="none" stroke="#c0c0c0" stroke-width="2" d="M1378.8188,-75.5163C1332.6602,-61.7832 1264.3238,-41.4517 1222.4746,-29.0007"/>
<polygon fill="#c0c0c0" stroke="#c0c0c0" stroke-width="2" points="1223.2732,-25.5868 1212.6903,-26.0897 1221.277,-32.2961 1223.2732,-25.5868"/>
</g>
</g>
</svg>
