<?xml version="1.0" encoding="UTF-8" standalone="no"?>
<!DOCTYPE svg PUBLIC "-//W3C//DTD SVG 1.1//EN"
 "http://www.w3.org/Graphics/SVG/1.1/DTD/svg11.dtd">
<!-- Generated by graphviz version 2.40.1 (0)
 -->
<!-- Title: snakemake_dag Pages: 1 -->
<svg width="1471pt" height="885pt"
 viewBox="0.00 0.00 1471.09 885.00" xmlns="http://www.w3.org/2000/svg" xmlns:xlink="http://www.w3.org/1999/xlink">
<g id="graph0" class="graph" transform="scale(1 1) rotate(0) translate(4 881)">
<title>snakemake_dag</title>
<polygon fill="#ffffff" stroke="transparent" points="-4,4 -4,-881 1467.0937,-881 1467.0937,4 -4,4"/>
<!-- 0 -->
<g id="node1" class="node">
<title>0</title>
<path fill="none" stroke="#8fd856" stroke-width="2" d="M397.0937,-36C397.0937,-36 367.0937,-36 367.0937,-36 361.0937,-36 355.0937,-30 355.0937,-24 355.0937,-24 355.0937,-12 355.0937,-12 355.0937,-6 361.0937,0 367.0937,0 367.0937,0 397.0937,0 397.0937,0 403.0937,0 409.0937,-6 409.0937,-12 409.0937,-12 409.0937,-24 409.0937,-24 409.0937,-30 403.0937,-36 397.0937,-36"/>
<text text-anchor="middle" x="382.0937" y="-15.5" font-family="sans" font-size="10.00" fill="#000000">all</text>
</g>
<!-- 1 -->
<g id="node2" class="node">
<title>1</title>
<path fill="none" stroke="#56a9d8" stroke-width="2" d="M715.0937,-108C715.0937,-108 685.0937,-108 685.0937,-108 679.0937,-108 673.0937,-102 673.0937,-96 673.0937,-96 673.0937,-84 673.0937,-84 673.0937,-78 679.0937,-72 685.0937,-72 685.0937,-72 715.0937,-72 715.0937,-72 721.0937,-72 727.0937,-78 727.0937,-84 727.0937,-84 727.0937,-96 727.0937,-96 727.0937,-102 721.0937,-108 715.0937,-108"/>
<text text-anchor="middle" x="700.0937" y="-87.5" font-family="sans" font-size="10.00" fill="#000000">multiqc</text>
</g>
<!-- 1&#45;&gt;0 -->
<g id="edge1" class="edge">
<title>1&#45;&gt;0</title>
<path fill="none" stroke="#c0c0c0" stroke-width="2" d="M672.9812,-83.8613C615.953,-70.9493 483.5367,-40.9682 418.9064,-26.335"/>
<polygon fill="#c0c0c0" stroke="#c0c0c0" stroke-width="2" points="419.6636,-22.9179 409.1376,-24.1231 418.1178,-29.7451 419.6636,-22.9179"/>
</g>
<!-- 2 -->
<g id="node3" class="node">
<title>2</title>
<path fill="none" stroke="#70d856" stroke-width="2" d="M147.5937,-877C147.5937,-877 40.5937,-877 40.5937,-877 34.5937,-877 28.5937,-871 28.5937,-865 28.5937,-865 28.5937,-804 28.5937,-804 28.5937,-798 34.5937,-792 40.5937,-792 40.5937,-792 147.5937,-792 147.5937,-792 153.5937,-792 159.5937,-798 159.5937,-804 159.5937,-804 159.5937,-865 159.5937,-865 159.5937,-871 153.5937,-877 147.5937,-877"/>
<text text-anchor="middle" x="94.0937" y="-865" font-family="sans" font-size="10.00" fill="#000000">bowtie2</text>
<text text-anchor="middle" x="94.0937" y="-854" font-family="sans" font-size="10.00" fill="#000000">library: lib2</text>
<text text-anchor="middle" x="94.0937" y="-843" font-family="sans" font-size="10.00" fill="#000000">n_shard: 2</text>
<text text-anchor="middle" x="94.0937" y="-832" font-family="sans" font-size="10.00" fill="#000000">read_type_map: collapsed</text>
<text text-anchor="middle" x="94.0937" y="-821" font-family="sans" font-size="10.00" fill="#000000">ref: wgs_eukaryota</text>
<text text-anchor="middle" x="94.0937" y="-810" font-family="sans" font-size="10.00" fill="#000000">sample: HD827sonic_2</text>
<text text-anchor="middle" x="94.0937" y="-799" font-family="sans" font-size="10.00" fill="#000000">tot_shards: 2</text>
</g>
<!-- 2&#45;&gt;1 -->
<g id="edge8" class="edge">
<title>2&#45;&gt;1</title>
<path fill="none" stroke="#c0c0c0" stroke-width="2" d="M85.0872,-791.9051C83.0225,-780.313 81.1307,-767.7212 80.0937,-756 75.8374,-707.8925 77.3295,-693.9833 92.0937,-648 124.785,-546.1828 134.1634,-517.7227 198.0937,-432 212.196,-413.0905 224.329,-415.837 237.0937,-396 245.0698,-383.6047 308.7906,-153.4606 320.0937,-144 346.1752,-122.1701 572.3526,-100.8135 662.8742,-93.0601"/>
<polygon fill="#c0c0c0" stroke="#c0c0c0" stroke-width="2" points="663.2993,-96.5367 672.9677,-92.2039 662.7076,-89.5617 663.2993,-96.5367"/>
</g>
<!-- 30 -->
<g id="node31" class="node">
<title>30</title>
<path fill="none" stroke="#5692d8" stroke-width="2" d="M181.0937,-756C181.0937,-756 101.0937,-756 101.0937,-756 95.0937,-756 89.0937,-750 89.0937,-744 89.0937,-744 89.0937,-732 89.0937,-732 89.0937,-726 95.0937,-720 101.0937,-720 101.0937,-720 181.0937,-720 181.0937,-720 187.0937,-720 193.0937,-726 193.0937,-732 193.0937,-732 193.0937,-744 193.0937,-744 193.0937,-750 187.0937,-756 181.0937,-756"/>
<text text-anchor="middle" x="141.0937" y="-735.5" font-family="sans" font-size="10.00" fill="#000000">shard_clean_header</text>
</g>
<!-- 2&#45;&gt;30 -->
<g id="edge51" class="edge">
<title>2&#45;&gt;30</title>
<path fill="none" stroke="#c0c0c0" stroke-width="2" d="M114.8454,-791.8928C119.2288,-782.8929 123.7415,-773.6275 127.7621,-765.3722"/>
<polygon fill="#c0c0c0" stroke="#c0c0c0" stroke-width="2" points="130.9867,-766.7447 132.2188,-756.2218 124.6934,-763.6796 130.9867,-766.7447"/>
</g>
<!-- 3 -->
<g id="node4" class="node">
<title>3</title>
<path fill="none" stroke="#70d856" stroke-width="2" d="M1295.5937,-877C1295.5937,-877 1188.5937,-877 1188.5937,-877 1182.5937,-877 1176.5937,-871 1176.5937,-865 1176.5937,-865 1176.5937,-804 1176.5937,-804 1176.5937,-798 1182.5937,-792 1188.5937,-792 1188.5937,-792 1295.5937,-792 1295.5937,-792 1301.5937,-792 1307.5937,-798 1307.5937,-804 1307.5937,-804 1307.5937,-865 1307.5937,-865 1307.5937,-871 1301.5937,-877 1295.5937,-877"/>
<text text-anchor="middle" x="1242.0937" y="-865" font-family="sans" font-size="10.00" fill="#000000">bowtie2</text>
<text text-anchor="middle" x="1242.0937" y="-854" font-family="sans" font-size="10.00" fill="#000000">library: lib1</text>
<text text-anchor="middle" x="1242.0937" y="-843" font-family="sans" font-size="10.00" fill="#000000">n_shard: 1</text>
<text text-anchor="middle" x="1242.0937" y="-832" font-family="sans" font-size="10.00" fill="#000000">read_type_map: collapsed</text>
<text text-anchor="middle" x="1242.0937" y="-821" font-family="sans" font-size="10.00" fill="#000000">ref: wgs_eukaryota</text>
<text text-anchor="middle" x="1242.0937" y="-810" font-family="sans" font-size="10.00" fill="#000000">sample: HD827sonic_2</text>
<text text-anchor="middle" x="1242.0937" y="-799" font-family="sans" font-size="10.00" fill="#000000">tot_shards: 2</text>
</g>
<!-- 3&#45;&gt;1 -->
<g id="edge9" class="edge">
<title>3&#45;&gt;1</title>
<path fill="none" stroke="#c0c0c0" stroke-width="2" d="M1219.338,-791.962C1205.2167,-768.531 1185.3464,-740.1938 1162.0937,-720 1135.3809,-696.8013 1111.3709,-712.9929 1091.0937,-684 951.647,-484.6144 1197.0248,-288.2603 1001.0937,-144 908.5702,-75.8767 856.1261,-137.5498 745.0937,-108 742.4409,-107.294 739.7333,-106.4756 737.0281,-105.5849"/>
<polygon fill="#c0c0c0" stroke="#c0c0c0" stroke-width="2" points="737.9384,-102.1932 727.3439,-102.1147 735.5771,-108.7829 737.9384,-102.1932"/>
</g>
<!-- 24 -->
<g id="node25" class="node">
<title>24</title>
<path fill="none" stroke="#5692d8" stroke-width="2" d="M1301.0937,-756C1301.0937,-756 1221.0937,-756 1221.0937,-756 1215.0937,-756 1209.0937,-750 1209.0937,-744 1209.0937,-744 1209.0937,-732 1209.0937,-732 1209.0937,-726 1215.0937,-720 1221.0937,-720 1221.0937,-720 1301.0937,-720 1301.0937,-720 1307.0937,-720 1313.0937,-726 1313.0937,-732 1313.0937,-732 1313.0937,-744 1313.0937,-744 1313.0937,-750 1307.0937,-756 1301.0937,-756"/>
<text text-anchor="middle" x="1261.0937" y="-735.5" font-family="sans" font-size="10.00" fill="#000000">shard_clean_header</text>
</g>
<!-- 3&#45;&gt;24 -->
<g id="edge43" class="edge">
<title>3&#45;&gt;24</title>
<path fill="none" stroke="#c0c0c0" stroke-width="2" d="M1250.4827,-791.8928C1252.1969,-783.1864 1253.9601,-774.2315 1255.5447,-766.183"/>
<polygon fill="#c0c0c0" stroke="#c0c0c0" stroke-width="2" points="1259.0082,-766.7096 1257.506,-756.2218 1252.14,-765.3573 1259.0082,-766.7096"/>
</g>
<!-- 4 -->
<g id="node5" class="node">
<title>4</title>
<path fill="none" stroke="#70d856" stroke-width="2" d="M648.5937,-877C648.5937,-877 541.5937,-877 541.5937,-877 535.5937,-877 529.5937,-871 529.5937,-865 529.5937,-865 529.5937,-804 529.5937,-804 529.5937,-798 535.5937,-792 541.5937,-792 541.5937,-792 648.5937,-792 648.5937,-792 654.5937,-792 660.5937,-798 660.5937,-804 660.5937,-804 660.5937,-865 660.5937,-865 660.5937,-871 654.5937,-877 648.5937,-877"/>
<text text-anchor="middle" x="595.0937" y="-865" font-family="sans" font-size="10.00" fill="#000000">bowtie2</text>
<text text-anchor="middle" x="595.0937" y="-854" font-family="sans" font-size="10.00" fill="#000000">library: lib1</text>
<text text-anchor="middle" x="595.0937" y="-843" font-family="sans" font-size="10.00" fill="#000000">n_shard: 1</text>
<text text-anchor="middle" x="595.0937" y="-832" font-family="sans" font-size="10.00" fill="#000000">read_type_map: collapsed</text>
<text text-anchor="middle" x="595.0937" y="-821" font-family="sans" font-size="10.00" fill="#000000">ref: refseq_mitochondrion</text>
<text text-anchor="middle" x="595.0937" y="-810" font-family="sans" font-size="10.00" fill="#000000">sample: HD827sonic_1</text>
<text text-anchor="middle" x="595.0937" y="-799" font-family="sans" font-size="10.00" fill="#000000">tot_shards: 1</text>
</g>
<!-- 4&#45;&gt;1 -->
<g id="edge10" class="edge">
<title>4&#45;&gt;1</title>
<path fill="none" stroke="#c0c0c0" stroke-width="2" d="M660.6159,-806.0542C707.2764,-785.5348 762.3719,-760.6571 766.0937,-756 791.6164,-724.0641 785.0937,-706.8816 785.0937,-666 785.0937,-666 785.0937,-666 785.0937,-234 785.0937,-187.4968 751.8127,-142.8088 726.9007,-115.8723"/>
<polygon fill="#c0c0c0" stroke="#c0c0c0" stroke-width="2" points="729.2406,-113.2543 719.8081,-108.4296 724.1731,-118.0835 729.2406,-113.2543"/>
</g>
<!-- 18 -->
<g id="node19" class="node">
<title>18</title>
<path fill="none" stroke="#5692d8" stroke-width="2" d="M623.0937,-756C623.0937,-756 543.0937,-756 543.0937,-756 537.0937,-756 531.0937,-750 531.0937,-744 531.0937,-744 531.0937,-732 531.0937,-732 531.0937,-726 537.0937,-720 543.0937,-720 543.0937,-720 623.0937,-720 623.0937,-720 629.0937,-720 635.0937,-726 635.0937,-732 635.0937,-732 635.0937,-744 635.0937,-744 635.0937,-750 629.0937,-756 623.0937,-756"/>
<text text-anchor="middle" x="583.0937" y="-735.5" font-family="sans" font-size="10.00" fill="#000000">shard_clean_header</text>
</g>
<!-- 4&#45;&gt;18 -->
<g id="edge35" class="edge">
<title>4&#45;&gt;18</title>
<path fill="none" stroke="#c0c0c0" stroke-width="2" d="M589.7954,-791.8928C588.7127,-783.1864 587.5992,-774.2315 586.5983,-766.183"/>
<polygon fill="#c0c0c0" stroke="#c0c0c0" stroke-width="2" points="590.067,-765.7134 585.3596,-756.2218 583.1205,-766.5773 590.067,-765.7134"/>
</g>
<!-- 5 -->
<g id="node6" class="node">
<title>5</title>
<path fill="none" stroke="#70d856" stroke-width="2" d="M987.5937,-877C987.5937,-877 880.5937,-877 880.5937,-877 874.5937,-877 868.5937,-871 868.5937,-865 868.5937,-865 868.5937,-804 868.5937,-804 868.5937,-798 874.5937,-792 880.5937,-792 880.5937,-792 987.5937,-792 987.5937,-792 993.5937,-792 999.5937,-798 999.5937,-804 999.5937,-804 999.5937,-865 999.5937,-865 999.5937,-871 993.5937,-877 987.5937,-877"/>
<text text-anchor="middle" x="934.0937" y="-865" font-family="sans" font-size="10.00" fill="#000000">bowtie2</text>
<text text-anchor="middle" x="934.0937" y="-854" font-family="sans" font-size="10.00" fill="#000000">library: lib1</text>
<text text-anchor="middle" x="934.0937" y="-843" font-family="sans" font-size="10.00" fill="#000000">n_shard: 2</text>
<text text-anchor="middle" x="934.0937" y="-832" font-family="sans" font-size="10.00" fill="#000000">read_type_map: collapsed</text>
<text text-anchor="middle" x="934.0937" y="-821" font-family="sans" font-size="10.00" fill="#000000">ref: wgs_eukaryota</text>
<text text-anchor="middle" x="934.0937" y="-810" font-family="sans" font-size="10.00" fill="#000000">sample: HD827sonic_1</text>
<text text-anchor="middle" x="934.0937" y="-799" font-family="sans" font-size="10.00" fill="#000000">tot_shards: 2</text>
</g>
<!-- 5&#45;&gt;1 -->
<g id="edge11" class="edge">
<title>5&#45;&gt;1</title>
<path fill="none" stroke="#c0c0c0" stroke-width="2" d="M953.7415,-791.8505C967.3737,-758.3652 983.0937,-710.1747 983.0937,-666 983.0937,-666 983.0937,-666 983.0937,-234 983.0937,-152.4108 896.0914,-180.4434 823.0937,-144 794.5419,-129.7458 761.371,-115.3016 736.6763,-104.9431"/>
<polygon fill="#c0c0c0" stroke="#c0c0c0" stroke-width="2" points="737.8977,-101.6604 727.3208,-101.044 735.2048,-108.1217 737.8977,-101.6604"/>
</g>
<!-- 14 -->
<g id="node15" class="node">
<title>14</title>
<path fill="none" stroke="#5692d8" stroke-width="2" d="M943.0937,-756C943.0937,-756 863.0937,-756 863.0937,-756 857.0937,-756 851.0937,-750 851.0937,-744 851.0937,-744 851.0937,-732 851.0937,-732 851.0937,-726 857.0937,-720 863.0937,-720 863.0937,-720 943.0937,-720 943.0937,-720 949.0937,-720 955.0937,-726 955.0937,-732 955.0937,-732 955.0937,-744 955.0937,-744 955.0937,-750 949.0937,-756 943.0937,-756"/>
<text text-anchor="middle" x="903.0937" y="-735.5" font-family="sans" font-size="10.00" fill="#000000">shard_clean_header</text>
</g>
<!-- 5&#45;&gt;14 -->
<g id="edge31" class="edge">
<title>5&#45;&gt;14</title>
<path fill="none" stroke="#c0c0c0" stroke-width="2" d="M920.4064,-791.8928C917.5781,-783.0886 914.6682,-774.0302 912.0603,-765.9121"/>
<polygon fill="#c0c0c0" stroke="#c0c0c0" stroke-width="2" points="915.3382,-764.6721 908.9473,-756.2218 908.6736,-766.8131 915.3382,-764.6721"/>
</g>
<!-- 6 -->
<g id="node7" class="node">
<title>6</title>
<path fill="none" stroke="#70d856" stroke-width="2" d="M328.5937,-877C328.5937,-877 221.5937,-877 221.5937,-877 215.5937,-877 209.5937,-871 209.5937,-865 209.5937,-865 209.5937,-804 209.5937,-804 209.5937,-798 215.5937,-792 221.5937,-792 221.5937,-792 328.5937,-792 328.5937,-792 334.5937,-792 340.5937,-798 340.5937,-804 340.5937,-804 340.5937,-865 340.5937,-865 340.5937,-871 334.5937,-877 328.5937,-877"/>
<text text-anchor="middle" x="275.0937" y="-865" font-family="sans" font-size="10.00" fill="#000000">bowtie2</text>
<text text-anchor="middle" x="275.0937" y="-854" font-family="sans" font-size="10.00" fill="#000000">library: lib2</text>
<text text-anchor="middle" x="275.0937" y="-843" font-family="sans" font-size="10.00" fill="#000000">n_shard: 1</text>
<text text-anchor="middle" x="275.0937" y="-832" font-family="sans" font-size="10.00" fill="#000000">read_type_map: collapsed</text>
<text text-anchor="middle" x="275.0937" y="-821" font-family="sans" font-size="10.00" fill="#000000">ref: refseq_mitochondrion</text>
<text text-anchor="middle" x="275.0937" y="-810" font-family="sans" font-size="10.00" fill="#000000">sample: HD827sonic_2</text>
<text text-anchor="middle" x="275.0937" y="-799" font-family="sans" font-size="10.00" fill="#000000">tot_shards: 1</text>
</g>
<!-- 6&#45;&gt;1 -->
<g id="edge12" class="edge">
<title>6&#45;&gt;1</title>
<path fill="none" stroke="#c0c0c0" stroke-width="2" d="M300.388,-791.8465C315.9217,-768.3782 337.5251,-740.0421 362.0937,-720 390.7443,-696.6279 412.9358,-711.9912 437.0937,-684 550.7857,-552.2683 539.0937,-480.0089 539.0937,-306 539.0937,-306 539.0937,-306 539.0937,-234 539.0937,-187.8034 557.4002,-175.6049 591.0937,-144 611.7143,-124.6577 640.5767,-110.7778 663.4216,-101.9368"/>
<polygon fill="#c0c0c0" stroke="#c0c0c0" stroke-width="2" points="664.6451,-105.216 672.8023,-98.4551 662.2093,-98.6535 664.6451,-105.216"/>
</g>
<!-- 34 -->
<g id="node35" class="node">
<title>34</title>
<path fill="none" stroke="#5692d8" stroke-width="2" d="M303.0937,-756C303.0937,-756 223.0937,-756 223.0937,-756 217.0937,-756 211.0937,-750 211.0937,-744 211.0937,-744 211.0937,-732 211.0937,-732 211.0937,-726 217.0937,-720 223.0937,-720 223.0937,-720 303.0937,-720 303.0937,-720 309.0937,-720 315.0937,-726 315.0937,-732 315.0937,-732 315.0937,-744 315.0937,-744 315.0937,-750 309.0937,-756 303.0937,-756"/>
<text text-anchor="middle" x="263.0937" y="-735.5" font-family="sans" font-size="10.00" fill="#000000">shard_clean_header</text>
</g>
<!-- 6&#45;&gt;34 -->
<g id="edge55" class="edge">
<title>6&#45;&gt;34</title>
<path fill="none" stroke="#c0c0c0" stroke-width="2" d="M269.7954,-791.8928C268.7127,-783.1864 267.5992,-774.2315 266.5983,-766.183"/>
<polygon fill="#c0c0c0" stroke="#c0c0c0" stroke-width="2" points="270.067,-765.7134 265.3596,-756.2218 263.1205,-766.5773 270.067,-765.7134"/>
</g>
<!-- 7 -->
<g id="node8" class="node">
<title>7</title>
<path fill="none" stroke="#70d856" stroke-width="2" d="M482.5937,-877C482.5937,-877 375.5937,-877 375.5937,-877 369.5937,-877 363.5937,-871 363.5937,-865 363.5937,-865 363.5937,-804 363.5937,-804 363.5937,-798 369.5937,-792 375.5937,-792 375.5937,-792 482.5937,-792 482.5937,-792 488.5937,-792 494.5937,-798 494.5937,-804 494.5937,-804 494.5937,-865 494.5937,-865 494.5937,-871 488.5937,-877 482.5937,-877"/>
<text text-anchor="middle" x="429.0937" y="-865" font-family="sans" font-size="10.00" fill="#000000">bowtie2</text>
<text text-anchor="middle" x="429.0937" y="-854" font-family="sans" font-size="10.00" fill="#000000">library: lib2</text>
<text text-anchor="middle" x="429.0937" y="-843" font-family="sans" font-size="10.00" fill="#000000">n_shard: 1</text>
<text text-anchor="middle" x="429.0937" y="-832" font-family="sans" font-size="10.00" fill="#000000">read_type_map: collapsed</text>
<text text-anchor="middle" x="429.0937" y="-821" font-family="sans" font-size="10.00" fill="#000000">ref: wgs_eukaryota</text>
<text text-anchor="middle" x="429.0937" y="-810" font-family="sans" font-size="10.00" fill="#000000">sample: HD827sonic_2</text>
<text text-anchor="middle" x="429.0937" y="-799" font-family="sans" font-size="10.00" fill="#000000">tot_shards: 2</text>
</g>
<!-- 7&#45;&gt;1 -->
<g id="edge13" class="edge">
<title>7&#45;&gt;1</title>
<path fill="none" stroke="#c0c0c0" stroke-width="2" d="M463.5711,-791.9524C471.2845,-780.7783 478.7521,-768.3753 484.0937,-756 524.5604,-662.2474 577.0937,-408.1132 577.0937,-306 577.0937,-306 577.0937,-306 577.0937,-234 577.0937,-179.8197 628.0599,-135.7242 664.3776,-111.1803"/>
<polygon fill="#c0c0c0" stroke="#c0c0c0" stroke-width="2" points="666.3534,-114.0701 672.796,-105.6592 662.5145,-108.2167 666.3534,-114.0701"/>
</g>
<!-- 32 -->
<g id="node33" class="node">
<title>32</title>
<path fill="none" stroke="#5692d8" stroke-width="2" d="M463.0937,-756C463.0937,-756 383.0937,-756 383.0937,-756 377.0937,-756 371.0937,-750 371.0937,-744 371.0937,-744 371.0937,-732 371.0937,-732 371.0937,-726 377.0937,-720 383.0937,-720 383.0937,-720 463.0937,-720 463.0937,-720 469.0937,-720 475.0937,-726 475.0937,-732 475.0937,-732 475.0937,-744 475.0937,-744 475.0937,-750 469.0937,-756 463.0937,-756"/>
<text text-anchor="middle" x="423.0937" y="-735.5" font-family="sans" font-size="10.00" fill="#000000">shard_clean_header</text>
</g>
<!-- 7&#45;&gt;32 -->
<g id="edge53" class="edge">
<title>7&#45;&gt;32</title>
<path fill="none" stroke="#c0c0c0" stroke-width="2" d="M426.4446,-791.8928C425.9093,-783.2842 425.359,-774.4327 424.8629,-766.4546"/>
<polygon fill="#c0c0c0" stroke="#c0c0c0" stroke-width="2" points="428.3406,-765.9853 424.2267,-756.2218 421.3541,-766.4197 428.3406,-765.9853"/>
</g>
<!-- 8 -->
<g id="node9" class="node">
<title>8</title>
<path fill="none" stroke="#70d856" stroke-width="2" d="M1143.5937,-877C1143.5937,-877 1036.5937,-877 1036.5937,-877 1030.5937,-877 1024.5937,-871 1024.5937,-865 1024.5937,-865 1024.5937,-804 1024.5937,-804 1024.5937,-798 1030.5937,-792 1036.5937,-792 1036.5937,-792 1143.5937,-792 1143.5937,-792 1149.5937,-792 1155.5937,-798 1155.5937,-804 1155.5937,-804 1155.5937,-865 1155.5937,-865 1155.5937,-871 1149.5937,-877 1143.5937,-877"/>
<text text-anchor="middle" x="1090.0937" y="-865" font-family="sans" font-size="10.00" fill="#000000">bowtie2</text>
<text text-anchor="middle" x="1090.0937" y="-854" font-family="sans" font-size="10.00" fill="#000000">library: lib1</text>
<text text-anchor="middle" x="1090.0937" y="-843" font-family="sans" font-size="10.00" fill="#000000">n_shard: 1</text>
<text text-anchor="middle" x="1090.0937" y="-832" font-family="sans" font-size="10.00" fill="#000000">read_type_map: collapsed</text>
<text text-anchor="middle" x="1090.0937" y="-821" font-family="sans" font-size="10.00" fill="#000000">ref: refseq_mitochondrion</text>
<text text-anchor="middle" x="1090.0937" y="-810" font-family="sans" font-size="10.00" fill="#000000">sample: HD827sonic_2</text>
<text text-anchor="middle" x="1090.0937" y="-799" font-family="sans" font-size="10.00" fill="#000000">tot_shards: 1</text>
</g>
<!-- 8&#45;&gt;1 -->
<g id="edge14" class="edge">
<title>8&#45;&gt;1</title>
<path fill="none" stroke="#c0c0c0" stroke-width="2" d="M1058.878,-791.5906C1051.8627,-780.4254 1045.0406,-768.1173 1040.0937,-756 1024.6418,-718.151 1021.0937,-706.8816 1021.0937,-666 1021.0937,-666 1021.0937,-666 1021.0937,-234 1021.0937,-99.1552 873.7694,-148.3196 745.0937,-108 742.3838,-107.1509 739.6063,-106.2128 736.8261,-105.2239"/>
<polygon fill="#c0c0c0" stroke="#c0c0c0" stroke-width="2" points="738.0501,-101.945 727.4576,-101.722 735.5991,-108.5019 738.0501,-101.945"/>
</g>
<!-- 26 -->
<g id="node27" class="node">
<title>26</title>
<path fill="none" stroke="#5692d8" stroke-width="2" d="M1141.0937,-756C1141.0937,-756 1061.0937,-756 1061.0937,-756 1055.0937,-756 1049.0937,-750 1049.0937,-744 1049.0937,-744 1049.0937,-732 1049.0937,-732 1049.0937,-726 1055.0937,-720 1061.0937,-720 1061.0937,-720 1141.0937,-720 1141.0937,-720 1147.0937,-720 1153.0937,-726 1153.0937,-732 1153.0937,-732 1153.0937,-744 1153.0937,-744 1153.0937,-750 1147.0937,-756 1141.0937,-756"/>
<text text-anchor="middle" x="1101.0937" y="-735.5" font-family="sans" font-size="10.00" fill="#000000">shard_clean_header</text>
</g>
<!-- 8&#45;&gt;26 -->
<g id="edge45" class="edge">
<title>8&#45;&gt;26</title>
<path fill="none" stroke="#c0c0c0" stroke-width="2" d="M1094.9505,-791.8928C1095.9429,-783.1864 1096.9637,-774.2315 1097.8811,-766.183"/>
<polygon fill="#c0c0c0" stroke="#c0c0c0" stroke-width="2" points="1101.3614,-766.5539 1099.0166,-756.2218 1094.4065,-765.761 1101.3614,-766.5539"/>
</g>
<!-- 9 -->
<g id="node10" class="node">
<title>9</title>
<path fill="none" stroke="#70d856" stroke-width="2" d="M824.5937,-877C824.5937,-877 717.5937,-877 717.5937,-877 711.5937,-877 705.5937,-871 705.5937,-865 705.5937,-865 705.5937,-804 705.5937,-804 705.5937,-798 711.5937,-792 717.5937,-792 717.5937,-792 824.5937,-792 824.5937,-792 830.5937,-792 836.5937,-798 836.5937,-804 836.5937,-804 836.5937,-865 836.5937,-865 836.5937,-871 830.5937,-877 824.5937,-877"/>
<text text-anchor="middle" x="771.0937" y="-865" font-family="sans" font-size="10.00" fill="#000000">bowtie2</text>
<text text-anchor="middle" x="771.0937" y="-854" font-family="sans" font-size="10.00" fill="#000000">library: lib1</text>
<text text-anchor="middle" x="771.0937" y="-843" font-family="sans" font-size="10.00" fill="#000000">n_shard: 1</text>
<text text-anchor="middle" x="771.0937" y="-832" font-family="sans" font-size="10.00" fill="#000000">read_type_map: collapsed</text>
<text text-anchor="middle" x="771.0937" y="-821" font-family="sans" font-size="10.00" fill="#000000">ref: wgs_eukaryota</text>
<text text-anchor="middle" x="771.0937" y="-810" font-family="sans" font-size="10.00" fill="#000000">sample: HD827sonic_1</text>
<text text-anchor="middle" x="771.0937" y="-799" font-family="sans" font-size="10.00" fill="#000000">tot_shards: 2</text>
</g>
<!-- 9&#45;&gt;1 -->
<g id="edge15" class="edge">
<title>9&#45;&gt;1</title>
<path fill="none" stroke="#c0c0c0" stroke-width="2" d="M791.9445,-791.9728C806.4113,-758.5532 823.0937,-710.3915 823.0937,-666 823.0937,-666 823.0937,-666 823.0937,-234 823.0937,-192.6022 824.672,-176.5504 799.0937,-144 790.5127,-133.0799 761.0363,-117.6783 736.4605,-106.1164"/>
<polygon fill="#c0c0c0" stroke="#c0c0c0" stroke-width="2" points="737.8803,-102.9168 727.3353,-101.8905 734.9387,-109.2688 737.8803,-102.9168"/>
</g>
<!-- 16 -->
<g id="node17" class="node">
<title>16</title>
<path fill="none" stroke="#5692d8" stroke-width="2" d="M745.0937,-756C745.0937,-756 665.0937,-756 665.0937,-756 659.0937,-756 653.0937,-750 653.0937,-744 653.0937,-744 653.0937,-732 653.0937,-732 653.0937,-726 659.0937,-720 665.0937,-720 665.0937,-720 745.0937,-720 745.0937,-720 751.0937,-720 757.0937,-726 757.0937,-732 757.0937,-732 757.0937,-744 757.0937,-744 757.0937,-750 751.0937,-756 745.0937,-756"/>
<text text-anchor="middle" x="705.0937" y="-735.5" font-family="sans" font-size="10.00" fill="#000000">shard_clean_header</text>
</g>
<!-- 9&#45;&gt;16 -->
<g id="edge33" class="edge">
<title>9&#45;&gt;16</title>
<path fill="none" stroke="#c0c0c0" stroke-width="2" d="M741.953,-791.8928C735.5969,-782.5994 729.0472,-773.0229 723.2645,-764.5679"/>
<polygon fill="#c0c0c0" stroke="#c0c0c0" stroke-width="2" points="726.0906,-762.5001 717.5563,-756.2218 720.3127,-766.4518 726.0906,-762.5001"/>
</g>
<!-- 10 -->
<g id="node11" class="node">
<title>10</title>
<path fill="none" stroke="#70d856" stroke-width="2" d="M1446.5937,-877C1446.5937,-877 1339.5937,-877 1339.5937,-877 1333.5937,-877 1327.5937,-871 1327.5937,-865 1327.5937,-865 1327.5937,-804 1327.5937,-804 1327.5937,-798 1333.5937,-792 1339.5937,-792 1339.5937,-792 1446.5937,-792 1446.5937,-792 1452.5937,-792 1458.5937,-798 1458.5937,-804 1458.5937,-804 1458.5937,-865 1458.5937,-865 1458.5937,-871 1452.5937,-877 1446.5937,-877"/>
<text text-anchor="middle" x="1393.0937" y="-865" font-family="sans" font-size="10.00" fill="#000000">bowtie2</text>
<text text-anchor="middle" x="1393.0937" y="-854" font-family="sans" font-size="10.00" fill="#000000">library: lib1</text>
<text text-anchor="middle" x="1393.0937" y="-843" font-family="sans" font-size="10.00" fill="#000000">n_shard: 2</text>
<text text-anchor="middle" x="1393.0937" y="-832" font-family="sans" font-size="10.00" fill="#000000">read_type_map: collapsed</text>
<text text-anchor="middle" x="1393.0937" y="-821" font-family="sans" font-size="10.00" fill="#000000">ref: wgs_eukaryota</text>
<text text-anchor="middle" x="1393.0937" y="-810" font-family="sans" font-size="10.00" fill="#000000">sample: HD827sonic_2</text>
<text text-anchor="middle" x="1393.0937" y="-799" font-family="sans" font-size="10.00" fill="#000000">tot_shards: 2</text>
</g>
<!-- 10&#45;&gt;1 -->
<g id="edge16" class="edge">
<title>10&#45;&gt;1</title>
<path fill="none" stroke="#c0c0c0" stroke-width="2" d="M1424.9552,-791.6577C1432.1103,-780.4909 1439.0632,-768.1652 1444.0937,-756 1459.7159,-718.221 1463.0937,-706.8816 1463.0937,-666 1463.0937,-666 1463.0937,-666 1463.0937,-234 1463.0937,-142.5643 1366.1441,-168.6501 1278.0937,-144 1175.4946,-115.2769 848.1107,-97.1647 737.2238,-91.7286"/>
<polygon fill="#c0c0c0" stroke="#c0c0c0" stroke-width="2" points="737.3412,-88.2303 727.1835,-91.2422 737.0024,-95.2221 737.3412,-88.2303"/>
</g>
<!-- 22 -->
<g id="node23" class="node">
<title>22</title>
<path fill="none" stroke="#5692d8" stroke-width="2" d="M1423.0937,-756C1423.0937,-756 1343.0937,-756 1343.0937,-756 1337.0937,-756 1331.0937,-750 1331.0937,-744 1331.0937,-744 1331.0937,-732 1331.0937,-732 1331.0937,-726 1337.0937,-720 1343.0937,-720 1343.0937,-720 1423.0937,-720 1423.0937,-720 1429.0937,-720 1435.0937,-726 1435.0937,-732 1435.0937,-732 1435.0937,-744 1435.0937,-744 1435.0937,-750 1429.0937,-756 1423.0937,-756"/>
<text text-anchor="middle" x="1383.0937" y="-735.5" font-family="sans" font-size="10.00" fill="#000000">shard_clean_header</text>
</g>
<!-- 10&#45;&gt;22 -->
<g id="edge41" class="edge">
<title>10&#45;&gt;22</title>
<path fill="none" stroke="#c0c0c0" stroke-width="2" d="M1388.6785,-791.8928C1387.7762,-783.1864 1386.8483,-774.2315 1386.0142,-766.183"/>
<polygon fill="#c0c0c0" stroke="#c0c0c0" stroke-width="2" points="1389.4942,-765.8077 1384.982,-756.2218 1382.5315,-766.5293 1389.4942,-765.8077"/>
</g>
<!-- 11 -->
<g id="node12" class="node">
<title>11</title>
<path fill="none" stroke="#afd856" stroke-width="2" d="M720.0937,-252C720.0937,-252 680.0937,-252 680.0937,-252 674.0937,-252 668.0937,-246 668.0937,-240 668.0937,-240 668.0937,-228 668.0937,-228 668.0937,-222 674.0937,-216 680.0937,-216 680.0937,-216 720.0937,-216 720.0937,-216 726.0937,-216 732.0937,-222 732.0937,-228 732.0937,-228 732.0937,-240 732.0937,-240 732.0937,-246 726.0937,-252 720.0937,-252"/>
<text text-anchor="middle" x="700.0937" y="-231.5" font-family="sans" font-size="10.00" fill="#000000">align_stats</text>
</g>
<!-- 11&#45;&gt;1 -->
<g id="edge17" class="edge">
<title>11&#45;&gt;1</title>
<path fill="none" stroke="#c0c0c0" stroke-width="2" d="M700.0937,-215.7623C700.0937,-191.201 700.0937,-147.2474 700.0937,-118.3541"/>
<polygon fill="#c0c0c0" stroke="#c0c0c0" stroke-width="2" points="703.5938,-118.0896 700.0937,-108.0896 696.5938,-118.0897 703.5938,-118.0896"/>
</g>
<!-- 12 -->
<g id="node13" class="node">
<title>12</title>
<path fill="none" stroke="#d88d56" stroke-width="2" d="M722.5937,-612C722.5937,-612 677.5937,-612 677.5937,-612 671.5937,-612 665.5937,-606 665.5937,-600 665.5937,-600 665.5937,-588 665.5937,-588 665.5937,-582 671.5937,-576 677.5937,-576 677.5937,-576 722.5937,-576 722.5937,-576 728.5937,-576 734.5937,-582 734.5937,-588 734.5937,-588 734.5937,-600 734.5937,-600 734.5937,-606 728.5937,-612 722.5937,-612"/>
<text text-anchor="middle" x="700.0937" y="-591.5" font-family="sans" font-size="10.00" fill="#000000">align_merge</text>
</g>
<!-- 12&#45;&gt;11 -->
<g id="edge26" class="edge">
<title>12&#45;&gt;11</title>
<path fill="none" stroke="#c0c0c0" stroke-width="2" d="M700.0937,-575.8146C700.0937,-548.4983 700.0937,-495.25 700.0937,-450 700.0937,-450 700.0937,-450 700.0937,-378 700.0937,-337.876 700.0937,-291.4631 700.0937,-262.4177"/>
<polygon fill="#c0c0c0" stroke="#c0c0c0" stroke-width="2" points="703.5938,-262.1853 700.0937,-252.1854 696.5938,-262.1854 703.5938,-262.1853"/>
</g>
<!-- 39 -->
<g id="node40" class="node">
<title>39</title>
<path fill="none" stroke="#d8cb56" stroke-width="2" d="M648.0937,-540C648.0937,-540 584.0937,-540 584.0937,-540 578.0937,-540 572.0937,-534 572.0937,-528 572.0937,-528 572.0937,-516 572.0937,-516 572.0937,-510 578.0937,-504 584.0937,-504 584.0937,-504 648.0937,-504 648.0937,-504 654.0937,-504 660.0937,-510 660.0937,-516 660.0937,-516 660.0937,-528 660.0937,-528 660.0937,-534 654.0937,-540 648.0937,-540"/>
<text text-anchor="middle" x="616.0937" y="-519.5" font-family="sans" font-size="10.00" fill="#000000">align_sort_coord</text>
</g>
<!-- 12&#45;&gt;39 -->
<g id="edge60" class="edge">
<title>12&#45;&gt;39</title>
<path fill="none" stroke="#c0c0c0" stroke-width="2" d="M678.897,-575.8314C668.6503,-567.0485 656.1934,-556.3712 645.084,-546.8489"/>
<polygon fill="#c0c0c0" stroke="#c0c0c0" stroke-width="2" points="647.154,-544.0134 637.2837,-540.1628 642.5985,-549.3282 647.154,-544.0134"/>
</g>
<!-- 13 -->
<g id="node14" class="node">
<title>13</title>
<path fill="none" stroke="#5673d8" stroke-width="2" d="M934.0937,-684C934.0937,-684 866.0937,-684 866.0937,-684 860.0937,-684 854.0937,-678 854.0937,-672 854.0937,-672 854.0937,-660 854.0937,-660 854.0937,-654 860.0937,-648 866.0937,-648 866.0937,-648 934.0937,-648 934.0937,-648 940.0937,-648 946.0937,-654 946.0937,-660 946.0937,-660 946.0937,-672 946.0937,-672 946.0937,-678 940.0937,-684 934.0937,-684"/>
<text text-anchor="middle" x="900.0937" y="-663.5" font-family="sans" font-size="10.00" fill="#000000">shard_sort_query</text>
</g>
<!-- 13&#45;&gt;12 -->
<g id="edge27" class="edge">
<title>13&#45;&gt;12</title>
<path fill="none" stroke="#c0c0c0" stroke-width="2" d="M853.9585,-649.3913C821.0266,-637.5358 776.9857,-621.6811 744.4611,-609.9722"/>
<polygon fill="#c0c0c0" stroke="#c0c0c0" stroke-width="2" points="745.3564,-606.5747 734.762,-606.4806 742.9853,-613.1609 745.3564,-606.5747"/>
</g>
<!-- 14&#45;&gt;13 -->
<g id="edge30" class="edge">
<title>14&#45;&gt;13</title>
<path fill="none" stroke="#c0c0c0" stroke-width="2" d="M902.3367,-719.8314C902.0158,-712.131 901.6343,-702.9743 901.2777,-694.4166"/>
<polygon fill="#c0c0c0" stroke="#c0c0c0" stroke-width="2" points="904.7743,-694.2589 900.8609,-684.4133 897.7804,-694.5503 904.7743,-694.2589"/>
</g>
<!-- 15 -->
<g id="node16" class="node">
<title>15</title>
<path fill="none" stroke="#5673d8" stroke-width="2" d="M736.0937,-684C736.0937,-684 668.0937,-684 668.0937,-684 662.0937,-684 656.0937,-678 656.0937,-672 656.0937,-672 656.0937,-660 656.0937,-660 656.0937,-654 662.0937,-648 668.0937,-648 668.0937,-648 736.0937,-648 736.0937,-648 742.0937,-648 748.0937,-654 748.0937,-660 748.0937,-660 748.0937,-672 748.0937,-672 748.0937,-678 742.0937,-684 736.0937,-684"/>
<text text-anchor="middle" x="702.0937" y="-663.5" font-family="sans" font-size="10.00" fill="#000000">shard_sort_query</text>
</g>
<!-- 15&#45;&gt;12 -->
<g id="edge28" class="edge">
<title>15&#45;&gt;12</title>
<path fill="none" stroke="#c0c0c0" stroke-width="2" d="M701.589,-647.8314C701.3751,-640.131 701.1208,-630.9743 700.8831,-622.4166"/>
<polygon fill="#c0c0c0" stroke="#c0c0c0" stroke-width="2" points="704.3816,-622.3122 700.6052,-612.4133 697.3843,-622.5066 704.3816,-622.3122"/>
</g>
<!-- 16&#45;&gt;15 -->
<g id="edge32" class="edge">
<title>16&#45;&gt;15</title>
<path fill="none" stroke="#c0c0c0" stroke-width="2" d="M704.3367,-719.8314C704.0158,-712.131 703.6343,-702.9743 703.2777,-694.4166"/>
<polygon fill="#c0c0c0" stroke="#c0c0c0" stroke-width="2" points="706.7743,-694.2589 702.8609,-684.4133 699.7804,-694.5503 706.7743,-694.2589"/>
</g>
<!-- 17 -->
<g id="node18" class="node">
<title>17</title>
<path fill="none" stroke="#5673d8" stroke-width="2" d="M621.0937,-684C621.0937,-684 553.0937,-684 553.0937,-684 547.0937,-684 541.0937,-678 541.0937,-672 541.0937,-672 541.0937,-660 541.0937,-660 541.0937,-654 547.0937,-648 553.0937,-648 553.0937,-648 621.0937,-648 621.0937,-648 627.0937,-648 633.0937,-654 633.0937,-660 633.0937,-660 633.0937,-672 633.0937,-672 633.0937,-678 627.0937,-684 621.0937,-684"/>
<text text-anchor="middle" x="587.0937" y="-663.5" font-family="sans" font-size="10.00" fill="#000000">shard_sort_query</text>
</g>
<!-- 17&#45;&gt;12 -->
<g id="edge29" class="edge">
<title>17&#45;&gt;12</title>
<path fill="none" stroke="#c0c0c0" stroke-width="2" d="M615.6084,-647.8314C629.9279,-638.7074 647.4561,-627.539 662.8275,-617.7449"/>
<polygon fill="#c0c0c0" stroke="#c0c0c0" stroke-width="2" points="665.0354,-620.4882 671.5882,-612.1628 661.2738,-614.5847 665.0354,-620.4882"/>
</g>
<!-- 18&#45;&gt;17 -->
<g id="edge34" class="edge">
<title>18&#45;&gt;17</title>
<path fill="none" stroke="#c0c0c0" stroke-width="2" d="M584.1031,-719.8314C584.5309,-712.131 585.0396,-702.9743 585.515,-694.4166"/>
<polygon fill="#c0c0c0" stroke="#c0c0c0" stroke-width="2" points="589.0106,-694.592 586.0707,-684.4133 582.0213,-694.2037 589.0106,-694.592"/>
</g>
<!-- 19 -->
<g id="node20" class="node">
<title>19</title>
<path fill="none" stroke="#afd856" stroke-width="2" d="M1156.0937,-396C1156.0937,-396 1116.0937,-396 1116.0937,-396 1110.0937,-396 1104.0937,-390 1104.0937,-384 1104.0937,-384 1104.0937,-372 1104.0937,-372 1104.0937,-366 1110.0937,-360 1116.0937,-360 1116.0937,-360 1156.0937,-360 1156.0937,-360 1162.0937,-360 1168.0937,-366 1168.0937,-372 1168.0937,-372 1168.0937,-384 1168.0937,-384 1168.0937,-390 1162.0937,-396 1156.0937,-396"/>
<text text-anchor="middle" x="1136.0937" y="-375.5" font-family="sans" font-size="10.00" fill="#000000">align_stats</text>
</g>
<!-- 19&#45;&gt;1 -->
<g id="edge18" class="edge">
<title>19&#45;&gt;1</title>
<path fill="none" stroke="#c0c0c0" stroke-width="2" d="M1133.8314,-359.7692C1127.2421,-309.8116 1106.3963,-172.5413 1073.0937,-144 1017.4168,-96.2834 816.2321,-125.7796 745.0937,-108 742.4305,-107.3344 739.7152,-106.5461 737.0043,-105.6771"/>
<polygon fill="#c0c0c0" stroke="#c0c0c0" stroke-width="2" points="737.903,-102.2827 727.3082,-102.2528 735.5719,-108.8832 737.903,-102.2827"/>
</g>
<!-- 20 -->
<g id="node21" class="node">
<title>20</title>
<path fill="none" stroke="#d88d56" stroke-width="2" d="M1264.5937,-612C1264.5937,-612 1219.5937,-612 1219.5937,-612 1213.5937,-612 1207.5937,-606 1207.5937,-600 1207.5937,-600 1207.5937,-588 1207.5937,-588 1207.5937,-582 1213.5937,-576 1219.5937,-576 1219.5937,-576 1264.5937,-576 1264.5937,-576 1270.5937,-576 1276.5937,-582 1276.5937,-588 1276.5937,-588 1276.5937,-600 1276.5937,-600 1276.5937,-606 1270.5937,-612 1264.5937,-612"/>
<text text-anchor="middle" x="1242.0937" y="-591.5" font-family="sans" font-size="10.00" fill="#000000">align_merge</text>
</g>
<!-- 20&#45;&gt;19 -->
<g id="edge36" class="edge">
<title>20&#45;&gt;19</title>
<path fill="none" stroke="#c0c0c0" stroke-width="2" d="M1220.0444,-575.8772C1209.4379,-566.1776 1197.2807,-553.4705 1189.0937,-540 1163.0212,-497.1018 1148.2298,-439.9205 1141.2174,-406.223"/>
<polygon fill="#c0c0c0" stroke="#c0c0c0" stroke-width="2" points="1144.5979,-405.2776 1139.2096,-396.1553 1137.7331,-406.6467 1144.5979,-405.2776"/>
</g>
<!-- 44 -->
<g id="node45" class="node">
<title>44</title>
<path fill="none" stroke="#d8cb56" stroke-width="2" d="M1274.0937,-540C1274.0937,-540 1210.0937,-540 1210.0937,-540 1204.0937,-540 1198.0937,-534 1198.0937,-528 1198.0937,-528 1198.0937,-516 1198.0937,-516 1198.0937,-510 1204.0937,-504 1210.0937,-504 1210.0937,-504 1274.0937,-504 1274.0937,-504 1280.0937,-504 1286.0937,-510 1286.0937,-516 1286.0937,-516 1286.0937,-528 1286.0937,-528 1286.0937,-534 1280.0937,-540 1274.0937,-540"/>
<text text-anchor="middle" x="1242.0937" y="-519.5" font-family="sans" font-size="10.00" fill="#000000">align_sort_coord</text>
</g>
<!-- 20&#45;&gt;44 -->
<g id="edge65" class="edge">
<title>20&#45;&gt;44</title>
<path fill="none" stroke="#c0c0c0" stroke-width="2" d="M1242.0937,-575.8314C1242.0937,-568.131 1242.0937,-558.9743 1242.0937,-550.4166"/>
<polygon fill="#c0c0c0" stroke="#c0c0c0" stroke-width="2" points="1245.5938,-550.4132 1242.0937,-540.4133 1238.5938,-550.4133 1245.5938,-550.4132"/>
</g>
<!-- 21 -->
<g id="node22" class="node">
<title>21</title>
<path fill="none" stroke="#5673d8" stroke-width="2" d="M1409.0937,-684C1409.0937,-684 1341.0937,-684 1341.0937,-684 1335.0937,-684 1329.0937,-678 1329.0937,-672 1329.0937,-672 1329.0937,-660 1329.0937,-660 1329.0937,-654 1335.0937,-648 1341.0937,-648 1341.0937,-648 1409.0937,-648 1409.0937,-648 1415.0937,-648 1421.0937,-654 1421.0937,-660 1421.0937,-660 1421.0937,-672 1421.0937,-672 1421.0937,-678 1415.0937,-684 1409.0937,-684"/>
<text text-anchor="middle" x="1375.0937" y="-663.5" font-family="sans" font-size="10.00" fill="#000000">shard_sort_query</text>
</g>
<!-- 21&#45;&gt;20 -->
<g id="edge37" class="edge">
<title>21&#45;&gt;20</title>
<path fill="none" stroke="#c0c0c0" stroke-width="2" d="M1341.5322,-647.8314C1324.2056,-638.4516 1302.8879,-626.9112 1284.4401,-616.9244"/>
<polygon fill="#c0c0c0" stroke="#c0c0c0" stroke-width="2" points="1286.1048,-613.8457 1275.6445,-612.1628 1282.7723,-620.0015 1286.1048,-613.8457"/>
</g>
<!-- 22&#45;&gt;21 -->
<g id="edge40" class="edge">
<title>22&#45;&gt;21</title>
<path fill="none" stroke="#c0c0c0" stroke-width="2" d="M1381.075,-719.8314C1380.2194,-712.131 1379.202,-702.9743 1378.2511,-694.4166"/>
<polygon fill="#c0c0c0" stroke="#c0c0c0" stroke-width="2" points="1381.7226,-693.9656 1377.1396,-684.4133 1374.7654,-694.7386 1381.7226,-693.9656"/>
</g>
<!-- 23 -->
<g id="node24" class="node">
<title>23</title>
<path fill="none" stroke="#5673d8" stroke-width="2" d="M1291.0937,-684C1291.0937,-684 1223.0937,-684 1223.0937,-684 1217.0937,-684 1211.0937,-678 1211.0937,-672 1211.0937,-672 1211.0937,-660 1211.0937,-660 1211.0937,-654 1217.0937,-648 1223.0937,-648 1223.0937,-648 1291.0937,-648 1291.0937,-648 1297.0937,-648 1303.0937,-654 1303.0937,-660 1303.0937,-660 1303.0937,-672 1303.0937,-672 1303.0937,-678 1297.0937,-684 1291.0937,-684"/>
<text text-anchor="middle" x="1257.0937" y="-663.5" font-family="sans" font-size="10.00" fill="#000000">shard_sort_query</text>
</g>
<!-- 23&#45;&gt;20 -->
<g id="edge38" class="edge">
<title>23&#45;&gt;20</title>
<path fill="none" stroke="#c0c0c0" stroke-width="2" d="M1253.3086,-647.8314C1251.7043,-640.131 1249.7967,-630.9743 1248.0138,-622.4166"/>
<polygon fill="#c0c0c0" stroke="#c0c0c0" stroke-width="2" points="1251.3959,-621.4892 1245.9298,-612.4133 1244.543,-622.9169 1251.3959,-621.4892"/>
</g>
<!-- 24&#45;&gt;23 -->
<g id="edge42" class="edge">
<title>24&#45;&gt;23</title>
<path fill="none" stroke="#c0c0c0" stroke-width="2" d="M1260.0843,-719.8314C1259.6565,-712.131 1259.1478,-702.9743 1258.6724,-694.4166"/>
<polygon fill="#c0c0c0" stroke="#c0c0c0" stroke-width="2" points="1262.1661,-694.2037 1258.1167,-684.4133 1255.1768,-694.592 1262.1661,-694.2037"/>
</g>
<!-- 25 -->
<g id="node26" class="node">
<title>25</title>
<path fill="none" stroke="#5673d8" stroke-width="2" d="M1180.0937,-684C1180.0937,-684 1112.0937,-684 1112.0937,-684 1106.0937,-684 1100.0937,-678 1100.0937,-672 1100.0937,-672 1100.0937,-660 1100.0937,-660 1100.0937,-654 1106.0937,-648 1112.0937,-648 1112.0937,-648 1180.0937,-648 1180.0937,-648 1186.0937,-648 1192.0937,-654 1192.0937,-660 1192.0937,-660 1192.0937,-672 1192.0937,-672 1192.0937,-678 1186.0937,-684 1180.0937,-684"/>
<text text-anchor="middle" x="1146.0937" y="-663.5" font-family="sans" font-size="10.00" fill="#000000">shard_sort_query</text>
</g>
<!-- 25&#45;&gt;20 -->
<g id="edge39" class="edge">
<title>25&#45;&gt;20</title>
<path fill="none" stroke="#c0c0c0" stroke-width="2" d="M1170.3186,-647.8314C1182.2565,-638.8779 1196.8193,-627.9558 1209.6997,-618.2955"/>
<polygon fill="#c0c0c0" stroke="#c0c0c0" stroke-width="2" points="1211.9766,-620.9629 1217.8766,-612.1628 1207.7766,-615.3629 1211.9766,-620.9629"/>
</g>
<!-- 26&#45;&gt;25 -->
<g id="edge44" class="edge">
<title>26&#45;&gt;25</title>
<path fill="none" stroke="#c0c0c0" stroke-width="2" d="M1112.4491,-719.8314C1117.5263,-711.7079 1123.6164,-701.9637 1129.2113,-693.0118"/>
<polygon fill="#c0c0c0" stroke="#c0c0c0" stroke-width="2" points="1132.2534,-694.7483 1134.5854,-684.4133 1126.3174,-691.0383 1132.2534,-694.7483"/>
</g>
<!-- 27 -->
<g id="node28" class="node">
<title>27</title>
<path fill="none" stroke="#afd856" stroke-width="2" d="M483.0937,-468C483.0937,-468 443.0937,-468 443.0937,-468 437.0937,-468 431.0937,-462 431.0937,-456 431.0937,-456 431.0937,-444 431.0937,-444 431.0937,-438 437.0937,-432 443.0937,-432 443.0937,-432 483.0937,-432 483.0937,-432 489.0937,-432 495.0937,-438 495.0937,-444 495.0937,-444 495.0937,-456 495.0937,-456 495.0937,-462 489.0937,-468 483.0937,-468"/>
<text text-anchor="middle" x="463.0937" y="-447.5" font-family="sans" font-size="10.00" fill="#000000">align_stats</text>
</g>
<!-- 27&#45;&gt;1 -->
<g id="edge19" class="edge">
<title>27&#45;&gt;1</title>
<path fill="none" stroke="#c0c0c0" stroke-width="2" d="M471.1525,-431.7668C482.3071,-404.8248 501.0937,-352.5405 501.0937,-306 501.0937,-306 501.0937,-306 501.0937,-234 501.0937,-192.6022 496.3929,-173.8336 525.0937,-144 544.1639,-124.1772 617.396,-106.4825 662.866,-97.0943"/>
<polygon fill="#c0c0c0" stroke="#c0c0c0" stroke-width="2" points="663.8403,-100.4682 672.9476,-95.0545 662.4521,-93.6072 663.8403,-100.4682"/>
</g>
<!-- 28 -->
<g id="node29" class="node">
<title>28</title>
<path fill="none" stroke="#d88d56" stroke-width="2" d="M285.5937,-612C285.5937,-612 240.5937,-612 240.5937,-612 234.5937,-612 228.5937,-606 228.5937,-600 228.5937,-600 228.5937,-588 228.5937,-588 228.5937,-582 234.5937,-576 240.5937,-576 240.5937,-576 285.5937,-576 285.5937,-576 291.5937,-576 297.5937,-582 297.5937,-588 297.5937,-588 297.5937,-600 297.5937,-600 297.5937,-606 291.5937,-612 285.5937,-612"/>
<text text-anchor="middle" x="263.0937" y="-591.5" font-family="sans" font-size="10.00" fill="#000000">align_merge</text>
</g>
<!-- 28&#45;&gt;27 -->
<g id="edge46" class="edge">
<title>28&#45;&gt;27</title>
<path fill="none" stroke="#c0c0c0" stroke-width="2" d="M288.4238,-575.7623C324.2649,-549.9567 389.8379,-502.7442 429.6448,-474.0832"/>
<polygon fill="#c0c0c0" stroke="#c0c0c0" stroke-width="2" points="431.899,-476.7731 437.9692,-468.0896 427.8088,-471.0923 431.899,-476.7731"/>
</g>
<!-- 49 -->
<g id="node50" class="node">
<title>49</title>
<path fill="none" stroke="#d8cb56" stroke-width="2" d="M281.0937,-540C281.0937,-540 217.0937,-540 217.0937,-540 211.0937,-540 205.0937,-534 205.0937,-528 205.0937,-528 205.0937,-516 205.0937,-516 205.0937,-510 211.0937,-504 217.0937,-504 217.0937,-504 281.0937,-504 281.0937,-504 287.0937,-504 293.0937,-510 293.0937,-516 293.0937,-516 293.0937,-528 293.0937,-528 293.0937,-534 287.0937,-540 281.0937,-540"/>
<text text-anchor="middle" x="249.0937" y="-519.5" font-family="sans" font-size="10.00" fill="#000000">align_sort_coord</text>
</g>
<!-- 28&#45;&gt;49 -->
<g id="edge70" class="edge">
<title>28&#45;&gt;49</title>
<path fill="none" stroke="#c0c0c0" stroke-width="2" d="M259.5609,-575.8314C258.0636,-568.131 256.2832,-558.9743 254.6192,-550.4166"/>
<polygon fill="#c0c0c0" stroke="#c0c0c0" stroke-width="2" points="258.0185,-549.5614 252.6741,-540.4133 251.1472,-550.8975 258.0185,-549.5614"/>
</g>
<!-- 29 -->
<g id="node30" class="node">
<title>29</title>
<path fill="none" stroke="#5673d8" stroke-width="2" d="M181.0937,-684C181.0937,-684 113.0937,-684 113.0937,-684 107.0937,-684 101.0937,-678 101.0937,-672 101.0937,-672 101.0937,-660 101.0937,-660 101.0937,-654 107.0937,-648 113.0937,-648 113.0937,-648 181.0937,-648 181.0937,-648 187.0937,-648 193.0937,-654 193.0937,-660 193.0937,-660 193.0937,-672 193.0937,-672 193.0937,-678 187.0937,-684 181.0937,-684"/>
<text text-anchor="middle" x="147.0937" y="-663.5" font-family="sans" font-size="10.00" fill="#000000">shard_sort_query</text>
</g>
<!-- 29&#45;&gt;28 -->
<g id="edge47" class="edge">
<title>29&#45;&gt;28</title>
<path fill="none" stroke="#c0c0c0" stroke-width="2" d="M176.3654,-647.8314C191.2025,-638.6221 209.3952,-627.3301 225.2799,-617.4706"/>
<polygon fill="#c0c0c0" stroke="#c0c0c0" stroke-width="2" points="227.1807,-620.4102 233.8314,-612.1628 223.4892,-614.4628 227.1807,-620.4102"/>
</g>
<!-- 30&#45;&gt;29 -->
<g id="edge50" class="edge">
<title>30&#45;&gt;29</title>
<path fill="none" stroke="#c0c0c0" stroke-width="2" d="M142.6078,-719.8314C143.2495,-712.131 144.0125,-702.9743 144.7257,-694.4166"/>
<polygon fill="#c0c0c0" stroke="#c0c0c0" stroke-width="2" points="148.2166,-694.6694 145.5593,-684.4133 141.2408,-694.088 148.2166,-694.6694"/>
</g>
<!-- 31 -->
<g id="node32" class="node">
<title>31</title>
<path fill="none" stroke="#5673d8" stroke-width="2" d="M416.0937,-684C416.0937,-684 348.0937,-684 348.0937,-684 342.0937,-684 336.0937,-678 336.0937,-672 336.0937,-672 336.0937,-660 336.0937,-660 336.0937,-654 342.0937,-648 348.0937,-648 348.0937,-648 416.0937,-648 416.0937,-648 422.0937,-648 428.0937,-654 428.0937,-660 428.0937,-660 428.0937,-672 428.0937,-672 428.0937,-678 422.0937,-684 416.0937,-684"/>
<text text-anchor="middle" x="382.0937" y="-663.5" font-family="sans" font-size="10.00" fill="#000000">shard_sort_query</text>
</g>
<!-- 31&#45;&gt;28 -->
<g id="edge48" class="edge">
<title>31&#45;&gt;28</title>
<path fill="none" stroke="#c0c0c0" stroke-width="2" d="M352.065,-647.8314C336.8442,-638.6221 318.181,-627.3301 301.8854,-617.4706"/>
<polygon fill="#c0c0c0" stroke="#c0c0c0" stroke-width="2" points="303.4805,-614.345 293.1128,-612.1628 299.8568,-620.3341 303.4805,-614.345"/>
</g>
<!-- 32&#45;&gt;31 -->
<g id="edge52" class="edge">
<title>32&#45;&gt;31</title>
<path fill="none" stroke="#c0c0c0" stroke-width="2" d="M412.7477,-719.8314C408.17,-711.7925 402.6886,-702.1666 397.6349,-693.2918"/>
<polygon fill="#c0c0c0" stroke="#c0c0c0" stroke-width="2" points="400.5689,-691.3712 392.579,-684.4133 394.486,-694.8351 400.5689,-691.3712"/>
</g>
<!-- 33 -->
<g id="node34" class="node">
<title>33</title>
<path fill="none" stroke="#5673d8" stroke-width="2" d="M297.0937,-684C297.0937,-684 229.0937,-684 229.0937,-684 223.0937,-684 217.0937,-678 217.0937,-672 217.0937,-672 217.0937,-660 217.0937,-660 217.0937,-654 223.0937,-648 229.0937,-648 229.0937,-648 297.0937,-648 297.0937,-648 303.0937,-648 309.0937,-654 309.0937,-660 309.0937,-660 309.0937,-672 309.0937,-672 309.0937,-678 303.0937,-684 297.0937,-684"/>
<text text-anchor="middle" x="263.0937" y="-663.5" font-family="sans" font-size="10.00" fill="#000000">shard_sort_query</text>
</g>
<!-- 33&#45;&gt;28 -->
<g id="edge49" class="edge">
<title>33&#45;&gt;28</title>
<path fill="none" stroke="#c0c0c0" stroke-width="2" d="M263.0937,-647.8314C263.0937,-640.131 263.0937,-630.9743 263.0937,-622.4166"/>
<polygon fill="#c0c0c0" stroke="#c0c0c0" stroke-width="2" points="266.5938,-622.4132 263.0937,-612.4133 259.5938,-622.4133 266.5938,-622.4132"/>
</g>
<!-- 34&#45;&gt;33 -->
<g id="edge54" class="edge">
<title>34&#45;&gt;33</title>
<path fill="none" stroke="#c0c0c0" stroke-width="2" d="M263.0937,-719.8314C263.0937,-712.131 263.0937,-702.9743 263.0937,-694.4166"/>
<polygon fill="#c0c0c0" stroke="#c0c0c0" stroke-width="2" points="266.5938,-694.4132 263.0937,-684.4133 259.5938,-694.4133 266.5938,-694.4132"/>
</g>
<!-- 35 -->
<g id="node36" class="node">
<title>35</title>
<path fill="none" stroke="#56d8c9" stroke-width="2" d="M461.0937,-252C461.0937,-252 409.0937,-252 409.0937,-252 403.0937,-252 397.0937,-246 397.0937,-240 397.0937,-240 397.0937,-228 397.0937,-228 397.0937,-222 403.0937,-216 409.0937,-216 409.0937,-216 461.0937,-216 461.0937,-216 467.0937,-216 473.0937,-222 473.0937,-228 473.0937,-228 473.0937,-240 473.0937,-240 473.0937,-246 467.0937,-252 461.0937,-252"/>
<text text-anchor="middle" x="435.0937" y="-231.5" font-family="sans" font-size="10.00" fill="#000000">metadmg_dfit</text>
</g>
<!-- 35&#45;&gt;1 -->
<g id="edge20" class="edge">
<title>35&#45;&gt;1</title>
<path fill="none" stroke="#c0c0c0" stroke-width="2" d="M440.7318,-215.8903C448.0763,-195.3333 462.915,-162.2888 487.0937,-144 514.6193,-123.1797 609.6392,-104.8148 662.9948,-95.8352"/>
<polygon fill="#c0c0c0" stroke="#c0c0c0" stroke-width="2" points="663.7837,-99.2523 673.078,-94.1665 662.6407,-92.3463 663.7837,-99.2523"/>
</g>
<!-- 50 -->
<g id="node51" class="node">
<title>50</title>
<path fill="none" stroke="#56d892" stroke-width="2" d="M422.5937,-180C422.5937,-180 341.5937,-180 341.5937,-180 335.5937,-180 329.5937,-174 329.5937,-168 329.5937,-168 329.5937,-156 329.5937,-156 329.5937,-150 335.5937,-144 341.5937,-144 341.5937,-144 422.5937,-144 422.5937,-144 428.5937,-144 434.5937,-150 434.5937,-156 434.5937,-156 434.5937,-168 434.5937,-168 434.5937,-174 428.5937,-180 422.5937,-180"/>
<text text-anchor="middle" x="382.0937" y="-159.5" font-family="sans" font-size="10.00" fill="#000000">metadmg_aggregate</text>
</g>
<!-- 35&#45;&gt;50 -->
<g id="edge72" class="edge">
<title>35&#45;&gt;50</title>
<path fill="none" stroke="#c0c0c0" stroke-width="2" d="M421.7196,-215.8314C415.6775,-207.6232 408.4174,-197.7606 401.7716,-188.7323"/>
<polygon fill="#c0c0c0" stroke="#c0c0c0" stroke-width="2" points="404.3948,-186.3918 395.6479,-180.4133 398.7574,-190.5415 404.3948,-186.3918"/>
</g>
<!-- 36 -->
<g id="node37" class="node">
<title>36</title>
<path fill="none" stroke="#56c9d8" stroke-width="2" d="M395.5937,-324C395.5937,-324 344.5937,-324 344.5937,-324 338.5937,-324 332.5937,-318 332.5937,-312 332.5937,-312 332.5937,-300 332.5937,-300 332.5937,-294 338.5937,-288 344.5937,-288 344.5937,-288 395.5937,-288 395.5937,-288 401.5937,-288 407.5937,-294 407.5937,-300 407.5937,-300 407.5937,-312 407.5937,-312 407.5937,-318 401.5937,-324 395.5937,-324"/>
<text text-anchor="middle" x="370.0937" y="-303.5" font-family="sans" font-size="10.00" fill="#000000">metadmg_lca</text>
</g>
<!-- 36&#45;&gt;35 -->
<g id="edge56" class="edge">
<title>36&#45;&gt;35</title>
<path fill="none" stroke="#c0c0c0" stroke-width="2" d="M386.496,-287.8314C394.1352,-279.3694 403.3621,-269.1489 411.7144,-259.8971"/>
<polygon fill="#c0c0c0" stroke="#c0c0c0" stroke-width="2" points="414.3675,-262.1813 418.4706,-252.4133 409.1716,-257.4906 414.3675,-262.1813"/>
</g>
<!-- 36&#45;&gt;50 -->
<g id="edge71" class="edge">
<title>36&#45;&gt;50</title>
<path fill="none" stroke="#c0c0c0" stroke-width="2" d="M371.6135,-287.7623C373.6603,-263.201 377.3231,-219.2474 379.7309,-190.3541"/>
<polygon fill="#c0c0c0" stroke="#c0c0c0" stroke-width="2" points="383.2436,-190.3458 380.5862,-180.0896 376.2678,-189.7644 383.2436,-190.3458"/>
</g>
<!-- 37 -->
<g id="node38" class="node">
<title>37</title>
<path fill="none" stroke="#c6d856" stroke-width="2" d="M402.0937,-396C402.0937,-396 338.0937,-396 338.0937,-396 332.0937,-396 326.0937,-390 326.0937,-384 326.0937,-384 326.0937,-372 326.0937,-372 326.0937,-366 332.0937,-360 338.0937,-360 338.0937,-360 402.0937,-360 402.0937,-360 408.0937,-360 414.0937,-366 414.0937,-372 414.0937,-372 414.0937,-384 414.0937,-384 414.0937,-390 408.0937,-396 402.0937,-396"/>
<text text-anchor="middle" x="370.0937" y="-375.5" font-family="sans" font-size="10.00" fill="#000000">align_sort_query</text>
</g>
<!-- 37&#45;&gt;36 -->
<g id="edge57" class="edge">
<title>37&#45;&gt;36</title>
<path fill="none" stroke="#c0c0c0" stroke-width="2" d="M370.0937,-359.8314C370.0937,-352.131 370.0937,-342.9743 370.0937,-334.4166"/>
<polygon fill="#c0c0c0" stroke="#c0c0c0" stroke-width="2" points="373.5938,-334.4132 370.0937,-324.4133 366.5938,-334.4133 373.5938,-334.4132"/>
</g>
<!-- 53 -->
<g id="node54" class="node">
<title>53</title>
<path fill="none" stroke="#56d8a9" stroke-width="2" d="M99.5937,-180C99.5937,-180 26.5937,-180 26.5937,-180 20.5937,-180 14.5937,-174 14.5937,-168 14.5937,-168 14.5937,-156 14.5937,-156 14.5937,-150 20.5937,-144 26.5937,-144 26.5937,-144 99.5937,-144 99.5937,-144 105.5937,-144 111.5937,-150 111.5937,-156 111.5937,-156 111.5937,-168 111.5937,-168 111.5937,-174 105.5937,-180 99.5937,-180"/>
<text text-anchor="middle" x="63.0937" y="-159.5" font-family="sans" font-size="10.00" fill="#000000">metadmg_damage</text>
</g>
<!-- 37&#45;&gt;53 -->
<g id="edge77" class="edge">
<title>37&#45;&gt;53</title>
<path fill="none" stroke="#c0c0c0" stroke-width="2" d="M325.8542,-372.4585C266.6099,-364.2597 165.6321,-347.3161 137.0937,-324 95.1412,-289.7246 75.9515,-226.4848 68.0175,-189.9813"/>
<polygon fill="#c0c0c0" stroke="#c0c0c0" stroke-width="2" points="71.4114,-189.1066 65.986,-180.0063 64.5522,-190.5037 71.4114,-189.1066"/>
</g>
<!-- 38 -->
<g id="node39" class="node">
<title>38</title>
<path fill="none" stroke="#d8ac56" stroke-width="2" d="M398.5937,-468C398.5937,-468 343.5937,-468 343.5937,-468 337.5937,-468 331.5937,-462 331.5937,-456 331.5937,-456 331.5937,-444 331.5937,-444 331.5937,-438 337.5937,-432 343.5937,-432 343.5937,-432 398.5937,-432 398.5937,-432 404.5937,-432 410.5937,-438 410.5937,-444 410.5937,-444 410.5937,-456 410.5937,-456 410.5937,-462 404.5937,-468 398.5937,-468"/>
<text text-anchor="middle" x="371.0937" y="-447.5" font-family="sans" font-size="10.00" fill="#000000">align_reassign</text>
</g>
<!-- 38&#45;&gt;37 -->
<g id="edge58" class="edge">
<title>38&#45;&gt;37</title>
<path fill="none" stroke="#c0c0c0" stroke-width="2" d="M370.8414,-431.8314C370.7344,-424.131 370.6072,-414.9743 370.4884,-406.4166"/>
<polygon fill="#c0c0c0" stroke="#c0c0c0" stroke-width="2" points="373.9881,-406.3637 370.3494,-396.4133 366.9888,-406.4609 373.9881,-406.3637"/>
</g>
<!-- 39&#45;&gt;38 -->
<g id="edge59" class="edge">
<title>39&#45;&gt;38</title>
<path fill="none" stroke="#c0c0c0" stroke-width="2" d="M571.9255,-510.6199C532.4406,-500.2298 473.1091,-484.0824 422.0937,-468 421.52,-467.8191 420.9431,-467.6361 420.3635,-467.451"/>
<polygon fill="#c0c0c0" stroke="#c0c0c0" stroke-width="2" points="421.4121,-464.1115 410.8192,-464.3136 419.2261,-470.7614 421.4121,-464.1115"/>
</g>
<!-- 40 -->
<g id="node41" class="node">
<title>40</title>
<path fill="none" stroke="#56d8c9" stroke-width="2" d="M1190.0937,-252C1190.0937,-252 1138.0937,-252 1138.0937,-252 1132.0937,-252 1126.0937,-246 1126.0937,-240 1126.0937,-240 1126.0937,-228 1126.0937,-228 1126.0937,-222 1132.0937,-216 1138.0937,-216 1138.0937,-216 1190.0937,-216 1190.0937,-216 1196.0937,-216 1202.0937,-222 1202.0937,-228 1202.0937,-228 1202.0937,-240 1202.0937,-240 1202.0937,-246 1196.0937,-252 1190.0937,-252"/>
<text text-anchor="middle" x="1164.0937" y="-231.5" font-family="sans" font-size="10.00" fill="#000000">metadmg_dfit</text>
</g>
<!-- 40&#45;&gt;1 -->
<g id="edge21" class="edge">
<title>40&#45;&gt;1</title>
<path fill="none" stroke="#c0c0c0" stroke-width="2" d="M1158.7452,-215.7414C1151.5612,-194.7175 1136.6492,-160.9121 1111.0937,-144 1050.1065,-103.6398 826.9111,-93.3286 737.5003,-90.7927"/>
<polygon fill="#c0c0c0" stroke="#c0c0c0" stroke-width="2" points="737.3693,-87.288 727.2797,-90.5204 737.1829,-94.2855 737.3693,-87.288"/>
</g>
<!-- 51 -->
<g id="node52" class="node">
<title>51</title>
<path fill="none" stroke="#56d892" stroke-width="2" d="M1256.5937,-180C1256.5937,-180 1175.5937,-180 1175.5937,-180 1169.5937,-180 1163.5937,-174 1163.5937,-168 1163.5937,-168 1163.5937,-156 1163.5937,-156 1163.5937,-150 1169.5937,-144 1175.5937,-144 1175.5937,-144 1256.5937,-144 1256.5937,-144 1262.5937,-144 1268.5937,-150 1268.5937,-156 1268.5937,-156 1268.5937,-168 1268.5937,-168 1268.5937,-174 1262.5937,-180 1256.5937,-180"/>
<text text-anchor="middle" x="1216.0937" y="-159.5" font-family="sans" font-size="10.00" fill="#000000">metadmg_aggregate</text>
</g>
<!-- 40&#45;&gt;51 -->
<g id="edge74" class="edge">
<title>40&#45;&gt;51</title>
<path fill="none" stroke="#c0c0c0" stroke-width="2" d="M1177.2155,-215.8314C1183.1436,-207.6232 1190.2666,-197.7606 1196.787,-188.7323"/>
<polygon fill="#c0c0c0" stroke="#c0c0c0" stroke-width="2" points="1199.7777,-190.5693 1202.7952,-180.4133 1194.1029,-186.4708 1199.7777,-190.5693"/>
</g>
<!-- 41 -->
<g id="node42" class="node">
<title>41</title>
<path fill="none" stroke="#56c9d8" stroke-width="2" d="M1255.5937,-324C1255.5937,-324 1204.5937,-324 1204.5937,-324 1198.5937,-324 1192.5937,-318 1192.5937,-312 1192.5937,-312 1192.5937,-300 1192.5937,-300 1192.5937,-294 1198.5937,-288 1204.5937,-288 1204.5937,-288 1255.5937,-288 1255.5937,-288 1261.5937,-288 1267.5937,-294 1267.5937,-300 1267.5937,-300 1267.5937,-312 1267.5937,-312 1267.5937,-318 1261.5937,-324 1255.5937,-324"/>
<text text-anchor="middle" x="1230.0937" y="-303.5" font-family="sans" font-size="10.00" fill="#000000">metadmg_lca</text>
</g>
<!-- 41&#45;&gt;40 -->
<g id="edge61" class="edge">
<title>41&#45;&gt;40</title>
<path fill="none" stroke="#c0c0c0" stroke-width="2" d="M1213.4391,-287.8314C1205.6823,-279.3694 1196.3135,-269.1489 1187.8327,-259.8971"/>
<polygon fill="#c0c0c0" stroke="#c0c0c0" stroke-width="2" points="1190.3099,-257.4198 1180.9725,-252.4133 1185.1498,-262.1499 1190.3099,-257.4198"/>
</g>
<!-- 41&#45;&gt;51 -->
<g id="edge73" class="edge">
<title>41&#45;&gt;51</title>
<path fill="none" stroke="#c0c0c0" stroke-width="2" d="M1228.3206,-287.7623C1225.9327,-263.201 1221.6594,-219.2474 1218.8504,-190.3541"/>
<polygon fill="#c0c0c0" stroke="#c0c0c0" stroke-width="2" points="1222.3037,-189.704 1217.8524,-180.0896 1215.3366,-190.3814 1222.3037,-189.704"/>
</g>
<!-- 42 -->
<g id="node43" class="node">
<title>42</title>
<path fill="none" stroke="#c6d856" stroke-width="2" d="M1274.0937,-396C1274.0937,-396 1210.0937,-396 1210.0937,-396 1204.0937,-396 1198.0937,-390 1198.0937,-384 1198.0937,-384 1198.0937,-372 1198.0937,-372 1198.0937,-366 1204.0937,-360 1210.0937,-360 1210.0937,-360 1274.0937,-360 1274.0937,-360 1280.0937,-360 1286.0937,-366 1286.0937,-372 1286.0937,-372 1286.0937,-384 1286.0937,-384 1286.0937,-390 1280.0937,-396 1274.0937,-396"/>
<text text-anchor="middle" x="1242.0937" y="-375.5" font-family="sans" font-size="10.00" fill="#000000">align_sort_query</text>
</g>
<!-- 42&#45;&gt;41 -->
<g id="edge62" class="edge">
<title>42&#45;&gt;41</title>
<path fill="none" stroke="#c0c0c0" stroke-width="2" d="M1239.0656,-359.8314C1237.7822,-352.131 1236.2561,-342.9743 1234.8298,-334.4166"/>
<polygon fill="#c0c0c0" stroke="#c0c0c0" stroke-width="2" points="1238.259,-333.7018 1233.1626,-324.4133 1231.3543,-334.8526 1238.259,-333.7018"/>
</g>
<!-- 54 -->
<g id="node55" class="node">
<title>54</title>
<path fill="none" stroke="#56d8a9" stroke-width="2" d="M1230.5937,-108C1230.5937,-108 1157.5937,-108 1157.5937,-108 1151.5937,-108 1145.5937,-102 1145.5937,-96 1145.5937,-96 1145.5937,-84 1145.5937,-84 1145.5937,-78 1151.5937,-72 1157.5937,-72 1157.5937,-72 1230.5937,-72 1230.5937,-72 1236.5937,-72 1242.5937,-78 1242.5937,-84 1242.5937,-84 1242.5937,-96 1242.5937,-96 1242.5937,-102 1236.5937,-108 1230.5937,-108"/>
<text text-anchor="middle" x="1194.0937" y="-87.5" font-family="sans" font-size="10.00" fill="#000000">metadmg_damage</text>
</g>
<!-- 42&#45;&gt;54 -->
<g id="edge78" class="edge">
<title>42&#45;&gt;54</title>
<path fill="none" stroke="#c0c0c0" stroke-width="2" d="M1257.6089,-359.8351C1265.0508,-349.9328 1273.1831,-337.0568 1277.0937,-324 1300.0475,-247.3624 1316.4293,-214.2181 1278.0937,-144 1271.2081,-131.388 1259.9762,-121.2822 1247.9339,-113.3817"/>
<polygon fill="#c0c0c0" stroke="#c0c0c0" stroke-width="2" points="1249.4393,-110.2016 1239.0726,-108.0145 1245.8127,-116.189 1249.4393,-110.2016"/>
</g>
<!-- 43 -->
<g id="node44" class="node">
<title>43</title>
<path fill="none" stroke="#d8ac56" stroke-width="2" d="M1269.5937,-468C1269.5937,-468 1214.5937,-468 1214.5937,-468 1208.5937,-468 1202.5937,-462 1202.5937,-456 1202.5937,-456 1202.5937,-444 1202.5937,-444 1202.5937,-438 1208.5937,-432 1214.5937,-432 1214.5937,-432 1269.5937,-432 1269.5937,-432 1275.5937,-432 1281.5937,-438 1281.5937,-444 1281.5937,-444 1281.5937,-456 1281.5937,-456 1281.5937,-462 1275.5937,-468 1269.5937,-468"/>
<text text-anchor="middle" x="1242.0937" y="-447.5" font-family="sans" font-size="10.00" fill="#000000">align_reassign</text>
</g>
<!-- 43&#45;&gt;42 -->
<g id="edge63" class="edge">
<title>43&#45;&gt;42</title>
<path fill="none" stroke="#c0c0c0" stroke-width="2" d="M1242.0937,-431.8314C1242.0937,-424.131 1242.0937,-414.9743 1242.0937,-406.4166"/>
<polygon fill="#c0c0c0" stroke="#c0c0c0" stroke-width="2" points="1245.5938,-406.4132 1242.0937,-396.4133 1238.5938,-406.4133 1245.5938,-406.4132"/>
</g>
<!-- 44&#45;&gt;43 -->
<g id="edge64" class="edge">
<title>44&#45;&gt;43</title>
<path fill="none" stroke="#c0c0c0" stroke-width="2" d="M1242.0937,-503.8314C1242.0937,-496.131 1242.0937,-486.9743 1242.0937,-478.4166"/>
<polygon fill="#c0c0c0" stroke="#c0c0c0" stroke-width="2" points="1245.5938,-478.4132 1242.0937,-468.4133 1238.5938,-478.4133 1245.5938,-478.4132"/>
</g>
<!-- 45 -->
<g id="node46" class="node">
<title>45</title>
<path fill="none" stroke="#56d8c9" stroke-width="2" d="M261.0937,-252C261.0937,-252 209.0937,-252 209.0937,-252 203.0937,-252 197.0937,-246 197.0937,-240 197.0937,-240 197.0937,-228 197.0937,-228 197.0937,-222 203.0937,-216 209.0937,-216 209.0937,-216 261.0937,-216 261.0937,-216 267.0937,-216 273.0937,-222 273.0937,-228 273.0937,-228 273.0937,-240 273.0937,-240 273.0937,-246 267.0937,-252 261.0937,-252"/>
<text text-anchor="middle" x="235.0937" y="-231.5" font-family="sans" font-size="10.00" fill="#000000">metadmg_dfit</text>
</g>
<!-- 45&#45;&gt;1 -->
<g id="edge22" class="edge">
<title>45&#45;&gt;1</title>
<path fill="none" stroke="#c0c0c0" stroke-width="2" d="M240.2394,-215.7469C247.1898,-194.7282 261.7262,-160.9279 287.0937,-144 348.2891,-103.164 573.1236,-93.1286 662.8028,-90.7296"/>
<polygon fill="#c0c0c0" stroke="#c0c0c0" stroke-width="2" points="663.1398,-94.2224 673.0492,-90.4734 662.9648,-87.2246 663.1398,-94.2224"/>
</g>
<!-- 52 -->
<g id="node53" class="node">
<title>52</title>
<path fill="none" stroke="#56d892" stroke-width="2" d="M222.5937,-180C222.5937,-180 141.5937,-180 141.5937,-180 135.5937,-180 129.5937,-174 129.5937,-168 129.5937,-168 129.5937,-156 129.5937,-156 129.5937,-150 135.5937,-144 141.5937,-144 141.5937,-144 222.5937,-144 222.5937,-144 228.5937,-144 234.5937,-150 234.5937,-156 234.5937,-156 234.5937,-168 234.5937,-168 234.5937,-174 228.5937,-180 222.5937,-180"/>
<text text-anchor="middle" x="182.0937" y="-159.5" font-family="sans" font-size="10.00" fill="#000000">metadmg_aggregate</text>
</g>
<!-- 45&#45;&gt;52 -->
<g id="edge76" class="edge">
<title>45&#45;&gt;52</title>
<path fill="none" stroke="#c0c0c0" stroke-width="2" d="M221.7196,-215.8314C215.6775,-207.6232 208.4174,-197.7606 201.7716,-188.7323"/>
<polygon fill="#c0c0c0" stroke="#c0c0c0" stroke-width="2" points="204.3948,-186.3918 195.6479,-180.4133 198.7574,-190.5415 204.3948,-186.3918"/>
</g>
<!-- 46 -->
<g id="node47" class="node">
<title>46</title>
<path fill="none" stroke="#56c9d8" stroke-width="2" d="M209.5937,-324C209.5937,-324 158.5937,-324 158.5937,-324 152.5937,-324 146.5937,-318 146.5937,-312 146.5937,-312 146.5937,-300 146.5937,-300 146.5937,-294 152.5937,-288 158.5937,-288 158.5937,-288 209.5937,-288 209.5937,-288 215.5937,-288 221.5937,-294 221.5937,-300 221.5937,-300 221.5937,-312 221.5937,-312 221.5937,-318 215.5937,-324 209.5937,-324"/>
<text text-anchor="middle" x="184.0937" y="-303.5" font-family="sans" font-size="10.00" fill="#000000">metadmg_lca</text>
</g>
<!-- 46&#45;&gt;45 -->
<g id="edge66" class="edge">
<title>46&#45;&gt;45</title>
<path fill="none" stroke="#c0c0c0" stroke-width="2" d="M196.9632,-287.8314C202.7772,-279.6232 209.7633,-269.7606 216.1583,-260.7323"/>
<polygon fill="#c0c0c0" stroke="#c0c0c0" stroke-width="2" points="219.1269,-262.5966 222.051,-252.4133 213.4147,-258.5505 219.1269,-262.5966"/>
</g>
<!-- 46&#45;&gt;52 -->
<g id="edge75" class="edge">
<title>46&#45;&gt;52</title>
<path fill="none" stroke="#c0c0c0" stroke-width="2" d="M183.8404,-287.7623C183.4993,-263.201 182.8888,-219.2474 182.4875,-190.3541"/>
<polygon fill="#c0c0c0" stroke="#c0c0c0" stroke-width="2" points="185.9836,-190.04 182.345,-180.0896 178.9843,-190.1373 185.9836,-190.04"/>
</g>
<!-- 47 -->
<g id="node48" class="node">
<title>47</title>
<path fill="none" stroke="#c6d856" stroke-width="2" d="M216.0937,-396C216.0937,-396 152.0937,-396 152.0937,-396 146.0937,-396 140.0937,-390 140.0937,-384 140.0937,-384 140.0937,-372 140.0937,-372 140.0937,-366 146.0937,-360 152.0937,-360 152.0937,-360 216.0937,-360 216.0937,-360 222.0937,-360 228.0937,-366 228.0937,-372 228.0937,-372 228.0937,-384 228.0937,-384 228.0937,-390 222.0937,-396 216.0937,-396"/>
<text text-anchor="middle" x="184.0937" y="-375.5" font-family="sans" font-size="10.00" fill="#000000">align_sort_query</text>
</g>
<!-- 47&#45;&gt;46 -->
<g id="edge67" class="edge">
<title>47&#45;&gt;46</title>
<path fill="none" stroke="#c0c0c0" stroke-width="2" d="M184.0937,-359.8314C184.0937,-352.131 184.0937,-342.9743 184.0937,-334.4166"/>
<polygon fill="#c0c0c0" stroke="#c0c0c0" stroke-width="2" points="187.5938,-334.4132 184.0937,-324.4133 180.5938,-334.4133 187.5938,-334.4132"/>
</g>
<!-- 55 -->
<g id="node56" class="node">
<title>55</title>
<path fill="none" stroke="#56d8a9" stroke-width="2" d="M143.5937,-108C143.5937,-108 70.5937,-108 70.5937,-108 64.5937,-108 58.5937,-102 58.5937,-96 58.5937,-96 58.5937,-84 58.5937,-84 58.5937,-78 64.5937,-72 70.5937,-72 70.5937,-72 143.5937,-72 143.5937,-72 149.5937,-72 155.5937,-78 155.5937,-84 155.5937,-84 155.5937,-96 155.5937,-96 155.5937,-102 149.5937,-108 143.5937,-108"/>
<text text-anchor="middle" x="107.0937" y="-87.5" font-family="sans" font-size="10.00" fill="#000000">metadmg_damage</text>
</g>
<!-- 47&#45;&gt;55 -->
<g id="edge79" class="edge">
<title>47&#45;&gt;55</title>
<path fill="none" stroke="#c0c0c0" stroke-width="2" d="M151.6564,-359.979C136.229,-350.4825 118.1349,-337.9219 104.0937,-324 48.9417,-269.3168 28.1304,-254.1708 5.0937,-180 .3479,-164.72 -3.1592,-157.7073 5.0937,-144 14.9912,-127.5612 31.7575,-115.8647 48.8685,-107.6628"/>
<polygon fill="#c0c0c0" stroke="#c0c0c0" stroke-width="2" points="50.641,-110.7059 58.3687,-103.4579 47.8078,-104.3049 50.641,-110.7059"/>
</g>
<!-- 48 -->
<g id="node49" class="node">
<title>48</title>
<path fill="none" stroke="#d8ac56" stroke-width="2" d="M274.5937,-468C274.5937,-468 219.5937,-468 219.5937,-468 213.5937,-468 207.5937,-462 207.5937,-456 207.5937,-456 207.5937,-444 207.5937,-444 207.5937,-438 213.5937,-432 219.5937,-432 219.5937,-432 274.5937,-432 274.5937,-432 280.5937,-432 286.5937,-438 286.5937,-444 286.5937,-444 286.5937,-456 286.5937,-456 286.5937,-462 280.5937,-468 274.5937,-468"/>
<text text-anchor="middle" x="247.0937" y="-447.5" font-family="sans" font-size="10.00" fill="#000000">align_reassign</text>
</g>
<!-- 48&#45;&gt;47 -->
<g id="edge68" class="edge">
<title>48&#45;&gt;47</title>
<path fill="none" stroke="#c0c0c0" stroke-width="2" d="M231.1961,-431.8314C223.866,-423.454 215.0277,-413.3531 206.9968,-404.1749"/>
<polygon fill="#c0c0c0" stroke="#c0c0c0" stroke-width="2" points="209.4244,-401.6343 200.2053,-396.4133 204.1564,-406.2438 209.4244,-401.6343"/>
</g>
<!-- 49&#45;&gt;48 -->
<g id="edge69" class="edge">
<title>49&#45;&gt;48</title>
<path fill="none" stroke="#c0c0c0" stroke-width="2" d="M248.589,-503.8314C248.3751,-496.131 248.1208,-486.9743 247.8831,-478.4166"/>
<polygon fill="#c0c0c0" stroke="#c0c0c0" stroke-width="2" points="251.3816,-478.3122 247.6052,-468.4133 244.3843,-478.5066 251.3816,-478.3122"/>
</g>
<!-- 50&#45;&gt;0 -->
<g id="edge2" class="edge">
<title>50&#45;&gt;0</title>
<path fill="none" stroke="#c0c0c0" stroke-width="2" d="M382.0937,-143.7623C382.0937,-119.201 382.0937,-75.2474 382.0937,-46.3541"/>
<polygon fill="#c0c0c0" stroke="#c0c0c0" stroke-width="2" points="385.5938,-46.0896 382.0937,-36.0896 378.5938,-46.0897 385.5938,-46.0896"/>
</g>
<!-- 50&#45;&gt;1 -->
<g id="edge23" class="edge">
<title>50&#45;&gt;1</title>
<path fill="none" stroke="#c0c0c0" stroke-width="2" d="M434.6962,-147.5987C439.5556,-146.3497 444.4108,-145.132 449.0937,-144 524.7323,-125.7155 613.9385,-107.2558 663.0299,-97.3635"/>
<polygon fill="#c0c0c0" stroke="#c0c0c0" stroke-width="2" points="663.7623,-100.7864 672.8773,-95.3857 662.3838,-93.9234 663.7623,-100.7864"/>
</g>
<!-- 51&#45;&gt;0 -->
<g id="edge3" class="edge">
<title>51&#45;&gt;0</title>
<path fill="none" stroke="#c0c0c0" stroke-width="2" d="M1163.4382,-149.1245C1155.6272,-147.3321 1147.6616,-145.5693 1140.0937,-144 865.1808,-86.9943 529.9775,-38.5593 419.4202,-23.1312"/>
<polygon fill="#c0c0c0" stroke="#c0c0c0" stroke-width="2" points="419.8188,-19.653 409.432,-21.742 418.8545,-26.5863 419.8188,-19.653"/>
</g>
<!-- 51&#45;&gt;1 -->
<g id="edge24" class="edge">
<title>51&#45;&gt;1</title>
<path fill="none" stroke="#c0c0c0" stroke-width="2" d="M1163.592,-147.1352C1158.7115,-145.9835 1153.8238,-144.915 1149.0937,-144 997.8016,-114.7347 814.5757,-98.6027 737.3094,-92.6679"/>
<polygon fill="#c0c0c0" stroke="#c0c0c0" stroke-width="2" points="737.3598,-89.1618 727.1244,-91.8978 736.832,-96.1419 737.3598,-89.1618"/>
</g>
<!-- 52&#45;&gt;0 -->
<g id="edge4" class="edge">
<title>52&#45;&gt;0</title>
<path fill="none" stroke="#c0c0c0" stroke-width="2" d="M208.2038,-143.8828C223.1547,-133.4604 242.2368,-120.0762 259.0937,-108 289.88,-85.9449 324.6886,-60.4195 349.399,-42.1979"/>
<polygon fill="#c0c0c0" stroke="#c0c0c0" stroke-width="2" points="351.7275,-44.8294 357.695,-36.075 347.5707,-39.1973 351.7275,-44.8294"/>
</g>
<!-- 52&#45;&gt;1 -->
<g id="edge25" class="edge">
<title>52&#45;&gt;1</title>
<path fill="none" stroke="#c0c0c0" stroke-width="2" d="M234.5949,-147.1325C239.4755,-145.9814 244.3634,-144.9137 249.0937,-144 401.0578,-114.6461 585.1009,-98.5614 662.7119,-92.6534"/>
<polygon fill="#c0c0c0" stroke="#c0c0c0" stroke-width="2" points="663.2318,-96.1244 672.9424,-91.887 662.7088,-89.1439 663.2318,-96.1244"/>
</g>
<!-- 53&#45;&gt;0 -->
<g id="edge5" class="edge">
<title>53&#45;&gt;0</title>
<path fill="none" stroke="#c0c0c0" stroke-width="2" d="M102.0529,-143.8773C141.542,-125.5631 204.4415,-96.5425 259.0937,-72 288.0174,-59.0113 320.9102,-44.5886 345.399,-33.9183"/>
<polygon fill="#c0c0c0" stroke="#c0c0c0" stroke-width="2" points="346.9057,-37.0797 354.678,-29.8795 344.112,-30.6613 346.9057,-37.0797"/>
</g>
<!-- 54&#45;&gt;0 -->
<g id="edge6" class="edge">
<title>54&#45;&gt;0</title>
<path fill="none" stroke="#c0c0c0" stroke-width="2" d="M1145.4186,-85.1155C1108.1188,-81.4086 1055.3679,-76.2437 1009.0937,-72 785.4599,-51.491 516.7377,-29.1039 419.4993,-21.076"/>
<polygon fill="#c0c0c0" stroke="#c0c0c0" stroke-width="2" points="419.5519,-17.5686 409.298,-20.2346 418.9764,-24.5449 419.5519,-17.5686"/>
</g>
<!-- 55&#45;&gt;0 -->
<g id="edge7" class="edge">
<title>55&#45;&gt;0</title>
<path fill="none" stroke="#c0c0c0" stroke-width="2" d="M155.6252,-77.2936C209.7519,-63.1222 296.1126,-40.5114 345.0648,-27.6948"/>
<polygon fill="#c0c0c0" stroke="#c0c0c0" stroke-width="2" points="346.1304,-31.0339 354.9178,-25.1151 344.3574,-24.2621 346.1304,-31.0339"/>
</g>
</g>
</svg>
