<?xml version="1.0" encoding="UTF-8" standalone="no"?>
<!DOCTYPE svg PUBLIC "-//W3C//DTD SVG 1.1//EN"
 "http://www.w3.org/Graphics/SVG/1.1/DTD/svg11.dtd">
<!-- Generated by graphviz version 2.40.1 (0)
 -->
<!-- Title: snakemake_dag Pages: 1 -->
<svg width="1913pt" height="1101pt"
 viewBox="0.00 0.00 1913.00 1101.00" xmlns="http://www.w3.org/2000/svg" xmlns:xlink="http://www.w3.org/1999/xlink">
<g id="graph0" class="graph" transform="scale(1 1) rotate(0) translate(4 1097)">
<title>snakemake_dag</title>
<polygon fill="#ffffff" stroke="transparent" points="-4,4 -4,-1097 1909,-1097 1909,4 -4,4"/>
<!-- 0 -->
<g id="node1" class="node">
<title>0</title>
<path fill="none" stroke="#afd856" stroke-width="2" d="M619.5,-36C619.5,-36 589.5,-36 589.5,-36 583.5,-36 577.5,-30 577.5,-24 577.5,-24 577.5,-12 577.5,-12 577.5,-6 583.5,0 589.5,0 589.5,0 619.5,0 619.5,0 625.5,0 631.5,-6 631.5,-12 631.5,-12 631.5,-24 631.5,-24 631.5,-30 625.5,-36 619.5,-36"/>
<text text-anchor="middle" x="604.5" y="-15.5" font-family="sans" font-size="10.00" fill="#000000">all</text>
</g>
<!-- 1 -->
<g id="node2" class="node">
<title>1</title>
<path fill="none" stroke="#56d8c9" stroke-width="2" d="M867.5,-108C867.5,-108 837.5,-108 837.5,-108 831.5,-108 825.5,-102 825.5,-96 825.5,-96 825.5,-84 825.5,-84 825.5,-78 831.5,-72 837.5,-72 837.5,-72 867.5,-72 867.5,-72 873.5,-72 879.5,-78 879.5,-84 879.5,-84 879.5,-96 879.5,-96 879.5,-102 873.5,-108 867.5,-108"/>
<text text-anchor="middle" x="852.5" y="-87.5" font-family="sans" font-size="10.00" fill="#000000">multiqc</text>
</g>
<!-- 1&#45;&gt;0 -->
<g id="edge1" class="edge">
<title>1&#45;&gt;0</title>
<path fill="none" stroke="#c0c0c0" stroke-width="2" d="M825.4876,-82.1577C780.9748,-69.2346 692.131,-43.4413 641.7047,-28.8014"/>
<polygon fill="#c0c0c0" stroke="#c0c0c0" stroke-width="2" points="642.436,-25.3692 631.8566,-25.9422 640.4842,-32.0916 642.436,-25.3692"/>
</g>
<!-- 2 -->
<g id="node3" class="node">
<title>2</title>
<path fill="none" stroke="#97d856" stroke-width="2" d="M1205,-1093C1205,-1093 1098,-1093 1098,-1093 1092,-1093 1086,-1087 1086,-1081 1086,-1081 1086,-1020 1086,-1020 1086,-1014 1092,-1008 1098,-1008 1098,-1008 1205,-1008 1205,-1008 1211,-1008 1217,-1014 1217,-1020 1217,-1020 1217,-1081 1217,-1081 1217,-1087 1211,-1093 1205,-1093"/>
<text text-anchor="middle" x="1151.5" y="-1081" font-family="sans" font-size="10.00" fill="#000000">bowtie2</text>
<text text-anchor="middle" x="1151.5" y="-1070" font-family="sans" font-size="10.00" fill="#000000">library: lib2</text>
<text text-anchor="middle" x="1151.5" y="-1059" font-family="sans" font-size="10.00" fill="#000000">n_shard: 1</text>
<text text-anchor="middle" x="1151.5" y="-1048" font-family="sans" font-size="10.00" fill="#000000">read_type_map: collapsed</text>
<text text-anchor="middle" x="1151.5" y="-1037" font-family="sans" font-size="10.00" fill="#000000">ref: refseq_mitochondrion</text>
<text text-anchor="middle" x="1151.5" y="-1026" font-family="sans" font-size="10.00" fill="#000000">sample: HD827sonic_2</text>
<text text-anchor="middle" x="1151.5" y="-1015" font-family="sans" font-size="10.00" fill="#000000">tot_shards: 1</text>
</g>
<!-- 2&#45;&gt;1 -->
<g id="edge8" class="edge">
<title>2&#45;&gt;1</title>
<path fill="none" stroke="#c0c0c0" stroke-width="2" d="M1182.8509,-1007.8158C1203.7859,-975.0895 1227.5,-927.8907 1227.5,-882 1227.5,-882 1227.5,-882 1227.5,-234 1227.5,-176.4809 1185.5429,-170.5153 1134.5,-144 1112.9974,-132.83 961.48,-107.4766 889.8502,-95.9286"/>
<polygon fill="#c0c0c0" stroke="#c0c0c0" stroke-width="2" points="890.315,-92.4585 879.8865,-94.3283 889.2049,-99.3699 890.315,-92.4585"/>
</g>
<!-- 49 -->
<g id="node50" class="node">
<title>49</title>
<path fill="none" stroke="#56b9d8" stroke-width="2" d="M1111,-972C1111,-972 1042,-972 1042,-972 1036,-972 1030,-966 1030,-960 1030,-960 1030,-948 1030,-948 1030,-942 1036,-936 1042,-936 1042,-936 1111,-936 1111,-936 1117,-936 1123,-942 1123,-948 1123,-948 1123,-960 1123,-960 1123,-966 1117,-972 1111,-972"/>
<text text-anchor="middle" x="1076.5" y="-951.5" font-family="sans" font-size="10.00" fill="#000000">shard_count_alns</text>
</g>
<!-- 2&#45;&gt;49 -->
<g id="edge83" class="edge">
<title>2&#45;&gt;49</title>
<path fill="none" stroke="#c0c0c0" stroke-width="2" d="M1118.3856,-1007.8928C1111.0867,-998.5016 1103.5632,-988.8213 1096.9414,-980.3013"/>
<polygon fill="#c0c0c0" stroke="#c0c0c0" stroke-width="2" points="1099.5621,-977.9697 1090.662,-972.2218 1094.0351,-982.2653 1099.5621,-977.9697"/>
</g>
<!-- 55 -->
<g id="node56" class="node">
<title>55</title>
<path fill="none" stroke="#568ad8" stroke-width="2" d="M1111,-828C1111,-828 982,-828 982,-828 976,-828 970,-822 970,-816 970,-816 970,-804 970,-804 970,-798 976,-792 982,-792 982,-792 1111,-792 1111,-792 1117,-792 1123,-798 1123,-804 1123,-804 1123,-816 1123,-816 1123,-822 1117,-828 1111,-828"/>
<text text-anchor="middle" x="1046.5" y="-807.5" font-family="sans" font-size="10.00" fill="#000000">shard_saturated_reads_remove</text>
</g>
<!-- 2&#45;&gt;55 -->
<g id="edge90" class="edge">
<title>2&#45;&gt;55</title>
<path fill="none" stroke="#c0c0c0" stroke-width="2" d="M1148.3634,-1007.9957C1145.6785,-985.908 1140.7048,-958.8334 1131.5,-936 1116.3203,-898.3454 1088.6836,-860.4393 1069.0466,-836.1855"/>
<polygon fill="#c0c0c0" stroke="#c0c0c0" stroke-width="2" points="1071.5274,-833.6922 1062.468,-828.1988 1066.1243,-838.1427 1071.5274,-833.6922"/>
</g>
<!-- 3 -->
<g id="node4" class="node">
<title>3</title>
<path fill="none" stroke="#97d856" stroke-width="2" d="M577,-1093C577,-1093 470,-1093 470,-1093 464,-1093 458,-1087 458,-1081 458,-1081 458,-1020 458,-1020 458,-1014 464,-1008 470,-1008 470,-1008 577,-1008 577,-1008 583,-1008 589,-1014 589,-1020 589,-1020 589,-1081 589,-1081 589,-1087 583,-1093 577,-1093"/>
<text text-anchor="middle" x="523.5" y="-1081" font-family="sans" font-size="10.00" fill="#000000">bowtie2</text>
<text text-anchor="middle" x="523.5" y="-1070" font-family="sans" font-size="10.00" fill="#000000">library: lib1</text>
<text text-anchor="middle" x="523.5" y="-1059" font-family="sans" font-size="10.00" fill="#000000">n_shard: 1</text>
<text text-anchor="middle" x="523.5" y="-1048" font-family="sans" font-size="10.00" fill="#000000">read_type_map: collapsed</text>
<text text-anchor="middle" x="523.5" y="-1037" font-family="sans" font-size="10.00" fill="#000000">ref: wgs_eukaryota</text>
<text text-anchor="middle" x="523.5" y="-1026" font-family="sans" font-size="10.00" fill="#000000">sample: HD827sonic_1</text>
<text text-anchor="middle" x="523.5" y="-1015" font-family="sans" font-size="10.00" fill="#000000">tot_shards: 2</text>
</g>
<!-- 3&#45;&gt;1 -->
<g id="edge9" class="edge">
<title>3&#45;&gt;1</title>
<path fill="none" stroke="#c0c0c0" stroke-width="2" d="M555.7811,-1007.6296C563.0817,-996.4635 570.2246,-984.1451 575.5,-972 608.2691,-896.5585 593.7119,-870.4269 618.5,-792 687.9641,-572.2227 799.5,-536.4936 799.5,-306 799.5,-306 799.5,-306 799.5,-234 799.5,-191.1582 820.416,-145.3149 835.9689,-117.1484"/>
<polygon fill="#c0c0c0" stroke="#c0c0c0" stroke-width="2" points="839.0978,-118.7265 840.9998,-108.3038 833.0132,-115.2655 839.0978,-118.7265"/>
</g>
<!-- 15 -->
<g id="node16" class="node">
<title>15</title>
<path fill="none" stroke="#568ad8" stroke-width="2" d="M483,-828C483,-828 354,-828 354,-828 348,-828 342,-822 342,-816 342,-816 342,-804 342,-804 342,-798 348,-792 354,-792 354,-792 483,-792 483,-792 489,-792 495,-798 495,-804 495,-804 495,-816 495,-816 495,-822 489,-828 483,-828"/>
<text text-anchor="middle" x="418.5" y="-807.5" font-family="sans" font-size="10.00" fill="#000000">shard_saturated_reads_remove</text>
</g>
<!-- 3&#45;&gt;15 -->
<g id="edge32" class="edge">
<title>3&#45;&gt;15</title>
<path fill="none" stroke="#c0c0c0" stroke-width="2" d="M520.3634,-1007.9957C517.6785,-985.908 512.7048,-958.8334 503.5,-936 488.3203,-898.3454 460.6836,-860.4393 441.0466,-836.1855"/>
<polygon fill="#c0c0c0" stroke="#c0c0c0" stroke-width="2" points="443.5274,-833.6922 434.468,-828.1988 438.1243,-838.1427 443.5274,-833.6922"/>
</g>
<!-- 17 -->
<g id="node18" class="node">
<title>17</title>
<path fill="none" stroke="#56b9d8" stroke-width="2" d="M483,-972C483,-972 414,-972 414,-972 408,-972 402,-966 402,-960 402,-960 402,-948 402,-948 402,-942 408,-936 414,-936 414,-936 483,-936 483,-936 489,-936 495,-942 495,-948 495,-948 495,-960 495,-960 495,-966 489,-972 483,-972"/>
<text text-anchor="middle" x="448.5" y="-951.5" font-family="sans" font-size="10.00" fill="#000000">shard_count_alns</text>
</g>
<!-- 3&#45;&gt;17 -->
<g id="edge37" class="edge">
<title>3&#45;&gt;17</title>
<path fill="none" stroke="#c0c0c0" stroke-width="2" d="M490.3856,-1007.8928C483.0867,-998.5016 475.5632,-988.8213 468.9414,-980.3013"/>
<polygon fill="#c0c0c0" stroke="#c0c0c0" stroke-width="2" points="471.5621,-977.9697 462.662,-972.2218 466.0351,-982.2653 471.5621,-977.9697"/>
</g>
<!-- 4 -->
<g id="node5" class="node">
<title>4</title>
<path fill="none" stroke="#97d856" stroke-width="2" d="M1582,-1093C1582,-1093 1475,-1093 1475,-1093 1469,-1093 1463,-1087 1463,-1081 1463,-1081 1463,-1020 1463,-1020 1463,-1014 1469,-1008 1475,-1008 1475,-1008 1582,-1008 1582,-1008 1588,-1008 1594,-1014 1594,-1020 1594,-1020 1594,-1081 1594,-1081 1594,-1087 1588,-1093 1582,-1093"/>
<text text-anchor="middle" x="1528.5" y="-1081" font-family="sans" font-size="10.00" fill="#000000">bowtie2</text>
<text text-anchor="middle" x="1528.5" y="-1070" font-family="sans" font-size="10.00" fill="#000000">library: lib1</text>
<text text-anchor="middle" x="1528.5" y="-1059" font-family="sans" font-size="10.00" fill="#000000">n_shard: 1</text>
<text text-anchor="middle" x="1528.5" y="-1048" font-family="sans" font-size="10.00" fill="#000000">read_type_map: collapsed</text>
<text text-anchor="middle" x="1528.5" y="-1037" font-family="sans" font-size="10.00" fill="#000000">ref: wgs_eukaryota</text>
<text text-anchor="middle" x="1528.5" y="-1026" font-family="sans" font-size="10.00" fill="#000000">sample: HD827sonic_2</text>
<text text-anchor="middle" x="1528.5" y="-1015" font-family="sans" font-size="10.00" fill="#000000">tot_shards: 2</text>
</g>
<!-- 4&#45;&gt;1 -->
<g id="edge10" class="edge">
<title>4&#45;&gt;1</title>
<path fill="none" stroke="#c0c0c0" stroke-width="2" d="M1495.0205,-1007.9819C1477.2769,-986.0136 1454.7963,-959.0514 1433.5,-936 1386.7916,-885.4421 1355.7154,-888.2869 1322.5,-828 1302.7721,-792.1933 1303.5,-778.8816 1303.5,-738 1303.5,-738 1303.5,-738 1303.5,-234 1303.5,-181.646 1273.2865,-169.3877 1227.5,-144 1226.5741,-143.4866 984.255,-108.8243 889.6848,-95.3112"/>
<polygon fill="#c0c0c0" stroke="#c0c0c0" stroke-width="2" points="890.0872,-91.8332 879.6926,-93.8835 889.097,-98.7628 890.0872,-91.8332"/>
</g>
<!-- 30 -->
<g id="node31" class="node">
<title>30</title>
<path fill="none" stroke="#568ad8" stroke-width="2" d="M1644,-828C1644,-828 1515,-828 1515,-828 1509,-828 1503,-822 1503,-816 1503,-816 1503,-804 1503,-804 1503,-798 1509,-792 1515,-792 1515,-792 1644,-792 1644,-792 1650,-792 1656,-798 1656,-804 1656,-804 1656,-816 1656,-816 1656,-822 1650,-828 1644,-828"/>
<text text-anchor="middle" x="1579.5" y="-807.5" font-family="sans" font-size="10.00" fill="#000000">shard_saturated_reads_remove</text>
</g>
<!-- 4&#45;&gt;30 -->
<g id="edge54" class="edge">
<title>4&#45;&gt;30</title>
<path fill="none" stroke="#c0c0c0" stroke-width="2" d="M1566.01,-1007.8766C1573.5912,-996.8929 1580.4677,-984.5956 1584.5,-972 1598.9763,-926.7804 1592.1967,-870.7902 1585.8928,-837.874"/>
<polygon fill="#c0c0c0" stroke="#c0c0c0" stroke-width="2" points="1589.3154,-837.141 1583.8903,-828.0406 1582.4562,-838.5379 1589.3154,-837.141"/>
</g>
<!-- 32 -->
<g id="node33" class="node">
<title>32</title>
<path fill="none" stroke="#56b9d8" stroke-width="2" d="M1563,-972C1563,-972 1494,-972 1494,-972 1488,-972 1482,-966 1482,-960 1482,-960 1482,-948 1482,-948 1482,-942 1488,-936 1494,-936 1494,-936 1563,-936 1563,-936 1569,-936 1575,-942 1575,-948 1575,-948 1575,-960 1575,-960 1575,-966 1569,-972 1563,-972"/>
<text text-anchor="middle" x="1528.5" y="-951.5" font-family="sans" font-size="10.00" fill="#000000">shard_count_alns</text>
</g>
<!-- 4&#45;&gt;32 -->
<g id="edge59" class="edge">
<title>4&#45;&gt;32</title>
<path fill="none" stroke="#c0c0c0" stroke-width="2" d="M1528.5,-1007.8928C1528.5,-999.2842 1528.5,-990.4327 1528.5,-982.4546"/>
<polygon fill="#c0c0c0" stroke="#c0c0c0" stroke-width="2" points="1532.0001,-982.2218 1528.5,-972.2218 1525.0001,-982.2218 1532.0001,-982.2218"/>
</g>
<!-- 5 -->
<g id="node6" class="node">
<title>5</title>
<path fill="none" stroke="#97d856" stroke-width="2" d="M391,-1093C391,-1093 284,-1093 284,-1093 278,-1093 272,-1087 272,-1081 272,-1081 272,-1020 272,-1020 272,-1014 278,-1008 284,-1008 284,-1008 391,-1008 391,-1008 397,-1008 403,-1014 403,-1020 403,-1020 403,-1081 403,-1081 403,-1087 397,-1093 391,-1093"/>
<text text-anchor="middle" x="337.5" y="-1081" font-family="sans" font-size="10.00" fill="#000000">bowtie2</text>
<text text-anchor="middle" x="337.5" y="-1070" font-family="sans" font-size="10.00" fill="#000000">library: lib1</text>
<text text-anchor="middle" x="337.5" y="-1059" font-family="sans" font-size="10.00" fill="#000000">n_shard: 2</text>
<text text-anchor="middle" x="337.5" y="-1048" font-family="sans" font-size="10.00" fill="#000000">read_type_map: collapsed</text>
<text text-anchor="middle" x="337.5" y="-1037" font-family="sans" font-size="10.00" fill="#000000">ref: wgs_eukaryota</text>
<text text-anchor="middle" x="337.5" y="-1026" font-family="sans" font-size="10.00" fill="#000000">sample: HD827sonic_1</text>
<text text-anchor="middle" x="337.5" y="-1015" font-family="sans" font-size="10.00" fill="#000000">tot_shards: 2</text>
</g>
<!-- 5&#45;&gt;1 -->
<g id="edge11" class="edge">
<title>5&#45;&gt;1</title>
<path fill="none" stroke="#c0c0c0" stroke-width="2" d="M403.0649,-1024.8498C442.6207,-1008.3735 488.2319,-987.2765 503.5,-972 528.5166,-946.9697 523.5226,-932.5112 537.5,-900 632.428,-679.1991 656.5149,-623.6788 733.5,-396 760.1731,-317.1161 762.2864,-295.9703 785.5,-216 794.7923,-183.9881 790.675,-173.3373 806.5,-144 811.9612,-133.8757 819.5611,-123.9505 827.012,-115.427"/>
<polygon fill="#c0c0c0" stroke="#c0c0c0" stroke-width="2" points="829.6039,-117.7789 833.7471,-108.0278 824.4273,-113.0669 829.6039,-117.7789"/>
</g>
<!-- 18 -->
<g id="node19" class="node">
<title>18</title>
<path fill="none" stroke="#56b9d8" stroke-width="2" d="M372,-972C372,-972 303,-972 303,-972 297,-972 291,-966 291,-960 291,-960 291,-948 291,-948 291,-942 297,-936 303,-936 303,-936 372,-936 372,-936 378,-936 384,-942 384,-948 384,-948 384,-960 384,-960 384,-966 378,-972 372,-972"/>
<text text-anchor="middle" x="337.5" y="-951.5" font-family="sans" font-size="10.00" fill="#000000">shard_count_alns</text>
</g>
<!-- 5&#45;&gt;18 -->
<g id="edge38" class="edge">
<title>5&#45;&gt;18</title>
<path fill="none" stroke="#c0c0c0" stroke-width="2" d="M337.5,-1007.8928C337.5,-999.2842 337.5,-990.4327 337.5,-982.4546"/>
<polygon fill="#c0c0c0" stroke="#c0c0c0" stroke-width="2" points="341.0001,-982.2218 337.5,-972.2218 334.0001,-982.2218 341.0001,-982.2218"/>
</g>
<!-- 22 -->
<g id="node23" class="node">
<title>22</title>
<path fill="none" stroke="#568ad8" stroke-width="2" d="M312,-828C312,-828 183,-828 183,-828 177,-828 171,-822 171,-816 171,-816 171,-804 171,-804 171,-798 177,-792 183,-792 183,-792 312,-792 312,-792 318,-792 324,-798 324,-804 324,-804 324,-816 324,-816 324,-822 318,-828 312,-828"/>
<text text-anchor="middle" x="247.5" y="-807.5" font-family="sans" font-size="10.00" fill="#000000">shard_saturated_reads_remove</text>
</g>
<!-- 5&#45;&gt;22 -->
<g id="edge42" class="edge">
<title>5&#45;&gt;22</title>
<path fill="none" stroke="#c0c0c0" stroke-width="2" d="M304.1985,-1007.6873C296.2129,-996.4191 288.0966,-984.0386 281.5,-972 264.9222,-941.7461 260.0015,-933.6727 252.5,-900 247.9699,-879.6656 246.7992,-856.142 246.719,-838.2448"/>
<polygon fill="#c0c0c0" stroke="#c0c0c0" stroke-width="2" points="250.2194,-838.1889 246.7851,-828.1662 243.2195,-838.143 250.2194,-838.1889"/>
</g>
<!-- 6 -->
<g id="node7" class="node">
<title>6</title>
<path fill="none" stroke="#97d856" stroke-width="2" d="M831,-1093C831,-1093 724,-1093 724,-1093 718,-1093 712,-1087 712,-1081 712,-1081 712,-1020 712,-1020 712,-1014 718,-1008 724,-1008 724,-1008 831,-1008 831,-1008 837,-1008 843,-1014 843,-1020 843,-1020 843,-1081 843,-1081 843,-1087 837,-1093 831,-1093"/>
<text text-anchor="middle" x="777.5" y="-1081" font-family="sans" font-size="10.00" fill="#000000">bowtie2</text>
<text text-anchor="middle" x="777.5" y="-1070" font-family="sans" font-size="10.00" fill="#000000">library: lib2</text>
<text text-anchor="middle" x="777.5" y="-1059" font-family="sans" font-size="10.00" fill="#000000">n_shard: 1</text>
<text text-anchor="middle" x="777.5" y="-1048" font-family="sans" font-size="10.00" fill="#000000">read_type_map: collapsed</text>
<text text-anchor="middle" x="777.5" y="-1037" font-family="sans" font-size="10.00" fill="#000000">ref: wgs_eukaryota</text>
<text text-anchor="middle" x="777.5" y="-1026" font-family="sans" font-size="10.00" fill="#000000">sample: HD827sonic_2</text>
<text text-anchor="middle" x="777.5" y="-1015" font-family="sans" font-size="10.00" fill="#000000">tot_shards: 2</text>
</g>
<!-- 6&#45;&gt;1 -->
<g id="edge12" class="edge">
<title>6&#45;&gt;1</title>
<path fill="none" stroke="#c0c0c0" stroke-width="2" d="M817.3644,-1007.764C841.8999,-983.6768 875.1492,-954.7493 909.5,-936 1015.9381,-877.9042 1151.5,-931.2609 1151.5,-810 1151.5,-810 1151.5,-810 1151.5,-234 1151.5,-176.3988 969.0993,-120.931 889.2253,-99.4029"/>
<polygon fill="#c0c0c0" stroke="#c0c0c0" stroke-width="2" points="890.1255,-96.0207 879.5616,-96.8293 888.3241,-102.7849 890.1255,-96.0207"/>
</g>
<!-- 45 -->
<g id="node46" class="node">
<title>45</title>
<path fill="none" stroke="#568ad8" stroke-width="2" d="M769,-828C769,-828 640,-828 640,-828 634,-828 628,-822 628,-816 628,-816 628,-804 628,-804 628,-798 634,-792 640,-792 640,-792 769,-792 769,-792 775,-792 781,-798 781,-804 781,-804 781,-816 781,-816 781,-822 775,-828 769,-828"/>
<text text-anchor="middle" x="704.5" y="-807.5" font-family="sans" font-size="10.00" fill="#000000">shard_saturated_reads_remove</text>
</g>
<!-- 6&#45;&gt;45 -->
<g id="edge76" class="edge">
<title>6&#45;&gt;45</title>
<path fill="none" stroke="#c0c0c0" stroke-width="2" d="M741.2154,-1007.9658C733.4921,-996.8869 726.2442,-984.5242 721.5,-972 704.6695,-927.5693 702.6081,-871.6825 703.1794,-838.513"/>
<polygon fill="#c0c0c0" stroke="#c0c0c0" stroke-width="2" points="706.687,-838.2747 703.4565,-828.1844 699.6895,-838.0869 706.687,-838.2747"/>
</g>
<!-- 47 -->
<g id="node48" class="node">
<title>47</title>
<path fill="none" stroke="#56b9d8" stroke-width="2" d="M812,-972C812,-972 743,-972 743,-972 737,-972 731,-966 731,-960 731,-960 731,-948 731,-948 731,-942 737,-936 743,-936 743,-936 812,-936 812,-936 818,-936 824,-942 824,-948 824,-948 824,-960 824,-960 824,-966 818,-972 812,-972"/>
<text text-anchor="middle" x="777.5" y="-951.5" font-family="sans" font-size="10.00" fill="#000000">shard_count_alns</text>
</g>
<!-- 6&#45;&gt;47 -->
<g id="edge81" class="edge">
<title>6&#45;&gt;47</title>
<path fill="none" stroke="#c0c0c0" stroke-width="2" d="M777.5,-1007.8928C777.5,-999.2842 777.5,-990.4327 777.5,-982.4546"/>
<polygon fill="#c0c0c0" stroke="#c0c0c0" stroke-width="2" points="781.0001,-982.2218 777.5,-972.2218 774.0001,-982.2218 781.0001,-982.2218"/>
</g>
<!-- 7 -->
<g id="node8" class="node">
<title>7</title>
<path fill="none" stroke="#97d856" stroke-width="2" d="M203,-1093C203,-1093 96,-1093 96,-1093 90,-1093 84,-1087 84,-1081 84,-1081 84,-1020 84,-1020 84,-1014 90,-1008 96,-1008 96,-1008 203,-1008 203,-1008 209,-1008 215,-1014 215,-1020 215,-1020 215,-1081 215,-1081 215,-1087 209,-1093 203,-1093"/>
<text text-anchor="middle" x="149.5" y="-1081" font-family="sans" font-size="10.00" fill="#000000">bowtie2</text>
<text text-anchor="middle" x="149.5" y="-1070" font-family="sans" font-size="10.00" fill="#000000">library: lib1</text>
<text text-anchor="middle" x="149.5" y="-1059" font-family="sans" font-size="10.00" fill="#000000">n_shard: 1</text>
<text text-anchor="middle" x="149.5" y="-1048" font-family="sans" font-size="10.00" fill="#000000">read_type_map: collapsed</text>
<text text-anchor="middle" x="149.5" y="-1037" font-family="sans" font-size="10.00" fill="#000000">ref: refseq_mitochondrion</text>
<text text-anchor="middle" x="149.5" y="-1026" font-family="sans" font-size="10.00" fill="#000000">sample: HD827sonic_1</text>
<text text-anchor="middle" x="149.5" y="-1015" font-family="sans" font-size="10.00" fill="#000000">tot_shards: 1</text>
</g>
<!-- 7&#45;&gt;1 -->
<g id="edge13" class="edge">
<title>7&#45;&gt;1</title>
<path fill="none" stroke="#c0c0c0" stroke-width="2" d="M189.3644,-1007.764C213.8999,-983.6768 247.1492,-954.7493 281.5,-936 387.9381,-877.9042 523.5,-931.2609 523.5,-810 523.5,-810 523.5,-810 523.5,-234 523.5,-193.1184 513.0825,-172.3887 542.5,-144 580.9045,-106.9387 741.2731,-94.9938 815.0566,-91.4151"/>
<polygon fill="#c0c0c0" stroke="#c0c0c0" stroke-width="2" points="815.4605,-94.9004 825.2896,-90.9459 815.1398,-87.9077 815.4605,-94.9004"/>
</g>
<!-- 19 -->
<g id="node20" class="node">
<title>19</title>
<path fill="none" stroke="#56b9d8" stroke-width="2" d="M184,-972C184,-972 115,-972 115,-972 109,-972 103,-966 103,-960 103,-960 103,-948 103,-948 103,-942 109,-936 115,-936 115,-936 184,-936 184,-936 190,-936 196,-942 196,-948 196,-948 196,-960 196,-960 196,-966 190,-972 184,-972"/>
<text text-anchor="middle" x="149.5" y="-951.5" font-family="sans" font-size="10.00" fill="#000000">shard_count_alns</text>
</g>
<!-- 7&#45;&gt;19 -->
<g id="edge39" class="edge">
<title>7&#45;&gt;19</title>
<path fill="none" stroke="#c0c0c0" stroke-width="2" d="M149.5,-1007.8928C149.5,-999.2842 149.5,-990.4327 149.5,-982.4546"/>
<polygon fill="#c0c0c0" stroke="#c0c0c0" stroke-width="2" points="153.0001,-982.2218 149.5,-972.2218 146.0001,-982.2218 153.0001,-982.2218"/>
</g>
<!-- 25 -->
<g id="node26" class="node">
<title>25</title>
<path fill="none" stroke="#568ad8" stroke-width="2" d="M141,-828C141,-828 12,-828 12,-828 6,-828 0,-822 0,-816 0,-816 0,-804 0,-804 0,-798 6,-792 12,-792 12,-792 141,-792 141,-792 147,-792 153,-798 153,-804 153,-804 153,-816 153,-816 153,-822 147,-828 141,-828"/>
<text text-anchor="middle" x="76.5" y="-807.5" font-family="sans" font-size="10.00" fill="#000000">shard_saturated_reads_remove</text>
</g>
<!-- 7&#45;&gt;25 -->
<g id="edge46" class="edge">
<title>7&#45;&gt;25</title>
<path fill="none" stroke="#c0c0c0" stroke-width="2" d="M113.2154,-1007.9658C105.4921,-996.8869 98.2442,-984.5242 93.5,-972 76.6695,-927.5693 74.6081,-871.6825 75.1794,-838.513"/>
<polygon fill="#c0c0c0" stroke="#c0c0c0" stroke-width="2" points="78.687,-838.2747 75.4565,-828.1844 71.6895,-838.0869 78.687,-838.2747"/>
</g>
<!-- 8 -->
<g id="node9" class="node">
<title>8</title>
<path fill="none" stroke="#97d856" stroke-width="2" d="M1807,-1093C1807,-1093 1700,-1093 1700,-1093 1694,-1093 1688,-1087 1688,-1081 1688,-1081 1688,-1020 1688,-1020 1688,-1014 1694,-1008 1700,-1008 1700,-1008 1807,-1008 1807,-1008 1813,-1008 1819,-1014 1819,-1020 1819,-1020 1819,-1081 1819,-1081 1819,-1087 1813,-1093 1807,-1093"/>
<text text-anchor="middle" x="1753.5" y="-1081" font-family="sans" font-size="10.00" fill="#000000">bowtie2</text>
<text text-anchor="middle" x="1753.5" y="-1070" font-family="sans" font-size="10.00" fill="#000000">library: lib1</text>
<text text-anchor="middle" x="1753.5" y="-1059" font-family="sans" font-size="10.00" fill="#000000">n_shard: 1</text>
<text text-anchor="middle" x="1753.5" y="-1048" font-family="sans" font-size="10.00" fill="#000000">read_type_map: collapsed</text>
<text text-anchor="middle" x="1753.5" y="-1037" font-family="sans" font-size="10.00" fill="#000000">ref: refseq_mitochondrion</text>
<text text-anchor="middle" x="1753.5" y="-1026" font-family="sans" font-size="10.00" fill="#000000">sample: HD827sonic_2</text>
<text text-anchor="middle" x="1753.5" y="-1015" font-family="sans" font-size="10.00" fill="#000000">tot_shards: 1</text>
</g>
<!-- 8&#45;&gt;1 -->
<g id="edge14" class="edge">
<title>8&#45;&gt;1</title>
<path fill="none" stroke="#c0c0c0" stroke-width="2" d="M1797.053,-1007.8917C1824.7763,-976.1074 1855.5,-930.0451 1855.5,-882 1855.5,-882 1855.5,-882 1855.5,-378 1855.5,-197.1133 1692.6373,-205.4272 1522.5,-144 1404.6481,-101.4502 1013.0731,-92.2881 889.9163,-90.4401"/>
<polygon fill="#c0c0c0" stroke="#c0c0c0" stroke-width="2" points="889.8941,-86.9396 879.8452,-90.2965 889.7943,-93.9388 889.8941,-86.9396"/>
</g>
<!-- 34 -->
<g id="node35" class="node">
<title>34</title>
<path fill="none" stroke="#56b9d8" stroke-width="2" d="M1713,-972C1713,-972 1644,-972 1644,-972 1638,-972 1632,-966 1632,-960 1632,-960 1632,-948 1632,-948 1632,-942 1638,-936 1644,-936 1644,-936 1713,-936 1713,-936 1719,-936 1725,-942 1725,-948 1725,-948 1725,-960 1725,-960 1725,-966 1719,-972 1713,-972"/>
<text text-anchor="middle" x="1678.5" y="-951.5" font-family="sans" font-size="10.00" fill="#000000">shard_count_alns</text>
</g>
<!-- 8&#45;&gt;34 -->
<g id="edge61" class="edge">
<title>8&#45;&gt;34</title>
<path fill="none" stroke="#c0c0c0" stroke-width="2" d="M1720.3856,-1007.8928C1713.0867,-998.5016 1705.5632,-988.8213 1698.9414,-980.3013"/>
<polygon fill="#c0c0c0" stroke="#c0c0c0" stroke-width="2" points="1701.5621,-977.9697 1692.662,-972.2218 1696.0351,-982.2653 1701.5621,-977.9697"/>
</g>
<!-- 40 -->
<g id="node41" class="node">
<title>40</title>
<path fill="none" stroke="#568ad8" stroke-width="2" d="M1815,-828C1815,-828 1686,-828 1686,-828 1680,-828 1674,-822 1674,-816 1674,-816 1674,-804 1674,-804 1674,-798 1680,-792 1686,-792 1686,-792 1815,-792 1815,-792 1821,-792 1827,-798 1827,-804 1827,-804 1827,-816 1827,-816 1827,-822 1821,-828 1815,-828"/>
<text text-anchor="middle" x="1750.5" y="-807.5" font-family="sans" font-size="10.00" fill="#000000">shard_saturated_reads_remove</text>
</g>
<!-- 8&#45;&gt;40 -->
<g id="edge68" class="edge">
<title>8&#45;&gt;40</title>
<path fill="none" stroke="#c0c0c0" stroke-width="2" d="M1752.9671,-1007.7805C1752.3568,-958.8569 1751.3742,-880.0855 1750.8523,-838.2427"/>
<polygon fill="#c0c0c0" stroke="#c0c0c0" stroke-width="2" points="1754.3516,-838.1546 1750.727,-828.1991 1747.3521,-838.242 1754.3516,-838.1546"/>
</g>
<!-- 9 -->
<g id="node10" class="node">
<title>9</title>
<path fill="none" stroke="#97d856" stroke-width="2" d="M1357,-1093C1357,-1093 1250,-1093 1250,-1093 1244,-1093 1238,-1087 1238,-1081 1238,-1081 1238,-1020 1238,-1020 1238,-1014 1244,-1008 1250,-1008 1250,-1008 1357,-1008 1357,-1008 1363,-1008 1369,-1014 1369,-1020 1369,-1020 1369,-1081 1369,-1081 1369,-1087 1363,-1093 1357,-1093"/>
<text text-anchor="middle" x="1303.5" y="-1081" font-family="sans" font-size="10.00" fill="#000000">bowtie2</text>
<text text-anchor="middle" x="1303.5" y="-1070" font-family="sans" font-size="10.00" fill="#000000">library: lib1</text>
<text text-anchor="middle" x="1303.5" y="-1059" font-family="sans" font-size="10.00" fill="#000000">n_shard: 2</text>
<text text-anchor="middle" x="1303.5" y="-1048" font-family="sans" font-size="10.00" fill="#000000">read_type_map: collapsed</text>
<text text-anchor="middle" x="1303.5" y="-1037" font-family="sans" font-size="10.00" fill="#000000">ref: wgs_eukaryota</text>
<text text-anchor="middle" x="1303.5" y="-1026" font-family="sans" font-size="10.00" fill="#000000">sample: HD827sonic_2</text>
<text text-anchor="middle" x="1303.5" y="-1015" font-family="sans" font-size="10.00" fill="#000000">tot_shards: 2</text>
</g>
<!-- 9&#45;&gt;1 -->
<g id="edge15" class="edge">
<title>9&#45;&gt;1</title>
<path fill="none" stroke="#c0c0c0" stroke-width="2" d="M1288.3722,-1007.8083C1277.7752,-974.0983 1265.5,-925.6328 1265.5,-882 1265.5,-882 1265.5,-882 1265.5,-234 1265.5,-179.5869 1230.4072,-169.801 1182.5,-144 1169.6486,-137.0787 973.2598,-107.6959 889.6896,-95.4219"/>
<polygon fill="#c0c0c0" stroke="#c0c0c0" stroke-width="2" points="890.011,-91.9317 879.609,-93.944 888.9955,-98.8577 890.011,-91.9317"/>
</g>
<!-- 33 -->
<g id="node34" class="node">
<title>33</title>
<path fill="none" stroke="#56b9d8" stroke-width="2" d="M1413,-972C1413,-972 1344,-972 1344,-972 1338,-972 1332,-966 1332,-960 1332,-960 1332,-948 1332,-948 1332,-942 1338,-936 1344,-936 1344,-936 1413,-936 1413,-936 1419,-936 1425,-942 1425,-948 1425,-948 1425,-960 1425,-960 1425,-966 1419,-972 1413,-972"/>
<text text-anchor="middle" x="1378.5" y="-951.5" font-family="sans" font-size="10.00" fill="#000000">shard_count_alns</text>
</g>
<!-- 9&#45;&gt;33 -->
<g id="edge60" class="edge">
<title>9&#45;&gt;33</title>
<path fill="none" stroke="#c0c0c0" stroke-width="2" d="M1336.6144,-1007.8928C1343.9133,-998.5016 1351.4368,-988.8213 1358.0586,-980.3013"/>
<polygon fill="#c0c0c0" stroke="#c0c0c0" stroke-width="2" points="1360.9649,-982.2653 1364.338,-972.2218 1355.4379,-977.9697 1360.9649,-982.2653"/>
</g>
<!-- 37 -->
<g id="node38" class="node">
<title>37</title>
<path fill="none" stroke="#568ad8" stroke-width="2" d="M1473,-828C1473,-828 1344,-828 1344,-828 1338,-828 1332,-822 1332,-816 1332,-816 1332,-804 1332,-804 1332,-798 1338,-792 1344,-792 1344,-792 1473,-792 1473,-792 1479,-792 1485,-798 1485,-804 1485,-804 1485,-816 1485,-816 1485,-822 1479,-828 1473,-828"/>
<text text-anchor="middle" x="1408.5" y="-807.5" font-family="sans" font-size="10.00" fill="#000000">shard_saturated_reads_remove</text>
</g>
<!-- 9&#45;&gt;37 -->
<g id="edge64" class="edge">
<title>9&#45;&gt;37</title>
<path fill="none" stroke="#c0c0c0" stroke-width="2" d="M1306.141,-1007.9801C1308.5989,-985.8881 1313.3433,-958.8144 1322.5,-936 1337.6781,-898.1831 1365.6764,-860.3098 1385.602,-836.108"/>
<polygon fill="#c0c0c0" stroke="#c0c0c0" stroke-width="2" points="1388.5387,-838.0528 1392.2791,-828.1402 1383.1735,-833.5567 1388.5387,-838.0528"/>
</g>
<!-- 10 -->
<g id="node11" class="node">
<title>10</title>
<path fill="none" stroke="#97d856" stroke-width="2" d="M1019,-1093C1019,-1093 912,-1093 912,-1093 906,-1093 900,-1087 900,-1081 900,-1081 900,-1020 900,-1020 900,-1014 906,-1008 912,-1008 912,-1008 1019,-1008 1019,-1008 1025,-1008 1031,-1014 1031,-1020 1031,-1020 1031,-1081 1031,-1081 1031,-1087 1025,-1093 1019,-1093"/>
<text text-anchor="middle" x="965.5" y="-1081" font-family="sans" font-size="10.00" fill="#000000">bowtie2</text>
<text text-anchor="middle" x="965.5" y="-1070" font-family="sans" font-size="10.00" fill="#000000">library: lib2</text>
<text text-anchor="middle" x="965.5" y="-1059" font-family="sans" font-size="10.00" fill="#000000">n_shard: 2</text>
<text text-anchor="middle" x="965.5" y="-1048" font-family="sans" font-size="10.00" fill="#000000">read_type_map: collapsed</text>
<text text-anchor="middle" x="965.5" y="-1037" font-family="sans" font-size="10.00" fill="#000000">ref: wgs_eukaryota</text>
<text text-anchor="middle" x="965.5" y="-1026" font-family="sans" font-size="10.00" fill="#000000">sample: HD827sonic_2</text>
<text text-anchor="middle" x="965.5" y="-1015" font-family="sans" font-size="10.00" fill="#000000">tot_shards: 2</text>
</g>
<!-- 10&#45;&gt;1 -->
<g id="edge16" class="edge">
<title>10&#45;&gt;1</title>
<path fill="none" stroke="#c0c0c0" stroke-width="2" d="M1031.2916,-1023.7904C1070.3792,-1007.0879 1115.3826,-986.137 1131.5,-972 1167.275,-940.6209 1189.5,-929.5867 1189.5,-882 1189.5,-882 1189.5,-882 1189.5,-234 1189.5,-170.8326 1136.1115,-172.0225 1079.5,-144 1017.1892,-113.1563 936.3968,-99.398 889.9116,-93.6794"/>
<polygon fill="#c0c0c0" stroke="#c0c0c0" stroke-width="2" points="890.037,-90.1703 879.6982,-92.4851 889.224,-97.1229 890.037,-90.1703"/>
</g>
<!-- 48 -->
<g id="node49" class="node">
<title>48</title>
<path fill="none" stroke="#56b9d8" stroke-width="2" d="M1000,-972C1000,-972 931,-972 931,-972 925,-972 919,-966 919,-960 919,-960 919,-948 919,-948 919,-942 925,-936 931,-936 931,-936 1000,-936 1000,-936 1006,-936 1012,-942 1012,-948 1012,-948 1012,-960 1012,-960 1012,-966 1006,-972 1000,-972"/>
<text text-anchor="middle" x="965.5" y="-951.5" font-family="sans" font-size="10.00" fill="#000000">shard_count_alns</text>
</g>
<!-- 10&#45;&gt;48 -->
<g id="edge82" class="edge">
<title>10&#45;&gt;48</title>
<path fill="none" stroke="#c0c0c0" stroke-width="2" d="M965.5,-1007.8928C965.5,-999.2842 965.5,-990.4327 965.5,-982.4546"/>
<polygon fill="#c0c0c0" stroke="#c0c0c0" stroke-width="2" points="969.0001,-982.2218 965.5,-972.2218 962.0001,-982.2218 969.0001,-982.2218"/>
</g>
<!-- 52 -->
<g id="node53" class="node">
<title>52</title>
<path fill="none" stroke="#568ad8" stroke-width="2" d="M940,-828C940,-828 811,-828 811,-828 805,-828 799,-822 799,-816 799,-816 799,-804 799,-804 799,-798 805,-792 811,-792 811,-792 940,-792 940,-792 946,-792 952,-798 952,-804 952,-804 952,-816 952,-816 952,-822 946,-828 940,-828"/>
<text text-anchor="middle" x="875.5" y="-807.5" font-family="sans" font-size="10.00" fill="#000000">shard_saturated_reads_remove</text>
</g>
<!-- 10&#45;&gt;52 -->
<g id="edge86" class="edge">
<title>10&#45;&gt;52</title>
<path fill="none" stroke="#c0c0c0" stroke-width="2" d="M932.1985,-1007.6873C924.2129,-996.4191 916.0966,-984.0386 909.5,-972 892.9222,-941.7461 888.0015,-933.6727 880.5,-900 875.9699,-879.6656 874.7992,-856.142 874.719,-838.2448"/>
<polygon fill="#c0c0c0" stroke="#c0c0c0" stroke-width="2" points="878.2194,-838.1889 874.7851,-828.1662 871.2195,-838.143 878.2194,-838.1889"/>
</g>
<!-- 11 -->
<g id="node12" class="node">
<title>11</title>
<path fill="none" stroke="#c6d856" stroke-width="2" d="M712.5,-396C712.5,-396 672.5,-396 672.5,-396 666.5,-396 660.5,-390 660.5,-384 660.5,-384 660.5,-372 660.5,-372 660.5,-366 666.5,-360 672.5,-360 672.5,-360 712.5,-360 712.5,-360 718.5,-360 724.5,-366 724.5,-372 724.5,-372 724.5,-384 724.5,-384 724.5,-390 718.5,-396 712.5,-396"/>
<text text-anchor="middle" x="692.5" y="-375.5" font-family="sans" font-size="10.00" fill="#000000">align_stats</text>
</g>
<!-- 11&#45;&gt;1 -->
<g id="edge17" class="edge">
<title>11&#45;&gt;1</title>
<path fill="none" stroke="#c0c0c0" stroke-width="2" d="M694.8036,-359.6594C701.2643,-310.6616 720.8405,-178.116 747.5,-144 764.4318,-122.3324 792.4509,-108.5451 815.288,-100.3291"/>
<polygon fill="#c0c0c0" stroke="#c0c0c0" stroke-width="2" points="816.6776,-103.5542 825.0333,-97.0402 814.4391,-96.9217 816.6776,-103.5542"/>
</g>
<!-- 12 -->
<g id="node13" class="node">
<title>12</title>
<path fill="none" stroke="#d88556" stroke-width="2" d="M315,-612C315,-612 270,-612 270,-612 264,-612 258,-606 258,-600 258,-600 258,-588 258,-588 258,-582 264,-576 270,-576 270,-576 315,-576 315,-576 321,-576 327,-582 327,-588 327,-588 327,-600 327,-600 327,-606 321,-612 315,-612"/>
<text text-anchor="middle" x="292.5" y="-591.5" font-family="sans" font-size="10.00" fill="#000000">align_merge</text>
</g>
<!-- 12&#45;&gt;11 -->
<g id="edge26" class="edge">
<title>12&#45;&gt;11</title>
<path fill="none" stroke="#c0c0c0" stroke-width="2" d="M327.1363,-582.133C412.4775,-552.7987 626.885,-478.485 639.5,-468 659.4225,-451.4415 673.6149,-425.3355 682.2683,-405.495"/>
<polygon fill="#c0c0c0" stroke="#c0c0c0" stroke-width="2" points="685.5866,-406.6298 686.1808,-396.0516 679.1196,-403.9504 685.5866,-406.6298"/>
</g>
<!-- 60 -->
<g id="node61" class="node">
<title>60</title>
<path fill="none" stroke="#d8bc56" stroke-width="2" d="M324.5,-540C324.5,-540 260.5,-540 260.5,-540 254.5,-540 248.5,-534 248.5,-528 248.5,-528 248.5,-516 248.5,-516 248.5,-510 254.5,-504 260.5,-504 260.5,-504 324.5,-504 324.5,-504 330.5,-504 336.5,-510 336.5,-516 336.5,-516 336.5,-528 336.5,-528 336.5,-534 330.5,-540 324.5,-540"/>
<text text-anchor="middle" x="292.5" y="-519.5" font-family="sans" font-size="10.00" fill="#000000">align_sort_coord</text>
</g>
<!-- 12&#45;&gt;60 -->
<g id="edge96" class="edge">
<title>12&#45;&gt;60</title>
<path fill="none" stroke="#c0c0c0" stroke-width="2" d="M292.5,-575.8314C292.5,-568.131 292.5,-558.9743 292.5,-550.4166"/>
<polygon fill="#c0c0c0" stroke="#c0c0c0" stroke-width="2" points="296.0001,-550.4132 292.5,-540.4133 289.0001,-550.4133 296.0001,-550.4132"/>
</g>
<!-- 13 -->
<g id="node14" class="node">
<title>13</title>
<path fill="none" stroke="#5673d8" stroke-width="2" d="M424.5,-684C424.5,-684 356.5,-684 356.5,-684 350.5,-684 344.5,-678 344.5,-672 344.5,-672 344.5,-660 344.5,-660 344.5,-654 350.5,-648 356.5,-648 356.5,-648 424.5,-648 424.5,-648 430.5,-648 436.5,-654 436.5,-660 436.5,-660 436.5,-672 436.5,-672 436.5,-678 430.5,-684 424.5,-684"/>
<text text-anchor="middle" x="390.5" y="-663.5" font-family="sans" font-size="10.00" fill="#000000">shard_sort_query</text>
</g>
<!-- 13&#45;&gt;12 -->
<g id="edge27" class="edge">
<title>13&#45;&gt;12</title>
<path fill="none" stroke="#c0c0c0" stroke-width="2" d="M365.7705,-647.8314C353.5838,-638.8779 338.7177,-627.9558 325.5688,-618.2955"/>
<polygon fill="#c0c0c0" stroke="#c0c0c0" stroke-width="2" points="327.3527,-615.263 317.2216,-612.1628 323.2082,-620.9042 327.3527,-615.263"/>
</g>
<!-- 14 -->
<g id="node15" class="node">
<title>14</title>
<path fill="none" stroke="#56d0d8" stroke-width="2" d="M443.5,-756C443.5,-756 363.5,-756 363.5,-756 357.5,-756 351.5,-750 351.5,-744 351.5,-744 351.5,-732 351.5,-732 351.5,-726 357.5,-720 363.5,-720 363.5,-720 443.5,-720 443.5,-720 449.5,-720 455.5,-726 455.5,-732 455.5,-732 455.5,-744 455.5,-744 455.5,-750 449.5,-756 443.5,-756"/>
<text text-anchor="middle" x="403.5" y="-735.5" font-family="sans" font-size="10.00" fill="#000000">shard_clean_header</text>
</g>
<!-- 14&#45;&gt;13 -->
<g id="edge30" class="edge">
<title>14&#45;&gt;13</title>
<path fill="none" stroke="#c0c0c0" stroke-width="2" d="M400.2196,-719.8314C398.8292,-712.131 397.1759,-702.9743 395.6308,-694.4166"/>
<polygon fill="#c0c0c0" stroke="#c0c0c0" stroke-width="2" points="399.0458,-693.6322 393.8246,-684.4133 392.1572,-694.8761 399.0458,-693.6322"/>
</g>
<!-- 15&#45;&gt;14 -->
<g id="edge31" class="edge">
<title>15&#45;&gt;14</title>
<path fill="none" stroke="#c0c0c0" stroke-width="2" d="M414.7149,-791.8314C413.1106,-784.131 411.203,-774.9743 409.4201,-766.4166"/>
<polygon fill="#c0c0c0" stroke="#c0c0c0" stroke-width="2" points="412.8021,-765.4892 407.3361,-756.4133 405.9493,-766.9169 412.8021,-765.4892"/>
</g>
<!-- 16 -->
<g id="node17" class="node">
<title>16</title>
<path fill="none" stroke="#56a2d8" stroke-width="2" d="M383.5,-900C383.5,-900 273.5,-900 273.5,-900 267.5,-900 261.5,-894 261.5,-888 261.5,-888 261.5,-876 261.5,-876 261.5,-870 267.5,-864 273.5,-864 273.5,-864 383.5,-864 383.5,-864 389.5,-864 395.5,-870 395.5,-876 395.5,-876 395.5,-888 395.5,-888 395.5,-894 389.5,-900 383.5,-900"/>
<text text-anchor="middle" x="328.5" y="-879.5" font-family="sans" font-size="10.00" fill="#000000">shard_saturated_reads_get</text>
</g>
<!-- 16&#45;&gt;15 -->
<g id="edge33" class="edge">
<title>16&#45;&gt;15</title>
<path fill="none" stroke="#c0c0c0" stroke-width="2" d="M351.2108,-863.8314C362.296,-854.9632 375.7954,-844.1637 387.7852,-834.5718"/>
<polygon fill="#c0c0c0" stroke="#c0c0c0" stroke-width="2" points="390.1742,-837.1429 395.7965,-828.1628 385.8013,-831.6768 390.1742,-837.1429"/>
</g>
<!-- 16&#45;&gt;22 -->
<g id="edge43" class="edge">
<title>16&#45;&gt;22</title>
<path fill="none" stroke="#c0c0c0" stroke-width="2" d="M308.0603,-863.8314C298.1795,-855.0485 286.1676,-844.3712 275.455,-834.8489"/>
<polygon fill="#c0c0c0" stroke="#c0c0c0" stroke-width="2" points="277.7326,-832.1906 267.9332,-828.1628 273.082,-837.4224 277.7326,-832.1906"/>
</g>
<!-- 16&#45;&gt;25 -->
<g id="edge47" class="edge">
<title>16&#45;&gt;25</title>
<path fill="none" stroke="#c0c0c0" stroke-width="2" d="M265.235,-863.9243C230.0363,-853.8675 186.0681,-841.3052 149.4269,-830.8363"/>
<polygon fill="#c0c0c0" stroke="#c0c0c0" stroke-width="2" points="150.3678,-827.4651 139.791,-828.0831 148.4447,-834.1958 150.3678,-827.4651"/>
</g>
<!-- 17&#45;&gt;16 -->
<g id="edge34" class="edge">
<title>17&#45;&gt;16</title>
<path fill="none" stroke="#c0c0c0" stroke-width="2" d="M418.2189,-935.8314C402.8702,-926.6221 384.0502,-915.3301 367.6177,-905.4706"/>
<polygon fill="#c0c0c0" stroke="#c0c0c0" stroke-width="2" points="369.1471,-902.3066 358.7714,-900.1628 365.5456,-908.3091 369.1471,-902.3066"/>
</g>
<!-- 18&#45;&gt;16 -->
<g id="edge35" class="edge">
<title>18&#45;&gt;16</title>
<path fill="none" stroke="#c0c0c0" stroke-width="2" d="M335.2289,-935.8314C334.2664,-928.131 333.1218,-918.9743 332.0521,-910.4166"/>
<polygon fill="#c0c0c0" stroke="#c0c0c0" stroke-width="2" points="335.5151,-909.9019 330.8017,-900.4133 328.5691,-910.7702 335.5151,-909.9019"/>
</g>
<!-- 19&#45;&gt;16 -->
<g id="edge36" class="edge">
<title>19&#45;&gt;16</title>
<path fill="none" stroke="#c0c0c0" stroke-width="2" d="M194.6693,-935.8314C218.8223,-926.1162 248.7378,-914.0831 274.1556,-903.8592"/>
<polygon fill="#c0c0c0" stroke="#c0c0c0" stroke-width="2" points="275.6841,-907.017 283.6556,-900.038 273.0718,-900.5227 275.6841,-907.017"/>
</g>
<!-- 20 -->
<g id="node21" class="node">
<title>20</title>
<path fill="none" stroke="#5673d8" stroke-width="2" d="M307.5,-684C307.5,-684 239.5,-684 239.5,-684 233.5,-684 227.5,-678 227.5,-672 227.5,-672 227.5,-660 227.5,-660 227.5,-654 233.5,-648 239.5,-648 239.5,-648 307.5,-648 307.5,-648 313.5,-648 319.5,-654 319.5,-660 319.5,-660 319.5,-672 319.5,-672 319.5,-678 313.5,-684 307.5,-684"/>
<text text-anchor="middle" x="273.5" y="-663.5" font-family="sans" font-size="10.00" fill="#000000">shard_sort_query</text>
</g>
<!-- 20&#45;&gt;12 -->
<g id="edge28" class="edge">
<title>20&#45;&gt;12</title>
<path fill="none" stroke="#c0c0c0" stroke-width="2" d="M278.2945,-647.8314C280.3489,-640.0463 282.796,-630.7729 285.0756,-622.1347"/>
<polygon fill="#c0c0c0" stroke="#c0c0c0" stroke-width="2" points="288.4735,-622.9753 287.6409,-612.4133 281.7052,-621.1892 288.4735,-622.9753"/>
</g>
<!-- 21 -->
<g id="node22" class="node">
<title>21</title>
<path fill="none" stroke="#56d0d8" stroke-width="2" d="M306.5,-756C306.5,-756 226.5,-756 226.5,-756 220.5,-756 214.5,-750 214.5,-744 214.5,-744 214.5,-732 214.5,-732 214.5,-726 220.5,-720 226.5,-720 226.5,-720 306.5,-720 306.5,-720 312.5,-720 318.5,-726 318.5,-732 318.5,-732 318.5,-744 318.5,-744 318.5,-750 312.5,-756 306.5,-756"/>
<text text-anchor="middle" x="266.5" y="-735.5" font-family="sans" font-size="10.00" fill="#000000">shard_clean_header</text>
</g>
<!-- 21&#45;&gt;20 -->
<g id="edge40" class="edge">
<title>21&#45;&gt;20</title>
<path fill="none" stroke="#c0c0c0" stroke-width="2" d="M268.2664,-719.8314C269.015,-712.131 269.9053,-702.9743 270.7373,-694.4166"/>
<polygon fill="#c0c0c0" stroke="#c0c0c0" stroke-width="2" points="274.2256,-694.7051 271.7098,-684.4133 267.2585,-694.0276 274.2256,-694.7051"/>
</g>
<!-- 22&#45;&gt;21 -->
<g id="edge41" class="edge">
<title>22&#45;&gt;21</title>
<path fill="none" stroke="#c0c0c0" stroke-width="2" d="M252.2945,-791.8314C254.3489,-784.0463 256.796,-774.7729 259.0756,-766.1347"/>
<polygon fill="#c0c0c0" stroke="#c0c0c0" stroke-width="2" points="262.4735,-766.9753 261.6409,-756.4133 255.7052,-765.1892 262.4735,-766.9753"/>
</g>
<!-- 23 -->
<g id="node24" class="node">
<title>23</title>
<path fill="none" stroke="#5673d8" stroke-width="2" d="M150.5,-684C150.5,-684 82.5,-684 82.5,-684 76.5,-684 70.5,-678 70.5,-672 70.5,-672 70.5,-660 70.5,-660 70.5,-654 76.5,-648 82.5,-648 82.5,-648 150.5,-648 150.5,-648 156.5,-648 162.5,-654 162.5,-660 162.5,-660 162.5,-672 162.5,-672 162.5,-678 156.5,-684 150.5,-684"/>
<text text-anchor="middle" x="116.5" y="-663.5" font-family="sans" font-size="10.00" fill="#000000">shard_sort_query</text>
</g>
<!-- 23&#45;&gt;12 -->
<g id="edge29" class="edge">
<title>23&#45;&gt;12</title>
<path fill="none" stroke="#c0c0c0" stroke-width="2" d="M160.9122,-647.8314C187.6673,-636.8861 221.614,-622.9988 248.3261,-612.0711"/>
<polygon fill="#c0c0c0" stroke="#c0c0c0" stroke-width="2" points="249.8832,-615.2158 257.8134,-608.19 247.2327,-608.7369 249.8832,-615.2158"/>
</g>
<!-- 24 -->
<g id="node25" class="node">
<title>24</title>
<path fill="none" stroke="#56d0d8" stroke-width="2" d="M150.5,-756C150.5,-756 70.5,-756 70.5,-756 64.5,-756 58.5,-750 58.5,-744 58.5,-744 58.5,-732 58.5,-732 58.5,-726 64.5,-720 70.5,-720 70.5,-720 150.5,-720 150.5,-720 156.5,-720 162.5,-726 162.5,-732 162.5,-732 162.5,-744 162.5,-744 162.5,-750 156.5,-756 150.5,-756"/>
<text text-anchor="middle" x="110.5" y="-735.5" font-family="sans" font-size="10.00" fill="#000000">shard_clean_header</text>
</g>
<!-- 24&#45;&gt;23 -->
<g id="edge44" class="edge">
<title>24&#45;&gt;23</title>
<path fill="none" stroke="#c0c0c0" stroke-width="2" d="M112.0141,-719.8314C112.6558,-712.131 113.4188,-702.9743 114.1319,-694.4166"/>
<polygon fill="#c0c0c0" stroke="#c0c0c0" stroke-width="2" points="117.6229,-694.6694 114.9656,-684.4133 110.6471,-694.088 117.6229,-694.6694"/>
</g>
<!-- 25&#45;&gt;24 -->
<g id="edge45" class="edge">
<title>25&#45;&gt;24</title>
<path fill="none" stroke="#c0c0c0" stroke-width="2" d="M85.0796,-791.8314C88.8358,-783.8771 93.3257,-774.369 97.4798,-765.5723"/>
<polygon fill="#c0c0c0" stroke="#c0c0c0" stroke-width="2" points="100.6996,-766.9503 101.8048,-756.4133 94.3699,-763.9612 100.6996,-766.9503"/>
</g>
<!-- 26 -->
<g id="node27" class="node">
<title>26</title>
<path fill="none" stroke="#c6d856" stroke-width="2" d="M1386.5,-252C1386.5,-252 1346.5,-252 1346.5,-252 1340.5,-252 1334.5,-246 1334.5,-240 1334.5,-240 1334.5,-228 1334.5,-228 1334.5,-222 1340.5,-216 1346.5,-216 1346.5,-216 1386.5,-216 1386.5,-216 1392.5,-216 1398.5,-222 1398.5,-228 1398.5,-228 1398.5,-240 1398.5,-240 1398.5,-246 1392.5,-252 1386.5,-252"/>
<text text-anchor="middle" x="1366.5" y="-231.5" font-family="sans" font-size="10.00" fill="#000000">align_stats</text>
</g>
<!-- 26&#45;&gt;1 -->
<g id="edge18" class="edge">
<title>26&#45;&gt;1</title>
<path fill="none" stroke="#c0c0c0" stroke-width="2" d="M1362.0024,-215.7114C1355.7906,-194.6586 1342.4175,-160.8255 1317.5,-144 1282.255,-120.2009 993.7882,-99.2198 889.7412,-92.3584"/>
<polygon fill="#c0c0c0" stroke="#c0c0c0" stroke-width="2" points="889.8984,-88.8613 879.6915,-91.7019 889.442,-95.8464 889.8984,-88.8613"/>
</g>
<!-- 27 -->
<g id="node28" class="node">
<title>27</title>
<path fill="none" stroke="#d88556" stroke-width="2" d="M1559,-612C1559,-612 1514,-612 1514,-612 1508,-612 1502,-606 1502,-600 1502,-600 1502,-588 1502,-588 1502,-582 1508,-576 1514,-576 1514,-576 1559,-576 1559,-576 1565,-576 1571,-582 1571,-588 1571,-588 1571,-600 1571,-600 1571,-606 1565,-612 1559,-612"/>
<text text-anchor="middle" x="1536.5" y="-591.5" font-family="sans" font-size="10.00" fill="#000000">align_merge</text>
</g>
<!-- 27&#45;&gt;26 -->
<g id="edge48" class="edge">
<title>27&#45;&gt;26</title>
<path fill="none" stroke="#c0c0c0" stroke-width="2" d="M1505.2096,-575.9914C1468.4756,-552.2432 1412.5,-506.7455 1412.5,-450 1412.5,-450 1412.5,-450 1412.5,-378 1412.5,-335.7421 1394.3024,-289.6755 1380.7986,-261.3085"/>
<polygon fill="#c0c0c0" stroke="#c0c0c0" stroke-width="2" points="1383.8022,-259.4843 1376.2554,-252.0482 1377.5178,-262.5675 1383.8022,-259.4843"/>
</g>
<!-- 65 -->
<g id="node66" class="node">
<title>65</title>
<path fill="none" stroke="#d8bc56" stroke-width="2" d="M1568.5,-540C1568.5,-540 1504.5,-540 1504.5,-540 1498.5,-540 1492.5,-534 1492.5,-528 1492.5,-528 1492.5,-516 1492.5,-516 1492.5,-510 1498.5,-504 1504.5,-504 1504.5,-504 1568.5,-504 1568.5,-504 1574.5,-504 1580.5,-510 1580.5,-516 1580.5,-516 1580.5,-528 1580.5,-528 1580.5,-534 1574.5,-540 1568.5,-540"/>
<text text-anchor="middle" x="1536.5" y="-519.5" font-family="sans" font-size="10.00" fill="#000000">align_sort_coord</text>
</g>
<!-- 27&#45;&gt;65 -->
<g id="edge101" class="edge">
<title>27&#45;&gt;65</title>
<path fill="none" stroke="#c0c0c0" stroke-width="2" d="M1536.5,-575.8314C1536.5,-568.131 1536.5,-558.9743 1536.5,-550.4166"/>
<polygon fill="#c0c0c0" stroke="#c0c0c0" stroke-width="2" points="1540.0001,-550.4132 1536.5,-540.4133 1533.0001,-550.4133 1540.0001,-550.4132"/>
</g>
<!-- 28 -->
<g id="node29" class="node">
<title>28</title>
<path fill="none" stroke="#5673d8" stroke-width="2" d="M1583.5,-684C1583.5,-684 1515.5,-684 1515.5,-684 1509.5,-684 1503.5,-678 1503.5,-672 1503.5,-672 1503.5,-660 1503.5,-660 1503.5,-654 1509.5,-648 1515.5,-648 1515.5,-648 1583.5,-648 1583.5,-648 1589.5,-648 1595.5,-654 1595.5,-660 1595.5,-660 1595.5,-672 1595.5,-672 1595.5,-678 1589.5,-684 1583.5,-684"/>
<text text-anchor="middle" x="1549.5" y="-663.5" font-family="sans" font-size="10.00" fill="#000000">shard_sort_query</text>
</g>
<!-- 28&#45;&gt;27 -->
<g id="edge49" class="edge">
<title>28&#45;&gt;27</title>
<path fill="none" stroke="#c0c0c0" stroke-width="2" d="M1546.2196,-647.8314C1544.8292,-640.131 1543.1759,-630.9743 1541.6308,-622.4166"/>
<polygon fill="#c0c0c0" stroke="#c0c0c0" stroke-width="2" points="1545.0458,-621.6322 1539.8246,-612.4133 1538.1572,-622.8761 1545.0458,-621.6322"/>
</g>
<!-- 29 -->
<g id="node30" class="node">
<title>29</title>
<path fill="none" stroke="#56d0d8" stroke-width="2" d="M1607.5,-756C1607.5,-756 1527.5,-756 1527.5,-756 1521.5,-756 1515.5,-750 1515.5,-744 1515.5,-744 1515.5,-732 1515.5,-732 1515.5,-726 1521.5,-720 1527.5,-720 1527.5,-720 1607.5,-720 1607.5,-720 1613.5,-720 1619.5,-726 1619.5,-732 1619.5,-732 1619.5,-744 1619.5,-744 1619.5,-750 1613.5,-756 1607.5,-756"/>
<text text-anchor="middle" x="1567.5" y="-735.5" font-family="sans" font-size="10.00" fill="#000000">shard_clean_header</text>
</g>
<!-- 29&#45;&gt;28 -->
<g id="edge52" class="edge">
<title>29&#45;&gt;28</title>
<path fill="none" stroke="#c0c0c0" stroke-width="2" d="M1562.9578,-719.8314C1561.0116,-712.0463 1558.6932,-702.7729 1556.5337,-694.1347"/>
<polygon fill="#c0c0c0" stroke="#c0c0c0" stroke-width="2" points="1559.9242,-693.2658 1554.1033,-684.4133 1553.1332,-694.9636 1559.9242,-693.2658"/>
</g>
<!-- 30&#45;&gt;29 -->
<g id="edge53" class="edge">
<title>30&#45;&gt;29</title>
<path fill="none" stroke="#c0c0c0" stroke-width="2" d="M1576.4719,-791.8314C1575.1885,-784.131 1573.6624,-774.9743 1572.2361,-766.4166"/>
<polygon fill="#c0c0c0" stroke="#c0c0c0" stroke-width="2" points="1575.6653,-765.7018 1570.5689,-756.4133 1568.7606,-766.8526 1575.6653,-765.7018"/>
</g>
<!-- 31 -->
<g id="node32" class="node">
<title>31</title>
<path fill="none" stroke="#56a2d8" stroke-width="2" d="M1563.5,-900C1563.5,-900 1453.5,-900 1453.5,-900 1447.5,-900 1441.5,-894 1441.5,-888 1441.5,-888 1441.5,-876 1441.5,-876 1441.5,-870 1447.5,-864 1453.5,-864 1453.5,-864 1563.5,-864 1563.5,-864 1569.5,-864 1575.5,-870 1575.5,-876 1575.5,-876 1575.5,-888 1575.5,-888 1575.5,-894 1569.5,-900 1563.5,-900"/>
<text text-anchor="middle" x="1508.5" y="-879.5" font-family="sans" font-size="10.00" fill="#000000">shard_saturated_reads_get</text>
</g>
<!-- 31&#45;&gt;30 -->
<g id="edge55" class="edge">
<title>31&#45;&gt;30</title>
<path fill="none" stroke="#c0c0c0" stroke-width="2" d="M1526.4163,-863.8314C1534.8442,-855.2848 1545.041,-844.9443 1554.236,-835.6198"/>
<polygon fill="#c0c0c0" stroke="#c0c0c0" stroke-width="2" points="1556.8131,-837.9912 1561.3425,-828.4133 1551.8289,-833.0761 1556.8131,-837.9912"/>
</g>
<!-- 31&#45;&gt;37 -->
<g id="edge65" class="edge">
<title>31&#45;&gt;37</title>
<path fill="none" stroke="#c0c0c0" stroke-width="2" d="M1483.2658,-863.8314C1470.712,-854.7927 1455.3717,-843.7476 1441.8609,-834.0198"/>
<polygon fill="#c0c0c0" stroke="#c0c0c0" stroke-width="2" points="1443.8866,-831.1655 1433.7261,-828.1628 1439.7964,-836.8463 1443.8866,-831.1655"/>
</g>
<!-- 31&#45;&gt;40 -->
<g id="edge69" class="edge">
<title>31&#45;&gt;40</title>
<path fill="none" stroke="#c0c0c0" stroke-width="2" d="M1569.2545,-863.9243C1602.9126,-853.9103 1644.9207,-841.412 1680.0174,-830.97"/>
<polygon fill="#c0c0c0" stroke="#c0c0c0" stroke-width="2" points="1681.1339,-834.2896 1689.7206,-828.0831 1679.1377,-827.5802 1681.1339,-834.2896"/>
</g>
<!-- 32&#45;&gt;31 -->
<g id="edge56" class="edge">
<title>32&#45;&gt;31</title>
<path fill="none" stroke="#c0c0c0" stroke-width="2" d="M1523.4532,-935.8314C1521.2906,-928.0463 1518.7147,-918.7729 1516.3152,-910.1347"/>
<polygon fill="#c0c0c0" stroke="#c0c0c0" stroke-width="2" points="1519.6636,-909.1117 1513.6148,-900.4133 1512.919,-910.9852 1519.6636,-909.1117"/>
</g>
<!-- 33&#45;&gt;31 -->
<g id="edge57" class="edge">
<title>33&#45;&gt;31</title>
<path fill="none" stroke="#c0c0c0" stroke-width="2" d="M1411.3045,-935.8314C1428.0862,-926.5368 1448.6985,-915.1208 1466.6163,-905.1971"/>
<polygon fill="#c0c0c0" stroke="#c0c0c0" stroke-width="2" points="1468.6538,-908.0696 1475.706,-900.1628 1465.2623,-901.9461 1468.6538,-908.0696"/>
</g>
<!-- 34&#45;&gt;31 -->
<g id="edge58" class="edge">
<title>34&#45;&gt;31</title>
<path fill="none" stroke="#c0c0c0" stroke-width="2" d="M1635.6018,-935.8314C1612.7643,-926.159 1584.502,-914.1891 1560.4313,-903.9944"/>
<polygon fill="#c0c0c0" stroke="#c0c0c0" stroke-width="2" points="1561.6629,-900.7151 1551.0897,-900.038 1558.9329,-907.1608 1561.6629,-900.7151"/>
</g>
<!-- 35 -->
<g id="node36" class="node">
<title>35</title>
<path fill="none" stroke="#5673d8" stroke-width="2" d="M1464.5,-684C1464.5,-684 1396.5,-684 1396.5,-684 1390.5,-684 1384.5,-678 1384.5,-672 1384.5,-672 1384.5,-660 1384.5,-660 1384.5,-654 1390.5,-648 1396.5,-648 1396.5,-648 1464.5,-648 1464.5,-648 1470.5,-648 1476.5,-654 1476.5,-660 1476.5,-660 1476.5,-672 1476.5,-672 1476.5,-678 1470.5,-684 1464.5,-684"/>
<text text-anchor="middle" x="1430.5" y="-663.5" font-family="sans" font-size="10.00" fill="#000000">shard_sort_query</text>
</g>
<!-- 35&#45;&gt;27 -->
<g id="edge50" class="edge">
<title>35&#45;&gt;27</title>
<path fill="none" stroke="#c0c0c0" stroke-width="2" d="M1457.2483,-647.8314C1470.5553,-638.7927 1486.816,-627.7476 1501.1375,-618.0198"/>
<polygon fill="#c0c0c0" stroke="#c0c0c0" stroke-width="2" points="1503.4547,-620.677 1509.7603,-612.1628 1499.5215,-614.8864 1503.4547,-620.677"/>
</g>
<!-- 36 -->
<g id="node37" class="node">
<title>36</title>
<path fill="none" stroke="#56d0d8" stroke-width="2" d="M1461.5,-756C1461.5,-756 1381.5,-756 1381.5,-756 1375.5,-756 1369.5,-750 1369.5,-744 1369.5,-744 1369.5,-732 1369.5,-732 1369.5,-726 1375.5,-720 1381.5,-720 1381.5,-720 1461.5,-720 1461.5,-720 1467.5,-720 1473.5,-726 1473.5,-732 1473.5,-732 1473.5,-744 1473.5,-744 1473.5,-750 1467.5,-756 1461.5,-756"/>
<text text-anchor="middle" x="1421.5" y="-735.5" font-family="sans" font-size="10.00" fill="#000000">shard_clean_header</text>
</g>
<!-- 36&#45;&gt;35 -->
<g id="edge62" class="edge">
<title>36&#45;&gt;35</title>
<path fill="none" stroke="#c0c0c0" stroke-width="2" d="M1423.7711,-719.8314C1424.7336,-712.131 1425.8782,-702.9743 1426.9479,-694.4166"/>
<polygon fill="#c0c0c0" stroke="#c0c0c0" stroke-width="2" points="1430.4309,-694.7702 1428.1983,-684.4133 1423.4849,-693.9019 1430.4309,-694.7702"/>
</g>
<!-- 37&#45;&gt;36 -->
<g id="edge63" class="edge">
<title>37&#45;&gt;36</title>
<path fill="none" stroke="#c0c0c0" stroke-width="2" d="M1411.7804,-791.8314C1413.1708,-784.131 1414.8241,-774.9743 1416.3692,-766.4166"/>
<polygon fill="#c0c0c0" stroke="#c0c0c0" stroke-width="2" points="1419.8428,-766.8761 1418.1754,-756.4133 1412.9542,-765.6322 1419.8428,-766.8761"/>
</g>
<!-- 38 -->
<g id="node39" class="node">
<title>38</title>
<path fill="none" stroke="#5673d8" stroke-width="2" d="M1733.5,-684C1733.5,-684 1665.5,-684 1665.5,-684 1659.5,-684 1653.5,-678 1653.5,-672 1653.5,-672 1653.5,-660 1653.5,-660 1653.5,-654 1659.5,-648 1665.5,-648 1665.5,-648 1733.5,-648 1733.5,-648 1739.5,-648 1745.5,-654 1745.5,-660 1745.5,-660 1745.5,-672 1745.5,-672 1745.5,-678 1739.5,-684 1733.5,-684"/>
<text text-anchor="middle" x="1699.5" y="-663.5" font-family="sans" font-size="10.00" fill="#000000">shard_sort_query</text>
</g>
<!-- 38&#45;&gt;27 -->
<g id="edge51" class="edge">
<title>38&#45;&gt;27</title>
<path fill="none" stroke="#c0c0c0" stroke-width="2" d="M1658.3682,-647.8314C1634.5561,-637.3131 1604.5931,-624.0779 1580.3362,-613.3632"/>
<polygon fill="#c0c0c0" stroke="#c0c0c0" stroke-width="2" points="1581.5674,-610.0809 1571.0058,-609.2418 1578.739,-616.484 1581.5674,-610.0809"/>
</g>
<!-- 39 -->
<g id="node40" class="node">
<title>39</title>
<path fill="none" stroke="#56d0d8" stroke-width="2" d="M1766.5,-756C1766.5,-756 1686.5,-756 1686.5,-756 1680.5,-756 1674.5,-750 1674.5,-744 1674.5,-744 1674.5,-732 1674.5,-732 1674.5,-726 1680.5,-720 1686.5,-720 1686.5,-720 1766.5,-720 1766.5,-720 1772.5,-720 1778.5,-726 1778.5,-732 1778.5,-732 1778.5,-744 1778.5,-744 1778.5,-750 1772.5,-756 1766.5,-756"/>
<text text-anchor="middle" x="1726.5" y="-735.5" font-family="sans" font-size="10.00" fill="#000000">shard_clean_header</text>
</g>
<!-- 39&#45;&gt;38 -->
<g id="edge66" class="edge">
<title>39&#45;&gt;38</title>
<path fill="none" stroke="#c0c0c0" stroke-width="2" d="M1719.6868,-719.8314C1716.7356,-711.9617 1713.2142,-702.5712 1709.945,-693.8533"/>
<polygon fill="#c0c0c0" stroke="#c0c0c0" stroke-width="2" points="1713.1934,-692.5476 1706.405,-684.4133 1706.6391,-695.0055 1713.1934,-692.5476"/>
</g>
<!-- 40&#45;&gt;39 -->
<g id="edge67" class="edge">
<title>40&#45;&gt;39</title>
<path fill="none" stroke="#c0c0c0" stroke-width="2" d="M1744.4438,-791.8314C1741.8488,-784.0463 1738.7576,-774.7729 1735.8782,-766.1347"/>
<polygon fill="#c0c0c0" stroke="#c0c0c0" stroke-width="2" points="1739.1205,-764.7933 1732.6378,-756.4133 1732.4797,-767.0069 1739.1205,-764.7933"/>
</g>
<!-- 41 -->
<g id="node42" class="node">
<title>41</title>
<path fill="none" stroke="#c6d856" stroke-width="2" d="M872.5,-468C872.5,-468 832.5,-468 832.5,-468 826.5,-468 820.5,-462 820.5,-456 820.5,-456 820.5,-444 820.5,-444 820.5,-438 826.5,-432 832.5,-432 832.5,-432 872.5,-432 872.5,-432 878.5,-432 884.5,-438 884.5,-444 884.5,-444 884.5,-456 884.5,-456 884.5,-462 878.5,-468 872.5,-468"/>
<text text-anchor="middle" x="852.5" y="-447.5" font-family="sans" font-size="10.00" fill="#000000">align_stats</text>
</g>
<!-- 41&#45;&gt;1 -->
<g id="edge19" class="edge">
<title>41&#45;&gt;1</title>
<path fill="none" stroke="#c0c0c0" stroke-width="2" d="M852.5,-431.8146C852.5,-404.4983 852.5,-351.25 852.5,-306 852.5,-306 852.5,-306 852.5,-234 852.5,-193.876 852.5,-147.4631 852.5,-118.4177"/>
<polygon fill="#c0c0c0" stroke="#c0c0c0" stroke-width="2" points="856.0001,-118.1853 852.5,-108.1854 849.0001,-118.1854 856.0001,-118.1853"/>
</g>
<!-- 42 -->
<g id="node43" class="node">
<title>42</title>
<path fill="none" stroke="#d88556" stroke-width="2" d="M875,-612C875,-612 830,-612 830,-612 824,-612 818,-606 818,-600 818,-600 818,-588 818,-588 818,-582 824,-576 830,-576 830,-576 875,-576 875,-576 881,-576 887,-582 887,-588 887,-588 887,-600 887,-600 887,-606 881,-612 875,-612"/>
<text text-anchor="middle" x="852.5" y="-591.5" font-family="sans" font-size="10.00" fill="#000000">align_merge</text>
</g>
<!-- 42&#45;&gt;41 -->
<g id="edge70" class="edge">
<title>42&#45;&gt;41</title>
<path fill="none" stroke="#c0c0c0" stroke-width="2" d="M852.5,-575.7623C852.5,-551.201 852.5,-507.2474 852.5,-478.3541"/>
<polygon fill="#c0c0c0" stroke="#c0c0c0" stroke-width="2" points="856.0001,-478.0896 852.5,-468.0896 849.0001,-478.0897 856.0001,-478.0896"/>
</g>
<!-- 70 -->
<g id="node71" class="node">
<title>70</title>
<path fill="none" stroke="#d8bc56" stroke-width="2" d="M640.5,-540C640.5,-540 576.5,-540 576.5,-540 570.5,-540 564.5,-534 564.5,-528 564.5,-528 564.5,-516 564.5,-516 564.5,-510 570.5,-504 576.5,-504 576.5,-504 640.5,-504 640.5,-504 646.5,-504 652.5,-510 652.5,-516 652.5,-516 652.5,-528 652.5,-528 652.5,-534 646.5,-540 640.5,-540"/>
<text text-anchor="middle" x="608.5" y="-519.5" font-family="sans" font-size="10.00" fill="#000000">align_sort_coord</text>
</g>
<!-- 42&#45;&gt;70 -->
<g id="edge106" class="edge">
<title>42&#45;&gt;70</title>
<path fill="none" stroke="#c0c0c0" stroke-width="2" d="M817.7999,-583.7606C777.2649,-571.7995 709.729,-551.8708 662.3636,-537.8942"/>
<polygon fill="#c0c0c0" stroke="#c0c0c0" stroke-width="2" points="663.1612,-534.4804 652.5795,-535.0071 661.18,-541.1942 663.1612,-534.4804"/>
</g>
<!-- 43 -->
<g id="node44" class="node">
<title>43</title>
<path fill="none" stroke="#5673d8" stroke-width="2" d="M772.5,-684C772.5,-684 704.5,-684 704.5,-684 698.5,-684 692.5,-678 692.5,-672 692.5,-672 692.5,-660 692.5,-660 692.5,-654 698.5,-648 704.5,-648 704.5,-648 772.5,-648 772.5,-648 778.5,-648 784.5,-654 784.5,-660 784.5,-660 784.5,-672 784.5,-672 784.5,-678 778.5,-684 772.5,-684"/>
<text text-anchor="middle" x="738.5" y="-663.5" font-family="sans" font-size="10.00" fill="#000000">shard_sort_query</text>
</g>
<!-- 43&#45;&gt;42 -->
<g id="edge71" class="edge">
<title>43&#45;&gt;42</title>
<path fill="none" stroke="#c0c0c0" stroke-width="2" d="M767.267,-647.8314C781.7133,-638.7074 799.3965,-627.539 814.904,-617.7449"/>
<polygon fill="#c0c0c0" stroke="#c0c0c0" stroke-width="2" points="817.1563,-620.462 823.7422,-612.1628 813.4183,-614.5436 817.1563,-620.462"/>
</g>
<!-- 44 -->
<g id="node45" class="node">
<title>44</title>
<path fill="none" stroke="#56d0d8" stroke-width="2" d="M748.5,-756C748.5,-756 668.5,-756 668.5,-756 662.5,-756 656.5,-750 656.5,-744 656.5,-744 656.5,-732 656.5,-732 656.5,-726 662.5,-720 668.5,-720 668.5,-720 748.5,-720 748.5,-720 754.5,-720 760.5,-726 760.5,-732 760.5,-732 760.5,-744 760.5,-744 760.5,-750 754.5,-756 748.5,-756"/>
<text text-anchor="middle" x="708.5" y="-735.5" font-family="sans" font-size="10.00" fill="#000000">shard_clean_header</text>
</g>
<!-- 44&#45;&gt;43 -->
<g id="edge74" class="edge">
<title>44&#45;&gt;43</title>
<path fill="none" stroke="#c0c0c0" stroke-width="2" d="M716.0703,-719.8314C719.3493,-711.9617 723.262,-702.5712 726.8945,-693.8533"/>
<polygon fill="#c0c0c0" stroke="#c0c0c0" stroke-width="2" points="730.2124,-694.9902 730.8278,-684.4133 723.7508,-692.2979 730.2124,-694.9902"/>
</g>
<!-- 45&#45;&gt;44 -->
<g id="edge75" class="edge">
<title>45&#45;&gt;44</title>
<path fill="none" stroke="#c0c0c0" stroke-width="2" d="M705.5094,-791.8314C705.9372,-784.131 706.4459,-774.9743 706.9213,-766.4166"/>
<polygon fill="#c0c0c0" stroke="#c0c0c0" stroke-width="2" points="710.4169,-766.592 707.477,-756.4133 703.4276,-766.2037 710.4169,-766.592"/>
</g>
<!-- 46 -->
<g id="node47" class="node">
<title>46</title>
<path fill="none" stroke="#56a2d8" stroke-width="2" d="M1011.5,-900C1011.5,-900 901.5,-900 901.5,-900 895.5,-900 889.5,-894 889.5,-888 889.5,-888 889.5,-876 889.5,-876 889.5,-870 895.5,-864 901.5,-864 901.5,-864 1011.5,-864 1011.5,-864 1017.5,-864 1023.5,-870 1023.5,-876 1023.5,-876 1023.5,-888 1023.5,-888 1023.5,-894 1017.5,-900 1011.5,-900"/>
<text text-anchor="middle" x="956.5" y="-879.5" font-family="sans" font-size="10.00" fill="#000000">shard_saturated_reads_get</text>
</g>
<!-- 46&#45;&gt;45 -->
<g id="edge77" class="edge">
<title>46&#45;&gt;45</title>
<path fill="none" stroke="#c0c0c0" stroke-width="2" d="M893.235,-863.9243C858.0363,-853.8675 814.0681,-841.3052 777.4269,-830.8363"/>
<polygon fill="#c0c0c0" stroke="#c0c0c0" stroke-width="2" points="778.3678,-827.4651 767.791,-828.0831 776.4447,-834.1958 778.3678,-827.4651"/>
</g>
<!-- 46&#45;&gt;52 -->
<g id="edge87" class="edge">
<title>46&#45;&gt;52</title>
<path fill="none" stroke="#c0c0c0" stroke-width="2" d="M936.0603,-863.8314C926.1795,-855.0485 914.1676,-844.3712 903.455,-834.8489"/>
<polygon fill="#c0c0c0" stroke="#c0c0c0" stroke-width="2" points="905.7326,-832.1906 895.9332,-828.1628 901.082,-837.4224 905.7326,-832.1906"/>
</g>
<!-- 46&#45;&gt;55 -->
<g id="edge91" class="edge">
<title>46&#45;&gt;55</title>
<path fill="none" stroke="#c0c0c0" stroke-width="2" d="M979.2108,-863.8314C990.296,-854.9632 1003.7954,-844.1637 1015.7852,-834.5718"/>
<polygon fill="#c0c0c0" stroke="#c0c0c0" stroke-width="2" points="1018.1742,-837.1429 1023.7965,-828.1628 1013.8013,-831.6768 1018.1742,-837.1429"/>
</g>
<!-- 47&#45;&gt;46 -->
<g id="edge78" class="edge">
<title>47&#45;&gt;46</title>
<path fill="none" stroke="#c0c0c0" stroke-width="2" d="M822.6693,-935.8314C846.8223,-926.1162 876.7378,-914.0831 902.1556,-903.8592"/>
<polygon fill="#c0c0c0" stroke="#c0c0c0" stroke-width="2" points="903.6841,-907.017 911.6556,-900.038 901.0718,-900.5227 903.6841,-907.017"/>
</g>
<!-- 48&#45;&gt;46 -->
<g id="edge79" class="edge">
<title>48&#45;&gt;46</title>
<path fill="none" stroke="#c0c0c0" stroke-width="2" d="M963.2289,-935.8314C962.2664,-928.131 961.1218,-918.9743 960.0521,-910.4166"/>
<polygon fill="#c0c0c0" stroke="#c0c0c0" stroke-width="2" points="963.5151,-909.9019 958.8017,-900.4133 956.5691,-910.7702 963.5151,-909.9019"/>
</g>
<!-- 49&#45;&gt;46 -->
<g id="edge80" class="edge">
<title>49&#45;&gt;46</title>
<path fill="none" stroke="#c0c0c0" stroke-width="2" d="M1046.2189,-935.8314C1030.8702,-926.6221 1012.0502,-915.3301 995.6177,-905.4706"/>
<polygon fill="#c0c0c0" stroke="#c0c0c0" stroke-width="2" points="997.1471,-902.3066 986.7714,-900.1628 993.5456,-908.3091 997.1471,-902.3066"/>
</g>
<!-- 50 -->
<g id="node51" class="node">
<title>50</title>
<path fill="none" stroke="#5673d8" stroke-width="2" d="M899.5,-684C899.5,-684 831.5,-684 831.5,-684 825.5,-684 819.5,-678 819.5,-672 819.5,-672 819.5,-660 819.5,-660 819.5,-654 825.5,-648 831.5,-648 831.5,-648 899.5,-648 899.5,-648 905.5,-648 911.5,-654 911.5,-660 911.5,-660 911.5,-672 911.5,-672 911.5,-678 905.5,-684 899.5,-684"/>
<text text-anchor="middle" x="865.5" y="-663.5" font-family="sans" font-size="10.00" fill="#000000">shard_sort_query</text>
</g>
<!-- 50&#45;&gt;42 -->
<g id="edge72" class="edge">
<title>50&#45;&gt;42</title>
<path fill="none" stroke="#c0c0c0" stroke-width="2" d="M862.2196,-647.8314C860.8292,-640.131 859.1759,-630.9743 857.6308,-622.4166"/>
<polygon fill="#c0c0c0" stroke="#c0c0c0" stroke-width="2" points="861.0458,-621.6322 855.8246,-612.4133 854.1572,-622.8761 861.0458,-621.6322"/>
</g>
<!-- 51 -->
<g id="node52" class="node">
<title>51</title>
<path fill="none" stroke="#56d0d8" stroke-width="2" d="M907.5,-756C907.5,-756 827.5,-756 827.5,-756 821.5,-756 815.5,-750 815.5,-744 815.5,-744 815.5,-732 815.5,-732 815.5,-726 821.5,-720 827.5,-720 827.5,-720 907.5,-720 907.5,-720 913.5,-720 919.5,-726 919.5,-732 919.5,-732 919.5,-744 919.5,-744 919.5,-750 913.5,-756 907.5,-756"/>
<text text-anchor="middle" x="867.5" y="-735.5" font-family="sans" font-size="10.00" fill="#000000">shard_clean_header</text>
</g>
<!-- 51&#45;&gt;50 -->
<g id="edge84" class="edge">
<title>51&#45;&gt;50</title>
<path fill="none" stroke="#c0c0c0" stroke-width="2" d="M866.9953,-719.8314C866.7814,-712.131 866.5271,-702.9743 866.2894,-694.4166"/>
<polygon fill="#c0c0c0" stroke="#c0c0c0" stroke-width="2" points="869.7879,-694.3122 866.0115,-684.4133 862.7906,-694.5066 869.7879,-694.3122"/>
</g>
<!-- 52&#45;&gt;51 -->
<g id="edge85" class="edge">
<title>52&#45;&gt;51</title>
<path fill="none" stroke="#c0c0c0" stroke-width="2" d="M873.4813,-791.8314C872.6257,-784.131 871.6083,-774.9743 870.6574,-766.4166"/>
<polygon fill="#c0c0c0" stroke="#c0c0c0" stroke-width="2" points="874.1289,-765.9656 869.5459,-756.4133 867.1717,-766.7386 874.1289,-765.9656"/>
</g>
<!-- 53 -->
<g id="node54" class="node">
<title>53</title>
<path fill="none" stroke="#5673d8" stroke-width="2" d="M1028.5,-684C1028.5,-684 960.5,-684 960.5,-684 954.5,-684 948.5,-678 948.5,-672 948.5,-672 948.5,-660 948.5,-660 948.5,-654 954.5,-648 960.5,-648 960.5,-648 1028.5,-648 1028.5,-648 1034.5,-648 1040.5,-654 1040.5,-660 1040.5,-660 1040.5,-672 1040.5,-672 1040.5,-678 1034.5,-684 1028.5,-684"/>
<text text-anchor="middle" x="994.5" y="-663.5" font-family="sans" font-size="10.00" fill="#000000">shard_sort_query</text>
</g>
<!-- 53&#45;&gt;42 -->
<g id="edge73" class="edge">
<title>53&#45;&gt;42</title>
<path fill="none" stroke="#c0c0c0" stroke-width="2" d="M958.6674,-647.8314C939.7152,-638.2218 916.2905,-626.3445 896.2701,-616.1933"/>
<polygon fill="#c0c0c0" stroke="#c0c0c0" stroke-width="2" points="897.8412,-613.0657 887.3394,-611.665 894.6756,-619.3091 897.8412,-613.0657"/>
</g>
<!-- 54 -->
<g id="node55" class="node">
<title>54</title>
<path fill="none" stroke="#56d0d8" stroke-width="2" d="M1053.5,-756C1053.5,-756 973.5,-756 973.5,-756 967.5,-756 961.5,-750 961.5,-744 961.5,-744 961.5,-732 961.5,-732 961.5,-726 967.5,-720 973.5,-720 973.5,-720 1053.5,-720 1053.5,-720 1059.5,-720 1065.5,-726 1065.5,-732 1065.5,-732 1065.5,-744 1065.5,-744 1065.5,-750 1059.5,-756 1053.5,-756"/>
<text text-anchor="middle" x="1013.5" y="-735.5" font-family="sans" font-size="10.00" fill="#000000">shard_clean_header</text>
</g>
<!-- 54&#45;&gt;53 -->
<g id="edge88" class="edge">
<title>54&#45;&gt;53</title>
<path fill="none" stroke="#c0c0c0" stroke-width="2" d="M1008.7055,-719.8314C1006.6511,-712.0463 1004.204,-702.7729 1001.9244,-694.1347"/>
<polygon fill="#c0c0c0" stroke="#c0c0c0" stroke-width="2" points="1005.2948,-693.1892 999.3591,-684.4133 998.5265,-694.9753 1005.2948,-693.1892"/>
</g>
<!-- 55&#45;&gt;54 -->
<g id="edge89" class="edge">
<title>55&#45;&gt;54</title>
<path fill="none" stroke="#c0c0c0" stroke-width="2" d="M1038.1727,-791.8314C1034.527,-783.8771 1030.1691,-774.369 1026.1373,-765.5723"/>
<polygon fill="#c0c0c0" stroke="#c0c0c0" stroke-width="2" points="1029.2877,-764.0456 1021.9394,-756.4133 1022.9243,-766.9622 1029.2877,-764.0456"/>
</g>
<!-- 56 -->
<g id="node57" class="node">
<title>56</title>
<path fill="none" stroke="#56d892" stroke-width="2" d="M482.5,-252C482.5,-252 430.5,-252 430.5,-252 424.5,-252 418.5,-246 418.5,-240 418.5,-240 418.5,-228 418.5,-228 418.5,-222 424.5,-216 430.5,-216 430.5,-216 482.5,-216 482.5,-216 488.5,-216 494.5,-222 494.5,-228 494.5,-228 494.5,-240 494.5,-240 494.5,-246 488.5,-252 482.5,-252"/>
<text text-anchor="middle" x="456.5" y="-231.5" font-family="sans" font-size="10.00" fill="#000000">metadmg_dfit</text>
</g>
<!-- 56&#45;&gt;1 -->
<g id="edge20" class="edge">
<title>56&#45;&gt;1</title>
<path fill="none" stroke="#c0c0c0" stroke-width="2" d="M461.924,-215.8539C469.1806,-194.9382 484.1623,-161.2368 509.5,-144 558.7694,-110.4829 736.5059,-96.5286 814.9025,-91.9113"/>
<polygon fill="#c0c0c0" stroke="#c0c0c0" stroke-width="2" points="815.4966,-95.3832 825.2816,-91.3206 815.0988,-88.3945 815.4966,-95.3832"/>
</g>
<!-- 71 -->
<g id="node72" class="node">
<title>71</title>
<path fill="none" stroke="#56d863" stroke-width="2" d="M445,-180C445,-180 364,-180 364,-180 358,-180 352,-174 352,-168 352,-168 352,-156 352,-156 352,-150 358,-144 364,-144 364,-144 445,-144 445,-144 451,-144 457,-150 457,-156 457,-156 457,-168 457,-168 457,-174 451,-180 445,-180"/>
<text text-anchor="middle" x="404.5" y="-159.5" font-family="sans" font-size="10.00" fill="#000000">metadmg_aggregate</text>
</g>
<!-- 56&#45;&gt;71 -->
<g id="edge108" class="edge">
<title>56&#45;&gt;71</title>
<path fill="none" stroke="#c0c0c0" stroke-width="2" d="M443.3782,-215.8314C437.4501,-207.6232 430.3271,-197.7606 423.8067,-188.7323"/>
<polygon fill="#c0c0c0" stroke="#c0c0c0" stroke-width="2" points="426.4908,-186.4708 417.7985,-180.4133 420.816,-190.5693 426.4908,-186.4708"/>
</g>
<!-- 57 -->
<g id="node58" class="node">
<title>57</title>
<path fill="none" stroke="#56d8a9" stroke-width="2" d="M416,-324C416,-324 365,-324 365,-324 359,-324 353,-318 353,-312 353,-312 353,-300 353,-300 353,-294 359,-288 365,-288 365,-288 416,-288 416,-288 422,-288 428,-294 428,-300 428,-300 428,-312 428,-312 428,-318 422,-324 416,-324"/>
<text text-anchor="middle" x="390.5" y="-303.5" font-family="sans" font-size="10.00" fill="#000000">metadmg_lca</text>
</g>
<!-- 57&#45;&gt;56 -->
<g id="edge92" class="edge">
<title>57&#45;&gt;56</title>
<path fill="none" stroke="#c0c0c0" stroke-width="2" d="M407.1546,-287.8314C414.9114,-279.3694 424.2802,-269.1489 432.761,-259.8971"/>
<polygon fill="#c0c0c0" stroke="#c0c0c0" stroke-width="2" points="435.4439,-262.1499 439.6212,-252.4133 430.2838,-257.4198 435.4439,-262.1499"/>
</g>
<!-- 57&#45;&gt;71 -->
<g id="edge107" class="edge">
<title>57&#45;&gt;71</title>
<path fill="none" stroke="#c0c0c0" stroke-width="2" d="M392.2731,-287.7623C394.661,-263.201 398.9343,-219.2474 401.7434,-190.3541"/>
<polygon fill="#c0c0c0" stroke="#c0c0c0" stroke-width="2" points="405.2571,-190.3814 402.7413,-180.0896 398.29,-189.704 405.2571,-190.3814"/>
</g>
<!-- 58 -->
<g id="node59" class="node">
<title>58</title>
<path fill="none" stroke="#d8d356" stroke-width="2" d="M324.5,-396C324.5,-396 260.5,-396 260.5,-396 254.5,-396 248.5,-390 248.5,-384 248.5,-384 248.5,-372 248.5,-372 248.5,-366 254.5,-360 260.5,-360 260.5,-360 324.5,-360 324.5,-360 330.5,-360 336.5,-366 336.5,-372 336.5,-372 336.5,-384 336.5,-384 336.5,-390 330.5,-396 324.5,-396"/>
<text text-anchor="middle" x="292.5" y="-375.5" font-family="sans" font-size="10.00" fill="#000000">align_sort_query</text>
</g>
<!-- 58&#45;&gt;57 -->
<g id="edge93" class="edge">
<title>58&#45;&gt;57</title>
<path fill="none" stroke="#c0c0c0" stroke-width="2" d="M317.2295,-359.8314C329.4162,-350.8779 344.2823,-339.9558 357.4312,-330.2955"/>
<polygon fill="#c0c0c0" stroke="#c0c0c0" stroke-width="2" points="359.7918,-332.9042 365.7784,-324.1628 355.6473,-327.263 359.7918,-332.9042"/>
</g>
<!-- 74 -->
<g id="node75" class="node">
<title>74</title>
<path fill="none" stroke="#56d87b" stroke-width="2" d="M366,-108C366,-108 293,-108 293,-108 287,-108 281,-102 281,-96 281,-96 281,-84 281,-84 281,-78 287,-72 293,-72 293,-72 366,-72 366,-72 372,-72 378,-78 378,-84 378,-84 378,-96 378,-96 378,-102 372,-108 366,-108"/>
<text text-anchor="middle" x="329.5" y="-87.5" font-family="sans" font-size="10.00" fill="#000000">metadmg_damage</text>
</g>
<!-- 58&#45;&gt;74 -->
<g id="edge113" class="edge">
<title>58&#45;&gt;74</title>
<path fill="none" stroke="#c0c0c0" stroke-width="2" d="M292.0935,-359.8465C291.5793,-320.1832 292.3597,-223.0155 309.5,-144 311.4194,-135.1519 314.4836,-125.8062 317.6426,-117.4221"/>
<polygon fill="#c0c0c0" stroke="#c0c0c0" stroke-width="2" points="320.9028,-118.6954 321.3315,-108.1092 314.3948,-116.1175 320.9028,-118.6954"/>
</g>
<!-- 59 -->
<g id="node60" class="node">
<title>59</title>
<path fill="none" stroke="#d8a456" stroke-width="2" d="M320,-468C320,-468 265,-468 265,-468 259,-468 253,-462 253,-456 253,-456 253,-444 253,-444 253,-438 259,-432 265,-432 265,-432 320,-432 320,-432 326,-432 332,-438 332,-444 332,-444 332,-456 332,-456 332,-462 326,-468 320,-468"/>
<text text-anchor="middle" x="292.5" y="-447.5" font-family="sans" font-size="10.00" fill="#000000">align_reassign</text>
</g>
<!-- 59&#45;&gt;58 -->
<g id="edge94" class="edge">
<title>59&#45;&gt;58</title>
<path fill="none" stroke="#c0c0c0" stroke-width="2" d="M292.5,-431.8314C292.5,-424.131 292.5,-414.9743 292.5,-406.4166"/>
<polygon fill="#c0c0c0" stroke="#c0c0c0" stroke-width="2" points="296.0001,-406.4132 292.5,-396.4133 289.0001,-406.4133 296.0001,-406.4132"/>
</g>
<!-- 60&#45;&gt;59 -->
<g id="edge95" class="edge">
<title>60&#45;&gt;59</title>
<path fill="none" stroke="#c0c0c0" stroke-width="2" d="M292.5,-503.8314C292.5,-496.131 292.5,-486.9743 292.5,-478.4166"/>
<polygon fill="#c0c0c0" stroke="#c0c0c0" stroke-width="2" points="296.0001,-478.4132 292.5,-468.4133 289.0001,-478.4133 296.0001,-478.4132"/>
</g>
<!-- 61 -->
<g id="node62" class="node">
<title>61</title>
<path fill="none" stroke="#56d892" stroke-width="2" d="M1482.5,-252C1482.5,-252 1430.5,-252 1430.5,-252 1424.5,-252 1418.5,-246 1418.5,-240 1418.5,-240 1418.5,-228 1418.5,-228 1418.5,-222 1424.5,-216 1430.5,-216 1430.5,-216 1482.5,-216 1482.5,-216 1488.5,-216 1494.5,-222 1494.5,-228 1494.5,-228 1494.5,-240 1494.5,-240 1494.5,-246 1488.5,-252 1482.5,-252"/>
<text text-anchor="middle" x="1456.5" y="-231.5" font-family="sans" font-size="10.00" fill="#000000">metadmg_dfit</text>
</g>
<!-- 61&#45;&gt;1 -->
<g id="edge21" class="edge">
<title>61&#45;&gt;1</title>
<path fill="none" stroke="#c0c0c0" stroke-width="2" d="M1437.292,-215.9916C1411.5125,-192.2388 1366.6362,-152.4495 1346.5,-144 1263.8895,-109.335 990.1935,-95.3749 889.8217,-91.3402"/>
<polygon fill="#c0c0c0" stroke="#c0c0c0" stroke-width="2" points="889.6872,-87.8323 879.5578,-90.9381 889.4132,-94.8269 889.6872,-87.8323"/>
</g>
<!-- 72 -->
<g id="node73" class="node">
<title>72</title>
<path fill="none" stroke="#56d863" stroke-width="2" d="M1501,-180C1501,-180 1420,-180 1420,-180 1414,-180 1408,-174 1408,-168 1408,-168 1408,-156 1408,-156 1408,-150 1414,-144 1420,-144 1420,-144 1501,-144 1501,-144 1507,-144 1513,-150 1513,-156 1513,-156 1513,-168 1513,-168 1513,-174 1507,-180 1501,-180"/>
<text text-anchor="middle" x="1460.5" y="-159.5" font-family="sans" font-size="10.00" fill="#000000">metadmg_aggregate</text>
</g>
<!-- 61&#45;&gt;72 -->
<g id="edge110" class="edge">
<title>61&#45;&gt;72</title>
<path fill="none" stroke="#c0c0c0" stroke-width="2" d="M1457.5094,-215.8314C1457.9372,-208.131 1458.4459,-198.9743 1458.9213,-190.4166"/>
<polygon fill="#c0c0c0" stroke="#c0c0c0" stroke-width="2" points="1462.4169,-190.592 1459.477,-180.4133 1455.4276,-190.2037 1462.4169,-190.592"/>
</g>
<!-- 62 -->
<g id="node63" class="node">
<title>62</title>
<path fill="none" stroke="#56d8a9" stroke-width="2" d="M1548,-324C1548,-324 1497,-324 1497,-324 1491,-324 1485,-318 1485,-312 1485,-312 1485,-300 1485,-300 1485,-294 1491,-288 1497,-288 1497,-288 1548,-288 1548,-288 1554,-288 1560,-294 1560,-300 1560,-300 1560,-312 1560,-312 1560,-318 1554,-324 1548,-324"/>
<text text-anchor="middle" x="1522.5" y="-303.5" font-family="sans" font-size="10.00" fill="#000000">metadmg_lca</text>
</g>
<!-- 62&#45;&gt;61 -->
<g id="edge97" class="edge">
<title>62&#45;&gt;61</title>
<path fill="none" stroke="#c0c0c0" stroke-width="2" d="M1505.8454,-287.8314C1498.0886,-279.3694 1488.7198,-269.1489 1480.239,-259.8971"/>
<polygon fill="#c0c0c0" stroke="#c0c0c0" stroke-width="2" points="1482.7162,-257.4198 1473.3788,-252.4133 1477.5561,-262.1499 1482.7162,-257.4198"/>
</g>
<!-- 62&#45;&gt;72 -->
<g id="edge109" class="edge">
<title>62&#45;&gt;72</title>
<path fill="none" stroke="#c0c0c0" stroke-width="2" d="M1521.1557,-287.9742C1519.2054,-269.2275 1514.5255,-239.4034 1503.5,-216 1498.778,-205.9768 1491.8584,-196.1503 1484.9443,-187.6857"/>
<polygon fill="#c0c0c0" stroke="#c0c0c0" stroke-width="2" points="1487.55,-185.3475 1478.3889,-180.0254 1482.2316,-189.8989 1487.55,-185.3475"/>
</g>
<!-- 63 -->
<g id="node64" class="node">
<title>63</title>
<path fill="none" stroke="#d8d356" stroke-width="2" d="M1568.5,-396C1568.5,-396 1504.5,-396 1504.5,-396 1498.5,-396 1492.5,-390 1492.5,-384 1492.5,-384 1492.5,-372 1492.5,-372 1492.5,-366 1498.5,-360 1504.5,-360 1504.5,-360 1568.5,-360 1568.5,-360 1574.5,-360 1580.5,-366 1580.5,-372 1580.5,-372 1580.5,-384 1580.5,-384 1580.5,-390 1574.5,-396 1568.5,-396"/>
<text text-anchor="middle" x="1536.5" y="-375.5" font-family="sans" font-size="10.00" fill="#000000">align_sort_query</text>
</g>
<!-- 63&#45;&gt;62 -->
<g id="edge98" class="edge">
<title>63&#45;&gt;62</title>
<path fill="none" stroke="#c0c0c0" stroke-width="2" d="M1532.9672,-359.8314C1531.4699,-352.131 1529.6895,-342.9743 1528.0255,-334.4166"/>
<polygon fill="#c0c0c0" stroke="#c0c0c0" stroke-width="2" points="1531.4248,-333.5614 1526.0804,-324.4133 1524.5535,-334.8975 1531.4248,-333.5614"/>
</g>
<!-- 75 -->
<g id="node76" class="node">
<title>75</title>
<path fill="none" stroke="#56d87b" stroke-width="2" d="M1893,-180C1893,-180 1820,-180 1820,-180 1814,-180 1808,-174 1808,-168 1808,-168 1808,-156 1808,-156 1808,-150 1814,-144 1820,-144 1820,-144 1893,-144 1893,-144 1899,-144 1905,-150 1905,-156 1905,-156 1905,-168 1905,-168 1905,-174 1899,-180 1893,-180"/>
<text text-anchor="middle" x="1856.5" y="-159.5" font-family="sans" font-size="10.00" fill="#000000">metadmg_damage</text>
</g>
<!-- 63&#45;&gt;75 -->
<g id="edge114" class="edge">
<title>63&#45;&gt;75</title>
<path fill="none" stroke="#c0c0c0" stroke-width="2" d="M1563.2326,-359.9555C1620.7619,-321.1232 1756.3182,-229.6227 1820.9803,-185.9758"/>
<polygon fill="#c0c0c0" stroke="#c0c0c0" stroke-width="2" points="1823.2881,-188.6408 1829.6184,-180.1451 1819.3717,-182.8389 1823.2881,-188.6408"/>
</g>
<!-- 64 -->
<g id="node65" class="node">
<title>64</title>
<path fill="none" stroke="#d8a456" stroke-width="2" d="M1564,-468C1564,-468 1509,-468 1509,-468 1503,-468 1497,-462 1497,-456 1497,-456 1497,-444 1497,-444 1497,-438 1503,-432 1509,-432 1509,-432 1564,-432 1564,-432 1570,-432 1576,-438 1576,-444 1576,-444 1576,-456 1576,-456 1576,-462 1570,-468 1564,-468"/>
<text text-anchor="middle" x="1536.5" y="-447.5" font-family="sans" font-size="10.00" fill="#000000">align_reassign</text>
</g>
<!-- 64&#45;&gt;63 -->
<g id="edge99" class="edge">
<title>64&#45;&gt;63</title>
<path fill="none" stroke="#c0c0c0" stroke-width="2" d="M1536.5,-431.8314C1536.5,-424.131 1536.5,-414.9743 1536.5,-406.4166"/>
<polygon fill="#c0c0c0" stroke="#c0c0c0" stroke-width="2" points="1540.0001,-406.4132 1536.5,-396.4133 1533.0001,-406.4133 1540.0001,-406.4132"/>
</g>
<!-- 65&#45;&gt;64 -->
<g id="edge100" class="edge">
<title>65&#45;&gt;64</title>
<path fill="none" stroke="#c0c0c0" stroke-width="2" d="M1536.5,-503.8314C1536.5,-496.131 1536.5,-486.9743 1536.5,-478.4166"/>
<polygon fill="#c0c0c0" stroke="#c0c0c0" stroke-width="2" points="1540.0001,-478.4132 1536.5,-468.4133 1533.0001,-478.4133 1540.0001,-478.4132"/>
</g>
<!-- 66 -->
<g id="node67" class="node">
<title>66</title>
<path fill="none" stroke="#56d892" stroke-width="2" d="M683.5,-252C683.5,-252 631.5,-252 631.5,-252 625.5,-252 619.5,-246 619.5,-240 619.5,-240 619.5,-228 619.5,-228 619.5,-222 625.5,-216 631.5,-216 631.5,-216 683.5,-216 683.5,-216 689.5,-216 695.5,-222 695.5,-228 695.5,-228 695.5,-240 695.5,-240 695.5,-246 689.5,-252 683.5,-252"/>
<text text-anchor="middle" x="657.5" y="-231.5" font-family="sans" font-size="10.00" fill="#000000">metadmg_dfit</text>
</g>
<!-- 66&#45;&gt;1 -->
<g id="edge22" class="edge">
<title>66&#45;&gt;1</title>
<path fill="none" stroke="#c0c0c0" stroke-width="2" d="M663.7953,-215.6395C671.58,-195.4751 686.6655,-163.3888 709.5,-144 740.0331,-118.0743 784.2723,-103.9483 815.4413,-96.7202"/>
<polygon fill="#c0c0c0" stroke="#c0c0c0" stroke-width="2" points="816.4507,-100.0823 825.4719,-94.5264 814.955,-93.2439 816.4507,-100.0823"/>
</g>
<!-- 73 -->
<g id="node74" class="node">
<title>73</title>
<path fill="none" stroke="#56d863" stroke-width="2" d="M645,-180C645,-180 564,-180 564,-180 558,-180 552,-174 552,-168 552,-168 552,-156 552,-156 552,-150 558,-144 564,-144 564,-144 645,-144 645,-144 651,-144 657,-150 657,-156 657,-156 657,-168 657,-168 657,-174 651,-180 645,-180"/>
<text text-anchor="middle" x="604.5" y="-159.5" font-family="sans" font-size="10.00" fill="#000000">metadmg_aggregate</text>
</g>
<!-- 66&#45;&gt;73 -->
<g id="edge112" class="edge">
<title>66&#45;&gt;73</title>
<path fill="none" stroke="#c0c0c0" stroke-width="2" d="M644.1259,-215.8314C638.0838,-207.6232 630.8237,-197.7606 624.1779,-188.7323"/>
<polygon fill="#c0c0c0" stroke="#c0c0c0" stroke-width="2" points="626.8011,-186.3918 618.0542,-180.4133 621.1637,-190.5415 626.8011,-186.3918"/>
</g>
<!-- 67 -->
<g id="node68" class="node">
<title>67</title>
<path fill="none" stroke="#56d8a9" stroke-width="2" d="M621,-324C621,-324 570,-324 570,-324 564,-324 558,-318 558,-312 558,-312 558,-300 558,-300 558,-294 564,-288 570,-288 570,-288 621,-288 621,-288 627,-288 633,-294 633,-300 633,-300 633,-312 633,-312 633,-318 627,-324 621,-324"/>
<text text-anchor="middle" x="595.5" y="-303.5" font-family="sans" font-size="10.00" fill="#000000">metadmg_lca</text>
</g>
<!-- 67&#45;&gt;66 -->
<g id="edge102" class="edge">
<title>67&#45;&gt;66</title>
<path fill="none" stroke="#c0c0c0" stroke-width="2" d="M611.1452,-287.8314C618.3591,-279.454 627.057,-269.3531 634.9605,-260.1749"/>
<polygon fill="#c0c0c0" stroke="#c0c0c0" stroke-width="2" points="637.7711,-262.2748 641.6441,-252.4133 632.4667,-257.7071 637.7711,-262.2748"/>
</g>
<!-- 67&#45;&gt;73 -->
<g id="edge111" class="edge">
<title>67&#45;&gt;73</title>
<path fill="none" stroke="#c0c0c0" stroke-width="2" d="M596.6399,-287.7623C598.1749,-263.201 600.922,-219.2474 602.7279,-190.3541"/>
<polygon fill="#c0c0c0" stroke="#c0c0c0" stroke-width="2" points="606.2387,-190.2885 603.3694,-180.0896 599.2523,-189.8518 606.2387,-190.2885"/>
</g>
<!-- 68 -->
<g id="node69" class="node">
<title>68</title>
<path fill="none" stroke="#d8d356" stroke-width="2" d="M627.5,-396C627.5,-396 563.5,-396 563.5,-396 557.5,-396 551.5,-390 551.5,-384 551.5,-384 551.5,-372 551.5,-372 551.5,-366 557.5,-360 563.5,-360 563.5,-360 627.5,-360 627.5,-360 633.5,-360 639.5,-366 639.5,-372 639.5,-372 639.5,-384 639.5,-384 639.5,-390 633.5,-396 627.5,-396"/>
<text text-anchor="middle" x="595.5" y="-375.5" font-family="sans" font-size="10.00" fill="#000000">align_sort_query</text>
</g>
<!-- 68&#45;&gt;67 -->
<g id="edge103" class="edge">
<title>68&#45;&gt;67</title>
<path fill="none" stroke="#c0c0c0" stroke-width="2" d="M595.5,-359.8314C595.5,-352.131 595.5,-342.9743 595.5,-334.4166"/>
<polygon fill="#c0c0c0" stroke="#c0c0c0" stroke-width="2" points="599.0001,-334.4132 595.5,-324.4133 592.0001,-334.4133 599.0001,-334.4132"/>
</g>
<!-- 76 -->
<g id="node77" class="node">
<title>76</title>
<path fill="none" stroke="#56d87b" stroke-width="2" d="M493,-108C493,-108 420,-108 420,-108 414,-108 408,-102 408,-96 408,-96 408,-84 408,-84 408,-78 414,-72 420,-72 420,-72 493,-72 493,-72 499,-72 505,-78 505,-84 505,-84 505,-96 505,-96 505,-102 499,-108 493,-108"/>
<text text-anchor="middle" x="456.5" y="-87.5" font-family="sans" font-size="10.00" fill="#000000">metadmg_damage</text>
</g>
<!-- 68&#45;&gt;76 -->
<g id="edge115" class="edge">
<title>68&#45;&gt;76</title>
<path fill="none" stroke="#c0c0c0" stroke-width="2" d="M551.4844,-375.0318C486.3718,-369.6241 369.2778,-355.6614 343.5,-324 318.2447,-292.9804 321.1097,-177.801 342.5,-144 354.9913,-124.2612 376.8642,-111.5965 398.1323,-103.5376"/>
<polygon fill="#c0c0c0" stroke="#c0c0c0" stroke-width="2" points="399.5402,-106.7532 407.8256,-100.1501 397.2308,-100.1451 399.5402,-106.7532"/>
</g>
<!-- 69 -->
<g id="node70" class="node">
<title>69</title>
<path fill="none" stroke="#d8a456" stroke-width="2" d="M619,-468C619,-468 564,-468 564,-468 558,-468 552,-462 552,-456 552,-456 552,-444 552,-444 552,-438 558,-432 564,-432 564,-432 619,-432 619,-432 625,-432 631,-438 631,-444 631,-444 631,-456 631,-456 631,-462 625,-468 619,-468"/>
<text text-anchor="middle" x="591.5" y="-447.5" font-family="sans" font-size="10.00" fill="#000000">align_reassign</text>
</g>
<!-- 69&#45;&gt;68 -->
<g id="edge104" class="edge">
<title>69&#45;&gt;68</title>
<path fill="none" stroke="#c0c0c0" stroke-width="2" d="M592.5094,-431.8314C592.9372,-424.131 593.4459,-414.9743 593.9213,-406.4166"/>
<polygon fill="#c0c0c0" stroke="#c0c0c0" stroke-width="2" points="597.4169,-406.592 594.477,-396.4133 590.4276,-406.2037 597.4169,-406.592"/>
</g>
<!-- 70&#45;&gt;69 -->
<g id="edge105" class="edge">
<title>70&#45;&gt;69</title>
<path fill="none" stroke="#c0c0c0" stroke-width="2" d="M604.2102,-503.8314C602.392,-496.131 600.2301,-486.9743 598.2095,-478.4166"/>
<polygon fill="#c0c0c0" stroke="#c0c0c0" stroke-width="2" points="601.5519,-477.3414 595.8476,-468.4133 594.7392,-478.95 601.5519,-477.3414"/>
</g>
<!-- 71&#45;&gt;0 -->
<g id="edge2" class="edge">
<title>71&#45;&gt;0</title>
<path fill="none" stroke="#c0c0c0" stroke-width="2" d="M448.7519,-143.9838C469.3115,-134.6541 493.5609,-122.2324 513.5,-108 539.5686,-89.3924 565.1306,-63.2066 582.4921,-43.8755"/>
<polygon fill="#c0c0c0" stroke="#c0c0c0" stroke-width="2" points="585.1772,-46.1225 589.1811,-36.3134 579.9341,-41.4847 585.1772,-46.1225"/>
</g>
<!-- 71&#45;&gt;1 -->
<g id="edge23" class="edge">
<title>71&#45;&gt;1</title>
<path fill="none" stroke="#c0c0c0" stroke-width="2" d="M457.0229,-147.2416C461.899,-146.0676 466.7798,-144.9648 471.5,-144 596.0701,-118.5373 745.9964,-101.0889 814.7292,-93.8116"/>
<polygon fill="#c0c0c0" stroke="#c0c0c0" stroke-width="2" points="815.4658,-97.2537 825.0469,-92.7313 814.7368,-90.2917 815.4658,-97.2537"/>
</g>
<!-- 72&#45;&gt;0 -->
<g id="edge3" class="edge">
<title>72&#45;&gt;0</title>
<path fill="none" stroke="#c0c0c0" stroke-width="2" d="M1407.7531,-148.8115C1400.3015,-147.1029 1392.7213,-145.4469 1385.5,-144 1101.1004,-87.0155 754.4272,-38.3013 641.7723,-22.9926"/>
<polygon fill="#c0c0c0" stroke="#c0c0c0" stroke-width="2" points="641.99,-19.4903 631.6107,-21.6163 641.0504,-26.4269 641.99,-19.4903"/>
</g>
<!-- 72&#45;&gt;1 -->
<g id="edge24" class="edge">
<title>72&#45;&gt;1</title>
<path fill="none" stroke="#c0c0c0" stroke-width="2" d="M1407.6512,-146.9484C1402.8884,-145.8511 1398.1206,-144.8455 1393.5,-144 1206.1339,-109.7168 977.9975,-95.9285 889.79,-91.6266"/>
<polygon fill="#c0c0c0" stroke="#c0c0c0" stroke-width="2" points="889.8939,-88.1277 879.7388,-91.1483 889.5611,-95.1198 889.8939,-88.1277"/>
</g>
<!-- 73&#45;&gt;0 -->
<g id="edge4" class="edge">
<title>73&#45;&gt;0</title>
<path fill="none" stroke="#c0c0c0" stroke-width="2" d="M604.5,-143.7623C604.5,-119.201 604.5,-75.2474 604.5,-46.3541"/>
<polygon fill="#c0c0c0" stroke="#c0c0c0" stroke-width="2" points="608.0001,-46.0896 604.5,-36.0896 601.0001,-46.0897 608.0001,-46.0896"/>
</g>
<!-- 73&#45;&gt;1 -->
<g id="edge25" class="edge">
<title>73&#45;&gt;1</title>
<path fill="none" stroke="#c0c0c0" stroke-width="2" d="M657.0944,-146.7307C704.6444,-132.9258 773.4449,-112.9515 815.4486,-100.7569"/>
<polygon fill="#c0c0c0" stroke="#c0c0c0" stroke-width="2" points="816.6375,-104.0563 825.2651,-97.9069 814.6858,-97.3339 816.6375,-104.0563"/>
</g>
<!-- 74&#45;&gt;0 -->
<g id="edge5" class="edge">
<title>74&#45;&gt;0</title>
<path fill="none" stroke="#c0c0c0" stroke-width="2" d="M378.0315,-77.2936C432.1582,-63.1222 518.5189,-40.5114 567.4711,-27.6948"/>
<polygon fill="#c0c0c0" stroke="#c0c0c0" stroke-width="2" points="568.5367,-31.0339 577.3241,-25.1151 566.7637,-24.2621 568.5367,-31.0339"/>
</g>
<!-- 75&#45;&gt;0 -->
<g id="edge6" class="edge">
<title>75&#45;&gt;0</title>
<path fill="none" stroke="#c0c0c0" stroke-width="2" d="M1807.8625,-147.2051C1803.0366,-146.0082 1798.1898,-144.9114 1793.5,-144 1345.2224,-56.8859 789.3393,-26.4458 641.8414,-19.6065"/>
<polygon fill="#c0c0c0" stroke="#c0c0c0" stroke-width="2" points="641.6924,-16.0962 631.5433,-19.1369 641.3734,-23.0889 641.6924,-16.0962"/>
</g>
<!-- 76&#45;&gt;0 -->
<g id="edge7" class="edge">
<title>76&#45;&gt;0</title>
<path fill="none" stroke="#c0c0c0" stroke-width="2" d="M493.8466,-71.8314C516.6249,-60.7501 545.6018,-46.6532 568.1885,-35.665"/>
<polygon fill="#c0c0c0" stroke="#c0c0c0" stroke-width="2" points="569.9794,-38.6861 577.4406,-31.164 566.9171,-32.3914 569.9794,-38.6861"/>
</g>
</g>
</svg>
