<?xml version="1.0" encoding="UTF-8" standalone="no"?>
<!DOCTYPE svg PUBLIC "-//W3C//DTD SVG 1.1//EN"
 "http://www.w3.org/Graphics/SVG/1.1/DTD/svg11.dtd">
<!-- Generated by graphviz version 2.40.1 (0)
 -->
<!-- Title: snakemake_dag Pages: 1 -->
<svg width="1987pt" height="1101pt"
 viewBox="0.00 0.00 1986.50 1101.00" xmlns="http://www.w3.org/2000/svg" xmlns:xlink="http://www.w3.org/1999/xlink">
<g id="graph0" class="graph" transform="scale(1 1) rotate(0) translate(4 1097)">
<title>snakemake_dag</title>
<polygon fill="#ffffff" stroke="transparent" points="-4,4 -4,-1097 1982.5,-1097 1982.5,4 -4,4"/>
<!-- 0 -->
<g id="node1" class="node">
<title>0</title>
<path fill="none" stroke="#b6d856" stroke-width="2" d="M1180.5,-36C1180.5,-36 1150.5,-36 1150.5,-36 1144.5,-36 1138.5,-30 1138.5,-24 1138.5,-24 1138.5,-12 1138.5,-12 1138.5,-6 1144.5,0 1150.5,0 1150.5,0 1180.5,0 1180.5,0 1186.5,0 1192.5,-6 1192.5,-12 1192.5,-12 1192.5,-24 1192.5,-24 1192.5,-30 1186.5,-36 1180.5,-36"/>
<text text-anchor="middle" x="1165.5" y="-15.5" font-family="sans" font-size="10.00" fill="#000000">all</text>
</g>
<!-- 1 -->
<g id="node2" class="node">
<title>1</title>
<path fill="none" stroke="#56d8b1" stroke-width="2" d="M857.5,-108C857.5,-108 827.5,-108 827.5,-108 821.5,-108 815.5,-102 815.5,-96 815.5,-96 815.5,-84 815.5,-84 815.5,-78 821.5,-72 827.5,-72 827.5,-72 857.5,-72 857.5,-72 863.5,-72 869.5,-78 869.5,-84 869.5,-84 869.5,-96 869.5,-96 869.5,-102 863.5,-108 857.5,-108"/>
<text text-anchor="middle" x="842.5" y="-87.5" font-family="sans" font-size="10.00" fill="#000000">multiqc</text>
</g>
<!-- 1&#45;&gt;0 -->
<g id="edge1" class="edge">
<title>1&#45;&gt;0</title>
<path fill="none" stroke="#c0c0c0" stroke-width="2" d="M869.7604,-83.9234C927.6521,-71.0187 1062.9191,-40.8663 1128.5188,-26.2435"/>
<polygon fill="#c0c0c0" stroke="#c0c0c0" stroke-width="2" points="1129.4276,-29.6269 1138.4265,-24.035 1127.9045,-22.7946 1129.4276,-29.6269"/>
</g>
<!-- 2 -->
<g id="node3" class="node">
<title>2</title>
<path fill="none" stroke="#9fd856" stroke-width="2" d="M822,-1093C822,-1093 715,-1093 715,-1093 709,-1093 703,-1087 703,-1081 703,-1081 703,-1020 703,-1020 703,-1014 709,-1008 715,-1008 715,-1008 822,-1008 822,-1008 828,-1008 834,-1014 834,-1020 834,-1020 834,-1081 834,-1081 834,-1087 828,-1093 822,-1093"/>
<text text-anchor="middle" x="768.5" y="-1081" font-family="sans" font-size="10.00" fill="#000000">bowtie2</text>
<text text-anchor="middle" x="768.5" y="-1070" font-family="sans" font-size="10.00" fill="#000000">library: lib1</text>
<text text-anchor="middle" x="768.5" y="-1059" font-family="sans" font-size="10.00" fill="#000000">n_shard: 1</text>
<text text-anchor="middle" x="768.5" y="-1048" font-family="sans" font-size="10.00" fill="#000000">read_type_map: collapsed</text>
<text text-anchor="middle" x="768.5" y="-1037" font-family="sans" font-size="10.00" fill="#000000">ref: wgs_eukaryota</text>
<text text-anchor="middle" x="768.5" y="-1026" font-family="sans" font-size="10.00" fill="#000000">sample: HD827sonic_1</text>
<text text-anchor="middle" x="768.5" y="-1015" font-family="sans" font-size="10.00" fill="#000000">tot_shards: 2</text>
</g>
<!-- 2&#45;&gt;1 -->
<g id="edge11" class="edge">
<title>2&#45;&gt;1</title>
<path fill="none" stroke="#c0c0c0" stroke-width="2" d="M730.9954,-1007.6718C722.6787,-996.6018 714.5504,-984.3169 708.5,-972 690.2475,-934.8432 684.5,-923.3978 684.5,-882 684.5,-882 684.5,-882 684.5,-234 684.5,-192.6022 681.0737,-175.0093 708.5,-144 733.3234,-115.9337 774.8057,-102.235 805.0516,-95.6928"/>
<polygon fill="#c0c0c0" stroke="#c0c0c0" stroke-width="2" points="806.1114,-99.0506 815.2356,-93.6654 804.7447,-92.1853 806.1114,-99.0506"/>
</g>
<!-- 15 -->
<g id="node16" class="node">
<title>15</title>
<path fill="none" stroke="#5682d8" stroke-width="2" d="M930,-828C930,-828 801,-828 801,-828 795,-828 789,-822 789,-816 789,-816 789,-804 789,-804 789,-798 795,-792 801,-792 801,-792 930,-792 930,-792 936,-792 942,-798 942,-804 942,-804 942,-816 942,-816 942,-822 936,-828 930,-828"/>
<text text-anchor="middle" x="865.5" y="-807.5" font-family="sans" font-size="10.00" fill="#000000">shard_saturated_reads_remove</text>
</g>
<!-- 2&#45;&gt;15 -->
<g id="edge35" class="edge">
<title>2&#45;&gt;15</title>
<path fill="none" stroke="#c0c0c0" stroke-width="2" d="M775.8788,-1007.9901C783.7703,-968.9915 798.5048,-910.4121 822.5,-864 827.5885,-854.1578 834.6099,-844.3815 841.5044,-835.9073"/>
<polygon fill="#c0c0c0" stroke="#c0c0c0" stroke-width="2" points="844.2202,-838.1161 848.0086,-828.2217 838.8768,-833.5941 844.2202,-838.1161"/>
</g>
<!-- 19 -->
<g id="node20" class="node">
<title>19</title>
<path fill="none" stroke="#56c9d8" stroke-width="2" d="M946,-972C946,-972 877,-972 877,-972 871,-972 865,-966 865,-960 865,-960 865,-948 865,-948 865,-942 871,-936 877,-936 877,-936 946,-936 946,-936 952,-936 958,-942 958,-948 958,-948 958,-960 958,-960 958,-966 952,-972 946,-972"/>
<text text-anchor="middle" x="911.5" y="-951.5" font-family="sans" font-size="10.00" fill="#000000">shard_count_alns</text>
</g>
<!-- 2&#45;&gt;19 -->
<g id="edge42" class="edge">
<title>2&#45;&gt;19</title>
<path fill="none" stroke="#c0c0c0" stroke-width="2" d="M831.6381,-1007.8928C846.8593,-997.6212 862.593,-987.0037 876.0288,-977.9369"/>
<polygon fill="#c0c0c0" stroke="#c0c0c0" stroke-width="2" points="878.1664,-980.7168 884.4978,-972.2218 874.2508,-974.9144 878.1664,-980.7168"/>
</g>
<!-- 3 -->
<g id="node4" class="node">
<title>3</title>
<path fill="none" stroke="#9fd856" stroke-width="2" d="M1226,-1093C1226,-1093 1119,-1093 1119,-1093 1113,-1093 1107,-1087 1107,-1081 1107,-1081 1107,-1020 1107,-1020 1107,-1014 1113,-1008 1119,-1008 1119,-1008 1226,-1008 1226,-1008 1232,-1008 1238,-1014 1238,-1020 1238,-1020 1238,-1081 1238,-1081 1238,-1087 1232,-1093 1226,-1093"/>
<text text-anchor="middle" x="1172.5" y="-1081" font-family="sans" font-size="10.00" fill="#000000">bowtie2</text>
<text text-anchor="middle" x="1172.5" y="-1070" font-family="sans" font-size="10.00" fill="#000000">library: lib1</text>
<text text-anchor="middle" x="1172.5" y="-1059" font-family="sans" font-size="10.00" fill="#000000">n_shard: 1</text>
<text text-anchor="middle" x="1172.5" y="-1048" font-family="sans" font-size="10.00" fill="#000000">read_type_map: collapsed</text>
<text text-anchor="middle" x="1172.5" y="-1037" font-family="sans" font-size="10.00" fill="#000000">ref: refseq_mitochondrion</text>
<text text-anchor="middle" x="1172.5" y="-1026" font-family="sans" font-size="10.00" fill="#000000">sample: HD827sonic_1</text>
<text text-anchor="middle" x="1172.5" y="-1015" font-family="sans" font-size="10.00" fill="#000000">tot_shards: 1</text>
</g>
<!-- 3&#45;&gt;1 -->
<g id="edge12" class="edge">
<title>3&#45;&gt;1</title>
<path fill="none" stroke="#c0c0c0" stroke-width="2" d="M1141.5537,-1007.7141C1120.3946,-979.5091 1093.5504,-945.9965 1078.5,-936 1031.7626,-904.957 1010.4374,-918.5925 957.5,-900 877.3722,-871.8577 827.9068,-898.463 780.5,-828 771.5686,-814.7248 779.3119,-807.9558 780.5,-792 794.3159,-606.4618 842.5,-564.0519 842.5,-378 842.5,-378 842.5,-378 842.5,-234 842.5,-193.876 842.5,-147.4631 842.5,-118.4177"/>
<polygon fill="#c0c0c0" stroke="#c0c0c0" stroke-width="2" points="846.0001,-118.1853 842.5,-108.1854 839.0001,-118.1854 846.0001,-118.1853"/>
</g>
<!-- 18 -->
<g id="node19" class="node">
<title>18</title>
<path fill="none" stroke="#56c9d8" stroke-width="2" d="M1207,-972C1207,-972 1138,-972 1138,-972 1132,-972 1126,-966 1126,-960 1126,-960 1126,-948 1126,-948 1126,-942 1132,-936 1138,-936 1138,-936 1207,-936 1207,-936 1213,-936 1219,-942 1219,-948 1219,-948 1219,-960 1219,-960 1219,-966 1213,-972 1207,-972"/>
<text text-anchor="middle" x="1172.5" y="-951.5" font-family="sans" font-size="10.00" fill="#000000">shard_count_alns</text>
</g>
<!-- 3&#45;&gt;18 -->
<g id="edge41" class="edge">
<title>3&#45;&gt;18</title>
<path fill="none" stroke="#c0c0c0" stroke-width="2" d="M1172.5,-1007.8928C1172.5,-999.2842 1172.5,-990.4327 1172.5,-982.4546"/>
<polygon fill="#c0c0c0" stroke="#c0c0c0" stroke-width="2" points="1176.0001,-982.2218 1172.5,-972.2218 1169.0001,-982.2218 1176.0001,-982.2218"/>
</g>
<!-- 25 -->
<g id="node26" class="node">
<title>25</title>
<path fill="none" stroke="#5682d8" stroke-width="2" d="M1272,-828C1272,-828 1143,-828 1143,-828 1137,-828 1131,-822 1131,-816 1131,-816 1131,-804 1131,-804 1131,-798 1137,-792 1143,-792 1143,-792 1272,-792 1272,-792 1278,-792 1284,-798 1284,-804 1284,-804 1284,-816 1284,-816 1284,-822 1278,-828 1272,-828"/>
<text text-anchor="middle" x="1207.5" y="-807.5" font-family="sans" font-size="10.00" fill="#000000">shard_saturated_reads_remove</text>
</g>
<!-- 3&#45;&gt;25 -->
<g id="edge49" class="edge">
<title>3&#45;&gt;25</title>
<path fill="none" stroke="#c0c0c0" stroke-width="2" d="M1210.01,-1007.8766C1217.5912,-996.8929 1224.4677,-984.5956 1228.5,-972 1243.0124,-926.6675 1229.4696,-871.1444 1218.4203,-838.2778"/>
<polygon fill="#c0c0c0" stroke="#c0c0c0" stroke-width="2" points="1221.5809,-836.7153 1214.9592,-828.4446 1214.9779,-839.0394 1221.5809,-836.7153"/>
</g>
<!-- 4 -->
<g id="node5" class="node">
<title>4</title>
<path fill="none" stroke="#9fd856" stroke-width="2" d="M455,-1093C455,-1093 348,-1093 348,-1093 342,-1093 336,-1087 336,-1081 336,-1081 336,-1020 336,-1020 336,-1014 342,-1008 348,-1008 348,-1008 455,-1008 455,-1008 461,-1008 467,-1014 467,-1020 467,-1020 467,-1081 467,-1081 467,-1087 461,-1093 455,-1093"/>
<text text-anchor="middle" x="401.5" y="-1081" font-family="sans" font-size="10.00" fill="#000000">bowtie2</text>
<text text-anchor="middle" x="401.5" y="-1070" font-family="sans" font-size="10.00" fill="#000000">library: lib1</text>
<text text-anchor="middle" x="401.5" y="-1059" font-family="sans" font-size="10.00" fill="#000000">n_shard: 1</text>
<text text-anchor="middle" x="401.5" y="-1048" font-family="sans" font-size="10.00" fill="#000000">read_type_map: collapsed</text>
<text text-anchor="middle" x="401.5" y="-1037" font-family="sans" font-size="10.00" fill="#000000">ref: refseq_mitochondrion</text>
<text text-anchor="middle" x="401.5" y="-1026" font-family="sans" font-size="10.00" fill="#000000">sample: HD827sonic_2</text>
<text text-anchor="middle" x="401.5" y="-1015" font-family="sans" font-size="10.00" fill="#000000">tot_shards: 1</text>
</g>
<!-- 4&#45;&gt;1 -->
<g id="edge13" class="edge">
<title>4&#45;&gt;1</title>
<path fill="none" stroke="#c0c0c0" stroke-width="2" d="M467.1092,-1020.7279C489.6263,-1008.1262 513.6308,-991.7428 531.5,-972 584.9958,-912.8953 608.5,-889.7193 608.5,-810 608.5,-810 608.5,-810 608.5,-234 608.5,-189.8588 616.8578,-172.577 650.5,-144 673.8447,-124.1701 756.6205,-105.9584 805.5351,-96.5989"/>
<polygon fill="#c0c0c0" stroke="#c0c0c0" stroke-width="2" points="806.2447,-100.0268 815.4254,-94.7386 804.9508,-93.1475 806.2447,-100.0268"/>
</g>
<!-- 33 -->
<g id="node34" class="node">
<title>33</title>
<path fill="none" stroke="#56c9d8" stroke-width="2" d="M361,-972C361,-972 292,-972 292,-972 286,-972 280,-966 280,-960 280,-960 280,-948 280,-948 280,-942 286,-936 292,-936 292,-936 361,-936 361,-936 367,-936 373,-942 373,-948 373,-948 373,-960 373,-960 373,-966 367,-972 361,-972"/>
<text text-anchor="middle" x="326.5" y="-951.5" font-family="sans" font-size="10.00" fill="#000000">shard_count_alns</text>
</g>
<!-- 4&#45;&gt;33 -->
<g id="edge63" class="edge">
<title>4&#45;&gt;33</title>
<path fill="none" stroke="#c0c0c0" stroke-width="2" d="M368.3856,-1007.8928C361.0867,-998.5016 353.5632,-988.8213 346.9414,-980.3013"/>
<polygon fill="#c0c0c0" stroke="#c0c0c0" stroke-width="2" points="349.5621,-977.9697 340.662,-972.2218 344.0351,-982.2653 349.5621,-977.9697"/>
</g>
<!-- 40 -->
<g id="node41" class="node">
<title>40</title>
<path fill="none" stroke="#5682d8" stroke-width="2" d="M397,-828C397,-828 268,-828 268,-828 262,-828 256,-822 256,-816 256,-816 256,-804 256,-804 256,-798 262,-792 268,-792 268,-792 397,-792 397,-792 403,-792 409,-798 409,-804 409,-804 409,-816 409,-816 409,-822 403,-828 397,-828"/>
<text text-anchor="middle" x="332.5" y="-807.5" font-family="sans" font-size="10.00" fill="#000000">shard_saturated_reads_remove</text>
</g>
<!-- 4&#45;&gt;40 -->
<g id="edge71" class="edge">
<title>4&#45;&gt;40</title>
<path fill="none" stroke="#c0c0c0" stroke-width="2" d="M404.6579,-1007.7857C405.8503,-968.6462 403.2652,-909.9744 382.5,-864 377.7486,-853.4804 370.1237,-843.6603 362.2452,-835.3562"/>
<polygon fill="#c0c0c0" stroke="#c0c0c0" stroke-width="2" points="364.5771,-832.7394 355.0136,-828.1796 359.6462,-837.708 364.5771,-832.7394"/>
</g>
<!-- 5 -->
<g id="node6" class="node">
<title>5</title>
<path fill="none" stroke="#9fd856" stroke-width="2" d="M971,-1093C971,-1093 864,-1093 864,-1093 858,-1093 852,-1087 852,-1081 852,-1081 852,-1020 852,-1020 852,-1014 858,-1008 864,-1008 864,-1008 971,-1008 971,-1008 977,-1008 983,-1014 983,-1020 983,-1020 983,-1081 983,-1081 983,-1087 977,-1093 971,-1093"/>
<text text-anchor="middle" x="917.5" y="-1081" font-family="sans" font-size="10.00" fill="#000000">bowtie2</text>
<text text-anchor="middle" x="917.5" y="-1070" font-family="sans" font-size="10.00" fill="#000000">library: lib1</text>
<text text-anchor="middle" x="917.5" y="-1059" font-family="sans" font-size="10.00" fill="#000000">n_shard: 2</text>
<text text-anchor="middle" x="917.5" y="-1048" font-family="sans" font-size="10.00" fill="#000000">read_type_map: collapsed</text>
<text text-anchor="middle" x="917.5" y="-1037" font-family="sans" font-size="10.00" fill="#000000">ref: wgs_eukaryota</text>
<text text-anchor="middle" x="917.5" y="-1026" font-family="sans" font-size="10.00" fill="#000000">sample: HD827sonic_1</text>
<text text-anchor="middle" x="917.5" y="-1015" font-family="sans" font-size="10.00" fill="#000000">tot_shards: 2</text>
</g>
<!-- 5&#45;&gt;1 -->
<g id="edge14" class="edge">
<title>5&#45;&gt;1</title>
<path fill="none" stroke="#c0c0c0" stroke-width="2" d="M851.7537,-1009.6097C795.1432,-972.0114 722.5,-916.9549 722.5,-882 722.5,-882 722.5,-882 722.5,-234 722.5,-180.8995 771.2519,-136.9881 806.6078,-112.1247"/>
<polygon fill="#c0c0c0" stroke="#c0c0c0" stroke-width="2" points="808.9787,-114.7445 815.2701,-106.2199 805.0359,-108.9604 808.9787,-114.7445"/>
</g>
<!-- 17 -->
<g id="node18" class="node">
<title>17</title>
<path fill="none" stroke="#56c9d8" stroke-width="2" d="M1057,-972C1057,-972 988,-972 988,-972 982,-972 976,-966 976,-960 976,-960 976,-948 976,-948 976,-942 982,-936 988,-936 988,-936 1057,-936 1057,-936 1063,-936 1069,-942 1069,-948 1069,-948 1069,-960 1069,-960 1069,-966 1063,-972 1057,-972"/>
<text text-anchor="middle" x="1022.5" y="-951.5" font-family="sans" font-size="10.00" fill="#000000">shard_count_alns</text>
</g>
<!-- 5&#45;&gt;17 -->
<g id="edge40" class="edge">
<title>5&#45;&gt;17</title>
<path fill="none" stroke="#c0c0c0" stroke-width="2" d="M963.8602,-1007.8928C974.5043,-998.1103 985.4898,-988.0141 995.0341,-979.2425"/>
<polygon fill="#c0c0c0" stroke="#c0c0c0" stroke-width="2" points="997.6787,-981.5656 1002.6732,-972.2218 992.942,-976.4116 997.6787,-981.5656"/>
</g>
<!-- 22 -->
<g id="node23" class="node">
<title>22</title>
<path fill="none" stroke="#5682d8" stroke-width="2" d="M1101,-828C1101,-828 972,-828 972,-828 966,-828 960,-822 960,-816 960,-816 960,-804 960,-804 960,-798 966,-792 972,-792 972,-792 1101,-792 1101,-792 1107,-792 1113,-798 1113,-804 1113,-804 1113,-816 1113,-816 1113,-822 1107,-828 1101,-828"/>
<text text-anchor="middle" x="1036.5" y="-807.5" font-family="sans" font-size="10.00" fill="#000000">shard_saturated_reads_remove</text>
</g>
<!-- 5&#45;&gt;22 -->
<g id="edge45" class="edge">
<title>5&#45;&gt;22</title>
<path fill="none" stroke="#c0c0c0" stroke-width="2" d="M873.4522,-1007.9632C856.646,-986.465 844.1727,-959.9267 856.5,-936 882.0538,-886.4013 937.1678,-852.3472 979.7211,-832.266"/>
<polygon fill="#c0c0c0" stroke="#c0c0c0" stroke-width="2" points="981.2381,-835.4209 988.8686,-828.0707 978.3199,-829.0582 981.2381,-835.4209"/>
</g>
<!-- 6 -->
<g id="node7" class="node">
<title>6</title>
<path fill="none" stroke="#9fd856" stroke-width="2" d="M643,-1093C643,-1093 536,-1093 536,-1093 530,-1093 524,-1087 524,-1081 524,-1081 524,-1020 524,-1020 524,-1014 530,-1008 536,-1008 536,-1008 643,-1008 643,-1008 649,-1008 655,-1014 655,-1020 655,-1020 655,-1081 655,-1081 655,-1087 649,-1093 643,-1093"/>
<text text-anchor="middle" x="589.5" y="-1081" font-family="sans" font-size="10.00" fill="#000000">bowtie2</text>
<text text-anchor="middle" x="589.5" y="-1070" font-family="sans" font-size="10.00" fill="#000000">library: lib1</text>
<text text-anchor="middle" x="589.5" y="-1059" font-family="sans" font-size="10.00" fill="#000000">n_shard: 1</text>
<text text-anchor="middle" x="589.5" y="-1048" font-family="sans" font-size="10.00" fill="#000000">read_type_map: collapsed</text>
<text text-anchor="middle" x="589.5" y="-1037" font-family="sans" font-size="10.00" fill="#000000">ref: wgs_eukaryota</text>
<text text-anchor="middle" x="589.5" y="-1026" font-family="sans" font-size="10.00" fill="#000000">sample: HD827sonic_2</text>
<text text-anchor="middle" x="589.5" y="-1015" font-family="sans" font-size="10.00" fill="#000000">tot_shards: 2</text>
</g>
<!-- 6&#45;&gt;1 -->
<g id="edge15" class="edge">
<title>6&#45;&gt;1</title>
<path fill="none" stroke="#c0c0c0" stroke-width="2" d="M612.5198,-1007.8462C628.3394,-974.5574 646.5,-926.6244 646.5,-882 646.5,-882 646.5,-882 646.5,-234 646.5,-190.7517 651.976,-173.6084 683.5,-144 717.1524,-112.3925 770.0167,-99.2258 805.4447,-93.78"/>
<polygon fill="#c0c0c0" stroke="#c0c0c0" stroke-width="2" points="805.9754,-97.2399 815.3912,-92.3827 805.0015,-90.308 805.9754,-97.2399"/>
</g>
<!-- 30 -->
<g id="node31" class="node">
<title>30</title>
<path fill="none" stroke="#5682d8" stroke-width="2" d="M568,-828C568,-828 439,-828 439,-828 433,-828 427,-822 427,-816 427,-816 427,-804 427,-804 427,-798 433,-792 439,-792 439,-792 568,-792 568,-792 574,-792 580,-798 580,-804 580,-804 580,-816 580,-816 580,-822 574,-828 568,-828"/>
<text text-anchor="middle" x="503.5" y="-807.5" font-family="sans" font-size="10.00" fill="#000000">shard_saturated_reads_remove</text>
</g>
<!-- 6&#45;&gt;30 -->
<g id="edge57" class="edge">
<title>6&#45;&gt;30</title>
<path fill="none" stroke="#c0c0c0" stroke-width="2" d="M574.224,-1007.7805C556.6552,-958.6492 528.3224,-879.416 513.4094,-837.7116"/>
<polygon fill="#c0c0c0" stroke="#c0c0c0" stroke-width="2" points="516.6706,-836.4367 510.0078,-828.1991 510.0793,-838.7937 516.6706,-836.4367"/>
</g>
<!-- 34 -->
<g id="node35" class="node">
<title>34</title>
<path fill="none" stroke="#56c9d8" stroke-width="2" d="M511,-972C511,-972 442,-972 442,-972 436,-972 430,-966 430,-960 430,-960 430,-948 430,-948 430,-942 436,-936 442,-936 442,-936 511,-936 511,-936 517,-936 523,-942 523,-948 523,-948 523,-960 523,-960 523,-966 517,-972 511,-972"/>
<text text-anchor="middle" x="476.5" y="-951.5" font-family="sans" font-size="10.00" fill="#000000">shard_count_alns</text>
</g>
<!-- 6&#45;&gt;34 -->
<g id="edge64" class="edge">
<title>6&#45;&gt;34</title>
<path fill="none" stroke="#c0c0c0" stroke-width="2" d="M539.6076,-1007.8928C527.9234,-997.9147 515.8569,-987.6101 505.4441,-978.7178"/>
<polygon fill="#c0c0c0" stroke="#c0c0c0" stroke-width="2" points="507.7148,-976.0543 497.8374,-972.2218 503.169,-981.3774 507.7148,-976.0543"/>
</g>
<!-- 7 -->
<g id="node8" class="node">
<title>7</title>
<path fill="none" stroke="#9fd856" stroke-width="2" d="M1476,-1093C1476,-1093 1369,-1093 1369,-1093 1363,-1093 1357,-1087 1357,-1081 1357,-1081 1357,-1020 1357,-1020 1357,-1014 1363,-1008 1369,-1008 1369,-1008 1476,-1008 1476,-1008 1482,-1008 1488,-1014 1488,-1020 1488,-1020 1488,-1081 1488,-1081 1488,-1087 1482,-1093 1476,-1093"/>
<text text-anchor="middle" x="1422.5" y="-1081" font-family="sans" font-size="10.00" fill="#000000">bowtie2</text>
<text text-anchor="middle" x="1422.5" y="-1070" font-family="sans" font-size="10.00" fill="#000000">library: lib2</text>
<text text-anchor="middle" x="1422.5" y="-1059" font-family="sans" font-size="10.00" fill="#000000">n_shard: 1</text>
<text text-anchor="middle" x="1422.5" y="-1048" font-family="sans" font-size="10.00" fill="#000000">read_type_map: collapsed</text>
<text text-anchor="middle" x="1422.5" y="-1037" font-family="sans" font-size="10.00" fill="#000000">ref: wgs_eukaryota</text>
<text text-anchor="middle" x="1422.5" y="-1026" font-family="sans" font-size="10.00" fill="#000000">sample: HD827sonic_2</text>
<text text-anchor="middle" x="1422.5" y="-1015" font-family="sans" font-size="10.00" fill="#000000">tot_shards: 2</text>
</g>
<!-- 7&#45;&gt;1 -->
<g id="edge16" class="edge">
<title>7&#45;&gt;1</title>
<path fill="none" stroke="#c0c0c0" stroke-width="2" d="M1395.0977,-1007.8781C1388.0874,-996.3964 1380.7656,-983.8658 1374.5,-972 1333.5366,-894.4242 1331.5614,-871.0401 1293.5,-792 1262.2809,-727.1691 1270.2733,-698.9878 1219.5,-648 1218.3516,-646.8467 1012.58,-541.2176 1011.5,-540 952.4336,-473.4066 874.4534,-205.3148 850.098,-117.7902"/>
<polygon fill="#c0c0c0" stroke="#c0c0c0" stroke-width="2" points="853.4393,-116.7412 847.3985,-108.0372 846.693,-118.6085 853.4393,-116.7412"/>
</g>
<!-- 45 -->
<g id="node46" class="node">
<title>45</title>
<path fill="none" stroke="#5682d8" stroke-width="2" d="M1558,-828C1558,-828 1429,-828 1429,-828 1423,-828 1417,-822 1417,-816 1417,-816 1417,-804 1417,-804 1417,-798 1423,-792 1429,-792 1429,-792 1558,-792 1558,-792 1564,-792 1570,-798 1570,-804 1570,-804 1570,-816 1570,-816 1570,-822 1564,-828 1558,-828"/>
<text text-anchor="middle" x="1493.5" y="-807.5" font-family="sans" font-size="10.00" fill="#000000">shard_saturated_reads_remove</text>
</g>
<!-- 7&#45;&gt;45 -->
<g id="edge79" class="edge">
<title>7&#45;&gt;45</title>
<path fill="none" stroke="#c0c0c0" stroke-width="2" d="M1435.1116,-1007.7805C1449.5854,-958.753 1472.9083,-879.7509 1485.2408,-837.9767"/>
<polygon fill="#c0c0c0" stroke="#c0c0c0" stroke-width="2" points="1488.6526,-838.7809 1488.1273,-828.1991 1481.9391,-836.7989 1488.6526,-838.7809"/>
</g>
<!-- 49 -->
<g id="node50" class="node">
<title>49</title>
<path fill="none" stroke="#56c9d8" stroke-width="2" d="M1643,-972C1643,-972 1574,-972 1574,-972 1568,-972 1562,-966 1562,-960 1562,-960 1562,-948 1562,-948 1562,-942 1568,-936 1574,-936 1574,-936 1643,-936 1643,-936 1649,-936 1655,-942 1655,-948 1655,-948 1655,-960 1655,-960 1655,-966 1649,-972 1643,-972"/>
<text text-anchor="middle" x="1608.5" y="-951.5" font-family="sans" font-size="10.00" fill="#000000">shard_count_alns</text>
</g>
<!-- 7&#45;&gt;49 -->
<g id="edge86" class="edge">
<title>7&#45;&gt;49</title>
<path fill="none" stroke="#c0c0c0" stroke-width="2" d="M1488.2214,-1012.9493C1491.3489,-1011.2596 1494.4534,-1009.6022 1497.5,-1008 1518.0494,-997.1928 1541.0862,-985.8613 1560.8245,-976.3848"/>
<polygon fill="#c0c0c0" stroke="#c0c0c0" stroke-width="2" points="1562.4186,-979.5022 1569.9313,-972.0315 1559.3996,-973.1867 1562.4186,-979.5022"/>
</g>
<!-- 8 -->
<g id="node9" class="node">
<title>8</title>
<path fill="none" stroke="#9fd856" stroke-width="2" d="M1625,-1093C1625,-1093 1518,-1093 1518,-1093 1512,-1093 1506,-1087 1506,-1081 1506,-1081 1506,-1020 1506,-1020 1506,-1014 1512,-1008 1518,-1008 1518,-1008 1625,-1008 1625,-1008 1631,-1008 1637,-1014 1637,-1020 1637,-1020 1637,-1081 1637,-1081 1637,-1087 1631,-1093 1625,-1093"/>
<text text-anchor="middle" x="1571.5" y="-1081" font-family="sans" font-size="10.00" fill="#000000">bowtie2</text>
<text text-anchor="middle" x="1571.5" y="-1070" font-family="sans" font-size="10.00" fill="#000000">library: lib2</text>
<text text-anchor="middle" x="1571.5" y="-1059" font-family="sans" font-size="10.00" fill="#000000">n_shard: 2</text>
<text text-anchor="middle" x="1571.5" y="-1048" font-family="sans" font-size="10.00" fill="#000000">read_type_map: collapsed</text>
<text text-anchor="middle" x="1571.5" y="-1037" font-family="sans" font-size="10.00" fill="#000000">ref: wgs_eukaryota</text>
<text text-anchor="middle" x="1571.5" y="-1026" font-family="sans" font-size="10.00" fill="#000000">sample: HD827sonic_2</text>
<text text-anchor="middle" x="1571.5" y="-1015" font-family="sans" font-size="10.00" fill="#000000">tot_shards: 2</text>
</g>
<!-- 8&#45;&gt;1 -->
<g id="edge17" class="edge">
<title>8&#45;&gt;1</title>
<path fill="none" stroke="#c0c0c0" stroke-width="2" d="M1508.2655,-1007.9575C1455.3702,-970.0045 1388.5,-915.4163 1388.5,-882 1388.5,-882 1388.5,-882 1388.5,-666 1388.5,-586.0479 1109.659,-594.8624 1051.5,-540 981.5148,-473.9817 921.6955,-228.9336 876.5,-144 871.6332,-134.8541 865.7851,-125.1843 860.322,-116.5938"/>
<polygon fill="#c0c0c0" stroke="#c0c0c0" stroke-width="2" points="863.1967,-114.5938 854.8255,-108.0995 857.3197,-118.3966 863.1967,-114.5938"/>
</g>
<!-- 47 -->
<g id="node48" class="node">
<title>47</title>
<path fill="none" stroke="#56c9d8" stroke-width="2" d="M1754,-972C1754,-972 1685,-972 1685,-972 1679,-972 1673,-966 1673,-960 1673,-960 1673,-948 1673,-948 1673,-942 1679,-936 1685,-936 1685,-936 1754,-936 1754,-936 1760,-936 1766,-942 1766,-948 1766,-948 1766,-960 1766,-960 1766,-966 1760,-972 1754,-972"/>
<text text-anchor="middle" x="1719.5" y="-951.5" font-family="sans" font-size="10.00" fill="#000000">shard_count_alns</text>
</g>
<!-- 8&#45;&gt;47 -->
<g id="edge84" class="edge">
<title>8&#45;&gt;47</title>
<path fill="none" stroke="#c0c0c0" stroke-width="2" d="M1636.8458,-1007.8928C1652.5991,-997.6212 1668.8829,-987.0037 1682.7886,-977.9369"/>
<polygon fill="#c0c0c0" stroke="#c0c0c0" stroke-width="2" points="1685.0886,-980.6155 1691.5536,-972.2218 1681.2653,-974.7518 1685.0886,-980.6155"/>
</g>
<!-- 52 -->
<g id="node53" class="node">
<title>52</title>
<path fill="none" stroke="#5682d8" stroke-width="2" d="M1729,-828C1729,-828 1600,-828 1600,-828 1594,-828 1588,-822 1588,-816 1588,-816 1588,-804 1588,-804 1588,-798 1594,-792 1600,-792 1600,-792 1729,-792 1729,-792 1735,-792 1741,-798 1741,-804 1741,-804 1741,-816 1741,-816 1741,-822 1735,-828 1729,-828"/>
<text text-anchor="middle" x="1664.5" y="-807.5" font-family="sans" font-size="10.00" fill="#000000">shard_saturated_reads_remove</text>
</g>
<!-- 8&#45;&gt;52 -->
<g id="edge89" class="edge">
<title>8&#45;&gt;52</title>
<path fill="none" stroke="#c0c0c0" stroke-width="2" d="M1554.662,-1007.8336C1548.4781,-985.8253 1544.8622,-958.8723 1553.5,-936 1569.1812,-894.4774 1605.471,-857.7778 1632.31,-834.851"/>
<polygon fill="#c0c0c0" stroke="#c0c0c0" stroke-width="2" points="1634.8628,-837.2796 1640.3027,-828.1879 1630.3805,-831.9029 1634.8628,-837.2796"/>
</g>
<!-- 9 -->
<g id="node10" class="node">
<title>9</title>
<path fill="none" stroke="#9fd856" stroke-width="2" d="M194,-1093C194,-1093 87,-1093 87,-1093 81,-1093 75,-1087 75,-1081 75,-1081 75,-1020 75,-1020 75,-1014 81,-1008 87,-1008 87,-1008 194,-1008 194,-1008 200,-1008 206,-1014 206,-1020 206,-1020 206,-1081 206,-1081 206,-1087 200,-1093 194,-1093"/>
<text text-anchor="middle" x="140.5" y="-1081" font-family="sans" font-size="10.00" fill="#000000">bowtie2</text>
<text text-anchor="middle" x="140.5" y="-1070" font-family="sans" font-size="10.00" fill="#000000">library: lib1</text>
<text text-anchor="middle" x="140.5" y="-1059" font-family="sans" font-size="10.00" fill="#000000">n_shard: 2</text>
<text text-anchor="middle" x="140.5" y="-1048" font-family="sans" font-size="10.00" fill="#000000">read_type_map: collapsed</text>
<text text-anchor="middle" x="140.5" y="-1037" font-family="sans" font-size="10.00" fill="#000000">ref: wgs_eukaryota</text>
<text text-anchor="middle" x="140.5" y="-1026" font-family="sans" font-size="10.00" fill="#000000">sample: HD827sonic_2</text>
<text text-anchor="middle" x="140.5" y="-1015" font-family="sans" font-size="10.00" fill="#000000">tot_shards: 2</text>
</g>
<!-- 9&#45;&gt;1 -->
<g id="edge18" class="edge">
<title>9&#45;&gt;1</title>
<path fill="none" stroke="#c0c0c0" stroke-width="2" d="M115.4174,-1007.6032C88.5376,-956.0258 52.6263,-867.0277 75.5,-792 103.6107,-699.7946 241.2968,-491.0349 317.5,-432 355.5039,-402.5583 381.6959,-425.6979 419.5,-396 479.6016,-348.7858 474.4952,-317.7268 513.5,-252 541.3053,-205.1454 527.7118,-176.4204 571.5,-144 580.8939,-137.0449 733.0829,-109.3767 805.1778,-96.5686"/>
<polygon fill="#c0c0c0" stroke="#c0c0c0" stroke-width="2" points="805.9714,-99.9826 815.2071,-94.7909 804.7497,-93.09 805.9714,-99.9826"/>
</g>
<!-- 32 -->
<g id="node33" class="node">
<title>32</title>
<path fill="none" stroke="#56c9d8" stroke-width="2" d="M250,-972C250,-972 181,-972 181,-972 175,-972 169,-966 169,-960 169,-960 169,-948 169,-948 169,-942 175,-936 181,-936 181,-936 250,-936 250,-936 256,-936 262,-942 262,-948 262,-948 262,-960 262,-960 262,-966 256,-972 250,-972"/>
<text text-anchor="middle" x="215.5" y="-951.5" font-family="sans" font-size="10.00" fill="#000000">shard_count_alns</text>
</g>
<!-- 9&#45;&gt;32 -->
<g id="edge62" class="edge">
<title>9&#45;&gt;32</title>
<path fill="none" stroke="#c0c0c0" stroke-width="2" d="M173.6144,-1007.8928C180.9133,-998.5016 188.4368,-988.8213 195.0586,-980.3013"/>
<polygon fill="#c0c0c0" stroke="#c0c0c0" stroke-width="2" points="197.9649,-982.2653 201.338,-972.2218 192.4379,-977.9697 197.9649,-982.2653"/>
</g>
<!-- 37 -->
<g id="node38" class="node">
<title>37</title>
<path fill="none" stroke="#5682d8" stroke-width="2" d="M226,-828C226,-828 97,-828 97,-828 91,-828 85,-822 85,-816 85,-816 85,-804 85,-804 85,-798 91,-792 97,-792 97,-792 226,-792 226,-792 232,-792 238,-798 238,-804 238,-804 238,-816 238,-816 238,-822 232,-828 226,-828"/>
<text text-anchor="middle" x="161.5" y="-807.5" font-family="sans" font-size="10.00" fill="#000000">shard_saturated_reads_remove</text>
</g>
<!-- 9&#45;&gt;37 -->
<g id="edge67" class="edge">
<title>9&#45;&gt;37</title>
<path fill="none" stroke="#c0c0c0" stroke-width="2" d="M144.2302,-1007.7805C148.5021,-958.8569 155.3803,-880.0855 159.0339,-838.2427"/>
<polygon fill="#c0c0c0" stroke="#c0c0c0" stroke-width="2" points="162.5277,-838.4657 159.9109,-828.1991 155.5542,-837.8567 162.5277,-838.4657"/>
</g>
<!-- 10 -->
<g id="node11" class="node">
<title>10</title>
<path fill="none" stroke="#9fd856" stroke-width="2" d="M1959,-1093C1959,-1093 1852,-1093 1852,-1093 1846,-1093 1840,-1087 1840,-1081 1840,-1081 1840,-1020 1840,-1020 1840,-1014 1846,-1008 1852,-1008 1852,-1008 1959,-1008 1959,-1008 1965,-1008 1971,-1014 1971,-1020 1971,-1020 1971,-1081 1971,-1081 1971,-1087 1965,-1093 1959,-1093"/>
<text text-anchor="middle" x="1905.5" y="-1081" font-family="sans" font-size="10.00" fill="#000000">bowtie2</text>
<text text-anchor="middle" x="1905.5" y="-1070" font-family="sans" font-size="10.00" fill="#000000">library: lib2</text>
<text text-anchor="middle" x="1905.5" y="-1059" font-family="sans" font-size="10.00" fill="#000000">n_shard: 1</text>
<text text-anchor="middle" x="1905.5" y="-1048" font-family="sans" font-size="10.00" fill="#000000">read_type_map: collapsed</text>
<text text-anchor="middle" x="1905.5" y="-1037" font-family="sans" font-size="10.00" fill="#000000">ref: refseq_mitochondrion</text>
<text text-anchor="middle" x="1905.5" y="-1026" font-family="sans" font-size="10.00" fill="#000000">sample: HD827sonic_2</text>
<text text-anchor="middle" x="1905.5" y="-1015" font-family="sans" font-size="10.00" fill="#000000">tot_shards: 1</text>
</g>
<!-- 10&#45;&gt;1 -->
<g id="edge19" class="edge">
<title>10&#45;&gt;1</title>
<path fill="none" stroke="#c0c0c0" stroke-width="2" d="M1935.4025,-1007.9834C1955.5625,-975.1539 1978.5,-927.749 1978.5,-882 1978.5,-882 1978.5,-882 1978.5,-810 1978.5,-594.7886 1483.052,-566.3666 1452.5,-540 1379.1795,-476.724 1348.5997,-201.273 1270.5,-144 1239.2151,-121.0578 978.1945,-99.8785 879.8177,-92.6376"/>
<polygon fill="#c0c0c0" stroke="#c0c0c0" stroke-width="2" points="879.9588,-89.1387 869.7307,-91.9022 879.4497,-96.1202 879.9588,-89.1387"/>
</g>
<!-- 48 -->
<g id="node49" class="node">
<title>48</title>
<path fill="none" stroke="#56c9d8" stroke-width="2" d="M1865,-972C1865,-972 1796,-972 1796,-972 1790,-972 1784,-966 1784,-960 1784,-960 1784,-948 1784,-948 1784,-942 1790,-936 1796,-936 1796,-936 1865,-936 1865,-936 1871,-936 1877,-942 1877,-948 1877,-948 1877,-960 1877,-960 1877,-966 1871,-972 1865,-972"/>
<text text-anchor="middle" x="1830.5" y="-951.5" font-family="sans" font-size="10.00" fill="#000000">shard_count_alns</text>
</g>
<!-- 10&#45;&gt;48 -->
<g id="edge85" class="edge">
<title>10&#45;&gt;48</title>
<path fill="none" stroke="#c0c0c0" stroke-width="2" d="M1872.3856,-1007.8928C1865.0867,-998.5016 1857.5632,-988.8213 1850.9414,-980.3013"/>
<polygon fill="#c0c0c0" stroke="#c0c0c0" stroke-width="2" points="1853.5621,-977.9697 1844.662,-972.2218 1848.0351,-982.2653 1853.5621,-977.9697"/>
</g>
<!-- 55 -->
<g id="node56" class="node">
<title>55</title>
<path fill="none" stroke="#5682d8" stroke-width="2" d="M1900,-828C1900,-828 1771,-828 1771,-828 1765,-828 1759,-822 1759,-816 1759,-816 1759,-804 1759,-804 1759,-798 1765,-792 1771,-792 1771,-792 1900,-792 1900,-792 1906,-792 1912,-798 1912,-804 1912,-804 1912,-816 1912,-816 1912,-822 1906,-828 1900,-828"/>
<text text-anchor="middle" x="1835.5" y="-807.5" font-family="sans" font-size="10.00" fill="#000000">shard_saturated_reads_remove</text>
</g>
<!-- 10&#45;&gt;55 -->
<g id="edge93" class="edge">
<title>10&#45;&gt;55</title>
<path fill="none" stroke="#c0c0c0" stroke-width="2" d="M1900.6982,-1007.8673C1897.6777,-986.1101 1893.0823,-959.3719 1886.5,-936 1876.673,-901.1072 1860.2769,-862.7227 1848.7332,-837.5999"/>
<polygon fill="#c0c0c0" stroke="#c0c0c0" stroke-width="2" points="1851.8135,-835.9234 1844.4194,-828.3354 1845.4677,-838.8782 1851.8135,-835.9234"/>
</g>
<!-- 11 -->
<g id="node12" class="node">
<title>11</title>
<path fill="none" stroke="#ced856" stroke-width="2" d="M802.5,-468C802.5,-468 762.5,-468 762.5,-468 756.5,-468 750.5,-462 750.5,-456 750.5,-456 750.5,-444 750.5,-444 750.5,-438 756.5,-432 762.5,-432 762.5,-432 802.5,-432 802.5,-432 808.5,-432 814.5,-438 814.5,-444 814.5,-444 814.5,-456 814.5,-456 814.5,-462 808.5,-468 802.5,-468"/>
<text text-anchor="middle" x="782.5" y="-447.5" font-family="sans" font-size="10.00" fill="#000000">align_stats</text>
</g>
<!-- 11&#45;&gt;1 -->
<g id="edge20" class="edge">
<title>11&#45;&gt;1</title>
<path fill="none" stroke="#c0c0c0" stroke-width="2" d="M784.7792,-431.8486C788.0012,-404.5755 793.5,-351.3818 793.5,-306 793.5,-306 793.5,-306 793.5,-234 793.5,-191.531 812.8374,-145.5922 827.2165,-117.303"/>
<polygon fill="#c0c0c0" stroke="#c0c0c0" stroke-width="2" points="830.3314,-118.8993 831.8677,-108.4164 824.1295,-115.6532 830.3314,-118.8993"/>
</g>
<!-- 12 -->
<g id="node13" class="node">
<title>12</title>
<path fill="none" stroke="#d88556" stroke-width="2" d="M1059,-612C1059,-612 1014,-612 1014,-612 1008,-612 1002,-606 1002,-600 1002,-600 1002,-588 1002,-588 1002,-582 1008,-576 1014,-576 1014,-576 1059,-576 1059,-576 1065,-576 1071,-582 1071,-588 1071,-588 1071,-600 1071,-600 1071,-606 1065,-612 1059,-612"/>
<text text-anchor="middle" x="1036.5" y="-591.5" font-family="sans" font-size="10.00" fill="#000000">align_merge</text>
</g>
<!-- 12&#45;&gt;11 -->
<g id="edge29" class="edge">
<title>12&#45;&gt;11</title>
<path fill="none" stroke="#c0c0c0" stroke-width="2" d="M1004.5879,-575.9081C958.6793,-549.8812 873.9822,-501.8639 823.4935,-473.2404"/>
<polygon fill="#c0c0c0" stroke="#c0c0c0" stroke-width="2" points="824.9067,-470.0183 814.4813,-468.1311 821.4544,-476.1078 824.9067,-470.0183"/>
</g>
<!-- 60 -->
<g id="node61" class="node">
<title>60</title>
<path fill="none" stroke="#d8b456" stroke-width="2" d="M1136.5,-540C1136.5,-540 1072.5,-540 1072.5,-540 1066.5,-540 1060.5,-534 1060.5,-528 1060.5,-528 1060.5,-516 1060.5,-516 1060.5,-510 1066.5,-504 1072.5,-504 1072.5,-504 1136.5,-504 1136.5,-504 1142.5,-504 1148.5,-510 1148.5,-516 1148.5,-516 1148.5,-528 1148.5,-528 1148.5,-534 1142.5,-540 1136.5,-540"/>
<text text-anchor="middle" x="1104.5" y="-519.5" font-family="sans" font-size="10.00" fill="#000000">align_sort_coord</text>
</g>
<!-- 12&#45;&gt;60 -->
<g id="edge99" class="edge">
<title>12&#45;&gt;60</title>
<path fill="none" stroke="#c0c0c0" stroke-width="2" d="M1053.6593,-575.8314C1061.6511,-567.3694 1071.3038,-557.1489 1080.0416,-547.8971"/>
<polygon fill="#c0c0c0" stroke="#c0c0c0" stroke-width="2" points="1082.788,-550.0866 1087.1097,-540.4133 1077.6989,-545.2802 1082.788,-550.0866"/>
</g>
<!-- 13 -->
<g id="node14" class="node">
<title>13</title>
<path fill="none" stroke="#566bd8" stroke-width="2" d="M955.5,-684C955.5,-684 887.5,-684 887.5,-684 881.5,-684 875.5,-678 875.5,-672 875.5,-672 875.5,-660 875.5,-660 875.5,-654 881.5,-648 887.5,-648 887.5,-648 955.5,-648 955.5,-648 961.5,-648 967.5,-654 967.5,-660 967.5,-660 967.5,-672 967.5,-672 967.5,-678 961.5,-684 955.5,-684"/>
<text text-anchor="middle" x="921.5" y="-663.5" font-family="sans" font-size="10.00" fill="#000000">shard_sort_query</text>
</g>
<!-- 13&#45;&gt;12 -->
<g id="edge30" class="edge">
<title>13&#45;&gt;12</title>
<path fill="none" stroke="#c0c0c0" stroke-width="2" d="M950.5194,-647.8314C965.2286,-638.6221 983.2644,-627.3301 999.0122,-617.4706"/>
<polygon fill="#c0c0c0" stroke="#c0c0c0" stroke-width="2" points="1000.8714,-620.436 1007.4899,-612.1628 997.1567,-614.5029 1000.8714,-620.436"/>
</g>
<!-- 14 -->
<g id="node15" class="node">
<title>14</title>
<path fill="none" stroke="#56d8c9" stroke-width="2" d="M936.5,-756C936.5,-756 856.5,-756 856.5,-756 850.5,-756 844.5,-750 844.5,-744 844.5,-744 844.5,-732 844.5,-732 844.5,-726 850.5,-720 856.5,-720 856.5,-720 936.5,-720 936.5,-720 942.5,-720 948.5,-726 948.5,-732 948.5,-732 948.5,-744 948.5,-744 948.5,-750 942.5,-756 936.5,-756"/>
<text text-anchor="middle" x="896.5" y="-735.5" font-family="sans" font-size="10.00" fill="#000000">shard_clean_header</text>
</g>
<!-- 14&#45;&gt;13 -->
<g id="edge33" class="edge">
<title>14&#45;&gt;13</title>
<path fill="none" stroke="#c0c0c0" stroke-width="2" d="M902.8086,-719.8314C905.5117,-712.0463 908.7316,-702.7729 911.731,-694.1347"/>
<polygon fill="#c0c0c0" stroke="#c0c0c0" stroke-width="2" points="915.1327,-695.0081 915.1065,-684.4133 908.52,-692.7119 915.1327,-695.0081"/>
</g>
<!-- 15&#45;&gt;14 -->
<g id="edge34" class="edge">
<title>15&#45;&gt;14</title>
<path fill="none" stroke="#c0c0c0" stroke-width="2" d="M873.3226,-791.8314C876.7109,-783.9617 880.7541,-774.5712 884.5076,-765.8533"/>
<polygon fill="#c0c0c0" stroke="#c0c0c0" stroke-width="2" points="887.8321,-766.9822 888.5721,-756.4133 881.4027,-764.214 887.8321,-766.9822"/>
</g>
<!-- 16 -->
<g id="node17" class="node">
<title>16</title>
<path fill="none" stroke="#569ad8" stroke-width="2" d="M1094.5,-900C1094.5,-900 978.5,-900 978.5,-900 972.5,-900 966.5,-894 966.5,-888 966.5,-888 966.5,-876 966.5,-876 966.5,-870 972.5,-864 978.5,-864 978.5,-864 1094.5,-864 1094.5,-864 1100.5,-864 1106.5,-870 1106.5,-876 1106.5,-876 1106.5,-888 1106.5,-888 1106.5,-894 1100.5,-900 1094.5,-900"/>
<text text-anchor="middle" x="1036.5" y="-879.5" font-family="sans" font-size="10.00" fill="#000000">shard_saturated_reads_filter</text>
</g>
<!-- 16&#45;&gt;15 -->
<g id="edge36" class="edge">
<title>16&#45;&gt;15</title>
<path fill="none" stroke="#c0c0c0" stroke-width="2" d="M993.3495,-863.8314C970.3776,-854.159 941.9491,-842.1891 917.7368,-831.9944"/>
<polygon fill="#c0c0c0" stroke="#c0c0c0" stroke-width="2" points="918.9148,-828.6929 908.3402,-828.038 916.1984,-835.1443 918.9148,-828.6929"/>
</g>
<!-- 16&#45;&gt;22 -->
<g id="edge46" class="edge">
<title>16&#45;&gt;22</title>
<path fill="none" stroke="#c0c0c0" stroke-width="2" d="M1036.5,-863.8314C1036.5,-856.131 1036.5,-846.9743 1036.5,-838.4166"/>
<polygon fill="#c0c0c0" stroke="#c0c0c0" stroke-width="2" points="1040.0001,-838.4132 1036.5,-828.4133 1033.0001,-838.4133 1040.0001,-838.4132"/>
</g>
<!-- 16&#45;&gt;25 -->
<g id="edge50" class="edge">
<title>16&#45;&gt;25</title>
<path fill="none" stroke="#c0c0c0" stroke-width="2" d="M1079.6505,-863.8314C1102.6224,-854.159 1131.0509,-842.1891 1155.2632,-831.9944"/>
<polygon fill="#c0c0c0" stroke="#c0c0c0" stroke-width="2" points="1156.8016,-835.1443 1164.6598,-828.038 1154.0852,-828.6929 1156.8016,-835.1443"/>
</g>
<!-- 74 -->
<g id="node75" class="node">
<title>74</title>
<path fill="none" stroke="#56b1d8" stroke-width="2" d="M1594,-108C1594,-108 1467,-108 1467,-108 1461,-108 1455,-102 1455,-96 1455,-96 1455,-84 1455,-84 1455,-78 1461,-72 1467,-72 1467,-72 1594,-72 1594,-72 1600,-72 1606,-78 1606,-84 1606,-84 1606,-96 1606,-96 1606,-102 1600,-108 1594,-108"/>
<text text-anchor="middle" x="1530.5" y="-87.5" font-family="sans" font-size="10.00" fill="#000000">shard_saturated_reads_extract</text>
</g>
<!-- 16&#45;&gt;74 -->
<g id="edge116" class="edge">
<title>16&#45;&gt;74</title>
<path fill="none" stroke="#c0c0c0" stroke-width="2" d="M1106.714,-873.4748C1172.0832,-864.4413 1263.7689,-848.6324 1293.5,-828 1332.3984,-801.0058 1350.5,-785.3474 1350.5,-738 1350.5,-738 1350.5,-738 1350.5,-594 1350.5,-508.1992 1389.1204,-486.3647 1455.5,-432 1489.1493,-404.4413 1518.4446,-429.2363 1546.5,-396 1572.8701,-364.7602 1565.5,-346.8816 1565.5,-306 1565.5,-306 1565.5,-306 1565.5,-234 1565.5,-192.755 1551.7747,-146.697 1541.5142,-118.0283"/>
<polygon fill="#c0c0c0" stroke="#c0c0c0" stroke-width="2" points="1544.6678,-116.4643 1537.9226,-108.2941 1538.1006,-118.8874 1544.6678,-116.4643"/>
</g>
<!-- 17&#45;&gt;16 -->
<g id="edge37" class="edge">
<title>17&#45;&gt;16</title>
<path fill="none" stroke="#c0c0c0" stroke-width="2" d="M1026.0328,-935.8314C1027.5301,-928.131 1029.3105,-918.9743 1030.9745,-910.4166"/>
<polygon fill="#c0c0c0" stroke="#c0c0c0" stroke-width="2" points="1034.4465,-910.8975 1032.9196,-900.4133 1027.5752,-909.5614 1034.4465,-910.8975"/>
</g>
<!-- 18&#45;&gt;16 -->
<g id="edge38" class="edge">
<title>18&#45;&gt;16</title>
<path fill="none" stroke="#c0c0c0" stroke-width="2" d="M1138.1815,-935.8314C1120.4641,-926.4516 1098.6655,-914.9112 1079.8016,-904.9244"/>
<polygon fill="#c0c0c0" stroke="#c0c0c0" stroke-width="2" points="1081.2831,-901.7485 1070.8076,-900.1628 1078.0078,-907.935 1081.2831,-901.7485"/>
</g>
<!-- 19&#45;&gt;16 -->
<g id="edge39" class="edge">
<title>19&#45;&gt;16</title>
<path fill="none" stroke="#c0c0c0" stroke-width="2" d="M943.0428,-935.8314C959.1791,-926.5368 978.9986,-915.1208 996.2272,-905.1971"/>
<polygon fill="#c0c0c0" stroke="#c0c0c0" stroke-width="2" points="998.0489,-908.187 1004.9673,-900.1628 994.555,-902.1212 998.0489,-908.187"/>
</g>
<!-- 20 -->
<g id="node21" class="node">
<title>20</title>
<path fill="none" stroke="#566bd8" stroke-width="2" d="M1070.5,-684C1070.5,-684 1002.5,-684 1002.5,-684 996.5,-684 990.5,-678 990.5,-672 990.5,-672 990.5,-660 990.5,-660 990.5,-654 996.5,-648 1002.5,-648 1002.5,-648 1070.5,-648 1070.5,-648 1076.5,-648 1082.5,-654 1082.5,-660 1082.5,-660 1082.5,-672 1082.5,-672 1082.5,-678 1076.5,-684 1070.5,-684"/>
<text text-anchor="middle" x="1036.5" y="-663.5" font-family="sans" font-size="10.00" fill="#000000">shard_sort_query</text>
</g>
<!-- 20&#45;&gt;12 -->
<g id="edge31" class="edge">
<title>20&#45;&gt;12</title>
<path fill="none" stroke="#c0c0c0" stroke-width="2" d="M1036.5,-647.8314C1036.5,-640.131 1036.5,-630.9743 1036.5,-622.4166"/>
<polygon fill="#c0c0c0" stroke="#c0c0c0" stroke-width="2" points="1040.0001,-622.4132 1036.5,-612.4133 1033.0001,-622.4133 1040.0001,-622.4132"/>
</g>
<!-- 21 -->
<g id="node22" class="node">
<title>21</title>
<path fill="none" stroke="#56d8c9" stroke-width="2" d="M1076.5,-756C1076.5,-756 996.5,-756 996.5,-756 990.5,-756 984.5,-750 984.5,-744 984.5,-744 984.5,-732 984.5,-732 984.5,-726 990.5,-720 996.5,-720 996.5,-720 1076.5,-720 1076.5,-720 1082.5,-720 1088.5,-726 1088.5,-732 1088.5,-732 1088.5,-744 1088.5,-744 1088.5,-750 1082.5,-756 1076.5,-756"/>
<text text-anchor="middle" x="1036.5" y="-735.5" font-family="sans" font-size="10.00" fill="#000000">shard_clean_header</text>
</g>
<!-- 21&#45;&gt;20 -->
<g id="edge43" class="edge">
<title>21&#45;&gt;20</title>
<path fill="none" stroke="#c0c0c0" stroke-width="2" d="M1036.5,-719.8314C1036.5,-712.131 1036.5,-702.9743 1036.5,-694.4166"/>
<polygon fill="#c0c0c0" stroke="#c0c0c0" stroke-width="2" points="1040.0001,-694.4132 1036.5,-684.4133 1033.0001,-694.4133 1040.0001,-694.4132"/>
</g>
<!-- 22&#45;&gt;21 -->
<g id="edge44" class="edge">
<title>22&#45;&gt;21</title>
<path fill="none" stroke="#c0c0c0" stroke-width="2" d="M1036.5,-791.8314C1036.5,-784.131 1036.5,-774.9743 1036.5,-766.4166"/>
<polygon fill="#c0c0c0" stroke="#c0c0c0" stroke-width="2" points="1040.0001,-766.4132 1036.5,-756.4133 1033.0001,-766.4133 1040.0001,-766.4132"/>
</g>
<!-- 23 -->
<g id="node24" class="node">
<title>23</title>
<path fill="none" stroke="#566bd8" stroke-width="2" d="M1198.5,-684C1198.5,-684 1130.5,-684 1130.5,-684 1124.5,-684 1118.5,-678 1118.5,-672 1118.5,-672 1118.5,-660 1118.5,-660 1118.5,-654 1124.5,-648 1130.5,-648 1130.5,-648 1198.5,-648 1198.5,-648 1204.5,-648 1210.5,-654 1210.5,-660 1210.5,-660 1210.5,-672 1210.5,-672 1210.5,-678 1204.5,-684 1198.5,-684"/>
<text text-anchor="middle" x="1164.5" y="-663.5" font-family="sans" font-size="10.00" fill="#000000">shard_sort_query</text>
</g>
<!-- 23&#45;&gt;12 -->
<g id="edge32" class="edge">
<title>23&#45;&gt;12</title>
<path fill="none" stroke="#c0c0c0" stroke-width="2" d="M1132.2002,-647.8314C1115.6766,-638.5368 1095.3814,-627.1208 1077.7393,-617.1971"/>
<polygon fill="#c0c0c0" stroke="#c0c0c0" stroke-width="2" points="1079.2212,-614.015 1068.7895,-612.1628 1075.7893,-620.116 1079.2212,-614.015"/>
</g>
<!-- 24 -->
<g id="node25" class="node">
<title>24</title>
<path fill="none" stroke="#56d8c9" stroke-width="2" d="M1222.5,-756C1222.5,-756 1142.5,-756 1142.5,-756 1136.5,-756 1130.5,-750 1130.5,-744 1130.5,-744 1130.5,-732 1130.5,-732 1130.5,-726 1136.5,-720 1142.5,-720 1142.5,-720 1222.5,-720 1222.5,-720 1228.5,-720 1234.5,-726 1234.5,-732 1234.5,-732 1234.5,-744 1234.5,-744 1234.5,-750 1228.5,-756 1222.5,-756"/>
<text text-anchor="middle" x="1182.5" y="-735.5" font-family="sans" font-size="10.00" fill="#000000">shard_clean_header</text>
</g>
<!-- 24&#45;&gt;23 -->
<g id="edge47" class="edge">
<title>24&#45;&gt;23</title>
<path fill="none" stroke="#c0c0c0" stroke-width="2" d="M1177.9578,-719.8314C1176.0116,-712.0463 1173.6932,-702.7729 1171.5337,-694.1347"/>
<polygon fill="#c0c0c0" stroke="#c0c0c0" stroke-width="2" points="1174.9242,-693.2658 1169.1033,-684.4133 1168.1332,-694.9636 1174.9242,-693.2658"/>
</g>
<!-- 25&#45;&gt;24 -->
<g id="edge48" class="edge">
<title>25&#45;&gt;24</title>
<path fill="none" stroke="#c0c0c0" stroke-width="2" d="M1201.1914,-791.8314C1198.4883,-784.0463 1195.2684,-774.7729 1192.269,-766.1347"/>
<polygon fill="#c0c0c0" stroke="#c0c0c0" stroke-width="2" points="1195.48,-764.7119 1188.8935,-756.4133 1188.8673,-767.0081 1195.48,-764.7119"/>
</g>
<!-- 26 -->
<g id="node27" class="node">
<title>26</title>
<path fill="none" stroke="#ced856" stroke-width="2" d="M556.5,-396C556.5,-396 516.5,-396 516.5,-396 510.5,-396 504.5,-390 504.5,-384 504.5,-384 504.5,-372 504.5,-372 504.5,-366 510.5,-360 516.5,-360 516.5,-360 556.5,-360 556.5,-360 562.5,-360 568.5,-366 568.5,-372 568.5,-372 568.5,-384 568.5,-384 568.5,-390 562.5,-396 556.5,-396"/>
<text text-anchor="middle" x="536.5" y="-375.5" font-family="sans" font-size="10.00" fill="#000000">align_stats</text>
</g>
<!-- 26&#45;&gt;1 -->
<g id="edge21" class="edge">
<title>26&#45;&gt;1</title>
<path fill="none" stroke="#c0c0c0" stroke-width="2" d="M538.5176,-359.9621C544.4148,-310.5049 563.2091,-174.4094 594.5,-144 609.5727,-129.3519 739.93,-106.5435 805.36,-95.8746"/>
<polygon fill="#c0c0c0" stroke="#c0c0c0" stroke-width="2" points="805.9638,-99.3225 815.2761,-94.2697 804.8453,-92.4125 805.9638,-99.3225"/>
</g>
<!-- 27 -->
<g id="node28" class="node">
<title>27</title>
<path fill="none" stroke="#d88556" stroke-width="2" d="M389,-612C389,-612 344,-612 344,-612 338,-612 332,-606 332,-600 332,-600 332,-588 332,-588 332,-582 338,-576 344,-576 344,-576 389,-576 389,-576 395,-576 401,-582 401,-588 401,-588 401,-600 401,-600 401,-606 395,-612 389,-612"/>
<text text-anchor="middle" x="366.5" y="-591.5" font-family="sans" font-size="10.00" fill="#000000">align_merge</text>
</g>
<!-- 27&#45;&gt;26 -->
<g id="edge51" class="edge">
<title>27&#45;&gt;26</title>
<path fill="none" stroke="#c0c0c0" stroke-width="2" d="M385.8645,-575.6652C396.2339,-565.5087 408.9969,-552.4502 419.5,-540 457.7375,-494.6736 497.0735,-437.6534 518.9942,-404.7624"/>
<polygon fill="#c0c0c0" stroke="#c0c0c0" stroke-width="2" points="522.0919,-406.424 524.6998,-396.1551 516.2574,-402.5564 522.0919,-406.424"/>
</g>
<!-- 65 -->
<g id="node66" class="node">
<title>65</title>
<path fill="none" stroke="#d8b456" stroke-width="2" d="M398.5,-540C398.5,-540 334.5,-540 334.5,-540 328.5,-540 322.5,-534 322.5,-528 322.5,-528 322.5,-516 322.5,-516 322.5,-510 328.5,-504 334.5,-504 334.5,-504 398.5,-504 398.5,-504 404.5,-504 410.5,-510 410.5,-516 410.5,-516 410.5,-528 410.5,-528 410.5,-534 404.5,-540 398.5,-540"/>
<text text-anchor="middle" x="366.5" y="-519.5" font-family="sans" font-size="10.00" fill="#000000">align_sort_coord</text>
</g>
<!-- 27&#45;&gt;65 -->
<g id="edge104" class="edge">
<title>27&#45;&gt;65</title>
<path fill="none" stroke="#c0c0c0" stroke-width="2" d="M366.5,-575.8314C366.5,-568.131 366.5,-558.9743 366.5,-550.4166"/>
<polygon fill="#c0c0c0" stroke="#c0c0c0" stroke-width="2" points="370.0001,-550.4132 366.5,-540.4133 363.0001,-550.4133 370.0001,-550.4132"/>
</g>
<!-- 28 -->
<g id="node29" class="node">
<title>28</title>
<path fill="none" stroke="#566bd8" stroke-width="2" d="M515.5,-684C515.5,-684 447.5,-684 447.5,-684 441.5,-684 435.5,-678 435.5,-672 435.5,-672 435.5,-660 435.5,-660 435.5,-654 441.5,-648 447.5,-648 447.5,-648 515.5,-648 515.5,-648 521.5,-648 527.5,-654 527.5,-660 527.5,-660 527.5,-672 527.5,-672 527.5,-678 521.5,-684 515.5,-684"/>
<text text-anchor="middle" x="481.5" y="-663.5" font-family="sans" font-size="10.00" fill="#000000">shard_sort_query</text>
</g>
<!-- 28&#45;&gt;27 -->
<g id="edge52" class="edge">
<title>28&#45;&gt;27</title>
<path fill="none" stroke="#c0c0c0" stroke-width="2" d="M452.4806,-647.8314C437.7714,-638.6221 419.7356,-627.3301 403.9878,-617.4706"/>
<polygon fill="#c0c0c0" stroke="#c0c0c0" stroke-width="2" points="405.8433,-614.5029 395.5101,-612.1628 402.1286,-620.436 405.8433,-614.5029"/>
</g>
<!-- 29 -->
<g id="node30" class="node">
<title>29</title>
<path fill="none" stroke="#56d8c9" stroke-width="2" d="M530.5,-756C530.5,-756 450.5,-756 450.5,-756 444.5,-756 438.5,-750 438.5,-744 438.5,-744 438.5,-732 438.5,-732 438.5,-726 444.5,-720 450.5,-720 450.5,-720 530.5,-720 530.5,-720 536.5,-720 542.5,-726 542.5,-732 542.5,-732 542.5,-744 542.5,-744 542.5,-750 536.5,-756 530.5,-756"/>
<text text-anchor="middle" x="490.5" y="-735.5" font-family="sans" font-size="10.00" fill="#000000">shard_clean_header</text>
</g>
<!-- 29&#45;&gt;28 -->
<g id="edge55" class="edge">
<title>29&#45;&gt;28</title>
<path fill="none" stroke="#c0c0c0" stroke-width="2" d="M488.2289,-719.8314C487.2664,-712.131 486.1218,-702.9743 485.0521,-694.4166"/>
<polygon fill="#c0c0c0" stroke="#c0c0c0" stroke-width="2" points="488.5151,-693.9019 483.8017,-684.4133 481.5691,-694.7702 488.5151,-693.9019"/>
</g>
<!-- 30&#45;&gt;29 -->
<g id="edge56" class="edge">
<title>30&#45;&gt;29</title>
<path fill="none" stroke="#c0c0c0" stroke-width="2" d="M500.2196,-791.8314C498.8292,-784.131 497.1759,-774.9743 495.6308,-766.4166"/>
<polygon fill="#c0c0c0" stroke="#c0c0c0" stroke-width="2" points="499.0458,-765.6322 493.8246,-756.4133 492.1572,-766.8761 499.0458,-765.6322"/>
</g>
<!-- 31 -->
<g id="node32" class="node">
<title>31</title>
<path fill="none" stroke="#569ad8" stroke-width="2" d="M361.5,-900C361.5,-900 245.5,-900 245.5,-900 239.5,-900 233.5,-894 233.5,-888 233.5,-888 233.5,-876 233.5,-876 233.5,-870 239.5,-864 245.5,-864 245.5,-864 361.5,-864 361.5,-864 367.5,-864 373.5,-870 373.5,-876 373.5,-876 373.5,-888 373.5,-888 373.5,-894 367.5,-900 361.5,-900"/>
<text text-anchor="middle" x="303.5" y="-879.5" font-family="sans" font-size="10.00" fill="#000000">shard_saturated_reads_filter</text>
</g>
<!-- 31&#45;&gt;30 -->
<g id="edge58" class="edge">
<title>31&#45;&gt;30</title>
<path fill="none" stroke="#c0c0c0" stroke-width="2" d="M353.7103,-863.9243C381.0515,-854.0815 415.0594,-841.8386 443.7575,-831.5073"/>
<polygon fill="#c0c0c0" stroke="#c0c0c0" stroke-width="2" points="445.0457,-834.7635 453.2691,-828.0831 442.6746,-828.1773 445.0457,-834.7635"/>
</g>
<!-- 31&#45;&gt;37 -->
<g id="edge68" class="edge">
<title>31&#45;&gt;37</title>
<path fill="none" stroke="#c0c0c0" stroke-width="2" d="M267.6674,-863.8314C249.0843,-854.4089 226.2011,-842.8062 206.4435,-832.7883"/>
<polygon fill="#c0c0c0" stroke="#c0c0c0" stroke-width="2" points="207.823,-829.5635 197.3211,-828.1628 204.6573,-835.8069 207.823,-829.5635"/>
</g>
<!-- 31&#45;&gt;40 -->
<g id="edge72" class="edge">
<title>31&#45;&gt;40</title>
<path fill="none" stroke="#c0c0c0" stroke-width="2" d="M310.8179,-863.8314C313.9876,-855.9617 317.77,-846.5712 321.2813,-837.8533"/>
<polygon fill="#c0c0c0" stroke="#c0c0c0" stroke-width="2" points="324.5939,-838.9968 325.0835,-828.4133 318.1008,-836.3815 324.5939,-838.9968"/>
</g>
<!-- 75 -->
<g id="node76" class="node">
<title>75</title>
<path fill="none" stroke="#56b1d8" stroke-width="2" d="M139,-612C139,-612 12,-612 12,-612 6,-612 0,-606 0,-600 0,-600 0,-588 0,-588 0,-582 6,-576 12,-576 12,-576 139,-576 139,-576 145,-576 151,-582 151,-588 151,-588 151,-600 151,-600 151,-606 145,-612 139,-612"/>
<text text-anchor="middle" x="75.5" y="-591.5" font-family="sans" font-size="10.00" fill="#000000">shard_saturated_reads_extract</text>
</g>
<!-- 31&#45;&gt;75 -->
<g id="edge117" class="edge">
<title>31&#45;&gt;75</title>
<path fill="none" stroke="#c0c0c0" stroke-width="2" d="M233.2996,-874.8517C173.7459,-867.1664 94.9607,-852.6081 75.5,-828 28.0767,-768.0329 50.3773,-669.7773 65.5183,-621.9332"/>
<polygon fill="#c0c0c0" stroke="#c0c0c0" stroke-width="2" points="68.9033,-622.8438 68.7053,-612.2508 62.2542,-620.6552 68.9033,-622.8438"/>
</g>
<!-- 32&#45;&gt;31 -->
<g id="edge59" class="edge">
<title>32&#45;&gt;31</title>
<path fill="none" stroke="#c0c0c0" stroke-width="2" d="M237.7061,-935.8314C248.545,-926.9632 261.7444,-916.1637 273.4678,-906.5718"/>
<polygon fill="#c0c0c0" stroke="#c0c0c0" stroke-width="2" points="275.7777,-909.2041 281.301,-900.1628 271.345,-903.7864 275.7777,-909.2041"/>
</g>
<!-- 33&#45;&gt;31 -->
<g id="edge60" class="edge">
<title>33&#45;&gt;31</title>
<path fill="none" stroke="#c0c0c0" stroke-width="2" d="M320.6961,-935.8314C318.2092,-928.0463 315.2469,-918.7729 312.4875,-910.1347"/>
<polygon fill="#c0c0c0" stroke="#c0c0c0" stroke-width="2" points="315.7591,-908.874 309.382,-900.4133 309.091,-911.0041 315.7591,-908.874"/>
</g>
<!-- 34&#45;&gt;31 -->
<g id="edge61" class="edge">
<title>34&#45;&gt;31</title>
<path fill="none" stroke="#c0c0c0" stroke-width="2" d="M432.8448,-935.8314C409.6042,-926.159 380.8432,-914.1891 356.3477,-903.9944"/>
<polygon fill="#c0c0c0" stroke="#c0c0c0" stroke-width="2" points="357.4185,-900.6491 346.8413,-900.038 354.7288,-907.1117 357.4185,-900.6491"/>
</g>
<!-- 35 -->
<g id="node36" class="node">
<title>35</title>
<path fill="none" stroke="#566bd8" stroke-width="2" d="M268.5,-684C268.5,-684 200.5,-684 200.5,-684 194.5,-684 188.5,-678 188.5,-672 188.5,-672 188.5,-660 188.5,-660 188.5,-654 194.5,-648 200.5,-648 200.5,-648 268.5,-648 268.5,-648 274.5,-648 280.5,-654 280.5,-660 280.5,-660 280.5,-672 280.5,-672 280.5,-678 274.5,-684 268.5,-684"/>
<text text-anchor="middle" x="234.5" y="-663.5" font-family="sans" font-size="10.00" fill="#000000">shard_sort_query</text>
</g>
<!-- 35&#45;&gt;27 -->
<g id="edge53" class="edge">
<title>35&#45;&gt;27</title>
<path fill="none" stroke="#c0c0c0" stroke-width="2" d="M267.8092,-647.8314C284.9273,-638.4942 305.9706,-627.016 324.2222,-617.0606"/>
<polygon fill="#c0c0c0" stroke="#c0c0c0" stroke-width="2" points="326.0985,-620.024 333.2015,-612.1628 322.7465,-613.8788 326.0985,-620.024"/>
</g>
<!-- 36 -->
<g id="node37" class="node">
<title>36</title>
<path fill="none" stroke="#56d8c9" stroke-width="2" d="M241.5,-756C241.5,-756 161.5,-756 161.5,-756 155.5,-756 149.5,-750 149.5,-744 149.5,-744 149.5,-732 149.5,-732 149.5,-726 155.5,-720 161.5,-720 161.5,-720 241.5,-720 241.5,-720 247.5,-720 253.5,-726 253.5,-732 253.5,-732 253.5,-744 253.5,-744 253.5,-750 247.5,-756 241.5,-756"/>
<text text-anchor="middle" x="201.5" y="-735.5" font-family="sans" font-size="10.00" fill="#000000">shard_clean_header</text>
</g>
<!-- 36&#45;&gt;35 -->
<g id="edge65" class="edge">
<title>36&#45;&gt;35</title>
<path fill="none" stroke="#c0c0c0" stroke-width="2" d="M209.8273,-719.8314C213.473,-711.8771 217.8309,-702.369 221.8627,-693.5723"/>
<polygon fill="#c0c0c0" stroke="#c0c0c0" stroke-width="2" points="225.0757,-694.9622 226.0606,-684.4133 218.7123,-692.0456 225.0757,-694.9622"/>
</g>
<!-- 37&#45;&gt;36 -->
<g id="edge66" class="edge">
<title>37&#45;&gt;36</title>
<path fill="none" stroke="#c0c0c0" stroke-width="2" d="M171.5937,-791.8314C176.0597,-783.7925 181.4075,-774.1666 186.3379,-765.2918"/>
<polygon fill="#c0c0c0" stroke="#c0c0c0" stroke-width="2" points="189.4735,-766.8546 191.2704,-756.4133 183.3544,-763.4551 189.4735,-766.8546"/>
</g>
<!-- 38 -->
<g id="node39" class="node">
<title>38</title>
<path fill="none" stroke="#566bd8" stroke-width="2" d="M387.5,-684C387.5,-684 319.5,-684 319.5,-684 313.5,-684 307.5,-678 307.5,-672 307.5,-672 307.5,-660 307.5,-660 307.5,-654 313.5,-648 319.5,-648 319.5,-648 387.5,-648 387.5,-648 393.5,-648 399.5,-654 399.5,-660 399.5,-660 399.5,-672 399.5,-672 399.5,-678 393.5,-684 387.5,-684"/>
<text text-anchor="middle" x="353.5" y="-663.5" font-family="sans" font-size="10.00" fill="#000000">shard_sort_query</text>
</g>
<!-- 38&#45;&gt;27 -->
<g id="edge54" class="edge">
<title>38&#45;&gt;27</title>
<path fill="none" stroke="#c0c0c0" stroke-width="2" d="M356.7804,-647.8314C358.1708,-640.131 359.8241,-630.9743 361.3692,-622.4166"/>
<polygon fill="#c0c0c0" stroke="#c0c0c0" stroke-width="2" points="364.8428,-622.8761 363.1754,-612.4133 357.9542,-621.6322 364.8428,-622.8761"/>
</g>
<!-- 39 -->
<g id="node40" class="node">
<title>39</title>
<path fill="none" stroke="#56d8c9" stroke-width="2" d="M384.5,-756C384.5,-756 304.5,-756 304.5,-756 298.5,-756 292.5,-750 292.5,-744 292.5,-744 292.5,-732 292.5,-732 292.5,-726 298.5,-720 304.5,-720 304.5,-720 384.5,-720 384.5,-720 390.5,-720 396.5,-726 396.5,-732 396.5,-732 396.5,-744 396.5,-744 396.5,-750 390.5,-756 384.5,-756"/>
<text text-anchor="middle" x="344.5" y="-735.5" font-family="sans" font-size="10.00" fill="#000000">shard_clean_header</text>
</g>
<!-- 39&#45;&gt;38 -->
<g id="edge69" class="edge">
<title>39&#45;&gt;38</title>
<path fill="none" stroke="#c0c0c0" stroke-width="2" d="M346.7711,-719.8314C347.7336,-712.131 348.8782,-702.9743 349.9479,-694.4166"/>
<polygon fill="#c0c0c0" stroke="#c0c0c0" stroke-width="2" points="353.4309,-694.7702 351.1983,-684.4133 346.4849,-693.9019 353.4309,-694.7702"/>
</g>
<!-- 40&#45;&gt;39 -->
<g id="edge70" class="edge">
<title>40&#45;&gt;39</title>
<path fill="none" stroke="#c0c0c0" stroke-width="2" d="M335.5281,-791.8314C336.8115,-784.131 338.3376,-774.9743 339.7639,-766.4166"/>
<polygon fill="#c0c0c0" stroke="#c0c0c0" stroke-width="2" points="343.2394,-766.8526 341.4311,-756.4133 336.3347,-765.7018 343.2394,-766.8526"/>
</g>
<!-- 41 -->
<g id="node42" class="node">
<title>41</title>
<path fill="none" stroke="#ced856" stroke-width="2" d="M1249.5,-180C1249.5,-180 1209.5,-180 1209.5,-180 1203.5,-180 1197.5,-174 1197.5,-168 1197.5,-168 1197.5,-156 1197.5,-156 1197.5,-150 1203.5,-144 1209.5,-144 1209.5,-144 1249.5,-144 1249.5,-144 1255.5,-144 1261.5,-150 1261.5,-156 1261.5,-156 1261.5,-168 1261.5,-168 1261.5,-174 1255.5,-180 1249.5,-180"/>
<text text-anchor="middle" x="1229.5" y="-159.5" font-family="sans" font-size="10.00" fill="#000000">align_stats</text>
</g>
<!-- 41&#45;&gt;1 -->
<g id="edge22" class="edge">
<title>41&#45;&gt;1</title>
<path fill="none" stroke="#c0c0c0" stroke-width="2" d="M1197.1105,-146.8743C1194.2326,-145.8075 1191.3355,-144.8284 1188.5,-144 1079.0466,-112.0214 944.2506,-97.9151 879.9986,-92.6582"/>
<polygon fill="#c0c0c0" stroke="#c0c0c0" stroke-width="2" points="880.1855,-89.1621 869.9402,-91.861 879.6324,-96.1403 880.1855,-89.1621"/>
</g>
<!-- 42 -->
<g id="node43" class="node">
<title>42</title>
<path fill="none" stroke="#d88556" stroke-width="2" d="M1528,-612C1528,-612 1483,-612 1483,-612 1477,-612 1471,-606 1471,-600 1471,-600 1471,-588 1471,-588 1471,-582 1477,-576 1483,-576 1483,-576 1528,-576 1528,-576 1534,-576 1540,-582 1540,-588 1540,-588 1540,-600 1540,-600 1540,-606 1534,-612 1528,-612"/>
<text text-anchor="middle" x="1505.5" y="-591.5" font-family="sans" font-size="10.00" fill="#000000">align_merge</text>
</g>
<!-- 42&#45;&gt;41 -->
<g id="edge73" class="edge">
<title>42&#45;&gt;41</title>
<path fill="none" stroke="#c0c0c0" stroke-width="2" d="M1470.9492,-577.9545C1453.849,-568.7097 1433.8514,-555.7828 1419.5,-540 1319.3594,-429.872 1258.6982,-257.2196 1237.7665,-190.051"/>
<polygon fill="#c0c0c0" stroke="#c0c0c0" stroke-width="2" points="1241.0248,-188.7379 1234.7482,-180.2023 1234.332,-190.789 1241.0248,-188.7379"/>
</g>
<!-- 70 -->
<g id="node71" class="node">
<title>70</title>
<path fill="none" stroke="#d8b456" stroke-width="2" d="M1537.5,-540C1537.5,-540 1473.5,-540 1473.5,-540 1467.5,-540 1461.5,-534 1461.5,-528 1461.5,-528 1461.5,-516 1461.5,-516 1461.5,-510 1467.5,-504 1473.5,-504 1473.5,-504 1537.5,-504 1537.5,-504 1543.5,-504 1549.5,-510 1549.5,-516 1549.5,-516 1549.5,-528 1549.5,-528 1549.5,-534 1543.5,-540 1537.5,-540"/>
<text text-anchor="middle" x="1505.5" y="-519.5" font-family="sans" font-size="10.00" fill="#000000">align_sort_coord</text>
</g>
<!-- 42&#45;&gt;70 -->
<g id="edge109" class="edge">
<title>42&#45;&gt;70</title>
<path fill="none" stroke="#c0c0c0" stroke-width="2" d="M1505.5,-575.8314C1505.5,-568.131 1505.5,-558.9743 1505.5,-550.4166"/>
<polygon fill="#c0c0c0" stroke="#c0c0c0" stroke-width="2" points="1509.0001,-550.4132 1505.5,-540.4133 1502.0001,-550.4133 1509.0001,-550.4132"/>
</g>
<!-- 43 -->
<g id="node44" class="node">
<title>43</title>
<path fill="none" stroke="#566bd8" stroke-width="2" d="M1536.5,-684C1536.5,-684 1468.5,-684 1468.5,-684 1462.5,-684 1456.5,-678 1456.5,-672 1456.5,-672 1456.5,-660 1456.5,-660 1456.5,-654 1462.5,-648 1468.5,-648 1468.5,-648 1536.5,-648 1536.5,-648 1542.5,-648 1548.5,-654 1548.5,-660 1548.5,-660 1548.5,-672 1548.5,-672 1548.5,-678 1542.5,-684 1536.5,-684"/>
<text text-anchor="middle" x="1502.5" y="-663.5" font-family="sans" font-size="10.00" fill="#000000">shard_sort_query</text>
</g>
<!-- 43&#45;&gt;42 -->
<g id="edge74" class="edge">
<title>43&#45;&gt;42</title>
<path fill="none" stroke="#c0c0c0" stroke-width="2" d="M1503.257,-647.8314C1503.5779,-640.131 1503.9594,-630.9743 1504.316,-622.4166"/>
<polygon fill="#c0c0c0" stroke="#c0c0c0" stroke-width="2" points="1507.8133,-622.5503 1504.7328,-612.4133 1500.8194,-622.2589 1507.8133,-622.5503"/>
</g>
<!-- 44 -->
<g id="node45" class="node">
<title>44</title>
<path fill="none" stroke="#56d8c9" stroke-width="2" d="M1536.5,-756C1536.5,-756 1456.5,-756 1456.5,-756 1450.5,-756 1444.5,-750 1444.5,-744 1444.5,-744 1444.5,-732 1444.5,-732 1444.5,-726 1450.5,-720 1456.5,-720 1456.5,-720 1536.5,-720 1536.5,-720 1542.5,-720 1548.5,-726 1548.5,-732 1548.5,-732 1548.5,-744 1548.5,-744 1548.5,-750 1542.5,-756 1536.5,-756"/>
<text text-anchor="middle" x="1496.5" y="-735.5" font-family="sans" font-size="10.00" fill="#000000">shard_clean_header</text>
</g>
<!-- 44&#45;&gt;43 -->
<g id="edge77" class="edge">
<title>44&#45;&gt;43</title>
<path fill="none" stroke="#c0c0c0" stroke-width="2" d="M1498.0141,-719.8314C1498.6558,-712.131 1499.4188,-702.9743 1500.1319,-694.4166"/>
<polygon fill="#c0c0c0" stroke="#c0c0c0" stroke-width="2" points="1503.6229,-694.6694 1500.9656,-684.4133 1496.6471,-694.088 1503.6229,-694.6694"/>
</g>
<!-- 45&#45;&gt;44 -->
<g id="edge78" class="edge">
<title>45&#45;&gt;44</title>
<path fill="none" stroke="#c0c0c0" stroke-width="2" d="M1494.257,-791.8314C1494.5779,-784.131 1494.9594,-774.9743 1495.316,-766.4166"/>
<polygon fill="#c0c0c0" stroke="#c0c0c0" stroke-width="2" points="1498.8133,-766.5503 1495.7328,-756.4133 1491.8194,-766.2589 1498.8133,-766.5503"/>
</g>
<!-- 46 -->
<g id="node47" class="node">
<title>46</title>
<path fill="none" stroke="#569ad8" stroke-width="2" d="M1777.5,-900C1777.5,-900 1661.5,-900 1661.5,-900 1655.5,-900 1649.5,-894 1649.5,-888 1649.5,-888 1649.5,-876 1649.5,-876 1649.5,-870 1655.5,-864 1661.5,-864 1661.5,-864 1777.5,-864 1777.5,-864 1783.5,-864 1789.5,-870 1789.5,-876 1789.5,-876 1789.5,-888 1789.5,-888 1789.5,-894 1783.5,-900 1777.5,-900"/>
<text text-anchor="middle" x="1719.5" y="-879.5" font-family="sans" font-size="10.00" fill="#000000">shard_saturated_reads_filter</text>
</g>
<!-- 46&#45;&gt;45 -->
<g id="edge80" class="edge">
<title>46&#45;&gt;45</title>
<path fill="none" stroke="#c0c0c0" stroke-width="2" d="M1662.7624,-863.9243C1631.5982,-853.9959 1592.7689,-841.6255 1560.1644,-831.2382"/>
<polygon fill="#c0c0c0" stroke="#c0c0c0" stroke-width="2" points="1560.8516,-827.7839 1550.261,-828.0831 1558.7267,-834.4536 1560.8516,-827.7839"/>
</g>
<!-- 46&#45;&gt;52 -->
<g id="edge90" class="edge">
<title>46&#45;&gt;52</title>
<path fill="none" stroke="#c0c0c0" stroke-width="2" d="M1705.6212,-863.8314C1699.2864,-855.5386 1691.6616,-845.557 1684.7074,-836.4533"/>
<polygon fill="#c0c0c0" stroke="#c0c0c0" stroke-width="2" points="1687.4175,-834.2353 1678.5657,-828.4133 1681.8548,-838.4847 1687.4175,-834.2353"/>
</g>
<!-- 46&#45;&gt;55 -->
<g id="edge94" class="edge">
<title>46&#45;&gt;55</title>
<path fill="none" stroke="#c0c0c0" stroke-width="2" d="M1748.7717,-863.8314C1763.6088,-854.6221 1781.8015,-843.3301 1797.6862,-833.4706"/>
<polygon fill="#c0c0c0" stroke="#c0c0c0" stroke-width="2" points="1799.587,-836.4102 1806.2377,-828.1628 1795.8955,-830.4628 1799.587,-836.4102"/>
</g>
<!-- 76 -->
<g id="node77" class="node">
<title>76</title>
<path fill="none" stroke="#56b1d8" stroke-width="2" d="M1856,-540C1856,-540 1729,-540 1729,-540 1723,-540 1717,-534 1717,-528 1717,-528 1717,-516 1717,-516 1717,-510 1723,-504 1729,-504 1729,-504 1856,-504 1856,-504 1862,-504 1868,-510 1868,-516 1868,-516 1868,-528 1868,-528 1868,-534 1862,-540 1856,-540"/>
<text text-anchor="middle" x="1792.5" y="-519.5" font-family="sans" font-size="10.00" fill="#000000">shard_saturated_reads_extract</text>
</g>
<!-- 46&#45;&gt;76 -->
<g id="edge118" class="edge">
<title>46&#45;&gt;76</title>
<path fill="none" stroke="#c0c0c0" stroke-width="2" d="M1789.7596,-871.214C1840.5608,-861.9874 1903.329,-847.1636 1921.5,-828 1949.6292,-798.3342 1940.5,-778.8816 1940.5,-738 1940.5,-738 1940.5,-738 1940.5,-666 1940.5,-609.9393 1885.2761,-568.6363 1842.295,-544.9797"/>
<polygon fill="#c0c0c0" stroke="#c0c0c0" stroke-width="2" points="1843.8041,-541.818 1833.3334,-540.2006 1840.5101,-547.9945 1843.8041,-541.818"/>
</g>
<!-- 47&#45;&gt;46 -->
<g id="edge81" class="edge">
<title>47&#45;&gt;46</title>
<path fill="none" stroke="#c0c0c0" stroke-width="2" d="M1719.5,-935.8314C1719.5,-928.131 1719.5,-918.9743 1719.5,-910.4166"/>
<polygon fill="#c0c0c0" stroke="#c0c0c0" stroke-width="2" points="1723.0001,-910.4132 1719.5,-900.4133 1716.0001,-910.4133 1723.0001,-910.4132"/>
</g>
<!-- 48&#45;&gt;46 -->
<g id="edge82" class="edge">
<title>48&#45;&gt;46</title>
<path fill="none" stroke="#c0c0c0" stroke-width="2" d="M1802.49,-935.8314C1788.4239,-926.7074 1771.206,-915.539 1756.1067,-905.7449"/>
<polygon fill="#c0c0c0" stroke="#c0c0c0" stroke-width="2" points="1757.7953,-902.6684 1747.501,-900.1628 1753.986,-908.5412 1757.7953,-902.6684"/>
</g>
<!-- 49&#45;&gt;46 -->
<g id="edge83" class="edge">
<title>49&#45;&gt;46</title>
<path fill="none" stroke="#c0c0c0" stroke-width="2" d="M1636.51,-935.8314C1650.5761,-926.7074 1667.794,-915.539 1682.8933,-905.7449"/>
<polygon fill="#c0c0c0" stroke="#c0c0c0" stroke-width="2" points="1685.014,-908.5412 1691.499,-900.1628 1681.2047,-902.6684 1685.014,-908.5412"/>
</g>
<!-- 50 -->
<g id="node51" class="node">
<title>50</title>
<path fill="none" stroke="#566bd8" stroke-width="2" d="M1674.5,-684C1674.5,-684 1606.5,-684 1606.5,-684 1600.5,-684 1594.5,-678 1594.5,-672 1594.5,-672 1594.5,-660 1594.5,-660 1594.5,-654 1600.5,-648 1606.5,-648 1606.5,-648 1674.5,-648 1674.5,-648 1680.5,-648 1686.5,-654 1686.5,-660 1686.5,-660 1686.5,-672 1686.5,-672 1686.5,-678 1680.5,-684 1674.5,-684"/>
<text text-anchor="middle" x="1640.5" y="-663.5" font-family="sans" font-size="10.00" fill="#000000">shard_sort_query</text>
</g>
<!-- 50&#45;&gt;42 -->
<g id="edge75" class="edge">
<title>50&#45;&gt;42</title>
<path fill="none" stroke="#c0c0c0" stroke-width="2" d="M1606.4338,-647.8314C1588.8467,-638.4516 1567.2084,-626.9112 1548.4832,-616.9244"/>
<polygon fill="#c0c0c0" stroke="#c0c0c0" stroke-width="2" points="1550.0259,-613.7805 1539.5553,-612.1628 1546.7318,-619.957 1550.0259,-613.7805"/>
</g>
<!-- 51 -->
<g id="node52" class="node">
<title>51</title>
<path fill="none" stroke="#56d8c9" stroke-width="2" d="M1690.5,-756C1690.5,-756 1610.5,-756 1610.5,-756 1604.5,-756 1598.5,-750 1598.5,-744 1598.5,-744 1598.5,-732 1598.5,-732 1598.5,-726 1604.5,-720 1610.5,-720 1610.5,-720 1690.5,-720 1690.5,-720 1696.5,-720 1702.5,-726 1702.5,-732 1702.5,-732 1702.5,-744 1702.5,-744 1702.5,-750 1696.5,-756 1690.5,-756"/>
<text text-anchor="middle" x="1650.5" y="-735.5" font-family="sans" font-size="10.00" fill="#000000">shard_clean_header</text>
</g>
<!-- 51&#45;&gt;50 -->
<g id="edge87" class="edge">
<title>51&#45;&gt;50</title>
<path fill="none" stroke="#c0c0c0" stroke-width="2" d="M1647.9766,-719.8314C1646.9071,-712.131 1645.6353,-702.9743 1644.4468,-694.4166"/>
<polygon fill="#c0c0c0" stroke="#c0c0c0" stroke-width="2" points="1647.8999,-693.8367 1643.0574,-684.4133 1640.9664,-694.7997 1647.8999,-693.8367"/>
</g>
<!-- 52&#45;&gt;51 -->
<g id="edge88" class="edge">
<title>52&#45;&gt;51</title>
<path fill="none" stroke="#c0c0c0" stroke-width="2" d="M1660.9672,-791.8314C1659.4699,-784.131 1657.6895,-774.9743 1656.0255,-766.4166"/>
<polygon fill="#c0c0c0" stroke="#c0c0c0" stroke-width="2" points="1659.4248,-765.5614 1654.0804,-756.4133 1652.5535,-766.8975 1659.4248,-765.5614"/>
</g>
<!-- 53 -->
<g id="node54" class="node">
<title>53</title>
<path fill="none" stroke="#566bd8" stroke-width="2" d="M1801.5,-684C1801.5,-684 1733.5,-684 1733.5,-684 1727.5,-684 1721.5,-678 1721.5,-672 1721.5,-672 1721.5,-660 1721.5,-660 1721.5,-654 1727.5,-648 1733.5,-648 1733.5,-648 1801.5,-648 1801.5,-648 1807.5,-648 1813.5,-654 1813.5,-660 1813.5,-660 1813.5,-672 1813.5,-672 1813.5,-678 1807.5,-684 1801.5,-684"/>
<text text-anchor="middle" x="1767.5" y="-663.5" font-family="sans" font-size="10.00" fill="#000000">shard_sort_query</text>
</g>
<!-- 53&#45;&gt;42 -->
<g id="edge76" class="edge">
<title>53&#45;&gt;42</title>
<path fill="none" stroke="#c0c0c0" stroke-width="2" d="M1721.2628,-653.2936C1672.9863,-640.0268 1597.795,-619.3635 1550.1275,-606.264"/>
<polygon fill="#c0c0c0" stroke="#c0c0c0" stroke-width="2" points="1550.9631,-602.864 1540.3931,-603.589 1549.1082,-609.6138 1550.9631,-602.864"/>
</g>
<!-- 54 -->
<g id="node55" class="node">
<title>54</title>
<path fill="none" stroke="#56d8c9" stroke-width="2" d="M1872.5,-756C1872.5,-756 1792.5,-756 1792.5,-756 1786.5,-756 1780.5,-750 1780.5,-744 1780.5,-744 1780.5,-732 1780.5,-732 1780.5,-726 1786.5,-720 1792.5,-720 1792.5,-720 1872.5,-720 1872.5,-720 1878.5,-720 1884.5,-726 1884.5,-732 1884.5,-732 1884.5,-744 1884.5,-744 1884.5,-750 1878.5,-756 1872.5,-756"/>
<text text-anchor="middle" x="1832.5" y="-735.5" font-family="sans" font-size="10.00" fill="#000000">shard_clean_header</text>
</g>
<!-- 54&#45;&gt;53 -->
<g id="edge91" class="edge">
<title>54&#45;&gt;53</title>
<path fill="none" stroke="#c0c0c0" stroke-width="2" d="M1816.0978,-719.8314C1808.4585,-711.3694 1799.2317,-701.1489 1790.8793,-691.8971"/>
<polygon fill="#c0c0c0" stroke="#c0c0c0" stroke-width="2" points="1793.4221,-689.4906 1784.1231,-684.4133 1788.2262,-694.1813 1793.4221,-689.4906"/>
</g>
<!-- 55&#45;&gt;54 -->
<g id="edge92" class="edge">
<title>55&#45;&gt;54</title>
<path fill="none" stroke="#c0c0c0" stroke-width="2" d="M1834.743,-791.8314C1834.4221,-784.131 1834.0406,-774.9743 1833.684,-766.4166"/>
<polygon fill="#c0c0c0" stroke="#c0c0c0" stroke-width="2" points="1837.1806,-766.2589 1833.2672,-756.4133 1830.1867,-766.5503 1837.1806,-766.2589"/>
</g>
<!-- 56 -->
<g id="node57" class="node">
<title>56</title>
<path fill="none" stroke="#56d882" stroke-width="2" d="M1099.5,-252C1099.5,-252 1047.5,-252 1047.5,-252 1041.5,-252 1035.5,-246 1035.5,-240 1035.5,-240 1035.5,-228 1035.5,-228 1035.5,-222 1041.5,-216 1047.5,-216 1047.5,-216 1099.5,-216 1099.5,-216 1105.5,-216 1111.5,-222 1111.5,-228 1111.5,-228 1111.5,-240 1111.5,-240 1111.5,-246 1105.5,-252 1099.5,-252"/>
<text text-anchor="middle" x="1073.5" y="-231.5" font-family="sans" font-size="10.00" fill="#000000">metadmg_dfit</text>
</g>
<!-- 56&#45;&gt;1 -->
<g id="edge23" class="edge">
<title>56&#45;&gt;1</title>
<path fill="none" stroke="#c0c0c0" stroke-width="2" d="M1067.5805,-215.715C1060.0537,-195.3108 1045.1225,-162.7125 1021.5,-144 980.1019,-111.2066 919.0213,-98.285 879.9991,-93.2222"/>
<polygon fill="#c0c0c0" stroke="#c0c0c0" stroke-width="2" points="879.9546,-89.6925 869.6124,-91.9926 879.1316,-96.644 879.9546,-89.6925"/>
</g>
<!-- 71 -->
<g id="node72" class="node">
<title>71</title>
<path fill="none" stroke="#59d856" stroke-width="2" d="M1167,-180C1167,-180 1086,-180 1086,-180 1080,-180 1074,-174 1074,-168 1074,-168 1074,-156 1074,-156 1074,-150 1080,-144 1086,-144 1086,-144 1167,-144 1167,-144 1173,-144 1179,-150 1179,-156 1179,-156 1179,-168 1179,-168 1179,-174 1173,-180 1167,-180"/>
<text text-anchor="middle" x="1126.5" y="-159.5" font-family="sans" font-size="10.00" fill="#000000">metadmg_aggregate</text>
</g>
<!-- 56&#45;&gt;71 -->
<g id="edge111" class="edge">
<title>56&#45;&gt;71</title>
<path fill="none" stroke="#c0c0c0" stroke-width="2" d="M1086.8741,-215.8314C1092.9162,-207.6232 1100.1763,-197.7606 1106.8221,-188.7323"/>
<polygon fill="#c0c0c0" stroke="#c0c0c0" stroke-width="2" points="1109.8363,-190.5415 1112.9458,-180.4133 1104.1989,-186.3918 1109.8363,-190.5415"/>
</g>
<!-- 57 -->
<g id="node58" class="node">
<title>57</title>
<path fill="none" stroke="#56d89a" stroke-width="2" d="M1164,-324C1164,-324 1113,-324 1113,-324 1107,-324 1101,-318 1101,-312 1101,-312 1101,-300 1101,-300 1101,-294 1107,-288 1113,-288 1113,-288 1164,-288 1164,-288 1170,-288 1176,-294 1176,-300 1176,-300 1176,-312 1176,-312 1176,-318 1170,-324 1164,-324"/>
<text text-anchor="middle" x="1138.5" y="-303.5" font-family="sans" font-size="10.00" fill="#000000">metadmg_lca</text>
</g>
<!-- 57&#45;&gt;56 -->
<g id="edge95" class="edge">
<title>57&#45;&gt;56</title>
<path fill="none" stroke="#c0c0c0" stroke-width="2" d="M1122.0978,-287.8314C1114.4585,-279.3694 1105.2317,-269.1489 1096.8793,-259.8971"/>
<polygon fill="#c0c0c0" stroke="#c0c0c0" stroke-width="2" points="1099.4221,-257.4906 1090.1231,-252.4133 1094.2262,-262.1813 1099.4221,-257.4906"/>
</g>
<!-- 57&#45;&gt;71 -->
<g id="edge110" class="edge">
<title>57&#45;&gt;71</title>
<path fill="none" stroke="#c0c0c0" stroke-width="2" d="M1136.9802,-287.7623C1134.9334,-263.201 1131.2706,-219.2474 1128.8628,-190.3541"/>
<polygon fill="#c0c0c0" stroke="#c0c0c0" stroke-width="2" points="1132.3259,-189.7644 1128.0075,-180.0896 1125.3501,-190.3458 1132.3259,-189.7644"/>
</g>
<!-- 58 -->
<g id="node59" class="node">
<title>58</title>
<path fill="none" stroke="#d8cb56" stroke-width="2" d="M1170.5,-396C1170.5,-396 1106.5,-396 1106.5,-396 1100.5,-396 1094.5,-390 1094.5,-384 1094.5,-384 1094.5,-372 1094.5,-372 1094.5,-366 1100.5,-360 1106.5,-360 1106.5,-360 1170.5,-360 1170.5,-360 1176.5,-360 1182.5,-366 1182.5,-372 1182.5,-372 1182.5,-384 1182.5,-384 1182.5,-390 1176.5,-396 1170.5,-396"/>
<text text-anchor="middle" x="1138.5" y="-375.5" font-family="sans" font-size="10.00" fill="#000000">align_sort_query</text>
</g>
<!-- 58&#45;&gt;57 -->
<g id="edge96" class="edge">
<title>58&#45;&gt;57</title>
<path fill="none" stroke="#c0c0c0" stroke-width="2" d="M1138.5,-359.8314C1138.5,-352.131 1138.5,-342.9743 1138.5,-334.4166"/>
<polygon fill="#c0c0c0" stroke="#c0c0c0" stroke-width="2" points="1142.0001,-334.4132 1138.5,-324.4133 1135.0001,-334.4133 1142.0001,-334.4132"/>
</g>
<!-- 77 -->
<g id="node78" class="node">
<title>77</title>
<path fill="none" stroke="#56d86b" stroke-width="2" d="M1243,-108C1243,-108 1170,-108 1170,-108 1164,-108 1158,-102 1158,-96 1158,-96 1158,-84 1158,-84 1158,-78 1164,-72 1170,-72 1170,-72 1243,-72 1243,-72 1249,-72 1255,-78 1255,-84 1255,-84 1255,-96 1255,-96 1255,-102 1249,-108 1243,-108"/>
<text text-anchor="middle" x="1206.5" y="-87.5" font-family="sans" font-size="10.00" fill="#000000">metadmg_damage</text>
</g>
<!-- 58&#45;&gt;77 -->
<g id="edge119" class="edge">
<title>58&#45;&gt;77</title>
<path fill="none" stroke="#c0c0c0" stroke-width="2" d="M1156.6645,-359.8903C1187.7837,-327.349 1249.9274,-255.3238 1270.5,-180 1274.7156,-164.5653 1277.2421,-158.5101 1270.5,-144 1265.0862,-132.3486 1255.7831,-122.3063 1245.9212,-114.1507"/>
<polygon fill="#c0c0c0" stroke="#c0c0c0" stroke-width="2" points="1248.0153,-111.3458 1237.9561,-108.0198 1243.7457,-116.8929 1248.0153,-111.3458"/>
</g>
<!-- 59 -->
<g id="node60" class="node">
<title>59</title>
<path fill="none" stroke="#d89c56" stroke-width="2" d="M1162,-468C1162,-468 1107,-468 1107,-468 1101,-468 1095,-462 1095,-456 1095,-456 1095,-444 1095,-444 1095,-438 1101,-432 1107,-432 1107,-432 1162,-432 1162,-432 1168,-432 1174,-438 1174,-444 1174,-444 1174,-456 1174,-456 1174,-462 1168,-468 1162,-468"/>
<text text-anchor="middle" x="1134.5" y="-447.5" font-family="sans" font-size="10.00" fill="#000000">align_reassign</text>
</g>
<!-- 59&#45;&gt;58 -->
<g id="edge97" class="edge">
<title>59&#45;&gt;58</title>
<path fill="none" stroke="#c0c0c0" stroke-width="2" d="M1135.5094,-431.8314C1135.9372,-424.131 1136.4459,-414.9743 1136.9213,-406.4166"/>
<polygon fill="#c0c0c0" stroke="#c0c0c0" stroke-width="2" points="1140.4169,-406.592 1137.477,-396.4133 1133.4276,-406.2037 1140.4169,-406.592"/>
</g>
<!-- 60&#45;&gt;59 -->
<g id="edge98" class="edge">
<title>60&#45;&gt;59</title>
<path fill="none" stroke="#c0c0c0" stroke-width="2" d="M1112.0703,-503.8314C1115.3493,-495.9617 1119.262,-486.5712 1122.8945,-477.8533"/>
<polygon fill="#c0c0c0" stroke="#c0c0c0" stroke-width="2" points="1126.2124,-478.9902 1126.8278,-468.4133 1119.7508,-476.2979 1126.2124,-478.9902"/>
</g>
<!-- 61 -->
<g id="node62" class="node">
<title>61</title>
<path fill="none" stroke="#56d882" stroke-width="2" d="M492.5,-252C492.5,-252 440.5,-252 440.5,-252 434.5,-252 428.5,-246 428.5,-240 428.5,-240 428.5,-228 428.5,-228 428.5,-222 434.5,-216 440.5,-216 440.5,-216 492.5,-216 492.5,-216 498.5,-216 504.5,-222 504.5,-228 504.5,-228 504.5,-240 504.5,-240 504.5,-246 498.5,-252 492.5,-252"/>
<text text-anchor="middle" x="466.5" y="-231.5" font-family="sans" font-size="10.00" fill="#000000">metadmg_dfit</text>
</g>
<!-- 61&#45;&gt;1 -->
<g id="edge24" class="edge">
<title>61&#45;&gt;1</title>
<path fill="none" stroke="#c0c0c0" stroke-width="2" d="M471.7501,-215.9003C478.8009,-195.0294 493.4338,-161.3709 518.5,-144 564.4025,-112.1895 729.73,-97.4449 804.8661,-92.2732"/>
<polygon fill="#c0c0c0" stroke="#c0c0c0" stroke-width="2" points="805.5277,-95.7369 815.2724,-91.5788 805.0615,-88.7525 805.5277,-95.7369"/>
</g>
<!-- 72 -->
<g id="node73" class="node">
<title>72</title>
<path fill="none" stroke="#59d856" stroke-width="2" d="M454,-180C454,-180 373,-180 373,-180 367,-180 361,-174 361,-168 361,-168 361,-156 361,-156 361,-150 367,-144 373,-144 373,-144 454,-144 454,-144 460,-144 466,-150 466,-156 466,-156 466,-168 466,-168 466,-174 460,-180 454,-180"/>
<text text-anchor="middle" x="413.5" y="-159.5" font-family="sans" font-size="10.00" fill="#000000">metadmg_aggregate</text>
</g>
<!-- 61&#45;&gt;72 -->
<g id="edge113" class="edge">
<title>61&#45;&gt;72</title>
<path fill="none" stroke="#c0c0c0" stroke-width="2" d="M453.1259,-215.8314C447.0838,-207.6232 439.8237,-197.7606 433.1779,-188.7323"/>
<polygon fill="#c0c0c0" stroke="#c0c0c0" stroke-width="2" points="435.8011,-186.3918 427.0542,-180.4133 430.1637,-190.5415 435.8011,-186.3918"/>
</g>
<!-- 62 -->
<g id="node63" class="node">
<title>62</title>
<path fill="none" stroke="#56d89a" stroke-width="2" d="M426,-324C426,-324 375,-324 375,-324 369,-324 363,-318 363,-312 363,-312 363,-300 363,-300 363,-294 369,-288 375,-288 375,-288 426,-288 426,-288 432,-288 438,-294 438,-300 438,-300 438,-312 438,-312 438,-318 432,-324 426,-324"/>
<text text-anchor="middle" x="400.5" y="-303.5" font-family="sans" font-size="10.00" fill="#000000">metadmg_lca</text>
</g>
<!-- 62&#45;&gt;61 -->
<g id="edge100" class="edge">
<title>62&#45;&gt;61</title>
<path fill="none" stroke="#c0c0c0" stroke-width="2" d="M417.1546,-287.8314C424.9114,-279.3694 434.2802,-269.1489 442.761,-259.8971"/>
<polygon fill="#c0c0c0" stroke="#c0c0c0" stroke-width="2" points="445.4439,-262.1499 449.6212,-252.4133 440.2838,-257.4198 445.4439,-262.1499"/>
</g>
<!-- 62&#45;&gt;72 -->
<g id="edge112" class="edge">
<title>62&#45;&gt;72</title>
<path fill="none" stroke="#c0c0c0" stroke-width="2" d="M402.1465,-287.7623C404.3638,-263.201 408.3318,-219.2474 410.9403,-190.3541"/>
<polygon fill="#c0c0c0" stroke="#c0c0c0" stroke-width="2" points="414.4535,-190.3638 411.8669,-180.0896 407.4819,-189.7344 414.4535,-190.3638"/>
</g>
<!-- 63 -->
<g id="node64" class="node">
<title>63</title>
<path fill="none" stroke="#d8cb56" stroke-width="2" d="M398.5,-396C398.5,-396 334.5,-396 334.5,-396 328.5,-396 322.5,-390 322.5,-384 322.5,-384 322.5,-372 322.5,-372 322.5,-366 328.5,-360 334.5,-360 334.5,-360 398.5,-360 398.5,-360 404.5,-360 410.5,-366 410.5,-372 410.5,-372 410.5,-384 410.5,-384 410.5,-390 404.5,-396 398.5,-396"/>
<text text-anchor="middle" x="366.5" y="-375.5" font-family="sans" font-size="10.00" fill="#000000">align_sort_query</text>
</g>
<!-- 63&#45;&gt;62 -->
<g id="edge101" class="edge">
<title>63&#45;&gt;62</title>
<path fill="none" stroke="#c0c0c0" stroke-width="2" d="M375.0796,-359.8314C378.8358,-351.8771 383.3257,-342.369 387.4798,-333.5723"/>
<polygon fill="#c0c0c0" stroke="#c0c0c0" stroke-width="2" points="390.6996,-334.9503 391.8048,-324.4133 384.3699,-331.9612 390.6996,-334.9503"/>
</g>
<!-- 78 -->
<g id="node79" class="node">
<title>78</title>
<path fill="none" stroke="#56d86b" stroke-width="2" d="M360,-252C360,-252 287,-252 287,-252 281,-252 275,-246 275,-240 275,-240 275,-228 275,-228 275,-222 281,-216 287,-216 287,-216 360,-216 360,-216 366,-216 372,-222 372,-228 372,-228 372,-240 372,-240 372,-246 366,-252 360,-252"/>
<text text-anchor="middle" x="323.5" y="-231.5" font-family="sans" font-size="10.00" fill="#000000">metadmg_damage</text>
</g>
<!-- 63&#45;&gt;78 -->
<g id="edge120" class="edge">
<title>63&#45;&gt;78</title>
<path fill="none" stroke="#c0c0c0" stroke-width="2" d="M361.054,-359.7623C353.6874,-335.0928 340.479,-290.8598 331.8531,-261.9731"/>
<polygon fill="#c0c0c0" stroke="#c0c0c0" stroke-width="2" points="335.1168,-260.6701 328.9018,-252.0896 328.4094,-262.673 335.1168,-260.6701"/>
</g>
<!-- 64 -->
<g id="node65" class="node">
<title>64</title>
<path fill="none" stroke="#d89c56" stroke-width="2" d="M394,-468C394,-468 339,-468 339,-468 333,-468 327,-462 327,-456 327,-456 327,-444 327,-444 327,-438 333,-432 339,-432 339,-432 394,-432 394,-432 400,-432 406,-438 406,-444 406,-444 406,-456 406,-456 406,-462 400,-468 394,-468"/>
<text text-anchor="middle" x="366.5" y="-447.5" font-family="sans" font-size="10.00" fill="#000000">align_reassign</text>
</g>
<!-- 64&#45;&gt;63 -->
<g id="edge102" class="edge">
<title>64&#45;&gt;63</title>
<path fill="none" stroke="#c0c0c0" stroke-width="2" d="M366.5,-431.8314C366.5,-424.131 366.5,-414.9743 366.5,-406.4166"/>
<polygon fill="#c0c0c0" stroke="#c0c0c0" stroke-width="2" points="370.0001,-406.4132 366.5,-396.4133 363.0001,-406.4133 370.0001,-406.4132"/>
</g>
<!-- 65&#45;&gt;64 -->
<g id="edge103" class="edge">
<title>65&#45;&gt;64</title>
<path fill="none" stroke="#c0c0c0" stroke-width="2" d="M366.5,-503.8314C366.5,-496.131 366.5,-486.9743 366.5,-478.4166"/>
<polygon fill="#c0c0c0" stroke="#c0c0c0" stroke-width="2" points="370.0001,-478.4132 366.5,-468.4133 363.0001,-478.4133 370.0001,-478.4132"/>
</g>
<!-- 66 -->
<g id="node67" class="node">
<title>66</title>
<path fill="none" stroke="#56d882" stroke-width="2" d="M1449.5,-252C1449.5,-252 1397.5,-252 1397.5,-252 1391.5,-252 1385.5,-246 1385.5,-240 1385.5,-240 1385.5,-228 1385.5,-228 1385.5,-222 1391.5,-216 1397.5,-216 1397.5,-216 1449.5,-216 1449.5,-216 1455.5,-216 1461.5,-222 1461.5,-228 1461.5,-228 1461.5,-240 1461.5,-240 1461.5,-246 1455.5,-252 1449.5,-252"/>
<text text-anchor="middle" x="1423.5" y="-231.5" font-family="sans" font-size="10.00" fill="#000000">metadmg_dfit</text>
</g>
<!-- 66&#45;&gt;1 -->
<g id="edge25" class="edge">
<title>66&#45;&gt;1</title>
<path fill="none" stroke="#c0c0c0" stroke-width="2" d="M1405.8903,-215.9138C1384.0395,-194.7224 1344.6119,-160.4231 1303.5,-144 1226.5032,-113.2418 975.4075,-97.0401 879.8651,-91.8676"/>
<polygon fill="#c0c0c0" stroke="#c0c0c0" stroke-width="2" points="879.9651,-88.3681 869.7934,-91.3322 879.5935,-95.3582 879.9651,-88.3681"/>
</g>
<!-- 73 -->
<g id="node74" class="node">
<title>73</title>
<path fill="none" stroke="#59d856" stroke-width="2" d="M1487,-180C1487,-180 1406,-180 1406,-180 1400,-180 1394,-174 1394,-168 1394,-168 1394,-156 1394,-156 1394,-150 1400,-144 1406,-144 1406,-144 1487,-144 1487,-144 1493,-144 1499,-150 1499,-156 1499,-156 1499,-168 1499,-168 1499,-174 1493,-180 1487,-180"/>
<text text-anchor="middle" x="1446.5" y="-159.5" font-family="sans" font-size="10.00" fill="#000000">metadmg_aggregate</text>
</g>
<!-- 66&#45;&gt;73 -->
<g id="edge115" class="edge">
<title>66&#45;&gt;73</title>
<path fill="none" stroke="#c0c0c0" stroke-width="2" d="M1429.3039,-215.8314C1431.7908,-208.0463 1434.7531,-198.7729 1437.5125,-190.1347"/>
<polygon fill="#c0c0c0" stroke="#c0c0c0" stroke-width="2" points="1440.909,-191.0041 1440.618,-180.4133 1434.2409,-188.874 1440.909,-191.0041"/>
</g>
<!-- 67 -->
<g id="node68" class="node">
<title>67</title>
<path fill="none" stroke="#56d89a" stroke-width="2" d="M1487,-324C1487,-324 1436,-324 1436,-324 1430,-324 1424,-318 1424,-312 1424,-312 1424,-300 1424,-300 1424,-294 1430,-288 1436,-288 1436,-288 1487,-288 1487,-288 1493,-288 1499,-294 1499,-300 1499,-300 1499,-312 1499,-312 1499,-318 1493,-324 1487,-324"/>
<text text-anchor="middle" x="1461.5" y="-303.5" font-family="sans" font-size="10.00" fill="#000000">metadmg_lca</text>
</g>
<!-- 67&#45;&gt;66 -->
<g id="edge105" class="edge">
<title>67&#45;&gt;66</title>
<path fill="none" stroke="#c0c0c0" stroke-width="2" d="M1451.911,-287.8314C1447.6683,-279.7925 1442.5879,-270.1666 1437.904,-261.2918"/>
<polygon fill="#c0c0c0" stroke="#c0c0c0" stroke-width="2" points="1440.9811,-259.6235 1433.2181,-252.4133 1434.7904,-262.8908 1440.9811,-259.6235"/>
</g>
<!-- 67&#45;&gt;73 -->
<g id="edge114" class="edge">
<title>67&#45;&gt;73</title>
<path fill="none" stroke="#c0c0c0" stroke-width="2" d="M1466.548,-287.892C1470.8961,-269.5893 1475.7157,-240.5774 1470.5,-216 1468.6019,-207.0557 1465.1165,-197.7941 1461.3791,-189.5203"/>
<polygon fill="#c0c0c0" stroke="#c0c0c0" stroke-width="2" points="1464.4495,-187.8294 1456.9559,-180.3395 1458.1432,-190.8676 1464.4495,-187.8294"/>
</g>
<!-- 68 -->
<g id="node69" class="node">
<title>68</title>
<path fill="none" stroke="#d8cb56" stroke-width="2" d="M1525.5,-396C1525.5,-396 1461.5,-396 1461.5,-396 1455.5,-396 1449.5,-390 1449.5,-384 1449.5,-384 1449.5,-372 1449.5,-372 1449.5,-366 1455.5,-360 1461.5,-360 1461.5,-360 1525.5,-360 1525.5,-360 1531.5,-360 1537.5,-366 1537.5,-372 1537.5,-372 1537.5,-384 1537.5,-384 1537.5,-390 1531.5,-396 1525.5,-396"/>
<text text-anchor="middle" x="1493.5" y="-375.5" font-family="sans" font-size="10.00" fill="#000000">align_sort_query</text>
</g>
<!-- 68&#45;&gt;67 -->
<g id="edge106" class="edge">
<title>68&#45;&gt;67</title>
<path fill="none" stroke="#c0c0c0" stroke-width="2" d="M1485.425,-359.8314C1481.8898,-351.8771 1477.664,-342.369 1473.7544,-333.5723"/>
<polygon fill="#c0c0c0" stroke="#c0c0c0" stroke-width="2" points="1476.9435,-332.1299 1469.6837,-324.4133 1470.5468,-334.9729 1476.9435,-332.1299"/>
</g>
<!-- 79 -->
<g id="node80" class="node">
<title>79</title>
<path fill="none" stroke="#56d86b" stroke-width="2" d="M1421,-108C1421,-108 1348,-108 1348,-108 1342,-108 1336,-102 1336,-96 1336,-96 1336,-84 1336,-84 1336,-78 1342,-72 1348,-72 1348,-72 1421,-72 1421,-72 1427,-72 1433,-78 1433,-84 1433,-84 1433,-96 1433,-96 1433,-102 1427,-108 1421,-108"/>
<text text-anchor="middle" x="1384.5" y="-87.5" font-family="sans" font-size="10.00" fill="#000000">metadmg_damage</text>
</g>
<!-- 68&#45;&gt;79 -->
<g id="edge121" class="edge">
<title>68&#45;&gt;79</title>
<path fill="none" stroke="#c0c0c0" stroke-width="2" d="M1501.4893,-359.7155C1518.5219,-317.6622 1553.3441,-212.4408 1508.5,-144 1500.4935,-131.7806 1470.9739,-118.6819 1442.7464,-108.4458"/>
<polygon fill="#c0c0c0" stroke="#c0c0c0" stroke-width="2" points="1443.8509,-105.124 1433.2561,-105.0895 1441.5169,-111.7235 1443.8509,-105.124"/>
</g>
<!-- 69 -->
<g id="node70" class="node">
<title>69</title>
<path fill="none" stroke="#d89c56" stroke-width="2" d="M1531,-468C1531,-468 1476,-468 1476,-468 1470,-468 1464,-462 1464,-456 1464,-456 1464,-444 1464,-444 1464,-438 1470,-432 1476,-432 1476,-432 1531,-432 1531,-432 1537,-432 1543,-438 1543,-444 1543,-444 1543,-456 1543,-456 1543,-462 1537,-468 1531,-468"/>
<text text-anchor="middle" x="1503.5" y="-447.5" font-family="sans" font-size="10.00" fill="#000000">align_reassign</text>
</g>
<!-- 69&#45;&gt;68 -->
<g id="edge107" class="edge">
<title>69&#45;&gt;68</title>
<path fill="none" stroke="#c0c0c0" stroke-width="2" d="M1500.9766,-431.8314C1499.9071,-424.131 1498.6353,-414.9743 1497.4468,-406.4166"/>
<polygon fill="#c0c0c0" stroke="#c0c0c0" stroke-width="2" points="1500.8999,-405.8367 1496.0574,-396.4133 1493.9664,-406.7997 1500.8999,-405.8367"/>
</g>
<!-- 70&#45;&gt;69 -->
<g id="edge108" class="edge">
<title>70&#45;&gt;69</title>
<path fill="none" stroke="#c0c0c0" stroke-width="2" d="M1504.9953,-503.8314C1504.7814,-496.131 1504.5271,-486.9743 1504.2894,-478.4166"/>
<polygon fill="#c0c0c0" stroke="#c0c0c0" stroke-width="2" points="1507.7879,-478.3122 1504.0115,-468.4133 1500.7906,-478.5066 1507.7879,-478.3122"/>
</g>
<!-- 71&#45;&gt;0 -->
<g id="edge5" class="edge">
<title>71&#45;&gt;0</title>
<path fill="none" stroke="#c0c0c0" stroke-width="2" d="M1130.9674,-143.6748C1135.4608,-125.4506 1142.682,-96.7191 1149.5,-72 1151.8289,-63.5565 1154.487,-54.4102 1156.9588,-46.0868"/>
<polygon fill="#c0c0c0" stroke="#c0c0c0" stroke-width="2" points="1160.3303,-47.0286 1159.8467,-36.4448 1153.6246,-45.02 1160.3303,-47.0286"/>
</g>
<!-- 71&#45;&gt;1 -->
<g id="edge26" class="edge">
<title>71&#45;&gt;1</title>
<path fill="none" stroke="#c0c0c0" stroke-width="2" d="M1073.8575,-147.7584C1069.0065,-146.4759 1064.1642,-145.2068 1059.5,-144 996.3462,-127.6603 922.6096,-109.5062 879.39,-98.9589"/>
<polygon fill="#c0c0c0" stroke="#c0c0c0" stroke-width="2" points="880.1494,-95.5416 869.605,-96.5738 878.4916,-102.3425 880.1494,-95.5416"/>
</g>
<!-- 72&#45;&gt;0 -->
<g id="edge6" class="edge">
<title>72&#45;&gt;0</title>
<path fill="none" stroke="#c0c0c0" stroke-width="2" d="M466.1891,-148.4657C472.3558,-146.934 478.5627,-145.4161 484.5,-144 627.1439,-109.9778 662.3475,-98.9231 806.5,-72 923.2911,-50.1871 1062.7381,-31.2186 1128.15,-22.7328"/>
<polygon fill="#c0c0c0" stroke="#c0c0c0" stroke-width="2" points="1128.8995,-26.1652 1138.3694,-21.4144 1128.0038,-19.2227 1128.8995,-26.1652"/>
</g>
<!-- 72&#45;&gt;1 -->
<g id="edge27" class="edge">
<title>72&#45;&gt;1</title>
<path fill="none" stroke="#c0c0c0" stroke-width="2" d="M466.0305,-147.2783C470.905,-146.0966 475.7834,-144.982 480.5,-144 597.7669,-119.5848 738.6156,-101.8464 804.7336,-94.1901"/>
<polygon fill="#c0c0c0" stroke="#c0c0c0" stroke-width="2" points="805.5279,-97.6221 815.0642,-93.0058 804.7306,-90.6676 805.5279,-97.6221"/>
</g>
<!-- 73&#45;&gt;0 -->
<g id="edge7" class="edge">
<title>73&#45;&gt;0</title>
<path fill="none" stroke="#c0c0c0" stroke-width="2" d="M1404.1911,-143.9483C1381.2515,-133.8747 1352.549,-120.8051 1327.5,-108 1298.7854,-93.321 1292.657,-87.722 1264.5,-72 1243.7871,-60.4345 1220.5023,-47.7195 1201.7208,-37.5342"/>
<polygon fill="#c0c0c0" stroke="#c0c0c0" stroke-width="2" points="1203.3536,-34.4382 1192.8935,-32.7535 1200.02,-40.5934 1203.3536,-34.4382"/>
</g>
<!-- 73&#45;&gt;1 -->
<g id="edge28" class="edge">
<title>73&#45;&gt;1</title>
<path fill="none" stroke="#c0c0c0" stroke-width="2" d="M1393.9908,-152.3413C1377.2494,-149.4383 1358.6266,-146.3923 1341.5,-144 1169.5341,-119.9788 962.9454,-100.6355 879.8237,-93.2417"/>
<polygon fill="#c0c0c0" stroke="#c0c0c0" stroke-width="2" points="879.8878,-89.7338 869.6183,-92.3389 879.2709,-96.7065 879.8878,-89.7338"/>
</g>
<!-- 74&#45;&gt;0 -->
<g id="edge2" class="edge">
<title>74&#45;&gt;0</title>
<path fill="none" stroke="#c0c0c0" stroke-width="2" d="M1454.6668,-74.4424C1450.552,-73.6127 1446.4759,-72.7942 1442.5,-72 1356.692,-54.8606 1255.7956,-35.3539 1202.625,-25.1245"/>
<polygon fill="#c0c0c0" stroke="#c0c0c0" stroke-width="2" points="1203.1269,-21.657 1192.6458,-23.2058 1201.8051,-28.5311 1203.1269,-21.657"/>
</g>
<!-- 75&#45;&gt;0 -->
<g id="edge3" class="edge">
<title>75&#45;&gt;0</title>
<path fill="none" stroke="#c0c0c0" stroke-width="2" d="M98.7246,-575.7681C127.7046,-550.78 173.5,-502.9204 173.5,-450 173.5,-450 173.5,-450 173.5,-162 173.5,-55.1215 292.3598,-96.038 396.5,-72 538.2284,-39.2857 993.6759,-23.195 1127.9233,-19.0833"/>
<polygon fill="#c0c0c0" stroke="#c0c0c0" stroke-width="2" points="1128.2211,-22.576 1138.1108,-18.7755 1128.0096,-15.5792 1128.2211,-22.576"/>
</g>
<!-- 76&#45;&gt;0 -->
<g id="edge4" class="edge">
<title>76&#45;&gt;0</title>
<path fill="none" stroke="#c0c0c0" stroke-width="2" d="M1748.2139,-503.8069C1702.0935,-481.568 1636.5,-439.1842 1636.5,-378 1636.5,-378 1636.5,-378 1636.5,-162 1636.5,-120.9255 1646.094,-99.4065 1615.5,-72 1584.9332,-44.6179 1305.349,-26.0034 1202.9001,-20.0508"/>
<polygon fill="#c0c0c0" stroke="#c0c0c0" stroke-width="2" points="1202.8917,-16.5447 1192.7078,-19.4666 1202.491,-23.5332 1202.8917,-16.5447"/>
</g>
<!-- 77&#45;&gt;0 -->
<g id="edge8" class="edge">
<title>77&#45;&gt;0</title>
<path fill="none" stroke="#c0c0c0" stroke-width="2" d="M1196.154,-71.8314C1191.5763,-63.7925 1186.0948,-54.1666 1181.0412,-45.2918"/>
<polygon fill="#c0c0c0" stroke="#c0c0c0" stroke-width="2" points="1183.9752,-43.3712 1175.9853,-36.4133 1177.8923,-46.8351 1183.9752,-43.3712"/>
</g>
<!-- 78&#45;&gt;0 -->
<g id="edge9" class="edge">
<title>78&#45;&gt;0</title>
<path fill="none" stroke="#c0c0c0" stroke-width="2" d="M324.1232,-215.7626C325.8232,-195.4019 331.7084,-162.8436 351.5,-144 444.2479,-55.6947 504.4287,-94.4952 630.5,-72 815.547,-38.9816 1040.471,-24.4971 1128.0673,-19.8178"/>
<polygon fill="#c0c0c0" stroke="#c0c0c0" stroke-width="2" points="1128.4949,-23.3003 1138.2984,-19.2828 1128.1293,-16.3098 1128.4949,-23.3003"/>
</g>
<!-- 79&#45;&gt;0 -->
<g id="edge10" class="edge">
<title>79&#45;&gt;0</title>
<path fill="none" stroke="#c0c0c0" stroke-width="2" d="M1335.8968,-74.0209C1295.5822,-60.7667 1239.1198,-42.2038 1202.4296,-30.1412"/>
<polygon fill="#c0c0c0" stroke="#c0c0c0" stroke-width="2" points="1203.2282,-26.7195 1192.6353,-26.9212 1201.0419,-33.3694 1203.2282,-26.7195"/>
</g>
</g>
</svg>
