<?xml version="1.0" encoding="UTF-8" standalone="no"?>
<!DOCTYPE svg PUBLIC "-//W3C//DTD SVG 1.1//EN"
 "http://www.w3.org/Graphics/SVG/1.1/DTD/svg11.dtd">
<!-- Generated by graphviz version 2.40.1 (0)
 -->
<!-- Title: snakemake_dag Pages: 1 -->
<svg width="1590pt" height="885pt"
 viewBox="0.00 0.00 1590.00 885.00" xmlns="http://www.w3.org/2000/svg" xmlns:xlink="http://www.w3.org/1999/xlink">
<g id="graph0" class="graph" transform="scale(1 1) rotate(0) translate(4 881)">
<title>snakemake_dag</title>
<polygon fill="#ffffff" stroke="transparent" points="-4,4 -4,-881 1586,-881 1586,4 -4,4"/>
<!-- 0 -->
<g id="node1" class="node">
<title>0</title>
<path fill="none" stroke="#8fd856" stroke-width="2" d="M1193.5,-36C1193.5,-36 1163.5,-36 1163.5,-36 1157.5,-36 1151.5,-30 1151.5,-24 1151.5,-24 1151.5,-12 1151.5,-12 1151.5,-6 1157.5,0 1163.5,0 1163.5,0 1193.5,0 1193.5,0 1199.5,0 1205.5,-6 1205.5,-12 1205.5,-12 1205.5,-24 1205.5,-24 1205.5,-30 1199.5,-36 1193.5,-36"/>
<text text-anchor="middle" x="1178.5" y="-15.5" font-family="sans" font-size="10.00" fill="#000000">all</text>
</g>
<!-- 1 -->
<g id="node2" class="node">
<title>1</title>
<path fill="none" stroke="#56a9d8" stroke-width="2" d="M960.5,-108C960.5,-108 930.5,-108 930.5,-108 924.5,-108 918.5,-102 918.5,-96 918.5,-96 918.5,-84 918.5,-84 918.5,-78 924.5,-72 930.5,-72 930.5,-72 960.5,-72 960.5,-72 966.5,-72 972.5,-78 972.5,-84 972.5,-84 972.5,-96 972.5,-96 972.5,-102 966.5,-108 960.5,-108"/>
<text text-anchor="middle" x="945.5" y="-87.5" font-family="sans" font-size="10.00" fill="#000000">multiqc</text>
</g>
<!-- 1&#45;&gt;0 -->
<g id="edge1" class="edge">
<title>1&#45;&gt;0</title>
<path fill="none" stroke="#c0c0c0" stroke-width="2" d="M972.6841,-81.5998C1014.5116,-68.6745 1094.7279,-43.8866 1141.7118,-29.368"/>
<polygon fill="#c0c0c0" stroke="#c0c0c0" stroke-width="2" points="1142.9682,-32.6432 1151.4891,-26.3467 1140.9015,-25.9552 1142.9682,-32.6432"/>
</g>
<!-- 2 -->
<g id="node3" class="node">
<title>2</title>
<path fill="none" stroke="#70d856" stroke-width="2" d="M119,-877C119,-877 12,-877 12,-877 6,-877 0,-871 0,-865 0,-865 0,-804 0,-804 0,-798 6,-792 12,-792 12,-792 119,-792 119,-792 125,-792 131,-798 131,-804 131,-804 131,-865 131,-865 131,-871 125,-877 119,-877"/>
<text text-anchor="middle" x="65.5" y="-865" font-family="sans" font-size="10.00" fill="#000000">bowtie2</text>
<text text-anchor="middle" x="65.5" y="-854" font-family="sans" font-size="10.00" fill="#000000">library: lib1</text>
<text text-anchor="middle" x="65.5" y="-843" font-family="sans" font-size="10.00" fill="#000000">n_shard: 1</text>
<text text-anchor="middle" x="65.5" y="-832" font-family="sans" font-size="10.00" fill="#000000">read_type_map: collapsed</text>
<text text-anchor="middle" x="65.5" y="-821" font-family="sans" font-size="10.00" fill="#000000">ref: wgs_eukaryota</text>
<text text-anchor="middle" x="65.5" y="-810" font-family="sans" font-size="10.00" fill="#000000">sample: HD827sonic_2</text>
<text text-anchor="middle" x="65.5" y="-799" font-family="sans" font-size="10.00" fill="#000000">tot_shards: 2</text>
</g>
<!-- 2&#45;&gt;1 -->
<g id="edge8" class="edge">
<title>2&#45;&gt;1</title>
<path fill="none" stroke="#c0c0c0" stroke-width="2" d="M48.7798,-791.9387C37.0674,-758.2998 23.5,-709.8661 23.5,-666 23.5,-666 23.5,-666 23.5,-378 23.5,-250.2309 79.0637,-206.5051 190.5,-144 253.4657,-108.6823 764.6556,-94.2081 908.1607,-90.8171"/>
<polygon fill="#c0c0c0" stroke="#c0c0c0" stroke-width="2" points="908.3148,-94.3146 918.2308,-90.5832 908.1522,-87.3165 908.3148,-94.3146"/>
</g>
<!-- 24 -->
<g id="node25" class="node">
<title>24</title>
<path fill="none" stroke="#5692d8" stroke-width="2" d="M143.5,-756C143.5,-756 63.5,-756 63.5,-756 57.5,-756 51.5,-750 51.5,-744 51.5,-744 51.5,-732 51.5,-732 51.5,-726 57.5,-720 63.5,-720 63.5,-720 143.5,-720 143.5,-720 149.5,-720 155.5,-726 155.5,-732 155.5,-732 155.5,-744 155.5,-744 155.5,-750 149.5,-756 143.5,-756"/>
<text text-anchor="middle" x="103.5" y="-735.5" font-family="sans" font-size="10.00" fill="#000000">shard_clean_header</text>
</g>
<!-- 2&#45;&gt;24 -->
<g id="edge43" class="edge">
<title>2&#45;&gt;24</title>
<path fill="none" stroke="#c0c0c0" stroke-width="2" d="M82.278,-791.8928C85.7834,-782.9907 89.3912,-773.8289 92.6151,-765.6418"/>
<polygon fill="#c0c0c0" stroke="#c0c0c0" stroke-width="2" points="95.9171,-766.8088 96.3246,-756.2218 89.4039,-764.244 95.9171,-766.8088"/>
</g>
<!-- 3 -->
<g id="node4" class="node">
<title>3</title>
<path fill="none" stroke="#70d856" stroke-width="2" d="M300,-877C300,-877 193,-877 193,-877 187,-877 181,-871 181,-865 181,-865 181,-804 181,-804 181,-798 187,-792 193,-792 193,-792 300,-792 300,-792 306,-792 312,-798 312,-804 312,-804 312,-865 312,-865 312,-871 306,-877 300,-877"/>
<text text-anchor="middle" x="246.5" y="-865" font-family="sans" font-size="10.00" fill="#000000">bowtie2</text>
<text text-anchor="middle" x="246.5" y="-854" font-family="sans" font-size="10.00" fill="#000000">library: lib1</text>
<text text-anchor="middle" x="246.5" y="-843" font-family="sans" font-size="10.00" fill="#000000">n_shard: 2</text>
<text text-anchor="middle" x="246.5" y="-832" font-family="sans" font-size="10.00" fill="#000000">read_type_map: collapsed</text>
<text text-anchor="middle" x="246.5" y="-821" font-family="sans" font-size="10.00" fill="#000000">ref: wgs_eukaryota</text>
<text text-anchor="middle" x="246.5" y="-810" font-family="sans" font-size="10.00" fill="#000000">sample: HD827sonic_2</text>
<text text-anchor="middle" x="246.5" y="-799" font-family="sans" font-size="10.00" fill="#000000">tot_shards: 2</text>
</g>
<!-- 3&#45;&gt;1 -->
<g id="edge9" class="edge">
<title>3&#45;&gt;1</title>
<path fill="none" stroke="#c0c0c0" stroke-width="2" d="M268.8746,-791.9257C282.6405,-768.6252 301.9504,-740.4277 324.5,-720 349.2631,-697.5671 370.5524,-710.8055 390.5,-684 414.9062,-651.203 409.5,-634.8816 409.5,-594 409.5,-594 409.5,-594 409.5,-234 409.5,-184.133 433.2927,-168.8967 476.5,-144 513.661,-122.5873 803.5847,-100.0902 908.0994,-92.5965"/>
<polygon fill="#c0c0c0" stroke="#c0c0c0" stroke-width="2" points="908.4675,-96.0793 918.1938,-91.8782 907.9705,-89.097 908.4675,-96.0793"/>
</g>
<!-- 26 -->
<g id="node27" class="node">
<title>26</title>
<path fill="none" stroke="#5692d8" stroke-width="2" d="M265.5,-756C265.5,-756 185.5,-756 185.5,-756 179.5,-756 173.5,-750 173.5,-744 173.5,-744 173.5,-732 173.5,-732 173.5,-726 179.5,-720 185.5,-720 185.5,-720 265.5,-720 265.5,-720 271.5,-720 277.5,-726 277.5,-732 277.5,-732 277.5,-744 277.5,-744 277.5,-750 271.5,-756 265.5,-756"/>
<text text-anchor="middle" x="225.5" y="-735.5" font-family="sans" font-size="10.00" fill="#000000">shard_clean_header</text>
</g>
<!-- 3&#45;&gt;26 -->
<g id="edge45" class="edge">
<title>3&#45;&gt;26</title>
<path fill="none" stroke="#c0c0c0" stroke-width="2" d="M237.228,-791.8928C235.3333,-783.1864 233.3846,-774.2315 231.6331,-766.183"/>
<polygon fill="#c0c0c0" stroke="#c0c0c0" stroke-width="2" points="235.0118,-765.2488 229.4654,-756.2218 228.1719,-766.7374 235.0118,-765.2488"/>
</g>
<!-- 4 -->
<g id="node5" class="node">
<title>4</title>
<path fill="none" stroke="#70d856" stroke-width="2" d="M1408,-877C1408,-877 1301,-877 1301,-877 1295,-877 1289,-871 1289,-865 1289,-865 1289,-804 1289,-804 1289,-798 1295,-792 1301,-792 1301,-792 1408,-792 1408,-792 1414,-792 1420,-798 1420,-804 1420,-804 1420,-865 1420,-865 1420,-871 1414,-877 1408,-877"/>
<text text-anchor="middle" x="1354.5" y="-865" font-family="sans" font-size="10.00" fill="#000000">bowtie2</text>
<text text-anchor="middle" x="1354.5" y="-854" font-family="sans" font-size="10.00" fill="#000000">library: lib2</text>
<text text-anchor="middle" x="1354.5" y="-843" font-family="sans" font-size="10.00" fill="#000000">n_shard: 1</text>
<text text-anchor="middle" x="1354.5" y="-832" font-family="sans" font-size="10.00" fill="#000000">read_type_map: collapsed</text>
<text text-anchor="middle" x="1354.5" y="-821" font-family="sans" font-size="10.00" fill="#000000">ref: refseq_mitochondrion</text>
<text text-anchor="middle" x="1354.5" y="-810" font-family="sans" font-size="10.00" fill="#000000">sample: HD827sonic_2</text>
<text text-anchor="middle" x="1354.5" y="-799" font-family="sans" font-size="10.00" fill="#000000">tot_shards: 1</text>
</g>
<!-- 4&#45;&gt;1 -->
<g id="edge10" class="edge">
<title>4&#45;&gt;1</title>
<path fill="none" stroke="#c0c0c0" stroke-width="2" d="M1389.0918,-791.963C1396.2363,-780.8842 1402.7287,-768.5223 1406.5,-756 1411.114,-740.6797 1407.8197,-735.9455 1406.5,-720 1403.8242,-687.6691 1402.6324,-679.4056 1394.5,-648 1373.2157,-565.8047 1356.1005,-548.9549 1330.5,-468 1324.8672,-450.1879 1254.2901,-156.6029 1240.5,-144 1203.3033,-110.0055 1053.705,-96.5463 982.9457,-92.0032"/>
<polygon fill="#c0c0c0" stroke="#c0c0c0" stroke-width="2" points="982.8938,-88.4935 972.6977,-91.3724 982.4637,-95.4802 982.8938,-88.4935"/>
</g>
<!-- 30 -->
<g id="node31" class="node">
<title>30</title>
<path fill="none" stroke="#5692d8" stroke-width="2" d="M1385.5,-756C1385.5,-756 1305.5,-756 1305.5,-756 1299.5,-756 1293.5,-750 1293.5,-744 1293.5,-744 1293.5,-732 1293.5,-732 1293.5,-726 1299.5,-720 1305.5,-720 1305.5,-720 1385.5,-720 1385.5,-720 1391.5,-720 1397.5,-726 1397.5,-732 1397.5,-732 1397.5,-744 1397.5,-744 1397.5,-750 1391.5,-756 1385.5,-756"/>
<text text-anchor="middle" x="1345.5" y="-735.5" font-family="sans" font-size="10.00" fill="#000000">shard_clean_header</text>
</g>
<!-- 4&#45;&gt;30 -->
<g id="edge51" class="edge">
<title>4&#45;&gt;30</title>
<path fill="none" stroke="#c0c0c0" stroke-width="2" d="M1350.5263,-791.8928C1349.7143,-783.1864 1348.8791,-774.2315 1348.1285,-766.183"/>
<polygon fill="#c0c0c0" stroke="#c0c0c0" stroke-width="2" points="1351.613,-765.8535 1347.1994,-756.2218 1344.6433,-766.5036 1351.613,-765.8535"/>
</g>
<!-- 5 -->
<g id="node6" class="node">
<title>5</title>
<path fill="none" stroke="#70d856" stroke-width="2" d="M956,-877C956,-877 849,-877 849,-877 843,-877 837,-871 837,-865 837,-865 837,-804 837,-804 837,-798 843,-792 849,-792 849,-792 956,-792 956,-792 962,-792 968,-798 968,-804 968,-804 968,-865 968,-865 968,-871 962,-877 956,-877"/>
<text text-anchor="middle" x="902.5" y="-865" font-family="sans" font-size="10.00" fill="#000000">bowtie2</text>
<text text-anchor="middle" x="902.5" y="-854" font-family="sans" font-size="10.00" fill="#000000">library: lib1</text>
<text text-anchor="middle" x="902.5" y="-843" font-family="sans" font-size="10.00" fill="#000000">n_shard: 2</text>
<text text-anchor="middle" x="902.5" y="-832" font-family="sans" font-size="10.00" fill="#000000">read_type_map: collapsed</text>
<text text-anchor="middle" x="902.5" y="-821" font-family="sans" font-size="10.00" fill="#000000">ref: wgs_eukaryota</text>
<text text-anchor="middle" x="902.5" y="-810" font-family="sans" font-size="10.00" fill="#000000">sample: HD827sonic_1</text>
<text text-anchor="middle" x="902.5" y="-799" font-family="sans" font-size="10.00" fill="#000000">tot_shards: 2</text>
</g>
<!-- 5&#45;&gt;1 -->
<g id="edge11" class="edge">
<title>5&#45;&gt;1</title>
<path fill="none" stroke="#c0c0c0" stroke-width="2" d="M919.6183,-791.9733C931.6096,-758.3531 945.5,-709.9279 945.5,-666 945.5,-666 945.5,-666 945.5,-234 945.5,-193.876 945.5,-147.4631 945.5,-118.4177"/>
<polygon fill="#c0c0c0" stroke="#c0c0c0" stroke-width="2" points="949.0001,-118.1853 945.5,-108.1854 942.0001,-118.1854 949.0001,-118.1853"/>
</g>
<!-- 18 -->
<g id="node19" class="node">
<title>18</title>
<path fill="none" stroke="#5692d8" stroke-width="2" d="M905.5,-756C905.5,-756 825.5,-756 825.5,-756 819.5,-756 813.5,-750 813.5,-744 813.5,-744 813.5,-732 813.5,-732 813.5,-726 819.5,-720 825.5,-720 825.5,-720 905.5,-720 905.5,-720 911.5,-720 917.5,-726 917.5,-732 917.5,-732 917.5,-744 917.5,-744 917.5,-750 911.5,-756 905.5,-756"/>
<text text-anchor="middle" x="865.5" y="-735.5" font-family="sans" font-size="10.00" fill="#000000">shard_clean_header</text>
</g>
<!-- 5&#45;&gt;18 -->
<g id="edge35" class="edge">
<title>5&#45;&gt;18</title>
<path fill="none" stroke="#c0c0c0" stroke-width="2" d="M886.1636,-791.8928C882.7503,-782.9907 879.2375,-773.8289 876.0984,-765.6418"/>
<polygon fill="#c0c0c0" stroke="#c0c0c0" stroke-width="2" points="879.3347,-764.3059 872.4866,-756.2218 872.7987,-766.812 879.3347,-764.3059"/>
</g>
<!-- 6 -->
<g id="node7" class="node">
<title>6</title>
<path fill="none" stroke="#70d856" stroke-width="2" d="M611,-877C611,-877 504,-877 504,-877 498,-877 492,-871 492,-865 492,-865 492,-804 492,-804 492,-798 498,-792 504,-792 504,-792 611,-792 611,-792 617,-792 623,-798 623,-804 623,-804 623,-865 623,-865 623,-871 617,-877 611,-877"/>
<text text-anchor="middle" x="557.5" y="-865" font-family="sans" font-size="10.00" fill="#000000">bowtie2</text>
<text text-anchor="middle" x="557.5" y="-854" font-family="sans" font-size="10.00" fill="#000000">library: lib1</text>
<text text-anchor="middle" x="557.5" y="-843" font-family="sans" font-size="10.00" fill="#000000">n_shard: 1</text>
<text text-anchor="middle" x="557.5" y="-832" font-family="sans" font-size="10.00" fill="#000000">read_type_map: collapsed</text>
<text text-anchor="middle" x="557.5" y="-821" font-family="sans" font-size="10.00" fill="#000000">ref: refseq_mitochondrion</text>
<text text-anchor="middle" x="557.5" y="-810" font-family="sans" font-size="10.00" fill="#000000">sample: HD827sonic_1</text>
<text text-anchor="middle" x="557.5" y="-799" font-family="sans" font-size="10.00" fill="#000000">tot_shards: 1</text>
</g>
<!-- 6&#45;&gt;1 -->
<g id="edge12" class="edge">
<title>6&#45;&gt;1</title>
<path fill="none" stroke="#c0c0c0" stroke-width="2" d="M535.6918,-791.7122C520.7048,-758.3523 503.5,-710.3889 503.5,-666 503.5,-666 503.5,-666 503.5,-234 503.5,-178.9804 539.7498,-169.5065 588.5,-144 643.7145,-115.1112 828.5029,-98.5233 908.2924,-92.5547"/>
<polygon fill="#c0c0c0" stroke="#c0c0c0" stroke-width="2" points="908.666,-96.0368 918.3833,-91.8148 908.1541,-89.0555 908.666,-96.0368"/>
</g>
<!-- 14 -->
<g id="node15" class="node">
<title>14</title>
<path fill="none" stroke="#5692d8" stroke-width="2" d="M661.5,-756C661.5,-756 581.5,-756 581.5,-756 575.5,-756 569.5,-750 569.5,-744 569.5,-744 569.5,-732 569.5,-732 569.5,-726 575.5,-720 581.5,-720 581.5,-720 661.5,-720 661.5,-720 667.5,-720 673.5,-726 673.5,-732 673.5,-732 673.5,-744 673.5,-744 673.5,-750 667.5,-756 661.5,-756"/>
<text text-anchor="middle" x="621.5" y="-735.5" font-family="sans" font-size="10.00" fill="#000000">shard_clean_header</text>
</g>
<!-- 6&#45;&gt;14 -->
<g id="edge31" class="edge">
<title>6&#45;&gt;14</title>
<path fill="none" stroke="#c0c0c0" stroke-width="2" d="M585.7576,-791.8928C591.9211,-782.5994 598.2724,-773.0229 603.8798,-764.5679"/>
<polygon fill="#c0c0c0" stroke="#c0c0c0" stroke-width="2" points="606.8048,-766.4901 609.4151,-756.2218 600.9712,-762.6211 606.8048,-766.4901"/>
</g>
<!-- 7 -->
<g id="node8" class="node">
<title>7</title>
<path fill="none" stroke="#70d856" stroke-width="2" d="M790,-877C790,-877 683,-877 683,-877 677,-877 671,-871 671,-865 671,-865 671,-804 671,-804 671,-798 677,-792 683,-792 683,-792 790,-792 790,-792 796,-792 802,-798 802,-804 802,-804 802,-865 802,-865 802,-871 796,-877 790,-877"/>
<text text-anchor="middle" x="736.5" y="-865" font-family="sans" font-size="10.00" fill="#000000">bowtie2</text>
<text text-anchor="middle" x="736.5" y="-854" font-family="sans" font-size="10.00" fill="#000000">library: lib1</text>
<text text-anchor="middle" x="736.5" y="-843" font-family="sans" font-size="10.00" fill="#000000">n_shard: 1</text>
<text text-anchor="middle" x="736.5" y="-832" font-family="sans" font-size="10.00" fill="#000000">read_type_map: collapsed</text>
<text text-anchor="middle" x="736.5" y="-821" font-family="sans" font-size="10.00" fill="#000000">ref: wgs_eukaryota</text>
<text text-anchor="middle" x="736.5" y="-810" font-family="sans" font-size="10.00" fill="#000000">sample: HD827sonic_1</text>
<text text-anchor="middle" x="736.5" y="-799" font-family="sans" font-size="10.00" fill="#000000">tot_shards: 2</text>
</g>
<!-- 7&#45;&gt;1 -->
<g id="edge13" class="edge">
<title>7&#45;&gt;1</title>
<path fill="none" stroke="#c0c0c0" stroke-width="2" d="M670.5432,-806.7354C622.2139,-786.1269 564.3772,-760.7979 560.5,-756 534.8049,-724.2027 541.5,-706.8816 541.5,-666 541.5,-666 541.5,-666 541.5,-234 541.5,-156.5104 808.5476,-109.8374 908.4103,-95.093"/>
<polygon fill="#c0c0c0" stroke="#c0c0c0" stroke-width="2" points="908.9718,-98.5483 918.3651,-93.6477 907.9659,-91.6209 908.9718,-98.5483"/>
</g>
<!-- 16 -->
<g id="node17" class="node">
<title>16</title>
<path fill="none" stroke="#5692d8" stroke-width="2" d="M783.5,-756C783.5,-756 703.5,-756 703.5,-756 697.5,-756 691.5,-750 691.5,-744 691.5,-744 691.5,-732 691.5,-732 691.5,-726 697.5,-720 703.5,-720 703.5,-720 783.5,-720 783.5,-720 789.5,-720 795.5,-726 795.5,-732 795.5,-732 795.5,-744 795.5,-744 795.5,-750 789.5,-756 783.5,-756"/>
<text text-anchor="middle" x="743.5" y="-735.5" font-family="sans" font-size="10.00" fill="#000000">shard_clean_header</text>
</g>
<!-- 7&#45;&gt;16 -->
<g id="edge33" class="edge">
<title>7&#45;&gt;16</title>
<path fill="none" stroke="#c0c0c0" stroke-width="2" d="M739.5907,-791.8928C740.2151,-783.2842 740.8572,-774.4327 741.4359,-766.4546"/>
<polygon fill="#c0c0c0" stroke="#c0c0c0" stroke-width="2" points="744.9455,-766.4488 742.1782,-756.2218 737.9638,-765.9423 744.9455,-766.4488"/>
</g>
<!-- 8 -->
<g id="node9" class="node">
<title>8</title>
<path fill="none" stroke="#70d856" stroke-width="2" d="M1108,-877C1108,-877 1001,-877 1001,-877 995,-877 989,-871 989,-865 989,-865 989,-804 989,-804 989,-798 995,-792 1001,-792 1001,-792 1108,-792 1108,-792 1114,-792 1120,-798 1120,-804 1120,-804 1120,-865 1120,-865 1120,-871 1114,-877 1108,-877"/>
<text text-anchor="middle" x="1054.5" y="-865" font-family="sans" font-size="10.00" fill="#000000">bowtie2</text>
<text text-anchor="middle" x="1054.5" y="-854" font-family="sans" font-size="10.00" fill="#000000">library: lib2</text>
<text text-anchor="middle" x="1054.5" y="-843" font-family="sans" font-size="10.00" fill="#000000">n_shard: 2</text>
<text text-anchor="middle" x="1054.5" y="-832" font-family="sans" font-size="10.00" fill="#000000">read_type_map: collapsed</text>
<text text-anchor="middle" x="1054.5" y="-821" font-family="sans" font-size="10.00" fill="#000000">ref: wgs_eukaryota</text>
<text text-anchor="middle" x="1054.5" y="-810" font-family="sans" font-size="10.00" fill="#000000">sample: HD827sonic_2</text>
<text text-anchor="middle" x="1054.5" y="-799" font-family="sans" font-size="10.00" fill="#000000">tot_shards: 2</text>
</g>
<!-- 8&#45;&gt;1 -->
<g id="edge14" class="edge">
<title>8&#45;&gt;1</title>
<path fill="none" stroke="#c0c0c0" stroke-width="2" d="M1021.9932,-791.7259C1014.6982,-780.5574 1007.6144,-768.2138 1002.5,-756 986.7097,-718.2909 983.5,-706.8816 983.5,-666 983.5,-666 983.5,-666 983.5,-234 983.5,-192.3681 968.4672,-146.14 957.3119,-117.567"/>
<polygon fill="#c0c0c0" stroke="#c0c0c0" stroke-width="2" points="960.5368,-116.2055 953.5588,-108.2332 954.0422,-118.817 960.5368,-116.2055"/>
</g>
<!-- 34 -->
<g id="node35" class="node">
<title>34</title>
<path fill="none" stroke="#5692d8" stroke-width="2" d="M1103.5,-756C1103.5,-756 1023.5,-756 1023.5,-756 1017.5,-756 1011.5,-750 1011.5,-744 1011.5,-744 1011.5,-732 1011.5,-732 1011.5,-726 1017.5,-720 1023.5,-720 1023.5,-720 1103.5,-720 1103.5,-720 1109.5,-720 1115.5,-726 1115.5,-732 1115.5,-732 1115.5,-744 1115.5,-744 1115.5,-750 1109.5,-756 1103.5,-756"/>
<text text-anchor="middle" x="1063.5" y="-735.5" font-family="sans" font-size="10.00" fill="#000000">shard_clean_header</text>
</g>
<!-- 8&#45;&gt;34 -->
<g id="edge55" class="edge">
<title>8&#45;&gt;34</title>
<path fill="none" stroke="#c0c0c0" stroke-width="2" d="M1058.4737,-791.8928C1059.2857,-783.1864 1060.1209,-774.2315 1060.8715,-766.183"/>
<polygon fill="#c0c0c0" stroke="#c0c0c0" stroke-width="2" points="1064.3567,-766.5036 1061.8006,-756.2218 1057.387,-765.8535 1064.3567,-766.5036"/>
</g>
<!-- 9 -->
<g id="node10" class="node">
<title>9</title>
<path fill="none" stroke="#70d856" stroke-width="2" d="M454,-877C454,-877 347,-877 347,-877 341,-877 335,-871 335,-865 335,-865 335,-804 335,-804 335,-798 341,-792 347,-792 347,-792 454,-792 454,-792 460,-792 466,-798 466,-804 466,-804 466,-865 466,-865 466,-871 460,-877 454,-877"/>
<text text-anchor="middle" x="400.5" y="-865" font-family="sans" font-size="10.00" fill="#000000">bowtie2</text>
<text text-anchor="middle" x="400.5" y="-854" font-family="sans" font-size="10.00" fill="#000000">library: lib1</text>
<text text-anchor="middle" x="400.5" y="-843" font-family="sans" font-size="10.00" fill="#000000">n_shard: 1</text>
<text text-anchor="middle" x="400.5" y="-832" font-family="sans" font-size="10.00" fill="#000000">read_type_map: collapsed</text>
<text text-anchor="middle" x="400.5" y="-821" font-family="sans" font-size="10.00" fill="#000000">ref: refseq_mitochondrion</text>
<text text-anchor="middle" x="400.5" y="-810" font-family="sans" font-size="10.00" fill="#000000">sample: HD827sonic_2</text>
<text text-anchor="middle" x="400.5" y="-799" font-family="sans" font-size="10.00" fill="#000000">tot_shards: 1</text>
</g>
<!-- 9&#45;&gt;1 -->
<g id="edge15" class="edge">
<title>9&#45;&gt;1</title>
<path fill="none" stroke="#c0c0c0" stroke-width="2" d="M428.889,-791.7455C435.4287,-780.4762 441.8275,-768.0806 446.5,-756 461.2474,-717.871 465.5,-706.8816 465.5,-666 465.5,-666 465.5,-666 465.5,-234 465.5,-186.6526 482.5515,-169.4145 522.5,-144 586.2656,-103.4335 817.3691,-93.2261 908.3405,-90.7557"/>
<polygon fill="#c0c0c0" stroke="#c0c0c0" stroke-width="2" points="908.5607,-94.2513 918.4682,-90.4972 908.3821,-87.2536 908.5607,-94.2513"/>
</g>
<!-- 22 -->
<g id="node23" class="node">
<title>22</title>
<path fill="none" stroke="#5692d8" stroke-width="2" d="M425.5,-756C425.5,-756 345.5,-756 345.5,-756 339.5,-756 333.5,-750 333.5,-744 333.5,-744 333.5,-732 333.5,-732 333.5,-726 339.5,-720 345.5,-720 345.5,-720 425.5,-720 425.5,-720 431.5,-720 437.5,-726 437.5,-732 437.5,-732 437.5,-744 437.5,-744 437.5,-750 431.5,-756 425.5,-756"/>
<text text-anchor="middle" x="385.5" y="-735.5" font-family="sans" font-size="10.00" fill="#000000">shard_clean_header</text>
</g>
<!-- 9&#45;&gt;22 -->
<g id="edge41" class="edge">
<title>9&#45;&gt;22</title>
<path fill="none" stroke="#c0c0c0" stroke-width="2" d="M393.8771,-791.8928C392.5238,-783.1864 391.1318,-774.2315 389.8808,-766.183"/>
<polygon fill="#c0c0c0" stroke="#c0c0c0" stroke-width="2" points="393.3269,-765.5655 388.3324,-756.2218 386.41,-766.6407 393.3269,-765.5655"/>
</g>
<!-- 10 -->
<g id="node11" class="node">
<title>10</title>
<path fill="none" stroke="#70d856" stroke-width="2" d="M1258,-877C1258,-877 1151,-877 1151,-877 1145,-877 1139,-871 1139,-865 1139,-865 1139,-804 1139,-804 1139,-798 1145,-792 1151,-792 1151,-792 1258,-792 1258,-792 1264,-792 1270,-798 1270,-804 1270,-804 1270,-865 1270,-865 1270,-871 1264,-877 1258,-877"/>
<text text-anchor="middle" x="1204.5" y="-865" font-family="sans" font-size="10.00" fill="#000000">bowtie2</text>
<text text-anchor="middle" x="1204.5" y="-854" font-family="sans" font-size="10.00" fill="#000000">library: lib2</text>
<text text-anchor="middle" x="1204.5" y="-843" font-family="sans" font-size="10.00" fill="#000000">n_shard: 1</text>
<text text-anchor="middle" x="1204.5" y="-832" font-family="sans" font-size="10.00" fill="#000000">read_type_map: collapsed</text>
<text text-anchor="middle" x="1204.5" y="-821" font-family="sans" font-size="10.00" fill="#000000">ref: wgs_eukaryota</text>
<text text-anchor="middle" x="1204.5" y="-810" font-family="sans" font-size="10.00" fill="#000000">sample: HD827sonic_2</text>
<text text-anchor="middle" x="1204.5" y="-799" font-family="sans" font-size="10.00" fill="#000000">tot_shards: 2</text>
</g>
<!-- 10&#45;&gt;1 -->
<g id="edge16" class="edge">
<title>10&#45;&gt;1</title>
<path fill="none" stroke="#c0c0c0" stroke-width="2" d="M1179.7099,-791.6002C1173.6508,-780.229 1167.4837,-767.8213 1162.5,-756 1129.9009,-678.6755 1071.3538,-476.7433 1048.5,-396 1017.0588,-284.9169 1034.8054,-248.3886 985.5,-144 980.9408,-134.3474 974.5307,-124.6963 968.1753,-116.2789"/>
<polygon fill="#c0c0c0" stroke="#c0c0c0" stroke-width="2" points="970.8442,-114.0108 961.9086,-108.3183 965.344,-118.3407 970.8442,-114.0108"/>
</g>
<!-- 32 -->
<g id="node33" class="node">
<title>32</title>
<path fill="none" stroke="#5692d8" stroke-width="2" d="M1263.5,-756C1263.5,-756 1183.5,-756 1183.5,-756 1177.5,-756 1171.5,-750 1171.5,-744 1171.5,-744 1171.5,-732 1171.5,-732 1171.5,-726 1177.5,-720 1183.5,-720 1183.5,-720 1263.5,-720 1263.5,-720 1269.5,-720 1275.5,-726 1275.5,-732 1275.5,-732 1275.5,-744 1275.5,-744 1275.5,-750 1269.5,-756 1263.5,-756"/>
<text text-anchor="middle" x="1223.5" y="-735.5" font-family="sans" font-size="10.00" fill="#000000">shard_clean_header</text>
</g>
<!-- 10&#45;&gt;32 -->
<g id="edge53" class="edge">
<title>10&#45;&gt;32</title>
<path fill="none" stroke="#c0c0c0" stroke-width="2" d="M1212.889,-791.8928C1214.6032,-783.1864 1216.3663,-774.2315 1217.951,-766.183"/>
<polygon fill="#c0c0c0" stroke="#c0c0c0" stroke-width="2" points="1221.4145,-766.7096 1219.9123,-756.2218 1214.5463,-765.3573 1221.4145,-766.7096"/>
</g>
<!-- 11 -->
<g id="node12" class="node">
<title>11</title>
<path fill="none" stroke="#afd856" stroke-width="2" d="M863.5,-252C863.5,-252 823.5,-252 823.5,-252 817.5,-252 811.5,-246 811.5,-240 811.5,-240 811.5,-228 811.5,-228 811.5,-222 817.5,-216 823.5,-216 823.5,-216 863.5,-216 863.5,-216 869.5,-216 875.5,-222 875.5,-228 875.5,-228 875.5,-240 875.5,-240 875.5,-246 869.5,-252 863.5,-252"/>
<text text-anchor="middle" x="843.5" y="-231.5" font-family="sans" font-size="10.00" fill="#000000">align_stats</text>
</g>
<!-- 11&#45;&gt;1 -->
<g id="edge17" class="edge">
<title>11&#45;&gt;1</title>
<path fill="none" stroke="#c0c0c0" stroke-width="2" d="M856.4184,-215.7623C874.1991,-190.66 906.328,-145.3017 926.7525,-116.4671"/>
<polygon fill="#c0c0c0" stroke="#c0c0c0" stroke-width="2" points="929.7624,-118.273 932.6865,-108.0896 924.0502,-114.2268 929.7624,-118.273"/>
</g>
<!-- 12 -->
<g id="node13" class="node">
<title>12</title>
<path fill="none" stroke="#d88d56" stroke-width="2" d="M824,-612C824,-612 779,-612 779,-612 773,-612 767,-606 767,-600 767,-600 767,-588 767,-588 767,-582 773,-576 779,-576 779,-576 824,-576 824,-576 830,-576 836,-582 836,-588 836,-588 836,-600 836,-600 836,-606 830,-612 824,-612"/>
<text text-anchor="middle" x="801.5" y="-591.5" font-family="sans" font-size="10.00" fill="#000000">align_merge</text>
</g>
<!-- 12&#45;&gt;11 -->
<g id="edge26" class="edge">
<title>12&#45;&gt;11</title>
<path fill="none" stroke="#c0c0c0" stroke-width="2" d="M801.5,-575.8146C801.5,-548.4983 801.5,-495.25 801.5,-450 801.5,-450 801.5,-450 801.5,-378 801.5,-336.0688 818.1152,-289.918 830.4448,-261.4435"/>
<polygon fill="#c0c0c0" stroke="#c0c0c0" stroke-width="2" points="833.7152,-262.7032 834.5929,-252.1447 827.3225,-259.8513 833.7152,-262.7032"/>
</g>
<!-- 39 -->
<g id="node40" class="node">
<title>39</title>
<path fill="none" stroke="#d8cb56" stroke-width="2" d="M905.5,-540C905.5,-540 841.5,-540 841.5,-540 835.5,-540 829.5,-534 829.5,-528 829.5,-528 829.5,-516 829.5,-516 829.5,-510 835.5,-504 841.5,-504 841.5,-504 905.5,-504 905.5,-504 911.5,-504 917.5,-510 917.5,-516 917.5,-516 917.5,-528 917.5,-528 917.5,-534 911.5,-540 905.5,-540"/>
<text text-anchor="middle" x="873.5" y="-519.5" font-family="sans" font-size="10.00" fill="#000000">align_sort_coord</text>
</g>
<!-- 12&#45;&gt;39 -->
<g id="edge60" class="edge">
<title>12&#45;&gt;39</title>
<path fill="none" stroke="#c0c0c0" stroke-width="2" d="M819.6686,-575.8314C828.2152,-567.2848 838.5557,-556.9443 847.8802,-547.6198"/>
<polygon fill="#c0c0c0" stroke="#c0c0c0" stroke-width="2" points="850.4905,-549.9592 855.0867,-540.4133 845.5408,-545.0095 850.4905,-549.9592"/>
</g>
<!-- 13 -->
<g id="node14" class="node">
<title>13</title>
<path fill="none" stroke="#5673d8" stroke-width="2" d="M664.5,-684C664.5,-684 596.5,-684 596.5,-684 590.5,-684 584.5,-678 584.5,-672 584.5,-672 584.5,-660 584.5,-660 584.5,-654 590.5,-648 596.5,-648 596.5,-648 664.5,-648 664.5,-648 670.5,-648 676.5,-654 676.5,-660 676.5,-660 676.5,-672 676.5,-672 676.5,-678 670.5,-684 664.5,-684"/>
<text text-anchor="middle" x="630.5" y="-663.5" font-family="sans" font-size="10.00" fill="#000000">shard_sort_query</text>
</g>
<!-- 13&#45;&gt;12 -->
<g id="edge27" class="edge">
<title>13&#45;&gt;12</title>
<path fill="none" stroke="#c0c0c0" stroke-width="2" d="M673.6505,-647.8314C699.2683,-637.0449 731.672,-623.4012 757.4469,-612.5487"/>
<polygon fill="#c0c0c0" stroke="#c0c0c0" stroke-width="2" points="759.1146,-615.6441 766.9728,-608.5378 756.3982,-609.1927 759.1146,-615.6441"/>
</g>
<!-- 14&#45;&gt;13 -->
<g id="edge30" class="edge">
<title>14&#45;&gt;13</title>
<path fill="none" stroke="#c0c0c0" stroke-width="2" d="M623.7711,-719.8314C624.7336,-712.131 625.8782,-702.9743 626.9479,-694.4166"/>
<polygon fill="#c0c0c0" stroke="#c0c0c0" stroke-width="2" points="630.4309,-694.7702 628.1983,-684.4133 623.4849,-693.9019 630.4309,-694.7702"/>
</g>
<!-- 15 -->
<g id="node16" class="node">
<title>15</title>
<path fill="none" stroke="#5673d8" stroke-width="2" d="M780.5,-684C780.5,-684 712.5,-684 712.5,-684 706.5,-684 700.5,-678 700.5,-672 700.5,-672 700.5,-660 700.5,-660 700.5,-654 706.5,-648 712.5,-648 712.5,-648 780.5,-648 780.5,-648 786.5,-648 792.5,-654 792.5,-660 792.5,-660 792.5,-672 792.5,-672 792.5,-678 786.5,-684 780.5,-684"/>
<text text-anchor="middle" x="746.5" y="-663.5" font-family="sans" font-size="10.00" fill="#000000">shard_sort_query</text>
</g>
<!-- 15&#45;&gt;12 -->
<g id="edge28" class="edge">
<title>15&#45;&gt;12</title>
<path fill="none" stroke="#c0c0c0" stroke-width="2" d="M760.3788,-647.8314C766.7136,-639.5386 774.3384,-629.557 781.2926,-620.4533"/>
<polygon fill="#c0c0c0" stroke="#c0c0c0" stroke-width="2" points="784.1452,-622.4847 787.4343,-612.4133 778.5825,-618.2353 784.1452,-622.4847"/>
</g>
<!-- 16&#45;&gt;15 -->
<g id="edge32" class="edge">
<title>16&#45;&gt;15</title>
<path fill="none" stroke="#c0c0c0" stroke-width="2" d="M744.257,-719.8314C744.5779,-712.131 744.9594,-702.9743 745.316,-694.4166"/>
<polygon fill="#c0c0c0" stroke="#c0c0c0" stroke-width="2" points="748.8133,-694.5503 745.7328,-684.4133 741.8194,-694.2589 748.8133,-694.5503"/>
</g>
<!-- 17 -->
<g id="node18" class="node">
<title>17</title>
<path fill="none" stroke="#5673d8" stroke-width="2" d="M893.5,-684C893.5,-684 825.5,-684 825.5,-684 819.5,-684 813.5,-678 813.5,-672 813.5,-672 813.5,-660 813.5,-660 813.5,-654 819.5,-648 825.5,-648 825.5,-648 893.5,-648 893.5,-648 899.5,-648 905.5,-654 905.5,-660 905.5,-660 905.5,-672 905.5,-672 905.5,-678 899.5,-684 893.5,-684"/>
<text text-anchor="middle" x="859.5" y="-663.5" font-family="sans" font-size="10.00" fill="#000000">shard_sort_query</text>
</g>
<!-- 17&#45;&gt;12 -->
<g id="edge29" class="edge">
<title>17&#45;&gt;12</title>
<path fill="none" stroke="#c0c0c0" stroke-width="2" d="M844.8642,-647.8314C838.1839,-639.5386 830.1432,-629.557 822.8096,-620.4533"/>
<polygon fill="#c0c0c0" stroke="#c0c0c0" stroke-width="2" points="825.3319,-618.0052 816.3329,-612.4133 819.8806,-622.3965 825.3319,-618.0052"/>
</g>
<!-- 18&#45;&gt;17 -->
<g id="edge34" class="edge">
<title>18&#45;&gt;17</title>
<path fill="none" stroke="#c0c0c0" stroke-width="2" d="M863.9859,-719.8314C863.3442,-712.131 862.5812,-702.9743 861.8681,-694.4166"/>
<polygon fill="#c0c0c0" stroke="#c0c0c0" stroke-width="2" points="865.3529,-694.088 861.0344,-684.4133 858.3771,-694.6694 865.3529,-694.088"/>
</g>
<!-- 19 -->
<g id="node20" class="node">
<title>19</title>
<path fill="none" stroke="#afd856" stroke-width="2" d="M354.5,-468C354.5,-468 314.5,-468 314.5,-468 308.5,-468 302.5,-462 302.5,-456 302.5,-456 302.5,-444 302.5,-444 302.5,-438 308.5,-432 314.5,-432 314.5,-432 354.5,-432 354.5,-432 360.5,-432 366.5,-438 366.5,-444 366.5,-444 366.5,-456 366.5,-456 366.5,-462 360.5,-468 354.5,-468"/>
<text text-anchor="middle" x="334.5" y="-447.5" font-family="sans" font-size="10.00" fill="#000000">align_stats</text>
</g>
<!-- 19&#45;&gt;1 -->
<g id="edge18" class="edge">
<title>19&#45;&gt;1</title>
<path fill="none" stroke="#c0c0c0" stroke-width="2" d="M342.3467,-431.746C353.2078,-404.7781 371.5,-352.4617 371.5,-306 371.5,-306 371.5,-306 371.5,-234 371.5,-192.6022 363.945,-170.7966 395.5,-144 415.089,-127.365 787.2359,-100.7439 908.0044,-92.5094"/>
<polygon fill="#c0c0c0" stroke="#c0c0c0" stroke-width="2" points="908.4957,-95.9842 918.2356,-91.8148 908.0215,-89.0002 908.4957,-95.9842"/>
</g>
<!-- 20 -->
<g id="node21" class="node">
<title>20</title>
<path fill="none" stroke="#d88d56" stroke-width="2" d="M252,-612C252,-612 207,-612 207,-612 201,-612 195,-606 195,-600 195,-600 195,-588 195,-588 195,-582 201,-576 207,-576 207,-576 252,-576 252,-576 258,-576 264,-582 264,-588 264,-588 264,-600 264,-600 264,-606 258,-612 252,-612"/>
<text text-anchor="middle" x="229.5" y="-591.5" font-family="sans" font-size="10.00" fill="#000000">align_merge</text>
</g>
<!-- 20&#45;&gt;19 -->
<g id="edge36" class="edge">
<title>20&#45;&gt;19</title>
<path fill="none" stroke="#c0c0c0" stroke-width="2" d="M249.6343,-575.8342C260.105,-565.8311 272.722,-552.8627 282.5,-540 297.5655,-520.1818 311.4943,-495.5876 321.1367,-477.1199"/>
<polygon fill="#c0c0c0" stroke="#c0c0c0" stroke-width="2" points="324.3242,-478.5741 325.7716,-468.0786 318.0951,-475.3808 324.3242,-478.5741"/>
</g>
<!-- 44 -->
<g id="node45" class="node">
<title>44</title>
<path fill="none" stroke="#d8cb56" stroke-width="2" d="M261.5,-540C261.5,-540 197.5,-540 197.5,-540 191.5,-540 185.5,-534 185.5,-528 185.5,-528 185.5,-516 185.5,-516 185.5,-510 191.5,-504 197.5,-504 197.5,-504 261.5,-504 261.5,-504 267.5,-504 273.5,-510 273.5,-516 273.5,-516 273.5,-528 273.5,-528 273.5,-534 267.5,-540 261.5,-540"/>
<text text-anchor="middle" x="229.5" y="-519.5" font-family="sans" font-size="10.00" fill="#000000">align_sort_coord</text>
</g>
<!-- 20&#45;&gt;44 -->
<g id="edge65" class="edge">
<title>20&#45;&gt;44</title>
<path fill="none" stroke="#c0c0c0" stroke-width="2" d="M229.5,-575.8314C229.5,-568.131 229.5,-558.9743 229.5,-550.4166"/>
<polygon fill="#c0c0c0" stroke="#c0c0c0" stroke-width="2" points="233.0001,-550.4132 229.5,-540.4133 226.0001,-550.4133 233.0001,-550.4132"/>
</g>
<!-- 21 -->
<g id="node22" class="node">
<title>21</title>
<path fill="none" stroke="#5673d8" stroke-width="2" d="M369.5,-684C369.5,-684 301.5,-684 301.5,-684 295.5,-684 289.5,-678 289.5,-672 289.5,-672 289.5,-660 289.5,-660 289.5,-654 295.5,-648 301.5,-648 301.5,-648 369.5,-648 369.5,-648 375.5,-648 381.5,-654 381.5,-660 381.5,-660 381.5,-672 381.5,-672 381.5,-678 375.5,-684 369.5,-684"/>
<text text-anchor="middle" x="335.5" y="-663.5" font-family="sans" font-size="10.00" fill="#000000">shard_sort_query</text>
</g>
<!-- 21&#45;&gt;20 -->
<g id="edge37" class="edge">
<title>21&#45;&gt;20</title>
<path fill="none" stroke="#c0c0c0" stroke-width="2" d="M308.7517,-647.8314C295.4447,-638.7927 279.184,-627.7476 264.8625,-618.0198"/>
<polygon fill="#c0c0c0" stroke="#c0c0c0" stroke-width="2" points="266.4785,-614.8864 256.2397,-612.1628 262.5453,-620.677 266.4785,-614.8864"/>
</g>
<!-- 22&#45;&gt;21 -->
<g id="edge40" class="edge">
<title>22&#45;&gt;21</title>
<path fill="none" stroke="#c0c0c0" stroke-width="2" d="M372.8829,-719.8314C367.1828,-711.6232 360.3337,-701.7606 354.0641,-692.7323"/>
<polygon fill="#c0c0c0" stroke="#c0c0c0" stroke-width="2" points="356.8658,-690.6306 348.287,-684.4133 351.1162,-694.6234 356.8658,-690.6306"/>
</g>
<!-- 23 -->
<g id="node24" class="node">
<title>23</title>
<path fill="none" stroke="#5673d8" stroke-width="2" d="M143.5,-684C143.5,-684 75.5,-684 75.5,-684 69.5,-684 63.5,-678 63.5,-672 63.5,-672 63.5,-660 63.5,-660 63.5,-654 69.5,-648 75.5,-648 75.5,-648 143.5,-648 143.5,-648 149.5,-648 155.5,-654 155.5,-660 155.5,-660 155.5,-672 155.5,-672 155.5,-678 149.5,-684 143.5,-684"/>
<text text-anchor="middle" x="109.5" y="-663.5" font-family="sans" font-size="10.00" fill="#000000">shard_sort_query</text>
</g>
<!-- 23&#45;&gt;20 -->
<g id="edge38" class="edge">
<title>23&#45;&gt;20</title>
<path fill="none" stroke="#c0c0c0" stroke-width="2" d="M139.7811,-647.8314C155.1298,-638.6221 173.9498,-627.3301 190.3823,-617.4706"/>
<polygon fill="#c0c0c0" stroke="#c0c0c0" stroke-width="2" points="192.4544,-620.3091 199.2286,-612.1628 188.8529,-614.3066 192.4544,-620.3091"/>
</g>
<!-- 24&#45;&gt;23 -->
<g id="edge42" class="edge">
<title>24&#45;&gt;23</title>
<path fill="none" stroke="#c0c0c0" stroke-width="2" d="M105.0141,-719.8314C105.6558,-712.131 106.4188,-702.9743 107.1319,-694.4166"/>
<polygon fill="#c0c0c0" stroke="#c0c0c0" stroke-width="2" points="110.6229,-694.6694 107.9656,-684.4133 103.6471,-694.088 110.6229,-694.6694"/>
</g>
<!-- 25 -->
<g id="node26" class="node">
<title>25</title>
<path fill="none" stroke="#5673d8" stroke-width="2" d="M259.5,-684C259.5,-684 191.5,-684 191.5,-684 185.5,-684 179.5,-678 179.5,-672 179.5,-672 179.5,-660 179.5,-660 179.5,-654 185.5,-648 191.5,-648 191.5,-648 259.5,-648 259.5,-648 265.5,-648 271.5,-654 271.5,-660 271.5,-660 271.5,-672 271.5,-672 271.5,-678 265.5,-684 259.5,-684"/>
<text text-anchor="middle" x="225.5" y="-663.5" font-family="sans" font-size="10.00" fill="#000000">shard_sort_query</text>
</g>
<!-- 25&#45;&gt;20 -->
<g id="edge39" class="edge">
<title>25&#45;&gt;20</title>
<path fill="none" stroke="#c0c0c0" stroke-width="2" d="M226.5094,-647.8314C226.9372,-640.131 227.4459,-630.9743 227.9213,-622.4166"/>
<polygon fill="#c0c0c0" stroke="#c0c0c0" stroke-width="2" points="231.4169,-622.592 228.477,-612.4133 224.4276,-622.2037 231.4169,-622.592"/>
</g>
<!-- 26&#45;&gt;25 -->
<g id="edge44" class="edge">
<title>26&#45;&gt;25</title>
<path fill="none" stroke="#c0c0c0" stroke-width="2" d="M225.5,-719.8314C225.5,-712.131 225.5,-702.9743 225.5,-694.4166"/>
<polygon fill="#c0c0c0" stroke="#c0c0c0" stroke-width="2" points="229.0001,-694.4132 225.5,-684.4133 222.0001,-694.4133 229.0001,-694.4132"/>
</g>
<!-- 27 -->
<g id="node28" class="node">
<title>27</title>
<path fill="none" stroke="#afd856" stroke-width="2" d="M1109.5,-396C1109.5,-396 1069.5,-396 1069.5,-396 1063.5,-396 1057.5,-390 1057.5,-384 1057.5,-384 1057.5,-372 1057.5,-372 1057.5,-366 1063.5,-360 1069.5,-360 1069.5,-360 1109.5,-360 1109.5,-360 1115.5,-360 1121.5,-366 1121.5,-372 1121.5,-372 1121.5,-384 1121.5,-384 1121.5,-390 1115.5,-396 1109.5,-396"/>
<text text-anchor="middle" x="1089.5" y="-375.5" font-family="sans" font-size="10.00" fill="#000000">align_stats</text>
</g>
<!-- 27&#45;&gt;1 -->
<g id="edge19" class="edge">
<title>27&#45;&gt;1</title>
<path fill="none" stroke="#c0c0c0" stroke-width="2" d="M1087.1586,-359.7533C1080.6146,-310.992 1060.9348,-178.9881 1035.5,-144 1022.2095,-125.7176 1000.6683,-112.4742 981.9924,-103.6789"/>
<polygon fill="#c0c0c0" stroke="#c0c0c0" stroke-width="2" points="983.3846,-100.4676 972.8254,-99.5991 980.5383,-106.8628 983.3846,-100.4676"/>
</g>
<!-- 28 -->
<g id="node29" class="node">
<title>28</title>
<path fill="none" stroke="#d88d56" stroke-width="2" d="M1246,-612C1246,-612 1201,-612 1201,-612 1195,-612 1189,-606 1189,-600 1189,-600 1189,-588 1189,-588 1189,-582 1195,-576 1201,-576 1201,-576 1246,-576 1246,-576 1252,-576 1258,-582 1258,-588 1258,-588 1258,-600 1258,-600 1258,-606 1252,-612 1246,-612"/>
<text text-anchor="middle" x="1223.5" y="-591.5" font-family="sans" font-size="10.00" fill="#000000">align_merge</text>
</g>
<!-- 28&#45;&gt;27 -->
<g id="edge46" class="edge">
<title>28&#45;&gt;27</title>
<path fill="none" stroke="#c0c0c0" stroke-width="2" d="M1212.3057,-575.9555C1188.708,-537.9173 1133.7591,-449.3431 1106.0718,-404.7127"/>
<polygon fill="#c0c0c0" stroke="#c0c0c0" stroke-width="2" points="1109.0025,-402.7976 1100.7567,-396.1451 1103.0542,-406.4878 1109.0025,-402.7976"/>
</g>
<!-- 49 -->
<g id="node50" class="node">
<title>49</title>
<path fill="none" stroke="#d8cb56" stroke-width="2" d="M1283.5,-540C1283.5,-540 1219.5,-540 1219.5,-540 1213.5,-540 1207.5,-534 1207.5,-528 1207.5,-528 1207.5,-516 1207.5,-516 1207.5,-510 1213.5,-504 1219.5,-504 1219.5,-504 1283.5,-504 1283.5,-504 1289.5,-504 1295.5,-510 1295.5,-516 1295.5,-516 1295.5,-528 1295.5,-528 1295.5,-534 1289.5,-540 1283.5,-540"/>
<text text-anchor="middle" x="1251.5" y="-519.5" font-family="sans" font-size="10.00" fill="#000000">align_sort_coord</text>
</g>
<!-- 28&#45;&gt;49 -->
<g id="edge70" class="edge">
<title>28&#45;&gt;49</title>
<path fill="none" stroke="#c0c0c0" stroke-width="2" d="M1230.5656,-575.8314C1233.626,-567.9617 1237.2779,-558.5712 1240.6682,-549.8533"/>
<polygon fill="#c0c0c0" stroke="#c0c0c0" stroke-width="2" points="1243.9768,-551.0019 1244.3393,-540.4133 1237.4527,-548.4647 1243.9768,-551.0019"/>
</g>
<!-- 29 -->
<g id="node30" class="node">
<title>29</title>
<path fill="none" stroke="#5673d8" stroke-width="2" d="M1373.5,-684C1373.5,-684 1305.5,-684 1305.5,-684 1299.5,-684 1293.5,-678 1293.5,-672 1293.5,-672 1293.5,-660 1293.5,-660 1293.5,-654 1299.5,-648 1305.5,-648 1305.5,-648 1373.5,-648 1373.5,-648 1379.5,-648 1385.5,-654 1385.5,-660 1385.5,-660 1385.5,-672 1385.5,-672 1385.5,-678 1379.5,-684 1373.5,-684"/>
<text text-anchor="middle" x="1339.5" y="-663.5" font-family="sans" font-size="10.00" fill="#000000">shard_sort_query</text>
</g>
<!-- 29&#45;&gt;28 -->
<g id="edge47" class="edge">
<title>29&#45;&gt;28</title>
<path fill="none" stroke="#c0c0c0" stroke-width="2" d="M1310.2283,-647.8314C1295.3912,-638.6221 1277.1985,-627.3301 1261.3138,-617.4706"/>
<polygon fill="#c0c0c0" stroke="#c0c0c0" stroke-width="2" points="1263.1045,-614.4628 1252.7623,-612.1628 1259.413,-620.4102 1263.1045,-614.4628"/>
</g>
<!-- 30&#45;&gt;29 -->
<g id="edge50" class="edge">
<title>30&#45;&gt;29</title>
<path fill="none" stroke="#c0c0c0" stroke-width="2" d="M1343.9859,-719.8314C1343.3442,-712.131 1342.5812,-702.9743 1341.8681,-694.4166"/>
<polygon fill="#c0c0c0" stroke="#c0c0c0" stroke-width="2" points="1345.3529,-694.088 1341.0344,-684.4133 1338.3771,-694.6694 1345.3529,-694.088"/>
</g>
<!-- 31 -->
<g id="node32" class="node">
<title>31</title>
<path fill="none" stroke="#5673d8" stroke-width="2" d="M1257.5,-684C1257.5,-684 1189.5,-684 1189.5,-684 1183.5,-684 1177.5,-678 1177.5,-672 1177.5,-672 1177.5,-660 1177.5,-660 1177.5,-654 1183.5,-648 1189.5,-648 1189.5,-648 1257.5,-648 1257.5,-648 1263.5,-648 1269.5,-654 1269.5,-660 1269.5,-660 1269.5,-672 1269.5,-672 1269.5,-678 1263.5,-684 1257.5,-684"/>
<text text-anchor="middle" x="1223.5" y="-663.5" font-family="sans" font-size="10.00" fill="#000000">shard_sort_query</text>
</g>
<!-- 31&#45;&gt;28 -->
<g id="edge48" class="edge">
<title>31&#45;&gt;28</title>
<path fill="none" stroke="#c0c0c0" stroke-width="2" d="M1223.5,-647.8314C1223.5,-640.131 1223.5,-630.9743 1223.5,-622.4166"/>
<polygon fill="#c0c0c0" stroke="#c0c0c0" stroke-width="2" points="1227.0001,-622.4132 1223.5,-612.4133 1220.0001,-622.4133 1227.0001,-622.4132"/>
</g>
<!-- 32&#45;&gt;31 -->
<g id="edge52" class="edge">
<title>32&#45;&gt;31</title>
<path fill="none" stroke="#c0c0c0" stroke-width="2" d="M1223.5,-719.8314C1223.5,-712.131 1223.5,-702.9743 1223.5,-694.4166"/>
<polygon fill="#c0c0c0" stroke="#c0c0c0" stroke-width="2" points="1227.0001,-694.4132 1223.5,-684.4133 1220.0001,-694.4133 1227.0001,-694.4132"/>
</g>
<!-- 33 -->
<g id="node34" class="node">
<title>33</title>
<path fill="none" stroke="#5673d8" stroke-width="2" d="M1099.5,-684C1099.5,-684 1031.5,-684 1031.5,-684 1025.5,-684 1019.5,-678 1019.5,-672 1019.5,-672 1019.5,-660 1019.5,-660 1019.5,-654 1025.5,-648 1031.5,-648 1031.5,-648 1099.5,-648 1099.5,-648 1105.5,-648 1111.5,-654 1111.5,-660 1111.5,-660 1111.5,-672 1111.5,-672 1111.5,-678 1105.5,-684 1099.5,-684"/>
<text text-anchor="middle" x="1065.5" y="-663.5" font-family="sans" font-size="10.00" fill="#000000">shard_sort_query</text>
</g>
<!-- 33&#45;&gt;28 -->
<g id="edge49" class="edge">
<title>33&#45;&gt;28</title>
<path fill="none" stroke="#c0c0c0" stroke-width="2" d="M1105.3701,-647.8314C1127.9479,-637.5427 1156.2305,-624.6545 1179.4608,-614.0685"/>
<polygon fill="#c0c0c0" stroke="#c0c0c0" stroke-width="2" points="1181.0985,-617.1686 1188.7468,-609.8369 1178.1957,-610.7988 1181.0985,-617.1686"/>
</g>
<!-- 34&#45;&gt;33 -->
<g id="edge54" class="edge">
<title>34&#45;&gt;33</title>
<path fill="none" stroke="#c0c0c0" stroke-width="2" d="M1064.0047,-719.8314C1064.2186,-712.131 1064.4729,-702.9743 1064.7106,-694.4166"/>
<polygon fill="#c0c0c0" stroke="#c0c0c0" stroke-width="2" points="1068.2094,-694.5066 1064.9885,-684.4133 1061.2121,-694.3122 1068.2094,-694.5066"/>
</g>
<!-- 35 -->
<g id="node36" class="node">
<title>35</title>
<path fill="none" stroke="#56d8c9" stroke-width="2" d="M1151.5,-252C1151.5,-252 1099.5,-252 1099.5,-252 1093.5,-252 1087.5,-246 1087.5,-240 1087.5,-240 1087.5,-228 1087.5,-228 1087.5,-222 1093.5,-216 1099.5,-216 1099.5,-216 1151.5,-216 1151.5,-216 1157.5,-216 1163.5,-222 1163.5,-228 1163.5,-228 1163.5,-240 1163.5,-240 1163.5,-246 1157.5,-252 1151.5,-252"/>
<text text-anchor="middle" x="1125.5" y="-231.5" font-family="sans" font-size="10.00" fill="#000000">metadmg_dfit</text>
</g>
<!-- 35&#45;&gt;1 -->
<g id="edge20" class="edge">
<title>35&#45;&gt;1</title>
<path fill="none" stroke="#c0c0c0" stroke-width="2" d="M1119.0661,-215.7997C1111.157,-195.7789 1095.9605,-163.8208 1073.5,-144 1047.408,-120.9745 1010.0685,-106.7505 982.4476,-98.7209"/>
<polygon fill="#c0c0c0" stroke="#c0c0c0" stroke-width="2" points="983.3212,-95.3312 972.75,-96.0381 981.4547,-102.0778 983.3212,-95.3312"/>
</g>
<!-- 50 -->
<g id="node51" class="node">
<title>50</title>
<path fill="none" stroke="#56d892" stroke-width="2" d="M1219,-180C1219,-180 1138,-180 1138,-180 1132,-180 1126,-174 1126,-168 1126,-168 1126,-156 1126,-156 1126,-150 1132,-144 1138,-144 1138,-144 1219,-144 1219,-144 1225,-144 1231,-150 1231,-156 1231,-156 1231,-168 1231,-168 1231,-174 1225,-180 1219,-180"/>
<text text-anchor="middle" x="1178.5" y="-159.5" font-family="sans" font-size="10.00" fill="#000000">metadmg_aggregate</text>
</g>
<!-- 35&#45;&gt;50 -->
<g id="edge72" class="edge">
<title>35&#45;&gt;50</title>
<path fill="none" stroke="#c0c0c0" stroke-width="2" d="M1138.8741,-215.8314C1144.9162,-207.6232 1152.1763,-197.7606 1158.8221,-188.7323"/>
<polygon fill="#c0c0c0" stroke="#c0c0c0" stroke-width="2" points="1161.8363,-190.5415 1164.9458,-180.4133 1156.1989,-186.3918 1161.8363,-190.5415"/>
</g>
<!-- 36 -->
<g id="node37" class="node">
<title>36</title>
<path fill="none" stroke="#56c9d8" stroke-width="2" d="M1214,-324C1214,-324 1163,-324 1163,-324 1157,-324 1151,-318 1151,-312 1151,-312 1151,-300 1151,-300 1151,-294 1157,-288 1163,-288 1163,-288 1214,-288 1214,-288 1220,-288 1226,-294 1226,-300 1226,-300 1226,-312 1226,-312 1226,-318 1220,-324 1214,-324"/>
<text text-anchor="middle" x="1188.5" y="-303.5" font-family="sans" font-size="10.00" fill="#000000">metadmg_lca</text>
</g>
<!-- 36&#45;&gt;35 -->
<g id="edge56" class="edge">
<title>36&#45;&gt;35</title>
<path fill="none" stroke="#c0c0c0" stroke-width="2" d="M1172.6024,-287.8314C1165.2722,-279.454 1156.434,-269.3531 1148.4031,-260.1749"/>
<polygon fill="#c0c0c0" stroke="#c0c0c0" stroke-width="2" points="1150.8307,-257.6343 1141.6116,-252.4133 1145.5627,-262.2438 1150.8307,-257.6343"/>
</g>
<!-- 36&#45;&gt;50 -->
<g id="edge71" class="edge">
<title>36&#45;&gt;50</title>
<path fill="none" stroke="#c0c0c0" stroke-width="2" d="M1187.2335,-287.7623C1185.5279,-263.201 1182.4755,-219.2474 1180.469,-190.3541"/>
<polygon fill="#c0c0c0" stroke="#c0c0c0" stroke-width="2" points="1183.9407,-189.8231 1179.7562,-180.0896 1176.9575,-190.3081 1183.9407,-189.8231"/>
</g>
<!-- 37 -->
<g id="node38" class="node">
<title>37</title>
<path fill="none" stroke="#c6d856" stroke-width="2" d="M1220.5,-396C1220.5,-396 1156.5,-396 1156.5,-396 1150.5,-396 1144.5,-390 1144.5,-384 1144.5,-384 1144.5,-372 1144.5,-372 1144.5,-366 1150.5,-360 1156.5,-360 1156.5,-360 1220.5,-360 1220.5,-360 1226.5,-360 1232.5,-366 1232.5,-372 1232.5,-372 1232.5,-384 1232.5,-384 1232.5,-390 1226.5,-396 1220.5,-396"/>
<text text-anchor="middle" x="1188.5" y="-375.5" font-family="sans" font-size="10.00" fill="#000000">align_sort_query</text>
</g>
<!-- 37&#45;&gt;36 -->
<g id="edge57" class="edge">
<title>37&#45;&gt;36</title>
<path fill="none" stroke="#c0c0c0" stroke-width="2" d="M1188.5,-359.8314C1188.5,-352.131 1188.5,-342.9743 1188.5,-334.4166"/>
<polygon fill="#c0c0c0" stroke="#c0c0c0" stroke-width="2" points="1192.0001,-334.4132 1188.5,-324.4133 1185.0001,-334.4133 1192.0001,-334.4132"/>
</g>
<!-- 53 -->
<g id="node54" class="node">
<title>53</title>
<path fill="none" stroke="#56d8a9" stroke-width="2" d="M1534,-180C1534,-180 1461,-180 1461,-180 1455,-180 1449,-174 1449,-168 1449,-168 1449,-156 1449,-156 1449,-150 1455,-144 1461,-144 1461,-144 1534,-144 1534,-144 1540,-144 1546,-150 1546,-156 1546,-156 1546,-168 1546,-168 1546,-174 1540,-180 1534,-180"/>
<text text-anchor="middle" x="1497.5" y="-159.5" font-family="sans" font-size="10.00" fill="#000000">metadmg_damage</text>
</g>
<!-- 37&#45;&gt;53 -->
<g id="edge77" class="edge">
<title>37&#45;&gt;53</title>
<path fill="none" stroke="#c0c0c0" stroke-width="2" d="M1232.6909,-373.1199C1294.3204,-365.5054 1401.8665,-349.0256 1431.5,-324 1472.0465,-289.7583 1487.9913,-226.778 1494.0282,-190.2495"/>
<polygon fill="#c0c0c0" stroke="#c0c0c0" stroke-width="2" points="1497.5044,-190.6696 1495.5404,-180.2584 1490.5832,-189.622 1497.5044,-190.6696"/>
</g>
<!-- 38 -->
<g id="node39" class="node">
<title>38</title>
<path fill="none" stroke="#d8ac56" stroke-width="2" d="M903,-468C903,-468 848,-468 848,-468 842,-468 836,-462 836,-456 836,-456 836,-444 836,-444 836,-438 842,-432 848,-432 848,-432 903,-432 903,-432 909,-432 915,-438 915,-444 915,-444 915,-456 915,-456 915,-462 909,-468 903,-468"/>
<text text-anchor="middle" x="875.5" y="-447.5" font-family="sans" font-size="10.00" fill="#000000">align_reassign</text>
</g>
<!-- 38&#45;&gt;37 -->
<g id="edge58" class="edge">
<title>38&#45;&gt;37</title>
<path fill="none" stroke="#c0c0c0" stroke-width="2" d="M915.0797,-442.7925C965.4404,-433.3535 1054.9596,-415.6754 1130.5,-396 1131.7626,-395.6711 1133.0387,-395.332 1134.3239,-394.9844"/>
<polygon fill="#c0c0c0" stroke="#c0c0c0" stroke-width="2" points="1135.6085,-398.259 1144.2872,-392.1819 1133.713,-391.5205 1135.6085,-398.259"/>
</g>
<!-- 39&#45;&gt;38 -->
<g id="edge59" class="edge">
<title>39&#45;&gt;38</title>
<path fill="none" stroke="#c0c0c0" stroke-width="2" d="M874.0047,-503.8314C874.2186,-496.131 874.4729,-486.9743 874.7106,-478.4166"/>
<polygon fill="#c0c0c0" stroke="#c0c0c0" stroke-width="2" points="878.2094,-478.5066 874.9885,-468.4133 871.2121,-478.3122 878.2094,-478.5066"/>
</g>
<!-- 40 -->
<g id="node41" class="node">
<title>40</title>
<path fill="none" stroke="#56d8c9" stroke-width="2" d="M324.5,-252C324.5,-252 272.5,-252 272.5,-252 266.5,-252 260.5,-246 260.5,-240 260.5,-240 260.5,-228 260.5,-228 260.5,-222 266.5,-216 272.5,-216 272.5,-216 324.5,-216 324.5,-216 330.5,-216 336.5,-222 336.5,-228 336.5,-228 336.5,-240 336.5,-240 336.5,-246 330.5,-252 324.5,-252"/>
<text text-anchor="middle" x="298.5" y="-231.5" font-family="sans" font-size="10.00" fill="#000000">metadmg_dfit</text>
</g>
<!-- 40&#45;&gt;1 -->
<g id="edge21" class="edge">
<title>40&#45;&gt;1</title>
<path fill="none" stroke="#c0c0c0" stroke-width="2" d="M304.7843,-215.8919C313.1906,-194.6789 330.2752,-160.3583 357.5,-144 369.372,-136.8666 780.4697,-103.2755 908.0952,-92.9963"/>
<polygon fill="#c0c0c0" stroke="#c0c0c0" stroke-width="2" points="908.4844,-96.4764 918.1715,-92.1858 907.9231,-89.499 908.4844,-96.4764"/>
</g>
<!-- 51 -->
<g id="node52" class="node">
<title>51</title>
<path fill="none" stroke="#56d892" stroke-width="2" d="M293,-180C293,-180 212,-180 212,-180 206,-180 200,-174 200,-168 200,-168 200,-156 200,-156 200,-150 206,-144 212,-144 212,-144 293,-144 293,-144 299,-144 305,-150 305,-156 305,-156 305,-168 305,-168 305,-174 299,-180 293,-180"/>
<text text-anchor="middle" x="252.5" y="-159.5" font-family="sans" font-size="10.00" fill="#000000">metadmg_aggregate</text>
</g>
<!-- 40&#45;&gt;51 -->
<g id="edge74" class="edge">
<title>40&#45;&gt;51</title>
<path fill="none" stroke="#c0c0c0" stroke-width="2" d="M286.8923,-215.8314C281.7022,-207.7079 275.4768,-197.9637 269.7575,-189.0118"/>
<polygon fill="#c0c0c0" stroke="#c0c0c0" stroke-width="2" points="272.5974,-186.9559 264.264,-180.4133 266.6985,-190.7246 272.5974,-186.9559"/>
</g>
<!-- 41 -->
<g id="node42" class="node">
<title>41</title>
<path fill="none" stroke="#56c9d8" stroke-width="2" d="M258,-324C258,-324 207,-324 207,-324 201,-324 195,-318 195,-312 195,-312 195,-300 195,-300 195,-294 201,-288 207,-288 207,-288 258,-288 258,-288 264,-288 270,-294 270,-300 270,-300 270,-312 270,-312 270,-318 264,-324 258,-324"/>
<text text-anchor="middle" x="232.5" y="-303.5" font-family="sans" font-size="10.00" fill="#000000">metadmg_lca</text>
</g>
<!-- 41&#45;&gt;40 -->
<g id="edge61" class="edge">
<title>41&#45;&gt;40</title>
<path fill="none" stroke="#c0c0c0" stroke-width="2" d="M249.1546,-287.8314C256.9114,-279.3694 266.2802,-269.1489 274.761,-259.8971"/>
<polygon fill="#c0c0c0" stroke="#c0c0c0" stroke-width="2" points="277.4439,-262.1499 281.6212,-252.4133 272.2838,-257.4198 277.4439,-262.1499"/>
</g>
<!-- 41&#45;&gt;51 -->
<g id="edge73" class="edge">
<title>41&#45;&gt;51</title>
<path fill="none" stroke="#c0c0c0" stroke-width="2" d="M235.033,-287.7623C238.4443,-263.201 244.549,-219.2474 248.5619,-190.3541"/>
<polygon fill="#c0c0c0" stroke="#c0c0c0" stroke-width="2" points="252.0785,-190.4761 249.9876,-180.0896 245.1451,-189.513 252.0785,-190.4761"/>
</g>
<!-- 42 -->
<g id="node43" class="node">
<title>42</title>
<path fill="none" stroke="#c6d856" stroke-width="2" d="M261.5,-396C261.5,-396 197.5,-396 197.5,-396 191.5,-396 185.5,-390 185.5,-384 185.5,-384 185.5,-372 185.5,-372 185.5,-366 191.5,-360 197.5,-360 197.5,-360 261.5,-360 261.5,-360 267.5,-360 273.5,-366 273.5,-372 273.5,-372 273.5,-384 273.5,-384 273.5,-390 267.5,-396 261.5,-396"/>
<text text-anchor="middle" x="229.5" y="-375.5" font-family="sans" font-size="10.00" fill="#000000">align_sort_query</text>
</g>
<!-- 42&#45;&gt;41 -->
<g id="edge62" class="edge">
<title>42&#45;&gt;41</title>
<path fill="none" stroke="#c0c0c0" stroke-width="2" d="M230.257,-359.8314C230.5779,-352.131 230.9594,-342.9743 231.316,-334.4166"/>
<polygon fill="#c0c0c0" stroke="#c0c0c0" stroke-width="2" points="234.8133,-334.5503 231.7328,-324.4133 227.8194,-334.2589 234.8133,-334.5503"/>
</g>
<!-- 54 -->
<g id="node55" class="node">
<title>54</title>
<path fill="none" stroke="#56d8a9" stroke-width="2" d="M286,-108C286,-108 213,-108 213,-108 207,-108 201,-102 201,-96 201,-96 201,-84 201,-84 201,-78 207,-72 213,-72 213,-72 286,-72 286,-72 292,-72 298,-78 298,-84 298,-84 298,-96 298,-96 298,-102 292,-108 286,-108"/>
<text text-anchor="middle" x="249.5" y="-87.5" font-family="sans" font-size="10.00" fill="#000000">metadmg_damage</text>
</g>
<!-- 42&#45;&gt;54 -->
<g id="edge78" class="edge">
<title>42&#45;&gt;54</title>
<path fill="none" stroke="#c0c0c0" stroke-width="2" d="M209.0974,-359.5625C200.0059,-349.9675 190.2838,-337.4441 185.5,-324 172.6477,-287.8803 146.2817,-239.868 190.5,-144 195.6797,-132.7701 204.3964,-122.8181 213.5621,-114.614"/>
<polygon fill="#c0c0c0" stroke="#c0c0c0" stroke-width="2" points="215.8731,-117.244 221.2992,-108.1441 211.3827,-111.8741 215.8731,-117.244"/>
</g>
<!-- 43 -->
<g id="node44" class="node">
<title>43</title>
<path fill="none" stroke="#d8ac56" stroke-width="2" d="M257,-468C257,-468 202,-468 202,-468 196,-468 190,-462 190,-456 190,-456 190,-444 190,-444 190,-438 196,-432 202,-432 202,-432 257,-432 257,-432 263,-432 269,-438 269,-444 269,-444 269,-456 269,-456 269,-462 263,-468 257,-468"/>
<text text-anchor="middle" x="229.5" y="-447.5" font-family="sans" font-size="10.00" fill="#000000">align_reassign</text>
</g>
<!-- 43&#45;&gt;42 -->
<g id="edge63" class="edge">
<title>43&#45;&gt;42</title>
<path fill="none" stroke="#c0c0c0" stroke-width="2" d="M229.5,-431.8314C229.5,-424.131 229.5,-414.9743 229.5,-406.4166"/>
<polygon fill="#c0c0c0" stroke="#c0c0c0" stroke-width="2" points="233.0001,-406.4132 229.5,-396.4133 226.0001,-406.4133 233.0001,-406.4132"/>
</g>
<!-- 44&#45;&gt;43 -->
<g id="edge64" class="edge">
<title>44&#45;&gt;43</title>
<path fill="none" stroke="#c0c0c0" stroke-width="2" d="M229.5,-503.8314C229.5,-496.131 229.5,-486.9743 229.5,-478.4166"/>
<polygon fill="#c0c0c0" stroke="#c0c0c0" stroke-width="2" points="233.0001,-478.4132 229.5,-468.4133 226.0001,-478.4133 233.0001,-478.4132"/>
</g>
<!-- 45 -->
<g id="node46" class="node">
<title>45</title>
<path fill="none" stroke="#56d8c9" stroke-width="2" d="M1351.5,-252C1351.5,-252 1299.5,-252 1299.5,-252 1293.5,-252 1287.5,-246 1287.5,-240 1287.5,-240 1287.5,-228 1287.5,-228 1287.5,-222 1293.5,-216 1299.5,-216 1299.5,-216 1351.5,-216 1351.5,-216 1357.5,-216 1363.5,-222 1363.5,-228 1363.5,-228 1363.5,-240 1363.5,-240 1363.5,-246 1357.5,-252 1351.5,-252"/>
<text text-anchor="middle" x="1325.5" y="-231.5" font-family="sans" font-size="10.00" fill="#000000">metadmg_dfit</text>
</g>
<!-- 45&#45;&gt;1 -->
<g id="edge22" class="edge">
<title>45&#45;&gt;1</title>
<path fill="none" stroke="#c0c0c0" stroke-width="2" d="M1320.2559,-215.8918C1313.2108,-195.0125 1298.5834,-161.3461 1273.5,-144 1226.8056,-111.7091 1058.15,-97.1566 982.5774,-92.1499"/>
<polygon fill="#c0c0c0" stroke="#c0c0c0" stroke-width="2" points="982.7578,-88.6544 972.5539,-91.5059 982.3089,-95.64 982.7578,-88.6544"/>
</g>
<!-- 52 -->
<g id="node53" class="node">
<title>52</title>
<path fill="none" stroke="#56d892" stroke-width="2" d="M1419,-180C1419,-180 1338,-180 1338,-180 1332,-180 1326,-174 1326,-168 1326,-168 1326,-156 1326,-156 1326,-150 1332,-144 1338,-144 1338,-144 1419,-144 1419,-144 1425,-144 1431,-150 1431,-156 1431,-156 1431,-168 1431,-168 1431,-174 1425,-180 1419,-180"/>
<text text-anchor="middle" x="1378.5" y="-159.5" font-family="sans" font-size="10.00" fill="#000000">metadmg_aggregate</text>
</g>
<!-- 45&#45;&gt;52 -->
<g id="edge76" class="edge">
<title>45&#45;&gt;52</title>
<path fill="none" stroke="#c0c0c0" stroke-width="2" d="M1338.8741,-215.8314C1344.9162,-207.6232 1352.1763,-197.7606 1358.8221,-188.7323"/>
<polygon fill="#c0c0c0" stroke="#c0c0c0" stroke-width="2" points="1361.8363,-190.5415 1364.9458,-180.4133 1356.1989,-186.3918 1361.8363,-190.5415"/>
</g>
<!-- 46 -->
<g id="node47" class="node">
<title>46</title>
<path fill="none" stroke="#56c9d8" stroke-width="2" d="M1410,-324C1410,-324 1359,-324 1359,-324 1353,-324 1347,-318 1347,-312 1347,-312 1347,-300 1347,-300 1347,-294 1353,-288 1359,-288 1359,-288 1410,-288 1410,-288 1416,-288 1422,-294 1422,-300 1422,-300 1422,-312 1422,-312 1422,-318 1416,-324 1410,-324"/>
<text text-anchor="middle" x="1384.5" y="-303.5" font-family="sans" font-size="10.00" fill="#000000">metadmg_lca</text>
</g>
<!-- 46&#45;&gt;45 -->
<g id="edge66" class="edge">
<title>46&#45;&gt;45</title>
<path fill="none" stroke="#c0c0c0" stroke-width="2" d="M1369.6118,-287.8314C1362.747,-279.454 1354.4699,-269.3531 1346.9489,-260.1749"/>
<polygon fill="#c0c0c0" stroke="#c0c0c0" stroke-width="2" points="1349.6341,-257.9297 1340.5886,-252.4133 1344.2197,-262.3665 1349.6341,-257.9297"/>
</g>
<!-- 46&#45;&gt;52 -->
<g id="edge75" class="edge">
<title>46&#45;&gt;52</title>
<path fill="none" stroke="#c0c0c0" stroke-width="2" d="M1383.7401,-287.7623C1382.7167,-263.201 1380.8853,-219.2474 1379.6814,-190.3541"/>
<polygon fill="#c0c0c0" stroke="#c0c0c0" stroke-width="2" points="1383.1671,-189.9352 1379.2537,-180.0896 1376.1732,-190.2267 1383.1671,-189.9352"/>
</g>
<!-- 47 -->
<g id="node48" class="node">
<title>47</title>
<path fill="none" stroke="#c6d856" stroke-width="2" d="M1416.5,-396C1416.5,-396 1352.5,-396 1352.5,-396 1346.5,-396 1340.5,-390 1340.5,-384 1340.5,-384 1340.5,-372 1340.5,-372 1340.5,-366 1346.5,-360 1352.5,-360 1352.5,-360 1416.5,-360 1416.5,-360 1422.5,-360 1428.5,-366 1428.5,-372 1428.5,-372 1428.5,-384 1428.5,-384 1428.5,-390 1422.5,-396 1416.5,-396"/>
<text text-anchor="middle" x="1384.5" y="-375.5" font-family="sans" font-size="10.00" fill="#000000">align_sort_query</text>
</g>
<!-- 47&#45;&gt;46 -->
<g id="edge67" class="edge">
<title>47&#45;&gt;46</title>
<path fill="none" stroke="#c0c0c0" stroke-width="2" d="M1384.5,-359.8314C1384.5,-352.131 1384.5,-342.9743 1384.5,-334.4166"/>
<polygon fill="#c0c0c0" stroke="#c0c0c0" stroke-width="2" points="1388.0001,-334.4132 1384.5,-324.4133 1381.0001,-334.4133 1388.0001,-334.4132"/>
</g>
<!-- 55 -->
<g id="node56" class="node">
<title>55</title>
<path fill="none" stroke="#56d8a9" stroke-width="2" d="M1570,-108C1570,-108 1497,-108 1497,-108 1491,-108 1485,-102 1485,-96 1485,-96 1485,-84 1485,-84 1485,-78 1491,-72 1497,-72 1497,-72 1570,-72 1570,-72 1576,-72 1582,-78 1582,-84 1582,-84 1582,-96 1582,-96 1582,-102 1576,-108 1570,-108"/>
<text text-anchor="middle" x="1533.5" y="-87.5" font-family="sans" font-size="10.00" fill="#000000">metadmg_damage</text>
</g>
<!-- 47&#45;&gt;55 -->
<g id="edge79" class="edge">
<title>47&#45;&gt;55</title>
<path fill="none" stroke="#c0c0c0" stroke-width="2" d="M1414.1161,-359.8693C1428.4583,-350.2587 1445.3713,-337.6319 1458.5,-324 1512.0289,-268.4192 1532.9617,-253.801 1555.5,-180 1561.8424,-159.2321 1555.3775,-135.3396 1547.8493,-117.3934"/>
<polygon fill="#c0c0c0" stroke="#c0c0c0" stroke-width="2" points="1550.9494,-115.7548 1543.6321,-108.0926 1544.5741,-118.6455 1550.9494,-115.7548"/>
</g>
<!-- 48 -->
<g id="node49" class="node">
<title>48</title>
<path fill="none" stroke="#d8ac56" stroke-width="2" d="M1406,-468C1406,-468 1351,-468 1351,-468 1345,-468 1339,-462 1339,-456 1339,-456 1339,-444 1339,-444 1339,-438 1345,-432 1351,-432 1351,-432 1406,-432 1406,-432 1412,-432 1418,-438 1418,-444 1418,-444 1418,-456 1418,-456 1418,-462 1412,-468 1406,-468"/>
<text text-anchor="middle" x="1378.5" y="-447.5" font-family="sans" font-size="10.00" fill="#000000">align_reassign</text>
</g>
<!-- 48&#45;&gt;47 -->
<g id="edge68" class="edge">
<title>48&#45;&gt;47</title>
<path fill="none" stroke="#c0c0c0" stroke-width="2" d="M1380.0141,-431.8314C1380.6558,-424.131 1381.4188,-414.9743 1382.1319,-406.4166"/>
<polygon fill="#c0c0c0" stroke="#c0c0c0" stroke-width="2" points="1385.6229,-406.6694 1382.9656,-396.4133 1378.6471,-406.088 1385.6229,-406.6694"/>
</g>
<!-- 49&#45;&gt;48 -->
<g id="edge69" class="edge">
<title>49&#45;&gt;48</title>
<path fill="none" stroke="#c0c0c0" stroke-width="2" d="M1283.5475,-503.8314C1299.942,-494.5368 1320.0786,-483.1208 1337.5829,-473.1971"/>
<polygon fill="#c0c0c0" stroke="#c0c0c0" stroke-width="2" points="1339.4897,-476.1395 1346.4628,-468.1628 1336.0374,-470.05 1339.4897,-476.1395"/>
</g>
<!-- 50&#45;&gt;0 -->
<g id="edge2" class="edge">
<title>50&#45;&gt;0</title>
<path fill="none" stroke="#c0c0c0" stroke-width="2" d="M1178.5,-143.7623C1178.5,-119.201 1178.5,-75.2474 1178.5,-46.3541"/>
<polygon fill="#c0c0c0" stroke="#c0c0c0" stroke-width="2" points="1182.0001,-46.0896 1178.5,-36.0896 1175.0001,-46.0897 1182.0001,-46.0896"/>
</g>
<!-- 50&#45;&gt;1 -->
<g id="edge23" class="edge">
<title>50&#45;&gt;1</title>
<path fill="none" stroke="#c0c0c0" stroke-width="2" d="M1125.9197,-145.752C1082.1801,-132.2359 1021.0297,-113.3396 982.3511,-101.3875"/>
<polygon fill="#c0c0c0" stroke="#c0c0c0" stroke-width="2" points="983.1364,-97.9669 972.5488,-98.3584 981.0697,-104.6549 983.1364,-97.9669"/>
</g>
<!-- 51&#45;&gt;0 -->
<g id="edge3" class="edge">
<title>51&#45;&gt;0</title>
<path fill="none" stroke="#c0c0c0" stroke-width="2" d="M305.0279,-147.2661C309.903,-146.0869 314.7822,-144.9763 319.5,-144 634.35,-78.8476 1020.911,-34.7892 1141.0745,-21.9073"/>
<polygon fill="#c0c0c0" stroke="#c0c0c0" stroke-width="2" points="1141.6444,-25.3665 1151.2172,-20.8264 1140.9026,-18.4059 1141.6444,-25.3665"/>
</g>
<!-- 51&#45;&gt;1 -->
<g id="edge24" class="edge">
<title>51&#45;&gt;1</title>
<path fill="none" stroke="#c0c0c0" stroke-width="2" d="M305.3368,-146.8815C310.1022,-145.7984 314.8738,-144.8144 319.5,-144 348.6279,-138.8723 777.7866,-103.6685 908.1939,-93.0351"/>
<polygon fill="#c0c0c0" stroke="#c0c0c0" stroke-width="2" points="908.7856,-96.4986 918.4683,-92.1978 908.217,-89.5217 908.7856,-96.4986"/>
</g>
<!-- 52&#45;&gt;0 -->
<g id="edge4" class="edge">
<title>52&#45;&gt;0</title>
<path fill="none" stroke="#c0c0c0" stroke-width="2" d="M1353.1699,-143.7623C1317.3288,-117.9567 1251.7558,-70.7442 1211.9489,-42.0832"/>
<polygon fill="#c0c0c0" stroke="#c0c0c0" stroke-width="2" points="1213.7849,-39.0923 1203.6245,-36.0896 1209.6947,-44.7731 1213.7849,-39.0923"/>
</g>
<!-- 52&#45;&gt;1 -->
<g id="edge25" class="edge">
<title>52&#45;&gt;1</title>
<path fill="none" stroke="#c0c0c0" stroke-width="2" d="M1325.9712,-147.2703C1321.0964,-146.0902 1316.2174,-144.9782 1311.5,-144 1192.4028,-119.3028 1049.2319,-101.5955 982.7718,-94.051"/>
<polygon fill="#c0c0c0" stroke="#c0c0c0" stroke-width="2" points="983.1078,-90.5668 972.7794,-92.9279 982.3259,-97.523 983.1078,-90.5668"/>
</g>
<!-- 53&#45;&gt;0 -->
<g id="edge5" class="edge">
<title>53&#45;&gt;0</title>
<path fill="none" stroke="#c0c0c0" stroke-width="2" d="M1457.4214,-143.9081C1394.8385,-115.6575 1274.8615,-61.4986 1214.7296,-34.3544"/>
<polygon fill="#c0c0c0" stroke="#c0c0c0" stroke-width="2" points="1216.1651,-31.1624 1205.6106,-30.238 1213.285,-37.5425 1216.1651,-31.1624"/>
</g>
<!-- 54&#45;&gt;0 -->
<g id="edge6" class="edge">
<title>54&#45;&gt;0</title>
<path fill="none" stroke="#c0c0c0" stroke-width="2" d="M298.1391,-86.2303C462.4035,-73.4994 994.4825,-32.2619 1140.9027,-20.9139"/>
<polygon fill="#c0c0c0" stroke="#c0c0c0" stroke-width="2" points="1141.4592,-24.3814 1151.1588,-20.119 1140.9182,-17.4023 1141.4592,-24.3814"/>
</g>
<!-- 55&#45;&gt;0 -->
<g id="edge7" class="edge">
<title>55&#45;&gt;0</title>
<path fill="none" stroke="#c0c0c0" stroke-width="2" d="M1484.8831,-80.1397C1413.1111,-65.5831 1280.3427,-38.6554 1215.7447,-25.5539"/>
<polygon fill="#c0c0c0" stroke="#c0c0c0" stroke-width="2" points="1216.1084,-22.0564 1205.6123,-23.4988 1214.717,-28.9168 1216.1084,-22.0564"/>
</g>
</g>
</svg>
