<?xml version="1.0" encoding="UTF-8" standalone="no"?>
<!DOCTYPE svg PUBLIC "-//W3C//DTD SVG 1.1//EN"
 "http://www.w3.org/Graphics/SVG/1.1/DTD/svg11.dtd">
<!-- Generated by graphviz version 2.40.1 (0)
 -->
<!-- Title: snakemake_dag Pages: 1 -->
<svg width="1987pt" height="1101pt"
 viewBox="0.00 0.00 1987.00 1101.00" xmlns="http://www.w3.org/2000/svg" xmlns:xlink="http://www.w3.org/1999/xlink">
<g id="graph0" class="graph" transform="scale(1 1) rotate(0) translate(4 1097)">
<title>snakemake_dag</title>
<polygon fill="#ffffff" stroke="transparent" points="-4,4 -4,-1097 1983,-1097 1983,4 -4,4"/>
<!-- 0 -->
<g id="node1" class="node">
<title>0</title>
<path fill="none" stroke="#b6d856" stroke-width="2" d="M1141.5,-36C1141.5,-36 1111.5,-36 1111.5,-36 1105.5,-36 1099.5,-30 1099.5,-24 1099.5,-24 1099.5,-12 1099.5,-12 1099.5,-6 1105.5,0 1111.5,0 1111.5,0 1141.5,0 1141.5,0 1147.5,0 1153.5,-6 1153.5,-12 1153.5,-12 1153.5,-24 1153.5,-24 1153.5,-30 1147.5,-36 1141.5,-36"/>
<text text-anchor="middle" x="1126.5" y="-15.5" font-family="sans" font-size="10.00" fill="#000000">all</text>
</g>
<!-- 1 -->
<g id="node2" class="node">
<title>1</title>
<path fill="none" stroke="#56d86b" stroke-width="2" d="M826.5,-108C826.5,-108 796.5,-108 796.5,-108 790.5,-108 784.5,-102 784.5,-96 784.5,-96 784.5,-84 784.5,-84 784.5,-78 790.5,-72 796.5,-72 796.5,-72 826.5,-72 826.5,-72 832.5,-72 838.5,-78 838.5,-84 838.5,-84 838.5,-96 838.5,-96 838.5,-102 832.5,-108 826.5,-108"/>
<text text-anchor="middle" x="811.5" y="-87.5" font-family="sans" font-size="10.00" fill="#000000">multiqc</text>
</g>
<!-- 1&#45;&gt;0 -->
<g id="edge1" class="edge">
<title>1&#45;&gt;0</title>
<path fill="none" stroke="#c0c0c0" stroke-width="2" d="M838.6294,-83.799C895.0335,-70.9066 1025.0349,-41.192 1089.2375,-26.5171"/>
<polygon fill="#c0c0c0" stroke="#c0c0c0" stroke-width="2" points="1090.3555,-29.8519 1099.3242,-24.2116 1088.7957,-23.0279 1090.3555,-29.8519"/>
</g>
<!-- 2 -->
<g id="node3" class="node">
<title>2</title>
<path fill="none" stroke="#56d882" stroke-width="2" d="M119,-1093C119,-1093 12,-1093 12,-1093 6,-1093 0,-1087 0,-1081 0,-1081 0,-1020 0,-1020 0,-1014 6,-1008 12,-1008 12,-1008 119,-1008 119,-1008 125,-1008 131,-1014 131,-1020 131,-1020 131,-1081 131,-1081 131,-1087 125,-1093 119,-1093"/>
<text text-anchor="middle" x="65.5" y="-1081" font-family="sans" font-size="10.00" fill="#000000">shard_bowtie2</text>
<text text-anchor="middle" x="65.5" y="-1070" font-family="sans" font-size="10.00" fill="#000000">library: lib1</text>
<text text-anchor="middle" x="65.5" y="-1059" font-family="sans" font-size="10.00" fill="#000000">n_shard: 1</text>
<text text-anchor="middle" x="65.5" y="-1048" font-family="sans" font-size="10.00" fill="#000000">read_type_map: collapsed</text>
<text text-anchor="middle" x="65.5" y="-1037" font-family="sans" font-size="10.00" fill="#000000">ref: wgs_eukaryota</text>
<text text-anchor="middle" x="65.5" y="-1026" font-family="sans" font-size="10.00" fill="#000000">sample: HD827sonic_1</text>
<text text-anchor="middle" x="65.5" y="-1015" font-family="sans" font-size="10.00" fill="#000000">tot_shards: 2</text>
</g>
<!-- 2&#45;&gt;1 -->
<g id="edge11" class="edge">
<title>2&#45;&gt;1</title>
<path fill="none" stroke="#c0c0c0" stroke-width="2" d="M50.5608,-1007.7883C34.5784,-956.3911 13.3233,-867.5682 27.5,-792 40.1615,-724.5082 41.6095,-702.4118 83.5,-648 141.5266,-572.6288 256.5,-617.1205 256.5,-522 256.5,-522 256.5,-522 256.5,-378 256.5,-260.3002 283.6296,-210.8533 380.5,-144 384.5597,-141.1983 670.1076,-106.8786 774.1272,-94.4536"/>
<polygon fill="#c0c0c0" stroke="#c0c0c0" stroke-width="2" points="774.6687,-97.9139 784.1833,-93.2531 773.8389,-90.9633 774.6687,-97.9139"/>
</g>
<!-- 15 -->
<g id="node16" class="node">
<title>15</title>
<path fill="none" stroke="#569ad8" stroke-width="2" d="M178,-828C178,-828 49,-828 49,-828 43,-828 37,-822 37,-816 37,-816 37,-804 37,-804 37,-798 43,-792 49,-792 49,-792 178,-792 178,-792 184,-792 190,-798 190,-804 190,-804 190,-816 190,-816 190,-822 184,-828 178,-828"/>
<text text-anchor="middle" x="113.5" y="-807.5" font-family="sans" font-size="10.00" fill="#000000">shard_saturated_reads_remove</text>
</g>
<!-- 2&#45;&gt;15 -->
<g id="edge35" class="edge">
<title>2&#45;&gt;15</title>
<path fill="none" stroke="#c0c0c0" stroke-width="2" d="M71.9159,-1007.9735C75.3387,-986.3618 79.8068,-959.7205 84.5,-936 91.201,-902.1313 100.3183,-863.4769 106.5294,-838.0134"/>
<polygon fill="#c0c0c0" stroke="#c0c0c0" stroke-width="2" points="109.9321,-838.8328 108.9173,-828.2867 103.134,-837.1638 109.9321,-838.8328"/>
</g>
<!-- 19 -->
<g id="node20" class="node">
<title>19</title>
<path fill="none" stroke="#56d8c9" stroke-width="2" d="M175,-972C175,-972 106,-972 106,-972 100,-972 94,-966 94,-960 94,-960 94,-948 94,-948 94,-942 100,-936 106,-936 106,-936 175,-936 175,-936 181,-936 187,-942 187,-948 187,-948 187,-960 187,-960 187,-966 181,-972 175,-972"/>
<text text-anchor="middle" x="140.5" y="-951.5" font-family="sans" font-size="10.00" fill="#000000">shard_count_alns</text>
</g>
<!-- 2&#45;&gt;19 -->
<g id="edge42" class="edge">
<title>2&#45;&gt;19</title>
<path fill="none" stroke="#c0c0c0" stroke-width="2" d="M98.6144,-1007.8928C105.9133,-998.5016 113.4368,-988.8213 120.0586,-980.3013"/>
<polygon fill="#c0c0c0" stroke="#c0c0c0" stroke-width="2" points="122.9649,-982.2653 126.338,-972.2218 117.4379,-977.9697 122.9649,-982.2653"/>
</g>
<!-- 3 -->
<g id="node4" class="node">
<title>3</title>
<path fill="none" stroke="#56d882" stroke-width="2" d="M1967,-1093C1967,-1093 1860,-1093 1860,-1093 1854,-1093 1848,-1087 1848,-1081 1848,-1081 1848,-1020 1848,-1020 1848,-1014 1854,-1008 1860,-1008 1860,-1008 1967,-1008 1967,-1008 1973,-1008 1979,-1014 1979,-1020 1979,-1020 1979,-1081 1979,-1081 1979,-1087 1973,-1093 1967,-1093"/>
<text text-anchor="middle" x="1913.5" y="-1081" font-family="sans" font-size="10.00" fill="#000000">shard_bowtie2</text>
<text text-anchor="middle" x="1913.5" y="-1070" font-family="sans" font-size="10.00" fill="#000000">library: lib2</text>
<text text-anchor="middle" x="1913.5" y="-1059" font-family="sans" font-size="10.00" fill="#000000">n_shard: 1</text>
<text text-anchor="middle" x="1913.5" y="-1048" font-family="sans" font-size="10.00" fill="#000000">read_type_map: collapsed</text>
<text text-anchor="middle" x="1913.5" y="-1037" font-family="sans" font-size="10.00" fill="#000000">ref: wgs_eukaryota</text>
<text text-anchor="middle" x="1913.5" y="-1026" font-family="sans" font-size="10.00" fill="#000000">sample: HD827sonic_2</text>
<text text-anchor="middle" x="1913.5" y="-1015" font-family="sans" font-size="10.00" fill="#000000">tot_shards: 2</text>
</g>
<!-- 3&#45;&gt;1 -->
<g id="edge12" class="edge">
<title>3&#45;&gt;1</title>
<path fill="none" stroke="#c0c0c0" stroke-width="2" d="M1936.1159,-1007.8008C1951.658,-974.4879 1969.5,-926.5446 1969.5,-882 1969.5,-882 1969.5,-882 1969.5,-810 1969.5,-709.4258 1896.2496,-702.154 1811.5,-648 1770.99,-622.1146 1752.3085,-633.8757 1709.5,-612 1659.4393,-586.4184 1646.4507,-578.5166 1605.5,-540 1561.0055,-498.1503 1570.1004,-467.6506 1520.5,-432 1481.8034,-404.1866 1460.8403,-419.7064 1419.5,-396 1290.0647,-321.7759 1271.015,-282.407 1162.5,-180 1146.4942,-164.8951 1147.9043,-154.3836 1128.5,-144 1080.5287,-118.3297 921.8402,-100.4453 848.8401,-93.3718"/>
<polygon fill="#c0c0c0" stroke="#c0c0c0" stroke-width="2" points="849.0017,-89.8714 838.7148,-92.407 848.3376,-96.8399 849.0017,-89.8714"/>
</g>
<!-- 45 -->
<g id="node46" class="node">
<title>45</title>
<path fill="none" stroke="#569ad8" stroke-width="2" d="M1891,-828C1891,-828 1762,-828 1762,-828 1756,-828 1750,-822 1750,-816 1750,-816 1750,-804 1750,-804 1750,-798 1756,-792 1762,-792 1762,-792 1891,-792 1891,-792 1897,-792 1903,-798 1903,-804 1903,-804 1903,-816 1903,-816 1903,-822 1897,-828 1891,-828"/>
<text text-anchor="middle" x="1826.5" y="-807.5" font-family="sans" font-size="10.00" fill="#000000">shard_saturated_reads_remove</text>
</g>
<!-- 3&#45;&gt;45 -->
<g id="edge79" class="edge">
<title>3&#45;&gt;45</title>
<path fill="none" stroke="#c0c0c0" stroke-width="2" d="M1909.8064,-1007.8042C1907.0693,-985.9103 1902.393,-959.0689 1894.5,-936 1882.1014,-899.7627 1859.9948,-861.5027 1844.3574,-836.7815"/>
<polygon fill="#c0c0c0" stroke="#c0c0c0" stroke-width="2" points="1847.2684,-834.8372 1838.9189,-828.3151 1841.3788,-838.6205 1847.2684,-834.8372"/>
</g>
<!-- 49 -->
<g id="node50" class="node">
<title>49</title>
<path fill="none" stroke="#56d8c9" stroke-width="2" d="M1873,-972C1873,-972 1804,-972 1804,-972 1798,-972 1792,-966 1792,-960 1792,-960 1792,-948 1792,-948 1792,-942 1798,-936 1804,-936 1804,-936 1873,-936 1873,-936 1879,-936 1885,-942 1885,-948 1885,-948 1885,-960 1885,-960 1885,-966 1879,-972 1873,-972"/>
<text text-anchor="middle" x="1838.5" y="-951.5" font-family="sans" font-size="10.00" fill="#000000">shard_count_alns</text>
</g>
<!-- 3&#45;&gt;49 -->
<g id="edge86" class="edge">
<title>3&#45;&gt;49</title>
<path fill="none" stroke="#c0c0c0" stroke-width="2" d="M1880.3856,-1007.8928C1873.0867,-998.5016 1865.5632,-988.8213 1858.9414,-980.3013"/>
<polygon fill="#c0c0c0" stroke="#c0c0c0" stroke-width="2" points="1861.5621,-977.9697 1852.662,-972.2218 1856.0351,-982.2653 1861.5621,-977.9697"/>
</g>
<!-- 4 -->
<g id="node5" class="node">
<title>4</title>
<path fill="none" stroke="#56d882" stroke-width="2" d="M574,-1093C574,-1093 467,-1093 467,-1093 461,-1093 455,-1087 455,-1081 455,-1081 455,-1020 455,-1020 455,-1014 461,-1008 467,-1008 467,-1008 574,-1008 574,-1008 580,-1008 586,-1014 586,-1020 586,-1020 586,-1081 586,-1081 586,-1087 580,-1093 574,-1093"/>
<text text-anchor="middle" x="520.5" y="-1081" font-family="sans" font-size="10.00" fill="#000000">shard_bowtie2</text>
<text text-anchor="middle" x="520.5" y="-1070" font-family="sans" font-size="10.00" fill="#000000">library: lib1</text>
<text text-anchor="middle" x="520.5" y="-1059" font-family="sans" font-size="10.00" fill="#000000">n_shard: 1</text>
<text text-anchor="middle" x="520.5" y="-1048" font-family="sans" font-size="10.00" fill="#000000">read_type_map: collapsed</text>
<text text-anchor="middle" x="520.5" y="-1037" font-family="sans" font-size="10.00" fill="#000000">ref: refseq_mitochondrion</text>
<text text-anchor="middle" x="520.5" y="-1026" font-family="sans" font-size="10.00" fill="#000000">sample: HD827sonic_1</text>
<text text-anchor="middle" x="520.5" y="-1015" font-family="sans" font-size="10.00" fill="#000000">tot_shards: 1</text>
</g>
<!-- 4&#45;&gt;1 -->
<g id="edge13" class="edge">
<title>4&#45;&gt;1</title>
<path fill="none" stroke="#c0c0c0" stroke-width="2" d="M581.9831,-1007.9067C593.8229,-997.3335 605.1263,-985.2039 613.5,-972 635.6711,-937.0397 637.5,-923.3978 637.5,-882 637.5,-882 637.5,-882 637.5,-234 637.5,-188.8741 651.3525,-174.6201 684.5,-144 709.9707,-120.4714 747.2324,-106.2872 774.8127,-98.4019"/>
<polygon fill="#c0c0c0" stroke="#c0c0c0" stroke-width="2" points="775.7606,-101.7713 784.496,-95.7761 773.9286,-95.0153 775.7606,-101.7713"/>
</g>
<!-- 17 -->
<g id="node18" class="node">
<title>17</title>
<path fill="none" stroke="#56d8c9" stroke-width="2" d="M397,-972C397,-972 328,-972 328,-972 322,-972 316,-966 316,-960 316,-960 316,-948 316,-948 316,-942 322,-936 328,-936 328,-936 397,-936 397,-936 403,-936 409,-942 409,-948 409,-948 409,-960 409,-960 409,-966 403,-972 397,-972"/>
<text text-anchor="middle" x="362.5" y="-951.5" font-family="sans" font-size="10.00" fill="#000000">shard_count_alns</text>
</g>
<!-- 4&#45;&gt;17 -->
<g id="edge40" class="edge">
<title>4&#45;&gt;17</title>
<path fill="none" stroke="#c0c0c0" stroke-width="2" d="M454.8664,-1010.4137C436.4096,-999.141 416.9503,-987.256 400.6774,-977.3172"/>
<polygon fill="#c0c0c0" stroke="#c0c0c0" stroke-width="2" points="402.3498,-974.2375 391.9913,-972.0121 398.7011,-980.2114 402.3498,-974.2375"/>
</g>
<!-- 25 -->
<g id="node26" class="node">
<title>25</title>
<path fill="none" stroke="#569ad8" stroke-width="2" d="M559,-828C559,-828 430,-828 430,-828 424,-828 418,-822 418,-816 418,-816 418,-804 418,-804 418,-798 424,-792 430,-792 430,-792 559,-792 559,-792 565,-792 571,-798 571,-804 571,-804 571,-816 571,-816 571,-822 565,-828 559,-828"/>
<text text-anchor="middle" x="494.5" y="-807.5" font-family="sans" font-size="10.00" fill="#000000">shard_saturated_reads_remove</text>
</g>
<!-- 4&#45;&gt;25 -->
<g id="edge49" class="edge">
<title>4&#45;&gt;25</title>
<path fill="none" stroke="#c0c0c0" stroke-width="2" d="M515.8817,-1007.7805C510.5926,-958.8569 502.0768,-880.0855 497.5533,-838.2427"/>
<polygon fill="#c0c0c0" stroke="#c0c0c0" stroke-width="2" points="501.0221,-837.7649 496.4675,-828.1991 494.0627,-838.5174 501.0221,-837.7649"/>
</g>
<!-- 5 -->
<g id="node6" class="node">
<title>5</title>
<path fill="none" stroke="#56d882" stroke-width="2" d="M1625,-1093C1625,-1093 1518,-1093 1518,-1093 1512,-1093 1506,-1087 1506,-1081 1506,-1081 1506,-1020 1506,-1020 1506,-1014 1512,-1008 1518,-1008 1518,-1008 1625,-1008 1625,-1008 1631,-1008 1637,-1014 1637,-1020 1637,-1020 1637,-1081 1637,-1081 1637,-1087 1631,-1093 1625,-1093"/>
<text text-anchor="middle" x="1571.5" y="-1081" font-family="sans" font-size="10.00" fill="#000000">shard_bowtie2</text>
<text text-anchor="middle" x="1571.5" y="-1070" font-family="sans" font-size="10.00" fill="#000000">library: lib2</text>
<text text-anchor="middle" x="1571.5" y="-1059" font-family="sans" font-size="10.00" fill="#000000">n_shard: 1</text>
<text text-anchor="middle" x="1571.5" y="-1048" font-family="sans" font-size="10.00" fill="#000000">read_type_map: collapsed</text>
<text text-anchor="middle" x="1571.5" y="-1037" font-family="sans" font-size="10.00" fill="#000000">ref: refseq_mitochondrion</text>
<text text-anchor="middle" x="1571.5" y="-1026" font-family="sans" font-size="10.00" fill="#000000">sample: HD827sonic_2</text>
<text text-anchor="middle" x="1571.5" y="-1015" font-family="sans" font-size="10.00" fill="#000000">tot_shards: 1</text>
</g>
<!-- 5&#45;&gt;1 -->
<g id="edge14" class="edge">
<title>5&#45;&gt;1</title>
<path fill="none" stroke="#c0c0c0" stroke-width="2" d="M1505.9615,-1008.9259C1450.3406,-971.2435 1379.5,-916.4817 1379.5,-882 1379.5,-882 1379.5,-882 1379.5,-666 1379.5,-580.402 1081.0532,-595.0436 1015.5,-540 871.7276,-419.2774 964.3991,-305.3933 868.5,-144 862.0807,-133.1967 852.8931,-123.1715 843.7634,-114.765"/>
<polygon fill="#c0c0c0" stroke="#c0c0c0" stroke-width="2" points="845.9953,-112.067 836.1701,-108.1027 841.3786,-117.3288 845.9953,-112.067"/>
</g>
<!-- 47 -->
<g id="node48" class="node">
<title>47</title>
<path fill="none" stroke="#56d8c9" stroke-width="2" d="M1762,-972C1762,-972 1693,-972 1693,-972 1687,-972 1681,-966 1681,-960 1681,-960 1681,-948 1681,-948 1681,-942 1687,-936 1693,-936 1693,-936 1762,-936 1762,-936 1768,-936 1774,-942 1774,-948 1774,-948 1774,-960 1774,-960 1774,-966 1768,-972 1762,-972"/>
<text text-anchor="middle" x="1727.5" y="-951.5" font-family="sans" font-size="10.00" fill="#000000">shard_count_alns</text>
</g>
<!-- 5&#45;&gt;47 -->
<g id="edge84" class="edge">
<title>5&#45;&gt;47</title>
<path fill="none" stroke="#c0c0c0" stroke-width="2" d="M1637.2059,-1009.855C1655.0255,-998.832 1673.7232,-987.2658 1689.4519,-977.5362"/>
<polygon fill="#c0c0c0" stroke="#c0c0c0" stroke-width="2" points="1691.6775,-980.275 1698.3406,-972.0377 1687.9949,-974.3219 1691.6775,-980.275"/>
</g>
<!-- 55 -->
<g id="node56" class="node">
<title>55</title>
<path fill="none" stroke="#569ad8" stroke-width="2" d="M1720,-828C1720,-828 1591,-828 1591,-828 1585,-828 1579,-822 1579,-816 1579,-816 1579,-804 1579,-804 1579,-798 1585,-792 1591,-792 1591,-792 1720,-792 1720,-792 1726,-792 1732,-798 1732,-804 1732,-804 1732,-816 1732,-816 1732,-822 1726,-828 1720,-828"/>
<text text-anchor="middle" x="1655.5" y="-807.5" font-family="sans" font-size="10.00" fill="#000000">shard_saturated_reads_remove</text>
</g>
<!-- 5&#45;&gt;55 -->
<g id="edge93" class="edge">
<title>5&#45;&gt;55</title>
<path fill="none" stroke="#c0c0c0" stroke-width="2" d="M1559.2034,-1007.9465C1554.8847,-985.9687 1552.798,-959.0087 1560.5,-936 1573.84,-896.1485 1605.3033,-858.815 1628.3807,-835.2908"/>
<polygon fill="#c0c0c0" stroke="#c0c0c0" stroke-width="2" points="1630.9314,-837.6902 1635.5451,-828.1526 1625.9907,-832.7314 1630.9314,-837.6902"/>
</g>
<!-- 6 -->
<g id="node7" class="node">
<title>6</title>
<path fill="none" stroke="#56d882" stroke-width="2" d="M898,-1093C898,-1093 791,-1093 791,-1093 785,-1093 779,-1087 779,-1081 779,-1081 779,-1020 779,-1020 779,-1014 785,-1008 791,-1008 791,-1008 898,-1008 898,-1008 904,-1008 910,-1014 910,-1020 910,-1020 910,-1081 910,-1081 910,-1087 904,-1093 898,-1093"/>
<text text-anchor="middle" x="844.5" y="-1081" font-family="sans" font-size="10.00" fill="#000000">shard_bowtie2</text>
<text text-anchor="middle" x="844.5" y="-1070" font-family="sans" font-size="10.00" fill="#000000">library: lib1</text>
<text text-anchor="middle" x="844.5" y="-1059" font-family="sans" font-size="10.00" fill="#000000">n_shard: 1</text>
<text text-anchor="middle" x="844.5" y="-1048" font-family="sans" font-size="10.00" fill="#000000">read_type_map: collapsed</text>
<text text-anchor="middle" x="844.5" y="-1037" font-family="sans" font-size="10.00" fill="#000000">ref: refseq_mitochondrion</text>
<text text-anchor="middle" x="844.5" y="-1026" font-family="sans" font-size="10.00" fill="#000000">sample: HD827sonic_2</text>
<text text-anchor="middle" x="844.5" y="-1015" font-family="sans" font-size="10.00" fill="#000000">tot_shards: 1</text>
</g>
<!-- 6&#45;&gt;1 -->
<g id="edge15" class="edge">
<title>6&#45;&gt;1</title>
<path fill="none" stroke="#c0c0c0" stroke-width="2" d="M803.9034,-1007.9827C794.0557,-996.7088 783.9423,-984.2518 775.5,-972 731.7571,-908.5188 713.5,-887.0929 713.5,-810 713.5,-810 713.5,-810 713.5,-234 713.5,-192.6022 714.108,-178.1554 737.5,-144 747.1572,-129.8992 761.7461,-118.1214 775.4246,-109.2011"/>
<polygon fill="#c0c0c0" stroke="#c0c0c0" stroke-width="2" points="777.5603,-111.9954 784.2209,-103.756 773.876,-106.0434 777.5603,-111.9954"/>
</g>
<!-- 32 -->
<g id="node33" class="node">
<title>32</title>
<path fill="none" stroke="#56d8c9" stroke-width="2" d="M1086,-972C1086,-972 1017,-972 1017,-972 1011,-972 1005,-966 1005,-960 1005,-960 1005,-948 1005,-948 1005,-942 1011,-936 1017,-936 1017,-936 1086,-936 1086,-936 1092,-936 1098,-942 1098,-948 1098,-948 1098,-960 1098,-960 1098,-966 1092,-972 1086,-972"/>
<text text-anchor="middle" x="1051.5" y="-951.5" font-family="sans" font-size="10.00" fill="#000000">shard_count_alns</text>
</g>
<!-- 6&#45;&gt;32 -->
<g id="edge62" class="edge">
<title>6&#45;&gt;32</title>
<path fill="none" stroke="#c0c0c0" stroke-width="2" d="M910.2805,-1019.8342C940.5933,-1005.7029 975.9068,-989.2403 1003.6378,-976.3126"/>
<polygon fill="#c0c0c0" stroke="#c0c0c0" stroke-width="2" points="1005.1486,-979.4699 1012.7333,-972.0724 1002.1909,-973.1255 1005.1486,-979.4699"/>
</g>
<!-- 40 -->
<g id="node41" class="node">
<title>40</title>
<path fill="none" stroke="#569ad8" stroke-width="2" d="M1130,-828C1130,-828 1001,-828 1001,-828 995,-828 989,-822 989,-816 989,-816 989,-804 989,-804 989,-798 995,-792 1001,-792 1001,-792 1130,-792 1130,-792 1136,-792 1142,-798 1142,-804 1142,-804 1142,-816 1142,-816 1142,-822 1136,-828 1130,-828"/>
<text text-anchor="middle" x="1065.5" y="-807.5" font-family="sans" font-size="10.00" fill="#000000">shard_saturated_reads_remove</text>
</g>
<!-- 6&#45;&gt;40 -->
<g id="edge71" class="edge">
<title>6&#45;&gt;40</title>
<path fill="none" stroke="#c0c0c0" stroke-width="2" d="M852.7538,-1007.7466C858.7445,-984.8067 868.6526,-957.0153 884.5,-936 919.4337,-889.6742 976.4326,-854.0426 1017.1328,-832.677"/>
<polygon fill="#c0c0c0" stroke="#c0c0c0" stroke-width="2" points="1018.7819,-835.7647 1026.071,-828.0757 1015.578,-829.5409 1018.7819,-835.7647"/>
</g>
<!-- 7 -->
<g id="node8" class="node">
<title>7</title>
<path fill="none" stroke="#56d882" stroke-width="2" d="M1476,-1093C1476,-1093 1369,-1093 1369,-1093 1363,-1093 1357,-1087 1357,-1081 1357,-1081 1357,-1020 1357,-1020 1357,-1014 1363,-1008 1369,-1008 1369,-1008 1476,-1008 1476,-1008 1482,-1008 1488,-1014 1488,-1020 1488,-1020 1488,-1081 1488,-1081 1488,-1087 1482,-1093 1476,-1093"/>
<text text-anchor="middle" x="1422.5" y="-1081" font-family="sans" font-size="10.00" fill="#000000">shard_bowtie2</text>
<text text-anchor="middle" x="1422.5" y="-1070" font-family="sans" font-size="10.00" fill="#000000">library: lib2</text>
<text text-anchor="middle" x="1422.5" y="-1059" font-family="sans" font-size="10.00" fill="#000000">n_shard: 2</text>
<text text-anchor="middle" x="1422.5" y="-1048" font-family="sans" font-size="10.00" fill="#000000">read_type_map: collapsed</text>
<text text-anchor="middle" x="1422.5" y="-1037" font-family="sans" font-size="10.00" fill="#000000">ref: wgs_eukaryota</text>
<text text-anchor="middle" x="1422.5" y="-1026" font-family="sans" font-size="10.00" fill="#000000">sample: HD827sonic_2</text>
<text text-anchor="middle" x="1422.5" y="-1015" font-family="sans" font-size="10.00" fill="#000000">tot_shards: 2</text>
</g>
<!-- 7&#45;&gt;1 -->
<g id="edge16" class="edge">
<title>7&#45;&gt;1</title>
<path fill="none" stroke="#c0c0c0" stroke-width="2" d="M1356.6055,-1033.3683C1321.209,-1024.6927 1276.7005,-1014.6228 1236.5,-1008 1158.9156,-995.2184 949.6815,-1015.9782 884.5,-972 837.977,-940.6107 789.5,-794.122 789.5,-738 789.5,-738 789.5,-738 789.5,-666 789.5,-511.9758 829.2901,-477.1689 845.5,-324 852.2435,-260.2803 850.944,-244.0567 852.5,-180 852.8885,-164.0047 857.6044,-159.1639 852.5,-144 849.1203,-133.9596 843.0495,-124.3047 836.5975,-116.0052"/>
<polygon fill="#c0c0c0" stroke="#c0c0c0" stroke-width="2" points="839.1879,-113.6461 830.104,-108.1933 833.8048,-118.1208 839.1879,-113.6461"/>
</g>
<!-- 48 -->
<g id="node49" class="node">
<title>48</title>
<path fill="none" stroke="#56d8c9" stroke-width="2" d="M1651,-972C1651,-972 1582,-972 1582,-972 1576,-972 1570,-966 1570,-960 1570,-960 1570,-948 1570,-948 1570,-942 1576,-936 1582,-936 1582,-936 1651,-936 1651,-936 1657,-936 1663,-942 1663,-948 1663,-948 1663,-960 1663,-960 1663,-966 1657,-972 1651,-972"/>
<text text-anchor="middle" x="1616.5" y="-951.5" font-family="sans" font-size="10.00" fill="#000000">shard_count_alns</text>
</g>
<!-- 7&#45;&gt;48 -->
<g id="edge85" class="edge">
<title>7&#45;&gt;48</title>
<path fill="none" stroke="#c0c0c0" stroke-width="2" d="M1488.083,-1012.3877C1490.9148,-1010.8835 1493.7291,-1009.4148 1496.5,-1008 1518.389,-996.8235 1543.0726,-985.5043 1564.3365,-976.136"/>
<polygon fill="#c0c0c0" stroke="#c0c0c0" stroke-width="2" points="1565.7738,-979.3276 1573.5318,-972.112 1562.9674,-972.9147 1565.7738,-979.3276"/>
</g>
<!-- 52 -->
<g id="node53" class="node">
<title>52</title>
<path fill="none" stroke="#569ad8" stroke-width="2" d="M1549,-828C1549,-828 1420,-828 1420,-828 1414,-828 1408,-822 1408,-816 1408,-816 1408,-804 1408,-804 1408,-798 1414,-792 1420,-792 1420,-792 1549,-792 1549,-792 1555,-792 1561,-798 1561,-804 1561,-804 1561,-816 1561,-816 1561,-822 1555,-828 1549,-828"/>
<text text-anchor="middle" x="1484.5" y="-807.5" font-family="sans" font-size="10.00" fill="#000000">shard_saturated_reads_remove</text>
</g>
<!-- 7&#45;&gt;52 -->
<g id="edge89" class="edge">
<title>7&#45;&gt;52</title>
<path fill="none" stroke="#c0c0c0" stroke-width="2" d="M1433.5129,-1007.7805C1446.152,-958.753 1466.5185,-879.7509 1477.2877,-837.9767"/>
<polygon fill="#c0c0c0" stroke="#c0c0c0" stroke-width="2" points="1480.7011,-838.7562 1479.8083,-828.1991 1473.9227,-837.0087 1480.7011,-838.7562"/>
</g>
<!-- 8 -->
<g id="node9" class="node">
<title>8</title>
<path fill="none" stroke="#56d882" stroke-width="2" d="M1216,-1093C1216,-1093 1109,-1093 1109,-1093 1103,-1093 1097,-1087 1097,-1081 1097,-1081 1097,-1020 1097,-1020 1097,-1014 1103,-1008 1109,-1008 1109,-1008 1216,-1008 1216,-1008 1222,-1008 1228,-1014 1228,-1020 1228,-1020 1228,-1081 1228,-1081 1228,-1087 1222,-1093 1216,-1093"/>
<text text-anchor="middle" x="1162.5" y="-1081" font-family="sans" font-size="10.00" fill="#000000">shard_bowtie2</text>
<text text-anchor="middle" x="1162.5" y="-1070" font-family="sans" font-size="10.00" fill="#000000">library: lib1</text>
<text text-anchor="middle" x="1162.5" y="-1059" font-family="sans" font-size="10.00" fill="#000000">n_shard: 2</text>
<text text-anchor="middle" x="1162.5" y="-1048" font-family="sans" font-size="10.00" fill="#000000">read_type_map: collapsed</text>
<text text-anchor="middle" x="1162.5" y="-1037" font-family="sans" font-size="10.00" fill="#000000">ref: wgs_eukaryota</text>
<text text-anchor="middle" x="1162.5" y="-1026" font-family="sans" font-size="10.00" fill="#000000">sample: HD827sonic_2</text>
<text text-anchor="middle" x="1162.5" y="-1015" font-family="sans" font-size="10.00" fill="#000000">tot_shards: 2</text>
</g>
<!-- 8&#45;&gt;1 -->
<g id="edge17" class="edge">
<title>8&#45;&gt;1</title>
<path fill="none" stroke="#c0c0c0" stroke-width="2" d="M1096.843,-1039.8958C1017.6083,-1026.0901 890.1821,-1000.3524 851.5,-972 783.2557,-921.9797 751.5,-894.6127 751.5,-810 751.5,-810 751.5,-810 751.5,-234 751.5,-193.1184 753.5049,-181.1817 770.5,-144 774.9775,-134.2043 781.492,-124.5125 788.0154,-116.1017"/>
<polygon fill="#c0c0c0" stroke="#c0c0c0" stroke-width="2" points="790.8772,-118.1297 794.4667,-108.1615 785.4444,-113.7156 790.8772,-118.1297"/>
</g>
<!-- 33 -->
<g id="node34" class="node">
<title>33</title>
<path fill="none" stroke="#56d8c9" stroke-width="2" d="M1197,-972C1197,-972 1128,-972 1128,-972 1122,-972 1116,-966 1116,-960 1116,-960 1116,-948 1116,-948 1116,-942 1122,-936 1128,-936 1128,-936 1197,-936 1197,-936 1203,-936 1209,-942 1209,-948 1209,-948 1209,-960 1209,-960 1209,-966 1203,-972 1197,-972"/>
<text text-anchor="middle" x="1162.5" y="-951.5" font-family="sans" font-size="10.00" fill="#000000">shard_count_alns</text>
</g>
<!-- 8&#45;&gt;33 -->
<g id="edge63" class="edge">
<title>8&#45;&gt;33</title>
<path fill="none" stroke="#c0c0c0" stroke-width="2" d="M1162.5,-1007.8928C1162.5,-999.2842 1162.5,-990.4327 1162.5,-982.4546"/>
<polygon fill="#c0c0c0" stroke="#c0c0c0" stroke-width="2" points="1166.0001,-982.2218 1162.5,-972.2218 1159.0001,-982.2218 1166.0001,-982.2218"/>
</g>
<!-- 37 -->
<g id="node38" class="node">
<title>37</title>
<path fill="none" stroke="#569ad8" stroke-width="2" d="M1301,-828C1301,-828 1172,-828 1172,-828 1166,-828 1160,-822 1160,-816 1160,-816 1160,-804 1160,-804 1160,-798 1166,-792 1172,-792 1172,-792 1301,-792 1301,-792 1307,-792 1313,-798 1313,-804 1313,-804 1313,-816 1313,-816 1313,-822 1307,-828 1301,-828"/>
<text text-anchor="middle" x="1236.5" y="-807.5" font-family="sans" font-size="10.00" fill="#000000">shard_saturated_reads_remove</text>
</g>
<!-- 8&#45;&gt;37 -->
<g id="edge67" class="edge">
<title>8&#45;&gt;37</title>
<path fill="none" stroke="#c0c0c0" stroke-width="2" d="M1198.0241,-1007.847C1205.613,-996.7717 1212.7611,-984.4405 1217.5,-972 1234.4357,-927.5403 1237.3256,-871.6626 1237.3114,-838.5027"/>
<polygon fill="#c0c0c0" stroke="#c0c0c0" stroke-width="2" points="1240.8082,-838.143 1237.2114,-828.1774 1233.8085,-838.2109 1240.8082,-838.143"/>
</g>
<!-- 9 -->
<g id="node10" class="node">
<title>9</title>
<path fill="none" stroke="#56d882" stroke-width="2" d="M425,-1093C425,-1093 318,-1093 318,-1093 312,-1093 306,-1087 306,-1081 306,-1081 306,-1020 306,-1020 306,-1014 312,-1008 318,-1008 318,-1008 425,-1008 425,-1008 431,-1008 437,-1014 437,-1020 437,-1020 437,-1081 437,-1081 437,-1087 431,-1093 425,-1093"/>
<text text-anchor="middle" x="371.5" y="-1081" font-family="sans" font-size="10.00" fill="#000000">shard_bowtie2</text>
<text text-anchor="middle" x="371.5" y="-1070" font-family="sans" font-size="10.00" fill="#000000">library: lib1</text>
<text text-anchor="middle" x="371.5" y="-1059" font-family="sans" font-size="10.00" fill="#000000">n_shard: 2</text>
<text text-anchor="middle" x="371.5" y="-1048" font-family="sans" font-size="10.00" fill="#000000">read_type_map: collapsed</text>
<text text-anchor="middle" x="371.5" y="-1037" font-family="sans" font-size="10.00" fill="#000000">ref: wgs_eukaryota</text>
<text text-anchor="middle" x="371.5" y="-1026" font-family="sans" font-size="10.00" fill="#000000">sample: HD827sonic_1</text>
<text text-anchor="middle" x="371.5" y="-1015" font-family="sans" font-size="10.00" fill="#000000">tot_shards: 2</text>
</g>
<!-- 9&#45;&gt;1 -->
<g id="edge18" class="edge">
<title>9&#45;&gt;1</title>
<path fill="none" stroke="#c0c0c0" stroke-width="2" d="M437.1412,-1009.6547C504.4969,-966.6271 599.5,-902.334 599.5,-882 599.5,-882 599.5,-882 599.5,-234 599.5,-188.6667 612.8115,-173.1859 647.5,-144 666.8889,-127.6867 732.1927,-109.3694 774.3118,-98.8094"/>
<polygon fill="#c0c0c0" stroke="#c0c0c0" stroke-width="2" points="775.3505,-102.1581 784.2186,-96.361 773.671,-95.3626 775.3505,-102.1581"/>
</g>
<!-- 18 -->
<g id="node19" class="node">
<title>18</title>
<path fill="none" stroke="#56d8c9" stroke-width="2" d="M286,-972C286,-972 217,-972 217,-972 211,-972 205,-966 205,-960 205,-960 205,-948 205,-948 205,-942 211,-936 217,-936 217,-936 286,-936 286,-936 292,-936 298,-942 298,-948 298,-948 298,-960 298,-960 298,-966 292,-972 286,-972"/>
<text text-anchor="middle" x="251.5" y="-951.5" font-family="sans" font-size="10.00" fill="#000000">shard_count_alns</text>
</g>
<!-- 9&#45;&gt;18 -->
<g id="edge41" class="edge">
<title>9&#45;&gt;18</title>
<path fill="none" stroke="#c0c0c0" stroke-width="2" d="M318.5169,-1007.8928C306.1089,-997.9147 293.295,-987.6101 282.2371,-978.7178"/>
<polygon fill="#c0c0c0" stroke="#c0c0c0" stroke-width="2" points="284.1454,-975.7611 274.1592,-972.2218 279.7587,-981.216 284.1454,-975.7611"/>
</g>
<!-- 22 -->
<g id="node23" class="node">
<title>22</title>
<path fill="none" stroke="#569ad8" stroke-width="2" d="M388,-828C388,-828 259,-828 259,-828 253,-828 247,-822 247,-816 247,-816 247,-804 247,-804 247,-798 253,-792 259,-792 259,-792 388,-792 388,-792 394,-792 400,-798 400,-804 400,-804 400,-816 400,-816 400,-822 394,-828 388,-828"/>
<text text-anchor="middle" x="323.5" y="-807.5" font-family="sans" font-size="10.00" fill="#000000">shard_saturated_reads_remove</text>
</g>
<!-- 9&#45;&gt;22 -->
<g id="edge45" class="edge">
<title>9&#45;&gt;22</title>
<path fill="none" stroke="#c0c0c0" stroke-width="2" d="M403.977,-1007.74C416.2343,-986.4152 425.4971,-960.0934 417.5,-936 404.3116,-896.2664 373.1773,-858.9096 350.3392,-835.3476"/>
<polygon fill="#c0c0c0" stroke="#c0c0c0" stroke-width="2" points="352.7754,-832.8337 343.2491,-828.1969 347.8046,-837.7623 352.7754,-832.8337"/>
</g>
<!-- 10 -->
<g id="node11" class="node">
<title>10</title>
<path fill="none" stroke="#56d882" stroke-width="2" d="M749,-1093C749,-1093 642,-1093 642,-1093 636,-1093 630,-1087 630,-1081 630,-1081 630,-1020 630,-1020 630,-1014 636,-1008 642,-1008 642,-1008 749,-1008 749,-1008 755,-1008 761,-1014 761,-1020 761,-1020 761,-1081 761,-1081 761,-1087 755,-1093 749,-1093"/>
<text text-anchor="middle" x="695.5" y="-1081" font-family="sans" font-size="10.00" fill="#000000">shard_bowtie2</text>
<text text-anchor="middle" x="695.5" y="-1070" font-family="sans" font-size="10.00" fill="#000000">library: lib1</text>
<text text-anchor="middle" x="695.5" y="-1059" font-family="sans" font-size="10.00" fill="#000000">n_shard: 1</text>
<text text-anchor="middle" x="695.5" y="-1048" font-family="sans" font-size="10.00" fill="#000000">read_type_map: collapsed</text>
<text text-anchor="middle" x="695.5" y="-1037" font-family="sans" font-size="10.00" fill="#000000">ref: wgs_eukaryota</text>
<text text-anchor="middle" x="695.5" y="-1026" font-family="sans" font-size="10.00" fill="#000000">sample: HD827sonic_2</text>
<text text-anchor="middle" x="695.5" y="-1015" font-family="sans" font-size="10.00" fill="#000000">tot_shards: 2</text>
</g>
<!-- 10&#45;&gt;1 -->
<g id="edge19" class="edge">
<title>10&#45;&gt;1</title>
<path fill="none" stroke="#c0c0c0" stroke-width="2" d="M687.5955,-1007.7273C682.0051,-973.7673 675.5,-925.0099 675.5,-882 675.5,-882 675.5,-882 675.5,-234 675.5,-190.2273 686.0391,-176.3744 715.5,-144 731.7587,-126.1334 755.3482,-112.7504 775.0743,-103.7767"/>
<polygon fill="#c0c0c0" stroke="#c0c0c0" stroke-width="2" points="776.6217,-106.9205 784.3986,-99.7253 773.8321,-100.5003 776.6217,-106.9205"/>
</g>
<!-- 30 -->
<g id="node31" class="node">
<title>30</title>
<path fill="none" stroke="#569ad8" stroke-width="2" d="M959,-828C959,-828 830,-828 830,-828 824,-828 818,-822 818,-816 818,-816 818,-804 818,-804 818,-798 824,-792 830,-792 830,-792 959,-792 959,-792 965,-792 971,-798 971,-804 971,-804 971,-816 971,-816 971,-822 965,-828 959,-828"/>
<text text-anchor="middle" x="894.5" y="-807.5" font-family="sans" font-size="10.00" fill="#000000">shard_saturated_reads_remove</text>
</g>
<!-- 10&#45;&gt;30 -->
<g id="edge57" class="edge">
<title>10&#45;&gt;30</title>
<path fill="none" stroke="#c0c0c0" stroke-width="2" d="M715.9376,-1007.7086C736.6149,-967.4345 771.4751,-907.0406 813.5,-864 824.7354,-852.4931 838.8096,-842.0796 852.0598,-833.5366"/>
<polygon fill="#c0c0c0" stroke="#c0c0c0" stroke-width="2" points="853.98,-836.464 860.6101,-828.2001 850.2736,-830.5257 853.98,-836.464"/>
</g>
<!-- 34 -->
<g id="node35" class="node">
<title>34</title>
<path fill="none" stroke="#56d8c9" stroke-width="2" d="M975,-972C975,-972 906,-972 906,-972 900,-972 894,-966 894,-960 894,-960 894,-948 894,-948 894,-942 900,-936 906,-936 906,-936 975,-936 975,-936 981,-936 987,-942 987,-948 987,-948 987,-960 987,-960 987,-966 981,-972 975,-972"/>
<text text-anchor="middle" x="940.5" y="-951.5" font-family="sans" font-size="10.00" fill="#000000">shard_count_alns</text>
</g>
<!-- 10&#45;&gt;34 -->
<g id="edge64" class="edge">
<title>10&#45;&gt;34</title>
<path fill="none" stroke="#c0c0c0" stroke-width="2" d="M761.2981,-1011.7739C764.0459,-1010.4551 766.7868,-1009.1909 769.5,-1008 806.6031,-991.7147 850.179,-978.0307 884.0557,-968.5124"/>
<polygon fill="#c0c0c0" stroke="#c0c0c0" stroke-width="2" points="885.0857,-971.8589 893.7888,-965.8169 883.2174,-965.1128 885.0857,-971.8589"/>
</g>
<!-- 11 -->
<g id="node12" class="node">
<title>11</title>
<path fill="none" stroke="#ced856" stroke-width="2" d="M499.5,-468C499.5,-468 459.5,-468 459.5,-468 453.5,-468 447.5,-462 447.5,-456 447.5,-456 447.5,-444 447.5,-444 447.5,-438 453.5,-432 459.5,-432 459.5,-432 499.5,-432 499.5,-432 505.5,-432 511.5,-438 511.5,-444 511.5,-444 511.5,-456 511.5,-456 511.5,-462 505.5,-468 499.5,-468"/>
<text text-anchor="middle" x="479.5" y="-447.5" font-family="sans" font-size="10.00" fill="#000000">align_stats</text>
</g>
<!-- 11&#45;&gt;1 -->
<g id="edge20" class="edge">
<title>11&#45;&gt;1</title>
<path fill="none" stroke="#c0c0c0" stroke-width="2" d="M498.1071,-431.8719C522.3005,-406.2662 561.5,-356.9215 561.5,-306 561.5,-306 561.5,-306 561.5,-234 561.5,-192.6022 555.8484,-172.8887 585.5,-144 588.9213,-140.6667 711.0535,-112.6925 774.3185,-98.3741"/>
<polygon fill="#c0c0c0" stroke="#c0c0c0" stroke-width="2" points="775.3243,-101.7351 784.3065,-96.1163 773.7808,-94.9074 775.3243,-101.7351"/>
</g>
<!-- 12 -->
<g id="node13" class="node">
<title>12</title>
<path fill="none" stroke="#d88556" stroke-width="2" d="M379,-612C379,-612 334,-612 334,-612 328,-612 322,-606 322,-600 322,-600 322,-588 322,-588 322,-582 328,-576 334,-576 334,-576 379,-576 379,-576 385,-576 391,-582 391,-588 391,-588 391,-600 391,-600 391,-606 385,-612 379,-612"/>
<text text-anchor="middle" x="356.5" y="-591.5" font-family="sans" font-size="10.00" fill="#000000">align_merge</text>
</g>
<!-- 12&#45;&gt;11 -->
<g id="edge29" class="edge">
<title>12&#45;&gt;11</title>
<path fill="none" stroke="#c0c0c0" stroke-width="2" d="M375.6892,-575.5147C386.0074,-565.3141 398.7773,-552.2615 409.5,-540 427.5292,-519.3835 446.5173,-494.7627 460.1614,-476.4881"/>
<polygon fill="#c0c0c0" stroke="#c0c0c0" stroke-width="2" points="463.2572,-478.1893 466.4025,-468.0721 457.6346,-474.0197 463.2572,-478.1893"/>
</g>
<!-- 60 -->
<g id="node61" class="node">
<title>60</title>
<path fill="none" stroke="#d8b456" stroke-width="2" d="M388.5,-540C388.5,-540 324.5,-540 324.5,-540 318.5,-540 312.5,-534 312.5,-528 312.5,-528 312.5,-516 312.5,-516 312.5,-510 318.5,-504 324.5,-504 324.5,-504 388.5,-504 388.5,-504 394.5,-504 400.5,-510 400.5,-516 400.5,-516 400.5,-528 400.5,-528 400.5,-534 394.5,-540 388.5,-540"/>
<text text-anchor="middle" x="356.5" y="-519.5" font-family="sans" font-size="10.00" fill="#000000">align_sort_coord</text>
</g>
<!-- 12&#45;&gt;60 -->
<g id="edge99" class="edge">
<title>12&#45;&gt;60</title>
<path fill="none" stroke="#c0c0c0" stroke-width="2" d="M356.5,-575.8314C356.5,-568.131 356.5,-558.9743 356.5,-550.4166"/>
<polygon fill="#c0c0c0" stroke="#c0c0c0" stroke-width="2" points="360.0001,-550.4132 356.5,-540.4133 353.0001,-550.4133 360.0001,-550.4132"/>
</g>
<!-- 13 -->
<g id="node14" class="node">
<title>13</title>
<path fill="none" stroke="#5682d8" stroke-width="2" d="M172.5,-684C172.5,-684 104.5,-684 104.5,-684 98.5,-684 92.5,-678 92.5,-672 92.5,-672 92.5,-660 92.5,-660 92.5,-654 98.5,-648 104.5,-648 104.5,-648 172.5,-648 172.5,-648 178.5,-648 184.5,-654 184.5,-660 184.5,-660 184.5,-672 184.5,-672 184.5,-678 178.5,-684 172.5,-684"/>
<text text-anchor="middle" x="138.5" y="-663.5" font-family="sans" font-size="10.00" fill="#000000">shard_sort_query</text>
</g>
<!-- 13&#45;&gt;12 -->
<g id="edge30" class="edge">
<title>13&#45;&gt;12</title>
<path fill="none" stroke="#c0c0c0" stroke-width="2" d="M184.7322,-650.7307C222.3642,-638.3017 275.138,-620.8719 312.2303,-608.6212"/>
<polygon fill="#c0c0c0" stroke="#c0c0c0" stroke-width="2" points="313.3787,-611.9279 321.7765,-605.4683 311.1833,-605.2811 313.3787,-611.9279"/>
</g>
<!-- 14 -->
<g id="node15" class="node">
<title>14</title>
<path fill="none" stroke="#566bd8" stroke-width="2" d="M152,-756C152,-756 99,-756 99,-756 93,-756 87,-750 87,-744 87,-744 87,-732 87,-732 87,-726 93,-720 99,-720 99,-720 152,-720 152,-720 158,-720 164,-726 164,-732 164,-732 164,-744 164,-744 164,-750 158,-756 152,-756"/>
<text text-anchor="middle" x="125.5" y="-735.5" font-family="sans" font-size="10.00" fill="#000000">shard_unicorn</text>
</g>
<!-- 14&#45;&gt;13 -->
<g id="edge33" class="edge">
<title>14&#45;&gt;13</title>
<path fill="none" stroke="#c0c0c0" stroke-width="2" d="M128.7804,-719.8314C130.1708,-712.131 131.8241,-702.9743 133.3692,-694.4166"/>
<polygon fill="#c0c0c0" stroke="#c0c0c0" stroke-width="2" points="136.8428,-694.8761 135.1754,-684.4133 129.9542,-693.6322 136.8428,-694.8761"/>
</g>
<!-- 15&#45;&gt;14 -->
<g id="edge34" class="edge">
<title>15&#45;&gt;14</title>
<path fill="none" stroke="#c0c0c0" stroke-width="2" d="M116.5281,-791.8314C117.8115,-784.131 119.3376,-774.9743 120.7639,-766.4166"/>
<polygon fill="#c0c0c0" stroke="#c0c0c0" stroke-width="2" points="124.2394,-766.8526 122.4311,-756.4133 117.3347,-765.7018 124.2394,-766.8526"/>
</g>
<!-- 16 -->
<g id="node17" class="node">
<title>16</title>
<path fill="none" stroke="#56b1d8" stroke-width="2" d="M309.5,-900C309.5,-900 193.5,-900 193.5,-900 187.5,-900 181.5,-894 181.5,-888 181.5,-888 181.5,-876 181.5,-876 181.5,-870 187.5,-864 193.5,-864 193.5,-864 309.5,-864 309.5,-864 315.5,-864 321.5,-870 321.5,-876 321.5,-876 321.5,-888 321.5,-888 321.5,-894 315.5,-900 309.5,-900"/>
<text text-anchor="middle" x="251.5" y="-879.5" font-family="sans" font-size="10.00" fill="#000000">shard_saturated_reads_filter</text>
</g>
<!-- 16&#45;&gt;15 -->
<g id="edge36" class="edge">
<title>16&#45;&gt;15</title>
<path fill="none" stroke="#c0c0c0" stroke-width="2" d="M216.6768,-863.8314C198.6989,-854.4516 176.5797,-842.9112 157.4384,-832.9244"/>
<polygon fill="#c0c0c0" stroke="#c0c0c0" stroke-width="2" points="158.7969,-829.6855 148.3121,-828.1628 155.5589,-835.8916 158.7969,-829.6855"/>
</g>
<!-- 16&#45;&gt;22 -->
<g id="edge46" class="edge">
<title>16&#45;&gt;22</title>
<path fill="none" stroke="#c0c0c0" stroke-width="2" d="M269.6686,-863.8314C278.2152,-855.2848 288.5557,-844.9443 297.8802,-835.6198"/>
<polygon fill="#c0c0c0" stroke="#c0c0c0" stroke-width="2" points="300.4905,-837.9592 305.0867,-828.4133 295.5408,-833.0095 300.4905,-837.9592"/>
</g>
<!-- 16&#45;&gt;25 -->
<g id="edge50" class="edge">
<title>16&#45;&gt;25</title>
<path fill="none" stroke="#c0c0c0" stroke-width="2" d="M312.5055,-863.9243C346.3028,-853.9103 388.4844,-841.412 423.7262,-830.97"/>
<polygon fill="#c0c0c0" stroke="#c0c0c0" stroke-width="2" points="424.8757,-834.2799 433.4694,-828.0831 422.8871,-827.5683 424.8757,-834.2799"/>
</g>
<!-- 74 -->
<g id="node75" class="node">
<title>74</title>
<path fill="none" stroke="#56c9d8" stroke-width="2" d="M441,-108C441,-108 314,-108 314,-108 308,-108 302,-102 302,-96 302,-96 302,-84 302,-84 302,-78 308,-72 314,-72 314,-72 441,-72 441,-72 447,-72 453,-78 453,-84 453,-84 453,-96 453,-96 453,-102 447,-108 441,-108"/>
<text text-anchor="middle" x="377.5" y="-87.5" font-family="sans" font-size="10.00" fill="#000000">shard_saturated_reads_extract</text>
</g>
<!-- 16&#45;&gt;74 -->
<g id="edge116" class="edge">
<title>16&#45;&gt;74</title>
<path fill="none" stroke="#c0c0c0" stroke-width="2" d="M244.5015,-863.6679C234.8147,-836.6028 218.5,-784.1665 218.5,-738 218.5,-738 218.5,-738 218.5,-234 218.5,-176.2162 276.9058,-135.5797 322.9203,-112.5311"/>
<polygon fill="#c0c0c0" stroke="#c0c0c0" stroke-width="2" points="324.4681,-115.6704 331.937,-108.156 321.4122,-109.3726 324.4681,-115.6704"/>
</g>
<!-- 17&#45;&gt;16 -->
<g id="edge37" class="edge">
<title>17&#45;&gt;16</title>
<path fill="none" stroke="#c0c0c0" stroke-width="2" d="M334.49,-935.8314C320.4239,-926.7074 303.206,-915.539 288.1067,-905.7449"/>
<polygon fill="#c0c0c0" stroke="#c0c0c0" stroke-width="2" points="289.7953,-902.6684 279.501,-900.1628 285.986,-908.5412 289.7953,-902.6684"/>
</g>
<!-- 18&#45;&gt;16 -->
<g id="edge38" class="edge">
<title>18&#45;&gt;16</title>
<path fill="none" stroke="#c0c0c0" stroke-width="2" d="M251.5,-935.8314C251.5,-928.131 251.5,-918.9743 251.5,-910.4166"/>
<polygon fill="#c0c0c0" stroke="#c0c0c0" stroke-width="2" points="255.0001,-910.4132 251.5,-900.4133 248.0001,-910.4133 255.0001,-910.4132"/>
</g>
<!-- 19&#45;&gt;16 -->
<g id="edge39" class="edge">
<title>19&#45;&gt;16</title>
<path fill="none" stroke="#c0c0c0" stroke-width="2" d="M168.51,-935.8314C182.5761,-926.7074 199.794,-915.539 214.8933,-905.7449"/>
<polygon fill="#c0c0c0" stroke="#c0c0c0" stroke-width="2" points="217.014,-908.5412 223.499,-900.1628 213.2047,-902.6684 217.014,-908.5412"/>
</g>
<!-- 20 -->
<g id="node21" class="node">
<title>20</title>
<path fill="none" stroke="#5682d8" stroke-width="2" d="M374.5,-684C374.5,-684 306.5,-684 306.5,-684 300.5,-684 294.5,-678 294.5,-672 294.5,-672 294.5,-660 294.5,-660 294.5,-654 300.5,-648 306.5,-648 306.5,-648 374.5,-648 374.5,-648 380.5,-648 386.5,-654 386.5,-660 386.5,-660 386.5,-672 386.5,-672 386.5,-678 380.5,-684 374.5,-684"/>
<text text-anchor="middle" x="340.5" y="-663.5" font-family="sans" font-size="10.00" fill="#000000">shard_sort_query</text>
</g>
<!-- 20&#45;&gt;12 -->
<g id="edge31" class="edge">
<title>20&#45;&gt;12</title>
<path fill="none" stroke="#c0c0c0" stroke-width="2" d="M344.5375,-647.8314C346.2487,-640.131 348.2835,-630.9743 350.1852,-622.4166"/>
<polygon fill="#c0c0c0" stroke="#c0c0c0" stroke-width="2" points="353.6554,-622.9344 352.4082,-612.4133 346.8221,-621.4159 353.6554,-622.9344"/>
</g>
<!-- 21 -->
<g id="node22" class="node">
<title>21</title>
<path fill="none" stroke="#566bd8" stroke-width="2" d="M358,-756C358,-756 305,-756 305,-756 299,-756 293,-750 293,-744 293,-744 293,-732 293,-732 293,-726 299,-720 305,-720 305,-720 358,-720 358,-720 364,-720 370,-726 370,-732 370,-732 370,-744 370,-744 370,-750 364,-756 358,-756"/>
<text text-anchor="middle" x="331.5" y="-735.5" font-family="sans" font-size="10.00" fill="#000000">shard_unicorn</text>
</g>
<!-- 21&#45;&gt;20 -->
<g id="edge43" class="edge">
<title>21&#45;&gt;20</title>
<path fill="none" stroke="#c0c0c0" stroke-width="2" d="M333.7711,-719.8314C334.7336,-712.131 335.8782,-702.9743 336.9479,-694.4166"/>
<polygon fill="#c0c0c0" stroke="#c0c0c0" stroke-width="2" points="340.4309,-694.7702 338.1983,-684.4133 333.4849,-693.9019 340.4309,-694.7702"/>
</g>
<!-- 22&#45;&gt;21 -->
<g id="edge44" class="edge">
<title>22&#45;&gt;21</title>
<path fill="none" stroke="#c0c0c0" stroke-width="2" d="M325.5187,-791.8314C326.3743,-784.131 327.3917,-774.9743 328.3426,-766.4166"/>
<polygon fill="#c0c0c0" stroke="#c0c0c0" stroke-width="2" points="331.8283,-766.7386 329.4541,-756.4133 324.8711,-765.9656 331.8283,-766.7386"/>
</g>
<!-- 23 -->
<g id="node24" class="node">
<title>23</title>
<path fill="none" stroke="#5682d8" stroke-width="2" d="M499.5,-684C499.5,-684 431.5,-684 431.5,-684 425.5,-684 419.5,-678 419.5,-672 419.5,-672 419.5,-660 419.5,-660 419.5,-654 425.5,-648 431.5,-648 431.5,-648 499.5,-648 499.5,-648 505.5,-648 511.5,-654 511.5,-660 511.5,-660 511.5,-672 511.5,-672 511.5,-678 505.5,-684 499.5,-684"/>
<text text-anchor="middle" x="465.5" y="-663.5" font-family="sans" font-size="10.00" fill="#000000">shard_sort_query</text>
</g>
<!-- 23&#45;&gt;12 -->
<g id="edge32" class="edge">
<title>23&#45;&gt;12</title>
<path fill="none" stroke="#c0c0c0" stroke-width="2" d="M437.9947,-647.8314C424.182,-638.7074 407.2744,-627.539 392.4471,-617.7449"/>
<polygon fill="#c0c0c0" stroke="#c0c0c0" stroke-width="2" points="394.2696,-614.7541 383.9965,-612.1628 390.4114,-620.5949 394.2696,-614.7541"/>
</g>
<!-- 24 -->
<g id="node25" class="node">
<title>24</title>
<path fill="none" stroke="#566bd8" stroke-width="2" d="M507,-756C507,-756 454,-756 454,-756 448,-756 442,-750 442,-744 442,-744 442,-732 442,-732 442,-726 448,-720 454,-720 454,-720 507,-720 507,-720 513,-720 519,-726 519,-732 519,-732 519,-744 519,-744 519,-750 513,-756 507,-756"/>
<text text-anchor="middle" x="480.5" y="-735.5" font-family="sans" font-size="10.00" fill="#000000">shard_unicorn</text>
</g>
<!-- 24&#45;&gt;23 -->
<g id="edge47" class="edge">
<title>24&#45;&gt;23</title>
<path fill="none" stroke="#c0c0c0" stroke-width="2" d="M476.7149,-719.8314C475.1106,-712.131 473.203,-702.9743 471.4201,-694.4166"/>
<polygon fill="#c0c0c0" stroke="#c0c0c0" stroke-width="2" points="474.8021,-693.4892 469.3361,-684.4133 467.9493,-694.9169 474.8021,-693.4892"/>
</g>
<!-- 25&#45;&gt;24 -->
<g id="edge48" class="edge">
<title>25&#45;&gt;24</title>
<path fill="none" stroke="#c0c0c0" stroke-width="2" d="M490.9672,-791.8314C489.4699,-784.131 487.6895,-774.9743 486.0255,-766.4166"/>
<polygon fill="#c0c0c0" stroke="#c0c0c0" stroke-width="2" points="489.4248,-765.5614 484.0804,-756.4133 482.5535,-766.8975 489.4248,-765.5614"/>
</g>
<!-- 26 -->
<g id="node27" class="node">
<title>26</title>
<path fill="none" stroke="#ced856" stroke-width="2" d="M831.5,-180C831.5,-180 791.5,-180 791.5,-180 785.5,-180 779.5,-174 779.5,-168 779.5,-168 779.5,-156 779.5,-156 779.5,-150 785.5,-144 791.5,-144 791.5,-144 831.5,-144 831.5,-144 837.5,-144 843.5,-150 843.5,-156 843.5,-156 843.5,-168 843.5,-168 843.5,-174 837.5,-180 831.5,-180"/>
<text text-anchor="middle" x="811.5" y="-159.5" font-family="sans" font-size="10.00" fill="#000000">align_stats</text>
</g>
<!-- 26&#45;&gt;1 -->
<g id="edge21" class="edge">
<title>26&#45;&gt;1</title>
<path fill="none" stroke="#c0c0c0" stroke-width="2" d="M811.5,-143.8314C811.5,-136.131 811.5,-126.9743 811.5,-118.4166"/>
<polygon fill="#c0c0c0" stroke="#c0c0c0" stroke-width="2" points="815.0001,-118.4132 811.5,-108.4133 808.0001,-118.4133 815.0001,-118.4132"/>
</g>
<!-- 27 -->
<g id="node28" class="node">
<title>27</title>
<path fill="none" stroke="#d88556" stroke-width="2" d="M1088,-612C1088,-612 1043,-612 1043,-612 1037,-612 1031,-606 1031,-600 1031,-600 1031,-588 1031,-588 1031,-582 1037,-576 1043,-576 1043,-576 1088,-576 1088,-576 1094,-576 1100,-582 1100,-588 1100,-588 1100,-600 1100,-600 1100,-606 1094,-612 1088,-612"/>
<text text-anchor="middle" x="1065.5" y="-591.5" font-family="sans" font-size="10.00" fill="#000000">align_merge</text>
</g>
<!-- 27&#45;&gt;26 -->
<g id="edge51" class="edge">
<title>27&#45;&gt;26</title>
<path fill="none" stroke="#c0c0c0" stroke-width="2" d="M1030.9725,-589.0361C965.8815,-577.5204 831.5,-542.54 831.5,-450 831.5,-450 831.5,-450 831.5,-306 831.5,-265.3124 823.5696,-218.7676 817.6963,-189.8757"/>
<polygon fill="#c0c0c0" stroke="#c0c0c0" stroke-width="2" points="821.1191,-189.144 815.644,-180.0735 814.2676,-190.5786 821.1191,-189.144"/>
</g>
<!-- 65 -->
<g id="node66" class="node">
<title>65</title>
<path fill="none" stroke="#d8b456" stroke-width="2" d="M1100.5,-540C1100.5,-540 1036.5,-540 1036.5,-540 1030.5,-540 1024.5,-534 1024.5,-528 1024.5,-528 1024.5,-516 1024.5,-516 1024.5,-510 1030.5,-504 1036.5,-504 1036.5,-504 1100.5,-504 1100.5,-504 1106.5,-504 1112.5,-510 1112.5,-516 1112.5,-516 1112.5,-528 1112.5,-528 1112.5,-534 1106.5,-540 1100.5,-540"/>
<text text-anchor="middle" x="1068.5" y="-519.5" font-family="sans" font-size="10.00" fill="#000000">align_sort_coord</text>
</g>
<!-- 27&#45;&gt;65 -->
<g id="edge104" class="edge">
<title>27&#45;&gt;65</title>
<path fill="none" stroke="#c0c0c0" stroke-width="2" d="M1066.257,-575.8314C1066.5779,-568.131 1066.9594,-558.9743 1067.316,-550.4166"/>
<polygon fill="#c0c0c0" stroke="#c0c0c0" stroke-width="2" points="1070.8133,-550.5503 1067.7328,-540.4133 1063.8194,-550.2589 1070.8133,-550.5503"/>
</g>
<!-- 28 -->
<g id="node29" class="node">
<title>28</title>
<path fill="none" stroke="#5682d8" stroke-width="2" d="M959.5,-684C959.5,-684 891.5,-684 891.5,-684 885.5,-684 879.5,-678 879.5,-672 879.5,-672 879.5,-660 879.5,-660 879.5,-654 885.5,-648 891.5,-648 891.5,-648 959.5,-648 959.5,-648 965.5,-648 971.5,-654 971.5,-660 971.5,-660 971.5,-672 971.5,-672 971.5,-678 965.5,-684 959.5,-684"/>
<text text-anchor="middle" x="925.5" y="-663.5" font-family="sans" font-size="10.00" fill="#000000">shard_sort_query</text>
</g>
<!-- 28&#45;&gt;27 -->
<g id="edge52" class="edge">
<title>28&#45;&gt;27</title>
<path fill="none" stroke="#c0c0c0" stroke-width="2" d="M960.8279,-647.8314C979.2891,-638.337 1002.0548,-626.6289 1021.635,-616.5591"/>
<polygon fill="#c0c0c0" stroke="#c0c0c0" stroke-width="2" points="1023.3762,-619.5995 1030.6684,-611.9134 1020.1747,-613.3744 1023.3762,-619.5995"/>
</g>
<!-- 29 -->
<g id="node30" class="node">
<title>29</title>
<path fill="none" stroke="#566bd8" stroke-width="2" d="M937,-756C937,-756 884,-756 884,-756 878,-756 872,-750 872,-744 872,-744 872,-732 872,-732 872,-726 878,-720 884,-720 884,-720 937,-720 937,-720 943,-720 949,-726 949,-732 949,-732 949,-744 949,-744 949,-750 943,-756 937,-756"/>
<text text-anchor="middle" x="910.5" y="-735.5" font-family="sans" font-size="10.00" fill="#000000">shard_unicorn</text>
</g>
<!-- 29&#45;&gt;28 -->
<g id="edge55" class="edge">
<title>29&#45;&gt;28</title>
<path fill="none" stroke="#c0c0c0" stroke-width="2" d="M914.2851,-719.8314C915.8894,-712.131 917.797,-702.9743 919.5799,-694.4166"/>
<polygon fill="#c0c0c0" stroke="#c0c0c0" stroke-width="2" points="923.0507,-694.9169 921.6639,-684.4133 916.1979,-693.4892 923.0507,-694.9169"/>
</g>
<!-- 30&#45;&gt;29 -->
<g id="edge56" class="edge">
<title>30&#45;&gt;29</title>
<path fill="none" stroke="#c0c0c0" stroke-width="2" d="M898.5375,-791.8314C900.2487,-784.131 902.2835,-774.9743 904.1852,-766.4166"/>
<polygon fill="#c0c0c0" stroke="#c0c0c0" stroke-width="2" points="907.6554,-766.9344 906.4082,-756.4133 900.8221,-765.4159 907.6554,-766.9344"/>
</g>
<!-- 31 -->
<g id="node32" class="node">
<title>31</title>
<path fill="none" stroke="#56b1d8" stroke-width="2" d="M1123.5,-900C1123.5,-900 1007.5,-900 1007.5,-900 1001.5,-900 995.5,-894 995.5,-888 995.5,-888 995.5,-876 995.5,-876 995.5,-870 1001.5,-864 1007.5,-864 1007.5,-864 1123.5,-864 1123.5,-864 1129.5,-864 1135.5,-870 1135.5,-876 1135.5,-876 1135.5,-888 1135.5,-888 1135.5,-894 1129.5,-900 1123.5,-900"/>
<text text-anchor="middle" x="1065.5" y="-879.5" font-family="sans" font-size="10.00" fill="#000000">shard_saturated_reads_filter</text>
</g>
<!-- 31&#45;&gt;30 -->
<g id="edge58" class="edge">
<title>31&#45;&gt;30</title>
<path fill="none" stroke="#c0c0c0" stroke-width="2" d="M1022.3495,-863.8314C999.3776,-854.159 970.9491,-842.1891 946.7368,-831.9944"/>
<polygon fill="#c0c0c0" stroke="#c0c0c0" stroke-width="2" points="947.9148,-828.6929 937.3402,-828.038 945.1984,-835.1443 947.9148,-828.6929"/>
</g>
<!-- 31&#45;&gt;37 -->
<g id="edge68" class="edge">
<title>31&#45;&gt;37</title>
<path fill="none" stroke="#c0c0c0" stroke-width="2" d="M1108.6505,-863.8314C1131.6224,-854.159 1160.0509,-842.1891 1184.2632,-831.9944"/>
<polygon fill="#c0c0c0" stroke="#c0c0c0" stroke-width="2" points="1185.8016,-835.1443 1193.6598,-828.038 1183.0852,-828.6929 1185.8016,-835.1443"/>
</g>
<!-- 31&#45;&gt;40 -->
<g id="edge72" class="edge">
<title>31&#45;&gt;40</title>
<path fill="none" stroke="#c0c0c0" stroke-width="2" d="M1065.5,-863.8314C1065.5,-856.131 1065.5,-846.9743 1065.5,-838.4166"/>
<polygon fill="#c0c0c0" stroke="#c0c0c0" stroke-width="2" points="1069.0001,-838.4132 1065.5,-828.4133 1062.0001,-838.4133 1069.0001,-838.4132"/>
</g>
<!-- 75 -->
<g id="node76" class="node">
<title>75</title>
<path fill="none" stroke="#56c9d8" stroke-width="2" d="M1338,-540C1338,-540 1211,-540 1211,-540 1205,-540 1199,-534 1199,-528 1199,-528 1199,-516 1199,-516 1199,-510 1205,-504 1211,-504 1211,-504 1338,-504 1338,-504 1344,-504 1350,-510 1350,-516 1350,-516 1350,-528 1350,-528 1350,-534 1344,-540 1338,-540"/>
<text text-anchor="middle" x="1274.5" y="-519.5" font-family="sans" font-size="10.00" fill="#000000">shard_saturated_reads_extract</text>
</g>
<!-- 31&#45;&gt;75 -->
<g id="edge117" class="edge">
<title>31&#45;&gt;75</title>
<path fill="none" stroke="#c0c0c0" stroke-width="2" d="M1135.6017,-875.6955C1202.1253,-868.2607 1295.6671,-853.556 1321.5,-828 1350.63,-799.1823 1341.5,-778.9758 1341.5,-738 1341.5,-738 1341.5,-738 1341.5,-666 1341.5,-621.7121 1315.1258,-576.3128 1295.4724,-548.6304"/>
<polygon fill="#c0c0c0" stroke="#c0c0c0" stroke-width="2" points="1298.099,-546.293 1289.3695,-540.2891 1292.4496,-550.4263 1298.099,-546.293"/>
</g>
<!-- 32&#45;&gt;31 -->
<g id="edge59" class="edge">
<title>32&#45;&gt;31</title>
<path fill="none" stroke="#c0c0c0" stroke-width="2" d="M1055.0328,-935.8314C1056.5301,-928.131 1058.3105,-918.9743 1059.9745,-910.4166"/>
<polygon fill="#c0c0c0" stroke="#c0c0c0" stroke-width="2" points="1063.4465,-910.8975 1061.9196,-900.4133 1056.5752,-909.5614 1063.4465,-910.8975"/>
</g>
<!-- 33&#45;&gt;31 -->
<g id="edge60" class="edge">
<title>33&#45;&gt;31</title>
<path fill="none" stroke="#c0c0c0" stroke-width="2" d="M1138.0228,-935.8314C1125.9605,-926.8779 1111.246,-915.9558 1098.2314,-906.2955"/>
<polygon fill="#c0c0c0" stroke="#c0c0c0" stroke-width="2" points="1100.0852,-903.3127 1089.9694,-900.1628 1095.913,-908.9335 1100.0852,-903.3127"/>
</g>
<!-- 34&#45;&gt;31 -->
<g id="edge61" class="edge">
<title>34&#45;&gt;31</title>
<path fill="none" stroke="#c0c0c0" stroke-width="2" d="M972.0428,-935.8314C988.1791,-926.5368 1007.9986,-915.1208 1025.2272,-905.1971"/>
<polygon fill="#c0c0c0" stroke="#c0c0c0" stroke-width="2" points="1027.0489,-908.187 1033.9673,-900.1628 1023.555,-902.1212 1027.0489,-908.187"/>
</g>
<!-- 35 -->
<g id="node36" class="node">
<title>35</title>
<path fill="none" stroke="#5682d8" stroke-width="2" d="M1239.5,-684C1239.5,-684 1171.5,-684 1171.5,-684 1165.5,-684 1159.5,-678 1159.5,-672 1159.5,-672 1159.5,-660 1159.5,-660 1159.5,-654 1165.5,-648 1171.5,-648 1171.5,-648 1239.5,-648 1239.5,-648 1245.5,-648 1251.5,-654 1251.5,-660 1251.5,-660 1251.5,-672 1251.5,-672 1251.5,-678 1245.5,-684 1239.5,-684"/>
<text text-anchor="middle" x="1205.5" y="-663.5" font-family="sans" font-size="10.00" fill="#000000">shard_sort_query</text>
</g>
<!-- 35&#45;&gt;27 -->
<g id="edge53" class="edge">
<title>35&#45;&gt;27</title>
<path fill="none" stroke="#c0c0c0" stroke-width="2" d="M1170.1721,-647.8314C1151.7109,-638.337 1128.9452,-626.6289 1109.365,-616.5591"/>
<polygon fill="#c0c0c0" stroke="#c0c0c0" stroke-width="2" points="1110.8253,-613.3744 1100.3316,-611.9134 1107.6238,-619.5995 1110.8253,-613.3744"/>
</g>
<!-- 36 -->
<g id="node37" class="node">
<title>36</title>
<path fill="none" stroke="#566bd8" stroke-width="2" d="M1247,-756C1247,-756 1194,-756 1194,-756 1188,-756 1182,-750 1182,-744 1182,-744 1182,-732 1182,-732 1182,-726 1188,-720 1194,-720 1194,-720 1247,-720 1247,-720 1253,-720 1259,-726 1259,-732 1259,-732 1259,-744 1259,-744 1259,-750 1253,-756 1247,-756"/>
<text text-anchor="middle" x="1220.5" y="-735.5" font-family="sans" font-size="10.00" fill="#000000">shard_unicorn</text>
</g>
<!-- 36&#45;&gt;35 -->
<g id="edge65" class="edge">
<title>36&#45;&gt;35</title>
<path fill="none" stroke="#c0c0c0" stroke-width="2" d="M1216.7149,-719.8314C1215.1106,-712.131 1213.203,-702.9743 1211.4201,-694.4166"/>
<polygon fill="#c0c0c0" stroke="#c0c0c0" stroke-width="2" points="1214.8021,-693.4892 1209.3361,-684.4133 1207.9493,-694.9169 1214.8021,-693.4892"/>
</g>
<!-- 37&#45;&gt;36 -->
<g id="edge66" class="edge">
<title>37&#45;&gt;36</title>
<path fill="none" stroke="#c0c0c0" stroke-width="2" d="M1232.4625,-791.8314C1230.7513,-784.131 1228.7165,-774.9743 1226.8148,-766.4166"/>
<polygon fill="#c0c0c0" stroke="#c0c0c0" stroke-width="2" points="1230.1779,-765.4159 1224.5918,-756.4133 1223.3446,-766.9344 1230.1779,-765.4159"/>
</g>
<!-- 38 -->
<g id="node39" class="node">
<title>38</title>
<path fill="none" stroke="#5682d8" stroke-width="2" d="M1099.5,-684C1099.5,-684 1031.5,-684 1031.5,-684 1025.5,-684 1019.5,-678 1019.5,-672 1019.5,-672 1019.5,-660 1019.5,-660 1019.5,-654 1025.5,-648 1031.5,-648 1031.5,-648 1099.5,-648 1099.5,-648 1105.5,-648 1111.5,-654 1111.5,-660 1111.5,-660 1111.5,-672 1111.5,-672 1111.5,-678 1105.5,-684 1099.5,-684"/>
<text text-anchor="middle" x="1065.5" y="-663.5" font-family="sans" font-size="10.00" fill="#000000">shard_sort_query</text>
</g>
<!-- 38&#45;&gt;27 -->
<g id="edge54" class="edge">
<title>38&#45;&gt;27</title>
<path fill="none" stroke="#c0c0c0" stroke-width="2" d="M1065.5,-647.8314C1065.5,-640.131 1065.5,-630.9743 1065.5,-622.4166"/>
<polygon fill="#c0c0c0" stroke="#c0c0c0" stroke-width="2" points="1069.0001,-622.4132 1065.5,-612.4133 1062.0001,-622.4133 1069.0001,-622.4132"/>
</g>
<!-- 39 -->
<g id="node40" class="node">
<title>39</title>
<path fill="none" stroke="#566bd8" stroke-width="2" d="M1092,-756C1092,-756 1039,-756 1039,-756 1033,-756 1027,-750 1027,-744 1027,-744 1027,-732 1027,-732 1027,-726 1033,-720 1039,-720 1039,-720 1092,-720 1092,-720 1098,-720 1104,-726 1104,-732 1104,-732 1104,-744 1104,-744 1104,-750 1098,-756 1092,-756"/>
<text text-anchor="middle" x="1065.5" y="-735.5" font-family="sans" font-size="10.00" fill="#000000">shard_unicorn</text>
</g>
<!-- 39&#45;&gt;38 -->
<g id="edge69" class="edge">
<title>39&#45;&gt;38</title>
<path fill="none" stroke="#c0c0c0" stroke-width="2" d="M1065.5,-719.8314C1065.5,-712.131 1065.5,-702.9743 1065.5,-694.4166"/>
<polygon fill="#c0c0c0" stroke="#c0c0c0" stroke-width="2" points="1069.0001,-694.4132 1065.5,-684.4133 1062.0001,-694.4133 1069.0001,-694.4132"/>
</g>
<!-- 40&#45;&gt;39 -->
<g id="edge70" class="edge">
<title>40&#45;&gt;39</title>
<path fill="none" stroke="#c0c0c0" stroke-width="2" d="M1065.5,-791.8314C1065.5,-784.131 1065.5,-774.9743 1065.5,-766.4166"/>
<polygon fill="#c0c0c0" stroke="#c0c0c0" stroke-width="2" points="1069.0001,-766.4132 1065.5,-756.4133 1062.0001,-766.4133 1069.0001,-766.4132"/>
</g>
<!-- 41 -->
<g id="node42" class="node">
<title>41</title>
<path fill="none" stroke="#ced856" stroke-width="2" d="M996.5,-396C996.5,-396 956.5,-396 956.5,-396 950.5,-396 944.5,-390 944.5,-384 944.5,-384 944.5,-372 944.5,-372 944.5,-366 950.5,-360 956.5,-360 956.5,-360 996.5,-360 996.5,-360 1002.5,-360 1008.5,-366 1008.5,-372 1008.5,-372 1008.5,-384 1008.5,-384 1008.5,-390 1002.5,-396 996.5,-396"/>
<text text-anchor="middle" x="976.5" y="-375.5" font-family="sans" font-size="10.00" fill="#000000">align_stats</text>
</g>
<!-- 41&#45;&gt;1 -->
<g id="edge22" class="edge">
<title>41&#45;&gt;1</title>
<path fill="none" stroke="#c0c0c0" stroke-width="2" d="M974.5424,-359.978C968.9302,-311.1796 951.4389,-177.8749 924.5,-144 905.5876,-120.2183 873.6505,-106.3092 848.5442,-98.5809"/>
<polygon fill="#c0c0c0" stroke="#c0c0c0" stroke-width="2" points="849.1854,-95.1237 838.6079,-95.7289 847.2541,-101.852 849.1854,-95.1237"/>
</g>
<!-- 42 -->
<g id="node43" class="node">
<title>42</title>
<path fill="none" stroke="#d88556" stroke-width="2" d="M1507,-612C1507,-612 1462,-612 1462,-612 1456,-612 1450,-606 1450,-600 1450,-600 1450,-588 1450,-588 1450,-582 1456,-576 1462,-576 1462,-576 1507,-576 1507,-576 1513,-576 1519,-582 1519,-588 1519,-588 1519,-600 1519,-600 1519,-606 1513,-612 1507,-612"/>
<text text-anchor="middle" x="1484.5" y="-591.5" font-family="sans" font-size="10.00" fill="#000000">align_merge</text>
</g>
<!-- 42&#45;&gt;41 -->
<g id="edge73" class="edge">
<title>42&#45;&gt;41</title>
<path fill="none" stroke="#c0c0c0" stroke-width="2" d="M1463.5248,-575.8602C1439.5339,-555.8937 1398.3997,-523.9841 1358.5,-504 1217.1146,-433.186 1167.9089,-450.5825 1019.5,-396 1019.0633,-395.8394 1018.6244,-395.6769 1018.1839,-395.5127"/>
<polygon fill="#c0c0c0" stroke="#c0c0c0" stroke-width="2" points="1019.3696,-392.2187 1008.7805,-391.8712 1016.8417,-398.7463 1019.3696,-392.2187"/>
</g>
<!-- 70 -->
<g id="node71" class="node">
<title>70</title>
<path fill="none" stroke="#d8b456" stroke-width="2" d="M1506.5,-540C1506.5,-540 1442.5,-540 1442.5,-540 1436.5,-540 1430.5,-534 1430.5,-528 1430.5,-528 1430.5,-516 1430.5,-516 1430.5,-510 1436.5,-504 1442.5,-504 1442.5,-504 1506.5,-504 1506.5,-504 1512.5,-504 1518.5,-510 1518.5,-516 1518.5,-516 1518.5,-528 1518.5,-528 1518.5,-534 1512.5,-540 1506.5,-540"/>
<text text-anchor="middle" x="1474.5" y="-519.5" font-family="sans" font-size="10.00" fill="#000000">align_sort_coord</text>
</g>
<!-- 42&#45;&gt;70 -->
<g id="edge109" class="edge">
<title>42&#45;&gt;70</title>
<path fill="none" stroke="#c0c0c0" stroke-width="2" d="M1481.9766,-575.8314C1480.9071,-568.131 1479.6353,-558.9743 1478.4468,-550.4166"/>
<polygon fill="#c0c0c0" stroke="#c0c0c0" stroke-width="2" points="1481.8999,-549.8367 1477.0574,-540.4133 1474.9664,-550.7997 1481.8999,-549.8367"/>
</g>
<!-- 43 -->
<g id="node44" class="node">
<title>43</title>
<path fill="none" stroke="#5682d8" stroke-width="2" d="M1790.5,-684C1790.5,-684 1722.5,-684 1722.5,-684 1716.5,-684 1710.5,-678 1710.5,-672 1710.5,-672 1710.5,-660 1710.5,-660 1710.5,-654 1716.5,-648 1722.5,-648 1722.5,-648 1790.5,-648 1790.5,-648 1796.5,-648 1802.5,-654 1802.5,-660 1802.5,-660 1802.5,-672 1802.5,-672 1802.5,-678 1796.5,-684 1790.5,-684"/>
<text text-anchor="middle" x="1756.5" y="-663.5" font-family="sans" font-size="10.00" fill="#000000">shard_sort_query</text>
</g>
<!-- 43&#45;&gt;42 -->
<g id="edge74" class="edge">
<title>43&#45;&gt;42</title>
<path fill="none" stroke="#c0c0c0" stroke-width="2" d="M1710.2541,-655.0895C1656.0456,-642.2137 1569.5409,-621.3725 1537.5,-612 1534.702,-611.1815 1531.8319,-610.3077 1528.9451,-609.4027"/>
<polygon fill="#c0c0c0" stroke="#c0c0c0" stroke-width="2" points="1529.7375,-605.9808 1519.1459,-606.241 1527.588,-612.6426 1529.7375,-605.9808"/>
</g>
<!-- 44 -->
<g id="node45" class="node">
<title>44</title>
<path fill="none" stroke="#566bd8" stroke-width="2" d="M1850,-756C1850,-756 1797,-756 1797,-756 1791,-756 1785,-750 1785,-744 1785,-744 1785,-732 1785,-732 1785,-726 1791,-720 1797,-720 1797,-720 1850,-720 1850,-720 1856,-720 1862,-726 1862,-732 1862,-732 1862,-744 1862,-744 1862,-750 1856,-756 1850,-756"/>
<text text-anchor="middle" x="1823.5" y="-735.5" font-family="sans" font-size="10.00" fill="#000000">shard_unicorn</text>
</g>
<!-- 44&#45;&gt;43 -->
<g id="edge77" class="edge">
<title>44&#45;&gt;43</title>
<path fill="none" stroke="#c0c0c0" stroke-width="2" d="M1806.5931,-719.8314C1798.7187,-711.3694 1789.208,-701.1489 1780.5987,-691.8971"/>
<polygon fill="#c0c0c0" stroke="#c0c0c0" stroke-width="2" points="1783.0092,-689.3497 1773.6346,-684.4133 1777.8847,-694.1183 1783.0092,-689.3497"/>
</g>
<!-- 45&#45;&gt;44 -->
<g id="edge78" class="edge">
<title>45&#45;&gt;44</title>
<path fill="none" stroke="#c0c0c0" stroke-width="2" d="M1825.743,-791.8314C1825.4221,-784.131 1825.0406,-774.9743 1824.684,-766.4166"/>
<polygon fill="#c0c0c0" stroke="#c0c0c0" stroke-width="2" points="1828.1806,-766.2589 1824.2672,-756.4133 1821.1867,-766.5503 1828.1806,-766.2589"/>
</g>
<!-- 46 -->
<g id="node47" class="node">
<title>46</title>
<path fill="none" stroke="#56b1d8" stroke-width="2" d="M1785.5,-900C1785.5,-900 1669.5,-900 1669.5,-900 1663.5,-900 1657.5,-894 1657.5,-888 1657.5,-888 1657.5,-876 1657.5,-876 1657.5,-870 1663.5,-864 1669.5,-864 1669.5,-864 1785.5,-864 1785.5,-864 1791.5,-864 1797.5,-870 1797.5,-876 1797.5,-876 1797.5,-888 1797.5,-888 1797.5,-894 1791.5,-900 1785.5,-900"/>
<text text-anchor="middle" x="1727.5" y="-879.5" font-family="sans" font-size="10.00" fill="#000000">shard_saturated_reads_filter</text>
</g>
<!-- 46&#45;&gt;45 -->
<g id="edge80" class="edge">
<title>46&#45;&gt;45</title>
<path fill="none" stroke="#c0c0c0" stroke-width="2" d="M1752.4819,-863.8314C1764.7928,-854.8779 1779.8107,-843.9558 1793.0937,-834.2955"/>
<polygon fill="#c0c0c0" stroke="#c0c0c0" stroke-width="2" points="1795.4973,-836.8752 1801.5261,-828.1628 1791.3801,-831.214 1795.4973,-836.8752"/>
</g>
<!-- 46&#45;&gt;52 -->
<g id="edge90" class="edge">
<title>46&#45;&gt;52</title>
<path fill="none" stroke="#c0c0c0" stroke-width="2" d="M1666.4945,-863.9243C1632.6972,-853.9103 1590.5156,-841.412 1555.2738,-830.97"/>
<polygon fill="#c0c0c0" stroke="#c0c0c0" stroke-width="2" points="1556.1129,-827.5683 1545.5306,-828.0831 1554.1243,-834.2799 1556.1129,-827.5683"/>
</g>
<!-- 46&#45;&gt;55 -->
<g id="edge94" class="edge">
<title>46&#45;&gt;55</title>
<path fill="none" stroke="#c0c0c0" stroke-width="2" d="M1709.3314,-863.8314C1700.7848,-855.2848 1690.4443,-844.9443 1681.1198,-835.6198"/>
<polygon fill="#c0c0c0" stroke="#c0c0c0" stroke-width="2" points="1683.4592,-833.0095 1673.9133,-828.4133 1678.5095,-837.9592 1683.4592,-833.0095"/>
</g>
<!-- 76 -->
<g id="node77" class="node">
<title>76</title>
<path fill="none" stroke="#56c9d8" stroke-width="2" d="M1857,-612C1857,-612 1730,-612 1730,-612 1724,-612 1718,-606 1718,-600 1718,-600 1718,-588 1718,-588 1718,-582 1724,-576 1730,-576 1730,-576 1857,-576 1857,-576 1863,-576 1869,-582 1869,-588 1869,-588 1869,-600 1869,-600 1869,-606 1863,-612 1857,-612"/>
<text text-anchor="middle" x="1793.5" y="-591.5" font-family="sans" font-size="10.00" fill="#000000">shard_saturated_reads_extract</text>
</g>
<!-- 46&#45;&gt;76 -->
<g id="edge118" class="edge">
<title>46&#45;&gt;76</title>
<path fill="none" stroke="#c0c0c0" stroke-width="2" d="M1797.8824,-870.4261C1844.052,-861.2341 1898.3993,-846.805 1912.5,-828 1964.4073,-758.7753 1873.8856,-663.5364 1823.6334,-618.9355"/>
<polygon fill="#c0c0c0" stroke="#c0c0c0" stroke-width="2" points="1825.7778,-616.1616 1815.9419,-612.2238 1821.1754,-621.4359 1825.7778,-616.1616"/>
</g>
<!-- 47&#45;&gt;46 -->
<g id="edge81" class="edge">
<title>47&#45;&gt;46</title>
<path fill="none" stroke="#c0c0c0" stroke-width="2" d="M1727.5,-935.8314C1727.5,-928.131 1727.5,-918.9743 1727.5,-910.4166"/>
<polygon fill="#c0c0c0" stroke="#c0c0c0" stroke-width="2" points="1731.0001,-910.4132 1727.5,-900.4133 1724.0001,-910.4133 1731.0001,-910.4132"/>
</g>
<!-- 48&#45;&gt;46 -->
<g id="edge82" class="edge">
<title>48&#45;&gt;46</title>
<path fill="none" stroke="#c0c0c0" stroke-width="2" d="M1644.51,-935.8314C1658.5761,-926.7074 1675.794,-915.539 1690.8933,-905.7449"/>
<polygon fill="#c0c0c0" stroke="#c0c0c0" stroke-width="2" points="1693.014,-908.5412 1699.499,-900.1628 1689.2047,-902.6684 1693.014,-908.5412"/>
</g>
<!-- 49&#45;&gt;46 -->
<g id="edge83" class="edge">
<title>49&#45;&gt;46</title>
<path fill="none" stroke="#c0c0c0" stroke-width="2" d="M1810.49,-935.8314C1796.4239,-926.7074 1779.206,-915.539 1764.1067,-905.7449"/>
<polygon fill="#c0c0c0" stroke="#c0c0c0" stroke-width="2" points="1765.7953,-902.6684 1755.501,-900.1628 1761.986,-908.5412 1765.7953,-902.6684"/>
</g>
<!-- 50 -->
<g id="node51" class="node">
<title>50</title>
<path fill="none" stroke="#5682d8" stroke-width="2" d="M1518.5,-684C1518.5,-684 1450.5,-684 1450.5,-684 1444.5,-684 1438.5,-678 1438.5,-672 1438.5,-672 1438.5,-660 1438.5,-660 1438.5,-654 1444.5,-648 1450.5,-648 1450.5,-648 1518.5,-648 1518.5,-648 1524.5,-648 1530.5,-654 1530.5,-660 1530.5,-660 1530.5,-672 1530.5,-672 1530.5,-678 1524.5,-684 1518.5,-684"/>
<text text-anchor="middle" x="1484.5" y="-663.5" font-family="sans" font-size="10.00" fill="#000000">shard_sort_query</text>
</g>
<!-- 50&#45;&gt;42 -->
<g id="edge75" class="edge">
<title>50&#45;&gt;42</title>
<path fill="none" stroke="#c0c0c0" stroke-width="2" d="M1484.5,-647.8314C1484.5,-640.131 1484.5,-630.9743 1484.5,-622.4166"/>
<polygon fill="#c0c0c0" stroke="#c0c0c0" stroke-width="2" points="1488.0001,-622.4132 1484.5,-612.4133 1481.0001,-622.4133 1488.0001,-622.4132"/>
</g>
<!-- 51 -->
<g id="node52" class="node">
<title>51</title>
<path fill="none" stroke="#566bd8" stroke-width="2" d="M1511,-756C1511,-756 1458,-756 1458,-756 1452,-756 1446,-750 1446,-744 1446,-744 1446,-732 1446,-732 1446,-726 1452,-720 1458,-720 1458,-720 1511,-720 1511,-720 1517,-720 1523,-726 1523,-732 1523,-732 1523,-744 1523,-744 1523,-750 1517,-756 1511,-756"/>
<text text-anchor="middle" x="1484.5" y="-735.5" font-family="sans" font-size="10.00" fill="#000000">shard_unicorn</text>
</g>
<!-- 51&#45;&gt;50 -->
<g id="edge87" class="edge">
<title>51&#45;&gt;50</title>
<path fill="none" stroke="#c0c0c0" stroke-width="2" d="M1484.5,-719.8314C1484.5,-712.131 1484.5,-702.9743 1484.5,-694.4166"/>
<polygon fill="#c0c0c0" stroke="#c0c0c0" stroke-width="2" points="1488.0001,-694.4132 1484.5,-684.4133 1481.0001,-694.4133 1488.0001,-694.4132"/>
</g>
<!-- 52&#45;&gt;51 -->
<g id="edge88" class="edge">
<title>52&#45;&gt;51</title>
<path fill="none" stroke="#c0c0c0" stroke-width="2" d="M1484.5,-791.8314C1484.5,-784.131 1484.5,-774.9743 1484.5,-766.4166"/>
<polygon fill="#c0c0c0" stroke="#c0c0c0" stroke-width="2" points="1488.0001,-766.4132 1484.5,-756.4133 1481.0001,-766.4133 1488.0001,-766.4132"/>
</g>
<!-- 53 -->
<g id="node54" class="node">
<title>53</title>
<path fill="none" stroke="#5682d8" stroke-width="2" d="M1658.5,-684C1658.5,-684 1590.5,-684 1590.5,-684 1584.5,-684 1578.5,-678 1578.5,-672 1578.5,-672 1578.5,-660 1578.5,-660 1578.5,-654 1584.5,-648 1590.5,-648 1590.5,-648 1658.5,-648 1658.5,-648 1664.5,-648 1670.5,-654 1670.5,-660 1670.5,-660 1670.5,-672 1670.5,-672 1670.5,-678 1664.5,-684 1658.5,-684"/>
<text text-anchor="middle" x="1624.5" y="-663.5" font-family="sans" font-size="10.00" fill="#000000">shard_sort_query</text>
</g>
<!-- 53&#45;&gt;42 -->
<g id="edge76" class="edge">
<title>53&#45;&gt;42</title>
<path fill="none" stroke="#c0c0c0" stroke-width="2" d="M1589.1721,-647.8314C1570.7109,-638.337 1547.9452,-626.6289 1528.365,-616.5591"/>
<polygon fill="#c0c0c0" stroke="#c0c0c0" stroke-width="2" points="1529.8253,-613.3744 1519.3316,-611.9134 1526.6238,-619.5995 1529.8253,-613.3744"/>
</g>
<!-- 54 -->
<g id="node55" class="node">
<title>54</title>
<path fill="none" stroke="#566bd8" stroke-width="2" d="M1666,-756C1666,-756 1613,-756 1613,-756 1607,-756 1601,-750 1601,-744 1601,-744 1601,-732 1601,-732 1601,-726 1607,-720 1613,-720 1613,-720 1666,-720 1666,-720 1672,-720 1678,-726 1678,-732 1678,-732 1678,-744 1678,-744 1678,-750 1672,-756 1666,-756"/>
<text text-anchor="middle" x="1639.5" y="-735.5" font-family="sans" font-size="10.00" fill="#000000">shard_unicorn</text>
</g>
<!-- 54&#45;&gt;53 -->
<g id="edge91" class="edge">
<title>54&#45;&gt;53</title>
<path fill="none" stroke="#c0c0c0" stroke-width="2" d="M1635.7149,-719.8314C1634.1106,-712.131 1632.203,-702.9743 1630.4201,-694.4166"/>
<polygon fill="#c0c0c0" stroke="#c0c0c0" stroke-width="2" points="1633.8021,-693.4892 1628.3361,-684.4133 1626.9493,-694.9169 1633.8021,-693.4892"/>
</g>
<!-- 55&#45;&gt;54 -->
<g id="edge92" class="edge">
<title>55&#45;&gt;54</title>
<path fill="none" stroke="#c0c0c0" stroke-width="2" d="M1651.4625,-791.8314C1649.7513,-784.131 1647.7165,-774.9743 1645.8148,-766.4166"/>
<polygon fill="#c0c0c0" stroke="#c0c0c0" stroke-width="2" points="1649.1779,-765.4159 1643.5918,-756.4133 1642.3446,-766.9344 1649.1779,-765.4159"/>
</g>
<!-- 56 -->
<g id="node57" class="node">
<title>56</title>
<path fill="none" stroke="#70d856" stroke-width="2" d="M495.5,-252C495.5,-252 443.5,-252 443.5,-252 437.5,-252 431.5,-246 431.5,-240 431.5,-240 431.5,-228 431.5,-228 431.5,-222 437.5,-216 443.5,-216 443.5,-216 495.5,-216 495.5,-216 501.5,-216 507.5,-222 507.5,-228 507.5,-228 507.5,-240 507.5,-240 507.5,-246 501.5,-252 495.5,-252"/>
<text text-anchor="middle" x="469.5" y="-231.5" font-family="sans" font-size="10.00" fill="#000000">metadmg_dfit</text>
</g>
<!-- 56&#45;&gt;1 -->
<g id="edge23" class="edge">
<title>56&#45;&gt;1</title>
<path fill="none" stroke="#c0c0c0" stroke-width="2" d="M479.9288,-215.9549C492.9609,-195.1364 517.271,-161.5283 547.5,-144 619.2089,-102.4194 649.3682,-124.9922 730.5,-108 744.7693,-105.0115 760.4153,-101.5727 774.1197,-98.5068"/>
<polygon fill="#c0c0c0" stroke="#c0c0c0" stroke-width="2" points="775.177,-101.8566 784.1659,-96.2486 773.6418,-95.027 775.177,-101.8566"/>
</g>
<!-- 71 -->
<g id="node72" class="node">
<title>71</title>
<path fill="none" stroke="#9fd856" stroke-width="2" d="M483,-180C483,-180 402,-180 402,-180 396,-180 390,-174 390,-168 390,-168 390,-156 390,-156 390,-150 396,-144 402,-144 402,-144 483,-144 483,-144 489,-144 495,-150 495,-156 495,-156 495,-168 495,-168 495,-174 489,-180 483,-180"/>
<text text-anchor="middle" x="442.5" y="-159.5" font-family="sans" font-size="10.00" fill="#000000">metadmg_aggregate</text>
</g>
<!-- 56&#45;&gt;71 -->
<g id="edge111" class="edge">
<title>56&#45;&gt;71</title>
<path fill="none" stroke="#c0c0c0" stroke-width="2" d="M462.6868,-215.8314C459.7356,-207.9617 456.2142,-198.5712 452.945,-189.8533"/>
<polygon fill="#c0c0c0" stroke="#c0c0c0" stroke-width="2" points="456.1934,-188.5476 449.405,-180.4133 449.6391,-191.0055 456.1934,-188.5476"/>
</g>
<!-- 57 -->
<g id="node58" class="node">
<title>57</title>
<path fill="none" stroke="#59d856" stroke-width="2" d="M429,-324C429,-324 378,-324 378,-324 372,-324 366,-318 366,-312 366,-312 366,-300 366,-300 366,-294 372,-288 378,-288 378,-288 429,-288 429,-288 435,-288 441,-294 441,-300 441,-300 441,-312 441,-312 441,-318 435,-324 429,-324"/>
<text text-anchor="middle" x="403.5" y="-303.5" font-family="sans" font-size="10.00" fill="#000000">metadmg_lca</text>
</g>
<!-- 57&#45;&gt;56 -->
<g id="edge95" class="edge">
<title>57&#45;&gt;56</title>
<path fill="none" stroke="#c0c0c0" stroke-width="2" d="M420.1546,-287.8314C427.9114,-279.3694 437.2802,-269.1489 445.761,-259.8971"/>
<polygon fill="#c0c0c0" stroke="#c0c0c0" stroke-width="2" points="448.4439,-262.1499 452.6212,-252.4133 443.2838,-257.4198 448.4439,-262.1499"/>
</g>
<!-- 57&#45;&gt;71 -->
<g id="edge110" class="edge">
<title>57&#45;&gt;71</title>
<path fill="none" stroke="#c0c0c0" stroke-width="2" d="M406.5185,-287.8789C409.7568,-269.5659 415.4049,-240.5462 422.5,-216 425.0141,-207.3022 428.2523,-198.0004 431.3878,-189.6104"/>
<polygon fill="#c0c0c0" stroke="#c0c0c0" stroke-width="2" points="434.6566,-190.8611 434.9717,-180.271 428.1213,-188.3532 434.6566,-190.8611"/>
</g>
<!-- 58 -->
<g id="node59" class="node">
<title>58</title>
<path fill="none" stroke="#d8cb56" stroke-width="2" d="M388.5,-396C388.5,-396 324.5,-396 324.5,-396 318.5,-396 312.5,-390 312.5,-384 312.5,-384 312.5,-372 312.5,-372 312.5,-366 318.5,-360 324.5,-360 324.5,-360 388.5,-360 388.5,-360 394.5,-360 400.5,-366 400.5,-372 400.5,-372 400.5,-384 400.5,-384 400.5,-390 394.5,-396 388.5,-396"/>
<text text-anchor="middle" x="356.5" y="-375.5" font-family="sans" font-size="10.00" fill="#000000">align_sort_query</text>
</g>
<!-- 58&#45;&gt;57 -->
<g id="edge96" class="edge">
<title>58&#45;&gt;57</title>
<path fill="none" stroke="#c0c0c0" stroke-width="2" d="M368.3601,-359.8314C373.6629,-351.7079 380.0237,-341.9637 385.8673,-333.0118"/>
<polygon fill="#c0c0c0" stroke="#c0c0c0" stroke-width="2" points="388.9448,-334.7003 391.4802,-324.4133 383.0831,-330.8739 388.9448,-334.7003"/>
</g>
<!-- 77 -->
<g id="node78" class="node">
<title>77</title>
<path fill="none" stroke="#88d856" stroke-width="2" d="M636,-108C636,-108 563,-108 563,-108 557,-108 551,-102 551,-96 551,-96 551,-84 551,-84 551,-78 557,-72 563,-72 563,-72 636,-72 636,-72 642,-72 648,-78 648,-84 648,-84 648,-96 648,-96 648,-102 642,-108 636,-108"/>
<text text-anchor="middle" x="599.5" y="-87.5" font-family="sans" font-size="10.00" fill="#000000">metadmg_damage</text>
</g>
<!-- 58&#45;&gt;77 -->
<g id="edge119" class="edge">
<title>58&#45;&gt;77</title>
<path fill="none" stroke="#c0c0c0" stroke-width="2" d="M351.9166,-359.8847C342.0837,-316.3231 324.1676,-204.8219 380.5,-144 401.9938,-120.7933 483.5727,-105.3715 540.8431,-97.1509"/>
<polygon fill="#c0c0c0" stroke="#c0c0c0" stroke-width="2" points="541.4587,-100.599 550.8777,-95.7479 540.4894,-93.6664 541.4587,-100.599"/>
</g>
<!-- 59 -->
<g id="node60" class="node">
<title>59</title>
<path fill="none" stroke="#d89c56" stroke-width="2" d="M384,-468C384,-468 329,-468 329,-468 323,-468 317,-462 317,-456 317,-456 317,-444 317,-444 317,-438 323,-432 329,-432 329,-432 384,-432 384,-432 390,-432 396,-438 396,-444 396,-444 396,-456 396,-456 396,-462 390,-468 384,-468"/>
<text text-anchor="middle" x="356.5" y="-447.5" font-family="sans" font-size="10.00" fill="#000000">align_reassign</text>
</g>
<!-- 59&#45;&gt;58 -->
<g id="edge97" class="edge">
<title>59&#45;&gt;58</title>
<path fill="none" stroke="#c0c0c0" stroke-width="2" d="M356.5,-431.8314C356.5,-424.131 356.5,-414.9743 356.5,-406.4166"/>
<polygon fill="#c0c0c0" stroke="#c0c0c0" stroke-width="2" points="360.0001,-406.4132 356.5,-396.4133 353.0001,-406.4133 360.0001,-406.4132"/>
</g>
<!-- 60&#45;&gt;59 -->
<g id="edge98" class="edge">
<title>60&#45;&gt;59</title>
<path fill="none" stroke="#c0c0c0" stroke-width="2" d="M356.5,-503.8314C356.5,-496.131 356.5,-486.9743 356.5,-478.4166"/>
<polygon fill="#c0c0c0" stroke="#c0c0c0" stroke-width="2" points="360.0001,-478.4132 356.5,-468.4133 353.0001,-478.4133 360.0001,-478.4132"/>
</g>
<!-- 61 -->
<g id="node62" class="node">
<title>61</title>
<path fill="none" stroke="#70d856" stroke-width="2" d="M1040.5,-252C1040.5,-252 988.5,-252 988.5,-252 982.5,-252 976.5,-246 976.5,-240 976.5,-240 976.5,-228 976.5,-228 976.5,-222 982.5,-216 988.5,-216 988.5,-216 1040.5,-216 1040.5,-216 1046.5,-216 1052.5,-222 1052.5,-228 1052.5,-228 1052.5,-240 1052.5,-240 1052.5,-246 1046.5,-252 1040.5,-252"/>
<text text-anchor="middle" x="1014.5" y="-231.5" font-family="sans" font-size="10.00" fill="#000000">metadmg_dfit</text>
</g>
<!-- 61&#45;&gt;1 -->
<g id="edge24" class="edge">
<title>61&#45;&gt;1</title>
<path fill="none" stroke="#c0c0c0" stroke-width="2" d="M1008.4066,-215.9289C1000.7203,-195.7209 985.643,-163.3024 962.5,-144 929.6059,-116.5647 881.7121,-102.6021 848.7278,-95.8274"/>
<polygon fill="#c0c0c0" stroke="#c0c0c0" stroke-width="2" points="849.062,-92.3275 838.5804,-93.8725 847.7377,-99.2011 849.062,-92.3275"/>
</g>
<!-- 72 -->
<g id="node73" class="node">
<title>72</title>
<path fill="none" stroke="#9fd856" stroke-width="2" d="M1108,-180C1108,-180 1027,-180 1027,-180 1021,-180 1015,-174 1015,-168 1015,-168 1015,-156 1015,-156 1015,-150 1021,-144 1027,-144 1027,-144 1108,-144 1108,-144 1114,-144 1120,-150 1120,-156 1120,-156 1120,-168 1120,-168 1120,-174 1114,-180 1108,-180"/>
<text text-anchor="middle" x="1067.5" y="-159.5" font-family="sans" font-size="10.00" fill="#000000">metadmg_aggregate</text>
</g>
<!-- 61&#45;&gt;72 -->
<g id="edge113" class="edge">
<title>61&#45;&gt;72</title>
<path fill="none" stroke="#c0c0c0" stroke-width="2" d="M1027.8741,-215.8314C1033.9162,-207.6232 1041.1763,-197.7606 1047.8221,-188.7323"/>
<polygon fill="#c0c0c0" stroke="#c0c0c0" stroke-width="2" points="1050.8363,-190.5415 1053.9458,-180.4133 1045.1989,-186.3918 1050.8363,-190.5415"/>
</g>
<!-- 62 -->
<g id="node63" class="node">
<title>62</title>
<path fill="none" stroke="#59d856" stroke-width="2" d="M1098,-324C1098,-324 1047,-324 1047,-324 1041,-324 1035,-318 1035,-312 1035,-312 1035,-300 1035,-300 1035,-294 1041,-288 1047,-288 1047,-288 1098,-288 1098,-288 1104,-288 1110,-294 1110,-300 1110,-300 1110,-312 1110,-312 1110,-318 1104,-324 1098,-324"/>
<text text-anchor="middle" x="1072.5" y="-303.5" font-family="sans" font-size="10.00" fill="#000000">metadmg_lca</text>
</g>
<!-- 62&#45;&gt;61 -->
<g id="edge100" class="edge">
<title>62&#45;&gt;61</title>
<path fill="none" stroke="#c0c0c0" stroke-width="2" d="M1057.8642,-287.8314C1051.1839,-279.5386 1043.1432,-269.557 1035.8096,-260.4533"/>
<polygon fill="#c0c0c0" stroke="#c0c0c0" stroke-width="2" points="1038.3319,-258.0052 1029.3329,-252.4133 1032.8806,-262.3965 1038.3319,-258.0052"/>
</g>
<!-- 62&#45;&gt;72 -->
<g id="edge112" class="edge">
<title>62&#45;&gt;72</title>
<path fill="none" stroke="#c0c0c0" stroke-width="2" d="M1071.8667,-287.7623C1071.0139,-263.201 1069.4878,-219.2474 1068.4845,-190.3541"/>
<polygon fill="#c0c0c0" stroke="#c0c0c0" stroke-width="2" points="1071.9731,-189.9621 1068.1281,-180.0896 1064.9773,-190.2051 1071.9731,-189.9621"/>
</g>
<!-- 63 -->
<g id="node64" class="node">
<title>63</title>
<path fill="none" stroke="#d8cb56" stroke-width="2" d="M1104.5,-396C1104.5,-396 1040.5,-396 1040.5,-396 1034.5,-396 1028.5,-390 1028.5,-384 1028.5,-384 1028.5,-372 1028.5,-372 1028.5,-366 1034.5,-360 1040.5,-360 1040.5,-360 1104.5,-360 1104.5,-360 1110.5,-360 1116.5,-366 1116.5,-372 1116.5,-372 1116.5,-384 1116.5,-384 1116.5,-390 1110.5,-396 1104.5,-396"/>
<text text-anchor="middle" x="1072.5" y="-375.5" font-family="sans" font-size="10.00" fill="#000000">align_sort_query</text>
</g>
<!-- 63&#45;&gt;62 -->
<g id="edge101" class="edge">
<title>63&#45;&gt;62</title>
<path fill="none" stroke="#c0c0c0" stroke-width="2" d="M1072.5,-359.8314C1072.5,-352.131 1072.5,-342.9743 1072.5,-334.4166"/>
<polygon fill="#c0c0c0" stroke="#c0c0c0" stroke-width="2" points="1076.0001,-334.4132 1072.5,-324.4133 1069.0001,-334.4133 1076.0001,-334.4132"/>
</g>
<!-- 78 -->
<g id="node79" class="node">
<title>78</title>
<path fill="none" stroke="#88d856" stroke-width="2" d="M1202,-108C1202,-108 1129,-108 1129,-108 1123,-108 1117,-102 1117,-96 1117,-96 1117,-84 1117,-84 1117,-78 1123,-72 1129,-72 1129,-72 1202,-72 1202,-72 1208,-72 1214,-78 1214,-84 1214,-84 1214,-96 1214,-96 1214,-102 1208,-108 1202,-108"/>
<text text-anchor="middle" x="1165.5" y="-87.5" font-family="sans" font-size="10.00" fill="#000000">metadmg_damage</text>
</g>
<!-- 63&#45;&gt;78 -->
<g id="edge120" class="edge">
<title>63&#45;&gt;78</title>
<path fill="none" stroke="#c0c0c0" stroke-width="2" d="M1092.1896,-359.7287C1101.536,-349.9912 1112.0467,-337.295 1118.5,-324 1151.9184,-255.1517 1161.5804,-163.8483 1164.3702,-118.3263"/>
<polygon fill="#c0c0c0" stroke="#c0c0c0" stroke-width="2" points="1167.8674,-118.4716 1164.9174,-108.2958 1160.8778,-118.0903 1167.8674,-118.4716"/>
</g>
<!-- 64 -->
<g id="node65" class="node">
<title>64</title>
<path fill="none" stroke="#d89c56" stroke-width="2" d="M1098,-468C1098,-468 1043,-468 1043,-468 1037,-468 1031,-462 1031,-456 1031,-456 1031,-444 1031,-444 1031,-438 1037,-432 1043,-432 1043,-432 1098,-432 1098,-432 1104,-432 1110,-438 1110,-444 1110,-444 1110,-456 1110,-456 1110,-462 1104,-468 1098,-468"/>
<text text-anchor="middle" x="1070.5" y="-447.5" font-family="sans" font-size="10.00" fill="#000000">align_reassign</text>
</g>
<!-- 64&#45;&gt;63 -->
<g id="edge102" class="edge">
<title>64&#45;&gt;63</title>
<path fill="none" stroke="#c0c0c0" stroke-width="2" d="M1071.0047,-431.8314C1071.2186,-424.131 1071.4729,-414.9743 1071.7106,-406.4166"/>
<polygon fill="#c0c0c0" stroke="#c0c0c0" stroke-width="2" points="1075.2094,-406.5066 1071.9885,-396.4133 1068.2121,-406.3122 1075.2094,-406.5066"/>
</g>
<!-- 65&#45;&gt;64 -->
<g id="edge103" class="edge">
<title>65&#45;&gt;64</title>
<path fill="none" stroke="#c0c0c0" stroke-width="2" d="M1069.0047,-503.8314C1069.2186,-496.131 1069.4729,-486.9743 1069.7106,-478.4166"/>
<polygon fill="#c0c0c0" stroke="#c0c0c0" stroke-width="2" points="1073.2094,-478.5066 1069.9885,-468.4133 1066.2121,-478.3122 1073.2094,-478.5066"/>
</g>
<!-- 66 -->
<g id="node67" class="node">
<title>66</title>
<path fill="none" stroke="#70d856" stroke-width="2" d="M1355.5,-252C1355.5,-252 1303.5,-252 1303.5,-252 1297.5,-252 1291.5,-246 1291.5,-240 1291.5,-240 1291.5,-228 1291.5,-228 1291.5,-222 1297.5,-216 1303.5,-216 1303.5,-216 1355.5,-216 1355.5,-216 1361.5,-216 1367.5,-222 1367.5,-228 1367.5,-228 1367.5,-240 1367.5,-240 1367.5,-246 1361.5,-252 1355.5,-252"/>
<text text-anchor="middle" x="1329.5" y="-231.5" font-family="sans" font-size="10.00" fill="#000000">metadmg_dfit</text>
</g>
<!-- 66&#45;&gt;1 -->
<g id="edge25" class="edge">
<title>66&#45;&gt;1</title>
<path fill="none" stroke="#c0c0c0" stroke-width="2" d="M1302.7487,-215.8271C1270.8189,-195.0495 1215.1179,-161.6401 1162.5,-144 1052.3054,-107.0574 914.0779,-95.2407 848.8506,-91.5778"/>
<polygon fill="#c0c0c0" stroke="#c0c0c0" stroke-width="2" points="848.8239,-88.0716 838.6531,-91.0389 848.4544,-95.0618 848.8239,-88.0716"/>
</g>
<!-- 73 -->
<g id="node74" class="node">
<title>73</title>
<path fill="none" stroke="#9fd856" stroke-width="2" d="M1385,-180C1385,-180 1304,-180 1304,-180 1298,-180 1292,-174 1292,-168 1292,-168 1292,-156 1292,-156 1292,-150 1298,-144 1304,-144 1304,-144 1385,-144 1385,-144 1391,-144 1397,-150 1397,-156 1397,-156 1397,-168 1397,-168 1397,-174 1391,-180 1385,-180"/>
<text text-anchor="middle" x="1344.5" y="-159.5" font-family="sans" font-size="10.00" fill="#000000">metadmg_aggregate</text>
</g>
<!-- 66&#45;&gt;73 -->
<g id="edge115" class="edge">
<title>66&#45;&gt;73</title>
<path fill="none" stroke="#c0c0c0" stroke-width="2" d="M1333.2851,-215.8314C1334.8894,-208.131 1336.797,-198.9743 1338.5799,-190.4166"/>
<polygon fill="#c0c0c0" stroke="#c0c0c0" stroke-width="2" points="1342.0507,-190.9169 1340.6639,-180.4133 1335.1979,-189.4892 1342.0507,-190.9169"/>
</g>
<!-- 67 -->
<g id="node68" class="node">
<title>67</title>
<path fill="none" stroke="#59d856" stroke-width="2" d="M1421,-324C1421,-324 1370,-324 1370,-324 1364,-324 1358,-318 1358,-312 1358,-312 1358,-300 1358,-300 1358,-294 1364,-288 1370,-288 1370,-288 1421,-288 1421,-288 1427,-288 1433,-294 1433,-300 1433,-300 1433,-312 1433,-312 1433,-318 1427,-324 1421,-324"/>
<text text-anchor="middle" x="1395.5" y="-303.5" font-family="sans" font-size="10.00" fill="#000000">metadmg_lca</text>
</g>
<!-- 67&#45;&gt;66 -->
<g id="edge105" class="edge">
<title>67&#45;&gt;66</title>
<path fill="none" stroke="#c0c0c0" stroke-width="2" d="M1378.8454,-287.8314C1371.0886,-279.3694 1361.7198,-269.1489 1353.239,-259.8971"/>
<polygon fill="#c0c0c0" stroke="#c0c0c0" stroke-width="2" points="1355.7162,-257.4198 1346.3788,-252.4133 1350.5561,-262.1499 1355.7162,-257.4198"/>
</g>
<!-- 67&#45;&gt;73 -->
<g id="edge114" class="edge">
<title>67&#45;&gt;73</title>
<path fill="none" stroke="#c0c0c0" stroke-width="2" d="M1393.4484,-287.9141C1390.9421,-269.3775 1385.8335,-239.9568 1376.5,-216 1372.8976,-206.7535 1367.809,-197.2524 1362.7474,-188.848"/>
<polygon fill="#c0c0c0" stroke="#c0c0c0" stroke-width="2" points="1365.6158,-186.8342 1357.3372,-180.2225 1359.6858,-190.5538 1365.6158,-186.8342"/>
</g>
<!-- 68 -->
<g id="node69" class="node">
<title>68</title>
<path fill="none" stroke="#d8cb56" stroke-width="2" d="M1504.5,-396C1504.5,-396 1440.5,-396 1440.5,-396 1434.5,-396 1428.5,-390 1428.5,-384 1428.5,-384 1428.5,-372 1428.5,-372 1428.5,-366 1434.5,-360 1440.5,-360 1440.5,-360 1504.5,-360 1504.5,-360 1510.5,-360 1516.5,-366 1516.5,-372 1516.5,-372 1516.5,-384 1516.5,-384 1516.5,-390 1510.5,-396 1504.5,-396"/>
<text text-anchor="middle" x="1472.5" y="-375.5" font-family="sans" font-size="10.00" fill="#000000">align_sort_query</text>
</g>
<!-- 68&#45;&gt;67 -->
<g id="edge106" class="edge">
<title>68&#45;&gt;67</title>
<path fill="none" stroke="#c0c0c0" stroke-width="2" d="M1453.0696,-359.8314C1443.768,-351.1337 1432.4796,-340.5783 1422.3714,-331.1265"/>
<polygon fill="#c0c0c0" stroke="#c0c0c0" stroke-width="2" points="1424.6189,-328.4363 1414.9241,-324.1628 1419.8379,-333.5493 1424.6189,-328.4363"/>
</g>
<!-- 79 -->
<g id="node80" class="node">
<title>79</title>
<path fill="none" stroke="#88d856" stroke-width="2" d="M1509,-252C1509,-252 1436,-252 1436,-252 1430,-252 1424,-246 1424,-240 1424,-240 1424,-228 1424,-228 1424,-222 1430,-216 1436,-216 1436,-216 1509,-216 1509,-216 1515,-216 1521,-222 1521,-228 1521,-228 1521,-240 1521,-240 1521,-246 1515,-252 1509,-252"/>
<text text-anchor="middle" x="1472.5" y="-231.5" font-family="sans" font-size="10.00" fill="#000000">metadmg_damage</text>
</g>
<!-- 68&#45;&gt;79 -->
<g id="edge121" class="edge">
<title>68&#45;&gt;79</title>
<path fill="none" stroke="#c0c0c0" stroke-width="2" d="M1472.5,-359.7623C1472.5,-335.201 1472.5,-291.2474 1472.5,-262.3541"/>
<polygon fill="#c0c0c0" stroke="#c0c0c0" stroke-width="2" points="1476.0001,-262.0896 1472.5,-252.0896 1469.0001,-262.0897 1476.0001,-262.0896"/>
</g>
<!-- 69 -->
<g id="node70" class="node">
<title>69</title>
<path fill="none" stroke="#d89c56" stroke-width="2" d="M1500,-468C1500,-468 1445,-468 1445,-468 1439,-468 1433,-462 1433,-456 1433,-456 1433,-444 1433,-444 1433,-438 1439,-432 1445,-432 1445,-432 1500,-432 1500,-432 1506,-432 1512,-438 1512,-444 1512,-444 1512,-456 1512,-456 1512,-462 1506,-468 1500,-468"/>
<text text-anchor="middle" x="1472.5" y="-447.5" font-family="sans" font-size="10.00" fill="#000000">align_reassign</text>
</g>
<!-- 69&#45;&gt;68 -->
<g id="edge107" class="edge">
<title>69&#45;&gt;68</title>
<path fill="none" stroke="#c0c0c0" stroke-width="2" d="M1472.5,-431.8314C1472.5,-424.131 1472.5,-414.9743 1472.5,-406.4166"/>
<polygon fill="#c0c0c0" stroke="#c0c0c0" stroke-width="2" points="1476.0001,-406.4132 1472.5,-396.4133 1469.0001,-406.4133 1476.0001,-406.4132"/>
</g>
<!-- 70&#45;&gt;69 -->
<g id="edge108" class="edge">
<title>70&#45;&gt;69</title>
<path fill="none" stroke="#c0c0c0" stroke-width="2" d="M1473.9953,-503.8314C1473.7814,-496.131 1473.5271,-486.9743 1473.2894,-478.4166"/>
<polygon fill="#c0c0c0" stroke="#c0c0c0" stroke-width="2" points="1476.7879,-478.3122 1473.0115,-468.4133 1469.7906,-478.5066 1476.7879,-478.3122"/>
</g>
<!-- 71&#45;&gt;0 -->
<g id="edge5" class="edge">
<title>71&#45;&gt;0</title>
<path fill="none" stroke="#c0c0c0" stroke-width="2" d="M495.1277,-146.0111C497.6162,-145.3182 500.0831,-144.6444 502.5,-144 570.4173,-125.8926 588.6037,-126.1859 656.5,-108 709.8746,-93.7037 721.6147,-84.2315 775.5,-72 888.5542,-46.3377 1024.8931,-29.2408 1089.3197,-21.9713"/>
<polygon fill="#c0c0c0" stroke="#c0c0c0" stroke-width="2" points="1089.8436,-25.4347 1099.3945,-20.8488 1089.0685,-18.4778 1089.8436,-25.4347"/>
</g>
<!-- 71&#45;&gt;1 -->
<g id="edge26" class="edge">
<title>71&#45;&gt;1</title>
<path fill="none" stroke="#c0c0c0" stroke-width="2" d="M495.0447,-147.3458C499.9162,-146.1499 504.7901,-145.0136 509.5,-144 606.7895,-123.0632 632.7754,-126.8018 730.5,-108 744.8163,-105.2456 760.4722,-101.8559 774.1712,-98.7637"/>
<polygon fill="#c0c0c0" stroke="#c0c0c0" stroke-width="2" points="775.2403,-102.1097 784.2109,-96.4724 773.6828,-95.2852 775.2403,-102.1097"/>
</g>
<!-- 72&#45;&gt;0 -->
<g id="edge6" class="edge">
<title>72&#45;&gt;0</title>
<path fill="none" stroke="#c0c0c0" stroke-width="2" d="M1074.9724,-143.7623C1085.1243,-118.9846 1103.3624,-74.4714 1115.1942,-45.5939"/>
<polygon fill="#c0c0c0" stroke="#c0c0c0" stroke-width="2" points="1118.5356,-46.67 1119.0883,-36.0896 1112.0582,-44.0161 1118.5356,-46.67"/>
</g>
<!-- 72&#45;&gt;1 -->
<g id="edge27" class="edge">
<title>72&#45;&gt;1</title>
<path fill="none" stroke="#c0c0c0" stroke-width="2" d="M1014.767,-147.1689C965.0675,-133.1909 891.8882,-112.6092 848.2305,-100.3305"/>
<polygon fill="#c0c0c0" stroke="#c0c0c0" stroke-width="2" points="849.165,-96.9575 838.5908,-97.6193 847.2697,-103.6961 849.165,-96.9575"/>
</g>
<!-- 73&#45;&gt;0 -->
<g id="edge7" class="edge">
<title>73&#45;&gt;0</title>
<path fill="none" stroke="#c0c0c0" stroke-width="2" d="M1335.3178,-143.9471C1324.1929,-123.7558 1303.6477,-91.3526 1277.5,-72 1243.2726,-46.6674 1196.0446,-32.3296 1163.5677,-24.8913"/>
<polygon fill="#c0c0c0" stroke="#c0c0c0" stroke-width="2" points="1164.0928,-21.4237 1153.5768,-22.7135 1162.6019,-28.2631 1164.0928,-21.4237"/>
</g>
<!-- 73&#45;&gt;1 -->
<g id="edge28" class="edge">
<title>73&#45;&gt;1</title>
<path fill="none" stroke="#c0c0c0" stroke-width="2" d="M1291.9352,-154.8993C1184.4585,-140.3809 941.8675,-107.6106 848.8094,-95.0399"/>
<polygon fill="#c0c0c0" stroke="#c0c0c0" stroke-width="2" points="849.1113,-91.549 838.7328,-93.6787 848.1742,-98.486 849.1113,-91.549"/>
</g>
<!-- 74&#45;&gt;0 -->
<g id="edge2" class="edge">
<title>74&#45;&gt;0</title>
<path fill="none" stroke="#c0c0c0" stroke-width="2" d="M453.4055,-81.3925C481.118,-78.3229 512.7169,-74.9078 541.5,-72 748.4051,-51.0976 996.8174,-29.2365 1089.3721,-21.203"/>
<polygon fill="#c0c0c0" stroke="#c0c0c0" stroke-width="2" points="1089.7069,-24.6872 1099.3673,-20.3367 1089.1024,-17.7134 1089.7069,-24.6872"/>
</g>
<!-- 75&#45;&gt;0 -->
<g id="edge3" class="edge">
<title>75&#45;&gt;0</title>
<path fill="none" stroke="#c0c0c0" stroke-width="2" d="M1274.5491,-503.8902C1274.4343,-429.0746 1270.7758,-144.6144 1222.5,-72 1208.6994,-51.2417 1184.0619,-37.6223 1163.2022,-29.2538"/>
<polygon fill="#c0c0c0" stroke="#c0c0c0" stroke-width="2" points="1164.226,-25.8998 1153.6337,-25.6654 1161.768,-32.454 1164.226,-25.8998"/>
</g>
<!-- 76&#45;&gt;0 -->
<g id="edge4" class="edge">
<title>76&#45;&gt;0</title>
<path fill="none" stroke="#c0c0c0" stroke-width="2" d="M1722.9506,-575.9236C1663.6514,-555.9837 1588.5,-517.4146 1588.5,-450 1588.5,-450 1588.5,-450 1588.5,-162 1588.5,-73.1846 1273.3669,-32.8507 1163.6358,-21.4983"/>
<polygon fill="#c0c0c0" stroke="#c0c0c0" stroke-width="2" points="1163.9772,-18.0151 1153.6754,-20.4896 1163.2718,-24.9795 1163.9772,-18.0151"/>
</g>
<!-- 77&#45;&gt;0 -->
<g id="edge8" class="edge">
<title>77&#45;&gt;0</title>
<path fill="none" stroke="#c0c0c0" stroke-width="2" d="M648.1518,-81.0209C665.3001,-77.9826 684.73,-74.6828 702.5,-72 844.8173,-50.5137 1014.8749,-30.5874 1088.9404,-22.1914"/>
<polygon fill="#c0c0c0" stroke="#c0c0c0" stroke-width="2" points="1089.6129,-25.6378 1099.1569,-21.0375 1088.8272,-18.682 1089.6129,-25.6378"/>
</g>
<!-- 78&#45;&gt;0 -->
<g id="edge9" class="edge">
<title>78&#45;&gt;0</title>
<path fill="none" stroke="#c0c0c0" stroke-width="2" d="M1155.6587,-71.8314C1151.3043,-63.7925 1146.0902,-54.1666 1141.2831,-45.2918"/>
<polygon fill="#c0c0c0" stroke="#c0c0c0" stroke-width="2" points="1144.3143,-43.5392 1136.4739,-36.4133 1138.1592,-46.8732 1144.3143,-43.5392"/>
</g>
<!-- 79&#45;&gt;0 -->
<g id="edge10" class="edge">
<title>79&#45;&gt;0</title>
<path fill="none" stroke="#c0c0c0" stroke-width="2" d="M1461.293,-215.8798C1448.9864,-196.788 1427.9673,-166.4358 1405.5,-144 1367.5092,-106.0624 1356.5254,-96.0027 1308.5,-72 1261.0715,-48.2956 1201.3794,-33.0586 1163.5669,-25.008"/>
<polygon fill="#c0c0c0" stroke="#c0c0c0" stroke-width="2" points="1164.0123,-21.5261 1153.5105,-22.9268 1162.5937,-28.3808 1164.0123,-21.5261"/>
</g>
</g>
</svg>
