<?xml version="1.0" encoding="UTF-8" standalone="no"?>
<!DOCTYPE svg PUBLIC "-//W3C//DTD SVG 1.1//EN"
 "http://www.w3.org/Graphics/SVG/1.1/DTD/svg11.dtd">
<!-- Generated by graphviz version 2.40.1 (0)
 -->
<!-- Title: snakemake_dag Pages: 1 -->
<svg width="386pt" height="1052pt"
 viewBox="0.00 0.00 385.50 1052.00" xmlns="http://www.w3.org/2000/svg" xmlns:xlink="http://www.w3.org/1999/xlink">
<g id="graph0" class="graph" transform="scale(1 1) rotate(0) translate(4 1048)">
<title>snakemake_dag</title>
<polygon fill="#ffffff" stroke="transparent" points="-4,4 -4,-1048 381.5,-1048 381.5,4 -4,4"/>
<!-- 0 -->
<g id="node1" class="node">
<title>0</title>
<path fill="none" stroke="#b6d856" stroke-width="2" d="M241,-36C241,-36 211,-36 211,-36 205,-36 199,-30 199,-24 199,-24 199,-12 199,-12 199,-6 205,0 211,0 211,0 241,0 241,0 247,0 253,-6 253,-12 253,-12 253,-24 253,-24 253,-30 247,-36 241,-36"/>
<text text-anchor="middle" x="226" y="-15.5" font-family="sans" font-size="10.00" fill="#000000">all</text>
</g>
<!-- 1 -->
<g id="node2" class="node">
<title>1</title>
<path fill="none" stroke="#56d86b" stroke-width="2" d="M100,-108C100,-108 70,-108 70,-108 64,-108 58,-102 58,-96 58,-96 58,-84 58,-84 58,-78 64,-72 70,-72 70,-72 100,-72 100,-72 106,-72 112,-78 112,-84 112,-84 112,-96 112,-96 112,-102 106,-108 100,-108"/>
<text text-anchor="middle" x="85" y="-87.5" font-family="sans" font-size="10.00" fill="#000000">multiqc</text>
</g>
<!-- 1&#45;&gt;0 -->
<g id="edge4" class="edge">
<title>1&#45;&gt;0</title>
<path fill="none" stroke="#c0c0c0" stroke-width="2" d="M112.1862,-76.1177C134.2282,-64.8622 165.4929,-48.8972 189.6783,-36.5473"/>
<polygon fill="#c0c0c0" stroke="#c0c0c0" stroke-width="2" points="191.5829,-39.5047 198.8972,-31.8397 188.3994,-33.2704 191.5829,-39.5047"/>
</g>
<!-- 2 -->
<g id="node3" class="node">
<title>2</title>
<path fill="none" stroke="#56d882" stroke-width="2" d="M83,-1044C83,-1044 27,-1044 27,-1044 21,-1044 15,-1038 15,-1032 15,-1032 15,-1020 15,-1020 15,-1014 21,-1008 27,-1008 27,-1008 83,-1008 83,-1008 89,-1008 95,-1014 95,-1020 95,-1020 95,-1032 95,-1032 95,-1038 89,-1044 83,-1044"/>
<text text-anchor="middle" x="55" y="-1023.5" font-family="sans" font-size="10.00" fill="#000000">shard_bowtie2</text>
</g>
<!-- 2&#45;&gt;1 -->
<g id="edge5" class="edge">
<title>2&#45;&gt;1</title>
<path fill="none" stroke="#c0c0c0" stroke-width="2" d="M43.0658,-1007.7554C26.8899,-981.2192 0,-929.903 0,-882 0,-882 0,-882 0,-234 0,-187.4968 33.281,-142.8088 58.193,-115.8723"/>
<polygon fill="#c0c0c0" stroke="#c0c0c0" stroke-width="2" points="60.9206,-118.0835 65.2856,-108.4296 55.8531,-113.2543 60.9206,-118.0835"/>
</g>
<!-- 7 -->
<g id="node8" class="node">
<title>7</title>
<path fill="none" stroke="#569ad8" stroke-width="2" d="M193.5,-828C193.5,-828 64.5,-828 64.5,-828 58.5,-828 52.5,-822 52.5,-816 52.5,-816 52.5,-804 52.5,-804 52.5,-798 58.5,-792 64.5,-792 64.5,-792 193.5,-792 193.5,-792 199.5,-792 205.5,-798 205.5,-804 205.5,-804 205.5,-816 205.5,-816 205.5,-822 199.5,-828 193.5,-828"/>
<text text-anchor="middle" x="129" y="-807.5" font-family="sans" font-size="10.00" fill="#000000">shard_saturated_reads_remove</text>
</g>
<!-- 2&#45;&gt;7 -->
<g id="edge13" class="edge">
<title>2&#45;&gt;7</title>
<path fill="none" stroke="#c0c0c0" stroke-width="2" d="M53.3507,-1007.9008C51.3073,-976.7644 50.5725,-911.8056 74,-864 79.3288,-853.1262 87.7626,-843.1925 96.4405,-834.8929"/>
<polygon fill="#c0c0c0" stroke="#c0c0c0" stroke-width="2" points="98.966,-837.3288 104.0574,-828.0375 94.2831,-832.1258 98.966,-837.3288"/>
</g>
<!-- 9 -->
<g id="node10" class="node">
<title>9</title>
<path fill="none" stroke="#56d8c9" stroke-width="2" d="M175.5,-972C175.5,-972 106.5,-972 106.5,-972 100.5,-972 94.5,-966 94.5,-960 94.5,-960 94.5,-948 94.5,-948 94.5,-942 100.5,-936 106.5,-936 106.5,-936 175.5,-936 175.5,-936 181.5,-936 187.5,-942 187.5,-948 187.5,-948 187.5,-960 187.5,-960 187.5,-966 181.5,-972 175.5,-972"/>
<text text-anchor="middle" x="141" y="-951.5" font-family="sans" font-size="10.00" fill="#000000">shard_count_alns</text>
</g>
<!-- 2&#45;&gt;9 -->
<g id="edge16" class="edge">
<title>2&#45;&gt;9</title>
<path fill="none" stroke="#c0c0c0" stroke-width="2" d="M76.7014,-1007.8314C87.1921,-999.0485 99.9455,-988.3712 111.3194,-978.8489"/>
<polygon fill="#c0c0c0" stroke="#c0c0c0" stroke-width="2" points="113.8847,-981.2659 119.3055,-972.1628 109.3911,-975.8986 113.8847,-981.2659"/>
</g>
<!-- 3 -->
<g id="node4" class="node">
<title>3</title>
<path fill="none" stroke="#ced856" stroke-width="2" d="M83,-468C83,-468 43,-468 43,-468 37,-468 31,-462 31,-456 31,-456 31,-444 31,-444 31,-438 37,-432 43,-432 43,-432 83,-432 83,-432 89,-432 95,-438 95,-444 95,-444 95,-456 95,-456 95,-462 89,-468 83,-468"/>
<text text-anchor="middle" x="63" y="-447.5" font-family="sans" font-size="10.00" fill="#000000">align_stats</text>
</g>
<!-- 3&#45;&gt;1 -->
<g id="edge7" class="edge">
<title>3&#45;&gt;1</title>
<path fill="none" stroke="#c0c0c0" stroke-width="2" d="M57.82,-431.9889C50.4973,-404.8949 38,-351.9269 38,-306 38,-306 38,-306 38,-234 38,-191.6562 56.5932,-145.6118 70.3906,-117.273"/>
<polygon fill="#c0c0c0" stroke="#c0c0c0" stroke-width="2" points="73.6755,-118.5304 75.0325,-108.0228 67.4191,-115.3907 73.6755,-118.5304"/>
</g>
<!-- 4 -->
<g id="node5" class="node">
<title>4</title>
<path fill="none" stroke="#d88556" stroke-width="2" d="M151.5,-612C151.5,-612 106.5,-612 106.5,-612 100.5,-612 94.5,-606 94.5,-600 94.5,-600 94.5,-588 94.5,-588 94.5,-582 100.5,-576 106.5,-576 106.5,-576 151.5,-576 151.5,-576 157.5,-576 163.5,-582 163.5,-588 163.5,-588 163.5,-600 163.5,-600 163.5,-606 157.5,-612 151.5,-612"/>
<text text-anchor="middle" x="129" y="-591.5" font-family="sans" font-size="10.00" fill="#000000">align_merge</text>
</g>
<!-- 4&#45;&gt;3 -->
<g id="edge9" class="edge">
<title>4&#45;&gt;3</title>
<path fill="none" stroke="#c0c0c0" stroke-width="2" d="M115.5198,-575.6679C108.4693,-565.5122 100.068,-552.4536 94,-540 84.2122,-519.9122 76.1156,-495.9365 70.6543,-477.784"/>
<polygon fill="#c0c0c0" stroke="#c0c0c0" stroke-width="2" points="73.9892,-476.718 67.8239,-468.1017 67.2704,-478.6821 73.9892,-476.718"/>
</g>
<!-- 14 -->
<g id="node15" class="node">
<title>14</title>
<path fill="none" stroke="#d8b456" stroke-width="2" d="M179,-540C179,-540 115,-540 115,-540 109,-540 103,-534 103,-528 103,-528 103,-516 103,-516 103,-510 109,-504 115,-504 115,-504 179,-504 179,-504 185,-504 191,-510 191,-516 191,-516 191,-528 191,-528 191,-534 185,-540 179,-540"/>
<text text-anchor="middle" x="147" y="-519.5" font-family="sans" font-size="10.00" fill="#000000">align_sort_coord</text>
</g>
<!-- 4&#45;&gt;14 -->
<g id="edge21" class="edge">
<title>4&#45;&gt;14</title>
<path fill="none" stroke="#c0c0c0" stroke-width="2" d="M133.5422,-575.8314C135.4884,-568.0463 137.8068,-558.7729 139.9663,-550.1347"/>
<polygon fill="#c0c0c0" stroke="#c0c0c0" stroke-width="2" points="143.3668,-550.9636 142.3967,-540.4133 136.5758,-549.2658 143.3668,-550.9636"/>
</g>
<!-- 5 -->
<g id="node6" class="node">
<title>5</title>
<path fill="none" stroke="#5682d8" stroke-width="2" d="M163,-684C163,-684 95,-684 95,-684 89,-684 83,-678 83,-672 83,-672 83,-660 83,-660 83,-654 89,-648 95,-648 95,-648 163,-648 163,-648 169,-648 175,-654 175,-660 175,-660 175,-672 175,-672 175,-678 169,-684 163,-684"/>
<text text-anchor="middle" x="129" y="-663.5" font-family="sans" font-size="10.00" fill="#000000">shard_sort_query</text>
</g>
<!-- 5&#45;&gt;4 -->
<g id="edge10" class="edge">
<title>5&#45;&gt;4</title>
<path fill="none" stroke="#c0c0c0" stroke-width="2" d="M129,-647.8314C129,-640.131 129,-630.9743 129,-622.4166"/>
<polygon fill="#c0c0c0" stroke="#c0c0c0" stroke-width="2" points="132.5001,-622.4132 129,-612.4133 125.5001,-622.4133 132.5001,-622.4132"/>
</g>
<!-- 6 -->
<g id="node7" class="node">
<title>6</title>
<path fill="none" stroke="#566bd8" stroke-width="2" d="M155.5,-756C155.5,-756 102.5,-756 102.5,-756 96.5,-756 90.5,-750 90.5,-744 90.5,-744 90.5,-732 90.5,-732 90.5,-726 96.5,-720 102.5,-720 102.5,-720 155.5,-720 155.5,-720 161.5,-720 167.5,-726 167.5,-732 167.5,-732 167.5,-744 167.5,-744 167.5,-750 161.5,-756 155.5,-756"/>
<text text-anchor="middle" x="129" y="-735.5" font-family="sans" font-size="10.00" fill="#000000">shard_unicorn</text>
</g>
<!-- 6&#45;&gt;5 -->
<g id="edge11" class="edge">
<title>6&#45;&gt;5</title>
<path fill="none" stroke="#c0c0c0" stroke-width="2" d="M129,-719.8314C129,-712.131 129,-702.9743 129,-694.4166"/>
<polygon fill="#c0c0c0" stroke="#c0c0c0" stroke-width="2" points="132.5001,-694.4132 129,-684.4133 125.5001,-694.4133 132.5001,-694.4132"/>
</g>
<!-- 7&#45;&gt;6 -->
<g id="edge12" class="edge">
<title>7&#45;&gt;6</title>
<path fill="none" stroke="#c0c0c0" stroke-width="2" d="M129,-791.8314C129,-784.131 129,-774.9743 129,-766.4166"/>
<polygon fill="#c0c0c0" stroke="#c0c0c0" stroke-width="2" points="132.5001,-766.4132 129,-756.4133 125.5001,-766.4133 132.5001,-766.4132"/>
</g>
<!-- 8 -->
<g id="node9" class="node">
<title>8</title>
<path fill="none" stroke="#56b1d8" stroke-width="2" d="M211,-900C211,-900 95,-900 95,-900 89,-900 83,-894 83,-888 83,-888 83,-876 83,-876 83,-870 89,-864 95,-864 95,-864 211,-864 211,-864 217,-864 223,-870 223,-876 223,-876 223,-888 223,-888 223,-894 217,-900 211,-900"/>
<text text-anchor="middle" x="153" y="-879.5" font-family="sans" font-size="10.00" fill="#000000">shard_saturated_reads_filter</text>
</g>
<!-- 8&#45;&gt;7 -->
<g id="edge14" class="edge">
<title>8&#45;&gt;7</title>
<path fill="none" stroke="#c0c0c0" stroke-width="2" d="M146.9438,-863.8314C144.3488,-856.0463 141.2576,-846.7729 138.3782,-838.1347"/>
<polygon fill="#c0c0c0" stroke="#c0c0c0" stroke-width="2" points="141.6205,-836.7933 135.1378,-828.4133 134.9797,-839.0069 141.6205,-836.7933"/>
</g>
<!-- 16 -->
<g id="node17" class="node">
<title>16</title>
<path fill="none" stroke="#56c9d8" stroke-width="2" d="M365.5,-756C365.5,-756 238.5,-756 238.5,-756 232.5,-756 226.5,-750 226.5,-744 226.5,-744 226.5,-732 226.5,-732 226.5,-726 232.5,-720 238.5,-720 238.5,-720 365.5,-720 365.5,-720 371.5,-720 377.5,-726 377.5,-732 377.5,-732 377.5,-744 377.5,-744 377.5,-750 371.5,-756 365.5,-756"/>
<text text-anchor="middle" x="302" y="-735.5" font-family="sans" font-size="10.00" fill="#000000">shard_saturated_reads_extract</text>
</g>
<!-- 8&#45;&gt;16 -->
<g id="edge24" class="edge">
<title>8&#45;&gt;16</title>
<path fill="none" stroke="#c0c0c0" stroke-width="2" d="M174.6359,-863.9472C186.7334,-853.6582 201.9566,-840.3833 215,-828 237.2025,-806.9211 261.3148,-781.7874 278.5115,-763.4446"/>
<polygon fill="#c0c0c0" stroke="#c0c0c0" stroke-width="2" points="281.167,-765.7291 285.4325,-756.0308 276.0501,-760.9523 281.167,-765.7291"/>
</g>
<!-- 9&#45;&gt;8 -->
<g id="edge15" class="edge">
<title>9&#45;&gt;8</title>
<path fill="none" stroke="#c0c0c0" stroke-width="2" d="M144.0281,-935.8314C145.3115,-928.131 146.8376,-918.9743 148.2639,-910.4166"/>
<polygon fill="#c0c0c0" stroke="#c0c0c0" stroke-width="2" points="151.7394,-910.8526 149.9311,-900.4133 144.8347,-909.7018 151.7394,-910.8526"/>
</g>
<!-- 10 -->
<g id="node11" class="node">
<title>10</title>
<path fill="none" stroke="#70d856" stroke-width="2" d="M130,-252C130,-252 78,-252 78,-252 72,-252 66,-246 66,-240 66,-240 66,-228 66,-228 66,-222 72,-216 78,-216 78,-216 130,-216 130,-216 136,-216 142,-222 142,-228 142,-228 142,-240 142,-240 142,-246 136,-252 130,-252"/>
<text text-anchor="middle" x="104" y="-231.5" font-family="sans" font-size="10.00" fill="#000000">metadmg_dfit</text>
</g>
<!-- 10&#45;&gt;1 -->
<g id="edge8" class="edge">
<title>10&#45;&gt;1</title>
<path fill="none" stroke="#c0c0c0" stroke-width="2" d="M101.5936,-215.7623C98.3529,-191.201 92.5535,-147.2474 88.7412,-118.3541"/>
<polygon fill="#c0c0c0" stroke="#c0c0c0" stroke-width="2" points="92.1649,-117.5458 87.3868,-108.0896 85.2251,-118.4616 92.1649,-117.5458"/>
</g>
<!-- 15 -->
<g id="node16" class="node">
<title>15</title>
<path fill="none" stroke="#9fd856" stroke-width="2" d="M206.5,-180C206.5,-180 125.5,-180 125.5,-180 119.5,-180 113.5,-174 113.5,-168 113.5,-168 113.5,-156 113.5,-156 113.5,-150 119.5,-144 125.5,-144 125.5,-144 206.5,-144 206.5,-144 212.5,-144 218.5,-150 218.5,-156 218.5,-156 218.5,-168 218.5,-168 218.5,-174 212.5,-180 206.5,-180"/>
<text text-anchor="middle" x="166" y="-159.5" font-family="sans" font-size="10.00" fill="#000000">metadmg_aggregate</text>
</g>
<!-- 10&#45;&gt;15 -->
<g id="edge23" class="edge">
<title>10&#45;&gt;15</title>
<path fill="none" stroke="#c0c0c0" stroke-width="2" d="M119.6452,-215.8314C126.8591,-207.454 135.557,-197.3531 143.4605,-188.1749"/>
<polygon fill="#c0c0c0" stroke="#c0c0c0" stroke-width="2" points="146.2711,-190.2748 150.1441,-180.4133 140.9667,-185.7071 146.2711,-190.2748"/>
</g>
<!-- 11 -->
<g id="node12" class="node">
<title>11</title>
<path fill="none" stroke="#59d856" stroke-width="2" d="M187.5,-324C187.5,-324 136.5,-324 136.5,-324 130.5,-324 124.5,-318 124.5,-312 124.5,-312 124.5,-300 124.5,-300 124.5,-294 130.5,-288 136.5,-288 136.5,-288 187.5,-288 187.5,-288 193.5,-288 199.5,-294 199.5,-300 199.5,-300 199.5,-312 199.5,-312 199.5,-318 193.5,-324 187.5,-324"/>
<text text-anchor="middle" x="162" y="-303.5" font-family="sans" font-size="10.00" fill="#000000">metadmg_lca</text>
</g>
<!-- 11&#45;&gt;10 -->
<g id="edge17" class="edge">
<title>11&#45;&gt;10</title>
<path fill="none" stroke="#c0c0c0" stroke-width="2" d="M147.3642,-287.8314C140.6839,-279.5386 132.6432,-269.557 125.3096,-260.4533"/>
<polygon fill="#c0c0c0" stroke="#c0c0c0" stroke-width="2" points="127.8319,-258.0052 118.8329,-252.4133 122.3806,-262.3965 127.8319,-258.0052"/>
</g>
<!-- 11&#45;&gt;15 -->
<g id="edge22" class="edge">
<title>11&#45;&gt;15</title>
<path fill="none" stroke="#c0c0c0" stroke-width="2" d="M162.5066,-287.7623C163.1889,-263.201 164.4098,-219.2474 165.2124,-190.3541"/>
<polygon fill="#c0c0c0" stroke="#c0c0c0" stroke-width="2" points="168.7184,-190.183 165.4975,-180.0896 161.7211,-189.9885 168.7184,-190.183"/>
</g>
<!-- 12 -->
<g id="node13" class="node">
<title>12</title>
<path fill="none" stroke="#d8cb56" stroke-width="2" d="M194,-396C194,-396 130,-396 130,-396 124,-396 118,-390 118,-384 118,-384 118,-372 118,-372 118,-366 124,-360 130,-360 130,-360 194,-360 194,-360 200,-360 206,-366 206,-372 206,-372 206,-384 206,-384 206,-390 200,-396 194,-396"/>
<text text-anchor="middle" x="162" y="-375.5" font-family="sans" font-size="10.00" fill="#000000">align_sort_query</text>
</g>
<!-- 12&#45;&gt;11 -->
<g id="edge18" class="edge">
<title>12&#45;&gt;11</title>
<path fill="none" stroke="#c0c0c0" stroke-width="2" d="M162,-359.8314C162,-352.131 162,-342.9743 162,-334.4166"/>
<polygon fill="#c0c0c0" stroke="#c0c0c0" stroke-width="2" points="165.5001,-334.4132 162,-324.4133 158.5001,-334.4133 165.5001,-334.4132"/>
</g>
<!-- 17 -->
<g id="node18" class="node">
<title>17</title>
<path fill="none" stroke="#88d856" stroke-width="2" d="M283.5,-252C283.5,-252 210.5,-252 210.5,-252 204.5,-252 198.5,-246 198.5,-240 198.5,-240 198.5,-228 198.5,-228 198.5,-222 204.5,-216 210.5,-216 210.5,-216 283.5,-216 283.5,-216 289.5,-216 295.5,-222 295.5,-228 295.5,-228 295.5,-240 295.5,-240 295.5,-246 289.5,-252 283.5,-252"/>
<text text-anchor="middle" x="247" y="-231.5" font-family="sans" font-size="10.00" fill="#000000">metadmg_damage</text>
</g>
<!-- 12&#45;&gt;17 -->
<g id="edge25" class="edge">
<title>12&#45;&gt;17</title>
<path fill="none" stroke="#c0c0c0" stroke-width="2" d="M180.5534,-359.6768C189.9227,-349.7312 200.9732,-336.8641 209,-324 221.2725,-304.3317 231.2728,-280.0087 237.9287,-261.6089"/>
<polygon fill="#c0c0c0" stroke="#c0c0c0" stroke-width="2" points="241.2696,-262.6582 241.2755,-252.0633 234.6639,-260.3421 241.2696,-262.6582"/>
</g>
<!-- 13 -->
<g id="node14" class="node">
<title>13</title>
<path fill="none" stroke="#d89c56" stroke-width="2" d="M186.5,-468C186.5,-468 131.5,-468 131.5,-468 125.5,-468 119.5,-462 119.5,-456 119.5,-456 119.5,-444 119.5,-444 119.5,-438 125.5,-432 131.5,-432 131.5,-432 186.5,-432 186.5,-432 192.5,-432 198.5,-438 198.5,-444 198.5,-444 198.5,-456 198.5,-456 198.5,-462 192.5,-468 186.5,-468"/>
<text text-anchor="middle" x="159" y="-447.5" font-family="sans" font-size="10.00" fill="#000000">align_reassign</text>
</g>
<!-- 13&#45;&gt;12 -->
<g id="edge19" class="edge">
<title>13&#45;&gt;12</title>
<path fill="none" stroke="#c0c0c0" stroke-width="2" d="M159.757,-431.8314C160.0779,-424.131 160.4594,-414.9743 160.816,-406.4166"/>
<polygon fill="#c0c0c0" stroke="#c0c0c0" stroke-width="2" points="164.3133,-406.5503 161.2328,-396.4133 157.3194,-406.2589 164.3133,-406.5503"/>
</g>
<!-- 14&#45;&gt;13 -->
<g id="edge20" class="edge">
<title>14&#45;&gt;13</title>
<path fill="none" stroke="#c0c0c0" stroke-width="2" d="M150.0281,-503.8314C151.3115,-496.131 152.8376,-486.9743 154.2639,-478.4166"/>
<polygon fill="#c0c0c0" stroke="#c0c0c0" stroke-width="2" points="157.7394,-478.8526 155.9311,-468.4133 150.8347,-477.7018 157.7394,-478.8526"/>
</g>
<!-- 15&#45;&gt;0 -->
<g id="edge3" class="edge">
<title>15&#45;&gt;0</title>
<path fill="none" stroke="#c0c0c0" stroke-width="2" d="M173.599,-143.7623C183.9231,-118.9846 202.4703,-74.4714 214.5025,-45.5939"/>
<polygon fill="#c0c0c0" stroke="#c0c0c0" stroke-width="2" points="217.8472,-46.6666 218.4627,-36.0896 211.3857,-43.9742 217.8472,-46.6666"/>
</g>
<!-- 15&#45;&gt;1 -->
<g id="edge6" class="edge">
<title>15&#45;&gt;1</title>
<path fill="none" stroke="#c0c0c0" stroke-width="2" d="M145.5603,-143.8314C135.6795,-135.0485 123.6676,-124.3712 112.955,-114.8489"/>
<polygon fill="#c0c0c0" stroke="#c0c0c0" stroke-width="2" points="115.2326,-112.1906 105.4332,-108.1628 110.582,-117.4224 115.2326,-112.1906"/>
</g>
<!-- 16&#45;&gt;0 -->
<g id="edge1" class="edge">
<title>16&#45;&gt;0</title>
<path fill="none" stroke="#c0c0c0" stroke-width="2" d="M306.5584,-719.9498C313.0023,-692.8059 324,-639.775 324,-594 324,-594 324,-594 324,-162 324,-113.6274 285.7374,-69.4833 257.0288,-43.1696"/>
<polygon fill="#c0c0c0" stroke="#c0c0c0" stroke-width="2" points="259.0239,-40.2601 249.2246,-36.2319 254.3731,-45.4918 259.0239,-40.2601"/>
</g>
<!-- 17&#45;&gt;0 -->
<g id="edge2" class="edge">
<title>17&#45;&gt;0</title>
<path fill="none" stroke="#c0c0c0" stroke-width="2" d="M245.2457,-215.9555C241.5861,-178.3144 233.1154,-91.1867 228.7343,-46.1246"/>
<polygon fill="#c0c0c0" stroke="#c0c0c0" stroke-width="2" points="232.2154,-45.7594 227.7641,-36.1451 225.2483,-46.4369 232.2154,-45.7594"/>
</g>
</g>
</svg>
