<?xml version="1.0" encoding="UTF-8" standalone="no"?>
<!DOCTYPE svg PUBLIC "-//W3C//DTD SVG 1.1//EN"
 "http://www.w3.org/Graphics/SVG/1.1/DTD/svg11.dtd">
<!-- Generated by graphviz version 2.40.1 (0)
 -->
<!-- Title: snakemake_dag Pages: 1 -->
<svg width="304pt" height="836pt"
 viewBox="0.00 0.00 303.50 836.00" xmlns="http://www.w3.org/2000/svg" xmlns:xlink="http://www.w3.org/1999/xlink">
<g id="graph0" class="graph" transform="scale(1 1) rotate(0) translate(4 832)">
<title>snakemake_dag</title>
<polygon fill="#ffffff" stroke="transparent" points="-4,4 -4,-832 299.5,-832 299.5,4 -4,4"/>
<!-- 0 -->
<g id="node1" class="node">
<title>0</title>
<path fill="none" stroke="#8fd856" stroke-width="2" d="M176,-36C176,-36 146,-36 146,-36 140,-36 134,-30 134,-24 134,-24 134,-12 134,-12 134,-6 140,0 146,0 146,0 176,0 176,0 182,0 188,-6 188,-12 188,-12 188,-24 188,-24 188,-30 182,-36 176,-36"/>
<text text-anchor="middle" x="161" y="-15.5" font-family="sans" font-size="10.00" fill="#000000">all</text>
</g>
<!-- 1 -->
<g id="node2" class="node">
<title>1</title>
<path fill="none" stroke="#56a9d8" stroke-width="2" d="M95,-108C95,-108 65,-108 65,-108 59,-108 53,-102 53,-96 53,-96 53,-84 53,-84 53,-78 59,-72 65,-72 65,-72 95,-72 95,-72 101,-72 107,-78 107,-84 107,-84 107,-96 107,-96 107,-102 101,-108 95,-108"/>
<text text-anchor="middle" x="80" y="-87.5" font-family="sans" font-size="10.00" fill="#000000">multiqc</text>
</g>
<!-- 1&#45;&gt;0 -->
<g id="edge1" class="edge">
<title>1&#45;&gt;0</title>
<path fill="none" stroke="#c0c0c0" stroke-width="2" d="M100.4397,-71.8314C110.3205,-63.0485 122.3324,-52.3712 133.045,-42.8489"/>
<polygon fill="#c0c0c0" stroke="#c0c0c0" stroke-width="2" points="135.418,-45.4224 140.5668,-36.1628 130.7674,-40.1906 135.418,-45.4224"/>
</g>
<!-- 2 -->
<g id="node3" class="node">
<title>2</title>
<path fill="none" stroke="#70d856" stroke-width="2" d="M55,-828C55,-828 25,-828 25,-828 19,-828 13,-822 13,-816 13,-816 13,-804 13,-804 13,-798 19,-792 25,-792 25,-792 55,-792 55,-792 61,-792 67,-798 67,-804 67,-804 67,-816 67,-816 67,-822 61,-828 55,-828"/>
<text text-anchor="middle" x="40" y="-807.5" font-family="sans" font-size="10.00" fill="#000000">bowtie2</text>
</g>
<!-- 2&#45;&gt;1 -->
<g id="edge7" class="edge">
<title>2&#45;&gt;1</title>
<path fill="none" stroke="#c0c0c0" stroke-width="2" d="M31.517,-791.81C19.7754,-764.9218 0,-712.7039 0,-666 0,-666 0,-666 0,-234 0,-187.9277 31.6802,-142.8164 55.1688,-115.7014"/>
<polygon fill="#c0c0c0" stroke="#c0c0c0" stroke-width="2" points="57.8025,-118.0067 61.8468,-108.2141 52.5785,-113.3474 57.8025,-118.0067"/>
</g>
<!-- 6 -->
<g id="node7" class="node">
<title>6</title>
<path fill="none" stroke="#5692d8" stroke-width="2" d="M120,-756C120,-756 40,-756 40,-756 34,-756 28,-750 28,-744 28,-744 28,-732 28,-732 28,-726 34,-720 40,-720 40,-720 120,-720 120,-720 126,-720 132,-726 132,-732 132,-732 132,-744 132,-744 132,-750 126,-756 120,-756"/>
<text text-anchor="middle" x="80" y="-735.5" font-family="sans" font-size="10.00" fill="#000000">shard_clean_header</text>
</g>
<!-- 2&#45;&gt;6 -->
<g id="edge11" class="edge">
<title>2&#45;&gt;6</title>
<path fill="none" stroke="#c0c0c0" stroke-width="2" d="M50.0937,-791.8314C54.5597,-783.7925 59.9075,-774.1666 64.8379,-765.2918"/>
<polygon fill="#c0c0c0" stroke="#c0c0c0" stroke-width="2" points="67.9735,-766.8546 69.7704,-756.4133 61.8544,-763.4551 67.9735,-766.8546"/>
</g>
<!-- 3 -->
<g id="node4" class="node">
<title>3</title>
<path fill="none" stroke="#afd856" stroke-width="2" d="M90,-468C90,-468 50,-468 50,-468 44,-468 38,-462 38,-456 38,-456 38,-444 38,-444 38,-438 44,-432 50,-432 50,-432 90,-432 90,-432 96,-432 102,-438 102,-444 102,-444 102,-456 102,-456 102,-462 96,-468 90,-468"/>
<text text-anchor="middle" x="70" y="-447.5" font-family="sans" font-size="10.00" fill="#000000">align_stats</text>
</g>
<!-- 3&#45;&gt;1 -->
<g id="edge4" class="edge">
<title>3&#45;&gt;1</title>
<path fill="none" stroke="#c0c0c0" stroke-width="2" d="M63.2136,-431.6497C53.8203,-404.5619 38,-352.0977 38,-306 38,-306 38,-306 38,-234 38,-192.0688 54.6152,-145.918 66.9448,-117.4435"/>
<polygon fill="#c0c0c0" stroke="#c0c0c0" stroke-width="2" points="70.2152,-118.7032 71.0929,-108.1447 63.8225,-115.8513 70.2152,-118.7032"/>
</g>
<!-- 4 -->
<g id="node5" class="node">
<title>4</title>
<path fill="none" stroke="#d88d56" stroke-width="2" d="M102.5,-612C102.5,-612 57.5,-612 57.5,-612 51.5,-612 45.5,-606 45.5,-600 45.5,-600 45.5,-588 45.5,-588 45.5,-582 51.5,-576 57.5,-576 57.5,-576 102.5,-576 102.5,-576 108.5,-576 114.5,-582 114.5,-588 114.5,-588 114.5,-600 114.5,-600 114.5,-606 108.5,-612 102.5,-612"/>
<text text-anchor="middle" x="80" y="-591.5" font-family="sans" font-size="10.00" fill="#000000">align_merge</text>
</g>
<!-- 4&#45;&gt;3 -->
<g id="edge8" class="edge">
<title>4&#45;&gt;3</title>
<path fill="none" stroke="#c0c0c0" stroke-width="2" d="M78.7335,-575.7623C77.0279,-551.201 73.9755,-507.2474 71.969,-478.3541"/>
<polygon fill="#c0c0c0" stroke="#c0c0c0" stroke-width="2" points="75.4407,-477.8231 71.2562,-468.0896 68.4575,-478.3081 75.4407,-477.8231"/>
</g>
<!-- 11 -->
<g id="node12" class="node">
<title>11</title>
<path fill="none" stroke="#d8cb56" stroke-width="2" d="M188,-540C188,-540 124,-540 124,-540 118,-540 112,-534 112,-528 112,-528 112,-516 112,-516 112,-510 118,-504 124,-504 124,-504 188,-504 188,-504 194,-504 200,-510 200,-516 200,-516 200,-528 200,-528 200,-534 194,-540 188,-540"/>
<text text-anchor="middle" x="156" y="-519.5" font-family="sans" font-size="10.00" fill="#000000">align_sort_coord</text>
</g>
<!-- 4&#45;&gt;11 -->
<g id="edge16" class="edge">
<title>4&#45;&gt;11</title>
<path fill="none" stroke="#c0c0c0" stroke-width="2" d="M99.178,-575.8314C108.3588,-567.1337 119.5006,-556.5783 129.4776,-547.1265"/>
<polygon fill="#c0c0c0" stroke="#c0c0c0" stroke-width="2" points="131.9757,-549.5811 136.8281,-540.1628 127.1615,-544.4995 131.9757,-549.5811"/>
</g>
<!-- 5 -->
<g id="node6" class="node">
<title>5</title>
<path fill="none" stroke="#5673d8" stroke-width="2" d="M114,-684C114,-684 46,-684 46,-684 40,-684 34,-678 34,-672 34,-672 34,-660 34,-660 34,-654 40,-648 46,-648 46,-648 114,-648 114,-648 120,-648 126,-654 126,-660 126,-660 126,-672 126,-672 126,-678 120,-684 114,-684"/>
<text text-anchor="middle" x="80" y="-663.5" font-family="sans" font-size="10.00" fill="#000000">shard_sort_query</text>
</g>
<!-- 5&#45;&gt;4 -->
<g id="edge9" class="edge">
<title>5&#45;&gt;4</title>
<path fill="none" stroke="#c0c0c0" stroke-width="2" d="M80,-647.8314C80,-640.131 80,-630.9743 80,-622.4166"/>
<polygon fill="#c0c0c0" stroke="#c0c0c0" stroke-width="2" points="83.5001,-622.4132 80,-612.4133 76.5001,-622.4133 83.5001,-622.4132"/>
</g>
<!-- 6&#45;&gt;5 -->
<g id="edge10" class="edge">
<title>6&#45;&gt;5</title>
<path fill="none" stroke="#c0c0c0" stroke-width="2" d="M80,-719.8314C80,-712.131 80,-702.9743 80,-694.4166"/>
<polygon fill="#c0c0c0" stroke="#c0c0c0" stroke-width="2" points="83.5001,-694.4132 80,-684.4133 76.5001,-694.4133 83.5001,-694.4132"/>
</g>
<!-- 7 -->
<g id="node8" class="node">
<title>7</title>
<path fill="none" stroke="#56d8c9" stroke-width="2" d="M130,-252C130,-252 78,-252 78,-252 72,-252 66,-246 66,-240 66,-240 66,-228 66,-228 66,-222 72,-216 78,-216 78,-216 130,-216 130,-216 136,-216 142,-222 142,-228 142,-228 142,-240 142,-240 142,-246 136,-252 130,-252"/>
<text text-anchor="middle" x="104" y="-231.5" font-family="sans" font-size="10.00" fill="#000000">metadmg_dfit</text>
</g>
<!-- 7&#45;&gt;1 -->
<g id="edge5" class="edge">
<title>7&#45;&gt;1</title>
<path fill="none" stroke="#c0c0c0" stroke-width="2" d="M100.9604,-215.7623C96.8488,-191.0928 89.4766,-146.8598 84.6622,-117.9731"/>
<polygon fill="#c0c0c0" stroke="#c0c0c0" stroke-width="2" points="88.1114,-117.3781 83.0149,-108.0896 81.2066,-118.529 88.1114,-117.3781"/>
</g>
<!-- 12 -->
<g id="node13" class="node">
<title>12</title>
<path fill="none" stroke="#56d892" stroke-width="2" d="M201.5,-180C201.5,-180 120.5,-180 120.5,-180 114.5,-180 108.5,-174 108.5,-168 108.5,-168 108.5,-156 108.5,-156 108.5,-150 114.5,-144 120.5,-144 120.5,-144 201.5,-144 201.5,-144 207.5,-144 213.5,-150 213.5,-156 213.5,-156 213.5,-168 213.5,-168 213.5,-174 207.5,-180 201.5,-180"/>
<text text-anchor="middle" x="161" y="-159.5" font-family="sans" font-size="10.00" fill="#000000">metadmg_aggregate</text>
</g>
<!-- 7&#45;&gt;12 -->
<g id="edge17" class="edge">
<title>7&#45;&gt;12</title>
<path fill="none" stroke="#c0c0c0" stroke-width="2" d="M118.3835,-215.8314C124.9486,-207.5386 132.8507,-197.557 140.0578,-188.4533"/>
<polygon fill="#c0c0c0" stroke="#c0c0c0" stroke-width="2" points="142.9599,-190.4262 146.4228,-180.4133 137.4716,-186.0813 142.9599,-190.4262"/>
</g>
<!-- 8 -->
<g id="node9" class="node">
<title>8</title>
<path fill="none" stroke="#56c9d8" stroke-width="2" d="M192.5,-324C192.5,-324 141.5,-324 141.5,-324 135.5,-324 129.5,-318 129.5,-312 129.5,-312 129.5,-300 129.5,-300 129.5,-294 135.5,-288 141.5,-288 141.5,-288 192.5,-288 192.5,-288 198.5,-288 204.5,-294 204.5,-300 204.5,-300 204.5,-312 204.5,-312 204.5,-318 198.5,-324 192.5,-324"/>
<text text-anchor="middle" x="167" y="-303.5" font-family="sans" font-size="10.00" fill="#000000">metadmg_lca</text>
</g>
<!-- 8&#45;&gt;7 -->
<g id="edge12" class="edge">
<title>8&#45;&gt;7</title>
<path fill="none" stroke="#c0c0c0" stroke-width="2" d="M151.1024,-287.8314C143.7722,-279.454 134.934,-269.3531 126.9031,-260.1749"/>
<polygon fill="#c0c0c0" stroke="#c0c0c0" stroke-width="2" points="129.3307,-257.6343 120.1116,-252.4133 124.0627,-262.2438 129.3307,-257.6343"/>
</g>
<!-- 8&#45;&gt;12 -->
<g id="edge18" class="edge">
<title>8&#45;&gt;12</title>
<path fill="none" stroke="#c0c0c0" stroke-width="2" d="M166.2401,-287.7623C165.2167,-263.201 163.3853,-219.2474 162.1814,-190.3541"/>
<polygon fill="#c0c0c0" stroke="#c0c0c0" stroke-width="2" points="165.6671,-189.9352 161.7537,-180.0896 158.6732,-190.2267 165.6671,-189.9352"/>
</g>
<!-- 9 -->
<g id="node10" class="node">
<title>9</title>
<path fill="none" stroke="#c6d856" stroke-width="2" d="M199,-396C199,-396 135,-396 135,-396 129,-396 123,-390 123,-384 123,-384 123,-372 123,-372 123,-366 129,-360 135,-360 135,-360 199,-360 199,-360 205,-360 211,-366 211,-372 211,-372 211,-384 211,-384 211,-390 205,-396 199,-396"/>
<text text-anchor="middle" x="167" y="-375.5" font-family="sans" font-size="10.00" fill="#000000">align_sort_query</text>
</g>
<!-- 9&#45;&gt;8 -->
<g id="edge13" class="edge">
<title>9&#45;&gt;8</title>
<path fill="none" stroke="#c0c0c0" stroke-width="2" d="M167,-359.8314C167,-352.131 167,-342.9743 167,-334.4166"/>
<polygon fill="#c0c0c0" stroke="#c0c0c0" stroke-width="2" points="170.5001,-334.4132 167,-324.4133 163.5001,-334.4133 170.5001,-334.4132"/>
</g>
<!-- 13 -->
<g id="node14" class="node">
<title>13</title>
<path fill="none" stroke="#56d8a9" stroke-width="2" d="M283.5,-252C283.5,-252 210.5,-252 210.5,-252 204.5,-252 198.5,-246 198.5,-240 198.5,-240 198.5,-228 198.5,-228 198.5,-222 204.5,-216 210.5,-216 210.5,-216 283.5,-216 283.5,-216 289.5,-216 295.5,-222 295.5,-228 295.5,-228 295.5,-240 295.5,-240 295.5,-246 289.5,-252 283.5,-252"/>
<text text-anchor="middle" x="247" y="-231.5" font-family="sans" font-size="10.00" fill="#000000">metadmg_damage</text>
</g>
<!-- 9&#45;&gt;13 -->
<g id="edge19" class="edge">
<title>9&#45;&gt;13</title>
<path fill="none" stroke="#c0c0c0" stroke-width="2" d="M185.3367,-359.7372C194.5554,-349.8082 205.3606,-336.9377 213,-324 224.5545,-304.4318 233.4309,-280.2423 239.2121,-261.8708"/>
<polygon fill="#c0c0c0" stroke="#c0c0c0" stroke-width="2" points="242.6321,-262.6528 242.179,-252.0677 235.9323,-260.6251 242.6321,-262.6528"/>
</g>
<!-- 10 -->
<g id="node11" class="node">
<title>10</title>
<path fill="none" stroke="#d8ac56" stroke-width="2" d="M192.5,-468C192.5,-468 137.5,-468 137.5,-468 131.5,-468 125.5,-462 125.5,-456 125.5,-456 125.5,-444 125.5,-444 125.5,-438 131.5,-432 137.5,-432 137.5,-432 192.5,-432 192.5,-432 198.5,-432 204.5,-438 204.5,-444 204.5,-444 204.5,-456 204.5,-456 204.5,-462 198.5,-468 192.5,-468"/>
<text text-anchor="middle" x="165" y="-447.5" font-family="sans" font-size="10.00" fill="#000000">align_reassign</text>
</g>
<!-- 10&#45;&gt;9 -->
<g id="edge14" class="edge">
<title>10&#45;&gt;9</title>
<path fill="none" stroke="#c0c0c0" stroke-width="2" d="M165.5047,-431.8314C165.7186,-424.131 165.9729,-414.9743 166.2106,-406.4166"/>
<polygon fill="#c0c0c0" stroke="#c0c0c0" stroke-width="2" points="169.7094,-406.5066 166.4885,-396.4133 162.7121,-406.3122 169.7094,-406.5066"/>
</g>
<!-- 11&#45;&gt;10 -->
<g id="edge15" class="edge">
<title>11&#45;&gt;10</title>
<path fill="none" stroke="#c0c0c0" stroke-width="2" d="M158.2711,-503.8314C159.2336,-496.131 160.3782,-486.9743 161.4479,-478.4166"/>
<polygon fill="#c0c0c0" stroke="#c0c0c0" stroke-width="2" points="164.9309,-478.7702 162.6983,-468.4133 157.9849,-477.9019 164.9309,-478.7702"/>
</g>
<!-- 12&#45;&gt;0 -->
<g id="edge2" class="edge">
<title>12&#45;&gt;0</title>
<path fill="none" stroke="#c0c0c0" stroke-width="2" d="M161,-143.7623C161,-119.201 161,-75.2474 161,-46.3541"/>
<polygon fill="#c0c0c0" stroke="#c0c0c0" stroke-width="2" points="164.5001,-46.0896 161,-36.0896 157.5001,-46.0897 164.5001,-46.0896"/>
</g>
<!-- 12&#45;&gt;1 -->
<g id="edge6" class="edge">
<title>12&#45;&gt;1</title>
<path fill="none" stroke="#c0c0c0" stroke-width="2" d="M140.5603,-143.8314C130.6795,-135.0485 118.6676,-124.3712 107.955,-114.8489"/>
<polygon fill="#c0c0c0" stroke="#c0c0c0" stroke-width="2" points="110.2326,-112.1906 100.4332,-108.1628 105.582,-117.4224 110.2326,-112.1906"/>
</g>
<!-- 13&#45;&gt;0 -->
<g id="edge3" class="edge">
<title>13&#45;&gt;0</title>
<path fill="none" stroke="#c0c0c0" stroke-width="2" d="M242.9552,-215.7645C238.6374,-197.3625 231.1624,-168.275 222,-144 208.7586,-108.9178 189.3207,-70.3552 175.9652,-45.2506"/>
<polygon fill="#c0c0c0" stroke="#c0c0c0" stroke-width="2" points="178.9854,-43.4766 171.17,-36.3233 172.8186,-46.789 178.9854,-43.4766"/>
</g>
</g>
</svg>
